<?xml version="1.0" encoding="utf-8" standalone="no"?>
<!DOCTYPE svg PUBLIC "-//W3C//DTD SVG 1.1//EN"
  "http://www.w3.org/Graphics/SVG/1.1/DTD/svg11.dtd">
<svg xmlns:xlink="http://www.w3.org/1999/xlink" width="504pt" height="403.2pt" viewBox="0 0 504 403.2" xmlns="http://www.w3.org/2000/svg" version="1.1">
 <metadata>
  <rdf:RDF xmlns:dc="http://purl.org/dc/elements/1.1/" xmlns:cc="http://creativecommons.org/ns#" xmlns:rdf="http://www.w3.org/1999/02/22-rdf-syntax-ns#">
   <cc:Work>
    <dc:type rdf:resource="http://purl.org/dc/dcmitype/StillImage"/>
    <dc:date>2026-07-10T12:41:59.226694</dc:date>
    <dc:format>image/svg+xml</dc:format>
    <dc:creator>
     <cc:Agent>
      <dc:title>Matplotlib v3.11.0, https://matplotlib.org/</dc:title>
     </cc:Agent>
    </dc:creator>
   </cc:Work>
  </rdf:RDF>
 </metadata>
 <defs>
  <style type="text/css">*{stroke-linejoin: round; stroke-linecap: butt}</style>
 </defs>
 <g id="figure_1">
  <g id="patch_1">
   <path d="M 0 403.2 
L 504 403.2 
L 504 0 
L 0 0 
z
" style="fill: #ffffff"/>
  </g>
  <g id="axes_1">
   <g id="patch_2">
    <path d="M 42.28 175.197656 
L 493.2 175.197656 
L 493.2 48.96 
L 42.28 48.96 
z
" style="fill: #ffffff"/>
   </g>
   <g id="matplotlib.axis_1">
    <g id="xtick_1">
     <g id="line2d_1">
      <path d="M 62.410375 175.197656 
L 62.410375 48.96 
" clip-path="url(#p5cb6135f6d)" style="fill: none; stroke: #b0b0b0; stroke-width: 0.8; stroke-linecap: square"/>
     </g>
     <g id="line2d_2">
      <defs>
       <path id="m1ef4e2377f" d="M 0 0 
L 0 3.5 
" style="stroke: #000000; stroke-width: 0.8"/>
      </defs>
      <g>
       <use xlink:href="#m1ef4e2377f" x="62.410375" y="175.197656" style="stroke: #000000; stroke-width: 0.8"/>
      </g>
     </g>
     <g id="text_1">
      <!-- 0 -->
      <g transform="translate(59.229125 189.795312) scale(0.1 -0.1)">
       <defs>
        <path id="DejaVuSans-13" d="M 2034 4250 
Q 1547 4250 1301 3770 
Q 1056 3291 1056 2328 
Q 1056 1369 1301 889 
Q 1547 409 2034 409 
Q 2525 409 2770 889 
Q 3016 1369 3016 2328 
Q 3016 3291 2770 3770 
Q 2525 4250 2034 4250 
z
M 2034 4750 
Q 2819 4750 3233 4129 
Q 3647 3509 3647 2328 
Q 3647 1150 3233 529 
Q 2819 -91 2034 -91 
Q 1250 -91 836 529 
Q 422 1150 422 2328 
Q 422 3509 836 4129 
Q 1250 4750 2034 4750 
z
" transform="scale(0.015625)"/>
       </defs>
       <use xlink:href="#DejaVuSans-13"/>
      </g>
     </g>
    </g>
    <g id="xtick_2">
     <g id="line2d_3">
      <path d="M 130.742775 175.197656 
L 130.742775 48.96 
" clip-path="url(#p5cb6135f6d)" style="fill: none; stroke: #b0b0b0; stroke-width: 0.8; stroke-linecap: square"/>
     </g>
     <g id="line2d_4">
      <g>
       <use xlink:href="#m1ef4e2377f" x="130.742775" y="175.197656" style="stroke: #000000; stroke-width: 0.8"/>
      </g>
     </g>
     <g id="text_2">
      <!-- 10 -->
      <g transform="translate(124.380275 189.795312) scale(0.1 -0.1)">
       <defs>
        <path id="DejaVuSans-14" d="M 794 531 
L 1825 531 
L 1825 4091 
L 703 3866 
L 703 4441 
L 1819 4666 
L 2450 4666 
L 2450 531 
L 3481 531 
L 3481 0 
L 794 0 
L 794 531 
z
" transform="scale(0.015625)"/>
       </defs>
       <use xlink:href="#DejaVuSans-14"/>
       <use xlink:href="#DejaVuSans-13" transform="translate(63.625 0)"/>
      </g>
     </g>
    </g>
    <g id="xtick_3">
     <g id="line2d_5">
      <path d="M 199.075175 175.197656 
L 199.075175 48.96 
" clip-path="url(#p5cb6135f6d)" style="fill: none; stroke: #b0b0b0; stroke-width: 0.8; stroke-linecap: square"/>
     </g>
     <g id="line2d_6">
      <g>
       <use xlink:href="#m1ef4e2377f" x="199.075175" y="175.197656" style="stroke: #000000; stroke-width: 0.8"/>
      </g>
     </g>
     <g id="text_3">
      <!-- 20 -->
      <g transform="translate(192.712675 189.795312) scale(0.1 -0.1)">
       <defs>
        <path id="DejaVuSans-15" d="M 1228 531 
L 3431 531 
L 3431 0 
L 469 0 
L 469 531 
Q 828 903 1448 1529 
Q 2069 2156 2228 2338 
Q 2531 2678 2651 2914 
Q 2772 3150 2772 3378 
Q 2772 3750 2511 3984 
Q 2250 4219 1831 4219 
Q 1534 4219 1204 4116 
Q 875 4013 500 3803 
L 500 4441 
Q 881 4594 1212 4672 
Q 1544 4750 1819 4750 
Q 2544 4750 2975 4387 
Q 3406 4025 3406 3419 
Q 3406 3131 3298 2873 
Q 3191 2616 2906 2266 
Q 2828 2175 2409 1742 
Q 1991 1309 1228 531 
z
" transform="scale(0.015625)"/>
       </defs>
       <use xlink:href="#DejaVuSans-15"/>
       <use xlink:href="#DejaVuSans-13" transform="translate(63.625 0)"/>
      </g>
     </g>
    </g>
    <g id="xtick_4">
     <g id="line2d_7">
      <path d="M 267.407574 175.197656 
L 267.407574 48.96 
" clip-path="url(#p5cb6135f6d)" style="fill: none; stroke: #b0b0b0; stroke-width: 0.8; stroke-linecap: square"/>
     </g>
     <g id="line2d_8">
      <g>
       <use xlink:href="#m1ef4e2377f" x="267.407574" y="175.197656" style="stroke: #000000; stroke-width: 0.8"/>
      </g>
     </g>
     <g id="text_4">
      <!-- 30 -->
      <g transform="translate(261.045074 189.795312) scale(0.1 -0.1)">
       <defs>
        <path id="DejaVuSans-16" d="M 2597 2516 
Q 3050 2419 3304 2112 
Q 3559 1806 3559 1356 
Q 3559 666 3084 287 
Q 2609 -91 1734 -91 
Q 1441 -91 1130 -33 
Q 819 25 488 141 
L 488 750 
Q 750 597 1062 519 
Q 1375 441 1716 441 
Q 2309 441 2620 675 
Q 2931 909 2931 1356 
Q 2931 1769 2642 2001 
Q 2353 2234 1838 2234 
L 1294 2234 
L 1294 2753 
L 1863 2753 
Q 2328 2753 2575 2939 
Q 2822 3125 2822 3475 
Q 2822 3834 2567 4026 
Q 2313 4219 1838 4219 
Q 1578 4219 1281 4162 
Q 984 4106 628 3988 
L 628 4550 
Q 988 4650 1302 4700 
Q 1616 4750 1894 4750 
Q 2613 4750 3031 4423 
Q 3450 4097 3450 3541 
Q 3450 3153 3228 2886 
Q 3006 2619 2597 2516 
z
" transform="scale(0.015625)"/>
       </defs>
       <use xlink:href="#DejaVuSans-16"/>
       <use xlink:href="#DejaVuSans-13" transform="translate(63.625 0)"/>
      </g>
     </g>
    </g>
    <g id="xtick_5">
     <g id="line2d_9">
      <path d="M 335.739974 175.197656 
L 335.739974 48.96 
" clip-path="url(#p5cb6135f6d)" style="fill: none; stroke: #b0b0b0; stroke-width: 0.8; stroke-linecap: square"/>
     </g>
     <g id="line2d_10">
      <g>
       <use xlink:href="#m1ef4e2377f" x="335.739974" y="175.197656" style="stroke: #000000; stroke-width: 0.8"/>
      </g>
     </g>
     <g id="text_5">
      <!-- 40 -->
      <g transform="translate(329.377474 189.795312) scale(0.1 -0.1)">
       <defs>
        <path id="DejaVuSans-17" d="M 2419 4116 
L 825 1625 
L 2419 1625 
L 2419 4116 
z
M 2253 4666 
L 3047 4666 
L 3047 1625 
L 3713 1625 
L 3713 1100 
L 3047 1100 
L 3047 0 
L 2419 0 
L 2419 1100 
L 313 1100 
L 313 1709 
L 2253 4666 
z
" transform="scale(0.015625)"/>
       </defs>
       <use xlink:href="#DejaVuSans-17"/>
       <use xlink:href="#DejaVuSans-13" transform="translate(63.625 0)"/>
      </g>
     </g>
    </g>
    <g id="xtick_6">
     <g id="line2d_11">
      <path d="M 404.072373 175.197656 
L 404.072373 48.96 
" clip-path="url(#p5cb6135f6d)" style="fill: none; stroke: #b0b0b0; stroke-width: 0.8; stroke-linecap: square"/>
     </g>
     <g id="line2d_12">
      <g>
       <use xlink:href="#m1ef4e2377f" x="404.072373" y="175.197656" style="stroke: #000000; stroke-width: 0.8"/>
      </g>
     </g>
     <g id="text_6">
      <!-- 50 -->
      <g transform="translate(397.709873 189.795312) scale(0.1 -0.1)">
       <defs>
        <path id="DejaVuSans-18" d="M 691 4666 
L 3169 4666 
L 3169 4134 
L 1269 4134 
L 1269 2991 
Q 1406 3038 1543 3061 
Q 1681 3084 1819 3084 
Q 2600 3084 3056 2656 
Q 3513 2228 3513 1497 
Q 3513 744 3044 326 
Q 2575 -91 1722 -91 
Q 1428 -91 1123 -41 
Q 819 9 494 109 
L 494 744 
Q 775 591 1075 516 
Q 1375 441 1709 441 
Q 2250 441 2565 725 
Q 2881 1009 2881 1497 
Q 2881 1984 2565 2268 
Q 2250 2553 1709 2553 
Q 1456 2553 1204 2497 
Q 953 2441 691 2322 
L 691 4666 
z
" transform="scale(0.015625)"/>
       </defs>
       <use xlink:href="#DejaVuSans-18"/>
       <use xlink:href="#DejaVuSans-13" transform="translate(63.625 0)"/>
      </g>
     </g>
    </g>
    <g id="xtick_7">
     <g id="line2d_13">
      <path d="M 472.404773 175.197656 
L 472.404773 48.96 
" clip-path="url(#p5cb6135f6d)" style="fill: none; stroke: #b0b0b0; stroke-width: 0.8; stroke-linecap: square"/>
     </g>
     <g id="line2d_14">
      <g>
       <use xlink:href="#m1ef4e2377f" x="472.404773" y="175.197656" style="stroke: #000000; stroke-width: 0.8"/>
      </g>
     </g>
     <g id="text_7">
      <!-- 60 -->
      <g transform="translate(466.042273 189.795312) scale(0.1 -0.1)">
       <defs>
        <path id="DejaVuSans-19" d="M 2113 2584 
Q 1688 2584 1439 2293 
Q 1191 2003 1191 1497 
Q 1191 994 1439 701 
Q 1688 409 2113 409 
Q 2538 409 2786 701 
Q 3034 994 3034 1497 
Q 3034 2003 2786 2293 
Q 2538 2584 2113 2584 
z
M 3366 4563 
L 3366 3988 
Q 3128 4100 2886 4159 
Q 2644 4219 2406 4219 
Q 1781 4219 1451 3797 
Q 1122 3375 1075 2522 
Q 1259 2794 1537 2939 
Q 1816 3084 2150 3084 
Q 2853 3084 3261 2657 
Q 3669 2231 3669 1497 
Q 3669 778 3244 343 
Q 2819 -91 2113 -91 
Q 1303 -91 875 529 
Q 447 1150 447 2328 
Q 447 3434 972 4092 
Q 1497 4750 2381 4750 
Q 2619 4750 2861 4703 
Q 3103 4656 3366 4563 
z
" transform="scale(0.015625)"/>
       </defs>
       <use xlink:href="#DejaVuSans-19"/>
       <use xlink:href="#DejaVuSans-13" transform="translate(63.625 0)"/>
      </g>
     </g>
    </g>
    <g id="text_8">
     <!-- t (s) -->
     <g transform="translate(257.684531 203.795312) scale(0.1 -0.1)">
      <defs>
       <path id="DejaVuSans-57" d="M 1172 4494 
L 1172 3500 
L 2356 3500 
L 2356 3053 
L 1172 3053 
L 1172 1153 
Q 1172 725 1289 603 
Q 1406 481 1766 481 
L 2356 481 
L 2356 0 
L 1766 0 
Q 1100 0 847 248 
Q 594 497 594 1153 
L 594 3053 
L 172 3053 
L 172 3500 
L 594 3500 
L 594 4494 
L 1172 4494 
z
" transform="scale(0.015625)"/>
       <path id="DejaVuSans-3" transform="scale(0.015625)"/>
       <path id="DejaVuSans-b" d="M 1984 4856 
Q 1566 4138 1362 3434 
Q 1159 2731 1159 2009 
Q 1159 1288 1364 580 
Q 1569 -128 1984 -844 
L 1484 -844 
Q 1016 -109 783 600 
Q 550 1309 550 2009 
Q 550 2706 781 3412 
Q 1013 4119 1484 4856 
L 1984 4856 
z
" transform="scale(0.015625)"/>
       <path id="DejaVuSans-56" d="M 2834 3397 
L 2834 2853 
Q 2591 2978 2328 3040 
Q 2066 3103 1784 3103 
Q 1356 3103 1142 2972 
Q 928 2841 928 2578 
Q 928 2378 1081 2264 
Q 1234 2150 1697 2047 
L 1894 2003 
Q 2506 1872 2764 1633 
Q 3022 1394 3022 966 
Q 3022 478 2636 193 
Q 2250 -91 1575 -91 
Q 1294 -91 989 -36 
Q 684 19 347 128 
L 347 722 
Q 666 556 975 473 
Q 1284 391 1588 391 
Q 1994 391 2212 530 
Q 2431 669 2431 922 
Q 2431 1156 2273 1281 
Q 2116 1406 1581 1522 
L 1381 1569 
Q 847 1681 609 1914 
Q 372 2147 372 2553 
Q 372 3047 722 3315 
Q 1072 3584 1716 3584 
Q 2034 3584 2315 3537 
Q 2597 3491 2834 3397 
z
" transform="scale(0.015625)"/>
       <path id="DejaVuSans-c" d="M 513 4856 
L 1013 4856 
Q 1481 4119 1714 3412 
Q 1947 2706 1947 2009 
Q 1947 1309 1714 600 
Q 1481 -109 1013 -844 
L 513 -844 
Q 928 -128 1133 580 
Q 1338 1288 1338 2009 
Q 1338 2731 1133 3434 
Q 928 4138 513 4856 
z
" transform="scale(0.015625)"/>
      </defs>
      <use xlink:href="#DejaVuSans-57"/>
      <use xlink:href="#DejaVuSans-3" transform="translate(39.203125 0)"/>
      <use xlink:href="#DejaVuSans-b" transform="translate(70.984375 0)"/>
      <use xlink:href="#DejaVuSans-56" transform="translate(110 0)"/>
      <use xlink:href="#DejaVuSans-c" transform="translate(162.09375 0)"/>
     </g>
    </g>
   </g>
   <g id="matplotlib.axis_2">
    <g id="ytick_1">
     <g id="line2d_15">
      <path d="M 42.28 155.914392 
L 493.2 155.914392 
" clip-path="url(#p5cb6135f6d)" style="fill: none; stroke: #b0b0b0; stroke-width: 0.8; stroke-linecap: square"/>
     </g>
     <g id="line2d_16">
      <defs>
       <path id="me15748aa22" d="M 0 0 
L -3.5 0 
" style="stroke: #000000; stroke-width: 0.8"/>
      </defs>
      <g>
       <use xlink:href="#me15748aa22" x="42.28" y="155.914392" style="stroke: #000000; stroke-width: 0.8"/>
      </g>
     </g>
     <g id="text_9">
      <!-- −0.4 -->
      <g transform="translate(10.997188 159.71322) scale(0.1 -0.1)">
       <defs>
        <path id="DejaVuSans-c9c" d="M 678 2272 
L 4684 2272 
L 4684 1741 
L 678 1741 
L 678 2272 
z
" transform="scale(0.015625)"/>
        <path id="DejaVuSans-11" d="M 684 794 
L 1344 794 
L 1344 0 
L 684 0 
L 684 794 
z
" transform="scale(0.015625)"/>
       </defs>
       <use xlink:href="#DejaVuSans-c9c"/>
       <use xlink:href="#DejaVuSans-13" transform="translate(83.796875 0)"/>
       <use xlink:href="#DejaVuSans-11" transform="translate(147.421875 0)"/>
       <use xlink:href="#DejaVuSans-17" transform="translate(179.203125 0)"/>
      </g>
     </g>
    </g>
    <g id="ytick_2">
     <g id="line2d_17">
      <path d="M 42.28 133.99661 
L 493.2 133.99661 
" clip-path="url(#p5cb6135f6d)" style="fill: none; stroke: #b0b0b0; stroke-width: 0.8; stroke-linecap: square"/>
     </g>
     <g id="line2d_18">
      <g>
       <use xlink:href="#me15748aa22" x="42.28" y="133.99661" style="stroke: #000000; stroke-width: 0.8"/>
      </g>
     </g>
     <g id="text_10">
      <!-- −0.2 -->
      <g transform="translate(10.997188 137.795438) scale(0.1 -0.1)">
       <use xlink:href="#DejaVuSans-c9c"/>
       <use xlink:href="#DejaVuSans-13" transform="translate(83.796875 0)"/>
       <use xlink:href="#DejaVuSans-11" transform="translate(147.421875 0)"/>
       <use xlink:href="#DejaVuSans-15" transform="translate(179.203125 0)"/>
      </g>
     </g>
    </g>
    <g id="ytick_3">
     <g id="line2d_19">
      <path d="M 42.28 112.078828 
L 493.2 112.078828 
" clip-path="url(#p5cb6135f6d)" style="fill: none; stroke: #b0b0b0; stroke-width: 0.8; stroke-linecap: square"/>
     </g>
     <g id="line2d_20">
      <g>
       <use xlink:href="#me15748aa22" x="42.28" y="112.078828" style="stroke: #000000; stroke-width: 0.8"/>
      </g>
     </g>
     <g id="text_11">
      <!-- 0.0 -->
      <g transform="translate(19.376875 115.877656) scale(0.1 -0.1)">
       <use xlink:href="#DejaVuSans-13"/>
       <use xlink:href="#DejaVuSans-11" transform="translate(63.625 0)"/>
       <use xlink:href="#DejaVuSans-13" transform="translate(95.40625 0)"/>
      </g>
     </g>
    </g>
    <g id="ytick_4">
     <g id="line2d_21">
      <path d="M 42.28 90.161046 
L 493.2 90.161046 
" clip-path="url(#p5cb6135f6d)" style="fill: none; stroke: #b0b0b0; stroke-width: 0.8; stroke-linecap: square"/>
     </g>
     <g id="line2d_22">
      <g>
       <use xlink:href="#me15748aa22" x="42.28" y="90.161046" style="stroke: #000000; stroke-width: 0.8"/>
      </g>
     </g>
     <g id="text_12">
      <!-- 0.2 -->
      <g transform="translate(19.376875 93.959874) scale(0.1 -0.1)">
       <use xlink:href="#DejaVuSans-13"/>
       <use xlink:href="#DejaVuSans-11" transform="translate(63.625 0)"/>
       <use xlink:href="#DejaVuSans-15" transform="translate(95.40625 0)"/>
      </g>
     </g>
    </g>
    <g id="ytick_5">
     <g id="line2d_23">
      <path d="M 42.28 68.243264 
L 493.2 68.243264 
" clip-path="url(#p5cb6135f6d)" style="fill: none; stroke: #b0b0b0; stroke-width: 0.8; stroke-linecap: square"/>
     </g>
     <g id="line2d_24">
      <g>
       <use xlink:href="#me15748aa22" x="42.28" y="68.243264" style="stroke: #000000; stroke-width: 0.8"/>
      </g>
     </g>
     <g id="text_13">
      <!-- 0.4 -->
      <g transform="translate(19.376875 72.042093) scale(0.1 -0.1)">
       <use xlink:href="#DejaVuSans-13"/>
       <use xlink:href="#DejaVuSans-11" transform="translate(63.625 0)"/>
       <use xlink:href="#DejaVuSans-17" transform="translate(95.40625 0)"/>
      </g>
     </g>
    </g>
   </g>
   <g id="line2d_25">
    <path d="M 62.776364 54.990078 
L 63.257092 54.962204 
L 63.733395 82.509775 
L 64.213654 102.755503 
L 64.690103 107.198588 
L 65.170216 109.460373 
L 65.648357 110.18925 
L 66.126911 110.686448 
L 69.952423 112.524859 
L 71.866185 112.815779 
L 72.344632 112.58864 
L 73.778636 112.933998 
L 74.257536 112.880834 
L 74.738094 112.988733 
L 75.214986 112.891206 
L 75.692817 113.033592 
L 76.172063 112.945498 
L 76.650105 113.11177 
L 77.127729 112.500154 
L 78.084459 113.337136 
L 78.562709 114.151417 
L 79.039772 113.391332 
L 79.520976 113.0494 
L 79.999309 112.917498 
L 80.474273 113.57303 
L 80.954531 113.500855 
L 81.431314 113.542564 
L 81.909921 112.237106 
L 82.390256 112.828956 
L 82.866939 113.210669 
L 83.344229 112.989708 
L 83.823369 112.406873 
L 84.779234 112.565241 
L 85.257865 112.697421 
L 85.736911 112.446643 
L 86.216585 112.386619 
L 86.693439 112.148839 
L 87.173103 112.400042 
L 88.127336 112.50231 
L 88.606896 112.31396 
L 89.565201 112.372286 
L 90.041735 112.543837 
L 90.520694 112.51926 
L 90.99734 112.704707 
L 91.475441 112.247345 
L 91.956197 112.858996 
L 92.434033 113.273915 
L 92.912189 113.938225 
L 93.391258 113.803188 
L 93.869046 114.490003 
L 94.348635 114.479069 
L 94.828127 115.606508 
L 95.305126 115.65759 
L 95.781772 117.017289 
L 96.264328 115.653817 
L 96.739401 117.58132 
L 97.217468 118.370202 
L 97.695217 120.779754 
L 98.172934 120.794969 
L 98.651157 122.424647 
L 99.130607 121.922317 
L 99.608915 123.124992 
L 100.089248 122.479224 
L 100.564148 123.256073 
L 101.043239 119.247722 
L 101.523307 120.783248 
L 102.001097 121.915382 
L 102.479428 123.86091 
L 102.956932 123.762748 
L 103.43534 124.485812 
L 104.394151 122.715487 
L 104.870504 121.200292 
L 105.3511 120.989802 
L 105.82857 119.378051 
L 106.782995 121.872942 
L 107.263145 124.552407 
L 107.738743 124.875213 
L 108.220637 126.535471 
L 108.699216 125.918706 
L 109.176269 127.598176 
L 109.652971 127.311967 
L 110.132553 129.842693 
L 110.611413 126.836804 
L 111.088652 131.163555 
L 111.569377 133.608637 
L 112.043798 137.462869 
L 112.524098 136.694578 
L 113.00241 136.656763 
L 113.95686 128.285312 
L 114.438388 127.630115 
L 114.9153 130.599453 
L 115.39491 127.859451 
L 115.872265 130.485824 
L 116.352149 131.344327 
L 116.829641 133.332779 
L 117.307059 132.395674 
L 117.786526 132.806985 
L 118.262635 131.029726 
L 118.740085 131.110252 
L 119.220904 129.321263 
L 119.697734 129.388989 
L 120.178252 124.309046 
L 120.653413 125.614697 
L 121.13309 126.469445 
L 121.611255 128.494189 
L 122.092708 128.061453 
L 122.570333 128.949116 
L 123.048663 127.926397 
L 123.525516 128.933145 
L 124.006082 128.43885 
L 124.481118 130.614728 
L 124.959809 127.117481 
L 125.439758 129.926595 
L 125.916005 130.871412 
L 126.394912 132.715362 
L 126.871331 131.070536 
L 127.354186 130.492366 
L 127.829757 127.704523 
L 128.30851 126.468692 
L 128.787905 123.806499 
L 129.266086 122.828693 
L 129.74281 117.796965 
L 130.22109 117.894103 
L 130.70065 118.356123 
L 131.177736 119.446685 
L 131.657105 119.021011 
L 132.134279 119.233543 
L 132.611663 118.757992 
L 133.09157 119.703747 
L 133.568683 119.979835 
L 134.048709 122.224826 
L 134.526969 120.125257 
L 135.00381 124.48725 
L 135.963275 127.47499 
L 136.439842 124.650947 
L 136.919252 122.956796 
L 137.396539 119.63455 
L 137.878275 118.395915 
L 138.353264 116.342659 
L 138.832232 115.580301 
L 139.310867 112.971357 
L 139.788773 112.82005 
L 140.265274 112.941495 
L 140.745256 112.750576 
L 141.700917 111.440638 
L 142.18138 111.269624 
L 142.658749 111.590708 
L 143.13571 112.164582 
L 143.61362 113.167999 
L 144.093795 113.335938 
L 144.571499 115.097982 
L 145.05123 114.88278 
L 146.005302 112.715236 
L 146.484536 112.949249 
L 146.962826 113.326024 
L 147.440356 114.105684 
L 147.921639 114.019036 
L 148.401014 114.378959 
L 148.874916 112.828941 
L 149.353311 114.11447 
L 149.834266 115.063293 
L 150.311145 116.353589 
L 150.78821 115.82324 
L 151.268952 116.386951 
L 151.747576 115.98626 
L 152.22493 117.195864 
L 152.704558 117.003291 
L 153.182047 118.118825 
L 153.659853 114.93269 
L 154.136407 116.521832 
L 154.61484 117.205256 
L 155.093815 115.947588 
L 155.572372 112.821583 
L 156.05219 110.804877 
L 156.532899 110.291494 
L 157.009225 110.951362 
L 157.484889 111.916493 
L 157.965446 114.384582 
L 158.444257 114.837644 
L 159.399749 127.184299 
L 159.87914 136.288529 
L 160.357195 140.3438 
L 160.834418 146.192368 
L 161.311424 145.386958 
L 161.790378 145.672679 
L 162.270664 141.139792 
L 162.749184 138.057886 
L 163.224447 127.661278 
L 163.703623 126.099027 
L 164.182795 125.227082 
L 164.660794 125.909437 
L 165.139185 125.211896 
L 165.620133 123.843218 
L 166.0962 120.919379 
L 167.051383 119.103405 
L 167.532115 120.898277 
L 168.010943 118.560142 
L 168.488321 122.415075 
L 168.966965 124.713729 
L 169.446724 129.138172 
L 169.925066 130.258524 
L 170.402438 134.36171 
L 170.878415 135.440434 
L 171.357639 140.105278 
L 171.837164 141.272347 
L 172.313547 146.596091 
L 172.793581 139.115955 
L 173.272396 146.450763 
L 174.226972 152.744323 
L 175.183368 142.246969 
L 175.664035 136.346946 
L 176.140485 139.274228 
L 176.619885 139.985907 
L 177.099996 142.834077 
L 177.576476 134.427202 
L 178.054672 136.766416 
L 178.532483 137.450891 
L 179.013225 140.147273 
L 179.490279 137.843601 
L 179.966864 138.087052 
L 180.44587 133.777201 
L 180.923898 133.472912 
L 181.402136 130.167937 
L 181.880029 130.562201 
L 182.360146 123.889961 
L 182.837704 126.396274 
L 183.316249 128.159861 
L 183.796981 131.77392 
L 184.271438 130.977452 
L 184.751046 132.392806 
L 185.230556 130.795608 
L 185.708472 133.63432 
L 186.185296 139.44827 
L 186.674963 150.588821 
L 187.141187 130.505075 
L 187.622366 132.080713 
L 188.098882 131.871251 
L 188.577545 133.001188 
L 189.054247 126.23692 
L 190.01257 116.618184 
L 191.447887 113.248374 
L 192.406056 109.178186 
L 192.881107 108.292548 
L 193.362015 105.954096 
L 193.839794 105.573279 
L 194.317052 102.51619 
L 194.7948 102.323785 
L 195.27449 98.403798 
L 195.752874 98.535236 
L 196.231619 94.249057 
L 196.708451 104.250164 
L 197.187626 96.262566 
L 197.665175 91.890704 
L 198.143737 88.676248 
L 199.580946 110.339697 
L 201.012747 104.953247 
L 201.4906 108.578121 
L 201.970657 107.978289 
L 202.448423 106.766231 
L 202.926564 104.583836 
L 203.407151 104.717493 
L 203.884442 101.991596 
L 204.363627 101.571363 
L 204.83996 97.073797 
L 205.320588 95.167062 
L 205.796431 88.76488 
L 206.277188 94.266372 
L 207.711871 59.623599 
L 208.665871 55.721671 
L 209.146642 61.430184 
L 209.624783 59.065339 
L 210.104378 61.899821 
L 210.581386 61.318568 
L 211.059637 76.25416 
L 211.539971 78.013119 
L 212.016061 80.235527 
L 212.493235 80.229047 
L 212.970874 83.397433 
L 213.450533 75.441171 
L 213.930078 69.81764 
L 214.407684 60.339563 
L 214.884992 62.637217 
L 215.363664 61.570678 
L 215.840709 74.674843 
L 216.321003 71.229958 
L 216.798181 70.873339 
L 217.280184 70.928413 
L 218.711477 95.194633 
L 219.669097 104.194871 
L 220.147493 105.294329 
L 220.624324 108.86991 
L 221.581373 108.949216 
L 222.060744 109.147096 
L 223.016146 110.731918 
L 223.495365 111.038332 
L 223.973738 110.655706 
L 224.452244 109.765042 
L 225.407324 106.032646 
L 226.364046 98.288004 
L 226.844897 91.651694 
L 227.322797 87.598995 
L 227.801692 81.18833 
L 228.277468 84.515918 
L 228.756646 86.996197 
L 229.234986 94.435983 
L 229.713645 97.667934 
L 230.192858 107.53221 
L 230.670059 106.784313 
L 231.149991 105.735665 
L 231.626335 105.115607 
L 233.541546 114.826855 
L 234.018789 116.158833 
L 234.495788 118.380668 
L 234.976391 118.032025 
L 235.452189 121.30276 
L 235.930884 123.080375 
L 236.410299 128.286364 
L 236.888937 129.559106 
L 237.367148 133.336043 
L 237.845263 132.465941 
L 238.325262 133.497613 
L 238.800738 130.816616 
L 239.282722 129.271211 
L 239.757747 121.213137 
L 240.235185 119.404563 
L 240.714976 129.752826 
L 241.191596 148.319141 
L 241.670004 154.549831 
L 242.149978 156.541703 
L 243.106129 138.978556 
L 244.065101 114.948388 
L 244.542262 104.352348 
L 245.019211 96.476174 
L 245.497439 92.320393 
L 245.975046 85.017433 
L 246.452997 80.936951 
L 246.93176 71.575611 
L 247.409875 68.918235 
L 247.890693 62.512025 
L 248.367024 65.473165 
L 248.849554 66.821825 
L 249.326154 89.566488 
L 249.802207 95.208453 
L 250.280728 97.620011 
L 250.75975 92.468016 
L 251.718124 71.105092 
L 252.197385 74.240788 
L 252.673318 78.108975 
L 253.150171 90.112216 
L 253.631441 96.819415 
L 254.108997 109.645768 
L 254.58582 109.74336 
L 255.06317 107.926075 
L 255.544202 107.931426 
L 256.023828 110.908053 
L 256.499301 115.50374 
L 257.457888 121.341332 
L 257.934949 121.552849 
L 258.414844 122.832833 
L 258.891287 118.257523 
L 259.369975 119.146355 
L 259.849418 118.642826 
L 260.326966 115.559968 
L 260.803193 109.406904 
L 261.283553 109.951277 
L 262.240092 117.678873 
L 262.716841 117.452694 
L 263.19791 115.686537 
L 263.674328 111.922509 
L 264.155082 110.744921 
L 264.630556 110.690004 
L 265.111055 110.139035 
L 265.586458 109.232154 
L 266.068048 107.451988 
L 266.544088 106.469566 
L 267.021914 104.663084 
L 267.501567 104.200993 
L 267.9802 102.306179 
L 268.458345 105.656607 
L 268.937343 102.750277 
L 269.413903 101.151714 
L 269.893628 98.959579 
L 270.372184 100.654949 
L 270.848175 100.547161 
L 271.326306 96.744784 
L 271.806724 79.692308 
L 272.285079 78.89509 
L 272.765166 84.149096 
L 273.241135 108.910791 
L 273.720159 112.648541 
L 274.19824 108.58847 
L 274.675841 106.020334 
L 275.156715 109.200252 
L 276.110035 129.501945 
L 277.546213 169.458126 
L 278.025753 150.170903 
L 278.980232 168.139562 
L 279.461124 169.45892 
L 282.331652 169.456294 
L 282.807998 150.115817 
L 283.287377 159.470171 
L 283.766489 165.45582 
L 284.242133 169.432877 
L 284.71954 160.642478 
L 285.677991 112.983351 
L 286.154584 100.718455 
L 286.632934 100.950558 
L 287.111295 102.112524 
L 287.589686 105.965521 
L 289.025592 80.516629 
L 289.503449 80.028849 
L 289.98191 77.678728 
L 290.941337 92.496038 
L 291.416392 107.264985 
L 291.896081 106.572723 
L 292.373332 94.557135 
L 292.852642 77.910624 
L 293.331476 77.300244 
L 293.807871 81.005625 
L 294.287189 93.619335 
L 294.764536 101.764299 
L 295.245712 107.729107 
L 295.723431 108.859925 
L 296.201013 109.657261 
L 297.1586 112.346378 
L 298.11599 119.073991 
L 298.592086 124.83555 
L 299.069223 128.971397 
L 299.550842 138.240176 
L 300.028303 142.922722 
L 300.505298 161.460188 
L 300.985424 165.483064 
L 301.464161 166.531378 
L 301.941383 140.500135 
L 302.418508 150.686695 
L 302.8984 166.195242 
L 303.374733 169.458731 
L 304.33353 169.458065 
L 304.810236 167.588083 
L 305.288766 168.649592 
L 305.767726 165.731747 
L 306.246135 169.28913 
L 306.725339 144.293254 
L 307.20299 157.217556 
L 307.680137 166.461645 
L 308.158089 169.436727 
L 308.637835 159.55638 
L 309.596786 115.157274 
L 310.074693 107.21407 
L 310.550432 110.373427 
L 311.03006 116.119908 
L 311.507385 116.415553 
L 312.463587 111.393202 
L 313.421183 103.158405 
L 313.900506 90.674673 
L 314.856863 54.699292 
L 315.333735 56.920952 
L 315.813859 62.486939 
L 316.289891 90.584524 
L 317.246183 59.171676 
L 317.724712 54.699244 
L 318.202288 57.620736 
L 318.682296 59.180322 
L 319.160456 65.560244 
L 319.637944 58.320113 
L 320.1191 57.467288 
L 320.596755 54.701201 
L 321.073988 71.343878 
L 321.554328 61.712994 
L 322.029682 56.595943 
L 322.507338 54.702417 
L 323.466305 54.727604 
L 323.944862 60.048416 
L 324.423336 67.650934 
L 325.858876 106.092399 
L 326.334112 111.789575 
L 326.814416 114.554118 
L 327.292425 116.599582 
L 328.249774 118.57165 
L 328.728332 118.265276 
L 329.205 118.222619 
L 330.16079 115.615857 
L 331.120634 108.597482 
L 331.596403 105.70807 
L 332.552248 95.792149 
L 333.032988 94.074412 
L 333.511375 96.899117 
L 333.989516 98.328381 
L 334.468531 100.260348 
L 334.9442 100.084666 
L 335.422613 103.642377 
L 335.901309 102.467446 
L 336.380965 101.906103 
L 336.860968 100.68321 
L 337.33586 101.5147 
L 337.814961 101.532457 
L 338.293467 102.821759 
L 338.772273 102.783195 
L 339.249678 103.757633 
L 339.727905 103.441869 
L 340.208004 106.302725 
L 340.68733 105.095389 
L 341.164266 104.251546 
L 341.641109 102.926454 
L 342.120195 103.349731 
L 342.598706 102.931926 
L 343.075726 103.616746 
L 343.555381 102.979489 
L 344.03574 103.339058 
L 344.511101 101.885171 
L 344.989559 105.557896 
L 345.469459 102.11299 
L 345.94972 99.975172 
L 347.381808 79.762582 
L 348.338787 91.343612 
L 348.817653 100.270864 
L 349.294108 103.221982 
L 349.771681 110.004468 
L 350.251492 108.269057 
L 350.728733 107.063087 
L 351.207309 107.746659 
L 352.165763 114.086126 
L 352.644761 115.425854 
L 353.123937 117.316279 
L 353.599886 117.510536 
L 354.076946 120.662116 
L 354.557867 116.762856 
L 355.992818 138.181883 
L 356.470583 140.04204 
L 356.951024 145.307401 
L 357.425715 143.485012 
L 357.907545 149.132341 
L 358.382687 146.268747 
L 358.862743 146.229509 
L 359.34129 124.537534 
L 359.821192 117.992862 
L 360.299085 121.39093 
L 360.774004 134.672447 
L 361.731347 147.909176 
L 362.210691 147.458352 
L 362.690643 150.357399 
L 363.167161 148.512201 
L 363.647894 151.305208 
L 364.124124 139.97324 
L 364.6025 143.174812 
L 365.081582 144.176624 
L 365.557955 146.819297 
L 366.034812 144.119375 
L 366.51541 142.625751 
L 366.994933 138.092435 
L 367.470083 135.403686 
L 367.950351 131.491025 
L 368.429416 129.242477 
L 368.907767 123.759859 
L 369.861946 121.932601 
L 370.341748 122.033917 
L 370.818744 121.781792 
L 371.775895 123.447082 
L 372.254315 126.089098 
L 372.735281 128.110318 
L 373.210222 132.899983 
L 373.689995 132.90418 
L 374.17055 135.038195 
L 374.648119 135.218552 
L 375.126631 137.449528 
L 375.604925 137.448139 
L 376.081672 139.39548 
L 376.558931 139.018613 
L 377.037354 140.395722 
L 377.515303 139.373695 
L 377.993891 139.934461 
L 378.472052 134.268095 
L 378.950466 134.811129 
L 379.432502 134.263499 
L 379.90817 134.906129 
L 380.386441 133.399893 
L 380.864607 132.986386 
L 381.342194 130.933664 
L 381.8202 130.237548 
L 382.298472 128.373477 
L 382.779886 127.99191 
L 383.257028 124.196908 
L 383.735962 125.002999 
L 384.211497 125.480614 
L 384.689439 127.139836 
L 385.168284 127.267427 
L 385.648387 128.562859 
L 386.126315 128.442919 
L 386.604073 129.782879 
L 387.083397 129.640885 
L 387.562263 130.23788 
L 388.038922 126.096386 
L 388.995506 128.277742 
L 389.474896 130.746688 
L 389.954303 131.134787 
L 390.43174 132.723474 
L 390.908701 132.177883 
L 391.386024 132.927878 
L 391.867225 131.55325 
L 392.346052 131.421041 
L 392.821914 125.800256 
L 393.299998 125.755416 
L 393.778042 125.009591 
L 394.256918 125.652804 
L 394.736378 123.625088 
L 395.215469 122.889777 
L 395.694068 120.599363 
L 396.173235 120.157492 
L 396.648685 118.591349 
L 397.129979 118.852314 
L 397.606534 115.553372 
L 398.083996 117.093116 
L 398.561432 117.874784 
L 399.042249 119.94032 
L 399.519649 119.379523 
L 399.997613 120.730279 
L 400.475866 120.521441 
L 400.954667 122.222824 
L 401.431917 123.114053 
L 401.91176 126.026687 
L 402.391265 118.82383 
L 402.869072 120.291132 
L 403.345544 121.365587 
L 403.824388 123.192297 
L 404.301812 120.721094 
L 404.782009 119.109894 
L 405.261019 116.430075 
L 405.736554 115.855193 
L 406.217424 114.90065 
L 406.696042 114.735415 
L 407.171035 112.63145 
L 407.656199 112.564755 
L 408.128786 112.748748 
L 408.608238 112.628214 
L 409.565916 111.346437 
L 410.519846 111.034967 
L 411.001848 111.255822 
L 411.480236 111.203149 
L 411.954655 111.813117 
L 412.913184 111.692702 
L 413.392632 112.033128 
L 413.869803 112.55618 
L 414.345755 113.330538 
L 414.827428 113.454186 
L 415.303519 113.376081 
L 415.782366 112.936906 
L 416.261217 113.078462 
L 416.739851 112.467153 
L 417.217624 112.934594 
L 417.695097 113.140197 
L 418.176257 113.17987 
L 418.654004 112.709521 
L 419.609632 112.514824 
L 420.567474 112.656837 
L 421.04544 112.507984 
L 421.524502 111.948178 
L 421.999471 112.067083 
L 422.480242 112.32533 
L 422.956757 112.355271 
L 423.91413 111.948734 
L 426.30721 111.987261 
L 427.262082 111.910121 
L 427.740631 111.95713 
L 428.218551 112.173406 
L 428.699668 112.179571 
L 429.654013 111.942382 
L 431.088785 112.08725 
L 432.522372 112.025414 
L 433.004697 112.118517 
L 435.396326 112.056998 
L 439.219889 112.059885 
L 463.136126 112.217513 
L 465.528128 112.474271 
L 467.443533 112.887435 
L 467.923147 113.23879 
L 468.877277 112.923584 
L 470.790186 112.112333 
L 471.747723 111.845292 
L 472.703636 111.805208 
L 472.703636 111.805208 
" clip-path="url(#p5cb6135f6d)" style="fill: none; stroke: #1f77b4; stroke-width: 1.5; stroke-linecap: square"/>
   </g>
   <g id="line2d_26">
    <path d="M 62.776364 54.698075 
L 63.257092 54.698075 
L 63.733395 83.252147 
L 64.213654 103.535556 
L 64.690103 107.986887 
L 65.170216 110.325873 
L 65.648357 111.101407 
L 66.126911 111.629829 
L 67.082106 112.016879 
L 68.996646 112.249489 
L 73.778636 112.607082 
L 75.214986 112.845102 
L 77.127729 113.497114 
L 78.562709 114.521033 
L 79.039772 114.916737 
L 80.954531 117.217573 
L 81.431314 117.652392 
L 81.909921 117.689201 
L 82.390256 117.146156 
L 82.866939 116.206499 
L 83.344229 114.539889 
L 84.30276 112.954089 
L 85.736911 111.528783 
L 86.216585 111.124013 
L 87.653817 110.491801 
L 88.127336 110.435087 
L 88.606896 110.494881 
L 89.565201 111.089941 
L 90.520694 112.539367 
L 91.475441 115.049762 
L 94.828127 127.94001 
L 95.781772 129.436057 
L 96.264328 129.551749 
L 96.739401 129.275163 
L 97.217468 128.804081 
L 100.564148 122.826922 
L 101.523307 122.004028 
L 102.001097 121.865453 
L 102.479428 121.910332 
L 102.956932 122.140412 
L 103.43534 122.763343 
L 103.912801 123.154273 
L 104.870504 122.206828 
L 105.3511 121.789792 
L 105.82857 121.657539 
L 106.304216 121.75572 
L 106.782995 122.038004 
L 107.738743 123.390496 
L 108.699216 125.769304 
L 109.652971 129.309555 
L 112.043798 141.643684 
L 112.524098 142.675882 
L 113.00241 142.295638 
L 113.479254 140.187229 
L 113.95686 134.351756 
L 114.438388 134.610774 
L 115.872265 135.802357 
L 116.829641 136.298236 
L 117.307059 136.367166 
L 118.262635 136.120998 
L 119.220904 135.323722 
L 121.611255 132.209547 
L 122.570333 131.460133 
L 123.048663 131.353854 
L 123.525516 131.468851 
L 124.006082 131.774709 
L 125.439758 135.442894 
L 125.916005 135.929526 
L 126.394912 136.045632 
L 126.871331 135.73238 
L 127.829757 133.79181 
L 131.177736 122.154308 
L 132.134279 120.450838 
L 132.611663 120.157582 
L 133.09157 120.224321 
L 133.568683 120.642714 
L 134.526969 122.969539 
L 135.00381 126.092728 
L 135.482443 127.423239 
L 135.963275 128.05544 
L 136.439842 127.827607 
L 137.396539 125.68327 
L 139.788773 116.933245 
L 141.700917 111.972558 
L 142.18138 111.394588 
L 142.658749 110.996128 
L 143.13571 111.027215 
L 143.61362 111.592101 
L 144.093795 112.467267 
L 144.571499 114.313744 
L 145.05123 114.571849 
L 145.527196 114.013671 
L 146.484536 113.501496 
L 146.962826 113.453851 
L 147.921639 113.646458 
L 148.874916 114.169009 
L 149.834266 114.997764 
L 151.268952 117.076058 
L 151.747576 117.836659 
L 152.704558 119.83683 
L 153.182047 120.906328 
L 153.659853 121.459941 
L 154.136407 121.491402 
L 154.61484 120.678956 
L 156.05219 112.855599 
L 156.532899 111.727649 
L 157.009225 111.135238 
L 157.484889 111.449579 
L 157.965446 113.041628 
L 158.444257 115.214686 
L 159.399749 123.520794 
L 159.87914 129.668475 
L 161.311424 142.719706 
L 161.790378 144.797952 
L 162.270664 144.929951 
L 162.749184 143.533162 
L 163.224447 141.677634 
L 163.703623 138.724532 
L 164.660794 134.002657 
L 165.139185 132.676993 
L 166.0962 126.639827 
L 166.5773 124.156878 
L 167.051383 123.157366 
L 167.532115 122.868042 
L 168.010943 123.317109 
L 168.966965 126.135669 
L 169.925066 131.052111 
L 171.837164 146.23295 
L 172.313547 151.003837 
L 173.272396 157.103923 
L 173.748839 157.988549 
L 174.226972 156.875399 
L 174.705354 154.116814 
L 175.183368 147.785013 
L 175.664035 143.72833 
L 176.140485 144.662751 
L 177.099996 145.96685 
L 177.576476 146.296108 
L 178.054672 146.448723 
L 178.532483 146.325337 
L 179.490279 145.224456 
L 180.44587 143.127795 
L 182.837704 135.794394 
L 184.751046 131.102686 
L 185.708472 129.612622 
L 186.674963 144.726991 
L 187.141187 147.458722 
L 187.622366 147.909659 
L 188.098882 146.272086 
L 190.01257 129.841899 
L 190.490546 125.420451 
L 192.406056 113.781838 
L 192.881107 111.67001 
L 194.7948 100.349038 
L 196.708451 84.408277 
L 197.187626 80.859865 
L 197.665175 79.613106 
L 198.143737 80.800896 
L 198.622923 84.358412 
L 199.580946 100.277742 
L 200.058421 103.778878 
L 201.012747 107.617851 
L 201.4906 108.400315 
L 201.970657 108.725164 
L 202.448423 108.479714 
L 203.407151 106.448663 
L 204.363627 102.47979 
L 205.320588 96.429603 
L 207.232221 77.235681 
L 207.711871 70.525617 
L 209.146642 56.600666 
L 209.624783 54.698075 
L 210.104378 54.698075 
L 210.581386 55.566574 
L 211.059637 58.224484 
L 212.970874 76.86045 
L 213.450533 72.257781 
L 214.884992 55.44788 
L 215.363664 54.698075 
L 216.321003 54.698075 
L 216.798181 55.056548 
L 218.711477 78.51347 
L 219.189653 85.071533 
L 220.624324 97.749812 
L 221.103716 101.456713 
L 222.539571 108.180951 
L 223.016146 109.979199 
L 223.973738 111.733283 
L 224.452244 111.791891 
L 224.931005 111.014438 
L 225.407324 109.661675 
L 226.364046 103.526266 
L 227.322797 92.160441 
L 227.801692 87.270697 
L 228.277468 85.221741 
L 228.756646 84.41423 
L 229.234986 85.030746 
L 230.192858 89.287208 
L 231.626335 99.114733 
L 232.105978 101.803721 
L 232.584222 105.258584 
L 233.06178 107.754181 
L 233.541546 110.987699 
L 234.018789 113.375273 
L 234.495788 116.558174 
L 234.976391 118.971601 
L 235.452189 122.239724 
L 235.930884 124.712629 
L 236.410299 127.960081 
L 237.845263 134.374763 
L 238.325262 135.298839 
L 238.800738 134.973737 
L 239.282722 132.874754 
L 239.757747 129.899741 
L 240.235185 123.952233 
L 240.714976 130.427199 
L 241.191596 143.11036 
L 241.670004 149.48599 
L 242.149978 153.748498 
L 242.627695 153.732808 
L 243.106129 149.787762 
L 243.585715 144.437712 
L 245.497439 106.985208 
L 245.975046 94.81972 
L 246.452997 85.606534 
L 246.93176 73.872495 
L 247.890693 59.198448 
L 248.367024 56.970047 
L 248.849554 58.571211 
L 249.326154 62.903021 
L 250.280728 79.891904 
L 250.75975 86.0202 
L 251.718124 72.533474 
L 252.197385 70.708031 
L 252.673318 71.662339 
L 253.150171 74.459661 
L 255.544202 101.886705 
L 257.934949 120.883726 
L 258.414844 123.940174 
L 258.891287 125.481149 
L 259.369975 125.974476 
L 259.849418 124.719839 
L 260.326966 120.234884 
L 260.803193 114.466704 
L 261.283553 114.040323 
L 262.240092 116.483396 
L 262.716841 116.74971 
L 263.19791 116.515601 
L 263.674328 115.970464 
L 264.630556 113.775507 
L 267.9802 102.550442 
L 268.937343 100.810034 
L 269.413903 100.619902 
L 269.893628 101.044103 
L 270.372184 101.951598 
L 270.848175 104.05807 
L 271.326306 100.25997 
L 271.806724 84.841472 
L 272.285079 79.026476 
L 272.765166 77.702098 
L 273.241135 80.27939 
L 276.110035 118.510198 
L 277.068701 135.840427 
L 278.025753 160.82413 
L 278.504024 169.459581 
L 280.416539 169.459581 
L 280.893193 163.926903 
L 281.372224 147.041792 
L 281.853878 159.925529 
L 282.331652 169.459581 
L 284.242133 169.459581 
L 284.71954 167.398644 
L 285.201296 151.151882 
L 286.632934 120.708183 
L 287.111295 111.941791 
L 287.589686 105.719733 
L 289.025592 81.783487 
L 289.98191 71.154648 
L 290.45972 71.556416 
L 290.941337 79.605387 
L 291.416392 92.420912 
L 291.896081 97.418814 
L 292.852642 82.318378 
L 293.331476 80.173927 
L 293.807871 80.610624 
L 294.287189 82.792401 
L 296.679795 104.73788 
L 297.1586 108.132422 
L 299.069223 125.629998 
L 300.028303 138.997989 
L 301.464161 168.365076 
L 301.941383 169.459581 
L 303.853922 169.459581 
L 305.288766 140.676309 
L 306.246135 169.459581 
L 308.637835 169.459581 
L 309.596786 146.044623 
L 310.074693 134.99397 
L 311.03006 122.446508 
L 313.421183 103.339027 
L 314.37798 90.143668 
L 315.813859 54.698075 
L 318.202288 54.698075 
L 319.160456 79.307853 
L 321.073988 56.329209 
L 321.554328 54.698075 
L 323.944862 54.698075 
L 324.423336 58.768857 
L 324.90161 65.291652 
L 325.381732 74.207589 
L 327.292425 99.633733 
L 328.728332 110.471149 
L 329.205 113.163444 
L 329.683869 114.489985 
L 330.16079 115.176215 
L 330.643526 114.732915 
L 331.120634 112.615676 
L 331.596403 109.716555 
L 332.552248 98.199757 
L 333.032988 95.445518 
L 333.511375 95.067335 
L 333.989516 94.87517 
L 334.468531 94.929529 
L 335.422613 95.54412 
L 339.249678 99.827274 
L 339.727905 100.300235 
L 341.641109 101.440491 
L 343.075726 101.814035 
L 344.511101 101.932651 
L 345.94972 101.949045 
L 346.425855 98.93844 
L 347.381808 85.328043 
L 347.859972 83.373299 
L 348.338787 83.651155 
L 348.817653 85.443978 
L 351.207309 103.177426 
L 351.685671 105.720218 
L 352.165763 108.882721 
L 352.644761 111.166533 
L 354.557867 123.364749 
L 355.514089 132.476218 
L 356.951024 151.736216 
L 357.907545 160.594427 
L 358.382687 161.129983 
L 358.862743 157.601126 
L 359.34129 151.509753 
L 359.821192 138.659654 
L 360.299085 135.380096 
L 362.210691 143.550549 
L 362.690643 146.193849 
L 364.124124 151.39292 
L 364.6025 152.333462 
L 365.081582 152.458897 
L 365.557955 151.805214 
L 366.034812 150.713689 
L 366.994933 146.472919 
L 368.429416 137.277759 
L 370.341748 127.717627 
L 370.818744 126.72026 
L 371.296852 126.248632 
L 371.775895 126.64463 
L 372.254315 128.334832 
L 372.735281 130.583501 
L 373.689995 139.467986 
L 374.17055 140.878885 
L 375.604925 143.793438 
L 376.081672 144.571775 
L 377.037354 145.220469 
L 377.515303 145.195784 
L 378.472052 144.434775 
L 379.432502 142.810678 
L 382.779886 134.484333 
L 384.211497 132.249814 
L 384.689439 131.764818 
L 385.168284 131.574723 
L 385.648387 131.562923 
L 386.126315 131.738664 
L 387.083397 132.756169 
L 387.562263 132.772404 
L 388.038922 132.486991 
L 388.517971 132.59927 
L 388.995506 132.945654 
L 390.43174 134.954202 
L 391.386024 135.802821 
L 391.867225 135.851934 
L 392.346052 135.541255 
L 392.821914 135.010899 
L 393.778042 132.861797 
L 396.173235 124.859816 
L 397.606534 121.551356 
L 398.083996 120.713315 
L 399.042249 119.956182 
L 399.519649 119.911903 
L 399.997613 120.124854 
L 400.475866 120.502101 
L 400.954667 121.330668 
L 401.91176 125.658387 
L 402.391265 126.364802 
L 402.869072 126.472767 
L 403.345544 126.06811 
L 404.301812 124.109436 
L 405.736554 120.029659 
L 406.217424 118.944449 
L 406.696042 117.577681 
L 409.087644 112.961655 
L 409.565916 112.149175 
L 411.001848 110.611952 
L 411.480236 110.242053 
L 411.954655 110.084699 
L 412.432984 110.069242 
L 412.913184 110.230304 
L 413.869803 111.313215 
L 414.345755 112.446831 
L 414.827428 113.304035 
L 415.303519 113.721358 
L 416.261217 113.954773 
L 417.217624 113.787668 
L 418.654004 113.327878 
L 420.089122 112.845774 
L 424.39309 111.706092 
L 425.829774 111.241862 
L 426.782366 111.118025 
L 427.262082 111.196269 
L 428.699668 112.078575 
L 462.180911 112.169733 
L 465.049193 112.317544 
L 466.483958 112.527584 
L 467.443533 112.887685 
L 467.923147 113.344437 
L 472.703636 113.344437 
L 472.703636 113.344437 
" clip-path="url(#p5cb6135f6d)" style="fill: none; stroke-dasharray: 9.6,2.4,1.5,2.4; stroke-dashoffset: 0; stroke: #ff7f0e; stroke-width: 1.5"/>
   </g>
   <g id="line2d_27">
    <path d="M 42.28 169.459581 
L 493.2 169.459581 
" clip-path="url(#p5cb6135f6d)" style="fill: none; stroke-dasharray: 3.7,1.6; stroke-dashoffset: 0; stroke: #ff0000"/>
   </g>
   <g id="line2d_28">
    <path d="M 42.28 54.698075 
L 493.2 54.698075 
" clip-path="url(#p5cb6135f6d)" style="fill: none; stroke-dasharray: 3.7,1.6; stroke-dashoffset: 0; stroke: #ff0000"/>
   </g>
   <g id="patch_3">
    <path d="M 42.28 175.197656 
L 42.28 48.96 
" style="fill: none; stroke: #000000; stroke-width: 0.8; stroke-linejoin: miter; stroke-linecap: square"/>
   </g>
   <g id="patch_4">
    <path d="M 493.2 175.197656 
L 493.2 48.96 
" style="fill: none; stroke: #000000; stroke-width: 0.8; stroke-linejoin: miter; stroke-linecap: square"/>
   </g>
   <g id="patch_5">
    <path d="M 42.28 175.197656 
L 493.2 175.197656 
" style="fill: none; stroke: #000000; stroke-width: 0.8; stroke-linejoin: miter; stroke-linecap: square"/>
   </g>
   <g id="patch_6">
    <path d="M 42.28 48.96 
L 493.2 48.96 
" style="fill: none; stroke: #000000; stroke-width: 0.8; stroke-linejoin: miter; stroke-linecap: square"/>
   </g>
   <g id="text_14">
    <!-- $\delta$ (rad) -->
    <g transform="translate(247.52 42.96) scale(0.12 -0.12)">
     <defs>
      <path id="DejaVuSans-Oblique-348" d="M 3472 4053 
Q 3197 4272 2450 4272 
Q 1659 4272 1588 3906 
Q 1531 3619 2328 3469 
Q 2953 3353 3253 3003 
Q 3616 2581 3447 1716 
Q 3284 888 2763 400 
Q 2238 -91 1488 -91 
Q 741 -91 406 400 
Q 72 888 241 1747 
Q 363 2384 891 2900 
Q 1097 3100 1353 3213 
Q 913 3459 1000 3900 
Q 1166 4750 2544 4750 
Q 3234 4750 3566 4531 
L 3472 4053 
z
M 1753 3056 
Q 1525 2966 1306 2738 
Q 969 2384 847 1747 
Q 722 1113 919 756 
Q 1119 397 1584 397 
Q 2044 397 2381 759 
Q 2722 1122 2838 1716 
Q 2956 2338 2731 2638 
Q 2491 2959 2103 2994 
Q 1906 3013 1753 3056 
z
" transform="scale(0.015625)"/>
      <path id="DejaVuSans-55" d="M 2631 2963 
Q 2534 3019 2420 3045 
Q 2306 3072 2169 3072 
Q 1681 3072 1420 2755 
Q 1159 2438 1159 1844 
L 1159 0 
L 581 0 
L 581 3500 
L 1159 3500 
L 1159 2956 
Q 1341 3275 1631 3429 
Q 1922 3584 2338 3584 
Q 2397 3584 2469 3576 
Q 2541 3569 2628 3553 
L 2631 2963 
z
" transform="scale(0.015625)"/>
      <path id="DejaVuSans-44" d="M 2194 1759 
Q 1497 1759 1228 1600 
Q 959 1441 959 1056 
Q 959 750 1161 570 
Q 1363 391 1709 391 
Q 2188 391 2477 730 
Q 2766 1069 2766 1631 
L 2766 1759 
L 2194 1759 
z
M 3341 1997 
L 3341 0 
L 2766 0 
L 2766 531 
Q 2569 213 2275 61 
Q 1981 -91 1556 -91 
Q 1019 -91 701 211 
Q 384 513 384 1019 
Q 384 1609 779 1909 
Q 1175 2209 1959 2209 
L 2766 2209 
L 2766 2266 
Q 2766 2663 2505 2880 
Q 2244 3097 1772 3097 
Q 1472 3097 1187 3025 
Q 903 2953 641 2809 
L 641 3341 
Q 956 3463 1253 3523 
Q 1550 3584 1831 3584 
Q 2591 3584 2966 3190 
Q 3341 2797 3341 1997 
z
" transform="scale(0.015625)"/>
      <path id="DejaVuSans-47" d="M 2906 2969 
L 2906 4863 
L 3481 4863 
L 3481 0 
L 2906 0 
L 2906 525 
Q 2725 213 2448 61 
Q 2172 -91 1784 -91 
Q 1150 -91 751 415 
Q 353 922 353 1747 
Q 353 2572 751 3078 
Q 1150 3584 1784 3584 
Q 2172 3584 2448 3432 
Q 2725 3281 2906 2969 
z
M 947 1747 
Q 947 1113 1208 752 
Q 1469 391 1925 391 
Q 2381 391 2643 752 
Q 2906 1113 2906 1747 
Q 2906 2381 2643 2742 
Q 2381 3103 1925 3103 
Q 1469 3103 1208 2742 
Q 947 2381 947 1747 
z
" transform="scale(0.015625)"/>
     </defs>
     <use xlink:href="#DejaVuSans-Oblique-348" transform="translate(0 0.015625)"/>
     <use xlink:href="#DejaVuSans-3" transform="translate(61.181641 0.015625)"/>
     <use xlink:href="#DejaVuSans-b" transform="translate(92.96875 0.015625)"/>
     <use xlink:href="#DejaVuSans-55" transform="translate(131.982422 0.015625)"/>
     <use xlink:href="#DejaVuSans-44" transform="translate(173.095703 0.015625)"/>
     <use xlink:href="#DejaVuSans-47" transform="translate(234.375 0.015625)"/>
     <use xlink:href="#DejaVuSans-c" transform="translate(297.851562 0.015625)"/>
    </g>
   </g>
   <g id="legend_1">
    <g id="patch_7">
     <path d="M 432.6 86.961562 
L 486.2 86.961562 
Q 488.2 86.961562 488.2 84.961562 
L 488.2 55.96 
Q 488.2 53.96 486.2 53.96 
L 432.6 53.96 
Q 430.6 53.96 430.6 55.96 
L 430.6 84.961562 
Q 430.6 86.961562 432.6 86.961562 
z
" style="fill: #ffffff; opacity: 0.8; stroke: #cccccc; stroke-linejoin: miter"/>
    </g>
    <g id="line2d_29">
     <path d="M 434.6 62.058437 
L 444.6 62.058437 
L 454.6 62.058437 
" style="fill: none; stroke: #1f77b4; stroke-width: 1.5; stroke-linecap: square"/>
    </g>
    <g id="text_15">
     <!-- $\delta_{cmd}$ -->
     <g transform="translate(462.6 65.558437) scale(0.1 -0.1)">
      <defs>
       <path id="DejaVuSans-Oblique-46" d="M 3431 3366 
L 3316 2797 
Q 3109 2947 2876 3022 
Q 2644 3097 2394 3097 
Q 2119 3097 1870 3000 
Q 1622 2903 1453 2725 
Q 1184 2453 1037 2087 
Q 891 1722 891 1331 
Q 891 859 1127 628 
Q 1363 397 1844 397 
Q 2081 397 2348 469 
Q 2616 541 2906 684 
L 2797 116 
Q 2547 13 2283 -39 
Q 2019 -91 1741 -91 
Q 1044 -91 669 257 
Q 294 606 294 1253 
Q 294 1797 489 2255 
Q 684 2713 1069 3078 
Q 1331 3328 1684 3456 
Q 2038 3584 2456 3584 
Q 2700 3584 2940 3529 
Q 3181 3475 3431 3366 
z
" transform="scale(0.015625)"/>
       <path id="DejaVuSans-Oblique-50" d="M 5747 2113 
L 5338 0 
L 4763 0 
L 5166 2094 
Q 5191 2228 5203 2325 
Q 5216 2422 5216 2491 
Q 5216 2772 5059 2928 
Q 4903 3084 4622 3084 
Q 4203 3084 3875 2770 
Q 3547 2456 3450 1953 
L 3066 0 
L 2491 0 
L 2900 2094 
Q 2925 2209 2937 2307 
Q 2950 2406 2950 2484 
Q 2950 2769 2794 2926 
Q 2638 3084 2363 3084 
Q 1938 3084 1609 2770 
Q 1281 2456 1184 1953 
L 800 0 
L 225 0 
L 909 3500 
L 1484 3500 
L 1375 2956 
Q 1609 3263 1923 3423 
Q 2238 3584 2597 3584 
Q 2978 3584 3223 3384 
Q 3469 3184 3519 2828 
Q 3781 3197 4126 3390 
Q 4472 3584 4856 3584 
Q 5306 3584 5551 3325 
Q 5797 3066 5797 2591 
Q 5797 2488 5784 2364 
Q 5772 2241 5747 2113 
z
" transform="scale(0.015625)"/>
       <path id="DejaVuSans-Oblique-47" d="M 2675 525 
Q 2444 222 2128 65 
Q 1813 -91 1428 -91 
Q 903 -91 598 267 
Q 294 625 294 1247 
Q 294 1766 478 2236 
Q 663 2706 1013 3078 
Q 1244 3325 1534 3454 
Q 1825 3584 2144 3584 
Q 2481 3584 2739 3421 
Q 2997 3259 3138 2956 
L 3513 4863 
L 4091 4863 
L 3144 0 
L 2566 0 
L 2675 525 
z
M 891 1350 
Q 891 897 1095 644 
Q 1300 391 1663 391 
Q 1931 391 2161 520 
Q 2391 650 2566 903 
Q 2750 1166 2856 1509 
Q 2963 1853 2963 2188 
Q 2963 2622 2758 2865 
Q 2553 3109 2194 3109 
Q 1922 3109 1687 2981 
Q 1453 2853 1288 2613 
Q 1106 2353 998 2009 
Q 891 1666 891 1350 
z
" transform="scale(0.015625)"/>
      </defs>
      <use xlink:href="#DejaVuSans-Oblique-348" transform="translate(0 0.78125)"/>
      <use xlink:href="#DejaVuSans-Oblique-46" transform="translate(61.181641 -14.218701) scale(0.7)"/>
      <use xlink:href="#DejaVuSans-Oblique-50" transform="translate(99.667969 -14.218701) scale(0.7)"/>
      <use xlink:href="#DejaVuSans-Oblique-47" transform="translate(167.856445 -14.218701) scale(0.7)"/>
     </g>
    </g>
    <g id="line2d_30">
     <path d="M 434.6 77.059219 
L 444.6 77.059219 
L 454.6 77.059219 
" style="fill: none; stroke-dasharray: 9.6,2.4,1.5,2.4; stroke-dashoffset: 0; stroke: #ff7f0e; stroke-width: 1.5"/>
    </g>
    <g id="text_16">
     <!-- $\delta_{ref}$ -->
     <g transform="translate(462.6 80.559219) scale(0.1 -0.1)">
      <defs>
       <path id="DejaVuSans-Oblique-55" d="M 2853 2969 
Q 2766 3016 2653 3041 
Q 2541 3066 2413 3066 
Q 1953 3066 1609 2717 
Q 1266 2369 1153 1784 
L 800 0 
L 225 0 
L 909 3500 
L 1484 3500 
L 1375 2956 
Q 1603 3259 1920 3421 
Q 2238 3584 2597 3584 
Q 2691 3584 2781 3573 
Q 2872 3563 2963 3538 
L 2853 2969 
z
" transform="scale(0.015625)"/>
       <path id="DejaVuSans-Oblique-48" d="M 3078 2063 
Q 3088 2113 3092 2166 
Q 3097 2219 3097 2272 
Q 3097 2653 2873 2875 
Q 2650 3097 2266 3097 
Q 1838 3097 1509 2826 
Q 1181 2556 1013 2059 
L 3078 2063 
z
M 3578 1613 
L 903 1613 
Q 884 1494 878 1425 
Q 872 1356 872 1306 
Q 872 872 1139 634 
Q 1406 397 1894 397 
Q 2269 397 2603 481 
Q 2938 566 3225 728 
L 3116 159 
Q 2806 34 2476 -28 
Q 2147 -91 1806 -91 
Q 1078 -91 686 257 
Q 294 606 294 1247 
Q 294 1794 489 2264 
Q 684 2734 1063 3103 
Q 1306 3334 1642 3459 
Q 1978 3584 2356 3584 
Q 2950 3584 3301 3228 
Q 3653 2872 3653 2272 
Q 3653 2128 3634 1964 
Q 3616 1800 3578 1613 
z
" transform="scale(0.015625)"/>
       <path id="DejaVuSans-Oblique-49" d="M 3059 4863 
L 2969 4384 
L 2419 4384 
Q 2106 4384 1964 4261 
Q 1822 4138 1753 3809 
L 1691 3500 
L 2638 3500 
L 2553 3053 
L 1606 3053 
L 1013 0 
L 434 0 
L 1031 3053 
L 481 3053 
L 563 3500 
L 1113 3500 
L 1159 3744 
Q 1278 4363 1576 4613 
Q 1875 4863 2516 4863 
L 3059 4863 
z
" transform="scale(0.015625)"/>
      </defs>
      <use xlink:href="#DejaVuSans-Oblique-348" transform="translate(0 0.78125)"/>
      <use xlink:href="#DejaVuSans-Oblique-55" transform="translate(61.181641 -14.218701) scale(0.7)"/>
      <use xlink:href="#DejaVuSans-Oblique-48" transform="translate(89.960938 -14.218701) scale(0.7)"/>
      <use xlink:href="#DejaVuSans-Oblique-49" transform="translate(133.027344 -14.218701) scale(0.7)"/>
     </g>
    </g>
   </g>
  </g>
  <g id="axes_2">
   <g id="patch_8">
    <path d="M 42.28 361.077656 
L 493.2 361.077656 
L 493.2 234.84 
L 42.28 234.84 
z
" style="fill: #ffffff"/>
   </g>
   <g id="matplotlib.axis_3">
    <g id="xtick_8">
     <g id="line2d_31">
      <path d="M 62.410375 361.077656 
L 62.410375 234.84 
" clip-path="url(#pdcf6c9745d)" style="fill: none; stroke: #b0b0b0; stroke-width: 0.8; stroke-linecap: square"/>
     </g>
     <g id="line2d_32">
      <g>
       <use xlink:href="#m1ef4e2377f" x="62.410375" y="361.077656" style="stroke: #000000; stroke-width: 0.8"/>
      </g>
     </g>
     <g id="text_17">
      <!-- 0 -->
      <g transform="translate(59.229125 375.675312) scale(0.1 -0.1)">
       <use xlink:href="#DejaVuSans-13"/>
      </g>
     </g>
    </g>
    <g id="xtick_9">
     <g id="line2d_33">
      <path d="M 130.742775 361.077656 
L 130.742775 234.84 
" clip-path="url(#pdcf6c9745d)" style="fill: none; stroke: #b0b0b0; stroke-width: 0.8; stroke-linecap: square"/>
     </g>
     <g id="line2d_34">
      <g>
       <use xlink:href="#m1ef4e2377f" x="130.742775" y="361.077656" style="stroke: #000000; stroke-width: 0.8"/>
      </g>
     </g>
     <g id="text_18">
      <!-- 10 -->
      <g transform="translate(124.380275 375.675312) scale(0.1 -0.1)">
       <use xlink:href="#DejaVuSans-14"/>
       <use xlink:href="#DejaVuSans-13" transform="translate(63.625 0)"/>
      </g>
     </g>
    </g>
    <g id="xtick_10">
     <g id="line2d_35">
      <path d="M 199.075175 361.077656 
L 199.075175 234.84 
" clip-path="url(#pdcf6c9745d)" style="fill: none; stroke: #b0b0b0; stroke-width: 0.8; stroke-linecap: square"/>
     </g>
     <g id="line2d_36">
      <g>
       <use xlink:href="#m1ef4e2377f" x="199.075175" y="361.077656" style="stroke: #000000; stroke-width: 0.8"/>
      </g>
     </g>
     <g id="text_19">
      <!-- 20 -->
      <g transform="translate(192.712675 375.675312) scale(0.1 -0.1)">
       <use xlink:href="#DejaVuSans-15"/>
       <use xlink:href="#DejaVuSans-13" transform="translate(63.625 0)"/>
      </g>
     </g>
    </g>
    <g id="xtick_11">
     <g id="line2d_37">
      <path d="M 267.407574 361.077656 
L 267.407574 234.84 
" clip-path="url(#pdcf6c9745d)" style="fill: none; stroke: #b0b0b0; stroke-width: 0.8; stroke-linecap: square"/>
     </g>
     <g id="line2d_38">
      <g>
       <use xlink:href="#m1ef4e2377f" x="267.407574" y="361.077656" style="stroke: #000000; stroke-width: 0.8"/>
      </g>
     </g>
     <g id="text_20">
      <!-- 30 -->
      <g transform="translate(261.045074 375.675312) scale(0.1 -0.1)">
       <use xlink:href="#DejaVuSans-16"/>
       <use xlink:href="#DejaVuSans-13" transform="translate(63.625 0)"/>
      </g>
     </g>
    </g>
    <g id="xtick_12">
     <g id="line2d_39">
      <path d="M 335.739974 361.077656 
L 335.739974 234.84 
" clip-path="url(#pdcf6c9745d)" style="fill: none; stroke: #b0b0b0; stroke-width: 0.8; stroke-linecap: square"/>
     </g>
     <g id="line2d_40">
      <g>
       <use xlink:href="#m1ef4e2377f" x="335.739974" y="361.077656" style="stroke: #000000; stroke-width: 0.8"/>
      </g>
     </g>
     <g id="text_21">
      <!-- 40 -->
      <g transform="translate(329.377474 375.675312) scale(0.1 -0.1)">
       <use xlink:href="#DejaVuSans-17"/>
       <use xlink:href="#DejaVuSans-13" transform="translate(63.625 0)"/>
      </g>
     </g>
    </g>
    <g id="xtick_13">
     <g id="line2d_41">
      <path d="M 404.072373 361.077656 
L 404.072373 234.84 
" clip-path="url(#pdcf6c9745d)" style="fill: none; stroke: #b0b0b0; stroke-width: 0.8; stroke-linecap: square"/>
     </g>
     <g id="line2d_42">
      <g>
       <use xlink:href="#m1ef4e2377f" x="404.072373" y="361.077656" style="stroke: #000000; stroke-width: 0.8"/>
      </g>
     </g>
     <g id="text_22">
      <!-- 50 -->
      <g transform="translate(397.709873 375.675312) scale(0.1 -0.1)">
       <use xlink:href="#DejaVuSans-18"/>
       <use xlink:href="#DejaVuSans-13" transform="translate(63.625 0)"/>
      </g>
     </g>
    </g>
    <g id="xtick_14">
     <g id="line2d_43">
      <path d="M 472.404773 361.077656 
L 472.404773 234.84 
" clip-path="url(#pdcf6c9745d)" style="fill: none; stroke: #b0b0b0; stroke-width: 0.8; stroke-linecap: square"/>
     </g>
     <g id="line2d_44">
      <g>
       <use xlink:href="#m1ef4e2377f" x="472.404773" y="361.077656" style="stroke: #000000; stroke-width: 0.8"/>
      </g>
     </g>
     <g id="text_23">
      <!-- 60 -->
      <g transform="translate(466.042273 375.675312) scale(0.1 -0.1)">
       <use xlink:href="#DejaVuSans-19"/>
       <use xlink:href="#DejaVuSans-13" transform="translate(63.625 0)"/>
      </g>
     </g>
    </g>
    <g id="text_24">
     <!-- t (s) -->
     <g transform="translate(257.684531 389.675312) scale(0.1 -0.1)">
      <use xlink:href="#DejaVuSans-57"/>
      <use xlink:href="#DejaVuSans-3" transform="translate(39.203125 0)"/>
      <use xlink:href="#DejaVuSans-b" transform="translate(70.984375 0)"/>
      <use xlink:href="#DejaVuSans-56" transform="translate(110 0)"/>
      <use xlink:href="#DejaVuSans-c" transform="translate(162.09375 0)"/>
     </g>
    </g>
   </g>
   <g id="matplotlib.axis_4">
    <g id="ytick_6">
     <g id="line2d_45">
      <path d="M 42.28 336.212663 
L 493.2 336.212663 
" clip-path="url(#pdcf6c9745d)" style="fill: none; stroke: #b0b0b0; stroke-width: 0.8; stroke-linecap: square"/>
     </g>
     <g id="line2d_46">
      <g>
       <use xlink:href="#me15748aa22" x="42.28" y="336.212663" style="stroke: #000000; stroke-width: 0.8"/>
      </g>
     </g>
     <g id="text_25">
      <!-- −0.2 -->
      <g transform="translate(10.997188 340.011491) scale(0.1 -0.1)">
       <use xlink:href="#DejaVuSans-c9c"/>
       <use xlink:href="#DejaVuSans-13" transform="translate(83.796875 0)"/>
       <use xlink:href="#DejaVuSans-11" transform="translate(147.421875 0)"/>
       <use xlink:href="#DejaVuSans-15" transform="translate(179.203125 0)"/>
      </g>
     </g>
    </g>
    <g id="ytick_7">
     <g id="line2d_47">
      <path d="M 42.28 297.958828 
L 493.2 297.958828 
" clip-path="url(#pdcf6c9745d)" style="fill: none; stroke: #b0b0b0; stroke-width: 0.8; stroke-linecap: square"/>
     </g>
     <g id="line2d_48">
      <g>
       <use xlink:href="#me15748aa22" x="42.28" y="297.958828" style="stroke: #000000; stroke-width: 0.8"/>
      </g>
     </g>
     <g id="text_26">
      <!-- 0.0 -->
      <g transform="translate(19.376875 301.757656) scale(0.1 -0.1)">
       <use xlink:href="#DejaVuSans-13"/>
       <use xlink:href="#DejaVuSans-11" transform="translate(63.625 0)"/>
       <use xlink:href="#DejaVuSans-13" transform="translate(95.40625 0)"/>
      </g>
     </g>
    </g>
    <g id="ytick_8">
     <g id="line2d_49">
      <path d="M 42.28 259.704993 
L 493.2 259.704993 
" clip-path="url(#pdcf6c9745d)" style="fill: none; stroke: #b0b0b0; stroke-width: 0.8; stroke-linecap: square"/>
     </g>
     <g id="line2d_50">
      <g>
       <use xlink:href="#me15748aa22" x="42.28" y="259.704993" style="stroke: #000000; stroke-width: 0.8"/>
      </g>
     </g>
     <g id="text_27">
      <!-- 0.2 -->
      <g transform="translate(19.376875 263.503821) scale(0.1 -0.1)">
       <use xlink:href="#DejaVuSans-13"/>
       <use xlink:href="#DejaVuSans-11" transform="translate(63.625 0)"/>
       <use xlink:href="#DejaVuSans-15" transform="translate(95.40625 0)"/>
      </g>
     </g>
    </g>
   </g>
   <g id="line2d_51">
    <path d="M 62.776364 240.582316 
L 87.173103 240.580615 
L 87.653817 240.674724 
L 88.127336 255.076527 
L 89.083781 273.504914 
L 89.565201 280.199861 
L 90.520694 288.33828 
L 91.475441 292.296746 
L 92.912189 295.573438 
L 93.391258 292.317426 
L 93.869046 297.716846 
L 94.348635 297.509972 
L 94.828127 297.963939 
L 95.305126 297.590695 
L 95.781772 297.566471 
L 96.264328 351.966458 
L 96.739401 355.326178 
L 103.912801 355.335988 
L 104.870504 355.315536 
L 105.3511 322.075182 
L 105.82857 321.769115 
L 106.304216 267.973915 
L 106.782995 240.956409 
L 107.263145 240.588848 
L 110.132553 240.607318 
L 110.611413 302.986252 
L 111.088652 318.001957 
L 111.569377 345.303837 
L 112.043798 346.768459 
L 112.524098 355.157 
L 113.00241 339.69765 
L 113.479254 333.588769 
L 113.95686 298.199255 
L 114.438388 298.181175 
L 114.9153 282.67048 
L 115.39491 320.836571 
L 115.872265 306.248429 
L 116.352149 309.643292 
L 116.829641 292.776268 
L 117.307059 294.644739 
L 117.786526 278.905009 
L 118.262635 283.098547 
L 118.740085 268.410906 
L 119.220904 275.490633 
L 119.697734 264.054544 
L 120.178252 309.490484 
L 120.653413 299.115432 
L 121.13309 307.140583 
L 121.611255 292.287187 
L 122.092708 298.564289 
L 122.570333 280.514736 
L 123.048663 289.307051 
L 123.525516 274.547255 
L 124.006082 282.085241 
L 124.481118 272.190143 
L 124.959809 321.670811 
L 125.439758 311.122177 
L 125.916005 317.597398 
L 126.394912 297.781025 
L 126.871331 298.594009 
L 127.354186 274.81 
L 127.829757 274.074499 
L 128.30851 250.407586 
L 128.787905 252.982775 
L 129.266086 240.622882 
L 129.74281 281.249587 
L 130.22109 265.076422 
L 130.70065 274.377325 
L 131.177736 257.305321 
L 131.657105 268.003084 
L 132.134279 253.228065 
L 132.611663 265.870147 
L 133.09157 253.241136 
L 133.568683 268.746011 
L 134.048709 257.979046 
L 134.526969 320.210995 
L 135.00381 300.447727 
L 135.482443 304.460731 
L 135.963275 274.832381 
L 136.439842 274.371244 
L 136.919252 242.280059 
L 137.396539 247.758799 
L 137.878275 240.604364 
L 138.353264 240.747507 
L 138.832232 240.60886 
L 139.310867 287.469118 
L 139.788773 274.302074 
L 140.265274 287.631853 
L 140.745256 274.75253 
L 141.223513 283.520419 
L 141.700917 276.428494 
L 142.18138 282.394971 
L 142.658749 280.972708 
L 143.13571 285.934729 
L 143.61362 288.709543 
L 144.093795 297.891397 
L 144.571499 295.447579 
L 145.05123 291.671883 
L 145.527196 296.335114 
L 146.005302 296.311247 
L 146.484536 296.521585 
L 146.962826 297.696558 
L 147.440356 297.315846 
L 147.921639 297.923564 
L 148.401014 297.962651 
L 148.874916 297.843564 
L 149.353311 297.963124 
L 149.834266 297.618178 
L 150.311145 297.718205 
L 150.78821 297.964587 
L 151.268952 297.964321 
L 151.747576 294.7589 
L 152.22493 297.96503 
L 153.182047 297.966506 
L 153.659853 297.789965 
L 154.136407 298.165691 
L 154.61484 329.035587 
L 155.093815 338.012688 
L 155.572372 355.323991 
L 162.270664 355.333337 
L 163.224447 355.324344 
L 164.182795 313.770051 
L 164.660794 282.254429 
L 165.139185 280.180668 
L 165.620133 240.594321 
L 169.446724 240.589375 
L 169.925066 240.658932 
L 170.402438 250.26884 
L 170.878415 288.920986 
L 171.357639 307.498444 
L 171.837164 340.778827 
L 172.793581 355.331111 
L 174.226972 355.23989 
L 174.705354 348.964817 
L 175.183368 312.765004 
L 175.664035 303.773616 
L 176.140485 274.390807 
L 176.619885 269.694352 
L 177.099996 244.998307 
L 177.576476 282.759419 
L 178.054672 262.225923 
L 178.532483 265.853253 
L 179.013225 244.912674 
L 179.490279 251.82631 
L 179.966864 240.626558 
L 180.44587 246.453241 
L 180.923898 240.627033 
L 181.402136 249.887531 
L 181.880029 241.024151 
L 182.360146 304.340084 
L 182.837704 294.743041 
L 183.316249 308.729368 
L 183.796981 291.640682 
L 184.271438 299.405192 
L 184.751046 277.417442 
L 185.230556 283.213439 
L 185.708472 259.625044 
L 186.185296 255.724145 
L 186.674963 240.592741 
L 187.141187 246.85123 
L 187.622366 240.592311 
L 189.533258 240.608382 
L 190.01257 248.317791 
L 190.968534 270.337996 
L 191.447887 277.139966 
L 191.926043 282.328636 
L 193.362015 291.00099 
L 193.839794 293.708422 
L 194.317052 294.770584 
L 194.7948 295.246284 
L 195.27449 295.942519 
L 195.752874 295.615938 
L 196.231619 296.88552 
L 196.708451 296.914963 
L 197.187626 296.602176 
L 197.665175 297.125207 
L 198.143737 296.106955 
L 198.622923 297.44162 
L 199.102524 297.587495 
L 199.580946 297.406377 
L 200.058421 297.72179 
L 201.012747 297.321401 
L 201.4906 335.553474 
L 201.970657 337.319466 
L 202.448423 355.284943 
L 206.277188 355.337128 
L 209.624783 355.223057 
L 210.104378 337.292526 
L 210.581386 291.903557 
L 211.059637 302.422516 
L 211.539971 265.367655 
L 212.016061 258.318328 
L 212.493235 243.815229 
L 212.970874 260.850796 
L 213.450533 270.839478 
L 213.930078 293.900861 
L 214.407684 293.521473 
L 214.884992 305.027808 
L 215.363664 286.072919 
L 215.840709 320.997443 
L 216.321003 287.358295 
L 216.798181 276.10405 
L 217.280184 240.620219 
L 220.147493 240.589614 
L 220.624324 270.704651 
L 221.103716 273.815104 
L 221.581373 301.208878 
L 222.060744 307.07481 
L 222.539571 333.098275 
L 223.016146 334.591009 
L 223.495365 352.4479 
L 223.973738 345.799831 
L 224.452244 352.897342 
L 224.931005 335.344853 
L 225.407324 355.29482 
L 226.364046 320.132613 
L 226.844897 271.28722 
L 227.322797 250.121665 
L 227.801692 240.588569 
L 233.06178 240.605051 
L 233.541546 241.742107 
L 234.018789 278.942834 
L 234.495788 291.769752 
L 234.976391 355.320996 
L 238.800738 355.327258 
L 239.282722 353.720742 
L 239.757747 355.323437 
L 240.235185 337.69292 
L 240.714976 337.347275 
L 241.191596 318.045153 
L 241.670004 310.075937 
L 242.149978 271.553775 
L 243.106129 240.590431 
L 244.065101 240.587731 
L 244.542262 254.632791 
L 245.019211 257.525383 
L 245.497439 287.090752 
L 245.975046 298.637691 
L 246.452997 326.468463 
L 246.93176 324.384145 
L 247.409875 334.415037 
L 247.890693 303.137034 
L 248.367024 290.216674 
L 248.849554 240.678 
L 249.326154 274.491159 
L 249.802207 245.449067 
L 251.23833 285.946902 
L 251.718124 259.690453 
L 252.197385 255.626628 
L 252.673318 240.600919 
L 253.631441 240.592331 
L 254.108997 268.610956 
L 254.58582 252.602889 
L 255.06317 257.677733 
L 255.544202 252.267545 
L 256.023828 265.169676 
L 256.499301 265.605424 
L 256.978806 290.42467 
L 257.457888 292.45791 
L 257.934949 318.779727 
L 258.414844 314.783628 
L 258.891287 355.321614 
L 259.849418 355.299762 
L 260.326966 334.175029 
L 260.803193 319.900416 
L 261.283553 280.933619 
L 261.76306 277.107008 
L 262.240092 248.392141 
L 262.716841 252.675141 
L 263.19791 240.687503 
L 263.674328 298.972059 
L 264.155082 288.525487 
L 264.630556 305.452297 
L 265.111055 295.505692 
L 265.586458 311.9219 
L 266.068048 300.990841 
L 266.544088 316.010414 
L 267.021914 303.422864 
L 267.501567 316.232644 
L 267.9802 299.224832 
L 268.458345 354.308391 
L 268.937343 334.585501 
L 269.413903 335.007029 
L 269.893628 303.11519 
L 270.372184 299.180022 
L 270.848175 268.574899 
L 271.326306 263.839032 
L 271.806724 240.597802 
L 272.765166 240.585533 
L 273.241135 240.843432 
L 273.720159 240.690828 
L 274.19824 246.25343 
L 274.675841 240.653356 
L 275.156715 246.911035 
L 275.634581 255.953905 
L 276.110035 299.459317 
L 276.591766 310.789422 
L 277.068701 340.036118 
L 277.546213 346.280831 
L 278.025753 355.333802 
L 279.937955 355.310609 
L 280.416539 319.211805 
L 280.893193 313.635748 
L 281.372224 324.384085 
L 281.853878 355.314736 
L 282.331652 344.719287 
L 282.807998 355.327054 
L 283.287377 288.821543 
L 283.766489 240.599247 
L 287.111295 240.581932 
L 287.589686 240.690337 
L 288.069316 262.200114 
L 288.546214 298.849905 
L 289.025592 311.547809 
L 289.503449 345.071259 
L 290.45972 355.312235 
L 290.941337 334.021704 
L 291.416392 328.109039 
L 291.896081 290.606901 
L 292.373332 322.747975 
L 292.852642 271.602465 
L 293.331476 249.293605 
L 293.807871 240.590657 
L 296.679795 240.59258 
L 297.1586 247.168501 
L 297.635388 251.975879 
L 298.592086 310.535188 
L 299.069223 341.427878 
L 299.550842 350.888969 
L 300.028303 355.327679 
L 302.8984 355.328793 
L 303.374733 317.734085 
L 303.853922 295.063388 
L 304.33353 251.707357 
L 304.810236 253.4003 
L 305.288766 257.488817 
L 305.767726 298.367014 
L 306.246135 282.125022 
L 306.725339 323.175166 
L 307.20299 240.626371 
L 308.637835 240.581165 
L 312.463587 240.598542 
L 312.943586 255.334248 
L 313.421183 261.075716 
L 313.900506 269.973483 
L 314.856863 325.509862 
L 315.333735 355.327713 
L 323.944862 355.334745 
L 324.90161 355.285137 
L 325.381732 311.522876 
L 325.858876 312.984651 
L 326.334112 270.484885 
L 327.292425 240.605345 
L 330.16079 240.676602 
L 330.643526 295.138283 
L 331.120634 297.179626 
L 331.596403 314.240845 
L 332.076977 303.82917 
L 332.552248 309.509987 
L 333.032988 289.935625 
L 333.511375 292.243751 
L 333.989516 271.079555 
L 334.468531 273.172984 
L 334.9442 252.743347 
L 335.422613 295.06596 
L 335.901309 276.499002 
L 336.380965 281.161917 
L 336.860968 262.014906 
L 337.33586 268.022787 
L 337.814961 250.995906 
L 338.293467 260.482689 
L 338.772273 247.339882 
L 339.249678 261.595361 
L 339.727905 252.527877 
L 340.208004 313.083719 
L 340.68733 304.443921 
L 341.164266 317.561227 
L 341.641109 302.458163 
L 342.120195 310.585916 
L 342.598706 291.761152 
L 343.075726 297.593344 
L 343.555381 277.071255 
L 344.03574 278.964068 
L 344.511101 262.630508 
L 344.989559 307.640152 
L 345.469459 288.287433 
L 345.94972 289.091673 
L 346.425855 248.481904 
L 346.906885 240.639134 
L 348.338787 240.582827 
L 351.207309 240.635413 
L 351.685671 254.415581 
L 353.123937 279.060229 
L 353.599886 274.647013 
L 354.076946 290.579928 
L 354.557867 292.393975 
L 355.036864 293.360143 
L 355.514089 294.797786 
L 355.992818 303.092214 
L 356.470583 340.901193 
L 356.951024 355.211146 
L 357.425715 355.328612 
L 367.470083 355.30595 
L 367.950351 351.312195 
L 368.429416 318.491112 
L 368.907767 325.535143 
L 369.386233 295.454996 
L 369.861946 283.74726 
L 370.341748 260.692726 
L 370.818744 258.006367 
L 371.296852 245.743794 
L 371.775895 253.602022 
L 372.254315 251.119155 
L 372.735281 267.258501 
L 373.210222 270.145537 
L 373.689995 316.891596 
L 374.17055 321.098428 
L 374.648119 336.005133 
L 375.126631 331.703332 
L 375.604925 338.913628 
L 376.081672 327.214957 
L 376.558931 327.245058 
L 377.037354 310.328433 
L 377.515303 307.438803 
L 377.993891 289.216786 
L 378.472052 311.528998 
L 378.950466 294.355464 
L 379.432502 292.342738 
L 379.90817 275.535696 
L 380.386441 275.881352 
L 380.864607 262.141742 
L 381.342194 267.040021 
L 381.8202 257.907866 
L 382.298472 267.062789 
L 382.779886 261.904091 
L 383.257028 302.768546 
L 383.735962 297.830619 
L 384.211497 307.512847 
L 384.689439 298.24359 
L 385.168284 304.140464 
L 385.648387 291.315119 
L 386.126315 295.535608 
L 386.604073 281.466819 
L 387.083397 284.806997 
L 387.562263 276.243996 
L 388.038922 317.60808 
L 388.517971 313.812563 
L 388.995506 322.085512 
L 389.474896 311.193811 
L 389.954303 313.697282 
L 390.43174 296.918097 
L 390.908701 295.377689 
L 391.386024 274.741491 
L 391.867225 272.156075 
L 392.346052 248.092821 
L 392.821914 276.519865 
L 393.299998 246.590841 
L 394.256918 240.606884 
L 397.129979 240.584751 
L 397.606534 240.797164 
L 398.083996 240.601653 
L 398.561432 240.80984 
L 399.042249 240.598634 
L 399.519649 241.14163 
L 399.997613 240.63531 
L 400.475866 251.720358 
L 400.954667 242.806713 
L 401.431917 259.614753 
L 401.91176 240.625126 
L 402.391265 291.533795 
L 402.869072 264.201184 
L 403.345544 271.686538 
L 403.824388 250.699449 
L 404.301812 257.411518 
L 404.782009 249.090613 
L 405.261019 256.30204 
L 405.736554 259.142335 
L 406.696042 277.074022 
L 407.171035 282.248927 
L 407.656199 256.165266 
L 408.128786 296.867339 
L 408.608238 297.963767 
L 409.087644 295.393771 
L 409.565916 297.963325 
L 410.041689 294.349186 
L 410.519846 297.963063 
L 411.001848 294.338989 
L 411.480236 297.962943 
L 415.782366 297.898958 
L 416.261217 295.284883 
L 416.739851 297.962805 
L 417.695097 297.962438 
L 418.176257 291.861123 
L 418.654004 297.962299 
L 419.131284 297.962138 
L 419.609632 291.609798 
L 420.089122 297.962502 
L 423.91413 297.961682 
L 424.39309 290.903129 
L 424.870209 297.96166 
L 425.350062 297.961663 
L 425.829774 293.924712 
L 426.30721 297.100512 
L 426.782366 297.961725 
L 430.612079 297.961917 
L 431.088785 297.835171 
L 431.565823 297.145319 
L 432.046355 297.962 
L 433.481403 297.961244 
L 433.959423 297.691574 
L 434.437251 297.961454 
L 434.915931 297.961717 
L 435.396326 291.298894 
L 435.873229 297.736755 
L 436.351856 296.974918 
L 436.830233 297.54239 
L 437.305917 297.689119 
L 437.787236 297.026381 
L 438.264731 297.962562 
L 440.179809 297.96432 
L 440.654516 297.831631 
L 441.132616 297.969387 
L 441.613246 297.822842 
L 442.089796 297.975056 
L 442.567599 299.502797 
L 443.046792 332.123117 
L 443.525444 355.321158 
L 448.78863 355.338442 
L 470.790186 355.336021 
L 471.268044 342.321294 
L 472.225029 266.098587 
L 472.703636 240.883532 
L 472.703636 240.883532 
" clip-path="url(#pdcf6c9745d)" style="fill: none; stroke: #1f77b4; stroke-width: 1.5; stroke-linecap: square"/>
   </g>
   <g id="line2d_52">
    <path d="M 62.776364 249.101425 
L 63.257092 240.578075 
L 72.344632 240.578075 
L 72.821761 243.332012 
L 73.299848 261.703078 
L 73.778636 286.075962 
L 74.257536 304.041042 
L 74.738094 327.247555 
L 75.214986 343.868834 
L 75.692817 355.339581 
L 81.909921 355.339581 
L 82.390256 337.597573 
L 83.344229 282.88414 
L 84.779234 318.477914 
L 85.257865 328.813722 
L 86.216585 342.049911 
L 87.173103 349.701536 
L 87.653817 351.44513 
L 88.127336 352.47155 
L 88.606896 352.339935 
L 89.083781 351.068184 
L 89.565201 349.363534 
L 90.520694 343.209907 
L 92.434033 324.004028 
L 93.869046 305.098949 
L 94.348635 299.710913 
L 94.828127 292.53395 
L 95.305126 287.229576 
L 95.781772 280.374032 
L 96.264328 275.474666 
L 96.739401 269.384413 
L 98.172934 257.291171 
L 98.651157 254.087619 
L 99.130607 252.427401 
L 99.608915 251.3109 
L 100.089248 251.367414 
L 100.564148 252.73605 
L 101.043239 254.799835 
L 102.001097 263.376404 
L 102.956932 277.70476 
L 103.43534 288.684616 
L 103.912801 286.426914 
L 104.394151 258.664931 
L 104.870504 244.44231 
L 105.3511 240.578075 
L 106.782995 240.578075 
L 107.263145 246.92454 
L 107.738743 256.981659 
L 109.176269 300.935677 
L 110.611413 333.649157 
L 111.088652 340.40818 
L 111.569377 342.217891 
L 112.043798 339.856003 
L 112.524098 334.441427 
L 113.479254 310.760359 
L 113.95686 293.214822 
L 114.438388 295.926434 
L 114.9153 300.245681 
L 115.39491 302.402761 
L 115.872265 304.016314 
L 116.352149 304.407511 
L 116.829641 304.028686 
L 117.307059 303.199985 
L 118.262635 300.041778 
L 119.697734 293.831176 
L 121.13309 289.204662 
L 121.611255 287.955069 
L 122.570333 286.707511 
L 123.048663 286.517153 
L 123.525516 286.526391 
L 124.006082 286.677075 
L 124.959809 293.112184 
L 125.439758 294.720836 
L 125.916005 294.331598 
L 126.871331 289.786701 
L 128.30851 278.737017 
L 129.74281 270.783934 
L 130.22109 268.875254 
L 130.70065 267.968414 
L 131.177736 267.450981 
L 131.657105 267.565508 
L 132.134279 268.355578 
L 132.611663 269.398176 
L 133.568683 273.136378 
L 134.048709 275.877978 
L 134.526969 277.525059 
L 135.963275 262.924767 
L 136.919252 256.533998 
L 137.396539 255.466787 
L 137.878275 255.842478 
L 138.353264 257.454697 
L 139.310867 265.007484 
L 140.745256 282.762816 
L 142.18138 297.295479 
L 142.658749 301.023455 
L 143.13571 302.709581 
L 143.61362 303.233232 
L 144.093795 302.151021 
L 144.571499 298.388168 
L 145.05123 277.520027 
L 145.527196 248.538817 
L 146.005302 240.578075 
L 147.440356 240.578075 
L 147.921639 243.545896 
L 149.353311 300.677271 
L 149.834266 318.995841 
L 150.311145 343.110801 
L 150.78821 355.339581 
L 154.136407 355.339581 
L 154.61484 348.979533 
L 155.093815 326.797082 
L 155.572372 348.418821 
L 156.05219 355.339581 
L 158.921322 355.339581 
L 159.399749 354.867016 
L 161.790378 273.770015 
L 162.749184 250.785602 
L 163.224447 246.478947 
L 163.703623 247.910426 
L 164.182795 255.326972 
L 165.139185 297.754848 
L 166.5773 255.360485 
L 167.051383 251.149798 
L 167.532115 251.612251 
L 168.010943 255.716463 
L 168.966965 274.1398 
L 169.925066 298.521862 
L 170.402438 311.962427 
L 171.357639 329.112361 
L 171.837164 332.513003 
L 172.313547 332.438164 
L 172.793581 328.83966 
L 173.748839 311.155148 
L 174.226972 298.916079 
L 174.705354 291.186389 
L 175.183368 285.49389 
L 175.664035 286.316481 
L 176.140485 289.177252 
L 176.619885 290.035736 
L 177.099996 289.683117 
L 177.576476 288.468891 
L 178.532483 283.384759 
L 179.966864 273.149839 
L 180.923898 268.045481 
L 181.402136 266.624727 
L 181.880029 265.61489 
L 182.360146 265.575129 
L 182.837704 266.51968 
L 183.316249 267.98126 
L 184.271438 273.823109 
L 185.708472 288.389526 
L 186.185296 283.415374 
L 187.141187 250.494786 
L 187.622366 240.578075 
L 191.447887 240.578075 
L 191.926043 257.106371 
L 193.362015 345.199917 
L 193.839794 355.339581 
L 197.665175 355.339581 
L 198.143737 352.768912 
L 199.102524 315.474149 
L 199.580946 305.251529 
L 200.058421 298.172474 
L 200.534021 295.577957 
L 201.012747 294.983964 
L 201.4906 296.321428 
L 202.448423 304.14981 
L 204.363627 331.880011 
L 204.83996 340.449501 
L 205.796431 352.895843 
L 206.277188 355.339581 
L 207.232221 355.339581 
L 207.711871 353.120686 
L 208.187472 346.815999 
L 209.146642 323.546193 
L 209.624783 306.931195 
L 211.059637 272.520288 
L 211.539971 268.241521 
L 212.016061 270.41562 
L 212.493235 281.431307 
L 212.970874 296.19125 
L 213.450533 317.023391 
L 213.930078 325.261815 
L 214.407684 326.610165 
L 214.884992 321.264172 
L 215.840709 294.234169 
L 216.321003 275.098745 
L 217.280184 247.025209 
L 217.757292 240.578075 
L 219.189653 240.578075 
L 219.669097 243.428474 
L 221.581373 284.913335 
L 222.060744 297.536981 
L 223.495365 322.054539 
L 223.973738 327.350581 
L 224.452244 329.133311 
L 224.931005 328.209145 
L 225.407324 324.760836 
L 226.364046 305.742786 
L 226.844897 290.809491 
L 227.322797 286.668659 
L 229.713645 248.102173 
L 230.192858 244.907095 
L 230.670059 243.954435 
L 231.149991 245.807734 
L 232.105978 257.944369 
L 234.018789 301.783953 
L 234.495788 314.837992 
L 235.452189 333.546942 
L 236.410299 343.375917 
L 236.888937 344.15465 
L 237.367148 341.851687 
L 237.845263 337.792485 
L 239.757747 304.731789 
L 240.235185 295.516004 
L 241.191596 322.048228 
L 241.670004 321.284294 
L 242.627695 297.295506 
L 243.106129 282.851743 
L 243.585715 276.707972 
L 244.065101 276.88362 
L 244.542262 282.989177 
L 245.975046 323.31821 
L 246.452997 330.01074 
L 246.93176 329.829271 
L 247.409875 321.444114 
L 248.367024 278.782386 
L 248.849554 251.609096 
L 249.326154 240.578075 
L 249.802207 240.578075 
L 250.280728 255.753022 
L 250.75975 292.717844 
L 251.23833 294.506366 
L 251.718124 284.400844 
L 252.197385 270.609674 
L 252.673318 249.811548 
L 253.150171 240.578075 
L 255.06317 240.578075 
L 256.023828 272.516884 
L 256.499301 295.230727 
L 257.457888 329.560594 
L 257.934949 339.54805 
L 258.414844 346.773654 
L 258.891287 347.252532 
L 259.369975 341.48142 
L 259.849418 332.861735 
L 260.803193 300.445048 
L 261.283553 292.747652 
L 262.240092 290.801867 
L 262.716841 290.666288 
L 263.19791 291.192015 
L 263.674328 292.136504 
L 264.630556 296.031878 
L 266.068048 304.65759 
L 267.021914 309.124455 
L 267.501567 310.27739 
L 267.9802 310.908747 
L 268.458345 310.682185 
L 269.413903 308.201977 
L 269.893628 306.102199 
L 270.848175 302.903113 
L 271.326306 297.220011 
L 272.285079 250.706183 
L 272.765166 240.578075 
L 274.675841 240.578075 
L 275.156715 263.10046 
L 276.110035 351.494274 
L 276.591766 355.339581 
L 278.980232 355.339581 
L 279.937955 259.882313 
L 280.416539 240.578075 
L 280.893193 240.578075 
L 281.853878 355.339581 
L 282.807998 355.339581 
L 283.766489 242.461451 
L 284.242133 240.578075 
L 286.154584 240.578075 
L 286.632934 242.448421 
L 287.111295 295.763939 
L 287.589686 333.684379 
L 288.069316 355.339581 
L 289.98191 355.339581 
L 290.45972 352.591181 
L 290.941337 322.1895 
L 291.896081 293.387473 
L 292.373332 282.330564 
L 293.331476 247.50277 
L 293.807871 240.578075 
L 296.201013 240.578075 
L 296.679795 251.056457 
L 297.1586 272.433169 
L 298.11599 329.24809 
L 298.592086 355.339581 
L 301.941383 355.339581 
L 302.418508 328.923932 
L 303.374733 254.504089 
L 303.853922 240.578075 
L 304.33353 240.578075 
L 304.810236 255.194108 
L 305.767726 350.463059 
L 306.246135 355.339581 
L 306.725339 350.462051 
L 307.680137 240.578075 
L 311.507385 240.578075 
L 312.463587 337.250393 
L 312.943586 355.339581 
L 316.769551 355.339581 
L 317.246183 326.129453 
L 317.724712 263.397968 
L 318.202288 247.768293 
L 318.682296 274.398729 
L 319.160456 314.461678 
L 319.637944 341.131044 
L 320.1191 353.701235 
L 320.596755 355.339581 
L 321.073988 355.339581 
L 321.554328 350.628518 
L 322.029682 339.112863 
L 323.466305 285.385274 
L 324.423336 261.966161 
L 324.90161 257.013798 
L 325.381732 254.976557 
L 325.858876 256.388431 
L 326.814416 266.562462 
L 328.249774 289.893332 
L 329.205 302.164144 
L 330.16079 308.988673 
L 330.643526 309.89768 
L 331.120634 309.047791 
L 331.596403 306.70397 
L 332.552248 293.678971 
L 333.032988 286.657014 
L 334.468531 275.951151 
L 334.9442 272.929711 
L 335.901309 269.398234 
L 336.380965 268.550339 
L 336.860968 268.006878 
L 337.33586 268.01377 
L 337.814961 268.530238 
L 338.293467 269.262882 
L 339.249678 271.941086 
L 342.120195 284.330451 
L 342.598706 286.736741 
L 344.511101 293.150847 
L 344.989559 293.898276 
L 345.469459 294.43623 
L 345.94972 294.457984 
L 346.425855 289.362683 
L 346.906885 274.418521 
L 347.381808 252.520135 
L 347.859972 240.578075 
L 351.207309 240.578075 
L 351.685671 242.132222 
L 353.599886 348.720603 
L 354.076946 355.339581 
L 357.907545 355.339581 
L 358.382687 351.875236 
L 358.862743 327.508991 
L 359.34129 316.030472 
L 359.821192 312.869495 
L 360.299085 322.086928 
L 360.774004 334.701818 
L 361.731347 346.996377 
L 362.210691 348.895812 
L 362.690643 348.767242 
L 363.167161 346.974689 
L 364.124124 338.708255 
L 365.557955 321.208642 
L 366.994933 308.747188 
L 367.470083 305.71803 
L 367.950351 304.207284 
L 368.429416 303.115071 
L 368.907767 302.892177 
L 369.386233 303.225159 
L 369.861946 303.829507 
L 371.775895 308.008496 
L 372.254315 308.81975 
L 372.735281 309.02709 
L 373.210222 308.43332 
L 373.689995 307.280257 
L 374.17055 308.267524 
L 374.648119 308.640303 
L 375.126631 308.474132 
L 375.604925 307.918846 
L 376.558931 305.511354 
L 379.90817 292.818813 
L 381.8202 288.027325 
L 383.257028 286.197298 
L 383.735962 285.723181 
L 385.168284 284.755709 
L 386.126315 283.843669 
L 387.083397 282.227722 
L 387.562263 286.580264 
L 388.517971 299.04535 
L 388.995506 302.050796 
L 389.474896 304.061191 
L 389.954303 304.185408 
L 390.43174 302.69128 
L 390.908701 300.464045 
L 391.867225 292.28714 
L 395.215469 251.053138 
L 396.173235 242.453231 
L 396.648685 240.578075 
L 398.561432 240.578075 
L 399.042249 241.167722 
L 399.519649 244.926362 
L 400.475866 258.293742 
L 400.954667 267.5272 
L 401.431917 260.995441 
L 401.91176 251.167381 
L 402.391265 244.496223 
L 402.869072 240.578075 
L 406.217424 240.578075 
L 406.696042 240.743181 
L 407.171035 246.54374 
L 408.608238 271.485334 
L 409.087644 278.546285 
L 409.565916 287.617821 
L 411.001848 306.342894 
L 411.480236 311.398589 
L 411.954655 314.01345 
L 412.432984 315.733675 
L 412.913184 315.573678 
L 413.392632 313.243155 
L 413.869803 309.769829 
L 414.345755 302.591151 
L 414.827428 288.066466 
L 415.303519 254.884623 
L 415.782366 240.578075 
L 418.654004 240.578075 
L 419.131284 240.766988 
L 419.609632 254.610854 
L 421.999471 355.339581 
L 427.740631 355.339581 
L 428.218551 337.928893 
L 428.699668 325.155988 
L 431.088785 319.64877 
L 431.565823 318.660491 
L 433.481403 316.044366 
L 434.915931 314.917655 
L 435.873229 314.463481 
L 436.830233 314.263529 
L 437.787236 314.299189 
L 438.744258 314.55185 
L 440.179809 315.342559 
L 440.654516 315.633737 
L 443.046792 317.951192 
L 443.525444 318.418827 
L 444.962608 320.287881 
L 445.438749 320.833274 
L 446.873361 322.928954 
L 447.354464 323.520203 
L 448.78863 325.725533 
L 449.267407 326.330734 
L 450.701096 328.528734 
L 451.178276 329.115985 
L 452.134239 330.452605 
L 453.093925 331.727074 
L 453.569525 332.420276 
L 455.006689 334.015122 
L 455.482705 334.588681 
L 457.878213 336.515812 
L 458.832629 337.026567 
L 459.789047 337.344901 
L 460.744072 337.452204 
L 461.701551 337.329865 
L 462.660858 336.959276 
L 464.091986 335.830591 
L 464.572559 335.398904 
L 466.483958 332.62221 
L 468.39726 328.480317 
L 468.877277 327.025335 
L 469.354589 326.052674 
L 472.703636 326.052674 
L 472.703636 326.052674 
" clip-path="url(#pdcf6c9745d)" style="fill: none; stroke-dasharray: 9.6,2.4,1.5,2.4; stroke-dashoffset: 0; stroke: #ff7f0e; stroke-width: 1.5"/>
   </g>
   <g id="line2d_53">
    <path d="M 42.28 355.339581 
L 493.2 355.339581 
" clip-path="url(#pdcf6c9745d)" style="fill: none; stroke-dasharray: 3.7,1.6; stroke-dashoffset: 0; stroke: #ff0000"/>
   </g>
   <g id="line2d_54">
    <path d="M 42.28 240.578075 
L 493.2 240.578075 
" clip-path="url(#pdcf6c9745d)" style="fill: none; stroke-dasharray: 3.7,1.6; stroke-dashoffset: 0; stroke: #ff0000"/>
   </g>
   <g id="patch_9">
    <path d="M 42.28 361.077656 
L 42.28 234.84 
" style="fill: none; stroke: #000000; stroke-width: 0.8; stroke-linejoin: miter; stroke-linecap: square"/>
   </g>
   <g id="patch_10">
    <path d="M 493.2 361.077656 
L 493.2 234.84 
" style="fill: none; stroke: #000000; stroke-width: 0.8; stroke-linejoin: miter; stroke-linecap: square"/>
   </g>
   <g id="patch_11">
    <path d="M 42.28 361.077656 
L 493.2 361.077656 
" style="fill: none; stroke: #000000; stroke-width: 0.8; stroke-linejoin: miter; stroke-linecap: square"/>
   </g>
   <g id="patch_12">
    <path d="M 42.28 234.84 
L 493.2 234.84 
" style="fill: none; stroke: #000000; stroke-width: 0.8; stroke-linejoin: miter; stroke-linecap: square"/>
   </g>
   <g id="text_28">
    <!-- $a_x$ $\left(\mathrm{m/s^2}\right)$ -->
    <g transform="translate(240.92 228.84) scale(0.12 -0.12)">
     <defs>
      <path id="DejaVuSans-Oblique-44" d="M 3438 1997 
L 3047 0 
L 2472 0 
L 2578 531 
Q 2325 219 2001 64 
Q 1678 -91 1281 -91 
Q 834 -91 548 182 
Q 263 456 263 884 
Q 263 1497 752 1853 
Q 1241 2209 2100 2209 
L 2900 2209 
L 2931 2363 
Q 2938 2388 2941 2417 
Q 2944 2447 2944 2509 
Q 2944 2788 2717 2942 
Q 2491 3097 2081 3097 
Q 1800 3097 1504 3025 
Q 1209 2953 897 2809 
L 997 3341 
Q 1322 3463 1633 3523 
Q 1944 3584 2234 3584 
Q 2853 3584 3176 3315 
Q 3500 3047 3500 2534 
Q 3500 2431 3484 2292 
Q 3469 2153 3438 1997 
z
M 2816 1759 
L 2241 1759 
Q 1534 1759 1195 1570 
Q 856 1381 856 984 
Q 856 709 1029 553 
Q 1203 397 1509 397 
Q 1978 397 2328 733 
Q 2678 1069 2791 1631 
L 2816 1759 
z
" transform="scale(0.015625)"/>
      <path id="DejaVuSans-Oblique-5b" d="M 3841 3500 
L 2234 1784 
L 3219 0 
L 2559 0 
L 1819 1388 
L 531 0 
L -166 0 
L 1556 1844 
L 641 3500 
L 1300 3500 
L 1972 2234 
L 3144 3500 
L 3841 3500 
z
" transform="scale(0.015625)"/>
      <path id="STIXSizeOneSym-Regular-4" d="M 2445 -858 
L 2445 -1050 
Q 1728 -371 1309 630 
Q 890 1632 890 2886 
Q 890 4122 1309 5136 
Q 1728 6150 2445 6822 
L 2445 6630 
Q 1408 5363 1408 2886 
Q 1408 410 2445 -858 
z
" transform="scale(0.015625)"/>
      <path id="DejaVuSans-50" d="M 3328 2828 
Q 3544 3216 3844 3400 
Q 4144 3584 4550 3584 
Q 5097 3584 5394 3201 
Q 5691 2819 5691 2113 
L 5691 0 
L 5113 0 
L 5113 2094 
Q 5113 2597 4934 2840 
Q 4756 3084 4391 3084 
Q 3944 3084 3684 2787 
Q 3425 2491 3425 1978 
L 3425 0 
L 2847 0 
L 2847 2094 
Q 2847 2600 2669 2842 
Q 2491 3084 2119 3084 
Q 1678 3084 1418 2786 
Q 1159 2488 1159 1978 
L 1159 0 
L 581 0 
L 581 3500 
L 1159 3500 
L 1159 2956 
Q 1356 3278 1631 3431 
Q 1906 3584 2284 3584 
Q 2666 3584 2933 3390 
Q 3200 3197 3328 2828 
z
" transform="scale(0.015625)"/>
      <path id="DejaVuSans-12" d="M 1625 4666 
L 2156 4666 
L 531 -594 
L 0 -594 
L 1625 4666 
z
" transform="scale(0.015625)"/>
      <path id="STIXSizeOneSym-Regular-5" d="M 550 6630 
L 550 6822 
Q 1267 6144 1686 5142 
Q 2106 4141 2106 2886 
Q 2106 1651 1686 636 
Q 1267 -378 550 -1050 
L 550 -858 
Q 1587 410 1587 2886 
Q 1587 5363 550 6630 
z
" transform="scale(0.015625)"/>
     </defs>
     <use xlink:href="#DejaVuSans-Oblique-44" transform="translate(0 0.746875)"/>
     <use xlink:href="#DejaVuSans-Oblique-5b" transform="translate(61.279297 -14.253076) scale(0.7)"/>
     <use xlink:href="#DejaVuSans-3" transform="translate(105.439453 0.746875)"/>
     <use xlink:href="#STIXSizeOneSym-Regular-4" transform="translate(137.226562 5.1375) scale(0.833613)"/>
     <use xlink:href="#DejaVuSans-50" transform="translate(176.2388 0.746875)"/>
     <use xlink:href="#DejaVuSans-12" transform="translate(273.650909 0.746875)"/>
     <use xlink:href="#DejaVuSans-56" transform="translate(307.342316 0.746875)"/>
     <use xlink:href="#DejaVuSans-15" transform="translate(360.398956 42.046875) scale(0.7)"/>
     <use xlink:href="#STIXSizeOneSym-Regular-5" transform="translate(407.669464 5.1375) scale(0.833613)"/>
    </g>
   </g>
   <g id="legend_2">
    <g id="patch_13">
     <path d="M 424.9 272.841562 
L 486.2 272.841562 
Q 488.2 272.841562 488.2 270.841562 
L 488.2 241.84 
Q 488.2 239.84 486.2 239.84 
L 424.9 239.84 
Q 422.9 239.84 422.9 241.84 
L 422.9 270.841562 
Q 422.9 272.841562 424.9 272.841562 
z
" style="fill: #ffffff; opacity: 0.8; stroke: #cccccc; stroke-linejoin: miter"/>
    </g>
    <g id="line2d_55">
     <path d="M 426.9 247.938437 
L 436.9 247.938437 
L 446.9 247.938437 
" style="fill: none; stroke: #1f77b4; stroke-width: 1.5; stroke-linecap: square"/>
    </g>
    <g id="text_29">
     <!-- $a_{x,cmd}$ -->
     <g transform="translate(454.9 251.438437) scale(0.1 -0.1)">
      <defs>
       <path id="DejaVuSans-f" d="M 750 794 
L 1409 794 
L 1409 256 
L 897 -744 
L 494 -744 
L 750 256 
L 750 794 
z
" transform="scale(0.015625)"/>
      </defs>
      <use xlink:href="#DejaVuSans-Oblique-44"/>
      <use xlink:href="#DejaVuSans-Oblique-5b" transform="translate(61.279297 -14.999951) scale(0.7)"/>
      <use xlink:href="#DejaVuSans-f" transform="translate(102.705078 -14.999951) scale(0.7)"/>
      <use xlink:href="#DejaVuSans-Oblique-46" transform="translate(138.59375 -14.999951) scale(0.7)"/>
      <use xlink:href="#DejaVuSans-Oblique-50" transform="translate(177.080078 -14.999951) scale(0.7)"/>
      <use xlink:href="#DejaVuSans-Oblique-47" transform="translate(245.268555 -14.999951) scale(0.7)"/>
     </g>
    </g>
    <g id="line2d_56">
     <path d="M 426.9 262.939219 
L 436.9 262.939219 
L 446.9 262.939219 
" style="fill: none; stroke-dasharray: 9.6,2.4,1.5,2.4; stroke-dashoffset: 0; stroke: #ff7f0e; stroke-width: 1.5"/>
    </g>
    <g id="text_30">
     <!-- $a_{x,ref}$ -->
     <g transform="translate(454.9 266.439219) scale(0.1 -0.1)">
      <use xlink:href="#DejaVuSans-Oblique-44"/>
      <use xlink:href="#DejaVuSans-Oblique-5b" transform="translate(61.279297 -14.999951) scale(0.7)"/>
      <use xlink:href="#DejaVuSans-f" transform="translate(102.705078 -14.999951) scale(0.7)"/>
      <use xlink:href="#DejaVuSans-Oblique-55" transform="translate(138.59375 -14.999951) scale(0.7)"/>
      <use xlink:href="#DejaVuSans-Oblique-48" transform="translate(167.373047 -14.999951) scale(0.7)"/>
      <use xlink:href="#DejaVuSans-Oblique-49" transform="translate(210.439453 -14.999951) scale(0.7)"/>
     </g>
    </g>
   </g>
  </g>
  <g id="text_31">
   <!-- QCar2 Inputs -->
   <g transform="translate(212.5575 17.181188) scale(0.12 -0.12)">
    <defs>
     <path id="DejaVuSans-34" d="M 2522 4238 
Q 1834 4238 1429 3725 
Q 1025 3213 1025 2328 
Q 1025 1447 1429 934 
Q 1834 422 2522 422 
Q 3209 422 3611 934 
Q 4013 1447 4013 2328 
Q 4013 3213 3611 3725 
Q 3209 4238 2522 4238 
z
M 3406 84 
L 4238 -825 
L 3475 -825 
L 2784 -78 
Q 2681 -84 2626 -87 
Q 2572 -91 2522 -91 
Q 1538 -91 948 567 
Q 359 1225 359 2328 
Q 359 3434 948 4092 
Q 1538 4750 2522 4750 
Q 3503 4750 4090 4092 
Q 4678 3434 4678 2328 
Q 4678 1516 4351 937 
Q 4025 359 3406 84 
z
" transform="scale(0.015625)"/>
     <path id="DejaVuSans-26" d="M 4122 4306 
L 4122 3641 
Q 3803 3938 3442 4084 
Q 3081 4231 2675 4231 
Q 1875 4231 1450 3742 
Q 1025 3253 1025 2328 
Q 1025 1406 1450 917 
Q 1875 428 2675 428 
Q 3081 428 3442 575 
Q 3803 722 4122 1019 
L 4122 359 
Q 3791 134 3420 21 
Q 3050 -91 2638 -91 
Q 1578 -91 968 557 
Q 359 1206 359 2328 
Q 359 3453 968 4101 
Q 1578 4750 2638 4750 
Q 3056 4750 3426 4639 
Q 3797 4528 4122 4306 
z
" transform="scale(0.015625)"/>
     <path id="DejaVuSans-2c" d="M 628 4666 
L 1259 4666 
L 1259 0 
L 628 0 
L 628 4666 
z
" transform="scale(0.015625)"/>
     <path id="DejaVuSans-51" d="M 3513 2113 
L 3513 0 
L 2938 0 
L 2938 2094 
Q 2938 2591 2744 2837 
Q 2550 3084 2163 3084 
Q 1697 3084 1428 2787 
Q 1159 2491 1159 1978 
L 1159 0 
L 581 0 
L 581 3500 
L 1159 3500 
L 1159 2956 
Q 1366 3272 1645 3428 
Q 1925 3584 2291 3584 
Q 2894 3584 3203 3211 
Q 3513 2838 3513 2113 
z
" transform="scale(0.015625)"/>
     <path id="DejaVuSans-53" d="M 1159 525 
L 1159 -1331 
L 581 -1331 
L 581 3500 
L 1159 3500 
L 1159 2969 
Q 1341 3281 1617 3432 
Q 1894 3584 2278 3584 
Q 2916 3584 3314 3078 
Q 3713 2572 3713 1747 
Q 3713 922 3314 415 
Q 2916 -91 2278 -91 
Q 1894 -91 1617 61 
Q 1341 213 1159 525 
z
M 3116 1747 
Q 3116 2381 2855 2742 
Q 2594 3103 2138 3103 
Q 1681 3103 1420 2742 
Q 1159 2381 1159 1747 
Q 1159 1113 1420 752 
Q 1681 391 2138 391 
Q 2594 391 2855 752 
Q 3116 1113 3116 1747 
z
" transform="scale(0.015625)"/>
     <path id="DejaVuSans-58" d="M 544 1381 
L 544 3500 
L 1119 3500 
L 1119 1403 
Q 1119 906 1312 657 
Q 1506 409 1894 409 
Q 2359 409 2629 706 
Q 2900 1003 2900 1516 
L 2900 3500 
L 3475 3500 
L 3475 0 
L 2900 0 
L 2900 538 
Q 2691 219 2414 64 
Q 2138 -91 1772 -91 
Q 1169 -91 856 284 
Q 544 659 544 1381 
z
M 1991 3584 
L 1991 3584 
z
" transform="scale(0.015625)"/>
    </defs>
    <use xlink:href="#DejaVuSans-34"/>
    <use xlink:href="#DejaVuSans-26" transform="translate(78.71875 0)"/>
    <use xlink:href="#DejaVuSans-44" transform="translate(148.546875 0)"/>
    <use xlink:href="#DejaVuSans-55" transform="translate(209.828125 0)"/>
    <use xlink:href="#DejaVuSans-15" transform="translate(250.9375 0)"/>
    <use xlink:href="#DejaVuSans-3" transform="translate(314.5625 0)"/>
    <use xlink:href="#DejaVuSans-2c" transform="translate(346.34375 0)"/>
    <use xlink:href="#DejaVuSans-51" transform="translate(375.84375 0)"/>
    <use xlink:href="#DejaVuSans-53" transform="translate(439.21875 0)"/>
    <use xlink:href="#DejaVuSans-58" transform="translate(502.703125 0)"/>
    <use xlink:href="#DejaVuSans-57" transform="translate(566.078125 0)"/>
    <use xlink:href="#DejaVuSans-56" transform="translate(605.28125 0)"/>
   </g>
  </g>
 </g>
 <defs>
  <clipPath id="p5cb6135f6d">
   <rect x="42.28" y="48.96" width="450.92" height="126.237656"/>
  </clipPath>
  <clipPath id="pdcf6c9745d">
   <rect x="42.28" y="234.84" width="450.92" height="126.237656"/>
  </clipPath>
 </defs>
</svg>
