<?xml version="1.0" encoding="utf-8" standalone="no"?>
<!DOCTYPE svg PUBLIC "-//W3C//DTD SVG 1.1//EN"
  "http://www.w3.org/Graphics/SVG/1.1/DTD/svg11.dtd">
<svg xmlns:xlink="http://www.w3.org/1999/xlink" width="504pt" height="403.2pt" viewBox="0 0 504 403.2" xmlns="http://www.w3.org/2000/svg" version="1.1">
 <metadata>
  <rdf:RDF xmlns:dc="http://purl.org/dc/elements/1.1/" xmlns:cc="http://creativecommons.org/ns#" xmlns:rdf="http://www.w3.org/1999/02/22-rdf-syntax-ns#">
   <cc:Work>
    <dc:type rdf:resource="http://purl.org/dc/dcmitype/StillImage"/>
    <dc:date>2026-07-10T12:41:59.448416</dc:date>
    <dc:format>image/svg+xml</dc:format>
    <dc:creator>
     <cc:Agent>
      <dc:title>Matplotlib v3.11.0, https://matplotlib.org/</dc:title>
     </cc:Agent>
    </dc:creator>
   </cc:Work>
  </rdf:RDF>
 </metadata>
 <defs>
  <style type="text/css">*{stroke-linejoin: round; stroke-linecap: butt}</style>
 </defs>
 <g id="figure_1">
  <g id="patch_1">
   <path d="M 0 403.2 
L 504 403.2 
L 504 0 
L 0 0 
z
" style="fill: #ffffff"/>
  </g>
  <g id="axes_1">
   <g id="patch_2">
    <path d="M 42.28 175.197656 
L 493.2 175.197656 
L 493.2 48.96 
L 42.28 48.96 
z
" style="fill: #ffffff"/>
   </g>
   <g id="matplotlib.axis_1">
    <g id="xtick_1">
     <g id="line2d_1">
      <path d="M 62.410375 175.197656 
L 62.410375 48.96 
" clip-path="url(#p0236c6495d)" style="fill: none; stroke: #b0b0b0; stroke-width: 0.8; stroke-linecap: square"/>
     </g>
     <g id="line2d_2">
      <defs>
       <path id="m70e7188ac3" d="M 0 0 
L 0 3.5 
" style="stroke: #000000; stroke-width: 0.8"/>
      </defs>
      <g>
       <use xlink:href="#m70e7188ac3" x="62.410375" y="175.197656" style="stroke: #000000; stroke-width: 0.8"/>
      </g>
     </g>
     <g id="text_1">
      <!-- 0 -->
      <g transform="translate(59.229125 189.795312) scale(0.1 -0.1)">
       <defs>
        <path id="DejaVuSans-13" d="M 2034 4250 
Q 1547 4250 1301 3770 
Q 1056 3291 1056 2328 
Q 1056 1369 1301 889 
Q 1547 409 2034 409 
Q 2525 409 2770 889 
Q 3016 1369 3016 2328 
Q 3016 3291 2770 3770 
Q 2525 4250 2034 4250 
z
M 2034 4750 
Q 2819 4750 3233 4129 
Q 3647 3509 3647 2328 
Q 3647 1150 3233 529 
Q 2819 -91 2034 -91 
Q 1250 -91 836 529 
Q 422 1150 422 2328 
Q 422 3509 836 4129 
Q 1250 4750 2034 4750 
z
" transform="scale(0.015625)"/>
       </defs>
       <use xlink:href="#DejaVuSans-13"/>
      </g>
     </g>
    </g>
    <g id="xtick_2">
     <g id="line2d_3">
      <path d="M 130.742775 175.197656 
L 130.742775 48.96 
" clip-path="url(#p0236c6495d)" style="fill: none; stroke: #b0b0b0; stroke-width: 0.8; stroke-linecap: square"/>
     </g>
     <g id="line2d_4">
      <g>
       <use xlink:href="#m70e7188ac3" x="130.742775" y="175.197656" style="stroke: #000000; stroke-width: 0.8"/>
      </g>
     </g>
     <g id="text_2">
      <!-- 10 -->
      <g transform="translate(124.380275 189.795312) scale(0.1 -0.1)">
       <defs>
        <path id="DejaVuSans-14" d="M 794 531 
L 1825 531 
L 1825 4091 
L 703 3866 
L 703 4441 
L 1819 4666 
L 2450 4666 
L 2450 531 
L 3481 531 
L 3481 0 
L 794 0 
L 794 531 
z
" transform="scale(0.015625)"/>
       </defs>
       <use xlink:href="#DejaVuSans-14"/>
       <use xlink:href="#DejaVuSans-13" transform="translate(63.625 0)"/>
      </g>
     </g>
    </g>
    <g id="xtick_3">
     <g id="line2d_5">
      <path d="M 199.075175 175.197656 
L 199.075175 48.96 
" clip-path="url(#p0236c6495d)" style="fill: none; stroke: #b0b0b0; stroke-width: 0.8; stroke-linecap: square"/>
     </g>
     <g id="line2d_6">
      <g>
       <use xlink:href="#m70e7188ac3" x="199.075175" y="175.197656" style="stroke: #000000; stroke-width: 0.8"/>
      </g>
     </g>
     <g id="text_3">
      <!-- 20 -->
      <g transform="translate(192.712675 189.795312) scale(0.1 -0.1)">
       <defs>
        <path id="DejaVuSans-15" d="M 1228 531 
L 3431 531 
L 3431 0 
L 469 0 
L 469 531 
Q 828 903 1448 1529 
Q 2069 2156 2228 2338 
Q 2531 2678 2651 2914 
Q 2772 3150 2772 3378 
Q 2772 3750 2511 3984 
Q 2250 4219 1831 4219 
Q 1534 4219 1204 4116 
Q 875 4013 500 3803 
L 500 4441 
Q 881 4594 1212 4672 
Q 1544 4750 1819 4750 
Q 2544 4750 2975 4387 
Q 3406 4025 3406 3419 
Q 3406 3131 3298 2873 
Q 3191 2616 2906 2266 
Q 2828 2175 2409 1742 
Q 1991 1309 1228 531 
z
" transform="scale(0.015625)"/>
       </defs>
       <use xlink:href="#DejaVuSans-15"/>
       <use xlink:href="#DejaVuSans-13" transform="translate(63.625 0)"/>
      </g>
     </g>
    </g>
    <g id="xtick_4">
     <g id="line2d_7">
      <path d="M 267.407574 175.197656 
L 267.407574 48.96 
" clip-path="url(#p0236c6495d)" style="fill: none; stroke: #b0b0b0; stroke-width: 0.8; stroke-linecap: square"/>
     </g>
     <g id="line2d_8">
      <g>
       <use xlink:href="#m70e7188ac3" x="267.407574" y="175.197656" style="stroke: #000000; stroke-width: 0.8"/>
      </g>
     </g>
     <g id="text_4">
      <!-- 30 -->
      <g transform="translate(261.045074 189.795312) scale(0.1 -0.1)">
       <defs>
        <path id="DejaVuSans-16" d="M 2597 2516 
Q 3050 2419 3304 2112 
Q 3559 1806 3559 1356 
Q 3559 666 3084 287 
Q 2609 -91 1734 -91 
Q 1441 -91 1130 -33 
Q 819 25 488 141 
L 488 750 
Q 750 597 1062 519 
Q 1375 441 1716 441 
Q 2309 441 2620 675 
Q 2931 909 2931 1356 
Q 2931 1769 2642 2001 
Q 2353 2234 1838 2234 
L 1294 2234 
L 1294 2753 
L 1863 2753 
Q 2328 2753 2575 2939 
Q 2822 3125 2822 3475 
Q 2822 3834 2567 4026 
Q 2313 4219 1838 4219 
Q 1578 4219 1281 4162 
Q 984 4106 628 3988 
L 628 4550 
Q 988 4650 1302 4700 
Q 1616 4750 1894 4750 
Q 2613 4750 3031 4423 
Q 3450 4097 3450 3541 
Q 3450 3153 3228 2886 
Q 3006 2619 2597 2516 
z
" transform="scale(0.015625)"/>
       </defs>
       <use xlink:href="#DejaVuSans-16"/>
       <use xlink:href="#DejaVuSans-13" transform="translate(63.625 0)"/>
      </g>
     </g>
    </g>
    <g id="xtick_5">
     <g id="line2d_9">
      <path d="M 335.739974 175.197656 
L 335.739974 48.96 
" clip-path="url(#p0236c6495d)" style="fill: none; stroke: #b0b0b0; stroke-width: 0.8; stroke-linecap: square"/>
     </g>
     <g id="line2d_10">
      <g>
       <use xlink:href="#m70e7188ac3" x="335.739974" y="175.197656" style="stroke: #000000; stroke-width: 0.8"/>
      </g>
     </g>
     <g id="text_5">
      <!-- 40 -->
      <g transform="translate(329.377474 189.795312) scale(0.1 -0.1)">
       <defs>
        <path id="DejaVuSans-17" d="M 2419 4116 
L 825 1625 
L 2419 1625 
L 2419 4116 
z
M 2253 4666 
L 3047 4666 
L 3047 1625 
L 3713 1625 
L 3713 1100 
L 3047 1100 
L 3047 0 
L 2419 0 
L 2419 1100 
L 313 1100 
L 313 1709 
L 2253 4666 
z
" transform="scale(0.015625)"/>
       </defs>
       <use xlink:href="#DejaVuSans-17"/>
       <use xlink:href="#DejaVuSans-13" transform="translate(63.625 0)"/>
      </g>
     </g>
    </g>
    <g id="xtick_6">
     <g id="line2d_11">
      <path d="M 404.072373 175.197656 
L 404.072373 48.96 
" clip-path="url(#p0236c6495d)" style="fill: none; stroke: #b0b0b0; stroke-width: 0.8; stroke-linecap: square"/>
     </g>
     <g id="line2d_12">
      <g>
       <use xlink:href="#m70e7188ac3" x="404.072373" y="175.197656" style="stroke: #000000; stroke-width: 0.8"/>
      </g>
     </g>
     <g id="text_6">
      <!-- 50 -->
      <g transform="translate(397.709873 189.795312) scale(0.1 -0.1)">
       <defs>
        <path id="DejaVuSans-18" d="M 691 4666 
L 3169 4666 
L 3169 4134 
L 1269 4134 
L 1269 2991 
Q 1406 3038 1543 3061 
Q 1681 3084 1819 3084 
Q 2600 3084 3056 2656 
Q 3513 2228 3513 1497 
Q 3513 744 3044 326 
Q 2575 -91 1722 -91 
Q 1428 -91 1123 -41 
Q 819 9 494 109 
L 494 744 
Q 775 591 1075 516 
Q 1375 441 1709 441 
Q 2250 441 2565 725 
Q 2881 1009 2881 1497 
Q 2881 1984 2565 2268 
Q 2250 2553 1709 2553 
Q 1456 2553 1204 2497 
Q 953 2441 691 2322 
L 691 4666 
z
" transform="scale(0.015625)"/>
       </defs>
       <use xlink:href="#DejaVuSans-18"/>
       <use xlink:href="#DejaVuSans-13" transform="translate(63.625 0)"/>
      </g>
     </g>
    </g>
    <g id="xtick_7">
     <g id="line2d_13">
      <path d="M 472.404773 175.197656 
L 472.404773 48.96 
" clip-path="url(#p0236c6495d)" style="fill: none; stroke: #b0b0b0; stroke-width: 0.8; stroke-linecap: square"/>
     </g>
     <g id="line2d_14">
      <g>
       <use xlink:href="#m70e7188ac3" x="472.404773" y="175.197656" style="stroke: #000000; stroke-width: 0.8"/>
      </g>
     </g>
     <g id="text_7">
      <!-- 60 -->
      <g transform="translate(466.042273 189.795312) scale(0.1 -0.1)">
       <defs>
        <path id="DejaVuSans-19" d="M 2113 2584 
Q 1688 2584 1439 2293 
Q 1191 2003 1191 1497 
Q 1191 994 1439 701 
Q 1688 409 2113 409 
Q 2538 409 2786 701 
Q 3034 994 3034 1497 
Q 3034 2003 2786 2293 
Q 2538 2584 2113 2584 
z
M 3366 4563 
L 3366 3988 
Q 3128 4100 2886 4159 
Q 2644 4219 2406 4219 
Q 1781 4219 1451 3797 
Q 1122 3375 1075 2522 
Q 1259 2794 1537 2939 
Q 1816 3084 2150 3084 
Q 2853 3084 3261 2657 
Q 3669 2231 3669 1497 
Q 3669 778 3244 343 
Q 2819 -91 2113 -91 
Q 1303 -91 875 529 
Q 447 1150 447 2328 
Q 447 3434 972 4092 
Q 1497 4750 2381 4750 
Q 2619 4750 2861 4703 
Q 3103 4656 3366 4563 
z
" transform="scale(0.015625)"/>
       </defs>
       <use xlink:href="#DejaVuSans-19"/>
       <use xlink:href="#DejaVuSans-13" transform="translate(63.625 0)"/>
      </g>
     </g>
    </g>
    <g id="text_8">
     <!-- t (s) -->
     <g transform="translate(257.684531 203.795312) scale(0.1 -0.1)">
      <defs>
       <path id="DejaVuSans-57" d="M 1172 4494 
L 1172 3500 
L 2356 3500 
L 2356 3053 
L 1172 3053 
L 1172 1153 
Q 1172 725 1289 603 
Q 1406 481 1766 481 
L 2356 481 
L 2356 0 
L 1766 0 
Q 1100 0 847 248 
Q 594 497 594 1153 
L 594 3053 
L 172 3053 
L 172 3500 
L 594 3500 
L 594 4494 
L 1172 4494 
z
" transform="scale(0.015625)"/>
       <path id="DejaVuSans-3" transform="scale(0.015625)"/>
       <path id="DejaVuSans-b" d="M 1984 4856 
Q 1566 4138 1362 3434 
Q 1159 2731 1159 2009 
Q 1159 1288 1364 580 
Q 1569 -128 1984 -844 
L 1484 -844 
Q 1016 -109 783 600 
Q 550 1309 550 2009 
Q 550 2706 781 3412 
Q 1013 4119 1484 4856 
L 1984 4856 
z
" transform="scale(0.015625)"/>
       <path id="DejaVuSans-56" d="M 2834 3397 
L 2834 2853 
Q 2591 2978 2328 3040 
Q 2066 3103 1784 3103 
Q 1356 3103 1142 2972 
Q 928 2841 928 2578 
Q 928 2378 1081 2264 
Q 1234 2150 1697 2047 
L 1894 2003 
Q 2506 1872 2764 1633 
Q 3022 1394 3022 966 
Q 3022 478 2636 193 
Q 2250 -91 1575 -91 
Q 1294 -91 989 -36 
Q 684 19 347 128 
L 347 722 
Q 666 556 975 473 
Q 1284 391 1588 391 
Q 1994 391 2212 530 
Q 2431 669 2431 922 
Q 2431 1156 2273 1281 
Q 2116 1406 1581 1522 
L 1381 1569 
Q 847 1681 609 1914 
Q 372 2147 372 2553 
Q 372 3047 722 3315 
Q 1072 3584 1716 3584 
Q 2034 3584 2315 3537 
Q 2597 3491 2834 3397 
z
" transform="scale(0.015625)"/>
       <path id="DejaVuSans-c" d="M 513 4856 
L 1013 4856 
Q 1481 4119 1714 3412 
Q 1947 2706 1947 2009 
Q 1947 1309 1714 600 
Q 1481 -109 1013 -844 
L 513 -844 
Q 928 -128 1133 580 
Q 1338 1288 1338 2009 
Q 1338 2731 1133 3434 
Q 928 4138 513 4856 
z
" transform="scale(0.015625)"/>
      </defs>
      <use xlink:href="#DejaVuSans-57"/>
      <use xlink:href="#DejaVuSans-3" transform="translate(39.203125 0)"/>
      <use xlink:href="#DejaVuSans-b" transform="translate(70.984375 0)"/>
      <use xlink:href="#DejaVuSans-56" transform="translate(110 0)"/>
      <use xlink:href="#DejaVuSans-c" transform="translate(162.09375 0)"/>
     </g>
    </g>
   </g>
   <g id="matplotlib.axis_2">
    <g id="ytick_1">
     <g id="line2d_15">
      <path d="M 42.28 145.452181 
L 493.2 145.452181 
" clip-path="url(#p0236c6495d)" style="fill: none; stroke: #b0b0b0; stroke-width: 0.8; stroke-linecap: square"/>
     </g>
     <g id="line2d_16">
      <defs>
       <path id="m44febe6164" d="M 0 0 
L -3.5 0 
" style="stroke: #000000; stroke-width: 0.8"/>
      </defs>
      <g>
       <use xlink:href="#m44febe6164" x="42.28" y="145.452181" style="stroke: #000000; stroke-width: 0.8"/>
      </g>
     </g>
     <g id="text_9">
      <!-- −0.2 -->
      <g transform="translate(10.997188 149.251009) scale(0.1 -0.1)">
       <defs>
        <path id="DejaVuSans-c9c" d="M 678 2272 
L 4684 2272 
L 4684 1741 
L 678 1741 
L 678 2272 
z
" transform="scale(0.015625)"/>
        <path id="DejaVuSans-11" d="M 684 794 
L 1344 794 
L 1344 0 
L 684 0 
L 684 794 
z
" transform="scale(0.015625)"/>
       </defs>
       <use xlink:href="#DejaVuSans-c9c"/>
       <use xlink:href="#DejaVuSans-13" transform="translate(83.796875 0)"/>
       <use xlink:href="#DejaVuSans-11" transform="translate(147.421875 0)"/>
       <use xlink:href="#DejaVuSans-15" transform="translate(179.203125 0)"/>
      </g>
     </g>
    </g>
    <g id="ytick_2">
     <g id="line2d_17">
      <path d="M 42.28 107.78295 
L 493.2 107.78295 
" clip-path="url(#p0236c6495d)" style="fill: none; stroke: #b0b0b0; stroke-width: 0.8; stroke-linecap: square"/>
     </g>
     <g id="line2d_18">
      <g>
       <use xlink:href="#m44febe6164" x="42.28" y="107.78295" style="stroke: #000000; stroke-width: 0.8"/>
      </g>
     </g>
     <g id="text_10">
      <!-- 0.0 -->
      <g transform="translate(19.376875 111.581778) scale(0.1 -0.1)">
       <use xlink:href="#DejaVuSans-13"/>
       <use xlink:href="#DejaVuSans-11" transform="translate(63.625 0)"/>
       <use xlink:href="#DejaVuSans-13" transform="translate(95.40625 0)"/>
      </g>
     </g>
    </g>
    <g id="ytick_3">
     <g id="line2d_19">
      <path d="M 42.28 70.113719 
L 493.2 70.113719 
" clip-path="url(#p0236c6495d)" style="fill: none; stroke: #b0b0b0; stroke-width: 0.8; stroke-linecap: square"/>
     </g>
     <g id="line2d_20">
      <g>
       <use xlink:href="#m44febe6164" x="42.28" y="70.113719" style="stroke: #000000; stroke-width: 0.8"/>
      </g>
     </g>
     <g id="text_11">
      <!-- 0.2 -->
      <g transform="translate(19.376875 73.912547) scale(0.1 -0.1)">
       <use xlink:href="#DejaVuSans-13"/>
       <use xlink:href="#DejaVuSans-11" transform="translate(63.625 0)"/>
       <use xlink:href="#DejaVuSans-15" transform="translate(95.40625 0)"/>
      </g>
     </g>
    </g>
   </g>
   <g id="line2d_21">
    <path d="M 62.776364 108.284803 
L 63.257092 108.236898 
L 63.733395 106.507064 
L 66.60263 106.201465 
L 67.082106 106.337254 
L 69.475062 107.864979 
L 69.952423 108.159659 
L 71.866185 108.463123 
L 72.344632 108.019287 
L 73.778636 108.344807 
L 74.257536 108.152197 
L 74.738094 108.175837 
L 75.214986 107.862188 
L 75.692817 107.870952 
L 76.172063 107.504642 
L 76.650105 107.440677 
L 77.127729 106.069514 
L 77.605917 106.360969 
L 78.084459 106.511991 
L 78.562709 107.147706 
L 79.520976 103.524186 
L 79.999309 102.422828 
L 80.474273 102.345306 
L 80.954531 101.395173 
L 81.431314 100.719549 
L 81.909921 98.412649 
L 82.866939 102.634135 
L 83.344229 105.118715 
L 83.823369 105.436784 
L 84.30276 106.941256 
L 85.257865 109.175015 
L 85.736911 109.360441 
L 86.216585 109.952942 
L 86.693439 109.974256 
L 87.173103 110.846985 
L 87.653817 111.237472 
L 88.127336 111.335805 
L 89.565201 109.986867 
L 90.041735 109.066407 
L 90.520694 107.748393 
L 90.99734 105.834498 
L 91.956197 100.734584 
L 92.434033 98.670682 
L 94.348635 87.395508 
L 94.828127 86.585845 
L 95.305126 85.204695 
L 95.781772 86.439301 
L 96.264328 83.89712 
L 96.739401 87.6852 
L 97.217468 89.850652 
L 97.695217 95.499537 
L 98.172934 96.855921 
L 98.651157 101.534134 
L 99.130607 102.063917 
L 99.608915 105.862479 
L 100.089248 105.903566 
L 100.564148 108.520515 
L 101.043239 102.375778 
L 101.523307 105.684843 
L 102.001097 107.868761 
L 102.479428 111.135331 
L 102.956932 110.571195 
L 103.43534 110.74329 
L 103.912801 108.391094 
L 104.394151 107.924555 
L 104.870504 106.053056 
L 105.3511 106.408038 
L 105.82857 103.865284 
L 106.304216 106.06352 
L 106.782995 107.499264 
L 107.263145 110.982262 
L 107.738743 110.334674 
L 108.220637 111.081587 
L 108.699216 108.039721 
L 109.176269 107.707362 
L 109.652971 104.349773 
L 110.132553 104.288788 
L 110.611413 95.437886 
L 111.088652 97.698289 
L 111.569377 98.129564 
L 112.043798 100.597549 
L 112.524098 97.503117 
L 113.00241 98.091636 
L 113.479254 95.204231 
L 113.95686 97.35679 
L 114.438388 95.785567 
L 114.9153 100.152991 
L 115.39491 94.859227 
L 115.872265 98.645634 
L 116.352149 99.671413 
L 116.829641 102.686336 
L 117.307059 100.957304 
L 117.786526 101.783233 
L 118.262635 99.032781 
L 118.740085 99.850363 
L 119.220904 97.466759 
L 119.697734 98.692516 
L 120.178252 90.88696 
L 120.653413 94.407277 
L 121.13309 96.805715 
L 121.611255 101.39751 
L 122.092708 101.331598 
L 122.570333 103.467364 
L 123.048663 101.892314 
L 123.525516 103.424932 
L 124.006082 102.049741 
L 124.481118 103.568714 
L 124.959809 95.460078 
L 125.439758 98.302303 
L 125.916005 99.089767 
L 126.394912 102.059346 
L 126.871331 99.770822 
L 127.354186 100.35751 
L 127.829757 97.320969 
L 128.30851 98.132913 
L 128.787905 96.072009 
L 129.266086 97.949228 
L 129.74281 91.981419 
L 131.177736 103.129464 
L 131.657105 103.932608 
L 132.134279 105.690834 
L 132.611663 105.377529 
L 133.09157 106.88826 
L 133.568683 106.643685 
L 134.048709 108.633871 
L 134.526969 102.894594 
L 135.00381 105.023678 
L 135.482443 105.568647 
L 135.963275 106.785353 
L 136.439842 102.323348 
L 136.919252 101.145406 
L 137.396539 97.387251 
L 137.878275 98.39632 
L 138.353264 97.435895 
L 138.832232 99.625491 
L 139.310867 97.717112 
L 140.265274 103.176088 
L 140.745256 105.533544 
L 142.18138 107.568179 
L 143.13571 109.737699 
L 143.61362 110.491384 
L 144.093795 109.275899 
L 144.571499 109.130789 
L 145.527196 107.439465 
L 146.005302 106.056176 
L 146.962826 107.563259 
L 147.440356 108.792574 
L 147.921639 108.423285 
L 148.401014 108.591365 
L 148.874916 105.479827 
L 149.353311 106.944063 
L 150.311145 109.025887 
L 150.78821 107.145803 
L 151.268952 106.59861 
L 151.747576 104.602741 
L 152.22493 104.751372 
L 152.704558 102.913057 
L 153.182047 102.992179 
L 153.659853 96.564819 
L 155.093815 104.474735 
L 155.572372 103.576615 
L 156.05219 104.258455 
L 156.532899 105.314687 
L 157.009225 107.46693 
L 157.484889 108.585418 
L 157.965446 110.091031 
L 158.444257 107.134941 
L 158.921322 111.12635 
L 159.399749 114.079271 
L 159.87914 119.160577 
L 160.357195 118.126021 
L 160.834418 118.857897 
L 161.311424 112.367052 
L 161.790378 109.286309 
L 162.270664 101.268953 
L 162.749184 98.372808 
L 163.224447 83.693589 
L 164.182795 88.382045 
L 164.660794 93.873452 
L 165.139185 94.95298 
L 165.620133 98.408123 
L 166.0962 97.951441 
L 166.5773 100.662152 
L 167.051383 100.815566 
L 167.532115 104.397593 
L 168.010943 99.607337 
L 168.488321 103.937794 
L 168.966965 105.339118 
L 169.446724 108.534111 
L 169.925066 106.419043 
L 170.402438 107.12358 
L 170.878415 103.535483 
L 171.357639 103.55714 
L 171.837164 99.257357 
L 172.313547 100.20753 
L 172.793581 81.964053 
L 173.272396 89.473784 
L 173.748839 92.856415 
L 174.226972 100.683031 
L 174.705354 96.778079 
L 175.183368 98.264931 
L 175.664035 95.096856 
L 176.140485 98.521906 
L 176.619885 98.658774 
L 177.099996 102.398776 
L 177.576476 87.384328 
L 178.054672 91.142349 
L 178.532483 92.530789 
L 179.013225 98.012132 
L 179.490279 95.097765 
L 179.966864 97.398813 
L 180.44587 91.71245 
L 180.923898 93.791395 
L 181.402136 90.216556 
L 181.880029 93.795535 
L 182.360146 84.505667 
L 182.837704 91.630771 
L 183.316249 96.661985 
L 183.796981 105.333871 
L 184.271438 105.627077 
L 184.751046 110.000228 
L 185.230556 108.488143 
L 185.708472 114.694885 
L 186.185296 110.951161 
L 186.674963 117.857446 
L 187.141187 78.645383 
L 187.622366 80.578363 
L 188.098882 83.032799 
L 188.577545 91.780717 
L 189.054247 86.488029 
L 189.533258 87.108955 
L 190.01257 85.05587 
L 190.490546 90.775564 
L 190.968534 93.907349 
L 191.447887 97.859309 
L 191.926043 98.746036 
L 192.406056 99.870833 
L 192.881107 101.978238 
L 193.362015 102.888083 
L 193.839794 106.158264 
L 194.317052 106.664413 
L 194.7948 111.176869 
L 195.27449 111.690633 
L 195.752874 117.892046 
L 196.231619 118.811416 
L 196.708451 141.884423 
L 197.187626 134.254968 
L 197.665175 128.883976 
L 198.143737 121.318009 
L 198.622923 127.785043 
L 199.102524 125.649441 
L 199.580946 125.076037 
L 200.058421 116.029289 
L 201.012747 103.2034 
L 201.4906 108.088538 
L 202.448423 104.838054 
L 202.926564 102.669657 
L 203.407151 104.807656 
L 203.884442 103.608369 
L 204.363627 106.221672 
L 204.83996 103.96179 
L 205.320588 105.613071 
L 205.796431 102.36908 
L 206.277188 118.566305 
L 207.711871 89.04608 
L 208.665871 100.626734 
L 209.146642 116.083251 
L 209.624783 115.288794 
L 210.104378 120.160308 
L 210.581386 117.668677 
L 211.059637 138.769845 
L 211.539971 133.52728 
L 212.016061 130.246202 
L 212.493235 120.536013 
L 212.970874 119.017806 
L 213.450533 113.254118 
L 213.930078 113.369551 
L 214.407684 108.936074 
L 214.884992 120.138981 
L 215.363664 119.594622 
L 215.840709 142.116236 
L 216.321003 136.195648 
L 216.798181 134.966648 
L 217.280184 125.297168 
L 217.757292 130.837296 
L 218.235356 129.481841 
L 218.711477 136.452211 
L 219.189653 133.263416 
L 219.669097 133.141864 
L 220.147493 126.340801 
L 220.624324 126.894626 
L 221.103716 120.569553 
L 222.060744 112.326703 
L 222.539571 111.001296 
L 223.016146 109.076617 
L 223.495365 107.897444 
L 224.452244 104.299484 
L 224.931005 102.551736 
L 225.407324 101.54588 
L 225.886687 99.492993 
L 226.364046 98.780154 
L 226.844897 97.647522 
L 227.322797 99.943373 
L 227.801692 97.329425 
L 228.277468 106.56988 
L 228.756646 112.220475 
L 229.234986 123.947362 
L 229.713645 125.960182 
L 230.192858 139.139917 
L 231.626335 118.096417 
L 232.105978 117.668576 
L 232.584222 116.494715 
L 233.06178 116.394332 
L 234.018789 112.566945 
L 234.495788 110.915198 
L 234.976391 106.168139 
L 235.452189 106.172626 
L 235.930884 104.977658 
L 236.410299 108.343719 
L 236.888937 106.584323 
L 237.367148 108.52446 
L 237.845263 104.502332 
L 238.325262 104.687254 
L 238.800738 100.638269 
L 239.282722 101.589682 
L 239.757747 92.853626 
L 240.714976 106.623932 
L 241.191596 116.735077 
L 241.670004 116.485974 
L 242.149978 112.583521 
L 242.627695 97.748354 
L 243.106129 89.205591 
L 243.585715 76.380601 
L 244.065101 73.076356 
L 244.542262 68.548635 
L 245.019211 74.4948 
L 246.452997 99.757521 
L 246.93176 103.835385 
L 247.409875 112.313361 
L 247.890693 113.477864 
L 248.367024 122.396926 
L 248.849554 121.962958 
L 249.326154 153.608404 
L 249.802207 148.098997 
L 250.280728 138.251551 
L 250.75975 118.864557 
L 251.23833 115.025794 
L 251.718124 105.328046 
L 252.197385 113.854562 
L 252.673318 118.862529 
L 253.150171 134.684381 
L 253.631441 136.683103 
L 254.108997 150.410353 
L 255.544202 118.171775 
L 256.023828 116.508397 
L 256.978806 115.703744 
L 257.457888 113.335976 
L 257.934949 108.932946 
L 258.414844 105.879806 
L 258.891287 95.367987 
L 259.369975 96.047726 
L 259.849418 97.338625 
L 260.326966 99.748357 
L 260.803193 99.08687 
L 261.283553 100.755266 
L 262.240092 109.837569 
L 262.716841 108.991142 
L 263.19791 106.358069 
L 263.674328 100.825889 
L 264.155082 100.727956 
L 265.111055 104.391634 
L 265.586458 105.187957 
L 266.068048 105.429758 
L 266.544088 106.256111 
L 267.021914 106.426679 
L 267.501567 107.931353 
L 267.9802 107.363145 
L 268.458345 114.726563 
L 268.937343 111.117569 
L 269.413903 108.696953 
L 269.893628 104.20036 
L 270.372184 105.554451 
L 270.848175 101.748888 
L 271.326306 101.741538 
L 271.806724 98.933283 
L 272.285079 107.557143 
L 272.765166 118.863153 
L 273.241135 156.990615 
L 273.720159 152.787444 
L 274.675841 118.882985 
L 275.156715 114.78324 
L 275.634581 119.364276 
L 276.591766 134.084147 
L 277.068701 145.915814 
L 277.546213 142.525671 
L 278.025753 89.473667 
L 278.504024 91.584177 
L 278.980232 105.514285 
L 279.461124 107.781814 
L 280.416539 107.781787 
L 280.893193 117.289488 
L 281.372224 146.309686 
L 281.853878 124.16182 
L 282.331652 107.7773 
L 282.807998 74.537583 
L 283.287377 90.614543 
L 283.766489 100.901843 
L 284.242133 107.737054 
L 285.201296 83.160112 
L 285.677991 60.927965 
L 286.154584 60.558305 
L 286.632934 73.826296 
L 287.589686 108.205377 
L 288.069316 107.720818 
L 288.546214 106.121734 
L 289.025592 105.605652 
L 289.503449 114.861608 
L 289.98191 118.995629 
L 290.45972 130.261693 
L 290.941337 129.937605 
L 291.416392 133.294874 
L 291.896081 123.515413 
L 292.373332 117.114353 
L 292.852642 100.207517 
L 293.331476 102.844064 
L 293.807871 108.461823 
L 294.287189 126.390775 
L 294.764536 132.828223 
L 295.245712 136.497861 
L 295.723431 129.488398 
L 297.1586 115.025311 
L 297.635388 113.245208 
L 298.11599 112.893049 
L 298.592086 114.005932 
L 299.069223 113.525681 
L 299.550842 117.380129 
L 300.028303 114.528235 
L 300.505298 129.23789 
L 300.985424 121.818542 
L 301.464161 104.631445 
L 301.941383 58.011488 
L 302.418508 75.518729 
L 302.8984 102.172659 
L 303.374733 107.78149 
L 303.853922 107.780389 
L 304.33353 124.36911 
L 304.810236 135.436289 
L 305.288766 155.859534 
L 305.767726 125.614586 
L 306.246135 107.490003 
L 306.725339 64.530571 
L 307.20299 86.743063 
L 307.680137 102.630515 
L 308.158089 107.743672 
L 309.596786 54.698075 
L 310.074693 60.038726 
L 310.550432 76.186529 
L 311.03006 96.909671 
L 311.507385 103.836247 
L 311.986929 106.67203 
L 312.463587 107.727529 
L 312.943586 107.310777 
L 313.421183 107.472523 
L 313.900506 97.263421 
L 314.37798 76.9827 
L 314.856863 67.923313 
L 315.813859 121.169364 
L 316.289891 169.459581 
L 317.246183 115.471553 
L 317.724712 107.784958 
L 318.202288 112.806012 
L 318.682296 95.180558 
L 319.160456 84.155475 
L 319.637944 81.085369 
L 320.596755 95.567082 
L 321.073988 133.588072 
L 321.554328 119.839215 
L 322.029682 111.044741 
L 322.507338 107.790412 
L 323.466305 107.8337 
L 323.944862 116.978371 
L 324.423336 123.048228 
L 324.90161 135.228994 
L 325.381732 138.688443 
L 325.858876 151.558456 
L 326.814416 143.761785 
L 327.292425 136.941488 
L 329.683869 111.975179 
L 330.16079 108.538545 
L 330.643526 102.577041 
L 331.120634 100.877039 
L 331.596403 100.893725 
L 332.076977 101.757258 
L 333.032988 105.426483 
L 333.511375 110.931161 
L 334.468531 116.94482 
L 334.9442 116.157819 
L 335.422613 121.701106 
L 335.901309 118.728832 
L 336.380965 116.956956 
L 336.860968 113.71905 
L 337.33586 114.285842 
L 337.814961 113.193003 
L 338.293467 114.606352 
L 338.772273 113.544482 
L 339.249678 114.537903 
L 339.727905 113.182353 
L 340.208004 117.563887 
L 340.68733 114.874774 
L 341.164266 113.037172 
L 341.641109 110.336816 
L 342.120195 110.813092 
L 342.598706 109.840668 
L 343.075726 110.881199 
L 343.555381 109.666004 
L 344.03574 110.232199 
L 344.511101 107.701349 
L 344.989559 114.006195 
L 345.469459 108.079906 
L 345.94972 104.390531 
L 346.425855 98.257315 
L 346.906885 100.351463 
L 347.381808 98.217811 
L 347.859972 112.158846 
L 348.338787 121.003673 
L 348.817653 133.265336 
L 349.294108 132.099451 
L 349.771681 138.350694 
L 350.251492 128.081502 
L 350.728733 120.821938 
L 351.207309 115.63591 
L 351.685671 116.383872 
L 352.165763 116.725838 
L 352.644761 115.103277 
L 353.123937 113.072725 
L 353.599886 109.222712 
L 354.076946 108.455114 
L 354.557867 96.436536 
L 355.036864 100.448892 
L 355.992818 106.302775 
L 356.470583 100.179171 
L 356.951024 96.733999 
L 357.425715 85.422228 
L 357.907545 88.083513 
L 358.382687 82.241526 
L 358.862743 88.238999 
L 359.34129 61.426855 
L 360.299085 83.740321 
L 360.774004 103.211289 
L 361.731347 118.693149 
L 362.210691 114.499138 
L 362.690643 114.93868 
L 363.167161 108.571734 
L 363.647894 109.712063 
L 364.124124 88.156394 
L 364.6025 92.042337 
L 365.081582 93.548533 
L 365.557955 99.21385 
L 366.034812 96.449562 
L 366.51541 97.613581 
L 366.994933 93.379741 
L 367.470083 94.213916 
L 367.950351 91.889861 
L 368.429416 93.973026 
L 368.907767 88.856021 
L 369.386233 92.321541 
L 369.861946 94.334343 
L 370.341748 98.014582 
L 370.818744 99.295399 
L 371.296852 101.684996 
L 371.775895 102.28745 
L 372.254315 103.923296 
L 372.735281 103.532388 
L 373.210222 104.136203 
L 373.689995 96.501995 
L 374.17055 97.744786 
L 374.648119 96.357047 
L 375.126631 98.166856 
L 375.604925 96.877533 
L 376.081672 98.886656 
L 376.558931 97.558807 
L 377.037354 99.490845 
L 377.515303 97.776755 
L 377.993891 99.287178 
L 378.472052 90.309876 
L 378.950466 92.681449 
L 379.432502 93.09325 
L 379.90817 96.290202 
L 380.386441 95.428333 
L 380.864607 97.139555 
L 381.342194 95.456081 
L 381.8202 96.670128 
L 382.298472 95.183388 
L 382.779886 96.624678 
L 383.257028 91.488865 
L 383.735962 94.422187 
L 384.211497 96.148992 
L 384.689439 99.834175 
L 385.168284 100.38017 
L 385.648387 102.626857 
L 386.126315 102.118682 
L 386.604073 103.597599 
L 387.083397 102.428833 
L 387.562263 103.426963 
L 388.038922 96.799668 
L 388.517971 98.697329 
L 388.995506 99.760393 
L 389.474896 102.842115 
L 389.954303 102.510191 
L 390.43174 103.949085 
L 390.908701 102.211188 
L 391.386024 102.841898 
L 391.867225 100.39497 
L 392.346052 100.7017 
L 392.821914 91.952979 
L 393.299998 93.743264 
L 393.778042 94.287672 
L 394.256918 98.253515 
L 394.736378 97.115647 
L 395.215469 99.071521 
L 395.694068 97.503797 
L 396.173235 99.70125 
L 396.648685 99.003323 
L 397.129979 101.738302 
L 397.606534 97.474449 
L 398.083996 101.561056 
L 398.561432 103.65314 
L 399.042249 107.755689 
L 399.519649 106.86797 
L 399.997613 108.82347 
L 400.475866 107.816189 
L 400.954667 109.316264 
L 401.431917 106.796049 
L 401.91176 108.415933 
L 402.391265 94.822576 
L 403.345544 99.700908 
L 403.824388 104.545267 
L 404.301812 101.959539 
L 404.782009 101.677588 
L 405.261019 99.018544 
L 405.736554 100.608459 
L 406.217424 100.833032 
L 406.696042 102.89806 
L 407.171035 100.925256 
L 408.128786 104.54987 
L 408.608238 106.047207 
L 409.565916 106.403315 
L 410.041689 107.01102 
L 411.480236 109.434748 
L 411.954655 110.753514 
L 412.432984 110.588462 
L 413.392632 110.044819 
L 413.869803 109.919186 
L 414.345755 109.301742 
L 414.827428 108.041009 
L 415.782366 106.14556 
L 416.261217 106.276868 
L 416.739851 105.294319 
L 417.217624 106.316806 
L 417.695097 106.889794 
L 418.176257 107.281601 
L 418.654004 106.720205 
L 419.609632 106.931219 
L 420.089122 107.422756 
L 420.567474 107.657055 
L 421.04544 107.65195 
L 421.524502 106.870295 
L 421.999471 107.310539 
L 422.480242 107.931651 
L 422.956757 108.225683 
L 423.43595 108.011062 
L 423.91413 107.985981 
L 424.39309 108.229952 
L 424.870209 108.613644 
L 425.350062 108.842196 
L 425.829774 108.943248 
L 426.30721 109.21771 
L 427.262082 109.00982 
L 428.218551 108.236336 
L 429.177059 107.6959 
L 429.654013 107.549832 
L 431.088785 107.799985 
L 432.046355 107.687788 
L 432.522372 107.694701 
L 433.004697 107.854925 
L 434.915931 107.712851 
L 436.351856 107.748027 
L 439.219889 107.754127 
L 466.964903 107.900478 
L 467.923147 107.601379 
L 468.877277 107.059646 
L 470.310686 106.000473 
L 471.268044 105.384158 
L 472.225029 105.124716 
L 472.703636 105.137538 
L 472.703636 105.137538 
" clip-path="url(#p0236c6495d)" style="fill: none; stroke: #1f77b4; stroke-width: 1.5; stroke-linecap: square"/>
   </g>
   <g id="patch_3">
    <path d="M 42.28 175.197656 
L 42.28 48.96 
" style="fill: none; stroke: #000000; stroke-width: 0.8; stroke-linejoin: miter; stroke-linecap: square"/>
   </g>
   <g id="patch_4">
    <path d="M 493.2 175.197656 
L 493.2 48.96 
" style="fill: none; stroke: #000000; stroke-width: 0.8; stroke-linejoin: miter; stroke-linecap: square"/>
   </g>
   <g id="patch_5">
    <path d="M 42.28 175.197656 
L 493.2 175.197656 
" style="fill: none; stroke: #000000; stroke-width: 0.8; stroke-linejoin: miter; stroke-linecap: square"/>
   </g>
   <g id="patch_6">
    <path d="M 42.28 48.96 
L 493.2 48.96 
" style="fill: none; stroke: #000000; stroke-width: 0.8; stroke-linejoin: miter; stroke-linecap: square"/>
   </g>
   <g id="text_12">
    <!-- $\delta_e$ (rad) -->
    <g transform="translate(244.76 42.96) scale(0.12 -0.12)">
     <defs>
      <path id="DejaVuSans-Oblique-348" d="M 3472 4053 
Q 3197 4272 2450 4272 
Q 1659 4272 1588 3906 
Q 1531 3619 2328 3469 
Q 2953 3353 3253 3003 
Q 3616 2581 3447 1716 
Q 3284 888 2763 400 
Q 2238 -91 1488 -91 
Q 741 -91 406 400 
Q 72 888 241 1747 
Q 363 2384 891 2900 
Q 1097 3100 1353 3213 
Q 913 3459 1000 3900 
Q 1166 4750 2544 4750 
Q 3234 4750 3566 4531 
L 3472 4053 
z
M 1753 3056 
Q 1525 2966 1306 2738 
Q 969 2384 847 1747 
Q 722 1113 919 756 
Q 1119 397 1584 397 
Q 2044 397 2381 759 
Q 2722 1122 2838 1716 
Q 2956 2338 2731 2638 
Q 2491 2959 2103 2994 
Q 1906 3013 1753 3056 
z
" transform="scale(0.015625)"/>
      <path id="DejaVuSans-Oblique-48" d="M 3078 2063 
Q 3088 2113 3092 2166 
Q 3097 2219 3097 2272 
Q 3097 2653 2873 2875 
Q 2650 3097 2266 3097 
Q 1838 3097 1509 2826 
Q 1181 2556 1013 2059 
L 3078 2063 
z
M 3578 1613 
L 903 1613 
Q 884 1494 878 1425 
Q 872 1356 872 1306 
Q 872 872 1139 634 
Q 1406 397 1894 397 
Q 2269 397 2603 481 
Q 2938 566 3225 728 
L 3116 159 
Q 2806 34 2476 -28 
Q 2147 -91 1806 -91 
Q 1078 -91 686 257 
Q 294 606 294 1247 
Q 294 1794 489 2264 
Q 684 2734 1063 3103 
Q 1306 3334 1642 3459 
Q 1978 3584 2356 3584 
Q 2950 3584 3301 3228 
Q 3653 2872 3653 2272 
Q 3653 2128 3634 1964 
Q 3616 1800 3578 1613 
z
" transform="scale(0.015625)"/>
      <path id="DejaVuSans-55" d="M 2631 2963 
Q 2534 3019 2420 3045 
Q 2306 3072 2169 3072 
Q 1681 3072 1420 2755 
Q 1159 2438 1159 1844 
L 1159 0 
L 581 0 
L 581 3500 
L 1159 3500 
L 1159 2956 
Q 1341 3275 1631 3429 
Q 1922 3584 2338 3584 
Q 2397 3584 2469 3576 
Q 2541 3569 2628 3553 
L 2631 2963 
z
" transform="scale(0.015625)"/>
      <path id="DejaVuSans-44" d="M 2194 1759 
Q 1497 1759 1228 1600 
Q 959 1441 959 1056 
Q 959 750 1161 570 
Q 1363 391 1709 391 
Q 2188 391 2477 730 
Q 2766 1069 2766 1631 
L 2766 1759 
L 2194 1759 
z
M 3341 1997 
L 3341 0 
L 2766 0 
L 2766 531 
Q 2569 213 2275 61 
Q 1981 -91 1556 -91 
Q 1019 -91 701 211 
Q 384 513 384 1019 
Q 384 1609 779 1909 
Q 1175 2209 1959 2209 
L 2766 2209 
L 2766 2266 
Q 2766 2663 2505 2880 
Q 2244 3097 1772 3097 
Q 1472 3097 1187 3025 
Q 903 2953 641 2809 
L 641 3341 
Q 956 3463 1253 3523 
Q 1550 3584 1831 3584 
Q 2591 3584 2966 3190 
Q 3341 2797 3341 1997 
z
" transform="scale(0.015625)"/>
      <path id="DejaVuSans-47" d="M 2906 2969 
L 2906 4863 
L 3481 4863 
L 3481 0 
L 2906 0 
L 2906 525 
Q 2725 213 2448 61 
Q 2172 -91 1784 -91 
Q 1150 -91 751 415 
Q 353 922 353 1747 
Q 353 2572 751 3078 
Q 1150 3584 1784 3584 
Q 2172 3584 2448 3432 
Q 2725 3281 2906 2969 
z
M 947 1747 
Q 947 1113 1208 752 
Q 1469 391 1925 391 
Q 2381 391 2643 752 
Q 2906 1113 2906 1747 
Q 2906 2381 2643 2742 
Q 2381 3103 1925 3103 
Q 1469 3103 1208 2742 
Q 947 2381 947 1747 
z
" transform="scale(0.015625)"/>
     </defs>
     <use xlink:href="#DejaVuSans-Oblique-348" transform="translate(0 0.015625)"/>
     <use xlink:href="#DejaVuSans-Oblique-48" transform="translate(61.181641 -14.984326) scale(0.7)"/>
     <use xlink:href="#DejaVuSans-3" transform="translate(106.982422 0.015625)"/>
     <use xlink:href="#DejaVuSans-b" transform="translate(138.769531 0.015625)"/>
     <use xlink:href="#DejaVuSans-55" transform="translate(177.783203 0.015625)"/>
     <use xlink:href="#DejaVuSans-44" transform="translate(218.896484 0.015625)"/>
     <use xlink:href="#DejaVuSans-47" transform="translate(280.175781 0.015625)"/>
     <use xlink:href="#DejaVuSans-c" transform="translate(343.652344 0.015625)"/>
    </g>
   </g>
   <g id="legend_1">
    <g id="patch_7">
     <path d="M 443.5 71.960781 
L 486.2 71.960781 
Q 488.2 71.960781 488.2 69.960781 
L 488.2 55.96 
Q 488.2 53.96 486.2 53.96 
L 443.5 53.96 
Q 441.5 53.96 441.5 55.96 
L 441.5 69.960781 
Q 441.5 71.960781 443.5 71.960781 
z
" style="fill: #ffffff; opacity: 0.8; stroke: #cccccc; stroke-linejoin: miter"/>
    </g>
    <g id="line2d_22">
     <path d="M 445.5 62.058437 
L 455.5 62.058437 
L 465.5 62.058437 
" style="fill: none; stroke: #1f77b4; stroke-width: 1.5; stroke-linecap: square"/>
    </g>
    <g id="text_13">
     <!-- $\delta_e$ -->
     <g transform="translate(473.5 65.558437) scale(0.1 -0.1)">
      <use xlink:href="#DejaVuSans-Oblique-348" transform="translate(0 0.78125)"/>
      <use xlink:href="#DejaVuSans-Oblique-48" transform="translate(61.181641 -14.218701) scale(0.7)"/>
     </g>
    </g>
   </g>
  </g>
  <g id="axes_2">
   <g id="patch_8">
    <path d="M 42.28 361.077656 
L 493.2 361.077656 
L 493.2 234.84 
L 42.28 234.84 
z
" style="fill: #ffffff"/>
   </g>
   <g id="matplotlib.axis_3">
    <g id="xtick_8">
     <g id="line2d_23">
      <path d="M 62.410375 361.077656 
L 62.410375 234.84 
" clip-path="url(#p19cfacbeb7)" style="fill: none; stroke: #b0b0b0; stroke-width: 0.8; stroke-linecap: square"/>
     </g>
     <g id="line2d_24">
      <g>
       <use xlink:href="#m70e7188ac3" x="62.410375" y="361.077656" style="stroke: #000000; stroke-width: 0.8"/>
      </g>
     </g>
     <g id="text_14">
      <!-- 0 -->
      <g transform="translate(59.229125 375.675312) scale(0.1 -0.1)">
       <use xlink:href="#DejaVuSans-13"/>
      </g>
     </g>
    </g>
    <g id="xtick_9">
     <g id="line2d_25">
      <path d="M 130.742775 361.077656 
L 130.742775 234.84 
" clip-path="url(#p19cfacbeb7)" style="fill: none; stroke: #b0b0b0; stroke-width: 0.8; stroke-linecap: square"/>
     </g>
     <g id="line2d_26">
      <g>
       <use xlink:href="#m70e7188ac3" x="130.742775" y="361.077656" style="stroke: #000000; stroke-width: 0.8"/>
      </g>
     </g>
     <g id="text_15">
      <!-- 10 -->
      <g transform="translate(124.380275 375.675312) scale(0.1 -0.1)">
       <use xlink:href="#DejaVuSans-14"/>
       <use xlink:href="#DejaVuSans-13" transform="translate(63.625 0)"/>
      </g>
     </g>
    </g>
    <g id="xtick_10">
     <g id="line2d_27">
      <path d="M 199.075175 361.077656 
L 199.075175 234.84 
" clip-path="url(#p19cfacbeb7)" style="fill: none; stroke: #b0b0b0; stroke-width: 0.8; stroke-linecap: square"/>
     </g>
     <g id="line2d_28">
      <g>
       <use xlink:href="#m70e7188ac3" x="199.075175" y="361.077656" style="stroke: #000000; stroke-width: 0.8"/>
      </g>
     </g>
     <g id="text_16">
      <!-- 20 -->
      <g transform="translate(192.712675 375.675312) scale(0.1 -0.1)">
       <use xlink:href="#DejaVuSans-15"/>
       <use xlink:href="#DejaVuSans-13" transform="translate(63.625 0)"/>
      </g>
     </g>
    </g>
    <g id="xtick_11">
     <g id="line2d_29">
      <path d="M 267.407574 361.077656 
L 267.407574 234.84 
" clip-path="url(#p19cfacbeb7)" style="fill: none; stroke: #b0b0b0; stroke-width: 0.8; stroke-linecap: square"/>
     </g>
     <g id="line2d_30">
      <g>
       <use xlink:href="#m70e7188ac3" x="267.407574" y="361.077656" style="stroke: #000000; stroke-width: 0.8"/>
      </g>
     </g>
     <g id="text_17">
      <!-- 30 -->
      <g transform="translate(261.045074 375.675312) scale(0.1 -0.1)">
       <use xlink:href="#DejaVuSans-16"/>
       <use xlink:href="#DejaVuSans-13" transform="translate(63.625 0)"/>
      </g>
     </g>
    </g>
    <g id="xtick_12">
     <g id="line2d_31">
      <path d="M 335.739974 361.077656 
L 335.739974 234.84 
" clip-path="url(#p19cfacbeb7)" style="fill: none; stroke: #b0b0b0; stroke-width: 0.8; stroke-linecap: square"/>
     </g>
     <g id="line2d_32">
      <g>
       <use xlink:href="#m70e7188ac3" x="335.739974" y="361.077656" style="stroke: #000000; stroke-width: 0.8"/>
      </g>
     </g>
     <g id="text_18">
      <!-- 40 -->
      <g transform="translate(329.377474 375.675312) scale(0.1 -0.1)">
       <use xlink:href="#DejaVuSans-17"/>
       <use xlink:href="#DejaVuSans-13" transform="translate(63.625 0)"/>
      </g>
     </g>
    </g>
    <g id="xtick_13">
     <g id="line2d_33">
      <path d="M 404.072373 361.077656 
L 404.072373 234.84 
" clip-path="url(#p19cfacbeb7)" style="fill: none; stroke: #b0b0b0; stroke-width: 0.8; stroke-linecap: square"/>
     </g>
     <g id="line2d_34">
      <g>
       <use xlink:href="#m70e7188ac3" x="404.072373" y="361.077656" style="stroke: #000000; stroke-width: 0.8"/>
      </g>
     </g>
     <g id="text_19">
      <!-- 50 -->
      <g transform="translate(397.709873 375.675312) scale(0.1 -0.1)">
       <use xlink:href="#DejaVuSans-18"/>
       <use xlink:href="#DejaVuSans-13" transform="translate(63.625 0)"/>
      </g>
     </g>
    </g>
    <g id="xtick_14">
     <g id="line2d_35">
      <path d="M 472.404773 361.077656 
L 472.404773 234.84 
" clip-path="url(#p19cfacbeb7)" style="fill: none; stroke: #b0b0b0; stroke-width: 0.8; stroke-linecap: square"/>
     </g>
     <g id="line2d_36">
      <g>
       <use xlink:href="#m70e7188ac3" x="472.404773" y="361.077656" style="stroke: #000000; stroke-width: 0.8"/>
      </g>
     </g>
     <g id="text_20">
      <!-- 60 -->
      <g transform="translate(466.042273 375.675312) scale(0.1 -0.1)">
       <use xlink:href="#DejaVuSans-19"/>
       <use xlink:href="#DejaVuSans-13" transform="translate(63.625 0)"/>
      </g>
     </g>
    </g>
    <g id="text_21">
     <!-- t (s) -->
     <g transform="translate(257.684531 389.675312) scale(0.1 -0.1)">
      <use xlink:href="#DejaVuSans-57"/>
      <use xlink:href="#DejaVuSans-3" transform="translate(39.203125 0)"/>
      <use xlink:href="#DejaVuSans-b" transform="translate(70.984375 0)"/>
      <use xlink:href="#DejaVuSans-56" transform="translate(110 0)"/>
      <use xlink:href="#DejaVuSans-c" transform="translate(162.09375 0)"/>
     </g>
    </g>
   </g>
   <g id="matplotlib.axis_4">
    <g id="ytick_4">
     <g id="line2d_37">
      <path d="M 42.28 347.588939 
L 493.2 347.588939 
" clip-path="url(#p19cfacbeb7)" style="fill: none; stroke: #b0b0b0; stroke-width: 0.8; stroke-linecap: square"/>
     </g>
     <g id="line2d_38">
      <g>
       <use xlink:href="#m44febe6164" x="42.28" y="347.588939" style="stroke: #000000; stroke-width: 0.8"/>
      </g>
     </g>
     <g id="text_22">
      <!-- −0.50 -->
      <g transform="translate(4.634688 351.387768) scale(0.1 -0.1)">
       <use xlink:href="#DejaVuSans-c9c"/>
       <use xlink:href="#DejaVuSans-13" transform="translate(83.796875 0)"/>
       <use xlink:href="#DejaVuSans-11" transform="translate(147.421875 0)"/>
       <use xlink:href="#DejaVuSans-18" transform="translate(179.203125 0)"/>
       <use xlink:href="#DejaVuSans-13" transform="translate(242.828125 0)"/>
      </g>
     </g>
    </g>
    <g id="ytick_5">
     <g id="line2d_39">
      <path d="M 42.28 323.268214 
L 493.2 323.268214 
" clip-path="url(#p19cfacbeb7)" style="fill: none; stroke: #b0b0b0; stroke-width: 0.8; stroke-linecap: square"/>
     </g>
     <g id="line2d_40">
      <g>
       <use xlink:href="#m44febe6164" x="42.28" y="323.268214" style="stroke: #000000; stroke-width: 0.8"/>
      </g>
     </g>
     <g id="text_23">
      <!-- −0.25 -->
      <g transform="translate(4.634688 327.067043) scale(0.1 -0.1)">
       <use xlink:href="#DejaVuSans-c9c"/>
       <use xlink:href="#DejaVuSans-13" transform="translate(83.796875 0)"/>
       <use xlink:href="#DejaVuSans-11" transform="translate(147.421875 0)"/>
       <use xlink:href="#DejaVuSans-15" transform="translate(179.203125 0)"/>
       <use xlink:href="#DejaVuSans-18" transform="translate(242.828125 0)"/>
      </g>
     </g>
    </g>
    <g id="ytick_6">
     <g id="line2d_41">
      <path d="M 42.28 298.94749 
L 493.2 298.94749 
" clip-path="url(#p19cfacbeb7)" style="fill: none; stroke: #b0b0b0; stroke-width: 0.8; stroke-linecap: square"/>
     </g>
     <g id="line2d_42">
      <g>
       <use xlink:href="#m44febe6164" x="42.28" y="298.94749" style="stroke: #000000; stroke-width: 0.8"/>
      </g>
     </g>
     <g id="text_24">
      <!-- 0.00 -->
      <g transform="translate(13.014375 302.746318) scale(0.1 -0.1)">
       <use xlink:href="#DejaVuSans-13"/>
       <use xlink:href="#DejaVuSans-11" transform="translate(63.625 0)"/>
       <use xlink:href="#DejaVuSans-13" transform="translate(95.40625 0)"/>
       <use xlink:href="#DejaVuSans-13" transform="translate(159.03125 0)"/>
      </g>
     </g>
    </g>
    <g id="ytick_7">
     <g id="line2d_43">
      <path d="M 42.28 274.626765 
L 493.2 274.626765 
" clip-path="url(#p19cfacbeb7)" style="fill: none; stroke: #b0b0b0; stroke-width: 0.8; stroke-linecap: square"/>
     </g>
     <g id="line2d_44">
      <g>
       <use xlink:href="#m44febe6164" x="42.28" y="274.626765" style="stroke: #000000; stroke-width: 0.8"/>
      </g>
     </g>
     <g id="text_25">
      <!-- 0.25 -->
      <g transform="translate(13.014375 278.425593) scale(0.1 -0.1)">
       <use xlink:href="#DejaVuSans-13"/>
       <use xlink:href="#DejaVuSans-11" transform="translate(63.625 0)"/>
       <use xlink:href="#DejaVuSans-15" transform="translate(95.40625 0)"/>
       <use xlink:href="#DejaVuSans-18" transform="translate(159.03125 0)"/>
      </g>
     </g>
    </g>
    <g id="ytick_8">
     <g id="line2d_45">
      <path d="M 42.28 250.30604 
L 493.2 250.30604 
" clip-path="url(#p19cfacbeb7)" style="fill: none; stroke: #b0b0b0; stroke-width: 0.8; stroke-linecap: square"/>
     </g>
     <g id="line2d_46">
      <g>
       <use xlink:href="#m44febe6164" x="42.28" y="250.30604" style="stroke: #000000; stroke-width: 0.8"/>
      </g>
     </g>
     <g id="text_26">
      <!-- 0.50 -->
      <g transform="translate(13.014375 254.104868) scale(0.1 -0.1)">
       <use xlink:href="#DejaVuSans-13"/>
       <use xlink:href="#DejaVuSans-11" transform="translate(63.625 0)"/>
       <use xlink:href="#DejaVuSans-18" transform="translate(95.40625 0)"/>
       <use xlink:href="#DejaVuSans-13" transform="translate(159.03125 0)"/>
      </g>
     </g>
    </g>
   </g>
   <g id="line2d_47">
    <path d="M 62.776364 294.614519 
L 63.257092 298.949051 
L 72.344632 298.947839 
L 72.821761 297.547279 
L 73.299848 288.203427 
L 73.778636 275.806943 
L 74.257536 266.669584 
L 74.738094 254.866339 
L 75.214986 246.412462 
L 75.692817 240.578238 
L 81.909921 240.578225 
L 82.390256 249.602111 
L 83.344229 277.430329 
L 85.257865 254.06984 
L 86.216585 247.337918 
L 87.173103 243.446651 
L 87.653817 242.607694 
L 88.606896 254.780888 
L 89.565201 263.769617 
L 91.956197 280.998473 
L 92.912189 287.861472 
L 93.391258 288.840596 
L 93.869046 295.192821 
L 94.348635 297.828052 
L 94.828127 301.709278 
L 95.305126 304.217338 
L 95.781772 307.69187 
L 96.264328 337.852573 
L 96.739401 342.658997 
L 98.172934 348.815051 
L 98.651157 350.444499 
L 99.130607 351.289146 
L 99.608915 351.85697 
L 100.089248 351.828347 
L 100.564148 351.132131 
L 101.043239 350.082804 
L 102.001097 345.720491 
L 102.956932 338.432591 
L 103.43534 332.847763 
L 103.912801 333.995868 
L 104.394151 348.114322 
L 104.870504 355.339581 
L 105.3511 340.398365 
L 105.82857 340.242694 
L 106.304216 312.8815 
L 106.782995 299.139917 
L 107.263145 295.725044 
L 107.738743 290.60947 
L 109.176269 268.253338 
L 110.132553 255.622886 
L 110.611413 283.351791 
L 111.088652 287.551287 
L 111.569377 300.517057 
L 112.043798 302.463287 
L 112.524098 309.483798 
L 113.00241 307.620304 
L 113.479254 310.558424 
L 113.95686 301.482661 
L 114.438388 300.094291 
L 114.9153 290.00843 
L 115.39491 308.323253 
L 115.872265 300.082783 
L 116.352149 301.610501 
L 116.829641 293.22431 
L 117.307059 294.596139 
L 117.786526 287.426566 
L 118.262635 290.329861 
L 118.740085 283.993656 
L 119.220904 288.47387 
L 119.697734 283.802566 
L 120.178252 307.713698 
L 120.653413 303.386462 
L 121.13309 308.070017 
L 121.611255 301.150882 
L 122.092708 304.68925 
L 122.570333 295.797734 
L 123.048663 300.366481 
L 123.525516 292.854688 
L 124.006082 296.612001 
L 124.481118 289.912203 
L 124.959809 313.472914 
L 125.439758 307.289503 
L 125.916005 310.780889 
L 126.394912 301.777705 
L 126.871331 303.427043 
L 127.354186 293.305416 
L 127.829757 294.512246 
L 128.30851 284.538638 
L 128.787905 287.270878 
L 129.266086 282.618645 
L 129.74281 304.270507 
L 130.22109 297.015336 
L 130.70065 302.207175 
L 131.177736 293.787226 
L 131.657105 299.170049 
L 132.134279 291.253368 
L 132.611663 297.153071 
L 133.09157 289.745631 
L 133.568683 296.714471 
L 134.048709 289.843775 
L 134.526969 320.658315 
L 135.00381 313.17282 
L 135.482443 317.378327 
L 135.963275 305.003913 
L 136.439842 306.456964 
L 136.919252 291.697683 
L 137.396539 295.02707 
L 137.878275 291.197114 
L 138.353264 290.449916 
L 138.832232 288.474069 
L 139.310867 310.371875 
L 139.788773 300.606196 
L 140.265274 304.863412 
L 140.745256 294.873316 
L 141.223513 296.84176 
L 141.700917 290.229723 
L 142.18138 291.368827 
L 142.658749 288.749323 
L 143.13571 290.415502 
L 143.61362 291.560483 
L 144.093795 296.780969 
L 144.571499 297.451854 
L 145.05123 306.145375 
L 145.527196 323.257535 
L 146.005302 327.294371 
L 146.484536 327.401352 
L 146.962826 327.998964 
L 147.440356 327.805327 
L 147.921639 326.604937 
L 148.874916 309.422728 
L 150.311145 275.860009 
L 150.78821 269.765549 
L 151.268952 269.765414 
L 151.747576 268.135079 
L 152.22493 269.765774 
L 154.136407 269.867834 
L 155.093815 304.651945 
L 155.572372 302.459582 
L 156.05219 298.943397 
L 158.921322 298.946461 
L 159.399749 299.186881 
L 161.790378 340.432835 
L 162.749184 352.11476 
L 163.224447 354.308191 
L 164.182795 328.672677 
L 164.660794 302.663726 
L 165.620133 276.646733 
L 166.5773 291.430583 
L 167.051383 293.572159 
L 167.532115 293.337164 
L 168.010943 291.251546 
L 168.966965 281.882488 
L 169.925066 269.517376 
L 170.402438 267.569036 
L 170.878415 282.823461 
L 171.357639 287.954267 
L 171.837164 303.151634 
L 172.313547 306.709942 
L 173.272396 316.952613 
L 173.748839 321.414669 
L 174.226972 327.59478 
L 174.705354 328.334624 
L 175.183368 312.818063 
L 175.664035 307.826498 
L 176.140485 291.426841 
L 176.619885 288.6015 
L 177.099996 276.220001 
L 177.576476 296.043551 
L 178.054672 286.923313 
L 178.532483 290.030654 
L 179.013225 281.264794 
L 179.490279 286.240411 
L 179.966864 282.405571 
L 180.44587 286.61442 
L 180.923898 285.00198 
L 181.402136 290.434654 
L 181.880029 286.440203 
L 182.360146 318.664034 
L 182.837704 313.302392 
L 183.316249 319.672701 
L 183.796981 309.489374 
L 184.271438 311.958991 
L 184.751046 298.352111 
L 185.230556 299.169631 
L 185.708472 284.317363 
L 186.674963 285.272103 
L 187.141187 297.094312 
L 187.622366 298.95473 
L 189.533258 298.962904 
L 190.01257 302.884047 
L 190.968534 314.083914 
L 191.447887 317.543517 
L 191.926043 311.775981 
L 192.406056 297.156781 
L 192.881107 286.406289 
L 193.362015 271.380953 
L 193.839794 267.600788 
L 194.317052 268.141022 
L 195.27449 268.737089 
L 195.752874 268.570984 
L 196.231619 269.216716 
L 196.708451 269.231691 
L 197.187626 269.072602 
L 197.665175 269.338625 
L 198.143737 270.128212 
L 199.102524 289.85002 
L 199.580946 294.957306 
L 200.058421 298.718263 
L 200.534021 299.905635 
L 201.012747 300.136352 
L 201.4906 318.901605 
L 201.970657 317.888642 
L 202.448423 324.955726 
L 204.363627 310.875877 
L 204.83996 306.516968 
L 205.796431 300.188045 
L 206.277188 298.946242 
L 207.232221 298.946079 
L 207.711871 300.073549 
L 208.187472 303.280094 
L 209.146642 315.114663 
L 209.624783 323.509588 
L 210.104378 320.702424 
L 210.581386 304.910566 
L 211.059637 314.156293 
L 211.539971 297.48579 
L 212.016061 292.794592 
L 212.493235 279.815284 
L 212.970874 280.972707 
L 213.450533 275.457531 
L 213.930078 282.996752 
L 214.407684 282.117994 
L 214.884992 290.689386 
L 215.363664 287.992271 
L 215.840709 312.559766 
L 216.321003 305.182914 
L 216.798181 306.303045 
L 217.280184 295.689798 
L 217.757292 298.962782 
L 219.189653 298.951819 
L 219.669097 297.505055 
L 220.147493 292.416795 
L 220.624324 303.222885 
L 221.103716 298.290725 
L 221.581373 307.235692 
L 222.060744 303.798599 
L 222.539571 312.618092 
L 223.016146 308.317696 
L 223.495365 314.406092 
L 223.973738 308.331106 
L 224.452244 311.034298 
L 224.931005 302.576838 
L 225.407324 314.477616 
L 225.886687 309.562062 
L 226.364046 306.266411 
L 226.844897 289.018116 
L 227.322797 280.35904 
L 227.801692 279.474864 
L 228.277468 283.06682 
L 228.756646 288.073721 
L 229.713645 295.122218 
L 230.192858 296.749199 
L 230.670059 297.232844 
L 231.149991 296.291175 
L 232.105978 290.120085 
L 233.541546 273.603815 
L 234.018789 287.330091 
L 234.495788 287.214573 
L 234.976391 315.034204 
L 235.452189 310.025246 
L 236.410299 305.028841 
L 236.888937 304.633521 
L 237.367148 305.804043 
L 237.845263 307.868896 
L 239.757747 324.6793 
L 240.235185 320.399418 
L 240.714976 314.087266 
L 241.191596 296.911454 
L 241.670004 293.24672 
L 242.149978 279.614924 
L 243.106129 277.452636 
L 243.585715 280.576976 
L 244.065101 280.486756 
L 244.542262 284.524928 
L 245.019211 278.996542 
L 245.497439 287.868306 
L 245.975046 286.394539 
L 246.452997 297.145825 
L 246.93176 296.178002 
L 247.409875 305.544731 
L 247.890693 300.603156 
L 248.367024 304.763172 
L 248.849554 293.38774 
L 249.326154 316.196286 
L 249.802207 301.424962 
L 250.280728 301.085057 
L 250.75975 288.69201 
L 251.23833 294.593994 
L 251.718124 286.379346 
L 252.197385 291.326846 
L 252.673318 294.2628 
L 253.150171 298.965656 
L 253.631441 298.95474 
L 254.108997 313.20551 
L 254.58582 305.063523 
L 255.06317 307.644679 
L 255.544202 296.963086 
L 256.023828 295.210569 
L 256.499301 283.879534 
L 256.978806 288.298811 
L 257.457888 280.076406 
L 257.934949 288.384352 
L 258.414844 282.676794 
L 258.891287 303.051568 
L 259.369975 305.968694 
L 259.849418 310.359869 
L 260.326966 307.956627 
L 260.803193 308.842835 
L 261.283553 292.938663 
L 261.76306 291.556859 
L 262.240092 277.377149 
L 262.716841 279.624518 
L 263.19791 273.259998 
L 263.674328 302.424174 
L 264.155082 296.111992 
L 264.630556 303.738882 
L 265.111055 297.147906 
L 265.586458 304.263207 
L 266.068048 297.082516 
L 266.544088 303.623184 
L 267.021914 296.047559 
L 267.501567 301.976437 
L 267.9802 293.004843 
L 268.458345 321.136553 
L 268.937343 311.686182 
L 269.413903 312.581015 
L 269.893628 297.428244 
L 270.372184 296.213673 
L 270.848175 281.487551 
L 271.806724 282.390625 
L 272.285079 293.802452 
L 272.765166 298.951282 
L 273.241135 299.082455 
L 273.720159 299.004838 
L 274.19824 301.834076 
L 274.675841 298.985779 
L 275.156715 290.71326 
L 275.634581 270.357153 
L 276.110035 272.481586 
L 276.591766 276.288488 
L 277.068701 291.163876 
L 277.546213 294.340048 
L 278.025753 298.94455 
L 278.980232 298.945361 
L 279.937955 347.484015 
L 280.416539 338.942001 
L 280.893193 336.105919 
L 281.372224 310.139901 
L 281.853878 298.934853 
L 282.331652 293.545819 
L 282.807998 298.941118 
L 283.287377 293.862768 
L 283.766489 298.00034 
L 284.242133 298.950321 
L 286.154584 298.948484 
L 286.632934 297.99729 
L 287.111295 270.880941 
L 287.589686 251.649068 
L 288.069316 251.575103 
L 288.546214 270.215837 
L 289.025592 276.674216 
L 289.503449 293.724839 
L 289.98191 296.623043 
L 290.45972 300.331466 
L 291.416392 309.951259 
L 291.896081 297.533241 
L 292.373332 319.504502 
L 292.852642 303.097502 
L 293.331476 299.85834 
L 293.807871 298.953889 
L 296.201013 298.954472 
L 296.679795 293.625376 
L 297.1586 286.097431 
L 297.635388 272.351912 
L 298.11599 276.394699 
L 298.592086 276.15918 
L 299.069223 291.87175 
L 299.550842 296.683829 
L 300.028303 298.941436 
L 301.941383 298.945983 
L 302.418508 312.379841 
L 302.8984 330.353683 
L 303.374733 331.107388 
L 303.853922 326.659687 
L 304.33353 304.60804 
L 304.810236 298.035127 
L 305.288766 274.626165 
L 305.767726 272.450516 
L 306.246135 261.709264 
L 306.725339 285.068895 
L 307.20299 274.724568 
L 307.680137 298.951349 
L 311.507385 298.950078 
L 312.463587 249.788642 
L 312.943586 248.083001 
L 313.421183 251.003214 
L 313.900506 255.528776 
L 314.856863 283.775565 
L 315.333735 298.941453 
L 316.769551 298.946396 
L 317.246183 313.803255 
L 317.724712 345.70929 
L 318.202288 353.658904 
L 318.682296 340.114226 
L 319.160456 319.737708 
L 319.637944 306.173229 
L 320.1191 299.77988 
L 320.596755 298.946524 
L 321.073988 298.946698 
L 321.554328 301.342748 
L 322.029682 307.199765 
L 323.466305 334.525608 
L 324.423336 346.433212 
L 324.90161 348.930037 
L 325.381732 327.707952 
L 325.858876 327.733332 
L 326.334112 303.627438 
L 327.292425 281.540182 
L 327.770011 278.203087 
L 328.249774 273.871529 
L 329.205 267.632254 
L 330.16079 264.202757 
L 330.643526 291.440598 
L 331.120634 292.91113 
L 331.596403 302.780878 
L 332.076977 300.481719 
L 332.552248 306.999426 
L 333.032988 300.615049 
L 333.511375 303.656938 
L 333.989516 295.073277 
L 334.468531 297.534464 
L 334.9442 288.680346 
L 335.422613 311.114214 
L 335.901309 302.559066 
L 336.380965 305.361962 
L 336.860968 295.899866 
L 337.33586 298.952076 
L 337.814961 290.029217 
L 338.293467 294.481727 
L 338.772273 287.094774 
L 339.249678 293.68547 
L 339.727905 288.048248 
L 340.208004 317.992493 
L 340.68733 312.375871 
L 341.164266 318.093038 
L 341.641109 309.122636 
L 342.120195 312.301485 
L 342.598706 301.502994 
L 343.075726 303.611731 
L 343.555381 292.144164 
L 344.03574 292.442344 
L 344.511101 283.424303 
L 344.989559 305.936852 
L 345.469459 295.820102 
L 345.94972 296.218089 
L 346.425855 278.154799 
L 346.906885 281.766694 
L 347.381808 292.87785 
L 347.859972 298.950935 
L 351.207309 298.976652 
L 351.685671 305.195024 
L 352.165763 295.291456 
L 352.644761 288.845449 
L 353.599886 261.272346 
L 354.076946 266.00958 
L 354.557867 266.932237 
L 355.036864 267.423647 
L 355.514089 268.154858 
L 355.992818 272.373551 
L 356.470583 291.603869 
L 356.951024 298.882165 
L 357.907545 298.942969 
L 358.382687 300.706733 
L 358.862743 313.099174 
L 359.34129 318.939091 
L 359.821192 320.546713 
L 360.299085 315.858838 
L 360.774004 309.442653 
L 361.731347 303.189965 
L 362.210691 302.223528 
L 362.690643 302.288789 
L 363.167161 303.200556 
L 364.124124 307.405566 
L 365.557955 316.304933 
L 366.994933 322.640256 
L 367.470083 324.168786 
L 367.950351 322.905883 
L 368.429416 306.768017 
L 368.907767 310.464104 
L 369.386233 294.995446 
L 369.861946 288.733302 
L 370.341748 276.443148 
L 370.818744 274.593536 
L 371.296852 267.710245 
L 371.775895 271.275391 
L 372.254315 269.599942 
L 372.735281 277.703243 
L 373.210222 279.473643 
L 373.689995 303.835987 
L 374.17055 305.473515 
L 374.648119 312.865728 
L 375.126631 310.762273 
L 375.604925 314.711986 
L 376.081672 309.378887 
L 376.558931 310.001638 
L 377.037354 302.348419 
L 377.515303 301.663424 
L 377.993891 293.490298 
L 378.472052 305.667543 
L 378.950466 298.011635 
L 379.432502 297.756863 
L 379.90817 290.156989 
L 380.386441 290.97553 
L 380.864607 284.74323 
L 381.342194 287.723381 
L 381.8202 283.628198 
L 382.298472 288.624765 
L 382.779886 286.369393 
L 383.257028 307.375921 
L 383.735962 305.105547 
L 384.211497 310.183261 
L 384.689439 305.658637 
L 385.168284 308.80692 
L 385.648387 302.519986 
L 386.126315 304.894217 
L 386.604073 298.146653 
L 387.083397 300.259354 
L 387.562263 293.69028 
L 388.038922 311.518423 
L 388.517971 306.458356 
L 388.995506 309.137502 
L 389.474896 302.575267 
L 389.954303 303.785398 
L 390.43174 296.011146 
L 390.908701 296.360479 
L 391.386024 288.013758 
L 391.867225 288.708472 
L 392.346052 279.554636 
L 392.821914 296.544114 
L 393.299998 284.858659 
L 393.778042 285.954105 
L 394.736378 290.536074 
L 395.215469 293.624959 
L 396.173235 297.997366 
L 396.648685 298.9523 
L 398.083996 298.959482 
L 398.561432 299.065369 
L 399.042249 298.658042 
L 399.519649 297.022508 
L 399.997613 293.291806 
L 400.475866 295.60415 
L 400.954667 286.374211 
L 401.431917 298.245247 
L 401.91176 293.585512 
L 402.391265 322.871634 
L 402.869072 310.962622 
L 403.345544 314.769806 
L 403.824388 304.0954 
L 404.301812 307.509278 
L 404.782009 303.277117 
L 405.261019 306.944977 
L 405.736554 308.389602 
L 406.696042 317.426001 
L 407.171035 317.107782 
L 407.656199 299.464396 
L 408.128786 316.661716 
L 410.041689 299.145108 
L 410.519846 297.137395 
L 411.001848 292.84209 
L 411.480236 292.113882 
L 411.954655 290.784252 
L 412.432984 289.909062 
L 412.913184 289.990462 
L 413.392632 291.175763 
L 413.869803 292.942376 
L 414.345755 296.593646 
L 414.827428 303.981222 
L 415.303519 320.857868 
L 415.782366 328.101909 
L 416.261217 326.772343 
L 416.739851 328.134382 
L 417.695097 328.134196 
L 418.176257 325.030958 
L 418.654004 328.134125 
L 419.131284 328.037959 
L 419.609632 317.76581 
L 420.567474 301.766532 
L 421.04544 289.735747 
L 421.999471 269.76417 
L 423.91413 269.764071 
L 424.39309 266.173966 
L 424.870209 269.76406 
L 425.350062 269.764061 
L 425.829774 267.710796 
L 426.30721 269.326065 
L 426.782366 269.764093 
L 427.740631 269.764226 
L 428.218551 278.619578 
L 428.699668 285.116065 
L 429.177059 285.6748 
L 429.654013 286.404296 
L 431.088785 287.852706 
L 431.565823 288.004491 
L 432.046355 288.760075 
L 433.004697 289.435324 
L 433.481403 289.750093 
L 433.959423 289.816231 
L 434.437251 290.182336 
L 434.915931 290.323399 
L 435.396326 287.082954 
L 435.873229 290.43998 
L 436.351856 290.125835 
L 436.830233 290.442821 
L 437.305917 290.521153 
L 437.787236 290.162233 
L 438.264731 290.577866 
L 439.69954 290.281117 
L 441.613246 289.485724 
L 442.089796 289.299793 
L 442.567599 289.864842 
L 443.046792 306.155582 
L 443.525444 317.716671 
L 449.267407 313.701359 
L 450.701096 312.583504 
L 452.134239 311.605024 
L 453.569525 310.604247 
L 457.398184 308.660174 
L 459.31225 308.156388 
L 460.744072 308.045108 
L 462.180911 308.19874 
L 463.136126 308.463627 
L 464.091986 308.869619 
L 465.049193 309.426114 
L 465.528128 309.712891 
L 467.443533 311.461803 
L 469.354589 313.839684 
L 470.790186 313.84152 
L 471.268044 307.221999 
L 472.225029 268.453776 
L 472.703636 255.628952 
L 472.703636 255.628952 
" clip-path="url(#p19cfacbeb7)" style="fill: none; stroke: #1f77b4; stroke-width: 1.5; stroke-linecap: square"/>
   </g>
   <g id="patch_9">
    <path d="M 42.28 361.077656 
L 42.28 234.84 
" style="fill: none; stroke: #000000; stroke-width: 0.8; stroke-linejoin: miter; stroke-linecap: square"/>
   </g>
   <g id="patch_10">
    <path d="M 493.2 361.077656 
L 493.2 234.84 
" style="fill: none; stroke: #000000; stroke-width: 0.8; stroke-linejoin: miter; stroke-linecap: square"/>
   </g>
   <g id="patch_11">
    <path d="M 42.28 361.077656 
L 493.2 361.077656 
" style="fill: none; stroke: #000000; stroke-width: 0.8; stroke-linejoin: miter; stroke-linecap: square"/>
   </g>
   <g id="patch_12">
    <path d="M 42.28 234.84 
L 493.2 234.84 
" style="fill: none; stroke: #000000; stroke-width: 0.8; stroke-linejoin: miter; stroke-linecap: square"/>
   </g>
   <g id="text_27">
    <!-- $a_{x,e}$ $\left(\mathrm{m/s^2}\right)$ -->
    <g transform="translate(236.18 228.84) scale(0.12 -0.12)">
     <defs>
      <path id="DejaVuSans-Oblique-44" d="M 3438 1997 
L 3047 0 
L 2472 0 
L 2578 531 
Q 2325 219 2001 64 
Q 1678 -91 1281 -91 
Q 834 -91 548 182 
Q 263 456 263 884 
Q 263 1497 752 1853 
Q 1241 2209 2100 2209 
L 2900 2209 
L 2931 2363 
Q 2938 2388 2941 2417 
Q 2944 2447 2944 2509 
Q 2944 2788 2717 2942 
Q 2491 3097 2081 3097 
Q 1800 3097 1504 3025 
Q 1209 2953 897 2809 
L 997 3341 
Q 1322 3463 1633 3523 
Q 1944 3584 2234 3584 
Q 2853 3584 3176 3315 
Q 3500 3047 3500 2534 
Q 3500 2431 3484 2292 
Q 3469 2153 3438 1997 
z
M 2816 1759 
L 2241 1759 
Q 1534 1759 1195 1570 
Q 856 1381 856 984 
Q 856 709 1029 553 
Q 1203 397 1509 397 
Q 1978 397 2328 733 
Q 2678 1069 2791 1631 
L 2816 1759 
z
" transform="scale(0.015625)"/>
      <path id="DejaVuSans-Oblique-5b" d="M 3841 3500 
L 2234 1784 
L 3219 0 
L 2559 0 
L 1819 1388 
L 531 0 
L -166 0 
L 1556 1844 
L 641 3500 
L 1300 3500 
L 1972 2234 
L 3144 3500 
L 3841 3500 
z
" transform="scale(0.015625)"/>
      <path id="DejaVuSans-f" d="M 750 794 
L 1409 794 
L 1409 256 
L 897 -744 
L 494 -744 
L 750 256 
L 750 794 
z
" transform="scale(0.015625)"/>
      <path id="STIXSizeOneSym-Regular-4" d="M 2445 -858 
L 2445 -1050 
Q 1728 -371 1309 630 
Q 890 1632 890 2886 
Q 890 4122 1309 5136 
Q 1728 6150 2445 6822 
L 2445 6630 
Q 1408 5363 1408 2886 
Q 1408 410 2445 -858 
z
" transform="scale(0.015625)"/>
      <path id="DejaVuSans-50" d="M 3328 2828 
Q 3544 3216 3844 3400 
Q 4144 3584 4550 3584 
Q 5097 3584 5394 3201 
Q 5691 2819 5691 2113 
L 5691 0 
L 5113 0 
L 5113 2094 
Q 5113 2597 4934 2840 
Q 4756 3084 4391 3084 
Q 3944 3084 3684 2787 
Q 3425 2491 3425 1978 
L 3425 0 
L 2847 0 
L 2847 2094 
Q 2847 2600 2669 2842 
Q 2491 3084 2119 3084 
Q 1678 3084 1418 2786 
Q 1159 2488 1159 1978 
L 1159 0 
L 581 0 
L 581 3500 
L 1159 3500 
L 1159 2956 
Q 1356 3278 1631 3431 
Q 1906 3584 2284 3584 
Q 2666 3584 2933 3390 
Q 3200 3197 3328 2828 
z
" transform="scale(0.015625)"/>
      <path id="DejaVuSans-12" d="M 1625 4666 
L 2156 4666 
L 531 -594 
L 0 -594 
L 1625 4666 
z
" transform="scale(0.015625)"/>
      <path id="STIXSizeOneSym-Regular-5" d="M 550 6630 
L 550 6822 
Q 1267 6144 1686 5142 
Q 2106 4141 2106 2886 
Q 2106 1651 1686 636 
Q 1267 -378 550 -1050 
L 550 -858 
Q 1587 410 1587 2886 
Q 1587 5363 550 6630 
z
" transform="scale(0.015625)"/>
     </defs>
     <use xlink:href="#DejaVuSans-Oblique-44" transform="translate(0 0.746875)"/>
     <use xlink:href="#DejaVuSans-Oblique-5b" transform="translate(61.279297 -14.253076) scale(0.7)"/>
     <use xlink:href="#DejaVuSans-f" transform="translate(102.705078 -14.253076) scale(0.7)"/>
     <use xlink:href="#DejaVuSans-Oblique-48" transform="translate(138.59375 -14.253076) scale(0.7)"/>
     <use xlink:href="#DejaVuSans-3" transform="translate(184.394531 0.746875)"/>
     <use xlink:href="#STIXSizeOneSym-Regular-4" transform="translate(216.181641 5.1375) scale(0.833613)"/>
     <use xlink:href="#DejaVuSans-50" transform="translate(255.193878 0.746875)"/>
     <use xlink:href="#DejaVuSans-12" transform="translate(352.605988 0.746875)"/>
     <use xlink:href="#DejaVuSans-56" transform="translate(386.297394 0.746875)"/>
     <use xlink:href="#DejaVuSans-15" transform="translate(439.354034 42.046875) scale(0.7)"/>
     <use xlink:href="#STIXSizeOneSym-Regular-5" transform="translate(486.624542 5.1375) scale(0.833613)"/>
    </g>
   </g>
   <g id="legend_2">
    <g id="patch_13">
     <path d="M 401.6 356.077656 
L 486.2 356.077656 
Q 488.2 356.077656 488.2 354.077656 
L 488.2 338.275312 
Q 488.2 336.275312 486.2 336.275312 
L 401.6 336.275312 
Q 399.6 336.275312 399.6 338.275312 
L 399.6 354.077656 
Q 399.6 356.077656 401.6 356.077656 
z
" style="fill: #ffffff; opacity: 0.8; stroke: #cccccc; stroke-linejoin: miter"/>
    </g>
    <g id="line2d_48">
     <path d="M 403.6 346.175312 
L 413.6 346.175312 
L 423.6 346.175312 
" style="fill: none; stroke: #1f77b4; stroke-width: 1.5; stroke-linecap: square"/>
    </g>
    <g id="text_28">
     <!-- $a_{x,e}$ $\left(\mathrm{m/s^2}\right)$ -->
     <g transform="translate(431.6 349.675312) scale(0.1 -0.1)">
      <use xlink:href="#DejaVuSans-Oblique-44" transform="translate(0 0.746875)"/>
      <use xlink:href="#DejaVuSans-Oblique-5b" transform="translate(61.279297 -14.253076) scale(0.7)"/>
      <use xlink:href="#DejaVuSans-f" transform="translate(102.705078 -14.253076) scale(0.7)"/>
      <use xlink:href="#DejaVuSans-Oblique-48" transform="translate(138.59375 -14.253076) scale(0.7)"/>
      <use xlink:href="#DejaVuSans-3" transform="translate(184.394531 0.746875)"/>
      <use xlink:href="#STIXSizeOneSym-Regular-4" transform="translate(216.181641 5.1375) scale(0.833613)"/>
      <use xlink:href="#DejaVuSans-50" transform="translate(255.193878 0.746875)"/>
      <use xlink:href="#DejaVuSans-12" transform="translate(352.605988 0.746875)"/>
      <use xlink:href="#DejaVuSans-56" transform="translate(386.297394 0.746875)"/>
      <use xlink:href="#DejaVuSans-15" transform="translate(439.354034 42.046875) scale(0.7)"/>
      <use xlink:href="#STIXSizeOneSym-Regular-5" transform="translate(486.624542 5.1375) scale(0.833613)"/>
     </g>
    </g>
   </g>
  </g>
  <g id="text_29">
   <!-- QCar2 Input Error -->
   <g transform="translate(199.15125 17.181188) scale(0.12 -0.12)">
    <defs>
     <path id="DejaVuSans-34" d="M 2522 4238 
Q 1834 4238 1429 3725 
Q 1025 3213 1025 2328 
Q 1025 1447 1429 934 
Q 1834 422 2522 422 
Q 3209 422 3611 934 
Q 4013 1447 4013 2328 
Q 4013 3213 3611 3725 
Q 3209 4238 2522 4238 
z
M 3406 84 
L 4238 -825 
L 3475 -825 
L 2784 -78 
Q 2681 -84 2626 -87 
Q 2572 -91 2522 -91 
Q 1538 -91 948 567 
Q 359 1225 359 2328 
Q 359 3434 948 4092 
Q 1538 4750 2522 4750 
Q 3503 4750 4090 4092 
Q 4678 3434 4678 2328 
Q 4678 1516 4351 937 
Q 4025 359 3406 84 
z
" transform="scale(0.015625)"/>
     <path id="DejaVuSans-26" d="M 4122 4306 
L 4122 3641 
Q 3803 3938 3442 4084 
Q 3081 4231 2675 4231 
Q 1875 4231 1450 3742 
Q 1025 3253 1025 2328 
Q 1025 1406 1450 917 
Q 1875 428 2675 428 
Q 3081 428 3442 575 
Q 3803 722 4122 1019 
L 4122 359 
Q 3791 134 3420 21 
Q 3050 -91 2638 -91 
Q 1578 -91 968 557 
Q 359 1206 359 2328 
Q 359 3453 968 4101 
Q 1578 4750 2638 4750 
Q 3056 4750 3426 4639 
Q 3797 4528 4122 4306 
z
" transform="scale(0.015625)"/>
     <path id="DejaVuSans-2c" d="M 628 4666 
L 1259 4666 
L 1259 0 
L 628 0 
L 628 4666 
z
" transform="scale(0.015625)"/>
     <path id="DejaVuSans-51" d="M 3513 2113 
L 3513 0 
L 2938 0 
L 2938 2094 
Q 2938 2591 2744 2837 
Q 2550 3084 2163 3084 
Q 1697 3084 1428 2787 
Q 1159 2491 1159 1978 
L 1159 0 
L 581 0 
L 581 3500 
L 1159 3500 
L 1159 2956 
Q 1366 3272 1645 3428 
Q 1925 3584 2291 3584 
Q 2894 3584 3203 3211 
Q 3513 2838 3513 2113 
z
" transform="scale(0.015625)"/>
     <path id="DejaVuSans-53" d="M 1159 525 
L 1159 -1331 
L 581 -1331 
L 581 3500 
L 1159 3500 
L 1159 2969 
Q 1341 3281 1617 3432 
Q 1894 3584 2278 3584 
Q 2916 3584 3314 3078 
Q 3713 2572 3713 1747 
Q 3713 922 3314 415 
Q 2916 -91 2278 -91 
Q 1894 -91 1617 61 
Q 1341 213 1159 525 
z
M 3116 1747 
Q 3116 2381 2855 2742 
Q 2594 3103 2138 3103 
Q 1681 3103 1420 2742 
Q 1159 2381 1159 1747 
Q 1159 1113 1420 752 
Q 1681 391 2138 391 
Q 2594 391 2855 752 
Q 3116 1113 3116 1747 
z
" transform="scale(0.015625)"/>
     <path id="DejaVuSans-58" d="M 544 1381 
L 544 3500 
L 1119 3500 
L 1119 1403 
Q 1119 906 1312 657 
Q 1506 409 1894 409 
Q 2359 409 2629 706 
Q 2900 1003 2900 1516 
L 2900 3500 
L 3475 3500 
L 3475 0 
L 2900 0 
L 2900 538 
Q 2691 219 2414 64 
Q 2138 -91 1772 -91 
Q 1169 -91 856 284 
Q 544 659 544 1381 
z
M 1991 3584 
L 1991 3584 
z
" transform="scale(0.015625)"/>
     <path id="DejaVuSans-28" d="M 628 4666 
L 3578 4666 
L 3578 4134 
L 1259 4134 
L 1259 2753 
L 3481 2753 
L 3481 2222 
L 1259 2222 
L 1259 531 
L 3634 531 
L 3634 0 
L 628 0 
L 628 4666 
z
" transform="scale(0.015625)"/>
     <path id="DejaVuSans-52" d="M 1959 3097 
Q 1497 3097 1228 2736 
Q 959 2375 959 1747 
Q 959 1119 1226 758 
Q 1494 397 1959 397 
Q 2419 397 2687 759 
Q 2956 1122 2956 1747 
Q 2956 2369 2687 2733 
Q 2419 3097 1959 3097 
z
M 1959 3584 
Q 2709 3584 3137 3096 
Q 3566 2609 3566 1747 
Q 3566 888 3137 398 
Q 2709 -91 1959 -91 
Q 1206 -91 779 398 
Q 353 888 353 1747 
Q 353 2609 779 3096 
Q 1206 3584 1959 3584 
z
" transform="scale(0.015625)"/>
    </defs>
    <use xlink:href="#DejaVuSans-34"/>
    <use xlink:href="#DejaVuSans-26" transform="translate(78.71875 0)"/>
    <use xlink:href="#DejaVuSans-44" transform="translate(148.546875 0)"/>
    <use xlink:href="#DejaVuSans-55" transform="translate(209.828125 0)"/>
    <use xlink:href="#DejaVuSans-15" transform="translate(250.9375 0)"/>
    <use xlink:href="#DejaVuSans-3" transform="translate(314.5625 0)"/>
    <use xlink:href="#DejaVuSans-2c" transform="translate(346.34375 0)"/>
    <use xlink:href="#DejaVuSans-51" transform="translate(375.84375 0)"/>
    <use xlink:href="#DejaVuSans-53" transform="translate(439.21875 0)"/>
    <use xlink:href="#DejaVuSans-58" transform="translate(502.703125 0)"/>
    <use xlink:href="#DejaVuSans-57" transform="translate(566.078125 0)"/>
    <use xlink:href="#DejaVuSans-3" transform="translate(605.28125 0)"/>
    <use xlink:href="#DejaVuSans-28" transform="translate(637.0625 0)"/>
    <use xlink:href="#DejaVuSans-55" transform="translate(700.25 0)"/>
    <use xlink:href="#DejaVuSans-55" transform="translate(739.609375 0)"/>
    <use xlink:href="#DejaVuSans-52" transform="translate(778.515625 0)"/>
    <use xlink:href="#DejaVuSans-55" transform="translate(839.703125 0)"/>
   </g>
  </g>
 </g>
 <defs>
  <clipPath id="p0236c6495d">
   <rect x="42.28" y="48.96" width="450.92" height="126.237656"/>
  </clipPath>
  <clipPath id="p19cfacbeb7">
   <rect x="42.28" y="234.84" width="450.92" height="126.237656"/>
  </clipPath>
 </defs>
</svg>
