<?xml version="1.0" encoding="utf-8" standalone="no"?>
<!DOCTYPE svg PUBLIC "-//W3C//DTD SVG 1.1//EN"
  "http://www.w3.org/Graphics/SVG/1.1/DTD/svg11.dtd">
<svg xmlns:xlink="http://www.w3.org/1999/xlink" width="504pt" height="230.4pt" viewBox="0 0 504 230.4" xmlns="http://www.w3.org/2000/svg" version="1.1">
 <metadata>
  <rdf:RDF xmlns:dc="http://purl.org/dc/elements/1.1/" xmlns:cc="http://creativecommons.org/ns#" xmlns:rdf="http://www.w3.org/1999/02/22-rdf-syntax-ns#">
   <cc:Work>
    <dc:type rdf:resource="http://purl.org/dc/dcmitype/StillImage"/>
    <dc:date>2026-07-10T12:41:59.576386</dc:date>
    <dc:format>image/svg+xml</dc:format>
    <dc:creator>
     <cc:Agent>
      <dc:title>Matplotlib v3.11.0, https://matplotlib.org/</dc:title>
     </cc:Agent>
    </dc:creator>
   </cc:Work>
  </rdf:RDF>
 </metadata>
 <defs>
  <style type="text/css">*{stroke-linejoin: round; stroke-linecap: butt}</style>
 </defs>
 <g id="figure_1">
  <g id="patch_1">
   <path d="M 0 230.4 
L 504 230.4 
L 504 0 
L 0 0 
z
" style="fill: #ffffff"/>
  </g>
  <g id="axes_1">
   <g id="patch_2">
    <path d="M 67.402344 188.277656 
L 493.2 188.277656 
L 493.2 26.16 
L 67.402344 26.16 
z
" style="fill: #ffffff"/>
   </g>
   <g id="matplotlib.axis_1">
    <g id="xtick_1">
     <g id="line2d_1">
      <path d="M 86.411185 188.277656 
L 86.411185 26.16 
" clip-path="url(#pd75cee3152)" style="fill: none; stroke: #b0b0b0; stroke-width: 0.8; stroke-linecap: square"/>
     </g>
     <g id="line2d_2">
      <defs>
       <path id="m08cd0a2dee" d="M 0 0 
L 0 3.5 
" style="stroke: #000000; stroke-width: 0.8"/>
      </defs>
      <g>
       <use xlink:href="#m08cd0a2dee" x="86.411185" y="188.277656" style="stroke: #000000; stroke-width: 0.8"/>
      </g>
     </g>
     <g id="text_1">
      <!-- 0 -->
      <g transform="translate(83.229935 202.875313) scale(0.1 -0.1)">
       <defs>
        <path id="DejaVuSans-13" d="M 2034 4250 
Q 1547 4250 1301 3770 
Q 1056 3291 1056 2328 
Q 1056 1369 1301 889 
Q 1547 409 2034 409 
Q 2525 409 2770 889 
Q 3016 1369 3016 2328 
Q 3016 3291 2770 3770 
Q 2525 4250 2034 4250 
z
M 2034 4750 
Q 2819 4750 3233 4129 
Q 3647 3509 3647 2328 
Q 3647 1150 3233 529 
Q 2819 -91 2034 -91 
Q 1250 -91 836 529 
Q 422 1150 422 2328 
Q 422 3509 836 4129 
Q 1250 4750 2034 4750 
z
" transform="scale(0.015625)"/>
       </defs>
       <use xlink:href="#DejaVuSans-13"/>
      </g>
     </g>
    </g>
    <g id="xtick_2">
     <g id="line2d_3">
      <path d="M 150.936545 188.277656 
L 150.936545 26.16 
" clip-path="url(#pd75cee3152)" style="fill: none; stroke: #b0b0b0; stroke-width: 0.8; stroke-linecap: square"/>
     </g>
     <g id="line2d_4">
      <g>
       <use xlink:href="#m08cd0a2dee" x="150.936545" y="188.277656" style="stroke: #000000; stroke-width: 0.8"/>
      </g>
     </g>
     <g id="text_2">
      <!-- 10 -->
      <g transform="translate(144.574045 202.875313) scale(0.1 -0.1)">
       <defs>
        <path id="DejaVuSans-14" d="M 794 531 
L 1825 531 
L 1825 4091 
L 703 3866 
L 703 4441 
L 1819 4666 
L 2450 4666 
L 2450 531 
L 3481 531 
L 3481 0 
L 794 0 
L 794 531 
z
" transform="scale(0.015625)"/>
       </defs>
       <use xlink:href="#DejaVuSans-14"/>
       <use xlink:href="#DejaVuSans-13" transform="translate(63.625 0)"/>
      </g>
     </g>
    </g>
    <g id="xtick_3">
     <g id="line2d_5">
      <path d="M 215.461906 188.277656 
L 215.461906 26.16 
" clip-path="url(#pd75cee3152)" style="fill: none; stroke: #b0b0b0; stroke-width: 0.8; stroke-linecap: square"/>
     </g>
     <g id="line2d_6">
      <g>
       <use xlink:href="#m08cd0a2dee" x="215.461906" y="188.277656" style="stroke: #000000; stroke-width: 0.8"/>
      </g>
     </g>
     <g id="text_3">
      <!-- 20 -->
      <g transform="translate(209.099406 202.875313) scale(0.1 -0.1)">
       <defs>
        <path id="DejaVuSans-15" d="M 1228 531 
L 3431 531 
L 3431 0 
L 469 0 
L 469 531 
Q 828 903 1448 1529 
Q 2069 2156 2228 2338 
Q 2531 2678 2651 2914 
Q 2772 3150 2772 3378 
Q 2772 3750 2511 3984 
Q 2250 4219 1831 4219 
Q 1534 4219 1204 4116 
Q 875 4013 500 3803 
L 500 4441 
Q 881 4594 1212 4672 
Q 1544 4750 1819 4750 
Q 2544 4750 2975 4387 
Q 3406 4025 3406 3419 
Q 3406 3131 3298 2873 
Q 3191 2616 2906 2266 
Q 2828 2175 2409 1742 
Q 1991 1309 1228 531 
z
" transform="scale(0.015625)"/>
       </defs>
       <use xlink:href="#DejaVuSans-15"/>
       <use xlink:href="#DejaVuSans-13" transform="translate(63.625 0)"/>
      </g>
     </g>
    </g>
    <g id="xtick_4">
     <g id="line2d_7">
      <path d="M 279.987267 188.277656 
L 279.987267 26.16 
" clip-path="url(#pd75cee3152)" style="fill: none; stroke: #b0b0b0; stroke-width: 0.8; stroke-linecap: square"/>
     </g>
     <g id="line2d_8">
      <g>
       <use xlink:href="#m08cd0a2dee" x="279.987267" y="188.277656" style="stroke: #000000; stroke-width: 0.8"/>
      </g>
     </g>
     <g id="text_4">
      <!-- 30 -->
      <g transform="translate(273.624767 202.875313) scale(0.1 -0.1)">
       <defs>
        <path id="DejaVuSans-16" d="M 2597 2516 
Q 3050 2419 3304 2112 
Q 3559 1806 3559 1356 
Q 3559 666 3084 287 
Q 2609 -91 1734 -91 
Q 1441 -91 1130 -33 
Q 819 25 488 141 
L 488 750 
Q 750 597 1062 519 
Q 1375 441 1716 441 
Q 2309 441 2620 675 
Q 2931 909 2931 1356 
Q 2931 1769 2642 2001 
Q 2353 2234 1838 2234 
L 1294 2234 
L 1294 2753 
L 1863 2753 
Q 2328 2753 2575 2939 
Q 2822 3125 2822 3475 
Q 2822 3834 2567 4026 
Q 2313 4219 1838 4219 
Q 1578 4219 1281 4162 
Q 984 4106 628 3988 
L 628 4550 
Q 988 4650 1302 4700 
Q 1616 4750 1894 4750 
Q 2613 4750 3031 4423 
Q 3450 4097 3450 3541 
Q 3450 3153 3228 2886 
Q 3006 2619 2597 2516 
z
" transform="scale(0.015625)"/>
       </defs>
       <use xlink:href="#DejaVuSans-16"/>
       <use xlink:href="#DejaVuSans-13" transform="translate(63.625 0)"/>
      </g>
     </g>
    </g>
    <g id="xtick_5">
     <g id="line2d_9">
      <path d="M 344.512627 188.277656 
L 344.512627 26.16 
" clip-path="url(#pd75cee3152)" style="fill: none; stroke: #b0b0b0; stroke-width: 0.8; stroke-linecap: square"/>
     </g>
     <g id="line2d_10">
      <g>
       <use xlink:href="#m08cd0a2dee" x="344.512627" y="188.277656" style="stroke: #000000; stroke-width: 0.8"/>
      </g>
     </g>
     <g id="text_5">
      <!-- 40 -->
      <g transform="translate(338.150127 202.875313) scale(0.1 -0.1)">
       <defs>
        <path id="DejaVuSans-17" d="M 2419 4116 
L 825 1625 
L 2419 1625 
L 2419 4116 
z
M 2253 4666 
L 3047 4666 
L 3047 1625 
L 3713 1625 
L 3713 1100 
L 3047 1100 
L 3047 0 
L 2419 0 
L 2419 1100 
L 313 1100 
L 313 1709 
L 2253 4666 
z
" transform="scale(0.015625)"/>
       </defs>
       <use xlink:href="#DejaVuSans-17"/>
       <use xlink:href="#DejaVuSans-13" transform="translate(63.625 0)"/>
      </g>
     </g>
    </g>
    <g id="xtick_6">
     <g id="line2d_11">
      <path d="M 409.037988 188.277656 
L 409.037988 26.16 
" clip-path="url(#pd75cee3152)" style="fill: none; stroke: #b0b0b0; stroke-width: 0.8; stroke-linecap: square"/>
     </g>
     <g id="line2d_12">
      <g>
       <use xlink:href="#m08cd0a2dee" x="409.037988" y="188.277656" style="stroke: #000000; stroke-width: 0.8"/>
      </g>
     </g>
     <g id="text_6">
      <!-- 50 -->
      <g transform="translate(402.675488 202.875313) scale(0.1 -0.1)">
       <defs>
        <path id="DejaVuSans-18" d="M 691 4666 
L 3169 4666 
L 3169 4134 
L 1269 4134 
L 1269 2991 
Q 1406 3038 1543 3061 
Q 1681 3084 1819 3084 
Q 2600 3084 3056 2656 
Q 3513 2228 3513 1497 
Q 3513 744 3044 326 
Q 2575 -91 1722 -91 
Q 1428 -91 1123 -41 
Q 819 9 494 109 
L 494 744 
Q 775 591 1075 516 
Q 1375 441 1709 441 
Q 2250 441 2565 725 
Q 2881 1009 2881 1497 
Q 2881 1984 2565 2268 
Q 2250 2553 1709 2553 
Q 1456 2553 1204 2497 
Q 953 2441 691 2322 
L 691 4666 
z
" transform="scale(0.015625)"/>
       </defs>
       <use xlink:href="#DejaVuSans-18"/>
       <use xlink:href="#DejaVuSans-13" transform="translate(63.625 0)"/>
      </g>
     </g>
    </g>
    <g id="xtick_7">
     <g id="line2d_13">
      <path d="M 473.563348 188.277656 
L 473.563348 26.16 
" clip-path="url(#pd75cee3152)" style="fill: none; stroke: #b0b0b0; stroke-width: 0.8; stroke-linecap: square"/>
     </g>
     <g id="line2d_14">
      <g>
       <use xlink:href="#m08cd0a2dee" x="473.563348" y="188.277656" style="stroke: #000000; stroke-width: 0.8"/>
      </g>
     </g>
     <g id="text_7">
      <!-- 60 -->
      <g transform="translate(467.200848 202.875313) scale(0.1 -0.1)">
       <defs>
        <path id="DejaVuSans-19" d="M 2113 2584 
Q 1688 2584 1439 2293 
Q 1191 2003 1191 1497 
Q 1191 994 1439 701 
Q 1688 409 2113 409 
Q 2538 409 2786 701 
Q 3034 994 3034 1497 
Q 3034 2003 2786 2293 
Q 2538 2584 2113 2584 
z
M 3366 4563 
L 3366 3988 
Q 3128 4100 2886 4159 
Q 2644 4219 2406 4219 
Q 1781 4219 1451 3797 
Q 1122 3375 1075 2522 
Q 1259 2794 1537 2939 
Q 1816 3084 2150 3084 
Q 2853 3084 3261 2657 
Q 3669 2231 3669 1497 
Q 3669 778 3244 343 
Q 2819 -91 2113 -91 
Q 1303 -91 875 529 
Q 447 1150 447 2328 
Q 447 3434 972 4092 
Q 1497 4750 2381 4750 
Q 2619 4750 2861 4703 
Q 3103 4656 3366 4563 
z
" transform="scale(0.015625)"/>
       </defs>
       <use xlink:href="#DejaVuSans-19"/>
       <use xlink:href="#DejaVuSans-13" transform="translate(63.625 0)"/>
      </g>
     </g>
    </g>
    <g id="text_8">
     <!-- t (s) -->
     <g transform="translate(270.245703 216.875313) scale(0.1 -0.1)">
      <defs>
       <path id="DejaVuSans-57" d="M 1172 4494 
L 1172 3500 
L 2356 3500 
L 2356 3053 
L 1172 3053 
L 1172 1153 
Q 1172 725 1289 603 
Q 1406 481 1766 481 
L 2356 481 
L 2356 0 
L 1766 0 
Q 1100 0 847 248 
Q 594 497 594 1153 
L 594 3053 
L 172 3053 
L 172 3500 
L 594 3500 
L 594 4494 
L 1172 4494 
z
" transform="scale(0.015625)"/>
       <path id="DejaVuSans-3" transform="scale(0.015625)"/>
       <path id="DejaVuSans-b" d="M 1984 4856 
Q 1566 4138 1362 3434 
Q 1159 2731 1159 2009 
Q 1159 1288 1364 580 
Q 1569 -128 1984 -844 
L 1484 -844 
Q 1016 -109 783 600 
Q 550 1309 550 2009 
Q 550 2706 781 3412 
Q 1013 4119 1484 4856 
L 1984 4856 
z
" transform="scale(0.015625)"/>
       <path id="DejaVuSans-56" d="M 2834 3397 
L 2834 2853 
Q 2591 2978 2328 3040 
Q 2066 3103 1784 3103 
Q 1356 3103 1142 2972 
Q 928 2841 928 2578 
Q 928 2378 1081 2264 
Q 1234 2150 1697 2047 
L 1894 2003 
Q 2506 1872 2764 1633 
Q 3022 1394 3022 966 
Q 3022 478 2636 193 
Q 2250 -91 1575 -91 
Q 1294 -91 989 -36 
Q 684 19 347 128 
L 347 722 
Q 666 556 975 473 
Q 1284 391 1588 391 
Q 1994 391 2212 530 
Q 2431 669 2431 922 
Q 2431 1156 2273 1281 
Q 2116 1406 1581 1522 
L 1381 1569 
Q 847 1681 609 1914 
Q 372 2147 372 2553 
Q 372 3047 722 3315 
Q 1072 3584 1716 3584 
Q 2034 3584 2315 3537 
Q 2597 3491 2834 3397 
z
" transform="scale(0.015625)"/>
       <path id="DejaVuSans-c" d="M 513 4856 
L 1013 4856 
Q 1481 4119 1714 3412 
Q 1947 2706 1947 2009 
Q 1947 1309 1714 600 
Q 1481 -109 1013 -844 
L 513 -844 
Q 928 -128 1133 580 
Q 1338 1288 1338 2009 
Q 1338 2731 1133 3434 
Q 928 4138 513 4856 
z
" transform="scale(0.015625)"/>
      </defs>
      <use xlink:href="#DejaVuSans-57"/>
      <use xlink:href="#DejaVuSans-3" transform="translate(39.203125 0)"/>
      <use xlink:href="#DejaVuSans-b" transform="translate(70.984375 0)"/>
      <use xlink:href="#DejaVuSans-56" transform="translate(110 0)"/>
      <use xlink:href="#DejaVuSans-c" transform="translate(162.09375 0)"/>
     </g>
    </g>
   </g>
   <g id="matplotlib.axis_2">
    <g id="ytick_1">
     <g id="line2d_15">
      <path d="M 67.402344 175.883739 
L 493.2 175.883739 
" clip-path="url(#pd75cee3152)" style="fill: none; stroke: #b0b0b0; stroke-width: 0.8; stroke-linecap: square"/>
     </g>
     <g id="line2d_16">
      <defs>
       <path id="m94754b7edb" d="M 0 0 
L -3.5 0 
" style="stroke: #000000; stroke-width: 0.8"/>
      </defs>
      <g>
       <use xlink:href="#m94754b7edb" x="67.402344" y="175.883739" style="stroke: #000000; stroke-width: 0.8"/>
      </g>
     </g>
     <g id="text_9">
      <!-- 0.0050 -->
      <g transform="translate(25.411719 179.682567) scale(0.1 -0.1)">
       <defs>
        <path id="DejaVuSans-11" d="M 684 794 
L 1344 794 
L 1344 0 
L 684 0 
L 684 794 
z
" transform="scale(0.015625)"/>
       </defs>
       <use xlink:href="#DejaVuSans-13"/>
       <use xlink:href="#DejaVuSans-11" transform="translate(63.625 0)"/>
       <use xlink:href="#DejaVuSans-13" transform="translate(95.40625 0)"/>
       <use xlink:href="#DejaVuSans-13" transform="translate(159.03125 0)"/>
       <use xlink:href="#DejaVuSans-18" transform="translate(222.65625 0)"/>
       <use xlink:href="#DejaVuSans-13" transform="translate(286.28125 0)"/>
      </g>
     </g>
    </g>
    <g id="ytick_2">
     <g id="line2d_17">
      <path d="M 67.402344 152.56402 
L 493.2 152.56402 
" clip-path="url(#pd75cee3152)" style="fill: none; stroke: #b0b0b0; stroke-width: 0.8; stroke-linecap: square"/>
     </g>
     <g id="line2d_18">
      <g>
       <use xlink:href="#m94754b7edb" x="67.402344" y="152.56402" style="stroke: #000000; stroke-width: 0.8"/>
      </g>
     </g>
     <g id="text_10">
      <!-- 0.0075 -->
      <g transform="translate(25.411719 156.362849) scale(0.1 -0.1)">
       <defs>
        <path id="DejaVuSans-1a" d="M 525 4666 
L 3525 4666 
L 3525 4397 
L 1831 0 
L 1172 0 
L 2766 4134 
L 525 4134 
L 525 4666 
z
" transform="scale(0.015625)"/>
       </defs>
       <use xlink:href="#DejaVuSans-13"/>
       <use xlink:href="#DejaVuSans-11" transform="translate(63.625 0)"/>
       <use xlink:href="#DejaVuSans-13" transform="translate(95.40625 0)"/>
       <use xlink:href="#DejaVuSans-13" transform="translate(159.03125 0)"/>
       <use xlink:href="#DejaVuSans-1a" transform="translate(222.65625 0)"/>
       <use xlink:href="#DejaVuSans-18" transform="translate(286.28125 0)"/>
      </g>
     </g>
    </g>
    <g id="ytick_3">
     <g id="line2d_19">
      <path d="M 67.402344 129.244302 
L 493.2 129.244302 
" clip-path="url(#pd75cee3152)" style="fill: none; stroke: #b0b0b0; stroke-width: 0.8; stroke-linecap: square"/>
     </g>
     <g id="line2d_20">
      <g>
       <use xlink:href="#m94754b7edb" x="67.402344" y="129.244302" style="stroke: #000000; stroke-width: 0.8"/>
      </g>
     </g>
     <g id="text_11">
      <!-- 0.0100 -->
      <g transform="translate(25.411719 133.04313) scale(0.1 -0.1)">
       <use xlink:href="#DejaVuSans-13"/>
       <use xlink:href="#DejaVuSans-11" transform="translate(63.625 0)"/>
       <use xlink:href="#DejaVuSans-13" transform="translate(95.40625 0)"/>
       <use xlink:href="#DejaVuSans-14" transform="translate(159.03125 0)"/>
       <use xlink:href="#DejaVuSans-13" transform="translate(222.65625 0)"/>
       <use xlink:href="#DejaVuSans-13" transform="translate(286.28125 0)"/>
      </g>
     </g>
    </g>
    <g id="ytick_4">
     <g id="line2d_21">
      <path d="M 67.402344 105.924584 
L 493.2 105.924584 
" clip-path="url(#pd75cee3152)" style="fill: none; stroke: #b0b0b0; stroke-width: 0.8; stroke-linecap: square"/>
     </g>
     <g id="line2d_22">
      <g>
       <use xlink:href="#m94754b7edb" x="67.402344" y="105.924584" style="stroke: #000000; stroke-width: 0.8"/>
      </g>
     </g>
     <g id="text_12">
      <!-- 0.0125 -->
      <g transform="translate(25.411719 109.723412) scale(0.1 -0.1)">
       <use xlink:href="#DejaVuSans-13"/>
       <use xlink:href="#DejaVuSans-11" transform="translate(63.625 0)"/>
       <use xlink:href="#DejaVuSans-13" transform="translate(95.40625 0)"/>
       <use xlink:href="#DejaVuSans-14" transform="translate(159.03125 0)"/>
       <use xlink:href="#DejaVuSans-15" transform="translate(222.65625 0)"/>
       <use xlink:href="#DejaVuSans-18" transform="translate(286.28125 0)"/>
      </g>
     </g>
    </g>
    <g id="ytick_5">
     <g id="line2d_23">
      <path d="M 67.402344 82.604865 
L 493.2 82.604865 
" clip-path="url(#pd75cee3152)" style="fill: none; stroke: #b0b0b0; stroke-width: 0.8; stroke-linecap: square"/>
     </g>
     <g id="line2d_24">
      <g>
       <use xlink:href="#m94754b7edb" x="67.402344" y="82.604865" style="stroke: #000000; stroke-width: 0.8"/>
      </g>
     </g>
     <g id="text_13">
      <!-- 0.0150 -->
      <g transform="translate(25.411719 86.403693) scale(0.1 -0.1)">
       <use xlink:href="#DejaVuSans-13"/>
       <use xlink:href="#DejaVuSans-11" transform="translate(63.625 0)"/>
       <use xlink:href="#DejaVuSans-13" transform="translate(95.40625 0)"/>
       <use xlink:href="#DejaVuSans-14" transform="translate(159.03125 0)"/>
       <use xlink:href="#DejaVuSans-18" transform="translate(222.65625 0)"/>
       <use xlink:href="#DejaVuSans-13" transform="translate(286.28125 0)"/>
      </g>
     </g>
    </g>
    <g id="ytick_6">
     <g id="line2d_25">
      <path d="M 67.402344 59.285147 
L 493.2 59.285147 
" clip-path="url(#pd75cee3152)" style="fill: none; stroke: #b0b0b0; stroke-width: 0.8; stroke-linecap: square"/>
     </g>
     <g id="line2d_26">
      <g>
       <use xlink:href="#m94754b7edb" x="67.402344" y="59.285147" style="stroke: #000000; stroke-width: 0.8"/>
      </g>
     </g>
     <g id="text_14">
      <!-- 0.0175 -->
      <g transform="translate(25.411719 63.083975) scale(0.1 -0.1)">
       <use xlink:href="#DejaVuSans-13"/>
       <use xlink:href="#DejaVuSans-11" transform="translate(63.625 0)"/>
       <use xlink:href="#DejaVuSans-13" transform="translate(95.40625 0)"/>
       <use xlink:href="#DejaVuSans-14" transform="translate(159.03125 0)"/>
       <use xlink:href="#DejaVuSans-1a" transform="translate(222.65625 0)"/>
       <use xlink:href="#DejaVuSans-18" transform="translate(286.28125 0)"/>
      </g>
     </g>
    </g>
    <g id="ytick_7">
     <g id="line2d_27">
      <path d="M 67.402344 35.965429 
L 493.2 35.965429 
" clip-path="url(#pd75cee3152)" style="fill: none; stroke: #b0b0b0; stroke-width: 0.8; stroke-linecap: square"/>
     </g>
     <g id="line2d_28">
      <g>
       <use xlink:href="#m94754b7edb" x="67.402344" y="35.965429" style="stroke: #000000; stroke-width: 0.8"/>
      </g>
     </g>
     <g id="text_15">
      <!-- 0.0200 -->
      <g transform="translate(25.411719 39.764257) scale(0.1 -0.1)">
       <use xlink:href="#DejaVuSans-13"/>
       <use xlink:href="#DejaVuSans-11" transform="translate(63.625 0)"/>
       <use xlink:href="#DejaVuSans-13" transform="translate(95.40625 0)"/>
       <use xlink:href="#DejaVuSans-15" transform="translate(159.03125 0)"/>
       <use xlink:href="#DejaVuSans-13" transform="translate(222.65625 0)"/>
       <use xlink:href="#DejaVuSans-13" transform="translate(286.28125 0)"/>
      </g>
     </g>
    </g>
    <g id="text_16">
     <!-- Time (s) -->
     <g transform="translate(19.009375 127.550078) rotate(-90) scale(0.1 -0.1)">
      <defs>
       <path id="DejaVuSans-37" d="M -19 4666 
L 3928 4666 
L 3928 4134 
L 2272 4134 
L 2272 0 
L 1638 0 
L 1638 4134 
L -19 4134 
L -19 4666 
z
" transform="scale(0.015625)"/>
       <path id="DejaVuSans-4c" d="M 603 3500 
L 1178 3500 
L 1178 0 
L 603 0 
L 603 3500 
z
M 603 4863 
L 1178 4863 
L 1178 4134 
L 603 4134 
L 603 4863 
z
" transform="scale(0.015625)"/>
       <path id="DejaVuSans-50" d="M 3328 2828 
Q 3544 3216 3844 3400 
Q 4144 3584 4550 3584 
Q 5097 3584 5394 3201 
Q 5691 2819 5691 2113 
L 5691 0 
L 5113 0 
L 5113 2094 
Q 5113 2597 4934 2840 
Q 4756 3084 4391 3084 
Q 3944 3084 3684 2787 
Q 3425 2491 3425 1978 
L 3425 0 
L 2847 0 
L 2847 2094 
Q 2847 2600 2669 2842 
Q 2491 3084 2119 3084 
Q 1678 3084 1418 2786 
Q 1159 2488 1159 1978 
L 1159 0 
L 581 0 
L 581 3500 
L 1159 3500 
L 1159 2956 
Q 1356 3278 1631 3431 
Q 1906 3584 2284 3584 
Q 2666 3584 2933 3390 
Q 3200 3197 3328 2828 
z
" transform="scale(0.015625)"/>
       <path id="DejaVuSans-48" d="M 3597 1894 
L 3597 1613 
L 953 1613 
Q 991 1019 1311 708 
Q 1631 397 2203 397 
Q 2534 397 2845 478 
Q 3156 559 3463 722 
L 3463 178 
Q 3153 47 2828 -22 
Q 2503 -91 2169 -91 
Q 1331 -91 842 396 
Q 353 884 353 1716 
Q 353 2575 817 3079 
Q 1281 3584 2069 3584 
Q 2775 3584 3186 3129 
Q 3597 2675 3597 1894 
z
M 3022 2063 
Q 3016 2534 2758 2815 
Q 2500 3097 2075 3097 
Q 1594 3097 1305 2825 
Q 1016 2553 972 2059 
L 3022 2063 
z
" transform="scale(0.015625)"/>
      </defs>
      <use xlink:href="#DejaVuSans-37"/>
      <use xlink:href="#DejaVuSans-4c" transform="translate(58 0)"/>
      <use xlink:href="#DejaVuSans-50" transform="translate(85.78125 0)"/>
      <use xlink:href="#DejaVuSans-48" transform="translate(183.1875 0)"/>
      <use xlink:href="#DejaVuSans-3" transform="translate(244.71875 0)"/>
      <use xlink:href="#DejaVuSans-b" transform="translate(276.5 0)"/>
      <use xlink:href="#DejaVuSans-56" transform="translate(315.515625 0)"/>
      <use xlink:href="#DejaVuSans-c" transform="translate(367.609375 0)"/>
     </g>
    </g>
   </g>
   <g id="line2d_29">
    <path d="M 86.756783 120.561905 
L 87.210728 150.980145 
L 87.660495 164.23414 
L 88.113997 150.727359 
L 88.563901 158.073071 
L 89.017265 105.971223 
L 89.468767 152.82147 
L 89.920659 156.612324 
L 90.369874 155.185157 
L 90.822637 155.39037 
L 91.27437 160.552423 
L 91.726603 154.795251 
L 92.180255 159.446136 
L 92.630511 149.509137 
L 93.082273 156.982641 
L 93.533039 160.966581 
L 93.984628 162.727687 
L 94.437632 156.067575 
L 95.340178 162.249166 
L 95.791969 159.25025 
L 96.242515 157.424782 
L 96.693966 158.921908 
L 97.14608 149.955943 
L 97.598298 150.567852 
L 98.052083 154.965951 
L 98.502406 147.293764 
L 98.953615 153.558373 
L 99.406161 152.082701 
L 99.857569 130.76568 
L 100.308583 156.467741 
L 100.760129 157.309117 
L 101.21201 150.040827 
L 101.663615 160.974044 
L 102.114099 150.228317 
L 102.568493 76.547335 
L 103.020177 142.641014 
L 103.468679 155.308285 
L 103.92218 160.625181 
L 104.3724 158.771729 
L 104.824342 156.003213 
L 105.277916 149.484885 
L 105.728041 164.398311 
L 106.631185 111.830069 
L 107.083868 146.630551 
L 107.533796 130.794597 
L 107.98576 136.763512 
L 108.438117 160.747376 
L 108.891066 156.710266 
L 109.341353 160.462875 
L 109.794293 159.288494 
L 110.248225 160.003943 
L 110.695363 162.953421 
L 111.148205 165.147341 
L 111.598521 166.713493 
L 112.053119 165.569894 
L 112.503104 165.768577 
L 112.955379 171.10786 
L 113.405469 166.270418 
L 113.856933 164.642702 
L 114.310905 164.282645 
L 114.762118 164.345142 
L 115.213635 161.377009 
L 115.666014 117.344716 
L 116.117182 164.875899 
L 116.570052 156.633778 
L 117.022829 164.785418 
L 117.473253 169.248813 
L 117.923344 169.149937 
L 118.379015 158.228847 
L 118.827619 167.60244 
L 119.279052 166.841285 
L 119.730184 140.873379 
L 120.181285 121.375296 
L 120.632865 161.241754 
L 121.085603 154.553659 
L 121.537263 158.080533 
L 121.990835 172.439883 
L 122.439276 169.166727 
L 122.891675 141.417195 
L 123.344997 168.527767 
L 123.796168 170.814032 
L 124.247849 166.835688 
L 124.69875 167.264771 
L 125.150504 162.387219 
L 125.601364 167.724636 
L 126.055896 167.136979 
L 126.50571 173.045263 
L 126.959531 167.9569 
L 127.410399 168.542691 
L 127.859545 168.65276 
L 128.765049 162.939429 
L 129.214149 166.288141 
L 129.669196 168.598659 
L 130.121111 165.773242 
L 130.571585 160.702602 
L 131.021729 159.795931 
L 131.474592 166.807704 
L 131.926773 166.28441 
L 132.377423 176.271779 
L 132.831365 171.411949 
L 133.279354 165.046599 
L 133.732895 163.049499 
L 134.184558 165.545641 
L 134.634836 167.307679 
L 135.085833 165.980321 
L 135.540533 177.410714 
L 135.990875 173.44916 
L 136.443764 175.825906 
L 136.894524 171.784132 
L 137.347672 175.618827 
L 137.798561 174.511607 
L 138.249381 166.440186 
L 138.702135 179.132642 
L 139.151718 174.736409 
L 139.602568 165.341361 
L 140.056599 177.55343 
L 140.506862 173.100297 
L 140.96061 176.100146 
L 141.409298 171.478178 
L 141.86225 173.623591 
L 142.313775 177.381798 
L 142.768404 168.429824 
L 143.219419 98.454811 
L 143.6711 173.736459 
L 144.121386 173.553632 
L 144.575177 177.977849 
L 145.023748 158.609424 
L 145.475769 176.702727 
L 145.928978 166.273216 
L 146.378692 175.583381 
L 146.830917 151.930657 
L 147.280793 172.773821 
L 147.736746 172.663752 
L 148.185822 170.128432 
L 148.637902 169.447497 
L 149.090588 172.710391 
L 149.542129 163.861957 
L 149.992292 171.827973 
L 150.443925 166.020431 
L 150.896767 174.200988 
L 151.347273 145.667913 
L 151.799935 170.099516 
L 152.250524 169.299183 
L 152.701311 168.126667 
L 153.154481 165.238754 
L 153.605012 167.333797 
L 154.058294 164.636172 
L 154.509908 164.091424 
L 154.960183 162.551389 
L 155.41215 165.776973 
L 155.866193 155.540549 
L 156.316209 163.485111 
L 156.76891 143.499179 
L 157.219605 158.988136 
L 157.674502 156.791419 
L 158.123028 162.221182 
L 158.575311 162.389084 
L 159.027278 164.079297 
L 159.478559 160.654097 
L 159.928513 167.590314 
L 160.381753 168.782418 
L 160.833365 159.295957 
L 161.737866 166.268553 
L 162.188638 161.533717 
L 162.639026 165.527918 
L 163.09031 159.48438 
L 163.994823 166.309595 
L 164.447826 119.281185 
L 164.897274 164.316226 
L 165.348743 162.365764 
L 165.801277 138.560996 
L 166.25292 165.620264 
L 166.703846 161.469355 
L 167.158315 162.170812 
L 167.610981 164.55502 
L 168.058481 162.707165 
L 168.510223 159.948909 
L 168.964382 159.064625 
L 169.414692 144.126014 
L 169.865179 159.185888 
L 170.319137 151.259049 
L 170.771095 147.770419 
L 171.221853 160.780956 
L 171.67476 166.636071 
L 172.125647 164.520506 
L 172.576832 158.854748 
L 173.478614 171.050028 
L 173.930903 161.943211 
L 174.382798 162.164282 
L 174.835883 168.596793 
L 175.28981 167.707845 
L 175.739599 168.495119 
L 176.188762 168.366394 
L 176.642546 145.877791 
L 177.09468 168.080961 
L 177.545166 156.289578 
L 177.996938 136.179586 
L 178.44962 152.234746 
L 178.901042 148.927077 
L 179.351677 160.858378 
L 179.802107 165.616533 
L 180.254377 168.966177 
L 180.707905 163.965497 
L 181.159764 80.042495 
L 181.608549 160.285646 
L 182.061029 167.566994 
L 182.513504 166.395412 
L 182.964872 144.461818 
L 183.41661 161.652181 
L 183.870763 167.557667 
L 184.774603 161.161534 
L 185.222273 166.59223 
L 185.676222 160.680215 
L 186.128373 159.470388 
L 186.579154 156.271856 
L 187.031131 167.442001 
L 187.484161 163.950573 
L 187.935853 164.754636 
L 188.386629 158.39395 
L 188.836087 170.463303 
L 189.288612 170.753401 
L 189.741421 166.026027 
L 190.191264 165.834806 
L 190.644553 166.048414 
L 191.096692 148.905623 
L 191.54659 164.824595 
L 191.998085 162.696904 
L 192.449814 148.382329 
L 192.901196 165.819881 
L 193.355084 172.11434 
L 193.804989 165.542843 
L 194.25768 164.639903 
L 194.711042 164.666954 
L 195.160976 170.323385 
L 195.61253 164.055045 
L 196.06372 169.797292 
L 196.517678 165.015817 
L 197.418186 143.918002 
L 197.870506 156.809142 
L 198.321902 156.800747 
L 198.773495 161.918026 
L 199.224763 162.542061 
L 199.67813 168.85984 
L 200.129082 155.722443 
L 200.580965 167.096869 
L 201.034915 163.1036 
L 201.482938 160.575743 
L 201.935825 151.120996 
L 202.38862 161.19698 
L 202.839909 158.823965 
L 203.290168 165.701417 
L 203.752554 116.391406 
L 204.192803 154.562054 
L 204.647174 158.188737 
L 205.097142 121.052551 
L 205.549136 158.637408 
L 205.99928 163.86289 
L 206.904211 166.544658 
L 207.355557 169.680694 
L 207.806915 168.449413 
L 208.259562 165.403857 
L 208.711078 167.486774 
L 209.164348 166.157551 
L 209.612932 165.511128 
L 210.067047 169.176988 
L 210.518207 168.462471 
L 210.968875 169.750653 
L 211.420006 163.259376 
L 211.872971 159.755821 
L 212.324703 167.31141 
L 212.776775 164.381521 
L 213.679519 161.478682 
L 214.130463 167.283427 
L 214.582362 162.526204 
L 215.034851 156.582474 
L 215.487732 168.079095 
L 215.9395 164.202425 
L 216.390372 162.46464 
L 216.839475 169.021212 
L 217.291529 167.150971 
L 217.74276 167.432673 
L 218.196071 162.808839 
L 218.647219 165.142677 
L 219.098721 161.389135 
L 219.552533 162.182938 
L 220.003233 107.6661 
L 220.45572 164.277981 
L 220.905515 162.898387 
L 221.359365 166.329184 
L 221.808698 163.323738 
L 222.26267 157.108567 
L 222.712031 162.809772 
L 223.164495 159.01612 
L 223.617422 157.151475 
L 224.066525 147.52323 
L 224.518271 166.68924 
L 224.972256 163.071885 
L 225.423758 164.384319 
L 225.876633 100.538662 
L 226.327066 161.724006 
L 226.778672 165.79936 
L 227.232245 167.997943 
L 227.68181 168.639701 
L 228.583427 163.439404 
L 229.036362 170.063137 
L 229.48919 164.201493 
L 229.940187 161.548641 
L 230.390903 156.893093 
L 230.842907 161.506666 
L 231.293374 164.515842 
L 231.746909 166.736812 
L 232.197501 168.246997 
L 232.652651 145.026155 
L 233.103176 160.65503 
L 233.554606 150.772133 
L 234.004201 159.961035 
L 234.455736 166.167811 
L 234.908468 166.808637 
L 235.360212 143.529029 
L 235.810476 170.945555 
L 236.26316 167.289023 
L 236.714205 155.514431 
L 237.166868 170.337377 
L 237.619019 168.406504 
L 238.069042 164.740645 
L 238.521561 155.076953 
L 238.973283 139.172905 
L 239.425129 151.109803 
L 239.877217 135.435221 
L 240.326998 133.027693 
L 240.779655 159.178425 
L 241.230419 143.81726 
L 241.68448 156.931337 
L 242.135754 108.177268 
L 242.587968 100.358633 
L 243.037236 151.863496 
L 243.489718 151.264646 
L 243.941408 166.799309 
L 244.393399 156.961187 
L 244.845913 127.165116 
L 245.296528 167.292754 
L 245.749721 161.637256 
L 246.199527 164.627777 
L 246.652447 164.192165 
L 247.104046 171.273897 
L 247.554998 162.090592 
L 248.008035 160.834125 
L 248.458689 175.107658 
L 248.909113 171.676862 
L 249.362939 163.162366 
L 249.812229 151.50344 
L 250.264254 153.525725 
L 250.716959 160.829462 
L 251.620499 163.704316 
L 252.071976 143.917069 
L 252.525233 158.270822 
L 252.974219 165.440236 
L 253.42935 165.452362 
L 254.328747 170.925034 
L 255.231873 165.954202 
L 255.683628 162.285544 
L 256.13686 156.529305 
L 256.587962 157.384673 
L 257.03974 158.760536 
L 257.492607 159.491842 
L 257.945285 161.723073 
L 258.395862 119.131939 
L 258.846238 158.854748 
L 259.297823 163.554137 
L 259.74882 160.441421 
L 260.200143 159.535683 
L 260.652233 151.761822 
L 261.10371 165.438371 
L 261.55774 162.381622 
L 262.007533 165.32457 
L 262.463179 96.263691 
L 262.913226 154.635744 
L 263.814617 165.779771 
L 264.266951 164.873101 
L 264.718868 161.500136 
L 265.171932 166.909378 
L 265.624491 97.928719 
L 266.073908 100.310128 
L 266.524194 166.065204 
L 266.978651 164.699602 
L 267.4296 165.887042 
L 267.879858 160.54123 
L 268.330612 170.568708 
L 268.784845 170.92037 
L 269.237749 125.593367 
L 269.686732 169.074381 
L 270.139522 175.124449 
L 270.591912 175.755947 
L 271.042395 172.527565 
L 271.495553 164.41137 
L 271.945452 168.586533 
L 272.39747 169.391529 
L 273.301144 164.563414 
L 273.750839 173.441698 
L 274.204436 168.413034 
L 274.657229 165.642651 
L 275.107683 166.233107 
L 275.557871 169.204039 
L 276.012137 168.814133 
L 276.462013 174.13476 
L 276.915982 168.189164 
L 277.364966 172.643231 
L 277.818695 175.616961 
L 278.267611 169.265603 
L 278.72237 178.459168 
L 279.171888 174.378218 
L 279.623093 175.373503 
L 280.076023 169.769309 
L 280.52799 109.820842 
L 280.979495 166.548389 
L 281.431806 157.878118 
L 281.881816 157.653316 
L 282.334813 168.761897 
L 282.786707 153.061197 
L 283.236179 169.822478 
L 283.687672 169.313175 
L 284.141324 165.949539 
L 284.593029 167.97369 
L 285.046368 166.096919 
L 285.495819 122.10567 
L 285.948156 166.355302 
L 286.3996 169.464287 
L 286.850593 170.482892 
L 287.304675 166.220047 
L 287.755917 103.907894 
L 288.204882 167.795528 
L 288.659775 165.882378 
L 289.110138 169.425109 
L 289.561046 164.860042 
L 290.01387 167.005456 
L 290.465494 164.99996 
L 290.915171 165.532582 
L 291.369271 159.346327 
L 291.819536 139.220478 
L 292.271456 156.481733 
L 292.721554 160.615853 
L 293.173896 160.59813 
L 293.628716 164.264922 
L 294.079871 156.028398 
L 294.529679 110.145453 
L 294.98235 158.79878 
L 295.434768 124.437642 
L 295.883913 162.266889 
L 296.334722 164.513977 
L 296.789638 125.285547 
L 297.239774 168.276846 
L 298.141514 164.215484 
L 298.593223 138.925716 
L 299.044962 171.885806 
L 299.49787 173.88384 
L 299.948198 173.596541 
L 300.400868 143.286504 
L 300.852102 138.324068 
L 301.303907 149.702225 
L 301.755096 96.699303 
L 302.209881 75.889719 
L 302.658469 167.628559 
L 303.111432 164.748107 
L 303.562094 167.888806 
L 304.0147 163.018717 
L 304.466856 125.065408 
L 304.91671 128.812421 
L 305.369323 157.591752 
L 305.820076 167.30115 
L 306.274444 160.149458 
L 306.725548 105.138243 
L 307.176522 161.010423 
L 307.628629 156.894025 
L 308.080758 160.356537 
L 308.530982 161.700686 
L 308.984808 114.117267 
L 309.434379 130.147242 
L 309.884934 120.759656 
L 310.339719 166.553053 
L 310.79058 164.25093 
L 311.241 68.875148 
L 311.694376 167.773141 
L 312.146441 164.807805 
L 312.597075 159.96943 
L 313.047618 165.749922 
L 313.500774 144.031802 
L 313.950568 165.055927 
L 314.40306 119.987307 
L 314.855948 160.612121 
L 315.306094 155.528423 
L 315.757964 128.121224 
L 316.210239 164.414169 
L 316.661994 161.520658 
L 317.1145 164.541028 
L 317.565539 161.696955 
L 318.016103 164.073701 
L 318.467426 147.167837 
L 318.920444 157.917295 
L 319.37475 160.383588 
L 319.825969 158.955489 
L 320.726484 163.889009 
L 321.17939 73.197691 
L 321.630122 158.778259 
L 322.082948 155.811991 
L 322.53305 140.911623 
L 322.986306 161.472153 
L 323.437295 107.420777 
L 323.889914 113.045493 
L 324.340785 163.231392 
L 324.792989 99.234623 
L 325.243292 158.744679 
L 325.696667 162.651198 
L 326.146178 164.249998 
L 326.599114 163.276166 
L 327.049191 162.945959 
L 327.501059 169.511859 
L 327.952028 164.690274 
L 328.405292 166.001775 
L 328.856813 137.750403 
L 329.307698 161.756654 
L 329.762048 169.982917 
L 330.21309 159.95264 
L 330.663736 163.028977 
L 331.117314 160.383588 
L 331.566184 159.572995 
L 332.922768 164.707997 
L 333.374663 163.971094 
L 333.826479 168.050179 
L 334.278107 175.387495 
L 334.73148 118.983626 
L 335.18204 170.6396 
L 335.630799 173.166525 
L 336.084343 172.772888 
L 336.535721 169.346755 
L 336.986699 161.391933 
L 337.439733 167.018515 
L 337.891629 165.886109 
L 338.34174 165.301251 
L 338.79393 167.008254 
L 339.244279 167.159366 
L 339.700121 155.303621 
L 340.150647 172.916538 
L 340.599909 174.095583 
L 341.053709 138.994743 
L 341.502501 173.145071 
L 341.956458 177.515186 
L 342.408192 176.176634 
L 342.859694 164.384319 
L 343.312021 176.215811 
L 344.212948 165.350688 
L 344.664974 173.116155 
L 345.117907 176.101079 
L 345.571167 170.722619 
L 346.019601 170.864403 
L 346.47201 171.509892 
L 346.923857 175.277426 
L 347.375986 165.691156 
L 347.826793 170.69277 
L 348.731728 174.611415 
L 349.634713 180.441345 
L 350.084989 179.599036 
L 350.537383 164.436555 
L 350.989236 176.522699 
L 351.439679 170.119104 
L 351.89261 171.991212 
L 352.346207 78.275793 
L 352.795084 147.075491 
L 353.246886 165.688358 
L 353.700049 158.29694 
L 354.153552 167.006389 
L 354.60316 166.521338 
L 355.05739 124.241756 
L 355.505854 171.570524 
L 355.957378 161.515994 
L 356.409516 166.983068 
L 356.861702 168.680744 
L 357.311613 168.995094 
L 357.762578 160.966581 
L 358.215658 169.557566 
L 358.66631 155.422085 
L 359.118223 165.729401 
L 360.023278 163.020582 
L 360.475589 171.084541 
L 360.928069 162.370428 
L 361.377501 81.960308 
L 361.827982 165.595079 
L 362.282109 168.821595 
L 362.73442 156.67482 
L 363.185057 170.96048 
L 363.637114 165.011153 
L 364.088261 164.261191 
L 364.541935 169.357016 
L 364.99018 169.169526 
L 365.445165 152.222619 
L 365.893835 168.620113 
L 366.347145 166.509212 
L 366.799031 166.578238 
L 367.252196 162.53833 
L 367.703464 153.805562 
L 368.151923 170.398941 
L 368.603815 167.175223 
L 369.05593 159.908799 
L 369.508567 170.316855 
L 369.96178 165.239687 
L 370.411749 166.115575 
L 370.865699 161.079449 
L 371.315396 165.706081 
L 371.767121 159.600046 
L 372.219511 167.652811 
L 372.669344 158.470438 
L 373.119634 154.408144 
L 373.573455 165.888908 
L 374.026263 168.068835 
L 374.47494 162.535532 
L 374.928451 173.852125 
L 375.380825 173.925815 
L 375.832526 178.29593 
L 376.284335 172.359663 
L 376.733544 168.399042 
L 377.186615 172.146054 
L 377.637035 169.382201 
L 378.088506 165.634256 
L 378.54086 170.459572 
L 378.992625 163.073751 
L 379.446796 172.993026 
L 379.895276 165.266737 
L 380.348319 173.10123 
L 380.8021 166.468169 
L 381.253062 173.062053 
L 381.704915 135.924935 
L 382.156561 168.601457 
L 382.606747 176.165441 
L 383.057416 168.097751 
L 383.960505 172.657222 
L 384.41243 152.475405 
L 384.863951 173.793359 
L 385.315711 175.738224 
L 385.770891 169.114491 
L 386.220058 171.505228 
L 386.671683 171.202072 
L 387.123208 175.338057 
L 387.574187 171.653542 
L 388.025562 162.550457 
L 388.477187 176.035783 
L 388.93178 175.682256 
L 389.382338 176.763358 
L 389.83459 178.706357 
L 390.283631 173.774704 
L 390.734945 167.559532 
L 391.187112 164.885227 
L 392.091767 177.918151 
L 392.542909 178.765123 
L 392.995528 179.947899 
L 393.447714 143.996356 
L 393.897817 150.670459 
L 394.350176 173.411849 
L 394.801106 167.695719 
L 395.253787 172.849377 
L 395.706485 170.04075 
L 396.157322 172.984631 
L 396.60771 162.880664 
L 397.05844 162.335915 
L 397.512831 167.306746 
L 397.964981 162.820965 
L 398.414331 162.692241 
L 398.86578 148.174316 
L 399.31719 166.084793 
L 399.769386 162.707165 
L 400.222134 154.198266 
L 401.126468 169.796359 
L 401.578939 59.249701 
L 402.027899 158.39395 
L 402.482379 164.745309 
L 402.932383 162.944093 
L 403.383244 158.920976 
L 403.83408 158.095458 
L 404.28811 148.766637 
L 404.738912 122.378044 
L 405.190246 165.254611 
L 405.641854 98.797145 
L 406.09398 99.786834 
L 406.54464 124.465625 
L 406.99775 73.295634 
L 407.45054 164.472001 
L 407.901727 149.998851 
L 408.351653 167.635088 
L 408.803818 162.968346 
L 409.254644 164.169778 
L 409.708087 164.625912 
L 410.16041 150.276823 
L 410.609451 160.77536 
L 411.06353 153.091046 
L 411.515483 164.338613 
L 411.964012 71.307861 
L 412.422146 88.234245 
L 412.868404 113.4326 
L 413.321143 126.008458 
L 413.77384 107.529913 
L 414.225465 160.148526 
L 414.674732 137.275613 
L 415.126249 160.942329 
L 415.581397 33.528984 
L 416.033132 164.077432 
L 416.48112 157.310049 
L 416.932799 157.1095 
L 417.386246 159.455464 
L 417.838982 148.723729 
L 418.289568 157.675703 
L 418.739003 154.8251 
L 419.19384 158.423799 
L 419.643406 156.445354 
L 420.095576 160.956321 
L 420.547748 163.074684 
L 420.999715 166.326385 
L 421.45087 158.909782 
L 421.901741 162.062608 
L 422.356095 134.51829 
L 422.807224 159.481582 
L 423.257914 162.224913 
L 423.709611 82.212161 
L 424.162387 163.784536 
L 424.614088 169.346755 
L 425.065425 150.365437 
L 425.517797 163.878748 
L 425.966304 149.828151 
L 426.42029 157.453699 
L 426.870256 150.078138 
L 427.322751 161.466556 
L 427.77429 159.207342 
L 428.226565 53.191238 
L 428.677103 155.545213 
L 429.130221 163.563465 
L 429.583207 133.271151 
L 430.034043 131.008206 
L 430.482727 159.491842 
L 430.935716 164.003741 
L 431.387603 156.922942 
L 431.838896 155.204745 
L 432.293209 159.803394 
L 432.744003 156.076903 
L 433.194384 155.124525 
L 433.646111 142.451658 
L 434.099073 138.237318 
L 434.54922 162.748208 
L 434.999681 143.088752 
L 435.453441 128.889842 
L 435.902937 160.998296 
L 436.35839 164.540095 
L 436.808536 170.753401 
L 437.259924 164.680946 
L 437.711131 167.258241 
L 438.163142 170.901714 
L 438.616773 146.635215 
L 439.067105 166.539061 
L 439.519066 169.866319 
L 439.970791 169.837402 
L 440.419974 160.74551 
L 440.874476 166.55212 
L 441.325368 169.048263 
L 441.778179 167.917723 
L 442.227311 160.197031 
L 442.680239 168.571608 
L 443.13375 169.996909 
L 444.033474 163.457127 
L 444.487326 167.079146 
L 444.937326 166.388882 
L 445.388509 164.620315 
L 445.841004 166.333848 
L 446.292989 171.05096 
L 446.745359 164.948656 
L 447.199161 79.563974 
L 447.650083 85.656017 
L 448.099697 171.593843 
L 448.551383 167.428009 
L 449.005301 171.800922 
L 449.454381 155.923925 
L 449.90868 159.722241 
L 450.358029 171.623693 
L 450.810295 165.554969 
L 451.262944 163.860092 
L 451.715047 169.734795 
L 452.166674 145.345168 
L 452.616674 168.095886 
L 453.06886 166.673383 
L 453.519454 171.758014 
L 453.970613 136.113358 
L 454.422158 170.493153 
L 454.876268 172.646029 
L 455.328376 170.155483 
L 455.777479 165.9598 
L 456.230887 172.230938 
L 456.680678 172.384848 
L 457.134573 169.044532 
L 458.038284 164.1306 
L 458.487261 169.76651 
L 458.939505 165.648248 
L 459.392829 170.369092 
L 459.846114 93.716245 
L 460.296469 165.79283 
L 460.747356 168.124802 
L 461.200256 132.423246 
L 461.650489 165.865588 
L 462.103251 167.379504 
L 462.552306 168.358932 
L 463.005143 169.00722 
L 463.456441 159.420018 
L 463.909094 164.964514 
L 464.362302 98.074234 
L 464.81109 161.831276 
L 465.262608 65.627177 
L 465.713696 159.961968 
L 466.167495 164.797545 
L 466.617573 156.848319 
L 467.069826 167.659341 
L 467.521368 161.948808 
L 467.972403 163.393697 
L 468.426553 166.046549 
L 468.878517 101.131915 
L 469.331409 151.679737 
L 469.779108 45.834333 
L 470.232382 161.810755 
L 470.683101 157.340831 
L 471.13521 163.690325 
L 471.585931 87.17553 
L 472.038716 168.476463 
L 472.489951 170.350436 
L 472.942905 180.908672 
L 473.393619 176.005001 
L 473.845561 164.236939 
L 473.845561 164.236939 
" clip-path="url(#pd75cee3152)" style="fill: none; stroke: #1f77b4; stroke-width: 1.5; stroke-linecap: square"/>
   </g>
   <g id="patch_3">
    <path d="M 67.402344 188.277656 
L 67.402344 26.16 
" style="fill: none; stroke: #000000; stroke-width: 0.8; stroke-linejoin: miter; stroke-linecap: square"/>
   </g>
   <g id="patch_4">
    <path d="M 493.2 188.277656 
L 493.2 26.16 
" style="fill: none; stroke: #000000; stroke-width: 0.8; stroke-linejoin: miter; stroke-linecap: square"/>
   </g>
   <g id="patch_5">
    <path d="M 67.402344 188.277656 
L 493.2 188.277656 
" style="fill: none; stroke: #000000; stroke-width: 0.8; stroke-linejoin: miter; stroke-linecap: square"/>
   </g>
   <g id="patch_6">
    <path d="M 67.402344 26.16 
L 493.2 26.16 
" style="fill: none; stroke: #000000; stroke-width: 0.8; stroke-linejoin: miter; stroke-linecap: square"/>
   </g>
   <g id="text_17">
    <!-- Computational Time -->
    <g transform="translate(219.528672 20.16) scale(0.12 -0.12)">
     <defs>
      <path id="DejaVuSans-26" d="M 4122 4306 
L 4122 3641 
Q 3803 3938 3442 4084 
Q 3081 4231 2675 4231 
Q 1875 4231 1450 3742 
Q 1025 3253 1025 2328 
Q 1025 1406 1450 917 
Q 1875 428 2675 428 
Q 3081 428 3442 575 
Q 3803 722 4122 1019 
L 4122 359 
Q 3791 134 3420 21 
Q 3050 -91 2638 -91 
Q 1578 -91 968 557 
Q 359 1206 359 2328 
Q 359 3453 968 4101 
Q 1578 4750 2638 4750 
Q 3056 4750 3426 4639 
Q 3797 4528 4122 4306 
z
" transform="scale(0.015625)"/>
      <path id="DejaVuSans-52" d="M 1959 3097 
Q 1497 3097 1228 2736 
Q 959 2375 959 1747 
Q 959 1119 1226 758 
Q 1494 397 1959 397 
Q 2419 397 2687 759 
Q 2956 1122 2956 1747 
Q 2956 2369 2687 2733 
Q 2419 3097 1959 3097 
z
M 1959 3584 
Q 2709 3584 3137 3096 
Q 3566 2609 3566 1747 
Q 3566 888 3137 398 
Q 2709 -91 1959 -91 
Q 1206 -91 779 398 
Q 353 888 353 1747 
Q 353 2609 779 3096 
Q 1206 3584 1959 3584 
z
" transform="scale(0.015625)"/>
      <path id="DejaVuSans-53" d="M 1159 525 
L 1159 -1331 
L 581 -1331 
L 581 3500 
L 1159 3500 
L 1159 2969 
Q 1341 3281 1617 3432 
Q 1894 3584 2278 3584 
Q 2916 3584 3314 3078 
Q 3713 2572 3713 1747 
Q 3713 922 3314 415 
Q 2916 -91 2278 -91 
Q 1894 -91 1617 61 
Q 1341 213 1159 525 
z
M 3116 1747 
Q 3116 2381 2855 2742 
Q 2594 3103 2138 3103 
Q 1681 3103 1420 2742 
Q 1159 2381 1159 1747 
Q 1159 1113 1420 752 
Q 1681 391 2138 391 
Q 2594 391 2855 752 
Q 3116 1113 3116 1747 
z
" transform="scale(0.015625)"/>
      <path id="DejaVuSans-58" d="M 544 1381 
L 544 3500 
L 1119 3500 
L 1119 1403 
Q 1119 906 1312 657 
Q 1506 409 1894 409 
Q 2359 409 2629 706 
Q 2900 1003 2900 1516 
L 2900 3500 
L 3475 3500 
L 3475 0 
L 2900 0 
L 2900 538 
Q 2691 219 2414 64 
Q 2138 -91 1772 -91 
Q 1169 -91 856 284 
Q 544 659 544 1381 
z
M 1991 3584 
L 1991 3584 
z
" transform="scale(0.015625)"/>
      <path id="DejaVuSans-44" d="M 2194 1759 
Q 1497 1759 1228 1600 
Q 959 1441 959 1056 
Q 959 750 1161 570 
Q 1363 391 1709 391 
Q 2188 391 2477 730 
Q 2766 1069 2766 1631 
L 2766 1759 
L 2194 1759 
z
M 3341 1997 
L 3341 0 
L 2766 0 
L 2766 531 
Q 2569 213 2275 61 
Q 1981 -91 1556 -91 
Q 1019 -91 701 211 
Q 384 513 384 1019 
Q 384 1609 779 1909 
Q 1175 2209 1959 2209 
L 2766 2209 
L 2766 2266 
Q 2766 2663 2505 2880 
Q 2244 3097 1772 3097 
Q 1472 3097 1187 3025 
Q 903 2953 641 2809 
L 641 3341 
Q 956 3463 1253 3523 
Q 1550 3584 1831 3584 
Q 2591 3584 2966 3190 
Q 3341 2797 3341 1997 
z
" transform="scale(0.015625)"/>
      <path id="DejaVuSans-51" d="M 3513 2113 
L 3513 0 
L 2938 0 
L 2938 2094 
Q 2938 2591 2744 2837 
Q 2550 3084 2163 3084 
Q 1697 3084 1428 2787 
Q 1159 2491 1159 1978 
L 1159 0 
L 581 0 
L 581 3500 
L 1159 3500 
L 1159 2956 
Q 1366 3272 1645 3428 
Q 1925 3584 2291 3584 
Q 2894 3584 3203 3211 
Q 3513 2838 3513 2113 
z
" transform="scale(0.015625)"/>
      <path id="DejaVuSans-4f" d="M 603 4863 
L 1178 4863 
L 1178 0 
L 603 0 
L 603 4863 
z
" transform="scale(0.015625)"/>
     </defs>
     <use xlink:href="#DejaVuSans-26"/>
     <use xlink:href="#DejaVuSans-52" transform="translate(69.828125 0)"/>
     <use xlink:href="#DejaVuSans-50" transform="translate(131.015625 0)"/>
     <use xlink:href="#DejaVuSans-53" transform="translate(228.421875 0)"/>
     <use xlink:href="#DejaVuSans-58" transform="translate(291.90625 0)"/>
     <use xlink:href="#DejaVuSans-57" transform="translate(355.28125 0)"/>
     <use xlink:href="#DejaVuSans-44" transform="translate(394.484375 0)"/>
     <use xlink:href="#DejaVuSans-57" transform="translate(455.765625 0)"/>
     <use xlink:href="#DejaVuSans-4c" transform="translate(494.96875 0)"/>
     <use xlink:href="#DejaVuSans-52" transform="translate(522.75 0)"/>
     <use xlink:href="#DejaVuSans-51" transform="translate(583.9375 0)"/>
     <use xlink:href="#DejaVuSans-44" transform="translate(647.3125 0)"/>
     <use xlink:href="#DejaVuSans-4f" transform="translate(708.59375 0)"/>
     <use xlink:href="#DejaVuSans-3" transform="translate(736.375 0)"/>
     <use xlink:href="#DejaVuSans-37" transform="translate(768.15625 0)"/>
     <use xlink:href="#DejaVuSans-4c" transform="translate(826.15625 0)"/>
     <use xlink:href="#DejaVuSans-50" transform="translate(853.9375 0)"/>
     <use xlink:href="#DejaVuSans-48" transform="translate(951.34375 0)"/>
    </g>
   </g>
   <g id="legend_1">
    <g id="patch_7">
     <path d="M 74.402344 49.160781 
L 129.002344 49.160781 
Q 131.002344 49.160781 131.002344 47.160781 
L 131.002344 33.16 
Q 131.002344 31.16 129.002344 31.16 
L 74.402344 31.16 
Q 72.402344 31.16 72.402344 33.16 
L 72.402344 47.160781 
Q 72.402344 49.160781 74.402344 49.160781 
z
" style="fill: #ffffff; opacity: 0.8; stroke: #cccccc; stroke-linejoin: miter"/>
    </g>
    <g id="line2d_30">
     <path d="M 76.402344 39.258438 
L 86.402344 39.258438 
L 96.402344 39.258438 
" style="fill: none; stroke: #1f77b4; stroke-width: 1.5; stroke-linecap: square"/>
    </g>
    <g id="text_18">
     <!-- $t_{solve}$ -->
     <g transform="translate(104.402344 42.758438) scale(0.1 -0.1)">
      <defs>
       <path id="DejaVuSans-Oblique-57" d="M 2706 3500 
L 2619 3053 
L 1472 3053 
L 1100 1153 
Q 1081 1047 1072 975 
Q 1063 903 1063 863 
Q 1063 663 1183 572 
Q 1303 481 1569 481 
L 2150 481 
L 2053 0 
L 1503 0 
Q 991 0 739 200 
Q 488 400 488 806 
Q 488 878 497 964 
Q 506 1050 525 1153 
L 897 3053 
L 409 3053 
L 500 3500 
L 978 3500 
L 1172 4494 
L 1747 4494 
L 1556 3500 
L 2706 3500 
z
" transform="scale(0.015625)"/>
       <path id="DejaVuSans-Oblique-56" d="M 3200 3397 
L 3091 2853 
Q 2863 2978 2609 3040 
Q 2356 3103 2088 3103 
Q 1634 3103 1373 2948 
Q 1113 2794 1113 2528 
Q 1113 2219 1719 2053 
Q 1766 2041 1788 2034 
L 1972 1978 
Q 2547 1819 2739 1644 
Q 2931 1469 2931 1166 
Q 2931 609 2489 259 
Q 2047 -91 1331 -91 
Q 1053 -91 747 -37 
Q 441 16 72 128 
L 184 722 
Q 500 559 806 475 
Q 1113 391 1394 391 
Q 1816 391 2080 572 
Q 2344 753 2344 1031 
Q 2344 1331 1650 1516 
L 1591 1531 
L 1394 1581 
Q 956 1697 753 1886 
Q 550 2075 550 2369 
Q 550 2928 970 3256 
Q 1391 3584 2113 3584 
Q 2397 3584 2667 3537 
Q 2938 3491 3200 3397 
z
" transform="scale(0.015625)"/>
       <path id="DejaVuSans-Oblique-52" d="M 1625 -91 
Q 1009 -91 651 289 
Q 294 669 294 1325 
Q 294 1706 417 2101 
Q 541 2497 738 2766 
Q 1047 3184 1428 3384 
Q 1809 3584 2291 3584 
Q 2888 3584 3255 3212 
Q 3622 2841 3622 2241 
Q 3622 1825 3500 1412 
Q 3378 1000 3181 728 
Q 2875 309 2494 109 
Q 2113 -91 1625 -91 
z
M 891 1344 
Q 891 869 1089 633 
Q 1288 397 1691 397 
Q 2269 397 2648 901 
Q 3028 1406 3028 2181 
Q 3028 2634 2825 2865 
Q 2622 3097 2228 3097 
Q 1903 3097 1650 2945 
Q 1397 2794 1197 2484 
Q 1050 2253 970 1956 
Q 891 1659 891 1344 
z
" transform="scale(0.015625)"/>
       <path id="DejaVuSans-Oblique-4f" d="M 1172 4863 
L 1747 4863 
L 800 0 
L 225 0 
L 1172 4863 
z
" transform="scale(0.015625)"/>
       <path id="DejaVuSans-Oblique-59" d="M 459 3500 
L 1069 3500 
L 1581 525 
L 3256 3500 
L 3866 3500 
L 1875 0 
L 1100 0 
L 459 3500 
z
" transform="scale(0.015625)"/>
       <path id="DejaVuSans-Oblique-48" d="M 3078 2063 
Q 3088 2113 3092 2166 
Q 3097 2219 3097 2272 
Q 3097 2653 2873 2875 
Q 2650 3097 2266 3097 
Q 1838 3097 1509 2826 
Q 1181 2556 1013 2059 
L 3078 2063 
z
M 3578 1613 
L 903 1613 
Q 884 1494 878 1425 
Q 872 1356 872 1306 
Q 872 872 1139 634 
Q 1406 397 1894 397 
Q 2269 397 2603 481 
Q 2938 566 3225 728 
L 3116 159 
Q 2806 34 2476 -28 
Q 2147 -91 1806 -91 
Q 1078 -91 686 257 
Q 294 606 294 1247 
Q 294 1794 489 2264 
Q 684 2734 1063 3103 
Q 1306 3334 1642 3459 
Q 1978 3584 2356 3584 
Q 2950 3584 3301 3228 
Q 3653 2872 3653 2272 
Q 3653 2128 3634 1964 
Q 3616 1800 3578 1613 
z
" transform="scale(0.015625)"/>
      </defs>
      <use xlink:href="#DejaVuSans-Oblique-57" transform="translate(0 0.78125)"/>
      <use xlink:href="#DejaVuSans-Oblique-56" transform="translate(39.208984 -14.218701) scale(0.7)"/>
      <use xlink:href="#DejaVuSans-Oblique-52" transform="translate(75.678711 -14.218701) scale(0.7)"/>
      <use xlink:href="#DejaVuSans-Oblique-4f" transform="translate(118.505859 -14.218701) scale(0.7)"/>
      <use xlink:href="#DejaVuSans-Oblique-59" transform="translate(137.954102 -14.218701) scale(0.7)"/>
      <use xlink:href="#DejaVuSans-Oblique-48" transform="translate(179.379883 -14.218701) scale(0.7)"/>
     </g>
    </g>
   </g>
  </g>
 </g>
 <defs>
  <clipPath id="pd75cee3152">
   <rect x="67.402344" y="26.16" width="425.797656" height="162.117656"/>
  </clipPath>
 </defs>
</svg>
