<?xml version="1.0" encoding="utf-8" standalone="no"?>
<!DOCTYPE svg PUBLIC "-//W3C//DTD SVG 1.1//EN"
  "http://www.w3.org/Graphics/SVG/1.1/DTD/svg11.dtd">
<svg xmlns:xlink="http://www.w3.org/1999/xlink" width="336.771564pt" height="337.72pt" viewBox="0 0 336.771564 337.72" xmlns="http://www.w3.org/2000/svg" version="1.1">
 <metadata>
  <rdf:RDF xmlns:dc="http://purl.org/dc/elements/1.1/" xmlns:cc="http://creativecommons.org/ns#" xmlns:rdf="http://www.w3.org/1999/02/22-rdf-syntax-ns#">
   <cc:Work>
    <dc:type rdf:resource="http://purl.org/dc/dcmitype/StillImage"/>
    <dc:date>2026-07-08T14:03:07.908638</dc:date>
    <dc:format>image/svg+xml</dc:format>
    <dc:creator>
     <cc:Agent>
      <dc:title>Matplotlib v3.11.0, https://matplotlib.org/</dc:title>
     </cc:Agent>
    </dc:creator>
   </cc:Work>
  </rdf:RDF>
 </metadata>
 <defs>
  <style type="text/css">*{stroke-linejoin: round; stroke-linecap: butt}</style>
 </defs>
 <g id="figure_1">
  <g id="patch_1">
   <path d="M 0 337.72 
L 336.771564 337.72 
L 336.771564 0 
L 0 0 
z
" style="fill: #ffffff"/>
  </g>
  <g id="axes_1">
   <g id="patch_2">
    <path d="M 52.482813 299.52 
L 329.571564 299.52 
L 329.571564 22.32 
L 52.482813 22.32 
z
" style="fill: #ffffff"/>
   </g>
   <g id="patch_3">
    <path d="M 85.241356 192.575667 
L 85.241356 129.264333 
L 296.813021 129.264333 
L 296.813021 192.575667 
z
" clip-path="url(#p6053dd58ff)" style="fill: #808080; fill-opacity: 0.2; stroke: #ff0000; stroke-width: 0.25; stroke-linejoin: miter"/>
   </g>
   <g id="patch_4">
    <path d="M 90.043016 205.584533 
L 82.108001 142.772428 
L 292.011361 116.255467 
L 299.946375 179.067572 
z
" clip-path="url(#p6053dd58ff)" style="fill: #808080; fill-opacity: 0.2; stroke: #ff0000; stroke-width: 0.25; stroke-linejoin: miter"/>
   </g>
   <g id="patch_5">
    <path d="M 96.437256 217.889012 
L 80.692368 156.566721 
L 285.617121 103.950988 
L 301.362009 165.273279 
z
" clip-path="url(#p6053dd58ff)" style="fill: #808080; fill-opacity: 0.2; stroke: #ff0000; stroke-width: 0.25; stroke-linejoin: miter"/>
   </g>
   <g id="patch_6">
    <path d="M 104.323237 229.295057 
L 81.01678 170.429668 
L 277.73114 92.544943 
L 301.037596 151.410332 
z
" clip-path="url(#p6053dd58ff)" style="fill: #808080; fill-opacity: 0.2; stroke: #ff0000; stroke-width: 0.25; stroke-linejoin: miter"/>
   </g>
   <g id="patch_7">
    <path d="M 113.57659 239.622786 
L 83.076123 184.142642 
L 268.477787 82.217214 
L 298.978254 137.697358 
z
" clip-path="url(#p6053dd58ff)" style="fill: #808080; fill-opacity: 0.2; stroke: #ff0000; stroke-width: 0.25; stroke-linejoin: miter"/>
   </g>
   <g id="patch_8">
    <path d="M 124.051386 248.709325 
L 86.837918 197.48938 
L 258.002991 73.130675 
L 295.216459 124.35062 
z
" clip-path="url(#p6053dd58ff)" style="fill: #808080; fill-opacity: 0.2; stroke: #ff0000; stroke-width: 0.25; stroke-linejoin: miter"/>
   </g>
   <g id="patch_9">
    <path d="M 135.58243 256.411374 
L 92.24284 210.259398 
L 246.471947 65.428626 
L 289.811537 111.580602 
z
" clip-path="url(#p6053dd58ff)" style="fill: #808080; fill-opacity: 0.2; stroke: #ff0000; stroke-width: 0.25; stroke-linejoin: miter"/>
   </g>
   <g id="patch_10">
    <path d="M 147.987871 262.607466 
L 99.20565 222.251304 
L 234.066506 59.232534 
L 282.848726 99.588696 
z
" clip-path="url(#p6053dd58ff)" style="fill: #808080; fill-opacity: 0.2; stroke: #ff0000; stroke-width: 0.25; stroke-linejoin: miter"/>
   </g>
   <g id="patch_11">
    <path d="M 161.072068 267.199887 
L 107.616541 233.275978 
L 220.982309 54.640113 
L 274.437835 88.564022 
z
" clip-path="url(#p6053dd58ff)" style="fill: #808080; fill-opacity: 0.2; stroke: #ff0000; stroke-width: 0.25; stroke-linejoin: miter"/>
   </g>
   <g id="patch_12">
    <path d="M 174.628675 270.116211 
L 117.342868 243.159556 
L 207.425702 51.723789 
L 264.711509 78.680444 
z
" clip-path="url(#p6053dd58ff)" style="fill: #808080; fill-opacity: 0.2; stroke: #ff0000; stroke-width: 0.25; stroke-linejoin: miter"/>
   </g>
   <g id="patch_13">
    <path d="M 188.443896 271.310445 
L 128.23124 251.746167 
L 193.610481 50.529555 
L 253.823137 70.093833 
z
" clip-path="url(#p6053dd58ff)" style="fill: #808080; fill-opacity: 0.2; stroke: #ff0000; stroke-width: 0.25; stroke-linejoin: miter"/>
   </g>
   <g id="patch_14">
    <path d="M 202.299858 270.763755 
L 140.109942 258.900394 
L 179.754519 51.076245 
L 241.944435 62.939606 
z
" clip-path="url(#p6053dd58ff)" style="fill: #808080; fill-opacity: 0.2; stroke: #ff0000; stroke-width: 0.25; stroke-linejoin: miter"/>
   </g>
   <g id="patch_15">
    <path d="M 215.978042 268.484764 
L 152.79164 264.509413 
L 166.076334 53.355236 
L 229.262737 57.330587 
z
" clip-path="url(#p6053dd58ff)" style="fill: #808080; fill-opacity: 0.2; stroke: #ff0000; stroke-width: 0.25; stroke-linejoin: miter"/>
   </g>
   <g id="patch_16">
    <path d="M 229.262737 264.509413 
L 166.076334 268.484764 
L 152.79164 57.330587 
L 215.978042 53.355236 
z
" clip-path="url(#p6053dd58ff)" style="fill: #808080; fill-opacity: 0.2; stroke: #ff0000; stroke-width: 0.25; stroke-linejoin: miter"/>
   </g>
   <g id="patch_17">
    <path d="M 241.944435 258.900394 
L 179.754519 270.763755 
L 140.109942 62.939606 
L 202.299858 51.076245 
z
" clip-path="url(#p6053dd58ff)" style="fill: #808080; fill-opacity: 0.2; stroke: #ff0000; stroke-width: 0.25; stroke-linejoin: miter"/>
   </g>
   <g id="patch_18">
    <path d="M 253.823137 251.746167 
L 193.610481 271.310445 
L 128.23124 70.093833 
L 188.443896 50.529555 
z
" clip-path="url(#p6053dd58ff)" style="fill: #808080; fill-opacity: 0.2; stroke: #ff0000; stroke-width: 0.25; stroke-linejoin: miter"/>
   </g>
   <g id="patch_19">
    <path d="M 264.711509 243.159556 
L 207.425702 270.116211 
L 117.342868 78.680444 
L 174.628675 51.723789 
z
" clip-path="url(#p6053dd58ff)" style="fill: #808080; fill-opacity: 0.2; stroke: #ff0000; stroke-width: 0.25; stroke-linejoin: miter"/>
   </g>
   <g id="patch_20">
    <path d="M 274.437835 233.275978 
L 220.982309 267.199887 
L 107.616541 88.564022 
L 161.072068 54.640113 
z
" clip-path="url(#p6053dd58ff)" style="fill: #808080; fill-opacity: 0.2; stroke: #ff0000; stroke-width: 0.25; stroke-linejoin: miter"/>
   </g>
   <g id="patch_21">
    <path d="M 282.848726 222.251304 
L 234.066506 262.607466 
L 99.20565 99.588696 
L 147.987871 59.232534 
z
" clip-path="url(#p6053dd58ff)" style="fill: #808080; fill-opacity: 0.2; stroke: #ff0000; stroke-width: 0.25; stroke-linejoin: miter"/>
   </g>
   <g id="patch_22">
    <path d="M 289.811537 210.259398 
L 246.471947 256.411374 
L 92.24284 111.580602 
L 135.58243 65.428626 
z
" clip-path="url(#p6053dd58ff)" style="fill: #808080; fill-opacity: 0.2; stroke: #ff0000; stroke-width: 0.25; stroke-linejoin: miter"/>
   </g>
   <g id="patch_23">
    <path d="M 295.216459 197.48938 
L 258.002991 248.709325 
L 86.837918 124.35062 
L 124.051386 73.130675 
z
" clip-path="url(#p6053dd58ff)" style="fill: #808080; fill-opacity: 0.2; stroke: #ff0000; stroke-width: 0.25; stroke-linejoin: miter"/>
   </g>
   <g id="patch_24">
    <path d="M 298.978254 184.142642 
L 268.477787 239.622786 
L 83.076123 137.697358 
L 113.57659 82.217214 
z
" clip-path="url(#p6053dd58ff)" style="fill: #808080; fill-opacity: 0.2; stroke: #ff0000; stroke-width: 0.25; stroke-linejoin: miter"/>
   </g>
   <g id="patch_25">
    <path d="M 301.037596 170.429668 
L 277.73114 229.295057 
L 81.01678 151.410332 
L 104.323237 92.544943 
z
" clip-path="url(#p6053dd58ff)" style="fill: #808080; fill-opacity: 0.2; stroke: #ff0000; stroke-width: 0.25; stroke-linejoin: miter"/>
   </g>
   <g id="patch_26">
    <path d="M 301.362009 156.566721 
L 285.617121 217.889012 
L 80.692368 165.273279 
L 96.437256 103.950988 
z
" clip-path="url(#p6053dd58ff)" style="fill: #808080; fill-opacity: 0.2; stroke: #ff0000; stroke-width: 0.25; stroke-linejoin: miter"/>
   </g>
   <g id="patch_27">
    <path d="M 299.946375 142.772428 
L 292.011361 205.584533 
L 82.108001 179.067572 
L 90.043016 116.255467 
z
" clip-path="url(#p6053dd58ff)" style="fill: #808080; fill-opacity: 0.2; stroke: #ff0000; stroke-width: 0.25; stroke-linejoin: miter"/>
   </g>
   <g id="patch_28">
    <path d="M 296.813021 129.264333 
L 296.813021 192.575667 
L 85.241356 192.575667 
L 85.241356 129.264333 
z
" clip-path="url(#p6053dd58ff)" style="fill: #808080; fill-opacity: 0.2; stroke: #ff0000; stroke-width: 0.25; stroke-linejoin: miter"/>
   </g>
   <g id="patch_29">
    <path d="M 292.011361 116.255467 
L 299.946375 179.067572 
L 90.043016 205.584533 
L 82.108001 142.772428 
z
" clip-path="url(#p6053dd58ff)" style="fill: #808080; fill-opacity: 0.2; stroke: #ff0000; stroke-width: 0.25; stroke-linejoin: miter"/>
   </g>
   <g id="patch_30">
    <path d="M 285.617121 103.950988 
L 301.362009 165.273279 
L 96.437256 217.889012 
L 80.692368 156.566721 
z
" clip-path="url(#p6053dd58ff)" style="fill: #808080; fill-opacity: 0.2; stroke: #ff0000; stroke-width: 0.25; stroke-linejoin: miter"/>
   </g>
   <g id="patch_31">
    <path d="M 277.73114 92.544943 
L 301.037596 151.410332 
L 104.323237 229.295057 
L 81.01678 170.429668 
z
" clip-path="url(#p6053dd58ff)" style="fill: #808080; fill-opacity: 0.2; stroke: #ff0000; stroke-width: 0.25; stroke-linejoin: miter"/>
   </g>
   <g id="patch_32">
    <path d="M 268.477787 82.217214 
L 298.978254 137.697358 
L 113.57659 239.622786 
L 83.076123 184.142642 
z
" clip-path="url(#p6053dd58ff)" style="fill: #808080; fill-opacity: 0.2; stroke: #ff0000; stroke-width: 0.25; stroke-linejoin: miter"/>
   </g>
   <g id="patch_33">
    <path d="M 258.002991 73.130675 
L 295.216459 124.35062 
L 124.051386 248.709325 
L 86.837918 197.48938 
z
" clip-path="url(#p6053dd58ff)" style="fill: #808080; fill-opacity: 0.2; stroke: #ff0000; stroke-width: 0.25; stroke-linejoin: miter"/>
   </g>
   <g id="patch_34">
    <path d="M 246.471947 65.428626 
L 289.811537 111.580602 
L 135.58243 256.411374 
L 92.24284 210.259398 
z
" clip-path="url(#p6053dd58ff)" style="fill: #808080; fill-opacity: 0.2; stroke: #ff0000; stroke-width: 0.25; stroke-linejoin: miter"/>
   </g>
   <g id="patch_35">
    <path d="M 234.066506 59.232534 
L 282.848726 99.588696 
L 147.987871 262.607466 
L 99.20565 222.251304 
z
" clip-path="url(#p6053dd58ff)" style="fill: #808080; fill-opacity: 0.2; stroke: #ff0000; stroke-width: 0.25; stroke-linejoin: miter"/>
   </g>
   <g id="patch_36">
    <path d="M 220.982309 54.640113 
L 274.437835 88.564022 
L 161.072068 267.199887 
L 107.616541 233.275978 
z
" clip-path="url(#p6053dd58ff)" style="fill: #808080; fill-opacity: 0.2; stroke: #ff0000; stroke-width: 0.25; stroke-linejoin: miter"/>
   </g>
   <g id="patch_37">
    <path d="M 207.425702 51.723789 
L 264.711509 78.680444 
L 174.628675 270.116211 
L 117.342868 243.159556 
z
" clip-path="url(#p6053dd58ff)" style="fill: #808080; fill-opacity: 0.2; stroke: #ff0000; stroke-width: 0.25; stroke-linejoin: miter"/>
   </g>
   <g id="patch_38">
    <path d="M 193.610481 50.529555 
L 253.823137 70.093833 
L 188.443896 271.310445 
L 128.23124 251.746167 
z
" clip-path="url(#p6053dd58ff)" style="fill: #808080; fill-opacity: 0.2; stroke: #ff0000; stroke-width: 0.25; stroke-linejoin: miter"/>
   </g>
   <g id="patch_39">
    <path d="M 179.754519 51.076245 
L 241.944435 62.939606 
L 202.299858 270.763755 
L 140.109942 258.900394 
z
" clip-path="url(#p6053dd58ff)" style="fill: #808080; fill-opacity: 0.2; stroke: #ff0000; stroke-width: 0.25; stroke-linejoin: miter"/>
   </g>
   <g id="patch_40">
    <path d="M 166.076334 53.355236 
L 229.262737 57.330587 
L 215.978042 268.484764 
L 152.79164 264.509413 
z
" clip-path="url(#p6053dd58ff)" style="fill: #808080; fill-opacity: 0.2; stroke: #ff0000; stroke-width: 0.25; stroke-linejoin: miter"/>
   </g>
   <g id="patch_41">
    <path d="M 152.79164 57.330587 
L 215.978042 53.355236 
L 229.262737 264.509413 
L 166.076334 268.484764 
z
" clip-path="url(#p6053dd58ff)" style="fill: #808080; fill-opacity: 0.2; stroke: #ff0000; stroke-width: 0.25; stroke-linejoin: miter"/>
   </g>
   <g id="patch_42">
    <path d="M 140.109942 62.939606 
L 202.299858 51.076245 
L 241.944435 258.900394 
L 179.754519 270.763755 
z
" clip-path="url(#p6053dd58ff)" style="fill: #808080; fill-opacity: 0.2; stroke: #ff0000; stroke-width: 0.25; stroke-linejoin: miter"/>
   </g>
   <g id="patch_43">
    <path d="M 128.23124 70.093833 
L 188.443896 50.529555 
L 253.823137 251.746167 
L 193.610481 271.310445 
z
" clip-path="url(#p6053dd58ff)" style="fill: #808080; fill-opacity: 0.2; stroke: #ff0000; stroke-width: 0.25; stroke-linejoin: miter"/>
   </g>
   <g id="patch_44">
    <path d="M 117.342868 78.680444 
L 174.628675 51.723789 
L 264.711509 243.159556 
L 207.425702 270.116211 
z
" clip-path="url(#p6053dd58ff)" style="fill: #808080; fill-opacity: 0.2; stroke: #ff0000; stroke-width: 0.25; stroke-linejoin: miter"/>
   </g>
   <g id="patch_45">
    <path d="M 107.616541 88.564022 
L 161.072068 54.640113 
L 274.437835 233.275978 
L 220.982309 267.199887 
z
" clip-path="url(#p6053dd58ff)" style="fill: #808080; fill-opacity: 0.2; stroke: #ff0000; stroke-width: 0.25; stroke-linejoin: miter"/>
   </g>
   <g id="patch_46">
    <path d="M 99.20565 99.588696 
L 147.987871 59.232534 
L 282.848726 222.251304 
L 234.066506 262.607466 
z
" clip-path="url(#p6053dd58ff)" style="fill: #808080; fill-opacity: 0.2; stroke: #ff0000; stroke-width: 0.25; stroke-linejoin: miter"/>
   </g>
   <g id="patch_47">
    <path d="M 92.24284 111.580602 
L 135.58243 65.428626 
L 289.811537 210.259398 
L 246.471947 256.411374 
z
" clip-path="url(#p6053dd58ff)" style="fill: #808080; fill-opacity: 0.2; stroke: #ff0000; stroke-width: 0.25; stroke-linejoin: miter"/>
   </g>
   <g id="patch_48">
    <path d="M 86.837918 124.35062 
L 124.051386 73.130675 
L 295.216459 197.48938 
L 258.002991 248.709325 
z
" clip-path="url(#p6053dd58ff)" style="fill: #808080; fill-opacity: 0.2; stroke: #ff0000; stroke-width: 0.25; stroke-linejoin: miter"/>
   </g>
   <g id="patch_49">
    <path d="M 83.076123 137.697358 
L 113.57659 82.217214 
L 298.978254 184.142642 
L 268.477787 239.622786 
z
" clip-path="url(#p6053dd58ff)" style="fill: #808080; fill-opacity: 0.2; stroke: #ff0000; stroke-width: 0.25; stroke-linejoin: miter"/>
   </g>
   <g id="patch_50">
    <path d="M 81.01678 151.410332 
L 104.323237 92.544943 
L 301.037596 170.429668 
L 277.73114 229.295057 
z
" clip-path="url(#p6053dd58ff)" style="fill: #808080; fill-opacity: 0.2; stroke: #ff0000; stroke-width: 0.25; stroke-linejoin: miter"/>
   </g>
   <g id="patch_51">
    <path d="M 80.692368 165.273279 
L 96.437256 103.950988 
L 301.362009 156.566721 
L 285.617121 217.889012 
z
" clip-path="url(#p6053dd58ff)" style="fill: #808080; fill-opacity: 0.2; stroke: #ff0000; stroke-width: 0.25; stroke-linejoin: miter"/>
   </g>
   <g id="patch_52">
    <path d="M 82.108001 179.067572 
L 90.043016 116.255467 
L 299.946375 142.772428 
L 292.011361 205.584533 
z
" clip-path="url(#p6053dd58ff)" style="fill: #808080; fill-opacity: 0.2; stroke: #ff0000; stroke-width: 0.25; stroke-linejoin: miter"/>
   </g>
   <g id="matplotlib.axis_1">
    <g id="xtick_1">
     <g id="line2d_1">
      <path d="M 85.241356 299.52 
L 85.241356 22.32 
" clip-path="url(#p6053dd58ff)" style="fill: none; stroke-dasharray: 1.85,0.8; stroke-dashoffset: 0; stroke: #b0b0b0; stroke-opacity: 0.6; stroke-width: 0.5"/>
     </g>
     <g id="line2d_2">
      <defs>
       <path id="m536ef7ba83" d="M 0 0 
L 0 3.5 
" style="stroke: #000000; stroke-width: 0.8"/>
      </defs>
      <g>
       <use xlink:href="#m536ef7ba83" x="85.241356" y="299.52" style="stroke: #000000; stroke-width: 0.8"/>
      </g>
     </g>
     <g id="text_1">
      <!-- −0.3 -->
      <g transform="translate(73.099949 314.117656) scale(0.1 -0.1)">
       <defs>
        <path id="DejaVuSans-c9c" d="M 678 2272 
L 4684 2272 
L 4684 1741 
L 678 1741 
L 678 2272 
z
" transform="scale(0.015625)"/>
        <path id="DejaVuSans-13" d="M 2034 4250 
Q 1547 4250 1301 3770 
Q 1056 3291 1056 2328 
Q 1056 1369 1301 889 
Q 1547 409 2034 409 
Q 2525 409 2770 889 
Q 3016 1369 3016 2328 
Q 3016 3291 2770 3770 
Q 2525 4250 2034 4250 
z
M 2034 4750 
Q 2819 4750 3233 4129 
Q 3647 3509 3647 2328 
Q 3647 1150 3233 529 
Q 2819 -91 2034 -91 
Q 1250 -91 836 529 
Q 422 1150 422 2328 
Q 422 3509 836 4129 
Q 1250 4750 2034 4750 
z
" transform="scale(0.015625)"/>
        <path id="DejaVuSans-11" d="M 684 794 
L 1344 794 
L 1344 0 
L 684 0 
L 684 794 
z
" transform="scale(0.015625)"/>
        <path id="DejaVuSans-16" d="M 2597 2516 
Q 3050 2419 3304 2112 
Q 3559 1806 3559 1356 
Q 3559 666 3084 287 
Q 2609 -91 1734 -91 
Q 1441 -91 1130 -33 
Q 819 25 488 141 
L 488 750 
Q 750 597 1062 519 
Q 1375 441 1716 441 
Q 2309 441 2620 675 
Q 2931 909 2931 1356 
Q 2931 1769 2642 2001 
Q 2353 2234 1838 2234 
L 1294 2234 
L 1294 2753 
L 1863 2753 
Q 2328 2753 2575 2939 
Q 2822 3125 2822 3475 
Q 2822 3834 2567 4026 
Q 2313 4219 1838 4219 
Q 1578 4219 1281 4162 
Q 984 4106 628 3988 
L 628 4550 
Q 988 4650 1302 4700 
Q 1616 4750 1894 4750 
Q 2613 4750 3031 4423 
Q 3450 4097 3450 3541 
Q 3450 3153 3228 2886 
Q 3006 2619 2597 2516 
z
" transform="scale(0.015625)"/>
       </defs>
       <use xlink:href="#DejaVuSans-c9c"/>
       <use xlink:href="#DejaVuSans-13" transform="translate(83.796875 0)"/>
       <use xlink:href="#DejaVuSans-11" transform="translate(147.421875 0)"/>
       <use xlink:href="#DejaVuSans-16" transform="translate(179.203125 0)"/>
      </g>
     </g>
    </g>
    <g id="xtick_2">
     <g id="line2d_3">
      <path d="M 120.5033 299.52 
L 120.5033 22.32 
" clip-path="url(#p6053dd58ff)" style="fill: none; stroke-dasharray: 1.85,0.8; stroke-dashoffset: 0; stroke: #b0b0b0; stroke-opacity: 0.6; stroke-width: 0.5"/>
     </g>
     <g id="line2d_4">
      <g>
       <use xlink:href="#m536ef7ba83" x="120.5033" y="299.52" style="stroke: #000000; stroke-width: 0.8"/>
      </g>
     </g>
     <g id="text_2">
      <!-- −0.2 -->
      <g transform="translate(108.361894 314.117656) scale(0.1 -0.1)">
       <defs>
        <path id="DejaVuSans-15" d="M 1228 531 
L 3431 531 
L 3431 0 
L 469 0 
L 469 531 
Q 828 903 1448 1529 
Q 2069 2156 2228 2338 
Q 2531 2678 2651 2914 
Q 2772 3150 2772 3378 
Q 2772 3750 2511 3984 
Q 2250 4219 1831 4219 
Q 1534 4219 1204 4116 
Q 875 4013 500 3803 
L 500 4441 
Q 881 4594 1212 4672 
Q 1544 4750 1819 4750 
Q 2544 4750 2975 4387 
Q 3406 4025 3406 3419 
Q 3406 3131 3298 2873 
Q 3191 2616 2906 2266 
Q 2828 2175 2409 1742 
Q 1991 1309 1228 531 
z
" transform="scale(0.015625)"/>
       </defs>
       <use xlink:href="#DejaVuSans-c9c"/>
       <use xlink:href="#DejaVuSans-13" transform="translate(83.796875 0)"/>
       <use xlink:href="#DejaVuSans-11" transform="translate(147.421875 0)"/>
       <use xlink:href="#DejaVuSans-15" transform="translate(179.203125 0)"/>
      </g>
     </g>
    </g>
    <g id="xtick_3">
     <g id="line2d_5">
      <path d="M 155.765244 299.52 
L 155.765244 22.32 
" clip-path="url(#p6053dd58ff)" style="fill: none; stroke-dasharray: 1.85,0.8; stroke-dashoffset: 0; stroke: #b0b0b0; stroke-opacity: 0.6; stroke-width: 0.5"/>
     </g>
     <g id="line2d_6">
      <g>
       <use xlink:href="#m536ef7ba83" x="155.765244" y="299.52" style="stroke: #000000; stroke-width: 0.8"/>
      </g>
     </g>
     <g id="text_3">
      <!-- −0.1 -->
      <g transform="translate(143.623838 314.117656) scale(0.1 -0.1)">
       <defs>
        <path id="DejaVuSans-14" d="M 794 531 
L 1825 531 
L 1825 4091 
L 703 3866 
L 703 4441 
L 1819 4666 
L 2450 4666 
L 2450 531 
L 3481 531 
L 3481 0 
L 794 0 
L 794 531 
z
" transform="scale(0.015625)"/>
       </defs>
       <use xlink:href="#DejaVuSans-c9c"/>
       <use xlink:href="#DejaVuSans-13" transform="translate(83.796875 0)"/>
       <use xlink:href="#DejaVuSans-11" transform="translate(147.421875 0)"/>
       <use xlink:href="#DejaVuSans-14" transform="translate(179.203125 0)"/>
      </g>
     </g>
    </g>
    <g id="xtick_4">
     <g id="line2d_7">
      <path d="M 191.027188 299.52 
L 191.027188 22.32 
" clip-path="url(#p6053dd58ff)" style="fill: none; stroke-dasharray: 1.85,0.8; stroke-dashoffset: 0; stroke: #b0b0b0; stroke-opacity: 0.6; stroke-width: 0.5"/>
     </g>
     <g id="line2d_8">
      <g>
       <use xlink:href="#m536ef7ba83" x="191.027188" y="299.52" style="stroke: #000000; stroke-width: 0.8"/>
      </g>
     </g>
     <g id="text_4">
      <!-- 0.0 -->
      <g transform="translate(183.075626 314.117656) scale(0.1 -0.1)">
       <use xlink:href="#DejaVuSans-13"/>
       <use xlink:href="#DejaVuSans-11" transform="translate(63.625 0)"/>
       <use xlink:href="#DejaVuSans-13" transform="translate(95.40625 0)"/>
      </g>
     </g>
    </g>
    <g id="xtick_5">
     <g id="line2d_9">
      <path d="M 226.289133 299.52 
L 226.289133 22.32 
" clip-path="url(#p6053dd58ff)" style="fill: none; stroke-dasharray: 1.85,0.8; stroke-dashoffset: 0; stroke: #b0b0b0; stroke-opacity: 0.6; stroke-width: 0.5"/>
     </g>
     <g id="line2d_10">
      <g>
       <use xlink:href="#m536ef7ba83" x="226.289133" y="299.52" style="stroke: #000000; stroke-width: 0.8"/>
      </g>
     </g>
     <g id="text_5">
      <!-- 0.1 -->
      <g transform="translate(218.33757 314.117656) scale(0.1 -0.1)">
       <use xlink:href="#DejaVuSans-13"/>
       <use xlink:href="#DejaVuSans-11" transform="translate(63.625 0)"/>
       <use xlink:href="#DejaVuSans-14" transform="translate(95.40625 0)"/>
      </g>
     </g>
    </g>
    <g id="xtick_6">
     <g id="line2d_11">
      <path d="M 261.551077 299.52 
L 261.551077 22.32 
" clip-path="url(#p6053dd58ff)" style="fill: none; stroke-dasharray: 1.85,0.8; stroke-dashoffset: 0; stroke: #b0b0b0; stroke-opacity: 0.6; stroke-width: 0.5"/>
     </g>
     <g id="line2d_12">
      <g>
       <use xlink:href="#m536ef7ba83" x="261.551077" y="299.52" style="stroke: #000000; stroke-width: 0.8"/>
      </g>
     </g>
     <g id="text_6">
      <!-- 0.2 -->
      <g transform="translate(253.599514 314.117656) scale(0.1 -0.1)">
       <use xlink:href="#DejaVuSans-13"/>
       <use xlink:href="#DejaVuSans-11" transform="translate(63.625 0)"/>
       <use xlink:href="#DejaVuSans-15" transform="translate(95.40625 0)"/>
      </g>
     </g>
    </g>
    <g id="xtick_7">
     <g id="line2d_13">
      <path d="M 296.813021 299.52 
L 296.813021 22.32 
" clip-path="url(#p6053dd58ff)" style="fill: none; stroke-dasharray: 1.85,0.8; stroke-dashoffset: 0; stroke: #b0b0b0; stroke-opacity: 0.6; stroke-width: 0.5"/>
     </g>
     <g id="line2d_14">
      <g>
       <use xlink:href="#m536ef7ba83" x="296.813021" y="299.52" style="stroke: #000000; stroke-width: 0.8"/>
      </g>
     </g>
     <g id="text_7">
      <!-- 0.3 -->
      <g transform="translate(288.861459 314.117656) scale(0.1 -0.1)">
       <use xlink:href="#DejaVuSans-13"/>
       <use xlink:href="#DejaVuSans-11" transform="translate(63.625 0)"/>
       <use xlink:href="#DejaVuSans-16" transform="translate(95.40625 0)"/>
      </g>
     </g>
    </g>
    <g id="text_8">
     <!-- $\nu_1$ -->
     <g transform="translate(185.827188 328.117656) scale(0.1 -0.1)">
      <defs>
       <path id="DejaVuSans-Oblique-351" d="M 959 0 
L 572 3500 
L 1191 3500 
L 1522 563 
Q 1972 950 2391 1488 
Q 2706 1891 2788 2241 
Q 2825 2406 2809 2719 
Q 2794 3091 2544 3500 
L 3125 3500 
L 3125 3500 
Q 3288 3222 3353 2834 
Q 3416 2478 3369 2234 
Q 3250 1622 2719 1075 
Q 2025 363 1572 0 
L 959 0 
z
" transform="scale(0.015625)"/>
      </defs>
      <use xlink:href="#DejaVuSans-Oblique-351" transform="translate(0 0.3125)"/>
      <use xlink:href="#DejaVuSans-14" transform="translate(55.859375 -14.687451) scale(0.7)"/>
     </g>
    </g>
   </g>
   <g id="matplotlib.axis_2">
    <g id="ytick_1">
     <g id="line2d_15">
      <path d="M 52.482813 266.705833 
L 329.571564 266.705833 
" clip-path="url(#p6053dd58ff)" style="fill: none; stroke-dasharray: 1.85,0.8; stroke-dashoffset: 0; stroke: #b0b0b0; stroke-opacity: 0.6; stroke-width: 0.5"/>
     </g>
     <g id="line2d_16">
      <defs>
       <path id="m9c0857a551" d="M 0 0 
L -3.5 0 
" style="stroke: #000000; stroke-width: 0.8"/>
      </defs>
      <g>
       <use xlink:href="#m9c0857a551" x="52.482813" y="266.705833" style="stroke: #000000; stroke-width: 0.8"/>
      </g>
     </g>
     <g id="text_9">
      <!-- −0.3 -->
      <g transform="translate(21.2 270.504661) scale(0.1 -0.1)">
       <use xlink:href="#DejaVuSans-c9c"/>
       <use xlink:href="#DejaVuSans-13" transform="translate(83.796875 0)"/>
       <use xlink:href="#DejaVuSans-11" transform="translate(147.421875 0)"/>
       <use xlink:href="#DejaVuSans-16" transform="translate(179.203125 0)"/>
      </g>
     </g>
    </g>
    <g id="ytick_2">
     <g id="line2d_17">
      <path d="M 52.482813 231.443889 
L 329.571564 231.443889 
" clip-path="url(#p6053dd58ff)" style="fill: none; stroke-dasharray: 1.85,0.8; stroke-dashoffset: 0; stroke: #b0b0b0; stroke-opacity: 0.6; stroke-width: 0.5"/>
     </g>
     <g id="line2d_18">
      <g>
       <use xlink:href="#m9c0857a551" x="52.482813" y="231.443889" style="stroke: #000000; stroke-width: 0.8"/>
      </g>
     </g>
     <g id="text_10">
      <!-- −0.2 -->
      <g transform="translate(21.2 235.242717) scale(0.1 -0.1)">
       <use xlink:href="#DejaVuSans-c9c"/>
       <use xlink:href="#DejaVuSans-13" transform="translate(83.796875 0)"/>
       <use xlink:href="#DejaVuSans-11" transform="translate(147.421875 0)"/>
       <use xlink:href="#DejaVuSans-15" transform="translate(179.203125 0)"/>
      </g>
     </g>
    </g>
    <g id="ytick_3">
     <g id="line2d_19">
      <path d="M 52.482813 196.181944 
L 329.571564 196.181944 
" clip-path="url(#p6053dd58ff)" style="fill: none; stroke-dasharray: 1.85,0.8; stroke-dashoffset: 0; stroke: #b0b0b0; stroke-opacity: 0.6; stroke-width: 0.5"/>
     </g>
     <g id="line2d_20">
      <g>
       <use xlink:href="#m9c0857a551" x="52.482813" y="196.181944" style="stroke: #000000; stroke-width: 0.8"/>
      </g>
     </g>
     <g id="text_11">
      <!-- −0.1 -->
      <g transform="translate(21.2 199.980772) scale(0.1 -0.1)">
       <use xlink:href="#DejaVuSans-c9c"/>
       <use xlink:href="#DejaVuSans-13" transform="translate(83.796875 0)"/>
       <use xlink:href="#DejaVuSans-11" transform="translate(147.421875 0)"/>
       <use xlink:href="#DejaVuSans-14" transform="translate(179.203125 0)"/>
      </g>
     </g>
    </g>
    <g id="ytick_4">
     <g id="line2d_21">
      <path d="M 52.482813 160.92 
L 329.571564 160.92 
" clip-path="url(#p6053dd58ff)" style="fill: none; stroke-dasharray: 1.85,0.8; stroke-dashoffset: 0; stroke: #b0b0b0; stroke-opacity: 0.6; stroke-width: 0.5"/>
     </g>
     <g id="line2d_22">
      <g>
       <use xlink:href="#m9c0857a551" x="52.482813" y="160.92" style="stroke: #000000; stroke-width: 0.8"/>
      </g>
     </g>
     <g id="text_12">
      <!-- 0.0 -->
      <g transform="translate(29.579688 164.718828) scale(0.1 -0.1)">
       <use xlink:href="#DejaVuSans-13"/>
       <use xlink:href="#DejaVuSans-11" transform="translate(63.625 0)"/>
       <use xlink:href="#DejaVuSans-13" transform="translate(95.40625 0)"/>
      </g>
     </g>
    </g>
    <g id="ytick_5">
     <g id="line2d_23">
      <path d="M 52.482813 125.658056 
L 329.571564 125.658056 
" clip-path="url(#p6053dd58ff)" style="fill: none; stroke-dasharray: 1.85,0.8; stroke-dashoffset: 0; stroke: #b0b0b0; stroke-opacity: 0.6; stroke-width: 0.5"/>
     </g>
     <g id="line2d_24">
      <g>
       <use xlink:href="#m9c0857a551" x="52.482813" y="125.658056" style="stroke: #000000; stroke-width: 0.8"/>
      </g>
     </g>
     <g id="text_13">
      <!-- 0.1 -->
      <g transform="translate(29.579688 129.456884) scale(0.1 -0.1)">
       <use xlink:href="#DejaVuSans-13"/>
       <use xlink:href="#DejaVuSans-11" transform="translate(63.625 0)"/>
       <use xlink:href="#DejaVuSans-14" transform="translate(95.40625 0)"/>
      </g>
     </g>
    </g>
    <g id="ytick_6">
     <g id="line2d_25">
      <path d="M 52.482813 90.396111 
L 329.571564 90.396111 
" clip-path="url(#p6053dd58ff)" style="fill: none; stroke-dasharray: 1.85,0.8; stroke-dashoffset: 0; stroke: #b0b0b0; stroke-opacity: 0.6; stroke-width: 0.5"/>
     </g>
     <g id="line2d_26">
      <g>
       <use xlink:href="#m9c0857a551" x="52.482813" y="90.396111" style="stroke: #000000; stroke-width: 0.8"/>
      </g>
     </g>
     <g id="text_14">
      <!-- 0.2 -->
      <g transform="translate(29.579688 94.19494) scale(0.1 -0.1)">
       <use xlink:href="#DejaVuSans-13"/>
       <use xlink:href="#DejaVuSans-11" transform="translate(63.625 0)"/>
       <use xlink:href="#DejaVuSans-15" transform="translate(95.40625 0)"/>
      </g>
     </g>
    </g>
    <g id="ytick_7">
     <g id="line2d_27">
      <path d="M 52.482813 55.134167 
L 329.571564 55.134167 
" clip-path="url(#p6053dd58ff)" style="fill: none; stroke-dasharray: 1.85,0.8; stroke-dashoffset: 0; stroke: #b0b0b0; stroke-opacity: 0.6; stroke-width: 0.5"/>
     </g>
     <g id="line2d_28">
      <g>
       <use xlink:href="#m9c0857a551" x="52.482813" y="55.134167" style="stroke: #000000; stroke-width: 0.8"/>
      </g>
     </g>
     <g id="text_15">
      <!-- 0.3 -->
      <g transform="translate(29.579688 58.932995) scale(0.1 -0.1)">
       <use xlink:href="#DejaVuSans-13"/>
       <use xlink:href="#DejaVuSans-11" transform="translate(63.625 0)"/>
       <use xlink:href="#DejaVuSans-16" transform="translate(95.40625 0)"/>
      </g>
     </g>
    </g>
    <g id="text_16">
     <!-- $\nu_2$ -->
     <g transform="translate(14.797656 166.12) rotate(-90) scale(0.1 -0.1)">
      <use xlink:href="#DejaVuSans-Oblique-351" transform="translate(0 0.3125)"/>
      <use xlink:href="#DejaVuSans-15" transform="translate(55.859375 -14.687451) scale(0.7)"/>
     </g>
    </g>
   </g>
   <g id="patch_53">
    <path d="M 196.970597 129.763562 
L 200.828668 130.754147 
L 204.532165 132.220465 
L 208.02268 134.139391 
L 211.245165 136.480664 
L 214.148801 139.20736 
L 216.687796 142.276477 
L 218.822107 145.639614 
L 220.518076 149.243731 
L 221.748956 153.031991 
L 222.495336 156.944648 
L 222.745444 160.92 
L 222.495336 164.895352 
L 221.748956 168.808009 
L 220.518076 172.596269 
L 218.822107 176.200386 
L 216.687796 179.563523 
L 214.148801 182.63264 
L 211.245165 185.359336 
L 208.02268 187.700609 
L 204.532165 189.619535 
L 200.828668 191.085853 
L 196.970597 192.076438 
L 193.018794 192.575667 
L 189.035583 192.575667 
L 185.08378 192.076438 
L 181.225708 191.085853 
L 177.522212 189.619535 
L 174.031697 187.700609 
L 170.809212 185.359336 
L 167.905575 182.63264 
L 165.366581 179.563523 
L 163.232269 176.200386 
L 161.5363 172.596269 
L 160.30542 168.808009 
L 159.559041 164.895352 
L 159.308933 160.92 
L 159.559041 156.944648 
L 160.30542 153.031991 
L 161.5363 149.243731 
L 163.232269 145.639614 
L 165.366581 142.276477 
L 167.905575 139.20736 
L 170.809212 136.480664 
L 174.031697 134.139391 
L 177.522212 132.220465 
L 181.225708 130.754147 
L 185.08378 129.763562 
L 189.035583 129.264333 
L 193.018794 129.264333 
z
" clip-path="url(#p6053dd58ff)" style="fill: #ffff00"/>
   </g>
   <g id="patch_54">
    <path d="M 52.482813 299.52 
L 52.482813 22.32 
" style="fill: none; stroke: #000000; stroke-width: 0.8; stroke-linejoin: miter; stroke-linecap: square"/>
   </g>
   <g id="patch_55">
    <path d="M 329.571564 299.52 
L 329.571564 22.32 
" style="fill: none; stroke: #000000; stroke-width: 0.8; stroke-linejoin: miter; stroke-linecap: square"/>
   </g>
   <g id="patch_56">
    <path d="M 52.482812 299.52 
L 329.571564 299.52 
" style="fill: none; stroke: #000000; stroke-width: 0.8; stroke-linejoin: miter; stroke-linecap: square"/>
   </g>
   <g id="patch_57">
    <path d="M 52.482812 22.32 
L 329.571564 22.32 
" style="fill: none; stroke: #000000; stroke-width: 0.8; stroke-linejoin: miter; stroke-linecap: square"/>
   </g>
   <g id="patch_58">
    <path d="M 85.241356 192.575667 
L 85.241356 129.264333 
L 296.813021 129.264333 
L 296.813021 192.575667 
L 85.241356 192.575667 
z
" clip-path="url(#p6053dd58ff)" style="fill: none; stroke: #ff0000; stroke-width: 0.5; stroke-linejoin: miter"/>
   </g>
   <g id="patch_59">
    <path d="M 90.043016 205.584533 
L 82.108001 142.772428 
L 292.011361 116.255467 
L 299.946375 179.067572 
L 90.043016 205.584533 
z
" clip-path="url(#p6053dd58ff)" style="fill: none; stroke: #ff0000; stroke-width: 0.5; stroke-linejoin: miter"/>
   </g>
   <g id="patch_60">
    <path d="M 96.437256 217.889012 
L 80.692368 156.566721 
L 285.617121 103.950988 
L 301.362009 165.273279 
L 96.437256 217.889012 
z
" clip-path="url(#p6053dd58ff)" style="fill: none; stroke: #ff0000; stroke-width: 0.5; stroke-linejoin: miter"/>
   </g>
   <g id="patch_61">
    <path d="M 104.323237 229.295057 
L 81.01678 170.429668 
L 277.73114 92.544943 
L 301.037596 151.410332 
L 104.323237 229.295057 
z
" clip-path="url(#p6053dd58ff)" style="fill: none; stroke: #ff0000; stroke-width: 0.5; stroke-linejoin: miter"/>
   </g>
   <g id="patch_62">
    <path d="M 113.57659 239.622786 
L 83.076123 184.142642 
L 268.477787 82.217214 
L 298.978254 137.697358 
L 113.57659 239.622786 
z
" clip-path="url(#p6053dd58ff)" style="fill: none; stroke: #ff0000; stroke-width: 0.5; stroke-linejoin: miter"/>
   </g>
   <g id="patch_63">
    <path d="M 124.051386 248.709325 
L 86.837918 197.48938 
L 258.002991 73.130675 
L 295.216459 124.35062 
L 124.051386 248.709325 
z
" clip-path="url(#p6053dd58ff)" style="fill: none; stroke: #ff0000; stroke-width: 0.5; stroke-linejoin: miter"/>
   </g>
   <g id="patch_64">
    <path d="M 135.58243 256.411374 
L 92.24284 210.259398 
L 246.471947 65.428626 
L 289.811537 111.580602 
L 135.58243 256.411374 
z
" clip-path="url(#p6053dd58ff)" style="fill: none; stroke: #ff0000; stroke-width: 0.5; stroke-linejoin: miter"/>
   </g>
   <g id="patch_65">
    <path d="M 147.987871 262.607466 
L 99.20565 222.251304 
L 234.066506 59.232534 
L 282.848726 99.588696 
L 147.987871 262.607466 
z
" clip-path="url(#p6053dd58ff)" style="fill: none; stroke: #ff0000; stroke-width: 0.5; stroke-linejoin: miter"/>
   </g>
   <g id="patch_66">
    <path d="M 161.072068 267.199887 
L 107.616541 233.275978 
L 220.982309 54.640113 
L 274.437835 88.564022 
L 161.072068 267.199887 
z
" clip-path="url(#p6053dd58ff)" style="fill: none; stroke: #ff0000; stroke-width: 0.5; stroke-linejoin: miter"/>
   </g>
   <g id="patch_67">
    <path d="M 174.628675 270.116211 
L 117.342868 243.159556 
L 207.425702 51.723789 
L 264.711509 78.680444 
L 174.628675 270.116211 
z
" clip-path="url(#p6053dd58ff)" style="fill: none; stroke: #ff0000; stroke-width: 0.5; stroke-linejoin: miter"/>
   </g>
   <g id="patch_68">
    <path d="M 188.443896 271.310445 
L 128.23124 251.746167 
L 193.610481 50.529555 
L 253.823137 70.093833 
L 188.443896 271.310445 
z
" clip-path="url(#p6053dd58ff)" style="fill: none; stroke: #ff0000; stroke-width: 0.5; stroke-linejoin: miter"/>
   </g>
   <g id="patch_69">
    <path d="M 202.299858 270.763755 
L 140.109942 258.900394 
L 179.754519 51.076245 
L 241.944435 62.939606 
L 202.299858 270.763755 
z
" clip-path="url(#p6053dd58ff)" style="fill: none; stroke: #ff0000; stroke-width: 0.5; stroke-linejoin: miter"/>
   </g>
   <g id="patch_70">
    <path d="M 215.978042 268.484764 
L 152.79164 264.509413 
L 166.076334 53.355236 
L 229.262737 57.330587 
L 215.978042 268.484764 
z
" clip-path="url(#p6053dd58ff)" style="fill: none; stroke: #ff0000; stroke-width: 0.5; stroke-linejoin: miter"/>
   </g>
   <g id="patch_71">
    <path d="M 229.262737 264.509413 
L 166.076334 268.484764 
L 152.79164 57.330587 
L 215.978042 53.355236 
L 229.262737 264.509413 
z
" clip-path="url(#p6053dd58ff)" style="fill: none; stroke: #ff0000; stroke-width: 0.5; stroke-linejoin: miter"/>
   </g>
   <g id="patch_72">
    <path d="M 241.944435 258.900394 
L 179.754519 270.763755 
L 140.109942 62.939606 
L 202.299858 51.076245 
L 241.944435 258.900394 
z
" clip-path="url(#p6053dd58ff)" style="fill: none; stroke: #ff0000; stroke-width: 0.5; stroke-linejoin: miter"/>
   </g>
   <g id="patch_73">
    <path d="M 253.823137 251.746167 
L 193.610481 271.310445 
L 128.23124 70.093833 
L 188.443896 50.529555 
L 253.823137 251.746167 
z
" clip-path="url(#p6053dd58ff)" style="fill: none; stroke: #ff0000; stroke-width: 0.5; stroke-linejoin: miter"/>
   </g>
   <g id="patch_74">
    <path d="M 264.711509 243.159556 
L 207.425702 270.116211 
L 117.342868 78.680444 
L 174.628675 51.723789 
L 264.711509 243.159556 
z
" clip-path="url(#p6053dd58ff)" style="fill: none; stroke: #ff0000; stroke-width: 0.5; stroke-linejoin: miter"/>
   </g>
   <g id="patch_75">
    <path d="M 274.437835 233.275978 
L 220.982309 267.199887 
L 107.616541 88.564022 
L 161.072068 54.640113 
L 274.437835 233.275978 
z
" clip-path="url(#p6053dd58ff)" style="fill: none; stroke: #ff0000; stroke-width: 0.5; stroke-linejoin: miter"/>
   </g>
   <g id="patch_76">
    <path d="M 282.848726 222.251304 
L 234.066506 262.607466 
L 99.20565 99.588696 
L 147.987871 59.232534 
L 282.848726 222.251304 
z
" clip-path="url(#p6053dd58ff)" style="fill: none; stroke: #ff0000; stroke-width: 0.5; stroke-linejoin: miter"/>
   </g>
   <g id="patch_77">
    <path d="M 289.811537 210.259398 
L 246.471947 256.411374 
L 92.24284 111.580602 
L 135.58243 65.428626 
L 289.811537 210.259398 
z
" clip-path="url(#p6053dd58ff)" style="fill: none; stroke: #ff0000; stroke-width: 0.5; stroke-linejoin: miter"/>
   </g>
   <g id="patch_78">
    <path d="M 295.216459 197.48938 
L 258.002991 248.709325 
L 86.837918 124.35062 
L 124.051386 73.130675 
L 295.216459 197.48938 
z
" clip-path="url(#p6053dd58ff)" style="fill: none; stroke: #ff0000; stroke-width: 0.5; stroke-linejoin: miter"/>
   </g>
   <g id="patch_79">
    <path d="M 298.978254 184.142642 
L 268.477787 239.622786 
L 83.076123 137.697358 
L 113.57659 82.217214 
L 298.978254 184.142642 
z
" clip-path="url(#p6053dd58ff)" style="fill: none; stroke: #ff0000; stroke-width: 0.5; stroke-linejoin: miter"/>
   </g>
   <g id="patch_80">
    <path d="M 301.037596 170.429668 
L 277.73114 229.295057 
L 81.01678 151.410332 
L 104.323237 92.544943 
L 301.037596 170.429668 
z
" clip-path="url(#p6053dd58ff)" style="fill: none; stroke: #ff0000; stroke-width: 0.5; stroke-linejoin: miter"/>
   </g>
   <g id="patch_81">
    <path d="M 301.362009 156.566721 
L 285.617121 217.889012 
L 80.692368 165.273279 
L 96.437256 103.950988 
L 301.362009 156.566721 
z
" clip-path="url(#p6053dd58ff)" style="fill: none; stroke: #ff0000; stroke-width: 0.5; stroke-linejoin: miter"/>
   </g>
   <g id="patch_82">
    <path d="M 299.946375 142.772428 
L 292.011361 205.584533 
L 82.108001 179.067572 
L 90.043016 116.255467 
L 299.946375 142.772428 
z
" clip-path="url(#p6053dd58ff)" style="fill: none; stroke: #ff0000; stroke-width: 0.5; stroke-linejoin: miter"/>
   </g>
   <g id="patch_83">
    <path d="M 296.813021 129.264333 
L 296.813021 192.575667 
L 85.241356 192.575667 
L 85.241356 129.264333 
L 296.813021 129.264333 
z
" clip-path="url(#p6053dd58ff)" style="fill: none; stroke: #ff0000; stroke-width: 0.5; stroke-linejoin: miter"/>
   </g>
   <g id="patch_84">
    <path d="M 292.011361 116.255467 
L 299.946375 179.067572 
L 90.043016 205.584533 
L 82.108001 142.772428 
L 292.011361 116.255467 
z
" clip-path="url(#p6053dd58ff)" style="fill: none; stroke: #ff0000; stroke-width: 0.5; stroke-linejoin: miter"/>
   </g>
   <g id="patch_85">
    <path d="M 285.617121 103.950988 
L 301.362009 165.273279 
L 96.437256 217.889012 
L 80.692368 156.566721 
L 285.617121 103.950988 
z
" clip-path="url(#p6053dd58ff)" style="fill: none; stroke: #ff0000; stroke-width: 0.5; stroke-linejoin: miter"/>
   </g>
   <g id="patch_86">
    <path d="M 277.73114 92.544943 
L 301.037596 151.410332 
L 104.323237 229.295057 
L 81.01678 170.429668 
L 277.73114 92.544943 
z
" clip-path="url(#p6053dd58ff)" style="fill: none; stroke: #ff0000; stroke-width: 0.5; stroke-linejoin: miter"/>
   </g>
   <g id="patch_87">
    <path d="M 268.477787 82.217214 
L 298.978254 137.697358 
L 113.57659 239.622786 
L 83.076123 184.142642 
L 268.477787 82.217214 
z
" clip-path="url(#p6053dd58ff)" style="fill: none; stroke: #ff0000; stroke-width: 0.5; stroke-linejoin: miter"/>
   </g>
   <g id="patch_88">
    <path d="M 258.002991 73.130675 
L 295.216459 124.35062 
L 124.051386 248.709325 
L 86.837918 197.48938 
L 258.002991 73.130675 
z
" clip-path="url(#p6053dd58ff)" style="fill: none; stroke: #ff0000; stroke-width: 0.5; stroke-linejoin: miter"/>
   </g>
   <g id="patch_89">
    <path d="M 246.471947 65.428626 
L 289.811537 111.580602 
L 135.58243 256.411374 
L 92.24284 210.259398 
L 246.471947 65.428626 
z
" clip-path="url(#p6053dd58ff)" style="fill: none; stroke: #ff0000; stroke-width: 0.5; stroke-linejoin: miter"/>
   </g>
   <g id="patch_90">
    <path d="M 234.066506 59.232534 
L 282.848726 99.588696 
L 147.987871 262.607466 
L 99.20565 222.251304 
L 234.066506 59.232534 
z
" clip-path="url(#p6053dd58ff)" style="fill: none; stroke: #ff0000; stroke-width: 0.5; stroke-linejoin: miter"/>
   </g>
   <g id="patch_91">
    <path d="M 220.982309 54.640113 
L 274.437835 88.564022 
L 161.072068 267.199887 
L 107.616541 233.275978 
L 220.982309 54.640113 
z
" clip-path="url(#p6053dd58ff)" style="fill: none; stroke: #ff0000; stroke-width: 0.5; stroke-linejoin: miter"/>
   </g>
   <g id="patch_92">
    <path d="M 207.425702 51.723789 
L 264.711509 78.680444 
L 174.628675 270.116211 
L 117.342868 243.159556 
L 207.425702 51.723789 
z
" clip-path="url(#p6053dd58ff)" style="fill: none; stroke: #ff0000; stroke-width: 0.5; stroke-linejoin: miter"/>
   </g>
   <g id="patch_93">
    <path d="M 193.610481 50.529555 
L 253.823137 70.093833 
L 188.443896 271.310445 
L 128.23124 251.746167 
L 193.610481 50.529555 
z
" clip-path="url(#p6053dd58ff)" style="fill: none; stroke: #ff0000; stroke-width: 0.5; stroke-linejoin: miter"/>
   </g>
   <g id="patch_94">
    <path d="M 179.754519 51.076245 
L 241.944435 62.939606 
L 202.299858 270.763755 
L 140.109942 258.900394 
L 179.754519 51.076245 
z
" clip-path="url(#p6053dd58ff)" style="fill: none; stroke: #ff0000; stroke-width: 0.5; stroke-linejoin: miter"/>
   </g>
   <g id="patch_95">
    <path d="M 166.076334 53.355236 
L 229.262737 57.330587 
L 215.978042 268.484764 
L 152.79164 264.509413 
L 166.076334 53.355236 
z
" clip-path="url(#p6053dd58ff)" style="fill: none; stroke: #ff0000; stroke-width: 0.5; stroke-linejoin: miter"/>
   </g>
   <g id="patch_96">
    <path d="M 152.79164 57.330587 
L 215.978042 53.355236 
L 229.262737 264.509413 
L 166.076334 268.484764 
L 152.79164 57.330587 
z
" clip-path="url(#p6053dd58ff)" style="fill: none; stroke: #ff0000; stroke-width: 0.5; stroke-linejoin: miter"/>
   </g>
   <g id="patch_97">
    <path d="M 140.109942 62.939606 
L 202.299858 51.076245 
L 241.944435 258.900394 
L 179.754519 270.763755 
L 140.109942 62.939606 
z
" clip-path="url(#p6053dd58ff)" style="fill: none; stroke: #ff0000; stroke-width: 0.5; stroke-linejoin: miter"/>
   </g>
   <g id="patch_98">
    <path d="M 128.23124 70.093833 
L 188.443896 50.529555 
L 253.823137 251.746167 
L 193.610481 271.310445 
L 128.23124 70.093833 
z
" clip-path="url(#p6053dd58ff)" style="fill: none; stroke: #ff0000; stroke-width: 0.5; stroke-linejoin: miter"/>
   </g>
   <g id="patch_99">
    <path d="M 117.342868 78.680444 
L 174.628675 51.723789 
L 264.711509 243.159556 
L 207.425702 270.116211 
L 117.342868 78.680444 
z
" clip-path="url(#p6053dd58ff)" style="fill: none; stroke: #ff0000; stroke-width: 0.5; stroke-linejoin: miter"/>
   </g>
   <g id="patch_100">
    <path d="M 107.616541 88.564022 
L 161.072068 54.640113 
L 274.437835 233.275978 
L 220.982309 267.199887 
L 107.616541 88.564022 
z
" clip-path="url(#p6053dd58ff)" style="fill: none; stroke: #ff0000; stroke-width: 0.5; stroke-linejoin: miter"/>
   </g>
   <g id="patch_101">
    <path d="M 99.20565 99.588696 
L 147.987871 59.232534 
L 282.848726 222.251304 
L 234.066506 262.607466 
L 99.20565 99.588696 
z
" clip-path="url(#p6053dd58ff)" style="fill: none; stroke: #ff0000; stroke-width: 0.5; stroke-linejoin: miter"/>
   </g>
   <g id="patch_102">
    <path d="M 92.24284 111.580602 
L 135.58243 65.428626 
L 289.811537 210.259398 
L 246.471947 256.411374 
L 92.24284 111.580602 
z
" clip-path="url(#p6053dd58ff)" style="fill: none; stroke: #ff0000; stroke-width: 0.5; stroke-linejoin: miter"/>
   </g>
   <g id="patch_103">
    <path d="M 86.837918 124.35062 
L 124.051386 73.130675 
L 295.216459 197.48938 
L 258.002991 248.709325 
L 86.837918 124.35062 
z
" clip-path="url(#p6053dd58ff)" style="fill: none; stroke: #ff0000; stroke-width: 0.5; stroke-linejoin: miter"/>
   </g>
   <g id="patch_104">
    <path d="M 83.076123 137.697358 
L 113.57659 82.217214 
L 298.978254 184.142642 
L 268.477787 239.622786 
L 83.076123 137.697358 
z
" clip-path="url(#p6053dd58ff)" style="fill: none; stroke: #ff0000; stroke-width: 0.5; stroke-linejoin: miter"/>
   </g>
   <g id="patch_105">
    <path d="M 81.01678 151.410332 
L 104.323237 92.544943 
L 301.037596 170.429668 
L 277.73114 229.295057 
L 81.01678 151.410332 
z
" clip-path="url(#p6053dd58ff)" style="fill: none; stroke: #ff0000; stroke-width: 0.5; stroke-linejoin: miter"/>
   </g>
   <g id="patch_106">
    <path d="M 80.692368 165.273279 
L 96.437256 103.950988 
L 301.362009 156.566721 
L 285.617121 217.889012 
L 80.692368 165.273279 
z
" clip-path="url(#p6053dd58ff)" style="fill: none; stroke: #ff0000; stroke-width: 0.5; stroke-linejoin: miter"/>
   </g>
   <g id="patch_107">
    <path d="M 82.108001 179.067572 
L 90.043016 116.255467 
L 299.946375 142.772428 
L 292.011361 205.584533 
L 82.108001 179.067572 
z
" clip-path="url(#p6053dd58ff)" style="fill: none; stroke: #ff0000; stroke-width: 0.5; stroke-linejoin: miter"/>
   </g>
   <g id="text_17">
    <!-- Virtual input constraint set $W$ -->
    <g transform="translate(103.007188 16.32) scale(0.12 -0.12)">
     <defs>
      <path id="DejaVuSans-39" d="M 1831 0 
L 50 4666 
L 709 4666 
L 2188 738 
L 3669 4666 
L 4325 4666 
L 2547 0 
L 1831 0 
z
" transform="scale(0.015625)"/>
      <path id="DejaVuSans-4c" d="M 603 3500 
L 1178 3500 
L 1178 0 
L 603 0 
L 603 3500 
z
M 603 4863 
L 1178 4863 
L 1178 4134 
L 603 4134 
L 603 4863 
z
" transform="scale(0.015625)"/>
      <path id="DejaVuSans-55" d="M 2631 2963 
Q 2534 3019 2420 3045 
Q 2306 3072 2169 3072 
Q 1681 3072 1420 2755 
Q 1159 2438 1159 1844 
L 1159 0 
L 581 0 
L 581 3500 
L 1159 3500 
L 1159 2956 
Q 1341 3275 1631 3429 
Q 1922 3584 2338 3584 
Q 2397 3584 2469 3576 
Q 2541 3569 2628 3553 
L 2631 2963 
z
" transform="scale(0.015625)"/>
      <path id="DejaVuSans-57" d="M 1172 4494 
L 1172 3500 
L 2356 3500 
L 2356 3053 
L 1172 3053 
L 1172 1153 
Q 1172 725 1289 603 
Q 1406 481 1766 481 
L 2356 481 
L 2356 0 
L 1766 0 
Q 1100 0 847 248 
Q 594 497 594 1153 
L 594 3053 
L 172 3053 
L 172 3500 
L 594 3500 
L 594 4494 
L 1172 4494 
z
" transform="scale(0.015625)"/>
      <path id="DejaVuSans-58" d="M 544 1381 
L 544 3500 
L 1119 3500 
L 1119 1403 
Q 1119 906 1312 657 
Q 1506 409 1894 409 
Q 2359 409 2629 706 
Q 2900 1003 2900 1516 
L 2900 3500 
L 3475 3500 
L 3475 0 
L 2900 0 
L 2900 538 
Q 2691 219 2414 64 
Q 2138 -91 1772 -91 
Q 1169 -91 856 284 
Q 544 659 544 1381 
z
M 1991 3584 
L 1991 3584 
z
" transform="scale(0.015625)"/>
      <path id="DejaVuSans-44" d="M 2194 1759 
Q 1497 1759 1228 1600 
Q 959 1441 959 1056 
Q 959 750 1161 570 
Q 1363 391 1709 391 
Q 2188 391 2477 730 
Q 2766 1069 2766 1631 
L 2766 1759 
L 2194 1759 
z
M 3341 1997 
L 3341 0 
L 2766 0 
L 2766 531 
Q 2569 213 2275 61 
Q 1981 -91 1556 -91 
Q 1019 -91 701 211 
Q 384 513 384 1019 
Q 384 1609 779 1909 
Q 1175 2209 1959 2209 
L 2766 2209 
L 2766 2266 
Q 2766 2663 2505 2880 
Q 2244 3097 1772 3097 
Q 1472 3097 1187 3025 
Q 903 2953 641 2809 
L 641 3341 
Q 956 3463 1253 3523 
Q 1550 3584 1831 3584 
Q 2591 3584 2966 3190 
Q 3341 2797 3341 1997 
z
" transform="scale(0.015625)"/>
      <path id="DejaVuSans-4f" d="M 603 4863 
L 1178 4863 
L 1178 0 
L 603 0 
L 603 4863 
z
" transform="scale(0.015625)"/>
      <path id="DejaVuSans-3" transform="scale(0.015625)"/>
      <path id="DejaVuSans-51" d="M 3513 2113 
L 3513 0 
L 2938 0 
L 2938 2094 
Q 2938 2591 2744 2837 
Q 2550 3084 2163 3084 
Q 1697 3084 1428 2787 
Q 1159 2491 1159 1978 
L 1159 0 
L 581 0 
L 581 3500 
L 1159 3500 
L 1159 2956 
Q 1366 3272 1645 3428 
Q 1925 3584 2291 3584 
Q 2894 3584 3203 3211 
Q 3513 2838 3513 2113 
z
" transform="scale(0.015625)"/>
      <path id="DejaVuSans-53" d="M 1159 525 
L 1159 -1331 
L 581 -1331 
L 581 3500 
L 1159 3500 
L 1159 2969 
Q 1341 3281 1617 3432 
Q 1894 3584 2278 3584 
Q 2916 3584 3314 3078 
Q 3713 2572 3713 1747 
Q 3713 922 3314 415 
Q 2916 -91 2278 -91 
Q 1894 -91 1617 61 
Q 1341 213 1159 525 
z
M 3116 1747 
Q 3116 2381 2855 2742 
Q 2594 3103 2138 3103 
Q 1681 3103 1420 2742 
Q 1159 2381 1159 1747 
Q 1159 1113 1420 752 
Q 1681 391 2138 391 
Q 2594 391 2855 752 
Q 3116 1113 3116 1747 
z
" transform="scale(0.015625)"/>
      <path id="DejaVuSans-46" d="M 3122 3366 
L 3122 2828 
Q 2878 2963 2633 3030 
Q 2388 3097 2138 3097 
Q 1578 3097 1268 2742 
Q 959 2388 959 1747 
Q 959 1106 1268 751 
Q 1578 397 2138 397 
Q 2388 397 2633 464 
Q 2878 531 3122 666 
L 3122 134 
Q 2881 22 2623 -34 
Q 2366 -91 2075 -91 
Q 1284 -91 818 406 
Q 353 903 353 1747 
Q 353 2603 823 3093 
Q 1294 3584 2113 3584 
Q 2378 3584 2631 3529 
Q 2884 3475 3122 3366 
z
" transform="scale(0.015625)"/>
      <path id="DejaVuSans-52" d="M 1959 3097 
Q 1497 3097 1228 2736 
Q 959 2375 959 1747 
Q 959 1119 1226 758 
Q 1494 397 1959 397 
Q 2419 397 2687 759 
Q 2956 1122 2956 1747 
Q 2956 2369 2687 2733 
Q 2419 3097 1959 3097 
z
M 1959 3584 
Q 2709 3584 3137 3096 
Q 3566 2609 3566 1747 
Q 3566 888 3137 398 
Q 2709 -91 1959 -91 
Q 1206 -91 779 398 
Q 353 888 353 1747 
Q 353 2609 779 3096 
Q 1206 3584 1959 3584 
z
" transform="scale(0.015625)"/>
      <path id="DejaVuSans-56" d="M 2834 3397 
L 2834 2853 
Q 2591 2978 2328 3040 
Q 2066 3103 1784 3103 
Q 1356 3103 1142 2972 
Q 928 2841 928 2578 
Q 928 2378 1081 2264 
Q 1234 2150 1697 2047 
L 1894 2003 
Q 2506 1872 2764 1633 
Q 3022 1394 3022 966 
Q 3022 478 2636 193 
Q 2250 -91 1575 -91 
Q 1294 -91 989 -36 
Q 684 19 347 128 
L 347 722 
Q 666 556 975 473 
Q 1284 391 1588 391 
Q 1994 391 2212 530 
Q 2431 669 2431 922 
Q 2431 1156 2273 1281 
Q 2116 1406 1581 1522 
L 1381 1569 
Q 847 1681 609 1914 
Q 372 2147 372 2553 
Q 372 3047 722 3315 
Q 1072 3584 1716 3584 
Q 2034 3584 2315 3537 
Q 2597 3491 2834 3397 
z
" transform="scale(0.015625)"/>
      <path id="DejaVuSans-48" d="M 3597 1894 
L 3597 1613 
L 953 1613 
Q 991 1019 1311 708 
Q 1631 397 2203 397 
Q 2534 397 2845 478 
Q 3156 559 3463 722 
L 3463 178 
Q 3153 47 2828 -22 
Q 2503 -91 2169 -91 
Q 1331 -91 842 396 
Q 353 884 353 1716 
Q 353 2575 817 3079 
Q 1281 3584 2069 3584 
Q 2775 3584 3186 3129 
Q 3597 2675 3597 1894 
z
M 3022 2063 
Q 3016 2534 2758 2815 
Q 2500 3097 2075 3097 
Q 1594 3097 1305 2825 
Q 1016 2553 972 2059 
L 3022 2063 
z
" transform="scale(0.015625)"/>
      <path id="DejaVuSans-Oblique-3a" d="M 616 4666 
L 1228 4666 
L 1453 697 
L 3213 4666 
L 3916 4666 
L 4147 697 
L 5888 4666 
L 6528 4666 
L 4453 0 
L 3659 0 
L 3444 3891 
L 1697 0 
L 903 0 
L 616 4666 
z
" transform="scale(0.015625)"/>
     </defs>
     <use xlink:href="#DejaVuSans-39" transform="translate(0 0.015625)"/>
     <use xlink:href="#DejaVuSans-4c" transform="translate(66.408203 0.015625)"/>
     <use xlink:href="#DejaVuSans-55" transform="translate(94.191406 0.015625)"/>
     <use xlink:href="#DejaVuSans-57" transform="translate(135.304688 0.015625)"/>
     <use xlink:href="#DejaVuSans-58" transform="translate(174.513672 0.015625)"/>
     <use xlink:href="#DejaVuSans-44" transform="translate(237.892578 0.015625)"/>
     <use xlink:href="#DejaVuSans-4f" transform="translate(299.171875 0.015625)"/>
     <use xlink:href="#DejaVuSans-3" transform="translate(326.955078 0.015625)"/>
     <use xlink:href="#DejaVuSans-4c" transform="translate(358.742188 0.015625)"/>
     <use xlink:href="#DejaVuSans-51" transform="translate(386.525391 0.015625)"/>
     <use xlink:href="#DejaVuSans-53" transform="translate(449.904297 0.015625)"/>
     <use xlink:href="#DejaVuSans-58" transform="translate(513.380859 0.015625)"/>
     <use xlink:href="#DejaVuSans-57" transform="translate(576.759766 0.015625)"/>
     <use xlink:href="#DejaVuSans-3" transform="translate(615.96875 0.015625)"/>
     <use xlink:href="#DejaVuSans-46" transform="translate(647.755859 0.015625)"/>
     <use xlink:href="#DejaVuSans-52" transform="translate(702.736328 0.015625)"/>
     <use xlink:href="#DejaVuSans-51" transform="translate(763.917969 0.015625)"/>
     <use xlink:href="#DejaVuSans-56" transform="translate(827.296875 0.015625)"/>
     <use xlink:href="#DejaVuSans-57" transform="translate(879.396484 0.015625)"/>
     <use xlink:href="#DejaVuSans-55" transform="translate(918.605469 0.015625)"/>
     <use xlink:href="#DejaVuSans-44" transform="translate(959.71875 0.015625)"/>
     <use xlink:href="#DejaVuSans-4c" transform="translate(1020.998047 0.015625)"/>
     <use xlink:href="#DejaVuSans-51" transform="translate(1048.78125 0.015625)"/>
     <use xlink:href="#DejaVuSans-57" transform="translate(1112.160156 0.015625)"/>
     <use xlink:href="#DejaVuSans-3" transform="translate(1151.369141 0.015625)"/>
     <use xlink:href="#DejaVuSans-56" transform="translate(1183.15625 0.015625)"/>
     <use xlink:href="#DejaVuSans-48" transform="translate(1235.255859 0.015625)"/>
     <use xlink:href="#DejaVuSans-57" transform="translate(1296.779297 0.015625)"/>
     <use xlink:href="#DejaVuSans-3" transform="translate(1335.988281 0.015625)"/>
     <use xlink:href="#DejaVuSans-Oblique-3a" transform="translate(1367.775391 0.015625)"/>
    </g>
   </g>
  </g>
 </g>
 <defs>
  <clipPath id="p6053dd58ff">
   <rect x="52.482813" y="22.32" width="277.088752" height="277.2"/>
  </clipPath>
 </defs>
</svg>
