<?xml version="1.0" encoding="utf-8" standalone="no"?>
<!DOCTYPE svg PUBLIC "-//W3C//DTD SVG 1.1//EN"
  "http://www.w3.org/Graphics/SVG/1.1/DTD/svg11.dtd">
<svg xmlns:xlink="http://www.w3.org/1999/xlink" width="504pt" height="403.2pt" viewBox="0 0 504 403.2" xmlns="http://www.w3.org/2000/svg" version="1.1">
 <metadata>
  <rdf:RDF xmlns:dc="http://purl.org/dc/elements/1.1/" xmlns:cc="http://creativecommons.org/ns#" xmlns:rdf="http://www.w3.org/1999/02/22-rdf-syntax-ns#">
   <cc:Work>
    <dc:type rdf:resource="http://purl.org/dc/dcmitype/StillImage"/>
    <dc:date>2026-08-14T17:42:01.199956</dc:date>
    <dc:format>image/svg+xml</dc:format>
    <dc:creator>
     <cc:Agent>
      <dc:title>Matplotlib v3.11.0, https://matplotlib.org/</dc:title>
     </cc:Agent>
    </dc:creator>
   </cc:Work>
  </rdf:RDF>
 </metadata>
 <defs>
  <style type="text/css">*{stroke-linejoin: round; stroke-linecap: butt}</style>
 </defs>
 <g id="figure_1">
  <g id="patch_1">
   <path d="M 0 403.2 
L 504 403.2 
L 504 0 
L 0 0 
z
" style="fill: #ffffff"/>
  </g>
  <g id="axes_1">
   <g id="patch_2">
    <path d="M 42.28 175.197656 
L 493.2 175.197656 
L 493.2 48.96 
L 42.28 48.96 
z
" style="fill: #ffffff"/>
   </g>
   <g id="matplotlib.axis_1">
    <g id="xtick_1">
     <g id="line2d_1">
      <path d="M 62.776349 175.197656 
L 62.776349 48.96 
" clip-path="url(#p92a933f56f)" style="fill: none; stroke: #b0b0b0; stroke-width: 0.8; stroke-linecap: square"/>
     </g>
     <g id="line2d_2">
      <defs>
       <path id="mfb5eb6fb0c" d="M 0 0 
L 0 3.5 
" style="stroke: #000000; stroke-width: 0.8"/>
      </defs>
      <g>
       <use xlink:href="#mfb5eb6fb0c" x="62.776349" y="175.197656" style="stroke: #000000; stroke-width: 0.8"/>
      </g>
     </g>
     <g id="text_1">
      <!-- 0 -->
      <g transform="translate(59.595099 189.795312) scale(0.1 -0.1)">
       <defs>
        <path id="DejaVuSans-13" d="M 2034 4250 
Q 1547 4250 1301 3770 
Q 1056 3291 1056 2328 
Q 1056 1369 1301 889 
Q 1547 409 2034 409 
Q 2525 409 2770 889 
Q 3016 1369 3016 2328 
Q 3016 3291 2770 3770 
Q 2525 4250 2034 4250 
z
M 2034 4750 
Q 2819 4750 3233 4129 
Q 3647 3509 3647 2328 
Q 3647 1150 3233 529 
Q 2819 -91 2034 -91 
Q 1250 -91 836 529 
Q 422 1150 422 2328 
Q 422 3509 836 4129 
Q 1250 4750 2034 4750 
z
" transform="scale(0.015625)"/>
       </defs>
       <use xlink:href="#DejaVuSans-13"/>
      </g>
     </g>
    </g>
    <g id="xtick_2">
     <g id="line2d_3">
      <path d="M 158.14322 175.197656 
L 158.14322 48.96 
" clip-path="url(#p92a933f56f)" style="fill: none; stroke: #b0b0b0; stroke-width: 0.8; stroke-linecap: square"/>
     </g>
     <g id="line2d_4">
      <g>
       <use xlink:href="#mfb5eb6fb0c" x="158.14322" y="175.197656" style="stroke: #000000; stroke-width: 0.8"/>
      </g>
     </g>
     <g id="text_2">
      <!-- 2 -->
      <g transform="translate(154.96197 189.795312) scale(0.1 -0.1)">
       <defs>
        <path id="DejaVuSans-15" d="M 1228 531 
L 3431 531 
L 3431 0 
L 469 0 
L 469 531 
Q 828 903 1448 1529 
Q 2069 2156 2228 2338 
Q 2531 2678 2651 2914 
Q 2772 3150 2772 3378 
Q 2772 3750 2511 3984 
Q 2250 4219 1831 4219 
Q 1534 4219 1204 4116 
Q 875 4013 500 3803 
L 500 4441 
Q 881 4594 1212 4672 
Q 1544 4750 1819 4750 
Q 2544 4750 2975 4387 
Q 3406 4025 3406 3419 
Q 3406 3131 3298 2873 
Q 3191 2616 2906 2266 
Q 2828 2175 2409 1742 
Q 1991 1309 1228 531 
z
" transform="scale(0.015625)"/>
       </defs>
       <use xlink:href="#DejaVuSans-15"/>
      </g>
     </g>
    </g>
    <g id="xtick_3">
     <g id="line2d_5">
      <path d="M 253.51009 175.197656 
L 253.51009 48.96 
" clip-path="url(#p92a933f56f)" style="fill: none; stroke: #b0b0b0; stroke-width: 0.8; stroke-linecap: square"/>
     </g>
     <g id="line2d_6">
      <g>
       <use xlink:href="#mfb5eb6fb0c" x="253.51009" y="175.197656" style="stroke: #000000; stroke-width: 0.8"/>
      </g>
     </g>
     <g id="text_3">
      <!-- 4 -->
      <g transform="translate(250.32884 189.795312) scale(0.1 -0.1)">
       <defs>
        <path id="DejaVuSans-17" d="M 2419 4116 
L 825 1625 
L 2419 1625 
L 2419 4116 
z
M 2253 4666 
L 3047 4666 
L 3047 1625 
L 3713 1625 
L 3713 1100 
L 3047 1100 
L 3047 0 
L 2419 0 
L 2419 1100 
L 313 1100 
L 313 1709 
L 2253 4666 
z
" transform="scale(0.015625)"/>
       </defs>
       <use xlink:href="#DejaVuSans-17"/>
      </g>
     </g>
    </g>
    <g id="xtick_4">
     <g id="line2d_7">
      <path d="M 348.87696 175.197656 
L 348.87696 48.96 
" clip-path="url(#p92a933f56f)" style="fill: none; stroke: #b0b0b0; stroke-width: 0.8; stroke-linecap: square"/>
     </g>
     <g id="line2d_8">
      <g>
       <use xlink:href="#mfb5eb6fb0c" x="348.87696" y="175.197656" style="stroke: #000000; stroke-width: 0.8"/>
      </g>
     </g>
     <g id="text_4">
      <!-- 6 -->
      <g transform="translate(345.69571 189.795312) scale(0.1 -0.1)">
       <defs>
        <path id="DejaVuSans-19" d="M 2113 2584 
Q 1688 2584 1439 2293 
Q 1191 2003 1191 1497 
Q 1191 994 1439 701 
Q 1688 409 2113 409 
Q 2538 409 2786 701 
Q 3034 994 3034 1497 
Q 3034 2003 2786 2293 
Q 2538 2584 2113 2584 
z
M 3366 4563 
L 3366 3988 
Q 3128 4100 2886 4159 
Q 2644 4219 2406 4219 
Q 1781 4219 1451 3797 
Q 1122 3375 1075 2522 
Q 1259 2794 1537 2939 
Q 1816 3084 2150 3084 
Q 2853 3084 3261 2657 
Q 3669 2231 3669 1497 
Q 3669 778 3244 343 
Q 2819 -91 2113 -91 
Q 1303 -91 875 529 
Q 447 1150 447 2328 
Q 447 3434 972 4092 
Q 1497 4750 2381 4750 
Q 2619 4750 2861 4703 
Q 3103 4656 3366 4563 
z
" transform="scale(0.015625)"/>
       </defs>
       <use xlink:href="#DejaVuSans-19"/>
      </g>
     </g>
    </g>
    <g id="xtick_5">
     <g id="line2d_9">
      <path d="M 444.243831 175.197656 
L 444.243831 48.96 
" clip-path="url(#p92a933f56f)" style="fill: none; stroke: #b0b0b0; stroke-width: 0.8; stroke-linecap: square"/>
     </g>
     <g id="line2d_10">
      <g>
       <use xlink:href="#mfb5eb6fb0c" x="444.243831" y="175.197656" style="stroke: #000000; stroke-width: 0.8"/>
      </g>
     </g>
     <g id="text_5">
      <!-- 8 -->
      <g transform="translate(441.062581 189.795312) scale(0.1 -0.1)">
       <defs>
        <path id="DejaVuSans-1b" d="M 2034 2216 
Q 1584 2216 1326 1975 
Q 1069 1734 1069 1313 
Q 1069 891 1326 650 
Q 1584 409 2034 409 
Q 2484 409 2743 651 
Q 3003 894 3003 1313 
Q 3003 1734 2745 1975 
Q 2488 2216 2034 2216 
z
M 1403 2484 
Q 997 2584 770 2862 
Q 544 3141 544 3541 
Q 544 4100 942 4425 
Q 1341 4750 2034 4750 
Q 2731 4750 3128 4425 
Q 3525 4100 3525 3541 
Q 3525 3141 3298 2862 
Q 3072 2584 2669 2484 
Q 3125 2378 3379 2068 
Q 3634 1759 3634 1313 
Q 3634 634 3220 271 
Q 2806 -91 2034 -91 
Q 1263 -91 848 271 
Q 434 634 434 1313 
Q 434 1759 690 2068 
Q 947 2378 1403 2484 
z
M 1172 3481 
Q 1172 3119 1398 2916 
Q 1625 2713 2034 2713 
Q 2441 2713 2670 2916 
Q 2900 3119 2900 3481 
Q 2900 3844 2670 4047 
Q 2441 4250 2034 4250 
Q 1625 4250 1398 4047 
Q 1172 3844 1172 3481 
z
" transform="scale(0.015625)"/>
       </defs>
       <use xlink:href="#DejaVuSans-1b"/>
      </g>
     </g>
    </g>
    <g id="text_6">
     <!-- t (s) -->
     <g transform="translate(257.684531 203.795312) scale(0.1 -0.1)">
      <defs>
       <path id="DejaVuSans-57" d="M 1172 4494 
L 1172 3500 
L 2356 3500 
L 2356 3053 
L 1172 3053 
L 1172 1153 
Q 1172 725 1289 603 
Q 1406 481 1766 481 
L 2356 481 
L 2356 0 
L 1766 0 
Q 1100 0 847 248 
Q 594 497 594 1153 
L 594 3053 
L 172 3053 
L 172 3500 
L 594 3500 
L 594 4494 
L 1172 4494 
z
" transform="scale(0.015625)"/>
       <path id="DejaVuSans-3" transform="scale(0.015625)"/>
       <path id="DejaVuSans-b" d="M 1984 4856 
Q 1566 4138 1362 3434 
Q 1159 2731 1159 2009 
Q 1159 1288 1364 580 
Q 1569 -128 1984 -844 
L 1484 -844 
Q 1016 -109 783 600 
Q 550 1309 550 2009 
Q 550 2706 781 3412 
Q 1013 4119 1484 4856 
L 1984 4856 
z
" transform="scale(0.015625)"/>
       <path id="DejaVuSans-56" d="M 2834 3397 
L 2834 2853 
Q 2591 2978 2328 3040 
Q 2066 3103 1784 3103 
Q 1356 3103 1142 2972 
Q 928 2841 928 2578 
Q 928 2378 1081 2264 
Q 1234 2150 1697 2047 
L 1894 2003 
Q 2506 1872 2764 1633 
Q 3022 1394 3022 966 
Q 3022 478 2636 193 
Q 2250 -91 1575 -91 
Q 1294 -91 989 -36 
Q 684 19 347 128 
L 347 722 
Q 666 556 975 473 
Q 1284 391 1588 391 
Q 1994 391 2212 530 
Q 2431 669 2431 922 
Q 2431 1156 2273 1281 
Q 2116 1406 1581 1522 
L 1381 1569 
Q 847 1681 609 1914 
Q 372 2147 372 2553 
Q 372 3047 722 3315 
Q 1072 3584 1716 3584 
Q 2034 3584 2315 3537 
Q 2597 3491 2834 3397 
z
" transform="scale(0.015625)"/>
       <path id="DejaVuSans-c" d="M 513 4856 
L 1013 4856 
Q 1481 4119 1714 3412 
Q 1947 2706 1947 2009 
Q 1947 1309 1714 600 
Q 1481 -109 1013 -844 
L 513 -844 
Q 928 -128 1133 580 
Q 1338 1288 1338 2009 
Q 1338 2731 1133 3434 
Q 928 4138 513 4856 
z
" transform="scale(0.015625)"/>
      </defs>
      <use xlink:href="#DejaVuSans-57"/>
      <use xlink:href="#DejaVuSans-3" transform="translate(39.203125 0)"/>
      <use xlink:href="#DejaVuSans-b" transform="translate(70.984375 0)"/>
      <use xlink:href="#DejaVuSans-56" transform="translate(110 0)"/>
      <use xlink:href="#DejaVuSans-c" transform="translate(162.09375 0)"/>
     </g>
    </g>
   </g>
   <g id="matplotlib.axis_2">
    <g id="ytick_1">
     <g id="line2d_11">
      <path d="M 42.28 155.914392 
L 493.2 155.914392 
" clip-path="url(#p92a933f56f)" style="fill: none; stroke: #b0b0b0; stroke-width: 0.8; stroke-linecap: square"/>
     </g>
     <g id="line2d_12">
      <defs>
       <path id="m58ca67e481" d="M 0 0 
L -3.5 0 
" style="stroke: #000000; stroke-width: 0.8"/>
      </defs>
      <g>
       <use xlink:href="#m58ca67e481" x="42.28" y="155.914392" style="stroke: #000000; stroke-width: 0.8"/>
      </g>
     </g>
     <g id="text_7">
      <!-- −0.4 -->
      <g transform="translate(10.997188 159.71322) scale(0.1 -0.1)">
       <defs>
        <path id="DejaVuSans-c9c" d="M 678 2272 
L 4684 2272 
L 4684 1741 
L 678 1741 
L 678 2272 
z
" transform="scale(0.015625)"/>
        <path id="DejaVuSans-11" d="M 684 794 
L 1344 794 
L 1344 0 
L 684 0 
L 684 794 
z
" transform="scale(0.015625)"/>
       </defs>
       <use xlink:href="#DejaVuSans-c9c"/>
       <use xlink:href="#DejaVuSans-13" transform="translate(83.796875 0)"/>
       <use xlink:href="#DejaVuSans-11" transform="translate(147.421875 0)"/>
       <use xlink:href="#DejaVuSans-17" transform="translate(179.203125 0)"/>
      </g>
     </g>
    </g>
    <g id="ytick_2">
     <g id="line2d_13">
      <path d="M 42.28 133.99661 
L 493.2 133.99661 
" clip-path="url(#p92a933f56f)" style="fill: none; stroke: #b0b0b0; stroke-width: 0.8; stroke-linecap: square"/>
     </g>
     <g id="line2d_14">
      <g>
       <use xlink:href="#m58ca67e481" x="42.28" y="133.99661" style="stroke: #000000; stroke-width: 0.8"/>
      </g>
     </g>
     <g id="text_8">
      <!-- −0.2 -->
      <g transform="translate(10.997188 137.795438) scale(0.1 -0.1)">
       <use xlink:href="#DejaVuSans-c9c"/>
       <use xlink:href="#DejaVuSans-13" transform="translate(83.796875 0)"/>
       <use xlink:href="#DejaVuSans-11" transform="translate(147.421875 0)"/>
       <use xlink:href="#DejaVuSans-15" transform="translate(179.203125 0)"/>
      </g>
     </g>
    </g>
    <g id="ytick_3">
     <g id="line2d_15">
      <path d="M 42.28 112.078828 
L 493.2 112.078828 
" clip-path="url(#p92a933f56f)" style="fill: none; stroke: #b0b0b0; stroke-width: 0.8; stroke-linecap: square"/>
     </g>
     <g id="line2d_16">
      <g>
       <use xlink:href="#m58ca67e481" x="42.28" y="112.078828" style="stroke: #000000; stroke-width: 0.8"/>
      </g>
     </g>
     <g id="text_9">
      <!-- 0.0 -->
      <g transform="translate(19.376875 115.877656) scale(0.1 -0.1)">
       <use xlink:href="#DejaVuSans-13"/>
       <use xlink:href="#DejaVuSans-11" transform="translate(63.625 0)"/>
       <use xlink:href="#DejaVuSans-13" transform="translate(95.40625 0)"/>
      </g>
     </g>
    </g>
    <g id="ytick_4">
     <g id="line2d_17">
      <path d="M 42.28 90.161046 
L 493.2 90.161046 
" clip-path="url(#p92a933f56f)" style="fill: none; stroke: #b0b0b0; stroke-width: 0.8; stroke-linecap: square"/>
     </g>
     <g id="line2d_18">
      <g>
       <use xlink:href="#m58ca67e481" x="42.28" y="90.161046" style="stroke: #000000; stroke-width: 0.8"/>
      </g>
     </g>
     <g id="text_10">
      <!-- 0.2 -->
      <g transform="translate(19.376875 93.959874) scale(0.1 -0.1)">
       <use xlink:href="#DejaVuSans-13"/>
       <use xlink:href="#DejaVuSans-11" transform="translate(63.625 0)"/>
       <use xlink:href="#DejaVuSans-15" transform="translate(95.40625 0)"/>
      </g>
     </g>
    </g>
    <g id="ytick_5">
     <g id="line2d_19">
      <path d="M 42.28 68.243264 
L 493.2 68.243264 
" clip-path="url(#p92a933f56f)" style="fill: none; stroke: #b0b0b0; stroke-width: 0.8; stroke-linecap: square"/>
     </g>
     <g id="line2d_20">
      <g>
       <use xlink:href="#m58ca67e481" x="42.28" y="68.243264" style="stroke: #000000; stroke-width: 0.8"/>
      </g>
     </g>
     <g id="text_11">
      <!-- 0.4 -->
      <g transform="translate(19.376875 72.042093) scale(0.1 -0.1)">
       <use xlink:href="#DejaVuSans-13"/>
       <use xlink:href="#DejaVuSans-11" transform="translate(63.625 0)"/>
       <use xlink:href="#DejaVuSans-17" transform="translate(95.40625 0)"/>
      </g>
     </g>
    </g>
   </g>
   <g id="line2d_21">
    <path d="M 62.776364 112.078828 
L 66.129477 112.078828 
L 69.47746 112.078828 
L 72.800113 112.078828 
L 76.15625 112.078828 
L 79.470821 112.078828 
L 82.826705 112.078828 
L 86.149262 112.078828 
L 89.490264 112.078828 
L 92.842891 112.078828 
L 96.171419 112.078828 
L 99.509746 112.078828 
L 102.84382 112.078828 
L 106.190853 112.07883 
L 109.51817 112.07883 
L 112.867569 112.078829 
L 116.211308 112.078829 
L 119.552539 112.078829 
L 122.874009 112.078829 
L 126.208689 112.078829 
L 129.55751 113.529478 
L 132.880264 114.634727 
L 137.319945 115.28225 
L 142.08752 115.051074 
L 146.855559 114.40457 
L 151.62581 116.308161 
L 156.395145 123.111605 
L 161.162072 132.821162 
L 165.930349 142.955431 
L 170.697076 149.593765 
L 175.46633 140.033351 
L 181.823948 131.473095 
L 186.594342 114.129497 
L 191.3623 85.228879 
L 196.130867 54.698075 
L 200.898352 54.698075 
L 204.075462 54.698075 
L 207.256438 54.698075 
L 212.039282 54.698075 
L 215.206182 54.698075 
L 218.386705 54.698075 
L 221.565779 54.698075 
L 224.744767 80.674126 
L 227.922839 123.899562 
L 231.108894 134.188465 
L 234.281301 127.918549 
L 237.459855 122.836326 
L 240.643263 121.260417 
L 243.818107 121.185119 
L 246.999069 121.309392 
L 250.177366 121.271284 
L 253.354094 120.854023 
L 258.122919 118.412433 
L 261.302002 117.117191 
L 266.068615 115.776013 
L 270.839261 114.758237 
L 275.611634 110.940395 
L 280.377784 104.224484 
L 285.14628 96.66077 
L 289.914643 88.988217 
L 294.687125 81.987278 
L 299.447539 80.845337 
L 304.218939 93.617345 
L 308.987311 91.595394 
L 313.75359 78.31247 
L 318.522234 100.018749 
L 323.292137 149.400253 
L 328.059159 169.304203 
L 332.827517 169.459581 
L 336.009819 169.459581 
L 339.185531 169.459581 
L 342.363289 169.459581 
L 345.543001 169.459581 
L 348.722323 169.459581 
L 351.901563 169.459581 
L 355.082444 169.459581 
L 358.261756 169.459581 
L 361.439896 162.503581 
L 364.619179 92.487063 
L 367.798486 76.402447 
L 370.979019 95.481631 
L 374.156028 107.113984 
L 377.334377 107.272674 
L 380.515244 104.561946 
L 383.694637 102.903383 
L 386.871636 102.510189 
L 390.050991 102.710313 
L 393.233117 103.063298 
L 396.409077 103.440936 
L 399.584636 103.843422 
L 402.765012 104.280854 
L 405.946837 104.773684 
L 409.126435 105.339617 
L 412.304541 105.995693 
L 415.481135 106.765836 
L 418.663756 107.589208 
L 421.837155 108.398962 
L 425.017798 109.136831 
L 428.19609 109.763919 
L 431.376198 110.266157 
L 434.554289 110.673791 
L 437.732743 111.026695 
L 440.915327 111.256953 
L 444.091873 111.406038 
L 447.273889 111.503666 
L 450.450707 111.565663 
L 453.629113 111.602118 
L 456.812383 111.621228 
L 459.988519 111.618942 
L 463.16672 111.600276 
L 466.345079 111.555761 
L 469.524305 111.400035 
L 472.703636 110.930689 
" clip-path="url(#p92a933f56f)" style="fill: none; stroke: #1f77b4; stroke-width: 1.5; stroke-linecap: square"/>
   </g>
   <g id="patch_3">
    <path d="M 42.28 175.197656 
L 42.28 48.96 
" style="fill: none; stroke: #000000; stroke-width: 0.8; stroke-linejoin: miter; stroke-linecap: square"/>
   </g>
   <g id="patch_4">
    <path d="M 493.2 175.197656 
L 493.2 48.96 
" style="fill: none; stroke: #000000; stroke-width: 0.8; stroke-linejoin: miter; stroke-linecap: square"/>
   </g>
   <g id="patch_5">
    <path d="M 42.28 175.197656 
L 493.2 175.197656 
" style="fill: none; stroke: #000000; stroke-width: 0.8; stroke-linejoin: miter; stroke-linecap: square"/>
   </g>
   <g id="patch_6">
    <path d="M 42.28 48.96 
L 493.2 48.96 
" style="fill: none; stroke: #000000; stroke-width: 0.8; stroke-linejoin: miter; stroke-linecap: square"/>
   </g>
   <g id="text_12">
    <!-- $\delta_e$ (rad) -->
    <g transform="translate(244.76 42.96) scale(0.12 -0.12)">
     <defs>
      <path id="DejaVuSans-Oblique-348" d="M 3472 4053 
Q 3197 4272 2450 4272 
Q 1659 4272 1588 3906 
Q 1531 3619 2328 3469 
Q 2953 3353 3253 3003 
Q 3616 2581 3447 1716 
Q 3284 888 2763 400 
Q 2238 -91 1488 -91 
Q 741 -91 406 400 
Q 72 888 241 1747 
Q 363 2384 891 2900 
Q 1097 3100 1353 3213 
Q 913 3459 1000 3900 
Q 1166 4750 2544 4750 
Q 3234 4750 3566 4531 
L 3472 4053 
z
M 1753 3056 
Q 1525 2966 1306 2738 
Q 969 2384 847 1747 
Q 722 1113 919 756 
Q 1119 397 1584 397 
Q 2044 397 2381 759 
Q 2722 1122 2838 1716 
Q 2956 2338 2731 2638 
Q 2491 2959 2103 2994 
Q 1906 3013 1753 3056 
z
" transform="scale(0.015625)"/>
      <path id="DejaVuSans-Oblique-48" d="M 3078 2063 
Q 3088 2113 3092 2166 
Q 3097 2219 3097 2272 
Q 3097 2653 2873 2875 
Q 2650 3097 2266 3097 
Q 1838 3097 1509 2826 
Q 1181 2556 1013 2059 
L 3078 2063 
z
M 3578 1613 
L 903 1613 
Q 884 1494 878 1425 
Q 872 1356 872 1306 
Q 872 872 1139 634 
Q 1406 397 1894 397 
Q 2269 397 2603 481 
Q 2938 566 3225 728 
L 3116 159 
Q 2806 34 2476 -28 
Q 2147 -91 1806 -91 
Q 1078 -91 686 257 
Q 294 606 294 1247 
Q 294 1794 489 2264 
Q 684 2734 1063 3103 
Q 1306 3334 1642 3459 
Q 1978 3584 2356 3584 
Q 2950 3584 3301 3228 
Q 3653 2872 3653 2272 
Q 3653 2128 3634 1964 
Q 3616 1800 3578 1613 
z
" transform="scale(0.015625)"/>
      <path id="DejaVuSans-55" d="M 2631 2963 
Q 2534 3019 2420 3045 
Q 2306 3072 2169 3072 
Q 1681 3072 1420 2755 
Q 1159 2438 1159 1844 
L 1159 0 
L 581 0 
L 581 3500 
L 1159 3500 
L 1159 2956 
Q 1341 3275 1631 3429 
Q 1922 3584 2338 3584 
Q 2397 3584 2469 3576 
Q 2541 3569 2628 3553 
L 2631 2963 
z
" transform="scale(0.015625)"/>
      <path id="DejaVuSans-44" d="M 2194 1759 
Q 1497 1759 1228 1600 
Q 959 1441 959 1056 
Q 959 750 1161 570 
Q 1363 391 1709 391 
Q 2188 391 2477 730 
Q 2766 1069 2766 1631 
L 2766 1759 
L 2194 1759 
z
M 3341 1997 
L 3341 0 
L 2766 0 
L 2766 531 
Q 2569 213 2275 61 
Q 1981 -91 1556 -91 
Q 1019 -91 701 211 
Q 384 513 384 1019 
Q 384 1609 779 1909 
Q 1175 2209 1959 2209 
L 2766 2209 
L 2766 2266 
Q 2766 2663 2505 2880 
Q 2244 3097 1772 3097 
Q 1472 3097 1187 3025 
Q 903 2953 641 2809 
L 641 3341 
Q 956 3463 1253 3523 
Q 1550 3584 1831 3584 
Q 2591 3584 2966 3190 
Q 3341 2797 3341 1997 
z
" transform="scale(0.015625)"/>
      <path id="DejaVuSans-47" d="M 2906 2969 
L 2906 4863 
L 3481 4863 
L 3481 0 
L 2906 0 
L 2906 525 
Q 2725 213 2448 61 
Q 2172 -91 1784 -91 
Q 1150 -91 751 415 
Q 353 922 353 1747 
Q 353 2572 751 3078 
Q 1150 3584 1784 3584 
Q 2172 3584 2448 3432 
Q 2725 3281 2906 2969 
z
M 947 1747 
Q 947 1113 1208 752 
Q 1469 391 1925 391 
Q 2381 391 2643 752 
Q 2906 1113 2906 1747 
Q 2906 2381 2643 2742 
Q 2381 3103 1925 3103 
Q 1469 3103 1208 2742 
Q 947 2381 947 1747 
z
" transform="scale(0.015625)"/>
     </defs>
     <use xlink:href="#DejaVuSans-Oblique-348" transform="translate(0 0.015625)"/>
     <use xlink:href="#DejaVuSans-Oblique-48" transform="translate(61.181641 -14.984326) scale(0.7)"/>
     <use xlink:href="#DejaVuSans-3" transform="translate(106.982422 0.015625)"/>
     <use xlink:href="#DejaVuSans-b" transform="translate(138.769531 0.015625)"/>
     <use xlink:href="#DejaVuSans-55" transform="translate(177.783203 0.015625)"/>
     <use xlink:href="#DejaVuSans-44" transform="translate(218.896484 0.015625)"/>
     <use xlink:href="#DejaVuSans-47" transform="translate(280.175781 0.015625)"/>
     <use xlink:href="#DejaVuSans-c" transform="translate(343.652344 0.015625)"/>
    </g>
   </g>
   <g id="legend_1">
    <g id="patch_7">
     <path d="M 443.5 71.960781 
L 486.2 71.960781 
Q 488.2 71.960781 488.2 69.960781 
L 488.2 55.96 
Q 488.2 53.96 486.2 53.96 
L 443.5 53.96 
Q 441.5 53.96 441.5 55.96 
L 441.5 69.960781 
Q 441.5 71.960781 443.5 71.960781 
z
" style="fill: #ffffff; opacity: 0.8; stroke: #cccccc; stroke-linejoin: miter"/>
    </g>
    <g id="line2d_22">
     <path d="M 445.5 62.058437 
L 455.5 62.058437 
L 465.5 62.058437 
" style="fill: none; stroke: #1f77b4; stroke-width: 1.5; stroke-linecap: square"/>
    </g>
    <g id="text_13">
     <!-- $\delta_e$ -->
     <g transform="translate(473.5 65.558437) scale(0.1 -0.1)">
      <use xlink:href="#DejaVuSans-Oblique-348" transform="translate(0 0.78125)"/>
      <use xlink:href="#DejaVuSans-Oblique-48" transform="translate(61.181641 -14.218701) scale(0.7)"/>
     </g>
    </g>
   </g>
  </g>
  <g id="axes_2">
   <g id="patch_8">
    <path d="M 42.28 361.077656 
L 493.2 361.077656 
L 493.2 234.84 
L 42.28 234.84 
z
" style="fill: #ffffff"/>
   </g>
   <g id="matplotlib.axis_3">
    <g id="xtick_6">
     <g id="line2d_23">
      <path d="M 62.776349 361.077656 
L 62.776349 234.84 
" clip-path="url(#pfff5490a70)" style="fill: none; stroke: #b0b0b0; stroke-width: 0.8; stroke-linecap: square"/>
     </g>
     <g id="line2d_24">
      <g>
       <use xlink:href="#mfb5eb6fb0c" x="62.776349" y="361.077656" style="stroke: #000000; stroke-width: 0.8"/>
      </g>
     </g>
     <g id="text_14">
      <!-- 0 -->
      <g transform="translate(59.595099 375.675312) scale(0.1 -0.1)">
       <use xlink:href="#DejaVuSans-13"/>
      </g>
     </g>
    </g>
    <g id="xtick_7">
     <g id="line2d_25">
      <path d="M 158.14322 361.077656 
L 158.14322 234.84 
" clip-path="url(#pfff5490a70)" style="fill: none; stroke: #b0b0b0; stroke-width: 0.8; stroke-linecap: square"/>
     </g>
     <g id="line2d_26">
      <g>
       <use xlink:href="#mfb5eb6fb0c" x="158.14322" y="361.077656" style="stroke: #000000; stroke-width: 0.8"/>
      </g>
     </g>
     <g id="text_15">
      <!-- 2 -->
      <g transform="translate(154.96197 375.675312) scale(0.1 -0.1)">
       <use xlink:href="#DejaVuSans-15"/>
      </g>
     </g>
    </g>
    <g id="xtick_8">
     <g id="line2d_27">
      <path d="M 253.51009 361.077656 
L 253.51009 234.84 
" clip-path="url(#pfff5490a70)" style="fill: none; stroke: #b0b0b0; stroke-width: 0.8; stroke-linecap: square"/>
     </g>
     <g id="line2d_28">
      <g>
       <use xlink:href="#mfb5eb6fb0c" x="253.51009" y="361.077656" style="stroke: #000000; stroke-width: 0.8"/>
      </g>
     </g>
     <g id="text_16">
      <!-- 4 -->
      <g transform="translate(250.32884 375.675312) scale(0.1 -0.1)">
       <use xlink:href="#DejaVuSans-17"/>
      </g>
     </g>
    </g>
    <g id="xtick_9">
     <g id="line2d_29">
      <path d="M 348.87696 361.077656 
L 348.87696 234.84 
" clip-path="url(#pfff5490a70)" style="fill: none; stroke: #b0b0b0; stroke-width: 0.8; stroke-linecap: square"/>
     </g>
     <g id="line2d_30">
      <g>
       <use xlink:href="#mfb5eb6fb0c" x="348.87696" y="361.077656" style="stroke: #000000; stroke-width: 0.8"/>
      </g>
     </g>
     <g id="text_17">
      <!-- 6 -->
      <g transform="translate(345.69571 375.675312) scale(0.1 -0.1)">
       <use xlink:href="#DejaVuSans-19"/>
      </g>
     </g>
    </g>
    <g id="xtick_10">
     <g id="line2d_31">
      <path d="M 444.243831 361.077656 
L 444.243831 234.84 
" clip-path="url(#pfff5490a70)" style="fill: none; stroke: #b0b0b0; stroke-width: 0.8; stroke-linecap: square"/>
     </g>
     <g id="line2d_32">
      <g>
       <use xlink:href="#mfb5eb6fb0c" x="444.243831" y="361.077656" style="stroke: #000000; stroke-width: 0.8"/>
      </g>
     </g>
     <g id="text_18">
      <!-- 8 -->
      <g transform="translate(441.062581 375.675312) scale(0.1 -0.1)">
       <use xlink:href="#DejaVuSans-1b"/>
      </g>
     </g>
    </g>
    <g id="text_19">
     <!-- t (s) -->
     <g transform="translate(257.684531 389.675312) scale(0.1 -0.1)">
      <use xlink:href="#DejaVuSans-57"/>
      <use xlink:href="#DejaVuSans-3" transform="translate(39.203125 0)"/>
      <use xlink:href="#DejaVuSans-b" transform="translate(70.984375 0)"/>
      <use xlink:href="#DejaVuSans-56" transform="translate(110 0)"/>
      <use xlink:href="#DejaVuSans-c" transform="translate(162.09375 0)"/>
     </g>
    </g>
   </g>
   <g id="matplotlib.axis_4">
    <g id="ytick_6">
     <g id="line2d_33">
      <path d="M 42.28 355.339581 
L 493.2 355.339581 
" clip-path="url(#pfff5490a70)" style="fill: none; stroke: #b0b0b0; stroke-width: 0.8; stroke-linecap: square"/>
     </g>
     <g id="line2d_34">
      <g>
       <use xlink:href="#m58ca67e481" x="42.28" y="355.339581" style="stroke: #000000; stroke-width: 0.8"/>
      </g>
     </g>
     <g id="text_20">
      <!-- −1.0 -->
      <g transform="translate(10.997188 359.138409) scale(0.1 -0.1)">
       <defs>
        <path id="DejaVuSans-14" d="M 794 531 
L 1825 531 
L 1825 4091 
L 703 3866 
L 703 4441 
L 1819 4666 
L 2450 4666 
L 2450 531 
L 3481 531 
L 3481 0 
L 794 0 
L 794 531 
z
" transform="scale(0.015625)"/>
       </defs>
       <use xlink:href="#DejaVuSans-c9c"/>
       <use xlink:href="#DejaVuSans-14" transform="translate(83.796875 0)"/>
       <use xlink:href="#DejaVuSans-11" transform="translate(147.421875 0)"/>
       <use xlink:href="#DejaVuSans-13" transform="translate(179.203125 0)"/>
      </g>
     </g>
    </g>
    <g id="ytick_7">
     <g id="line2d_35">
      <path d="M 42.28 326.649205 
L 493.2 326.649205 
" clip-path="url(#pfff5490a70)" style="fill: none; stroke: #b0b0b0; stroke-width: 0.8; stroke-linecap: square"/>
     </g>
     <g id="line2d_36">
      <g>
       <use xlink:href="#m58ca67e481" x="42.28" y="326.649205" style="stroke: #000000; stroke-width: 0.8"/>
      </g>
     </g>
     <g id="text_21">
      <!-- −0.5 -->
      <g transform="translate(10.997188 330.448033) scale(0.1 -0.1)">
       <defs>
        <path id="DejaVuSans-18" d="M 691 4666 
L 3169 4666 
L 3169 4134 
L 1269 4134 
L 1269 2991 
Q 1406 3038 1543 3061 
Q 1681 3084 1819 3084 
Q 2600 3084 3056 2656 
Q 3513 2228 3513 1497 
Q 3513 744 3044 326 
Q 2575 -91 1722 -91 
Q 1428 -91 1123 -41 
Q 819 9 494 109 
L 494 744 
Q 775 591 1075 516 
Q 1375 441 1709 441 
Q 2250 441 2565 725 
Q 2881 1009 2881 1497 
Q 2881 1984 2565 2268 
Q 2250 2553 1709 2553 
Q 1456 2553 1204 2497 
Q 953 2441 691 2322 
L 691 4666 
z
" transform="scale(0.015625)"/>
       </defs>
       <use xlink:href="#DejaVuSans-c9c"/>
       <use xlink:href="#DejaVuSans-13" transform="translate(83.796875 0)"/>
       <use xlink:href="#DejaVuSans-11" transform="translate(147.421875 0)"/>
       <use xlink:href="#DejaVuSans-18" transform="translate(179.203125 0)"/>
      </g>
     </g>
    </g>
    <g id="ytick_8">
     <g id="line2d_37">
      <path d="M 42.28 297.958828 
L 493.2 297.958828 
" clip-path="url(#pfff5490a70)" style="fill: none; stroke: #b0b0b0; stroke-width: 0.8; stroke-linecap: square"/>
     </g>
     <g id="line2d_38">
      <g>
       <use xlink:href="#m58ca67e481" x="42.28" y="297.958828" style="stroke: #000000; stroke-width: 0.8"/>
      </g>
     </g>
     <g id="text_22">
      <!-- 0.0 -->
      <g transform="translate(19.376875 301.757656) scale(0.1 -0.1)">
       <use xlink:href="#DejaVuSans-13"/>
       <use xlink:href="#DejaVuSans-11" transform="translate(63.625 0)"/>
       <use xlink:href="#DejaVuSans-13" transform="translate(95.40625 0)"/>
      </g>
     </g>
    </g>
    <g id="ytick_9">
     <g id="line2d_39">
      <path d="M 42.28 269.268452 
L 493.2 269.268452 
" clip-path="url(#pfff5490a70)" style="fill: none; stroke: #b0b0b0; stroke-width: 0.8; stroke-linecap: square"/>
     </g>
     <g id="line2d_40">
      <g>
       <use xlink:href="#m58ca67e481" x="42.28" y="269.268452" style="stroke: #000000; stroke-width: 0.8"/>
      </g>
     </g>
     <g id="text_23">
      <!-- 0.5 -->
      <g transform="translate(19.376875 273.06728) scale(0.1 -0.1)">
       <use xlink:href="#DejaVuSans-13"/>
       <use xlink:href="#DejaVuSans-11" transform="translate(63.625 0)"/>
       <use xlink:href="#DejaVuSans-18" transform="translate(95.40625 0)"/>
      </g>
     </g>
    </g>
    <g id="ytick_10">
     <g id="line2d_41">
      <path d="M 42.28 240.578075 
L 493.2 240.578075 
" clip-path="url(#pfff5490a70)" style="fill: none; stroke: #b0b0b0; stroke-width: 0.8; stroke-linecap: square"/>
     </g>
     <g id="line2d_42">
      <g>
       <use xlink:href="#m58ca67e481" x="42.28" y="240.578075" style="stroke: #000000; stroke-width: 0.8"/>
      </g>
     </g>
     <g id="text_24">
      <!-- 1.0 -->
      <g transform="translate(19.376875 244.376903) scale(0.1 -0.1)">
       <use xlink:href="#DejaVuSans-14"/>
       <use xlink:href="#DejaVuSans-11" transform="translate(63.625 0)"/>
       <use xlink:href="#DejaVuSans-13" transform="translate(95.40625 0)"/>
      </g>
     </g>
    </g>
   </g>
   <g id="line2d_43">
    <path d="M 62.776364 297.958828 
L 66.129477 240.578075 
L 69.47746 240.578075 
L 72.800113 240.578075 
L 76.15625 240.578075 
L 79.470821 240.578075 
L 82.826705 240.578075 
L 86.149262 240.578075 
L 89.490264 240.578075 
L 92.842891 240.578075 
L 96.171419 240.578075 
L 99.509746 240.578075 
L 102.84382 240.578075 
L 106.190853 240.578075 
L 109.51817 240.578075 
L 112.867569 240.578075 
L 116.211308 240.578075 
L 119.552539 240.578075 
L 122.874009 240.578075 
L 126.208689 240.578075 
L 129.55751 240.578075 
L 132.880264 256.320384 
L 137.319945 277.891772 
L 142.08752 298.26182 
L 146.855559 316.189582 
L 151.62581 340.130522 
L 156.395145 355.339581 
L 161.162072 355.339581 
L 165.930349 355.339581 
L 170.697076 355.339581 
L 175.46633 355.339581 
L 181.823948 296.645402 
L 186.594342 278.008861 
L 191.3623 292.446402 
L 196.130867 355.339581 
L 200.898352 355.339581 
L 204.075462 355.339581 
L 207.256438 296.175582 
L 212.039282 240.578075 
L 215.206182 240.578075 
L 218.386705 240.578075 
L 221.565779 240.578075 
L 224.744767 240.578075 
L 227.922839 240.578075 
L 231.108894 240.578075 
L 234.281301 240.578075 
L 237.459855 240.578075 
L 240.643263 240.578075 
L 243.818107 262.674607 
L 246.999069 285.067737 
L 250.177366 303.993519 
L 253.354094 318.834288 
L 258.122919 335.615028 
L 261.302002 344.48467 
L 266.068615 353.066286 
L 270.839261 355.339581 
L 275.611634 355.339581 
L 280.377784 355.339581 
L 285.14628 355.339581 
L 289.914643 355.339581 
L 294.687125 355.339581 
L 299.447539 355.339581 
L 304.218939 355.339581 
L 308.987311 324.363551 
L 313.75359 240.578075 
L 318.522234 268.937672 
L 323.292137 289.596543 
L 328.059159 355.339581 
L 332.827517 355.339581 
L 336.009819 355.339581 
L 339.185531 355.339581 
L 342.363289 268.385833 
L 345.543001 240.578075 
L 348.722323 240.578075 
L 351.901563 240.578075 
L 355.082444 240.578075 
L 358.261756 240.578075 
L 361.439896 240.578075 
L 364.619179 240.578075 
L 367.798486 240.578075 
L 370.979019 240.578075 
L 374.156028 240.578075 
L 377.334377 240.578075 
L 380.515244 240.578075 
L 383.694637 255.066425 
L 386.871636 278.351089 
L 390.050991 298.238542 
L 393.233117 313.606412 
L 396.409077 324.250871 
L 399.584636 330.539752 
L 402.765012 332.829798 
L 405.946837 331.88327 
L 409.126435 328.604173 
L 412.304541 324.285864 
L 415.481135 321.484625 
L 418.663756 320.85096 
L 421.837155 322.881761 
L 425.017798 327.804583 
L 428.19609 335.417238 
L 431.376198 345.197003 
L 434.554289 355.339581 
L 437.732743 355.339581 
L 440.915327 355.339581 
L 444.091873 355.339581 
L 447.273889 355.339581 
L 450.450707 355.339581 
L 453.629113 355.339581 
L 456.812383 355.339581 
L 459.988519 355.339581 
L 463.16672 355.339581 
L 466.345079 297.958828 
L 469.524305 297.958828 
L 472.703636 297.958828 
" clip-path="url(#pfff5490a70)" style="fill: none; stroke: #1f77b4; stroke-width: 1.5; stroke-linecap: square"/>
   </g>
   <g id="patch_9">
    <path d="M 42.28 361.077656 
L 42.28 234.84 
" style="fill: none; stroke: #000000; stroke-width: 0.8; stroke-linejoin: miter; stroke-linecap: square"/>
   </g>
   <g id="patch_10">
    <path d="M 493.2 361.077656 
L 493.2 234.84 
" style="fill: none; stroke: #000000; stroke-width: 0.8; stroke-linejoin: miter; stroke-linecap: square"/>
   </g>
   <g id="patch_11">
    <path d="M 42.28 361.077656 
L 493.2 361.077656 
" style="fill: none; stroke: #000000; stroke-width: 0.8; stroke-linejoin: miter; stroke-linecap: square"/>
   </g>
   <g id="patch_12">
    <path d="M 42.28 234.84 
L 493.2 234.84 
" style="fill: none; stroke: #000000; stroke-width: 0.8; stroke-linejoin: miter; stroke-linecap: square"/>
   </g>
   <g id="text_25">
    <!-- $a_{x,e}$ $\left(\mathrm{m/s^2}\right)$ -->
    <g transform="translate(236.18 228.84) scale(0.12 -0.12)">
     <defs>
      <path id="DejaVuSans-Oblique-44" d="M 3438 1997 
L 3047 0 
L 2472 0 
L 2578 531 
Q 2325 219 2001 64 
Q 1678 -91 1281 -91 
Q 834 -91 548 182 
Q 263 456 263 884 
Q 263 1497 752 1853 
Q 1241 2209 2100 2209 
L 2900 2209 
L 2931 2363 
Q 2938 2388 2941 2417 
Q 2944 2447 2944 2509 
Q 2944 2788 2717 2942 
Q 2491 3097 2081 3097 
Q 1800 3097 1504 3025 
Q 1209 2953 897 2809 
L 997 3341 
Q 1322 3463 1633 3523 
Q 1944 3584 2234 3584 
Q 2853 3584 3176 3315 
Q 3500 3047 3500 2534 
Q 3500 2431 3484 2292 
Q 3469 2153 3438 1997 
z
M 2816 1759 
L 2241 1759 
Q 1534 1759 1195 1570 
Q 856 1381 856 984 
Q 856 709 1029 553 
Q 1203 397 1509 397 
Q 1978 397 2328 733 
Q 2678 1069 2791 1631 
L 2816 1759 
z
" transform="scale(0.015625)"/>
      <path id="DejaVuSans-Oblique-5b" d="M 3841 3500 
L 2234 1784 
L 3219 0 
L 2559 0 
L 1819 1388 
L 531 0 
L -166 0 
L 1556 1844 
L 641 3500 
L 1300 3500 
L 1972 2234 
L 3144 3500 
L 3841 3500 
z
" transform="scale(0.015625)"/>
      <path id="DejaVuSans-f" d="M 750 794 
L 1409 794 
L 1409 256 
L 897 -744 
L 494 -744 
L 750 256 
L 750 794 
z
" transform="scale(0.015625)"/>
      <path id="STIXSizeOneSym-Regular-4" d="M 2445 -858 
L 2445 -1050 
Q 1728 -371 1309 630 
Q 890 1632 890 2886 
Q 890 4122 1309 5136 
Q 1728 6150 2445 6822 
L 2445 6630 
Q 1408 5363 1408 2886 
Q 1408 410 2445 -858 
z
" transform="scale(0.015625)"/>
      <path id="DejaVuSans-50" d="M 3328 2828 
Q 3544 3216 3844 3400 
Q 4144 3584 4550 3584 
Q 5097 3584 5394 3201 
Q 5691 2819 5691 2113 
L 5691 0 
L 5113 0 
L 5113 2094 
Q 5113 2597 4934 2840 
Q 4756 3084 4391 3084 
Q 3944 3084 3684 2787 
Q 3425 2491 3425 1978 
L 3425 0 
L 2847 0 
L 2847 2094 
Q 2847 2600 2669 2842 
Q 2491 3084 2119 3084 
Q 1678 3084 1418 2786 
Q 1159 2488 1159 1978 
L 1159 0 
L 581 0 
L 581 3500 
L 1159 3500 
L 1159 2956 
Q 1356 3278 1631 3431 
Q 1906 3584 2284 3584 
Q 2666 3584 2933 3390 
Q 3200 3197 3328 2828 
z
" transform="scale(0.015625)"/>
      <path id="DejaVuSans-12" d="M 1625 4666 
L 2156 4666 
L 531 -594 
L 0 -594 
L 1625 4666 
z
" transform="scale(0.015625)"/>
      <path id="STIXSizeOneSym-Regular-5" d="M 550 6630 
L 550 6822 
Q 1267 6144 1686 5142 
Q 2106 4141 2106 2886 
Q 2106 1651 1686 636 
Q 1267 -378 550 -1050 
L 550 -858 
Q 1587 410 1587 2886 
Q 1587 5363 550 6630 
z
" transform="scale(0.015625)"/>
     </defs>
     <use xlink:href="#DejaVuSans-Oblique-44" transform="translate(0 0.746875)"/>
     <use xlink:href="#DejaVuSans-Oblique-5b" transform="translate(61.279297 -14.253076) scale(0.7)"/>
     <use xlink:href="#DejaVuSans-f" transform="translate(102.705078 -14.253076) scale(0.7)"/>
     <use xlink:href="#DejaVuSans-Oblique-48" transform="translate(138.59375 -14.253076) scale(0.7)"/>
     <use xlink:href="#DejaVuSans-3" transform="translate(184.394531 0.746875)"/>
     <use xlink:href="#STIXSizeOneSym-Regular-4" transform="translate(216.181641 5.1375) scale(0.833613)"/>
     <use xlink:href="#DejaVuSans-50" transform="translate(255.193878 0.746875)"/>
     <use xlink:href="#DejaVuSans-12" transform="translate(352.605988 0.746875)"/>
     <use xlink:href="#DejaVuSans-56" transform="translate(386.297394 0.746875)"/>
     <use xlink:href="#DejaVuSans-15" transform="translate(439.354034 42.046875) scale(0.7)"/>
     <use xlink:href="#STIXSizeOneSym-Regular-5" transform="translate(486.624542 5.1375) scale(0.833613)"/>
    </g>
   </g>
   <g id="legend_2">
    <g id="patch_13">
     <path d="M 401.6 259.642344 
L 486.2 259.642344 
Q 488.2 259.642344 488.2 257.642344 
L 488.2 241.84 
Q 488.2 239.84 486.2 239.84 
L 401.6 239.84 
Q 399.6 239.84 399.6 241.84 
L 399.6 257.642344 
Q 399.6 259.642344 401.6 259.642344 
z
" style="fill: #ffffff; opacity: 0.8; stroke: #cccccc; stroke-linejoin: miter"/>
    </g>
    <g id="line2d_44">
     <path d="M 403.6 249.74 
L 413.6 249.74 
L 423.6 249.74 
" style="fill: none; stroke: #1f77b4; stroke-width: 1.5; stroke-linecap: square"/>
    </g>
    <g id="text_26">
     <!-- $a_{x,e}$ $\left(\mathrm{m/s^2}\right)$ -->
     <g transform="translate(431.6 253.24) scale(0.1 -0.1)">
      <use xlink:href="#DejaVuSans-Oblique-44" transform="translate(0 0.746875)"/>
      <use xlink:href="#DejaVuSans-Oblique-5b" transform="translate(61.279297 -14.253076) scale(0.7)"/>
      <use xlink:href="#DejaVuSans-f" transform="translate(102.705078 -14.253076) scale(0.7)"/>
      <use xlink:href="#DejaVuSans-Oblique-48" transform="translate(138.59375 -14.253076) scale(0.7)"/>
      <use xlink:href="#DejaVuSans-3" transform="translate(184.394531 0.746875)"/>
      <use xlink:href="#STIXSizeOneSym-Regular-4" transform="translate(216.181641 5.1375) scale(0.833613)"/>
      <use xlink:href="#DejaVuSans-50" transform="translate(255.193878 0.746875)"/>
      <use xlink:href="#DejaVuSans-12" transform="translate(352.605988 0.746875)"/>
      <use xlink:href="#DejaVuSans-56" transform="translate(386.297394 0.746875)"/>
      <use xlink:href="#DejaVuSans-15" transform="translate(439.354034 42.046875) scale(0.7)"/>
      <use xlink:href="#STIXSizeOneSym-Regular-5" transform="translate(486.624542 5.1375) scale(0.833613)"/>
     </g>
    </g>
   </g>
  </g>
  <g id="text_27">
   <!-- QCar2 Input Error -->
   <g transform="translate(199.15125 17.181188) scale(0.12 -0.12)">
    <defs>
     <path id="DejaVuSans-34" d="M 2522 4238 
Q 1834 4238 1429 3725 
Q 1025 3213 1025 2328 
Q 1025 1447 1429 934 
Q 1834 422 2522 422 
Q 3209 422 3611 934 
Q 4013 1447 4013 2328 
Q 4013 3213 3611 3725 
Q 3209 4238 2522 4238 
z
M 3406 84 
L 4238 -825 
L 3475 -825 
L 2784 -78 
Q 2681 -84 2626 -87 
Q 2572 -91 2522 -91 
Q 1538 -91 948 567 
Q 359 1225 359 2328 
Q 359 3434 948 4092 
Q 1538 4750 2522 4750 
Q 3503 4750 4090 4092 
Q 4678 3434 4678 2328 
Q 4678 1516 4351 937 
Q 4025 359 3406 84 
z
" transform="scale(0.015625)"/>
     <path id="DejaVuSans-26" d="M 4122 4306 
L 4122 3641 
Q 3803 3938 3442 4084 
Q 3081 4231 2675 4231 
Q 1875 4231 1450 3742 
Q 1025 3253 1025 2328 
Q 1025 1406 1450 917 
Q 1875 428 2675 428 
Q 3081 428 3442 575 
Q 3803 722 4122 1019 
L 4122 359 
Q 3791 134 3420 21 
Q 3050 -91 2638 -91 
Q 1578 -91 968 557 
Q 359 1206 359 2328 
Q 359 3453 968 4101 
Q 1578 4750 2638 4750 
Q 3056 4750 3426 4639 
Q 3797 4528 4122 4306 
z
" transform="scale(0.015625)"/>
     <path id="DejaVuSans-2c" d="M 628 4666 
L 1259 4666 
L 1259 0 
L 628 0 
L 628 4666 
z
" transform="scale(0.015625)"/>
     <path id="DejaVuSans-51" d="M 3513 2113 
L 3513 0 
L 2938 0 
L 2938 2094 
Q 2938 2591 2744 2837 
Q 2550 3084 2163 3084 
Q 1697 3084 1428 2787 
Q 1159 2491 1159 1978 
L 1159 0 
L 581 0 
L 581 3500 
L 1159 3500 
L 1159 2956 
Q 1366 3272 1645 3428 
Q 1925 3584 2291 3584 
Q 2894 3584 3203 3211 
Q 3513 2838 3513 2113 
z
" transform="scale(0.015625)"/>
     <path id="DejaVuSans-53" d="M 1159 525 
L 1159 -1331 
L 581 -1331 
L 581 3500 
L 1159 3500 
L 1159 2969 
Q 1341 3281 1617 3432 
Q 1894 3584 2278 3584 
Q 2916 3584 3314 3078 
Q 3713 2572 3713 1747 
Q 3713 922 3314 415 
Q 2916 -91 2278 -91 
Q 1894 -91 1617 61 
Q 1341 213 1159 525 
z
M 3116 1747 
Q 3116 2381 2855 2742 
Q 2594 3103 2138 3103 
Q 1681 3103 1420 2742 
Q 1159 2381 1159 1747 
Q 1159 1113 1420 752 
Q 1681 391 2138 391 
Q 2594 391 2855 752 
Q 3116 1113 3116 1747 
z
" transform="scale(0.015625)"/>
     <path id="DejaVuSans-58" d="M 544 1381 
L 544 3500 
L 1119 3500 
L 1119 1403 
Q 1119 906 1312 657 
Q 1506 409 1894 409 
Q 2359 409 2629 706 
Q 2900 1003 2900 1516 
L 2900 3500 
L 3475 3500 
L 3475 0 
L 2900 0 
L 2900 538 
Q 2691 219 2414 64 
Q 2138 -91 1772 -91 
Q 1169 -91 856 284 
Q 544 659 544 1381 
z
M 1991 3584 
L 1991 3584 
z
" transform="scale(0.015625)"/>
     <path id="DejaVuSans-28" d="M 628 4666 
L 3578 4666 
L 3578 4134 
L 1259 4134 
L 1259 2753 
L 3481 2753 
L 3481 2222 
L 1259 2222 
L 1259 531 
L 3634 531 
L 3634 0 
L 628 0 
L 628 4666 
z
" transform="scale(0.015625)"/>
     <path id="DejaVuSans-52" d="M 1959 3097 
Q 1497 3097 1228 2736 
Q 959 2375 959 1747 
Q 959 1119 1226 758 
Q 1494 397 1959 397 
Q 2419 397 2687 759 
Q 2956 1122 2956 1747 
Q 2956 2369 2687 2733 
Q 2419 3097 1959 3097 
z
M 1959 3584 
Q 2709 3584 3137 3096 
Q 3566 2609 3566 1747 
Q 3566 888 3137 398 
Q 2709 -91 1959 -91 
Q 1206 -91 779 398 
Q 353 888 353 1747 
Q 353 2609 779 3096 
Q 1206 3584 1959 3584 
z
" transform="scale(0.015625)"/>
    </defs>
    <use xlink:href="#DejaVuSans-34"/>
    <use xlink:href="#DejaVuSans-26" transform="translate(78.71875 0)"/>
    <use xlink:href="#DejaVuSans-44" transform="translate(148.546875 0)"/>
    <use xlink:href="#DejaVuSans-55" transform="translate(209.828125 0)"/>
    <use xlink:href="#DejaVuSans-15" transform="translate(250.9375 0)"/>
    <use xlink:href="#DejaVuSans-3" transform="translate(314.5625 0)"/>
    <use xlink:href="#DejaVuSans-2c" transform="translate(346.34375 0)"/>
    <use xlink:href="#DejaVuSans-51" transform="translate(375.84375 0)"/>
    <use xlink:href="#DejaVuSans-53" transform="translate(439.21875 0)"/>
    <use xlink:href="#DejaVuSans-58" transform="translate(502.703125 0)"/>
    <use xlink:href="#DejaVuSans-57" transform="translate(566.078125 0)"/>
    <use xlink:href="#DejaVuSans-3" transform="translate(605.28125 0)"/>
    <use xlink:href="#DejaVuSans-28" transform="translate(637.0625 0)"/>
    <use xlink:href="#DejaVuSans-55" transform="translate(700.25 0)"/>
    <use xlink:href="#DejaVuSans-55" transform="translate(739.609375 0)"/>
    <use xlink:href="#DejaVuSans-52" transform="translate(778.515625 0)"/>
    <use xlink:href="#DejaVuSans-55" transform="translate(839.703125 0)"/>
   </g>
  </g>
 </g>
 <defs>
  <clipPath id="p92a933f56f">
   <rect x="42.28" y="48.96" width="450.92" height="126.237656"/>
  </clipPath>
  <clipPath id="pfff5490a70">
   <rect x="42.28" y="234.84" width="450.92" height="126.237656"/>
  </clipPath>
 </defs>
</svg>
