<?xml version="1.0" encoding="utf-8" standalone="no"?>
<!DOCTYPE svg PUBLIC "-//W3C//DTD SVG 1.1//EN"
  "http://www.w3.org/Graphics/SVG/1.1/DTD/svg11.dtd">
<svg xmlns:xlink="http://www.w3.org/1999/xlink" width="504pt" height="604.8pt" viewBox="0 0 504 604.8" xmlns="http://www.w3.org/2000/svg" version="1.1">
 <metadata>
  <rdf:RDF xmlns:dc="http://purl.org/dc/elements/1.1/" xmlns:cc="http://creativecommons.org/ns#" xmlns:rdf="http://www.w3.org/1999/02/22-rdf-syntax-ns#">
   <cc:Work>
    <dc:type rdf:resource="http://purl.org/dc/dcmitype/StillImage"/>
    <dc:date>2026-07-10T12:57:59.936571</dc:date>
    <dc:format>image/svg+xml</dc:format>
    <dc:creator>
     <cc:Agent>
      <dc:title>Matplotlib v3.11.0, https://matplotlib.org/</dc:title>
     </cc:Agent>
    </dc:creator>
   </cc:Work>
  </rdf:RDF>
 </metadata>
 <defs>
  <style type="text/css">*{stroke-linejoin: round; stroke-linecap: butt}</style>
 </defs>
 <g id="figure_1">
  <g id="patch_1">
   <path d="M 0 604.8 
L 504 604.8 
L 504 0 
L 0 0 
z
" style="fill: #ffffff"/>
  </g>
  <g id="axes_1">
   <g id="patch_2">
    <path d="M 42.28 180.599531 
L 493.2 180.599531 
L 493.2 49.202812 
L 42.28 49.202812 
z
" style="fill: #ffffff"/>
   </g>
   <g id="matplotlib.axis_1">
    <g id="xtick_1">
     <g id="line2d_1">
      <path d="M 62.77636 180.599531 
L 62.77636 49.202812 
" clip-path="url(#pb712547bcf)" style="fill: none; stroke: #b0b0b0; stroke-width: 0.8; stroke-linecap: square"/>
     </g>
     <g id="line2d_2">
      <defs>
       <path id="m0ff6f36b4d" d="M 0 0 
L 0 3.5 
" style="stroke: #000000; stroke-width: 0.8"/>
      </defs>
      <g>
       <use xlink:href="#m0ff6f36b4d" x="62.77636" y="180.599531" style="stroke: #000000; stroke-width: 0.8"/>
      </g>
     </g>
     <g id="text_1">
      <!-- 0 -->
      <g transform="translate(59.59511 195.197187) scale(0.1 -0.1)">
       <defs>
        <path id="DejaVuSans-13" d="M 2034 4250 
Q 1547 4250 1301 3770 
Q 1056 3291 1056 2328 
Q 1056 1369 1301 889 
Q 1547 409 2034 409 
Q 2525 409 2770 889 
Q 3016 1369 3016 2328 
Q 3016 3291 2770 3770 
Q 2525 4250 2034 4250 
z
M 2034 4750 
Q 2819 4750 3233 4129 
Q 3647 3509 3647 2328 
Q 3647 1150 3233 529 
Q 2819 -91 2034 -91 
Q 1250 -91 836 529 
Q 422 1150 422 2328 
Q 422 3509 836 4129 
Q 1250 4750 2034 4750 
z
" transform="scale(0.015625)"/>
       </defs>
       <use xlink:href="#DejaVuSans-13"/>
      </g>
     </g>
    </g>
    <g id="xtick_2">
     <g id="line2d_3">
      <path d="M 150.99763 180.599531 
L 150.99763 49.202812 
" clip-path="url(#pb712547bcf)" style="fill: none; stroke: #b0b0b0; stroke-width: 0.8; stroke-linecap: square"/>
     </g>
     <g id="line2d_4">
      <g>
       <use xlink:href="#m0ff6f36b4d" x="150.99763" y="180.599531" style="stroke: #000000; stroke-width: 0.8"/>
      </g>
     </g>
     <g id="text_2">
      <!-- 10 -->
      <g transform="translate(144.63513 195.197187) scale(0.1 -0.1)">
       <defs>
        <path id="DejaVuSans-14" d="M 794 531 
L 1825 531 
L 1825 4091 
L 703 3866 
L 703 4441 
L 1819 4666 
L 2450 4666 
L 2450 531 
L 3481 531 
L 3481 0 
L 794 0 
L 794 531 
z
" transform="scale(0.015625)"/>
       </defs>
       <use xlink:href="#DejaVuSans-14"/>
       <use xlink:href="#DejaVuSans-13" transform="translate(63.625 0)"/>
      </g>
     </g>
    </g>
    <g id="xtick_3">
     <g id="line2d_5">
      <path d="M 239.218899 180.599531 
L 239.218899 49.202812 
" clip-path="url(#pb712547bcf)" style="fill: none; stroke: #b0b0b0; stroke-width: 0.8; stroke-linecap: square"/>
     </g>
     <g id="line2d_6">
      <g>
       <use xlink:href="#m0ff6f36b4d" x="239.218899" y="180.599531" style="stroke: #000000; stroke-width: 0.8"/>
      </g>
     </g>
     <g id="text_3">
      <!-- 20 -->
      <g transform="translate(232.856399 195.197187) scale(0.1 -0.1)">
       <defs>
        <path id="DejaVuSans-15" d="M 1228 531 
L 3431 531 
L 3431 0 
L 469 0 
L 469 531 
Q 828 903 1448 1529 
Q 2069 2156 2228 2338 
Q 2531 2678 2651 2914 
Q 2772 3150 2772 3378 
Q 2772 3750 2511 3984 
Q 2250 4219 1831 4219 
Q 1534 4219 1204 4116 
Q 875 4013 500 3803 
L 500 4441 
Q 881 4594 1212 4672 
Q 1544 4750 1819 4750 
Q 2544 4750 2975 4387 
Q 3406 4025 3406 3419 
Q 3406 3131 3298 2873 
Q 3191 2616 2906 2266 
Q 2828 2175 2409 1742 
Q 1991 1309 1228 531 
z
" transform="scale(0.015625)"/>
       </defs>
       <use xlink:href="#DejaVuSans-15"/>
       <use xlink:href="#DejaVuSans-13" transform="translate(63.625 0)"/>
      </g>
     </g>
    </g>
    <g id="xtick_4">
     <g id="line2d_7">
      <path d="M 327.440169 180.599531 
L 327.440169 49.202812 
" clip-path="url(#pb712547bcf)" style="fill: none; stroke: #b0b0b0; stroke-width: 0.8; stroke-linecap: square"/>
     </g>
     <g id="line2d_8">
      <g>
       <use xlink:href="#m0ff6f36b4d" x="327.440169" y="180.599531" style="stroke: #000000; stroke-width: 0.8"/>
      </g>
     </g>
     <g id="text_4">
      <!-- 30 -->
      <g transform="translate(321.077669 195.197187) scale(0.1 -0.1)">
       <defs>
        <path id="DejaVuSans-16" d="M 2597 2516 
Q 3050 2419 3304 2112 
Q 3559 1806 3559 1356 
Q 3559 666 3084 287 
Q 2609 -91 1734 -91 
Q 1441 -91 1130 -33 
Q 819 25 488 141 
L 488 750 
Q 750 597 1062 519 
Q 1375 441 1716 441 
Q 2309 441 2620 675 
Q 2931 909 2931 1356 
Q 2931 1769 2642 2001 
Q 2353 2234 1838 2234 
L 1294 2234 
L 1294 2753 
L 1863 2753 
Q 2328 2753 2575 2939 
Q 2822 3125 2822 3475 
Q 2822 3834 2567 4026 
Q 2313 4219 1838 4219 
Q 1578 4219 1281 4162 
Q 984 4106 628 3988 
L 628 4550 
Q 988 4650 1302 4700 
Q 1616 4750 1894 4750 
Q 2613 4750 3031 4423 
Q 3450 4097 3450 3541 
Q 3450 3153 3228 2886 
Q 3006 2619 2597 2516 
z
" transform="scale(0.015625)"/>
       </defs>
       <use xlink:href="#DejaVuSans-16"/>
       <use xlink:href="#DejaVuSans-13" transform="translate(63.625 0)"/>
      </g>
     </g>
    </g>
    <g id="xtick_5">
     <g id="line2d_9">
      <path d="M 415.661439 180.599531 
L 415.661439 49.202812 
" clip-path="url(#pb712547bcf)" style="fill: none; stroke: #b0b0b0; stroke-width: 0.8; stroke-linecap: square"/>
     </g>
     <g id="line2d_10">
      <g>
       <use xlink:href="#m0ff6f36b4d" x="415.661439" y="180.599531" style="stroke: #000000; stroke-width: 0.8"/>
      </g>
     </g>
     <g id="text_5">
      <!-- 40 -->
      <g transform="translate(409.298939 195.197187) scale(0.1 -0.1)">
       <defs>
        <path id="DejaVuSans-17" d="M 2419 4116 
L 825 1625 
L 2419 1625 
L 2419 4116 
z
M 2253 4666 
L 3047 4666 
L 3047 1625 
L 3713 1625 
L 3713 1100 
L 3047 1100 
L 3047 0 
L 2419 0 
L 2419 1100 
L 313 1100 
L 313 1709 
L 2253 4666 
z
" transform="scale(0.015625)"/>
       </defs>
       <use xlink:href="#DejaVuSans-17"/>
       <use xlink:href="#DejaVuSans-13" transform="translate(63.625 0)"/>
      </g>
     </g>
    </g>
    <g id="text_6">
     <!-- t (s) -->
     <g transform="translate(257.684531 209.197187) scale(0.1 -0.1)">
      <defs>
       <path id="DejaVuSans-57" d="M 1172 4494 
L 1172 3500 
L 2356 3500 
L 2356 3053 
L 1172 3053 
L 1172 1153 
Q 1172 725 1289 603 
Q 1406 481 1766 481 
L 2356 481 
L 2356 0 
L 1766 0 
Q 1100 0 847 248 
Q 594 497 594 1153 
L 594 3053 
L 172 3053 
L 172 3500 
L 594 3500 
L 594 4494 
L 1172 4494 
z
" transform="scale(0.015625)"/>
       <path id="DejaVuSans-3" transform="scale(0.015625)"/>
       <path id="DejaVuSans-b" d="M 1984 4856 
Q 1566 4138 1362 3434 
Q 1159 2731 1159 2009 
Q 1159 1288 1364 580 
Q 1569 -128 1984 -844 
L 1484 -844 
Q 1016 -109 783 600 
Q 550 1309 550 2009 
Q 550 2706 781 3412 
Q 1013 4119 1484 4856 
L 1984 4856 
z
" transform="scale(0.015625)"/>
       <path id="DejaVuSans-56" d="M 2834 3397 
L 2834 2853 
Q 2591 2978 2328 3040 
Q 2066 3103 1784 3103 
Q 1356 3103 1142 2972 
Q 928 2841 928 2578 
Q 928 2378 1081 2264 
Q 1234 2150 1697 2047 
L 1894 2003 
Q 2506 1872 2764 1633 
Q 3022 1394 3022 966 
Q 3022 478 2636 193 
Q 2250 -91 1575 -91 
Q 1294 -91 989 -36 
Q 684 19 347 128 
L 347 722 
Q 666 556 975 473 
Q 1284 391 1588 391 
Q 1994 391 2212 530 
Q 2431 669 2431 922 
Q 2431 1156 2273 1281 
Q 2116 1406 1581 1522 
L 1381 1569 
Q 847 1681 609 1914 
Q 372 2147 372 2553 
Q 372 3047 722 3315 
Q 1072 3584 1716 3584 
Q 2034 3584 2315 3537 
Q 2597 3491 2834 3397 
z
" transform="scale(0.015625)"/>
       <path id="DejaVuSans-c" d="M 513 4856 
L 1013 4856 
Q 1481 4119 1714 3412 
Q 1947 2706 1947 2009 
Q 1947 1309 1714 600 
Q 1481 -109 1013 -844 
L 513 -844 
Q 928 -128 1133 580 
Q 1338 1288 1338 2009 
Q 1338 2731 1133 3434 
Q 928 4138 513 4856 
z
" transform="scale(0.015625)"/>
      </defs>
      <use xlink:href="#DejaVuSans-57"/>
      <use xlink:href="#DejaVuSans-3" transform="translate(39.203125 0)"/>
      <use xlink:href="#DejaVuSans-b" transform="translate(70.984375 0)"/>
      <use xlink:href="#DejaVuSans-56" transform="translate(110 0)"/>
      <use xlink:href="#DejaVuSans-c" transform="translate(162.09375 0)"/>
     </g>
    </g>
   </g>
   <g id="matplotlib.axis_2">
    <g id="ytick_1">
     <g id="line2d_11">
      <path d="M 42.28 176.446012 
L 493.2 176.446012 
" clip-path="url(#pb712547bcf)" style="fill: none; stroke: #b0b0b0; stroke-width: 0.8; stroke-linecap: square"/>
     </g>
     <g id="line2d_12">
      <defs>
       <path id="m65bb1182c9" d="M 0 0 
L -3.5 0 
" style="stroke: #000000; stroke-width: 0.8"/>
      </defs>
      <g>
       <use xlink:href="#m65bb1182c9" x="42.28" y="176.446012" style="stroke: #000000; stroke-width: 0.8"/>
      </g>
     </g>
     <g id="text_7">
      <!-- 0.0 -->
      <g transform="translate(19.376875 180.244841) scale(0.1 -0.1)">
       <defs>
        <path id="DejaVuSans-11" d="M 684 794 
L 1344 794 
L 1344 0 
L 684 0 
L 684 794 
z
" transform="scale(0.015625)"/>
       </defs>
       <use xlink:href="#DejaVuSans-13"/>
       <use xlink:href="#DejaVuSans-11" transform="translate(63.625 0)"/>
       <use xlink:href="#DejaVuSans-13" transform="translate(95.40625 0)"/>
      </g>
     </g>
    </g>
    <g id="ytick_2">
     <g id="line2d_13">
      <path d="M 42.28 152.191888 
L 493.2 152.191888 
" clip-path="url(#pb712547bcf)" style="fill: none; stroke: #b0b0b0; stroke-width: 0.8; stroke-linecap: square"/>
     </g>
     <g id="line2d_14">
      <g>
       <use xlink:href="#m65bb1182c9" x="42.28" y="152.191888" style="stroke: #000000; stroke-width: 0.8"/>
      </g>
     </g>
     <g id="text_8">
      <!-- 0.2 -->
      <g transform="translate(19.376875 155.990716) scale(0.1 -0.1)">
       <use xlink:href="#DejaVuSans-13"/>
       <use xlink:href="#DejaVuSans-11" transform="translate(63.625 0)"/>
       <use xlink:href="#DejaVuSans-15" transform="translate(95.40625 0)"/>
      </g>
     </g>
    </g>
    <g id="ytick_3">
     <g id="line2d_15">
      <path d="M 42.28 127.937764 
L 493.2 127.937764 
" clip-path="url(#pb712547bcf)" style="fill: none; stroke: #b0b0b0; stroke-width: 0.8; stroke-linecap: square"/>
     </g>
     <g id="line2d_16">
      <g>
       <use xlink:href="#m65bb1182c9" x="42.28" y="127.937764" style="stroke: #000000; stroke-width: 0.8"/>
      </g>
     </g>
     <g id="text_9">
      <!-- 0.4 -->
      <g transform="translate(19.376875 131.736592) scale(0.1 -0.1)">
       <use xlink:href="#DejaVuSans-13"/>
       <use xlink:href="#DejaVuSans-11" transform="translate(63.625 0)"/>
       <use xlink:href="#DejaVuSans-17" transform="translate(95.40625 0)"/>
      </g>
     </g>
    </g>
    <g id="ytick_4">
     <g id="line2d_17">
      <path d="M 42.28 103.683639 
L 493.2 103.683639 
" clip-path="url(#pb712547bcf)" style="fill: none; stroke: #b0b0b0; stroke-width: 0.8; stroke-linecap: square"/>
     </g>
     <g id="line2d_18">
      <g>
       <use xlink:href="#m65bb1182c9" x="42.28" y="103.683639" style="stroke: #000000; stroke-width: 0.8"/>
      </g>
     </g>
     <g id="text_10">
      <!-- 0.6 -->
      <g transform="translate(19.376875 107.482467) scale(0.1 -0.1)">
       <defs>
        <path id="DejaVuSans-19" d="M 2113 2584 
Q 1688 2584 1439 2293 
Q 1191 2003 1191 1497 
Q 1191 994 1439 701 
Q 1688 409 2113 409 
Q 2538 409 2786 701 
Q 3034 994 3034 1497 
Q 3034 2003 2786 2293 
Q 2538 2584 2113 2584 
z
M 3366 4563 
L 3366 3988 
Q 3128 4100 2886 4159 
Q 2644 4219 2406 4219 
Q 1781 4219 1451 3797 
Q 1122 3375 1075 2522 
Q 1259 2794 1537 2939 
Q 1816 3084 2150 3084 
Q 2853 3084 3261 2657 
Q 3669 2231 3669 1497 
Q 3669 778 3244 343 
Q 2819 -91 2113 -91 
Q 1303 -91 875 529 
Q 447 1150 447 2328 
Q 447 3434 972 4092 
Q 1497 4750 2381 4750 
Q 2619 4750 2861 4703 
Q 3103 4656 3366 4563 
z
" transform="scale(0.015625)"/>
       </defs>
       <use xlink:href="#DejaVuSans-13"/>
       <use xlink:href="#DejaVuSans-11" transform="translate(63.625 0)"/>
       <use xlink:href="#DejaVuSans-19" transform="translate(95.40625 0)"/>
      </g>
     </g>
    </g>
    <g id="ytick_5">
     <g id="line2d_19">
      <path d="M 42.28 79.429515 
L 493.2 79.429515 
" clip-path="url(#pb712547bcf)" style="fill: none; stroke: #b0b0b0; stroke-width: 0.8; stroke-linecap: square"/>
     </g>
     <g id="line2d_20">
      <g>
       <use xlink:href="#m65bb1182c9" x="42.28" y="79.429515" style="stroke: #000000; stroke-width: 0.8"/>
      </g>
     </g>
     <g id="text_11">
      <!-- 0.8 -->
      <g transform="translate(19.376875 83.228343) scale(0.1 -0.1)">
       <defs>
        <path id="DejaVuSans-1b" d="M 2034 2216 
Q 1584 2216 1326 1975 
Q 1069 1734 1069 1313 
Q 1069 891 1326 650 
Q 1584 409 2034 409 
Q 2484 409 2743 651 
Q 3003 894 3003 1313 
Q 3003 1734 2745 1975 
Q 2488 2216 2034 2216 
z
M 1403 2484 
Q 997 2584 770 2862 
Q 544 3141 544 3541 
Q 544 4100 942 4425 
Q 1341 4750 2034 4750 
Q 2731 4750 3128 4425 
Q 3525 4100 3525 3541 
Q 3525 3141 3298 2862 
Q 3072 2584 2669 2484 
Q 3125 2378 3379 2068 
Q 3634 1759 3634 1313 
Q 3634 634 3220 271 
Q 2806 -91 2034 -91 
Q 1263 -91 848 271 
Q 434 634 434 1313 
Q 434 1759 690 2068 
Q 947 2378 1403 2484 
z
M 1172 3481 
Q 1172 3119 1398 2916 
Q 1625 2713 2034 2713 
Q 2441 2713 2670 2916 
Q 2900 3119 2900 3481 
Q 2900 3844 2670 4047 
Q 2441 4250 2034 4250 
Q 1625 4250 1398 4047 
Q 1172 3844 1172 3481 
z
" transform="scale(0.015625)"/>
       </defs>
       <use xlink:href="#DejaVuSans-13"/>
       <use xlink:href="#DejaVuSans-11" transform="translate(63.625 0)"/>
       <use xlink:href="#DejaVuSans-1b" transform="translate(95.40625 0)"/>
      </g>
     </g>
    </g>
    <g id="ytick_6">
     <g id="line2d_21">
      <path d="M 42.28 55.175391 
L 493.2 55.175391 
" clip-path="url(#pb712547bcf)" style="fill: none; stroke: #b0b0b0; stroke-width: 0.8; stroke-linecap: square"/>
     </g>
     <g id="line2d_22">
      <g>
       <use xlink:href="#m65bb1182c9" x="42.28" y="55.175391" style="stroke: #000000; stroke-width: 0.8"/>
      </g>
     </g>
     <g id="text_12">
      <!-- 1.0 -->
      <g transform="translate(19.376875 58.974219) scale(0.1 -0.1)">
       <use xlink:href="#DejaVuSans-14"/>
       <use xlink:href="#DejaVuSans-11" transform="translate(63.625 0)"/>
       <use xlink:href="#DejaVuSans-13" transform="translate(95.40625 0)"/>
      </g>
     </g>
    </g>
   </g>
   <g id="line2d_23">
    <path d="M 62.776364 174.626953 
L 67.15808 165.531656 
L 113.918676 69.121513 
L 115.095487 67.302453 
L 116.272583 66.434045 
L 117.44805 68.253105 
L 118.920323 70.072164 
L 121.566678 75.529342 
L 122.449277 73.710283 
L 125.982238 80.98652 
L 128.334205 84.624639 
L 130.981584 90.081817 
L 133.627862 84.624639 
L 135.398746 88.262757 
L 137.15905 93.719935 
L 140.685627 100.996173 
L 141.862158 104.634291 
L 143.628656 100.996173 
L 144.216653 99.177113 
L 145.098801 97.358054 
L 145.686775 95.538995 
L 154.509593 77.348401 
L 161.566203 55.519689 
L 162.154421 55.175391 
L 171.270533 55.175391 
L 173.917622 60.632569 
L 176.270135 64.270687 
L 181.563397 75.185043 
L 183.916558 78.823162 
L 186.562542 84.28034 
L 188.327438 80.642221 
L 190.974104 86.099399 
L 191.561735 87.918459 
L 192.444589 89.737518 
L 194.796544 93.375637 
L 195.679235 95.194696 
L 198.032082 87.918459 
L 198.913688 86.099399 
L 202.442 75.185043 
L 203.324825 73.365984 
L 205.089056 67.908806 
L 205.971371 66.089747 
L 207.735693 60.632569 
L 208.61766 58.813509 
L 209.794245 55.175391 
L 222.145172 55.175391 
L 223.027698 55.398238 
L 225.379961 59.036357 
L 231.556031 71.769772 
L 232.732131 73.588831 
L 233.615086 75.40789 
L 235.378964 71.769772 
L 236.261017 73.588831 
L 237.437196 75.40789 
L 238.02492 77.22695 
L 242.438361 86.322246 
L 243.318761 84.503187 
L 244.494695 80.865068 
L 245.376773 79.046009 
L 245.965527 77.22695 
L 249.494394 69.950712 
L 250.082215 68.131653 
L 252.728849 62.674475 
L 254.493417 66.312594 
L 257.139784 60.855416 
L 258.316042 57.217297 
L 259.198382 55.398238 
L 260.080909 55.175391 
L 270.372985 55.175391 
L 271.255291 56.99445 
L 273.608302 60.632569 
L 274.49031 62.451628 
L 275.666847 64.270687 
L 277.430839 67.908806 
L 280.960506 73.365984 
L 283.60717 78.823162 
L 285.37151 75.185043 
L 286.253142 77.004103 
L 287.429709 78.823162 
L 292.722845 89.737518 
L 293.605368 87.918459 
L 297.133603 77.004103 
L 306.843874 56.99445 
L 307.431258 55.175391 
L 319.488524 55.175391 
L 320.370285 55.573754 
L 323.899517 61.030932 
L 325.369921 62.849991 
L 327.133983 66.48811 
L 328.016369 64.66905 
L 330.664362 70.126228 
L 333.015541 73.764347 
L 335.66237 79.221525 
L 337.427149 75.583406 
L 340.074129 81.040584 
L 340.662066 82.859644 
L 345.073169 91.95494 
L 345.954707 90.135881 
L 346.542894 88.316822 
L 349.190086 82.859644 
L 349.777531 81.040584 
L 351.542442 77.402466 
L 352.130476 75.583406 
L 353.899502 71.945288 
L 354.487131 70.126228 
L 358.898427 61.030932 
L 359.485383 59.211872 
L 361.249833 55.573754 
L 361.837757 55.175391 
L 371.542534 55.175391 
L 372.718224 55.822329 
L 377.424974 63.098566 
L 380.070555 68.555744 
L 382.42298 72.193863 
L 383.893411 74.012922 
L 386.539814 79.4701 
L 388.304375 75.831981 
L 389.480958 77.651041 
L 393.892202 86.746337 
L 395.069447 88.565397 
L 395.951296 90.384456 
L 397.126542 88.565397 
L 412.124295 57.641388 
L 412.714381 55.822329 
L 413.300638 55.175391 
L 424.475246 55.175391 
L 425.35722 55.874559 
L 426.533541 57.693619 
L 428.298267 61.331737 
L 429.475627 63.150797 
L 432.123618 68.607975 
L 433.300664 70.427034 
L 434.179731 72.246093 
L 436.534559 75.884212 
L 438.297634 79.522331 
L 440.945012 74.065153 
L 442.709493 77.703271 
L 443.884487 81.34139 
L 448.295236 90.436687 
L 448.885629 92.255746 
L 450.64823 88.617627 
L 453.001063 81.34139 
L 460.94036 64.969856 
L 462.704669 59.512678 
L 463.586958 57.693619 
L 464.17525 55.874559 
L 464.766125 55.175391 
L 467.411135 55.175391 
L 472.703636 66.089747 
L 472.703636 66.089747 
" clip-path="url(#pb712547bcf)" style="fill: none; stroke: #1f77b4; stroke-width: 1.5; stroke-linecap: square"/>
   </g>
   <g id="line2d_24">
    <path d="M 42.28 176.446012 
L 493.2 176.446012 
" clip-path="url(#pb712547bcf)" style="fill: none; stroke-dasharray: 3.7,1.6; stroke-dashoffset: 0; stroke: #ff0000"/>
   </g>
   <g id="line2d_25">
    <path d="M 42.28 55.175391 
L 493.2 55.175391 
" clip-path="url(#pb712547bcf)" style="fill: none; stroke-dasharray: 3.7,1.6; stroke-dashoffset: 0; stroke: #ff0000"/>
   </g>
   <g id="patch_3">
    <path d="M 42.28 180.599531 
L 42.28 49.202812 
" style="fill: none; stroke: #000000; stroke-width: 0.8; stroke-linejoin: miter; stroke-linecap: square"/>
   </g>
   <g id="patch_4">
    <path d="M 493.2 180.599531 
L 493.2 49.202812 
" style="fill: none; stroke: #000000; stroke-width: 0.8; stroke-linejoin: miter; stroke-linecap: square"/>
   </g>
   <g id="patch_5">
    <path d="M 42.28 180.599531 
L 493.2 180.599531 
" style="fill: none; stroke: #000000; stroke-width: 0.8; stroke-linejoin: miter; stroke-linecap: square"/>
   </g>
   <g id="patch_6">
    <path d="M 42.28 49.202812 
L 493.2 49.202812 
" style="fill: none; stroke: #000000; stroke-width: 0.8; stroke-linejoin: miter; stroke-linecap: square"/>
   </g>
   <g id="text_13">
    <!-- $v_{x,cmd}$ (m/s) -->
    <g transform="translate(232.7 43.202812) scale(0.12 -0.12)">
     <defs>
      <path id="DejaVuSans-Oblique-59" d="M 459 3500 
L 1069 3500 
L 1581 525 
L 3256 3500 
L 3866 3500 
L 1875 0 
L 1100 0 
L 459 3500 
z
" transform="scale(0.015625)"/>
      <path id="DejaVuSans-Oblique-5b" d="M 3841 3500 
L 2234 1784 
L 3219 0 
L 2559 0 
L 1819 1388 
L 531 0 
L -166 0 
L 1556 1844 
L 641 3500 
L 1300 3500 
L 1972 2234 
L 3144 3500 
L 3841 3500 
z
" transform="scale(0.015625)"/>
      <path id="DejaVuSans-f" d="M 750 794 
L 1409 794 
L 1409 256 
L 897 -744 
L 494 -744 
L 750 256 
L 750 794 
z
" transform="scale(0.015625)"/>
      <path id="DejaVuSans-Oblique-46" d="M 3431 3366 
L 3316 2797 
Q 3109 2947 2876 3022 
Q 2644 3097 2394 3097 
Q 2119 3097 1870 3000 
Q 1622 2903 1453 2725 
Q 1184 2453 1037 2087 
Q 891 1722 891 1331 
Q 891 859 1127 628 
Q 1363 397 1844 397 
Q 2081 397 2348 469 
Q 2616 541 2906 684 
L 2797 116 
Q 2547 13 2283 -39 
Q 2019 -91 1741 -91 
Q 1044 -91 669 257 
Q 294 606 294 1253 
Q 294 1797 489 2255 
Q 684 2713 1069 3078 
Q 1331 3328 1684 3456 
Q 2038 3584 2456 3584 
Q 2700 3584 2940 3529 
Q 3181 3475 3431 3366 
z
" transform="scale(0.015625)"/>
      <path id="DejaVuSans-Oblique-50" d="M 5747 2113 
L 5338 0 
L 4763 0 
L 5166 2094 
Q 5191 2228 5203 2325 
Q 5216 2422 5216 2491 
Q 5216 2772 5059 2928 
Q 4903 3084 4622 3084 
Q 4203 3084 3875 2770 
Q 3547 2456 3450 1953 
L 3066 0 
L 2491 0 
L 2900 2094 
Q 2925 2209 2937 2307 
Q 2950 2406 2950 2484 
Q 2950 2769 2794 2926 
Q 2638 3084 2363 3084 
Q 1938 3084 1609 2770 
Q 1281 2456 1184 1953 
L 800 0 
L 225 0 
L 909 3500 
L 1484 3500 
L 1375 2956 
Q 1609 3263 1923 3423 
Q 2238 3584 2597 3584 
Q 2978 3584 3223 3384 
Q 3469 3184 3519 2828 
Q 3781 3197 4126 3390 
Q 4472 3584 4856 3584 
Q 5306 3584 5551 3325 
Q 5797 3066 5797 2591 
Q 5797 2488 5784 2364 
Q 5772 2241 5747 2113 
z
" transform="scale(0.015625)"/>
      <path id="DejaVuSans-Oblique-47" d="M 2675 525 
Q 2444 222 2128 65 
Q 1813 -91 1428 -91 
Q 903 -91 598 267 
Q 294 625 294 1247 
Q 294 1766 478 2236 
Q 663 2706 1013 3078 
Q 1244 3325 1534 3454 
Q 1825 3584 2144 3584 
Q 2481 3584 2739 3421 
Q 2997 3259 3138 2956 
L 3513 4863 
L 4091 4863 
L 3144 0 
L 2566 0 
L 2675 525 
z
M 891 1350 
Q 891 897 1095 644 
Q 1300 391 1663 391 
Q 1931 391 2161 520 
Q 2391 650 2566 903 
Q 2750 1166 2856 1509 
Q 2963 1853 2963 2188 
Q 2963 2622 2758 2865 
Q 2553 3109 2194 3109 
Q 1922 3109 1687 2981 
Q 1453 2853 1288 2613 
Q 1106 2353 998 2009 
Q 891 1666 891 1350 
z
" transform="scale(0.015625)"/>
      <path id="DejaVuSans-50" d="M 3328 2828 
Q 3544 3216 3844 3400 
Q 4144 3584 4550 3584 
Q 5097 3584 5394 3201 
Q 5691 2819 5691 2113 
L 5691 0 
L 5113 0 
L 5113 2094 
Q 5113 2597 4934 2840 
Q 4756 3084 4391 3084 
Q 3944 3084 3684 2787 
Q 3425 2491 3425 1978 
L 3425 0 
L 2847 0 
L 2847 2094 
Q 2847 2600 2669 2842 
Q 2491 3084 2119 3084 
Q 1678 3084 1418 2786 
Q 1159 2488 1159 1978 
L 1159 0 
L 581 0 
L 581 3500 
L 1159 3500 
L 1159 2956 
Q 1356 3278 1631 3431 
Q 1906 3584 2284 3584 
Q 2666 3584 2933 3390 
Q 3200 3197 3328 2828 
z
" transform="scale(0.015625)"/>
      <path id="DejaVuSans-12" d="M 1625 4666 
L 2156 4666 
L 531 -594 
L 0 -594 
L 1625 4666 
z
" transform="scale(0.015625)"/>
     </defs>
     <use xlink:href="#DejaVuSans-Oblique-59" transform="translate(0 0.125)"/>
     <use xlink:href="#DejaVuSans-Oblique-5b" transform="translate(59.179688 -14.874951) scale(0.7)"/>
     <use xlink:href="#DejaVuSans-f" transform="translate(100.605469 -14.874951) scale(0.7)"/>
     <use xlink:href="#DejaVuSans-Oblique-46" transform="translate(136.494141 -14.874951) scale(0.7)"/>
     <use xlink:href="#DejaVuSans-Oblique-50" transform="translate(174.980469 -14.874951) scale(0.7)"/>
     <use xlink:href="#DejaVuSans-Oblique-47" transform="translate(243.168945 -14.874951) scale(0.7)"/>
     <use xlink:href="#DejaVuSans-3" transform="translate(290.336914 0.125)"/>
     <use xlink:href="#DejaVuSans-b" transform="translate(322.124023 0.125)"/>
     <use xlink:href="#DejaVuSans-50" transform="translate(361.137695 0.125)"/>
     <use xlink:href="#DejaVuSans-12" transform="translate(458.549805 0.125)"/>
     <use xlink:href="#DejaVuSans-56" transform="translate(492.241211 0.125)"/>
     <use xlink:href="#DejaVuSans-c" transform="translate(544.34082 0.125)"/>
    </g>
   </g>
   <g id="legend_1">
    <g id="patch_7">
     <path d="M 425.1 175.599531 
L 486.2 175.599531 
Q 488.2 175.599531 488.2 173.599531 
L 488.2 159.59875 
Q 488.2 157.59875 486.2 157.59875 
L 425.1 157.59875 
Q 423.1 157.59875 423.1 159.59875 
L 423.1 173.599531 
Q 423.1 175.599531 425.1 175.599531 
z
" style="fill: #ffffff; opacity: 0.8; stroke: #cccccc; stroke-linejoin: miter"/>
    </g>
    <g id="line2d_26">
     <path d="M 427.1 165.697187 
L 437.1 165.697187 
L 447.1 165.697187 
" style="fill: none; stroke: #1f77b4; stroke-width: 1.5; stroke-linecap: square"/>
    </g>
    <g id="text_14">
     <!-- $v_{x,cmd}$ -->
     <g transform="translate(455.1 169.197187) scale(0.1 -0.1)">
      <use xlink:href="#DejaVuSans-Oblique-59" transform="translate(0 0.3125)"/>
      <use xlink:href="#DejaVuSans-Oblique-5b" transform="translate(59.179688 -14.687451) scale(0.7)"/>
      <use xlink:href="#DejaVuSans-f" transform="translate(100.605469 -14.687451) scale(0.7)"/>
      <use xlink:href="#DejaVuSans-Oblique-46" transform="translate(136.494141 -14.687451) scale(0.7)"/>
      <use xlink:href="#DejaVuSans-Oblique-50" transform="translate(174.980469 -14.687451) scale(0.7)"/>
      <use xlink:href="#DejaVuSans-Oblique-47" transform="translate(243.168945 -14.687451) scale(0.7)"/>
     </g>
    </g>
   </g>
  </g>
  <g id="axes_2">
   <g id="patch_8">
    <path d="M 42.28 371.638594 
L 493.2 371.638594 
L 493.2 240.241875 
L 42.28 240.241875 
z
" style="fill: #ffffff"/>
   </g>
   <g id="matplotlib.axis_3">
    <g id="xtick_6">
     <g id="line2d_27">
      <path d="M 62.77636 371.638594 
L 62.77636 240.241875 
" clip-path="url(#p95adf9edfe)" style="fill: none; stroke: #b0b0b0; stroke-width: 0.8; stroke-linecap: square"/>
     </g>
     <g id="line2d_28">
      <g>
       <use xlink:href="#m0ff6f36b4d" x="62.77636" y="371.638594" style="stroke: #000000; stroke-width: 0.8"/>
      </g>
     </g>
     <g id="text_15">
      <!-- 0 -->
      <g transform="translate(59.59511 386.23625) scale(0.1 -0.1)">
       <use xlink:href="#DejaVuSans-13"/>
      </g>
     </g>
    </g>
    <g id="xtick_7">
     <g id="line2d_29">
      <path d="M 150.99763 371.638594 
L 150.99763 240.241875 
" clip-path="url(#p95adf9edfe)" style="fill: none; stroke: #b0b0b0; stroke-width: 0.8; stroke-linecap: square"/>
     </g>
     <g id="line2d_30">
      <g>
       <use xlink:href="#m0ff6f36b4d" x="150.99763" y="371.638594" style="stroke: #000000; stroke-width: 0.8"/>
      </g>
     </g>
     <g id="text_16">
      <!-- 10 -->
      <g transform="translate(144.63513 386.23625) scale(0.1 -0.1)">
       <use xlink:href="#DejaVuSans-14"/>
       <use xlink:href="#DejaVuSans-13" transform="translate(63.625 0)"/>
      </g>
     </g>
    </g>
    <g id="xtick_8">
     <g id="line2d_31">
      <path d="M 239.218899 371.638594 
L 239.218899 240.241875 
" clip-path="url(#p95adf9edfe)" style="fill: none; stroke: #b0b0b0; stroke-width: 0.8; stroke-linecap: square"/>
     </g>
     <g id="line2d_32">
      <g>
       <use xlink:href="#m0ff6f36b4d" x="239.218899" y="371.638594" style="stroke: #000000; stroke-width: 0.8"/>
      </g>
     </g>
     <g id="text_17">
      <!-- 20 -->
      <g transform="translate(232.856399 386.23625) scale(0.1 -0.1)">
       <use xlink:href="#DejaVuSans-15"/>
       <use xlink:href="#DejaVuSans-13" transform="translate(63.625 0)"/>
      </g>
     </g>
    </g>
    <g id="xtick_9">
     <g id="line2d_33">
      <path d="M 327.440169 371.638594 
L 327.440169 240.241875 
" clip-path="url(#p95adf9edfe)" style="fill: none; stroke: #b0b0b0; stroke-width: 0.8; stroke-linecap: square"/>
     </g>
     <g id="line2d_34">
      <g>
       <use xlink:href="#m0ff6f36b4d" x="327.440169" y="371.638594" style="stroke: #000000; stroke-width: 0.8"/>
      </g>
     </g>
     <g id="text_18">
      <!-- 30 -->
      <g transform="translate(321.077669 386.23625) scale(0.1 -0.1)">
       <use xlink:href="#DejaVuSans-16"/>
       <use xlink:href="#DejaVuSans-13" transform="translate(63.625 0)"/>
      </g>
     </g>
    </g>
    <g id="xtick_10">
     <g id="line2d_35">
      <path d="M 415.661439 371.638594 
L 415.661439 240.241875 
" clip-path="url(#p95adf9edfe)" style="fill: none; stroke: #b0b0b0; stroke-width: 0.8; stroke-linecap: square"/>
     </g>
     <g id="line2d_36">
      <g>
       <use xlink:href="#m0ff6f36b4d" x="415.661439" y="371.638594" style="stroke: #000000; stroke-width: 0.8"/>
      </g>
     </g>
     <g id="text_19">
      <!-- 40 -->
      <g transform="translate(409.298939 386.23625) scale(0.1 -0.1)">
       <use xlink:href="#DejaVuSans-17"/>
       <use xlink:href="#DejaVuSans-13" transform="translate(63.625 0)"/>
      </g>
     </g>
    </g>
    <g id="text_20">
     <!-- t (s) -->
     <g transform="translate(257.684531 400.23625) scale(0.1 -0.1)">
      <use xlink:href="#DejaVuSans-57"/>
      <use xlink:href="#DejaVuSans-3" transform="translate(39.203125 0)"/>
      <use xlink:href="#DejaVuSans-b" transform="translate(70.984375 0)"/>
      <use xlink:href="#DejaVuSans-56" transform="translate(110 0)"/>
      <use xlink:href="#DejaVuSans-c" transform="translate(162.09375 0)"/>
     </g>
    </g>
   </g>
   <g id="matplotlib.axis_4">
    <g id="ytick_7">
     <g id="line2d_37">
      <path d="M 42.28 351.567264 
L 493.2 351.567264 
" clip-path="url(#p95adf9edfe)" style="fill: none; stroke: #b0b0b0; stroke-width: 0.8; stroke-linecap: square"/>
     </g>
     <g id="line2d_38">
      <g>
       <use xlink:href="#m65bb1182c9" x="42.28" y="351.567264" style="stroke: #000000; stroke-width: 0.8"/>
      </g>
     </g>
     <g id="text_21">
      <!-- −0.4 -->
      <g transform="translate(10.997188 355.366092) scale(0.1 -0.1)">
       <defs>
        <path id="DejaVuSans-c9c" d="M 678 2272 
L 4684 2272 
L 4684 1741 
L 678 1741 
L 678 2272 
z
" transform="scale(0.015625)"/>
       </defs>
       <use xlink:href="#DejaVuSans-c9c"/>
       <use xlink:href="#DejaVuSans-13" transform="translate(83.796875 0)"/>
       <use xlink:href="#DejaVuSans-11" transform="translate(147.421875 0)"/>
       <use xlink:href="#DejaVuSans-17" transform="translate(179.203125 0)"/>
      </g>
     </g>
    </g>
    <g id="ytick_8">
     <g id="line2d_39">
      <path d="M 42.28 328.753749 
L 493.2 328.753749 
" clip-path="url(#p95adf9edfe)" style="fill: none; stroke: #b0b0b0; stroke-width: 0.8; stroke-linecap: square"/>
     </g>
     <g id="line2d_40">
      <g>
       <use xlink:href="#m65bb1182c9" x="42.28" y="328.753749" style="stroke: #000000; stroke-width: 0.8"/>
      </g>
     </g>
     <g id="text_22">
      <!-- −0.2 -->
      <g transform="translate(10.997188 332.552577) scale(0.1 -0.1)">
       <use xlink:href="#DejaVuSans-c9c"/>
       <use xlink:href="#DejaVuSans-13" transform="translate(83.796875 0)"/>
       <use xlink:href="#DejaVuSans-11" transform="translate(147.421875 0)"/>
       <use xlink:href="#DejaVuSans-15" transform="translate(179.203125 0)"/>
      </g>
     </g>
    </g>
    <g id="ytick_9">
     <g id="line2d_41">
      <path d="M 42.28 305.940234 
L 493.2 305.940234 
" clip-path="url(#p95adf9edfe)" style="fill: none; stroke: #b0b0b0; stroke-width: 0.8; stroke-linecap: square"/>
     </g>
     <g id="line2d_42">
      <g>
       <use xlink:href="#m65bb1182c9" x="42.28" y="305.940234" style="stroke: #000000; stroke-width: 0.8"/>
      </g>
     </g>
     <g id="text_23">
      <!-- 0.0 -->
      <g transform="translate(19.376875 309.739062) scale(0.1 -0.1)">
       <use xlink:href="#DejaVuSans-13"/>
       <use xlink:href="#DejaVuSans-11" transform="translate(63.625 0)"/>
       <use xlink:href="#DejaVuSans-13" transform="translate(95.40625 0)"/>
      </g>
     </g>
    </g>
    <g id="ytick_10">
     <g id="line2d_43">
      <path d="M 42.28 283.12672 
L 493.2 283.12672 
" clip-path="url(#p95adf9edfe)" style="fill: none; stroke: #b0b0b0; stroke-width: 0.8; stroke-linecap: square"/>
     </g>
     <g id="line2d_44">
      <g>
       <use xlink:href="#m65bb1182c9" x="42.28" y="283.12672" style="stroke: #000000; stroke-width: 0.8"/>
      </g>
     </g>
     <g id="text_24">
      <!-- 0.2 -->
      <g transform="translate(19.376875 286.925548) scale(0.1 -0.1)">
       <use xlink:href="#DejaVuSans-13"/>
       <use xlink:href="#DejaVuSans-11" transform="translate(63.625 0)"/>
       <use xlink:href="#DejaVuSans-15" transform="translate(95.40625 0)"/>
      </g>
     </g>
    </g>
    <g id="ytick_11">
     <g id="line2d_45">
      <path d="M 42.28 260.313205 
L 493.2 260.313205 
" clip-path="url(#p95adf9edfe)" style="fill: none; stroke: #b0b0b0; stroke-width: 0.8; stroke-linecap: square"/>
     </g>
     <g id="line2d_46">
      <g>
       <use xlink:href="#m65bb1182c9" x="42.28" y="260.313205" style="stroke: #000000; stroke-width: 0.8"/>
      </g>
     </g>
     <g id="text_25">
      <!-- 0.4 -->
      <g transform="translate(19.376875 264.112033) scale(0.1 -0.1)">
       <use xlink:href="#DejaVuSans-13"/>
       <use xlink:href="#DejaVuSans-11" transform="translate(63.625 0)"/>
       <use xlink:href="#DejaVuSans-17" transform="translate(95.40625 0)"/>
      </g>
     </g>
    </g>
   </g>
   <g id="line2d_47">
    <path d="M 62.776364 305.947134 
L 112.154308 305.940246 
L 113.036332 305.677424 
L 113.918676 305.096802 
L 115.095487 305.01965 
L 116.272583 312.600546 
L 117.44805 352.419957 
L 118.920323 365.666016 
L 122.449277 365.666016 
L 123.33231 246.214453 
L 127.158024 246.214453 
L 128.334205 365.666016 
L 133.627862 365.666016 
L 134.511174 246.214453 
L 148.337175 246.214453 
L 149.217167 335.69801 
L 150.102455 365.666016 
L 150.982323 334.693769 
L 151.862373 246.214453 
L 152.74531 246.214453 
L 153.626974 365.666016 
L 155.097614 365.666016 
L 155.685527 318.414103 
L 156.273091 285.610174 
L 157.449481 341.935888 
L 158.037406 337.799489 
L 158.625347 327.467277 
L 159.21365 325.873743 
L 160.389895 333.178782 
L 160.977993 333.761091 
L 161.566203 332.356782 
L 162.154421 329.935309 
L 165.68399 312.783472 
L 166.273256 310.927758 
L 166.859482 309.513207 
L 167.447668 308.48037 
L 168.037144 307.744227 
L 168.624151 307.224729 
L 169.800797 306.597313 
L 170.391174 306.443728 
L 173.035472 306.853808 
L 173.917622 316.925587 
L 175.093925 353.195862 
L 176.270135 365.666016 
L 178.034703 365.666016 
L 178.916734 365.051746 
L 179.799123 246.214453 
L 182.739962 246.214453 
L 183.916558 365.666016 
L 188.327438 365.666016 
L 189.210531 246.214453 
L 201.266128 246.214453 
L 201.854578 290.911344 
L 202.442 365.666016 
L 203.324825 365.666016 
L 203.912623 274.972589 
L 204.500719 270.670191 
L 205.089056 342.665503 
L 205.971371 365.666016 
L 206.559319 339.234613 
L 207.147393 305.808567 
L 207.735693 309.866577 
L 208.61766 337.966943 
L 209.206117 342.484031 
L 209.794245 336.675696 
L 210.382127 332.144352 
L 210.970307 330.95088 
L 211.559725 330.942415 
L 212.146558 330.209455 
L 212.734782 328.186714 
L 213.910732 321.549836 
L 215.087344 314.816556 
L 215.675468 312.275641 
L 217.145813 307.822896 
L 218.028274 305.908335 
L 218.616106 305.773003 
L 220.381099 306.887429 
L 221.262693 306.87347 
L 222.145172 306.247868 
L 223.027698 305.332303 
L 224.206028 304.367051 
L 225.379961 294.681741 
L 227.145059 250.784184 
L 228.02689 247.202017 
L 228.908661 270.589524 
L 229.791193 324.755028 
L 230.674094 350.516392 
L 231.556031 302.164637 
L 232.732131 246.214453 
L 235.378964 246.214453 
L 236.261017 365.666016 
L 247.730189 365.666016 
L 248.613039 246.214453 
L 250.082215 246.214453 
L 250.964659 331.428063 
L 251.847421 348.726508 
L 252.728849 272.405976 
L 253.611925 246.214453 
L 254.493417 246.214453 
L 256.257925 295.09756 
L 257.139784 303.6213 
L 258.316042 292.068279 
L 259.198382 289.059932 
L 260.080909 293.415795 
L 260.963475 302.000002 
L 261.550615 305.143402 
L 262.140859 305.355437 
L 263.021292 304.497012 
L 263.60935 304.193665 
L 264.197633 304.360466 
L 265.962003 305.429453 
L 267.138326 305.742918 
L 269.490981 305.927678 
L 271.255291 306.628818 
L 272.433462 303.597085 
L 273.608302 331.161023 
L 274.49031 360.611754 
L 275.666847 365.666016 
L 276.548964 365.666016 
L 277.430839 326.663355 
L 278.607578 246.214453 
L 279.783763 246.214453 
L 280.960506 254.595013 
L 281.842027 365.666016 
L 285.37151 365.666016 
L 286.253142 246.214453 
L 298.016049 246.214453 
L 298.89893 365.666016 
L 299.780663 365.666016 
L 301.563425 252.258947 
L 303.315199 365.666016 
L 304.197515 365.666016 
L 305.960874 308.176346 
L 306.843874 313.005572 
L 307.431258 326.572454 
L 308.019598 333.115797 
L 308.607329 332.486449 
L 309.783796 323.891909 
L 310.666398 316.120054 
L 311.256762 312.537243 
L 312.136325 309.405961 
L 312.72483 308.572576 
L 313.313453 308.447626 
L 314.195515 308.110199 
L 316.54745 306.576427 
L 317.730149 306.226475 
L 319.488524 305.869805 
L 321.546805 304.889382 
L 322.722868 292.786141 
L 323.899517 255.241277 
L 325.369921 246.214453 
L 328.016369 246.214453 
L 328.89847 365.666016 
L 331.839857 365.666016 
L 333.015541 246.214453 
L 337.427149 246.214453 
L 338.309154 365.666016 
L 350.660014 365.666016 
L 351.542442 246.214453 
L 352.130476 246.214453 
L 353.016127 341.643962 
L 353.899502 365.666016 
L 354.487131 284.961483 
L 355.369941 246.214453 
L 356.252798 246.214453 
L 357.133978 323.603711 
L 358.017004 342.455447 
L 358.898427 278.155093 
L 359.485383 257.236507 
L 360.367687 264.994719 
L 361.249833 283.087895 
L 361.837757 288.056664 
L 363.310702 285.70761 
L 363.896135 287.571961 
L 365.368501 297.589324 
L 366.251537 302.202439 
L 367.130874 305.435286 
L 367.721269 305.597546 
L 368.602878 304.622196 
L 369.484458 303.932099 
L 370.072161 304.166999 
L 370.660657 304.723777 
L 372.718224 307.315104 
L 373.895887 308.134913 
L 375.071042 322.575942 
L 376.247883 359.95987 
L 377.424974 365.666016 
L 379.189572 365.666016 
L 380.070555 253.581651 
L 381.247229 246.214453 
L 382.42298 246.214453 
L 383.893411 365.666016 
L 388.304375 365.666016 
L 389.480958 246.214453 
L 402.41993 246.214453 
L 403.301979 365.666016 
L 405.066543 365.666016 
L 405.948605 246.214453 
L 406.830813 246.214453 
L 407.71296 365.666016 
L 408.595235 365.666016 
L 409.477303 358.523106 
L 410.359501 309.256008 
L 411.242279 295.068838 
L 412.124295 325.922262 
L 412.714381 340.62706 
L 413.300638 340.177998 
L 414.182669 331.185156 
L 415.067605 319.684891 
L 415.947588 311.349837 
L 416.830104 308.528434 
L 417.712525 309.595587 
L 418.299299 310.583339 
L 418.89017 310.623323 
L 419.475894 309.912565 
L 420.653028 307.969151 
L 421.240514 307.255777 
L 421.828372 306.776453 
L 422.711187 306.21964 
L 424.475246 305.589773 
L 425.35722 305.408023 
L 426.533541 308.228414 
L 427.415994 296.68433 
L 428.298267 270.785069 
L 429.475627 246.214453 
L 431.24023 246.214453 
L 432.123618 310.228485 
L 433.300664 365.666016 
L 434.179731 365.666016 
L 435.35586 320.50654 
L 436.534559 246.214453 
L 440.945012 246.214453 
L 441.827513 365.666016 
L 453.882722 365.666016 
L 454.764887 356.475489 
L 455.647239 246.214453 
L 457.411551 246.214453 
L 458.294135 365.666016 
L 459.176166 365.666016 
L 460.058366 246.214453 
L 461.528415 246.214453 
L 462.118913 271.291932 
L 462.704669 289.888496 
L 463.586958 292.755185 
L 464.17525 284.575547 
L 464.766125 278.793944 
L 465.646121 276.849169 
L 466.233615 280.230107 
L 469.177294 304.15266 
L 470.059267 306.982498 
L 470.939567 306.638731 
L 471.822358 305.67169 
L 472.703636 305.359041 
L 472.703636 305.359041 
" clip-path="url(#p95adf9edfe)" style="fill: none; stroke: #1f77b4; stroke-width: 1.5; stroke-linecap: square"/>
   </g>
   <g id="line2d_48">
    <path d="M 42.28 365.666016 
L 493.2 365.666016 
" clip-path="url(#p95adf9edfe)" style="fill: none; stroke-dasharray: 3.7,1.6; stroke-dashoffset: 0; stroke: #ff0000"/>
   </g>
   <g id="line2d_49">
    <path d="M 42.28 246.214453 
L 493.2 246.214453 
" clip-path="url(#p95adf9edfe)" style="fill: none; stroke-dasharray: 3.7,1.6; stroke-dashoffset: 0; stroke: #ff0000"/>
   </g>
   <g id="patch_9">
    <path d="M 42.28 371.638594 
L 42.28 240.241875 
" style="fill: none; stroke: #000000; stroke-width: 0.8; stroke-linejoin: miter; stroke-linecap: square"/>
   </g>
   <g id="patch_10">
    <path d="M 493.2 371.638594 
L 493.2 240.241875 
" style="fill: none; stroke: #000000; stroke-width: 0.8; stroke-linejoin: miter; stroke-linecap: square"/>
   </g>
   <g id="patch_11">
    <path d="M 42.28 371.638594 
L 493.2 371.638594 
" style="fill: none; stroke: #000000; stroke-width: 0.8; stroke-linejoin: miter; stroke-linecap: square"/>
   </g>
   <g id="patch_12">
    <path d="M 42.28 240.241875 
L 493.2 240.241875 
" style="fill: none; stroke: #000000; stroke-width: 0.8; stroke-linejoin: miter; stroke-linecap: square"/>
   </g>
   <g id="text_26">
    <!-- $\delta_{cmd}$ (rad) -->
    <g transform="translate(238.28 234.241875) scale(0.12 -0.12)">
     <defs>
      <path id="DejaVuSans-Oblique-348" d="M 3472 4053 
Q 3197 4272 2450 4272 
Q 1659 4272 1588 3906 
Q 1531 3619 2328 3469 
Q 2953 3353 3253 3003 
Q 3616 2581 3447 1716 
Q 3284 888 2763 400 
Q 2238 -91 1488 -91 
Q 741 -91 406 400 
Q 72 888 241 1747 
Q 363 2384 891 2900 
Q 1097 3100 1353 3213 
Q 913 3459 1000 3900 
Q 1166 4750 2544 4750 
Q 3234 4750 3566 4531 
L 3472 4053 
z
M 1753 3056 
Q 1525 2966 1306 2738 
Q 969 2384 847 1747 
Q 722 1113 919 756 
Q 1119 397 1584 397 
Q 2044 397 2381 759 
Q 2722 1122 2838 1716 
Q 2956 2338 2731 2638 
Q 2491 2959 2103 2994 
Q 1906 3013 1753 3056 
z
" transform="scale(0.015625)"/>
      <path id="DejaVuSans-55" d="M 2631 2963 
Q 2534 3019 2420 3045 
Q 2306 3072 2169 3072 
Q 1681 3072 1420 2755 
Q 1159 2438 1159 1844 
L 1159 0 
L 581 0 
L 581 3500 
L 1159 3500 
L 1159 2956 
Q 1341 3275 1631 3429 
Q 1922 3584 2338 3584 
Q 2397 3584 2469 3576 
Q 2541 3569 2628 3553 
L 2631 2963 
z
" transform="scale(0.015625)"/>
      <path id="DejaVuSans-44" d="M 2194 1759 
Q 1497 1759 1228 1600 
Q 959 1441 959 1056 
Q 959 750 1161 570 
Q 1363 391 1709 391 
Q 2188 391 2477 730 
Q 2766 1069 2766 1631 
L 2766 1759 
L 2194 1759 
z
M 3341 1997 
L 3341 0 
L 2766 0 
L 2766 531 
Q 2569 213 2275 61 
Q 1981 -91 1556 -91 
Q 1019 -91 701 211 
Q 384 513 384 1019 
Q 384 1609 779 1909 
Q 1175 2209 1959 2209 
L 2766 2209 
L 2766 2266 
Q 2766 2663 2505 2880 
Q 2244 3097 1772 3097 
Q 1472 3097 1187 3025 
Q 903 2953 641 2809 
L 641 3341 
Q 956 3463 1253 3523 
Q 1550 3584 1831 3584 
Q 2591 3584 2966 3190 
Q 3341 2797 3341 1997 
z
" transform="scale(0.015625)"/>
      <path id="DejaVuSans-47" d="M 2906 2969 
L 2906 4863 
L 3481 4863 
L 3481 0 
L 2906 0 
L 2906 525 
Q 2725 213 2448 61 
Q 2172 -91 1784 -91 
Q 1150 -91 751 415 
Q 353 922 353 1747 
Q 353 2572 751 3078 
Q 1150 3584 1784 3584 
Q 2172 3584 2448 3432 
Q 2725 3281 2906 2969 
z
M 947 1747 
Q 947 1113 1208 752 
Q 1469 391 1925 391 
Q 2381 391 2643 752 
Q 2906 1113 2906 1747 
Q 2906 2381 2643 2742 
Q 2381 3103 1925 3103 
Q 1469 3103 1208 2742 
Q 947 2381 947 1747 
z
" transform="scale(0.015625)"/>
     </defs>
     <use xlink:href="#DejaVuSans-Oblique-348" transform="translate(0 0.015625)"/>
     <use xlink:href="#DejaVuSans-Oblique-46" transform="translate(61.181641 -14.984326) scale(0.7)"/>
     <use xlink:href="#DejaVuSans-Oblique-50" transform="translate(99.667969 -14.984326) scale(0.7)"/>
     <use xlink:href="#DejaVuSans-Oblique-47" transform="translate(167.856445 -14.984326) scale(0.7)"/>
     <use xlink:href="#DejaVuSans-3" transform="translate(215.024414 0.015625)"/>
     <use xlink:href="#DejaVuSans-b" transform="translate(246.811523 0.015625)"/>
     <use xlink:href="#DejaVuSans-55" transform="translate(285.825195 0.015625)"/>
     <use xlink:href="#DejaVuSans-44" transform="translate(326.938477 0.015625)"/>
     <use xlink:href="#DejaVuSans-47" transform="translate(388.217773 0.015625)"/>
     <use xlink:href="#DejaVuSans-c" transform="translate(451.694336 0.015625)"/>
    </g>
   </g>
   <g id="legend_2">
    <g id="patch_13">
     <path d="M 49.28 263.242656 
L 102.88 263.242656 
Q 104.88 263.242656 104.88 261.242656 
L 104.88 247.241875 
Q 104.88 245.241875 102.88 245.241875 
L 49.28 245.241875 
Q 47.28 245.241875 47.28 247.241875 
L 47.28 261.242656 
Q 47.28 263.242656 49.28 263.242656 
z
" style="fill: #ffffff; opacity: 0.8; stroke: #cccccc; stroke-linejoin: miter"/>
    </g>
    <g id="line2d_50">
     <path d="M 51.28 253.340312 
L 61.28 253.340312 
L 71.28 253.340312 
" style="fill: none; stroke: #1f77b4; stroke-width: 1.5; stroke-linecap: square"/>
    </g>
    <g id="text_27">
     <!-- $\delta_{cmd}$ -->
     <g transform="translate(79.28 256.840312) scale(0.1 -0.1)">
      <use xlink:href="#DejaVuSans-Oblique-348" transform="translate(0 0.78125)"/>
      <use xlink:href="#DejaVuSans-Oblique-46" transform="translate(61.181641 -14.218701) scale(0.7)"/>
      <use xlink:href="#DejaVuSans-Oblique-50" transform="translate(99.667969 -14.218701) scale(0.7)"/>
      <use xlink:href="#DejaVuSans-Oblique-47" transform="translate(167.856445 -14.218701) scale(0.7)"/>
     </g>
    </g>
   </g>
  </g>
  <g id="axes_3">
   <g id="patch_14">
    <path d="M 42.28 562.677656 
L 493.2 562.677656 
L 493.2 431.280937 
L 42.28 431.280937 
z
" style="fill: #ffffff"/>
   </g>
   <g id="matplotlib.axis_5">
    <g id="xtick_11">
     <g id="line2d_51">
      <path d="M 62.77636 562.677656 
L 62.77636 431.280937 
" clip-path="url(#pd535c256fc)" style="fill: none; stroke: #b0b0b0; stroke-width: 0.8; stroke-linecap: square"/>
     </g>
     <g id="line2d_52">
      <g>
       <use xlink:href="#m0ff6f36b4d" x="62.77636" y="562.677656" style="stroke: #000000; stroke-width: 0.8"/>
      </g>
     </g>
     <g id="text_28">
      <!-- 0 -->
      <g transform="translate(59.59511 577.275312) scale(0.1 -0.1)">
       <use xlink:href="#DejaVuSans-13"/>
      </g>
     </g>
    </g>
    <g id="xtick_12">
     <g id="line2d_53">
      <path d="M 150.99763 562.677656 
L 150.99763 431.280937 
" clip-path="url(#pd535c256fc)" style="fill: none; stroke: #b0b0b0; stroke-width: 0.8; stroke-linecap: square"/>
     </g>
     <g id="line2d_54">
      <g>
       <use xlink:href="#m0ff6f36b4d" x="150.99763" y="562.677656" style="stroke: #000000; stroke-width: 0.8"/>
      </g>
     </g>
     <g id="text_29">
      <!-- 10 -->
      <g transform="translate(144.63513 577.275312) scale(0.1 -0.1)">
       <use xlink:href="#DejaVuSans-14"/>
       <use xlink:href="#DejaVuSans-13" transform="translate(63.625 0)"/>
      </g>
     </g>
    </g>
    <g id="xtick_13">
     <g id="line2d_55">
      <path d="M 239.218899 562.677656 
L 239.218899 431.280937 
" clip-path="url(#pd535c256fc)" style="fill: none; stroke: #b0b0b0; stroke-width: 0.8; stroke-linecap: square"/>
     </g>
     <g id="line2d_56">
      <g>
       <use xlink:href="#m0ff6f36b4d" x="239.218899" y="562.677656" style="stroke: #000000; stroke-width: 0.8"/>
      </g>
     </g>
     <g id="text_30">
      <!-- 20 -->
      <g transform="translate(232.856399 577.275312) scale(0.1 -0.1)">
       <use xlink:href="#DejaVuSans-15"/>
       <use xlink:href="#DejaVuSans-13" transform="translate(63.625 0)"/>
      </g>
     </g>
    </g>
    <g id="xtick_14">
     <g id="line2d_57">
      <path d="M 327.440169 562.677656 
L 327.440169 431.280937 
" clip-path="url(#pd535c256fc)" style="fill: none; stroke: #b0b0b0; stroke-width: 0.8; stroke-linecap: square"/>
     </g>
     <g id="line2d_58">
      <g>
       <use xlink:href="#m0ff6f36b4d" x="327.440169" y="562.677656" style="stroke: #000000; stroke-width: 0.8"/>
      </g>
     </g>
     <g id="text_31">
      <!-- 30 -->
      <g transform="translate(321.077669 577.275312) scale(0.1 -0.1)">
       <use xlink:href="#DejaVuSans-16"/>
       <use xlink:href="#DejaVuSans-13" transform="translate(63.625 0)"/>
      </g>
     </g>
    </g>
    <g id="xtick_15">
     <g id="line2d_59">
      <path d="M 415.661439 562.677656 
L 415.661439 431.280937 
" clip-path="url(#pd535c256fc)" style="fill: none; stroke: #b0b0b0; stroke-width: 0.8; stroke-linecap: square"/>
     </g>
     <g id="line2d_60">
      <g>
       <use xlink:href="#m0ff6f36b4d" x="415.661439" y="562.677656" style="stroke: #000000; stroke-width: 0.8"/>
      </g>
     </g>
     <g id="text_32">
      <!-- 40 -->
      <g transform="translate(409.298939 577.275312) scale(0.1 -0.1)">
       <use xlink:href="#DejaVuSans-17"/>
       <use xlink:href="#DejaVuSans-13" transform="translate(63.625 0)"/>
      </g>
     </g>
    </g>
    <g id="text_33">
     <!-- t (s) -->
     <g transform="translate(257.684531 591.275312) scale(0.1 -0.1)">
      <use xlink:href="#DejaVuSans-57"/>
      <use xlink:href="#DejaVuSans-3" transform="translate(39.203125 0)"/>
      <use xlink:href="#DejaVuSans-b" transform="translate(70.984375 0)"/>
      <use xlink:href="#DejaVuSans-56" transform="translate(110 0)"/>
      <use xlink:href="#DejaVuSans-c" transform="translate(162.09375 0)"/>
     </g>
    </g>
   </g>
   <g id="matplotlib.axis_6">
    <g id="ytick_12">
     <g id="line2d_61">
      <path d="M 42.28 536.796484 
L 493.2 536.796484 
" clip-path="url(#pd535c256fc)" style="fill: none; stroke: #b0b0b0; stroke-width: 0.8; stroke-linecap: square"/>
     </g>
     <g id="line2d_62">
      <g>
       <use xlink:href="#m65bb1182c9" x="42.28" y="536.796484" style="stroke: #000000; stroke-width: 0.8"/>
      </g>
     </g>
     <g id="text_34">
      <!-- −0.2 -->
      <g transform="translate(10.997188 540.595312) scale(0.1 -0.1)">
       <use xlink:href="#DejaVuSans-c9c"/>
       <use xlink:href="#DejaVuSans-13" transform="translate(83.796875 0)"/>
       <use xlink:href="#DejaVuSans-11" transform="translate(147.421875 0)"/>
       <use xlink:href="#DejaVuSans-15" transform="translate(179.203125 0)"/>
      </g>
     </g>
    </g>
    <g id="ytick_13">
     <g id="line2d_63">
      <path d="M 42.28 496.979297 
L 493.2 496.979297 
" clip-path="url(#pd535c256fc)" style="fill: none; stroke: #b0b0b0; stroke-width: 0.8; stroke-linecap: square"/>
     </g>
     <g id="line2d_64">
      <g>
       <use xlink:href="#m65bb1182c9" x="42.28" y="496.979297" style="stroke: #000000; stroke-width: 0.8"/>
      </g>
     </g>
     <g id="text_35">
      <!-- 0.0 -->
      <g transform="translate(19.376875 500.778125) scale(0.1 -0.1)">
       <use xlink:href="#DejaVuSans-13"/>
       <use xlink:href="#DejaVuSans-11" transform="translate(63.625 0)"/>
       <use xlink:href="#DejaVuSans-13" transform="translate(95.40625 0)"/>
      </g>
     </g>
    </g>
    <g id="ytick_14">
     <g id="line2d_65">
      <path d="M 42.28 457.162109 
L 493.2 457.162109 
" clip-path="url(#pd535c256fc)" style="fill: none; stroke: #b0b0b0; stroke-width: 0.8; stroke-linecap: square"/>
     </g>
     <g id="line2d_66">
      <g>
       <use xlink:href="#m65bb1182c9" x="42.28" y="457.162109" style="stroke: #000000; stroke-width: 0.8"/>
      </g>
     </g>
     <g id="text_36">
      <!-- 0.2 -->
      <g transform="translate(19.376875 460.960937) scale(0.1 -0.1)">
       <use xlink:href="#DejaVuSans-13"/>
       <use xlink:href="#DejaVuSans-11" transform="translate(63.625 0)"/>
       <use xlink:href="#DejaVuSans-15" transform="translate(95.40625 0)"/>
      </g>
     </g>
    </g>
   </g>
   <g id="line2d_67">
    <path d="M 62.776364 437.253516 
L 115.095487 437.253516 
L 116.272583 468.466567 
L 117.44805 556.705078 
L 121.566678 556.705078 
L 122.449277 437.253516 
L 123.33231 556.705078 
L 130.981584 556.705078 
L 131.863394 437.253516 
L 133.627862 437.253516 
L 134.511174 556.705078 
L 141.862158 556.705078 
L 142.746184 437.253516 
L 162.743118 437.253516 
L 163.33073 447.82856 
L 163.919004 462.947696 
L 164.507032 473.129959 
L 165.095136 480.02193 
L 165.68399 484.233293 
L 166.859482 490.088016 
L 167.447668 491.870873 
L 168.037144 493.158337 
L 169.212764 495.014833 
L 169.800797 495.382179 
L 170.391174 495.146528 
L 171.270533 495.52047 
L 172.153012 556.705078 
L 186.562542 556.705078 
L 187.445079 437.253516 
L 188.327438 437.253516 
L 189.210531 556.705078 
L 195.679235 556.705078 
L 196.266958 437.253516 
L 212.146558 437.253516 
L 212.734782 459.57278 
L 213.323143 474.10443 
L 213.910732 482.144122 
L 214.499468 487.106525 
L 215.087344 489.957107 
L 216.263694 493.321579 
L 217.145813 494.210724 
L 218.028274 494.842758 
L 218.616106 494.916262 
L 219.498711 495.666337 
L 220.381099 496.111452 
L 221.262693 496.1484 
L 222.145172 495.599892 
L 223.027698 504.296115 
L 224.206028 556.705078 
L 233.615086 556.705078 
L 234.496103 437.253516 
L 235.378964 437.253516 
L 236.261017 556.705078 
L 242.438361 556.705078 
L 243.318761 437.253516 
L 252.728849 437.253516 
L 253.611925 556.705078 
L 254.493417 556.705078 
L 255.37572 437.253516 
L 259.198382 437.253516 
L 260.080909 438.976726 
L 260.963475 452.390293 
L 261.550615 463.435698 
L 262.140859 471.782191 
L 264.197633 486.6085 
L 265.374152 491.314135 
L 266.549906 493.674733 
L 267.138326 494.565088 
L 268.608922 495.628555 
L 269.490981 495.946241 
L 270.372985 494.231631 
L 271.255291 556.705078 
L 283.60717 556.705078 
L 284.488966 437.253516 
L 285.37151 437.253516 
L 286.253142 556.705078 
L 292.722845 556.705078 
L 293.605368 437.253516 
L 308.607329 437.253516 
L 309.195531 446.936882 
L 309.783796 462.99071 
L 311.256762 479.268126 
L 312.72483 487.448304 
L 313.313453 489.764399 
L 314.78304 493.262 
L 315.371224 493.302593 
L 315.959282 495.012364 
L 316.54745 495.619077 
L 317.136063 495.814645 
L 318.311951 496.387967 
L 318.900013 496.456256 
L 319.488524 495.4466 
L 320.370285 510.058884 
L 321.546805 556.705078 
L 327.133983 556.705078 
L 328.016369 437.253516 
L 328.89847 556.705078 
L 335.66237 556.705078 
L 336.544593 437.253516 
L 337.427149 437.253516 
L 338.309154 556.705078 
L 345.073169 556.705078 
L 345.954707 437.253516 
L 362.42887 437.253516 
L 363.310702 441.404066 
L 363.896135 460.226756 
L 365.368501 478.827619 
L 366.251537 483.439653 
L 367.721269 489.439643 
L 368.602878 491.4151 
L 370.660657 494.777921 
L 371.542534 494.562182 
L 372.718224 518.220431 
L 373.895887 556.705078 
L 386.539814 556.705078 
L 387.422022 437.253516 
L 388.304375 437.253516 
L 389.480958 556.705078 
L 395.951296 556.705078 
L 397.126542 437.253516 
L 414.182669 437.253516 
L 415.067605 439.853182 
L 415.947588 456.616607 
L 416.830104 468.318797 
L 418.89017 486.998012 
L 420.063857 491.486919 
L 420.653028 492.938314 
L 421.240514 493.033189 
L 421.828372 494.846424 
L 422.711187 495.43559 
L 423.592782 495.32623 
L 424.475246 494.746315 
L 426.533541 556.705078 
L 438.297634 556.705078 
L 439.180471 437.253516 
L 440.945012 437.253516 
L 441.827513 556.705078 
L 448.885629 556.705078 
L 449.768224 437.253516 
L 466.233615 437.253516 
L 466.823023 455.762261 
L 467.411135 470.019824 
L 468.293288 556.705078 
L 472.703636 556.705078 
L 472.703636 556.705078 
" clip-path="url(#pd535c256fc)" style="fill: none; stroke: #1f77b4; stroke-width: 1.5; stroke-linecap: square"/>
   </g>
   <g id="line2d_68">
    <path d="M 42.28 556.705078 
L 493.2 556.705078 
" clip-path="url(#pd535c256fc)" style="fill: none; stroke-dasharray: 3.7,1.6; stroke-dashoffset: 0; stroke: #ff0000"/>
   </g>
   <g id="line2d_69">
    <path d="M 42.28 437.253516 
L 493.2 437.253516 
" clip-path="url(#pd535c256fc)" style="fill: none; stroke-dasharray: 3.7,1.6; stroke-dashoffset: 0; stroke: #ff0000"/>
   </g>
   <g id="patch_15">
    <path d="M 42.28 562.677656 
L 42.28 431.280937 
" style="fill: none; stroke: #000000; stroke-width: 0.8; stroke-linejoin: miter; stroke-linecap: square"/>
   </g>
   <g id="patch_16">
    <path d="M 493.2 562.677656 
L 493.2 431.280937 
" style="fill: none; stroke: #000000; stroke-width: 0.8; stroke-linejoin: miter; stroke-linecap: square"/>
   </g>
   <g id="patch_17">
    <path d="M 42.28 562.677656 
L 493.2 562.677656 
" style="fill: none; stroke: #000000; stroke-width: 0.8; stroke-linejoin: miter; stroke-linecap: square"/>
   </g>
   <g id="patch_18">
    <path d="M 42.28 431.280937 
L 493.2 431.280937 
" style="fill: none; stroke: #000000; stroke-width: 0.8; stroke-linejoin: miter; stroke-linecap: square"/>
   </g>
   <g id="text_37">
    <!-- $a_{x,cmd}$ $\left(\mathrm{m/s^2}\right)$ -->
    <g transform="translate(229.7 425.280937) scale(0.12 -0.12)">
     <defs>
      <path id="DejaVuSans-Oblique-44" d="M 3438 1997 
L 3047 0 
L 2472 0 
L 2578 531 
Q 2325 219 2001 64 
Q 1678 -91 1281 -91 
Q 834 -91 548 182 
Q 263 456 263 884 
Q 263 1497 752 1853 
Q 1241 2209 2100 2209 
L 2900 2209 
L 2931 2363 
Q 2938 2388 2941 2417 
Q 2944 2447 2944 2509 
Q 2944 2788 2717 2942 
Q 2491 3097 2081 3097 
Q 1800 3097 1504 3025 
Q 1209 2953 897 2809 
L 997 3341 
Q 1322 3463 1633 3523 
Q 1944 3584 2234 3584 
Q 2853 3584 3176 3315 
Q 3500 3047 3500 2534 
Q 3500 2431 3484 2292 
Q 3469 2153 3438 1997 
z
M 2816 1759 
L 2241 1759 
Q 1534 1759 1195 1570 
Q 856 1381 856 984 
Q 856 709 1029 553 
Q 1203 397 1509 397 
Q 1978 397 2328 733 
Q 2678 1069 2791 1631 
L 2816 1759 
z
" transform="scale(0.015625)"/>
      <path id="STIXSizeOneSym-Regular-4" d="M 2445 -858 
L 2445 -1050 
Q 1728 -371 1309 630 
Q 890 1632 890 2886 
Q 890 4122 1309 5136 
Q 1728 6150 2445 6822 
L 2445 6630 
Q 1408 5363 1408 2886 
Q 1408 410 2445 -858 
z
" transform="scale(0.015625)"/>
      <path id="STIXSizeOneSym-Regular-5" d="M 550 6630 
L 550 6822 
Q 1267 6144 1686 5142 
Q 2106 4141 2106 2886 
Q 2106 1651 1686 636 
Q 1267 -378 550 -1050 
L 550 -858 
Q 1587 410 1587 2886 
Q 1587 5363 550 6630 
z
" transform="scale(0.015625)"/>
     </defs>
     <use xlink:href="#DejaVuSans-Oblique-44" transform="translate(0 0.746875)"/>
     <use xlink:href="#DejaVuSans-Oblique-5b" transform="translate(61.279297 -14.253076) scale(0.7)"/>
     <use xlink:href="#DejaVuSans-f" transform="translate(102.705078 -14.253076) scale(0.7)"/>
     <use xlink:href="#DejaVuSans-Oblique-46" transform="translate(138.59375 -14.253076) scale(0.7)"/>
     <use xlink:href="#DejaVuSans-Oblique-50" transform="translate(177.080078 -14.253076) scale(0.7)"/>
     <use xlink:href="#DejaVuSans-Oblique-47" transform="translate(245.268555 -14.253076) scale(0.7)"/>
     <use xlink:href="#DejaVuSans-3" transform="translate(292.436523 0.746875)"/>
     <use xlink:href="#STIXSizeOneSym-Regular-4" transform="translate(324.223633 5.1375) scale(0.833613)"/>
     <use xlink:href="#DejaVuSans-50" transform="translate(363.23587 0.746875)"/>
     <use xlink:href="#DejaVuSans-12" transform="translate(460.64798 0.746875)"/>
     <use xlink:href="#DejaVuSans-56" transform="translate(494.339386 0.746875)"/>
     <use xlink:href="#DejaVuSans-15" transform="translate(547.396027 42.046875) scale(0.7)"/>
     <use xlink:href="#STIXSizeOneSym-Regular-5" transform="translate(594.666534 5.1375) scale(0.833613)"/>
    </g>
   </g>
   <g id="legend_3">
    <g id="patch_19">
     <path d="M 49.28 506.880469 
L 144.68 506.880469 
Q 146.68 506.880469 146.68 504.880469 
L 146.68 489.078125 
Q 146.68 487.078125 144.68 487.078125 
L 49.28 487.078125 
Q 47.28 487.078125 47.28 489.078125 
L 47.28 504.880469 
Q 47.28 506.880469 49.28 506.880469 
z
" style="fill: #ffffff; opacity: 0.8; stroke: #cccccc; stroke-linejoin: miter"/>
    </g>
    <g id="line2d_70">
     <path d="M 51.28 496.978125 
L 61.28 496.978125 
L 71.28 496.978125 
" style="fill: none; stroke: #1f77b4; stroke-width: 1.5; stroke-linecap: square"/>
    </g>
    <g id="text_38">
     <!-- $a_{x,cmd}$ $\left(\mathrm{m/s^2}\right)$ -->
     <g transform="translate(79.28 500.478125) scale(0.1 -0.1)">
      <use xlink:href="#DejaVuSans-Oblique-44" transform="translate(0 0.746875)"/>
      <use xlink:href="#DejaVuSans-Oblique-5b" transform="translate(61.279297 -14.253076) scale(0.7)"/>
      <use xlink:href="#DejaVuSans-f" transform="translate(102.705078 -14.253076) scale(0.7)"/>
      <use xlink:href="#DejaVuSans-Oblique-46" transform="translate(138.59375 -14.253076) scale(0.7)"/>
      <use xlink:href="#DejaVuSans-Oblique-50" transform="translate(177.080078 -14.253076) scale(0.7)"/>
      <use xlink:href="#DejaVuSans-Oblique-47" transform="translate(245.268555 -14.253076) scale(0.7)"/>
      <use xlink:href="#DejaVuSans-3" transform="translate(292.436523 0.746875)"/>
      <use xlink:href="#STIXSizeOneSym-Regular-4" transform="translate(324.223633 5.1375) scale(0.833613)"/>
      <use xlink:href="#DejaVuSans-50" transform="translate(363.23587 0.746875)"/>
      <use xlink:href="#DejaVuSans-12" transform="translate(460.64798 0.746875)"/>
      <use xlink:href="#DejaVuSans-56" transform="translate(494.339386 0.746875)"/>
      <use xlink:href="#DejaVuSans-15" transform="translate(547.396027 42.046875) scale(0.7)"/>
      <use xlink:href="#STIXSizeOneSym-Regular-5" transform="translate(594.666534 5.1375) scale(0.833613)"/>
     </g>
    </g>
   </g>
  </g>
  <g id="text_39">
   <!-- QCar2 Controls -->
   <g transform="translate(206.405625 21.214125) scale(0.12 -0.12)">
    <defs>
     <path id="DejaVuSans-34" d="M 2522 4238 
Q 1834 4238 1429 3725 
Q 1025 3213 1025 2328 
Q 1025 1447 1429 934 
Q 1834 422 2522 422 
Q 3209 422 3611 934 
Q 4013 1447 4013 2328 
Q 4013 3213 3611 3725 
Q 3209 4238 2522 4238 
z
M 3406 84 
L 4238 -825 
L 3475 -825 
L 2784 -78 
Q 2681 -84 2626 -87 
Q 2572 -91 2522 -91 
Q 1538 -91 948 567 
Q 359 1225 359 2328 
Q 359 3434 948 4092 
Q 1538 4750 2522 4750 
Q 3503 4750 4090 4092 
Q 4678 3434 4678 2328 
Q 4678 1516 4351 937 
Q 4025 359 3406 84 
z
" transform="scale(0.015625)"/>
     <path id="DejaVuSans-26" d="M 4122 4306 
L 4122 3641 
Q 3803 3938 3442 4084 
Q 3081 4231 2675 4231 
Q 1875 4231 1450 3742 
Q 1025 3253 1025 2328 
Q 1025 1406 1450 917 
Q 1875 428 2675 428 
Q 3081 428 3442 575 
Q 3803 722 4122 1019 
L 4122 359 
Q 3791 134 3420 21 
Q 3050 -91 2638 -91 
Q 1578 -91 968 557 
Q 359 1206 359 2328 
Q 359 3453 968 4101 
Q 1578 4750 2638 4750 
Q 3056 4750 3426 4639 
Q 3797 4528 4122 4306 
z
" transform="scale(0.015625)"/>
     <path id="DejaVuSans-52" d="M 1959 3097 
Q 1497 3097 1228 2736 
Q 959 2375 959 1747 
Q 959 1119 1226 758 
Q 1494 397 1959 397 
Q 2419 397 2687 759 
Q 2956 1122 2956 1747 
Q 2956 2369 2687 2733 
Q 2419 3097 1959 3097 
z
M 1959 3584 
Q 2709 3584 3137 3096 
Q 3566 2609 3566 1747 
Q 3566 888 3137 398 
Q 2709 -91 1959 -91 
Q 1206 -91 779 398 
Q 353 888 353 1747 
Q 353 2609 779 3096 
Q 1206 3584 1959 3584 
z
" transform="scale(0.015625)"/>
     <path id="DejaVuSans-51" d="M 3513 2113 
L 3513 0 
L 2938 0 
L 2938 2094 
Q 2938 2591 2744 2837 
Q 2550 3084 2163 3084 
Q 1697 3084 1428 2787 
Q 1159 2491 1159 1978 
L 1159 0 
L 581 0 
L 581 3500 
L 1159 3500 
L 1159 2956 
Q 1366 3272 1645 3428 
Q 1925 3584 2291 3584 
Q 2894 3584 3203 3211 
Q 3513 2838 3513 2113 
z
" transform="scale(0.015625)"/>
     <path id="DejaVuSans-4f" d="M 603 4863 
L 1178 4863 
L 1178 0 
L 603 0 
L 603 4863 
z
" transform="scale(0.015625)"/>
    </defs>
    <use xlink:href="#DejaVuSans-34"/>
    <use xlink:href="#DejaVuSans-26" transform="translate(78.71875 0)"/>
    <use xlink:href="#DejaVuSans-44" transform="translate(148.546875 0)"/>
    <use xlink:href="#DejaVuSans-55" transform="translate(209.828125 0)"/>
    <use xlink:href="#DejaVuSans-15" transform="translate(250.9375 0)"/>
    <use xlink:href="#DejaVuSans-3" transform="translate(314.5625 0)"/>
    <use xlink:href="#DejaVuSans-26" transform="translate(346.34375 0)"/>
    <use xlink:href="#DejaVuSans-52" transform="translate(416.171875 0)"/>
    <use xlink:href="#DejaVuSans-51" transform="translate(477.359375 0)"/>
    <use xlink:href="#DejaVuSans-57" transform="translate(540.734375 0)"/>
    <use xlink:href="#DejaVuSans-55" transform="translate(579.9375 0)"/>
    <use xlink:href="#DejaVuSans-52" transform="translate(618.84375 0)"/>
    <use xlink:href="#DejaVuSans-4f" transform="translate(680.03125 0)"/>
    <use xlink:href="#DejaVuSans-56" transform="translate(707.8125 0)"/>
   </g>
  </g>
 </g>
 <defs>
  <clipPath id="pb712547bcf">
   <rect x="42.28" y="49.202812" width="450.92" height="131.396719"/>
  </clipPath>
  <clipPath id="p95adf9edfe">
   <rect x="42.28" y="240.241875" width="450.92" height="131.396719"/>
  </clipPath>
  <clipPath id="pd535c256fc">
   <rect x="42.28" y="431.280937" width="450.92" height="131.396719"/>
  </clipPath>
 </defs>
</svg>
