<?xml version="1.0" encoding="utf-8" standalone="no"?>
<!DOCTYPE svg PUBLIC "-//W3C//DTD SVG 1.1//EN"
  "http://www.w3.org/Graphics/SVG/1.1/DTD/svg11.dtd">
<svg xmlns:xlink="http://www.w3.org/1999/xlink" width="504pt" height="230.4pt" viewBox="0 0 504 230.4" xmlns="http://www.w3.org/2000/svg" version="1.1">
 <metadata>
  <rdf:RDF xmlns:dc="http://purl.org/dc/elements/1.1/" xmlns:cc="http://creativecommons.org/ns#" xmlns:rdf="http://www.w3.org/1999/02/22-rdf-syntax-ns#">
   <cc:Work>
    <dc:type rdf:resource="http://purl.org/dc/dcmitype/StillImage"/>
    <dc:date>2026-07-10T12:58:01.040169</dc:date>
    <dc:format>image/svg+xml</dc:format>
    <dc:creator>
     <cc:Agent>
      <dc:title>Matplotlib v3.11.0, https://matplotlib.org/</dc:title>
     </cc:Agent>
    </dc:creator>
   </cc:Work>
  </rdf:RDF>
 </metadata>
 <defs>
  <style type="text/css">*{stroke-linejoin: round; stroke-linecap: butt}</style>
 </defs>
 <g id="figure_1">
  <g id="patch_1">
   <path d="M 0 230.4 
L 504 230.4 
L 504 0 
L 0 0 
z
" style="fill: #ffffff"/>
  </g>
  <g id="axes_1">
   <g id="patch_2">
    <path d="M 54.442344 188.277656 
L 493.2 188.277656 
L 493.2 26.16 
L 54.442344 26.16 
z
" style="fill: #ffffff"/>
   </g>
   <g id="matplotlib.axis_1">
    <g id="xtick_1">
     <g id="line2d_1">
      <path d="M 74.38587 188.277656 
L 74.38587 26.16 
" clip-path="url(#p3bb0034bdb)" style="fill: none; stroke: #b0b0b0; stroke-width: 0.8; stroke-linecap: square"/>
     </g>
     <g id="line2d_2">
      <defs>
       <path id="ma6aa2c18e6" d="M 0 0 
L 0 3.5 
" style="stroke: #000000; stroke-width: 0.8"/>
      </defs>
      <g>
       <use xlink:href="#ma6aa2c18e6" x="74.38587" y="188.277656" style="stroke: #000000; stroke-width: 0.8"/>
      </g>
     </g>
     <g id="text_1">
      <!-- 0 -->
      <g transform="translate(71.20462 202.875313) scale(0.1 -0.1)">
       <defs>
        <path id="DejaVuSans-13" d="M 2034 4250 
Q 1547 4250 1301 3770 
Q 1056 3291 1056 2328 
Q 1056 1369 1301 889 
Q 1547 409 2034 409 
Q 2525 409 2770 889 
Q 3016 1369 3016 2328 
Q 3016 3291 2770 3770 
Q 2525 4250 2034 4250 
z
M 2034 4750 
Q 2819 4750 3233 4129 
Q 3647 3509 3647 2328 
Q 3647 1150 3233 529 
Q 2819 -91 2034 -91 
Q 1250 -91 836 529 
Q 422 1150 422 2328 
Q 422 3509 836 4129 
Q 1250 4750 2034 4750 
z
" transform="scale(0.015625)"/>
       </defs>
       <use xlink:href="#DejaVuSans-13"/>
      </g>
     </g>
    </g>
    <g id="xtick_2">
     <g id="line2d_3">
      <path d="M 160.22761 188.277656 
L 160.22761 26.16 
" clip-path="url(#p3bb0034bdb)" style="fill: none; stroke: #b0b0b0; stroke-width: 0.8; stroke-linecap: square"/>
     </g>
     <g id="line2d_4">
      <g>
       <use xlink:href="#ma6aa2c18e6" x="160.22761" y="188.277656" style="stroke: #000000; stroke-width: 0.8"/>
      </g>
     </g>
     <g id="text_2">
      <!-- 10 -->
      <g transform="translate(153.86511 202.875313) scale(0.1 -0.1)">
       <defs>
        <path id="DejaVuSans-14" d="M 794 531 
L 1825 531 
L 1825 4091 
L 703 3866 
L 703 4441 
L 1819 4666 
L 2450 4666 
L 2450 531 
L 3481 531 
L 3481 0 
L 794 0 
L 794 531 
z
" transform="scale(0.015625)"/>
       </defs>
       <use xlink:href="#DejaVuSans-14"/>
       <use xlink:href="#DejaVuSans-13" transform="translate(63.625 0)"/>
      </g>
     </g>
    </g>
    <g id="xtick_3">
     <g id="line2d_5">
      <path d="M 246.069351 188.277656 
L 246.069351 26.16 
" clip-path="url(#p3bb0034bdb)" style="fill: none; stroke: #b0b0b0; stroke-width: 0.8; stroke-linecap: square"/>
     </g>
     <g id="line2d_6">
      <g>
       <use xlink:href="#ma6aa2c18e6" x="246.069351" y="188.277656" style="stroke: #000000; stroke-width: 0.8"/>
      </g>
     </g>
     <g id="text_3">
      <!-- 20 -->
      <g transform="translate(239.706851 202.875313) scale(0.1 -0.1)">
       <defs>
        <path id="DejaVuSans-15" d="M 1228 531 
L 3431 531 
L 3431 0 
L 469 0 
L 469 531 
Q 828 903 1448 1529 
Q 2069 2156 2228 2338 
Q 2531 2678 2651 2914 
Q 2772 3150 2772 3378 
Q 2772 3750 2511 3984 
Q 2250 4219 1831 4219 
Q 1534 4219 1204 4116 
Q 875 4013 500 3803 
L 500 4441 
Q 881 4594 1212 4672 
Q 1544 4750 1819 4750 
Q 2544 4750 2975 4387 
Q 3406 4025 3406 3419 
Q 3406 3131 3298 2873 
Q 3191 2616 2906 2266 
Q 2828 2175 2409 1742 
Q 1991 1309 1228 531 
z
" transform="scale(0.015625)"/>
       </defs>
       <use xlink:href="#DejaVuSans-15"/>
       <use xlink:href="#DejaVuSans-13" transform="translate(63.625 0)"/>
      </g>
     </g>
    </g>
    <g id="xtick_4">
     <g id="line2d_7">
      <path d="M 331.911091 188.277656 
L 331.911091 26.16 
" clip-path="url(#p3bb0034bdb)" style="fill: none; stroke: #b0b0b0; stroke-width: 0.8; stroke-linecap: square"/>
     </g>
     <g id="line2d_8">
      <g>
       <use xlink:href="#ma6aa2c18e6" x="331.911091" y="188.277656" style="stroke: #000000; stroke-width: 0.8"/>
      </g>
     </g>
     <g id="text_4">
      <!-- 30 -->
      <g transform="translate(325.548591 202.875313) scale(0.1 -0.1)">
       <defs>
        <path id="DejaVuSans-16" d="M 2597 2516 
Q 3050 2419 3304 2112 
Q 3559 1806 3559 1356 
Q 3559 666 3084 287 
Q 2609 -91 1734 -91 
Q 1441 -91 1130 -33 
Q 819 25 488 141 
L 488 750 
Q 750 597 1062 519 
Q 1375 441 1716 441 
Q 2309 441 2620 675 
Q 2931 909 2931 1356 
Q 2931 1769 2642 2001 
Q 2353 2234 1838 2234 
L 1294 2234 
L 1294 2753 
L 1863 2753 
Q 2328 2753 2575 2939 
Q 2822 3125 2822 3475 
Q 2822 3834 2567 4026 
Q 2313 4219 1838 4219 
Q 1578 4219 1281 4162 
Q 984 4106 628 3988 
L 628 4550 
Q 988 4650 1302 4700 
Q 1616 4750 1894 4750 
Q 2613 4750 3031 4423 
Q 3450 4097 3450 3541 
Q 3450 3153 3228 2886 
Q 3006 2619 2597 2516 
z
" transform="scale(0.015625)"/>
       </defs>
       <use xlink:href="#DejaVuSans-16"/>
       <use xlink:href="#DejaVuSans-13" transform="translate(63.625 0)"/>
      </g>
     </g>
    </g>
    <g id="xtick_5">
     <g id="line2d_9">
      <path d="M 417.752831 188.277656 
L 417.752831 26.16 
" clip-path="url(#p3bb0034bdb)" style="fill: none; stroke: #b0b0b0; stroke-width: 0.8; stroke-linecap: square"/>
     </g>
     <g id="line2d_10">
      <g>
       <use xlink:href="#ma6aa2c18e6" x="417.752831" y="188.277656" style="stroke: #000000; stroke-width: 0.8"/>
      </g>
     </g>
     <g id="text_5">
      <!-- 40 -->
      <g transform="translate(411.390331 202.875313) scale(0.1 -0.1)">
       <defs>
        <path id="DejaVuSans-17" d="M 2419 4116 
L 825 1625 
L 2419 1625 
L 2419 4116 
z
M 2253 4666 
L 3047 4666 
L 3047 1625 
L 3713 1625 
L 3713 1100 
L 3047 1100 
L 3047 0 
L 2419 0 
L 2419 1100 
L 313 1100 
L 313 1709 
L 2253 4666 
z
" transform="scale(0.015625)"/>
       </defs>
       <use xlink:href="#DejaVuSans-17"/>
       <use xlink:href="#DejaVuSans-13" transform="translate(63.625 0)"/>
      </g>
     </g>
    </g>
    <g id="text_6">
     <!-- t (s) -->
     <g transform="translate(263.765703 216.875313) scale(0.1 -0.1)">
      <defs>
       <path id="DejaVuSans-57" d="M 1172 4494 
L 1172 3500 
L 2356 3500 
L 2356 3053 
L 1172 3053 
L 1172 1153 
Q 1172 725 1289 603 
Q 1406 481 1766 481 
L 2356 481 
L 2356 0 
L 1766 0 
Q 1100 0 847 248 
Q 594 497 594 1153 
L 594 3053 
L 172 3053 
L 172 3500 
L 594 3500 
L 594 4494 
L 1172 4494 
z
" transform="scale(0.015625)"/>
       <path id="DejaVuSans-3" transform="scale(0.015625)"/>
       <path id="DejaVuSans-b" d="M 1984 4856 
Q 1566 4138 1362 3434 
Q 1159 2731 1159 2009 
Q 1159 1288 1364 580 
Q 1569 -128 1984 -844 
L 1484 -844 
Q 1016 -109 783 600 
Q 550 1309 550 2009 
Q 550 2706 781 3412 
Q 1013 4119 1484 4856 
L 1984 4856 
z
" transform="scale(0.015625)"/>
       <path id="DejaVuSans-56" d="M 2834 3397 
L 2834 2853 
Q 2591 2978 2328 3040 
Q 2066 3103 1784 3103 
Q 1356 3103 1142 2972 
Q 928 2841 928 2578 
Q 928 2378 1081 2264 
Q 1234 2150 1697 2047 
L 1894 2003 
Q 2506 1872 2764 1633 
Q 3022 1394 3022 966 
Q 3022 478 2636 193 
Q 2250 -91 1575 -91 
Q 1294 -91 989 -36 
Q 684 19 347 128 
L 347 722 
Q 666 556 975 473 
Q 1284 391 1588 391 
Q 1994 391 2212 530 
Q 2431 669 2431 922 
Q 2431 1156 2273 1281 
Q 2116 1406 1581 1522 
L 1381 1569 
Q 847 1681 609 1914 
Q 372 2147 372 2553 
Q 372 3047 722 3315 
Q 1072 3584 1716 3584 
Q 2034 3584 2315 3537 
Q 2597 3491 2834 3397 
z
" transform="scale(0.015625)"/>
       <path id="DejaVuSans-c" d="M 513 4856 
L 1013 4856 
Q 1481 4119 1714 3412 
Q 1947 2706 1947 2009 
Q 1947 1309 1714 600 
Q 1481 -109 1013 -844 
L 513 -844 
Q 928 -128 1133 580 
Q 1338 1288 1338 2009 
Q 1338 2731 1133 3434 
Q 928 4138 513 4856 
z
" transform="scale(0.015625)"/>
      </defs>
      <use xlink:href="#DejaVuSans-57"/>
      <use xlink:href="#DejaVuSans-3" transform="translate(39.203125 0)"/>
      <use xlink:href="#DejaVuSans-b" transform="translate(70.984375 0)"/>
      <use xlink:href="#DejaVuSans-56" transform="translate(110 0)"/>
      <use xlink:href="#DejaVuSans-c" transform="translate(162.09375 0)"/>
     </g>
    </g>
   </g>
   <g id="matplotlib.axis_2">
    <g id="ytick_1">
     <g id="line2d_11">
      <path d="M 54.442344 168.097448 
L 493.2 168.097448 
" clip-path="url(#p3bb0034bdb)" style="fill: none; stroke: #b0b0b0; stroke-width: 0.8; stroke-linecap: square"/>
     </g>
     <g id="line2d_12">
      <defs>
       <path id="m5187a088a2" d="M 0 0 
L -3.5 0 
" style="stroke: #000000; stroke-width: 0.8"/>
      </defs>
      <g>
       <use xlink:href="#m5187a088a2" x="54.442344" y="168.097448" style="stroke: #000000; stroke-width: 0.8"/>
      </g>
     </g>
     <g id="text_7">
      <!-- 0.02 -->
      <g transform="translate(25.176719 171.896276) scale(0.1 -0.1)">
       <defs>
        <path id="DejaVuSans-11" d="M 684 794 
L 1344 794 
L 1344 0 
L 684 0 
L 684 794 
z
" transform="scale(0.015625)"/>
       </defs>
       <use xlink:href="#DejaVuSans-13"/>
       <use xlink:href="#DejaVuSans-11" transform="translate(63.625 0)"/>
       <use xlink:href="#DejaVuSans-13" transform="translate(95.40625 0)"/>
       <use xlink:href="#DejaVuSans-15" transform="translate(159.03125 0)"/>
      </g>
     </g>
    </g>
    <g id="ytick_2">
     <g id="line2d_13">
      <path d="M 54.442344 135.442412 
L 493.2 135.442412 
" clip-path="url(#p3bb0034bdb)" style="fill: none; stroke: #b0b0b0; stroke-width: 0.8; stroke-linecap: square"/>
     </g>
     <g id="line2d_14">
      <g>
       <use xlink:href="#m5187a088a2" x="54.442344" y="135.442412" style="stroke: #000000; stroke-width: 0.8"/>
      </g>
     </g>
     <g id="text_8">
      <!-- 0.04 -->
      <g transform="translate(25.176719 139.24124) scale(0.1 -0.1)">
       <use xlink:href="#DejaVuSans-13"/>
       <use xlink:href="#DejaVuSans-11" transform="translate(63.625 0)"/>
       <use xlink:href="#DejaVuSans-13" transform="translate(95.40625 0)"/>
       <use xlink:href="#DejaVuSans-17" transform="translate(159.03125 0)"/>
      </g>
     </g>
    </g>
    <g id="ytick_3">
     <g id="line2d_15">
      <path d="M 54.442344 102.787376 
L 493.2 102.787376 
" clip-path="url(#p3bb0034bdb)" style="fill: none; stroke: #b0b0b0; stroke-width: 0.8; stroke-linecap: square"/>
     </g>
     <g id="line2d_16">
      <g>
       <use xlink:href="#m5187a088a2" x="54.442344" y="102.787376" style="stroke: #000000; stroke-width: 0.8"/>
      </g>
     </g>
     <g id="text_9">
      <!-- 0.06 -->
      <g transform="translate(25.176719 106.586205) scale(0.1 -0.1)">
       <defs>
        <path id="DejaVuSans-19" d="M 2113 2584 
Q 1688 2584 1439 2293 
Q 1191 2003 1191 1497 
Q 1191 994 1439 701 
Q 1688 409 2113 409 
Q 2538 409 2786 701 
Q 3034 994 3034 1497 
Q 3034 2003 2786 2293 
Q 2538 2584 2113 2584 
z
M 3366 4563 
L 3366 3988 
Q 3128 4100 2886 4159 
Q 2644 4219 2406 4219 
Q 1781 4219 1451 3797 
Q 1122 3375 1075 2522 
Q 1259 2794 1537 2939 
Q 1816 3084 2150 3084 
Q 2853 3084 3261 2657 
Q 3669 2231 3669 1497 
Q 3669 778 3244 343 
Q 2819 -91 2113 -91 
Q 1303 -91 875 529 
Q 447 1150 447 2328 
Q 447 3434 972 4092 
Q 1497 4750 2381 4750 
Q 2619 4750 2861 4703 
Q 3103 4656 3366 4563 
z
" transform="scale(0.015625)"/>
       </defs>
       <use xlink:href="#DejaVuSans-13"/>
       <use xlink:href="#DejaVuSans-11" transform="translate(63.625 0)"/>
       <use xlink:href="#DejaVuSans-13" transform="translate(95.40625 0)"/>
       <use xlink:href="#DejaVuSans-19" transform="translate(159.03125 0)"/>
      </g>
     </g>
    </g>
    <g id="ytick_4">
     <g id="line2d_17">
      <path d="M 54.442344 70.132341 
L 493.2 70.132341 
" clip-path="url(#p3bb0034bdb)" style="fill: none; stroke: #b0b0b0; stroke-width: 0.8; stroke-linecap: square"/>
     </g>
     <g id="line2d_18">
      <g>
       <use xlink:href="#m5187a088a2" x="54.442344" y="70.132341" style="stroke: #000000; stroke-width: 0.8"/>
      </g>
     </g>
     <g id="text_10">
      <!-- 0.08 -->
      <g transform="translate(25.176719 73.931169) scale(0.1 -0.1)">
       <defs>
        <path id="DejaVuSans-1b" d="M 2034 2216 
Q 1584 2216 1326 1975 
Q 1069 1734 1069 1313 
Q 1069 891 1326 650 
Q 1584 409 2034 409 
Q 2484 409 2743 651 
Q 3003 894 3003 1313 
Q 3003 1734 2745 1975 
Q 2488 2216 2034 2216 
z
M 1403 2484 
Q 997 2584 770 2862 
Q 544 3141 544 3541 
Q 544 4100 942 4425 
Q 1341 4750 2034 4750 
Q 2731 4750 3128 4425 
Q 3525 4100 3525 3541 
Q 3525 3141 3298 2862 
Q 3072 2584 2669 2484 
Q 3125 2378 3379 2068 
Q 3634 1759 3634 1313 
Q 3634 634 3220 271 
Q 2806 -91 2034 -91 
Q 1263 -91 848 271 
Q 434 634 434 1313 
Q 434 1759 690 2068 
Q 947 2378 1403 2484 
z
M 1172 3481 
Q 1172 3119 1398 2916 
Q 1625 2713 2034 2713 
Q 2441 2713 2670 2916 
Q 2900 3119 2900 3481 
Q 2900 3844 2670 4047 
Q 2441 4250 2034 4250 
Q 1625 4250 1398 4047 
Q 1172 3844 1172 3481 
z
" transform="scale(0.015625)"/>
       </defs>
       <use xlink:href="#DejaVuSans-13"/>
       <use xlink:href="#DejaVuSans-11" transform="translate(63.625 0)"/>
       <use xlink:href="#DejaVuSans-13" transform="translate(95.40625 0)"/>
       <use xlink:href="#DejaVuSans-1b" transform="translate(159.03125 0)"/>
      </g>
     </g>
    </g>
    <g id="ytick_5">
     <g id="line2d_19">
      <path d="M 54.442344 37.477305 
L 493.2 37.477305 
" clip-path="url(#p3bb0034bdb)" style="fill: none; stroke: #b0b0b0; stroke-width: 0.8; stroke-linecap: square"/>
     </g>
     <g id="line2d_20">
      <g>
       <use xlink:href="#m5187a088a2" x="54.442344" y="37.477305" style="stroke: #000000; stroke-width: 0.8"/>
      </g>
     </g>
     <g id="text_11">
      <!-- 0.10 -->
      <g transform="translate(25.176719 41.276133) scale(0.1 -0.1)">
       <use xlink:href="#DejaVuSans-13"/>
       <use xlink:href="#DejaVuSans-11" transform="translate(63.625 0)"/>
       <use xlink:href="#DejaVuSans-14" transform="translate(95.40625 0)"/>
       <use xlink:href="#DejaVuSans-13" transform="translate(159.03125 0)"/>
      </g>
     </g>
    </g>
    <g id="text_12">
     <!-- Time (s) -->
     <g transform="translate(18.774375 127.550078) rotate(-90) scale(0.1 -0.1)">
      <defs>
       <path id="DejaVuSans-37" d="M -19 4666 
L 3928 4666 
L 3928 4134 
L 2272 4134 
L 2272 0 
L 1638 0 
L 1638 4134 
L -19 4134 
L -19 4666 
z
" transform="scale(0.015625)"/>
       <path id="DejaVuSans-4c" d="M 603 3500 
L 1178 3500 
L 1178 0 
L 603 0 
L 603 3500 
z
M 603 4863 
L 1178 4863 
L 1178 4134 
L 603 4134 
L 603 4863 
z
" transform="scale(0.015625)"/>
       <path id="DejaVuSans-50" d="M 3328 2828 
Q 3544 3216 3844 3400 
Q 4144 3584 4550 3584 
Q 5097 3584 5394 3201 
Q 5691 2819 5691 2113 
L 5691 0 
L 5113 0 
L 5113 2094 
Q 5113 2597 4934 2840 
Q 4756 3084 4391 3084 
Q 3944 3084 3684 2787 
Q 3425 2491 3425 1978 
L 3425 0 
L 2847 0 
L 2847 2094 
Q 2847 2600 2669 2842 
Q 2491 3084 2119 3084 
Q 1678 3084 1418 2786 
Q 1159 2488 1159 1978 
L 1159 0 
L 581 0 
L 581 3500 
L 1159 3500 
L 1159 2956 
Q 1356 3278 1631 3431 
Q 1906 3584 2284 3584 
Q 2666 3584 2933 3390 
Q 3200 3197 3328 2828 
z
" transform="scale(0.015625)"/>
       <path id="DejaVuSans-48" d="M 3597 1894 
L 3597 1613 
L 953 1613 
Q 991 1019 1311 708 
Q 1631 397 2203 397 
Q 2534 397 2845 478 
Q 3156 559 3463 722 
L 3463 178 
Q 3153 47 2828 -22 
Q 2503 -91 2169 -91 
Q 1331 -91 842 396 
Q 353 884 353 1716 
Q 353 2575 817 3079 
Q 1281 3584 2069 3584 
Q 2775 3584 3186 3129 
Q 3597 2675 3597 1894 
z
M 3022 2063 
Q 3016 2534 2758 2815 
Q 2500 3097 2075 3097 
Q 1594 3097 1305 2825 
Q 1016 2553 972 2059 
L 3022 2063 
z
" transform="scale(0.015625)"/>
      </defs>
      <use xlink:href="#DejaVuSans-37"/>
      <use xlink:href="#DejaVuSans-4c" transform="translate(58 0)"/>
      <use xlink:href="#DejaVuSans-50" transform="translate(85.78125 0)"/>
      <use xlink:href="#DejaVuSans-48" transform="translate(183.1875 0)"/>
      <use xlink:href="#DejaVuSans-3" transform="translate(244.71875 0)"/>
      <use xlink:href="#DejaVuSans-b" transform="translate(276.5 0)"/>
      <use xlink:href="#DejaVuSans-56" transform="translate(315.515625 0)"/>
      <use xlink:href="#DejaVuSans-c" transform="translate(367.609375 0)"/>
     </g>
    </g>
   </g>
   <g id="line2d_21">
    <path d="M 74.385874 148.417074 
L 75.215702 151.951656 
L 76.074308 152.7535 
L 76.933139 157.632815 
L 77.791089 156.472909 
L 78.649405 159.143601 
L 79.50818 156.781009 
L 80.366405 159.051513 
L 81.226962 157.92818 
L 82.086452 158.249506 
L 82.944231 153.461788 
L 83.803952 152.193303 
L 84.662057 155.745354 
L 85.520587 158.201666 
L 86.378397 155.805113 
L 87.236551 148.379195 
L 88.095882 154.07309 
L 88.953592 153.691842 
L 89.81367 155.70976 
L 90.67291 154.199791 
L 91.528565 154.367965 
L 92.38936 146.08975 
L 93.245864 145.470611 
L 94.105998 152.338944 
L 94.964669 153.701802 
L 96.679542 159.736616 
L 97.537552 159.099843 
L 98.396144 157.847522 
L 99.254432 158.653612 
L 100.112784 153.710619 
L 100.971491 157.630693 
L 101.830099 159.918668 
L 102.689102 148.333967 
L 103.546582 157.072455 
L 104.40508 159.293814 
L 105.263434 153.202017 
L 106.121913 158.47058 
L 106.980442 159.964548 
L 107.838842 158.984734 
L 108.697726 160.19444 
L 109.555701 159.749188 
L 110.413956 158.485275 
L 111.272296 159.437169 
L 112.131901 157.663838 
L 112.989603 156.768763 
L 113.847646 156.769906 
L 114.706075 158.953875 
L 115.565242 157.573873 
L 116.423112 157.148215 
L 117.281341 154.710353 
L 118.13983 160.747779 
L 118.998084 154.976328 
L 119.856562 157.14201 
L 120.71567 158.270242 
L 121.573464 156.320899 
L 122.431981 160.395758 
L 123.290216 119.215798 
L 124.14876 100.460868 
L 125.29383 79.715451 
L 126.439178 77.043289 
L 127.58294 63.842001 
L 129.015502 140.930418 
L 129.881571 142.479083 
L 130.732451 133.050757 
L 131.590479 157.202259 
L 132.449272 162.782025 
L 134.175766 155.499299 
L 135.046135 129.743945 
L 135.886941 113.768449 
L 137.031013 87.804593 
L 138.17547 131.610507 
L 139.034583 159.665102 
L 139.892515 160.985508 
L 140.751443 155.185974 
L 141.609469 154.266734 
L 142.467579 163.448351 
L 143.326345 170.766344 
L 144.185832 174.506979 
L 145.049464 176.209775 
L 145.617187 176.694866 
L 146.18855 173.619578 
L 146.762289 165.194905 
L 147.620479 171.656684 
L 148.47836 165.772899 
L 149.336141 167.531047 
L 150.193746 176.167487 
L 150.765852 174.476283 
L 151.338543 171.045382 
L 152.198725 173.044196 
L 153.057395 172.502286 
L 154.487887 174.167856 
L 155.060002 172.415097 
L 155.919607 153.218671 
L 156.779326 156.897751 
L 157.638914 170.209413 
L 158.49517 162.19603 
L 160.212717 168.429713 
L 161.069029 169.687748 
L 161.928152 172.173776 
L 162.786035 159.802416 
L 163.644848 178.008905 
L 164.217009 177.9 
L 164.789064 176.811934 
L 165.360781 177.31874 
L 165.934131 176.478363 
L 166.50544 174.496529 
L 167.077507 178.390642 
L 167.64959 177.889387 
L 168.222026 178.962922 
L 168.794782 178.329414 
L 169.366544 178.657597 
L 169.938781 179.645738 
L 171.083478 179.471197 
L 171.656296 179.615696 
L 172.228059 179.636268 
L 172.800465 180.315493 
L 173.372633 179.982902 
L 173.944875 180.02372 
L 174.517846 178.314229 
L 175.091218 177.81526 
L 175.661633 180.027639 
L 176.233953 180.266837 
L 176.80753 180.150912 
L 177.378704 180.908672 
L 177.95144 179.938001 
L 178.523613 176.508569 
L 179.098066 129.83489 
L 179.953707 124.943328 
L 180.812383 123.109095 
L 181.671042 130.445375 
L 182.529398 114.10104 
L 183.673973 126.561875 
L 184.818458 149.967699 
L 185.677079 142.932661 
L 186.535432 156.190279 
L 188.252261 124.22802 
L 189.111519 163.177151 
L 189.968949 100.912977 
L 191.113779 88.123959 
L 192.25864 153.751601 
L 193.117475 149.202265 
L 193.97487 160.869419 
L 195.691989 163.259115 
L 196.550548 164.864436 
L 197.409822 160.775699 
L 198.267308 171.36736 
L 199.125828 175.189959 
L 199.697609 158.491316 
L 200.556651 124.899571 
L 201.700569 110.185538 
L 202.845168 168.734058 
L 203.704051 174.379624 
L 204.275922 176.412237 
L 204.848057 177.678272 
L 205.420404 176.85308 
L 205.993435 176.42089 
L 206.851263 175.022275 
L 207.423559 176.363907 
L 207.995563 176.725072 
L 208.567846 173.514102 
L 209.140252 174.027439 
L 209.71283 173.446996 
L 210.284408 169.448387 
L 211.143421 176.455831 
L 211.715365 172.884187 
L 212.287599 172.834877 
L 212.860067 171.168491 
L 213.718584 175.545409 
L 214.290674 174.049155 
L 214.862886 176.276882 
L 215.435318 170.944314 
L 216.293497 174.3166 
L 216.866082 175.998824 
L 217.438346 174.399054 
L 218.010372 175.733828 
L 218.582687 176.368152 
L 219.156208 176.666456 
L 219.727213 176.054664 
L 220.29957 177.133097 
L 220.872061 179.338618 
L 221.443803 174.445424 
L 222.016659 177.711417 
L 222.588678 176.205857 
L 223.16094 178.12483 
L 223.7333 173.94074 
L 224.591626 173.064442 
L 225.450285 177.202815 
L 226.022262 173.524062 
L 226.881061 176.505793 
L 227.739649 174.501917 
L 228.597464 176.046664 
L 229.456141 138.764899 
L 230.314863 117.131591 
L 231.461411 85.177659 
L 232.60368 127.635736 
L 233.46224 130.656654 
L 234.321169 162.586911 
L 235.179215 160.475436 
L 236.037203 156.717658 
L 236.895931 129.545566 
L 237.755018 138.59248 
L 238.613167 123.61884 
L 239.757545 146.976008 
L 241.473939 160.477069 
L 242.332987 154.91461 
L 243.191249 92.91429 
L 244.335704 173.992172 
L 244.907575 173.942373 
L 245.766199 163.121964 
L 246.624992 171.148082 
L 247.483047 158.780313 
L 248.342084 148.334294 
L 250.05863 173.835101 
L 250.630479 175.473568 
L 251.202846 170.698912 
L 252.061132 173.489774 
L 252.634007 166.593031 
L 253.492592 163.256176 
L 254.351072 173.767669 
L 255.210109 172.954395 
L 256.067692 176.939452 
L 256.639658 173.925882 
L 257.4983 171.530146 
L 258.357252 173.458915 
L 259.214906 170.374321 
L 260.074164 159.3041 
L 260.93188 162.252523 
L 261.790385 171.670562 
L 262.648795 171.506634 
L 263.506868 176.962637 
L 264.079358 176.770789 
L 264.6514 169.338176 
L 265.509941 172.380156 
L 266.368664 173.305926 
L 267.227425 176.963944 
L 267.798729 177.036928 
L 268.373053 174.880879 
L 269.229738 174.730176 
L 269.801935 179.244734 
L 270.374351 176.358519 
L 270.946463 175.254779 
L 271.519136 173.669214 
L 272.663178 178.750664 
L 273.807995 175.050685 
L 274.666657 170.329257 
L 275.524925 169.002483 
L 276.383139 123.296208 
L 277.241647 115.120204 
L 278.38804 118.186838 
L 279.531192 136.64771 
L 280.389411 112.160351 
L 281.534214 153.664739 
L 282.392538 157.474928 
L 283.250627 110.983627 
L 284.395627 116.522248 
L 285.540087 115.645623 
L 286.685091 139.299462 
L 287.542835 146.86645 
L 288.401703 146.094975 
L 289.260368 154.686515 
L 290.118379 150.272697 
L 290.97712 166.387467 
L 291.834972 108.992323 
L 292.979804 173.757056 
L 294.696681 172.65103 
L 295.555774 125.740928 
L 296.412989 167.90658 
L 297.27153 122.611432 
L 298.130172 167.854821 
L 298.988892 178.821852 
L 299.561357 176.773728 
L 300.13328 177.23498 
L 300.705615 174.52102 
L 301.277413 176.532244 
L 301.849723 175.322865 
L 302.421962 169.89821 
L 303.280607 172.511266 
L 304.139674 170.542657 
L 305.855711 172.101772 
L 306.732301 171.313806 
L 307.577349 171.176002 
L 308.436827 168.37371 
L 309.295344 173.998703 
L 310.152808 168.819614 
L 311.011141 173.82008 
L 311.870325 175.310946 
L 312.441866 174.987661 
L 313.586215 176.566532 
L 314.158552 177.654108 
L 314.730951 174.596943 
L 315.589747 178.47032 
L 316.164188 174.612781 
L 317.020026 174.948638 
L 317.592658 176.660905 
L 318.165405 176.758707 
L 319.023676 178.395214 
L 319.595353 176.532734 
L 320.167673 178.410398 
L 320.739869 176.818139 
L 321.312173 173.943353 
L 321.88491 174.621761 
L 322.462972 174.31562 
L 323.029082 175.103096 
L 323.601282 174.432199 
L 324.17392 141.963623 
L 325.031898 108.720307 
L 326.176684 110.10488 
L 327.321027 113.618399 
L 328.465938 48.673084 
L 329.896682 152.135993 
L 330.755667 152.066928 
L 331.613163 161.098331 
L 332.471749 165.120942 
L 333.330058 137.594053 
L 334.189078 163.911726 
L 335.04832 103.28161 
L 336.192109 108.588054 
L 337.336082 149.574859 
L 338.196169 151.476688 
L 339.053184 150.265186 
L 339.91152 157.621713 
L 340.769947 162.71198 
L 341.628699 156.334125 
L 342.486914 156.173462 
L 343.34559 177.21702 
L 344.204284 175.702643 
L 344.776363 173.458262 
L 345.634561 173.940414 
L 346.493206 173.892084 
L 347.351285 172.430282 
L 348.209973 167.681913 
L 349.92625 175.880286 
L 350.498571 172.028461 
L 351.357453 172.528573 
L 352.215946 172.106344 
L 353.074362 177.393357 
L 353.645963 172.193533 
L 354.504644 169.657706 
L 355.363271 176.759686 
L 355.935444 174.958434 
L 356.797207 168.339912 
L 357.656755 174.533592 
L 358.228535 160.887053 
L 359.087533 174.512693 
L 359.946577 175.633577 
L 360.80399 151.590164 
L 361.663198 172.200064 
L 362.520848 175.86102 
L 363.091972 173.110486 
L 363.950478 170.019197 
L 364.808831 176.180223 
L 365.956067 177.642515 
L 366.814113 178.258389 
L 367.383756 169.550761 
L 368.242176 177.55304 
L 368.816409 172.64956 
L 370.531247 177.210816 
L 371.105717 174.709766 
L 371.963547 173.191144 
L 372.821349 178.937451 
L 373.3932 178.318638 
L 373.965824 177.480383 
L 374.823914 119.485366 
L 375.967893 101.403456 
L 377.113792 105.740698 
L 378.25725 87.130756 
L 379.402349 101.489992 
L 380.547691 151.448441 
L 381.40607 146.634436 
L 382.264694 164.062265 
L 383.121915 111.24748 
L 384.266852 116.687646 
L 385.410889 33.528984 
L 386.84166 145.397953 
L 387.700078 157.766701 
L 388.558854 152.9589 
L 389.416683 162.502334 
L 390.275096 159.346552 
L 391.13365 124.598655 
L 392.278498 172.451344 
L 393.137292 170.712953 
L 393.995525 170.028177 
L 394.8537 171.151184 
L 395.711781 173.592964 
L 396.57076 115.63697 
L 397.716252 173.806202 
L 398.574316 110.900847 
L 399.717863 171.598395 
L 400.576283 176.006498 
L 401.434662 174.48559 
L 402.293189 174.854102 
L 403.15148 171.777997 
L 404.010008 174.123935 
L 404.868476 172.482856 
L 405.726735 174.456363 
L 406.585665 172.334602 
L 407.443704 171.834817 
L 408.301975 173.376951 
L 409.160388 173.091546 
L 410.018741 174.413095 
L 410.877219 172.269456 
L 411.735496 169.544393 
L 412.593899 171.973601 
L 413.452866 175.432422 
L 414.311092 175.265065 
L 414.885262 177.354661 
L 415.455706 172.912107 
L 416.313947 173.280782 
L 417.175014 173.30609 
L 418.031262 173.020195 
L 418.889975 174.561349 
L 419.748595 177.949962 
L 420.319542 178.568449 
L 420.894476 178.477668 
L 421.464401 177.005742 
L 422.036506 178.33023 
L 422.609786 178.029641 
L 423.181426 178.600777 
L 423.753428 176.145935 
L 424.612432 171.866166 
L 425.470248 169.117265 
L 427.187095 101.982756 
L 428.331688 136.330139 
L 429.190339 128.191362 
L 430.048815 122.020703 
L 431.194419 149.226756 
L 432.053071 153.62294 
L 432.911427 147.921044 
L 433.770987 122.057603 
L 434.916286 138.879355 
L 435.771642 131.792559 
L 436.916048 101.507789 
L 438.062956 145.728259 
L 438.920919 158.052106 
L 439.778476 155.205077 
L 440.637501 159.241402 
L 441.497458 165.351323 
L 442.354449 167.306543 
L 443.213146 174.729849 
L 444.071338 177.020763 
L 444.642236 175.981353 
L 445.214639 174.181734 
L 446.072598 164.225377 
L 446.931271 173.226738 
L 447.789869 169.582436 
L 448.648366 174.623231 
L 449.50642 176.24243 
L 450.080889 174.597596 
L 450.939679 174.547308 
L 451.795948 176.504977 
L 452.367957 177.313679 
L 452.939871 176.200632 
L 453.514624 175.901838 
L 454.08532 174.159529 
L 454.943199 174.836141 
L 455.80157 174.915983 
L 456.660123 167.744284 
L 457.519404 173.103628 
L 458.376847 170.821531 
L 459.235626 175.295924 
L 460.093867 173.39981 
L 460.952271 174.183694 
L 461.810476 177.085257 
L 462.38267 175.853999 
L 462.957241 176.263003 
L 463.527197 175.268168 
L 464.385689 177.119708 
L 464.958114 177.244777 
L 465.533052 174.610822 
L 466.389312 177.328537 
L 466.960961 177.663741 
L 467.53447 176.217286 
L 468.106719 175.425401 
L 468.965079 171.65701 
L 469.825241 177.063541 
L 470.683426 174.499305 
L 471.539981 175.787219 
L 472.398962 168.873495 
L 473.25647 172.949823 
L 473.25647 172.949823 
" clip-path="url(#p3bb0034bdb)" style="fill: none; stroke: #1f77b4; stroke-width: 1.5; stroke-linecap: square"/>
   </g>
   <g id="patch_3">
    <path d="M 54.442344 188.277656 
L 54.442344 26.16 
" style="fill: none; stroke: #000000; stroke-width: 0.8; stroke-linejoin: miter; stroke-linecap: square"/>
   </g>
   <g id="patch_4">
    <path d="M 493.2 188.277656 
L 493.2 26.16 
" style="fill: none; stroke: #000000; stroke-width: 0.8; stroke-linejoin: miter; stroke-linecap: square"/>
   </g>
   <g id="patch_5">
    <path d="M 54.442344 188.277656 
L 493.2 188.277656 
" style="fill: none; stroke: #000000; stroke-width: 0.8; stroke-linejoin: miter; stroke-linecap: square"/>
   </g>
   <g id="patch_6">
    <path d="M 54.442344 26.16 
L 493.2 26.16 
" style="fill: none; stroke: #000000; stroke-width: 0.8; stroke-linejoin: miter; stroke-linecap: square"/>
   </g>
   <g id="text_13">
    <!-- Computational Time -->
    <g transform="translate(213.048672 20.16) scale(0.12 -0.12)">
     <defs>
      <path id="DejaVuSans-26" d="M 4122 4306 
L 4122 3641 
Q 3803 3938 3442 4084 
Q 3081 4231 2675 4231 
Q 1875 4231 1450 3742 
Q 1025 3253 1025 2328 
Q 1025 1406 1450 917 
Q 1875 428 2675 428 
Q 3081 428 3442 575 
Q 3803 722 4122 1019 
L 4122 359 
Q 3791 134 3420 21 
Q 3050 -91 2638 -91 
Q 1578 -91 968 557 
Q 359 1206 359 2328 
Q 359 3453 968 4101 
Q 1578 4750 2638 4750 
Q 3056 4750 3426 4639 
Q 3797 4528 4122 4306 
z
" transform="scale(0.015625)"/>
      <path id="DejaVuSans-52" d="M 1959 3097 
Q 1497 3097 1228 2736 
Q 959 2375 959 1747 
Q 959 1119 1226 758 
Q 1494 397 1959 397 
Q 2419 397 2687 759 
Q 2956 1122 2956 1747 
Q 2956 2369 2687 2733 
Q 2419 3097 1959 3097 
z
M 1959 3584 
Q 2709 3584 3137 3096 
Q 3566 2609 3566 1747 
Q 3566 888 3137 398 
Q 2709 -91 1959 -91 
Q 1206 -91 779 398 
Q 353 888 353 1747 
Q 353 2609 779 3096 
Q 1206 3584 1959 3584 
z
" transform="scale(0.015625)"/>
      <path id="DejaVuSans-53" d="M 1159 525 
L 1159 -1331 
L 581 -1331 
L 581 3500 
L 1159 3500 
L 1159 2969 
Q 1341 3281 1617 3432 
Q 1894 3584 2278 3584 
Q 2916 3584 3314 3078 
Q 3713 2572 3713 1747 
Q 3713 922 3314 415 
Q 2916 -91 2278 -91 
Q 1894 -91 1617 61 
Q 1341 213 1159 525 
z
M 3116 1747 
Q 3116 2381 2855 2742 
Q 2594 3103 2138 3103 
Q 1681 3103 1420 2742 
Q 1159 2381 1159 1747 
Q 1159 1113 1420 752 
Q 1681 391 2138 391 
Q 2594 391 2855 752 
Q 3116 1113 3116 1747 
z
" transform="scale(0.015625)"/>
      <path id="DejaVuSans-58" d="M 544 1381 
L 544 3500 
L 1119 3500 
L 1119 1403 
Q 1119 906 1312 657 
Q 1506 409 1894 409 
Q 2359 409 2629 706 
Q 2900 1003 2900 1516 
L 2900 3500 
L 3475 3500 
L 3475 0 
L 2900 0 
L 2900 538 
Q 2691 219 2414 64 
Q 2138 -91 1772 -91 
Q 1169 -91 856 284 
Q 544 659 544 1381 
z
M 1991 3584 
L 1991 3584 
z
" transform="scale(0.015625)"/>
      <path id="DejaVuSans-44" d="M 2194 1759 
Q 1497 1759 1228 1600 
Q 959 1441 959 1056 
Q 959 750 1161 570 
Q 1363 391 1709 391 
Q 2188 391 2477 730 
Q 2766 1069 2766 1631 
L 2766 1759 
L 2194 1759 
z
M 3341 1997 
L 3341 0 
L 2766 0 
L 2766 531 
Q 2569 213 2275 61 
Q 1981 -91 1556 -91 
Q 1019 -91 701 211 
Q 384 513 384 1019 
Q 384 1609 779 1909 
Q 1175 2209 1959 2209 
L 2766 2209 
L 2766 2266 
Q 2766 2663 2505 2880 
Q 2244 3097 1772 3097 
Q 1472 3097 1187 3025 
Q 903 2953 641 2809 
L 641 3341 
Q 956 3463 1253 3523 
Q 1550 3584 1831 3584 
Q 2591 3584 2966 3190 
Q 3341 2797 3341 1997 
z
" transform="scale(0.015625)"/>
      <path id="DejaVuSans-51" d="M 3513 2113 
L 3513 0 
L 2938 0 
L 2938 2094 
Q 2938 2591 2744 2837 
Q 2550 3084 2163 3084 
Q 1697 3084 1428 2787 
Q 1159 2491 1159 1978 
L 1159 0 
L 581 0 
L 581 3500 
L 1159 3500 
L 1159 2956 
Q 1366 3272 1645 3428 
Q 1925 3584 2291 3584 
Q 2894 3584 3203 3211 
Q 3513 2838 3513 2113 
z
" transform="scale(0.015625)"/>
      <path id="DejaVuSans-4f" d="M 603 4863 
L 1178 4863 
L 1178 0 
L 603 0 
L 603 4863 
z
" transform="scale(0.015625)"/>
     </defs>
     <use xlink:href="#DejaVuSans-26"/>
     <use xlink:href="#DejaVuSans-52" transform="translate(69.828125 0)"/>
     <use xlink:href="#DejaVuSans-50" transform="translate(131.015625 0)"/>
     <use xlink:href="#DejaVuSans-53" transform="translate(228.421875 0)"/>
     <use xlink:href="#DejaVuSans-58" transform="translate(291.90625 0)"/>
     <use xlink:href="#DejaVuSans-57" transform="translate(355.28125 0)"/>
     <use xlink:href="#DejaVuSans-44" transform="translate(394.484375 0)"/>
     <use xlink:href="#DejaVuSans-57" transform="translate(455.765625 0)"/>
     <use xlink:href="#DejaVuSans-4c" transform="translate(494.96875 0)"/>
     <use xlink:href="#DejaVuSans-52" transform="translate(522.75 0)"/>
     <use xlink:href="#DejaVuSans-51" transform="translate(583.9375 0)"/>
     <use xlink:href="#DejaVuSans-44" transform="translate(647.3125 0)"/>
     <use xlink:href="#DejaVuSans-4f" transform="translate(708.59375 0)"/>
     <use xlink:href="#DejaVuSans-3" transform="translate(736.375 0)"/>
     <use xlink:href="#DejaVuSans-37" transform="translate(768.15625 0)"/>
     <use xlink:href="#DejaVuSans-4c" transform="translate(826.15625 0)"/>
     <use xlink:href="#DejaVuSans-50" transform="translate(853.9375 0)"/>
     <use xlink:href="#DejaVuSans-48" transform="translate(951.34375 0)"/>
    </g>
   </g>
   <g id="legend_1">
    <g id="patch_7">
     <path d="M 431.6 49.160781 
L 486.2 49.160781 
Q 488.2 49.160781 488.2 47.160781 
L 488.2 33.16 
Q 488.2 31.16 486.2 31.16 
L 431.6 31.16 
Q 429.6 31.16 429.6 33.16 
L 429.6 47.160781 
Q 429.6 49.160781 431.6 49.160781 
z
" style="fill: #ffffff; opacity: 0.8; stroke: #cccccc; stroke-linejoin: miter"/>
    </g>
    <g id="line2d_22">
     <path d="M 433.6 39.258438 
L 443.6 39.258438 
L 453.6 39.258438 
" style="fill: none; stroke: #1f77b4; stroke-width: 1.5; stroke-linecap: square"/>
    </g>
    <g id="text_14">
     <!-- $t_{solve}$ -->
     <g transform="translate(461.6 42.758438) scale(0.1 -0.1)">
      <defs>
       <path id="DejaVuSans-Oblique-57" d="M 2706 3500 
L 2619 3053 
L 1472 3053 
L 1100 1153 
Q 1081 1047 1072 975 
Q 1063 903 1063 863 
Q 1063 663 1183 572 
Q 1303 481 1569 481 
L 2150 481 
L 2053 0 
L 1503 0 
Q 991 0 739 200 
Q 488 400 488 806 
Q 488 878 497 964 
Q 506 1050 525 1153 
L 897 3053 
L 409 3053 
L 500 3500 
L 978 3500 
L 1172 4494 
L 1747 4494 
L 1556 3500 
L 2706 3500 
z
" transform="scale(0.015625)"/>
       <path id="DejaVuSans-Oblique-56" d="M 3200 3397 
L 3091 2853 
Q 2863 2978 2609 3040 
Q 2356 3103 2088 3103 
Q 1634 3103 1373 2948 
Q 1113 2794 1113 2528 
Q 1113 2219 1719 2053 
Q 1766 2041 1788 2034 
L 1972 1978 
Q 2547 1819 2739 1644 
Q 2931 1469 2931 1166 
Q 2931 609 2489 259 
Q 2047 -91 1331 -91 
Q 1053 -91 747 -37 
Q 441 16 72 128 
L 184 722 
Q 500 559 806 475 
Q 1113 391 1394 391 
Q 1816 391 2080 572 
Q 2344 753 2344 1031 
Q 2344 1331 1650 1516 
L 1591 1531 
L 1394 1581 
Q 956 1697 753 1886 
Q 550 2075 550 2369 
Q 550 2928 970 3256 
Q 1391 3584 2113 3584 
Q 2397 3584 2667 3537 
Q 2938 3491 3200 3397 
z
" transform="scale(0.015625)"/>
       <path id="DejaVuSans-Oblique-52" d="M 1625 -91 
Q 1009 -91 651 289 
Q 294 669 294 1325 
Q 294 1706 417 2101 
Q 541 2497 738 2766 
Q 1047 3184 1428 3384 
Q 1809 3584 2291 3584 
Q 2888 3584 3255 3212 
Q 3622 2841 3622 2241 
Q 3622 1825 3500 1412 
Q 3378 1000 3181 728 
Q 2875 309 2494 109 
Q 2113 -91 1625 -91 
z
M 891 1344 
Q 891 869 1089 633 
Q 1288 397 1691 397 
Q 2269 397 2648 901 
Q 3028 1406 3028 2181 
Q 3028 2634 2825 2865 
Q 2622 3097 2228 3097 
Q 1903 3097 1650 2945 
Q 1397 2794 1197 2484 
Q 1050 2253 970 1956 
Q 891 1659 891 1344 
z
" transform="scale(0.015625)"/>
       <path id="DejaVuSans-Oblique-4f" d="M 1172 4863 
L 1747 4863 
L 800 0 
L 225 0 
L 1172 4863 
z
" transform="scale(0.015625)"/>
       <path id="DejaVuSans-Oblique-59" d="M 459 3500 
L 1069 3500 
L 1581 525 
L 3256 3500 
L 3866 3500 
L 1875 0 
L 1100 0 
L 459 3500 
z
" transform="scale(0.015625)"/>
       <path id="DejaVuSans-Oblique-48" d="M 3078 2063 
Q 3088 2113 3092 2166 
Q 3097 2219 3097 2272 
Q 3097 2653 2873 2875 
Q 2650 3097 2266 3097 
Q 1838 3097 1509 2826 
Q 1181 2556 1013 2059 
L 3078 2063 
z
M 3578 1613 
L 903 1613 
Q 884 1494 878 1425 
Q 872 1356 872 1306 
Q 872 872 1139 634 
Q 1406 397 1894 397 
Q 2269 397 2603 481 
Q 2938 566 3225 728 
L 3116 159 
Q 2806 34 2476 -28 
Q 2147 -91 1806 -91 
Q 1078 -91 686 257 
Q 294 606 294 1247 
Q 294 1794 489 2264 
Q 684 2734 1063 3103 
Q 1306 3334 1642 3459 
Q 1978 3584 2356 3584 
Q 2950 3584 3301 3228 
Q 3653 2872 3653 2272 
Q 3653 2128 3634 1964 
Q 3616 1800 3578 1613 
z
" transform="scale(0.015625)"/>
      </defs>
      <use xlink:href="#DejaVuSans-Oblique-57" transform="translate(0 0.78125)"/>
      <use xlink:href="#DejaVuSans-Oblique-56" transform="translate(39.208984 -14.218701) scale(0.7)"/>
      <use xlink:href="#DejaVuSans-Oblique-52" transform="translate(75.678711 -14.218701) scale(0.7)"/>
      <use xlink:href="#DejaVuSans-Oblique-4f" transform="translate(118.505859 -14.218701) scale(0.7)"/>
      <use xlink:href="#DejaVuSans-Oblique-59" transform="translate(137.954102 -14.218701) scale(0.7)"/>
      <use xlink:href="#DejaVuSans-Oblique-48" transform="translate(179.379883 -14.218701) scale(0.7)"/>
     </g>
    </g>
   </g>
  </g>
 </g>
 <defs>
  <clipPath id="p3bb0034bdb">
   <rect x="54.442344" y="26.16" width="438.757656" height="162.117656"/>
  </clipPath>
 </defs>
</svg>
