<?xml version="1.0" encoding="utf-8" standalone="no"?>
<!DOCTYPE svg PUBLIC "-//W3C//DTD SVG 1.1//EN"
  "http://www.w3.org/Graphics/SVG/1.1/DTD/svg11.dtd">
<svg xmlns:xlink="http://www.w3.org/1999/xlink" width="504pt" height="806.4pt" viewBox="0 0 504 806.4" xmlns="http://www.w3.org/2000/svg" version="1.1">
 <metadata>
  <rdf:RDF xmlns:dc="http://purl.org/dc/elements/1.1/" xmlns:cc="http://creativecommons.org/ns#" xmlns:rdf="http://www.w3.org/1999/02/22-rdf-syntax-ns#">
   <cc:Work>
    <dc:type rdf:resource="http://purl.org/dc/dcmitype/StillImage"/>
    <dc:date>2026-07-10T12:57:59.083421</dc:date>
    <dc:format>image/svg+xml</dc:format>
    <dc:creator>
     <cc:Agent>
      <dc:title>Matplotlib v3.11.0, https://matplotlib.org/</dc:title>
     </cc:Agent>
    </dc:creator>
   </cc:Work>
  </rdf:RDF>
 </metadata>
 <defs>
  <style type="text/css">*{stroke-linejoin: round; stroke-linecap: butt}</style>
 </defs>
 <g id="figure_1">
  <g id="patch_1">
   <path d="M 0 806.4 
L 504 806.4 
L 504 0 
L 0 0 
z
" style="fill: #ffffff"/>
  </g>
  <g id="axes_1">
   <g id="patch_2">
    <path d="M 42.28 184.677656 
L 493.2 184.677656 
L 493.2 48.96 
L 42.28 48.96 
z
" style="fill: #ffffff"/>
   </g>
   <g id="matplotlib.axis_1">
    <g id="xtick_1">
     <g id="line2d_1">
      <path d="M 62.77636 184.677656 
L 62.77636 48.96 
" clip-path="url(#p13ac616d94)" style="fill: none; stroke: #b0b0b0; stroke-width: 0.8; stroke-linecap: square"/>
     </g>
     <g id="line2d_2">
      <defs>
       <path id="mfa152f5167" d="M 0 0 
L 0 3.5 
" style="stroke: #000000; stroke-width: 0.8"/>
      </defs>
      <g>
       <use xlink:href="#mfa152f5167" x="62.77636" y="184.677656" style="stroke: #000000; stroke-width: 0.8"/>
      </g>
     </g>
     <g id="text_1">
      <!-- 0 -->
      <g transform="translate(59.59511 199.275313) scale(0.1 -0.1)">
       <defs>
        <path id="DejaVuSans-13" d="M 2034 4250 
Q 1547 4250 1301 3770 
Q 1056 3291 1056 2328 
Q 1056 1369 1301 889 
Q 1547 409 2034 409 
Q 2525 409 2770 889 
Q 3016 1369 3016 2328 
Q 3016 3291 2770 3770 
Q 2525 4250 2034 4250 
z
M 2034 4750 
Q 2819 4750 3233 4129 
Q 3647 3509 3647 2328 
Q 3647 1150 3233 529 
Q 2819 -91 2034 -91 
Q 1250 -91 836 529 
Q 422 1150 422 2328 
Q 422 3509 836 4129 
Q 1250 4750 2034 4750 
z
" transform="scale(0.015625)"/>
       </defs>
       <use xlink:href="#DejaVuSans-13"/>
      </g>
     </g>
    </g>
    <g id="xtick_2">
     <g id="line2d_3">
      <path d="M 150.99763 184.677656 
L 150.99763 48.96 
" clip-path="url(#p13ac616d94)" style="fill: none; stroke: #b0b0b0; stroke-width: 0.8; stroke-linecap: square"/>
     </g>
     <g id="line2d_4">
      <g>
       <use xlink:href="#mfa152f5167" x="150.99763" y="184.677656" style="stroke: #000000; stroke-width: 0.8"/>
      </g>
     </g>
     <g id="text_2">
      <!-- 10 -->
      <g transform="translate(144.63513 199.275313) scale(0.1 -0.1)">
       <defs>
        <path id="DejaVuSans-14" d="M 794 531 
L 1825 531 
L 1825 4091 
L 703 3866 
L 703 4441 
L 1819 4666 
L 2450 4666 
L 2450 531 
L 3481 531 
L 3481 0 
L 794 0 
L 794 531 
z
" transform="scale(0.015625)"/>
       </defs>
       <use xlink:href="#DejaVuSans-14"/>
       <use xlink:href="#DejaVuSans-13" transform="translate(63.625 0)"/>
      </g>
     </g>
    </g>
    <g id="xtick_3">
     <g id="line2d_5">
      <path d="M 239.218899 184.677656 
L 239.218899 48.96 
" clip-path="url(#p13ac616d94)" style="fill: none; stroke: #b0b0b0; stroke-width: 0.8; stroke-linecap: square"/>
     </g>
     <g id="line2d_6">
      <g>
       <use xlink:href="#mfa152f5167" x="239.218899" y="184.677656" style="stroke: #000000; stroke-width: 0.8"/>
      </g>
     </g>
     <g id="text_3">
      <!-- 20 -->
      <g transform="translate(232.856399 199.275313) scale(0.1 -0.1)">
       <defs>
        <path id="DejaVuSans-15" d="M 1228 531 
L 3431 531 
L 3431 0 
L 469 0 
L 469 531 
Q 828 903 1448 1529 
Q 2069 2156 2228 2338 
Q 2531 2678 2651 2914 
Q 2772 3150 2772 3378 
Q 2772 3750 2511 3984 
Q 2250 4219 1831 4219 
Q 1534 4219 1204 4116 
Q 875 4013 500 3803 
L 500 4441 
Q 881 4594 1212 4672 
Q 1544 4750 1819 4750 
Q 2544 4750 2975 4387 
Q 3406 4025 3406 3419 
Q 3406 3131 3298 2873 
Q 3191 2616 2906 2266 
Q 2828 2175 2409 1742 
Q 1991 1309 1228 531 
z
" transform="scale(0.015625)"/>
       </defs>
       <use xlink:href="#DejaVuSans-15"/>
       <use xlink:href="#DejaVuSans-13" transform="translate(63.625 0)"/>
      </g>
     </g>
    </g>
    <g id="xtick_4">
     <g id="line2d_7">
      <path d="M 327.440169 184.677656 
L 327.440169 48.96 
" clip-path="url(#p13ac616d94)" style="fill: none; stroke: #b0b0b0; stroke-width: 0.8; stroke-linecap: square"/>
     </g>
     <g id="line2d_8">
      <g>
       <use xlink:href="#mfa152f5167" x="327.440169" y="184.677656" style="stroke: #000000; stroke-width: 0.8"/>
      </g>
     </g>
     <g id="text_4">
      <!-- 30 -->
      <g transform="translate(321.077669 199.275313) scale(0.1 -0.1)">
       <defs>
        <path id="DejaVuSans-16" d="M 2597 2516 
Q 3050 2419 3304 2112 
Q 3559 1806 3559 1356 
Q 3559 666 3084 287 
Q 2609 -91 1734 -91 
Q 1441 -91 1130 -33 
Q 819 25 488 141 
L 488 750 
Q 750 597 1062 519 
Q 1375 441 1716 441 
Q 2309 441 2620 675 
Q 2931 909 2931 1356 
Q 2931 1769 2642 2001 
Q 2353 2234 1838 2234 
L 1294 2234 
L 1294 2753 
L 1863 2753 
Q 2328 2753 2575 2939 
Q 2822 3125 2822 3475 
Q 2822 3834 2567 4026 
Q 2313 4219 1838 4219 
Q 1578 4219 1281 4162 
Q 984 4106 628 3988 
L 628 4550 
Q 988 4650 1302 4700 
Q 1616 4750 1894 4750 
Q 2613 4750 3031 4423 
Q 3450 4097 3450 3541 
Q 3450 3153 3228 2886 
Q 3006 2619 2597 2516 
z
" transform="scale(0.015625)"/>
       </defs>
       <use xlink:href="#DejaVuSans-16"/>
       <use xlink:href="#DejaVuSans-13" transform="translate(63.625 0)"/>
      </g>
     </g>
    </g>
    <g id="xtick_5">
     <g id="line2d_9">
      <path d="M 415.661439 184.677656 
L 415.661439 48.96 
" clip-path="url(#p13ac616d94)" style="fill: none; stroke: #b0b0b0; stroke-width: 0.8; stroke-linecap: square"/>
     </g>
     <g id="line2d_10">
      <g>
       <use xlink:href="#mfa152f5167" x="415.661439" y="184.677656" style="stroke: #000000; stroke-width: 0.8"/>
      </g>
     </g>
     <g id="text_5">
      <!-- 40 -->
      <g transform="translate(409.298939 199.275313) scale(0.1 -0.1)">
       <defs>
        <path id="DejaVuSans-17" d="M 2419 4116 
L 825 1625 
L 2419 1625 
L 2419 4116 
z
M 2253 4666 
L 3047 4666 
L 3047 1625 
L 3713 1625 
L 3713 1100 
L 3047 1100 
L 3047 0 
L 2419 0 
L 2419 1100 
L 313 1100 
L 313 1709 
L 2253 4666 
z
" transform="scale(0.015625)"/>
       </defs>
       <use xlink:href="#DejaVuSans-17"/>
       <use xlink:href="#DejaVuSans-13" transform="translate(63.625 0)"/>
      </g>
     </g>
    </g>
    <g id="text_6">
     <!-- t (s) -->
     <g transform="translate(257.684531 213.275313) scale(0.1 -0.1)">
      <defs>
       <path id="DejaVuSans-57" d="M 1172 4494 
L 1172 3500 
L 2356 3500 
L 2356 3053 
L 1172 3053 
L 1172 1153 
Q 1172 725 1289 603 
Q 1406 481 1766 481 
L 2356 481 
L 2356 0 
L 1766 0 
Q 1100 0 847 248 
Q 594 497 594 1153 
L 594 3053 
L 172 3053 
L 172 3500 
L 594 3500 
L 594 4494 
L 1172 4494 
z
" transform="scale(0.015625)"/>
       <path id="DejaVuSans-3" transform="scale(0.015625)"/>
       <path id="DejaVuSans-b" d="M 1984 4856 
Q 1566 4138 1362 3434 
Q 1159 2731 1159 2009 
Q 1159 1288 1364 580 
Q 1569 -128 1984 -844 
L 1484 -844 
Q 1016 -109 783 600 
Q 550 1309 550 2009 
Q 550 2706 781 3412 
Q 1013 4119 1484 4856 
L 1984 4856 
z
" transform="scale(0.015625)"/>
       <path id="DejaVuSans-56" d="M 2834 3397 
L 2834 2853 
Q 2591 2978 2328 3040 
Q 2066 3103 1784 3103 
Q 1356 3103 1142 2972 
Q 928 2841 928 2578 
Q 928 2378 1081 2264 
Q 1234 2150 1697 2047 
L 1894 2003 
Q 2506 1872 2764 1633 
Q 3022 1394 3022 966 
Q 3022 478 2636 193 
Q 2250 -91 1575 -91 
Q 1294 -91 989 -36 
Q 684 19 347 128 
L 347 722 
Q 666 556 975 473 
Q 1284 391 1588 391 
Q 1994 391 2212 530 
Q 2431 669 2431 922 
Q 2431 1156 2273 1281 
Q 2116 1406 1581 1522 
L 1381 1569 
Q 847 1681 609 1914 
Q 372 2147 372 2553 
Q 372 3047 722 3315 
Q 1072 3584 1716 3584 
Q 2034 3584 2315 3537 
Q 2597 3491 2834 3397 
z
" transform="scale(0.015625)"/>
       <path id="DejaVuSans-c" d="M 513 4856 
L 1013 4856 
Q 1481 4119 1714 3412 
Q 1947 2706 1947 2009 
Q 1947 1309 1714 600 
Q 1481 -109 1013 -844 
L 513 -844 
Q 928 -128 1133 580 
Q 1338 1288 1338 2009 
Q 1338 2731 1133 3434 
Q 928 4138 513 4856 
z
" transform="scale(0.015625)"/>
      </defs>
      <use xlink:href="#DejaVuSans-57"/>
      <use xlink:href="#DejaVuSans-3" transform="translate(39.203125 0)"/>
      <use xlink:href="#DejaVuSans-b" transform="translate(70.984375 0)"/>
      <use xlink:href="#DejaVuSans-56" transform="translate(110 0)"/>
      <use xlink:href="#DejaVuSans-c" transform="translate(162.09375 0)"/>
     </g>
    </g>
   </g>
   <g id="matplotlib.axis_2">
    <g id="ytick_1">
     <g id="line2d_11">
      <path d="M 42.28 178.508672 
L 493.2 178.508672 
" clip-path="url(#p13ac616d94)" style="fill: none; stroke: #b0b0b0; stroke-width: 0.8; stroke-linecap: square"/>
     </g>
     <g id="line2d_12">
      <defs>
       <path id="me9eae2de91" d="M 0 0 
L -3.5 0 
" style="stroke: #000000; stroke-width: 0.8"/>
      </defs>
      <g>
       <use xlink:href="#me9eae2de91" x="42.28" y="178.508672" style="stroke: #000000; stroke-width: 0.8"/>
      </g>
     </g>
     <g id="text_7">
      <!-- 0 -->
      <g transform="translate(28.9175 182.3075) scale(0.1 -0.1)">
       <use xlink:href="#DejaVuSans-13"/>
      </g>
     </g>
    </g>
    <g id="ytick_2">
     <g id="line2d_13">
      <path d="M 42.28 137.290727 
L 493.2 137.290727 
" clip-path="url(#p13ac616d94)" style="fill: none; stroke: #b0b0b0; stroke-width: 0.8; stroke-linecap: square"/>
     </g>
     <g id="line2d_14">
      <g>
       <use xlink:href="#me9eae2de91" x="42.28" y="137.290727" style="stroke: #000000; stroke-width: 0.8"/>
      </g>
     </g>
     <g id="text_8">
      <!-- 10 -->
      <g transform="translate(22.555 141.089556) scale(0.1 -0.1)">
       <use xlink:href="#DejaVuSans-14"/>
       <use xlink:href="#DejaVuSans-13" transform="translate(63.625 0)"/>
      </g>
     </g>
    </g>
    <g id="ytick_3">
     <g id="line2d_15">
      <path d="M 42.28 96.072783 
L 493.2 96.072783 
" clip-path="url(#p13ac616d94)" style="fill: none; stroke: #b0b0b0; stroke-width: 0.8; stroke-linecap: square"/>
     </g>
     <g id="line2d_16">
      <g>
       <use xlink:href="#me9eae2de91" x="42.28" y="96.072783" style="stroke: #000000; stroke-width: 0.8"/>
      </g>
     </g>
     <g id="text_9">
      <!-- 20 -->
      <g transform="translate(22.555 99.871611) scale(0.1 -0.1)">
       <use xlink:href="#DejaVuSans-15"/>
       <use xlink:href="#DejaVuSans-13" transform="translate(63.625 0)"/>
      </g>
     </g>
    </g>
    <g id="ytick_4">
     <g id="line2d_17">
      <path d="M 42.28 54.854839 
L 493.2 54.854839 
" clip-path="url(#p13ac616d94)" style="fill: none; stroke: #b0b0b0; stroke-width: 0.8; stroke-linecap: square"/>
     </g>
     <g id="line2d_18">
      <g>
       <use xlink:href="#me9eae2de91" x="42.28" y="54.854839" style="stroke: #000000; stroke-width: 0.8"/>
      </g>
     </g>
     <g id="text_10">
      <!-- 30 -->
      <g transform="translate(22.555 58.653667) scale(0.1 -0.1)">
       <use xlink:href="#DejaVuSans-16"/>
       <use xlink:href="#DejaVuSans-13" transform="translate(63.625 0)"/>
      </g>
     </g>
    </g>
   </g>
   <g id="line2d_19">
    <path d="M 62.776364 178.508672 
L 68.04066 178.403566 
L 73.337402 178.075689 
L 78.631818 177.525427 
L 83.925603 176.752589 
L 89.216423 175.757173 
L 94.509849 174.539177 
L 99.803143 173.0986 
L 105.097223 171.435451 
L 110.39042 169.549724 
L 116.272583 167.200301 
L 120.684866 165.403097 
L 122.449277 164.90901 
L 125.982238 164.299746 
L 132.745291 162.349869 
L 134.511174 162.157419 
L 136.569407 162.034993 
L 138.922691 161.599266 
L 143.628656 160.316386 
L 147.453759 159.342638 
L 149.217167 159.072858 
L 151.862373 158.757651 
L 153.626974 158.464183 
L 155.685527 158.194922 
L 159.21365 157.289172 
L 161.566203 156.429896 
L 165.68399 154.572805 
L 177.152557 149.314671 
L 178.916734 148.710258 
L 182.739962 147.817696 
L 186.562542 146.571921 
L 188.327438 146.194786 
L 192.444589 145.638572 
L 195.679235 144.696951 
L 200.677854 143.2296 
L 202.442 142.956041 
L 204.500719 142.634906 
L 207.735693 141.969024 
L 210.382127 141.13228 
L 213.323143 139.88306 
L 229.791193 132.436718 
L 236.261017 130.598401 
L 238.02492 130.459288 
L 239.789943 130.102454 
L 242.438361 129.261059 
L 246.847913 127.809896 
L 248.613039 127.47373 
L 250.082215 127.302667 
L 253.611925 126.406056 
L 255.37572 125.86797 
L 258.316042 124.65272 
L 264.785604 121.661792 
L 276.548964 116.277511 
L 278.607578 115.645336 
L 280.960506 115.03026 
L 284.488966 113.849107 
L 286.253142 113.521431 
L 288.312251 113.328084 
L 290.077084 112.939595 
L 293.605368 111.803548 
L 297.133603 110.709176 
L 298.89893 110.389448 
L 300.662535 110.176545 
L 305.960874 108.880175 
L 309.783796 107.280492 
L 327.133983 99.358651 
L 328.89847 98.905888 
L 330.664362 98.591735 
L 333.015541 97.815478 
L 335.66237 96.883993 
L 337.427149 96.502677 
L 341.544053 95.978466 
L 344.190855 95.192021 
L 348.307874 93.880989 
L 350.660014 93.36545 
L 353.899502 92.918575 
L 358.017004 92.09279 
L 361.249833 91.058073 
L 364.77835 89.498673 
L 379.189572 82.952858 
L 381.247229 82.455495 
L 382.42298 82.153016 
L 387.422022 80.541934 
L 389.480958 80.308214 
L 391.245581 80.255517 
L 393.009412 79.961977 
L 395.069447 79.392821 
L 400.655339 77.622013 
L 402.41993 77.271176 
L 405.948605 76.888838 
L 407.71296 76.497656 
L 409.477303 76.207268 
L 411.242279 75.642775 
L 414.182669 74.49999 
L 421.240514 71.231387 
L 430.358081 67.042399 
L 432.123618 66.403722 
L 435.35586 65.539423 
L 439.180471 64.251881 
L 440.945012 63.931634 
L 444.766228 63.630146 
L 446.531102 63.194514 
L 453.882722 60.976705 
L 455.647239 60.739847 
L 457.411551 60.592857 
L 462.704669 59.431048 
L 465.646121 58.307626 
L 472.703636 55.128984 
L 472.703636 55.128984 
" clip-path="url(#p13ac616d94)" style="fill: none; stroke: #1f77b4; stroke-width: 1.5; stroke-linecap: square"/>
   </g>
   <g id="line2d_20">
    <path d="M 62.776364 178.508672 
L 68.04066 178.403566 
L 73.337402 178.075689 
L 78.631818 177.525427 
L 83.925603 176.752589 
L 89.216423 175.757173 
L 94.509849 174.539177 
L 99.803143 173.0986 
L 105.097223 171.435451 
L 110.39042 169.549724 
L 116.272583 167.200301 
L 120.684866 165.403097 
L 122.449277 164.90901 
L 125.982238 164.299746 
L 132.745291 162.349869 
L 134.511174 162.157419 
L 136.569407 162.034993 
L 138.922691 161.599266 
L 143.628656 160.316386 
L 147.453759 159.342638 
L 149.217167 159.072858 
L 151.862373 158.757651 
L 153.626974 158.464183 
L 155.685527 158.194922 
L 159.21365 157.289172 
L 161.566203 156.429896 
L 165.68399 154.572805 
L 177.152557 149.314671 
L 178.916734 148.710258 
L 182.739962 147.817696 
L 186.562542 146.571921 
L 188.327438 146.194786 
L 192.444589 145.638572 
L 195.679235 144.696951 
L 200.677854 143.2296 
L 202.442 142.956041 
L 204.500719 142.634906 
L 207.735693 141.969024 
L 210.382127 141.13228 
L 213.323143 139.88306 
L 229.791193 132.436718 
L 236.261017 130.598401 
L 238.02492 130.459288 
L 239.789943 130.102454 
L 242.438361 129.261059 
L 246.847913 127.809896 
L 248.613039 127.47373 
L 250.082215 127.302667 
L 253.611925 126.406056 
L 255.37572 125.86797 
L 258.316042 124.65272 
L 264.785604 121.661792 
L 276.548964 116.277511 
L 278.607578 115.645336 
L 280.960506 115.03026 
L 284.488966 113.849107 
L 286.253142 113.521431 
L 288.312251 113.328084 
L 290.077084 112.939595 
L 293.605368 111.803548 
L 297.133603 110.709176 
L 298.89893 110.389448 
L 300.662535 110.176545 
L 305.960874 108.880175 
L 309.783796 107.280492 
L 327.133983 99.358651 
L 328.89847 98.905888 
L 330.664362 98.591735 
L 333.015541 97.815478 
L 335.66237 96.883993 
L 337.427149 96.502677 
L 341.544053 95.978466 
L 344.190855 95.192021 
L 348.307874 93.880989 
L 350.660014 93.36545 
L 353.899502 92.918575 
L 358.017004 92.09279 
L 361.249833 91.058073 
L 364.77835 89.498673 
L 379.189572 82.952858 
L 381.247229 82.455495 
L 382.42298 82.153016 
L 387.422022 80.541934 
L 389.480958 80.308214 
L 391.245581 80.255517 
L 393.009412 79.961977 
L 395.069447 79.392821 
L 400.655339 77.622013 
L 402.41993 77.271176 
L 405.948605 76.888838 
L 407.71296 76.497656 
L 409.477303 76.207268 
L 411.242279 75.642775 
L 414.182669 74.49999 
L 421.240514 71.231387 
L 430.358081 67.042399 
L 432.123618 66.403722 
L 435.35586 65.539423 
L 439.180471 64.251881 
L 440.945012 63.931634 
L 444.766228 63.630146 
L 446.531102 63.194514 
L 453.882722 60.976705 
L 455.647239 60.739847 
L 457.411551 60.592857 
L 462.704669 59.431048 
L 465.646121 58.307626 
L 472.703636 55.128984 
L 472.703636 55.128984 
" clip-path="url(#p13ac616d94)" style="fill: none; stroke-dasharray: 9.6,2.4,1.5,2.4; stroke-dashoffset: 0; stroke: #ff7f0e; stroke-width: 1.5"/>
   </g>
   <g id="patch_3">
    <path d="M 42.28 184.677656 
L 42.28 48.96 
" style="fill: none; stroke: #000000; stroke-width: 0.8; stroke-linejoin: miter; stroke-linecap: square"/>
   </g>
   <g id="patch_4">
    <path d="M 493.2 184.677656 
L 493.2 48.96 
" style="fill: none; stroke: #000000; stroke-width: 0.8; stroke-linejoin: miter; stroke-linecap: square"/>
   </g>
   <g id="patch_5">
    <path d="M 42.28 184.677656 
L 493.2 184.677656 
" style="fill: none; stroke: #000000; stroke-width: 0.8; stroke-linejoin: miter; stroke-linecap: square"/>
   </g>
   <g id="patch_6">
    <path d="M 42.28 48.96 
L 493.2 48.96 
" style="fill: none; stroke: #000000; stroke-width: 0.8; stroke-linejoin: miter; stroke-linecap: square"/>
   </g>
   <g id="text_11">
    <!-- $X$ (m) -->
    <g transform="translate(251.18 42.96) scale(0.12 -0.12)">
     <defs>
      <path id="DejaVuSans-Oblique-3b" d="M 878 4666 
L 1516 4666 
L 2316 2981 
L 3763 4666 
L 4500 4666 
L 2578 2438 
L 3738 0 
L 3103 0 
L 2163 1966 
L 459 0 
L -275 0 
L 1906 2509 
L 878 4666 
z
" transform="scale(0.015625)"/>
      <path id="DejaVuSans-50" d="M 3328 2828 
Q 3544 3216 3844 3400 
Q 4144 3584 4550 3584 
Q 5097 3584 5394 3201 
Q 5691 2819 5691 2113 
L 5691 0 
L 5113 0 
L 5113 2094 
Q 5113 2597 4934 2840 
Q 4756 3084 4391 3084 
Q 3944 3084 3684 2787 
Q 3425 2491 3425 1978 
L 3425 0 
L 2847 0 
L 2847 2094 
Q 2847 2600 2669 2842 
Q 2491 3084 2119 3084 
Q 1678 3084 1418 2786 
Q 1159 2488 1159 1978 
L 1159 0 
L 581 0 
L 581 3500 
L 1159 3500 
L 1159 2956 
Q 1356 3278 1631 3431 
Q 1906 3584 2284 3584 
Q 2666 3584 2933 3390 
Q 3200 3197 3328 2828 
z
" transform="scale(0.015625)"/>
     </defs>
     <use xlink:href="#DejaVuSans-Oblique-3b" transform="translate(0 0.125)"/>
     <use xlink:href="#DejaVuSans-3" transform="translate(68.505859 0.125)"/>
     <use xlink:href="#DejaVuSans-b" transform="translate(100.292969 0.125)"/>
     <use xlink:href="#DejaVuSans-50" transform="translate(139.306641 0.125)"/>
     <use xlink:href="#DejaVuSans-c" transform="translate(236.71875 0.125)"/>
    </g>
   </g>
   <g id="legend_1">
    <g id="patch_7">
     <path d="M 49.28 86.961563 
L 98.08 86.961563 
Q 100.08 86.961563 100.08 84.961563 
L 100.08 55.96 
Q 100.08 53.96 98.08 53.96 
L 49.28 53.96 
Q 47.28 53.96 47.28 55.96 
L 47.28 84.961563 
Q 47.28 86.961563 49.28 86.961563 
z
" style="fill: #ffffff; opacity: 0.8; stroke: #cccccc; stroke-linejoin: miter"/>
    </g>
    <g id="line2d_21">
     <path d="M 51.28 62.058438 
L 61.28 62.058438 
L 71.28 62.058438 
" style="fill: none; stroke: #1f77b4; stroke-width: 1.5; stroke-linecap: square"/>
    </g>
    <g id="text_12">
     <!-- $X$ -->
     <g transform="translate(79.28 65.558438) scale(0.1 -0.1)">
      <use xlink:href="#DejaVuSans-Oblique-3b" transform="translate(0 0.09375)"/>
     </g>
    </g>
    <g id="line2d_22">
     <path d="M 51.28 77.059219 
L 61.28 77.059219 
L 71.28 77.059219 
" style="fill: none; stroke-dasharray: 9.6,2.4,1.5,2.4; stroke-dashoffset: 0; stroke: #ff7f0e; stroke-width: 1.5"/>
    </g>
    <g id="text_13">
     <!-- $X_{ref}$ -->
     <g transform="translate(79.28 80.559219) scale(0.1 -0.1)">
      <defs>
       <path id="DejaVuSans-Oblique-55" d="M 2853 2969 
Q 2766 3016 2653 3041 
Q 2541 3066 2413 3066 
Q 1953 3066 1609 2717 
Q 1266 2369 1153 1784 
L 800 0 
L 225 0 
L 909 3500 
L 1484 3500 
L 1375 2956 
Q 1603 3259 1920 3421 
Q 2238 3584 2597 3584 
Q 2691 3584 2781 3573 
Q 2872 3563 2963 3538 
L 2853 2969 
z
" transform="scale(0.015625)"/>
       <path id="DejaVuSans-Oblique-48" d="M 3078 2063 
Q 3088 2113 3092 2166 
Q 3097 2219 3097 2272 
Q 3097 2653 2873 2875 
Q 2650 3097 2266 3097 
Q 1838 3097 1509 2826 
Q 1181 2556 1013 2059 
L 3078 2063 
z
M 3578 1613 
L 903 1613 
Q 884 1494 878 1425 
Q 872 1356 872 1306 
Q 872 872 1139 634 
Q 1406 397 1894 397 
Q 2269 397 2603 481 
Q 2938 566 3225 728 
L 3116 159 
Q 2806 34 2476 -28 
Q 2147 -91 1806 -91 
Q 1078 -91 686 257 
Q 294 606 294 1247 
Q 294 1794 489 2264 
Q 684 2734 1063 3103 
Q 1306 3334 1642 3459 
Q 1978 3584 2356 3584 
Q 2950 3584 3301 3228 
Q 3653 2872 3653 2272 
Q 3653 2128 3634 1964 
Q 3616 1800 3578 1613 
z
" transform="scale(0.015625)"/>
       <path id="DejaVuSans-Oblique-49" d="M 3059 4863 
L 2969 4384 
L 2419 4384 
Q 2106 4384 1964 4261 
Q 1822 4138 1753 3809 
L 1691 3500 
L 2638 3500 
L 2553 3053 
L 1606 3053 
L 1013 0 
L 434 0 
L 1031 3053 
L 481 3053 
L 563 3500 
L 1113 3500 
L 1159 3744 
Q 1278 4363 1576 4613 
Q 1875 4863 2516 4863 
L 3059 4863 
z
" transform="scale(0.015625)"/>
      </defs>
      <use xlink:href="#DejaVuSans-Oblique-3b" transform="translate(0 0.09375)"/>
      <use xlink:href="#DejaVuSans-Oblique-55" transform="translate(68.505859 -14.906201) scale(0.7)"/>
      <use xlink:href="#DejaVuSans-Oblique-48" transform="translate(97.285156 -14.906201) scale(0.7)"/>
      <use xlink:href="#DejaVuSans-Oblique-49" transform="translate(140.351562 -14.906201) scale(0.7)"/>
     </g>
    </g>
   </g>
  </g>
  <g id="axes_2">
   <g id="patch_8">
    <path d="M 42.28 377.877656 
L 493.2 377.877656 
L 493.2 242.16 
L 42.28 242.16 
z
" style="fill: #ffffff"/>
   </g>
   <g id="matplotlib.axis_3">
    <g id="xtick_6">
     <g id="line2d_23">
      <path d="M 62.77636 377.877656 
L 62.77636 242.16 
" clip-path="url(#p23c3e607c8)" style="fill: none; stroke: #b0b0b0; stroke-width: 0.8; stroke-linecap: square"/>
     </g>
     <g id="line2d_24">
      <g>
       <use xlink:href="#mfa152f5167" x="62.77636" y="377.877656" style="stroke: #000000; stroke-width: 0.8"/>
      </g>
     </g>
     <g id="text_14">
      <!-- 0 -->
      <g transform="translate(59.59511 392.475312) scale(0.1 -0.1)">
       <use xlink:href="#DejaVuSans-13"/>
      </g>
     </g>
    </g>
    <g id="xtick_7">
     <g id="line2d_25">
      <path d="M 150.99763 377.877656 
L 150.99763 242.16 
" clip-path="url(#p23c3e607c8)" style="fill: none; stroke: #b0b0b0; stroke-width: 0.8; stroke-linecap: square"/>
     </g>
     <g id="line2d_26">
      <g>
       <use xlink:href="#mfa152f5167" x="150.99763" y="377.877656" style="stroke: #000000; stroke-width: 0.8"/>
      </g>
     </g>
     <g id="text_15">
      <!-- 10 -->
      <g transform="translate(144.63513 392.475312) scale(0.1 -0.1)">
       <use xlink:href="#DejaVuSans-14"/>
       <use xlink:href="#DejaVuSans-13" transform="translate(63.625 0)"/>
      </g>
     </g>
    </g>
    <g id="xtick_8">
     <g id="line2d_27">
      <path d="M 239.218899 377.877656 
L 239.218899 242.16 
" clip-path="url(#p23c3e607c8)" style="fill: none; stroke: #b0b0b0; stroke-width: 0.8; stroke-linecap: square"/>
     </g>
     <g id="line2d_28">
      <g>
       <use xlink:href="#mfa152f5167" x="239.218899" y="377.877656" style="stroke: #000000; stroke-width: 0.8"/>
      </g>
     </g>
     <g id="text_16">
      <!-- 20 -->
      <g transform="translate(232.856399 392.475312) scale(0.1 -0.1)">
       <use xlink:href="#DejaVuSans-15"/>
       <use xlink:href="#DejaVuSans-13" transform="translate(63.625 0)"/>
      </g>
     </g>
    </g>
    <g id="xtick_9">
     <g id="line2d_29">
      <path d="M 327.440169 377.877656 
L 327.440169 242.16 
" clip-path="url(#p23c3e607c8)" style="fill: none; stroke: #b0b0b0; stroke-width: 0.8; stroke-linecap: square"/>
     </g>
     <g id="line2d_30">
      <g>
       <use xlink:href="#mfa152f5167" x="327.440169" y="377.877656" style="stroke: #000000; stroke-width: 0.8"/>
      </g>
     </g>
     <g id="text_17">
      <!-- 30 -->
      <g transform="translate(321.077669 392.475312) scale(0.1 -0.1)">
       <use xlink:href="#DejaVuSans-16"/>
       <use xlink:href="#DejaVuSans-13" transform="translate(63.625 0)"/>
      </g>
     </g>
    </g>
    <g id="xtick_10">
     <g id="line2d_31">
      <path d="M 415.661439 377.877656 
L 415.661439 242.16 
" clip-path="url(#p23c3e607c8)" style="fill: none; stroke: #b0b0b0; stroke-width: 0.8; stroke-linecap: square"/>
     </g>
     <g id="line2d_32">
      <g>
       <use xlink:href="#mfa152f5167" x="415.661439" y="377.877656" style="stroke: #000000; stroke-width: 0.8"/>
      </g>
     </g>
     <g id="text_18">
      <!-- 40 -->
      <g transform="translate(409.298939 392.475312) scale(0.1 -0.1)">
       <use xlink:href="#DejaVuSans-17"/>
       <use xlink:href="#DejaVuSans-13" transform="translate(63.625 0)"/>
      </g>
     </g>
    </g>
    <g id="text_19">
     <!-- t (s) -->
     <g transform="translate(257.684531 406.475312) scale(0.1 -0.1)">
      <use xlink:href="#DejaVuSans-57"/>
      <use xlink:href="#DejaVuSans-3" transform="translate(39.203125 0)"/>
      <use xlink:href="#DejaVuSans-b" transform="translate(70.984375 0)"/>
      <use xlink:href="#DejaVuSans-56" transform="translate(110 0)"/>
      <use xlink:href="#DejaVuSans-c" transform="translate(162.09375 0)"/>
     </g>
    </g>
   </g>
   <g id="matplotlib.axis_4">
    <g id="ytick_5">
     <g id="line2d_33">
      <path d="M 42.28 356.447061 
L 493.2 356.447061 
" clip-path="url(#p23c3e607c8)" style="fill: none; stroke: #b0b0b0; stroke-width: 0.8; stroke-linecap: square"/>
     </g>
     <g id="line2d_34">
      <g>
       <use xlink:href="#me9eae2de91" x="42.28" y="356.447061" style="stroke: #000000; stroke-width: 0.8"/>
      </g>
     </g>
     <g id="text_20">
      <!-- −1.0 -->
      <g transform="translate(10.997188 360.245889) scale(0.1 -0.1)">
       <defs>
        <path id="DejaVuSans-c9c" d="M 678 2272 
L 4684 2272 
L 4684 1741 
L 678 1741 
L 678 2272 
z
" transform="scale(0.015625)"/>
        <path id="DejaVuSans-11" d="M 684 794 
L 1344 794 
L 1344 0 
L 684 0 
L 684 794 
z
" transform="scale(0.015625)"/>
       </defs>
       <use xlink:href="#DejaVuSans-c9c"/>
       <use xlink:href="#DejaVuSans-14" transform="translate(83.796875 0)"/>
       <use xlink:href="#DejaVuSans-11" transform="translate(147.421875 0)"/>
       <use xlink:href="#DejaVuSans-13" transform="translate(179.203125 0)"/>
      </g>
     </g>
    </g>
    <g id="ytick_6">
     <g id="line2d_35">
      <path d="M 42.28 332.394162 
L 493.2 332.394162 
" clip-path="url(#p23c3e607c8)" style="fill: none; stroke: #b0b0b0; stroke-width: 0.8; stroke-linecap: square"/>
     </g>
     <g id="line2d_36">
      <g>
       <use xlink:href="#me9eae2de91" x="42.28" y="332.394162" style="stroke: #000000; stroke-width: 0.8"/>
      </g>
     </g>
     <g id="text_21">
      <!-- −0.5 -->
      <g transform="translate(10.997188 336.19299) scale(0.1 -0.1)">
       <defs>
        <path id="DejaVuSans-18" d="M 691 4666 
L 3169 4666 
L 3169 4134 
L 1269 4134 
L 1269 2991 
Q 1406 3038 1543 3061 
Q 1681 3084 1819 3084 
Q 2600 3084 3056 2656 
Q 3513 2228 3513 1497 
Q 3513 744 3044 326 
Q 2575 -91 1722 -91 
Q 1428 -91 1123 -41 
Q 819 9 494 109 
L 494 744 
Q 775 591 1075 516 
Q 1375 441 1709 441 
Q 2250 441 2565 725 
Q 2881 1009 2881 1497 
Q 2881 1984 2565 2268 
Q 2250 2553 1709 2553 
Q 1456 2553 1204 2497 
Q 953 2441 691 2322 
L 691 4666 
z
" transform="scale(0.015625)"/>
       </defs>
       <use xlink:href="#DejaVuSans-c9c"/>
       <use xlink:href="#DejaVuSans-13" transform="translate(83.796875 0)"/>
       <use xlink:href="#DejaVuSans-11" transform="translate(147.421875 0)"/>
       <use xlink:href="#DejaVuSans-18" transform="translate(179.203125 0)"/>
      </g>
     </g>
    </g>
    <g id="ytick_7">
     <g id="line2d_37">
      <path d="M 42.28 308.341263 
L 493.2 308.341263 
" clip-path="url(#p23c3e607c8)" style="fill: none; stroke: #b0b0b0; stroke-width: 0.8; stroke-linecap: square"/>
     </g>
     <g id="line2d_38">
      <g>
       <use xlink:href="#me9eae2de91" x="42.28" y="308.341263" style="stroke: #000000; stroke-width: 0.8"/>
      </g>
     </g>
     <g id="text_22">
      <!-- 0.0 -->
      <g transform="translate(19.376875 312.140091) scale(0.1 -0.1)">
       <use xlink:href="#DejaVuSans-13"/>
       <use xlink:href="#DejaVuSans-11" transform="translate(63.625 0)"/>
       <use xlink:href="#DejaVuSans-13" transform="translate(95.40625 0)"/>
      </g>
     </g>
    </g>
    <g id="ytick_8">
     <g id="line2d_39">
      <path d="M 42.28 284.288364 
L 493.2 284.288364 
" clip-path="url(#p23c3e607c8)" style="fill: none; stroke: #b0b0b0; stroke-width: 0.8; stroke-linecap: square"/>
     </g>
     <g id="line2d_40">
      <g>
       <use xlink:href="#me9eae2de91" x="42.28" y="284.288364" style="stroke: #000000; stroke-width: 0.8"/>
      </g>
     </g>
     <g id="text_23">
      <!-- 0.5 -->
      <g transform="translate(19.376875 288.087192) scale(0.1 -0.1)">
       <use xlink:href="#DejaVuSans-13"/>
       <use xlink:href="#DejaVuSans-11" transform="translate(63.625 0)"/>
       <use xlink:href="#DejaVuSans-18" transform="translate(95.40625 0)"/>
      </g>
     </g>
    </g>
    <g id="ytick_9">
     <g id="line2d_41">
      <path d="M 42.28 260.235465 
L 493.2 260.235465 
" clip-path="url(#p23c3e607c8)" style="fill: none; stroke: #b0b0b0; stroke-width: 0.8; stroke-linecap: square"/>
     </g>
     <g id="line2d_42">
      <g>
       <use xlink:href="#me9eae2de91" x="42.28" y="260.235465" style="stroke: #000000; stroke-width: 0.8"/>
      </g>
     </g>
     <g id="text_24">
      <!-- 1.0 -->
      <g transform="translate(19.376875 264.034293) scale(0.1 -0.1)">
       <use xlink:href="#DejaVuSans-14"/>
       <use xlink:href="#DejaVuSans-11" transform="translate(63.625 0)"/>
       <use xlink:href="#DejaVuSans-13" transform="translate(95.40625 0)"/>
      </g>
     </g>
    </g>
   </g>
   <g id="line2d_43">
    <path d="M 62.776364 308.341258 
L 117.44805 308.260672 
L 118.920323 308.514178 
L 119.8104 309.445494 
L 120.684866 311.245257 
L 121.566678 313.801356 
L 122.449277 316.94835 
L 125.982238 331.072795 
L 127.158024 334.184255 
L 128.334205 336.042179 
L 129.217132 336.736061 
L 130.098846 338.088895 
L 130.981584 340.031341 
L 131.863394 342.448927 
L 132.745291 345.269673 
L 134.511174 351.976889 
L 136.569407 360.088213 
L 138.041029 364.891201 
L 138.922691 367.225775 
L 139.804249 369.088851 
L 140.685627 370.45499 
L 141.273592 371.082115 
L 141.862158 371.488971 
L 142.746184 371.708672 
L 143.628656 371.476281 
L 144.216653 371.058511 
L 145.098801 370.025286 
L 145.686775 369.054443 
L 146.570209 367.189303 
L 147.453759 364.857809 
L 149.217167 359.003394 
L 159.802283 319.195277 
L 160.977993 315.703436 
L 162.154421 312.924981 
L 163.33073 310.978233 
L 164.507032 309.765742 
L 165.68399 309.078979 
L 166.859482 308.716702 
L 168.624151 308.47717 
L 171.270533 308.371553 
L 173.917622 308.390656 
L 175.093925 308.467532 
L 176.270135 308.926795 
L 177.152557 310.126496 
L 178.034703 312.270533 
L 178.916734 315.216544 
L 181.563397 326.052367 
L 182.739962 329.631893 
L 183.916558 331.851921 
L 184.7992 332.791875 
L 185.680362 334.376306 
L 186.562542 336.580525 
L 187.445079 339.303074 
L 189.210531 345.98156 
L 190.974104 353.187212 
L 192.444589 358.102381 
L 193.620217 361.038956 
L 194.796544 362.952165 
L 195.679235 363.679141 
L 196.266958 363.831316 
L 196.854953 363.726848 
L 197.443166 363.354932 
L 198.032082 362.703905 
L 198.913688 361.206535 
L 200.089708 358.235626 
L 201.266128 354.233881 
L 202.442 349.42503 
L 207.735693 327.121745 
L 209.794245 319.169268 
L 210.970307 315.52544 
L 212.146558 312.724348 
L 213.323143 310.777979 
L 213.910732 310.106186 
L 215.087344 309.236132 
L 216.263694 308.789454 
L 218.028274 308.540336 
L 223.027698 308.348024 
L 226.262321 308.277397 
L 227.145059 307.966044 
L 228.02689 307.015642 
L 228.908661 305.151998 
L 229.791193 302.465596 
L 231.556031 296.57864 
L 233.615086 291.53207 
L 234.496103 288.802973 
L 235.378964 285.506921 
L 238.907344 270.116811 
L 239.789943 267.051628 
L 240.671784 264.604864 
L 241.554633 262.848172 
L 242.438361 261.816132 
L 243.318761 261.509 
L 243.906462 261.698878 
L 244.494695 262.215201 
L 245.376773 263.60572 
L 245.965527 264.945744 
L 246.847913 267.531206 
L 247.730189 270.73101 
L 251.847421 287.687198 
L 253.611925 294.839925 
L 254.493417 298.334077 
L 255.37572 301.050333 
L 256.257925 302.900759 
L 257.728143 304.936095 
L 259.198382 306.634431 
L 260.080909 307.343726 
L 260.963475 307.726258 
L 263.021292 308.066909 
L 265.374152 308.276557 
L 269.490981 308.333971 
L 274.49031 308.423592 
L 275.666847 309.20815 
L 276.548964 310.805455 
L 277.430839 313.312398 
L 280.960506 326.389667 
L 281.842027 328.37437 
L 282.724703 329.771385 
L 283.60717 331.76352 
L 284.488966 334.397074 
L 285.37151 337.562502 
L 289.194177 353.435055 
L 290.077084 356.20318 
L 290.958061 358.356828 
L 291.840402 359.844175 
L 292.722845 360.646041 
L 293.605368 360.772805 
L 294.193702 360.492237 
L 294.781478 359.9085 
L 295.369678 359.013412 
L 295.957327 357.804999 
L 297.133603 354.476343 
L 298.016049 351.280507 
L 303.315199 329.039546 
L 305.078748 321.668518 
L 305.960874 318.917698 
L 308.019598 313.654251 
L 309.195531 311.360328 
L 309.783796 310.560969 
L 310.666398 309.739496 
L 311.256762 309.389047 
L 312.72483 308.871241 
L 314.78304 308.516667 
L 317.136063 308.38338 
L 323.899517 308.229858 
L 325.369921 307.501677 
L 326.252717 306.081498 
L 327.133983 303.710458 
L 328.016369 300.553329 
L 330.664362 288.891806 
L 331.839857 284.938703 
L 333.015541 282.441583 
L 333.899469 281.426764 
L 334.78024 279.777912 
L 335.66237 277.413527 
L 336.544593 274.480074 
L 338.309154 267.316606 
L 340.074129 259.636635 
L 341.544053 254.339078 
L 342.4265 251.873961 
L 343.308365 250.032637 
L 344.190855 248.849353 
L 345.073169 248.328984 
L 345.954707 248.450112 
L 346.542894 248.875406 
L 347.425583 250.041067 
L 348.307874 251.835074 
L 349.777531 256.137685 
L 351.542442 263.03087 
L 353.016127 269.255316 
L 354.487131 275.117553 
L 357.133978 286.583439 
L 358.898427 292.901584 
L 360.367687 298.503116 
L 361.837757 302.495598 
L 362.42887 303.715762 
L 363.896135 306.063268 
L 364.77835 306.936822 
L 365.368501 307.317834 
L 366.251537 307.683633 
L 367.721269 307.959599 
L 370.660657 308.280653 
L 376.247883 308.455412 
L 377.424974 309.146728 
L 378.307147 310.651939 
L 379.189572 313.098848 
L 380.070555 316.312559 
L 381.247229 321.349913 
L 382.42298 325.780124 
L 383.893411 329.476994 
L 384.775625 330.723706 
L 385.658206 332.582431 
L 386.539814 335.122546 
L 387.422022 338.191586 
L 388.304375 341.671173 
L 392.127545 358.157491 
L 393.009412 361.296941 
L 393.892202 363.913098 
L 395.069447 366.473434 
L 395.951296 367.635866 
L 397.126542 368.161631 
L 398.008757 367.802223 
L 398.890931 366.784464 
L 399.773257 365.106521 
L 400.655339 362.795603 
L 401.537665 359.910548 
L 403.301979 352.817258 
L 405.948605 341.450609 
L 406.830813 338.190032 
L 408.595235 330.367628 
L 409.477303 326.526109 
L 410.359501 323.226778 
L 413.300638 314.396567 
L 414.182669 312.407017 
L 415.067605 311.066199 
L 415.947588 310.237338 
L 417.712525 309.293947 
L 419.475894 308.704739 
L 421.240514 308.460993 
L 424.475246 308.374574 
L 428.298267 308.314303 
L 429.475627 308.003082 
L 430.358081 307.079072 
L 431.24023 305.185958 
L 432.123618 302.429821 
L 434.179731 294.322021 
L 435.35586 290.684809 
L 436.534559 288.423689 
L 437.416305 287.041433 
L 438.297634 285.019979 
L 439.180471 282.372839 
L 440.064266 279.208377 
L 441.827513 271.639813 
L 443.884487 262.513452 
L 444.766228 259.087604 
L 445.648704 256.132495 
L 446.531102 253.743333 
L 447.413397 251.982529 
L 448.295236 250.880764 
L 448.885629 250.515242 
L 449.768224 250.496335 
L 450.64823 251.090876 
L 451.236095 251.841331 
L 451.823862 252.882223 
L 452.414547 254.21287 
L 453.001063 255.826058 
L 453.882722 258.716474 
L 455.647239 265.810811 
L 458.294135 277.065247 
L 459.176166 280.245562 
L 460.94036 287.961527 
L 462.118913 292.913459 
L 463.586958 297.864868 
L 464.766125 301.308612 
L 466.233615 304.704933 
L 466.823023 305.646899 
L 467.411135 306.367286 
L 468.293288 307.098897 
L 469.177294 307.49817 
L 472.703636 308.255411 
L 472.703636 308.255411 
" clip-path="url(#p23c3e607c8)" style="fill: none; stroke: #1f77b4; stroke-width: 1.5; stroke-linecap: square"/>
   </g>
   <g id="line2d_44">
    <path d="M 62.776364 308.341263 
L 472.703636 308.341263 
L 472.703636 308.341263 
" clip-path="url(#p23c3e607c8)" style="fill: none; stroke-dasharray: 9.6,2.4,1.5,2.4; stroke-dashoffset: 0; stroke: #ff7f0e; stroke-width: 1.5"/>
   </g>
   <g id="patch_9">
    <path d="M 42.28 377.877656 
L 42.28 242.16 
" style="fill: none; stroke: #000000; stroke-width: 0.8; stroke-linejoin: miter; stroke-linecap: square"/>
   </g>
   <g id="patch_10">
    <path d="M 493.2 377.877656 
L 493.2 242.16 
" style="fill: none; stroke: #000000; stroke-width: 0.8; stroke-linejoin: miter; stroke-linecap: square"/>
   </g>
   <g id="patch_11">
    <path d="M 42.28 377.877656 
L 493.2 377.877656 
" style="fill: none; stroke: #000000; stroke-width: 0.8; stroke-linejoin: miter; stroke-linecap: square"/>
   </g>
   <g id="patch_12">
    <path d="M 42.28 242.16 
L 493.2 242.16 
" style="fill: none; stroke: #000000; stroke-width: 0.8; stroke-linejoin: miter; stroke-linecap: square"/>
   </g>
   <g id="text_25">
    <!-- $Y$ (m) -->
    <g transform="translate(251.6 236.16) scale(0.12 -0.12)">
     <defs>
      <path id="DejaVuSans-Oblique-3c" d="M 403 4666 
L 1081 4666 
L 1953 2747 
L 3616 4666 
L 4325 4666 
L 2209 2222 
L 1778 0 
L 1147 0 
L 1575 2222 
L 403 4666 
z
" transform="scale(0.015625)"/>
     </defs>
     <use xlink:href="#DejaVuSans-Oblique-3c" transform="translate(0 0.125)"/>
     <use xlink:href="#DejaVuSans-3" transform="translate(61.083984 0.125)"/>
     <use xlink:href="#DejaVuSans-b" transform="translate(92.871094 0.125)"/>
     <use xlink:href="#DejaVuSans-50" transform="translate(131.884766 0.125)"/>
     <use xlink:href="#DejaVuSans-c" transform="translate(229.296875 0.125)"/>
    </g>
   </g>
   <g id="legend_2">
    <g id="patch_13">
     <path d="M 49.28 280.161563 
L 97.38 280.161563 
Q 99.38 280.161563 99.38 278.161563 
L 99.38 249.16 
Q 99.38 247.16 97.38 247.16 
L 49.28 247.16 
Q 47.28 247.16 47.28 249.16 
L 47.28 278.161563 
Q 47.28 280.161563 49.28 280.161563 
z
" style="fill: #ffffff; opacity: 0.8; stroke: #cccccc; stroke-linejoin: miter"/>
    </g>
    <g id="line2d_45">
     <path d="M 51.28 255.258438 
L 61.28 255.258438 
L 71.28 255.258438 
" style="fill: none; stroke: #1f77b4; stroke-width: 1.5; stroke-linecap: square"/>
    </g>
    <g id="text_26">
     <!-- $Y$ -->
     <g transform="translate(79.28 258.758438) scale(0.1 -0.1)">
      <use xlink:href="#DejaVuSans-Oblique-3c" transform="translate(0 0.09375)"/>
     </g>
    </g>
    <g id="line2d_46">
     <path d="M 51.28 270.259219 
L 61.28 270.259219 
L 71.28 270.259219 
" style="fill: none; stroke-dasharray: 9.6,2.4,1.5,2.4; stroke-dashoffset: 0; stroke: #ff7f0e; stroke-width: 1.5"/>
    </g>
    <g id="text_27">
     <!-- $Y_{ref}$ -->
     <g transform="translate(79.28 273.759219) scale(0.1 -0.1)">
      <use xlink:href="#DejaVuSans-Oblique-3c" transform="translate(0 0.09375)"/>
      <use xlink:href="#DejaVuSans-Oblique-55" transform="translate(61.083984 -14.906201) scale(0.7)"/>
      <use xlink:href="#DejaVuSans-Oblique-48" transform="translate(89.863281 -14.906201) scale(0.7)"/>
      <use xlink:href="#DejaVuSans-Oblique-49" transform="translate(132.929688 -14.906201) scale(0.7)"/>
     </g>
    </g>
   </g>
  </g>
  <g id="axes_3">
   <g id="patch_14">
    <path d="M 42.28 571.077656 
L 493.2 571.077656 
L 493.2 435.36 
L 42.28 435.36 
z
" style="fill: #ffffff"/>
   </g>
   <g id="matplotlib.axis_5">
    <g id="xtick_11">
     <g id="line2d_47">
      <path d="M 62.77636 571.077656 
L 62.77636 435.36 
" clip-path="url(#p04a458b803)" style="fill: none; stroke: #b0b0b0; stroke-width: 0.8; stroke-linecap: square"/>
     </g>
     <g id="line2d_48">
      <g>
       <use xlink:href="#mfa152f5167" x="62.77636" y="571.077656" style="stroke: #000000; stroke-width: 0.8"/>
      </g>
     </g>
     <g id="text_28">
      <!-- 0 -->
      <g transform="translate(59.59511 585.675313) scale(0.1 -0.1)">
       <use xlink:href="#DejaVuSans-13"/>
      </g>
     </g>
    </g>
    <g id="xtick_12">
     <g id="line2d_49">
      <path d="M 150.99763 571.077656 
L 150.99763 435.36 
" clip-path="url(#p04a458b803)" style="fill: none; stroke: #b0b0b0; stroke-width: 0.8; stroke-linecap: square"/>
     </g>
     <g id="line2d_50">
      <g>
       <use xlink:href="#mfa152f5167" x="150.99763" y="571.077656" style="stroke: #000000; stroke-width: 0.8"/>
      </g>
     </g>
     <g id="text_29">
      <!-- 10 -->
      <g transform="translate(144.63513 585.675313) scale(0.1 -0.1)">
       <use xlink:href="#DejaVuSans-14"/>
       <use xlink:href="#DejaVuSans-13" transform="translate(63.625 0)"/>
      </g>
     </g>
    </g>
    <g id="xtick_13">
     <g id="line2d_51">
      <path d="M 239.218899 571.077656 
L 239.218899 435.36 
" clip-path="url(#p04a458b803)" style="fill: none; stroke: #b0b0b0; stroke-width: 0.8; stroke-linecap: square"/>
     </g>
     <g id="line2d_52">
      <g>
       <use xlink:href="#mfa152f5167" x="239.218899" y="571.077656" style="stroke: #000000; stroke-width: 0.8"/>
      </g>
     </g>
     <g id="text_30">
      <!-- 20 -->
      <g transform="translate(232.856399 585.675313) scale(0.1 -0.1)">
       <use xlink:href="#DejaVuSans-15"/>
       <use xlink:href="#DejaVuSans-13" transform="translate(63.625 0)"/>
      </g>
     </g>
    </g>
    <g id="xtick_14">
     <g id="line2d_53">
      <path d="M 327.440169 571.077656 
L 327.440169 435.36 
" clip-path="url(#p04a458b803)" style="fill: none; stroke: #b0b0b0; stroke-width: 0.8; stroke-linecap: square"/>
     </g>
     <g id="line2d_54">
      <g>
       <use xlink:href="#mfa152f5167" x="327.440169" y="571.077656" style="stroke: #000000; stroke-width: 0.8"/>
      </g>
     </g>
     <g id="text_31">
      <!-- 30 -->
      <g transform="translate(321.077669 585.675313) scale(0.1 -0.1)">
       <use xlink:href="#DejaVuSans-16"/>
       <use xlink:href="#DejaVuSans-13" transform="translate(63.625 0)"/>
      </g>
     </g>
    </g>
    <g id="xtick_15">
     <g id="line2d_55">
      <path d="M 415.661439 571.077656 
L 415.661439 435.36 
" clip-path="url(#p04a458b803)" style="fill: none; stroke: #b0b0b0; stroke-width: 0.8; stroke-linecap: square"/>
     </g>
     <g id="line2d_56">
      <g>
       <use xlink:href="#mfa152f5167" x="415.661439" y="571.077656" style="stroke: #000000; stroke-width: 0.8"/>
      </g>
     </g>
     <g id="text_32">
      <!-- 40 -->
      <g transform="translate(409.298939 585.675313) scale(0.1 -0.1)">
       <use xlink:href="#DejaVuSans-17"/>
       <use xlink:href="#DejaVuSans-13" transform="translate(63.625 0)"/>
      </g>
     </g>
    </g>
    <g id="text_33">
     <!-- t (s) -->
     <g transform="translate(257.684531 599.675313) scale(0.1 -0.1)">
      <use xlink:href="#DejaVuSans-57"/>
      <use xlink:href="#DejaVuSans-3" transform="translate(39.203125 0)"/>
      <use xlink:href="#DejaVuSans-b" transform="translate(70.984375 0)"/>
      <use xlink:href="#DejaVuSans-56" transform="translate(110 0)"/>
      <use xlink:href="#DejaVuSans-c" transform="translate(162.09375 0)"/>
     </g>
    </g>
   </g>
   <g id="matplotlib.axis_6">
    <g id="ytick_10">
     <g id="line2d_57">
      <path d="M 42.28 542.92551 
L 493.2 542.92551 
" clip-path="url(#p04a458b803)" style="fill: none; stroke: #b0b0b0; stroke-width: 0.8; stroke-linecap: square"/>
     </g>
     <g id="line2d_58">
      <g>
       <use xlink:href="#me9eae2de91" x="42.28" y="542.92551" style="stroke: #000000; stroke-width: 0.8"/>
      </g>
     </g>
     <g id="text_34">
      <!-- −1 -->
      <g transform="translate(20.537813 546.724338) scale(0.1 -0.1)">
       <use xlink:href="#DejaVuSans-c9c"/>
       <use xlink:href="#DejaVuSans-14" transform="translate(83.796875 0)"/>
      </g>
     </g>
    </g>
    <g id="ytick_11">
     <g id="line2d_59">
      <path d="M 42.28 502.977421 
L 493.2 502.977421 
" clip-path="url(#p04a458b803)" style="fill: none; stroke: #b0b0b0; stroke-width: 0.8; stroke-linecap: square"/>
     </g>
     <g id="line2d_60">
      <g>
       <use xlink:href="#me9eae2de91" x="42.28" y="502.977421" style="stroke: #000000; stroke-width: 0.8"/>
      </g>
     </g>
     <g id="text_35">
      <!-- 0 -->
      <g transform="translate(28.9175 506.776249) scale(0.1 -0.1)">
       <use xlink:href="#DejaVuSans-13"/>
      </g>
     </g>
    </g>
    <g id="ytick_12">
     <g id="line2d_61">
      <path d="M 42.28 463.029332 
L 493.2 463.029332 
" clip-path="url(#p04a458b803)" style="fill: none; stroke: #b0b0b0; stroke-width: 0.8; stroke-linecap: square"/>
     </g>
     <g id="line2d_62">
      <g>
       <use xlink:href="#me9eae2de91" x="42.28" y="463.029332" style="stroke: #000000; stroke-width: 0.8"/>
      </g>
     </g>
     <g id="text_36">
      <!-- 1 -->
      <g transform="translate(28.9175 466.82816) scale(0.1 -0.1)">
       <use xlink:href="#DejaVuSans-14"/>
      </g>
     </g>
    </g>
   </g>
   <g id="line2d_63">
    <path d="M 62.776364 502.977421 
L 115.095487 502.88048 
L 116.272583 502.701386 
L 117.44805 502.90895 
L 118.920323 506.74254 
L 119.8104 514.641318 
L 123.33231 550.292503 
L 124.223629 553.298074 
L 128.334205 514.056852 
L 129.217132 513.035313 
L 131.863394 536.292705 
L 134.511174 559.265313 
L 135.398746 561.957171 
L 138.041029 539.665155 
L 141.273592 514.499481 
L 146.570209 475.445318 
L 149.217167 453.885355 
L 150.102455 450.183062 
L 150.982323 455.296399 
L 151.862373 461.741728 
L 152.74531 461.59142 
L 153.626974 453.46353 
L 154.509593 450.77173 
L 155.685527 462.16671 
L 156.273091 465.684523 
L 156.862335 465.278254 
L 157.449481 464.605505 
L 158.037406 466.830252 
L 158.625347 470.39168 
L 159.21365 473.237332 
L 160.389895 477.908431 
L 162.154421 487.042739 
L 163.33073 492.612901 
L 164.507032 496.819005 
L 165.095136 498.383958 
L 165.68399 499.613063 
L 166.273256 500.547153 
L 166.859482 501.237697 
L 168.037144 502.094165 
L 169.212764 502.528016 
L 170.391174 502.748431 
L 173.917622 503.205435 
L 175.093925 503.972961 
L 176.270135 508.402803 
L 177.152557 516.813055 
L 179.799123 545.176127 
L 180.682199 548.233178 
L 183.916558 515.846837 
L 184.7992 514.083304 
L 188.327438 546.710731 
L 189.210531 554.86828 
L 190.091786 557.674577 
L 192.444589 536.635678 
L 196.266958 504.597986 
L 198.913688 482.582974 
L 201.266128 461.387279 
L 201.854578 455.826844 
L 202.442 452.3012 
L 203.324825 453.773524 
L 203.912623 459.64763 
L 204.500719 461.04735 
L 205.089056 457.672119 
L 205.971371 455.967362 
L 207.147393 466.028305 
L 207.735693 467.818667 
L 208.61766 468.02306 
L 209.206117 470.055243 
L 210.970307 481.188087 
L 213.323143 492.68769 
L 214.499468 497.136893 
L 215.087344 498.750424 
L 215.675468 499.970975 
L 216.263694 500.85887 
L 217.145813 501.856941 
L 218.028274 502.483844 
L 218.616106 502.59187 
L 220.381099 502.583423 
L 224.206028 502.998273 
L 225.379961 502.80171 
L 226.262321 501.984841 
L 227.145059 498.785383 
L 228.02689 491.910995 
L 229.791193 474.501277 
L 230.674094 471.73437 
L 231.556031 475.981007 
L 232.732131 482.645363 
L 233.615086 479.308082 
L 236.261017 452.80122 
L 237.437196 446.730765 
L 240.671784 478.106347 
L 248.613039 552.293096 
L 249.494394 555.197556 
L 250.964659 539.89058 
L 251.847421 535.014264 
L 252.728849 540.021907 
L 253.611925 542.796531 
L 254.493417 535.90493 
L 255.37572 526.302426 
L 256.257925 518.050653 
L 257.139784 513.617453 
L 258.316042 512.31607 
L 259.198382 510.620702 
L 260.963475 505.347113 
L 261.550615 504.386082 
L 262.140859 504.109583 
L 263.60935 503.864054 
L 265.962003 503.203837 
L 267.726458 503.04874 
L 271.255291 503.009283 
L 272.433462 503.109672 
L 273.608302 503.095775 
L 274.49031 504.236306 
L 275.666847 511.453625 
L 277.430839 530.299372 
L 278.607578 540.899149 
L 279.783763 541.07904 
L 281.842027 520.281649 
L 282.724703 518.097716 
L 286.253142 552.401398 
L 287.429709 558.275479 
L 290.958061 525.122223 
L 298.016049 461.639175 
L 298.89893 453.010932 
L 299.780663 450.152365 
L 300.662535 459.094283 
L 301.563425 465.282997 
L 302.431897 462.788761 
L 303.315199 457.451263 
L 304.197515 461.21836 
L 305.078748 470.944693 
L 305.960874 479.168329 
L 306.843874 482.634365 
L 307.431258 483.167178 
L 308.019598 484.777691 
L 310.666398 497.258347 
L 311.256762 498.900345 
L 312.136325 500.473766 
L 312.72483 501.061114 
L 314.195515 501.870686 
L 315.371224 502.372753 
L 316.54745 502.684109 
L 318.311951 502.879353 
L 320.370285 502.939377 
L 322.722868 502.757644 
L 323.899517 501.834769 
L 325.369921 496.049434 
L 327.133983 477.406897 
L 328.89847 458.283474 
L 329.781302 455.017964 
L 333.015541 489.003929 
L 333.899469 492.060234 
L 338.309154 449.090541 
L 339.191632 446.138625 
L 342.4265 476.360622 
L 345.954707 506.866386 
L 349.190086 534.73424 
L 351.542442 556.465826 
L 352.130476 556.413494 
L 353.016127 547.790099 
L 353.899502 543.75562 
L 354.487131 548.524271 
L 355.369941 553.458802 
L 356.252798 548.203081 
L 357.133978 538.82483 
L 358.017004 533.453199 
L 358.898427 537.350265 
L 359.485383 537.803287 
L 360.367687 531.968124 
L 361.249833 524.125518 
L 361.837757 520.449723 
L 363.896135 512.599655 
L 364.77835 509.165613 
L 365.368501 507.376198 
L 366.251537 505.454206 
L 367.130874 504.26116 
L 367.721269 504.013515 
L 369.484458 503.817627 
L 371.542534 503.124757 
L 372.718224 502.90129 
L 373.895887 502.94976 
L 375.071042 503.314722 
L 376.247883 504.627914 
L 377.424974 510.432629 
L 380.070555 538.968576 
L 381.247229 545.711001 
L 382.42298 534.505001 
L 383.893411 519.311181 
L 384.775625 516.262005 
L 388.304375 550.551656 
L 389.480958 561.964057 
L 390.363558 564.908672 
L 393.892202 531.978574 
L 398.008757 496.296744 
L 401.537665 464.830854 
L 403.301979 448.156658 
L 404.18472 445.368923 
L 405.948605 462.984454 
L 406.830813 465.929042 
L 407.71296 456.729121 
L 408.595235 453.679981 
L 410.359501 472.474523 
L 411.242279 478.3957 
L 412.124295 478.15116 
L 412.714381 478.681648 
L 413.300638 481.838104 
L 415.067605 493.334616 
L 415.947588 497.083912 
L 416.830104 499.004202 
L 417.712525 499.786795 
L 418.89017 500.635582 
L 420.063857 501.685166 
L 421.240514 502.381988 
L 422.711187 502.779603 
L 424.475246 502.921567 
L 427.415994 502.868778 
L 428.298267 502.609403 
L 429.475627 499.09876 
L 430.358081 491.946228 
L 432.123618 472.666467 
L 433.300664 463.432218 
L 434.179731 466.925086 
L 435.35586 479.063644 
L 436.534559 488.76794 
L 437.416305 487.312686 
L 441.827513 444.524383 
L 442.709493 441.528984 
L 445.648704 469.339254 
L 448.885629 497.843995 
L 452.414547 527.827756 
L 455.647239 557.465689 
L 456.530339 559.378325 
L 458.294135 541.771823 
L 459.176166 538.828742 
L 460.058366 548.024151 
L 460.94036 551.071982 
L 462.704669 533.077072 
L 463.586958 528.334164 
L 464.766125 524.683714 
L 465.646121 520.619462 
L 466.823023 514.138258 
L 467.411135 511.420535 
L 468.293288 508.044247 
L 469.177294 505.67028 
L 470.059267 504.589825 
L 470.939567 504.445505 
L 472.703636 504.662177 
L 472.703636 504.662177 
" clip-path="url(#p04a458b803)" style="fill: none; stroke: #1f77b4; stroke-width: 1.5; stroke-linecap: square"/>
   </g>
   <g id="line2d_64">
    <path d="M 62.776364 502.977421 
L 472.703636 502.977421 
L 472.703636 502.977421 
" clip-path="url(#p04a458b803)" style="fill: none; stroke-dasharray: 9.6,2.4,1.5,2.4; stroke-dashoffset: 0; stroke: #ff7f0e; stroke-width: 1.5"/>
   </g>
   <g id="patch_15">
    <path d="M 42.28 571.077656 
L 42.28 435.36 
" style="fill: none; stroke: #000000; stroke-width: 0.8; stroke-linejoin: miter; stroke-linecap: square"/>
   </g>
   <g id="patch_16">
    <path d="M 493.2 571.077656 
L 493.2 435.36 
" style="fill: none; stroke: #000000; stroke-width: 0.8; stroke-linejoin: miter; stroke-linecap: square"/>
   </g>
   <g id="patch_17">
    <path d="M 42.28 571.077656 
L 493.2 571.077656 
" style="fill: none; stroke: #000000; stroke-width: 0.8; stroke-linejoin: miter; stroke-linecap: square"/>
   </g>
   <g id="patch_18">
    <path d="M 42.28 435.36 
L 493.2 435.36 
" style="fill: none; stroke: #000000; stroke-width: 0.8; stroke-linejoin: miter; stroke-linecap: square"/>
   </g>
   <g id="text_37">
    <!-- $\Psi$ (rad) -->
    <g transform="translate(246.44 429.36) scale(0.12 -0.12)">
     <defs>
      <path id="DejaVuSans-33c" d="M 2206 0 
Q 2209 419 2206 969 
Q 1538 969 950 1625 
Q 375 2263 359 3388 
L 359 4666 
L 1025 4666 
L 1025 3388 
Q 1025 2506 1431 1994 
Q 1775 1556 2206 1513 
L 2206 4666 
L 2838 4666 
L 2838 1513 
Q 3269 1556 3613 1994 
Q 4019 2506 4019 3388 
L 4019 4666 
L 4684 4666 
L 4684 3388 
Q 4669 2263 4094 1625 
Q 3506 969 2838 969 
Q 2834 744 2838 0 
L 2206 0 
z
" transform="scale(0.015625)"/>
      <path id="DejaVuSans-55" d="M 2631 2963 
Q 2534 3019 2420 3045 
Q 2306 3072 2169 3072 
Q 1681 3072 1420 2755 
Q 1159 2438 1159 1844 
L 1159 0 
L 581 0 
L 581 3500 
L 1159 3500 
L 1159 2956 
Q 1341 3275 1631 3429 
Q 1922 3584 2338 3584 
Q 2397 3584 2469 3576 
Q 2541 3569 2628 3553 
L 2631 2963 
z
" transform="scale(0.015625)"/>
      <path id="DejaVuSans-44" d="M 2194 1759 
Q 1497 1759 1228 1600 
Q 959 1441 959 1056 
Q 959 750 1161 570 
Q 1363 391 1709 391 
Q 2188 391 2477 730 
Q 2766 1069 2766 1631 
L 2766 1759 
L 2194 1759 
z
M 3341 1997 
L 3341 0 
L 2766 0 
L 2766 531 
Q 2569 213 2275 61 
Q 1981 -91 1556 -91 
Q 1019 -91 701 211 
Q 384 513 384 1019 
Q 384 1609 779 1909 
Q 1175 2209 1959 2209 
L 2766 2209 
L 2766 2266 
Q 2766 2663 2505 2880 
Q 2244 3097 1772 3097 
Q 1472 3097 1187 3025 
Q 903 2953 641 2809 
L 641 3341 
Q 956 3463 1253 3523 
Q 1550 3584 1831 3584 
Q 2591 3584 2966 3190 
Q 3341 2797 3341 1997 
z
" transform="scale(0.015625)"/>
      <path id="DejaVuSans-47" d="M 2906 2969 
L 2906 4863 
L 3481 4863 
L 3481 0 
L 2906 0 
L 2906 525 
Q 2725 213 2448 61 
Q 2172 -91 1784 -91 
Q 1150 -91 751 415 
Q 353 922 353 1747 
Q 353 2572 751 3078 
Q 1150 3584 1784 3584 
Q 2172 3584 2448 3432 
Q 2725 3281 2906 2969 
z
M 947 1747 
Q 947 1113 1208 752 
Q 1469 391 1925 391 
Q 2381 391 2643 752 
Q 2906 1113 2906 1747 
Q 2906 2381 2643 2742 
Q 2381 3103 1925 3103 
Q 1469 3103 1208 2742 
Q 947 2381 947 1747 
z
" transform="scale(0.015625)"/>
     </defs>
     <use xlink:href="#DejaVuSans-33c" transform="translate(0 0.015625)"/>
     <use xlink:href="#DejaVuSans-3" transform="translate(78.710938 0.015625)"/>
     <use xlink:href="#DejaVuSans-b" transform="translate(110.498047 0.015625)"/>
     <use xlink:href="#DejaVuSans-55" transform="translate(149.511719 0.015625)"/>
     <use xlink:href="#DejaVuSans-44" transform="translate(190.625 0.015625)"/>
     <use xlink:href="#DejaVuSans-47" transform="translate(251.904297 0.015625)"/>
     <use xlink:href="#DejaVuSans-c" transform="translate(315.380859 0.015625)"/>
    </g>
   </g>
   <g id="legend_3">
    <g id="patch_19">
     <path d="M 49.28 473.361563 
L 99.18 473.361563 
Q 101.18 473.361563 101.18 471.361563 
L 101.18 442.36 
Q 101.18 440.36 99.18 440.36 
L 49.28 440.36 
Q 47.28 440.36 47.28 442.36 
L 47.28 471.361563 
Q 47.28 473.361563 49.28 473.361563 
z
" style="fill: #ffffff; opacity: 0.8; stroke: #cccccc; stroke-linejoin: miter"/>
    </g>
    <g id="line2d_65">
     <path d="M 51.28 448.458438 
L 61.28 448.458438 
L 71.28 448.458438 
" style="fill: none; stroke: #1f77b4; stroke-width: 1.5; stroke-linecap: square"/>
    </g>
    <g id="text_38">
     <!-- $\Psi$ -->
     <g transform="translate(79.28 451.958438) scale(0.1 -0.1)">
      <use xlink:href="#DejaVuSans-33c" transform="translate(0 0.09375)"/>
     </g>
    </g>
    <g id="line2d_66">
     <path d="M 51.28 463.459219 
L 61.28 463.459219 
L 71.28 463.459219 
" style="fill: none; stroke-dasharray: 9.6,2.4,1.5,2.4; stroke-dashoffset: 0; stroke: #ff7f0e; stroke-width: 1.5"/>
    </g>
    <g id="text_39">
     <!-- $\Psi_{ref}$ -->
     <g transform="translate(79.28 466.959219) scale(0.1 -0.1)">
      <use xlink:href="#DejaVuSans-33c" transform="translate(0 0.09375)"/>
      <use xlink:href="#DejaVuSans-Oblique-55" transform="translate(79.667969 -14.906201) scale(0.7)"/>
      <use xlink:href="#DejaVuSans-Oblique-48" transform="translate(108.447266 -14.906201) scale(0.7)"/>
      <use xlink:href="#DejaVuSans-Oblique-49" transform="translate(151.513672 -14.906201) scale(0.7)"/>
     </g>
    </g>
   </g>
  </g>
  <g id="axes_4">
   <g id="patch_20">
    <path d="M 42.28 764.277656 
L 493.2 764.277656 
L 493.2 628.56 
L 42.28 628.56 
z
" style="fill: #ffffff"/>
   </g>
   <g id="matplotlib.axis_7">
    <g id="xtick_16">
     <g id="line2d_67">
      <path d="M 62.77636 764.277656 
L 62.77636 628.56 
" clip-path="url(#pc994bde778)" style="fill: none; stroke: #b0b0b0; stroke-width: 0.8; stroke-linecap: square"/>
     </g>
     <g id="line2d_68">
      <g>
       <use xlink:href="#mfa152f5167" x="62.77636" y="764.277656" style="stroke: #000000; stroke-width: 0.8"/>
      </g>
     </g>
     <g id="text_40">
      <!-- 0 -->
      <g transform="translate(59.59511 778.875313) scale(0.1 -0.1)">
       <use xlink:href="#DejaVuSans-13"/>
      </g>
     </g>
    </g>
    <g id="xtick_17">
     <g id="line2d_69">
      <path d="M 150.99763 764.277656 
L 150.99763 628.56 
" clip-path="url(#pc994bde778)" style="fill: none; stroke: #b0b0b0; stroke-width: 0.8; stroke-linecap: square"/>
     </g>
     <g id="line2d_70">
      <g>
       <use xlink:href="#mfa152f5167" x="150.99763" y="764.277656" style="stroke: #000000; stroke-width: 0.8"/>
      </g>
     </g>
     <g id="text_41">
      <!-- 10 -->
      <g transform="translate(144.63513 778.875313) scale(0.1 -0.1)">
       <use xlink:href="#DejaVuSans-14"/>
       <use xlink:href="#DejaVuSans-13" transform="translate(63.625 0)"/>
      </g>
     </g>
    </g>
    <g id="xtick_18">
     <g id="line2d_71">
      <path d="M 239.218899 764.277656 
L 239.218899 628.56 
" clip-path="url(#pc994bde778)" style="fill: none; stroke: #b0b0b0; stroke-width: 0.8; stroke-linecap: square"/>
     </g>
     <g id="line2d_72">
      <g>
       <use xlink:href="#mfa152f5167" x="239.218899" y="764.277656" style="stroke: #000000; stroke-width: 0.8"/>
      </g>
     </g>
     <g id="text_42">
      <!-- 20 -->
      <g transform="translate(232.856399 778.875313) scale(0.1 -0.1)">
       <use xlink:href="#DejaVuSans-15"/>
       <use xlink:href="#DejaVuSans-13" transform="translate(63.625 0)"/>
      </g>
     </g>
    </g>
    <g id="xtick_19">
     <g id="line2d_73">
      <path d="M 327.440169 764.277656 
L 327.440169 628.56 
" clip-path="url(#pc994bde778)" style="fill: none; stroke: #b0b0b0; stroke-width: 0.8; stroke-linecap: square"/>
     </g>
     <g id="line2d_74">
      <g>
       <use xlink:href="#mfa152f5167" x="327.440169" y="764.277656" style="stroke: #000000; stroke-width: 0.8"/>
      </g>
     </g>
     <g id="text_43">
      <!-- 30 -->
      <g transform="translate(321.077669 778.875313) scale(0.1 -0.1)">
       <use xlink:href="#DejaVuSans-16"/>
       <use xlink:href="#DejaVuSans-13" transform="translate(63.625 0)"/>
      </g>
     </g>
    </g>
    <g id="xtick_20">
     <g id="line2d_75">
      <path d="M 415.661439 764.277656 
L 415.661439 628.56 
" clip-path="url(#pc994bde778)" style="fill: none; stroke: #b0b0b0; stroke-width: 0.8; stroke-linecap: square"/>
     </g>
     <g id="line2d_76">
      <g>
       <use xlink:href="#mfa152f5167" x="415.661439" y="764.277656" style="stroke: #000000; stroke-width: 0.8"/>
      </g>
     </g>
     <g id="text_44">
      <!-- 40 -->
      <g transform="translate(409.298939 778.875313) scale(0.1 -0.1)">
       <use xlink:href="#DejaVuSans-17"/>
       <use xlink:href="#DejaVuSans-13" transform="translate(63.625 0)"/>
      </g>
     </g>
    </g>
    <g id="text_45">
     <!-- t (s) -->
     <g transform="translate(257.684531 792.875313) scale(0.1 -0.1)">
      <use xlink:href="#DejaVuSans-57"/>
      <use xlink:href="#DejaVuSans-3" transform="translate(39.203125 0)"/>
      <use xlink:href="#DejaVuSans-b" transform="translate(70.984375 0)"/>
      <use xlink:href="#DejaVuSans-56" transform="translate(110 0)"/>
      <use xlink:href="#DejaVuSans-c" transform="translate(162.09375 0)"/>
     </g>
    </g>
   </g>
   <g id="matplotlib.axis_8">
    <g id="ytick_13">
     <g id="line2d_77">
      <path d="M 42.28 758.108672 
L 493.2 758.108672 
" clip-path="url(#pc994bde778)" style="fill: none; stroke: #b0b0b0; stroke-width: 0.8; stroke-linecap: square"/>
     </g>
     <g id="line2d_78">
      <g>
       <use xlink:href="#me9eae2de91" x="42.28" y="758.108672" style="stroke: #000000; stroke-width: 0.8"/>
      </g>
     </g>
     <g id="text_46">
      <!-- 0.0 -->
      <g transform="translate(19.376875 761.9075) scale(0.1 -0.1)">
       <use xlink:href="#DejaVuSans-13"/>
       <use xlink:href="#DejaVuSans-11" transform="translate(63.625 0)"/>
       <use xlink:href="#DejaVuSans-13" transform="translate(95.40625 0)"/>
      </g>
     </g>
    </g>
    <g id="ytick_14">
     <g id="line2d_79">
      <path d="M 42.28 733.432734 
L 493.2 733.432734 
" clip-path="url(#pc994bde778)" style="fill: none; stroke: #b0b0b0; stroke-width: 0.8; stroke-linecap: square"/>
     </g>
     <g id="line2d_80">
      <g>
       <use xlink:href="#me9eae2de91" x="42.28" y="733.432734" style="stroke: #000000; stroke-width: 0.8"/>
      </g>
     </g>
     <g id="text_47">
      <!-- 0.2 -->
      <g transform="translate(19.376875 737.231562) scale(0.1 -0.1)">
       <use xlink:href="#DejaVuSans-13"/>
       <use xlink:href="#DejaVuSans-11" transform="translate(63.625 0)"/>
       <use xlink:href="#DejaVuSans-15" transform="translate(95.40625 0)"/>
      </g>
     </g>
    </g>
    <g id="ytick_15">
     <g id="line2d_81">
      <path d="M 42.28 708.756797 
L 493.2 708.756797 
" clip-path="url(#pc994bde778)" style="fill: none; stroke: #b0b0b0; stroke-width: 0.8; stroke-linecap: square"/>
     </g>
     <g id="line2d_82">
      <g>
       <use xlink:href="#me9eae2de91" x="42.28" y="708.756797" style="stroke: #000000; stroke-width: 0.8"/>
      </g>
     </g>
     <g id="text_48">
      <!-- 0.4 -->
      <g transform="translate(19.376875 712.555625) scale(0.1 -0.1)">
       <use xlink:href="#DejaVuSans-13"/>
       <use xlink:href="#DejaVuSans-11" transform="translate(63.625 0)"/>
       <use xlink:href="#DejaVuSans-17" transform="translate(95.40625 0)"/>
      </g>
     </g>
    </g>
    <g id="ytick_16">
     <g id="line2d_83">
      <path d="M 42.28 684.080859 
L 493.2 684.080859 
" clip-path="url(#pc994bde778)" style="fill: none; stroke: #b0b0b0; stroke-width: 0.8; stroke-linecap: square"/>
     </g>
     <g id="line2d_84">
      <g>
       <use xlink:href="#me9eae2de91" x="42.28" y="684.080859" style="stroke: #000000; stroke-width: 0.8"/>
      </g>
     </g>
     <g id="text_49">
      <!-- 0.6 -->
      <g transform="translate(19.376875 687.879688) scale(0.1 -0.1)">
       <defs>
        <path id="DejaVuSans-19" d="M 2113 2584 
Q 1688 2584 1439 2293 
Q 1191 2003 1191 1497 
Q 1191 994 1439 701 
Q 1688 409 2113 409 
Q 2538 409 2786 701 
Q 3034 994 3034 1497 
Q 3034 2003 2786 2293 
Q 2538 2584 2113 2584 
z
M 3366 4563 
L 3366 3988 
Q 3128 4100 2886 4159 
Q 2644 4219 2406 4219 
Q 1781 4219 1451 3797 
Q 1122 3375 1075 2522 
Q 1259 2794 1537 2939 
Q 1816 3084 2150 3084 
Q 2853 3084 3261 2657 
Q 3669 2231 3669 1497 
Q 3669 778 3244 343 
Q 2819 -91 2113 -91 
Q 1303 -91 875 529 
Q 447 1150 447 2328 
Q 447 3434 972 4092 
Q 1497 4750 2381 4750 
Q 2619 4750 2861 4703 
Q 3103 4656 3366 4563 
z
" transform="scale(0.015625)"/>
       </defs>
       <use xlink:href="#DejaVuSans-13"/>
       <use xlink:href="#DejaVuSans-11" transform="translate(63.625 0)"/>
       <use xlink:href="#DejaVuSans-19" transform="translate(95.40625 0)"/>
      </g>
     </g>
    </g>
    <g id="ytick_17">
     <g id="line2d_85">
      <path d="M 42.28 659.404922 
L 493.2 659.404922 
" clip-path="url(#pc994bde778)" style="fill: none; stroke: #b0b0b0; stroke-width: 0.8; stroke-linecap: square"/>
     </g>
     <g id="line2d_86">
      <g>
       <use xlink:href="#me9eae2de91" x="42.28" y="659.404922" style="stroke: #000000; stroke-width: 0.8"/>
      </g>
     </g>
     <g id="text_50">
      <!-- 0.8 -->
      <g transform="translate(19.376875 663.20375) scale(0.1 -0.1)">
       <defs>
        <path id="DejaVuSans-1b" d="M 2034 2216 
Q 1584 2216 1326 1975 
Q 1069 1734 1069 1313 
Q 1069 891 1326 650 
Q 1584 409 2034 409 
Q 2484 409 2743 651 
Q 3003 894 3003 1313 
Q 3003 1734 2745 1975 
Q 2488 2216 2034 2216 
z
M 1403 2484 
Q 997 2584 770 2862 
Q 544 3141 544 3541 
Q 544 4100 942 4425 
Q 1341 4750 2034 4750 
Q 2731 4750 3128 4425 
Q 3525 4100 3525 3541 
Q 3525 3141 3298 2862 
Q 3072 2584 2669 2484 
Q 3125 2378 3379 2068 
Q 3634 1759 3634 1313 
Q 3634 634 3220 271 
Q 2806 -91 2034 -91 
Q 1263 -91 848 271 
Q 434 634 434 1313 
Q 434 1759 690 2068 
Q 947 2378 1403 2484 
z
M 1172 3481 
Q 1172 3119 1398 2916 
Q 1625 2713 2034 2713 
Q 2441 2713 2670 2916 
Q 2900 3119 2900 3481 
Q 2900 3844 2670 4047 
Q 2441 4250 2034 4250 
Q 1625 4250 1398 4047 
Q 1172 3844 1172 3481 
z
" transform="scale(0.015625)"/>
       </defs>
       <use xlink:href="#DejaVuSans-13"/>
       <use xlink:href="#DejaVuSans-11" transform="translate(63.625 0)"/>
       <use xlink:href="#DejaVuSans-1b" transform="translate(95.40625 0)"/>
      </g>
     </g>
    </g>
    <g id="ytick_18">
     <g id="line2d_87">
      <path d="M 42.28 634.728984 
L 493.2 634.728984 
" clip-path="url(#pc994bde778)" style="fill: none; stroke: #b0b0b0; stroke-width: 0.8; stroke-linecap: square"/>
     </g>
     <g id="line2d_88">
      <g>
       <use xlink:href="#me9eae2de91" x="42.28" y="634.728984" style="stroke: #000000; stroke-width: 0.8"/>
      </g>
     </g>
     <g id="text_51">
      <!-- 1.0 -->
      <g transform="translate(19.376875 638.527812) scale(0.1 -0.1)">
       <use xlink:href="#DejaVuSans-14"/>
       <use xlink:href="#DejaVuSans-11" transform="translate(63.625 0)"/>
       <use xlink:href="#DejaVuSans-13" transform="translate(95.40625 0)"/>
      </g>
     </g>
    </g>
   </g>
   <g id="line2d_89">
    <path d="M 62.776364 758.108672 
L 63.629195 757.954518 
L 64.511601 757.376163 
L 65.394239 756.479075 
L 67.15808 754.0312 
L 68.922675 751.032719 
L 71.571958 746.009286 
L 75.983261 737.042128 
L 83.925603 720.47481 
L 112.154308 661.247304 
L 113.918676 657.584915 
L 117.44805 652.168429 
L 118.920323 650.82295 
L 119.8104 650.39389 
L 120.684866 650.538447 
L 121.566678 651.10301 
L 122.449277 652.132533 
L 125.118125 654.022971 
L 128.334205 657.844789 
L 129.217132 661.338524 
L 130.981584 663.753403 
L 132.745291 666.329852 
L 133.627862 666.776253 
L 134.511174 666.66942 
L 135.398746 666.43576 
L 135.982206 666.554915 
L 136.569407 667.276701 
L 137.15905 668.350906 
L 138.922691 670.81124 
L 140.685627 673.771285 
L 141.862158 677.408383 
L 143.628656 680.318739 
L 144.216653 680.857285 
L 145.098801 680.848932 
L 147.453759 678.50278 
L 148.337175 677.342963 
L 150.102455 674.351259 
L 150.982323 672.8244 
L 154.509593 665.792629 
L 162.743118 639.933832 
L 163.33073 638.635043 
L 164.507032 636.934782 
L 165.095136 636.362906 
L 166.273256 635.688852 
L 167.447668 635.246963 
L 169.212764 634.92947 
L 172.153012 634.813021 
L 173.035472 634.94215 
L 173.917622 635.501767 
L 175.093925 636.753717 
L 176.270135 637.408588 
L 178.916734 642.105826 
L 181.563397 647.177183 
L 183.916558 650.915495 
L 184.7992 656.235701 
L 186.562542 658.530702 
L 188.327438 660.82582 
L 189.210531 661.197878 
L 190.091786 661.211469 
L 190.974104 661.768338 
L 191.561735 662.699235 
L 194.796544 666.575389 
L 195.679235 668.093256 
L 196.266958 669.716339 
L 196.854953 670.948327 
L 197.443166 671.397188 
L 198.032082 671.279552 
L 198.913688 670.833741 
L 199.501848 669.930723 
L 200.677854 667.482661 
L 201.854578 664.478367 
L 202.442 662.816578 
L 203.324825 661.234824 
L 205.089056 655.902625 
L 205.971371 654.174256 
L 207.735693 648.639938 
L 208.61766 646.862211 
L 210.970307 639.656022 
L 211.559725 638.435023 
L 212.146558 637.521935 
L 212.734782 636.830126 
L 213.910732 635.951019 
L 215.087344 635.403773 
L 216.263694 635.092383 
L 219.498711 634.860183 
L 223.027698 634.766668 
L 224.206028 634.780253 
L 225.379961 634.935193 
L 226.262321 635.547342 
L 227.145059 636.535806 
L 228.02689 637.761122 
L 230.674094 642.193367 
L 231.556031 643.841355 
L 232.732131 645.480221 
L 235.378964 650.566394 
L 236.261017 651.26692 
L 237.437196 651.502436 
L 239.789943 654.521153 
L 241.554633 657.392412 
L 243.318761 660.595481 
L 243.906462 661.836445 
L 244.494695 662.321965 
L 245.376773 662.359853 
L 247.730189 660.021875 
L 248.613039 658.800999 
L 249.494394 657.345904 
L 250.082215 655.732968 
L 251.847421 652.493727 
L 254.493417 647.591509 
L 255.37572 647.052955 
L 256.257925 646.742245 
L 257.139784 645.99032 
L 259.198382 642.161433 
L 262.140859 637.270398 
L 264.197633 635.790812 
L 265.374152 635.309283 
L 267.138326 634.976125 
L 270.372985 634.82725 
L 271.255291 634.785883 
L 272.433462 634.892449 
L 273.608302 635.419857 
L 275.666847 637.586999 
L 278.607578 642.170854 
L 279.783763 643.691022 
L 280.960506 645.54732 
L 285.37151 654.211719 
L 286.253142 654.700755 
L 287.429709 654.945864 
L 288.312251 655.69435 
L 290.077084 657.954105 
L 291.840402 660.826841 
L 293.605368 664.0329 
L 294.193702 665.286819 
L 294.781478 665.76853 
L 295.369678 665.665595 
L 295.957327 665.133101 
L 296.545501 664.266926 
L 297.133603 663.168623 
L 298.89893 660.708942 
L 301.563425 655.970922 
L 306.843874 645.350444 
L 308.607329 639.817688 
L 309.195531 638.536886 
L 309.783796 637.590044 
L 311.256762 636.355088 
L 313.313453 635.440901 
L 316.54745 634.868172 
L 321.546805 634.771805 
L 322.722868 634.974282 
L 323.899517 635.602687 
L 325.369921 636.636907 
L 327.133983 639.39228 
L 328.016369 640.942952 
L 328.89847 642.264064 
L 329.781302 642.976782 
L 333.015541 646.989361 
L 334.78024 649.962376 
L 337.427149 654.732547 
L 338.309154 655.333778 
L 339.191632 655.553968 
L 340.074129 656.248376 
L 340.662066 657.25318 
L 342.4265 659.807986 
L 344.190855 662.836588 
L 345.954707 666.146745 
L 346.542894 667.449603 
L 347.425583 668.069938 
L 348.307874 668.088225 
L 349.190086 667.641906 
L 349.777531 666.705026 
L 350.660014 665.695288 
L 351.542442 664.469631 
L 352.130476 663.422679 
L 353.899502 659.876297 
L 354.487131 658.154653 
L 358.898427 649.366428 
L 359.485383 647.462448 
L 361.249833 643.985889 
L 362.42887 640.16671 
L 363.896135 637.832156 
L 365.368501 636.461006 
L 367.130874 635.716728 
L 367.721269 635.465566 
L 370.660657 634.956362 
L 372.718224 634.885349 
L 373.895887 634.868534 
L 375.071042 635.112258 
L 376.247883 635.786024 
L 377.424974 636.815352 
L 379.189572 639.618517 
L 380.070555 641.169341 
L 381.247229 642.664072 
L 382.42298 644.467862 
L 383.893411 646.438463 
L 385.658206 649.747232 
L 387.422022 653.301725 
L 388.304375 654.775258 
L 389.480958 655.599466 
L 390.363558 655.809758 
L 391.245581 656.512024 
L 393.009412 658.717981 
L 393.892202 660.055815 
L 395.069447 661.571877 
L 395.951296 663.114174 
L 398.008757 666.138101 
L 398.890931 666.691894 
L 399.773257 666.666528 
L 400.655339 666.178333 
L 401.537665 665.359532 
L 402.41993 664.293607 
L 403.301979 663.018503 
L 405.948605 658.490874 
L 412.124295 646.028679 
L 413.300638 642.185307 
L 414.182669 640.49885 
L 415.067605 639.094481 
L 415.947588 638.036618 
L 416.830104 637.223191 
L 417.712525 636.606485 
L 418.299299 636.052527 
L 419.475894 635.50708 
L 420.653028 635.143439 
L 421.240514 635.132866 
L 421.828372 634.946982 
L 425.35722 634.793073 
L 426.533541 634.849483 
L 427.415994 635.17458 
L 428.298267 635.813553 
L 429.475627 636.816993 
L 431.24023 639.614662 
L 432.123618 641.170058 
L 433.300664 642.728975 
L 434.179731 644.366783 
L 435.35586 646.268566 
L 436.534559 647.907228 
L 440.064266 654.741266 
L 440.945012 655.425159 
L 441.827513 655.484068 
L 442.709493 655.260119 
L 443.296217 655.732259 
L 444.766228 657.42645 
L 446.531102 660.039656 
L 448.295236 663.093567 
L 448.885629 664.761801 
L 449.768224 666.47011 
L 450.64823 667.867799 
L 451.236095 668.394289 
L 451.823862 668.196281 
L 452.414547 667.674382 
L 453.001063 666.836572 
L 453.882722 665.874816 
L 454.764887 664.706666 
L 456.530339 661.744848 
L 458.294135 658.66128 
L 460.94036 653.365853 
L 462.704669 647.721947 
L 463.586958 645.875162 
L 464.766125 642.070487 
L 465.646121 640.395285 
L 466.233615 638.984278 
L 466.823023 637.909424 
L 467.411135 637.120146 
L 468.293288 636.559671 
L 469.177294 636.247729 
L 470.059267 636.491549 
L 470.939567 637.124595 
L 471.822358 638.08221 
L 472.703636 639.227057 
L 472.703636 639.227057 
" clip-path="url(#pc994bde778)" style="fill: none; stroke: #1f77b4; stroke-width: 1.5; stroke-linecap: square"/>
   </g>
   <g id="line2d_90">
    <path d="M 62.776364 758.108672 
L 63.629195 634.728984 
L 472.703636 634.728984 
L 472.703636 634.728984 
" clip-path="url(#pc994bde778)" style="fill: none; stroke-dasharray: 9.6,2.4,1.5,2.4; stroke-dashoffset: 0; stroke: #ff7f0e; stroke-width: 1.5"/>
   </g>
   <g id="line2d_91">
    <path d="M 42.28 758.108672 
L 493.2 758.108672 
" clip-path="url(#pc994bde778)" style="fill: none; stroke-dasharray: 3.7,1.6; stroke-dashoffset: 0; stroke: #ff0000"/>
   </g>
   <g id="line2d_92">
    <path d="M 42.28 634.728984 
L 493.2 634.728984 
" clip-path="url(#pc994bde778)" style="fill: none; stroke-dasharray: 3.7,1.6; stroke-dashoffset: 0; stroke: #ff0000"/>
   </g>
   <g id="patch_21">
    <path d="M 42.28 764.277656 
L 42.28 628.56 
" style="fill: none; stroke: #000000; stroke-width: 0.8; stroke-linejoin: miter; stroke-linecap: square"/>
   </g>
   <g id="patch_22">
    <path d="M 493.2 764.277656 
L 493.2 628.56 
" style="fill: none; stroke: #000000; stroke-width: 0.8; stroke-linejoin: miter; stroke-linecap: square"/>
   </g>
   <g id="patch_23">
    <path d="M 42.28 764.277656 
L 493.2 764.277656 
" style="fill: none; stroke: #000000; stroke-width: 0.8; stroke-linejoin: miter; stroke-linecap: square"/>
   </g>
   <g id="patch_24">
    <path d="M 42.28 628.56 
L 493.2 628.56 
" style="fill: none; stroke: #000000; stroke-width: 0.8; stroke-linejoin: miter; stroke-linecap: square"/>
   </g>
   <g id="text_52">
    <!-- $v_x$ (m/s) -->
    <g transform="translate(243.92 622.56) scale(0.12 -0.12)">
     <defs>
      <path id="DejaVuSans-Oblique-59" d="M 459 3500 
L 1069 3500 
L 1581 525 
L 3256 3500 
L 3866 3500 
L 1875 0 
L 1100 0 
L 459 3500 
z
" transform="scale(0.015625)"/>
      <path id="DejaVuSans-Oblique-5b" d="M 3841 3500 
L 2234 1784 
L 3219 0 
L 2559 0 
L 1819 1388 
L 531 0 
L -166 0 
L 1556 1844 
L 641 3500 
L 1300 3500 
L 1972 2234 
L 3144 3500 
L 3841 3500 
z
" transform="scale(0.015625)"/>
      <path id="DejaVuSans-12" d="M 1625 4666 
L 2156 4666 
L 531 -594 
L 0 -594 
L 1625 4666 
z
" transform="scale(0.015625)"/>
     </defs>
     <use xlink:href="#DejaVuSans-Oblique-59" transform="translate(0 0.125)"/>
     <use xlink:href="#DejaVuSans-Oblique-5b" transform="translate(59.179688 -14.874951) scale(0.7)"/>
     <use xlink:href="#DejaVuSans-3" transform="translate(103.339844 0.125)"/>
     <use xlink:href="#DejaVuSans-b" transform="translate(135.126953 0.125)"/>
     <use xlink:href="#DejaVuSans-50" transform="translate(174.140625 0.125)"/>
     <use xlink:href="#DejaVuSans-12" transform="translate(271.552734 0.125)"/>
     <use xlink:href="#DejaVuSans-56" transform="translate(305.244141 0.125)"/>
     <use xlink:href="#DejaVuSans-c" transform="translate(357.34375 0.125)"/>
    </g>
   </g>
   <g id="legend_4">
    <g id="patch_25">
     <path d="M 430.6 712.919609 
L 486.2 712.919609 
Q 488.2 712.919609 488.2 710.919609 
L 488.2 681.918047 
Q 488.2 679.918047 486.2 679.918047 
L 430.6 679.918047 
Q 428.6 679.918047 428.6 681.918047 
L 428.6 710.919609 
Q 428.6 712.919609 430.6 712.919609 
z
" style="fill: #ffffff; opacity: 0.8; stroke: #cccccc; stroke-linejoin: miter"/>
    </g>
    <g id="line2d_93">
     <path d="M 432.6 688.016484 
L 442.6 688.016484 
L 452.6 688.016484 
" style="fill: none; stroke: #1f77b4; stroke-width: 1.5; stroke-linecap: square"/>
    </g>
    <g id="text_53">
     <!-- $v_x$ -->
     <g transform="translate(460.6 691.516484) scale(0.1 -0.1)">
      <use xlink:href="#DejaVuSans-Oblique-59" transform="translate(0 0.3125)"/>
      <use xlink:href="#DejaVuSans-Oblique-5b" transform="translate(59.179688 -14.687451) scale(0.7)"/>
     </g>
    </g>
    <g id="line2d_94">
     <path d="M 432.6 703.017266 
L 442.6 703.017266 
L 452.6 703.017266 
" style="fill: none; stroke-dasharray: 9.6,2.4,1.5,2.4; stroke-dashoffset: 0; stroke: #ff7f0e; stroke-width: 1.5"/>
    </g>
    <g id="text_54">
     <!-- $v_{x,ref}$ -->
     <g transform="translate(460.6 706.517266) scale(0.1 -0.1)">
      <defs>
       <path id="DejaVuSans-f" d="M 750 794 
L 1409 794 
L 1409 256 
L 897 -744 
L 494 -744 
L 750 256 
L 750 794 
z
" transform="scale(0.015625)"/>
      </defs>
      <use xlink:href="#DejaVuSans-Oblique-59" transform="translate(0 0.3125)"/>
      <use xlink:href="#DejaVuSans-Oblique-5b" transform="translate(59.179688 -14.687451) scale(0.7)"/>
      <use xlink:href="#DejaVuSans-f" transform="translate(100.605469 -14.687451) scale(0.7)"/>
      <use xlink:href="#DejaVuSans-Oblique-55" transform="translate(136.494141 -14.687451) scale(0.7)"/>
      <use xlink:href="#DejaVuSans-Oblique-48" transform="translate(165.273438 -14.687451) scale(0.7)"/>
      <use xlink:href="#DejaVuSans-Oblique-49" transform="translate(208.339844 -14.687451) scale(0.7)"/>
     </g>
    </g>
   </g>
  </g>
  <g id="text_55">
   <!-- QCar2 States -->
   <g transform="translate(212.211563 25.245188) scale(0.12 -0.12)">
    <defs>
     <path id="DejaVuSans-34" d="M 2522 4238 
Q 1834 4238 1429 3725 
Q 1025 3213 1025 2328 
Q 1025 1447 1429 934 
Q 1834 422 2522 422 
Q 3209 422 3611 934 
Q 4013 1447 4013 2328 
Q 4013 3213 3611 3725 
Q 3209 4238 2522 4238 
z
M 3406 84 
L 4238 -825 
L 3475 -825 
L 2784 -78 
Q 2681 -84 2626 -87 
Q 2572 -91 2522 -91 
Q 1538 -91 948 567 
Q 359 1225 359 2328 
Q 359 3434 948 4092 
Q 1538 4750 2522 4750 
Q 3503 4750 4090 4092 
Q 4678 3434 4678 2328 
Q 4678 1516 4351 937 
Q 4025 359 3406 84 
z
" transform="scale(0.015625)"/>
     <path id="DejaVuSans-26" d="M 4122 4306 
L 4122 3641 
Q 3803 3938 3442 4084 
Q 3081 4231 2675 4231 
Q 1875 4231 1450 3742 
Q 1025 3253 1025 2328 
Q 1025 1406 1450 917 
Q 1875 428 2675 428 
Q 3081 428 3442 575 
Q 3803 722 4122 1019 
L 4122 359 
Q 3791 134 3420 21 
Q 3050 -91 2638 -91 
Q 1578 -91 968 557 
Q 359 1206 359 2328 
Q 359 3453 968 4101 
Q 1578 4750 2638 4750 
Q 3056 4750 3426 4639 
Q 3797 4528 4122 4306 
z
" transform="scale(0.015625)"/>
     <path id="DejaVuSans-36" d="M 3425 4513 
L 3425 3897 
Q 3066 4069 2747 4153 
Q 2428 4238 2131 4238 
Q 1616 4238 1336 4038 
Q 1056 3838 1056 3469 
Q 1056 3159 1242 3001 
Q 1428 2844 1947 2747 
L 2328 2669 
Q 3034 2534 3370 2195 
Q 3706 1856 3706 1288 
Q 3706 609 3251 259 
Q 2797 -91 1919 -91 
Q 1588 -91 1214 -16 
Q 841 59 441 206 
L 441 856 
Q 825 641 1194 531 
Q 1563 422 1919 422 
Q 2459 422 2753 634 
Q 3047 847 3047 1241 
Q 3047 1584 2836 1778 
Q 2625 1972 2144 2069 
L 1759 2144 
Q 1053 2284 737 2584 
Q 422 2884 422 3419 
Q 422 4038 858 4394 
Q 1294 4750 2059 4750 
Q 2388 4750 2728 4690 
Q 3069 4631 3425 4513 
z
" transform="scale(0.015625)"/>
     <path id="DejaVuSans-48" d="M 3597 1894 
L 3597 1613 
L 953 1613 
Q 991 1019 1311 708 
Q 1631 397 2203 397 
Q 2534 397 2845 478 
Q 3156 559 3463 722 
L 3463 178 
Q 3153 47 2828 -22 
Q 2503 -91 2169 -91 
Q 1331 -91 842 396 
Q 353 884 353 1716 
Q 353 2575 817 3079 
Q 1281 3584 2069 3584 
Q 2775 3584 3186 3129 
Q 3597 2675 3597 1894 
z
M 3022 2063 
Q 3016 2534 2758 2815 
Q 2500 3097 2075 3097 
Q 1594 3097 1305 2825 
Q 1016 2553 972 2059 
L 3022 2063 
z
" transform="scale(0.015625)"/>
    </defs>
    <use xlink:href="#DejaVuSans-34"/>
    <use xlink:href="#DejaVuSans-26" transform="translate(78.71875 0)"/>
    <use xlink:href="#DejaVuSans-44" transform="translate(148.546875 0)"/>
    <use xlink:href="#DejaVuSans-55" transform="translate(209.828125 0)"/>
    <use xlink:href="#DejaVuSans-15" transform="translate(250.9375 0)"/>
    <use xlink:href="#DejaVuSans-3" transform="translate(314.5625 0)"/>
    <use xlink:href="#DejaVuSans-36" transform="translate(346.34375 0)"/>
    <use xlink:href="#DejaVuSans-57" transform="translate(409.828125 0)"/>
    <use xlink:href="#DejaVuSans-44" transform="translate(449.03125 0)"/>
    <use xlink:href="#DejaVuSans-57" transform="translate(510.3125 0)"/>
    <use xlink:href="#DejaVuSans-48" transform="translate(549.515625 0)"/>
    <use xlink:href="#DejaVuSans-56" transform="translate(611.046875 0)"/>
   </g>
  </g>
 </g>
 <defs>
  <clipPath id="p13ac616d94">
   <rect x="42.28" y="48.96" width="450.92" height="135.717656"/>
  </clipPath>
  <clipPath id="p23c3e607c8">
   <rect x="42.28" y="242.16" width="450.92" height="135.717656"/>
  </clipPath>
  <clipPath id="p04a458b803">
   <rect x="42.28" y="435.36" width="450.92" height="135.717656"/>
  </clipPath>
  <clipPath id="pc994bde778">
   <rect x="42.28" y="628.56" width="450.92" height="135.717656"/>
  </clipPath>
 </defs>
</svg>
