<?xml version="1.0" encoding="utf-8" standalone="no"?>
<!DOCTYPE svg PUBLIC "-//W3C//DTD SVG 1.1//EN"
  "http://www.w3.org/Graphics/SVG/1.1/DTD/svg11.dtd">
<svg xmlns:xlink="http://www.w3.org/1999/xlink" width="504pt" height="403.2pt" viewBox="0 0 504 403.2" xmlns="http://www.w3.org/2000/svg" version="1.1">
 <metadata>
  <rdf:RDF xmlns:dc="http://purl.org/dc/elements/1.1/" xmlns:cc="http://creativecommons.org/ns#" xmlns:rdf="http://www.w3.org/1999/02/22-rdf-syntax-ns#">
   <cc:Work>
    <dc:type rdf:resource="http://purl.org/dc/dcmitype/StillImage"/>
    <dc:date>2026-07-10T12:58:01.225080</dc:date>
    <dc:format>image/svg+xml</dc:format>
    <dc:creator>
     <cc:Agent>
      <dc:title>Matplotlib v3.11.0, https://matplotlib.org/</dc:title>
     </cc:Agent>
    </dc:creator>
   </cc:Work>
  </rdf:RDF>
 </metadata>
 <defs>
  <style type="text/css">*{stroke-linejoin: round; stroke-linecap: butt}</style>
 </defs>
 <g id="figure_1">
  <g id="patch_1">
   <path d="M 0 403.2 
L 504 403.2 
L 504 0 
L 0 0 
z
" style="fill: #ffffff"/>
  </g>
  <g id="axes_1">
   <g id="patch_2">
    <path d="M 48.682344 183.560234 
L 493.2 183.560234 
L 493.2 33.842813 
L 48.682344 33.842813 
z
" style="fill: #ffffff"/>
   </g>
   <g id="matplotlib.axis_1">
    <g id="xtick_1">
     <g id="line2d_1">
      <path d="M 68.887688 183.560234 
L 68.887688 33.842813 
" clip-path="url(#p8e19c299b7)" style="fill: none; stroke: #b0b0b0; stroke-width: 0.8; stroke-linecap: square"/>
     </g>
     <g id="line2d_2">
      <defs>
       <path id="mf4ec64d379" d="M 0 0 
L 0 3.5 
" style="stroke: #000000; stroke-width: 0.8"/>
      </defs>
      <g>
       <use xlink:href="#mf4ec64d379" x="68.887688" y="183.560234" style="stroke: #000000; stroke-width: 0.8"/>
      </g>
     </g>
     <g id="text_1">
      <!-- 0 -->
      <g transform="translate(65.706438 198.157891) scale(0.1 -0.1)">
       <defs>
        <path id="DejaVuSans-13" d="M 2034 4250 
Q 1547 4250 1301 3770 
Q 1056 3291 1056 2328 
Q 1056 1369 1301 889 
Q 1547 409 2034 409 
Q 2525 409 2770 889 
Q 3016 1369 3016 2328 
Q 3016 3291 2770 3770 
Q 2525 4250 2034 4250 
z
M 2034 4750 
Q 2819 4750 3233 4129 
Q 3647 3509 3647 2328 
Q 3647 1150 3233 529 
Q 2819 -91 2034 -91 
Q 1250 -91 836 529 
Q 422 1150 422 2328 
Q 422 3509 836 4129 
Q 1250 4750 2034 4750 
z
" transform="scale(0.015625)"/>
       </defs>
       <use xlink:href="#DejaVuSans-13"/>
      </g>
     </g>
    </g>
    <g id="xtick_2">
     <g id="line2d_3">
      <path d="M 155.856357 183.560234 
L 155.856357 33.842813 
" clip-path="url(#p8e19c299b7)" style="fill: none; stroke: #b0b0b0; stroke-width: 0.8; stroke-linecap: square"/>
     </g>
     <g id="line2d_4">
      <g>
       <use xlink:href="#mf4ec64d379" x="155.856357" y="183.560234" style="stroke: #000000; stroke-width: 0.8"/>
      </g>
     </g>
     <g id="text_2">
      <!-- 10 -->
      <g transform="translate(149.493857 198.157891) scale(0.1 -0.1)">
       <defs>
        <path id="DejaVuSans-14" d="M 794 531 
L 1825 531 
L 1825 4091 
L 703 3866 
L 703 4441 
L 1819 4666 
L 2450 4666 
L 2450 531 
L 3481 531 
L 3481 0 
L 794 0 
L 794 531 
z
" transform="scale(0.015625)"/>
       </defs>
       <use xlink:href="#DejaVuSans-14"/>
       <use xlink:href="#DejaVuSans-13" transform="translate(63.625 0)"/>
      </g>
     </g>
    </g>
    <g id="xtick_3">
     <g id="line2d_5">
      <path d="M 242.825025 183.560234 
L 242.825025 33.842813 
" clip-path="url(#p8e19c299b7)" style="fill: none; stroke: #b0b0b0; stroke-width: 0.8; stroke-linecap: square"/>
     </g>
     <g id="line2d_6">
      <g>
       <use xlink:href="#mf4ec64d379" x="242.825025" y="183.560234" style="stroke: #000000; stroke-width: 0.8"/>
      </g>
     </g>
     <g id="text_3">
      <!-- 20 -->
      <g transform="translate(236.462525 198.157891) scale(0.1 -0.1)">
       <defs>
        <path id="DejaVuSans-15" d="M 1228 531 
L 3431 531 
L 3431 0 
L 469 0 
L 469 531 
Q 828 903 1448 1529 
Q 2069 2156 2228 2338 
Q 2531 2678 2651 2914 
Q 2772 3150 2772 3378 
Q 2772 3750 2511 3984 
Q 2250 4219 1831 4219 
Q 1534 4219 1204 4116 
Q 875 4013 500 3803 
L 500 4441 
Q 881 4594 1212 4672 
Q 1544 4750 1819 4750 
Q 2544 4750 2975 4387 
Q 3406 4025 3406 3419 
Q 3406 3131 3298 2873 
Q 3191 2616 2906 2266 
Q 2828 2175 2409 1742 
Q 1991 1309 1228 531 
z
" transform="scale(0.015625)"/>
       </defs>
       <use xlink:href="#DejaVuSans-15"/>
       <use xlink:href="#DejaVuSans-13" transform="translate(63.625 0)"/>
      </g>
     </g>
    </g>
    <g id="xtick_4">
     <g id="line2d_7">
      <path d="M 329.793694 183.560234 
L 329.793694 33.842813 
" clip-path="url(#p8e19c299b7)" style="fill: none; stroke: #b0b0b0; stroke-width: 0.8; stroke-linecap: square"/>
     </g>
     <g id="line2d_8">
      <g>
       <use xlink:href="#mf4ec64d379" x="329.793694" y="183.560234" style="stroke: #000000; stroke-width: 0.8"/>
      </g>
     </g>
     <g id="text_4">
      <!-- 30 -->
      <g transform="translate(323.431194 198.157891) scale(0.1 -0.1)">
       <defs>
        <path id="DejaVuSans-16" d="M 2597 2516 
Q 3050 2419 3304 2112 
Q 3559 1806 3559 1356 
Q 3559 666 3084 287 
Q 2609 -91 1734 -91 
Q 1441 -91 1130 -33 
Q 819 25 488 141 
L 488 750 
Q 750 597 1062 519 
Q 1375 441 1716 441 
Q 2309 441 2620 675 
Q 2931 909 2931 1356 
Q 2931 1769 2642 2001 
Q 2353 2234 1838 2234 
L 1294 2234 
L 1294 2753 
L 1863 2753 
Q 2328 2753 2575 2939 
Q 2822 3125 2822 3475 
Q 2822 3834 2567 4026 
Q 2313 4219 1838 4219 
Q 1578 4219 1281 4162 
Q 984 4106 628 3988 
L 628 4550 
Q 988 4650 1302 4700 
Q 1616 4750 1894 4750 
Q 2613 4750 3031 4423 
Q 3450 4097 3450 3541 
Q 3450 3153 3228 2886 
Q 3006 2619 2597 2516 
z
" transform="scale(0.015625)"/>
       </defs>
       <use xlink:href="#DejaVuSans-16"/>
       <use xlink:href="#DejaVuSans-13" transform="translate(63.625 0)"/>
      </g>
     </g>
    </g>
    <g id="xtick_5">
     <g id="line2d_9">
      <path d="M 416.762362 183.560234 
L 416.762362 33.842813 
" clip-path="url(#p8e19c299b7)" style="fill: none; stroke: #b0b0b0; stroke-width: 0.8; stroke-linecap: square"/>
     </g>
     <g id="line2d_10">
      <g>
       <use xlink:href="#mf4ec64d379" x="416.762362" y="183.560234" style="stroke: #000000; stroke-width: 0.8"/>
      </g>
     </g>
     <g id="text_5">
      <!-- 40 -->
      <g transform="translate(410.399862 198.157891) scale(0.1 -0.1)">
       <defs>
        <path id="DejaVuSans-17" d="M 2419 4116 
L 825 1625 
L 2419 1625 
L 2419 4116 
z
M 2253 4666 
L 3047 4666 
L 3047 1625 
L 3713 1625 
L 3713 1100 
L 3047 1100 
L 3047 0 
L 2419 0 
L 2419 1100 
L 313 1100 
L 313 1709 
L 2253 4666 
z
" transform="scale(0.015625)"/>
       </defs>
       <use xlink:href="#DejaVuSans-17"/>
       <use xlink:href="#DejaVuSans-13" transform="translate(63.625 0)"/>
      </g>
     </g>
    </g>
   </g>
   <g id="matplotlib.axis_2">
    <g id="ytick_1">
     <g id="line2d_11">
      <path d="M 48.682344 150.68025 
L 493.2 150.68025 
" clip-path="url(#p8e19c299b7)" style="fill: none; stroke: #b0b0b0; stroke-width: 0.8; stroke-linecap: square"/>
     </g>
     <g id="line2d_12">
      <defs>
       <path id="me24653b2fd" d="M 0 0 
L -3.5 0 
" style="stroke: #000000; stroke-width: 0.8"/>
      </defs>
      <g>
       <use xlink:href="#me24653b2fd" x="48.682344" y="150.68025" style="stroke: #000000; stroke-width: 0.8"/>
      </g>
     </g>
     <g id="text_6">
      <!-- −1 -->
      <g transform="translate(26.940156 154.479079) scale(0.1 -0.1)">
       <defs>
        <path id="DejaVuSans-c9c" d="M 678 2272 
L 4684 2272 
L 4684 1741 
L 678 1741 
L 678 2272 
z
" transform="scale(0.015625)"/>
       </defs>
       <use xlink:href="#DejaVuSans-c9c"/>
       <use xlink:href="#DejaVuSans-14" transform="translate(83.796875 0)"/>
      </g>
     </g>
    </g>
    <g id="ytick_2">
     <g id="line2d_13">
      <path d="M 48.682344 110.158709 
L 493.2 110.158709 
" clip-path="url(#p8e19c299b7)" style="fill: none; stroke: #b0b0b0; stroke-width: 0.8; stroke-linecap: square"/>
     </g>
     <g id="line2d_14">
      <g>
       <use xlink:href="#me24653b2fd" x="48.682344" y="110.158709" style="stroke: #000000; stroke-width: 0.8"/>
      </g>
     </g>
     <g id="text_7">
      <!-- 0 -->
      <g transform="translate(35.319844 113.957538) scale(0.1 -0.1)">
       <use xlink:href="#DejaVuSans-13"/>
      </g>
     </g>
    </g>
    <g id="ytick_3">
     <g id="line2d_15">
      <path d="M 48.682344 69.637169 
L 493.2 69.637169 
" clip-path="url(#p8e19c299b7)" style="fill: none; stroke: #b0b0b0; stroke-width: 0.8; stroke-linecap: square"/>
     </g>
     <g id="line2d_16">
      <g>
       <use xlink:href="#me24653b2fd" x="48.682344" y="69.637169" style="stroke: #000000; stroke-width: 0.8"/>
      </g>
     </g>
     <g id="text_8">
      <!-- 1 -->
      <g transform="translate(35.319844 73.435997) scale(0.1 -0.1)">
       <use xlink:href="#DejaVuSans-14"/>
      </g>
     </g>
    </g>
    <g id="text_9">
     <!-- $v_1$ [$m/s^2$] -->
     <g transform="translate(20.537813 131.301523) rotate(-90) scale(0.1 -0.1)">
      <defs>
       <path id="DejaVuSans-Oblique-59" d="M 459 3500 
L 1069 3500 
L 1581 525 
L 3256 3500 
L 3866 3500 
L 1875 0 
L 1100 0 
L 459 3500 
z
" transform="scale(0.015625)"/>
       <path id="DejaVuSans-3" transform="scale(0.015625)"/>
       <path id="DejaVuSans-3e" d="M 550 4863 
L 1875 4863 
L 1875 4416 
L 1125 4416 
L 1125 -397 
L 1875 -397 
L 1875 -844 
L 550 -844 
L 550 4863 
z
" transform="scale(0.015625)"/>
       <path id="DejaVuSans-Oblique-50" d="M 5747 2113 
L 5338 0 
L 4763 0 
L 5166 2094 
Q 5191 2228 5203 2325 
Q 5216 2422 5216 2491 
Q 5216 2772 5059 2928 
Q 4903 3084 4622 3084 
Q 4203 3084 3875 2770 
Q 3547 2456 3450 1953 
L 3066 0 
L 2491 0 
L 2900 2094 
Q 2925 2209 2937 2307 
Q 2950 2406 2950 2484 
Q 2950 2769 2794 2926 
Q 2638 3084 2363 3084 
Q 1938 3084 1609 2770 
Q 1281 2456 1184 1953 
L 800 0 
L 225 0 
L 909 3500 
L 1484 3500 
L 1375 2956 
Q 1609 3263 1923 3423 
Q 2238 3584 2597 3584 
Q 2978 3584 3223 3384 
Q 3469 3184 3519 2828 
Q 3781 3197 4126 3390 
Q 4472 3584 4856 3584 
Q 5306 3584 5551 3325 
Q 5797 3066 5797 2591 
Q 5797 2488 5784 2364 
Q 5772 2241 5747 2113 
z
" transform="scale(0.015625)"/>
       <path id="DejaVuSans-12" d="M 1625 4666 
L 2156 4666 
L 531 -594 
L 0 -594 
L 1625 4666 
z
" transform="scale(0.015625)"/>
       <path id="DejaVuSans-Oblique-56" d="M 3200 3397 
L 3091 2853 
Q 2863 2978 2609 3040 
Q 2356 3103 2088 3103 
Q 1634 3103 1373 2948 
Q 1113 2794 1113 2528 
Q 1113 2219 1719 2053 
Q 1766 2041 1788 2034 
L 1972 1978 
Q 2547 1819 2739 1644 
Q 2931 1469 2931 1166 
Q 2931 609 2489 259 
Q 2047 -91 1331 -91 
Q 1053 -91 747 -37 
Q 441 16 72 128 
L 184 722 
Q 500 559 806 475 
Q 1113 391 1394 391 
Q 1816 391 2080 572 
Q 2344 753 2344 1031 
Q 2344 1331 1650 1516 
L 1591 1531 
L 1394 1581 
Q 956 1697 753 1886 
Q 550 2075 550 2369 
Q 550 2928 970 3256 
Q 1391 3584 2113 3584 
Q 2397 3584 2667 3537 
Q 2938 3491 3200 3397 
z
" transform="scale(0.015625)"/>
       <path id="DejaVuSans-40" d="M 1947 4863 
L 1947 -844 
L 622 -844 
L 622 -397 
L 1369 -397 
L 1369 4416 
L 622 4416 
L 622 4863 
L 1947 4863 
z
" transform="scale(0.015625)"/>
      </defs>
      <use xlink:href="#DejaVuSans-Oblique-59" transform="translate(0 0.746875)"/>
      <use xlink:href="#DejaVuSans-14" transform="translate(59.179688 -14.253076) scale(0.7)"/>
      <use xlink:href="#DejaVuSans-3" transform="translate(106.450195 0.746875)"/>
      <use xlink:href="#DejaVuSans-3e" transform="translate(138.237305 0.746875)"/>
      <use xlink:href="#DejaVuSans-Oblique-50" transform="translate(177.250977 0.746875)"/>
      <use xlink:href="#DejaVuSans-12" transform="translate(274.663086 0.746875)"/>
      <use xlink:href="#DejaVuSans-Oblique-56" transform="translate(308.354492 0.746875)"/>
      <use xlink:href="#DejaVuSans-15" transform="translate(365.103997 42.046875) scale(0.7)"/>
      <use xlink:href="#DejaVuSans-40" transform="translate(412.374505 0.746875)"/>
     </g>
    </g>
   </g>
   <g id="line2d_17">
    <path d="M 68.887692 98.002247 
L 120.463967 98.00441 
L 121.62435 104.309994 
L 122.783128 122.229118 
L 124.234497 128.74131 
L 125.973986 155.120678 
L 126.843278 165.524266 
L 127.713345 158.479771 
L 128.583841 53.267676 
L 129.462504 51.362393 
L 130.3443 60.323532 
L 132.355235 88.115257 
L 133.514716 138.319703 
L 134.385108 135.891887 
L 135.254303 144.970116 
L 136.124507 151.900905 
L 136.993797 140.296788 
L 138.733212 152.676977 
L 139.603983 62.727554 
L 140.478953 61.230164 
L 141.054128 63.912797 
L 141.632992 67.889241 
L 143.083719 80.230744 
L 146.850594 115.09036 
L 147.722069 97.13493 
L 150.041282 113.058848 
L 153.233677 137.8448 
L 154.101173 88.471443 
L 154.973892 66.455823 
L 155.841268 87.621977 
L 156.708822 142.907669 
L 157.579223 144.457039 
L 158.448368 59.858727 
L 159.898128 56.594638 
L 160.477694 94.861079 
L 161.056915 117.314434 
L 161.637793 98.004186 
L 162.216602 74.51518 
L 162.796179 77.612661 
L 163.375772 85.816197 
L 163.955723 86.957488 
L 164.535998 84.068431 
L 165.115267 82.083736 
L 165.695015 82.52876 
L 166.274873 84.605147 
L 167.435077 89.988163 
L 169.173947 102.917222 
L 169.753701 105.312504 
L 170.334195 106.793115 
L 170.915093 107.800422 
L 171.492996 108.544728 
L 172.07283 109.011369 
L 173.23261 109.54424 
L 173.812865 109.744673 
L 174.392549 109.826369 
L 174.974544 109.781699 
L 175.841418 109.859182 
L 176.711366 122.314414 
L 178.450922 122.40083 
L 179.610523 123.982899 
L 180.770033 133.999673 
L 182.509547 166.144386 
L 183.379054 176.754897 
L 184.248915 48.095332 
L 185.119453 46.498733 
L 185.988139 59.63044 
L 187.147999 79.214671 
L 188.307889 143.452739 
L 189.177999 138.889081 
L 190.04665 149.274657 
L 190.916304 157.40995 
L 191.786311 147.701212 
L 192.656141 154.922343 
L 193.526696 59.287098 
L 194.395439 57.546887 
L 195.265229 63.840738 
L 196.714836 78.524768 
L 199.903555 114.492233 
L 200.482933 96.1155 
L 202.222995 112.911211 
L 204.251406 134.693595 
L 205.411122 147.807246 
L 205.991217 116.667289 
L 206.570299 54.662719 
L 207.440589 53.156273 
L 208.020042 129.283056 
L 208.599788 133.044169 
L 209.179771 72.297117 
L 210.049559 45.816904 
L 211.208883 102.952412 
L 211.78883 99.11876 
L 212.658275 73.985426 
L 213.238377 69.628984 
L 213.818154 75.96357 
L 214.397689 80.889436 
L 214.977518 82.962608 
L 215.558568 84.338608 
L 216.137068 86.352629 
L 217.296947 99.010929 
L 217.876194 103.03061 
L 218.456571 105.773499 
L 219.036099 107.453082 
L 219.615873 108.428535 
L 220.195747 109.092518 
L 221.065342 109.522752 
L 221.935273 109.724419 
L 222.514759 109.741047 
L 224.254692 109.969184 
L 225.123769 109.980258 
L 225.993718 109.876625 
L 226.863713 111.647909 
L 228.025313 122.314036 
L 229.182578 122.3835 
L 230.052409 123.522653 
L 230.922614 130.66906 
L 231.791924 145.069956 
L 232.661176 143.569294 
L 233.531178 103.813918 
L 234.401543 78.368986 
L 235.270957 122.444991 
L 236.430358 157.746229 
L 237.300777 161.295511 
L 238.169286 153.507255 
L 239.039611 163.3358 
L 239.90914 48.989158 
L 241.068619 45.040387 
L 241.647998 50.024893 
L 242.517894 59.445052 
L 244.257281 83.588959 
L 245.998776 109.396883 
L 246.866676 96.908151 
L 251.215469 152.651061 
L 252.085783 50.443563 
L 252.954624 48.341215 
L 253.534099 47.88209 
L 254.404014 123.11546 
L 255.274242 134.414306 
L 256.143155 73.963705 
L 257.013693 56.954441 
L 257.882669 64.784394 
L 258.752445 77.2706 
L 259.622124 94.343767 
L 260.491462 97.733936 
L 261.651019 94.480812 
L 262.520831 94.275951 
L 263.390827 96.455459 
L 264.839666 103.29882 
L 265.42153 105.010228 
L 267.449101 108.010549 
L 268.608915 108.996099 
L 270.348041 109.66664 
L 272.667292 109.948434 
L 273.536772 109.599612 
L 274.406551 122.315926 
L 275.567994 122.304409 
L 276.726153 122.418951 
L 277.595638 124.823854 
L 278.755471 140.336641 
L 279.625063 157.502738 
L 280.494416 136.187768 
L 281.654448 51.876971 
L 282.813932 53.328559 
L 283.973968 81.571312 
L 284.842973 152.04141 
L 285.713116 147.803811 
L 286.583054 158.924841 
L 287.452329 150.019063 
L 288.322343 158.87981 
L 289.191457 53.691132 
L 290.351318 49.845695 
L 291.22133 57.090231 
L 292.090734 66.702581 
L 293.829573 89.753398 
L 295.5693 113.259919 
L 296.439293 99.429522 
L 298.757858 126.683809 
L 300.78735 151.461478 
L 301.657695 52.449549 
L 302.526908 50.394579 
L 303.396259 102.163357 
L 304.284358 147.553486 
L 306.01126 44.416668 
L 306.881049 44.382785 
L 307.749769 77.893361 
L 308.61937 98.696557 
L 309.489834 95.562063 
L 310.068877 87.602755 
L 310.648863 84.18182 
L 311.22825 85.969549 
L 312.388013 97.862287 
L 313.258084 103.397527 
L 313.840066 105.666797 
L 314.70714 107.235552 
L 315.287289 108.049102 
L 315.867555 108.557512 
L 317.316276 109.35197 
L 317.896109 109.38295 
L 318.475817 109.744669 
L 319.63589 109.9187 
L 321.374795 110.051914 
L 321.95495 109.84687 
L 322.824191 112.821518 
L 323.984006 122.317971 
L 325.143371 122.415069 
L 326.303313 124.427526 
L 327.75284 137.359816 
L 329.491855 170.252388 
L 330.361712 165.700005 
L 331.231289 43.263347 
L 332.101587 40.64815 
L 332.972108 53.19187 
L 334.130914 73.618114 
L 335.289904 146.890318 
L 336.161282 141.301824 
L 337.029548 154.015263 
L 337.899153 163.611572 
L 338.768849 155.209658 
L 339.638875 162.941128 
L 340.508356 51.187854 
L 341.378305 49.713788 
L 342.248272 56.35971 
L 343.697325 72.709592 
L 347.176334 117.673513 
L 348.045355 102.97944 
L 352.683854 151.253759 
L 353.553753 56.294653 
L 354.133438 55.148941 
L 355.006514 133.060318 
L 355.877347 153.028879 
L 356.456633 87.582338 
L 357.326907 47.496017 
L 358.19723 47.094902 
L 359.065898 116.534557 
L 359.936387 128.480868 
L 360.805295 79.147899 
L 361.383917 58.162941 
L 362.253694 68.466938 
L 363.123315 85.829786 
L 363.702891 89.784364 
L 364.285611 89.960769 
L 365.154922 91.585037 
L 365.732043 97.087595 
L 366.601732 102.613167 
L 367.183504 105.25114 
L 368.054002 107.094666 
L 369.502866 108.612482 
L 371.820379 109.507697 
L 372.40052 109.692833 
L 373.269876 109.665828 
L 374.428872 114.478465 
L 375.589815 122.313073 
L 376.748284 122.509075 
L 377.908417 125.585473 
L 379.068794 138.428845 
L 379.938442 156.194405 
L 380.808338 171.332526 
L 381.676813 62.823197 
L 382.83678 46.084733 
L 383.995836 63.894086 
L 385.44539 150.968893 
L 386.315078 145.314501 
L 387.185128 157.36369 
L 388.054218 166.127302 
L 388.9239 157.974671 
L 389.793725 164.979022 
L 390.953603 48.711896 
L 391.823671 47.809159 
L 392.693171 52.864221 
L 393.562613 60.594735 
L 395.302214 81.058267 
L 397.332072 107.386887 
L 398.490631 96.969011 
L 403.708862 153.646667 
L 404.578388 54.713018 
L 406.317898 51.913119 
L 407.187436 153.602665 
L 408.057118 152.06045 
L 408.926739 47.112733 
L 409.796488 44.068621 
L 410.666032 54.53614 
L 411.535704 98.934071 
L 412.405948 107.172412 
L 413.275441 86.863951 
L 413.857148 76.024167 
L 414.435081 77.914026 
L 415.304588 86.953777 
L 416.17696 94.621598 
L 417.044449 100.990736 
L 417.914435 104.012938 
L 419.94525 107.757254 
L 421.102273 108.909862 
L 421.683079 109.274554 
L 422.262224 109.328688 
L 422.841735 109.713071 
L 423.712016 109.842603 
L 425.451027 109.70489 
L 427.480099 122.301012 
L 428.350022 122.349748 
L 429.219768 122.768975 
L 430.380411 130.78692 
L 431.250336 145.329657 
L 432.11996 162.394241 
L 434.151139 50.266467 
L 435.017724 56.957797 
L 436.177154 110.825261 
L 437.339118 146.852312 
L 438.208345 148.29306 
L 439.07716 159.025398 
L 439.947462 149.95598 
L 440.818708 158.718 
L 441.68695 166.026767 
L 442.55692 48.817423 
L 443.426378 47.302834 
L 444.004771 50.54945 
L 444.584688 55.147129 
L 445.453911 63.758075 
L 447.193726 85.43649 
L 449.514822 115.532166 
L 450.384886 100.827613 
L 452.993635 128.803673 
L 454.440965 144.806323 
L 455.310605 144.764864 
L 456.180428 55.016623 
L 457.05099 53.367274 
L 457.91969 52.416124 
L 458.789743 152.148002 
L 459.65925 150.499627 
L 460.528924 47.687442 
L 461.398395 44.531081 
L 461.978101 45.146669 
L 462.560215 72.878318 
L 463.137654 89.05717 
L 464.007416 91.38529 
L 464.587355 85.773694 
L 465.169841 82.258719 
L 466.037342 83.173946 
L 466.616495 86.922972 
L 467.197534 94.465488 
L 467.777295 100.261975 
L 468.646924 120.769561 
L 469.518378 122.125179 
L 470.387829 122.36176 
L 472.994652 122.272913 
L 472.994652 122.272913 
" clip-path="url(#p8e19c299b7)" style="fill: none; stroke: #1f77b4; stroke-width: 1.5; stroke-linecap: square"/>
   </g>
   <g id="patch_3">
    <path d="M 48.682344 183.560234 
L 48.682344 33.842813 
" style="fill: none; stroke: #000000; stroke-width: 0.8; stroke-linejoin: miter; stroke-linecap: square"/>
   </g>
   <g id="patch_4">
    <path d="M 493.2 183.560234 
L 493.2 33.842813 
" style="fill: none; stroke: #000000; stroke-width: 0.8; stroke-linejoin: miter; stroke-linecap: square"/>
   </g>
   <g id="patch_5">
    <path d="M 48.682344 183.560234 
L 493.2 183.560234 
" style="fill: none; stroke: #000000; stroke-width: 0.8; stroke-linejoin: miter; stroke-linecap: square"/>
   </g>
   <g id="patch_6">
    <path d="M 48.682344 33.842813 
L 493.2 33.842813 
" style="fill: none; stroke: #000000; stroke-width: 0.8; stroke-linejoin: miter; stroke-linecap: square"/>
   </g>
   <g id="legend_1">
    <g id="patch_7">
     <path d="M 55.682344 56.843594 
L 98.382344 56.843594 
Q 100.382344 56.843594 100.382344 54.843594 
L 100.382344 40.842813 
Q 100.382344 38.842813 98.382344 38.842813 
L 55.682344 38.842813 
Q 53.682344 38.842813 53.682344 40.842813 
L 53.682344 54.843594 
Q 53.682344 56.843594 55.682344 56.843594 
z
" style="fill: #ffffff; opacity: 0.8; stroke: #cccccc; stroke-linejoin: miter"/>
    </g>
    <g id="line2d_18">
     <path d="M 57.682344 46.94125 
L 67.682344 46.94125 
L 77.682344 46.94125 
" style="fill: none; stroke: #1f77b4; stroke-width: 1.5; stroke-linecap: square"/>
    </g>
    <g id="text_10">
     <!-- $v_1$ -->
     <g transform="translate(85.682344 50.44125) scale(0.1 -0.1)">
      <use xlink:href="#DejaVuSans-Oblique-59" transform="translate(0 0.3125)"/>
      <use xlink:href="#DejaVuSans-14" transform="translate(59.179688 -14.687451) scale(0.7)"/>
     </g>
    </g>
   </g>
  </g>
  <g id="axes_2">
   <g id="patch_8">
    <path d="M 48.682344 361.077656 
L 493.2 361.077656 
L 493.2 211.360234 
L 48.682344 211.360234 
z
" style="fill: #ffffff"/>
   </g>
   <g id="matplotlib.axis_3">
    <g id="xtick_6">
     <g id="line2d_19">
      <path d="M 68.887688 361.077656 
L 68.887688 211.360234 
" clip-path="url(#pee2d403c97)" style="fill: none; stroke: #b0b0b0; stroke-width: 0.8; stroke-linecap: square"/>
     </g>
     <g id="line2d_20">
      <g>
       <use xlink:href="#mf4ec64d379" x="68.887688" y="361.077656" style="stroke: #000000; stroke-width: 0.8"/>
      </g>
     </g>
     <g id="text_11">
      <!-- 0 -->
      <g transform="translate(65.706438 375.675313) scale(0.1 -0.1)">
       <use xlink:href="#DejaVuSans-13"/>
      </g>
     </g>
    </g>
    <g id="xtick_7">
     <g id="line2d_21">
      <path d="M 155.856357 361.077656 
L 155.856357 211.360234 
" clip-path="url(#pee2d403c97)" style="fill: none; stroke: #b0b0b0; stroke-width: 0.8; stroke-linecap: square"/>
     </g>
     <g id="line2d_22">
      <g>
       <use xlink:href="#mf4ec64d379" x="155.856357" y="361.077656" style="stroke: #000000; stroke-width: 0.8"/>
      </g>
     </g>
     <g id="text_12">
      <!-- 10 -->
      <g transform="translate(149.493857 375.675313) scale(0.1 -0.1)">
       <use xlink:href="#DejaVuSans-14"/>
       <use xlink:href="#DejaVuSans-13" transform="translate(63.625 0)"/>
      </g>
     </g>
    </g>
    <g id="xtick_8">
     <g id="line2d_23">
      <path d="M 242.825025 361.077656 
L 242.825025 211.360234 
" clip-path="url(#pee2d403c97)" style="fill: none; stroke: #b0b0b0; stroke-width: 0.8; stroke-linecap: square"/>
     </g>
     <g id="line2d_24">
      <g>
       <use xlink:href="#mf4ec64d379" x="242.825025" y="361.077656" style="stroke: #000000; stroke-width: 0.8"/>
      </g>
     </g>
     <g id="text_13">
      <!-- 20 -->
      <g transform="translate(236.462525 375.675313) scale(0.1 -0.1)">
       <use xlink:href="#DejaVuSans-15"/>
       <use xlink:href="#DejaVuSans-13" transform="translate(63.625 0)"/>
      </g>
     </g>
    </g>
    <g id="xtick_9">
     <g id="line2d_25">
      <path d="M 329.793694 361.077656 
L 329.793694 211.360234 
" clip-path="url(#pee2d403c97)" style="fill: none; stroke: #b0b0b0; stroke-width: 0.8; stroke-linecap: square"/>
     </g>
     <g id="line2d_26">
      <g>
       <use xlink:href="#mf4ec64d379" x="329.793694" y="361.077656" style="stroke: #000000; stroke-width: 0.8"/>
      </g>
     </g>
     <g id="text_14">
      <!-- 30 -->
      <g transform="translate(323.431194 375.675313) scale(0.1 -0.1)">
       <use xlink:href="#DejaVuSans-16"/>
       <use xlink:href="#DejaVuSans-13" transform="translate(63.625 0)"/>
      </g>
     </g>
    </g>
    <g id="xtick_10">
     <g id="line2d_27">
      <path d="M 416.762362 361.077656 
L 416.762362 211.360234 
" clip-path="url(#pee2d403c97)" style="fill: none; stroke: #b0b0b0; stroke-width: 0.8; stroke-linecap: square"/>
     </g>
     <g id="line2d_28">
      <g>
       <use xlink:href="#mf4ec64d379" x="416.762362" y="361.077656" style="stroke: #000000; stroke-width: 0.8"/>
      </g>
     </g>
     <g id="text_15">
      <!-- 40 -->
      <g transform="translate(410.399862 375.675313) scale(0.1 -0.1)">
       <use xlink:href="#DejaVuSans-17"/>
       <use xlink:href="#DejaVuSans-13" transform="translate(63.625 0)"/>
      </g>
     </g>
    </g>
    <g id="text_16">
     <!-- Time [s] -->
     <g transform="translate(250.609922 389.676094) scale(0.1 -0.1)">
      <defs>
       <path id="DejaVuSans-37" d="M -19 4666 
L 3928 4666 
L 3928 4134 
L 2272 4134 
L 2272 0 
L 1638 0 
L 1638 4134 
L -19 4134 
L -19 4666 
z
" transform="scale(0.015625)"/>
       <path id="DejaVuSans-4c" d="M 603 3500 
L 1178 3500 
L 1178 0 
L 603 0 
L 603 3500 
z
M 603 4863 
L 1178 4863 
L 1178 4134 
L 603 4134 
L 603 4863 
z
" transform="scale(0.015625)"/>
       <path id="DejaVuSans-50" d="M 3328 2828 
Q 3544 3216 3844 3400 
Q 4144 3584 4550 3584 
Q 5097 3584 5394 3201 
Q 5691 2819 5691 2113 
L 5691 0 
L 5113 0 
L 5113 2094 
Q 5113 2597 4934 2840 
Q 4756 3084 4391 3084 
Q 3944 3084 3684 2787 
Q 3425 2491 3425 1978 
L 3425 0 
L 2847 0 
L 2847 2094 
Q 2847 2600 2669 2842 
Q 2491 3084 2119 3084 
Q 1678 3084 1418 2786 
Q 1159 2488 1159 1978 
L 1159 0 
L 581 0 
L 581 3500 
L 1159 3500 
L 1159 2956 
Q 1356 3278 1631 3431 
Q 1906 3584 2284 3584 
Q 2666 3584 2933 3390 
Q 3200 3197 3328 2828 
z
" transform="scale(0.015625)"/>
       <path id="DejaVuSans-48" d="M 3597 1894 
L 3597 1613 
L 953 1613 
Q 991 1019 1311 708 
Q 1631 397 2203 397 
Q 2534 397 2845 478 
Q 3156 559 3463 722 
L 3463 178 
Q 3153 47 2828 -22 
Q 2503 -91 2169 -91 
Q 1331 -91 842 396 
Q 353 884 353 1716 
Q 353 2575 817 3079 
Q 1281 3584 2069 3584 
Q 2775 3584 3186 3129 
Q 3597 2675 3597 1894 
z
M 3022 2063 
Q 3016 2534 2758 2815 
Q 2500 3097 2075 3097 
Q 1594 3097 1305 2825 
Q 1016 2553 972 2059 
L 3022 2063 
z
" transform="scale(0.015625)"/>
       <path id="DejaVuSans-56" d="M 2834 3397 
L 2834 2853 
Q 2591 2978 2328 3040 
Q 2066 3103 1784 3103 
Q 1356 3103 1142 2972 
Q 928 2841 928 2578 
Q 928 2378 1081 2264 
Q 1234 2150 1697 2047 
L 1894 2003 
Q 2506 1872 2764 1633 
Q 3022 1394 3022 966 
Q 3022 478 2636 193 
Q 2250 -91 1575 -91 
Q 1294 -91 989 -36 
Q 684 19 347 128 
L 347 722 
Q 666 556 975 473 
Q 1284 391 1588 391 
Q 1994 391 2212 530 
Q 2431 669 2431 922 
Q 2431 1156 2273 1281 
Q 2116 1406 1581 1522 
L 1381 1569 
Q 847 1681 609 1914 
Q 372 2147 372 2553 
Q 372 3047 722 3315 
Q 1072 3584 1716 3584 
Q 2034 3584 2315 3537 
Q 2597 3491 2834 3397 
z
" transform="scale(0.015625)"/>
      </defs>
      <use xlink:href="#DejaVuSans-37"/>
      <use xlink:href="#DejaVuSans-4c" transform="translate(58 0)"/>
      <use xlink:href="#DejaVuSans-50" transform="translate(85.78125 0)"/>
      <use xlink:href="#DejaVuSans-48" transform="translate(183.1875 0)"/>
      <use xlink:href="#DejaVuSans-3" transform="translate(244.71875 0)"/>
      <use xlink:href="#DejaVuSans-3e" transform="translate(276.5 0)"/>
      <use xlink:href="#DejaVuSans-56" transform="translate(315.515625 0)"/>
      <use xlink:href="#DejaVuSans-40" transform="translate(367.609375 0)"/>
     </g>
    </g>
   </g>
   <g id="matplotlib.axis_4">
    <g id="ytick_4">
     <g id="line2d_29">
      <path d="M 48.682344 351.37966 
L 493.2 351.37966 
" clip-path="url(#pee2d403c97)" style="fill: none; stroke: #b0b0b0; stroke-width: 0.8; stroke-linecap: square"/>
     </g>
     <g id="line2d_30">
      <g>
       <use xlink:href="#me24653b2fd" x="48.682344" y="351.37966" style="stroke: #000000; stroke-width: 0.8"/>
      </g>
     </g>
     <g id="text_17">
      <!-- −2 -->
      <g transform="translate(26.940156 355.178488) scale(0.1 -0.1)">
       <use xlink:href="#DejaVuSans-c9c"/>
       <use xlink:href="#DejaVuSans-15" transform="translate(83.796875 0)"/>
      </g>
     </g>
    </g>
    <g id="ytick_5">
     <g id="line2d_31">
      <path d="M 48.682344 319.139561 
L 493.2 319.139561 
" clip-path="url(#pee2d403c97)" style="fill: none; stroke: #b0b0b0; stroke-width: 0.8; stroke-linecap: square"/>
     </g>
     <g id="line2d_32">
      <g>
       <use xlink:href="#me24653b2fd" x="48.682344" y="319.139561" style="stroke: #000000; stroke-width: 0.8"/>
      </g>
     </g>
     <g id="text_18">
      <!-- −1 -->
      <g transform="translate(26.940156 322.938389) scale(0.1 -0.1)">
       <use xlink:href="#DejaVuSans-c9c"/>
       <use xlink:href="#DejaVuSans-14" transform="translate(83.796875 0)"/>
      </g>
     </g>
    </g>
    <g id="ytick_6">
     <g id="line2d_33">
      <path d="M 48.682344 286.899462 
L 493.2 286.899462 
" clip-path="url(#pee2d403c97)" style="fill: none; stroke: #b0b0b0; stroke-width: 0.8; stroke-linecap: square"/>
     </g>
     <g id="line2d_34">
      <g>
       <use xlink:href="#me24653b2fd" x="48.682344" y="286.899462" style="stroke: #000000; stroke-width: 0.8"/>
      </g>
     </g>
     <g id="text_19">
      <!-- 0 -->
      <g transform="translate(35.319844 290.69829) scale(0.1 -0.1)">
       <use xlink:href="#DejaVuSans-13"/>
      </g>
     </g>
    </g>
    <g id="ytick_7">
     <g id="line2d_35">
      <path d="M 48.682344 254.659364 
L 493.2 254.659364 
" clip-path="url(#pee2d403c97)" style="fill: none; stroke: #b0b0b0; stroke-width: 0.8; stroke-linecap: square"/>
     </g>
     <g id="line2d_36">
      <g>
       <use xlink:href="#me24653b2fd" x="48.682344" y="254.659364" style="stroke: #000000; stroke-width: 0.8"/>
      </g>
     </g>
     <g id="text_20">
      <!-- 1 -->
      <g transform="translate(35.319844 258.458192) scale(0.1 -0.1)">
       <use xlink:href="#DejaVuSans-14"/>
      </g>
     </g>
    </g>
    <g id="ytick_8">
     <g id="line2d_37">
      <path d="M 48.682344 222.419265 
L 493.2 222.419265 
" clip-path="url(#pee2d403c97)" style="fill: none; stroke: #b0b0b0; stroke-width: 0.8; stroke-linecap: square"/>
     </g>
     <g id="line2d_38">
      <g>
       <use xlink:href="#me24653b2fd" x="48.682344" y="222.419265" style="stroke: #000000; stroke-width: 0.8"/>
      </g>
     </g>
     <g id="text_21">
      <!-- 2 -->
      <g transform="translate(35.319844 226.218093) scale(0.1 -0.1)">
       <use xlink:href="#DejaVuSans-15"/>
      </g>
     </g>
    </g>
    <g id="text_22">
     <!-- $v_2$ [$m/s^2$] -->
     <g transform="translate(20.537813 308.818945) rotate(-90) scale(0.1 -0.1)">
      <use xlink:href="#DejaVuSans-Oblique-59" transform="translate(0 0.746875)"/>
      <use xlink:href="#DejaVuSans-15" transform="translate(59.179688 -14.253076) scale(0.7)"/>
      <use xlink:href="#DejaVuSans-3" transform="translate(106.450195 0.746875)"/>
      <use xlink:href="#DejaVuSans-3e" transform="translate(138.237305 0.746875)"/>
      <use xlink:href="#DejaVuSans-Oblique-50" transform="translate(177.250977 0.746875)"/>
      <use xlink:href="#DejaVuSans-12" transform="translate(274.663086 0.746875)"/>
      <use xlink:href="#DejaVuSans-Oblique-56" transform="translate(308.354492 0.746875)"/>
      <use xlink:href="#DejaVuSans-15" transform="translate(365.103997 42.046875) scale(0.7)"/>
      <use xlink:href="#DejaVuSans-40" transform="translate(412.374505 0.746875)"/>
     </g>
    </g>
   </g>
   <g id="line2d_39">
    <path d="M 68.887692 286.89947 
L 117.564548 286.89947 
L 118.434049 286.71437 
L 119.303865 286.280147 
L 120.463967 286.178723 
L 121.62435 292.098653 
L 122.783128 326.853287 
L 124.234497 340.529867 
L 125.111936 337.000506 
L 125.973986 329.876459 
L 126.843278 320.413604 
L 127.713345 325.279869 
L 128.583841 258.042744 
L 129.462504 261.695566 
L 130.3443 252.537666 
L 131.196144 245.623073 
L 132.355235 239.865458 
L 133.514716 330.278862 
L 134.385108 327.668639 
L 135.254303 321.808922 
L 136.124507 314.962121 
L 136.993797 321.714981 
L 138.733212 309.856738 
L 139.603983 270.940839 
L 140.478953 273.49887 
L 141.632992 264.401634 
L 142.214263 260.864445 
L 143.083719 256.535204 
L 143.952863 253.593131 
L 144.821904 252.092216 
L 145.690768 251.9189 
L 146.270385 252.941086 
L 147.722069 257.233993 
L 149.171659 256.975411 
L 150.620908 257.030752 
L 151.491799 258.066091 
L 152.362804 259.955665 
L 153.233677 262.937041 
L 154.101173 282.773858 
L 154.973892 285.768846 
L 155.841268 283.600098 
L 156.708822 260.064614 
L 157.579223 259.492298 
L 158.448368 290.438932 
L 159.318456 288.150174 
L 159.898128 294.658483 
L 161.056915 270.650764 
L 162.216602 294.928443 
L 162.796179 294.943943 
L 163.375772 291.845441 
L 163.955723 292.661163 
L 165.115267 301.221782 
L 165.695015 303.965456 
L 166.274873 305.156398 
L 166.85474 305.156561 
L 167.435077 304.214547 
L 168.014347 302.97522 
L 168.594268 301.188156 
L 170.334195 294.081894 
L 170.915093 292.198969 
L 171.492996 290.733871 
L 172.07283 289.643162 
L 172.653937 288.857025 
L 173.23261 288.297961 
L 174.392549 287.618114 
L 174.974544 287.450016 
L 177.581297 287.879552 
L 178.450922 298.812031 
L 179.610523 340.01219 
L 180.770033 354.272319 
L 181.639926 347.195152 
L 182.509547 336.374346 
L 183.379054 322.754447 
L 184.248915 247.878817 
L 185.119453 252.502506 
L 185.988139 243.22716 
L 187.147999 235.019046 
L 188.307889 335.71319 
L 189.177999 331.75069 
L 190.04665 324.964181 
L 190.916304 317.040927 
L 191.786311 323.274722 
L 192.656141 316.144304 
L 193.526696 265.576783 
L 194.395439 268.472849 
L 195.265229 260.66541 
L 195.844517 256.497452 
L 196.714836 251.495521 
L 197.873771 247.298307 
L 199.033397 246.064056 
L 199.903555 247.268267 
L 200.482933 250.111553 
L 201.062579 250.075262 
L 202.222995 249.775413 
L 203.092084 250.521449 
L 203.671893 251.410215 
L 204.251406 252.905827 
L 204.831201 255.122968 
L 205.411122 258.153228 
L 206.570299 290.535348 
L 207.440589 292.640453 
L 208.020042 267.919242 
L 208.599788 265.292692 
L 209.179771 290.285903 
L 210.049559 297.708425 
L 210.629159 292.310496 
L 211.208883 279.109286 
L 211.78883 281.611209 
L 212.658275 298.333785 
L 213.238377 303.562482 
L 214.397689 302.482683 
L 214.977518 303.912455 
L 215.558568 305.949797 
L 216.137068 307.025605 
L 216.71694 307.650014 
L 217.296947 306.026971 
L 218.456571 299.618707 
L 219.615873 293.731235 
L 221.065342 288.947718 
L 221.935273 286.860227 
L 222.514759 286.712934 
L 224.254692 287.938266 
L 225.123769 287.923416 
L 225.993718 287.236833 
L 226.863713 286.231191 
L 228.025313 285.165557 
L 229.182578 274.56114 
L 230.922614 224.30127 
L 231.791924 224.574204 
L 232.661176 258.994929 
L 233.531178 307.528636 
L 234.401543 326.083888 
L 236.430358 238.895409 
L 237.300777 243.781399 
L 238.169286 240.966381 
L 239.039611 250.382134 
L 239.90914 312.916896 
L 241.068619 305.211225 
L 241.647998 312.354935 
L 242.517894 321.53037 
L 243.387961 328.459157 
L 244.257281 332.935531 
L 245.127595 334.961566 
L 245.998776 334.691961 
L 246.866676 331.975234 
L 248.025914 331.62471 
L 248.895467 330.419937 
L 249.475862 329.023978 
L 250.345719 325.099934 
L 251.215469 319.280797 
L 252.085783 280.536442 
L 252.954624 283.643993 
L 253.534099 275.607583 
L 254.404014 306.803586 
L 255.274242 319.026233 
L 256.143155 277.391895 
L 257.013693 248.00759 
L 257.882669 240.324074 
L 258.752445 264.841918 
L 259.622124 281.401399 
L 260.491462 287.412732 
L 261.651019 276.269162 
L 262.520831 272.521674 
L 263.390827 275.658938 
L 264.260863 283.309539 
L 264.839666 286.262377 
L 265.42153 286.39837 
L 266.289462 285.437748 
L 266.869171 285.074667 
L 267.449101 285.221382 
L 269.18842 286.345854 
L 270.348041 286.684312 
L 272.667292 286.885765 
L 274.406551 287.648362 
L 275.567994 284.296922 
L 276.726153 314.754872 
L 277.595638 350.064362 
L 278.755471 352.428752 
L 279.625063 343.716498 
L 280.494416 296.996339 
L 281.654448 241.791645 
L 282.813932 242.964005 
L 283.973968 240.823662 
L 284.842973 335.913012 
L 285.713116 336.042284 
L 286.583054 326.892302 
L 287.452329 330.505492 
L 288.322343 321.985478 
L 289.191457 261.093939 
L 290.351318 267.999499 
L 291.22133 258.551562 
L 292.090734 250.972531 
L 292.961105 245.518479 
L 293.829573 242.300934 
L 294.699386 241.301789 
L 295.5693 242.287374 
L 296.439293 244.514674 
L 297.598704 245.208851 
L 298.178553 245.746437 
L 298.757858 246.712531 
L 299.337681 248.280415 
L 299.917432 250.617186 
L 300.78735 256.129892 
L 301.657695 291.926459 
L 302.526908 288.984271 
L 303.396259 279.28816 
L 304.284358 253.387726 
L 305.140499 280.861745 
L 306.01126 300.315515 
L 306.881049 306.063937 
L 307.749769 298.280567 
L 308.61937 283.114301 
L 309.489834 287.859273 
L 310.068877 299.745322 
L 310.648863 307.099772 
L 311.22825 308.586527 
L 311.8081 306.996267 
L 312.388013 304.087694 
L 313.258084 297.072175 
L 313.840066 293.643908 
L 314.70714 290.498026 
L 315.287289 289.674732 
L 315.867555 289.57812 
L 316.737093 289.241823 
L 319.055634 287.595941 
L 320.22154 287.213354 
L 321.95495 286.82174 
L 323.984006 285.763312 
L 325.143371 272.479244 
L 326.303313 228.296872 
L 327.75284 219.412608 
L 328.623102 227.226166 
L 329.491855 238.888908 
L 330.361712 237.827348 
L 331.231289 323.4924 
L 332.101587 318.741186 
L 332.972108 330.10009 
L 334.130914 340.674193 
L 335.289904 235.008954 
L 336.161282 234.335416 
L 337.029548 242.463158 
L 337.899153 252.265194 
L 338.768849 247.61975 
L 339.638875 256.607501 
L 340.508356 307.398867 
L 341.378305 303.84738 
L 342.827861 318.568299 
L 343.697325 324.87398 
L 344.567243 329.041886 
L 345.436587 331.098454 
L 346.306547 331.114906 
L 347.176334 329.340924 
L 348.045355 327.919783 
L 349.495347 326.175868 
L 350.365111 324.219079 
L 351.234796 321.098156 
L 351.813901 318.480646 
L 352.683854 312.942938 
L 353.553753 286.7194 
L 354.133438 286.446719 
L 355.006514 306.415665 
L 355.877347 319.157763 
L 356.456633 289.291339 
L 358.19723 274.042049 
L 359.065898 303.320389 
L 359.936387 316.145681 
L 360.805295 278.434625 
L 361.383917 264.759272 
L 362.253694 264.085345 
L 363.123315 272.968717 
L 363.702891 275.065474 
L 365.154922 269.443848 
L 365.732043 269.511648 
L 368.054002 283.017327 
L 368.920854 286.406115 
L 369.502866 286.558844 
L 370.371958 285.484846 
L 371.241021 284.719807 
L 371.820379 284.967051 
L 372.40052 285.570348 
L 373.269876 286.704593 
L 374.428872 288.41434 
L 375.589815 289.314708 
L 376.748284 305.129697 
L 377.908417 349.640578 
L 379.068794 353.892487 
L 379.938442 345.517208 
L 380.808338 333.674965 
L 381.676813 244.733197 
L 382.83678 247.951023 
L 383.995836 236.743411 
L 385.44539 337.509038 
L 386.315078 338.259472 
L 387.185128 329.399654 
L 388.054218 319.06327 
L 388.9239 324.046823 
L 389.793725 314.729727 
L 390.953603 272.564649 
L 391.823671 276.208157 
L 392.693171 266.16749 
L 393.562613 257.616587 
L 394.431958 250.909089 
L 395.302214 246.24759 
L 396.462744 242.890586 
L 397.332072 242.913707 
L 398.490631 245.621924 
L 399.360321 245.572962 
L 400.229969 246.238989 
L 401.099767 247.938997 
L 401.969325 250.903806 
L 402.839124 255.341313 
L 403.708862 261.353552 
L 404.578388 285.907059 
L 405.448594 283.007382 
L 406.317898 293.384295 
L 407.187436 253.274254 
L 408.057118 249.812962 
L 408.926739 298.325092 
L 409.796488 295.060896 
L 410.666032 304.048284 
L 411.535704 282.241845 
L 412.405948 273.504876 
L 413.857148 308.980369 
L 414.435081 311.609159 
L 415.304588 307.16407 
L 416.17696 298.413318 
L 417.044449 291.516689 
L 417.914435 289.158249 
L 418.784327 290.525412 
L 419.362769 291.729813 
L 419.94525 291.866464 
L 420.522658 291.155218 
L 421.683079 289.101066 
L 422.262224 288.327226 
L 422.841735 287.8124 
L 423.712016 287.204728 
L 425.451027 286.51396 
L 426.320479 286.32269 
L 427.480099 289.454412 
L 428.350022 276.797264 
L 429.219768 247.752466 
L 430.380411 218.165572 
L 431.250336 223.626563 
L 432.11996 233.69969 
L 432.990805 296.63031 
L 434.151139 329.749314 
L 435.017724 332.641478 
L 436.177154 303.286069 
L 437.339118 236.087654 
L 438.208345 238.840879 
L 439.07716 247.957209 
L 439.947462 244.111198 
L 441.68695 261.664169 
L 442.55692 301.89808 
L 443.426378 298.206989 
L 444.584688 311.427912 
L 445.453911 319.446001 
L 446.323856 325.462774 
L 447.193726 329.36268 
L 448.063493 331.128189 
L 448.932812 330.935686 
L 449.514822 329.28763 
L 450.384886 327.365837 
L 451.252397 326.867158 
L 452.411337 325.403686 
L 452.993635 324.186383 
L 453.571824 322.417913 
L 454.440965 318.11816 
L 455.310605 309.280181 
L 456.180428 287.576761 
L 457.05099 289.452114 
L 457.91969 279.09506 
L 458.789743 321.455445 
L 459.65925 324.875839 
L 460.528924 274.013638 
L 461.398395 277.196443 
L 461.978101 268.053877 
L 463.137654 283.13943 
L 464.007416 282.92735 
L 465.169841 268.855705 
L 466.037342 264.115689 
L 466.616495 265.198899 
L 467.197534 267.581691 
L 468.646924 276.641804 
L 469.518378 284.334258 
L 470.387829 287.622101 
L 471.255629 287.2823 
L 472.125886 286.227418 
L 472.994652 285.898717 
L 472.994652 285.898717 
" clip-path="url(#pee2d403c97)" style="fill: none; stroke: #1f77b4; stroke-width: 1.5; stroke-linecap: square"/>
   </g>
   <g id="patch_9">
    <path d="M 48.682344 361.077656 
L 48.682344 211.360234 
" style="fill: none; stroke: #000000; stroke-width: 0.8; stroke-linejoin: miter; stroke-linecap: square"/>
   </g>
   <g id="patch_10">
    <path d="M 493.2 361.077656 
L 493.2 211.360234 
" style="fill: none; stroke: #000000; stroke-width: 0.8; stroke-linejoin: miter; stroke-linecap: square"/>
   </g>
   <g id="patch_11">
    <path d="M 48.682344 361.077656 
L 493.2 361.077656 
" style="fill: none; stroke: #000000; stroke-width: 0.8; stroke-linejoin: miter; stroke-linecap: square"/>
   </g>
   <g id="patch_12">
    <path d="M 48.682344 211.360234 
L 493.2 211.360234 
" style="fill: none; stroke: #000000; stroke-width: 0.8; stroke-linejoin: miter; stroke-linecap: square"/>
   </g>
   <g id="legend_2">
    <g id="patch_13">
     <path d="M 443.5 234.361016 
L 486.2 234.361016 
Q 488.2 234.361016 488.2 232.361016 
L 488.2 218.360234 
Q 488.2 216.360234 486.2 216.360234 
L 443.5 216.360234 
Q 441.5 216.360234 441.5 218.360234 
L 441.5 232.361016 
Q 441.5 234.361016 443.5 234.361016 
z
" style="fill: #ffffff; opacity: 0.8; stroke: #cccccc; stroke-linejoin: miter"/>
    </g>
    <g id="line2d_40">
     <path d="M 445.5 224.458672 
L 455.5 224.458672 
L 465.5 224.458672 
" style="fill: none; stroke: #1f77b4; stroke-width: 1.5; stroke-linecap: square"/>
    </g>
    <g id="text_23">
     <!-- $v_2$ -->
     <g transform="translate(473.5 227.958672) scale(0.1 -0.1)">
      <use xlink:href="#DejaVuSans-Oblique-59" transform="translate(0 0.3125)"/>
      <use xlink:href="#DejaVuSans-15" transform="translate(59.179688 -14.687451) scale(0.7)"/>
     </g>
    </g>
   </g>
  </g>
  <g id="text_24">
   <!-- OAMPC Virtual Inputs -->
   <g transform="translate(188.213437 17.182125) scale(0.12 -0.12)">
    <defs>
     <path id="DejaVuSans-32" d="M 2522 4238 
Q 1834 4238 1429 3725 
Q 1025 3213 1025 2328 
Q 1025 1447 1429 934 
Q 1834 422 2522 422 
Q 3209 422 3611 934 
Q 4013 1447 4013 2328 
Q 4013 3213 3611 3725 
Q 3209 4238 2522 4238 
z
M 2522 4750 
Q 3503 4750 4090 4092 
Q 4678 3434 4678 2328 
Q 4678 1225 4090 567 
Q 3503 -91 2522 -91 
Q 1538 -91 948 565 
Q 359 1222 359 2328 
Q 359 3434 948 4092 
Q 1538 4750 2522 4750 
z
" transform="scale(0.015625)"/>
     <path id="DejaVuSans-24" d="M 2188 4044 
L 1331 1722 
L 3047 1722 
L 2188 4044 
z
M 1831 4666 
L 2547 4666 
L 4325 0 
L 3669 0 
L 3244 1197 
L 1141 1197 
L 716 0 
L 50 0 
L 1831 4666 
z
" transform="scale(0.015625)"/>
     <path id="DejaVuSans-30" d="M 628 4666 
L 1569 4666 
L 2759 1491 
L 3956 4666 
L 4897 4666 
L 4897 0 
L 4281 0 
L 4281 4097 
L 3078 897 
L 2444 897 
L 1241 4097 
L 1241 0 
L 628 0 
L 628 4666 
z
" transform="scale(0.015625)"/>
     <path id="DejaVuSans-33" d="M 1259 4147 
L 1259 2394 
L 2053 2394 
Q 2494 2394 2734 2622 
Q 2975 2850 2975 3272 
Q 2975 3691 2734 3919 
Q 2494 4147 2053 4147 
L 1259 4147 
z
M 628 4666 
L 2053 4666 
Q 2838 4666 3239 4311 
Q 3641 3956 3641 3272 
Q 3641 2581 3239 2228 
Q 2838 1875 2053 1875 
L 1259 1875 
L 1259 0 
L 628 0 
L 628 4666 
z
" transform="scale(0.015625)"/>
     <path id="DejaVuSans-26" d="M 4122 4306 
L 4122 3641 
Q 3803 3938 3442 4084 
Q 3081 4231 2675 4231 
Q 1875 4231 1450 3742 
Q 1025 3253 1025 2328 
Q 1025 1406 1450 917 
Q 1875 428 2675 428 
Q 3081 428 3442 575 
Q 3803 722 4122 1019 
L 4122 359 
Q 3791 134 3420 21 
Q 3050 -91 2638 -91 
Q 1578 -91 968 557 
Q 359 1206 359 2328 
Q 359 3453 968 4101 
Q 1578 4750 2638 4750 
Q 3056 4750 3426 4639 
Q 3797 4528 4122 4306 
z
" transform="scale(0.015625)"/>
     <path id="DejaVuSans-39" d="M 1831 0 
L 50 4666 
L 709 4666 
L 2188 738 
L 3669 4666 
L 4325 4666 
L 2547 0 
L 1831 0 
z
" transform="scale(0.015625)"/>
     <path id="DejaVuSans-55" d="M 2631 2963 
Q 2534 3019 2420 3045 
Q 2306 3072 2169 3072 
Q 1681 3072 1420 2755 
Q 1159 2438 1159 1844 
L 1159 0 
L 581 0 
L 581 3500 
L 1159 3500 
L 1159 2956 
Q 1341 3275 1631 3429 
Q 1922 3584 2338 3584 
Q 2397 3584 2469 3576 
Q 2541 3569 2628 3553 
L 2631 2963 
z
" transform="scale(0.015625)"/>
     <path id="DejaVuSans-57" d="M 1172 4494 
L 1172 3500 
L 2356 3500 
L 2356 3053 
L 1172 3053 
L 1172 1153 
Q 1172 725 1289 603 
Q 1406 481 1766 481 
L 2356 481 
L 2356 0 
L 1766 0 
Q 1100 0 847 248 
Q 594 497 594 1153 
L 594 3053 
L 172 3053 
L 172 3500 
L 594 3500 
L 594 4494 
L 1172 4494 
z
" transform="scale(0.015625)"/>
     <path id="DejaVuSans-58" d="M 544 1381 
L 544 3500 
L 1119 3500 
L 1119 1403 
Q 1119 906 1312 657 
Q 1506 409 1894 409 
Q 2359 409 2629 706 
Q 2900 1003 2900 1516 
L 2900 3500 
L 3475 3500 
L 3475 0 
L 2900 0 
L 2900 538 
Q 2691 219 2414 64 
Q 2138 -91 1772 -91 
Q 1169 -91 856 284 
Q 544 659 544 1381 
z
M 1991 3584 
L 1991 3584 
z
" transform="scale(0.015625)"/>
     <path id="DejaVuSans-44" d="M 2194 1759 
Q 1497 1759 1228 1600 
Q 959 1441 959 1056 
Q 959 750 1161 570 
Q 1363 391 1709 391 
Q 2188 391 2477 730 
Q 2766 1069 2766 1631 
L 2766 1759 
L 2194 1759 
z
M 3341 1997 
L 3341 0 
L 2766 0 
L 2766 531 
Q 2569 213 2275 61 
Q 1981 -91 1556 -91 
Q 1019 -91 701 211 
Q 384 513 384 1019 
Q 384 1609 779 1909 
Q 1175 2209 1959 2209 
L 2766 2209 
L 2766 2266 
Q 2766 2663 2505 2880 
Q 2244 3097 1772 3097 
Q 1472 3097 1187 3025 
Q 903 2953 641 2809 
L 641 3341 
Q 956 3463 1253 3523 
Q 1550 3584 1831 3584 
Q 2591 3584 2966 3190 
Q 3341 2797 3341 1997 
z
" transform="scale(0.015625)"/>
     <path id="DejaVuSans-4f" d="M 603 4863 
L 1178 4863 
L 1178 0 
L 603 0 
L 603 4863 
z
" transform="scale(0.015625)"/>
     <path id="DejaVuSans-2c" d="M 628 4666 
L 1259 4666 
L 1259 0 
L 628 0 
L 628 4666 
z
" transform="scale(0.015625)"/>
     <path id="DejaVuSans-51" d="M 3513 2113 
L 3513 0 
L 2938 0 
L 2938 2094 
Q 2938 2591 2744 2837 
Q 2550 3084 2163 3084 
Q 1697 3084 1428 2787 
Q 1159 2491 1159 1978 
L 1159 0 
L 581 0 
L 581 3500 
L 1159 3500 
L 1159 2956 
Q 1366 3272 1645 3428 
Q 1925 3584 2291 3584 
Q 2894 3584 3203 3211 
Q 3513 2838 3513 2113 
z
" transform="scale(0.015625)"/>
     <path id="DejaVuSans-53" d="M 1159 525 
L 1159 -1331 
L 581 -1331 
L 581 3500 
L 1159 3500 
L 1159 2969 
Q 1341 3281 1617 3432 
Q 1894 3584 2278 3584 
Q 2916 3584 3314 3078 
Q 3713 2572 3713 1747 
Q 3713 922 3314 415 
Q 2916 -91 2278 -91 
Q 1894 -91 1617 61 
Q 1341 213 1159 525 
z
M 3116 1747 
Q 3116 2381 2855 2742 
Q 2594 3103 2138 3103 
Q 1681 3103 1420 2742 
Q 1159 2381 1159 1747 
Q 1159 1113 1420 752 
Q 1681 391 2138 391 
Q 2594 391 2855 752 
Q 3116 1113 3116 1747 
z
" transform="scale(0.015625)"/>
    </defs>
    <use xlink:href="#DejaVuSans-32"/>
    <use xlink:href="#DejaVuSans-24" transform="translate(76.96875 0)"/>
    <use xlink:href="#DejaVuSans-30" transform="translate(145.375 0)"/>
    <use xlink:href="#DejaVuSans-33" transform="translate(231.65625 0)"/>
    <use xlink:href="#DejaVuSans-26" transform="translate(291.953125 0)"/>
    <use xlink:href="#DejaVuSans-3" transform="translate(361.78125 0)"/>
    <use xlink:href="#DejaVuSans-39" transform="translate(393.5625 0)"/>
    <use xlink:href="#DejaVuSans-4c" transform="translate(459.765625 0)"/>
    <use xlink:href="#DejaVuSans-55" transform="translate(487.546875 0)"/>
    <use xlink:href="#DejaVuSans-57" transform="translate(528.65625 0)"/>
    <use xlink:href="#DejaVuSans-58" transform="translate(567.859375 0)"/>
    <use xlink:href="#DejaVuSans-44" transform="translate(631.234375 0)"/>
    <use xlink:href="#DejaVuSans-4f" transform="translate(692.515625 0)"/>
    <use xlink:href="#DejaVuSans-3" transform="translate(720.296875 0)"/>
    <use xlink:href="#DejaVuSans-2c" transform="translate(752.078125 0)"/>
    <use xlink:href="#DejaVuSans-51" transform="translate(781.578125 0)"/>
    <use xlink:href="#DejaVuSans-53" transform="translate(844.953125 0)"/>
    <use xlink:href="#DejaVuSans-58" transform="translate(908.4375 0)"/>
    <use xlink:href="#DejaVuSans-57" transform="translate(971.8125 0)"/>
    <use xlink:href="#DejaVuSans-56" transform="translate(1011.015625 0)"/>
   </g>
  </g>
 </g>
 <defs>
  <clipPath id="p8e19c299b7">
   <rect x="48.682344" y="33.842813" width="444.517656" height="149.717422"/>
  </clipPath>
  <clipPath id="pee2d403c97">
   <rect x="48.682344" y="211.360234" width="444.517656" height="149.717422"/>
  </clipPath>
 </defs>
</svg>
