<?xml version="1.0" encoding="utf-8" standalone="no"?>
<!DOCTYPE svg PUBLIC "-//W3C//DTD SVG 1.1//EN"
  "http://www.w3.org/Graphics/SVG/1.1/DTD/svg11.dtd">
<svg xmlns:xlink="http://www.w3.org/1999/xlink" width="336.538564pt" height="337.72pt" viewBox="0 0 336.538564 337.72" xmlns="http://www.w3.org/2000/svg" version="1.1">
 <metadata>
  <rdf:RDF xmlns:dc="http://purl.org/dc/elements/1.1/" xmlns:cc="http://creativecommons.org/ns#" xmlns:rdf="http://www.w3.org/1999/02/22-rdf-syntax-ns#">
   <cc:Work>
    <dc:type rdf:resource="http://purl.org/dc/dcmitype/StillImage"/>
    <dc:date>2026-07-08T14:00:43.557812</dc:date>
    <dc:format>image/svg+xml</dc:format>
    <dc:creator>
     <cc:Agent>
      <dc:title>Matplotlib v3.11.0, https://matplotlib.org/</dc:title>
     </cc:Agent>
    </dc:creator>
   </cc:Work>
  </rdf:RDF>
 </metadata>
 <defs>
  <style type="text/css">*{stroke-linejoin: round; stroke-linecap: butt}</style>
 </defs>
 <g id="figure_1">
  <g id="patch_1">
   <path d="M 0 337.72 
L 336.538564 337.72 
L 336.538564 0 
L 0 0 
z
" style="fill: #ffffff"/>
  </g>
  <g id="axes_1">
   <g id="patch_2">
    <path d="M 52.482813 299.52 
L 329.338564 299.52 
L 329.338564 22.32 
L 52.482813 22.32 
z
" style="fill: #ffffff"/>
   </g>
   <g id="patch_3">
    <path d="M 134.569035 266.294023 
L 134.569035 55.545977 
L 247.252342 55.545977 
L 247.252342 266.294023 
z
" clip-path="url(#p80d1171906)" style="fill: #808080; fill-opacity: 0.2; stroke: #ff0000; stroke-width: 0.25; stroke-linejoin: miter"/>
   </g>
   <g id="patch_4">
    <path d="M 148.220173 272.524599 
L 121.806439 63.438365 
L 233.601204 49.315401 
L 260.014938 258.401635 
z
" clip-path="url(#p80d1171906)" style="fill: #808080; fill-opacity: 0.2; stroke: #ff0000; stroke-width: 0.25; stroke-linejoin: miter"/>
   </g>
   <g id="patch_5">
    <path d="M 162.544565 276.995103 
L 110.133658 72.868095 
L 219.276811 44.844897 
L 271.687719 248.971905 
z
" clip-path="url(#p80d1171906)" style="fill: #808080; fill-opacity: 0.2; stroke: #ff0000; stroke-width: 0.25; stroke-linejoin: miter"/>
   </g>
   <g id="patch_6">
    <path d="M 177.316309 279.635035 
L 99.734779 83.686457 
L 204.505068 42.204965 
L 282.086598 238.153543 
z
" clip-path="url(#p80d1171906)" style="fill: #808080; fill-opacity: 0.2; stroke: #ff0000; stroke-width: 0.25; stroke-linejoin: miter"/>
   </g>
   <g id="patch_7">
    <path d="M 192.302444 280.402759 
L 90.773798 95.722839 
L 189.518933 41.437241 
L 291.047578 226.117161 
z
" clip-path="url(#p80d1171906)" style="fill: #808080; fill-opacity: 0.2; stroke: #ff0000; stroke-width: 0.25; stroke-linejoin: miter"/>
   </g>
   <g id="patch_8">
    <path d="M 207.26663 279.286168 
L 83.392037 108.787418 
L 174.554747 42.553832 
L 298.42934 213.052582 
z
" clip-path="url(#p80d1171906)" style="fill: #808080; fill-opacity: 0.2; stroke: #ff0000; stroke-width: 0.25; stroke-linejoin: miter"/>
   </g>
   <g id="patch_9">
    <path d="M 221.972873 276.302873 
L 77.705908 122.674159 
L 159.848504 45.537127 
L 304.115468 199.165841 
z
" clip-path="url(#p80d1171906)" style="fill: #808080; fill-opacity: 0.2; stroke: #ff0000; stroke-width: 0.25; stroke-linejoin: miter"/>
   </g>
   <g id="patch_10">
    <path d="M 236.189247 271.49992 
L 73.805087 137.16406 
L 145.63213 50.34008 
L 308.01629 184.67594 
z
" clip-path="url(#p80d1171906)" style="fill: #808080; fill-opacity: 0.2; stroke: #ff0000; stroke-width: 0.25; stroke-linejoin: miter"/>
   </g>
   <g id="patch_11">
    <path d="M 249.691551 264.953056 
L 71.751091 152.028607 
L 132.129826 56.886944 
L 310.070286 169.811393 
z
" clip-path="url(#p80d1171906)" style="fill: #808080; fill-opacity: 0.2; stroke: #ff0000; stroke-width: 0.25; stroke-linejoin: miter"/>
   </g>
   <g id="patch_12">
    <path d="M 262.266845 256.765529 
L 71.576313 167.033376 
L 119.554531 65.074471 
L 310.245064 154.806624 
z
" clip-path="url(#p80d1171906)" style="fill: #808080; fill-opacity: 0.2; stroke: #ff0000; stroke-width: 0.25; stroke-linejoin: miter"/>
   </g>
   <g id="patch_13">
    <path d="M 273.716811 247.066461 
L 73.283509 181.941733 
L 108.104566 74.773539 
L 308.537868 139.898267 
z
" clip-path="url(#p80d1171906)" style="fill: #808080; fill-opacity: 0.2; stroke: #ff0000; stroke-width: 0.25; stroke-linejoin: miter"/>
   </g>
   <g id="patch_14">
    <path d="M 283.860874 236.008811 
L 76.845756 196.518565 
L 97.960502 85.831189 
L 304.975621 125.321435 
z
" clip-path="url(#p80d1171906)" style="fill: #808080; fill-opacity: 0.2; stroke: #ff0000; stroke-width: 0.25; stroke-linejoin: miter"/>
   </g>
   <g id="patch_15">
    <path d="M 292.539058 223.766966 
L 82.206875 210.533987 
L 89.282319 98.073034 
L 299.614501 111.306013 
z
" clip-path="url(#p80d1171906)" style="fill: #808080; fill-opacity: 0.2; stroke: #ff0000; stroke-width: 0.25; stroke-linejoin: miter"/>
   </g>
   <g id="patch_16">
    <path d="M 299.614501 210.533987 
L 89.282319 223.766966 
L 82.206875 111.306013 
L 292.539058 98.073034 
z
" clip-path="url(#p80d1171906)" style="fill: #808080; fill-opacity: 0.2; stroke: #ff0000; stroke-width: 0.25; stroke-linejoin: miter"/>
   </g>
   <g id="patch_17">
    <path d="M 304.975621 196.518565 
L 97.960502 236.008811 
L 76.845756 125.321435 
L 283.860874 85.831189 
z
" clip-path="url(#p80d1171906)" style="fill: #808080; fill-opacity: 0.2; stroke: #ff0000; stroke-width: 0.25; stroke-linejoin: miter"/>
   </g>
   <g id="patch_18">
    <path d="M 308.537868 181.941733 
L 108.104566 247.066461 
L 73.283509 139.898267 
L 273.716811 74.773539 
z
" clip-path="url(#p80d1171906)" style="fill: #808080; fill-opacity: 0.2; stroke: #ff0000; stroke-width: 0.25; stroke-linejoin: miter"/>
   </g>
   <g id="patch_19">
    <path d="M 310.245064 167.033376 
L 119.554531 256.765529 
L 71.576313 154.806624 
L 262.266845 65.074471 
z
" clip-path="url(#p80d1171906)" style="fill: #808080; fill-opacity: 0.2; stroke: #ff0000; stroke-width: 0.25; stroke-linejoin: miter"/>
   </g>
   <g id="patch_20">
    <path d="M 310.070286 152.028607 
L 132.129826 264.953056 
L 71.751091 169.811393 
L 249.691551 56.886944 
z
" clip-path="url(#p80d1171906)" style="fill: #808080; fill-opacity: 0.2; stroke: #ff0000; stroke-width: 0.25; stroke-linejoin: miter"/>
   </g>
   <g id="patch_21">
    <path d="M 308.01629 137.16406 
L 145.63213 271.49992 
L 73.805087 184.67594 
L 236.189247 50.34008 
z
" clip-path="url(#p80d1171906)" style="fill: #808080; fill-opacity: 0.2; stroke: #ff0000; stroke-width: 0.25; stroke-linejoin: miter"/>
   </g>
   <g id="patch_22">
    <path d="M 304.115468 122.674159 
L 159.848504 276.302873 
L 77.705908 199.165841 
L 221.972873 45.537127 
z
" clip-path="url(#p80d1171906)" style="fill: #808080; fill-opacity: 0.2; stroke: #ff0000; stroke-width: 0.25; stroke-linejoin: miter"/>
   </g>
   <g id="patch_23">
    <path d="M 298.42934 108.787418 
L 174.554747 279.286168 
L 83.392037 213.052582 
L 207.26663 42.553832 
z
" clip-path="url(#p80d1171906)" style="fill: #808080; fill-opacity: 0.2; stroke: #ff0000; stroke-width: 0.25; stroke-linejoin: miter"/>
   </g>
   <g id="patch_24">
    <path d="M 291.047578 95.722839 
L 189.518933 280.402759 
L 90.773798 226.117161 
L 192.302444 41.437241 
z
" clip-path="url(#p80d1171906)" style="fill: #808080; fill-opacity: 0.2; stroke: #ff0000; stroke-width: 0.25; stroke-linejoin: miter"/>
   </g>
   <g id="patch_25">
    <path d="M 282.086598 83.686457 
L 204.505068 279.635035 
L 99.734779 238.153543 
L 177.316309 42.204965 
z
" clip-path="url(#p80d1171906)" style="fill: #808080; fill-opacity: 0.2; stroke: #ff0000; stroke-width: 0.25; stroke-linejoin: miter"/>
   </g>
   <g id="patch_26">
    <path d="M 271.687719 72.868095 
L 219.276811 276.995103 
L 110.133658 248.971905 
L 162.544565 44.844897 
z
" clip-path="url(#p80d1171906)" style="fill: #808080; fill-opacity: 0.2; stroke: #ff0000; stroke-width: 0.25; stroke-linejoin: miter"/>
   </g>
   <g id="patch_27">
    <path d="M 260.014938 63.438365 
L 233.601204 272.524599 
L 121.806439 258.401635 
L 148.220173 49.315401 
z
" clip-path="url(#p80d1171906)" style="fill: #808080; fill-opacity: 0.2; stroke: #ff0000; stroke-width: 0.25; stroke-linejoin: miter"/>
   </g>
   <g id="patch_28">
    <path d="M 247.252342 55.545977 
L 247.252342 266.294023 
L 134.569035 266.294023 
L 134.569035 55.545977 
z
" clip-path="url(#p80d1171906)" style="fill: #808080; fill-opacity: 0.2; stroke: #ff0000; stroke-width: 0.25; stroke-linejoin: miter"/>
   </g>
   <g id="patch_29">
    <path d="M 233.601204 49.315401 
L 260.014938 258.401635 
L 148.220173 272.524599 
L 121.806439 63.438365 
z
" clip-path="url(#p80d1171906)" style="fill: #808080; fill-opacity: 0.2; stroke: #ff0000; stroke-width: 0.25; stroke-linejoin: miter"/>
   </g>
   <g id="patch_30">
    <path d="M 219.276811 44.844897 
L 271.687719 248.971905 
L 162.544565 276.995103 
L 110.133658 72.868095 
z
" clip-path="url(#p80d1171906)" style="fill: #808080; fill-opacity: 0.2; stroke: #ff0000; stroke-width: 0.25; stroke-linejoin: miter"/>
   </g>
   <g id="patch_31">
    <path d="M 204.505068 42.204965 
L 282.086598 238.153543 
L 177.316309 279.635035 
L 99.734779 83.686457 
z
" clip-path="url(#p80d1171906)" style="fill: #808080; fill-opacity: 0.2; stroke: #ff0000; stroke-width: 0.25; stroke-linejoin: miter"/>
   </g>
   <g id="patch_32">
    <path d="M 189.518933 41.437241 
L 291.047578 226.117161 
L 192.302444 280.402759 
L 90.773798 95.722839 
z
" clip-path="url(#p80d1171906)" style="fill: #808080; fill-opacity: 0.2; stroke: #ff0000; stroke-width: 0.25; stroke-linejoin: miter"/>
   </g>
   <g id="patch_33">
    <path d="M 174.554747 42.553832 
L 298.42934 213.052582 
L 207.26663 279.286168 
L 83.392037 108.787418 
z
" clip-path="url(#p80d1171906)" style="fill: #808080; fill-opacity: 0.2; stroke: #ff0000; stroke-width: 0.25; stroke-linejoin: miter"/>
   </g>
   <g id="patch_34">
    <path d="M 159.848504 45.537127 
L 304.115468 199.165841 
L 221.972873 276.302873 
L 77.705908 122.674159 
z
" clip-path="url(#p80d1171906)" style="fill: #808080; fill-opacity: 0.2; stroke: #ff0000; stroke-width: 0.25; stroke-linejoin: miter"/>
   </g>
   <g id="patch_35">
    <path d="M 145.63213 50.34008 
L 308.01629 184.67594 
L 236.189247 271.49992 
L 73.805087 137.16406 
z
" clip-path="url(#p80d1171906)" style="fill: #808080; fill-opacity: 0.2; stroke: #ff0000; stroke-width: 0.25; stroke-linejoin: miter"/>
   </g>
   <g id="patch_36">
    <path d="M 132.129826 56.886944 
L 310.070286 169.811393 
L 249.691551 264.953056 
L 71.751091 152.028607 
z
" clip-path="url(#p80d1171906)" style="fill: #808080; fill-opacity: 0.2; stroke: #ff0000; stroke-width: 0.25; stroke-linejoin: miter"/>
   </g>
   <g id="patch_37">
    <path d="M 119.554531 65.074471 
L 310.245064 154.806624 
L 262.266845 256.765529 
L 71.576313 167.033376 
z
" clip-path="url(#p80d1171906)" style="fill: #808080; fill-opacity: 0.2; stroke: #ff0000; stroke-width: 0.25; stroke-linejoin: miter"/>
   </g>
   <g id="patch_38">
    <path d="M 108.104566 74.773539 
L 308.537868 139.898267 
L 273.716811 247.066461 
L 73.283509 181.941733 
z
" clip-path="url(#p80d1171906)" style="fill: #808080; fill-opacity: 0.2; stroke: #ff0000; stroke-width: 0.25; stroke-linejoin: miter"/>
   </g>
   <g id="patch_39">
    <path d="M 97.960502 85.831189 
L 304.975621 125.321435 
L 283.860874 236.008811 
L 76.845756 196.518565 
z
" clip-path="url(#p80d1171906)" style="fill: #808080; fill-opacity: 0.2; stroke: #ff0000; stroke-width: 0.25; stroke-linejoin: miter"/>
   </g>
   <g id="patch_40">
    <path d="M 89.282319 98.073034 
L 299.614501 111.306013 
L 292.539058 223.766966 
L 82.206875 210.533987 
z
" clip-path="url(#p80d1171906)" style="fill: #808080; fill-opacity: 0.2; stroke: #ff0000; stroke-width: 0.25; stroke-linejoin: miter"/>
   </g>
   <g id="patch_41">
    <path d="M 82.206875 111.306013 
L 292.539058 98.073034 
L 299.614501 210.533987 
L 89.282319 223.766966 
z
" clip-path="url(#p80d1171906)" style="fill: #808080; fill-opacity: 0.2; stroke: #ff0000; stroke-width: 0.25; stroke-linejoin: miter"/>
   </g>
   <g id="patch_42">
    <path d="M 76.845756 125.321435 
L 283.860874 85.831189 
L 304.975621 196.518565 
L 97.960502 236.008811 
z
" clip-path="url(#p80d1171906)" style="fill: #808080; fill-opacity: 0.2; stroke: #ff0000; stroke-width: 0.25; stroke-linejoin: miter"/>
   </g>
   <g id="patch_43">
    <path d="M 73.283509 139.898267 
L 273.716811 74.773539 
L 308.537868 181.941733 
L 108.104566 247.066461 
z
" clip-path="url(#p80d1171906)" style="fill: #808080; fill-opacity: 0.2; stroke: #ff0000; stroke-width: 0.25; stroke-linejoin: miter"/>
   </g>
   <g id="patch_44">
    <path d="M 71.576313 154.806624 
L 262.266845 65.074471 
L 310.245064 167.033376 
L 119.554531 256.765529 
z
" clip-path="url(#p80d1171906)" style="fill: #808080; fill-opacity: 0.2; stroke: #ff0000; stroke-width: 0.25; stroke-linejoin: miter"/>
   </g>
   <g id="patch_45">
    <path d="M 71.751091 169.811393 
L 249.691551 56.886944 
L 310.070286 152.028607 
L 132.129826 264.953056 
z
" clip-path="url(#p80d1171906)" style="fill: #808080; fill-opacity: 0.2; stroke: #ff0000; stroke-width: 0.25; stroke-linejoin: miter"/>
   </g>
   <g id="patch_46">
    <path d="M 73.805087 184.67594 
L 236.189247 50.34008 
L 308.01629 137.16406 
L 145.63213 271.49992 
z
" clip-path="url(#p80d1171906)" style="fill: #808080; fill-opacity: 0.2; stroke: #ff0000; stroke-width: 0.25; stroke-linejoin: miter"/>
   </g>
   <g id="patch_47">
    <path d="M 77.705908 199.165841 
L 221.972873 45.537127 
L 304.115468 122.674159 
L 159.848504 276.302873 
z
" clip-path="url(#p80d1171906)" style="fill: #808080; fill-opacity: 0.2; stroke: #ff0000; stroke-width: 0.25; stroke-linejoin: miter"/>
   </g>
   <g id="patch_48">
    <path d="M 83.392037 213.052582 
L 207.26663 42.553832 
L 298.42934 108.787418 
L 174.554747 279.286168 
z
" clip-path="url(#p80d1171906)" style="fill: #808080; fill-opacity: 0.2; stroke: #ff0000; stroke-width: 0.25; stroke-linejoin: miter"/>
   </g>
   <g id="patch_49">
    <path d="M 90.773798 226.117161 
L 192.302444 41.437241 
L 291.047578 95.722839 
L 189.518933 280.402759 
z
" clip-path="url(#p80d1171906)" style="fill: #808080; fill-opacity: 0.2; stroke: #ff0000; stroke-width: 0.25; stroke-linejoin: miter"/>
   </g>
   <g id="patch_50">
    <path d="M 99.734779 238.153543 
L 177.316309 42.204965 
L 282.086598 83.686457 
L 204.505068 279.635035 
z
" clip-path="url(#p80d1171906)" style="fill: #808080; fill-opacity: 0.2; stroke: #ff0000; stroke-width: 0.25; stroke-linejoin: miter"/>
   </g>
   <g id="patch_51">
    <path d="M 110.133658 248.971905 
L 162.544565 44.844897 
L 271.687719 72.868095 
L 219.276811 276.995103 
z
" clip-path="url(#p80d1171906)" style="fill: #808080; fill-opacity: 0.2; stroke: #ff0000; stroke-width: 0.25; stroke-linejoin: miter"/>
   </g>
   <g id="patch_52">
    <path d="M 121.806439 258.401635 
L 148.220173 49.315401 
L 260.014938 63.438365 
L 233.601204 272.524599 
z
" clip-path="url(#p80d1171906)" style="fill: #808080; fill-opacity: 0.2; stroke: #ff0000; stroke-width: 0.25; stroke-linejoin: miter"/>
   </g>
   <g id="matplotlib.axis_1">
    <g id="xtick_1">
     <g id="line2d_1">
      <path d="M 78.227381 299.52 
L 78.227381 22.32 
" clip-path="url(#p80d1171906)" style="fill: none; stroke-dasharray: 1.85,0.8; stroke-dashoffset: 0; stroke: #b0b0b0; stroke-opacity: 0.6; stroke-width: 0.5"/>
     </g>
     <g id="line2d_2">
      <defs>
       <path id="m5dd7dc4a1c" d="M 0 0 
L 0 3.5 
" style="stroke: #000000; stroke-width: 0.8"/>
      </defs>
      <g>
       <use xlink:href="#m5dd7dc4a1c" x="78.227381" y="299.52" style="stroke: #000000; stroke-width: 0.8"/>
      </g>
     </g>
     <g id="text_1">
      <!-- −0.6 -->
      <g transform="translate(66.085975 314.117656) scale(0.1 -0.1)">
       <defs>
        <path id="DejaVuSans-c9c" d="M 678 2272 
L 4684 2272 
L 4684 1741 
L 678 1741 
L 678 2272 
z
" transform="scale(0.015625)"/>
        <path id="DejaVuSans-13" d="M 2034 4250 
Q 1547 4250 1301 3770 
Q 1056 3291 1056 2328 
Q 1056 1369 1301 889 
Q 1547 409 2034 409 
Q 2525 409 2770 889 
Q 3016 1369 3016 2328 
Q 3016 3291 2770 3770 
Q 2525 4250 2034 4250 
z
M 2034 4750 
Q 2819 4750 3233 4129 
Q 3647 3509 3647 2328 
Q 3647 1150 3233 529 
Q 2819 -91 2034 -91 
Q 1250 -91 836 529 
Q 422 1150 422 2328 
Q 422 3509 836 4129 
Q 1250 4750 2034 4750 
z
" transform="scale(0.015625)"/>
        <path id="DejaVuSans-11" d="M 684 794 
L 1344 794 
L 1344 0 
L 684 0 
L 684 794 
z
" transform="scale(0.015625)"/>
        <path id="DejaVuSans-19" d="M 2113 2584 
Q 1688 2584 1439 2293 
Q 1191 2003 1191 1497 
Q 1191 994 1439 701 
Q 1688 409 2113 409 
Q 2538 409 2786 701 
Q 3034 994 3034 1497 
Q 3034 2003 2786 2293 
Q 2538 2584 2113 2584 
z
M 3366 4563 
L 3366 3988 
Q 3128 4100 2886 4159 
Q 2644 4219 2406 4219 
Q 1781 4219 1451 3797 
Q 1122 3375 1075 2522 
Q 1259 2794 1537 2939 
Q 1816 3084 2150 3084 
Q 2853 3084 3261 2657 
Q 3669 2231 3669 1497 
Q 3669 778 3244 343 
Q 2819 -91 2113 -91 
Q 1303 -91 875 529 
Q 447 1150 447 2328 
Q 447 3434 972 4092 
Q 1497 4750 2381 4750 
Q 2619 4750 2861 4703 
Q 3103 4656 3366 4563 
z
" transform="scale(0.015625)"/>
       </defs>
       <use xlink:href="#DejaVuSans-c9c"/>
       <use xlink:href="#DejaVuSans-13" transform="translate(83.796875 0)"/>
       <use xlink:href="#DejaVuSans-11" transform="translate(147.421875 0)"/>
       <use xlink:href="#DejaVuSans-19" transform="translate(179.203125 0)"/>
      </g>
     </g>
    </g>
    <g id="xtick_2">
     <g id="line2d_3">
      <path d="M 115.788484 299.52 
L 115.788484 22.32 
" clip-path="url(#p80d1171906)" style="fill: none; stroke-dasharray: 1.85,0.8; stroke-dashoffset: 0; stroke: #b0b0b0; stroke-opacity: 0.6; stroke-width: 0.5"/>
     </g>
     <g id="line2d_4">
      <g>
       <use xlink:href="#m5dd7dc4a1c" x="115.788484" y="299.52" style="stroke: #000000; stroke-width: 0.8"/>
      </g>
     </g>
     <g id="text_2">
      <!-- −0.4 -->
      <g transform="translate(103.647077 314.117656) scale(0.1 -0.1)">
       <defs>
        <path id="DejaVuSans-17" d="M 2419 4116 
L 825 1625 
L 2419 1625 
L 2419 4116 
z
M 2253 4666 
L 3047 4666 
L 3047 1625 
L 3713 1625 
L 3713 1100 
L 3047 1100 
L 3047 0 
L 2419 0 
L 2419 1100 
L 313 1100 
L 313 1709 
L 2253 4666 
z
" transform="scale(0.015625)"/>
       </defs>
       <use xlink:href="#DejaVuSans-c9c"/>
       <use xlink:href="#DejaVuSans-13" transform="translate(83.796875 0)"/>
       <use xlink:href="#DejaVuSans-11" transform="translate(147.421875 0)"/>
       <use xlink:href="#DejaVuSans-17" transform="translate(179.203125 0)"/>
      </g>
     </g>
    </g>
    <g id="xtick_3">
     <g id="line2d_5">
      <path d="M 153.349586 299.52 
L 153.349586 22.32 
" clip-path="url(#p80d1171906)" style="fill: none; stroke-dasharray: 1.85,0.8; stroke-dashoffset: 0; stroke: #b0b0b0; stroke-opacity: 0.6; stroke-width: 0.5"/>
     </g>
     <g id="line2d_6">
      <g>
       <use xlink:href="#m5dd7dc4a1c" x="153.349586" y="299.52" style="stroke: #000000; stroke-width: 0.8"/>
      </g>
     </g>
     <g id="text_3">
      <!-- −0.2 -->
      <g transform="translate(141.20818 314.117656) scale(0.1 -0.1)">
       <defs>
        <path id="DejaVuSans-15" d="M 1228 531 
L 3431 531 
L 3431 0 
L 469 0 
L 469 531 
Q 828 903 1448 1529 
Q 2069 2156 2228 2338 
Q 2531 2678 2651 2914 
Q 2772 3150 2772 3378 
Q 2772 3750 2511 3984 
Q 2250 4219 1831 4219 
Q 1534 4219 1204 4116 
Q 875 4013 500 3803 
L 500 4441 
Q 881 4594 1212 4672 
Q 1544 4750 1819 4750 
Q 2544 4750 2975 4387 
Q 3406 4025 3406 3419 
Q 3406 3131 3298 2873 
Q 3191 2616 2906 2266 
Q 2828 2175 2409 1742 
Q 1991 1309 1228 531 
z
" transform="scale(0.015625)"/>
       </defs>
       <use xlink:href="#DejaVuSans-c9c"/>
       <use xlink:href="#DejaVuSans-13" transform="translate(83.796875 0)"/>
       <use xlink:href="#DejaVuSans-11" transform="translate(147.421875 0)"/>
       <use xlink:href="#DejaVuSans-15" transform="translate(179.203125 0)"/>
      </g>
     </g>
    </g>
    <g id="xtick_4">
     <g id="line2d_7">
      <path d="M 190.910688 299.52 
L 190.910688 22.32 
" clip-path="url(#p80d1171906)" style="fill: none; stroke-dasharray: 1.85,0.8; stroke-dashoffset: 0; stroke: #b0b0b0; stroke-opacity: 0.6; stroke-width: 0.5"/>
     </g>
     <g id="line2d_8">
      <g>
       <use xlink:href="#m5dd7dc4a1c" x="190.910688" y="299.52" style="stroke: #000000; stroke-width: 0.8"/>
      </g>
     </g>
     <g id="text_4">
      <!-- 0.0 -->
      <g transform="translate(182.959126 314.117656) scale(0.1 -0.1)">
       <use xlink:href="#DejaVuSans-13"/>
       <use xlink:href="#DejaVuSans-11" transform="translate(63.625 0)"/>
       <use xlink:href="#DejaVuSans-13" transform="translate(95.40625 0)"/>
      </g>
     </g>
    </g>
    <g id="xtick_5">
     <g id="line2d_9">
      <path d="M 228.471791 299.52 
L 228.471791 22.32 
" clip-path="url(#p80d1171906)" style="fill: none; stroke-dasharray: 1.85,0.8; stroke-dashoffset: 0; stroke: #b0b0b0; stroke-opacity: 0.6; stroke-width: 0.5"/>
     </g>
     <g id="line2d_10">
      <g>
       <use xlink:href="#m5dd7dc4a1c" x="228.471791" y="299.52" style="stroke: #000000; stroke-width: 0.8"/>
      </g>
     </g>
     <g id="text_5">
      <!-- 0.2 -->
      <g transform="translate(220.520228 314.117656) scale(0.1 -0.1)">
       <use xlink:href="#DejaVuSans-13"/>
       <use xlink:href="#DejaVuSans-11" transform="translate(63.625 0)"/>
       <use xlink:href="#DejaVuSans-15" transform="translate(95.40625 0)"/>
      </g>
     </g>
    </g>
    <g id="xtick_6">
     <g id="line2d_11">
      <path d="M 266.032893 299.52 
L 266.032893 22.32 
" clip-path="url(#p80d1171906)" style="fill: none; stroke-dasharray: 1.85,0.8; stroke-dashoffset: 0; stroke: #b0b0b0; stroke-opacity: 0.6; stroke-width: 0.5"/>
     </g>
     <g id="line2d_12">
      <g>
       <use xlink:href="#m5dd7dc4a1c" x="266.032893" y="299.52" style="stroke: #000000; stroke-width: 0.8"/>
      </g>
     </g>
     <g id="text_6">
      <!-- 0.4 -->
      <g transform="translate(258.081331 314.117656) scale(0.1 -0.1)">
       <use xlink:href="#DejaVuSans-13"/>
       <use xlink:href="#DejaVuSans-11" transform="translate(63.625 0)"/>
       <use xlink:href="#DejaVuSans-17" transform="translate(95.40625 0)"/>
      </g>
     </g>
    </g>
    <g id="xtick_7">
     <g id="line2d_13">
      <path d="M 303.593995 299.52 
L 303.593995 22.32 
" clip-path="url(#p80d1171906)" style="fill: none; stroke-dasharray: 1.85,0.8; stroke-dashoffset: 0; stroke: #b0b0b0; stroke-opacity: 0.6; stroke-width: 0.5"/>
     </g>
     <g id="line2d_14">
      <g>
       <use xlink:href="#m5dd7dc4a1c" x="303.593995" y="299.52" style="stroke: #000000; stroke-width: 0.8"/>
      </g>
     </g>
     <g id="text_7">
      <!-- 0.6 -->
      <g transform="translate(295.642433 314.117656) scale(0.1 -0.1)">
       <use xlink:href="#DejaVuSans-13"/>
       <use xlink:href="#DejaVuSans-11" transform="translate(63.625 0)"/>
       <use xlink:href="#DejaVuSans-19" transform="translate(95.40625 0)"/>
      </g>
     </g>
    </g>
    <g id="text_8">
     <!-- $\nu_1$ -->
     <g transform="translate(185.710688 328.117656) scale(0.1 -0.1)">
      <defs>
       <path id="DejaVuSans-Oblique-351" d="M 959 0 
L 572 3500 
L 1191 3500 
L 1522 563 
Q 1972 950 2391 1488 
Q 2706 1891 2788 2241 
Q 2825 2406 2809 2719 
Q 2794 3091 2544 3500 
L 3125 3500 
L 3125 3500 
Q 3288 3222 3353 2834 
Q 3416 2478 3369 2234 
Q 3250 1622 2719 1075 
Q 2025 363 1572 0 
L 959 0 
z
" transform="scale(0.015625)"/>
       <path id="DejaVuSans-14" d="M 794 531 
L 1825 531 
L 1825 4091 
L 703 3866 
L 703 4441 
L 1819 4666 
L 2450 4666 
L 2450 531 
L 3481 531 
L 3481 0 
L 794 0 
L 794 531 
z
" transform="scale(0.015625)"/>
      </defs>
      <use xlink:href="#DejaVuSans-Oblique-351" transform="translate(0 0.3125)"/>
      <use xlink:href="#DejaVuSans-14" transform="translate(55.859375 -14.687451) scale(0.7)"/>
     </g>
    </g>
   </g>
   <g id="matplotlib.axis_2">
    <g id="ytick_1">
     <g id="line2d_15">
      <path d="M 52.482813 273.603307 
L 329.338564 273.603307 
" clip-path="url(#p80d1171906)" style="fill: none; stroke-dasharray: 1.85,0.8; stroke-dashoffset: 0; stroke: #b0b0b0; stroke-opacity: 0.6; stroke-width: 0.5"/>
     </g>
     <g id="line2d_16">
      <defs>
       <path id="m4f091bd14c" d="M 0 0 
L -3.5 0 
" style="stroke: #000000; stroke-width: 0.8"/>
      </defs>
      <g>
       <use xlink:href="#m4f091bd14c" x="52.482813" y="273.603307" style="stroke: #000000; stroke-width: 0.8"/>
      </g>
     </g>
     <g id="text_9">
      <!-- −0.6 -->
      <g transform="translate(21.2 277.402135) scale(0.1 -0.1)">
       <use xlink:href="#DejaVuSans-c9c"/>
       <use xlink:href="#DejaVuSans-13" transform="translate(83.796875 0)"/>
       <use xlink:href="#DejaVuSans-11" transform="translate(147.421875 0)"/>
       <use xlink:href="#DejaVuSans-19" transform="translate(179.203125 0)"/>
      </g>
     </g>
    </g>
    <g id="ytick_2">
     <g id="line2d_17">
      <path d="M 52.482813 236.042205 
L 329.338564 236.042205 
" clip-path="url(#p80d1171906)" style="fill: none; stroke-dasharray: 1.85,0.8; stroke-dashoffset: 0; stroke: #b0b0b0; stroke-opacity: 0.6; stroke-width: 0.5"/>
     </g>
     <g id="line2d_18">
      <g>
       <use xlink:href="#m4f091bd14c" x="52.482813" y="236.042205" style="stroke: #000000; stroke-width: 0.8"/>
      </g>
     </g>
     <g id="text_10">
      <!-- −0.4 -->
      <g transform="translate(21.2 239.841033) scale(0.1 -0.1)">
       <use xlink:href="#DejaVuSans-c9c"/>
       <use xlink:href="#DejaVuSans-13" transform="translate(83.796875 0)"/>
       <use xlink:href="#DejaVuSans-11" transform="translate(147.421875 0)"/>
       <use xlink:href="#DejaVuSans-17" transform="translate(179.203125 0)"/>
      </g>
     </g>
    </g>
    <g id="ytick_3">
     <g id="line2d_19">
      <path d="M 52.482813 198.481102 
L 329.338564 198.481102 
" clip-path="url(#p80d1171906)" style="fill: none; stroke-dasharray: 1.85,0.8; stroke-dashoffset: 0; stroke: #b0b0b0; stroke-opacity: 0.6; stroke-width: 0.5"/>
     </g>
     <g id="line2d_20">
      <g>
       <use xlink:href="#m4f091bd14c" x="52.482813" y="198.481102" style="stroke: #000000; stroke-width: 0.8"/>
      </g>
     </g>
     <g id="text_11">
      <!-- −0.2 -->
      <g transform="translate(21.2 202.27993) scale(0.1 -0.1)">
       <use xlink:href="#DejaVuSans-c9c"/>
       <use xlink:href="#DejaVuSans-13" transform="translate(83.796875 0)"/>
       <use xlink:href="#DejaVuSans-11" transform="translate(147.421875 0)"/>
       <use xlink:href="#DejaVuSans-15" transform="translate(179.203125 0)"/>
      </g>
     </g>
    </g>
    <g id="ytick_4">
     <g id="line2d_21">
      <path d="M 52.482813 160.92 
L 329.338564 160.92 
" clip-path="url(#p80d1171906)" style="fill: none; stroke-dasharray: 1.85,0.8; stroke-dashoffset: 0; stroke: #b0b0b0; stroke-opacity: 0.6; stroke-width: 0.5"/>
     </g>
     <g id="line2d_22">
      <g>
       <use xlink:href="#m4f091bd14c" x="52.482813" y="160.92" style="stroke: #000000; stroke-width: 0.8"/>
      </g>
     </g>
     <g id="text_12">
      <!-- 0.0 -->
      <g transform="translate(29.579688 164.718828) scale(0.1 -0.1)">
       <use xlink:href="#DejaVuSans-13"/>
       <use xlink:href="#DejaVuSans-11" transform="translate(63.625 0)"/>
       <use xlink:href="#DejaVuSans-13" transform="translate(95.40625 0)"/>
      </g>
     </g>
    </g>
    <g id="ytick_5">
     <g id="line2d_23">
      <path d="M 52.482813 123.358898 
L 329.338564 123.358898 
" clip-path="url(#p80d1171906)" style="fill: none; stroke-dasharray: 1.85,0.8; stroke-dashoffset: 0; stroke: #b0b0b0; stroke-opacity: 0.6; stroke-width: 0.5"/>
     </g>
     <g id="line2d_24">
      <g>
       <use xlink:href="#m4f091bd14c" x="52.482813" y="123.358898" style="stroke: #000000; stroke-width: 0.8"/>
      </g>
     </g>
     <g id="text_13">
      <!-- 0.2 -->
      <g transform="translate(29.579688 127.157726) scale(0.1 -0.1)">
       <use xlink:href="#DejaVuSans-13"/>
       <use xlink:href="#DejaVuSans-11" transform="translate(63.625 0)"/>
       <use xlink:href="#DejaVuSans-15" transform="translate(95.40625 0)"/>
      </g>
     </g>
    </g>
    <g id="ytick_6">
     <g id="line2d_25">
      <path d="M 52.482813 85.797795 
L 329.338564 85.797795 
" clip-path="url(#p80d1171906)" style="fill: none; stroke-dasharray: 1.85,0.8; stroke-dashoffset: 0; stroke: #b0b0b0; stroke-opacity: 0.6; stroke-width: 0.5"/>
     </g>
     <g id="line2d_26">
      <g>
       <use xlink:href="#m4f091bd14c" x="52.482813" y="85.797795" style="stroke: #000000; stroke-width: 0.8"/>
      </g>
     </g>
     <g id="text_14">
      <!-- 0.4 -->
      <g transform="translate(29.579688 89.596623) scale(0.1 -0.1)">
       <use xlink:href="#DejaVuSans-13"/>
       <use xlink:href="#DejaVuSans-11" transform="translate(63.625 0)"/>
       <use xlink:href="#DejaVuSans-17" transform="translate(95.40625 0)"/>
      </g>
     </g>
    </g>
    <g id="ytick_7">
     <g id="line2d_27">
      <path d="M 52.482813 48.236693 
L 329.338564 48.236693 
" clip-path="url(#p80d1171906)" style="fill: none; stroke-dasharray: 1.85,0.8; stroke-dashoffset: 0; stroke: #b0b0b0; stroke-opacity: 0.6; stroke-width: 0.5"/>
     </g>
     <g id="line2d_28">
      <g>
       <use xlink:href="#m4f091bd14c" x="52.482813" y="48.236693" style="stroke: #000000; stroke-width: 0.8"/>
      </g>
     </g>
     <g id="text_15">
      <!-- 0.6 -->
      <g transform="translate(29.579688 52.035521) scale(0.1 -0.1)">
       <use xlink:href="#DejaVuSans-13"/>
       <use xlink:href="#DejaVuSans-11" transform="translate(63.625 0)"/>
       <use xlink:href="#DejaVuSans-19" transform="translate(95.40625 0)"/>
      </g>
     </g>
    </g>
    <g id="text_16">
     <!-- $\nu_2$ -->
     <g transform="translate(14.797656 166.12) rotate(-90) scale(0.1 -0.1)">
      <use xlink:href="#DejaVuSans-Oblique-351" transform="translate(0 0.3125)"/>
      <use xlink:href="#DejaVuSans-15" transform="translate(55.859375 -14.687451) scale(0.7)"/>
     </g>
    </g>
   </g>
   <g id="patch_53">
    <path d="M 246.3638 171.498247 
L 244.60073 178.364952 
L 241.990936 184.95654 
L 238.575576 191.169057 
L 234.408512 196.904529 
L 229.555461 202.072503 
L 224.092959 206.591477 
L 218.107153 210.390185 
L 211.692442 213.408719 
L 204.949991 215.599474 
L 197.986132 216.927902 
L 190.910688 217.373051 
L 183.835245 216.927902 
L 176.871386 215.599474 
L 170.128934 213.408719 
L 163.714224 210.390185 
L 157.728418 206.591477 
L 152.265916 202.072503 
L 147.412865 196.904529 
L 143.245801 191.169057 
L 139.830441 184.95654 
L 137.220647 178.364952 
L 135.457576 171.498247 
L 134.569035 164.464716 
L 134.569035 157.375284 
L 135.457576 150.341753 
L 137.220647 143.475048 
L 139.830441 136.88346 
L 143.245801 130.670943 
L 147.412865 124.935471 
L 152.265916 119.767497 
L 157.728418 115.248523 
L 163.714224 111.449815 
L 170.128934 108.431281 
L 176.871386 106.240526 
L 183.835245 104.912098 
L 190.910688 104.466949 
L 197.986132 104.912098 
L 204.949991 106.240526 
L 211.692442 108.431281 
L 218.107153 111.449815 
L 224.092959 115.248523 
L 229.555461 119.767497 
L 234.408512 124.935471 
L 238.575576 130.670943 
L 241.990936 136.88346 
L 244.60073 143.475048 
L 246.3638 150.341753 
L 247.252342 157.375284 
L 247.252342 164.464716 
z
" clip-path="url(#p80d1171906)" style="fill: #ffff00"/>
   </g>
   <g id="patch_54">
    <path d="M 52.482813 299.52 
L 52.482813 22.32 
" style="fill: none; stroke: #000000; stroke-width: 0.8; stroke-linejoin: miter; stroke-linecap: square"/>
   </g>
   <g id="patch_55">
    <path d="M 329.338564 299.52 
L 329.338564 22.32 
" style="fill: none; stroke: #000000; stroke-width: 0.8; stroke-linejoin: miter; stroke-linecap: square"/>
   </g>
   <g id="patch_56">
    <path d="M 52.482813 299.52 
L 329.338564 299.52 
" style="fill: none; stroke: #000000; stroke-width: 0.8; stroke-linejoin: miter; stroke-linecap: square"/>
   </g>
   <g id="patch_57">
    <path d="M 52.482813 22.32 
L 329.338564 22.32 
" style="fill: none; stroke: #000000; stroke-width: 0.8; stroke-linejoin: miter; stroke-linecap: square"/>
   </g>
   <g id="patch_58">
    <path d="M 134.569035 266.294023 
L 134.569035 55.545977 
L 247.252342 55.545977 
L 247.252342 266.294023 
L 134.569035 266.294023 
z
" clip-path="url(#p80d1171906)" style="fill: none; stroke: #ff0000; stroke-width: 0.5; stroke-linejoin: miter"/>
   </g>
   <g id="patch_59">
    <path d="M 148.220173 272.524599 
L 121.806439 63.438365 
L 233.601204 49.315401 
L 260.014938 258.401635 
L 148.220173 272.524599 
z
" clip-path="url(#p80d1171906)" style="fill: none; stroke: #ff0000; stroke-width: 0.5; stroke-linejoin: miter"/>
   </g>
   <g id="patch_60">
    <path d="M 162.544565 276.995103 
L 110.133658 72.868095 
L 219.276811 44.844897 
L 271.687719 248.971905 
L 162.544565 276.995103 
z
" clip-path="url(#p80d1171906)" style="fill: none; stroke: #ff0000; stroke-width: 0.5; stroke-linejoin: miter"/>
   </g>
   <g id="patch_61">
    <path d="M 177.316309 279.635035 
L 99.734779 83.686457 
L 204.505068 42.204965 
L 282.086598 238.153543 
L 177.316309 279.635035 
z
" clip-path="url(#p80d1171906)" style="fill: none; stroke: #ff0000; stroke-width: 0.5; stroke-linejoin: miter"/>
   </g>
   <g id="patch_62">
    <path d="M 192.302444 280.402759 
L 90.773798 95.722839 
L 189.518933 41.437241 
L 291.047578 226.117161 
L 192.302444 280.402759 
z
" clip-path="url(#p80d1171906)" style="fill: none; stroke: #ff0000; stroke-width: 0.5; stroke-linejoin: miter"/>
   </g>
   <g id="patch_63">
    <path d="M 207.26663 279.286168 
L 83.392037 108.787418 
L 174.554747 42.553832 
L 298.42934 213.052582 
L 207.26663 279.286168 
z
" clip-path="url(#p80d1171906)" style="fill: none; stroke: #ff0000; stroke-width: 0.5; stroke-linejoin: miter"/>
   </g>
   <g id="patch_64">
    <path d="M 221.972873 276.302873 
L 77.705908 122.674159 
L 159.848504 45.537127 
L 304.115468 199.165841 
L 221.972873 276.302873 
z
" clip-path="url(#p80d1171906)" style="fill: none; stroke: #ff0000; stroke-width: 0.5; stroke-linejoin: miter"/>
   </g>
   <g id="patch_65">
    <path d="M 236.189247 271.49992 
L 73.805087 137.16406 
L 145.63213 50.34008 
L 308.01629 184.67594 
L 236.189247 271.49992 
z
" clip-path="url(#p80d1171906)" style="fill: none; stroke: #ff0000; stroke-width: 0.5; stroke-linejoin: miter"/>
   </g>
   <g id="patch_66">
    <path d="M 249.691551 264.953056 
L 71.751091 152.028607 
L 132.129826 56.886944 
L 310.070286 169.811393 
L 249.691551 264.953056 
z
" clip-path="url(#p80d1171906)" style="fill: none; stroke: #ff0000; stroke-width: 0.5; stroke-linejoin: miter"/>
   </g>
   <g id="patch_67">
    <path d="M 262.266845 256.765529 
L 71.576313 167.033376 
L 119.554531 65.074471 
L 310.245064 154.806624 
L 262.266845 256.765529 
z
" clip-path="url(#p80d1171906)" style="fill: none; stroke: #ff0000; stroke-width: 0.5; stroke-linejoin: miter"/>
   </g>
   <g id="patch_68">
    <path d="M 273.716811 247.066461 
L 73.283509 181.941733 
L 108.104566 74.773539 
L 308.537868 139.898267 
L 273.716811 247.066461 
z
" clip-path="url(#p80d1171906)" style="fill: none; stroke: #ff0000; stroke-width: 0.5; stroke-linejoin: miter"/>
   </g>
   <g id="patch_69">
    <path d="M 283.860874 236.008811 
L 76.845756 196.518565 
L 97.960502 85.831189 
L 304.975621 125.321435 
L 283.860874 236.008811 
z
" clip-path="url(#p80d1171906)" style="fill: none; stroke: #ff0000; stroke-width: 0.5; stroke-linejoin: miter"/>
   </g>
   <g id="patch_70">
    <path d="M 292.539058 223.766966 
L 82.206875 210.533987 
L 89.282319 98.073034 
L 299.614501 111.306013 
L 292.539058 223.766966 
z
" clip-path="url(#p80d1171906)" style="fill: none; stroke: #ff0000; stroke-width: 0.5; stroke-linejoin: miter"/>
   </g>
   <g id="patch_71">
    <path d="M 299.614501 210.533987 
L 89.282319 223.766966 
L 82.206875 111.306013 
L 292.539058 98.073034 
L 299.614501 210.533987 
z
" clip-path="url(#p80d1171906)" style="fill: none; stroke: #ff0000; stroke-width: 0.5; stroke-linejoin: miter"/>
   </g>
   <g id="patch_72">
    <path d="M 304.975621 196.518565 
L 97.960502 236.008811 
L 76.845756 125.321435 
L 283.860874 85.831189 
L 304.975621 196.518565 
z
" clip-path="url(#p80d1171906)" style="fill: none; stroke: #ff0000; stroke-width: 0.5; stroke-linejoin: miter"/>
   </g>
   <g id="patch_73">
    <path d="M 308.537868 181.941733 
L 108.104566 247.066461 
L 73.283509 139.898267 
L 273.716811 74.773539 
L 308.537868 181.941733 
z
" clip-path="url(#p80d1171906)" style="fill: none; stroke: #ff0000; stroke-width: 0.5; stroke-linejoin: miter"/>
   </g>
   <g id="patch_74">
    <path d="M 310.245064 167.033376 
L 119.554531 256.765529 
L 71.576313 154.806624 
L 262.266845 65.074471 
L 310.245064 167.033376 
z
" clip-path="url(#p80d1171906)" style="fill: none; stroke: #ff0000; stroke-width: 0.5; stroke-linejoin: miter"/>
   </g>
   <g id="patch_75">
    <path d="M 310.070286 152.028607 
L 132.129826 264.953056 
L 71.751091 169.811393 
L 249.691551 56.886944 
L 310.070286 152.028607 
z
" clip-path="url(#p80d1171906)" style="fill: none; stroke: #ff0000; stroke-width: 0.5; stroke-linejoin: miter"/>
   </g>
   <g id="patch_76">
    <path d="M 308.01629 137.16406 
L 145.63213 271.49992 
L 73.805087 184.67594 
L 236.189247 50.34008 
L 308.01629 137.16406 
z
" clip-path="url(#p80d1171906)" style="fill: none; stroke: #ff0000; stroke-width: 0.5; stroke-linejoin: miter"/>
   </g>
   <g id="patch_77">
    <path d="M 304.115468 122.674159 
L 159.848504 276.302873 
L 77.705908 199.165841 
L 221.972873 45.537127 
L 304.115468 122.674159 
z
" clip-path="url(#p80d1171906)" style="fill: none; stroke: #ff0000; stroke-width: 0.5; stroke-linejoin: miter"/>
   </g>
   <g id="patch_78">
    <path d="M 298.42934 108.787418 
L 174.554747 279.286168 
L 83.392037 213.052582 
L 207.26663 42.553832 
L 298.42934 108.787418 
z
" clip-path="url(#p80d1171906)" style="fill: none; stroke: #ff0000; stroke-width: 0.5; stroke-linejoin: miter"/>
   </g>
   <g id="patch_79">
    <path d="M 291.047578 95.722839 
L 189.518933 280.402759 
L 90.773798 226.117161 
L 192.302444 41.437241 
L 291.047578 95.722839 
z
" clip-path="url(#p80d1171906)" style="fill: none; stroke: #ff0000; stroke-width: 0.5; stroke-linejoin: miter"/>
   </g>
   <g id="patch_80">
    <path d="M 282.086598 83.686457 
L 204.505068 279.635035 
L 99.734779 238.153543 
L 177.316309 42.204965 
L 282.086598 83.686457 
z
" clip-path="url(#p80d1171906)" style="fill: none; stroke: #ff0000; stroke-width: 0.5; stroke-linejoin: miter"/>
   </g>
   <g id="patch_81">
    <path d="M 271.687719 72.868095 
L 219.276811 276.995103 
L 110.133658 248.971905 
L 162.544565 44.844897 
L 271.687719 72.868095 
z
" clip-path="url(#p80d1171906)" style="fill: none; stroke: #ff0000; stroke-width: 0.5; stroke-linejoin: miter"/>
   </g>
   <g id="patch_82">
    <path d="M 260.014938 63.438365 
L 233.601204 272.524599 
L 121.806439 258.401635 
L 148.220173 49.315401 
L 260.014938 63.438365 
z
" clip-path="url(#p80d1171906)" style="fill: none; stroke: #ff0000; stroke-width: 0.5; stroke-linejoin: miter"/>
   </g>
   <g id="patch_83">
    <path d="M 247.252342 55.545977 
L 247.252342 266.294023 
L 134.569035 266.294023 
L 134.569035 55.545977 
L 247.252342 55.545977 
z
" clip-path="url(#p80d1171906)" style="fill: none; stroke: #ff0000; stroke-width: 0.5; stroke-linejoin: miter"/>
   </g>
   <g id="patch_84">
    <path d="M 233.601204 49.315401 
L 260.014938 258.401635 
L 148.220173 272.524599 
L 121.806439 63.438365 
L 233.601204 49.315401 
z
" clip-path="url(#p80d1171906)" style="fill: none; stroke: #ff0000; stroke-width: 0.5; stroke-linejoin: miter"/>
   </g>
   <g id="patch_85">
    <path d="M 219.276811 44.844897 
L 271.687719 248.971905 
L 162.544565 276.995103 
L 110.133658 72.868095 
L 219.276811 44.844897 
z
" clip-path="url(#p80d1171906)" style="fill: none; stroke: #ff0000; stroke-width: 0.5; stroke-linejoin: miter"/>
   </g>
   <g id="patch_86">
    <path d="M 204.505068 42.204965 
L 282.086598 238.153543 
L 177.316309 279.635035 
L 99.734779 83.686457 
L 204.505068 42.204965 
z
" clip-path="url(#p80d1171906)" style="fill: none; stroke: #ff0000; stroke-width: 0.5; stroke-linejoin: miter"/>
   </g>
   <g id="patch_87">
    <path d="M 189.518933 41.437241 
L 291.047578 226.117161 
L 192.302444 280.402759 
L 90.773798 95.722839 
L 189.518933 41.437241 
z
" clip-path="url(#p80d1171906)" style="fill: none; stroke: #ff0000; stroke-width: 0.5; stroke-linejoin: miter"/>
   </g>
   <g id="patch_88">
    <path d="M 174.554747 42.553832 
L 298.42934 213.052582 
L 207.26663 279.286168 
L 83.392037 108.787418 
L 174.554747 42.553832 
z
" clip-path="url(#p80d1171906)" style="fill: none; stroke: #ff0000; stroke-width: 0.5; stroke-linejoin: miter"/>
   </g>
   <g id="patch_89">
    <path d="M 159.848504 45.537127 
L 304.115468 199.165841 
L 221.972873 276.302873 
L 77.705908 122.674159 
L 159.848504 45.537127 
z
" clip-path="url(#p80d1171906)" style="fill: none; stroke: #ff0000; stroke-width: 0.5; stroke-linejoin: miter"/>
   </g>
   <g id="patch_90">
    <path d="M 145.63213 50.34008 
L 308.01629 184.67594 
L 236.189247 271.49992 
L 73.805087 137.16406 
L 145.63213 50.34008 
z
" clip-path="url(#p80d1171906)" style="fill: none; stroke: #ff0000; stroke-width: 0.5; stroke-linejoin: miter"/>
   </g>
   <g id="patch_91">
    <path d="M 132.129826 56.886944 
L 310.070286 169.811393 
L 249.691551 264.953056 
L 71.751091 152.028607 
L 132.129826 56.886944 
z
" clip-path="url(#p80d1171906)" style="fill: none; stroke: #ff0000; stroke-width: 0.5; stroke-linejoin: miter"/>
   </g>
   <g id="patch_92">
    <path d="M 119.554531 65.074471 
L 310.245064 154.806624 
L 262.266845 256.765529 
L 71.576313 167.033376 
L 119.554531 65.074471 
z
" clip-path="url(#p80d1171906)" style="fill: none; stroke: #ff0000; stroke-width: 0.5; stroke-linejoin: miter"/>
   </g>
   <g id="patch_93">
    <path d="M 108.104566 74.773539 
L 308.537868 139.898267 
L 273.716811 247.066461 
L 73.283509 181.941733 
L 108.104566 74.773539 
z
" clip-path="url(#p80d1171906)" style="fill: none; stroke: #ff0000; stroke-width: 0.5; stroke-linejoin: miter"/>
   </g>
   <g id="patch_94">
    <path d="M 97.960502 85.831189 
L 304.975621 125.321435 
L 283.860874 236.008811 
L 76.845756 196.518565 
L 97.960502 85.831189 
z
" clip-path="url(#p80d1171906)" style="fill: none; stroke: #ff0000; stroke-width: 0.5; stroke-linejoin: miter"/>
   </g>
   <g id="patch_95">
    <path d="M 89.282319 98.073034 
L 299.614501 111.306013 
L 292.539058 223.766966 
L 82.206875 210.533987 
L 89.282319 98.073034 
z
" clip-path="url(#p80d1171906)" style="fill: none; stroke: #ff0000; stroke-width: 0.5; stroke-linejoin: miter"/>
   </g>
   <g id="patch_96">
    <path d="M 82.206875 111.306013 
L 292.539058 98.073034 
L 299.614501 210.533987 
L 89.282319 223.766966 
L 82.206875 111.306013 
z
" clip-path="url(#p80d1171906)" style="fill: none; stroke: #ff0000; stroke-width: 0.5; stroke-linejoin: miter"/>
   </g>
   <g id="patch_97">
    <path d="M 76.845756 125.321435 
L 283.860874 85.831189 
L 304.975621 196.518565 
L 97.960502 236.008811 
L 76.845756 125.321435 
z
" clip-path="url(#p80d1171906)" style="fill: none; stroke: #ff0000; stroke-width: 0.5; stroke-linejoin: miter"/>
   </g>
   <g id="patch_98">
    <path d="M 73.283509 139.898267 
L 273.716811 74.773539 
L 308.537868 181.941733 
L 108.104566 247.066461 
L 73.283509 139.898267 
z
" clip-path="url(#p80d1171906)" style="fill: none; stroke: #ff0000; stroke-width: 0.5; stroke-linejoin: miter"/>
   </g>
   <g id="patch_99">
    <path d="M 71.576313 154.806624 
L 262.266845 65.074471 
L 310.245064 167.033376 
L 119.554531 256.765529 
L 71.576313 154.806624 
z
" clip-path="url(#p80d1171906)" style="fill: none; stroke: #ff0000; stroke-width: 0.5; stroke-linejoin: miter"/>
   </g>
   <g id="patch_100">
    <path d="M 71.751091 169.811393 
L 249.691551 56.886944 
L 310.070286 152.028607 
L 132.129826 264.953056 
L 71.751091 169.811393 
z
" clip-path="url(#p80d1171906)" style="fill: none; stroke: #ff0000; stroke-width: 0.5; stroke-linejoin: miter"/>
   </g>
   <g id="patch_101">
    <path d="M 73.805087 184.67594 
L 236.189247 50.34008 
L 308.01629 137.16406 
L 145.63213 271.49992 
L 73.805087 184.67594 
z
" clip-path="url(#p80d1171906)" style="fill: none; stroke: #ff0000; stroke-width: 0.5; stroke-linejoin: miter"/>
   </g>
   <g id="patch_102">
    <path d="M 77.705908 199.165841 
L 221.972873 45.537127 
L 304.115468 122.674159 
L 159.848504 276.302873 
L 77.705908 199.165841 
z
" clip-path="url(#p80d1171906)" style="fill: none; stroke: #ff0000; stroke-width: 0.5; stroke-linejoin: miter"/>
   </g>
   <g id="patch_103">
    <path d="M 83.392037 213.052582 
L 207.26663 42.553832 
L 298.42934 108.787418 
L 174.554747 279.286168 
L 83.392037 213.052582 
z
" clip-path="url(#p80d1171906)" style="fill: none; stroke: #ff0000; stroke-width: 0.5; stroke-linejoin: miter"/>
   </g>
   <g id="patch_104">
    <path d="M 90.773798 226.117161 
L 192.302444 41.437241 
L 291.047578 95.722839 
L 189.518933 280.402759 
L 90.773798 226.117161 
z
" clip-path="url(#p80d1171906)" style="fill: none; stroke: #ff0000; stroke-width: 0.5; stroke-linejoin: miter"/>
   </g>
   <g id="patch_105">
    <path d="M 99.734779 238.153543 
L 177.316309 42.204965 
L 282.086598 83.686457 
L 204.505068 279.635035 
L 99.734779 238.153543 
z
" clip-path="url(#p80d1171906)" style="fill: none; stroke: #ff0000; stroke-width: 0.5; stroke-linejoin: miter"/>
   </g>
   <g id="patch_106">
    <path d="M 110.133658 248.971905 
L 162.544565 44.844897 
L 271.687719 72.868095 
L 219.276811 276.995103 
L 110.133658 248.971905 
z
" clip-path="url(#p80d1171906)" style="fill: none; stroke: #ff0000; stroke-width: 0.5; stroke-linejoin: miter"/>
   </g>
   <g id="patch_107">
    <path d="M 121.806439 258.401635 
L 148.220173 49.315401 
L 260.014938 63.438365 
L 233.601204 272.524599 
L 121.806439 258.401635 
z
" clip-path="url(#p80d1171906)" style="fill: none; stroke: #ff0000; stroke-width: 0.5; stroke-linejoin: miter"/>
   </g>
   <g id="text_17">
    <!-- Virtual input constraint set $W$ -->
    <g transform="translate(102.890688 16.32) scale(0.12 -0.12)">
     <defs>
      <path id="DejaVuSans-39" d="M 1831 0 
L 50 4666 
L 709 4666 
L 2188 738 
L 3669 4666 
L 4325 4666 
L 2547 0 
L 1831 0 
z
" transform="scale(0.015625)"/>
      <path id="DejaVuSans-4c" d="M 603 3500 
L 1178 3500 
L 1178 0 
L 603 0 
L 603 3500 
z
M 603 4863 
L 1178 4863 
L 1178 4134 
L 603 4134 
L 603 4863 
z
" transform="scale(0.015625)"/>
      <path id="DejaVuSans-55" d="M 2631 2963 
Q 2534 3019 2420 3045 
Q 2306 3072 2169 3072 
Q 1681 3072 1420 2755 
Q 1159 2438 1159 1844 
L 1159 0 
L 581 0 
L 581 3500 
L 1159 3500 
L 1159 2956 
Q 1341 3275 1631 3429 
Q 1922 3584 2338 3584 
Q 2397 3584 2469 3576 
Q 2541 3569 2628 3553 
L 2631 2963 
z
" transform="scale(0.015625)"/>
      <path id="DejaVuSans-57" d="M 1172 4494 
L 1172 3500 
L 2356 3500 
L 2356 3053 
L 1172 3053 
L 1172 1153 
Q 1172 725 1289 603 
Q 1406 481 1766 481 
L 2356 481 
L 2356 0 
L 1766 0 
Q 1100 0 847 248 
Q 594 497 594 1153 
L 594 3053 
L 172 3053 
L 172 3500 
L 594 3500 
L 594 4494 
L 1172 4494 
z
" transform="scale(0.015625)"/>
      <path id="DejaVuSans-58" d="M 544 1381 
L 544 3500 
L 1119 3500 
L 1119 1403 
Q 1119 906 1312 657 
Q 1506 409 1894 409 
Q 2359 409 2629 706 
Q 2900 1003 2900 1516 
L 2900 3500 
L 3475 3500 
L 3475 0 
L 2900 0 
L 2900 538 
Q 2691 219 2414 64 
Q 2138 -91 1772 -91 
Q 1169 -91 856 284 
Q 544 659 544 1381 
z
M 1991 3584 
L 1991 3584 
z
" transform="scale(0.015625)"/>
      <path id="DejaVuSans-44" d="M 2194 1759 
Q 1497 1759 1228 1600 
Q 959 1441 959 1056 
Q 959 750 1161 570 
Q 1363 391 1709 391 
Q 2188 391 2477 730 
Q 2766 1069 2766 1631 
L 2766 1759 
L 2194 1759 
z
M 3341 1997 
L 3341 0 
L 2766 0 
L 2766 531 
Q 2569 213 2275 61 
Q 1981 -91 1556 -91 
Q 1019 -91 701 211 
Q 384 513 384 1019 
Q 384 1609 779 1909 
Q 1175 2209 1959 2209 
L 2766 2209 
L 2766 2266 
Q 2766 2663 2505 2880 
Q 2244 3097 1772 3097 
Q 1472 3097 1187 3025 
Q 903 2953 641 2809 
L 641 3341 
Q 956 3463 1253 3523 
Q 1550 3584 1831 3584 
Q 2591 3584 2966 3190 
Q 3341 2797 3341 1997 
z
" transform="scale(0.015625)"/>
      <path id="DejaVuSans-4f" d="M 603 4863 
L 1178 4863 
L 1178 0 
L 603 0 
L 603 4863 
z
" transform="scale(0.015625)"/>
      <path id="DejaVuSans-3" transform="scale(0.015625)"/>
      <path id="DejaVuSans-51" d="M 3513 2113 
L 3513 0 
L 2938 0 
L 2938 2094 
Q 2938 2591 2744 2837 
Q 2550 3084 2163 3084 
Q 1697 3084 1428 2787 
Q 1159 2491 1159 1978 
L 1159 0 
L 581 0 
L 581 3500 
L 1159 3500 
L 1159 2956 
Q 1366 3272 1645 3428 
Q 1925 3584 2291 3584 
Q 2894 3584 3203 3211 
Q 3513 2838 3513 2113 
z
" transform="scale(0.015625)"/>
      <path id="DejaVuSans-53" d="M 1159 525 
L 1159 -1331 
L 581 -1331 
L 581 3500 
L 1159 3500 
L 1159 2969 
Q 1341 3281 1617 3432 
Q 1894 3584 2278 3584 
Q 2916 3584 3314 3078 
Q 3713 2572 3713 1747 
Q 3713 922 3314 415 
Q 2916 -91 2278 -91 
Q 1894 -91 1617 61 
Q 1341 213 1159 525 
z
M 3116 1747 
Q 3116 2381 2855 2742 
Q 2594 3103 2138 3103 
Q 1681 3103 1420 2742 
Q 1159 2381 1159 1747 
Q 1159 1113 1420 752 
Q 1681 391 2138 391 
Q 2594 391 2855 752 
Q 3116 1113 3116 1747 
z
" transform="scale(0.015625)"/>
      <path id="DejaVuSans-46" d="M 3122 3366 
L 3122 2828 
Q 2878 2963 2633 3030 
Q 2388 3097 2138 3097 
Q 1578 3097 1268 2742 
Q 959 2388 959 1747 
Q 959 1106 1268 751 
Q 1578 397 2138 397 
Q 2388 397 2633 464 
Q 2878 531 3122 666 
L 3122 134 
Q 2881 22 2623 -34 
Q 2366 -91 2075 -91 
Q 1284 -91 818 406 
Q 353 903 353 1747 
Q 353 2603 823 3093 
Q 1294 3584 2113 3584 
Q 2378 3584 2631 3529 
Q 2884 3475 3122 3366 
z
" transform="scale(0.015625)"/>
      <path id="DejaVuSans-52" d="M 1959 3097 
Q 1497 3097 1228 2736 
Q 959 2375 959 1747 
Q 959 1119 1226 758 
Q 1494 397 1959 397 
Q 2419 397 2687 759 
Q 2956 1122 2956 1747 
Q 2956 2369 2687 2733 
Q 2419 3097 1959 3097 
z
M 1959 3584 
Q 2709 3584 3137 3096 
Q 3566 2609 3566 1747 
Q 3566 888 3137 398 
Q 2709 -91 1959 -91 
Q 1206 -91 779 398 
Q 353 888 353 1747 
Q 353 2609 779 3096 
Q 1206 3584 1959 3584 
z
" transform="scale(0.015625)"/>
      <path id="DejaVuSans-56" d="M 2834 3397 
L 2834 2853 
Q 2591 2978 2328 3040 
Q 2066 3103 1784 3103 
Q 1356 3103 1142 2972 
Q 928 2841 928 2578 
Q 928 2378 1081 2264 
Q 1234 2150 1697 2047 
L 1894 2003 
Q 2506 1872 2764 1633 
Q 3022 1394 3022 966 
Q 3022 478 2636 193 
Q 2250 -91 1575 -91 
Q 1294 -91 989 -36 
Q 684 19 347 128 
L 347 722 
Q 666 556 975 473 
Q 1284 391 1588 391 
Q 1994 391 2212 530 
Q 2431 669 2431 922 
Q 2431 1156 2273 1281 
Q 2116 1406 1581 1522 
L 1381 1569 
Q 847 1681 609 1914 
Q 372 2147 372 2553 
Q 372 3047 722 3315 
Q 1072 3584 1716 3584 
Q 2034 3584 2315 3537 
Q 2597 3491 2834 3397 
z
" transform="scale(0.015625)"/>
      <path id="DejaVuSans-48" d="M 3597 1894 
L 3597 1613 
L 953 1613 
Q 991 1019 1311 708 
Q 1631 397 2203 397 
Q 2534 397 2845 478 
Q 3156 559 3463 722 
L 3463 178 
Q 3153 47 2828 -22 
Q 2503 -91 2169 -91 
Q 1331 -91 842 396 
Q 353 884 353 1716 
Q 353 2575 817 3079 
Q 1281 3584 2069 3584 
Q 2775 3584 3186 3129 
Q 3597 2675 3597 1894 
z
M 3022 2063 
Q 3016 2534 2758 2815 
Q 2500 3097 2075 3097 
Q 1594 3097 1305 2825 
Q 1016 2553 972 2059 
L 3022 2063 
z
" transform="scale(0.015625)"/>
      <path id="DejaVuSans-Oblique-3a" d="M 616 4666 
L 1228 4666 
L 1453 697 
L 3213 4666 
L 3916 4666 
L 4147 697 
L 5888 4666 
L 6528 4666 
L 4453 0 
L 3659 0 
L 3444 3891 
L 1697 0 
L 903 0 
L 616 4666 
z
" transform="scale(0.015625)"/>
     </defs>
     <use xlink:href="#DejaVuSans-39" transform="translate(0 0.015625)"/>
     <use xlink:href="#DejaVuSans-4c" transform="translate(66.408203 0.015625)"/>
     <use xlink:href="#DejaVuSans-55" transform="translate(94.191406 0.015625)"/>
     <use xlink:href="#DejaVuSans-57" transform="translate(135.304688 0.015625)"/>
     <use xlink:href="#DejaVuSans-58" transform="translate(174.513672 0.015625)"/>
     <use xlink:href="#DejaVuSans-44" transform="translate(237.892578 0.015625)"/>
     <use xlink:href="#DejaVuSans-4f" transform="translate(299.171875 0.015625)"/>
     <use xlink:href="#DejaVuSans-3" transform="translate(326.955078 0.015625)"/>
     <use xlink:href="#DejaVuSans-4c" transform="translate(358.742188 0.015625)"/>
     <use xlink:href="#DejaVuSans-51" transform="translate(386.525391 0.015625)"/>
     <use xlink:href="#DejaVuSans-53" transform="translate(449.904297 0.015625)"/>
     <use xlink:href="#DejaVuSans-58" transform="translate(513.380859 0.015625)"/>
     <use xlink:href="#DejaVuSans-57" transform="translate(576.759766 0.015625)"/>
     <use xlink:href="#DejaVuSans-3" transform="translate(615.96875 0.015625)"/>
     <use xlink:href="#DejaVuSans-46" transform="translate(647.755859 0.015625)"/>
     <use xlink:href="#DejaVuSans-52" transform="translate(702.736328 0.015625)"/>
     <use xlink:href="#DejaVuSans-51" transform="translate(763.917969 0.015625)"/>
     <use xlink:href="#DejaVuSans-56" transform="translate(827.296875 0.015625)"/>
     <use xlink:href="#DejaVuSans-57" transform="translate(879.396484 0.015625)"/>
     <use xlink:href="#DejaVuSans-55" transform="translate(918.605469 0.015625)"/>
     <use xlink:href="#DejaVuSans-44" transform="translate(959.71875 0.015625)"/>
     <use xlink:href="#DejaVuSans-4c" transform="translate(1020.998047 0.015625)"/>
     <use xlink:href="#DejaVuSans-51" transform="translate(1048.78125 0.015625)"/>
     <use xlink:href="#DejaVuSans-57" transform="translate(1112.160156 0.015625)"/>
     <use xlink:href="#DejaVuSans-3" transform="translate(1151.369141 0.015625)"/>
     <use xlink:href="#DejaVuSans-56" transform="translate(1183.15625 0.015625)"/>
     <use xlink:href="#DejaVuSans-48" transform="translate(1235.255859 0.015625)"/>
     <use xlink:href="#DejaVuSans-57" transform="translate(1296.779297 0.015625)"/>
     <use xlink:href="#DejaVuSans-3" transform="translate(1335.988281 0.015625)"/>
     <use xlink:href="#DejaVuSans-Oblique-3a" transform="translate(1367.775391 0.015625)"/>
    </g>
   </g>
  </g>
 </g>
 <defs>
  <clipPath id="p80d1171906">
   <rect x="52.482813" y="22.32" width="276.855752" height="277.2"/>
  </clipPath>
 </defs>
</svg>
