<?xml version="1.0" encoding="utf-8" standalone="no"?>
<!DOCTYPE svg PUBLIC "-//W3C//DTD SVG 1.1//EN"
  "http://www.w3.org/Graphics/SVG/1.1/DTD/svg11.dtd">
<svg xmlns:xlink="http://www.w3.org/1999/xlink" width="504pt" height="604.8pt" viewBox="0 0 504 604.8" xmlns="http://www.w3.org/2000/svg" version="1.1">
 <metadata>
  <rdf:RDF xmlns:dc="http://purl.org/dc/elements/1.1/" xmlns:cc="http://creativecommons.org/ns#" xmlns:rdf="http://www.w3.org/1999/02/22-rdf-syntax-ns#">
   <cc:Work>
    <dc:type rdf:resource="http://purl.org/dc/dcmitype/StillImage"/>
    <dc:date>2026-07-10T12:54:48.406762</dc:date>
    <dc:format>image/svg+xml</dc:format>
    <dc:creator>
     <cc:Agent>
      <dc:title>Matplotlib v3.11.0, https://matplotlib.org/</dc:title>
     </cc:Agent>
    </dc:creator>
   </cc:Work>
  </rdf:RDF>
 </metadata>
 <defs>
  <style type="text/css">*{stroke-linejoin: round; stroke-linecap: butt}</style>
 </defs>
 <g id="figure_1">
  <g id="patch_1">
   <path d="M 0 604.8 
L 504 604.8 
L 504 0 
L 0 0 
z
" style="fill: #ffffff"/>
  </g>
  <g id="axes_1">
   <g id="patch_2">
    <path d="M 42.28 180.599531 
L 493.2 180.599531 
L 493.2 49.202812 
L 42.28 49.202812 
z
" style="fill: #ffffff"/>
   </g>
   <g id="matplotlib.axis_1">
    <g id="xtick_1">
     <g id="line2d_1">
      <path d="M 62.77636 180.599531 
L 62.77636 49.202812 
" clip-path="url(#pb75d7014a7)" style="fill: none; stroke: #b0b0b0; stroke-width: 0.8; stroke-linecap: square"/>
     </g>
     <g id="line2d_2">
      <defs>
       <path id="m820335f37e" d="M 0 0 
L 0 3.5 
" style="stroke: #000000; stroke-width: 0.8"/>
      </defs>
      <g>
       <use xlink:href="#m820335f37e" x="62.77636" y="180.599531" style="stroke: #000000; stroke-width: 0.8"/>
      </g>
     </g>
     <g id="text_1">
      <!-- 0 -->
      <g transform="translate(59.59511 195.197187) scale(0.1 -0.1)">
       <defs>
        <path id="DejaVuSans-13" d="M 2034 4250 
Q 1547 4250 1301 3770 
Q 1056 3291 1056 2328 
Q 1056 1369 1301 889 
Q 1547 409 2034 409 
Q 2525 409 2770 889 
Q 3016 1369 3016 2328 
Q 3016 3291 2770 3770 
Q 2525 4250 2034 4250 
z
M 2034 4750 
Q 2819 4750 3233 4129 
Q 3647 3509 3647 2328 
Q 3647 1150 3233 529 
Q 2819 -91 2034 -91 
Q 1250 -91 836 529 
Q 422 1150 422 2328 
Q 422 3509 836 4129 
Q 1250 4750 2034 4750 
z
" transform="scale(0.015625)"/>
       </defs>
       <use xlink:href="#DejaVuSans-13"/>
      </g>
     </g>
    </g>
    <g id="xtick_2">
     <g id="line2d_3">
      <path d="M 146.050781 180.599531 
L 146.050781 49.202812 
" clip-path="url(#pb75d7014a7)" style="fill: none; stroke: #b0b0b0; stroke-width: 0.8; stroke-linecap: square"/>
     </g>
     <g id="line2d_4">
      <g>
       <use xlink:href="#m820335f37e" x="146.050781" y="180.599531" style="stroke: #000000; stroke-width: 0.8"/>
      </g>
     </g>
     <g id="text_2">
      <!-- 10 -->
      <g transform="translate(139.688281 195.197187) scale(0.1 -0.1)">
       <defs>
        <path id="DejaVuSans-14" d="M 794 531 
L 1825 531 
L 1825 4091 
L 703 3866 
L 703 4441 
L 1819 4666 
L 2450 4666 
L 2450 531 
L 3481 531 
L 3481 0 
L 794 0 
L 794 531 
z
" transform="scale(0.015625)"/>
       </defs>
       <use xlink:href="#DejaVuSans-14"/>
       <use xlink:href="#DejaVuSans-13" transform="translate(63.625 0)"/>
      </g>
     </g>
    </g>
    <g id="xtick_3">
     <g id="line2d_5">
      <path d="M 229.325202 180.599531 
L 229.325202 49.202812 
" clip-path="url(#pb75d7014a7)" style="fill: none; stroke: #b0b0b0; stroke-width: 0.8; stroke-linecap: square"/>
     </g>
     <g id="line2d_6">
      <g>
       <use xlink:href="#m820335f37e" x="229.325202" y="180.599531" style="stroke: #000000; stroke-width: 0.8"/>
      </g>
     </g>
     <g id="text_3">
      <!-- 20 -->
      <g transform="translate(222.962702 195.197187) scale(0.1 -0.1)">
       <defs>
        <path id="DejaVuSans-15" d="M 1228 531 
L 3431 531 
L 3431 0 
L 469 0 
L 469 531 
Q 828 903 1448 1529 
Q 2069 2156 2228 2338 
Q 2531 2678 2651 2914 
Q 2772 3150 2772 3378 
Q 2772 3750 2511 3984 
Q 2250 4219 1831 4219 
Q 1534 4219 1204 4116 
Q 875 4013 500 3803 
L 500 4441 
Q 881 4594 1212 4672 
Q 1544 4750 1819 4750 
Q 2544 4750 2975 4387 
Q 3406 4025 3406 3419 
Q 3406 3131 3298 2873 
Q 3191 2616 2906 2266 
Q 2828 2175 2409 1742 
Q 1991 1309 1228 531 
z
" transform="scale(0.015625)"/>
       </defs>
       <use xlink:href="#DejaVuSans-15"/>
       <use xlink:href="#DejaVuSans-13" transform="translate(63.625 0)"/>
      </g>
     </g>
    </g>
    <g id="xtick_4">
     <g id="line2d_7">
      <path d="M 312.599622 180.599531 
L 312.599622 49.202812 
" clip-path="url(#pb75d7014a7)" style="fill: none; stroke: #b0b0b0; stroke-width: 0.8; stroke-linecap: square"/>
     </g>
     <g id="line2d_8">
      <g>
       <use xlink:href="#m820335f37e" x="312.599622" y="180.599531" style="stroke: #000000; stroke-width: 0.8"/>
      </g>
     </g>
     <g id="text_4">
      <!-- 30 -->
      <g transform="translate(306.237122 195.197187) scale(0.1 -0.1)">
       <defs>
        <path id="DejaVuSans-16" d="M 2597 2516 
Q 3050 2419 3304 2112 
Q 3559 1806 3559 1356 
Q 3559 666 3084 287 
Q 2609 -91 1734 -91 
Q 1441 -91 1130 -33 
Q 819 25 488 141 
L 488 750 
Q 750 597 1062 519 
Q 1375 441 1716 441 
Q 2309 441 2620 675 
Q 2931 909 2931 1356 
Q 2931 1769 2642 2001 
Q 2353 2234 1838 2234 
L 1294 2234 
L 1294 2753 
L 1863 2753 
Q 2328 2753 2575 2939 
Q 2822 3125 2822 3475 
Q 2822 3834 2567 4026 
Q 2313 4219 1838 4219 
Q 1578 4219 1281 4162 
Q 984 4106 628 3988 
L 628 4550 
Q 988 4650 1302 4700 
Q 1616 4750 1894 4750 
Q 2613 4750 3031 4423 
Q 3450 4097 3450 3541 
Q 3450 3153 3228 2886 
Q 3006 2619 2597 2516 
z
" transform="scale(0.015625)"/>
       </defs>
       <use xlink:href="#DejaVuSans-16"/>
       <use xlink:href="#DejaVuSans-13" transform="translate(63.625 0)"/>
      </g>
     </g>
    </g>
    <g id="xtick_5">
     <g id="line2d_9">
      <path d="M 395.874043 180.599531 
L 395.874043 49.202812 
" clip-path="url(#pb75d7014a7)" style="fill: none; stroke: #b0b0b0; stroke-width: 0.8; stroke-linecap: square"/>
     </g>
     <g id="line2d_10">
      <g>
       <use xlink:href="#m820335f37e" x="395.874043" y="180.599531" style="stroke: #000000; stroke-width: 0.8"/>
      </g>
     </g>
     <g id="text_5">
      <!-- 40 -->
      <g transform="translate(389.511543 195.197187) scale(0.1 -0.1)">
       <defs>
        <path id="DejaVuSans-17" d="M 2419 4116 
L 825 1625 
L 2419 1625 
L 2419 4116 
z
M 2253 4666 
L 3047 4666 
L 3047 1625 
L 3713 1625 
L 3713 1100 
L 3047 1100 
L 3047 0 
L 2419 0 
L 2419 1100 
L 313 1100 
L 313 1709 
L 2253 4666 
z
" transform="scale(0.015625)"/>
       </defs>
       <use xlink:href="#DejaVuSans-17"/>
       <use xlink:href="#DejaVuSans-13" transform="translate(63.625 0)"/>
      </g>
     </g>
    </g>
    <g id="xtick_6">
     <g id="line2d_11">
      <path d="M 479.148464 180.599531 
L 479.148464 49.202812 
" clip-path="url(#pb75d7014a7)" style="fill: none; stroke: #b0b0b0; stroke-width: 0.8; stroke-linecap: square"/>
     </g>
     <g id="line2d_12">
      <g>
       <use xlink:href="#m820335f37e" x="479.148464" y="180.599531" style="stroke: #000000; stroke-width: 0.8"/>
      </g>
     </g>
     <g id="text_6">
      <!-- 50 -->
      <g transform="translate(472.785964 195.197187) scale(0.1 -0.1)">
       <defs>
        <path id="DejaVuSans-18" d="M 691 4666 
L 3169 4666 
L 3169 4134 
L 1269 4134 
L 1269 2991 
Q 1406 3038 1543 3061 
Q 1681 3084 1819 3084 
Q 2600 3084 3056 2656 
Q 3513 2228 3513 1497 
Q 3513 744 3044 326 
Q 2575 -91 1722 -91 
Q 1428 -91 1123 -41 
Q 819 9 494 109 
L 494 744 
Q 775 591 1075 516 
Q 1375 441 1709 441 
Q 2250 441 2565 725 
Q 2881 1009 2881 1497 
Q 2881 1984 2565 2268 
Q 2250 2553 1709 2553 
Q 1456 2553 1204 2497 
Q 953 2441 691 2322 
L 691 4666 
z
" transform="scale(0.015625)"/>
       </defs>
       <use xlink:href="#DejaVuSans-18"/>
       <use xlink:href="#DejaVuSans-13" transform="translate(63.625 0)"/>
      </g>
     </g>
    </g>
    <g id="text_7">
     <!-- t (s) -->
     <g transform="translate(257.684531 209.197187) scale(0.1 -0.1)">
      <defs>
       <path id="DejaVuSans-57" d="M 1172 4494 
L 1172 3500 
L 2356 3500 
L 2356 3053 
L 1172 3053 
L 1172 1153 
Q 1172 725 1289 603 
Q 1406 481 1766 481 
L 2356 481 
L 2356 0 
L 1766 0 
Q 1100 0 847 248 
Q 594 497 594 1153 
L 594 3053 
L 172 3053 
L 172 3500 
L 594 3500 
L 594 4494 
L 1172 4494 
z
" transform="scale(0.015625)"/>
       <path id="DejaVuSans-3" transform="scale(0.015625)"/>
       <path id="DejaVuSans-b" d="M 1984 4856 
Q 1566 4138 1362 3434 
Q 1159 2731 1159 2009 
Q 1159 1288 1364 580 
Q 1569 -128 1984 -844 
L 1484 -844 
Q 1016 -109 783 600 
Q 550 1309 550 2009 
Q 550 2706 781 3412 
Q 1013 4119 1484 4856 
L 1984 4856 
z
" transform="scale(0.015625)"/>
       <path id="DejaVuSans-56" d="M 2834 3397 
L 2834 2853 
Q 2591 2978 2328 3040 
Q 2066 3103 1784 3103 
Q 1356 3103 1142 2972 
Q 928 2841 928 2578 
Q 928 2378 1081 2264 
Q 1234 2150 1697 2047 
L 1894 2003 
Q 2506 1872 2764 1633 
Q 3022 1394 3022 966 
Q 3022 478 2636 193 
Q 2250 -91 1575 -91 
Q 1294 -91 989 -36 
Q 684 19 347 128 
L 347 722 
Q 666 556 975 473 
Q 1284 391 1588 391 
Q 1994 391 2212 530 
Q 2431 669 2431 922 
Q 2431 1156 2273 1281 
Q 2116 1406 1581 1522 
L 1381 1569 
Q 847 1681 609 1914 
Q 372 2147 372 2553 
Q 372 3047 722 3315 
Q 1072 3584 1716 3584 
Q 2034 3584 2315 3537 
Q 2597 3491 2834 3397 
z
" transform="scale(0.015625)"/>
       <path id="DejaVuSans-c" d="M 513 4856 
L 1013 4856 
Q 1481 4119 1714 3412 
Q 1947 2706 1947 2009 
Q 1947 1309 1714 600 
Q 1481 -109 1013 -844 
L 513 -844 
Q 928 -128 1133 580 
Q 1338 1288 1338 2009 
Q 1338 2731 1133 3434 
Q 928 4138 513 4856 
z
" transform="scale(0.015625)"/>
      </defs>
      <use xlink:href="#DejaVuSans-57"/>
      <use xlink:href="#DejaVuSans-3" transform="translate(39.203125 0)"/>
      <use xlink:href="#DejaVuSans-b" transform="translate(70.984375 0)"/>
      <use xlink:href="#DejaVuSans-56" transform="translate(110 0)"/>
      <use xlink:href="#DejaVuSans-c" transform="translate(162.09375 0)"/>
     </g>
    </g>
   </g>
   <g id="matplotlib.axis_2">
    <g id="ytick_1">
     <g id="line2d_13">
      <path d="M 42.28 176.446012 
L 493.2 176.446012 
" clip-path="url(#pb75d7014a7)" style="fill: none; stroke: #b0b0b0; stroke-width: 0.8; stroke-linecap: square"/>
     </g>
     <g id="line2d_14">
      <defs>
       <path id="m4bac15119d" d="M 0 0 
L -3.5 0 
" style="stroke: #000000; stroke-width: 0.8"/>
      </defs>
      <g>
       <use xlink:href="#m4bac15119d" x="42.28" y="176.446012" style="stroke: #000000; stroke-width: 0.8"/>
      </g>
     </g>
     <g id="text_8">
      <!-- 0.0 -->
      <g transform="translate(19.376875 180.244841) scale(0.1 -0.1)">
       <defs>
        <path id="DejaVuSans-11" d="M 684 794 
L 1344 794 
L 1344 0 
L 684 0 
L 684 794 
z
" transform="scale(0.015625)"/>
       </defs>
       <use xlink:href="#DejaVuSans-13"/>
       <use xlink:href="#DejaVuSans-11" transform="translate(63.625 0)"/>
       <use xlink:href="#DejaVuSans-13" transform="translate(95.40625 0)"/>
      </g>
     </g>
    </g>
    <g id="ytick_2">
     <g id="line2d_15">
      <path d="M 42.28 152.191888 
L 493.2 152.191888 
" clip-path="url(#pb75d7014a7)" style="fill: none; stroke: #b0b0b0; stroke-width: 0.8; stroke-linecap: square"/>
     </g>
     <g id="line2d_16">
      <g>
       <use xlink:href="#m4bac15119d" x="42.28" y="152.191888" style="stroke: #000000; stroke-width: 0.8"/>
      </g>
     </g>
     <g id="text_9">
      <!-- 0.2 -->
      <g transform="translate(19.376875 155.990716) scale(0.1 -0.1)">
       <use xlink:href="#DejaVuSans-13"/>
       <use xlink:href="#DejaVuSans-11" transform="translate(63.625 0)"/>
       <use xlink:href="#DejaVuSans-15" transform="translate(95.40625 0)"/>
      </g>
     </g>
    </g>
    <g id="ytick_3">
     <g id="line2d_17">
      <path d="M 42.28 127.937764 
L 493.2 127.937764 
" clip-path="url(#pb75d7014a7)" style="fill: none; stroke: #b0b0b0; stroke-width: 0.8; stroke-linecap: square"/>
     </g>
     <g id="line2d_18">
      <g>
       <use xlink:href="#m4bac15119d" x="42.28" y="127.937764" style="stroke: #000000; stroke-width: 0.8"/>
      </g>
     </g>
     <g id="text_10">
      <!-- 0.4 -->
      <g transform="translate(19.376875 131.736592) scale(0.1 -0.1)">
       <use xlink:href="#DejaVuSans-13"/>
       <use xlink:href="#DejaVuSans-11" transform="translate(63.625 0)"/>
       <use xlink:href="#DejaVuSans-17" transform="translate(95.40625 0)"/>
      </g>
     </g>
    </g>
    <g id="ytick_4">
     <g id="line2d_19">
      <path d="M 42.28 103.683639 
L 493.2 103.683639 
" clip-path="url(#pb75d7014a7)" style="fill: none; stroke: #b0b0b0; stroke-width: 0.8; stroke-linecap: square"/>
     </g>
     <g id="line2d_20">
      <g>
       <use xlink:href="#m4bac15119d" x="42.28" y="103.683639" style="stroke: #000000; stroke-width: 0.8"/>
      </g>
     </g>
     <g id="text_11">
      <!-- 0.6 -->
      <g transform="translate(19.376875 107.482467) scale(0.1 -0.1)">
       <defs>
        <path id="DejaVuSans-19" d="M 2113 2584 
Q 1688 2584 1439 2293 
Q 1191 2003 1191 1497 
Q 1191 994 1439 701 
Q 1688 409 2113 409 
Q 2538 409 2786 701 
Q 3034 994 3034 1497 
Q 3034 2003 2786 2293 
Q 2538 2584 2113 2584 
z
M 3366 4563 
L 3366 3988 
Q 3128 4100 2886 4159 
Q 2644 4219 2406 4219 
Q 1781 4219 1451 3797 
Q 1122 3375 1075 2522 
Q 1259 2794 1537 2939 
Q 1816 3084 2150 3084 
Q 2853 3084 3261 2657 
Q 3669 2231 3669 1497 
Q 3669 778 3244 343 
Q 2819 -91 2113 -91 
Q 1303 -91 875 529 
Q 447 1150 447 2328 
Q 447 3434 972 4092 
Q 1497 4750 2381 4750 
Q 2619 4750 2861 4703 
Q 3103 4656 3366 4563 
z
" transform="scale(0.015625)"/>
       </defs>
       <use xlink:href="#DejaVuSans-13"/>
       <use xlink:href="#DejaVuSans-11" transform="translate(63.625 0)"/>
       <use xlink:href="#DejaVuSans-19" transform="translate(95.40625 0)"/>
      </g>
     </g>
    </g>
    <g id="ytick_5">
     <g id="line2d_21">
      <path d="M 42.28 79.429515 
L 493.2 79.429515 
" clip-path="url(#pb75d7014a7)" style="fill: none; stroke: #b0b0b0; stroke-width: 0.8; stroke-linecap: square"/>
     </g>
     <g id="line2d_22">
      <g>
       <use xlink:href="#m4bac15119d" x="42.28" y="79.429515" style="stroke: #000000; stroke-width: 0.8"/>
      </g>
     </g>
     <g id="text_12">
      <!-- 0.8 -->
      <g transform="translate(19.376875 83.228343) scale(0.1 -0.1)">
       <defs>
        <path id="DejaVuSans-1b" d="M 2034 2216 
Q 1584 2216 1326 1975 
Q 1069 1734 1069 1313 
Q 1069 891 1326 650 
Q 1584 409 2034 409 
Q 2484 409 2743 651 
Q 3003 894 3003 1313 
Q 3003 1734 2745 1975 
Q 2488 2216 2034 2216 
z
M 1403 2484 
Q 997 2584 770 2862 
Q 544 3141 544 3541 
Q 544 4100 942 4425 
Q 1341 4750 2034 4750 
Q 2731 4750 3128 4425 
Q 3525 4100 3525 3541 
Q 3525 3141 3298 2862 
Q 3072 2584 2669 2484 
Q 3125 2378 3379 2068 
Q 3634 1759 3634 1313 
Q 3634 634 3220 271 
Q 2806 -91 2034 -91 
Q 1263 -91 848 271 
Q 434 634 434 1313 
Q 434 1759 690 2068 
Q 947 2378 1403 2484 
z
M 1172 3481 
Q 1172 3119 1398 2916 
Q 1625 2713 2034 2713 
Q 2441 2713 2670 2916 
Q 2900 3119 2900 3481 
Q 2900 3844 2670 4047 
Q 2441 4250 2034 4250 
Q 1625 4250 1398 4047 
Q 1172 3844 1172 3481 
z
" transform="scale(0.015625)"/>
       </defs>
       <use xlink:href="#DejaVuSans-13"/>
       <use xlink:href="#DejaVuSans-11" transform="translate(63.625 0)"/>
       <use xlink:href="#DejaVuSans-1b" transform="translate(95.40625 0)"/>
      </g>
     </g>
    </g>
    <g id="ytick_6">
     <g id="line2d_23">
      <path d="M 42.28 55.175391 
L 493.2 55.175391 
" clip-path="url(#pb75d7014a7)" style="fill: none; stroke: #b0b0b0; stroke-width: 0.8; stroke-linecap: square"/>
     </g>
     <g id="line2d_24">
      <g>
       <use xlink:href="#m4bac15119d" x="42.28" y="55.175391" style="stroke: #000000; stroke-width: 0.8"/>
      </g>
     </g>
     <g id="text_13">
      <!-- 1.0 -->
      <g transform="translate(19.376875 58.974219) scale(0.1 -0.1)">
       <use xlink:href="#DejaVuSans-14"/>
       <use xlink:href="#DejaVuSans-11" transform="translate(63.625 0)"/>
       <use xlink:href="#DejaVuSans-13" transform="translate(95.40625 0)"/>
      </g>
     </g>
    </g>
   </g>
   <g id="line2d_25">
    <path d="M 62.776364 174.626953 
L 64.36808 170.988834 
L 112.671556 65.483396 
L 113.506408 65.902925 
L 122.665574 85.912577 
L 123.497879 84.093518 
L 125.996396 89.550696 
L 127.105767 93.188815 
L 127.938853 95.007874 
L 129.048787 98.645993 
L 129.881696 100.465052 
L 131.54741 105.92223 
L 139.332814 80.455399 
L 140.152938 78.63634 
L 144.593534 64.083865 
L 145.427687 62.264806 
L 147.092053 56.807628 
L 147.926207 55.175391 
L 158.750855 55.175391 
L 159.306123 55.329597 
L 161.806109 60.786775 
L 162.915197 62.605834 
L 169.576495 77.158308 
L 170.409585 75.339249 
L 173.740776 82.615486 
L 174.573179 80.796427 
L 178.737087 89.891724 
L 179.84689 93.529842 
L 180.681285 95.348902 
L 181.236411 97.167961 
L 181.793202 98.187165 
L 194.562363 56.348801 
L 195.117065 55.175391 
L 206.497495 55.175391 
L 207.052354 55.512567 
L 209.550761 60.969745 
L 210.66138 62.788805 
L 213.992518 70.065042 
L 214.547631 71.884101 
L 217.045905 77.341279 
L 217.880784 75.52222 
L 220.379536 80.979398 
L 223.709974 86.436576 
L 224.542752 84.617517 
L 226.208203 88.255635 
L 228.983775 97.350932 
L 229.816965 95.531872 
L 235.368269 77.341279 
L 236.20142 75.52222 
L 236.757309 73.703161 
L 237.590159 71.884101 
L 239.810671 64.607864 
L 240.642435 62.788805 
L 241.75354 59.150686 
L 242.585407 57.331627 
L 243.140392 55.512567 
L 243.695857 55.175391 
L 254.243964 55.199753 
L 255.076365 56.573251 
L 256.742454 60.211369 
L 257.853189 62.030429 
L 264.515868 76.582903 
L 265.347537 74.763844 
L 268.678352 82.040081 
L 270.900029 85.6782 
L 273.397368 91.135378 
L 274.507595 94.773496 
L 275.34041 96.592556 
L 276.450506 100.230674 
L 277.005643 98.411615 
L 277.8386 96.592556 
L 279.503929 91.135378 
L 280.337169 89.316318 
L 287.553968 65.668547 
L 289.2193 62.030429 
L 289.774392 60.211369 
L 290.607728 58.39231 
L 291.162656 56.573251 
L 291.717649 55.175391 
L 301.988209 55.175391 
L 302.543387 55.808292 
L 312.536808 77.637003 
L 313.370698 75.817944 
L 315.035209 79.456063 
L 315.589761 81.275122 
L 317.255836 84.80391 
L 318.365752 86.622969 
L 321.696824 93.899206 
L 323.361997 99.356384 
L 329.469215 79.346732 
L 331.134947 75.708613 
L 331.689646 73.889554 
L 333.355355 70.251435 
L 334.465594 66.613317 
L 336.964034 61.156139 
L 338.6292 55.698961 
L 339.184793 55.175391 
L 348.901073 55.175391 
L 349.455003 55.329478 
L 350.287878 57.148537 
L 353.618741 62.605715 
L 360.280828 77.15819 
L 361.113889 75.33913 
L 363.612265 80.796308 
L 364.722329 80.216065 
L 365.832875 82.035125 
L 368.331129 87.492303 
L 369.441443 91.130421 
L 370.27543 92.949481 
L 370.829807 93.393937 
L 373.605011 84.29864 
L 375.270742 80.660522 
L 381.932776 58.83181 
L 383.598138 55.193691 
L 389.150414 55.175391 
L 394.979291 55.175391 
L 395.812096 55.68891 
L 396.646332 57.50797 
L 397.755422 59.327029 
L 405.249947 75.698563 
L 406.915388 72.060444 
L 408.580679 75.698563 
L 409.690784 79.336682 
L 413.021847 86.612919 
L 413.854565 84.79386 
L 416.630359 75.698563 
L 419.128611 70.241385 
L 419.683895 72.060444 
L 423.015304 64.784207 
L 423.570057 66.603266 
L 424.402933 64.784207 
L 427.179222 55.68891 
L 428.012367 55.175391 
L 430.787568 55.175391 
L 431.620053 56.592807 
L 432.452611 58.411866 
L 434.673148 65.688104 
L 437.171838 71.145282 
L 438.83692 76.60246 
L 443.835279 87.516816 
L 444.388822 89.335875 
L 445.221916 91.154934 
L 445.776351 92.973994 
L 446.610011 94.793053 
L 449.38588 103.88835 
L 451.050527 107.526468 
L 451.606176 109.345528 
L 452.439043 111.164587 
L 452.993638 112.983646 
L 453.826922 114.802706 
L 454.936665 118.440824 
L 455.769851 116.621765 
L 456.879843 112.983646 
L 457.712658 111.164587 
L 458.267695 109.345528 
L 459.93575 105.707409 
L 463.265701 94.793053 
L 464.097782 92.973994 
L 464.653603 91.154934 
L 466.317777 87.516816 
L 466.874628 85.697756 
L 469.372855 80.240578 
L 470.20536 79.640823 
L 472.703636 85.098001 
L 472.703636 85.098001 
" clip-path="url(#pb75d7014a7)" style="fill: none; stroke: #1f77b4; stroke-width: 1.5; stroke-linecap: square"/>
   </g>
   <g id="line2d_26">
    <path d="M 42.28 176.446012 
L 493.2 176.446012 
" clip-path="url(#pb75d7014a7)" style="fill: none; stroke-dasharray: 3.7,1.6; stroke-dashoffset: 0; stroke: #ff0000"/>
   </g>
   <g id="line2d_27">
    <path d="M 42.28 55.175391 
L 493.2 55.175391 
" clip-path="url(#pb75d7014a7)" style="fill: none; stroke-dasharray: 3.7,1.6; stroke-dashoffset: 0; stroke: #ff0000"/>
   </g>
   <g id="patch_3">
    <path d="M 42.28 180.599531 
L 42.28 49.202812 
" style="fill: none; stroke: #000000; stroke-width: 0.8; stroke-linejoin: miter; stroke-linecap: square"/>
   </g>
   <g id="patch_4">
    <path d="M 493.2 180.599531 
L 493.2 49.202812 
" style="fill: none; stroke: #000000; stroke-width: 0.8; stroke-linejoin: miter; stroke-linecap: square"/>
   </g>
   <g id="patch_5">
    <path d="M 42.28 180.599531 
L 493.2 180.599531 
" style="fill: none; stroke: #000000; stroke-width: 0.8; stroke-linejoin: miter; stroke-linecap: square"/>
   </g>
   <g id="patch_6">
    <path d="M 42.28 49.202812 
L 493.2 49.202812 
" style="fill: none; stroke: #000000; stroke-width: 0.8; stroke-linejoin: miter; stroke-linecap: square"/>
   </g>
   <g id="text_14">
    <!-- $v_{x,cmd}$ (m/s) -->
    <g transform="translate(232.7 43.202812) scale(0.12 -0.12)">
     <defs>
      <path id="DejaVuSans-Oblique-59" d="M 459 3500 
L 1069 3500 
L 1581 525 
L 3256 3500 
L 3866 3500 
L 1875 0 
L 1100 0 
L 459 3500 
z
" transform="scale(0.015625)"/>
      <path id="DejaVuSans-Oblique-5b" d="M 3841 3500 
L 2234 1784 
L 3219 0 
L 2559 0 
L 1819 1388 
L 531 0 
L -166 0 
L 1556 1844 
L 641 3500 
L 1300 3500 
L 1972 2234 
L 3144 3500 
L 3841 3500 
z
" transform="scale(0.015625)"/>
      <path id="DejaVuSans-f" d="M 750 794 
L 1409 794 
L 1409 256 
L 897 -744 
L 494 -744 
L 750 256 
L 750 794 
z
" transform="scale(0.015625)"/>
      <path id="DejaVuSans-Oblique-46" d="M 3431 3366 
L 3316 2797 
Q 3109 2947 2876 3022 
Q 2644 3097 2394 3097 
Q 2119 3097 1870 3000 
Q 1622 2903 1453 2725 
Q 1184 2453 1037 2087 
Q 891 1722 891 1331 
Q 891 859 1127 628 
Q 1363 397 1844 397 
Q 2081 397 2348 469 
Q 2616 541 2906 684 
L 2797 116 
Q 2547 13 2283 -39 
Q 2019 -91 1741 -91 
Q 1044 -91 669 257 
Q 294 606 294 1253 
Q 294 1797 489 2255 
Q 684 2713 1069 3078 
Q 1331 3328 1684 3456 
Q 2038 3584 2456 3584 
Q 2700 3584 2940 3529 
Q 3181 3475 3431 3366 
z
" transform="scale(0.015625)"/>
      <path id="DejaVuSans-Oblique-50" d="M 5747 2113 
L 5338 0 
L 4763 0 
L 5166 2094 
Q 5191 2228 5203 2325 
Q 5216 2422 5216 2491 
Q 5216 2772 5059 2928 
Q 4903 3084 4622 3084 
Q 4203 3084 3875 2770 
Q 3547 2456 3450 1953 
L 3066 0 
L 2491 0 
L 2900 2094 
Q 2925 2209 2937 2307 
Q 2950 2406 2950 2484 
Q 2950 2769 2794 2926 
Q 2638 3084 2363 3084 
Q 1938 3084 1609 2770 
Q 1281 2456 1184 1953 
L 800 0 
L 225 0 
L 909 3500 
L 1484 3500 
L 1375 2956 
Q 1609 3263 1923 3423 
Q 2238 3584 2597 3584 
Q 2978 3584 3223 3384 
Q 3469 3184 3519 2828 
Q 3781 3197 4126 3390 
Q 4472 3584 4856 3584 
Q 5306 3584 5551 3325 
Q 5797 3066 5797 2591 
Q 5797 2488 5784 2364 
Q 5772 2241 5747 2113 
z
" transform="scale(0.015625)"/>
      <path id="DejaVuSans-Oblique-47" d="M 2675 525 
Q 2444 222 2128 65 
Q 1813 -91 1428 -91 
Q 903 -91 598 267 
Q 294 625 294 1247 
Q 294 1766 478 2236 
Q 663 2706 1013 3078 
Q 1244 3325 1534 3454 
Q 1825 3584 2144 3584 
Q 2481 3584 2739 3421 
Q 2997 3259 3138 2956 
L 3513 4863 
L 4091 4863 
L 3144 0 
L 2566 0 
L 2675 525 
z
M 891 1350 
Q 891 897 1095 644 
Q 1300 391 1663 391 
Q 1931 391 2161 520 
Q 2391 650 2566 903 
Q 2750 1166 2856 1509 
Q 2963 1853 2963 2188 
Q 2963 2622 2758 2865 
Q 2553 3109 2194 3109 
Q 1922 3109 1687 2981 
Q 1453 2853 1288 2613 
Q 1106 2353 998 2009 
Q 891 1666 891 1350 
z
" transform="scale(0.015625)"/>
      <path id="DejaVuSans-50" d="M 3328 2828 
Q 3544 3216 3844 3400 
Q 4144 3584 4550 3584 
Q 5097 3584 5394 3201 
Q 5691 2819 5691 2113 
L 5691 0 
L 5113 0 
L 5113 2094 
Q 5113 2597 4934 2840 
Q 4756 3084 4391 3084 
Q 3944 3084 3684 2787 
Q 3425 2491 3425 1978 
L 3425 0 
L 2847 0 
L 2847 2094 
Q 2847 2600 2669 2842 
Q 2491 3084 2119 3084 
Q 1678 3084 1418 2786 
Q 1159 2488 1159 1978 
L 1159 0 
L 581 0 
L 581 3500 
L 1159 3500 
L 1159 2956 
Q 1356 3278 1631 3431 
Q 1906 3584 2284 3584 
Q 2666 3584 2933 3390 
Q 3200 3197 3328 2828 
z
" transform="scale(0.015625)"/>
      <path id="DejaVuSans-12" d="M 1625 4666 
L 2156 4666 
L 531 -594 
L 0 -594 
L 1625 4666 
z
" transform="scale(0.015625)"/>
     </defs>
     <use xlink:href="#DejaVuSans-Oblique-59" transform="translate(0 0.125)"/>
     <use xlink:href="#DejaVuSans-Oblique-5b" transform="translate(59.179688 -14.874951) scale(0.7)"/>
     <use xlink:href="#DejaVuSans-f" transform="translate(100.605469 -14.874951) scale(0.7)"/>
     <use xlink:href="#DejaVuSans-Oblique-46" transform="translate(136.494141 -14.874951) scale(0.7)"/>
     <use xlink:href="#DejaVuSans-Oblique-50" transform="translate(174.980469 -14.874951) scale(0.7)"/>
     <use xlink:href="#DejaVuSans-Oblique-47" transform="translate(243.168945 -14.874951) scale(0.7)"/>
     <use xlink:href="#DejaVuSans-3" transform="translate(290.336914 0.125)"/>
     <use xlink:href="#DejaVuSans-b" transform="translate(322.124023 0.125)"/>
     <use xlink:href="#DejaVuSans-50" transform="translate(361.137695 0.125)"/>
     <use xlink:href="#DejaVuSans-12" transform="translate(458.549805 0.125)"/>
     <use xlink:href="#DejaVuSans-56" transform="translate(492.241211 0.125)"/>
     <use xlink:href="#DejaVuSans-c" transform="translate(544.34082 0.125)"/>
    </g>
   </g>
   <g id="legend_1">
    <g id="patch_7">
     <path d="M 425.1 175.599531 
L 486.2 175.599531 
Q 488.2 175.599531 488.2 173.599531 
L 488.2 159.59875 
Q 488.2 157.59875 486.2 157.59875 
L 425.1 157.59875 
Q 423.1 157.59875 423.1 159.59875 
L 423.1 173.599531 
Q 423.1 175.599531 425.1 175.599531 
z
" style="fill: #ffffff; opacity: 0.8; stroke: #cccccc; stroke-linejoin: miter"/>
    </g>
    <g id="line2d_28">
     <path d="M 427.1 165.697187 
L 437.1 165.697187 
L 447.1 165.697187 
" style="fill: none; stroke: #1f77b4; stroke-width: 1.5; stroke-linecap: square"/>
    </g>
    <g id="text_15">
     <!-- $v_{x,cmd}$ -->
     <g transform="translate(455.1 169.197187) scale(0.1 -0.1)">
      <use xlink:href="#DejaVuSans-Oblique-59" transform="translate(0 0.3125)"/>
      <use xlink:href="#DejaVuSans-Oblique-5b" transform="translate(59.179688 -14.687451) scale(0.7)"/>
      <use xlink:href="#DejaVuSans-f" transform="translate(100.605469 -14.687451) scale(0.7)"/>
      <use xlink:href="#DejaVuSans-Oblique-46" transform="translate(136.494141 -14.687451) scale(0.7)"/>
      <use xlink:href="#DejaVuSans-Oblique-50" transform="translate(174.980469 -14.687451) scale(0.7)"/>
      <use xlink:href="#DejaVuSans-Oblique-47" transform="translate(243.168945 -14.687451) scale(0.7)"/>
     </g>
    </g>
   </g>
  </g>
  <g id="axes_2">
   <g id="patch_8">
    <path d="M 42.28 371.638594 
L 493.2 371.638594 
L 493.2 240.241875 
L 42.28 240.241875 
z
" style="fill: #ffffff"/>
   </g>
   <g id="matplotlib.axis_3">
    <g id="xtick_7">
     <g id="line2d_29">
      <path d="M 62.77636 371.638594 
L 62.77636 240.241875 
" clip-path="url(#pdcd0a78f0c)" style="fill: none; stroke: #b0b0b0; stroke-width: 0.8; stroke-linecap: square"/>
     </g>
     <g id="line2d_30">
      <g>
       <use xlink:href="#m820335f37e" x="62.77636" y="371.638594" style="stroke: #000000; stroke-width: 0.8"/>
      </g>
     </g>
     <g id="text_16">
      <!-- 0 -->
      <g transform="translate(59.59511 386.23625) scale(0.1 -0.1)">
       <use xlink:href="#DejaVuSans-13"/>
      </g>
     </g>
    </g>
    <g id="xtick_8">
     <g id="line2d_31">
      <path d="M 146.050781 371.638594 
L 146.050781 240.241875 
" clip-path="url(#pdcd0a78f0c)" style="fill: none; stroke: #b0b0b0; stroke-width: 0.8; stroke-linecap: square"/>
     </g>
     <g id="line2d_32">
      <g>
       <use xlink:href="#m820335f37e" x="146.050781" y="371.638594" style="stroke: #000000; stroke-width: 0.8"/>
      </g>
     </g>
     <g id="text_17">
      <!-- 10 -->
      <g transform="translate(139.688281 386.23625) scale(0.1 -0.1)">
       <use xlink:href="#DejaVuSans-14"/>
       <use xlink:href="#DejaVuSans-13" transform="translate(63.625 0)"/>
      </g>
     </g>
    </g>
    <g id="xtick_9">
     <g id="line2d_33">
      <path d="M 229.325202 371.638594 
L 229.325202 240.241875 
" clip-path="url(#pdcd0a78f0c)" style="fill: none; stroke: #b0b0b0; stroke-width: 0.8; stroke-linecap: square"/>
     </g>
     <g id="line2d_34">
      <g>
       <use xlink:href="#m820335f37e" x="229.325202" y="371.638594" style="stroke: #000000; stroke-width: 0.8"/>
      </g>
     </g>
     <g id="text_18">
      <!-- 20 -->
      <g transform="translate(222.962702 386.23625) scale(0.1 -0.1)">
       <use xlink:href="#DejaVuSans-15"/>
       <use xlink:href="#DejaVuSans-13" transform="translate(63.625 0)"/>
      </g>
     </g>
    </g>
    <g id="xtick_10">
     <g id="line2d_35">
      <path d="M 312.599622 371.638594 
L 312.599622 240.241875 
" clip-path="url(#pdcd0a78f0c)" style="fill: none; stroke: #b0b0b0; stroke-width: 0.8; stroke-linecap: square"/>
     </g>
     <g id="line2d_36">
      <g>
       <use xlink:href="#m820335f37e" x="312.599622" y="371.638594" style="stroke: #000000; stroke-width: 0.8"/>
      </g>
     </g>
     <g id="text_19">
      <!-- 30 -->
      <g transform="translate(306.237122 386.23625) scale(0.1 -0.1)">
       <use xlink:href="#DejaVuSans-16"/>
       <use xlink:href="#DejaVuSans-13" transform="translate(63.625 0)"/>
      </g>
     </g>
    </g>
    <g id="xtick_11">
     <g id="line2d_37">
      <path d="M 395.874043 371.638594 
L 395.874043 240.241875 
" clip-path="url(#pdcd0a78f0c)" style="fill: none; stroke: #b0b0b0; stroke-width: 0.8; stroke-linecap: square"/>
     </g>
     <g id="line2d_38">
      <g>
       <use xlink:href="#m820335f37e" x="395.874043" y="371.638594" style="stroke: #000000; stroke-width: 0.8"/>
      </g>
     </g>
     <g id="text_20">
      <!-- 40 -->
      <g transform="translate(389.511543 386.23625) scale(0.1 -0.1)">
       <use xlink:href="#DejaVuSans-17"/>
       <use xlink:href="#DejaVuSans-13" transform="translate(63.625 0)"/>
      </g>
     </g>
    </g>
    <g id="xtick_12">
     <g id="line2d_39">
      <path d="M 479.148464 371.638594 
L 479.148464 240.241875 
" clip-path="url(#pdcd0a78f0c)" style="fill: none; stroke: #b0b0b0; stroke-width: 0.8; stroke-linecap: square"/>
     </g>
     <g id="line2d_40">
      <g>
       <use xlink:href="#m820335f37e" x="479.148464" y="371.638594" style="stroke: #000000; stroke-width: 0.8"/>
      </g>
     </g>
     <g id="text_21">
      <!-- 50 -->
      <g transform="translate(472.785964 386.23625) scale(0.1 -0.1)">
       <use xlink:href="#DejaVuSans-18"/>
       <use xlink:href="#DejaVuSans-13" transform="translate(63.625 0)"/>
      </g>
     </g>
    </g>
    <g id="text_22">
     <!-- t (s) -->
     <g transform="translate(257.684531 400.23625) scale(0.1 -0.1)">
      <use xlink:href="#DejaVuSans-57"/>
      <use xlink:href="#DejaVuSans-3" transform="translate(39.203125 0)"/>
      <use xlink:href="#DejaVuSans-b" transform="translate(70.984375 0)"/>
      <use xlink:href="#DejaVuSans-56" transform="translate(110 0)"/>
      <use xlink:href="#DejaVuSans-c" transform="translate(162.09375 0)"/>
     </g>
    </g>
   </g>
   <g id="matplotlib.axis_4">
    <g id="ytick_7">
     <g id="line2d_41">
      <path d="M 42.28 351.567264 
L 493.2 351.567264 
" clip-path="url(#pdcd0a78f0c)" style="fill: none; stroke: #b0b0b0; stroke-width: 0.8; stroke-linecap: square"/>
     </g>
     <g id="line2d_42">
      <g>
       <use xlink:href="#m4bac15119d" x="42.28" y="351.567264" style="stroke: #000000; stroke-width: 0.8"/>
      </g>
     </g>
     <g id="text_23">
      <!-- −0.4 -->
      <g transform="translate(10.997188 355.366092) scale(0.1 -0.1)">
       <defs>
        <path id="DejaVuSans-c9c" d="M 678 2272 
L 4684 2272 
L 4684 1741 
L 678 1741 
L 678 2272 
z
" transform="scale(0.015625)"/>
       </defs>
       <use xlink:href="#DejaVuSans-c9c"/>
       <use xlink:href="#DejaVuSans-13" transform="translate(83.796875 0)"/>
       <use xlink:href="#DejaVuSans-11" transform="translate(147.421875 0)"/>
       <use xlink:href="#DejaVuSans-17" transform="translate(179.203125 0)"/>
      </g>
     </g>
    </g>
    <g id="ytick_8">
     <g id="line2d_43">
      <path d="M 42.28 328.753749 
L 493.2 328.753749 
" clip-path="url(#pdcd0a78f0c)" style="fill: none; stroke: #b0b0b0; stroke-width: 0.8; stroke-linecap: square"/>
     </g>
     <g id="line2d_44">
      <g>
       <use xlink:href="#m4bac15119d" x="42.28" y="328.753749" style="stroke: #000000; stroke-width: 0.8"/>
      </g>
     </g>
     <g id="text_24">
      <!-- −0.2 -->
      <g transform="translate(10.997188 332.552577) scale(0.1 -0.1)">
       <use xlink:href="#DejaVuSans-c9c"/>
       <use xlink:href="#DejaVuSans-13" transform="translate(83.796875 0)"/>
       <use xlink:href="#DejaVuSans-11" transform="translate(147.421875 0)"/>
       <use xlink:href="#DejaVuSans-15" transform="translate(179.203125 0)"/>
      </g>
     </g>
    </g>
    <g id="ytick_9">
     <g id="line2d_45">
      <path d="M 42.28 305.940234 
L 493.2 305.940234 
" clip-path="url(#pdcd0a78f0c)" style="fill: none; stroke: #b0b0b0; stroke-width: 0.8; stroke-linecap: square"/>
     </g>
     <g id="line2d_46">
      <g>
       <use xlink:href="#m4bac15119d" x="42.28" y="305.940234" style="stroke: #000000; stroke-width: 0.8"/>
      </g>
     </g>
     <g id="text_25">
      <!-- 0.0 -->
      <g transform="translate(19.376875 309.739062) scale(0.1 -0.1)">
       <use xlink:href="#DejaVuSans-13"/>
       <use xlink:href="#DejaVuSans-11" transform="translate(63.625 0)"/>
       <use xlink:href="#DejaVuSans-13" transform="translate(95.40625 0)"/>
      </g>
     </g>
    </g>
    <g id="ytick_10">
     <g id="line2d_47">
      <path d="M 42.28 283.12672 
L 493.2 283.12672 
" clip-path="url(#pdcd0a78f0c)" style="fill: none; stroke: #b0b0b0; stroke-width: 0.8; stroke-linecap: square"/>
     </g>
     <g id="line2d_48">
      <g>
       <use xlink:href="#m4bac15119d" x="42.28" y="283.12672" style="stroke: #000000; stroke-width: 0.8"/>
      </g>
     </g>
     <g id="text_26">
      <!-- 0.2 -->
      <g transform="translate(19.376875 286.925548) scale(0.1 -0.1)">
       <use xlink:href="#DejaVuSans-13"/>
       <use xlink:href="#DejaVuSans-11" transform="translate(63.625 0)"/>
       <use xlink:href="#DejaVuSans-15" transform="translate(95.40625 0)"/>
      </g>
     </g>
    </g>
    <g id="ytick_11">
     <g id="line2d_49">
      <path d="M 42.28 260.313205 
L 493.2 260.313205 
" clip-path="url(#pdcd0a78f0c)" style="fill: none; stroke: #b0b0b0; stroke-width: 0.8; stroke-linecap: square"/>
     </g>
     <g id="line2d_50">
      <g>
       <use xlink:href="#m4bac15119d" x="42.28" y="260.313205" style="stroke: #000000; stroke-width: 0.8"/>
      </g>
     </g>
     <g id="text_27">
      <!-- 0.4 -->
      <g transform="translate(19.376875 264.112033) scale(0.1 -0.1)">
       <use xlink:href="#DejaVuSans-13"/>
       <use xlink:href="#DejaVuSans-11" transform="translate(63.625 0)"/>
       <use xlink:href="#DejaVuSans-17" transform="translate(95.40625 0)"/>
      </g>
     </g>
    </g>
   </g>
   <g id="line2d_51">
    <path d="M 62.776364 305.940234 
L 111.007579 305.940234 
L 111.839259 313.154366 
L 112.671556 317.84292 
L 113.506408 315.04513 
L 114.33757 322.474978 
L 115.170027 355.183247 
L 116.002549 365.666016 
L 117.668484 365.666016 
L 118.501481 246.541705 
L 119.335099 246.214453 
L 120.172471 246.214453 
L 121.000124 365.666016 
L 123.497879 365.666016 
L 124.330601 364.379923 
L 125.163489 246.214453 
L 137.65582 246.214453 
L 138.209094 365.666016 
L 138.764593 365.666016 
L 139.332814 300.235264 
L 140.152938 249.415685 
L 140.708 315.53769 
L 141.262563 365.666016 
L 141.818654 344.679824 
L 142.374063 311.631985 
L 142.928242 312.380637 
L 143.485385 329.228213 
L 144.038744 337.869055 
L 144.593534 337.063605 
L 145.427687 332.500554 
L 145.982648 330.272668 
L 146.536807 329.026915 
L 147.092053 327.32228 
L 149.590507 314.211029 
L 150.700811 310.932747 
L 151.811847 308.686166 
L 152.36653 307.918421 
L 152.921223 307.345183 
L 154.311797 306.380364 
L 154.86415 306.175544 
L 157.08531 306.082172 
L 158.750855 305.991613 
L 159.306123 305.197406 
L 160.139341 299.986959 
L 160.972021 292.505823 
L 161.806109 291.710214 
L 163.747531 246.214453 
L 164.580431 246.214453 
L 165.412683 284.143076 
L 166.245537 359.013699 
L 167.079162 365.666016 
L 167.910895 272.238664 
L 168.743717 246.214453 
L 170.409585 246.214453 
L 171.242547 365.666016 
L 173.740776 365.666016 
L 174.573179 246.214453 
L 176.238296 246.214453 
L 177.071534 365.666016 
L 187.34321 365.666016 
L 187.898258 246.214453 
L 188.454847 246.214453 
L 189.008616 324.313382 
L 189.563985 338.017575 
L 190.119878 278.651621 
L 190.674927 257.640209 
L 191.229421 292.628848 
L 191.785042 309.807363 
L 192.895197 278.640525 
L 193.45157 276.993966 
L 194.005519 280.599321 
L 194.562363 281.822469 
L 195.670654 278.862507 
L 196.226036 278.596227 
L 196.783297 279.648852 
L 197.336372 281.826401 
L 199.280333 294.941941 
L 200.390067 299.706325 
L 200.946537 301.430149 
L 201.50054 302.751098 
L 202.055641 303.718906 
L 202.611833 304.40211 
L 203.165977 304.873773 
L 204.277406 305.41605 
L 205.386948 305.675412 
L 206.497495 305.806882 
L 207.052354 307.478696 
L 208.718168 319.690967 
L 209.550761 322.76113 
L 210.66138 350.535912 
L 211.494378 365.666016 
L 212.326822 365.666016 
L 213.160268 316.036784 
L 213.992518 246.214453 
L 214.547631 255.610366 
L 215.380386 365.666016 
L 217.880784 365.666016 
L 218.713795 246.214453 
L 221.489521 246.214453 
L 222.599584 365.666016 
L 224.542752 365.666016 
L 225.375074 246.214453 
L 234.812948 246.214453 
L 235.368269 363.147627 
L 236.20142 365.666016 
L 236.757309 338.048959 
L 237.590159 249.808253 
L 238.144101 285.752468 
L 238.699053 357.171983 
L 239.254354 352.434664 
L 239.810671 318.865654 
L 240.642435 298.329579 
L 241.75354 336.149215 
L 242.585407 345.678054 
L 243.140392 341.099114 
L 243.695857 334.527757 
L 244.250673 330.03087 
L 245.084096 324.513777 
L 245.639871 321.58314 
L 248.41449 310.685095 
L 249.802796 307.302066 
L 250.35759 306.601136 
L 250.912774 306.463676 
L 252.578723 306.363803 
L 253.688694 306.190619 
L 254.243964 305.909614 
L 255.076365 300.703971 
L 255.909379 292.78132 
L 256.742454 291.184805 
L 257.853189 267.432133 
L 258.685804 246.214453 
L 259.518759 246.214453 
L 260.351052 286.520246 
L 261.185201 356.112884 
L 262.017458 364.141537 
L 262.849616 258.336532 
L 263.682486 246.214453 
L 265.347537 246.214453 
L 266.18039 365.666016 
L 268.678352 365.666016 
L 269.788907 246.214453 
L 271.73168 246.214453 
L 272.564618 365.666016 
L 282.557468 365.666016 
L 283.113138 246.214453 
L 283.667886 246.214453 
L 284.222748 323.473694 
L 284.778182 338.268614 
L 285.333258 276.818253 
L 285.888952 255.649273 
L 286.443584 294.913962 
L 286.998975 311.427346 
L 288.387288 264.878986 
L 289.2193 263.662477 
L 289.774392 275.438405 
L 290.607728 287.464762 
L 291.162656 286.494314 
L 291.717649 282.705789 
L 292.273286 281.511376 
L 293.105458 284.339501 
L 294.771586 295.782093 
L 295.60418 300.84977 
L 296.159092 302.930713 
L 296.71436 303.599349 
L 298.379799 304.420824 
L 299.490397 305.126313 
L 300.877883 305.744479 
L 301.988209 305.878969 
L 302.543387 309.04112 
L 303.376031 315.825615 
L 304.208958 320.180636 
L 305.042145 327.89399 
L 305.875925 347.164144 
L 306.707249 363.455338 
L 307.539887 361.048931 
L 309.205601 251.070591 
L 310.039984 261.330122 
L 310.871025 365.666016 
L 313.370698 365.666016 
L 314.201848 246.214453 
L 316.422654 246.214453 
L 317.255836 279.077667 
L 318.365752 365.666016 
L 319.198551 365.666016 
L 320.031527 246.214453 
L 328.913589 246.214453 
L 329.469215 275.955131 
L 330.301945 365.666016 
L 331.689646 365.666016 
L 332.522684 271.363657 
L 333.355355 255.661911 
L 333.910245 325.039821 
L 334.465594 360.529166 
L 335.298773 346.915875 
L 336.13127 317.300309 
L 336.964034 311.455043 
L 337.518603 323.936461 
L 338.074208 333.09282 
L 338.6292 334.276576 
L 339.184793 330.792251 
L 340.29461 321.654722 
L 340.850074 318.104607 
L 342.238218 311.073159 
L 342.79297 309.212713 
L 343.348185 308.480003 
L 344.736396 307.445779 
L 345.568831 306.642476 
L 346.12393 306.35742 
L 348.901073 306.122936 
L 349.455003 305.225263 
L 350.287878 299.924181 
L 351.398288 289.504646 
L 352.508882 271.462743 
L 353.618741 246.214453 
L 354.451191 246.214453 
L 355.284548 261.802396 
L 356.117045 346.940824 
L 356.949906 365.666016 
L 357.782591 331.522061 
L 358.615342 246.214453 
L 361.113889 246.214453 
L 361.946441 365.666016 
L 363.612265 365.666016 
L 364.722329 360.993545 
L 365.832875 261.166624 
L 366.667175 246.214453 
L 367.498954 365.666016 
L 375.825731 365.666016 
L 376.380832 279.400142 
L 376.936182 246.214453 
L 377.491285 299.056301 
L 378.046443 331.956983 
L 379.15685 268.108925 
L 379.712037 278.252602 
L 380.267468 294.794799 
L 380.82212 294.039633 
L 381.378306 284.378329 
L 381.932776 278.706641 
L 382.765327 275.686361 
L 383.598138 276.243208 
L 384.430831 279.374973 
L 386.096331 287.57188 
L 387.484321 296.867863 
L 388.039388 299.067248 
L 389.150414 301.903958 
L 389.982419 303.834029 
L 390.537839 304.68645 
L 391.093008 305.012425 
L 394.146051 305.711415 
L 394.979291 305.828511 
L 395.812096 308.472857 
L 396.646332 314.889483 
L 397.755422 322.228961 
L 398.587681 336.023629 
L 399.42038 354.633207 
L 400.253336 363.935316 
L 401.085795 346.951367 
L 401.918588 285.446248 
L 402.75147 251.874295 
L 403.584089 296.525179 
L 404.417583 365.666016 
L 406.915388 365.666016 
L 407.748066 246.214453 
L 411.356437 246.214453 
L 412.1891 247.981285 
L 413.021847 260.586996 
L 413.854565 246.214453 
L 417.463033 246.214453 
L 418.296005 249.773167 
L 419.128611 365.666016 
L 419.683895 365.666016 
L 420.516953 345.144704 
L 421.350125 279.255576 
L 422.182173 273.599115 
L 423.015304 343.83273 
L 423.570057 365.666016 
L 424.957865 328.692296 
L 425.512926 326.439141 
L 426.068459 328.159597 
L 426.623216 328.723035 
L 427.179222 326.961293 
L 428.012367 321.177542 
L 428.844152 313.485134 
L 429.399275 310.816166 
L 429.955487 310.319399 
L 430.787568 309.835625 
L 431.620053 308.516701 
L 432.452611 306.931864 
L 433.00832 306.457245 
L 434.118153 306.324088 
L 436.339426 306.243789 
L 437.726825 306.432838 
L 438.281712 306.617371 
L 438.83692 306.925635 
L 439.670009 307.684979 
L 440.502466 309.186806 
L 441.335491 312.441373 
L 442.169902 319.724956 
L 443.001927 336.343431 
L 443.835279 365.666016 
L 464.653603 365.666016 
L 465.485847 246.214453 
L 466.317777 246.214453 
L 466.874628 253.015658 
L 467.706422 365.283753 
L 468.540428 365.666016 
L 469.372855 306.986365 
L 470.20536 260.420244 
L 471.03741 272.246783 
L 471.869723 298.229159 
L 472.703636 307.95947 
L 472.703636 307.95947 
" clip-path="url(#pdcd0a78f0c)" style="fill: none; stroke: #1f77b4; stroke-width: 1.5; stroke-linecap: square"/>
   </g>
   <g id="line2d_52">
    <path d="M 42.28 365.666016 
L 493.2 365.666016 
" clip-path="url(#pdcd0a78f0c)" style="fill: none; stroke-dasharray: 3.7,1.6; stroke-dashoffset: 0; stroke: #ff0000"/>
   </g>
   <g id="line2d_53">
    <path d="M 42.28 246.214453 
L 493.2 246.214453 
" clip-path="url(#pdcd0a78f0c)" style="fill: none; stroke-dasharray: 3.7,1.6; stroke-dashoffset: 0; stroke: #ff0000"/>
   </g>
   <g id="patch_9">
    <path d="M 42.28 371.638594 
L 42.28 240.241875 
" style="fill: none; stroke: #000000; stroke-width: 0.8; stroke-linejoin: miter; stroke-linecap: square"/>
   </g>
   <g id="patch_10">
    <path d="M 493.2 371.638594 
L 493.2 240.241875 
" style="fill: none; stroke: #000000; stroke-width: 0.8; stroke-linejoin: miter; stroke-linecap: square"/>
   </g>
   <g id="patch_11">
    <path d="M 42.28 371.638594 
L 493.2 371.638594 
" style="fill: none; stroke: #000000; stroke-width: 0.8; stroke-linejoin: miter; stroke-linecap: square"/>
   </g>
   <g id="patch_12">
    <path d="M 42.28 240.241875 
L 493.2 240.241875 
" style="fill: none; stroke: #000000; stroke-width: 0.8; stroke-linejoin: miter; stroke-linecap: square"/>
   </g>
   <g id="text_28">
    <!-- $\delta_{cmd}$ (rad) -->
    <g transform="translate(238.28 234.241875) scale(0.12 -0.12)">
     <defs>
      <path id="DejaVuSans-Oblique-348" d="M 3472 4053 
Q 3197 4272 2450 4272 
Q 1659 4272 1588 3906 
Q 1531 3619 2328 3469 
Q 2953 3353 3253 3003 
Q 3616 2581 3447 1716 
Q 3284 888 2763 400 
Q 2238 -91 1488 -91 
Q 741 -91 406 400 
Q 72 888 241 1747 
Q 363 2384 891 2900 
Q 1097 3100 1353 3213 
Q 913 3459 1000 3900 
Q 1166 4750 2544 4750 
Q 3234 4750 3566 4531 
L 3472 4053 
z
M 1753 3056 
Q 1525 2966 1306 2738 
Q 969 2384 847 1747 
Q 722 1113 919 756 
Q 1119 397 1584 397 
Q 2044 397 2381 759 
Q 2722 1122 2838 1716 
Q 2956 2338 2731 2638 
Q 2491 2959 2103 2994 
Q 1906 3013 1753 3056 
z
" transform="scale(0.015625)"/>
      <path id="DejaVuSans-55" d="M 2631 2963 
Q 2534 3019 2420 3045 
Q 2306 3072 2169 3072 
Q 1681 3072 1420 2755 
Q 1159 2438 1159 1844 
L 1159 0 
L 581 0 
L 581 3500 
L 1159 3500 
L 1159 2956 
Q 1341 3275 1631 3429 
Q 1922 3584 2338 3584 
Q 2397 3584 2469 3576 
Q 2541 3569 2628 3553 
L 2631 2963 
z
" transform="scale(0.015625)"/>
      <path id="DejaVuSans-44" d="M 2194 1759 
Q 1497 1759 1228 1600 
Q 959 1441 959 1056 
Q 959 750 1161 570 
Q 1363 391 1709 391 
Q 2188 391 2477 730 
Q 2766 1069 2766 1631 
L 2766 1759 
L 2194 1759 
z
M 3341 1997 
L 3341 0 
L 2766 0 
L 2766 531 
Q 2569 213 2275 61 
Q 1981 -91 1556 -91 
Q 1019 -91 701 211 
Q 384 513 384 1019 
Q 384 1609 779 1909 
Q 1175 2209 1959 2209 
L 2766 2209 
L 2766 2266 
Q 2766 2663 2505 2880 
Q 2244 3097 1772 3097 
Q 1472 3097 1187 3025 
Q 903 2953 641 2809 
L 641 3341 
Q 956 3463 1253 3523 
Q 1550 3584 1831 3584 
Q 2591 3584 2966 3190 
Q 3341 2797 3341 1997 
z
" transform="scale(0.015625)"/>
      <path id="DejaVuSans-47" d="M 2906 2969 
L 2906 4863 
L 3481 4863 
L 3481 0 
L 2906 0 
L 2906 525 
Q 2725 213 2448 61 
Q 2172 -91 1784 -91 
Q 1150 -91 751 415 
Q 353 922 353 1747 
Q 353 2572 751 3078 
Q 1150 3584 1784 3584 
Q 2172 3584 2448 3432 
Q 2725 3281 2906 2969 
z
M 947 1747 
Q 947 1113 1208 752 
Q 1469 391 1925 391 
Q 2381 391 2643 752 
Q 2906 1113 2906 1747 
Q 2906 2381 2643 2742 
Q 2381 3103 1925 3103 
Q 1469 3103 1208 2742 
Q 947 2381 947 1747 
z
" transform="scale(0.015625)"/>
     </defs>
     <use xlink:href="#DejaVuSans-Oblique-348" transform="translate(0 0.015625)"/>
     <use xlink:href="#DejaVuSans-Oblique-46" transform="translate(61.181641 -14.984326) scale(0.7)"/>
     <use xlink:href="#DejaVuSans-Oblique-50" transform="translate(99.667969 -14.984326) scale(0.7)"/>
     <use xlink:href="#DejaVuSans-Oblique-47" transform="translate(167.856445 -14.984326) scale(0.7)"/>
     <use xlink:href="#DejaVuSans-3" transform="translate(215.024414 0.015625)"/>
     <use xlink:href="#DejaVuSans-b" transform="translate(246.811523 0.015625)"/>
     <use xlink:href="#DejaVuSans-55" transform="translate(285.825195 0.015625)"/>
     <use xlink:href="#DejaVuSans-44" transform="translate(326.938477 0.015625)"/>
     <use xlink:href="#DejaVuSans-47" transform="translate(388.217773 0.015625)"/>
     <use xlink:href="#DejaVuSans-c" transform="translate(451.694336 0.015625)"/>
    </g>
   </g>
   <g id="legend_2">
    <g id="patch_13">
     <path d="M 49.28 263.242656 
L 102.88 263.242656 
Q 104.88 263.242656 104.88 261.242656 
L 104.88 247.241875 
Q 104.88 245.241875 102.88 245.241875 
L 49.28 245.241875 
Q 47.28 245.241875 47.28 247.241875 
L 47.28 261.242656 
Q 47.28 263.242656 49.28 263.242656 
z
" style="fill: #ffffff; opacity: 0.8; stroke: #cccccc; stroke-linejoin: miter"/>
    </g>
    <g id="line2d_54">
     <path d="M 51.28 253.340312 
L 61.28 253.340312 
L 71.28 253.340312 
" style="fill: none; stroke: #1f77b4; stroke-width: 1.5; stroke-linecap: square"/>
    </g>
    <g id="text_29">
     <!-- $\delta_{cmd}$ -->
     <g transform="translate(79.28 256.840312) scale(0.1 -0.1)">
      <use xlink:href="#DejaVuSans-Oblique-348" transform="translate(0 0.78125)"/>
      <use xlink:href="#DejaVuSans-Oblique-46" transform="translate(61.181641 -14.218701) scale(0.7)"/>
      <use xlink:href="#DejaVuSans-Oblique-50" transform="translate(99.667969 -14.218701) scale(0.7)"/>
      <use xlink:href="#DejaVuSans-Oblique-47" transform="translate(167.856445 -14.218701) scale(0.7)"/>
     </g>
    </g>
   </g>
  </g>
  <g id="axes_3">
   <g id="patch_14">
    <path d="M 42.28 562.677656 
L 493.2 562.677656 
L 493.2 431.280937 
L 42.28 431.280937 
z
" style="fill: #ffffff"/>
   </g>
   <g id="matplotlib.axis_5">
    <g id="xtick_13">
     <g id="line2d_55">
      <path d="M 62.77636 562.677656 
L 62.77636 431.280937 
" clip-path="url(#p29cde07448)" style="fill: none; stroke: #b0b0b0; stroke-width: 0.8; stroke-linecap: square"/>
     </g>
     <g id="line2d_56">
      <g>
       <use xlink:href="#m820335f37e" x="62.77636" y="562.677656" style="stroke: #000000; stroke-width: 0.8"/>
      </g>
     </g>
     <g id="text_30">
      <!-- 0 -->
      <g transform="translate(59.59511 577.275312) scale(0.1 -0.1)">
       <use xlink:href="#DejaVuSans-13"/>
      </g>
     </g>
    </g>
    <g id="xtick_14">
     <g id="line2d_57">
      <path d="M 146.050781 562.677656 
L 146.050781 431.280937 
" clip-path="url(#p29cde07448)" style="fill: none; stroke: #b0b0b0; stroke-width: 0.8; stroke-linecap: square"/>
     </g>
     <g id="line2d_58">
      <g>
       <use xlink:href="#m820335f37e" x="146.050781" y="562.677656" style="stroke: #000000; stroke-width: 0.8"/>
      </g>
     </g>
     <g id="text_31">
      <!-- 10 -->
      <g transform="translate(139.688281 577.275312) scale(0.1 -0.1)">
       <use xlink:href="#DejaVuSans-14"/>
       <use xlink:href="#DejaVuSans-13" transform="translate(63.625 0)"/>
      </g>
     </g>
    </g>
    <g id="xtick_15">
     <g id="line2d_59">
      <path d="M 229.325202 562.677656 
L 229.325202 431.280937 
" clip-path="url(#p29cde07448)" style="fill: none; stroke: #b0b0b0; stroke-width: 0.8; stroke-linecap: square"/>
     </g>
     <g id="line2d_60">
      <g>
       <use xlink:href="#m820335f37e" x="229.325202" y="562.677656" style="stroke: #000000; stroke-width: 0.8"/>
      </g>
     </g>
     <g id="text_32">
      <!-- 20 -->
      <g transform="translate(222.962702 577.275312) scale(0.1 -0.1)">
       <use xlink:href="#DejaVuSans-15"/>
       <use xlink:href="#DejaVuSans-13" transform="translate(63.625 0)"/>
      </g>
     </g>
    </g>
    <g id="xtick_16">
     <g id="line2d_61">
      <path d="M 312.599622 562.677656 
L 312.599622 431.280937 
" clip-path="url(#p29cde07448)" style="fill: none; stroke: #b0b0b0; stroke-width: 0.8; stroke-linecap: square"/>
     </g>
     <g id="line2d_62">
      <g>
       <use xlink:href="#m820335f37e" x="312.599622" y="562.677656" style="stroke: #000000; stroke-width: 0.8"/>
      </g>
     </g>
     <g id="text_33">
      <!-- 30 -->
      <g transform="translate(306.237122 577.275312) scale(0.1 -0.1)">
       <use xlink:href="#DejaVuSans-16"/>
       <use xlink:href="#DejaVuSans-13" transform="translate(63.625 0)"/>
      </g>
     </g>
    </g>
    <g id="xtick_17">
     <g id="line2d_63">
      <path d="M 395.874043 562.677656 
L 395.874043 431.280937 
" clip-path="url(#p29cde07448)" style="fill: none; stroke: #b0b0b0; stroke-width: 0.8; stroke-linecap: square"/>
     </g>
     <g id="line2d_64">
      <g>
       <use xlink:href="#m820335f37e" x="395.874043" y="562.677656" style="stroke: #000000; stroke-width: 0.8"/>
      </g>
     </g>
     <g id="text_34">
      <!-- 40 -->
      <g transform="translate(389.511543 577.275312) scale(0.1 -0.1)">
       <use xlink:href="#DejaVuSans-17"/>
       <use xlink:href="#DejaVuSans-13" transform="translate(63.625 0)"/>
      </g>
     </g>
    </g>
    <g id="xtick_18">
     <g id="line2d_65">
      <path d="M 479.148464 562.677656 
L 479.148464 431.280937 
" clip-path="url(#p29cde07448)" style="fill: none; stroke: #b0b0b0; stroke-width: 0.8; stroke-linecap: square"/>
     </g>
     <g id="line2d_66">
      <g>
       <use xlink:href="#m820335f37e" x="479.148464" y="562.677656" style="stroke: #000000; stroke-width: 0.8"/>
      </g>
     </g>
     <g id="text_35">
      <!-- 50 -->
      <g transform="translate(472.785964 577.275312) scale(0.1 -0.1)">
       <use xlink:href="#DejaVuSans-18"/>
       <use xlink:href="#DejaVuSans-13" transform="translate(63.625 0)"/>
      </g>
     </g>
    </g>
    <g id="text_36">
     <!-- t (s) -->
     <g transform="translate(257.684531 591.275312) scale(0.1 -0.1)">
      <use xlink:href="#DejaVuSans-57"/>
      <use xlink:href="#DejaVuSans-3" transform="translate(39.203125 0)"/>
      <use xlink:href="#DejaVuSans-b" transform="translate(70.984375 0)"/>
      <use xlink:href="#DejaVuSans-56" transform="translate(110 0)"/>
      <use xlink:href="#DejaVuSans-c" transform="translate(162.09375 0)"/>
     </g>
    </g>
   </g>
   <g id="matplotlib.axis_6">
    <g id="ytick_12">
     <g id="line2d_67">
      <path d="M 42.28 536.796484 
L 493.2 536.796484 
" clip-path="url(#p29cde07448)" style="fill: none; stroke: #b0b0b0; stroke-width: 0.8; stroke-linecap: square"/>
     </g>
     <g id="line2d_68">
      <g>
       <use xlink:href="#m4bac15119d" x="42.28" y="536.796484" style="stroke: #000000; stroke-width: 0.8"/>
      </g>
     </g>
     <g id="text_37">
      <!-- −0.2 -->
      <g transform="translate(10.997188 540.595312) scale(0.1 -0.1)">
       <use xlink:href="#DejaVuSans-c9c"/>
       <use xlink:href="#DejaVuSans-13" transform="translate(83.796875 0)"/>
       <use xlink:href="#DejaVuSans-11" transform="translate(147.421875 0)"/>
       <use xlink:href="#DejaVuSans-15" transform="translate(179.203125 0)"/>
      </g>
     </g>
    </g>
    <g id="ytick_13">
     <g id="line2d_69">
      <path d="M 42.28 496.979297 
L 493.2 496.979297 
" clip-path="url(#p29cde07448)" style="fill: none; stroke: #b0b0b0; stroke-width: 0.8; stroke-linecap: square"/>
     </g>
     <g id="line2d_70">
      <g>
       <use xlink:href="#m4bac15119d" x="42.28" y="496.979297" style="stroke: #000000; stroke-width: 0.8"/>
      </g>
     </g>
     <g id="text_38">
      <!-- 0.0 -->
      <g transform="translate(19.376875 500.778125) scale(0.1 -0.1)">
       <use xlink:href="#DejaVuSans-13"/>
       <use xlink:href="#DejaVuSans-11" transform="translate(63.625 0)"/>
       <use xlink:href="#DejaVuSans-13" transform="translate(95.40625 0)"/>
      </g>
     </g>
    </g>
    <g id="ytick_14">
     <g id="line2d_71">
      <path d="M 42.28 457.162109 
L 493.2 457.162109 
" clip-path="url(#p29cde07448)" style="fill: none; stroke: #b0b0b0; stroke-width: 0.8; stroke-linecap: square"/>
     </g>
     <g id="line2d_72">
      <g>
       <use xlink:href="#m4bac15119d" x="42.28" y="457.162109" style="stroke: #000000; stroke-width: 0.8"/>
      </g>
     </g>
     <g id="text_39">
      <!-- 0.2 -->
      <g transform="translate(19.376875 460.960937) scale(0.1 -0.1)">
       <use xlink:href="#DejaVuSans-13"/>
       <use xlink:href="#DejaVuSans-11" transform="translate(63.625 0)"/>
       <use xlink:href="#DejaVuSans-15" transform="translate(95.40625 0)"/>
      </g>
     </g>
    </g>
   </g>
   <g id="line2d_73">
    <path d="M 62.776364 437.253516 
L 112.671556 437.253516 
L 113.506408 510.753806 
L 114.33757 556.705078 
L 122.665574 556.705078 
L 123.497879 437.253516 
L 124.330601 556.705078 
L 131.54741 556.705078 
L 132.102312 437.253516 
L 148.482048 437.253516 
L 149.03519 446.347944 
L 149.590507 460.229937 
L 150.146736 469.912376 
L 151.255715 482.028059 
L 151.811847 485.766391 
L 152.921223 490.905269 
L 153.477115 492.334127 
L 154.311797 493.552422 
L 154.86415 493.692982 
L 155.419892 495.274199 
L 156.529872 496.089113 
L 157.641535 496.302662 
L 158.19514 496.154376 
L 158.750855 496.912853 
L 159.306123 502.042391 
L 160.139341 556.705078 
L 169.576495 556.705078 
L 170.409585 437.253516 
L 171.242547 556.705078 
L 173.740776 556.705078 
L 174.573179 437.253516 
L 175.406272 556.705078 
L 181.236411 556.705078 
L 181.793202 530.443174 
L 182.3473 437.253516 
L 196.783297 437.253516 
L 197.336372 448.660289 
L 198.169494 470.483912 
L 198.724807 479.681176 
L 199.280333 485.090002 
L 199.835139 488.508969 
L 200.390067 490.89007 
L 200.946537 492.467818 
L 201.50054 493.586097 
L 202.055641 494.296943 
L 202.611833 494.688473 
L 203.165977 495.221713 
L 203.721283 496.102035 
L 204.277406 496.475173 
L 204.832226 495.885397 
L 205.386948 496.823676 
L 205.9432 496.888634 
L 206.497495 496.417022 
L 207.052354 508.049931 
L 207.885159 556.705078 
L 217.045905 556.705078 
L 217.880784 437.253516 
L 218.713795 556.705078 
L 223.709974 556.705078 
L 224.542752 437.253516 
L 225.375074 556.705078 
L 228.983775 556.705078 
L 229.816965 437.253516 
L 244.250673 437.253516 
L 245.084096 439.289813 
L 245.639871 458.004754 
L 246.193863 470.483845 
L 246.749656 478.693941 
L 247.30403 483.905032 
L 247.859312 487.613991 
L 248.41449 489.947128 
L 248.969533 491.744973 
L 250.912774 494.581408 
L 253.133423 496.033636 
L 253.688694 496.103358 
L 254.243964 497.779187 
L 255.076365 542.075807 
L 255.909379 556.705078 
L 264.515868 556.705078 
L 265.347537 437.253516 
L 266.18039 556.705078 
L 276.450506 556.705078 
L 277.005643 437.253516 
L 292.273286 437.253516 
L 293.105458 438.366957 
L 293.660798 456.385219 
L 294.217064 468.436836 
L 294.771586 476.326201 
L 296.71436 488.342001 
L 297.269686 490.753366 
L 297.8246 492.187144 
L 298.379799 493.082516 
L 298.934764 494.258377 
L 299.490397 495.056379 
L 300.045726 495.58057 
L 300.877883 495.865977 
L 301.432875 495.880112 
L 301.988209 496.387644 
L 302.543387 517.759543 
L 303.376031 556.705078 
L 312.536808 556.705078 
L 313.370698 437.253516 
L 314.201848 556.705078 
L 316.422654 556.705078 
L 317.255836 553.11538 
L 318.365752 556.705078 
L 323.361997 556.705078 
L 323.917339 437.253516 
L 339.739565 437.253516 
L 340.850074 464.282426 
L 341.405468 473.056767 
L 343.348185 487.322341 
L 343.905295 489.522928 
L 344.736396 491.47905 
L 346.680602 494.761638 
L 347.234606 494.828208 
L 347.789321 495.726064 
L 348.344334 496.124936 
L 348.901073 496.35038 
L 349.455003 502.038492 
L 350.287878 556.705078 
L 360.280828 556.705078 
L 361.113889 437.253516 
L 361.946441 556.705078 
L 363.612265 556.705078 
L 364.722329 477.927987 
L 365.832875 556.705078 
L 370.27543 556.705078 
L 370.829807 511.572272 
L 371.384177 437.253516 
L 384.985987 437.253516 
L 385.541838 440.385873 
L 386.096331 459.954275 
L 387.484321 479.619624 
L 388.594566 487.877125 
L 389.150414 490.279443 
L 389.982419 491.796713 
L 390.537839 493.256699 
L 391.093008 494.235573 
L 392.480616 495.439834 
L 393.035747 495.435701 
L 393.591185 495.944941 
L 394.146051 495.936357 
L 394.979291 496.480643 
L 395.812096 513.839865 
L 396.646332 556.705078 
L 405.249947 556.705078 
L 406.082802 437.253516 
L 406.915388 437.253516 
L 407.748066 556.705078 
L 413.021847 556.705078 
L 413.854565 437.253516 
L 419.128611 437.253516 
L 419.683895 556.705078 
L 420.516953 437.253516 
L 423.015304 437.253516 
L 423.570057 556.705078 
L 424.402933 437.253516 
L 428.012367 437.253516 
L 428.844152 445.438836 
L 429.955487 468.773703 
L 430.787568 481.884953 
L 431.620053 543.517805 
L 432.452611 556.705078 
L 454.936665 556.705078 
L 455.769851 437.253516 
L 469.372855 437.253516 
L 470.20536 477.287315 
L 471.03741 556.705078 
L 472.703636 556.705078 
L 472.703636 556.705078 
" clip-path="url(#p29cde07448)" style="fill: none; stroke: #1f77b4; stroke-width: 1.5; stroke-linecap: square"/>
   </g>
   <g id="line2d_74">
    <path d="M 42.28 556.705078 
L 493.2 556.705078 
" clip-path="url(#p29cde07448)" style="fill: none; stroke-dasharray: 3.7,1.6; stroke-dashoffset: 0; stroke: #ff0000"/>
   </g>
   <g id="line2d_75">
    <path d="M 42.28 437.253516 
L 493.2 437.253516 
" clip-path="url(#p29cde07448)" style="fill: none; stroke-dasharray: 3.7,1.6; stroke-dashoffset: 0; stroke: #ff0000"/>
   </g>
   <g id="patch_15">
    <path d="M 42.28 562.677656 
L 42.28 431.280937 
" style="fill: none; stroke: #000000; stroke-width: 0.8; stroke-linejoin: miter; stroke-linecap: square"/>
   </g>
   <g id="patch_16">
    <path d="M 493.2 562.677656 
L 493.2 431.280937 
" style="fill: none; stroke: #000000; stroke-width: 0.8; stroke-linejoin: miter; stroke-linecap: square"/>
   </g>
   <g id="patch_17">
    <path d="M 42.28 562.677656 
L 493.2 562.677656 
" style="fill: none; stroke: #000000; stroke-width: 0.8; stroke-linejoin: miter; stroke-linecap: square"/>
   </g>
   <g id="patch_18">
    <path d="M 42.28 431.280937 
L 493.2 431.280937 
" style="fill: none; stroke: #000000; stroke-width: 0.8; stroke-linejoin: miter; stroke-linecap: square"/>
   </g>
   <g id="text_40">
    <!-- $a_{x,cmd}$ $\left(\mathrm{m/s^2}\right)$ -->
    <g transform="translate(229.7 425.280937) scale(0.12 -0.12)">
     <defs>
      <path id="DejaVuSans-Oblique-44" d="M 3438 1997 
L 3047 0 
L 2472 0 
L 2578 531 
Q 2325 219 2001 64 
Q 1678 -91 1281 -91 
Q 834 -91 548 182 
Q 263 456 263 884 
Q 263 1497 752 1853 
Q 1241 2209 2100 2209 
L 2900 2209 
L 2931 2363 
Q 2938 2388 2941 2417 
Q 2944 2447 2944 2509 
Q 2944 2788 2717 2942 
Q 2491 3097 2081 3097 
Q 1800 3097 1504 3025 
Q 1209 2953 897 2809 
L 997 3341 
Q 1322 3463 1633 3523 
Q 1944 3584 2234 3584 
Q 2853 3584 3176 3315 
Q 3500 3047 3500 2534 
Q 3500 2431 3484 2292 
Q 3469 2153 3438 1997 
z
M 2816 1759 
L 2241 1759 
Q 1534 1759 1195 1570 
Q 856 1381 856 984 
Q 856 709 1029 553 
Q 1203 397 1509 397 
Q 1978 397 2328 733 
Q 2678 1069 2791 1631 
L 2816 1759 
z
" transform="scale(0.015625)"/>
      <path id="STIXSizeOneSym-Regular-4" d="M 2445 -858 
L 2445 -1050 
Q 1728 -371 1309 630 
Q 890 1632 890 2886 
Q 890 4122 1309 5136 
Q 1728 6150 2445 6822 
L 2445 6630 
Q 1408 5363 1408 2886 
Q 1408 410 2445 -858 
z
" transform="scale(0.015625)"/>
      <path id="STIXSizeOneSym-Regular-5" d="M 550 6630 
L 550 6822 
Q 1267 6144 1686 5142 
Q 2106 4141 2106 2886 
Q 2106 1651 1686 636 
Q 1267 -378 550 -1050 
L 550 -858 
Q 1587 410 1587 2886 
Q 1587 5363 550 6630 
z
" transform="scale(0.015625)"/>
     </defs>
     <use xlink:href="#DejaVuSans-Oblique-44" transform="translate(0 0.746875)"/>
     <use xlink:href="#DejaVuSans-Oblique-5b" transform="translate(61.279297 -14.253076) scale(0.7)"/>
     <use xlink:href="#DejaVuSans-f" transform="translate(102.705078 -14.253076) scale(0.7)"/>
     <use xlink:href="#DejaVuSans-Oblique-46" transform="translate(138.59375 -14.253076) scale(0.7)"/>
     <use xlink:href="#DejaVuSans-Oblique-50" transform="translate(177.080078 -14.253076) scale(0.7)"/>
     <use xlink:href="#DejaVuSans-Oblique-47" transform="translate(245.268555 -14.253076) scale(0.7)"/>
     <use xlink:href="#DejaVuSans-3" transform="translate(292.436523 0.746875)"/>
     <use xlink:href="#STIXSizeOneSym-Regular-4" transform="translate(324.223633 5.1375) scale(0.833613)"/>
     <use xlink:href="#DejaVuSans-50" transform="translate(363.23587 0.746875)"/>
     <use xlink:href="#DejaVuSans-12" transform="translate(460.64798 0.746875)"/>
     <use xlink:href="#DejaVuSans-56" transform="translate(494.339386 0.746875)"/>
     <use xlink:href="#DejaVuSans-15" transform="translate(547.396027 42.046875) scale(0.7)"/>
     <use xlink:href="#STIXSizeOneSym-Regular-5" transform="translate(594.666534 5.1375) scale(0.833613)"/>
    </g>
   </g>
   <g id="legend_3">
    <g id="patch_19">
     <path d="M 49.28 506.880469 
L 144.68 506.880469 
Q 146.68 506.880469 146.68 504.880469 
L 146.68 489.078125 
Q 146.68 487.078125 144.68 487.078125 
L 49.28 487.078125 
Q 47.28 487.078125 47.28 489.078125 
L 47.28 504.880469 
Q 47.28 506.880469 49.28 506.880469 
z
" style="fill: #ffffff; opacity: 0.8; stroke: #cccccc; stroke-linejoin: miter"/>
    </g>
    <g id="line2d_76">
     <path d="M 51.28 496.978125 
L 61.28 496.978125 
L 71.28 496.978125 
" style="fill: none; stroke: #1f77b4; stroke-width: 1.5; stroke-linecap: square"/>
    </g>
    <g id="text_41">
     <!-- $a_{x,cmd}$ $\left(\mathrm{m/s^2}\right)$ -->
     <g transform="translate(79.28 500.478125) scale(0.1 -0.1)">
      <use xlink:href="#DejaVuSans-Oblique-44" transform="translate(0 0.746875)"/>
      <use xlink:href="#DejaVuSans-Oblique-5b" transform="translate(61.279297 -14.253076) scale(0.7)"/>
      <use xlink:href="#DejaVuSans-f" transform="translate(102.705078 -14.253076) scale(0.7)"/>
      <use xlink:href="#DejaVuSans-Oblique-46" transform="translate(138.59375 -14.253076) scale(0.7)"/>
      <use xlink:href="#DejaVuSans-Oblique-50" transform="translate(177.080078 -14.253076) scale(0.7)"/>
      <use xlink:href="#DejaVuSans-Oblique-47" transform="translate(245.268555 -14.253076) scale(0.7)"/>
      <use xlink:href="#DejaVuSans-3" transform="translate(292.436523 0.746875)"/>
      <use xlink:href="#STIXSizeOneSym-Regular-4" transform="translate(324.223633 5.1375) scale(0.833613)"/>
      <use xlink:href="#DejaVuSans-50" transform="translate(363.23587 0.746875)"/>
      <use xlink:href="#DejaVuSans-12" transform="translate(460.64798 0.746875)"/>
      <use xlink:href="#DejaVuSans-56" transform="translate(494.339386 0.746875)"/>
      <use xlink:href="#DejaVuSans-15" transform="translate(547.396027 42.046875) scale(0.7)"/>
      <use xlink:href="#STIXSizeOneSym-Regular-5" transform="translate(594.666534 5.1375) scale(0.833613)"/>
     </g>
    </g>
   </g>
  </g>
  <g id="text_42">
   <!-- QCar2 Controls -->
   <g transform="translate(206.405625 21.214125) scale(0.12 -0.12)">
    <defs>
     <path id="DejaVuSans-34" d="M 2522 4238 
Q 1834 4238 1429 3725 
Q 1025 3213 1025 2328 
Q 1025 1447 1429 934 
Q 1834 422 2522 422 
Q 3209 422 3611 934 
Q 4013 1447 4013 2328 
Q 4013 3213 3611 3725 
Q 3209 4238 2522 4238 
z
M 3406 84 
L 4238 -825 
L 3475 -825 
L 2784 -78 
Q 2681 -84 2626 -87 
Q 2572 -91 2522 -91 
Q 1538 -91 948 567 
Q 359 1225 359 2328 
Q 359 3434 948 4092 
Q 1538 4750 2522 4750 
Q 3503 4750 4090 4092 
Q 4678 3434 4678 2328 
Q 4678 1516 4351 937 
Q 4025 359 3406 84 
z
" transform="scale(0.015625)"/>
     <path id="DejaVuSans-26" d="M 4122 4306 
L 4122 3641 
Q 3803 3938 3442 4084 
Q 3081 4231 2675 4231 
Q 1875 4231 1450 3742 
Q 1025 3253 1025 2328 
Q 1025 1406 1450 917 
Q 1875 428 2675 428 
Q 3081 428 3442 575 
Q 3803 722 4122 1019 
L 4122 359 
Q 3791 134 3420 21 
Q 3050 -91 2638 -91 
Q 1578 -91 968 557 
Q 359 1206 359 2328 
Q 359 3453 968 4101 
Q 1578 4750 2638 4750 
Q 3056 4750 3426 4639 
Q 3797 4528 4122 4306 
z
" transform="scale(0.015625)"/>
     <path id="DejaVuSans-52" d="M 1959 3097 
Q 1497 3097 1228 2736 
Q 959 2375 959 1747 
Q 959 1119 1226 758 
Q 1494 397 1959 397 
Q 2419 397 2687 759 
Q 2956 1122 2956 1747 
Q 2956 2369 2687 2733 
Q 2419 3097 1959 3097 
z
M 1959 3584 
Q 2709 3584 3137 3096 
Q 3566 2609 3566 1747 
Q 3566 888 3137 398 
Q 2709 -91 1959 -91 
Q 1206 -91 779 398 
Q 353 888 353 1747 
Q 353 2609 779 3096 
Q 1206 3584 1959 3584 
z
" transform="scale(0.015625)"/>
     <path id="DejaVuSans-51" d="M 3513 2113 
L 3513 0 
L 2938 0 
L 2938 2094 
Q 2938 2591 2744 2837 
Q 2550 3084 2163 3084 
Q 1697 3084 1428 2787 
Q 1159 2491 1159 1978 
L 1159 0 
L 581 0 
L 581 3500 
L 1159 3500 
L 1159 2956 
Q 1366 3272 1645 3428 
Q 1925 3584 2291 3584 
Q 2894 3584 3203 3211 
Q 3513 2838 3513 2113 
z
" transform="scale(0.015625)"/>
     <path id="DejaVuSans-4f" d="M 603 4863 
L 1178 4863 
L 1178 0 
L 603 0 
L 603 4863 
z
" transform="scale(0.015625)"/>
    </defs>
    <use xlink:href="#DejaVuSans-34"/>
    <use xlink:href="#DejaVuSans-26" transform="translate(78.71875 0)"/>
    <use xlink:href="#DejaVuSans-44" transform="translate(148.546875 0)"/>
    <use xlink:href="#DejaVuSans-55" transform="translate(209.828125 0)"/>
    <use xlink:href="#DejaVuSans-15" transform="translate(250.9375 0)"/>
    <use xlink:href="#DejaVuSans-3" transform="translate(314.5625 0)"/>
    <use xlink:href="#DejaVuSans-26" transform="translate(346.34375 0)"/>
    <use xlink:href="#DejaVuSans-52" transform="translate(416.171875 0)"/>
    <use xlink:href="#DejaVuSans-51" transform="translate(477.359375 0)"/>
    <use xlink:href="#DejaVuSans-57" transform="translate(540.734375 0)"/>
    <use xlink:href="#DejaVuSans-55" transform="translate(579.9375 0)"/>
    <use xlink:href="#DejaVuSans-52" transform="translate(618.84375 0)"/>
    <use xlink:href="#DejaVuSans-4f" transform="translate(680.03125 0)"/>
    <use xlink:href="#DejaVuSans-56" transform="translate(707.8125 0)"/>
   </g>
  </g>
 </g>
 <defs>
  <clipPath id="pb75d7014a7">
   <rect x="42.28" y="49.202812" width="450.92" height="131.396719"/>
  </clipPath>
  <clipPath id="pdcd0a78f0c">
   <rect x="42.28" y="240.241875" width="450.92" height="131.396719"/>
  </clipPath>
  <clipPath id="p29cde07448">
   <rect x="42.28" y="431.280937" width="450.92" height="131.396719"/>
  </clipPath>
 </defs>
</svg>
