<?xml version="1.0" encoding="utf-8" standalone="no"?>
<!DOCTYPE svg PUBLIC "-//W3C//DTD SVG 1.1//EN"
  "http://www.w3.org/Graphics/SVG/1.1/DTD/svg11.dtd">
<svg xmlns:xlink="http://www.w3.org/1999/xlink" width="504pt" height="230.4pt" viewBox="0 0 504 230.4" xmlns="http://www.w3.org/2000/svg" version="1.1">
 <metadata>
  <rdf:RDF xmlns:dc="http://purl.org/dc/elements/1.1/" xmlns:cc="http://creativecommons.org/ns#" xmlns:rdf="http://www.w3.org/1999/02/22-rdf-syntax-ns#">
   <cc:Work>
    <dc:type rdf:resource="http://purl.org/dc/dcmitype/StillImage"/>
    <dc:date>2026-07-09T12:36:39.494297</dc:date>
    <dc:format>image/svg+xml</dc:format>
    <dc:creator>
     <cc:Agent>
      <dc:title>Matplotlib v3.11.0, https://matplotlib.org/</dc:title>
     </cc:Agent>
    </dc:creator>
   </cc:Work>
  </rdf:RDF>
 </metadata>
 <defs>
  <style type="text/css">*{stroke-linejoin: round; stroke-linecap: butt}</style>
 </defs>
 <g id="figure_1">
  <g id="patch_1">
   <path d="M 0 230.4 
L 504 230.4 
L 504 0 
L 0 0 
z
" style="fill: #ffffff"/>
  </g>
  <g id="axes_1">
   <g id="patch_2">
    <path d="M 54.442344 188.277656 
L 493.2 188.277656 
L 493.2 26.16 
L 54.442344 26.16 
z
" style="fill: #ffffff"/>
   </g>
   <g id="matplotlib.axis_1">
    <g id="xtick_1">
     <g id="line2d_1">
      <path d="M 74.385867 188.277656 
L 74.385867 26.16 
" clip-path="url(#p98a518c96a)" style="fill: none; stroke: #b0b0b0; stroke-width: 0.8; stroke-linecap: square"/>
     </g>
     <g id="line2d_2">
      <defs>
       <path id="m2d919651b2" d="M 0 0 
L 0 3.5 
" style="stroke: #000000; stroke-width: 0.8"/>
      </defs>
      <g>
       <use xlink:href="#m2d919651b2" x="74.385867" y="188.277656" style="stroke: #000000; stroke-width: 0.8"/>
      </g>
     </g>
     <g id="text_1">
      <!-- 0 -->
      <g transform="translate(71.204617 202.875313) scale(0.1 -0.1)">
       <defs>
        <path id="DejaVuSans-13" d="M 2034 4250 
Q 1547 4250 1301 3770 
Q 1056 3291 1056 2328 
Q 1056 1369 1301 889 
Q 1547 409 2034 409 
Q 2525 409 2770 889 
Q 3016 1369 3016 2328 
Q 3016 3291 2770 3770 
Q 2525 4250 2034 4250 
z
M 2034 4750 
Q 2819 4750 3233 4129 
Q 3647 3509 3647 2328 
Q 3647 1150 3233 529 
Q 2819 -91 2034 -91 
Q 1250 -91 836 529 
Q 422 1150 422 2328 
Q 422 3509 836 4129 
Q 1250 4750 2034 4750 
z
" transform="scale(0.015625)"/>
       </defs>
       <use xlink:href="#DejaVuSans-13"/>
      </g>
     </g>
    </g>
    <g id="xtick_2">
     <g id="line2d_3">
      <path d="M 161.672459 188.277656 
L 161.672459 26.16 
" clip-path="url(#p98a518c96a)" style="fill: none; stroke: #b0b0b0; stroke-width: 0.8; stroke-linecap: square"/>
     </g>
     <g id="line2d_4">
      <g>
       <use xlink:href="#m2d919651b2" x="161.672459" y="188.277656" style="stroke: #000000; stroke-width: 0.8"/>
      </g>
     </g>
     <g id="text_2">
      <!-- 5 -->
      <g transform="translate(158.491209 202.875313) scale(0.1 -0.1)">
       <defs>
        <path id="DejaVuSans-18" d="M 691 4666 
L 3169 4666 
L 3169 4134 
L 1269 4134 
L 1269 2991 
Q 1406 3038 1543 3061 
Q 1681 3084 1819 3084 
Q 2600 3084 3056 2656 
Q 3513 2228 3513 1497 
Q 3513 744 3044 326 
Q 2575 -91 1722 -91 
Q 1428 -91 1123 -41 
Q 819 9 494 109 
L 494 744 
Q 775 591 1075 516 
Q 1375 441 1709 441 
Q 2250 441 2565 725 
Q 2881 1009 2881 1497 
Q 2881 1984 2565 2268 
Q 2250 2553 1709 2553 
Q 1456 2553 1204 2497 
Q 953 2441 691 2322 
L 691 4666 
z
" transform="scale(0.015625)"/>
       </defs>
       <use xlink:href="#DejaVuSans-18"/>
      </g>
     </g>
    </g>
    <g id="xtick_3">
     <g id="line2d_5">
      <path d="M 248.959051 188.277656 
L 248.959051 26.16 
" clip-path="url(#p98a518c96a)" style="fill: none; stroke: #b0b0b0; stroke-width: 0.8; stroke-linecap: square"/>
     </g>
     <g id="line2d_6">
      <g>
       <use xlink:href="#m2d919651b2" x="248.959051" y="188.277656" style="stroke: #000000; stroke-width: 0.8"/>
      </g>
     </g>
     <g id="text_3">
      <!-- 10 -->
      <g transform="translate(242.596551 202.875313) scale(0.1 -0.1)">
       <defs>
        <path id="DejaVuSans-14" d="M 794 531 
L 1825 531 
L 1825 4091 
L 703 3866 
L 703 4441 
L 1819 4666 
L 2450 4666 
L 2450 531 
L 3481 531 
L 3481 0 
L 794 0 
L 794 531 
z
" transform="scale(0.015625)"/>
       </defs>
       <use xlink:href="#DejaVuSans-14"/>
       <use xlink:href="#DejaVuSans-13" transform="translate(63.625 0)"/>
      </g>
     </g>
    </g>
    <g id="xtick_4">
     <g id="line2d_7">
      <path d="M 336.245643 188.277656 
L 336.245643 26.16 
" clip-path="url(#p98a518c96a)" style="fill: none; stroke: #b0b0b0; stroke-width: 0.8; stroke-linecap: square"/>
     </g>
     <g id="line2d_8">
      <g>
       <use xlink:href="#m2d919651b2" x="336.245643" y="188.277656" style="stroke: #000000; stroke-width: 0.8"/>
      </g>
     </g>
     <g id="text_4">
      <!-- 15 -->
      <g transform="translate(329.883143 202.875313) scale(0.1 -0.1)">
       <use xlink:href="#DejaVuSans-14"/>
       <use xlink:href="#DejaVuSans-18" transform="translate(63.625 0)"/>
      </g>
     </g>
    </g>
    <g id="xtick_5">
     <g id="line2d_9">
      <path d="M 423.532235 188.277656 
L 423.532235 26.16 
" clip-path="url(#p98a518c96a)" style="fill: none; stroke: #b0b0b0; stroke-width: 0.8; stroke-linecap: square"/>
     </g>
     <g id="line2d_10">
      <g>
       <use xlink:href="#m2d919651b2" x="423.532235" y="188.277656" style="stroke: #000000; stroke-width: 0.8"/>
      </g>
     </g>
     <g id="text_5">
      <!-- 20 -->
      <g transform="translate(417.169735 202.875313) scale(0.1 -0.1)">
       <defs>
        <path id="DejaVuSans-15" d="M 1228 531 
L 3431 531 
L 3431 0 
L 469 0 
L 469 531 
Q 828 903 1448 1529 
Q 2069 2156 2228 2338 
Q 2531 2678 2651 2914 
Q 2772 3150 2772 3378 
Q 2772 3750 2511 3984 
Q 2250 4219 1831 4219 
Q 1534 4219 1204 4116 
Q 875 4013 500 3803 
L 500 4441 
Q 881 4594 1212 4672 
Q 1544 4750 1819 4750 
Q 2544 4750 2975 4387 
Q 3406 4025 3406 3419 
Q 3406 3131 3298 2873 
Q 3191 2616 2906 2266 
Q 2828 2175 2409 1742 
Q 1991 1309 1228 531 
z
" transform="scale(0.015625)"/>
       </defs>
       <use xlink:href="#DejaVuSans-15"/>
       <use xlink:href="#DejaVuSans-13" transform="translate(63.625 0)"/>
      </g>
     </g>
    </g>
    <g id="text_6">
     <!-- t (s) -->
     <g transform="translate(263.765703 216.875313) scale(0.1 -0.1)">
      <defs>
       <path id="DejaVuSans-57" d="M 1172 4494 
L 1172 3500 
L 2356 3500 
L 2356 3053 
L 1172 3053 
L 1172 1153 
Q 1172 725 1289 603 
Q 1406 481 1766 481 
L 2356 481 
L 2356 0 
L 1766 0 
Q 1100 0 847 248 
Q 594 497 594 1153 
L 594 3053 
L 172 3053 
L 172 3500 
L 594 3500 
L 594 4494 
L 1172 4494 
z
" transform="scale(0.015625)"/>
       <path id="DejaVuSans-3" transform="scale(0.015625)"/>
       <path id="DejaVuSans-b" d="M 1984 4856 
Q 1566 4138 1362 3434 
Q 1159 2731 1159 2009 
Q 1159 1288 1364 580 
Q 1569 -128 1984 -844 
L 1484 -844 
Q 1016 -109 783 600 
Q 550 1309 550 2009 
Q 550 2706 781 3412 
Q 1013 4119 1484 4856 
L 1984 4856 
z
" transform="scale(0.015625)"/>
       <path id="DejaVuSans-56" d="M 2834 3397 
L 2834 2853 
Q 2591 2978 2328 3040 
Q 2066 3103 1784 3103 
Q 1356 3103 1142 2972 
Q 928 2841 928 2578 
Q 928 2378 1081 2264 
Q 1234 2150 1697 2047 
L 1894 2003 
Q 2506 1872 2764 1633 
Q 3022 1394 3022 966 
Q 3022 478 2636 193 
Q 2250 -91 1575 -91 
Q 1294 -91 989 -36 
Q 684 19 347 128 
L 347 722 
Q 666 556 975 473 
Q 1284 391 1588 391 
Q 1994 391 2212 530 
Q 2431 669 2431 922 
Q 2431 1156 2273 1281 
Q 2116 1406 1581 1522 
L 1381 1569 
Q 847 1681 609 1914 
Q 372 2147 372 2553 
Q 372 3047 722 3315 
Q 1072 3584 1716 3584 
Q 2034 3584 2315 3537 
Q 2597 3491 2834 3397 
z
" transform="scale(0.015625)"/>
       <path id="DejaVuSans-c" d="M 513 4856 
L 1013 4856 
Q 1481 4119 1714 3412 
Q 1947 2706 1947 2009 
Q 1947 1309 1714 600 
Q 1481 -109 1013 -844 
L 513 -844 
Q 928 -128 1133 580 
Q 1338 1288 1338 2009 
Q 1338 2731 1133 3434 
Q 928 4138 513 4856 
z
" transform="scale(0.015625)"/>
      </defs>
      <use xlink:href="#DejaVuSans-57"/>
      <use xlink:href="#DejaVuSans-3" transform="translate(39.203125 0)"/>
      <use xlink:href="#DejaVuSans-b" transform="translate(70.984375 0)"/>
      <use xlink:href="#DejaVuSans-56" transform="translate(110 0)"/>
      <use xlink:href="#DejaVuSans-c" transform="translate(162.09375 0)"/>
     </g>
    </g>
   </g>
   <g id="matplotlib.axis_2">
    <g id="ytick_1">
     <g id="line2d_11">
      <path d="M 54.442344 165.232434 
L 493.2 165.232434 
" clip-path="url(#p98a518c96a)" style="fill: none; stroke: #b0b0b0; stroke-width: 0.8; stroke-linecap: square"/>
     </g>
     <g id="line2d_12">
      <defs>
       <path id="me01c298de4" d="M 0 0 
L -3.5 0 
" style="stroke: #000000; stroke-width: 0.8"/>
      </defs>
      <g>
       <use xlink:href="#me01c298de4" x="54.442344" y="165.232434" style="stroke: #000000; stroke-width: 0.8"/>
      </g>
     </g>
     <g id="text_7">
      <!-- 0.01 -->
      <g transform="translate(25.176719 169.031263) scale(0.1 -0.1)">
       <defs>
        <path id="DejaVuSans-11" d="M 684 794 
L 1344 794 
L 1344 0 
L 684 0 
L 684 794 
z
" transform="scale(0.015625)"/>
       </defs>
       <use xlink:href="#DejaVuSans-13"/>
       <use xlink:href="#DejaVuSans-11" transform="translate(63.625 0)"/>
       <use xlink:href="#DejaVuSans-13" transform="translate(95.40625 0)"/>
       <use xlink:href="#DejaVuSans-14" transform="translate(159.03125 0)"/>
      </g>
     </g>
    </g>
    <g id="ytick_2">
     <g id="line2d_13">
      <path d="M 54.442344 129.093753 
L 493.2 129.093753 
" clip-path="url(#p98a518c96a)" style="fill: none; stroke: #b0b0b0; stroke-width: 0.8; stroke-linecap: square"/>
     </g>
     <g id="line2d_14">
      <g>
       <use xlink:href="#me01c298de4" x="54.442344" y="129.093753" style="stroke: #000000; stroke-width: 0.8"/>
      </g>
     </g>
     <g id="text_8">
      <!-- 0.02 -->
      <g transform="translate(25.176719 132.892581) scale(0.1 -0.1)">
       <use xlink:href="#DejaVuSans-13"/>
       <use xlink:href="#DejaVuSans-11" transform="translate(63.625 0)"/>
       <use xlink:href="#DejaVuSans-13" transform="translate(95.40625 0)"/>
       <use xlink:href="#DejaVuSans-15" transform="translate(159.03125 0)"/>
      </g>
     </g>
    </g>
    <g id="ytick_3">
     <g id="line2d_15">
      <path d="M 54.442344 92.955071 
L 493.2 92.955071 
" clip-path="url(#p98a518c96a)" style="fill: none; stroke: #b0b0b0; stroke-width: 0.8; stroke-linecap: square"/>
     </g>
     <g id="line2d_16">
      <g>
       <use xlink:href="#me01c298de4" x="54.442344" y="92.955071" style="stroke: #000000; stroke-width: 0.8"/>
      </g>
     </g>
     <g id="text_9">
      <!-- 0.03 -->
      <g transform="translate(25.176719 96.753899) scale(0.1 -0.1)">
       <defs>
        <path id="DejaVuSans-16" d="M 2597 2516 
Q 3050 2419 3304 2112 
Q 3559 1806 3559 1356 
Q 3559 666 3084 287 
Q 2609 -91 1734 -91 
Q 1441 -91 1130 -33 
Q 819 25 488 141 
L 488 750 
Q 750 597 1062 519 
Q 1375 441 1716 441 
Q 2309 441 2620 675 
Q 2931 909 2931 1356 
Q 2931 1769 2642 2001 
Q 2353 2234 1838 2234 
L 1294 2234 
L 1294 2753 
L 1863 2753 
Q 2328 2753 2575 2939 
Q 2822 3125 2822 3475 
Q 2822 3834 2567 4026 
Q 2313 4219 1838 4219 
Q 1578 4219 1281 4162 
Q 984 4106 628 3988 
L 628 4550 
Q 988 4650 1302 4700 
Q 1616 4750 1894 4750 
Q 2613 4750 3031 4423 
Q 3450 4097 3450 3541 
Q 3450 3153 3228 2886 
Q 3006 2619 2597 2516 
z
" transform="scale(0.015625)"/>
       </defs>
       <use xlink:href="#DejaVuSans-13"/>
       <use xlink:href="#DejaVuSans-11" transform="translate(63.625 0)"/>
       <use xlink:href="#DejaVuSans-13" transform="translate(95.40625 0)"/>
       <use xlink:href="#DejaVuSans-16" transform="translate(159.03125 0)"/>
      </g>
     </g>
    </g>
    <g id="ytick_4">
     <g id="line2d_17">
      <path d="M 54.442344 56.816389 
L 493.2 56.816389 
" clip-path="url(#p98a518c96a)" style="fill: none; stroke: #b0b0b0; stroke-width: 0.8; stroke-linecap: square"/>
     </g>
     <g id="line2d_18">
      <g>
       <use xlink:href="#me01c298de4" x="54.442344" y="56.816389" style="stroke: #000000; stroke-width: 0.8"/>
      </g>
     </g>
     <g id="text_10">
      <!-- 0.04 -->
      <g transform="translate(25.176719 60.615218) scale(0.1 -0.1)">
       <defs>
        <path id="DejaVuSans-17" d="M 2419 4116 
L 825 1625 
L 2419 1625 
L 2419 4116 
z
M 2253 4666 
L 3047 4666 
L 3047 1625 
L 3713 1625 
L 3713 1100 
L 3047 1100 
L 3047 0 
L 2419 0 
L 2419 1100 
L 313 1100 
L 313 1709 
L 2253 4666 
z
" transform="scale(0.015625)"/>
       </defs>
       <use xlink:href="#DejaVuSans-13"/>
       <use xlink:href="#DejaVuSans-11" transform="translate(63.625 0)"/>
       <use xlink:href="#DejaVuSans-13" transform="translate(95.40625 0)"/>
       <use xlink:href="#DejaVuSans-17" transform="translate(159.03125 0)"/>
      </g>
     </g>
    </g>
    <g id="text_11">
     <!-- Solve time (s) -->
     <g transform="translate(18.774375 141.857891) rotate(-90) scale(0.1 -0.1)">
      <defs>
       <path id="DejaVuSans-36" d="M 3425 4513 
L 3425 3897 
Q 3066 4069 2747 4153 
Q 2428 4238 2131 4238 
Q 1616 4238 1336 4038 
Q 1056 3838 1056 3469 
Q 1056 3159 1242 3001 
Q 1428 2844 1947 2747 
L 2328 2669 
Q 3034 2534 3370 2195 
Q 3706 1856 3706 1288 
Q 3706 609 3251 259 
Q 2797 -91 1919 -91 
Q 1588 -91 1214 -16 
Q 841 59 441 206 
L 441 856 
Q 825 641 1194 531 
Q 1563 422 1919 422 
Q 2459 422 2753 634 
Q 3047 847 3047 1241 
Q 3047 1584 2836 1778 
Q 2625 1972 2144 2069 
L 1759 2144 
Q 1053 2284 737 2584 
Q 422 2884 422 3419 
Q 422 4038 858 4394 
Q 1294 4750 2059 4750 
Q 2388 4750 2728 4690 
Q 3069 4631 3425 4513 
z
" transform="scale(0.015625)"/>
       <path id="DejaVuSans-52" d="M 1959 3097 
Q 1497 3097 1228 2736 
Q 959 2375 959 1747 
Q 959 1119 1226 758 
Q 1494 397 1959 397 
Q 2419 397 2687 759 
Q 2956 1122 2956 1747 
Q 2956 2369 2687 2733 
Q 2419 3097 1959 3097 
z
M 1959 3584 
Q 2709 3584 3137 3096 
Q 3566 2609 3566 1747 
Q 3566 888 3137 398 
Q 2709 -91 1959 -91 
Q 1206 -91 779 398 
Q 353 888 353 1747 
Q 353 2609 779 3096 
Q 1206 3584 1959 3584 
z
" transform="scale(0.015625)"/>
       <path id="DejaVuSans-4f" d="M 603 4863 
L 1178 4863 
L 1178 0 
L 603 0 
L 603 4863 
z
" transform="scale(0.015625)"/>
       <path id="DejaVuSans-59" d="M 191 3500 
L 800 3500 
L 1894 563 
L 2988 3500 
L 3597 3500 
L 2284 0 
L 1503 0 
L 191 3500 
z
" transform="scale(0.015625)"/>
       <path id="DejaVuSans-48" d="M 3597 1894 
L 3597 1613 
L 953 1613 
Q 991 1019 1311 708 
Q 1631 397 2203 397 
Q 2534 397 2845 478 
Q 3156 559 3463 722 
L 3463 178 
Q 3153 47 2828 -22 
Q 2503 -91 2169 -91 
Q 1331 -91 842 396 
Q 353 884 353 1716 
Q 353 2575 817 3079 
Q 1281 3584 2069 3584 
Q 2775 3584 3186 3129 
Q 3597 2675 3597 1894 
z
M 3022 2063 
Q 3016 2534 2758 2815 
Q 2500 3097 2075 3097 
Q 1594 3097 1305 2825 
Q 1016 2553 972 2059 
L 3022 2063 
z
" transform="scale(0.015625)"/>
       <path id="DejaVuSans-4c" d="M 603 3500 
L 1178 3500 
L 1178 0 
L 603 0 
L 603 3500 
z
M 603 4863 
L 1178 4863 
L 1178 4134 
L 603 4134 
L 603 4863 
z
" transform="scale(0.015625)"/>
       <path id="DejaVuSans-50" d="M 3328 2828 
Q 3544 3216 3844 3400 
Q 4144 3584 4550 3584 
Q 5097 3584 5394 3201 
Q 5691 2819 5691 2113 
L 5691 0 
L 5113 0 
L 5113 2094 
Q 5113 2597 4934 2840 
Q 4756 3084 4391 3084 
Q 3944 3084 3684 2787 
Q 3425 2491 3425 1978 
L 3425 0 
L 2847 0 
L 2847 2094 
Q 2847 2600 2669 2842 
Q 2491 3084 2119 3084 
Q 1678 3084 1418 2786 
Q 1159 2488 1159 1978 
L 1159 0 
L 581 0 
L 581 3500 
L 1159 3500 
L 1159 2956 
Q 1356 3278 1631 3431 
Q 1906 3584 2284 3584 
Q 2666 3584 2933 3390 
Q 3200 3197 3328 2828 
z
" transform="scale(0.015625)"/>
      </defs>
      <use xlink:href="#DejaVuSans-36"/>
      <use xlink:href="#DejaVuSans-52" transform="translate(63.484375 0)"/>
      <use xlink:href="#DejaVuSans-4f" transform="translate(124.671875 0)"/>
      <use xlink:href="#DejaVuSans-59" transform="translate(152.453125 0)"/>
      <use xlink:href="#DejaVuSans-48" transform="translate(211.640625 0)"/>
      <use xlink:href="#DejaVuSans-3" transform="translate(273.171875 0)"/>
      <use xlink:href="#DejaVuSans-57" transform="translate(304.953125 0)"/>
      <use xlink:href="#DejaVuSans-4c" transform="translate(344.15625 0)"/>
      <use xlink:href="#DejaVuSans-50" transform="translate(371.9375 0)"/>
      <use xlink:href="#DejaVuSans-48" transform="translate(469.34375 0)"/>
      <use xlink:href="#DejaVuSans-3" transform="translate(530.875 0)"/>
      <use xlink:href="#DejaVuSans-b" transform="translate(562.65625 0)"/>
      <use xlink:href="#DejaVuSans-56" transform="translate(601.671875 0)"/>
      <use xlink:href="#DejaVuSans-c" transform="translate(653.765625 0)"/>
     </g>
    </g>
   </g>
   <g id="line2d_19">
    <path d="M 74.385874 153.943795 
L 75.261849 160.029548 
L 76.388764 160.283965 
L 77.552598 163.400203 
L 78.719878 160.209881 
L 79.880622 163.981675 
L 81.044337 164.163814 
L 82.208149 165.868114 
L 83.372198 164.470631 
L 84.537831 164.500265 
L 85.699846 164.382814 
L 86.866744 160.508025 
L 88.027235 162.108968 
L 89.19124 156.495185 
L 90.357089 160.176271 
L 91.52078 160.170489 
L 92.685164 157.622351 
L 93.846484 162.749707 
L 95.010304 159.071512 
L 96.177814 161.062392 
L 97.338096 159.843073 
L 98.503159 161.28609 
L 99.665322 163.707021 
L 100.829965 160.082311 
L 101.99847 159.985098 
L 103.159694 164.531344 
L 104.321409 166.163728 
L 105.486362 163.156267 
L 106.649772 166.124337 
L 107.818435 161.986458 
L 108.978322 164.963924 
L 110.141356 160.708594 
L 111.305562 162.4194 
L 112.468439 161.670967 
L 113.636999 162.794519 
L 114.800201 161.665185 
L 115.965414 164.079972 
L 117.127354 160.883144 
L 118.293302 164.057566 
L 119.457004 161.625794 
L 120.621314 161.305244 
L 121.785826 163.805679 
L 122.946875 162.41181 
L 124.107085 163.323228 
L 125.272766 152.030613 
L 127.01689 163.889883 
L 128.180777 163.050019 
L 129.344384 161.823473 
L 130.508359 156.316299 
L 131.672214 163.173252 
L 132.836139 161.638081 
L 134.000069 148.531304 
L 135.163423 154.645608 
L 136.328828 159.728152 
L 137.492847 160.648243 
L 138.656173 157.999639 
L 139.820479 157.393954 
L 140.984082 159.4853 
L 142.14638 153.306308 
L 143.310364 164.414977 
L 144.47409 165.890881 
L 145.638257 163.807486 
L 146.80214 163.009906 
L 147.965873 160.05087 
L 149.129265 160.835441 
L 150.293918 164.443166 
L 151.457513 161.545205 
L 152.621129 157.914351 
L 153.784884 162.083671 
L 154.948937 78.43997 
L 158.440612 160.375034 
L 159.603677 161.574477 
L 160.767925 158.945749 
L 161.931604 159.530112 
L 163.095623 155.499203 
L 164.259637 158.187921 
L 165.422718 156.05863 
L 166.588424 125.229805 
L 168.333285 155.428733 
L 169.496944 137.480457 
L 170.660439 153.528922 
L 171.824277 103.577675 
L 173.570627 99.935619 
L 175.316886 113.345238 
L 177.061443 150.692036 
L 178.226672 146.368043 
L 179.389891 152.021578 
L 180.553641 79.992487 
L 182.299551 65.744451 
L 184.046716 33.528984 
L 185.791148 50.683294 
L 187.538108 151.731384 
L 188.703025 141.857574 
L 191.60978 159.303522 
L 192.774831 142.179208 
L 194.520231 158.058545 
L 195.685561 163.093386 
L 196.848061 163.14398 
L 198.012381 169.961542 
L 199.176438 159.765013 
L 200.339705 171.263619 
L 201.503665 167.025997 
L 202.669224 169.092407 
L 203.830833 159.47229 
L 204.994867 161.892498 
L 206.160177 163.438149 
L 207.322114 152.345381 
L 208.485777 159.848494 
L 209.649763 165.96099 
L 210.813956 165.032949 
L 211.976945 163.821942 
L 213.141363 158.334283 
L 214.306286 164.130205 
L 215.469495 164.467017 
L 216.635291 160.030633 
L 217.796561 173.722134 
L 218.963928 152.419465 
L 220.123764 169.627621 
L 221.290343 175.832994 
L 222.450884 168.628025 
L 223.615864 170.059478 
L 224.778259 169.111561 
L 225.942528 173.972575 
L 227.106879 164.865627 
L 228.269733 170.806826 
L 230.597874 170.869346 
L 231.761419 171.207243 
L 232.925227 170.784059 
L 234.089459 165.607915 
L 236.418403 164.207542 
L 237.58127 156.980167 
L 238.745978 156.632151 
L 239.909215 146.085077 
L 241.074195 144.567613 
L 242.237241 110.352232 
L 243.982828 137.219174 
L 245.732287 175.807336 
L 246.891848 171.503941 
L 248.055514 164.511468 
L 249.219013 176.877763 
L 250.383104 175.707593 
L 251.547329 177.404304 
L 252.710826 175.252968 
L 253.874152 177.480918 
L 255.038035 175.367528 
L 256.204472 177.935904 
L 257.365486 178.236939 
L 258.530246 176.79356 
L 259.693411 178.739628 
L 260.85725 178.447628 
L 262.022058 174.801235 
L 263.187076 171.876892 
L 264.348506 173.278351 
L 265.512908 178.569776 
L 266.676784 176.621179 
L 267.839593 178.886351 
L 269.003926 178.204053 
L 270.167916 176.846684 
L 271.331393 177.343952 
L 272.495512 176.923659 
L 273.659313 178.951401 
L 274.822789 176.988709 
L 275.987288 176.838011 
L 277.151157 177.925785 
L 278.314588 178.587484 
L 279.478211 177.308536 
L 280.64231 178.09383 
L 281.808846 178.223206 
L 282.970291 176.195104 
L 284.133973 174.776299 
L 285.298159 177.766413 
L 286.461606 177.942409 
L 287.625601 178.537974 
L 288.78937 177.093873 
L 289.954824 177.70823 
L 291.117209 173.178969 
L 292.282639 178.238023 
L 293.444516 177.571987 
L 294.608503 179.932927 
L 295.772313 179.107159 
L 296.936955 178.555321 
L 298.102217 179.398075 
L 299.263831 178.830336 
L 300.427656 177.975656 
L 301.591319 179.238703 
L 302.755006 174.896279 
L 303.918942 178.908757 
L 305.082921 180.826998 
L 306.246737 179.419397 
L 307.410786 179.690075 
L 308.573602 180.908672 
L 309.738292 180.159878 
L 310.90219 177.242764 
L 312.065717 177.254328 
L 313.229724 180.635463 
L 314.393305 179.405664 
L 315.557465 179.108243 
L 316.720446 179.479026 
L 317.886752 175.413785 
L 319.048702 180.391527 
L 320.211899 178.004567 
L 321.376484 150.226931 
L 322.540007 73.595941 
L 324.286271 147.348124 
L 325.450446 150.805511 
L 326.613124 143.866884 
L 327.776981 126.694867 
L 328.941401 134.462515 
L 330.106229 131.506371 
L 331.268752 155.101316 
L 332.432582 161.620012 
L 333.598062 146.202889 
L 334.760853 156.705513 
L 335.924983 158.613635 
L 337.090134 153.111521 
L 338.251992 157.60139 
L 339.4161 155.666887 
L 340.58025 155.910462 
L 341.743529 160.494653 
L 342.906862 158.851427 
L 344.070874 155.03699 
L 345.235216 131.414579 
L 346.398725 123.12039 
L 348.145129 156.87681 
L 349.308284 159.141982 
L 350.471692 130.733365 
L 351.636429 136.14188 
L 352.801031 120.141117 
L 354.545769 111.370259 
L 356.293245 156.405562 
L 357.455813 140.636448 
L 358.619021 162.174741 
L 359.784815 155.334411 
L 360.946739 149.831212 
L 362.111141 73.602446 
L 363.856293 91.510608 
L 365.603385 165.344826 
L 366.766957 129.774967 
L 367.929773 159.416998 
L 369.093415 146.920964 
L 370.257967 158.219723 
L 371.421083 159.157522 
L 372.585312 171.095936 
L 373.749036 149.813143 
L 374.914162 148.383136 
L 376.076474 157.69499 
L 377.241198 163.863863 
L 378.404791 172.005185 
L 379.56988 161.99224 
L 380.732834 171.695476 
L 381.895965 169.539081 
L 383.059701 175.764692 
L 384.223748 174.868091 
L 385.386734 175.395716 
L 387.715784 174.271442 
L 388.879006 172.57473 
L 390.043542 171.123401 
L 391.207613 175.58183 
L 392.370578 169.912755 
L 393.534335 168.545629 
L 394.698972 170.808272 
L 395.86223 170.466038 
L 397.025919 172.069873 
L 398.189559 169.177694 
L 399.353783 173.827297 
L 400.51847 172.252012 
L 401.681379 165.840287 
L 402.846138 173.408088 
L 404.010508 173.36942 
L 405.172857 169.480175 
L 406.336979 173.498797 
L 407.500486 169.939859 
L 408.66579 173.933184 
L 409.8281 165.860886 
L 410.991557 164.935736 
L 412.157048 170.144043 
L 413.319409 167.6783 
L 414.48391 173.49446 
L 415.648236 173.040558 
L 416.811171 173.721049 
L 417.974846 171.0345 
L 419.138727 176.265935 
L 420.302467 166.504155 
L 421.468008 176.177396 
L 422.629866 171.317827 
L 423.793554 176.58504 
L 426.122751 175.565568 
L 427.285258 176.746941 
L 428.449139 173.316658 
L 429.612568 177.876998 
L 430.776254 175.368612 
L 431.940416 178.782995 
L 433.105835 176.753808 
L 434.268243 178.462083 
L 435.432758 176.717308 
L 436.596517 178.325479 
L 437.759344 176.695263 
L 438.924082 175.929484 
L 440.088648 178.460276 
L 441.250713 176.871981 
L 442.415741 179.432407 
L 443.581323 177.578131 
L 444.74214 180.458745 
L 445.906543 180.398755 
L 447.070568 174.513209 
L 448.235343 179.715734 
L 449.398115 156.4052 
L 452.307777 177.05159 
L 453.473013 172.628938 
L 454.635583 171.749684 
L 455.800044 169.722666 
L 456.963396 177.996978 
L 458.126334 178.686866 
L 459.290837 179.960393 
L 460.455523 180.71027 
L 461.617917 176.364233 
L 462.781829 173.908971 
L 463.946009 177.503324 
L 465.109791 176.418441 
L 466.276521 170.374607 
L 467.438096 169.521735 
L 468.600946 176.596966 
L 469.764799 174.614398 
L 470.929411 164.474245 
L 472.09317 165.961713 
L 473.25647 165.943644 
L 473.25647 165.943644 
" clip-path="url(#p98a518c96a)" style="fill: none; stroke: #1f77b4; stroke-width: 1.5; stroke-linecap: square"/>
   </g>
   <g id="patch_3">
    <path d="M 54.442344 188.277656 
L 54.442344 26.16 
" style="fill: none; stroke: #000000; stroke-width: 0.8; stroke-linejoin: miter; stroke-linecap: square"/>
   </g>
   <g id="patch_4">
    <path d="M 493.2 188.277656 
L 493.2 26.16 
" style="fill: none; stroke: #000000; stroke-width: 0.8; stroke-linejoin: miter; stroke-linecap: square"/>
   </g>
   <g id="patch_5">
    <path d="M 54.442344 188.277656 
L 493.2 188.277656 
" style="fill: none; stroke: #000000; stroke-width: 0.8; stroke-linejoin: miter; stroke-linecap: square"/>
   </g>
   <g id="patch_6">
    <path d="M 54.442344 26.16 
L 493.2 26.16 
" style="fill: none; stroke: #000000; stroke-width: 0.8; stroke-linejoin: miter; stroke-linecap: square"/>
   </g>
   <g id="text_12">
    <!-- Solver Time -->
    <g transform="translate(238.374297 20.16) scale(0.12 -0.12)">
     <defs>
      <path id="DejaVuSans-55" d="M 2631 2963 
Q 2534 3019 2420 3045 
Q 2306 3072 2169 3072 
Q 1681 3072 1420 2755 
Q 1159 2438 1159 1844 
L 1159 0 
L 581 0 
L 581 3500 
L 1159 3500 
L 1159 2956 
Q 1341 3275 1631 3429 
Q 1922 3584 2338 3584 
Q 2397 3584 2469 3576 
Q 2541 3569 2628 3553 
L 2631 2963 
z
" transform="scale(0.015625)"/>
      <path id="DejaVuSans-37" d="M -19 4666 
L 3928 4666 
L 3928 4134 
L 2272 4134 
L 2272 0 
L 1638 0 
L 1638 4134 
L -19 4134 
L -19 4666 
z
" transform="scale(0.015625)"/>
     </defs>
     <use xlink:href="#DejaVuSans-36"/>
     <use xlink:href="#DejaVuSans-52" transform="translate(63.484375 0)"/>
     <use xlink:href="#DejaVuSans-4f" transform="translate(124.671875 0)"/>
     <use xlink:href="#DejaVuSans-59" transform="translate(152.453125 0)"/>
     <use xlink:href="#DejaVuSans-48" transform="translate(211.640625 0)"/>
     <use xlink:href="#DejaVuSans-55" transform="translate(273.171875 0)"/>
     <use xlink:href="#DejaVuSans-3" transform="translate(314.28125 0)"/>
     <use xlink:href="#DejaVuSans-37" transform="translate(346.0625 0)"/>
     <use xlink:href="#DejaVuSans-4c" transform="translate(404.0625 0)"/>
     <use xlink:href="#DejaVuSans-50" transform="translate(431.84375 0)"/>
     <use xlink:href="#DejaVuSans-48" transform="translate(529.25 0)"/>
    </g>
   </g>
   <g id="legend_1">
    <g id="patch_7">
     <path d="M 431.6 49.160781 
L 486.2 49.160781 
Q 488.2 49.160781 488.2 47.160781 
L 488.2 33.16 
Q 488.2 31.16 486.2 31.16 
L 431.6 31.16 
Q 429.6 31.16 429.6 33.16 
L 429.6 47.160781 
Q 429.6 49.160781 431.6 49.160781 
z
" style="fill: #ffffff; opacity: 0.8; stroke: #cccccc; stroke-linejoin: miter"/>
    </g>
    <g id="line2d_20">
     <path d="M 433.6 39.258438 
L 443.6 39.258438 
L 453.6 39.258438 
" style="fill: none; stroke: #1f77b4; stroke-width: 1.5; stroke-linecap: square"/>
    </g>
    <g id="text_13">
     <!-- $t_{solve}$ -->
     <g transform="translate(461.6 42.758438) scale(0.1 -0.1)">
      <defs>
       <path id="DejaVuSans-Oblique-57" d="M 2706 3500 
L 2619 3053 
L 1472 3053 
L 1100 1153 
Q 1081 1047 1072 975 
Q 1063 903 1063 863 
Q 1063 663 1183 572 
Q 1303 481 1569 481 
L 2150 481 
L 2053 0 
L 1503 0 
Q 991 0 739 200 
Q 488 400 488 806 
Q 488 878 497 964 
Q 506 1050 525 1153 
L 897 3053 
L 409 3053 
L 500 3500 
L 978 3500 
L 1172 4494 
L 1747 4494 
L 1556 3500 
L 2706 3500 
z
" transform="scale(0.015625)"/>
       <path id="DejaVuSans-Oblique-56" d="M 3200 3397 
L 3091 2853 
Q 2863 2978 2609 3040 
Q 2356 3103 2088 3103 
Q 1634 3103 1373 2948 
Q 1113 2794 1113 2528 
Q 1113 2219 1719 2053 
Q 1766 2041 1788 2034 
L 1972 1978 
Q 2547 1819 2739 1644 
Q 2931 1469 2931 1166 
Q 2931 609 2489 259 
Q 2047 -91 1331 -91 
Q 1053 -91 747 -37 
Q 441 16 72 128 
L 184 722 
Q 500 559 806 475 
Q 1113 391 1394 391 
Q 1816 391 2080 572 
Q 2344 753 2344 1031 
Q 2344 1331 1650 1516 
L 1591 1531 
L 1394 1581 
Q 956 1697 753 1886 
Q 550 2075 550 2369 
Q 550 2928 970 3256 
Q 1391 3584 2113 3584 
Q 2397 3584 2667 3537 
Q 2938 3491 3200 3397 
z
" transform="scale(0.015625)"/>
       <path id="DejaVuSans-Oblique-52" d="M 1625 -91 
Q 1009 -91 651 289 
Q 294 669 294 1325 
Q 294 1706 417 2101 
Q 541 2497 738 2766 
Q 1047 3184 1428 3384 
Q 1809 3584 2291 3584 
Q 2888 3584 3255 3212 
Q 3622 2841 3622 2241 
Q 3622 1825 3500 1412 
Q 3378 1000 3181 728 
Q 2875 309 2494 109 
Q 2113 -91 1625 -91 
z
M 891 1344 
Q 891 869 1089 633 
Q 1288 397 1691 397 
Q 2269 397 2648 901 
Q 3028 1406 3028 2181 
Q 3028 2634 2825 2865 
Q 2622 3097 2228 3097 
Q 1903 3097 1650 2945 
Q 1397 2794 1197 2484 
Q 1050 2253 970 1956 
Q 891 1659 891 1344 
z
" transform="scale(0.015625)"/>
       <path id="DejaVuSans-Oblique-4f" d="M 1172 4863 
L 1747 4863 
L 800 0 
L 225 0 
L 1172 4863 
z
" transform="scale(0.015625)"/>
       <path id="DejaVuSans-Oblique-59" d="M 459 3500 
L 1069 3500 
L 1581 525 
L 3256 3500 
L 3866 3500 
L 1875 0 
L 1100 0 
L 459 3500 
z
" transform="scale(0.015625)"/>
       <path id="DejaVuSans-Oblique-48" d="M 3078 2063 
Q 3088 2113 3092 2166 
Q 3097 2219 3097 2272 
Q 3097 2653 2873 2875 
Q 2650 3097 2266 3097 
Q 1838 3097 1509 2826 
Q 1181 2556 1013 2059 
L 3078 2063 
z
M 3578 1613 
L 903 1613 
Q 884 1494 878 1425 
Q 872 1356 872 1306 
Q 872 872 1139 634 
Q 1406 397 1894 397 
Q 2269 397 2603 481 
Q 2938 566 3225 728 
L 3116 159 
Q 2806 34 2476 -28 
Q 2147 -91 1806 -91 
Q 1078 -91 686 257 
Q 294 606 294 1247 
Q 294 1794 489 2264 
Q 684 2734 1063 3103 
Q 1306 3334 1642 3459 
Q 1978 3584 2356 3584 
Q 2950 3584 3301 3228 
Q 3653 2872 3653 2272 
Q 3653 2128 3634 1964 
Q 3616 1800 3578 1613 
z
" transform="scale(0.015625)"/>
      </defs>
      <use xlink:href="#DejaVuSans-Oblique-57" transform="translate(0 0.78125)"/>
      <use xlink:href="#DejaVuSans-Oblique-56" transform="translate(39.208984 -14.218701) scale(0.7)"/>
      <use xlink:href="#DejaVuSans-Oblique-52" transform="translate(75.678711 -14.218701) scale(0.7)"/>
      <use xlink:href="#DejaVuSans-Oblique-4f" transform="translate(118.505859 -14.218701) scale(0.7)"/>
      <use xlink:href="#DejaVuSans-Oblique-59" transform="translate(137.954102 -14.218701) scale(0.7)"/>
      <use xlink:href="#DejaVuSans-Oblique-48" transform="translate(179.379883 -14.218701) scale(0.7)"/>
     </g>
    </g>
   </g>
  </g>
 </g>
 <defs>
  <clipPath id="p98a518c96a">
   <rect x="54.442344" y="26.16" width="438.757656" height="162.117656"/>
  </clipPath>
 </defs>
</svg>
