<?xml version="1.0" encoding="utf-8" standalone="no"?>
<!DOCTYPE svg PUBLIC "-//W3C//DTD SVG 1.1//EN"
  "http://www.w3.org/Graphics/SVG/1.1/DTD/svg11.dtd">
<svg xmlns:xlink="http://www.w3.org/1999/xlink" width="504pt" height="230.4pt" viewBox="0 0 504 230.4" xmlns="http://www.w3.org/2000/svg" version="1.1">
 <metadata>
  <rdf:RDF xmlns:dc="http://purl.org/dc/elements/1.1/" xmlns:cc="http://creativecommons.org/ns#" xmlns:rdf="http://www.w3.org/1999/02/22-rdf-syntax-ns#">
   <cc:Work>
    <dc:type rdf:resource="http://purl.org/dc/dcmitype/StillImage"/>
    <dc:date>2026-07-10T12:54:49.402792</dc:date>
    <dc:format>image/svg+xml</dc:format>
    <dc:creator>
     <cc:Agent>
      <dc:title>Matplotlib v3.11.0, https://matplotlib.org/</dc:title>
     </cc:Agent>
    </dc:creator>
   </cc:Work>
  </rdf:RDF>
 </metadata>
 <defs>
  <style type="text/css">*{stroke-linejoin: round; stroke-linecap: butt}</style>
 </defs>
 <g id="figure_1">
  <g id="patch_1">
   <path d="M 0 230.4 
L 504 230.4 
L 504 0 
L 0 0 
z
" style="fill: #ffffff"/>
  </g>
  <g id="axes_1">
   <g id="patch_2">
    <path d="M 54.442344 188.277656 
L 493.2 188.277656 
L 493.2 26.16 
L 54.442344 26.16 
z
" style="fill: #ffffff"/>
   </g>
   <g id="matplotlib.axis_1">
    <g id="xtick_1">
     <g id="line2d_1">
      <path d="M 74.38587 188.277656 
L 74.38587 26.16 
" clip-path="url(#p09224b7db9)" style="fill: none; stroke: #b0b0b0; stroke-width: 0.8; stroke-linecap: square"/>
     </g>
     <g id="line2d_2">
      <defs>
       <path id="m9b3a094924" d="M 0 0 
L 0 3.5 
" style="stroke: #000000; stroke-width: 0.8"/>
      </defs>
      <g>
       <use xlink:href="#m9b3a094924" x="74.38587" y="188.277656" style="stroke: #000000; stroke-width: 0.8"/>
      </g>
     </g>
     <g id="text_1">
      <!-- 0 -->
      <g transform="translate(71.20462 202.875313) scale(0.1 -0.1)">
       <defs>
        <path id="DejaVuSans-13" d="M 2034 4250 
Q 1547 4250 1301 3770 
Q 1056 3291 1056 2328 
Q 1056 1369 1301 889 
Q 1547 409 2034 409 
Q 2525 409 2770 889 
Q 3016 1369 3016 2328 
Q 3016 3291 2770 3770 
Q 2525 4250 2034 4250 
z
M 2034 4750 
Q 2819 4750 3233 4129 
Q 3647 3509 3647 2328 
Q 3647 1150 3233 529 
Q 2819 -91 2034 -91 
Q 1250 -91 836 529 
Q 422 1150 422 2328 
Q 422 3509 836 4129 
Q 1250 4750 2034 4750 
z
" transform="scale(0.015625)"/>
       </defs>
       <use xlink:href="#DejaVuSans-13"/>
      </g>
     </g>
    </g>
    <g id="xtick_2">
     <g id="line2d_3">
      <path d="M 155.414189 188.277656 
L 155.414189 26.16 
" clip-path="url(#p09224b7db9)" style="fill: none; stroke: #b0b0b0; stroke-width: 0.8; stroke-linecap: square"/>
     </g>
     <g id="line2d_4">
      <g>
       <use xlink:href="#m9b3a094924" x="155.414189" y="188.277656" style="stroke: #000000; stroke-width: 0.8"/>
      </g>
     </g>
     <g id="text_2">
      <!-- 10 -->
      <g transform="translate(149.051689 202.875313) scale(0.1 -0.1)">
       <defs>
        <path id="DejaVuSans-14" d="M 794 531 
L 1825 531 
L 1825 4091 
L 703 3866 
L 703 4441 
L 1819 4666 
L 2450 4666 
L 2450 531 
L 3481 531 
L 3481 0 
L 794 0 
L 794 531 
z
" transform="scale(0.015625)"/>
       </defs>
       <use xlink:href="#DejaVuSans-14"/>
       <use xlink:href="#DejaVuSans-13" transform="translate(63.625 0)"/>
      </g>
     </g>
    </g>
    <g id="xtick_3">
     <g id="line2d_5">
      <path d="M 236.442508 188.277656 
L 236.442508 26.16 
" clip-path="url(#p09224b7db9)" style="fill: none; stroke: #b0b0b0; stroke-width: 0.8; stroke-linecap: square"/>
     </g>
     <g id="line2d_6">
      <g>
       <use xlink:href="#m9b3a094924" x="236.442508" y="188.277656" style="stroke: #000000; stroke-width: 0.8"/>
      </g>
     </g>
     <g id="text_3">
      <!-- 20 -->
      <g transform="translate(230.080008 202.875313) scale(0.1 -0.1)">
       <defs>
        <path id="DejaVuSans-15" d="M 1228 531 
L 3431 531 
L 3431 0 
L 469 0 
L 469 531 
Q 828 903 1448 1529 
Q 2069 2156 2228 2338 
Q 2531 2678 2651 2914 
Q 2772 3150 2772 3378 
Q 2772 3750 2511 3984 
Q 2250 4219 1831 4219 
Q 1534 4219 1204 4116 
Q 875 4013 500 3803 
L 500 4441 
Q 881 4594 1212 4672 
Q 1544 4750 1819 4750 
Q 2544 4750 2975 4387 
Q 3406 4025 3406 3419 
Q 3406 3131 3298 2873 
Q 3191 2616 2906 2266 
Q 2828 2175 2409 1742 
Q 1991 1309 1228 531 
z
" transform="scale(0.015625)"/>
       </defs>
       <use xlink:href="#DejaVuSans-15"/>
       <use xlink:href="#DejaVuSans-13" transform="translate(63.625 0)"/>
      </g>
     </g>
    </g>
    <g id="xtick_4">
     <g id="line2d_7">
      <path d="M 317.470828 188.277656 
L 317.470828 26.16 
" clip-path="url(#p09224b7db9)" style="fill: none; stroke: #b0b0b0; stroke-width: 0.8; stroke-linecap: square"/>
     </g>
     <g id="line2d_8">
      <g>
       <use xlink:href="#m9b3a094924" x="317.470828" y="188.277656" style="stroke: #000000; stroke-width: 0.8"/>
      </g>
     </g>
     <g id="text_4">
      <!-- 30 -->
      <g transform="translate(311.108328 202.875313) scale(0.1 -0.1)">
       <defs>
        <path id="DejaVuSans-16" d="M 2597 2516 
Q 3050 2419 3304 2112 
Q 3559 1806 3559 1356 
Q 3559 666 3084 287 
Q 2609 -91 1734 -91 
Q 1441 -91 1130 -33 
Q 819 25 488 141 
L 488 750 
Q 750 597 1062 519 
Q 1375 441 1716 441 
Q 2309 441 2620 675 
Q 2931 909 2931 1356 
Q 2931 1769 2642 2001 
Q 2353 2234 1838 2234 
L 1294 2234 
L 1294 2753 
L 1863 2753 
Q 2328 2753 2575 2939 
Q 2822 3125 2822 3475 
Q 2822 3834 2567 4026 
Q 2313 4219 1838 4219 
Q 1578 4219 1281 4162 
Q 984 4106 628 3988 
L 628 4550 
Q 988 4650 1302 4700 
Q 1616 4750 1894 4750 
Q 2613 4750 3031 4423 
Q 3450 4097 3450 3541 
Q 3450 3153 3228 2886 
Q 3006 2619 2597 2516 
z
" transform="scale(0.015625)"/>
       </defs>
       <use xlink:href="#DejaVuSans-16"/>
       <use xlink:href="#DejaVuSans-13" transform="translate(63.625 0)"/>
      </g>
     </g>
    </g>
    <g id="xtick_5">
     <g id="line2d_9">
      <path d="M 398.499147 188.277656 
L 398.499147 26.16 
" clip-path="url(#p09224b7db9)" style="fill: none; stroke: #b0b0b0; stroke-width: 0.8; stroke-linecap: square"/>
     </g>
     <g id="line2d_10">
      <g>
       <use xlink:href="#m9b3a094924" x="398.499147" y="188.277656" style="stroke: #000000; stroke-width: 0.8"/>
      </g>
     </g>
     <g id="text_5">
      <!-- 40 -->
      <g transform="translate(392.136647 202.875313) scale(0.1 -0.1)">
       <defs>
        <path id="DejaVuSans-17" d="M 2419 4116 
L 825 1625 
L 2419 1625 
L 2419 4116 
z
M 2253 4666 
L 3047 4666 
L 3047 1625 
L 3713 1625 
L 3713 1100 
L 3047 1100 
L 3047 0 
L 2419 0 
L 2419 1100 
L 313 1100 
L 313 1709 
L 2253 4666 
z
" transform="scale(0.015625)"/>
       </defs>
       <use xlink:href="#DejaVuSans-17"/>
       <use xlink:href="#DejaVuSans-13" transform="translate(63.625 0)"/>
      </g>
     </g>
    </g>
    <g id="xtick_6">
     <g id="line2d_11">
      <path d="M 479.527466 188.277656 
L 479.527466 26.16 
" clip-path="url(#p09224b7db9)" style="fill: none; stroke: #b0b0b0; stroke-width: 0.8; stroke-linecap: square"/>
     </g>
     <g id="line2d_12">
      <g>
       <use xlink:href="#m9b3a094924" x="479.527466" y="188.277656" style="stroke: #000000; stroke-width: 0.8"/>
      </g>
     </g>
     <g id="text_6">
      <!-- 50 -->
      <g transform="translate(473.164966 202.875313) scale(0.1 -0.1)">
       <defs>
        <path id="DejaVuSans-18" d="M 691 4666 
L 3169 4666 
L 3169 4134 
L 1269 4134 
L 1269 2991 
Q 1406 3038 1543 3061 
Q 1681 3084 1819 3084 
Q 2600 3084 3056 2656 
Q 3513 2228 3513 1497 
Q 3513 744 3044 326 
Q 2575 -91 1722 -91 
Q 1428 -91 1123 -41 
Q 819 9 494 109 
L 494 744 
Q 775 591 1075 516 
Q 1375 441 1709 441 
Q 2250 441 2565 725 
Q 2881 1009 2881 1497 
Q 2881 1984 2565 2268 
Q 2250 2553 1709 2553 
Q 1456 2553 1204 2497 
Q 953 2441 691 2322 
L 691 4666 
z
" transform="scale(0.015625)"/>
       </defs>
       <use xlink:href="#DejaVuSans-18"/>
       <use xlink:href="#DejaVuSans-13" transform="translate(63.625 0)"/>
      </g>
     </g>
    </g>
    <g id="text_7">
     <!-- t (s) -->
     <g transform="translate(263.765703 216.875313) scale(0.1 -0.1)">
      <defs>
       <path id="DejaVuSans-57" d="M 1172 4494 
L 1172 3500 
L 2356 3500 
L 2356 3053 
L 1172 3053 
L 1172 1153 
Q 1172 725 1289 603 
Q 1406 481 1766 481 
L 2356 481 
L 2356 0 
L 1766 0 
Q 1100 0 847 248 
Q 594 497 594 1153 
L 594 3053 
L 172 3053 
L 172 3500 
L 594 3500 
L 594 4494 
L 1172 4494 
z
" transform="scale(0.015625)"/>
       <path id="DejaVuSans-3" transform="scale(0.015625)"/>
       <path id="DejaVuSans-b" d="M 1984 4856 
Q 1566 4138 1362 3434 
Q 1159 2731 1159 2009 
Q 1159 1288 1364 580 
Q 1569 -128 1984 -844 
L 1484 -844 
Q 1016 -109 783 600 
Q 550 1309 550 2009 
Q 550 2706 781 3412 
Q 1013 4119 1484 4856 
L 1984 4856 
z
" transform="scale(0.015625)"/>
       <path id="DejaVuSans-56" d="M 2834 3397 
L 2834 2853 
Q 2591 2978 2328 3040 
Q 2066 3103 1784 3103 
Q 1356 3103 1142 2972 
Q 928 2841 928 2578 
Q 928 2378 1081 2264 
Q 1234 2150 1697 2047 
L 1894 2003 
Q 2506 1872 2764 1633 
Q 3022 1394 3022 966 
Q 3022 478 2636 193 
Q 2250 -91 1575 -91 
Q 1294 -91 989 -36 
Q 684 19 347 128 
L 347 722 
Q 666 556 975 473 
Q 1284 391 1588 391 
Q 1994 391 2212 530 
Q 2431 669 2431 922 
Q 2431 1156 2273 1281 
Q 2116 1406 1581 1522 
L 1381 1569 
Q 847 1681 609 1914 
Q 372 2147 372 2553 
Q 372 3047 722 3315 
Q 1072 3584 1716 3584 
Q 2034 3584 2315 3537 
Q 2597 3491 2834 3397 
z
" transform="scale(0.015625)"/>
       <path id="DejaVuSans-c" d="M 513 4856 
L 1013 4856 
Q 1481 4119 1714 3412 
Q 1947 2706 1947 2009 
Q 1947 1309 1714 600 
Q 1481 -109 1013 -844 
L 513 -844 
Q 928 -128 1133 580 
Q 1338 1288 1338 2009 
Q 1338 2731 1133 3434 
Q 928 4138 513 4856 
z
" transform="scale(0.015625)"/>
      </defs>
      <use xlink:href="#DejaVuSans-57"/>
      <use xlink:href="#DejaVuSans-3" transform="translate(39.203125 0)"/>
      <use xlink:href="#DejaVuSans-b" transform="translate(70.984375 0)"/>
      <use xlink:href="#DejaVuSans-56" transform="translate(110 0)"/>
      <use xlink:href="#DejaVuSans-c" transform="translate(162.09375 0)"/>
     </g>
    </g>
   </g>
   <g id="matplotlib.axis_2">
    <g id="ytick_1">
     <g id="line2d_13">
      <path d="M 54.442344 181.361021 
L 493.2 181.361021 
" clip-path="url(#p09224b7db9)" style="fill: none; stroke: #b0b0b0; stroke-width: 0.8; stroke-linecap: square"/>
     </g>
     <g id="line2d_14">
      <defs>
       <path id="m05b600062f" d="M 0 0 
L -3.5 0 
" style="stroke: #000000; stroke-width: 0.8"/>
      </defs>
      <g>
       <use xlink:href="#m05b600062f" x="54.442344" y="181.361021" style="stroke: #000000; stroke-width: 0.8"/>
      </g>
     </g>
     <g id="text_8">
      <!-- 0.01 -->
      <g transform="translate(25.176719 185.159849) scale(0.1 -0.1)">
       <defs>
        <path id="DejaVuSans-11" d="M 684 794 
L 1344 794 
L 1344 0 
L 684 0 
L 684 794 
z
" transform="scale(0.015625)"/>
       </defs>
       <use xlink:href="#DejaVuSans-13"/>
       <use xlink:href="#DejaVuSans-11" transform="translate(63.625 0)"/>
       <use xlink:href="#DejaVuSans-13" transform="translate(95.40625 0)"/>
       <use xlink:href="#DejaVuSans-14" transform="translate(159.03125 0)"/>
      </g>
     </g>
    </g>
    <g id="ytick_2">
     <g id="line2d_15">
      <path d="M 54.442344 150.899785 
L 493.2 150.899785 
" clip-path="url(#p09224b7db9)" style="fill: none; stroke: #b0b0b0; stroke-width: 0.8; stroke-linecap: square"/>
     </g>
     <g id="line2d_16">
      <g>
       <use xlink:href="#m05b600062f" x="54.442344" y="150.899785" style="stroke: #000000; stroke-width: 0.8"/>
      </g>
     </g>
     <g id="text_9">
      <!-- 0.02 -->
      <g transform="translate(25.176719 154.698613) scale(0.1 -0.1)">
       <use xlink:href="#DejaVuSans-13"/>
       <use xlink:href="#DejaVuSans-11" transform="translate(63.625 0)"/>
       <use xlink:href="#DejaVuSans-13" transform="translate(95.40625 0)"/>
       <use xlink:href="#DejaVuSans-15" transform="translate(159.03125 0)"/>
      </g>
     </g>
    </g>
    <g id="ytick_3">
     <g id="line2d_17">
      <path d="M 54.442344 120.438548 
L 493.2 120.438548 
" clip-path="url(#p09224b7db9)" style="fill: none; stroke: #b0b0b0; stroke-width: 0.8; stroke-linecap: square"/>
     </g>
     <g id="line2d_18">
      <g>
       <use xlink:href="#m05b600062f" x="54.442344" y="120.438548" style="stroke: #000000; stroke-width: 0.8"/>
      </g>
     </g>
     <g id="text_10">
      <!-- 0.03 -->
      <g transform="translate(25.176719 124.237376) scale(0.1 -0.1)">
       <use xlink:href="#DejaVuSans-13"/>
       <use xlink:href="#DejaVuSans-11" transform="translate(63.625 0)"/>
       <use xlink:href="#DejaVuSans-13" transform="translate(95.40625 0)"/>
       <use xlink:href="#DejaVuSans-16" transform="translate(159.03125 0)"/>
      </g>
     </g>
    </g>
    <g id="ytick_4">
     <g id="line2d_19">
      <path d="M 54.442344 89.977311 
L 493.2 89.977311 
" clip-path="url(#p09224b7db9)" style="fill: none; stroke: #b0b0b0; stroke-width: 0.8; stroke-linecap: square"/>
     </g>
     <g id="line2d_20">
      <g>
       <use xlink:href="#m05b600062f" x="54.442344" y="89.977311" style="stroke: #000000; stroke-width: 0.8"/>
      </g>
     </g>
     <g id="text_11">
      <!-- 0.04 -->
      <g transform="translate(25.176719 93.776139) scale(0.1 -0.1)">
       <use xlink:href="#DejaVuSans-13"/>
       <use xlink:href="#DejaVuSans-11" transform="translate(63.625 0)"/>
       <use xlink:href="#DejaVuSans-13" transform="translate(95.40625 0)"/>
       <use xlink:href="#DejaVuSans-17" transform="translate(159.03125 0)"/>
      </g>
     </g>
    </g>
    <g id="ytick_5">
     <g id="line2d_21">
      <path d="M 54.442344 59.516075 
L 493.2 59.516075 
" clip-path="url(#p09224b7db9)" style="fill: none; stroke: #b0b0b0; stroke-width: 0.8; stroke-linecap: square"/>
     </g>
     <g id="line2d_22">
      <g>
       <use xlink:href="#m05b600062f" x="54.442344" y="59.516075" style="stroke: #000000; stroke-width: 0.8"/>
      </g>
     </g>
     <g id="text_12">
      <!-- 0.05 -->
      <g transform="translate(25.176719 63.314903) scale(0.1 -0.1)">
       <use xlink:href="#DejaVuSans-13"/>
       <use xlink:href="#DejaVuSans-11" transform="translate(63.625 0)"/>
       <use xlink:href="#DejaVuSans-13" transform="translate(95.40625 0)"/>
       <use xlink:href="#DejaVuSans-18" transform="translate(159.03125 0)"/>
      </g>
     </g>
    </g>
    <g id="ytick_6">
     <g id="line2d_23">
      <path d="M 54.442344 29.054838 
L 493.2 29.054838 
" clip-path="url(#p09224b7db9)" style="fill: none; stroke: #b0b0b0; stroke-width: 0.8; stroke-linecap: square"/>
     </g>
     <g id="line2d_24">
      <g>
       <use xlink:href="#m05b600062f" x="54.442344" y="29.054838" style="stroke: #000000; stroke-width: 0.8"/>
      </g>
     </g>
     <g id="text_13">
      <!-- 0.06 -->
      <g transform="translate(25.176719 32.853666) scale(0.1 -0.1)">
       <defs>
        <path id="DejaVuSans-19" d="M 2113 2584 
Q 1688 2584 1439 2293 
Q 1191 2003 1191 1497 
Q 1191 994 1439 701 
Q 1688 409 2113 409 
Q 2538 409 2786 701 
Q 3034 994 3034 1497 
Q 3034 2003 2786 2293 
Q 2538 2584 2113 2584 
z
M 3366 4563 
L 3366 3988 
Q 3128 4100 2886 4159 
Q 2644 4219 2406 4219 
Q 1781 4219 1451 3797 
Q 1122 3375 1075 2522 
Q 1259 2794 1537 2939 
Q 1816 3084 2150 3084 
Q 2853 3084 3261 2657 
Q 3669 2231 3669 1497 
Q 3669 778 3244 343 
Q 2819 -91 2113 -91 
Q 1303 -91 875 529 
Q 447 1150 447 2328 
Q 447 3434 972 4092 
Q 1497 4750 2381 4750 
Q 2619 4750 2861 4703 
Q 3103 4656 3366 4563 
z
" transform="scale(0.015625)"/>
       </defs>
       <use xlink:href="#DejaVuSans-13"/>
       <use xlink:href="#DejaVuSans-11" transform="translate(63.625 0)"/>
       <use xlink:href="#DejaVuSans-13" transform="translate(95.40625 0)"/>
       <use xlink:href="#DejaVuSans-19" transform="translate(159.03125 0)"/>
      </g>
     </g>
    </g>
    <g id="text_14">
     <!-- Time (s) -->
     <g transform="translate(18.774375 127.550078) rotate(-90) scale(0.1 -0.1)">
      <defs>
       <path id="DejaVuSans-37" d="M -19 4666 
L 3928 4666 
L 3928 4134 
L 2272 4134 
L 2272 0 
L 1638 0 
L 1638 4134 
L -19 4134 
L -19 4666 
z
" transform="scale(0.015625)"/>
       <path id="DejaVuSans-4c" d="M 603 3500 
L 1178 3500 
L 1178 0 
L 603 0 
L 603 3500 
z
M 603 4863 
L 1178 4863 
L 1178 4134 
L 603 4134 
L 603 4863 
z
" transform="scale(0.015625)"/>
       <path id="DejaVuSans-50" d="M 3328 2828 
Q 3544 3216 3844 3400 
Q 4144 3584 4550 3584 
Q 5097 3584 5394 3201 
Q 5691 2819 5691 2113 
L 5691 0 
L 5113 0 
L 5113 2094 
Q 5113 2597 4934 2840 
Q 4756 3084 4391 3084 
Q 3944 3084 3684 2787 
Q 3425 2491 3425 1978 
L 3425 0 
L 2847 0 
L 2847 2094 
Q 2847 2600 2669 2842 
Q 2491 3084 2119 3084 
Q 1678 3084 1418 2786 
Q 1159 2488 1159 1978 
L 1159 0 
L 581 0 
L 581 3500 
L 1159 3500 
L 1159 2956 
Q 1356 3278 1631 3431 
Q 1906 3584 2284 3584 
Q 2666 3584 2933 3390 
Q 3200 3197 3328 2828 
z
" transform="scale(0.015625)"/>
       <path id="DejaVuSans-48" d="M 3597 1894 
L 3597 1613 
L 953 1613 
Q 991 1019 1311 708 
Q 1631 397 2203 397 
Q 2534 397 2845 478 
Q 3156 559 3463 722 
L 3463 178 
Q 3153 47 2828 -22 
Q 2503 -91 2169 -91 
Q 1331 -91 842 396 
Q 353 884 353 1716 
Q 353 2575 817 3079 
Q 1281 3584 2069 3584 
Q 2775 3584 3186 3129 
Q 3597 2675 3597 1894 
z
M 3022 2063 
Q 3016 2534 2758 2815 
Q 2500 3097 2075 3097 
Q 1594 3097 1305 2825 
Q 1016 2553 972 2059 
L 3022 2063 
z
" transform="scale(0.015625)"/>
      </defs>
      <use xlink:href="#DejaVuSans-37"/>
      <use xlink:href="#DejaVuSans-4c" transform="translate(58 0)"/>
      <use xlink:href="#DejaVuSans-50" transform="translate(85.78125 0)"/>
      <use xlink:href="#DejaVuSans-48" transform="translate(183.1875 0)"/>
      <use xlink:href="#DejaVuSans-3" transform="translate(244.71875 0)"/>
      <use xlink:href="#DejaVuSans-b" transform="translate(276.5 0)"/>
      <use xlink:href="#DejaVuSans-56" transform="translate(315.515625 0)"/>
      <use xlink:href="#DejaVuSans-c" transform="translate(367.609375 0)"/>
     </g>
    </g>
   </g>
   <g id="line2d_25">
    <path d="M 74.385874 132.768038 
L 75.124412 138.479215 
L 75.934658 139.205107 
L 76.745247 142.093136 
L 77.555171 141.911283 
L 78.365483 141.299317 
L 79.17606 144.398138 
L 79.985759 142.931125 
L 80.796493 144.14531 
L 81.60733 132.201459 
L 82.417345 140.123513 
L 83.227359 137.240661 
L 84.039112 141.682214 
L 84.847965 141.581083 
L 85.657958 140.873164 
L 86.468671 133.6307 
L 87.278777 141.299317 
L 88.10581 130.830399 
L 88.899314 148.469892 
L 90.519602 138.711025 
L 91.331493 144.625074 
L 92.141706 148.72272 
L 92.958401 150.028593 
L 93.764301 151.691472 
L 94.573842 137.665596 
L 95.385229 131.284881 
L 96.198608 142.028254 
L 97.020252 145.666239 
L 97.815496 120.231412 
L 98.627402 145.940086 
L 99.437709 119.415355 
L 100.24858 128.992063 
L 101.058399 129.44624 
L 101.869034 139.323905 
L 102.678306 110.422589 
L 103.489692 148.002312 
L 104.299746 117.384809 
L 105.110662 142.338045 
L 105.920017 147.832643 
L 106.730528 145.821287 
L 107.54148 149.961274 
L 108.351403 149.885121 
L 109.161227 143.1474 
L 109.97086 147.270633 
L 110.781165 145.610191 
L 111.592175 148.106489 
L 112.403056 148.212799 
L 113.213136 150.051439 
L 114.022204 149.829986 
L 114.834125 148.507054 
L 115.643509 146.299224 
L 116.454914 148.901832 
L 117.263211 147.921285 
L 118.884368 147.774462 
L 119.695178 134.370908 
L 120.50454 130.671696 
L 121.316183 140.508238 
L 122.12543 72.236687 
L 122.935278 114.580243 
L 123.747613 63.820552 
L 124.556356 62.856758 
L 125.36636 67.892915 
L 126.176427 120.87719 
L 126.98744 138.541052 
L 127.797428 147.860362 
L 128.607957 143.184563 
L 129.419091 152.71893 
L 130.233877 146.081731 
L 131.039206 141.354147 
L 131.849034 125.759821 
L 132.659735 149.132119 
L 133.469591 154.186552 
L 134.279852 74.665971 
L 135.090275 107.588171 
L 135.900717 164.341719 
L 136.440127 172.377089 
L 136.980166 151.884292 
L 137.790782 169.694977 
L 138.331903 173.841056 
L 138.870778 147.772329 
L 139.681221 171.119649 
L 140.221181 168.125005 
L 140.76288 172.460552 
L 141.302007 172.412728 
L 141.841943 170.393148 
L 142.382445 171.155898 
L 142.92248 177.205804 
L 143.462721 169.18597 
L 144.004122 169.253898 
L 144.543087 173.456635 
L 145.082881 170.25059 
L 145.624439 165.918393 
L 146.163888 172.67896 
L 146.703707 172.314034 
L 147.24566 173.288794 
L 147.78401 168.375396 
L 148.324527 171.565297 
L 148.877422 151.261969 
L 149.675425 169.079051 
L 150.215515 169.558815 
L 150.755121 174.181917 
L 151.296213 164.504991 
L 152.375872 175.158504 
L 152.917988 174.575172 
L 153.456421 176.593533 
L 153.996248 163.977098 
L 154.807901 169.463776 
L 155.347894 177.300843 
L 155.887106 176.233786 
L 156.427376 170.422391 
L 157.239031 178.798317 
L 157.77988 177.343793 
L 158.318102 180.908672 
L 158.858441 177.481174 
L 159.399667 175.041228 
L 159.938798 175.400671 
L 160.478734 179.239396 
L 161.019866 180.814242 
L 161.559588 174.888313 
L 162.09932 178.013636 
L 162.640218 169.310861 
L 163.452387 173.64123 
L 163.989842 170.539972 
L 164.530594 175.347973 
L 165.071837 177.180826 
L 165.610635 174.243144 
L 166.692315 175.985222 
L 167.230988 177.353541 
L 167.771713 174.261421 
L 168.312004 104.045833 
L 169.122748 79.709133 
L 169.932969 74.797563 
L 170.74456 33.528984 
L 171.823733 125.361388 
L 172.633617 100.899188 
L 173.444053 146.931295 
L 174.253856 151.807834 
L 175.064247 154.927369 
L 175.875387 160.239809 
L 176.684686 144.903795 
L 177.495045 144.865109 
L 178.305361 150.55405 
L 179.115981 160.927319 
L 179.926476 65.45297 
L 180.736472 58.818208 
L 181.546883 67.969982 
L 182.357322 67.751574 
L 183.167274 73.69243 
L 183.977895 150.231465 
L 184.787478 150.719149 
L 185.598241 159.219053 
L 186.408541 172.960117 
L 187.218871 167.208426 
L 187.759546 173.712814 
L 188.29874 163.821441 
L 189.110629 176.276736 
L 189.650783 174.46673 
L 190.192556 170.63166 
L 190.731709 176.90241 
L 191.272141 177.575908 
L 192.891821 174.500846 
L 193.433525 175.560897 
L 193.972876 174.201717 
L 194.512453 174.527957 
L 195.053254 172.861727 
L 195.592867 170.707508 
L 196.132945 165.030143 
L 196.674521 175.334266 
L 197.213354 168.633098 
L 197.753743 170.10864 
L 198.294642 175.646798 
L 198.834721 176.972471 
L 199.374258 167.342151 
L 199.914893 175.07169 
L 200.454562 165.360343 
L 200.995104 175.825301 
L 201.53647 175.575519 
L 202.075479 174.99645 
L 202.617303 176.09336 
L 203.695701 172.530613 
L 204.236103 175.113422 
L 204.778333 176.24201 
L 205.316491 175.424431 
L 206.127141 177.718162 
L 206.667476 174.13257 
L 207.208018 178.094054 
L 207.74786 177.654498 
L 208.28782 178.543966 
L 208.829282 178.159241 
L 209.368342 176.486005 
L 209.90847 170.43549 
L 210.44966 177.24449 
L 210.988858 177.72334 
L 211.529186 177.152192 
L 212.070309 170.529006 
L 212.610164 178.783391 
L 213.149924 177.176256 
L 213.691173 173.16177 
L 214.230518 173.184616 
L 214.770411 99.845229 
L 215.580753 87.698202 
L 216.391294 89.984622 
L 217.20143 39.095775 
L 218.282093 139.564854 
L 219.092623 132.725088 
L 219.902614 153.56362 
L 220.71358 153.370191 
L 221.523382 161.597466 
L 222.063523 157.465704 
L 222.873817 140.708369 
L 223.684122 144.846528 
L 224.494413 145.916631 
L 225.306773 153.189556 
L 226.117316 86.042329 
L 226.927028 103.881647 
L 227.738128 56.412379 
L 228.818174 66.338782 
L 229.898296 69.731555 
L 230.978737 142.219551 
L 231.789053 121.503473 
L 232.598925 159.179149 
L 233.409582 171.281398 
L 233.949474 172.025566 
L 234.490482 170.514079 
L 235.029871 172.904373 
L 235.57001 173.922083 
L 236.110291 160.583716 
L 236.921008 172.423999 
L 237.461654 175.544448 
L 238.000932 171.080963 
L 238.54128 172.584834 
L 239.081453 176.757719 
L 239.621458 169.72026 
L 240.161929 172.06212 
L 240.701779 178.787656 
L 241.241923 171.603069 
L 241.782238 172.399935 
L 242.32258 165.671352 
L 243.13326 169.642583 
L 243.674155 164.395026 
L 244.484541 169.104943 
L 245.023542 173.915381 
L 245.563525 174.227304 
L 246.103849 175.060419 
L 246.645161 168.878616 
L 247.45449 175.101542 
L 247.994698 176.075388 
L 248.535626 168.319043 
L 249.345056 173.600717 
L 249.885072 174.963248 
L 250.425554 176.716901 
L 250.965405 160.310174 
L 252.317134 178.849797 
L 252.856183 170.571042 
L 253.396986 179.297273 
L 253.936407 176.566423 
L 254.476712 179.890657 
L 255.016915 176.073255 
L 255.556987 167.552333 
L 256.367776 176.626736 
L 256.907605 177.992618 
L 257.447815 168.238016 
L 258.258166 169.389451 
L 259.06883 175.379348 
L 259.608567 174.109115 
L 260.148862 176.239269 
L 260.689154 89.67209 
L 261.499104 93.898282 
L 262.30965 70.070589 
L 263.120255 42.94699 
L 264.20103 145.358886 
L 265.011188 84.009041 
L 265.821677 148.130249 
L 266.631521 151.873326 
L 267.443171 151.530637 
L 268.25298 145.084734 
L 269.062693 126.64929 
L 269.873099 129.541584 
L 270.684002 151.192517 
L 271.493239 154.732113 
L 272.303628 65.109671 
L 273.113902 116.237639 
L 273.924225 74.503308 
L 274.734214 59.865465 
L 275.814815 62.950884 
L 276.895968 149.911013 
L 277.705187 153.18651 
L 278.515659 146.581904 
L 279.325947 173.756069 
L 279.865819 173.049673 
L 280.406229 163.301468 
L 281.757093 176.543272 
L 282.296736 171.283226 
L 282.8369 157.97989 
L 283.647389 175.651062 
L 284.187367 170.695019 
L 284.727673 172.05024 
L 285.267801 148.109535 
L 286.078566 172.751457 
L 286.619573 177.937178 
L 287.158637 168.241976 
L 287.698898 173.446278 
L 288.238979 172.581484 
L 288.779661 172.504112 
L 289.319446 172.96164 
L 289.859342 171.693539 
L 290.399795 171.013339 
L 290.939899 169.10738 
L 291.480605 172.586053 
L 292.020277 170.415994 
L 292.560688 173.50781 
L 293.100711 168.584055 
L 293.911555 165.770351 
L 294.721126 174.460942 
L 295.261246 166.674136 
L 296.072105 177.077562 
L 296.612066 174.37626 
L 297.152088 175.403413 
L 297.692739 171.466907 
L 299.042827 177.899102 
L 299.584089 175.642533 
L 300.123655 171.973477 
L 300.933791 177.732174 
L 301.473736 176.233481 
L 302.014027 171.432486 
L 302.554375 175.735135 
L 303.094321 177.731565 
L 303.634545 175.279131 
L 304.174541 174.353414 
L 304.715188 170.792495 
L 305.255539 170.324611 
L 306.065251 175.067121 
L 306.605273 171.984443 
L 307.145628 172.327132 
L 307.685832 95.752152 
L 308.496017 100.561982 
L 309.306479 77.833939 
L 310.928484 158.802343 
L 311.737385 152.209618 
L 313.357994 157.037419 
L 314.168351 163.671877 
L 314.980229 158.866616 
L 315.788855 140.670597 
L 316.599173 139.168553 
L 317.409708 159.703996 
L 318.221105 155.905784 
L 319.029838 80.394511 
L 319.840721 173.222083 
L 320.380315 153.904176 
L 321.190743 76.048302 
L 322.001452 46.450946 
L 323.081432 77.078805 
L 323.891768 149.1903 
L 324.702277 162.189024 
L 325.512528 171.123913 
L 326.322657 175.027826 
L 326.862562 173.157506 
L 327.402646 173.262597 
L 327.942916 174.398192 
L 328.483279 172.29332 
L 329.563479 179.586045 
L 330.104129 168.928267 
L 330.644336 175.873429 
L 331.184066 169.343454 
L 332.264598 175.384222 
L 332.804661 172.212598 
L 333.34477 172.394452 
L 333.885408 169.739146 
L 334.695679 165.157166 
L 335.506212 176.095796 
L 336.04595 164.748072 
L 336.856519 171.483356 
L 337.666731 169.027876 
L 338.206654 173.542536 
L 338.747024 165.562605 
L 339.55773 163.075141 
L 341.717687 175.580088 
L 342.258305 176.62308 
L 342.798328 171.426089 
L 343.338935 177.802844 
L 343.878744 175.587094 
L 344.418818 176.993794 
L 344.9593 175.795753 
L 345.499713 170.106508 
L 346.310002 175.962072 
L 346.849792 176.872253 
L 347.390031 168.686101 
L 347.932115 168.602332 
L 348.740799 170.242365 
L 350.090908 178.946664 
L 350.632566 175.964204 
L 351.171627 172.203155 
L 351.71138 176.26181 
L 352.251422 170.916168 
L 352.793145 177.498536 
L 353.332134 96.273344 
L 354.142545 62.961545 
L 355.223005 57.694493 
L 356.303643 55.122955 
L 357.383567 133.772345 
L 358.193564 136.770035 
L 359.004443 154.457048 
L 359.814486 155.548474 
L 360.624882 148.878986 
L 361.435108 153.368059 
L 362.245398 154.069276 
L 363.055926 141.133608 
L 363.865962 152.32994 
L 364.676554 159.995814 
L 365.48665 72.343301 
L 366.297311 149.254573 
L 367.107543 35.426719 
L 368.187665 68.928292 
L 369.268257 147.044915 
L 370.080054 146.814019 
L 370.889399 156.624365 
L 371.699128 170.847935 
L 372.2399 168.503638 
L 372.779494 170.886316 
L 373.590987 175.015641 
L 374.130411 174.374127 
L 374.669828 177.589616 
L 375.209934 171.903112 
L 375.750649 176.951453 
L 376.292378 170.554593 
L 376.830761 170.249371 
L 377.641308 163.968569 
L 378.451564 170.575307 
L 378.991584 173.330221 
L 379.531712 170.639884 
L 380.072083 175.06377 
L 380.612213 170.308161 
L 381.152397 174.597104 
L 381.692712 171.982616 
L 382.232855 174.331177 
L 382.773067 168.523742 
L 383.313517 168.376919 
L 383.853208 171.041364 
L 384.394392 176.510983 
L 384.933907 169.144847 
L 385.744002 167.541672 
L 386.554351 164.389239 
L 387.364584 176.044012 
L 387.904767 177.170469 
L 388.445625 177.677344 
L 388.985162 171.460815 
L 389.795542 178.341094 
L 390.335714 178.349623 
L 390.87581 178.113549 
L 391.416014 179.12608 
L 391.956869 164.717306 
L 392.766434 177.702931 
L 393.306872 178.954584 
L 393.847067 176.283438 
L 394.387162 176.148494 
L 395.197248 176.864029 
L 395.737406 175.7592 
L 396.277862 176.080261 
L 396.817763 172.369169 
L 397.628528 160.152385 
L 398.43887 105.730644 
L 399.250605 62.974339 
L 400.329781 82.245031 
L 401.139591 115.533984 
L 401.949831 124.0677 
L 402.76032 151.859923 
L 403.570326 153.262054 
L 404.380656 153.942862 
L 405.191074 159.218139 
L 406.001235 156.46292 
L 406.812248 138.973297 
L 407.622162 141.305409 
L 408.432552 158.120011 
L 409.242681 158.417313 
L 410.0529 135.212857 
L 410.863055 174.829523 
L 411.403351 174.071952 
L 411.943219 153.336988 
L 412.754097 155.318492 
L 413.563945 158.428888 
L 414.374149 128.227791 
L 415.184435 102.962327 
L 415.994693 165.985407 
L 416.534907 176.573429 
L 417.074994 177.273732 
L 417.615177 176.017206 
L 418.155559 175.114335 
L 418.695617 166.40364 
L 419.505832 162.265481 
L 420.316338 168.891714 
L 421.126485 173.885225 
L 421.666793 158.403606 
L 422.477381 164.385279 
L 423.28808 162.771138 
L 424.097686 156.881762 
L 424.908346 176.048886 
L 425.448136 164.103208 
L 426.258547 176.553629 
L 426.798512 177.482697 
L 427.338601 176.12443 
L 427.87915 174.021996 
L 428.418944 178.429127 
L 428.959953 170.777569 
L 429.770626 173.957722 
L 430.579976 179.296054 
L 431.120126 179.322251 
L 431.661336 168.401897 
L 432.470974 169.239277 
L 433.281005 173.768253 
L 434.091107 170.405028 
L 434.631827 176.656892 
L 435.171413 174.077435 
L 435.711725 176.873777 
L 436.251751 166.9227 
L 437.063266 170.708422 
L 437.873085 165.473963 
L 438.683046 169.166474 
L 439.223063 176.45067 
L 439.762983 176.088486 
L 440.303217 167.714692 
L 441.113836 168.202376 
L 441.923839 155.796124 
L 442.734396 162.084237 
L 443.5463 153.535595 
L 444.355884 170.088536 
L 445.166758 175.172212 
L 445.705371 172.283268 
L 446.515995 173.84593 
L 447.055475 170.540885 
L 447.866649 175.783873 
L 448.406082 173.31499 
L 448.946401 173.479481 
L 449.48667 171.508639 
L 450.026635 174.288227 
L 450.567647 158.179411 
L 451.377707 174.401847 
L 452.187395 173.371039 
L 452.728057 167.609296 
L 453.538459 169.375438 
L 454.078095 168.603855 
L 454.888904 176.197232 
L 455.428776 173.608941 
L 455.968714 167.301637 
L 456.779428 172.537924 
L 457.319474 173.571778 
L 457.85948 168.414386 
L 458.669832 171.906767 
L 459.209899 157.410569 
L 460.021407 142.279864 
L 460.832963 176.144534 
L 461.373007 175.681524 
L 461.910688 172.358812 
L 462.451409 176.958154 
L 462.991353 177.459851 
L 463.531468 175.983699 
L 464.073097 168.929486 
L 464.882735 173.968688 
L 466.233361 172.531527 
L 467.042852 174.157548 
L 467.584683 160.905692 
L 468.394042 169.612427 
L 469.205553 163.768134 
L 470.015528 162.388545 
L 470.825578 170.19515 
L 471.635186 167.57061 
L 472.445049 174.415859 
L 473.25647 174.509375 
L 473.25647 174.509375 
" clip-path="url(#p09224b7db9)" style="fill: none; stroke: #1f77b4; stroke-width: 1.5; stroke-linecap: square"/>
   </g>
   <g id="patch_3">
    <path d="M 54.442344 188.277656 
L 54.442344 26.16 
" style="fill: none; stroke: #000000; stroke-width: 0.8; stroke-linejoin: miter; stroke-linecap: square"/>
   </g>
   <g id="patch_4">
    <path d="M 493.2 188.277656 
L 493.2 26.16 
" style="fill: none; stroke: #000000; stroke-width: 0.8; stroke-linejoin: miter; stroke-linecap: square"/>
   </g>
   <g id="patch_5">
    <path d="M 54.442344 188.277656 
L 493.2 188.277656 
" style="fill: none; stroke: #000000; stroke-width: 0.8; stroke-linejoin: miter; stroke-linecap: square"/>
   </g>
   <g id="patch_6">
    <path d="M 54.442344 26.16 
L 493.2 26.16 
" style="fill: none; stroke: #000000; stroke-width: 0.8; stroke-linejoin: miter; stroke-linecap: square"/>
   </g>
   <g id="text_15">
    <!-- Computational Time -->
    <g transform="translate(213.048672 20.16) scale(0.12 -0.12)">
     <defs>
      <path id="DejaVuSans-26" d="M 4122 4306 
L 4122 3641 
Q 3803 3938 3442 4084 
Q 3081 4231 2675 4231 
Q 1875 4231 1450 3742 
Q 1025 3253 1025 2328 
Q 1025 1406 1450 917 
Q 1875 428 2675 428 
Q 3081 428 3442 575 
Q 3803 722 4122 1019 
L 4122 359 
Q 3791 134 3420 21 
Q 3050 -91 2638 -91 
Q 1578 -91 968 557 
Q 359 1206 359 2328 
Q 359 3453 968 4101 
Q 1578 4750 2638 4750 
Q 3056 4750 3426 4639 
Q 3797 4528 4122 4306 
z
" transform="scale(0.015625)"/>
      <path id="DejaVuSans-52" d="M 1959 3097 
Q 1497 3097 1228 2736 
Q 959 2375 959 1747 
Q 959 1119 1226 758 
Q 1494 397 1959 397 
Q 2419 397 2687 759 
Q 2956 1122 2956 1747 
Q 2956 2369 2687 2733 
Q 2419 3097 1959 3097 
z
M 1959 3584 
Q 2709 3584 3137 3096 
Q 3566 2609 3566 1747 
Q 3566 888 3137 398 
Q 2709 -91 1959 -91 
Q 1206 -91 779 398 
Q 353 888 353 1747 
Q 353 2609 779 3096 
Q 1206 3584 1959 3584 
z
" transform="scale(0.015625)"/>
      <path id="DejaVuSans-53" d="M 1159 525 
L 1159 -1331 
L 581 -1331 
L 581 3500 
L 1159 3500 
L 1159 2969 
Q 1341 3281 1617 3432 
Q 1894 3584 2278 3584 
Q 2916 3584 3314 3078 
Q 3713 2572 3713 1747 
Q 3713 922 3314 415 
Q 2916 -91 2278 -91 
Q 1894 -91 1617 61 
Q 1341 213 1159 525 
z
M 3116 1747 
Q 3116 2381 2855 2742 
Q 2594 3103 2138 3103 
Q 1681 3103 1420 2742 
Q 1159 2381 1159 1747 
Q 1159 1113 1420 752 
Q 1681 391 2138 391 
Q 2594 391 2855 752 
Q 3116 1113 3116 1747 
z
" transform="scale(0.015625)"/>
      <path id="DejaVuSans-58" d="M 544 1381 
L 544 3500 
L 1119 3500 
L 1119 1403 
Q 1119 906 1312 657 
Q 1506 409 1894 409 
Q 2359 409 2629 706 
Q 2900 1003 2900 1516 
L 2900 3500 
L 3475 3500 
L 3475 0 
L 2900 0 
L 2900 538 
Q 2691 219 2414 64 
Q 2138 -91 1772 -91 
Q 1169 -91 856 284 
Q 544 659 544 1381 
z
M 1991 3584 
L 1991 3584 
z
" transform="scale(0.015625)"/>
      <path id="DejaVuSans-44" d="M 2194 1759 
Q 1497 1759 1228 1600 
Q 959 1441 959 1056 
Q 959 750 1161 570 
Q 1363 391 1709 391 
Q 2188 391 2477 730 
Q 2766 1069 2766 1631 
L 2766 1759 
L 2194 1759 
z
M 3341 1997 
L 3341 0 
L 2766 0 
L 2766 531 
Q 2569 213 2275 61 
Q 1981 -91 1556 -91 
Q 1019 -91 701 211 
Q 384 513 384 1019 
Q 384 1609 779 1909 
Q 1175 2209 1959 2209 
L 2766 2209 
L 2766 2266 
Q 2766 2663 2505 2880 
Q 2244 3097 1772 3097 
Q 1472 3097 1187 3025 
Q 903 2953 641 2809 
L 641 3341 
Q 956 3463 1253 3523 
Q 1550 3584 1831 3584 
Q 2591 3584 2966 3190 
Q 3341 2797 3341 1997 
z
" transform="scale(0.015625)"/>
      <path id="DejaVuSans-51" d="M 3513 2113 
L 3513 0 
L 2938 0 
L 2938 2094 
Q 2938 2591 2744 2837 
Q 2550 3084 2163 3084 
Q 1697 3084 1428 2787 
Q 1159 2491 1159 1978 
L 1159 0 
L 581 0 
L 581 3500 
L 1159 3500 
L 1159 2956 
Q 1366 3272 1645 3428 
Q 1925 3584 2291 3584 
Q 2894 3584 3203 3211 
Q 3513 2838 3513 2113 
z
" transform="scale(0.015625)"/>
      <path id="DejaVuSans-4f" d="M 603 4863 
L 1178 4863 
L 1178 0 
L 603 0 
L 603 4863 
z
" transform="scale(0.015625)"/>
     </defs>
     <use xlink:href="#DejaVuSans-26"/>
     <use xlink:href="#DejaVuSans-52" transform="translate(69.828125 0)"/>
     <use xlink:href="#DejaVuSans-50" transform="translate(131.015625 0)"/>
     <use xlink:href="#DejaVuSans-53" transform="translate(228.421875 0)"/>
     <use xlink:href="#DejaVuSans-58" transform="translate(291.90625 0)"/>
     <use xlink:href="#DejaVuSans-57" transform="translate(355.28125 0)"/>
     <use xlink:href="#DejaVuSans-44" transform="translate(394.484375 0)"/>
     <use xlink:href="#DejaVuSans-57" transform="translate(455.765625 0)"/>
     <use xlink:href="#DejaVuSans-4c" transform="translate(494.96875 0)"/>
     <use xlink:href="#DejaVuSans-52" transform="translate(522.75 0)"/>
     <use xlink:href="#DejaVuSans-51" transform="translate(583.9375 0)"/>
     <use xlink:href="#DejaVuSans-44" transform="translate(647.3125 0)"/>
     <use xlink:href="#DejaVuSans-4f" transform="translate(708.59375 0)"/>
     <use xlink:href="#DejaVuSans-3" transform="translate(736.375 0)"/>
     <use xlink:href="#DejaVuSans-37" transform="translate(768.15625 0)"/>
     <use xlink:href="#DejaVuSans-4c" transform="translate(826.15625 0)"/>
     <use xlink:href="#DejaVuSans-50" transform="translate(853.9375 0)"/>
     <use xlink:href="#DejaVuSans-48" transform="translate(951.34375 0)"/>
    </g>
   </g>
   <g id="legend_1">
    <g id="patch_7">
     <path d="M 431.6 49.160781 
L 486.2 49.160781 
Q 488.2 49.160781 488.2 47.160781 
L 488.2 33.16 
Q 488.2 31.16 486.2 31.16 
L 431.6 31.16 
Q 429.6 31.16 429.6 33.16 
L 429.6 47.160781 
Q 429.6 49.160781 431.6 49.160781 
z
" style="fill: #ffffff; opacity: 0.8; stroke: #cccccc; stroke-linejoin: miter"/>
    </g>
    <g id="line2d_26">
     <path d="M 433.6 39.258438 
L 443.6 39.258438 
L 453.6 39.258438 
" style="fill: none; stroke: #1f77b4; stroke-width: 1.5; stroke-linecap: square"/>
    </g>
    <g id="text_16">
     <!-- $t_{solve}$ -->
     <g transform="translate(461.6 42.758438) scale(0.1 -0.1)">
      <defs>
       <path id="DejaVuSans-Oblique-57" d="M 2706 3500 
L 2619 3053 
L 1472 3053 
L 1100 1153 
Q 1081 1047 1072 975 
Q 1063 903 1063 863 
Q 1063 663 1183 572 
Q 1303 481 1569 481 
L 2150 481 
L 2053 0 
L 1503 0 
Q 991 0 739 200 
Q 488 400 488 806 
Q 488 878 497 964 
Q 506 1050 525 1153 
L 897 3053 
L 409 3053 
L 500 3500 
L 978 3500 
L 1172 4494 
L 1747 4494 
L 1556 3500 
L 2706 3500 
z
" transform="scale(0.015625)"/>
       <path id="DejaVuSans-Oblique-56" d="M 3200 3397 
L 3091 2853 
Q 2863 2978 2609 3040 
Q 2356 3103 2088 3103 
Q 1634 3103 1373 2948 
Q 1113 2794 1113 2528 
Q 1113 2219 1719 2053 
Q 1766 2041 1788 2034 
L 1972 1978 
Q 2547 1819 2739 1644 
Q 2931 1469 2931 1166 
Q 2931 609 2489 259 
Q 2047 -91 1331 -91 
Q 1053 -91 747 -37 
Q 441 16 72 128 
L 184 722 
Q 500 559 806 475 
Q 1113 391 1394 391 
Q 1816 391 2080 572 
Q 2344 753 2344 1031 
Q 2344 1331 1650 1516 
L 1591 1531 
L 1394 1581 
Q 956 1697 753 1886 
Q 550 2075 550 2369 
Q 550 2928 970 3256 
Q 1391 3584 2113 3584 
Q 2397 3584 2667 3537 
Q 2938 3491 3200 3397 
z
" transform="scale(0.015625)"/>
       <path id="DejaVuSans-Oblique-52" d="M 1625 -91 
Q 1009 -91 651 289 
Q 294 669 294 1325 
Q 294 1706 417 2101 
Q 541 2497 738 2766 
Q 1047 3184 1428 3384 
Q 1809 3584 2291 3584 
Q 2888 3584 3255 3212 
Q 3622 2841 3622 2241 
Q 3622 1825 3500 1412 
Q 3378 1000 3181 728 
Q 2875 309 2494 109 
Q 2113 -91 1625 -91 
z
M 891 1344 
Q 891 869 1089 633 
Q 1288 397 1691 397 
Q 2269 397 2648 901 
Q 3028 1406 3028 2181 
Q 3028 2634 2825 2865 
Q 2622 3097 2228 3097 
Q 1903 3097 1650 2945 
Q 1397 2794 1197 2484 
Q 1050 2253 970 1956 
Q 891 1659 891 1344 
z
" transform="scale(0.015625)"/>
       <path id="DejaVuSans-Oblique-4f" d="M 1172 4863 
L 1747 4863 
L 800 0 
L 225 0 
L 1172 4863 
z
" transform="scale(0.015625)"/>
       <path id="DejaVuSans-Oblique-59" d="M 459 3500 
L 1069 3500 
L 1581 525 
L 3256 3500 
L 3866 3500 
L 1875 0 
L 1100 0 
L 459 3500 
z
" transform="scale(0.015625)"/>
       <path id="DejaVuSans-Oblique-48" d="M 3078 2063 
Q 3088 2113 3092 2166 
Q 3097 2219 3097 2272 
Q 3097 2653 2873 2875 
Q 2650 3097 2266 3097 
Q 1838 3097 1509 2826 
Q 1181 2556 1013 2059 
L 3078 2063 
z
M 3578 1613 
L 903 1613 
Q 884 1494 878 1425 
Q 872 1356 872 1306 
Q 872 872 1139 634 
Q 1406 397 1894 397 
Q 2269 397 2603 481 
Q 2938 566 3225 728 
L 3116 159 
Q 2806 34 2476 -28 
Q 2147 -91 1806 -91 
Q 1078 -91 686 257 
Q 294 606 294 1247 
Q 294 1794 489 2264 
Q 684 2734 1063 3103 
Q 1306 3334 1642 3459 
Q 1978 3584 2356 3584 
Q 2950 3584 3301 3228 
Q 3653 2872 3653 2272 
Q 3653 2128 3634 1964 
Q 3616 1800 3578 1613 
z
" transform="scale(0.015625)"/>
      </defs>
      <use xlink:href="#DejaVuSans-Oblique-57" transform="translate(0 0.78125)"/>
      <use xlink:href="#DejaVuSans-Oblique-56" transform="translate(39.208984 -14.218701) scale(0.7)"/>
      <use xlink:href="#DejaVuSans-Oblique-52" transform="translate(75.678711 -14.218701) scale(0.7)"/>
      <use xlink:href="#DejaVuSans-Oblique-4f" transform="translate(118.505859 -14.218701) scale(0.7)"/>
      <use xlink:href="#DejaVuSans-Oblique-59" transform="translate(137.954102 -14.218701) scale(0.7)"/>
      <use xlink:href="#DejaVuSans-Oblique-48" transform="translate(179.379883 -14.218701) scale(0.7)"/>
     </g>
    </g>
   </g>
  </g>
 </g>
 <defs>
  <clipPath id="p09224b7db9">
   <rect x="54.442344" y="26.16" width="438.757656" height="162.117656"/>
  </clipPath>
 </defs>
</svg>
