<?xml version="1.0" encoding="utf-8" standalone="no"?>
<!DOCTYPE svg PUBLIC "-//W3C//DTD SVG 1.1//EN"
  "http://www.w3.org/Graphics/SVG/1.1/DTD/svg11.dtd">
<svg xmlns:xlink="http://www.w3.org/1999/xlink" width="504pt" height="806.4pt" viewBox="0 0 504 806.4" xmlns="http://www.w3.org/2000/svg" version="1.1">
 <metadata>
  <rdf:RDF xmlns:dc="http://purl.org/dc/elements/1.1/" xmlns:cc="http://creativecommons.org/ns#" xmlns:rdf="http://www.w3.org/1999/02/22-rdf-syntax-ns#">
   <cc:Work>
    <dc:type rdf:resource="http://purl.org/dc/dcmitype/StillImage"/>
    <dc:date>2026-07-10T12:54:48.065960</dc:date>
    <dc:format>image/svg+xml</dc:format>
    <dc:creator>
     <cc:Agent>
      <dc:title>Matplotlib v3.11.0, https://matplotlib.org/</dc:title>
     </cc:Agent>
    </dc:creator>
   </cc:Work>
  </rdf:RDF>
 </metadata>
 <defs>
  <style type="text/css">*{stroke-linejoin: round; stroke-linecap: butt}</style>
 </defs>
 <g id="figure_1">
  <g id="patch_1">
   <path d="M 0 806.4 
L 504 806.4 
L 504 0 
L 0 0 
z
" style="fill: #ffffff"/>
  </g>
  <g id="axes_1">
   <g id="patch_2">
    <path d="M 42.28 184.677656 
L 493.2 184.677656 
L 493.2 48.96 
L 42.28 48.96 
z
" style="fill: #ffffff"/>
   </g>
   <g id="matplotlib.axis_1">
    <g id="xtick_1">
     <g id="line2d_1">
      <path d="M 62.77636 184.677656 
L 62.77636 48.96 
" clip-path="url(#p7f9f60523e)" style="fill: none; stroke: #b0b0b0; stroke-width: 0.8; stroke-linecap: square"/>
     </g>
     <g id="line2d_2">
      <defs>
       <path id="m1a15480ef8" d="M 0 0 
L 0 3.5 
" style="stroke: #000000; stroke-width: 0.8"/>
      </defs>
      <g>
       <use xlink:href="#m1a15480ef8" x="62.77636" y="184.677656" style="stroke: #000000; stroke-width: 0.8"/>
      </g>
     </g>
     <g id="text_1">
      <!-- 0 -->
      <g transform="translate(59.59511 199.275313) scale(0.1 -0.1)">
       <defs>
        <path id="DejaVuSans-13" d="M 2034 4250 
Q 1547 4250 1301 3770 
Q 1056 3291 1056 2328 
Q 1056 1369 1301 889 
Q 1547 409 2034 409 
Q 2525 409 2770 889 
Q 3016 1369 3016 2328 
Q 3016 3291 2770 3770 
Q 2525 4250 2034 4250 
z
M 2034 4750 
Q 2819 4750 3233 4129 
Q 3647 3509 3647 2328 
Q 3647 1150 3233 529 
Q 2819 -91 2034 -91 
Q 1250 -91 836 529 
Q 422 1150 422 2328 
Q 422 3509 836 4129 
Q 1250 4750 2034 4750 
z
" transform="scale(0.015625)"/>
       </defs>
       <use xlink:href="#DejaVuSans-13"/>
      </g>
     </g>
    </g>
    <g id="xtick_2">
     <g id="line2d_3">
      <path d="M 146.050781 184.677656 
L 146.050781 48.96 
" clip-path="url(#p7f9f60523e)" style="fill: none; stroke: #b0b0b0; stroke-width: 0.8; stroke-linecap: square"/>
     </g>
     <g id="line2d_4">
      <g>
       <use xlink:href="#m1a15480ef8" x="146.050781" y="184.677656" style="stroke: #000000; stroke-width: 0.8"/>
      </g>
     </g>
     <g id="text_2">
      <!-- 10 -->
      <g transform="translate(139.688281 199.275313) scale(0.1 -0.1)">
       <defs>
        <path id="DejaVuSans-14" d="M 794 531 
L 1825 531 
L 1825 4091 
L 703 3866 
L 703 4441 
L 1819 4666 
L 2450 4666 
L 2450 531 
L 3481 531 
L 3481 0 
L 794 0 
L 794 531 
z
" transform="scale(0.015625)"/>
       </defs>
       <use xlink:href="#DejaVuSans-14"/>
       <use xlink:href="#DejaVuSans-13" transform="translate(63.625 0)"/>
      </g>
     </g>
    </g>
    <g id="xtick_3">
     <g id="line2d_5">
      <path d="M 229.325202 184.677656 
L 229.325202 48.96 
" clip-path="url(#p7f9f60523e)" style="fill: none; stroke: #b0b0b0; stroke-width: 0.8; stroke-linecap: square"/>
     </g>
     <g id="line2d_6">
      <g>
       <use xlink:href="#m1a15480ef8" x="229.325202" y="184.677656" style="stroke: #000000; stroke-width: 0.8"/>
      </g>
     </g>
     <g id="text_3">
      <!-- 20 -->
      <g transform="translate(222.962702 199.275313) scale(0.1 -0.1)">
       <defs>
        <path id="DejaVuSans-15" d="M 1228 531 
L 3431 531 
L 3431 0 
L 469 0 
L 469 531 
Q 828 903 1448 1529 
Q 2069 2156 2228 2338 
Q 2531 2678 2651 2914 
Q 2772 3150 2772 3378 
Q 2772 3750 2511 3984 
Q 2250 4219 1831 4219 
Q 1534 4219 1204 4116 
Q 875 4013 500 3803 
L 500 4441 
Q 881 4594 1212 4672 
Q 1544 4750 1819 4750 
Q 2544 4750 2975 4387 
Q 3406 4025 3406 3419 
Q 3406 3131 3298 2873 
Q 3191 2616 2906 2266 
Q 2828 2175 2409 1742 
Q 1991 1309 1228 531 
z
" transform="scale(0.015625)"/>
       </defs>
       <use xlink:href="#DejaVuSans-15"/>
       <use xlink:href="#DejaVuSans-13" transform="translate(63.625 0)"/>
      </g>
     </g>
    </g>
    <g id="xtick_4">
     <g id="line2d_7">
      <path d="M 312.599622 184.677656 
L 312.599622 48.96 
" clip-path="url(#p7f9f60523e)" style="fill: none; stroke: #b0b0b0; stroke-width: 0.8; stroke-linecap: square"/>
     </g>
     <g id="line2d_8">
      <g>
       <use xlink:href="#m1a15480ef8" x="312.599622" y="184.677656" style="stroke: #000000; stroke-width: 0.8"/>
      </g>
     </g>
     <g id="text_4">
      <!-- 30 -->
      <g transform="translate(306.237122 199.275313) scale(0.1 -0.1)">
       <defs>
        <path id="DejaVuSans-16" d="M 2597 2516 
Q 3050 2419 3304 2112 
Q 3559 1806 3559 1356 
Q 3559 666 3084 287 
Q 2609 -91 1734 -91 
Q 1441 -91 1130 -33 
Q 819 25 488 141 
L 488 750 
Q 750 597 1062 519 
Q 1375 441 1716 441 
Q 2309 441 2620 675 
Q 2931 909 2931 1356 
Q 2931 1769 2642 2001 
Q 2353 2234 1838 2234 
L 1294 2234 
L 1294 2753 
L 1863 2753 
Q 2328 2753 2575 2939 
Q 2822 3125 2822 3475 
Q 2822 3834 2567 4026 
Q 2313 4219 1838 4219 
Q 1578 4219 1281 4162 
Q 984 4106 628 3988 
L 628 4550 
Q 988 4650 1302 4700 
Q 1616 4750 1894 4750 
Q 2613 4750 3031 4423 
Q 3450 4097 3450 3541 
Q 3450 3153 3228 2886 
Q 3006 2619 2597 2516 
z
" transform="scale(0.015625)"/>
       </defs>
       <use xlink:href="#DejaVuSans-16"/>
       <use xlink:href="#DejaVuSans-13" transform="translate(63.625 0)"/>
      </g>
     </g>
    </g>
    <g id="xtick_5">
     <g id="line2d_9">
      <path d="M 395.874043 184.677656 
L 395.874043 48.96 
" clip-path="url(#p7f9f60523e)" style="fill: none; stroke: #b0b0b0; stroke-width: 0.8; stroke-linecap: square"/>
     </g>
     <g id="line2d_10">
      <g>
       <use xlink:href="#m1a15480ef8" x="395.874043" y="184.677656" style="stroke: #000000; stroke-width: 0.8"/>
      </g>
     </g>
     <g id="text_5">
      <!-- 40 -->
      <g transform="translate(389.511543 199.275313) scale(0.1 -0.1)">
       <defs>
        <path id="DejaVuSans-17" d="M 2419 4116 
L 825 1625 
L 2419 1625 
L 2419 4116 
z
M 2253 4666 
L 3047 4666 
L 3047 1625 
L 3713 1625 
L 3713 1100 
L 3047 1100 
L 3047 0 
L 2419 0 
L 2419 1100 
L 313 1100 
L 313 1709 
L 2253 4666 
z
" transform="scale(0.015625)"/>
       </defs>
       <use xlink:href="#DejaVuSans-17"/>
       <use xlink:href="#DejaVuSans-13" transform="translate(63.625 0)"/>
      </g>
     </g>
    </g>
    <g id="xtick_6">
     <g id="line2d_11">
      <path d="M 479.148464 184.677656 
L 479.148464 48.96 
" clip-path="url(#p7f9f60523e)" style="fill: none; stroke: #b0b0b0; stroke-width: 0.8; stroke-linecap: square"/>
     </g>
     <g id="line2d_12">
      <g>
       <use xlink:href="#m1a15480ef8" x="479.148464" y="184.677656" style="stroke: #000000; stroke-width: 0.8"/>
      </g>
     </g>
     <g id="text_6">
      <!-- 50 -->
      <g transform="translate(472.785964 199.275313) scale(0.1 -0.1)">
       <defs>
        <path id="DejaVuSans-18" d="M 691 4666 
L 3169 4666 
L 3169 4134 
L 1269 4134 
L 1269 2991 
Q 1406 3038 1543 3061 
Q 1681 3084 1819 3084 
Q 2600 3084 3056 2656 
Q 3513 2228 3513 1497 
Q 3513 744 3044 326 
Q 2575 -91 1722 -91 
Q 1428 -91 1123 -41 
Q 819 9 494 109 
L 494 744 
Q 775 591 1075 516 
Q 1375 441 1709 441 
Q 2250 441 2565 725 
Q 2881 1009 2881 1497 
Q 2881 1984 2565 2268 
Q 2250 2553 1709 2553 
Q 1456 2553 1204 2497 
Q 953 2441 691 2322 
L 691 4666 
z
" transform="scale(0.015625)"/>
       </defs>
       <use xlink:href="#DejaVuSans-18"/>
       <use xlink:href="#DejaVuSans-13" transform="translate(63.625 0)"/>
      </g>
     </g>
    </g>
    <g id="text_7">
     <!-- t (s) -->
     <g transform="translate(257.684531 213.275313) scale(0.1 -0.1)">
      <defs>
       <path id="DejaVuSans-57" d="M 1172 4494 
L 1172 3500 
L 2356 3500 
L 2356 3053 
L 1172 3053 
L 1172 1153 
Q 1172 725 1289 603 
Q 1406 481 1766 481 
L 2356 481 
L 2356 0 
L 1766 0 
Q 1100 0 847 248 
Q 594 497 594 1153 
L 594 3053 
L 172 3053 
L 172 3500 
L 594 3500 
L 594 4494 
L 1172 4494 
z
" transform="scale(0.015625)"/>
       <path id="DejaVuSans-3" transform="scale(0.015625)"/>
       <path id="DejaVuSans-b" d="M 1984 4856 
Q 1566 4138 1362 3434 
Q 1159 2731 1159 2009 
Q 1159 1288 1364 580 
Q 1569 -128 1984 -844 
L 1484 -844 
Q 1016 -109 783 600 
Q 550 1309 550 2009 
Q 550 2706 781 3412 
Q 1013 4119 1484 4856 
L 1984 4856 
z
" transform="scale(0.015625)"/>
       <path id="DejaVuSans-56" d="M 2834 3397 
L 2834 2853 
Q 2591 2978 2328 3040 
Q 2066 3103 1784 3103 
Q 1356 3103 1142 2972 
Q 928 2841 928 2578 
Q 928 2378 1081 2264 
Q 1234 2150 1697 2047 
L 1894 2003 
Q 2506 1872 2764 1633 
Q 3022 1394 3022 966 
Q 3022 478 2636 193 
Q 2250 -91 1575 -91 
Q 1294 -91 989 -36 
Q 684 19 347 128 
L 347 722 
Q 666 556 975 473 
Q 1284 391 1588 391 
Q 1994 391 2212 530 
Q 2431 669 2431 922 
Q 2431 1156 2273 1281 
Q 2116 1406 1581 1522 
L 1381 1569 
Q 847 1681 609 1914 
Q 372 2147 372 2553 
Q 372 3047 722 3315 
Q 1072 3584 1716 3584 
Q 2034 3584 2315 3537 
Q 2597 3491 2834 3397 
z
" transform="scale(0.015625)"/>
       <path id="DejaVuSans-c" d="M 513 4856 
L 1013 4856 
Q 1481 4119 1714 3412 
Q 1947 2706 1947 2009 
Q 1947 1309 1714 600 
Q 1481 -109 1013 -844 
L 513 -844 
Q 928 -128 1133 580 
Q 1338 1288 1338 2009 
Q 1338 2731 1133 3434 
Q 928 4138 513 4856 
z
" transform="scale(0.015625)"/>
      </defs>
      <use xlink:href="#DejaVuSans-57"/>
      <use xlink:href="#DejaVuSans-3" transform="translate(39.203125 0)"/>
      <use xlink:href="#DejaVuSans-b" transform="translate(70.984375 0)"/>
      <use xlink:href="#DejaVuSans-56" transform="translate(110 0)"/>
      <use xlink:href="#DejaVuSans-c" transform="translate(162.09375 0)"/>
     </g>
    </g>
   </g>
   <g id="matplotlib.axis_2">
    <g id="ytick_1">
     <g id="line2d_13">
      <path d="M 42.28 178.508672 
L 493.2 178.508672 
" clip-path="url(#p7f9f60523e)" style="fill: none; stroke: #b0b0b0; stroke-width: 0.8; stroke-linecap: square"/>
     </g>
     <g id="line2d_14">
      <defs>
       <path id="m1c8e326397" d="M 0 0 
L -3.5 0 
" style="stroke: #000000; stroke-width: 0.8"/>
      </defs>
      <g>
       <use xlink:href="#m1c8e326397" x="42.28" y="178.508672" style="stroke: #000000; stroke-width: 0.8"/>
      </g>
     </g>
     <g id="text_8">
      <!-- 0.00 -->
      <g transform="translate(13.014375 182.3075) scale(0.1 -0.1)">
       <defs>
        <path id="DejaVuSans-11" d="M 684 794 
L 1344 794 
L 1344 0 
L 684 0 
L 684 794 
z
" transform="scale(0.015625)"/>
       </defs>
       <use xlink:href="#DejaVuSans-13"/>
       <use xlink:href="#DejaVuSans-11" transform="translate(63.625 0)"/>
       <use xlink:href="#DejaVuSans-13" transform="translate(95.40625 0)"/>
       <use xlink:href="#DejaVuSans-13" transform="translate(159.03125 0)"/>
      </g>
     </g>
    </g>
    <g id="ytick_2">
     <g id="line2d_15">
      <path d="M 42.28 151.519352 
L 493.2 151.519352 
" clip-path="url(#p7f9f60523e)" style="fill: none; stroke: #b0b0b0; stroke-width: 0.8; stroke-linecap: square"/>
     </g>
     <g id="line2d_16">
      <g>
       <use xlink:href="#m1c8e326397" x="42.28" y="151.519352" style="stroke: #000000; stroke-width: 0.8"/>
      </g>
     </g>
     <g id="text_9">
      <!-- 0.25 -->
      <g transform="translate(13.014375 155.31818) scale(0.1 -0.1)">
       <use xlink:href="#DejaVuSans-13"/>
       <use xlink:href="#DejaVuSans-11" transform="translate(63.625 0)"/>
       <use xlink:href="#DejaVuSans-15" transform="translate(95.40625 0)"/>
       <use xlink:href="#DejaVuSans-18" transform="translate(159.03125 0)"/>
      </g>
     </g>
    </g>
    <g id="ytick_3">
     <g id="line2d_17">
      <path d="M 42.28 124.530033 
L 493.2 124.530033 
" clip-path="url(#p7f9f60523e)" style="fill: none; stroke: #b0b0b0; stroke-width: 0.8; stroke-linecap: square"/>
     </g>
     <g id="line2d_18">
      <g>
       <use xlink:href="#m1c8e326397" x="42.28" y="124.530033" style="stroke: #000000; stroke-width: 0.8"/>
      </g>
     </g>
     <g id="text_10">
      <!-- 0.50 -->
      <g transform="translate(13.014375 128.328861) scale(0.1 -0.1)">
       <use xlink:href="#DejaVuSans-13"/>
       <use xlink:href="#DejaVuSans-11" transform="translate(63.625 0)"/>
       <use xlink:href="#DejaVuSans-18" transform="translate(95.40625 0)"/>
       <use xlink:href="#DejaVuSans-13" transform="translate(159.03125 0)"/>
      </g>
     </g>
    </g>
    <g id="ytick_4">
     <g id="line2d_19">
      <path d="M 42.28 97.540713 
L 493.2 97.540713 
" clip-path="url(#p7f9f60523e)" style="fill: none; stroke: #b0b0b0; stroke-width: 0.8; stroke-linecap: square"/>
     </g>
     <g id="line2d_20">
      <g>
       <use xlink:href="#m1c8e326397" x="42.28" y="97.540713" style="stroke: #000000; stroke-width: 0.8"/>
      </g>
     </g>
     <g id="text_11">
      <!-- 0.75 -->
      <g transform="translate(13.014375 101.339541) scale(0.1 -0.1)">
       <defs>
        <path id="DejaVuSans-1a" d="M 525 4666 
L 3525 4666 
L 3525 4397 
L 1831 0 
L 1172 0 
L 2766 4134 
L 525 4134 
L 525 4666 
z
" transform="scale(0.015625)"/>
       </defs>
       <use xlink:href="#DejaVuSans-13"/>
       <use xlink:href="#DejaVuSans-11" transform="translate(63.625 0)"/>
       <use xlink:href="#DejaVuSans-1a" transform="translate(95.40625 0)"/>
       <use xlink:href="#DejaVuSans-18" transform="translate(159.03125 0)"/>
      </g>
     </g>
    </g>
    <g id="ytick_5">
     <g id="line2d_21">
      <path d="M 42.28 70.551394 
L 493.2 70.551394 
" clip-path="url(#p7f9f60523e)" style="fill: none; stroke: #b0b0b0; stroke-width: 0.8; stroke-linecap: square"/>
     </g>
     <g id="line2d_22">
      <g>
       <use xlink:href="#m1c8e326397" x="42.28" y="70.551394" style="stroke: #000000; stroke-width: 0.8"/>
      </g>
     </g>
     <g id="text_12">
      <!-- 1.00 -->
      <g transform="translate(13.014375 74.350222) scale(0.1 -0.1)">
       <use xlink:href="#DejaVuSans-14"/>
       <use xlink:href="#DejaVuSans-11" transform="translate(63.625 0)"/>
       <use xlink:href="#DejaVuSans-13" transform="translate(95.40625 0)"/>
       <use xlink:href="#DejaVuSans-13" transform="translate(159.03125 0)"/>
      </g>
     </g>
    </g>
   </g>
   <g id="line2d_23">
    <path d="M 62.776364 178.508672 
L 435.507158 178.508672 
L 436.339426 171.213822 
L 438.83692 142.984087 
L 442.169902 107.972841 
L 444.388822 86.246431 
L 445.776351 74.374153 
L 447.164397 65.005973 
L 448.274938 59.72412 
L 448.829871 57.845378 
L 449.38588 56.465148 
L 450.218394 55.284242 
L 451.050527 55.128984 
L 451.606176 55.554399 
L 452.439043 56.917949 
L 452.993638 58.253084 
L 454.381759 62.854191 
L 455.769851 68.759546 
L 456.879843 74.416365 
L 458.267695 82.841879 
L 460.490764 98.628959 
L 463.265701 119.498775 
L 464.653603 128.29143 
L 465.485847 132.404732 
L 466.317777 135.666381 
L 466.874628 138.426633 
L 467.706422 143.646301 
L 469.372855 155.02336 
L 471.03741 163.282085 
L 472.703636 174.103799 
L 472.703636 174.103799 
" clip-path="url(#p7f9f60523e)" style="fill: none; stroke: #1f77b4; stroke-width: 1.5; stroke-linecap: square"/>
   </g>
   <g id="patch_3">
    <path d="M 42.28 184.677656 
L 42.28 48.96 
" style="fill: none; stroke: #000000; stroke-width: 0.8; stroke-linejoin: miter; stroke-linecap: square"/>
   </g>
   <g id="patch_4">
    <path d="M 493.2 184.677656 
L 493.2 48.96 
" style="fill: none; stroke: #000000; stroke-width: 0.8; stroke-linejoin: miter; stroke-linecap: square"/>
   </g>
   <g id="patch_5">
    <path d="M 42.28 184.677656 
L 493.2 184.677656 
" style="fill: none; stroke: #000000; stroke-width: 0.8; stroke-linejoin: miter; stroke-linecap: square"/>
   </g>
   <g id="patch_6">
    <path d="M 42.28 48.96 
L 493.2 48.96 
" style="fill: none; stroke: #000000; stroke-width: 0.8; stroke-linejoin: miter; stroke-linecap: square"/>
   </g>
   <g id="text_13">
    <!-- $X_e$ (m) -->
    <g transform="translate(248.42 42.96) scale(0.12 -0.12)">
     <defs>
      <path id="DejaVuSans-Oblique-3b" d="M 878 4666 
L 1516 4666 
L 2316 2981 
L 3763 4666 
L 4500 4666 
L 2578 2438 
L 3738 0 
L 3103 0 
L 2163 1966 
L 459 0 
L -275 0 
L 1906 2509 
L 878 4666 
z
" transform="scale(0.015625)"/>
      <path id="DejaVuSans-Oblique-48" d="M 3078 2063 
Q 3088 2113 3092 2166 
Q 3097 2219 3097 2272 
Q 3097 2653 2873 2875 
Q 2650 3097 2266 3097 
Q 1838 3097 1509 2826 
Q 1181 2556 1013 2059 
L 3078 2063 
z
M 3578 1613 
L 903 1613 
Q 884 1494 878 1425 
Q 872 1356 872 1306 
Q 872 872 1139 634 
Q 1406 397 1894 397 
Q 2269 397 2603 481 
Q 2938 566 3225 728 
L 3116 159 
Q 2806 34 2476 -28 
Q 2147 -91 1806 -91 
Q 1078 -91 686 257 
Q 294 606 294 1247 
Q 294 1794 489 2264 
Q 684 2734 1063 3103 
Q 1306 3334 1642 3459 
Q 1978 3584 2356 3584 
Q 2950 3584 3301 3228 
Q 3653 2872 3653 2272 
Q 3653 2128 3634 1964 
Q 3616 1800 3578 1613 
z
" transform="scale(0.015625)"/>
      <path id="DejaVuSans-50" d="M 3328 2828 
Q 3544 3216 3844 3400 
Q 4144 3584 4550 3584 
Q 5097 3584 5394 3201 
Q 5691 2819 5691 2113 
L 5691 0 
L 5113 0 
L 5113 2094 
Q 5113 2597 4934 2840 
Q 4756 3084 4391 3084 
Q 3944 3084 3684 2787 
Q 3425 2491 3425 1978 
L 3425 0 
L 2847 0 
L 2847 2094 
Q 2847 2600 2669 2842 
Q 2491 3084 2119 3084 
Q 1678 3084 1418 2786 
Q 1159 2488 1159 1978 
L 1159 0 
L 581 0 
L 581 3500 
L 1159 3500 
L 1159 2956 
Q 1356 3278 1631 3431 
Q 1906 3584 2284 3584 
Q 2666 3584 2933 3390 
Q 3200 3197 3328 2828 
z
" transform="scale(0.015625)"/>
     </defs>
     <use xlink:href="#DejaVuSans-Oblique-3b" transform="translate(0 0.125)"/>
     <use xlink:href="#DejaVuSans-Oblique-48" transform="translate(68.505859 -14.874951) scale(0.7)"/>
     <use xlink:href="#DejaVuSans-3" transform="translate(114.306641 0.125)"/>
     <use xlink:href="#DejaVuSans-b" transform="translate(146.09375 0.125)"/>
     <use xlink:href="#DejaVuSans-50" transform="translate(185.107422 0.125)"/>
     <use xlink:href="#DejaVuSans-c" transform="translate(282.519531 0.125)"/>
    </g>
   </g>
   <g id="legend_1">
    <g id="patch_7">
     <path d="M 49.28 71.960781 
L 92.78 71.960781 
Q 94.78 71.960781 94.78 69.960781 
L 94.78 55.96 
Q 94.78 53.96 92.78 53.96 
L 49.28 53.96 
Q 47.28 53.96 47.28 55.96 
L 47.28 69.960781 
Q 47.28 71.960781 49.28 71.960781 
z
" style="fill: #ffffff; opacity: 0.8; stroke: #cccccc; stroke-linejoin: miter"/>
    </g>
    <g id="line2d_24">
     <path d="M 51.28 62.058438 
L 61.28 62.058438 
L 71.28 62.058438 
" style="fill: none; stroke: #1f77b4; stroke-width: 1.5; stroke-linecap: square"/>
    </g>
    <g id="text_14">
     <!-- $X_e$ -->
     <g transform="translate(79.28 65.558438) scale(0.1 -0.1)">
      <use xlink:href="#DejaVuSans-Oblique-3b" transform="translate(0 0.09375)"/>
      <use xlink:href="#DejaVuSans-Oblique-48" transform="translate(68.505859 -14.906201) scale(0.7)"/>
     </g>
    </g>
   </g>
  </g>
  <g id="axes_2">
   <g id="patch_8">
    <path d="M 42.28 377.877656 
L 493.2 377.877656 
L 493.2 242.16 
L 42.28 242.16 
z
" style="fill: #ffffff"/>
   </g>
   <g id="matplotlib.axis_3">
    <g id="xtick_7">
     <g id="line2d_25">
      <path d="M 62.77636 377.877656 
L 62.77636 242.16 
" clip-path="url(#p71098fd9f5)" style="fill: none; stroke: #b0b0b0; stroke-width: 0.8; stroke-linecap: square"/>
     </g>
     <g id="line2d_26">
      <g>
       <use xlink:href="#m1a15480ef8" x="62.77636" y="377.877656" style="stroke: #000000; stroke-width: 0.8"/>
      </g>
     </g>
     <g id="text_15">
      <!-- 0 -->
      <g transform="translate(59.59511 392.475312) scale(0.1 -0.1)">
       <use xlink:href="#DejaVuSans-13"/>
      </g>
     </g>
    </g>
    <g id="xtick_8">
     <g id="line2d_27">
      <path d="M 146.050781 377.877656 
L 146.050781 242.16 
" clip-path="url(#p71098fd9f5)" style="fill: none; stroke: #b0b0b0; stroke-width: 0.8; stroke-linecap: square"/>
     </g>
     <g id="line2d_28">
      <g>
       <use xlink:href="#m1a15480ef8" x="146.050781" y="377.877656" style="stroke: #000000; stroke-width: 0.8"/>
      </g>
     </g>
     <g id="text_16">
      <!-- 10 -->
      <g transform="translate(139.688281 392.475312) scale(0.1 -0.1)">
       <use xlink:href="#DejaVuSans-14"/>
       <use xlink:href="#DejaVuSans-13" transform="translate(63.625 0)"/>
      </g>
     </g>
    </g>
    <g id="xtick_9">
     <g id="line2d_29">
      <path d="M 229.325202 377.877656 
L 229.325202 242.16 
" clip-path="url(#p71098fd9f5)" style="fill: none; stroke: #b0b0b0; stroke-width: 0.8; stroke-linecap: square"/>
     </g>
     <g id="line2d_30">
      <g>
       <use xlink:href="#m1a15480ef8" x="229.325202" y="377.877656" style="stroke: #000000; stroke-width: 0.8"/>
      </g>
     </g>
     <g id="text_17">
      <!-- 20 -->
      <g transform="translate(222.962702 392.475312) scale(0.1 -0.1)">
       <use xlink:href="#DejaVuSans-15"/>
       <use xlink:href="#DejaVuSans-13" transform="translate(63.625 0)"/>
      </g>
     </g>
    </g>
    <g id="xtick_10">
     <g id="line2d_31">
      <path d="M 312.599622 377.877656 
L 312.599622 242.16 
" clip-path="url(#p71098fd9f5)" style="fill: none; stroke: #b0b0b0; stroke-width: 0.8; stroke-linecap: square"/>
     </g>
     <g id="line2d_32">
      <g>
       <use xlink:href="#m1a15480ef8" x="312.599622" y="377.877656" style="stroke: #000000; stroke-width: 0.8"/>
      </g>
     </g>
     <g id="text_18">
      <!-- 30 -->
      <g transform="translate(306.237122 392.475312) scale(0.1 -0.1)">
       <use xlink:href="#DejaVuSans-16"/>
       <use xlink:href="#DejaVuSans-13" transform="translate(63.625 0)"/>
      </g>
     </g>
    </g>
    <g id="xtick_11">
     <g id="line2d_33">
      <path d="M 395.874043 377.877656 
L 395.874043 242.16 
" clip-path="url(#p71098fd9f5)" style="fill: none; stroke: #b0b0b0; stroke-width: 0.8; stroke-linecap: square"/>
     </g>
     <g id="line2d_34">
      <g>
       <use xlink:href="#m1a15480ef8" x="395.874043" y="377.877656" style="stroke: #000000; stroke-width: 0.8"/>
      </g>
     </g>
     <g id="text_19">
      <!-- 40 -->
      <g transform="translate(389.511543 392.475312) scale(0.1 -0.1)">
       <use xlink:href="#DejaVuSans-17"/>
       <use xlink:href="#DejaVuSans-13" transform="translate(63.625 0)"/>
      </g>
     </g>
    </g>
    <g id="xtick_12">
     <g id="line2d_35">
      <path d="M 479.148464 377.877656 
L 479.148464 242.16 
" clip-path="url(#p71098fd9f5)" style="fill: none; stroke: #b0b0b0; stroke-width: 0.8; stroke-linecap: square"/>
     </g>
     <g id="line2d_36">
      <g>
       <use xlink:href="#m1a15480ef8" x="479.148464" y="377.877656" style="stroke: #000000; stroke-width: 0.8"/>
      </g>
     </g>
     <g id="text_20">
      <!-- 50 -->
      <g transform="translate(472.785964 392.475312) scale(0.1 -0.1)">
       <use xlink:href="#DejaVuSans-18"/>
       <use xlink:href="#DejaVuSans-13" transform="translate(63.625 0)"/>
      </g>
     </g>
    </g>
    <g id="text_21">
     <!-- t (s) -->
     <g transform="translate(257.684531 406.475312) scale(0.1 -0.1)">
      <use xlink:href="#DejaVuSans-57"/>
      <use xlink:href="#DejaVuSans-3" transform="translate(39.203125 0)"/>
      <use xlink:href="#DejaVuSans-b" transform="translate(70.984375 0)"/>
      <use xlink:href="#DejaVuSans-56" transform="translate(110 0)"/>
      <use xlink:href="#DejaVuSans-c" transform="translate(162.09375 0)"/>
     </g>
    </g>
   </g>
   <g id="matplotlib.axis_4">
    <g id="ytick_6">
     <g id="line2d_37">
      <path d="M 42.28 366.361195 
L 493.2 366.361195 
" clip-path="url(#p71098fd9f5)" style="fill: none; stroke: #b0b0b0; stroke-width: 0.8; stroke-linecap: square"/>
     </g>
     <g id="line2d_38">
      <g>
       <use xlink:href="#m1c8e326397" x="42.28" y="366.361195" style="stroke: #000000; stroke-width: 0.8"/>
      </g>
     </g>
     <g id="text_22">
      <!-- −1.0 -->
      <g transform="translate(10.997188 370.160023) scale(0.1 -0.1)">
       <defs>
        <path id="DejaVuSans-c9c" d="M 678 2272 
L 4684 2272 
L 4684 1741 
L 678 1741 
L 678 2272 
z
" transform="scale(0.015625)"/>
       </defs>
       <use xlink:href="#DejaVuSans-c9c"/>
       <use xlink:href="#DejaVuSans-14" transform="translate(83.796875 0)"/>
       <use xlink:href="#DejaVuSans-11" transform="translate(147.421875 0)"/>
       <use xlink:href="#DejaVuSans-13" transform="translate(179.203125 0)"/>
      </g>
     </g>
    </g>
    <g id="ytick_7">
     <g id="line2d_39">
      <path d="M 42.28 338.556043 
L 493.2 338.556043 
" clip-path="url(#p71098fd9f5)" style="fill: none; stroke: #b0b0b0; stroke-width: 0.8; stroke-linecap: square"/>
     </g>
     <g id="line2d_40">
      <g>
       <use xlink:href="#m1c8e326397" x="42.28" y="338.556043" style="stroke: #000000; stroke-width: 0.8"/>
      </g>
     </g>
     <g id="text_23">
      <!-- −0.5 -->
      <g transform="translate(10.997188 342.354871) scale(0.1 -0.1)">
       <use xlink:href="#DejaVuSans-c9c"/>
       <use xlink:href="#DejaVuSans-13" transform="translate(83.796875 0)"/>
       <use xlink:href="#DejaVuSans-11" transform="translate(147.421875 0)"/>
       <use xlink:href="#DejaVuSans-18" transform="translate(179.203125 0)"/>
      </g>
     </g>
    </g>
    <g id="ytick_8">
     <g id="line2d_41">
      <path d="M 42.28 310.750891 
L 493.2 310.750891 
" clip-path="url(#p71098fd9f5)" style="fill: none; stroke: #b0b0b0; stroke-width: 0.8; stroke-linecap: square"/>
     </g>
     <g id="line2d_42">
      <g>
       <use xlink:href="#m1c8e326397" x="42.28" y="310.750891" style="stroke: #000000; stroke-width: 0.8"/>
      </g>
     </g>
     <g id="text_24">
      <!-- 0.0 -->
      <g transform="translate(19.376875 314.549719) scale(0.1 -0.1)">
       <use xlink:href="#DejaVuSans-13"/>
       <use xlink:href="#DejaVuSans-11" transform="translate(63.625 0)"/>
       <use xlink:href="#DejaVuSans-13" transform="translate(95.40625 0)"/>
      </g>
     </g>
    </g>
    <g id="ytick_9">
     <g id="line2d_43">
      <path d="M 42.28 282.945739 
L 493.2 282.945739 
" clip-path="url(#p71098fd9f5)" style="fill: none; stroke: #b0b0b0; stroke-width: 0.8; stroke-linecap: square"/>
     </g>
     <g id="line2d_44">
      <g>
       <use xlink:href="#m1c8e326397" x="42.28" y="282.945739" style="stroke: #000000; stroke-width: 0.8"/>
      </g>
     </g>
     <g id="text_25">
      <!-- 0.5 -->
      <g transform="translate(19.376875 286.744567) scale(0.1 -0.1)">
       <use xlink:href="#DejaVuSans-13"/>
       <use xlink:href="#DejaVuSans-11" transform="translate(63.625 0)"/>
       <use xlink:href="#DejaVuSans-18" transform="translate(95.40625 0)"/>
      </g>
     </g>
    </g>
    <g id="ytick_10">
     <g id="line2d_45">
      <path d="M 42.28 255.140587 
L 493.2 255.140587 
" clip-path="url(#p71098fd9f5)" style="fill: none; stroke: #b0b0b0; stroke-width: 0.8; stroke-linecap: square"/>
     </g>
     <g id="line2d_46">
      <g>
       <use xlink:href="#m1c8e326397" x="42.28" y="255.140587" style="stroke: #000000; stroke-width: 0.8"/>
      </g>
     </g>
     <g id="text_26">
      <!-- 1.0 -->
      <g transform="translate(19.376875 258.939415) scale(0.1 -0.1)">
       <use xlink:href="#DejaVuSans-14"/>
       <use xlink:href="#DejaVuSans-11" transform="translate(63.625 0)"/>
       <use xlink:href="#DejaVuSans-13" transform="translate(95.40625 0)"/>
      </g>
     </g>
    </g>
   </g>
   <g id="line2d_47">
    <path d="M 62.776364 310.750891 
L 112.671556 310.766717 
L 113.506408 310.92108 
L 114.33757 311.301439 
L 115.170027 311.883135 
L 116.002549 312.824707 
L 116.836043 314.591333 
L 117.668484 317.267124 
L 120.172471 327.879301 
L 121.000124 330.437824 
L 121.8324 332.338933 
L 122.665574 334.782084 
L 123.497879 337.8139 
L 125.163489 345.249857 
L 127.105767 354.158545 
L 128.494974 359.141654 
L 129.048787 360.710652 
L 129.881696 362.598365 
L 130.436623 363.532448 
L 130.993338 364.210695 
L 131.54741 364.642363 
L 132.102312 364.839835 
L 132.657798 364.813146 
L 133.212802 364.551827 
L 133.768018 364.041354 
L 134.324427 363.270188 
L 134.878332 362.230451 
L 135.98966 359.336114 
L 137.098844 355.393865 
L 138.209094 350.537813 
L 140.152938 341.776504 
L 144.593534 322.460996 
L 145.982648 317.930891 
L 147.092053 315.224062 
L 147.926207 313.739046 
L 149.03519 312.422276 
L 150.146736 311.646054 
L 151.255715 311.211692 
L 152.921223 310.914654 
L 155.419892 310.791878 
L 160.972021 310.718099 
L 161.806109 310.540965 
L 162.915197 309.856782 
L 163.747531 308.929562 
L 164.580431 307.188841 
L 165.412683 304.412761 
L 167.910895 293.949959 
L 168.743717 291.626203 
L 169.576495 288.961408 
L 170.409585 285.621738 
L 173.740776 270.289906 
L 174.573179 267.778028 
L 175.406272 265.866177 
L 176.238296 263.34654 
L 179.29275 252.086717 
L 179.84689 250.734579 
L 180.681285 249.264115 
L 181.236411 248.664326 
L 181.793202 248.357285 
L 182.3473 248.328984 
L 182.902713 248.575421 
L 183.458383 249.110528 
L 184.012477 249.945922 
L 184.567291 251.088356 
L 185.678313 254.292227 
L 186.788638 258.649414 
L 188.454847 266.836874 
L 194.562363 297.102693 
L 195.670654 301.537435 
L 196.783297 305.085991 
L 197.336372 306.463145 
L 198.169494 308.029769 
L 198.724807 308.769153 
L 199.835139 309.733384 
L 200.946537 310.245746 
L 202.055641 310.502459 
L 204.277406 310.689561 
L 208.718168 310.805017 
L 209.550761 311.033206 
L 210.66138 311.803217 
L 211.494378 312.845907 
L 212.326822 314.748308 
L 213.160268 317.667795 
L 214.547631 323.793174 
L 215.380386 326.726599 
L 216.213153 329.016533 
L 217.045905 331.944071 
L 217.880784 335.534254 
L 220.379536 348.076493 
L 221.489521 352.586176 
L 222.599584 355.828377 
L 223.709974 357.814237 
L 224.542752 359.768053 
L 225.375074 362.386242 
L 226.76306 367.283936 
L 227.873406 369.955238 
L 228.428518 370.82745 
L 228.983775 371.39707 
L 229.816965 371.708672 
L 230.372598 371.56367 
L 230.926824 371.124766 
L 231.482151 370.378802 
L 232.037298 369.317509 
L 232.592272 367.938397 
L 233.702539 364.250301 
L 234.812948 359.438503 
L 241.75354 325.509925 
L 243.140392 319.703028 
L 244.250673 316.264916 
L 245.084096 314.436589 
L 246.193863 312.797807 
L 247.30403 311.807538 
L 248.41449 311.272861 
L 249.802796 310.974756 
L 252.578723 310.802882 
L 256.742454 310.588165 
L 257.853189 309.942645 
L 258.685804 309.038309 
L 259.518759 307.354298 
L 260.351052 304.622056 
L 262.849616 294.255719 
L 263.682486 291.924043 
L 264.515868 289.090458 
L 265.347537 285.584836 
L 268.678352 269.725527 
L 269.788907 266.300504 
L 270.900029 264.133188 
L 271.73168 262.044913 
L 272.564618 259.338964 
L 273.952204 254.45642 
L 274.507595 252.93761 
L 275.34041 251.184368 
L 275.895904 250.377116 
L 276.450506 249.853119 
L 277.005643 249.600709 
L 277.8386 249.709827 
L 278.393546 250.121544 
L 278.948829 250.820368 
L 279.503929 251.815321 
L 280.337169 253.848318 
L 281.447179 257.560183 
L 282.557468 262.307161 
L 289.774392 297.478549 
L 291.162656 302.406103 
L 292.273286 305.565768 
L 293.105458 307.375987 
L 293.660798 308.275526 
L 294.771586 309.461502 
L 295.60418 309.953118 
L 296.71436 310.299842 
L 298.379799 310.582016 
L 300.877883 310.717169 
L 304.208958 310.847682 
L 305.042145 311.167059 
L 305.875925 311.809165 
L 306.707249 312.939909 
L 307.539887 314.875155 
L 308.372781 317.774019 
L 310.039984 324.955666 
L 310.871025 327.815618 
L 311.703805 330.108139 
L 312.536808 333.042134 
L 313.370698 336.623082 
L 316.422654 351.494446 
L 317.255836 354.518587 
L 318.365752 357.467549 
L 319.198551 359.267239 
L 320.031527 361.600276 
L 320.864238 364.351186 
L 321.696824 366.607393 
L 322.251696 367.743503 
L 322.80675 368.583862 
L 323.361997 369.135304 
L 323.917339 369.409152 
L 324.472561 369.41602 
L 325.027482 369.145022 
L 325.583119 368.580733 
L 326.1383 367.711968 
L 326.692991 366.532562 
L 327.803475 363.24737 
L 328.913589 358.806515 
L 330.301945 352.004094 
L 332.522684 340.775256 
L 333.910245 334.625572 
L 335.298773 327.822857 
L 336.13127 324.397255 
L 338.074208 318.009334 
L 339.184793 315.068181 
L 339.739565 313.982981 
L 340.29461 313.142641 
L 341.405468 312.023724 
L 342.79297 311.340352 
L 343.905295 311.072152 
L 346.12393 310.843655 
L 351.398288 310.708783 
L 352.508882 310.426576 
L 353.618741 309.520728 
L 354.451191 308.025766 
L 355.284548 305.443757 
L 357.782591 294.553826 
L 360.280828 286.795908 
L 361.113889 283.214287 
L 363.612265 270.658506 
L 364.722329 266.15053 
L 365.832875 262.895495 
L 366.667175 261.179151 
L 367.498954 259.037624 
L 368.886891 254.963884 
L 369.441443 253.849372 
L 370.27543 252.788802 
L 370.829807 252.486289 
L 371.384177 252.493144 
L 371.939255 252.808657 
L 372.494958 253.447208 
L 373.051704 254.419098 
L 373.605011 255.727943 
L 374.438025 258.289518 
L 375.825731 263.998465 
L 379.15685 280.808945 
L 381.378306 291.820368 
L 382.765327 298.13445 
L 383.598138 301.412749 
L 384.985987 305.644707 
L 386.096331 307.873114 
L 386.929174 308.953443 
L 388.039388 309.798372 
L 389.150414 310.263362 
L 390.537839 310.532145 
L 393.035747 310.698684 
L 397.755422 310.862893 
L 398.587681 311.171114 
L 399.42038 311.856017 
L 400.253336 313.185604 
L 401.085795 315.437856 
L 401.918588 318.609316 
L 403.584089 325.619578 
L 405.249947 330.741269 
L 406.082802 333.89511 
L 406.915388 337.698901 
L 409.690784 352.327695 
L 410.52414 355.858673 
L 411.356437 358.678388 
L 412.1891 360.705024 
L 413.021847 361.901815 
L 413.854565 362.30617 
L 414.409754 362.196114 
L 414.964812 361.711333 
L 415.519969 360.838676 
L 416.07533 359.572865 
L 416.630359 357.91759 
L 417.463033 354.764805 
L 418.296005 350.907477 
L 421.350125 335.3024 
L 423.015304 328.179452 
L 424.402933 321.996513 
L 425.512926 318.443556 
L 426.623216 315.609909 
L 427.179222 314.46969 
L 428.012367 313.163908 
L 428.844152 312.329666 
L 429.955487 311.676402 
L 431.620053 311.109407 
L 433.562863 310.865992 
L 437.726825 310.638304 
L 440.502466 310.613092 
L 442.169902 310.741632 
L 443.001927 310.931307 
L 443.835279 311.324701 
L 444.388822 311.83187 
L 445.221916 313.200807 
L 445.776351 314.468177 
L 447.164397 318.648833 
L 448.829871 324.837925 
L 452.439043 338.819265 
L 453.826922 343.37232 
L 454.936665 346.43342 
L 456.324867 349.524517 
L 457.712658 351.931102 
L 458.267695 352.659241 
L 459.101698 353.438706 
L 459.93575 353.798632 
L 460.490764 353.781956 
L 461.04335 353.540976 
L 461.599059 353.061186 
L 462.153971 352.330784 
L 462.709058 351.341313 
L 463.265701 350.088299 
L 464.653603 345.867211 
L 466.317777 339.090869 
L 467.706422 333.711778 
L 468.540428 330.944345 
L 469.372855 327.656042 
L 471.869723 316.443595 
L 472.703636 313.275255 
L 472.703636 313.275255 
" clip-path="url(#p71098fd9f5)" style="fill: none; stroke: #1f77b4; stroke-width: 1.5; stroke-linecap: square"/>
   </g>
   <g id="patch_9">
    <path d="M 42.28 377.877656 
L 42.28 242.16 
" style="fill: none; stroke: #000000; stroke-width: 0.8; stroke-linejoin: miter; stroke-linecap: square"/>
   </g>
   <g id="patch_10">
    <path d="M 493.2 377.877656 
L 493.2 242.16 
" style="fill: none; stroke: #000000; stroke-width: 0.8; stroke-linejoin: miter; stroke-linecap: square"/>
   </g>
   <g id="patch_11">
    <path d="M 42.28 377.877656 
L 493.2 377.877656 
" style="fill: none; stroke: #000000; stroke-width: 0.8; stroke-linejoin: miter; stroke-linecap: square"/>
   </g>
   <g id="patch_12">
    <path d="M 42.28 242.16 
L 493.2 242.16 
" style="fill: none; stroke: #000000; stroke-width: 0.8; stroke-linejoin: miter; stroke-linecap: square"/>
   </g>
   <g id="text_27">
    <!-- $Y_e$ (m) -->
    <g transform="translate(248.84 236.16) scale(0.12 -0.12)">
     <defs>
      <path id="DejaVuSans-Oblique-3c" d="M 403 4666 
L 1081 4666 
L 1953 2747 
L 3616 4666 
L 4325 4666 
L 2209 2222 
L 1778 0 
L 1147 0 
L 1575 2222 
L 403 4666 
z
" transform="scale(0.015625)"/>
     </defs>
     <use xlink:href="#DejaVuSans-Oblique-3c" transform="translate(0 0.125)"/>
     <use xlink:href="#DejaVuSans-Oblique-48" transform="translate(61.083984 -14.874951) scale(0.7)"/>
     <use xlink:href="#DejaVuSans-3" transform="translate(106.884766 0.125)"/>
     <use xlink:href="#DejaVuSans-b" transform="translate(138.671875 0.125)"/>
     <use xlink:href="#DejaVuSans-50" transform="translate(177.685547 0.125)"/>
     <use xlink:href="#DejaVuSans-c" transform="translate(275.097656 0.125)"/>
    </g>
   </g>
   <g id="legend_2">
    <g id="patch_13">
     <path d="M 443.5 265.160781 
L 486.2 265.160781 
Q 488.2 265.160781 488.2 263.160781 
L 488.2 249.16 
Q 488.2 247.16 486.2 247.16 
L 443.5 247.16 
Q 441.5 247.16 441.5 249.16 
L 441.5 263.160781 
Q 441.5 265.160781 443.5 265.160781 
z
" style="fill: #ffffff; opacity: 0.8; stroke: #cccccc; stroke-linejoin: miter"/>
    </g>
    <g id="line2d_48">
     <path d="M 445.5 255.258438 
L 455.5 255.258438 
L 465.5 255.258438 
" style="fill: none; stroke: #1f77b4; stroke-width: 1.5; stroke-linecap: square"/>
    </g>
    <g id="text_28">
     <!-- $Y_e$ -->
     <g transform="translate(473.5 258.758438) scale(0.1 -0.1)">
      <use xlink:href="#DejaVuSans-Oblique-3c" transform="translate(0 0.09375)"/>
      <use xlink:href="#DejaVuSans-Oblique-48" transform="translate(61.083984 -14.906201) scale(0.7)"/>
     </g>
    </g>
   </g>
  </g>
  <g id="axes_3">
   <g id="patch_14">
    <path d="M 42.28 571.077656 
L 493.2 571.077656 
L 493.2 435.36 
L 42.28 435.36 
z
" style="fill: #ffffff"/>
   </g>
   <g id="matplotlib.axis_5">
    <g id="xtick_13">
     <g id="line2d_49">
      <path d="M 62.77636 571.077656 
L 62.77636 435.36 
" clip-path="url(#p0284fb5a53)" style="fill: none; stroke: #b0b0b0; stroke-width: 0.8; stroke-linecap: square"/>
     </g>
     <g id="line2d_50">
      <g>
       <use xlink:href="#m1a15480ef8" x="62.77636" y="571.077656" style="stroke: #000000; stroke-width: 0.8"/>
      </g>
     </g>
     <g id="text_29">
      <!-- 0 -->
      <g transform="translate(59.59511 585.675313) scale(0.1 -0.1)">
       <use xlink:href="#DejaVuSans-13"/>
      </g>
     </g>
    </g>
    <g id="xtick_14">
     <g id="line2d_51">
      <path d="M 146.050781 571.077656 
L 146.050781 435.36 
" clip-path="url(#p0284fb5a53)" style="fill: none; stroke: #b0b0b0; stroke-width: 0.8; stroke-linecap: square"/>
     </g>
     <g id="line2d_52">
      <g>
       <use xlink:href="#m1a15480ef8" x="146.050781" y="571.077656" style="stroke: #000000; stroke-width: 0.8"/>
      </g>
     </g>
     <g id="text_30">
      <!-- 10 -->
      <g transform="translate(139.688281 585.675313) scale(0.1 -0.1)">
       <use xlink:href="#DejaVuSans-14"/>
       <use xlink:href="#DejaVuSans-13" transform="translate(63.625 0)"/>
      </g>
     </g>
    </g>
    <g id="xtick_15">
     <g id="line2d_53">
      <path d="M 229.325202 571.077656 
L 229.325202 435.36 
" clip-path="url(#p0284fb5a53)" style="fill: none; stroke: #b0b0b0; stroke-width: 0.8; stroke-linecap: square"/>
     </g>
     <g id="line2d_54">
      <g>
       <use xlink:href="#m1a15480ef8" x="229.325202" y="571.077656" style="stroke: #000000; stroke-width: 0.8"/>
      </g>
     </g>
     <g id="text_31">
      <!-- 20 -->
      <g transform="translate(222.962702 585.675313) scale(0.1 -0.1)">
       <use xlink:href="#DejaVuSans-15"/>
       <use xlink:href="#DejaVuSans-13" transform="translate(63.625 0)"/>
      </g>
     </g>
    </g>
    <g id="xtick_16">
     <g id="line2d_55">
      <path d="M 312.599622 571.077656 
L 312.599622 435.36 
" clip-path="url(#p0284fb5a53)" style="fill: none; stroke: #b0b0b0; stroke-width: 0.8; stroke-linecap: square"/>
     </g>
     <g id="line2d_56">
      <g>
       <use xlink:href="#m1a15480ef8" x="312.599622" y="571.077656" style="stroke: #000000; stroke-width: 0.8"/>
      </g>
     </g>
     <g id="text_32">
      <!-- 30 -->
      <g transform="translate(306.237122 585.675313) scale(0.1 -0.1)">
       <use xlink:href="#DejaVuSans-16"/>
       <use xlink:href="#DejaVuSans-13" transform="translate(63.625 0)"/>
      </g>
     </g>
    </g>
    <g id="xtick_17">
     <g id="line2d_57">
      <path d="M 395.874043 571.077656 
L 395.874043 435.36 
" clip-path="url(#p0284fb5a53)" style="fill: none; stroke: #b0b0b0; stroke-width: 0.8; stroke-linecap: square"/>
     </g>
     <g id="line2d_58">
      <g>
       <use xlink:href="#m1a15480ef8" x="395.874043" y="571.077656" style="stroke: #000000; stroke-width: 0.8"/>
      </g>
     </g>
     <g id="text_33">
      <!-- 40 -->
      <g transform="translate(389.511543 585.675313) scale(0.1 -0.1)">
       <use xlink:href="#DejaVuSans-17"/>
       <use xlink:href="#DejaVuSans-13" transform="translate(63.625 0)"/>
      </g>
     </g>
    </g>
    <g id="xtick_18">
     <g id="line2d_59">
      <path d="M 479.148464 571.077656 
L 479.148464 435.36 
" clip-path="url(#p0284fb5a53)" style="fill: none; stroke: #b0b0b0; stroke-width: 0.8; stroke-linecap: square"/>
     </g>
     <g id="line2d_60">
      <g>
       <use xlink:href="#m1a15480ef8" x="479.148464" y="571.077656" style="stroke: #000000; stroke-width: 0.8"/>
      </g>
     </g>
     <g id="text_34">
      <!-- 50 -->
      <g transform="translate(472.785964 585.675313) scale(0.1 -0.1)">
       <use xlink:href="#DejaVuSans-18"/>
       <use xlink:href="#DejaVuSans-13" transform="translate(63.625 0)"/>
      </g>
     </g>
    </g>
    <g id="text_35">
     <!-- t (s) -->
     <g transform="translate(257.684531 599.675313) scale(0.1 -0.1)">
      <use xlink:href="#DejaVuSans-57"/>
      <use xlink:href="#DejaVuSans-3" transform="translate(39.203125 0)"/>
      <use xlink:href="#DejaVuSans-b" transform="translate(70.984375 0)"/>
      <use xlink:href="#DejaVuSans-56" transform="translate(110 0)"/>
      <use xlink:href="#DejaVuSans-c" transform="translate(162.09375 0)"/>
     </g>
    </g>
   </g>
   <g id="matplotlib.axis_6">
    <g id="ytick_11">
     <g id="line2d_61">
      <path d="M 42.28 543.475681 
L 493.2 543.475681 
" clip-path="url(#p0284fb5a53)" style="fill: none; stroke: #b0b0b0; stroke-width: 0.8; stroke-linecap: square"/>
     </g>
     <g id="line2d_62">
      <g>
       <use xlink:href="#m1c8e326397" x="42.28" y="543.475681" style="stroke: #000000; stroke-width: 0.8"/>
      </g>
     </g>
     <g id="text_36">
      <!-- −2 -->
      <g transform="translate(20.537813 547.274509) scale(0.1 -0.1)">
       <use xlink:href="#DejaVuSans-c9c"/>
       <use xlink:href="#DejaVuSans-15" transform="translate(83.796875 0)"/>
      </g>
     </g>
    </g>
    <g id="ytick_12">
     <g id="line2d_63">
      <path d="M 42.28 503.564333 
L 493.2 503.564333 
" clip-path="url(#p0284fb5a53)" style="fill: none; stroke: #b0b0b0; stroke-width: 0.8; stroke-linecap: square"/>
     </g>
     <g id="line2d_64">
      <g>
       <use xlink:href="#m1c8e326397" x="42.28" y="503.564333" style="stroke: #000000; stroke-width: 0.8"/>
      </g>
     </g>
     <g id="text_37">
      <!-- 0 -->
      <g transform="translate(28.9175 507.363161) scale(0.1 -0.1)">
       <use xlink:href="#DejaVuSans-13"/>
      </g>
     </g>
    </g>
    <g id="ytick_13">
     <g id="line2d_65">
      <path d="M 42.28 463.652985 
L 493.2 463.652985 
" clip-path="url(#p0284fb5a53)" style="fill: none; stroke: #b0b0b0; stroke-width: 0.8; stroke-linecap: square"/>
     </g>
     <g id="line2d_66">
      <g>
       <use xlink:href="#m1c8e326397" x="42.28" y="463.652985" style="stroke: #000000; stroke-width: 0.8"/>
      </g>
     </g>
     <g id="text_38">
      <!-- 2 -->
      <g transform="translate(28.9175 467.451813) scale(0.1 -0.1)">
       <use xlink:href="#DejaVuSans-15"/>
      </g>
     </g>
    </g>
   </g>
   <g id="line2d_67">
    <path d="M 62.776364 503.564333 
L 111.839259 503.564333 
L 112.671556 503.753646 
L 113.506408 504.449828 
L 115.170027 506.243168 
L 116.002549 508.373389 
L 117.668484 516.914918 
L 118.501481 521.337615 
L 119.335099 522.829409 
L 121.000124 514.391571 
L 121.8324 512.986974 
L 125.163489 528.821147 
L 125.996396 530.091335 
L 128.494974 519.095631 
L 130.993338 509.014512 
L 135.433089 491.765844 
L 137.65582 481.992181 
L 138.209094 479.41814 
L 138.764593 479.444265 
L 139.332814 482.122782 
L 140.152938 484.695766 
L 140.708 483.234833 
L 141.262563 482.135443 
L 141.818654 483.822172 
L 142.374063 486.24083 
L 142.928242 487.346522 
L 143.485385 487.655859 
L 144.038744 488.43018 
L 144.593534 489.887577 
L 145.982648 493.996049 
L 147.926207 498.659855 
L 149.03519 500.643917 
L 150.146736 501.880608 
L 151.255715 502.645612 
L 152.36653 503.089619 
L 153.477115 503.326019 
L 155.419892 503.498358 
L 160.139341 503.538238 
L 160.972021 503.324212 
L 161.806109 502.603234 
L 162.915197 501.069111 
L 163.747531 499.145826 
L 164.580431 495.273512 
L 165.412683 490.473707 
L 166.245537 486.740637 
L 167.079162 486.964444 
L 167.910895 491.188268 
L 168.743717 493.362564 
L 169.576495 490.242567 
L 171.242547 481.608899 
L 172.074996 480.130866 
L 174.573179 492.649795 
L 175.406272 493.971123 
L 177.071534 485.860447 
L 177.904294 484.513046 
L 180.681285 496.974712 
L 186.232847 520.908602 
L 187.898258 528.983683 
L 188.454847 528.95755 
L 189.008616 526.109139 
L 189.563985 525.121624 
L 190.119878 526.371798 
L 190.674927 526.479301 
L 191.785042 522.943695 
L 192.895197 522.484005 
L 193.45157 521.414886 
L 195.670654 515.462718 
L 198.724807 507.301053 
L 199.835139 505.616301 
L 200.946537 504.624761 
L 202.055641 504.08696 
L 203.165977 503.819586 
L 205.386948 503.627724 
L 207.885159 503.623513 
L 208.718168 503.923667 
L 209.550761 504.732983 
L 210.66138 506.363536 
L 211.494378 508.516382 
L 212.326822 512.560091 
L 213.160268 517.352017 
L 213.992518 520.774814 
L 214.547631 519.50988 
L 215.380386 515.189169 
L 216.213153 514.133668 
L 218.713795 527.160452 
L 219.545952 528.635854 
L 222.599584 513.372867 
L 223.709974 510.657138 
L 225.375074 518.491038 
L 226.208203 519.835827 
L 228.428518 509.913355 
L 233.147724 489.533192 
L 235.368269 478.774818 
L 236.20142 477.343935 
L 237.590159 483.84815 
L 238.144101 483.230154 
L 238.699053 481.302601 
L 239.254354 482.11904 
L 239.810671 484.681748 
L 240.642435 487.489083 
L 241.75354 487.745028 
L 242.585407 489.24568 
L 244.250673 495.252254 
L 245.084096 497.621762 
L 246.193863 499.863403 
L 247.30403 501.428639 
L 248.41449 502.461347 
L 249.802796 503.165499 
L 250.912774 503.360606 
L 255.076365 503.539397 
L 255.909379 503.38669 
L 256.742454 502.711342 
L 257.853189 501.178336 
L 258.685804 499.294239 
L 259.518759 495.558668 
L 260.351052 490.734072 
L 261.185201 487.043737 
L 262.017458 487.318684 
L 262.849616 491.377409 
L 263.682486 493.140405 
L 264.515868 489.310946 
L 266.18039 480.62824 
L 267.013125 479.141947 
L 269.788907 493.116764 
L 270.900029 495.85427 
L 272.564618 488.007312 
L 273.397368 486.703862 
L 275.895904 497.494449 
L 280.893172 518.344216 
L 283.113138 528.771956 
L 283.667886 528.745823 
L 284.222748 525.956109 
L 284.778182 524.969155 
L 285.333258 526.180528 
L 285.888952 526.246188 
L 286.443584 524.247958 
L 286.998975 522.690412 
L 287.553968 522.550123 
L 288.387288 522.496596 
L 289.2193 520.70297 
L 290.607728 515.249812 
L 291.717649 512.78807 
L 293.105458 509.482925 
L 294.217064 506.998325 
L 294.771586 506.089671 
L 295.60418 505.001516 
L 296.159092 504.556901 
L 297.269686 504.164718 
L 299.490397 503.744195 
L 301.988209 503.593843 
L 303.376031 503.676207 
L 304.208958 504.1385 
L 305.042145 505.103912 
L 305.875925 506.513087 
L 306.707249 508.852663 
L 307.539887 512.642328 
L 308.372781 517.181142 
L 309.205601 520.161425 
L 310.039984 518.907068 
L 310.871025 514.989654 
L 311.703805 514.224127 
L 314.201848 527.203534 
L 315.035209 528.67467 
L 317.255836 517.636794 
L 318.365752 513.023242 
L 319.198551 513.129317 
L 320.031527 516.973074 
L 320.864238 518.26298 
L 323.361997 507.542244 
L 326.1383 496.027948 
L 328.358509 485.917938 
L 330.301945 477.112906 
L 331.134947 477.133343 
L 332.522684 484.366374 
L 333.355355 486.444116 
L 333.910245 484.292652 
L 334.465594 483.504938 
L 335.298773 485.938539 
L 336.13127 489.921674 
L 336.964034 492.43157 
L 337.518603 492.894373 
L 338.074208 493.553995 
L 338.6292 494.837148 
L 340.29461 499.293601 
L 341.405468 501.150158 
L 342.238218 502.132367 
L 342.79297 502.554893 
L 343.905295 502.969447 
L 345.568831 503.351114 
L 347.234606 503.470436 
L 350.287878 503.526536 
L 351.398288 503.291507 
L 352.508882 502.309575 
L 353.618741 499.958066 
L 354.451191 496.405755 
L 356.117045 487.140801 
L 356.949906 485.870226 
L 358.615342 493.242307 
L 359.448337 493.052799 
L 361.946441 480.011676 
L 362.779574 478.531533 
L 365.832875 493.749771 
L 366.667175 495.280985 
L 367.498954 491.918645 
L 368.331129 490.562913 
L 371.384177 504.216011 
L 373.605011 514.175555 
L 376.380832 527.59095 
L 376.936182 528.358122 
L 377.491285 526.269829 
L 378.046443 524.645372 
L 379.15685 525.582201 
L 379.712037 524.390376 
L 380.267468 522.668748 
L 380.82212 521.633685 
L 381.378306 521.007013 
L 381.932776 520.080557 
L 382.765327 518.109824 
L 386.096331 508.676114 
L 386.929174 506.90381 
L 387.484321 506.001514 
L 388.594566 504.905335 
L 389.982419 504.124585 
L 391.093008 503.847514 
L 393.591185 503.63975 
L 395.812096 503.577619 
L 396.646332 503.644637 
L 397.755422 504.121157 
L 398.587681 505.091683 
L 399.42038 506.843038 
L 400.253336 509.839591 
L 401.918588 518.250925 
L 402.75147 519.884842 
L 403.584089 517.439677 
L 404.417583 514.442209 
L 405.249947 515.442494 
L 407.748066 528.646105 
L 408.580679 530.171199 
L 411.356437 515.99101 
L 413.021847 507.950245 
L 414.964812 499.462093 
L 417.463033 486.885449 
L 419.128611 478.163631 
L 419.683895 478.279093 
L 421.350125 486.827436 
L 422.182173 488.136564 
L 423.015304 485.896268 
L 423.570057 486.059445 
L 424.957865 492.219222 
L 425.512926 493.810422 
L 428.844152 501.048959 
L 429.399275 501.713232 
L 430.787568 502.487431 
L 432.452611 503.157793 
L 433.562863 503.302773 
L 440.502466 503.643241 
L 441.335491 503.80058 
L 442.169902 504.09831 
L 443.001927 504.700182 
L 443.835279 505.977157 
L 444.388822 507.917587 
L 447.164397 520.218569 
L 449.38588 529.181041 
L 452.439043 540.407309 
L 454.936665 548.635352 
L 458.267695 559.153381 
L 459.93575 564.908672 
L 460.490764 441.528984 
L 462.709058 450.073533 
L 465.485847 461.799073 
L 466.317777 462.997783 
L 467.706422 456.760987 
L 468.540428 455.77223 
L 469.372855 459.769194 
L 470.20536 462.504213 
L 471.03741 461.493118 
L 471.869723 458.604641 
L 472.703636 456.892936 
L 472.703636 456.892936 
" clip-path="url(#p0284fb5a53)" style="fill: none; stroke: #1f77b4; stroke-width: 1.5; stroke-linecap: square"/>
   </g>
   <g id="patch_15">
    <path d="M 42.28 571.077656 
L 42.28 435.36 
" style="fill: none; stroke: #000000; stroke-width: 0.8; stroke-linejoin: miter; stroke-linecap: square"/>
   </g>
   <g id="patch_16">
    <path d="M 493.2 571.077656 
L 493.2 435.36 
" style="fill: none; stroke: #000000; stroke-width: 0.8; stroke-linejoin: miter; stroke-linecap: square"/>
   </g>
   <g id="patch_17">
    <path d="M 42.28 571.077656 
L 493.2 571.077656 
" style="fill: none; stroke: #000000; stroke-width: 0.8; stroke-linejoin: miter; stroke-linecap: square"/>
   </g>
   <g id="patch_18">
    <path d="M 42.28 435.36 
L 493.2 435.36 
" style="fill: none; stroke: #000000; stroke-width: 0.8; stroke-linejoin: miter; stroke-linecap: square"/>
   </g>
   <g id="text_39">
    <!-- $\Psi_e$ (rad) -->
    <g transform="translate(243.62 429.36) scale(0.12 -0.12)">
     <defs>
      <path id="DejaVuSans-33c" d="M 2206 0 
Q 2209 419 2206 969 
Q 1538 969 950 1625 
Q 375 2263 359 3388 
L 359 4666 
L 1025 4666 
L 1025 3388 
Q 1025 2506 1431 1994 
Q 1775 1556 2206 1513 
L 2206 4666 
L 2838 4666 
L 2838 1513 
Q 3269 1556 3613 1994 
Q 4019 2506 4019 3388 
L 4019 4666 
L 4684 4666 
L 4684 3388 
Q 4669 2263 4094 1625 
Q 3506 969 2838 969 
Q 2834 744 2838 0 
L 2206 0 
z
" transform="scale(0.015625)"/>
      <path id="DejaVuSans-55" d="M 2631 2963 
Q 2534 3019 2420 3045 
Q 2306 3072 2169 3072 
Q 1681 3072 1420 2755 
Q 1159 2438 1159 1844 
L 1159 0 
L 581 0 
L 581 3500 
L 1159 3500 
L 1159 2956 
Q 1341 3275 1631 3429 
Q 1922 3584 2338 3584 
Q 2397 3584 2469 3576 
Q 2541 3569 2628 3553 
L 2631 2963 
z
" transform="scale(0.015625)"/>
      <path id="DejaVuSans-44" d="M 2194 1759 
Q 1497 1759 1228 1600 
Q 959 1441 959 1056 
Q 959 750 1161 570 
Q 1363 391 1709 391 
Q 2188 391 2477 730 
Q 2766 1069 2766 1631 
L 2766 1759 
L 2194 1759 
z
M 3341 1997 
L 3341 0 
L 2766 0 
L 2766 531 
Q 2569 213 2275 61 
Q 1981 -91 1556 -91 
Q 1019 -91 701 211 
Q 384 513 384 1019 
Q 384 1609 779 1909 
Q 1175 2209 1959 2209 
L 2766 2209 
L 2766 2266 
Q 2766 2663 2505 2880 
Q 2244 3097 1772 3097 
Q 1472 3097 1187 3025 
Q 903 2953 641 2809 
L 641 3341 
Q 956 3463 1253 3523 
Q 1550 3584 1831 3584 
Q 2591 3584 2966 3190 
Q 3341 2797 3341 1997 
z
" transform="scale(0.015625)"/>
      <path id="DejaVuSans-47" d="M 2906 2969 
L 2906 4863 
L 3481 4863 
L 3481 0 
L 2906 0 
L 2906 525 
Q 2725 213 2448 61 
Q 2172 -91 1784 -91 
Q 1150 -91 751 415 
Q 353 922 353 1747 
Q 353 2572 751 3078 
Q 1150 3584 1784 3584 
Q 2172 3584 2448 3432 
Q 2725 3281 2906 2969 
z
M 947 1747 
Q 947 1113 1208 752 
Q 1469 391 1925 391 
Q 2381 391 2643 752 
Q 2906 1113 2906 1747 
Q 2906 2381 2643 2742 
Q 2381 3103 1925 3103 
Q 1469 3103 1208 2742 
Q 947 2381 947 1747 
z
" transform="scale(0.015625)"/>
     </defs>
     <use xlink:href="#DejaVuSans-33c" transform="translate(0 0.015625)"/>
     <use xlink:href="#DejaVuSans-Oblique-48" transform="translate(79.667969 -14.984326) scale(0.7)"/>
     <use xlink:href="#DejaVuSans-3" transform="translate(125.46875 0.015625)"/>
     <use xlink:href="#DejaVuSans-b" transform="translate(157.255859 0.015625)"/>
     <use xlink:href="#DejaVuSans-55" transform="translate(196.269531 0.015625)"/>
     <use xlink:href="#DejaVuSans-44" transform="translate(237.382812 0.015625)"/>
     <use xlink:href="#DejaVuSans-47" transform="translate(298.662109 0.015625)"/>
     <use xlink:href="#DejaVuSans-c" transform="translate(362.138672 0.015625)"/>
    </g>
   </g>
   <g id="legend_3">
    <g id="patch_19">
     <path d="M 49.28 458.360781 
L 93.88 458.360781 
Q 95.88 458.360781 95.88 456.360781 
L 95.88 442.36 
Q 95.88 440.36 93.88 440.36 
L 49.28 440.36 
Q 47.28 440.36 47.28 442.36 
L 47.28 456.360781 
Q 47.28 458.360781 49.28 458.360781 
z
" style="fill: #ffffff; opacity: 0.8; stroke: #cccccc; stroke-linejoin: miter"/>
    </g>
    <g id="line2d_68">
     <path d="M 51.28 448.458438 
L 61.28 448.458438 
L 71.28 448.458438 
" style="fill: none; stroke: #1f77b4; stroke-width: 1.5; stroke-linecap: square"/>
    </g>
    <g id="text_40">
     <!-- $\Psi_e$ -->
     <g transform="translate(79.28 451.958438) scale(0.1 -0.1)">
      <use xlink:href="#DejaVuSans-33c" transform="translate(0 0.09375)"/>
      <use xlink:href="#DejaVuSans-Oblique-48" transform="translate(79.667969 -14.906201) scale(0.7)"/>
     </g>
    </g>
   </g>
  </g>
  <g id="axes_4">
   <g id="patch_20">
    <path d="M 42.28 764.277656 
L 493.2 764.277656 
L 493.2 628.56 
L 42.28 628.56 
z
" style="fill: #ffffff"/>
   </g>
   <g id="matplotlib.axis_7">
    <g id="xtick_19">
     <g id="line2d_69">
      <path d="M 62.77636 764.277656 
L 62.77636 628.56 
" clip-path="url(#pdfd641a357)" style="fill: none; stroke: #b0b0b0; stroke-width: 0.8; stroke-linecap: square"/>
     </g>
     <g id="line2d_70">
      <g>
       <use xlink:href="#m1a15480ef8" x="62.77636" y="764.277656" style="stroke: #000000; stroke-width: 0.8"/>
      </g>
     </g>
     <g id="text_41">
      <!-- 0 -->
      <g transform="translate(59.59511 778.875313) scale(0.1 -0.1)">
       <use xlink:href="#DejaVuSans-13"/>
      </g>
     </g>
    </g>
    <g id="xtick_20">
     <g id="line2d_71">
      <path d="M 146.050781 764.277656 
L 146.050781 628.56 
" clip-path="url(#pdfd641a357)" style="fill: none; stroke: #b0b0b0; stroke-width: 0.8; stroke-linecap: square"/>
     </g>
     <g id="line2d_72">
      <g>
       <use xlink:href="#m1a15480ef8" x="146.050781" y="764.277656" style="stroke: #000000; stroke-width: 0.8"/>
      </g>
     </g>
     <g id="text_42">
      <!-- 10 -->
      <g transform="translate(139.688281 778.875313) scale(0.1 -0.1)">
       <use xlink:href="#DejaVuSans-14"/>
       <use xlink:href="#DejaVuSans-13" transform="translate(63.625 0)"/>
      </g>
     </g>
    </g>
    <g id="xtick_21">
     <g id="line2d_73">
      <path d="M 229.325202 764.277656 
L 229.325202 628.56 
" clip-path="url(#pdfd641a357)" style="fill: none; stroke: #b0b0b0; stroke-width: 0.8; stroke-linecap: square"/>
     </g>
     <g id="line2d_74">
      <g>
       <use xlink:href="#m1a15480ef8" x="229.325202" y="764.277656" style="stroke: #000000; stroke-width: 0.8"/>
      </g>
     </g>
     <g id="text_43">
      <!-- 20 -->
      <g transform="translate(222.962702 778.875313) scale(0.1 -0.1)">
       <use xlink:href="#DejaVuSans-15"/>
       <use xlink:href="#DejaVuSans-13" transform="translate(63.625 0)"/>
      </g>
     </g>
    </g>
    <g id="xtick_22">
     <g id="line2d_75">
      <path d="M 312.599622 764.277656 
L 312.599622 628.56 
" clip-path="url(#pdfd641a357)" style="fill: none; stroke: #b0b0b0; stroke-width: 0.8; stroke-linecap: square"/>
     </g>
     <g id="line2d_76">
      <g>
       <use xlink:href="#m1a15480ef8" x="312.599622" y="764.277656" style="stroke: #000000; stroke-width: 0.8"/>
      </g>
     </g>
     <g id="text_44">
      <!-- 30 -->
      <g transform="translate(306.237122 778.875313) scale(0.1 -0.1)">
       <use xlink:href="#DejaVuSans-16"/>
       <use xlink:href="#DejaVuSans-13" transform="translate(63.625 0)"/>
      </g>
     </g>
    </g>
    <g id="xtick_23">
     <g id="line2d_77">
      <path d="M 395.874043 764.277656 
L 395.874043 628.56 
" clip-path="url(#pdfd641a357)" style="fill: none; stroke: #b0b0b0; stroke-width: 0.8; stroke-linecap: square"/>
     </g>
     <g id="line2d_78">
      <g>
       <use xlink:href="#m1a15480ef8" x="395.874043" y="764.277656" style="stroke: #000000; stroke-width: 0.8"/>
      </g>
     </g>
     <g id="text_45">
      <!-- 40 -->
      <g transform="translate(389.511543 778.875313) scale(0.1 -0.1)">
       <use xlink:href="#DejaVuSans-17"/>
       <use xlink:href="#DejaVuSans-13" transform="translate(63.625 0)"/>
      </g>
     </g>
    </g>
    <g id="xtick_24">
     <g id="line2d_79">
      <path d="M 479.148464 764.277656 
L 479.148464 628.56 
" clip-path="url(#pdfd641a357)" style="fill: none; stroke: #b0b0b0; stroke-width: 0.8; stroke-linecap: square"/>
     </g>
     <g id="line2d_80">
      <g>
       <use xlink:href="#m1a15480ef8" x="479.148464" y="764.277656" style="stroke: #000000; stroke-width: 0.8"/>
      </g>
     </g>
     <g id="text_46">
      <!-- 50 -->
      <g transform="translate(472.785964 778.875313) scale(0.1 -0.1)">
       <use xlink:href="#DejaVuSans-18"/>
       <use xlink:href="#DejaVuSans-13" transform="translate(63.625 0)"/>
      </g>
     </g>
    </g>
    <g id="text_47">
     <!-- t (s) -->
     <g transform="translate(257.684531 792.875313) scale(0.1 -0.1)">
      <use xlink:href="#DejaVuSans-57"/>
      <use xlink:href="#DejaVuSans-3" transform="translate(39.203125 0)"/>
      <use xlink:href="#DejaVuSans-b" transform="translate(70.984375 0)"/>
      <use xlink:href="#DejaVuSans-56" transform="translate(110 0)"/>
      <use xlink:href="#DejaVuSans-c" transform="translate(162.09375 0)"/>
     </g>
    </g>
   </g>
   <g id="matplotlib.axis_8">
    <g id="ytick_14">
     <g id="line2d_81">
      <path d="M 42.28 758.108672 
L 493.2 758.108672 
" clip-path="url(#pdfd641a357)" style="fill: none; stroke: #b0b0b0; stroke-width: 0.8; stroke-linecap: square"/>
     </g>
     <g id="line2d_82">
      <g>
       <use xlink:href="#m1c8e326397" x="42.28" y="758.108672" style="stroke: #000000; stroke-width: 0.8"/>
      </g>
     </g>
     <g id="text_48">
      <!-- −1.0 -->
      <g transform="translate(10.997188 761.9075) scale(0.1 -0.1)">
       <use xlink:href="#DejaVuSans-c9c"/>
       <use xlink:href="#DejaVuSans-14" transform="translate(83.796875 0)"/>
       <use xlink:href="#DejaVuSans-11" transform="translate(147.421875 0)"/>
       <use xlink:href="#DejaVuSans-13" transform="translate(179.203125 0)"/>
      </g>
     </g>
    </g>
    <g id="ytick_15">
     <g id="line2d_83">
      <path d="M 42.28 726.353445 
L 493.2 726.353445 
" clip-path="url(#pdfd641a357)" style="fill: none; stroke: #b0b0b0; stroke-width: 0.8; stroke-linecap: square"/>
     </g>
     <g id="line2d_84">
      <g>
       <use xlink:href="#m1c8e326397" x="42.28" y="726.353445" style="stroke: #000000; stroke-width: 0.8"/>
      </g>
     </g>
     <g id="text_49">
      <!-- −0.5 -->
      <g transform="translate(10.997188 730.152273) scale(0.1 -0.1)">
       <use xlink:href="#DejaVuSans-c9c"/>
       <use xlink:href="#DejaVuSans-13" transform="translate(83.796875 0)"/>
       <use xlink:href="#DejaVuSans-11" transform="translate(147.421875 0)"/>
       <use xlink:href="#DejaVuSans-18" transform="translate(179.203125 0)"/>
      </g>
     </g>
    </g>
    <g id="ytick_16">
     <g id="line2d_85">
      <path d="M 42.28 694.598218 
L 493.2 694.598218 
" clip-path="url(#pdfd641a357)" style="fill: none; stroke: #b0b0b0; stroke-width: 0.8; stroke-linecap: square"/>
     </g>
     <g id="line2d_86">
      <g>
       <use xlink:href="#m1c8e326397" x="42.28" y="694.598218" style="stroke: #000000; stroke-width: 0.8"/>
      </g>
     </g>
     <g id="text_50">
      <!-- 0.0 -->
      <g transform="translate(19.376875 698.397046) scale(0.1 -0.1)">
       <use xlink:href="#DejaVuSans-13"/>
       <use xlink:href="#DejaVuSans-11" transform="translate(63.625 0)"/>
       <use xlink:href="#DejaVuSans-13" transform="translate(95.40625 0)"/>
      </g>
     </g>
    </g>
    <g id="ytick_17">
     <g id="line2d_87">
      <path d="M 42.28 662.842991 
L 493.2 662.842991 
" clip-path="url(#pdfd641a357)" style="fill: none; stroke: #b0b0b0; stroke-width: 0.8; stroke-linecap: square"/>
     </g>
     <g id="line2d_88">
      <g>
       <use xlink:href="#m1c8e326397" x="42.28" y="662.842991" style="stroke: #000000; stroke-width: 0.8"/>
      </g>
     </g>
     <g id="text_51">
      <!-- 0.5 -->
      <g transform="translate(19.376875 666.641819) scale(0.1 -0.1)">
       <use xlink:href="#DejaVuSans-13"/>
       <use xlink:href="#DejaVuSans-11" transform="translate(63.625 0)"/>
       <use xlink:href="#DejaVuSans-18" transform="translate(95.40625 0)"/>
      </g>
     </g>
    </g>
    <g id="ytick_18">
     <g id="line2d_89">
      <path d="M 42.28 631.087764 
L 493.2 631.087764 
" clip-path="url(#pdfd641a357)" style="fill: none; stroke: #b0b0b0; stroke-width: 0.8; stroke-linecap: square"/>
     </g>
     <g id="line2d_90">
      <g>
       <use xlink:href="#m1c8e326397" x="42.28" y="631.087764" style="stroke: #000000; stroke-width: 0.8"/>
      </g>
     </g>
     <g id="text_52">
      <!-- 1.0 -->
      <g transform="translate(19.376875 634.886592) scale(0.1 -0.1)">
       <use xlink:href="#DejaVuSans-14"/>
       <use xlink:href="#DejaVuSans-11" transform="translate(63.625 0)"/>
       <use xlink:href="#DejaVuSans-13" transform="translate(95.40625 0)"/>
      </g>
     </g>
    </g>
   </g>
   <g id="line2d_91">
    <path d="M 62.776364 758.108672 
L 63.535374 758.029357 
L 64.36808 757.731317 
L 66.033514 756.685661 
L 67.699333 755.264753 
L 70.197998 752.764262 
L 74.36091 748.20089 
L 79.357318 742.549331 
L 114.33757 702.636777 
L 115.170027 702.116043 
L 116.002549 701.994365 
L 116.836043 702.152611 
L 117.668484 702.522234 
L 119.335099 703.612466 
L 121.8324 705.873956 
L 124.330601 708.341638 
L 125.996396 709.366075 
L 127.105767 710.84424 
L 127.938853 711.624727 
L 129.048787 713.358988 
L 129.881696 714.225412 
L 132.657798 718.623161 
L 133.212802 718.904711 
L 133.768018 718.88702 
L 134.324427 718.62953 
L 135.433089 717.653255 
L 136.544062 716.293128 
L 139.332814 712.008836 
L 140.152938 711.135352 
L 144.593534 703.565071 
L 145.427687 702.665596 
L 147.092053 699.770024 
L 147.926207 698.862269 
L 149.03519 697.097519 
L 149.590507 696.45482 
L 150.700811 695.664867 
L 151.811847 695.187426 
L 153.477115 694.843237 
L 157.08531 694.639004 
L 160.972021 694.713108 
L 162.915197 695.482982 
L 164.580431 696.837354 
L 168.743717 701.024811 
L 171.242547 703.660149 
L 172.074996 704.125813 
L 173.740776 705.459821 
L 174.573179 706.231149 
L 175.406272 706.847258 
L 177.071534 707.817456 
L 178.737087 709.153606 
L 179.84689 710.800478 
L 180.681285 711.652711 
L 182.3473 714.293507 
L 182.902713 714.883391 
L 183.458383 715.100809 
L 184.012477 715.027092 
L 185.124011 714.32246 
L 186.788638 712.248559 
L 187.898258 710.618451 
L 190.674927 706.144041 
L 195.117065 698.560183 
L 196.226036 696.879993 
L 196.783297 696.315092 
L 197.336372 695.943355 
L 199.835139 695.015236 
L 201.50054 694.775504 
L 205.386948 694.606418 
L 207.885159 694.617514 
L 208.718168 694.741765 
L 210.66138 695.550949 
L 212.326822 696.905792 
L 213.992518 698.525407 
L 214.547631 699.37032 
L 216.213153 701.125942 
L 217.045905 702.221385 
L 218.713795 703.744539 
L 219.545952 704.209617 
L 221.489521 705.605516 
L 223.709974 707.122337 
L 225.375074 708.679849 
L 226.208203 709.098824 
L 227.319065 710.385841 
L 228.983775 712.78274 
L 230.372598 714.277393 
L 230.926824 714.529647 
L 231.482151 714.48074 
L 232.037298 714.212492 
L 233.147724 713.227781 
L 234.812948 711.007289 
L 235.368269 710.19978 
L 236.20142 709.355926 
L 236.757309 708.4632 
L 237.590159 707.613027 
L 239.810671 703.851416 
L 240.642435 702.948022 
L 241.75354 701.063384 
L 242.585407 700.101855 
L 244.250673 697.32702 
L 246.193863 695.764685 
L 247.30403 695.256782 
L 248.41449 694.965608 
L 250.35759 694.75162 
L 255.076365 694.61511 
L 255.909379 694.677629 
L 257.853189 695.3349 
L 258.685804 695.909981 
L 261.185201 698.189366 
L 263.682486 700.747796 
L 266.18039 703.37532 
L 267.013125 703.841253 
L 270.900029 706.715542 
L 273.397368 709.297645 
L 274.507595 711.153324 
L 275.34041 712.070843 
L 277.005643 714.92332 
L 277.8386 715.682217 
L 278.393546 715.951809 
L 278.948829 715.933211 
L 280.337169 715.305545 
L 281.447179 714.067145 
L 283.113138 711.686463 
L 285.333258 708.10771 
L 287.553968 704.374274 
L 289.2193 702.557299 
L 289.774392 701.597451 
L 290.607728 700.701808 
L 292.273286 697.828468 
L 294.217064 695.967935 
L 294.771586 695.626894 
L 297.269686 694.92067 
L 300.045726 694.672097 
L 303.376031 694.639251 
L 304.208958 694.789181 
L 305.042145 695.152132 
L 306.707249 696.293442 
L 309.205601 698.647446 
L 311.703805 701.25188 
L 314.201848 703.913992 
L 315.035209 704.377964 
L 315.589761 705.003438 
L 319.198551 708.092743 
L 321.696824 710.708671 
L 324.472561 715.166163 
L 325.027482 715.463085 
L 325.583119 715.442728 
L 326.1383 715.195382 
L 327.248526 714.20782 
L 328.358509 712.825126 
L 329.469215 711.22563 
L 331.134947 709.554164 
L 331.689646 708.64899 
L 333.355355 706.874593 
L 334.465594 704.946099 
L 336.964034 702.199179 
L 339.739565 697.397399 
L 340.850074 696.165198 
L 341.405468 695.787852 
L 343.905295 694.986697 
L 346.680602 694.714989 
L 351.398288 694.697069 
L 352.508882 694.997767 
L 353.618741 695.485884 
L 355.284548 696.884406 
L 357.782591 699.292287 
L 360.280828 701.963096 
L 361.946441 703.674693 
L 362.779574 704.13681 
L 364.722329 705.510511 
L 367.498954 707.289157 
L 368.331129 707.95821 
L 369.441443 709.567131 
L 370.27543 710.411575 
L 371.384177 712.103101 
L 371.939255 712.623061 
L 372.494958 712.774804 
L 373.051704 712.648488 
L 375.270742 711.357862 
L 376.936182 709.043524 
L 380.267468 703.610436 
L 381.932776 700.777336 
L 384.430831 698.080125 
L 384.985987 697.208994 
L 386.096331 696.072292 
L 388.594566 695.061183 
L 389.982419 694.867929 
L 391.648074 694.715203 
L 395.812096 694.619642 
L 397.755422 694.754622 
L 398.587681 695.097248 
L 400.253336 696.26331 
L 402.75147 698.574351 
L 406.915388 702.905524 
L 407.748066 703.261749 
L 408.580679 703.406228 
L 409.690784 704.297712 
L 411.356437 705.643879 
L 413.854565 708.059066 
L 414.409754 708.706176 
L 414.964812 708.934885 
L 415.519969 708.905799 
L 416.07533 708.613483 
L 416.630359 708.166756 
L 418.296005 707.071558 
L 419.128611 706.389971 
L 419.683895 705.535196 
L 420.516953 704.937016 
L 421.350125 704.512947 
L 423.015304 703.268221 
L 423.570057 702.487986 
L 424.957865 701.458026 
L 426.068459 700.22236 
L 427.179222 698.71043 
L 429.955487 696.022931 
L 431.620053 695.400302 
L 432.452611 695.258346 
L 433.00832 695.401203 
L 433.562863 695.744931 
L 435.507158 697.507681 
L 436.339426 634.728984 
L 437.171838 635.505239 
L 438.83692 638.155617 
L 443.835279 643.6363 
L 444.388822 644.634884 
L 445.221916 645.594821 
L 445.776351 646.571292 
L 446.610011 647.523828 
L 449.38588 652.342849 
L 451.050527 654.195109 
L 451.606176 655.161464 
L 452.439043 656.094415 
L 452.993638 657.058604 
L 453.826922 657.991473 
L 454.936665 659.921133 
L 456.324867 661.57107 
L 456.879843 661.881052 
L 457.712658 661.925342 
L 459.101698 661.294674 
L 459.93575 660.768026 
L 461.04335 659.343592 
L 462.709058 656.84364 
L 463.265701 655.960855 
L 464.097782 655.113732 
L 464.653603 654.21732 
L 466.317777 652.401787 
L 466.874628 651.447262 
L 471.03741 646.843109 
L 471.869723 646.207524 
L 472.703636 645.951968 
L 472.703636 645.951968 
" clip-path="url(#pdfd641a357)" style="fill: none; stroke: #1f77b4; stroke-width: 1.5; stroke-linecap: square"/>
   </g>
   <g id="patch_21">
    <path d="M 42.28 764.277656 
L 42.28 628.56 
" style="fill: none; stroke: #000000; stroke-width: 0.8; stroke-linejoin: miter; stroke-linecap: square"/>
   </g>
   <g id="patch_22">
    <path d="M 493.2 764.277656 
L 493.2 628.56 
" style="fill: none; stroke: #000000; stroke-width: 0.8; stroke-linejoin: miter; stroke-linecap: square"/>
   </g>
   <g id="patch_23">
    <path d="M 42.28 764.277656 
L 493.2 764.277656 
" style="fill: none; stroke: #000000; stroke-width: 0.8; stroke-linejoin: miter; stroke-linecap: square"/>
   </g>
   <g id="patch_24">
    <path d="M 42.28 628.56 
L 493.2 628.56 
" style="fill: none; stroke: #000000; stroke-width: 0.8; stroke-linejoin: miter; stroke-linecap: square"/>
   </g>
   <g id="text_53">
    <!-- $v_{x,e}$ (m/s) -->
    <g transform="translate(239.18 622.56) scale(0.12 -0.12)">
     <defs>
      <path id="DejaVuSans-Oblique-59" d="M 459 3500 
L 1069 3500 
L 1581 525 
L 3256 3500 
L 3866 3500 
L 1875 0 
L 1100 0 
L 459 3500 
z
" transform="scale(0.015625)"/>
      <path id="DejaVuSans-Oblique-5b" d="M 3841 3500 
L 2234 1784 
L 3219 0 
L 2559 0 
L 1819 1388 
L 531 0 
L -166 0 
L 1556 1844 
L 641 3500 
L 1300 3500 
L 1972 2234 
L 3144 3500 
L 3841 3500 
z
" transform="scale(0.015625)"/>
      <path id="DejaVuSans-f" d="M 750 794 
L 1409 794 
L 1409 256 
L 897 -744 
L 494 -744 
L 750 256 
L 750 794 
z
" transform="scale(0.015625)"/>
      <path id="DejaVuSans-12" d="M 1625 4666 
L 2156 4666 
L 531 -594 
L 0 -594 
L 1625 4666 
z
" transform="scale(0.015625)"/>
     </defs>
     <use xlink:href="#DejaVuSans-Oblique-59" transform="translate(0 0.125)"/>
     <use xlink:href="#DejaVuSans-Oblique-5b" transform="translate(59.179688 -14.874951) scale(0.7)"/>
     <use xlink:href="#DejaVuSans-f" transform="translate(100.605469 -14.874951) scale(0.7)"/>
     <use xlink:href="#DejaVuSans-Oblique-48" transform="translate(136.494141 -14.874951) scale(0.7)"/>
     <use xlink:href="#DejaVuSans-3" transform="translate(182.294922 0.125)"/>
     <use xlink:href="#DejaVuSans-b" transform="translate(214.082031 0.125)"/>
     <use xlink:href="#DejaVuSans-50" transform="translate(253.095703 0.125)"/>
     <use xlink:href="#DejaVuSans-12" transform="translate(350.507812 0.125)"/>
     <use xlink:href="#DejaVuSans-56" transform="translate(384.199219 0.125)"/>
     <use xlink:href="#DejaVuSans-c" transform="translate(436.298828 0.125)"/>
    </g>
   </g>
   <g id="legend_4">
    <g id="patch_25">
     <path d="M 49.28 651.560781 
L 99.58 651.560781 
Q 101.58 651.560781 101.58 649.560781 
L 101.58 635.56 
Q 101.58 633.56 99.58 633.56 
L 49.28 633.56 
Q 47.28 633.56 47.28 635.56 
L 47.28 649.560781 
Q 47.28 651.560781 49.28 651.560781 
z
" style="fill: #ffffff; opacity: 0.8; stroke: #cccccc; stroke-linejoin: miter"/>
    </g>
    <g id="line2d_92">
     <path d="M 51.28 641.658438 
L 61.28 641.658438 
L 71.28 641.658438 
" style="fill: none; stroke: #1f77b4; stroke-width: 1.5; stroke-linecap: square"/>
    </g>
    <g id="text_54">
     <!-- $v_{x,e}$ -->
     <g transform="translate(79.28 645.158438) scale(0.1 -0.1)">
      <use xlink:href="#DejaVuSans-Oblique-59" transform="translate(0 0.3125)"/>
      <use xlink:href="#DejaVuSans-Oblique-5b" transform="translate(59.179688 -14.687451) scale(0.7)"/>
      <use xlink:href="#DejaVuSans-f" transform="translate(100.605469 -14.687451) scale(0.7)"/>
      <use xlink:href="#DejaVuSans-Oblique-48" transform="translate(136.494141 -14.687451) scale(0.7)"/>
     </g>
    </g>
   </g>
  </g>
  <g id="text_55">
   <!-- QCar2 States Error -->
   <g transform="translate(195.679688 25.245188) scale(0.12 -0.12)">
    <defs>
     <path id="DejaVuSans-34" d="M 2522 4238 
Q 1834 4238 1429 3725 
Q 1025 3213 1025 2328 
Q 1025 1447 1429 934 
Q 1834 422 2522 422 
Q 3209 422 3611 934 
Q 4013 1447 4013 2328 
Q 4013 3213 3611 3725 
Q 3209 4238 2522 4238 
z
M 3406 84 
L 4238 -825 
L 3475 -825 
L 2784 -78 
Q 2681 -84 2626 -87 
Q 2572 -91 2522 -91 
Q 1538 -91 948 567 
Q 359 1225 359 2328 
Q 359 3434 948 4092 
Q 1538 4750 2522 4750 
Q 3503 4750 4090 4092 
Q 4678 3434 4678 2328 
Q 4678 1516 4351 937 
Q 4025 359 3406 84 
z
" transform="scale(0.015625)"/>
     <path id="DejaVuSans-26" d="M 4122 4306 
L 4122 3641 
Q 3803 3938 3442 4084 
Q 3081 4231 2675 4231 
Q 1875 4231 1450 3742 
Q 1025 3253 1025 2328 
Q 1025 1406 1450 917 
Q 1875 428 2675 428 
Q 3081 428 3442 575 
Q 3803 722 4122 1019 
L 4122 359 
Q 3791 134 3420 21 
Q 3050 -91 2638 -91 
Q 1578 -91 968 557 
Q 359 1206 359 2328 
Q 359 3453 968 4101 
Q 1578 4750 2638 4750 
Q 3056 4750 3426 4639 
Q 3797 4528 4122 4306 
z
" transform="scale(0.015625)"/>
     <path id="DejaVuSans-36" d="M 3425 4513 
L 3425 3897 
Q 3066 4069 2747 4153 
Q 2428 4238 2131 4238 
Q 1616 4238 1336 4038 
Q 1056 3838 1056 3469 
Q 1056 3159 1242 3001 
Q 1428 2844 1947 2747 
L 2328 2669 
Q 3034 2534 3370 2195 
Q 3706 1856 3706 1288 
Q 3706 609 3251 259 
Q 2797 -91 1919 -91 
Q 1588 -91 1214 -16 
Q 841 59 441 206 
L 441 856 
Q 825 641 1194 531 
Q 1563 422 1919 422 
Q 2459 422 2753 634 
Q 3047 847 3047 1241 
Q 3047 1584 2836 1778 
Q 2625 1972 2144 2069 
L 1759 2144 
Q 1053 2284 737 2584 
Q 422 2884 422 3419 
Q 422 4038 858 4394 
Q 1294 4750 2059 4750 
Q 2388 4750 2728 4690 
Q 3069 4631 3425 4513 
z
" transform="scale(0.015625)"/>
     <path id="DejaVuSans-48" d="M 3597 1894 
L 3597 1613 
L 953 1613 
Q 991 1019 1311 708 
Q 1631 397 2203 397 
Q 2534 397 2845 478 
Q 3156 559 3463 722 
L 3463 178 
Q 3153 47 2828 -22 
Q 2503 -91 2169 -91 
Q 1331 -91 842 396 
Q 353 884 353 1716 
Q 353 2575 817 3079 
Q 1281 3584 2069 3584 
Q 2775 3584 3186 3129 
Q 3597 2675 3597 1894 
z
M 3022 2063 
Q 3016 2534 2758 2815 
Q 2500 3097 2075 3097 
Q 1594 3097 1305 2825 
Q 1016 2553 972 2059 
L 3022 2063 
z
" transform="scale(0.015625)"/>
     <path id="DejaVuSans-28" d="M 628 4666 
L 3578 4666 
L 3578 4134 
L 1259 4134 
L 1259 2753 
L 3481 2753 
L 3481 2222 
L 1259 2222 
L 1259 531 
L 3634 531 
L 3634 0 
L 628 0 
L 628 4666 
z
" transform="scale(0.015625)"/>
     <path id="DejaVuSans-52" d="M 1959 3097 
Q 1497 3097 1228 2736 
Q 959 2375 959 1747 
Q 959 1119 1226 758 
Q 1494 397 1959 397 
Q 2419 397 2687 759 
Q 2956 1122 2956 1747 
Q 2956 2369 2687 2733 
Q 2419 3097 1959 3097 
z
M 1959 3584 
Q 2709 3584 3137 3096 
Q 3566 2609 3566 1747 
Q 3566 888 3137 398 
Q 2709 -91 1959 -91 
Q 1206 -91 779 398 
Q 353 888 353 1747 
Q 353 2609 779 3096 
Q 1206 3584 1959 3584 
z
" transform="scale(0.015625)"/>
    </defs>
    <use xlink:href="#DejaVuSans-34"/>
    <use xlink:href="#DejaVuSans-26" transform="translate(78.71875 0)"/>
    <use xlink:href="#DejaVuSans-44" transform="translate(148.546875 0)"/>
    <use xlink:href="#DejaVuSans-55" transform="translate(209.828125 0)"/>
    <use xlink:href="#DejaVuSans-15" transform="translate(250.9375 0)"/>
    <use xlink:href="#DejaVuSans-3" transform="translate(314.5625 0)"/>
    <use xlink:href="#DejaVuSans-36" transform="translate(346.34375 0)"/>
    <use xlink:href="#DejaVuSans-57" transform="translate(409.828125 0)"/>
    <use xlink:href="#DejaVuSans-44" transform="translate(449.03125 0)"/>
    <use xlink:href="#DejaVuSans-57" transform="translate(510.3125 0)"/>
    <use xlink:href="#DejaVuSans-48" transform="translate(549.515625 0)"/>
    <use xlink:href="#DejaVuSans-56" transform="translate(611.046875 0)"/>
    <use xlink:href="#DejaVuSans-3" transform="translate(663.140625 0)"/>
    <use xlink:href="#DejaVuSans-28" transform="translate(694.921875 0)"/>
    <use xlink:href="#DejaVuSans-55" transform="translate(758.109375 0)"/>
    <use xlink:href="#DejaVuSans-55" transform="translate(797.46875 0)"/>
    <use xlink:href="#DejaVuSans-52" transform="translate(836.375 0)"/>
    <use xlink:href="#DejaVuSans-55" transform="translate(897.5625 0)"/>
   </g>
  </g>
 </g>
 <defs>
  <clipPath id="p7f9f60523e">
   <rect x="42.28" y="48.96" width="450.92" height="135.717656"/>
  </clipPath>
  <clipPath id="p71098fd9f5">
   <rect x="42.28" y="242.16" width="450.92" height="135.717656"/>
  </clipPath>
  <clipPath id="p0284fb5a53">
   <rect x="42.28" y="435.36" width="450.92" height="135.717656"/>
  </clipPath>
  <clipPath id="pdfd641a357">
   <rect x="42.28" y="628.56" width="450.92" height="135.717656"/>
  </clipPath>
 </defs>
</svg>
