<?xml version="1.0" encoding="utf-8" standalone="no"?>
<!DOCTYPE svg PUBLIC "-//W3C//DTD SVG 1.1//EN"
  "http://www.w3.org/Graphics/SVG/1.1/DTD/svg11.dtd">
<svg xmlns:xlink="http://www.w3.org/1999/xlink" width="504pt" height="806.4pt" viewBox="0 0 504 806.4" xmlns="http://www.w3.org/2000/svg" version="1.1">
 <metadata>
  <rdf:RDF xmlns:dc="http://purl.org/dc/elements/1.1/" xmlns:cc="http://creativecommons.org/ns#" xmlns:rdf="http://www.w3.org/1999/02/22-rdf-syntax-ns#">
   <cc:Work>
    <dc:type rdf:resource="http://purl.org/dc/dcmitype/StillImage"/>
    <dc:date>2026-07-10T12:54:47.710567</dc:date>
    <dc:format>image/svg+xml</dc:format>
    <dc:creator>
     <cc:Agent>
      <dc:title>Matplotlib v3.11.0, https://matplotlib.org/</dc:title>
     </cc:Agent>
    </dc:creator>
   </cc:Work>
  </rdf:RDF>
 </metadata>
 <defs>
  <style type="text/css">*{stroke-linejoin: round; stroke-linecap: butt}</style>
 </defs>
 <g id="figure_1">
  <g id="patch_1">
   <path d="M 0 806.4 
L 504 806.4 
L 504 0 
L 0 0 
z
" style="fill: #ffffff"/>
  </g>
  <g id="axes_1">
   <g id="patch_2">
    <path d="M 42.28 184.677656 
L 493.2 184.677656 
L 493.2 48.96 
L 42.28 48.96 
z
" style="fill: #ffffff"/>
   </g>
   <g id="matplotlib.axis_1">
    <g id="xtick_1">
     <g id="line2d_1">
      <path d="M 62.77636 184.677656 
L 62.77636 48.96 
" clip-path="url(#pc85491ff39)" style="fill: none; stroke: #b0b0b0; stroke-width: 0.8; stroke-linecap: square"/>
     </g>
     <g id="line2d_2">
      <defs>
       <path id="m1673a51937" d="M 0 0 
L 0 3.5 
" style="stroke: #000000; stroke-width: 0.8"/>
      </defs>
      <g>
       <use xlink:href="#m1673a51937" x="62.77636" y="184.677656" style="stroke: #000000; stroke-width: 0.8"/>
      </g>
     </g>
     <g id="text_1">
      <!-- 0 -->
      <g transform="translate(59.59511 199.275313) scale(0.1 -0.1)">
       <defs>
        <path id="DejaVuSans-13" d="M 2034 4250 
Q 1547 4250 1301 3770 
Q 1056 3291 1056 2328 
Q 1056 1369 1301 889 
Q 1547 409 2034 409 
Q 2525 409 2770 889 
Q 3016 1369 3016 2328 
Q 3016 3291 2770 3770 
Q 2525 4250 2034 4250 
z
M 2034 4750 
Q 2819 4750 3233 4129 
Q 3647 3509 3647 2328 
Q 3647 1150 3233 529 
Q 2819 -91 2034 -91 
Q 1250 -91 836 529 
Q 422 1150 422 2328 
Q 422 3509 836 4129 
Q 1250 4750 2034 4750 
z
" transform="scale(0.015625)"/>
       </defs>
       <use xlink:href="#DejaVuSans-13"/>
      </g>
     </g>
    </g>
    <g id="xtick_2">
     <g id="line2d_3">
      <path d="M 146.050781 184.677656 
L 146.050781 48.96 
" clip-path="url(#pc85491ff39)" style="fill: none; stroke: #b0b0b0; stroke-width: 0.8; stroke-linecap: square"/>
     </g>
     <g id="line2d_4">
      <g>
       <use xlink:href="#m1673a51937" x="146.050781" y="184.677656" style="stroke: #000000; stroke-width: 0.8"/>
      </g>
     </g>
     <g id="text_2">
      <!-- 10 -->
      <g transform="translate(139.688281 199.275313) scale(0.1 -0.1)">
       <defs>
        <path id="DejaVuSans-14" d="M 794 531 
L 1825 531 
L 1825 4091 
L 703 3866 
L 703 4441 
L 1819 4666 
L 2450 4666 
L 2450 531 
L 3481 531 
L 3481 0 
L 794 0 
L 794 531 
z
" transform="scale(0.015625)"/>
       </defs>
       <use xlink:href="#DejaVuSans-14"/>
       <use xlink:href="#DejaVuSans-13" transform="translate(63.625 0)"/>
      </g>
     </g>
    </g>
    <g id="xtick_3">
     <g id="line2d_5">
      <path d="M 229.325202 184.677656 
L 229.325202 48.96 
" clip-path="url(#pc85491ff39)" style="fill: none; stroke: #b0b0b0; stroke-width: 0.8; stroke-linecap: square"/>
     </g>
     <g id="line2d_6">
      <g>
       <use xlink:href="#m1673a51937" x="229.325202" y="184.677656" style="stroke: #000000; stroke-width: 0.8"/>
      </g>
     </g>
     <g id="text_3">
      <!-- 20 -->
      <g transform="translate(222.962702 199.275313) scale(0.1 -0.1)">
       <defs>
        <path id="DejaVuSans-15" d="M 1228 531 
L 3431 531 
L 3431 0 
L 469 0 
L 469 531 
Q 828 903 1448 1529 
Q 2069 2156 2228 2338 
Q 2531 2678 2651 2914 
Q 2772 3150 2772 3378 
Q 2772 3750 2511 3984 
Q 2250 4219 1831 4219 
Q 1534 4219 1204 4116 
Q 875 4013 500 3803 
L 500 4441 
Q 881 4594 1212 4672 
Q 1544 4750 1819 4750 
Q 2544 4750 2975 4387 
Q 3406 4025 3406 3419 
Q 3406 3131 3298 2873 
Q 3191 2616 2906 2266 
Q 2828 2175 2409 1742 
Q 1991 1309 1228 531 
z
" transform="scale(0.015625)"/>
       </defs>
       <use xlink:href="#DejaVuSans-15"/>
       <use xlink:href="#DejaVuSans-13" transform="translate(63.625 0)"/>
      </g>
     </g>
    </g>
    <g id="xtick_4">
     <g id="line2d_7">
      <path d="M 312.599622 184.677656 
L 312.599622 48.96 
" clip-path="url(#pc85491ff39)" style="fill: none; stroke: #b0b0b0; stroke-width: 0.8; stroke-linecap: square"/>
     </g>
     <g id="line2d_8">
      <g>
       <use xlink:href="#m1673a51937" x="312.599622" y="184.677656" style="stroke: #000000; stroke-width: 0.8"/>
      </g>
     </g>
     <g id="text_4">
      <!-- 30 -->
      <g transform="translate(306.237122 199.275313) scale(0.1 -0.1)">
       <defs>
        <path id="DejaVuSans-16" d="M 2597 2516 
Q 3050 2419 3304 2112 
Q 3559 1806 3559 1356 
Q 3559 666 3084 287 
Q 2609 -91 1734 -91 
Q 1441 -91 1130 -33 
Q 819 25 488 141 
L 488 750 
Q 750 597 1062 519 
Q 1375 441 1716 441 
Q 2309 441 2620 675 
Q 2931 909 2931 1356 
Q 2931 1769 2642 2001 
Q 2353 2234 1838 2234 
L 1294 2234 
L 1294 2753 
L 1863 2753 
Q 2328 2753 2575 2939 
Q 2822 3125 2822 3475 
Q 2822 3834 2567 4026 
Q 2313 4219 1838 4219 
Q 1578 4219 1281 4162 
Q 984 4106 628 3988 
L 628 4550 
Q 988 4650 1302 4700 
Q 1616 4750 1894 4750 
Q 2613 4750 3031 4423 
Q 3450 4097 3450 3541 
Q 3450 3153 3228 2886 
Q 3006 2619 2597 2516 
z
" transform="scale(0.015625)"/>
       </defs>
       <use xlink:href="#DejaVuSans-16"/>
       <use xlink:href="#DejaVuSans-13" transform="translate(63.625 0)"/>
      </g>
     </g>
    </g>
    <g id="xtick_5">
     <g id="line2d_9">
      <path d="M 395.874043 184.677656 
L 395.874043 48.96 
" clip-path="url(#pc85491ff39)" style="fill: none; stroke: #b0b0b0; stroke-width: 0.8; stroke-linecap: square"/>
     </g>
     <g id="line2d_10">
      <g>
       <use xlink:href="#m1673a51937" x="395.874043" y="184.677656" style="stroke: #000000; stroke-width: 0.8"/>
      </g>
     </g>
     <g id="text_5">
      <!-- 40 -->
      <g transform="translate(389.511543 199.275313) scale(0.1 -0.1)">
       <defs>
        <path id="DejaVuSans-17" d="M 2419 4116 
L 825 1625 
L 2419 1625 
L 2419 4116 
z
M 2253 4666 
L 3047 4666 
L 3047 1625 
L 3713 1625 
L 3713 1100 
L 3047 1100 
L 3047 0 
L 2419 0 
L 2419 1100 
L 313 1100 
L 313 1709 
L 2253 4666 
z
" transform="scale(0.015625)"/>
       </defs>
       <use xlink:href="#DejaVuSans-17"/>
       <use xlink:href="#DejaVuSans-13" transform="translate(63.625 0)"/>
      </g>
     </g>
    </g>
    <g id="xtick_6">
     <g id="line2d_11">
      <path d="M 479.148464 184.677656 
L 479.148464 48.96 
" clip-path="url(#pc85491ff39)" style="fill: none; stroke: #b0b0b0; stroke-width: 0.8; stroke-linecap: square"/>
     </g>
     <g id="line2d_12">
      <g>
       <use xlink:href="#m1673a51937" x="479.148464" y="184.677656" style="stroke: #000000; stroke-width: 0.8"/>
      </g>
     </g>
     <g id="text_6">
      <!-- 50 -->
      <g transform="translate(472.785964 199.275313) scale(0.1 -0.1)">
       <defs>
        <path id="DejaVuSans-18" d="M 691 4666 
L 3169 4666 
L 3169 4134 
L 1269 4134 
L 1269 2991 
Q 1406 3038 1543 3061 
Q 1681 3084 1819 3084 
Q 2600 3084 3056 2656 
Q 3513 2228 3513 1497 
Q 3513 744 3044 326 
Q 2575 -91 1722 -91 
Q 1428 -91 1123 -41 
Q 819 9 494 109 
L 494 744 
Q 775 591 1075 516 
Q 1375 441 1709 441 
Q 2250 441 2565 725 
Q 2881 1009 2881 1497 
Q 2881 1984 2565 2268 
Q 2250 2553 1709 2553 
Q 1456 2553 1204 2497 
Q 953 2441 691 2322 
L 691 4666 
z
" transform="scale(0.015625)"/>
       </defs>
       <use xlink:href="#DejaVuSans-18"/>
       <use xlink:href="#DejaVuSans-13" transform="translate(63.625 0)"/>
      </g>
     </g>
    </g>
    <g id="text_7">
     <!-- t (s) -->
     <g transform="translate(257.684531 213.275313) scale(0.1 -0.1)">
      <defs>
       <path id="DejaVuSans-57" d="M 1172 4494 
L 1172 3500 
L 2356 3500 
L 2356 3053 
L 1172 3053 
L 1172 1153 
Q 1172 725 1289 603 
Q 1406 481 1766 481 
L 2356 481 
L 2356 0 
L 1766 0 
Q 1100 0 847 248 
Q 594 497 594 1153 
L 594 3053 
L 172 3053 
L 172 3500 
L 594 3500 
L 594 4494 
L 1172 4494 
z
" transform="scale(0.015625)"/>
       <path id="DejaVuSans-3" transform="scale(0.015625)"/>
       <path id="DejaVuSans-b" d="M 1984 4856 
Q 1566 4138 1362 3434 
Q 1159 2731 1159 2009 
Q 1159 1288 1364 580 
Q 1569 -128 1984 -844 
L 1484 -844 
Q 1016 -109 783 600 
Q 550 1309 550 2009 
Q 550 2706 781 3412 
Q 1013 4119 1484 4856 
L 1984 4856 
z
" transform="scale(0.015625)"/>
       <path id="DejaVuSans-56" d="M 2834 3397 
L 2834 2853 
Q 2591 2978 2328 3040 
Q 2066 3103 1784 3103 
Q 1356 3103 1142 2972 
Q 928 2841 928 2578 
Q 928 2378 1081 2264 
Q 1234 2150 1697 2047 
L 1894 2003 
Q 2506 1872 2764 1633 
Q 3022 1394 3022 966 
Q 3022 478 2636 193 
Q 2250 -91 1575 -91 
Q 1294 -91 989 -36 
Q 684 19 347 128 
L 347 722 
Q 666 556 975 473 
Q 1284 391 1588 391 
Q 1994 391 2212 530 
Q 2431 669 2431 922 
Q 2431 1156 2273 1281 
Q 2116 1406 1581 1522 
L 1381 1569 
Q 847 1681 609 1914 
Q 372 2147 372 2553 
Q 372 3047 722 3315 
Q 1072 3584 1716 3584 
Q 2034 3584 2315 3537 
Q 2597 3491 2834 3397 
z
" transform="scale(0.015625)"/>
       <path id="DejaVuSans-c" d="M 513 4856 
L 1013 4856 
Q 1481 4119 1714 3412 
Q 1947 2706 1947 2009 
Q 1947 1309 1714 600 
Q 1481 -109 1013 -844 
L 513 -844 
Q 928 -128 1133 580 
Q 1338 1288 1338 2009 
Q 1338 2731 1133 3434 
Q 928 4138 513 4856 
z
" transform="scale(0.015625)"/>
      </defs>
      <use xlink:href="#DejaVuSans-57"/>
      <use xlink:href="#DejaVuSans-3" transform="translate(39.203125 0)"/>
      <use xlink:href="#DejaVuSans-b" transform="translate(70.984375 0)"/>
      <use xlink:href="#DejaVuSans-56" transform="translate(110 0)"/>
      <use xlink:href="#DejaVuSans-c" transform="translate(162.09375 0)"/>
     </g>
    </g>
   </g>
   <g id="matplotlib.axis_2">
    <g id="ytick_1">
     <g id="line2d_13">
      <path d="M 42.28 178.508672 
L 493.2 178.508672 
" clip-path="url(#pc85491ff39)" style="fill: none; stroke: #b0b0b0; stroke-width: 0.8; stroke-linecap: square"/>
     </g>
     <g id="line2d_14">
      <defs>
       <path id="mc203422f7e" d="M 0 0 
L -3.5 0 
" style="stroke: #000000; stroke-width: 0.8"/>
      </defs>
      <g>
       <use xlink:href="#mc203422f7e" x="42.28" y="178.508672" style="stroke: #000000; stroke-width: 0.8"/>
      </g>
     </g>
     <g id="text_8">
      <!-- 0 -->
      <g transform="translate(28.9175 182.3075) scale(0.1 -0.1)">
       <use xlink:href="#DejaVuSans-13"/>
      </g>
     </g>
    </g>
    <g id="ytick_2">
     <g id="line2d_15">
      <path d="M 42.28 138.89134 
L 493.2 138.89134 
" clip-path="url(#pc85491ff39)" style="fill: none; stroke: #b0b0b0; stroke-width: 0.8; stroke-linecap: square"/>
     </g>
     <g id="line2d_16">
      <g>
       <use xlink:href="#mc203422f7e" x="42.28" y="138.89134" style="stroke: #000000; stroke-width: 0.8"/>
      </g>
     </g>
     <g id="text_9">
      <!-- 10 -->
      <g transform="translate(22.555 142.690169) scale(0.1 -0.1)">
       <use xlink:href="#DejaVuSans-14"/>
       <use xlink:href="#DejaVuSans-13" transform="translate(63.625 0)"/>
      </g>
     </g>
    </g>
    <g id="ytick_3">
     <g id="line2d_17">
      <path d="M 42.28 99.274009 
L 493.2 99.274009 
" clip-path="url(#pc85491ff39)" style="fill: none; stroke: #b0b0b0; stroke-width: 0.8; stroke-linecap: square"/>
     </g>
     <g id="line2d_18">
      <g>
       <use xlink:href="#mc203422f7e" x="42.28" y="99.274009" style="stroke: #000000; stroke-width: 0.8"/>
      </g>
     </g>
     <g id="text_10">
      <!-- 20 -->
      <g transform="translate(22.555 103.072837) scale(0.1 -0.1)">
       <use xlink:href="#DejaVuSans-15"/>
       <use xlink:href="#DejaVuSans-13" transform="translate(63.625 0)"/>
      </g>
     </g>
    </g>
    <g id="ytick_4">
     <g id="line2d_19">
      <path d="M 42.28 59.656677 
L 493.2 59.656677 
" clip-path="url(#pc85491ff39)" style="fill: none; stroke: #b0b0b0; stroke-width: 0.8; stroke-linecap: square"/>
     </g>
     <g id="line2d_20">
      <g>
       <use xlink:href="#mc203422f7e" x="42.28" y="59.656677" style="stroke: #000000; stroke-width: 0.8"/>
      </g>
     </g>
     <g id="text_11">
      <!-- 30 -->
      <g transform="translate(22.555 63.455505) scale(0.1 -0.1)">
       <use xlink:href="#DejaVuSans-16"/>
       <use xlink:href="#DejaVuSans-13" transform="translate(63.625 0)"/>
      </g>
     </g>
    </g>
   </g>
   <g id="line2d_21">
    <path d="M 62.776364 178.508672 
L 67.699333 178.407647 
L 72.697189 178.092682 
L 77.692116 177.563789 
L 82.69196 176.820475 
L 87.689866 175.863572 
L 92.686938 174.692838 
L 97.683416 173.308208 
L 102.679916 171.709644 
L 107.675735 169.897132 
L 112.671556 167.870594 
L 117.668484 165.842572 
L 124.330601 164.05532 
L 128.494974 163.454142 
L 132.102312 162.477971 
L 137.098844 161.163978 
L 142.374063 160.191167 
L 145.427687 159.22607 
L 147.926207 158.170623 
L 157.641535 153.563208 
L 164.580431 150.368647 
L 166.245537 149.81416 
L 168.743717 149.023918 
L 170.409585 148.523754 
L 174.573179 147.602657 
L 177.071534 146.865809 
L 179.29275 146.350809 
L 187.34321 144.099899 
L 190.674927 143.599405 
L 192.895197 143.080378 
L 195.117065 142.373808 
L 197.336372 141.450635 
L 204.832226 137.912722 
L 212.326822 134.464114 
L 214.547631 133.769004 
L 217.880784 132.732015 
L 221.489521 132.080827 
L 233.147724 128.583953 
L 234.812948 128.227324 
L 238.699053 127.604639 
L 239.810671 127.36739 
L 243.140392 126.297176 
L 246.193863 124.944572 
L 260.351052 118.399031 
L 266.18039 116.703465 
L 267.84591 116.446324 
L 269.788907 115.904405 
L 272.564618 115.043186 
L 275.34041 114.3307 
L 281.447179 112.572098 
L 283.113138 112.301208 
L 284.778182 112.05499 
L 287.553968 111.489393 
L 289.774392 110.881004 
L 292.273286 109.887896 
L 298.379799 107.021751 
L 307.539887 102.784232 
L 310.039984 101.999899 
L 313.370698 100.964732 
L 317.255836 100.245604 
L 323.917339 98.289658 
L 328.358509 97.005258 
L 330.301945 96.714261 
L 331.689646 96.572178 
L 334.465594 95.923143 
L 336.13127 95.448797 
L 339.184793 94.2361 
L 345.568831 91.226481 
L 354.451191 87.07373 
L 356.117045 86.489499 
L 358.615342 85.723846 
L 360.280828 85.162775 
L 361.946441 84.811712 
L 363.612265 84.574524 
L 365.832875 83.956372 
L 369.441443 82.828072 
L 374.438025 81.247348 
L 376.380832 80.861858 
L 378.601735 80.493014 
L 380.82212 79.995621 
L 382.765327 79.39828 
L 385.541838 78.260383 
L 393.591185 74.453028 
L 400.253336 71.351659 
L 401.918588 70.73718 
L 407.748066 69.097054 
L 409.690784 68.847512 
L 411.356437 68.406308 
L 418.296005 66.170451 
L 421.350125 65.623525 
L 426.068459 64.08687 
L 429.399275 62.576004 
L 436.339426 59.388976 
L 441.335491 57.380446 
L 445.776351 55.835229 
L 447.719693 55.385192 
L 449.38588 55.178018 
L 451.606176 55.144596 
L 454.381759 55.412478 
L 456.879843 55.836778 
L 460.490764 56.725313 
L 464.653603 57.813844 
L 468.540428 58.601198 
L 472.703636 59.495031 
L 472.703636 59.495031 
" clip-path="url(#pc85491ff39)" style="fill: none; stroke: #1f77b4; stroke-width: 1.5; stroke-linecap: square"/>
   </g>
   <g id="line2d_22">
    <path d="M 62.776364 178.508672 
L 67.699333 178.407647 
L 72.697189 178.092682 
L 77.692116 177.563789 
L 82.69196 176.820475 
L 87.689866 175.863572 
L 92.686938 174.692838 
L 97.683416 173.308208 
L 102.679916 171.709644 
L 107.675735 169.897132 
L 112.671556 167.870594 
L 117.668484 165.842572 
L 124.330601 164.05532 
L 128.494974 163.454142 
L 132.102312 162.477971 
L 137.098844 161.163978 
L 142.374063 160.191167 
L 145.427687 159.22607 
L 147.926207 158.170623 
L 157.641535 153.563208 
L 164.580431 150.368647 
L 166.245537 149.81416 
L 168.743717 149.023918 
L 170.409585 148.523754 
L 174.573179 147.602657 
L 177.071534 146.865809 
L 179.29275 146.350809 
L 187.34321 144.099899 
L 190.674927 143.599405 
L 192.895197 143.080378 
L 195.117065 142.373808 
L 197.336372 141.450635 
L 204.832226 137.912722 
L 212.326822 134.464114 
L 214.547631 133.769004 
L 217.880784 132.732015 
L 221.489521 132.080827 
L 233.147724 128.583953 
L 234.812948 128.227324 
L 238.699053 127.604639 
L 239.810671 127.36739 
L 243.140392 126.297176 
L 246.193863 124.944572 
L 260.351052 118.399031 
L 266.18039 116.703465 
L 267.84591 116.446324 
L 269.788907 115.904405 
L 272.564618 115.043186 
L 275.34041 114.3307 
L 281.447179 112.572098 
L 283.113138 112.301208 
L 284.778182 112.05499 
L 287.553968 111.489393 
L 289.774392 110.881004 
L 292.273286 109.887896 
L 298.379799 107.021751 
L 307.539887 102.784232 
L 310.039984 101.999899 
L 313.370698 100.964732 
L 317.255836 100.245604 
L 323.917339 98.289658 
L 328.358509 97.005258 
L 330.301945 96.714261 
L 331.689646 96.572178 
L 334.465594 95.923143 
L 336.13127 95.448797 
L 339.184793 94.2361 
L 345.568831 91.226481 
L 354.451191 87.07373 
L 356.117045 86.489499 
L 358.615342 85.723846 
L 360.280828 85.162775 
L 361.946441 84.811712 
L 363.612265 84.574524 
L 365.832875 83.956372 
L 369.441443 82.828072 
L 374.438025 81.247348 
L 376.380832 80.861858 
L 378.601735 80.493014 
L 380.82212 79.995621 
L 382.765327 79.39828 
L 385.541838 78.260383 
L 393.591185 74.453028 
L 400.253336 71.351659 
L 401.918588 70.73718 
L 407.748066 69.097054 
L 409.690784 68.847512 
L 411.356437 68.406308 
L 418.296005 66.170451 
L 421.350125 65.623525 
L 426.068459 64.08687 
L 429.399275 62.576004 
L 435.507158 59.748805 
L 437.171838 59.656677 
L 472.703636 59.656677 
L 472.703636 59.656677 
" clip-path="url(#pc85491ff39)" style="fill: none; stroke-dasharray: 9.6,2.4,1.5,2.4; stroke-dashoffset: 0; stroke: #ff7f0e; stroke-width: 1.5"/>
   </g>
   <g id="patch_3">
    <path d="M 42.28 184.677656 
L 42.28 48.96 
" style="fill: none; stroke: #000000; stroke-width: 0.8; stroke-linejoin: miter; stroke-linecap: square"/>
   </g>
   <g id="patch_4">
    <path d="M 493.2 184.677656 
L 493.2 48.96 
" style="fill: none; stroke: #000000; stroke-width: 0.8; stroke-linejoin: miter; stroke-linecap: square"/>
   </g>
   <g id="patch_5">
    <path d="M 42.28 184.677656 
L 493.2 184.677656 
" style="fill: none; stroke: #000000; stroke-width: 0.8; stroke-linejoin: miter; stroke-linecap: square"/>
   </g>
   <g id="patch_6">
    <path d="M 42.28 48.96 
L 493.2 48.96 
" style="fill: none; stroke: #000000; stroke-width: 0.8; stroke-linejoin: miter; stroke-linecap: square"/>
   </g>
   <g id="text_12">
    <!-- $X$ (m) -->
    <g transform="translate(251.18 42.96) scale(0.12 -0.12)">
     <defs>
      <path id="DejaVuSans-Oblique-3b" d="M 878 4666 
L 1516 4666 
L 2316 2981 
L 3763 4666 
L 4500 4666 
L 2578 2438 
L 3738 0 
L 3103 0 
L 2163 1966 
L 459 0 
L -275 0 
L 1906 2509 
L 878 4666 
z
" transform="scale(0.015625)"/>
      <path id="DejaVuSans-50" d="M 3328 2828 
Q 3544 3216 3844 3400 
Q 4144 3584 4550 3584 
Q 5097 3584 5394 3201 
Q 5691 2819 5691 2113 
L 5691 0 
L 5113 0 
L 5113 2094 
Q 5113 2597 4934 2840 
Q 4756 3084 4391 3084 
Q 3944 3084 3684 2787 
Q 3425 2491 3425 1978 
L 3425 0 
L 2847 0 
L 2847 2094 
Q 2847 2600 2669 2842 
Q 2491 3084 2119 3084 
Q 1678 3084 1418 2786 
Q 1159 2488 1159 1978 
L 1159 0 
L 581 0 
L 581 3500 
L 1159 3500 
L 1159 2956 
Q 1356 3278 1631 3431 
Q 1906 3584 2284 3584 
Q 2666 3584 2933 3390 
Q 3200 3197 3328 2828 
z
" transform="scale(0.015625)"/>
     </defs>
     <use xlink:href="#DejaVuSans-Oblique-3b" transform="translate(0 0.125)"/>
     <use xlink:href="#DejaVuSans-3" transform="translate(68.505859 0.125)"/>
     <use xlink:href="#DejaVuSans-b" transform="translate(100.292969 0.125)"/>
     <use xlink:href="#DejaVuSans-50" transform="translate(139.306641 0.125)"/>
     <use xlink:href="#DejaVuSans-c" transform="translate(236.71875 0.125)"/>
    </g>
   </g>
   <g id="legend_1">
    <g id="patch_7">
     <path d="M 49.28 86.961563 
L 98.08 86.961563 
Q 100.08 86.961563 100.08 84.961563 
L 100.08 55.96 
Q 100.08 53.96 98.08 53.96 
L 49.28 53.96 
Q 47.28 53.96 47.28 55.96 
L 47.28 84.961563 
Q 47.28 86.961563 49.28 86.961563 
z
" style="fill: #ffffff; opacity: 0.8; stroke: #cccccc; stroke-linejoin: miter"/>
    </g>
    <g id="line2d_23">
     <path d="M 51.28 62.058438 
L 61.28 62.058438 
L 71.28 62.058438 
" style="fill: none; stroke: #1f77b4; stroke-width: 1.5; stroke-linecap: square"/>
    </g>
    <g id="text_13">
     <!-- $X$ -->
     <g transform="translate(79.28 65.558438) scale(0.1 -0.1)">
      <use xlink:href="#DejaVuSans-Oblique-3b" transform="translate(0 0.09375)"/>
     </g>
    </g>
    <g id="line2d_24">
     <path d="M 51.28 77.059219 
L 61.28 77.059219 
L 71.28 77.059219 
" style="fill: none; stroke-dasharray: 9.6,2.4,1.5,2.4; stroke-dashoffset: 0; stroke: #ff7f0e; stroke-width: 1.5"/>
    </g>
    <g id="text_14">
     <!-- $X_{ref}$ -->
     <g transform="translate(79.28 80.559219) scale(0.1 -0.1)">
      <defs>
       <path id="DejaVuSans-Oblique-55" d="M 2853 2969 
Q 2766 3016 2653 3041 
Q 2541 3066 2413 3066 
Q 1953 3066 1609 2717 
Q 1266 2369 1153 1784 
L 800 0 
L 225 0 
L 909 3500 
L 1484 3500 
L 1375 2956 
Q 1603 3259 1920 3421 
Q 2238 3584 2597 3584 
Q 2691 3584 2781 3573 
Q 2872 3563 2963 3538 
L 2853 2969 
z
" transform="scale(0.015625)"/>
       <path id="DejaVuSans-Oblique-48" d="M 3078 2063 
Q 3088 2113 3092 2166 
Q 3097 2219 3097 2272 
Q 3097 2653 2873 2875 
Q 2650 3097 2266 3097 
Q 1838 3097 1509 2826 
Q 1181 2556 1013 2059 
L 3078 2063 
z
M 3578 1613 
L 903 1613 
Q 884 1494 878 1425 
Q 872 1356 872 1306 
Q 872 872 1139 634 
Q 1406 397 1894 397 
Q 2269 397 2603 481 
Q 2938 566 3225 728 
L 3116 159 
Q 2806 34 2476 -28 
Q 2147 -91 1806 -91 
Q 1078 -91 686 257 
Q 294 606 294 1247 
Q 294 1794 489 2264 
Q 684 2734 1063 3103 
Q 1306 3334 1642 3459 
Q 1978 3584 2356 3584 
Q 2950 3584 3301 3228 
Q 3653 2872 3653 2272 
Q 3653 2128 3634 1964 
Q 3616 1800 3578 1613 
z
" transform="scale(0.015625)"/>
       <path id="DejaVuSans-Oblique-49" d="M 3059 4863 
L 2969 4384 
L 2419 4384 
Q 2106 4384 1964 4261 
Q 1822 4138 1753 3809 
L 1691 3500 
L 2638 3500 
L 2553 3053 
L 1606 3053 
L 1013 0 
L 434 0 
L 1031 3053 
L 481 3053 
L 563 3500 
L 1113 3500 
L 1159 3744 
Q 1278 4363 1576 4613 
Q 1875 4863 2516 4863 
L 3059 4863 
z
" transform="scale(0.015625)"/>
      </defs>
      <use xlink:href="#DejaVuSans-Oblique-3b" transform="translate(0 0.09375)"/>
      <use xlink:href="#DejaVuSans-Oblique-55" transform="translate(68.505859 -14.906201) scale(0.7)"/>
      <use xlink:href="#DejaVuSans-Oblique-48" transform="translate(97.285156 -14.906201) scale(0.7)"/>
      <use xlink:href="#DejaVuSans-Oblique-49" transform="translate(140.351562 -14.906201) scale(0.7)"/>
     </g>
    </g>
   </g>
  </g>
  <g id="axes_2">
   <g id="patch_8">
    <path d="M 42.28 377.877656 
L 493.2 377.877656 
L 493.2 242.16 
L 42.28 242.16 
z
" style="fill: #ffffff"/>
   </g>
   <g id="matplotlib.axis_3">
    <g id="xtick_7">
     <g id="line2d_25">
      <path d="M 62.77636 377.877656 
L 62.77636 242.16 
" clip-path="url(#p339da45f87)" style="fill: none; stroke: #b0b0b0; stroke-width: 0.8; stroke-linecap: square"/>
     </g>
     <g id="line2d_26">
      <g>
       <use xlink:href="#m1673a51937" x="62.77636" y="377.877656" style="stroke: #000000; stroke-width: 0.8"/>
      </g>
     </g>
     <g id="text_15">
      <!-- 0 -->
      <g transform="translate(59.59511 392.475312) scale(0.1 -0.1)">
       <use xlink:href="#DejaVuSans-13"/>
      </g>
     </g>
    </g>
    <g id="xtick_8">
     <g id="line2d_27">
      <path d="M 146.050781 377.877656 
L 146.050781 242.16 
" clip-path="url(#p339da45f87)" style="fill: none; stroke: #b0b0b0; stroke-width: 0.8; stroke-linecap: square"/>
     </g>
     <g id="line2d_28">
      <g>
       <use xlink:href="#m1673a51937" x="146.050781" y="377.877656" style="stroke: #000000; stroke-width: 0.8"/>
      </g>
     </g>
     <g id="text_16">
      <!-- 10 -->
      <g transform="translate(139.688281 392.475312) scale(0.1 -0.1)">
       <use xlink:href="#DejaVuSans-14"/>
       <use xlink:href="#DejaVuSans-13" transform="translate(63.625 0)"/>
      </g>
     </g>
    </g>
    <g id="xtick_9">
     <g id="line2d_29">
      <path d="M 229.325202 377.877656 
L 229.325202 242.16 
" clip-path="url(#p339da45f87)" style="fill: none; stroke: #b0b0b0; stroke-width: 0.8; stroke-linecap: square"/>
     </g>
     <g id="line2d_30">
      <g>
       <use xlink:href="#m1673a51937" x="229.325202" y="377.877656" style="stroke: #000000; stroke-width: 0.8"/>
      </g>
     </g>
     <g id="text_17">
      <!-- 20 -->
      <g transform="translate(222.962702 392.475312) scale(0.1 -0.1)">
       <use xlink:href="#DejaVuSans-15"/>
       <use xlink:href="#DejaVuSans-13" transform="translate(63.625 0)"/>
      </g>
     </g>
    </g>
    <g id="xtick_10">
     <g id="line2d_31">
      <path d="M 312.599622 377.877656 
L 312.599622 242.16 
" clip-path="url(#p339da45f87)" style="fill: none; stroke: #b0b0b0; stroke-width: 0.8; stroke-linecap: square"/>
     </g>
     <g id="line2d_32">
      <g>
       <use xlink:href="#m1673a51937" x="312.599622" y="377.877656" style="stroke: #000000; stroke-width: 0.8"/>
      </g>
     </g>
     <g id="text_18">
      <!-- 30 -->
      <g transform="translate(306.237122 392.475312) scale(0.1 -0.1)">
       <use xlink:href="#DejaVuSans-16"/>
       <use xlink:href="#DejaVuSans-13" transform="translate(63.625 0)"/>
      </g>
     </g>
    </g>
    <g id="xtick_11">
     <g id="line2d_33">
      <path d="M 395.874043 377.877656 
L 395.874043 242.16 
" clip-path="url(#p339da45f87)" style="fill: none; stroke: #b0b0b0; stroke-width: 0.8; stroke-linecap: square"/>
     </g>
     <g id="line2d_34">
      <g>
       <use xlink:href="#m1673a51937" x="395.874043" y="377.877656" style="stroke: #000000; stroke-width: 0.8"/>
      </g>
     </g>
     <g id="text_19">
      <!-- 40 -->
      <g transform="translate(389.511543 392.475312) scale(0.1 -0.1)">
       <use xlink:href="#DejaVuSans-17"/>
       <use xlink:href="#DejaVuSans-13" transform="translate(63.625 0)"/>
      </g>
     </g>
    </g>
    <g id="xtick_12">
     <g id="line2d_35">
      <path d="M 479.148464 377.877656 
L 479.148464 242.16 
" clip-path="url(#p339da45f87)" style="fill: none; stroke: #b0b0b0; stroke-width: 0.8; stroke-linecap: square"/>
     </g>
     <g id="line2d_36">
      <g>
       <use xlink:href="#m1673a51937" x="479.148464" y="377.877656" style="stroke: #000000; stroke-width: 0.8"/>
      </g>
     </g>
     <g id="text_20">
      <!-- 50 -->
      <g transform="translate(472.785964 392.475312) scale(0.1 -0.1)">
       <use xlink:href="#DejaVuSans-18"/>
       <use xlink:href="#DejaVuSans-13" transform="translate(63.625 0)"/>
      </g>
     </g>
    </g>
    <g id="text_21">
     <!-- t (s) -->
     <g transform="translate(257.684531 406.475312) scale(0.1 -0.1)">
      <use xlink:href="#DejaVuSans-57"/>
      <use xlink:href="#DejaVuSans-3" transform="translate(39.203125 0)"/>
      <use xlink:href="#DejaVuSans-b" transform="translate(70.984375 0)"/>
      <use xlink:href="#DejaVuSans-56" transform="translate(110 0)"/>
      <use xlink:href="#DejaVuSans-c" transform="translate(162.09375 0)"/>
     </g>
    </g>
   </g>
   <g id="matplotlib.axis_4">
    <g id="ytick_5">
     <g id="line2d_37">
      <path d="M 42.28 366.361195 
L 493.2 366.361195 
" clip-path="url(#p339da45f87)" style="fill: none; stroke: #b0b0b0; stroke-width: 0.8; stroke-linecap: square"/>
     </g>
     <g id="line2d_38">
      <g>
       <use xlink:href="#mc203422f7e" x="42.28" y="366.361195" style="stroke: #000000; stroke-width: 0.8"/>
      </g>
     </g>
     <g id="text_22">
      <!-- −1.0 -->
      <g transform="translate(10.997188 370.160023) scale(0.1 -0.1)">
       <defs>
        <path id="DejaVuSans-c9c" d="M 678 2272 
L 4684 2272 
L 4684 1741 
L 678 1741 
L 678 2272 
z
" transform="scale(0.015625)"/>
        <path id="DejaVuSans-11" d="M 684 794 
L 1344 794 
L 1344 0 
L 684 0 
L 684 794 
z
" transform="scale(0.015625)"/>
       </defs>
       <use xlink:href="#DejaVuSans-c9c"/>
       <use xlink:href="#DejaVuSans-14" transform="translate(83.796875 0)"/>
       <use xlink:href="#DejaVuSans-11" transform="translate(147.421875 0)"/>
       <use xlink:href="#DejaVuSans-13" transform="translate(179.203125 0)"/>
      </g>
     </g>
    </g>
    <g id="ytick_6">
     <g id="line2d_39">
      <path d="M 42.28 338.556043 
L 493.2 338.556043 
" clip-path="url(#p339da45f87)" style="fill: none; stroke: #b0b0b0; stroke-width: 0.8; stroke-linecap: square"/>
     </g>
     <g id="line2d_40">
      <g>
       <use xlink:href="#mc203422f7e" x="42.28" y="338.556043" style="stroke: #000000; stroke-width: 0.8"/>
      </g>
     </g>
     <g id="text_23">
      <!-- −0.5 -->
      <g transform="translate(10.997188 342.354871) scale(0.1 -0.1)">
       <use xlink:href="#DejaVuSans-c9c"/>
       <use xlink:href="#DejaVuSans-13" transform="translate(83.796875 0)"/>
       <use xlink:href="#DejaVuSans-11" transform="translate(147.421875 0)"/>
       <use xlink:href="#DejaVuSans-18" transform="translate(179.203125 0)"/>
      </g>
     </g>
    </g>
    <g id="ytick_7">
     <g id="line2d_41">
      <path d="M 42.28 310.750891 
L 493.2 310.750891 
" clip-path="url(#p339da45f87)" style="fill: none; stroke: #b0b0b0; stroke-width: 0.8; stroke-linecap: square"/>
     </g>
     <g id="line2d_42">
      <g>
       <use xlink:href="#mc203422f7e" x="42.28" y="310.750891" style="stroke: #000000; stroke-width: 0.8"/>
      </g>
     </g>
     <g id="text_24">
      <!-- 0.0 -->
      <g transform="translate(19.376875 314.549719) scale(0.1 -0.1)">
       <use xlink:href="#DejaVuSans-13"/>
       <use xlink:href="#DejaVuSans-11" transform="translate(63.625 0)"/>
       <use xlink:href="#DejaVuSans-13" transform="translate(95.40625 0)"/>
      </g>
     </g>
    </g>
    <g id="ytick_8">
     <g id="line2d_43">
      <path d="M 42.28 282.945739 
L 493.2 282.945739 
" clip-path="url(#p339da45f87)" style="fill: none; stroke: #b0b0b0; stroke-width: 0.8; stroke-linecap: square"/>
     </g>
     <g id="line2d_44">
      <g>
       <use xlink:href="#mc203422f7e" x="42.28" y="282.945739" style="stroke: #000000; stroke-width: 0.8"/>
      </g>
     </g>
     <g id="text_25">
      <!-- 0.5 -->
      <g transform="translate(19.376875 286.744567) scale(0.1 -0.1)">
       <use xlink:href="#DejaVuSans-13"/>
       <use xlink:href="#DejaVuSans-11" transform="translate(63.625 0)"/>
       <use xlink:href="#DejaVuSans-18" transform="translate(95.40625 0)"/>
      </g>
     </g>
    </g>
    <g id="ytick_9">
     <g id="line2d_45">
      <path d="M 42.28 255.140587 
L 493.2 255.140587 
" clip-path="url(#p339da45f87)" style="fill: none; stroke: #b0b0b0; stroke-width: 0.8; stroke-linecap: square"/>
     </g>
     <g id="line2d_46">
      <g>
       <use xlink:href="#mc203422f7e" x="42.28" y="255.140587" style="stroke: #000000; stroke-width: 0.8"/>
      </g>
     </g>
     <g id="text_26">
      <!-- 1.0 -->
      <g transform="translate(19.376875 258.939415) scale(0.1 -0.1)">
       <use xlink:href="#DejaVuSans-14"/>
       <use xlink:href="#DejaVuSans-11" transform="translate(63.625 0)"/>
       <use xlink:href="#DejaVuSans-13" transform="translate(95.40625 0)"/>
      </g>
     </g>
    </g>
   </g>
   <g id="line2d_47">
    <path d="M 62.776364 310.750891 
L 112.671556 310.766717 
L 113.506408 310.92108 
L 114.33757 311.301439 
L 115.170027 311.883135 
L 116.002549 312.824707 
L 116.836043 314.591333 
L 117.668484 317.267124 
L 120.172471 327.879301 
L 121.000124 330.437824 
L 121.8324 332.338933 
L 122.665574 334.782084 
L 123.497879 337.8139 
L 125.163489 345.249857 
L 127.105767 354.158545 
L 128.494974 359.141654 
L 129.048787 360.710652 
L 129.881696 362.598365 
L 130.436623 363.532448 
L 130.993338 364.210695 
L 131.54741 364.642363 
L 132.102312 364.839835 
L 132.657798 364.813146 
L 133.212802 364.551827 
L 133.768018 364.041354 
L 134.324427 363.270188 
L 134.878332 362.230451 
L 135.98966 359.336114 
L 137.098844 355.393865 
L 138.209094 350.537813 
L 140.152938 341.776504 
L 144.593534 322.460996 
L 145.982648 317.930891 
L 147.092053 315.224062 
L 147.926207 313.739046 
L 149.03519 312.422276 
L 150.146736 311.646054 
L 151.255715 311.211692 
L 152.921223 310.914654 
L 155.419892 310.791878 
L 160.972021 310.718099 
L 161.806109 310.540965 
L 162.915197 309.856782 
L 163.747531 308.929562 
L 164.580431 307.188841 
L 165.412683 304.412761 
L 167.910895 293.949959 
L 168.743717 291.626203 
L 169.576495 288.961408 
L 170.409585 285.621738 
L 173.740776 270.289906 
L 174.573179 267.778028 
L 175.406272 265.866177 
L 176.238296 263.34654 
L 179.29275 252.086717 
L 179.84689 250.734579 
L 180.681285 249.264115 
L 181.236411 248.664326 
L 181.793202 248.357285 
L 182.3473 248.328984 
L 182.902713 248.575421 
L 183.458383 249.110528 
L 184.012477 249.945922 
L 184.567291 251.088356 
L 185.678313 254.292227 
L 186.788638 258.649414 
L 188.454847 266.836874 
L 194.562363 297.102693 
L 195.670654 301.537435 
L 196.783297 305.085991 
L 197.336372 306.463145 
L 198.169494 308.029769 
L 198.724807 308.769153 
L 199.835139 309.733384 
L 200.946537 310.245746 
L 202.055641 310.502459 
L 204.277406 310.689561 
L 208.718168 310.805017 
L 209.550761 311.033206 
L 210.66138 311.803217 
L 211.494378 312.845907 
L 212.326822 314.748308 
L 213.160268 317.667795 
L 214.547631 323.793174 
L 215.380386 326.726599 
L 216.213153 329.016533 
L 217.045905 331.944071 
L 217.880784 335.534254 
L 220.379536 348.076493 
L 221.489521 352.586176 
L 222.599584 355.828377 
L 223.709974 357.814237 
L 224.542752 359.768053 
L 225.375074 362.386242 
L 226.76306 367.283936 
L 227.873406 369.955238 
L 228.428518 370.82745 
L 228.983775 371.39707 
L 229.816965 371.708672 
L 230.372598 371.56367 
L 230.926824 371.124766 
L 231.482151 370.378802 
L 232.037298 369.317509 
L 232.592272 367.938397 
L 233.702539 364.250301 
L 234.812948 359.438503 
L 241.75354 325.509925 
L 243.140392 319.703028 
L 244.250673 316.264916 
L 245.084096 314.436589 
L 246.193863 312.797807 
L 247.30403 311.807538 
L 248.41449 311.272861 
L 249.802796 310.974756 
L 252.578723 310.802882 
L 256.742454 310.588165 
L 257.853189 309.942645 
L 258.685804 309.038309 
L 259.518759 307.354298 
L 260.351052 304.622056 
L 262.849616 294.255719 
L 263.682486 291.924043 
L 264.515868 289.090458 
L 265.347537 285.584836 
L 268.678352 269.725527 
L 269.788907 266.300504 
L 270.900029 264.133188 
L 271.73168 262.044913 
L 272.564618 259.338964 
L 273.952204 254.45642 
L 274.507595 252.93761 
L 275.34041 251.184368 
L 275.895904 250.377116 
L 276.450506 249.853119 
L 277.005643 249.600709 
L 277.8386 249.709827 
L 278.393546 250.121544 
L 278.948829 250.820368 
L 279.503929 251.815321 
L 280.337169 253.848318 
L 281.447179 257.560183 
L 282.557468 262.307161 
L 289.774392 297.478549 
L 291.162656 302.406103 
L 292.273286 305.565768 
L 293.105458 307.375987 
L 293.660798 308.275526 
L 294.771586 309.461502 
L 295.60418 309.953118 
L 296.71436 310.299842 
L 298.379799 310.582016 
L 300.877883 310.717169 
L 304.208958 310.847682 
L 305.042145 311.167059 
L 305.875925 311.809165 
L 306.707249 312.939909 
L 307.539887 314.875155 
L 308.372781 317.774019 
L 310.039984 324.955666 
L 310.871025 327.815618 
L 311.703805 330.108139 
L 312.536808 333.042134 
L 313.370698 336.623082 
L 316.422654 351.494446 
L 317.255836 354.518587 
L 318.365752 357.467549 
L 319.198551 359.267239 
L 320.031527 361.600276 
L 320.864238 364.351186 
L 321.696824 366.607393 
L 322.251696 367.743503 
L 322.80675 368.583862 
L 323.361997 369.135304 
L 323.917339 369.409152 
L 324.472561 369.41602 
L 325.027482 369.145022 
L 325.583119 368.580733 
L 326.1383 367.711968 
L 326.692991 366.532562 
L 327.803475 363.24737 
L 328.913589 358.806515 
L 330.301945 352.004094 
L 332.522684 340.775256 
L 333.910245 334.625572 
L 335.298773 327.822857 
L 336.13127 324.397255 
L 338.074208 318.009334 
L 339.184793 315.068181 
L 339.739565 313.982981 
L 340.29461 313.142641 
L 341.405468 312.023724 
L 342.79297 311.340352 
L 343.905295 311.072152 
L 346.12393 310.843655 
L 351.398288 310.708783 
L 352.508882 310.426576 
L 353.618741 309.520728 
L 354.451191 308.025766 
L 355.284548 305.443757 
L 357.782591 294.553826 
L 360.280828 286.795908 
L 361.113889 283.214287 
L 363.612265 270.658506 
L 364.722329 266.15053 
L 365.832875 262.895495 
L 366.667175 261.179151 
L 367.498954 259.037624 
L 368.886891 254.963884 
L 369.441443 253.849372 
L 370.27543 252.788802 
L 370.829807 252.486289 
L 371.384177 252.493144 
L 371.939255 252.808657 
L 372.494958 253.447208 
L 373.051704 254.419098 
L 373.605011 255.727943 
L 374.438025 258.289518 
L 375.825731 263.998465 
L 379.15685 280.808945 
L 381.378306 291.820368 
L 382.765327 298.13445 
L 383.598138 301.412749 
L 384.985987 305.644707 
L 386.096331 307.873114 
L 386.929174 308.953443 
L 388.039388 309.798372 
L 389.150414 310.263362 
L 390.537839 310.532145 
L 393.035747 310.698684 
L 397.755422 310.862893 
L 398.587681 311.171114 
L 399.42038 311.856017 
L 400.253336 313.185604 
L 401.085795 315.437856 
L 401.918588 318.609316 
L 403.584089 325.619578 
L 405.249947 330.741269 
L 406.082802 333.89511 
L 406.915388 337.698901 
L 409.690784 352.327695 
L 410.52414 355.858673 
L 411.356437 358.678388 
L 412.1891 360.705024 
L 413.021847 361.901815 
L 413.854565 362.30617 
L 414.409754 362.196114 
L 414.964812 361.711333 
L 415.519969 360.838676 
L 416.07533 359.572865 
L 416.630359 357.91759 
L 417.463033 354.764805 
L 418.296005 350.907477 
L 421.350125 335.3024 
L 423.015304 328.179452 
L 424.402933 321.996513 
L 425.512926 318.443556 
L 426.623216 315.609909 
L 427.179222 314.46969 
L 428.012367 313.163908 
L 428.844152 312.329666 
L 429.955487 311.676402 
L 431.620053 311.109407 
L 433.562863 310.865992 
L 437.726825 310.638304 
L 440.502466 310.613092 
L 442.169902 310.741632 
L 443.001927 310.931307 
L 443.835279 311.324701 
L 444.388822 311.83187 
L 445.221916 313.200807 
L 445.776351 314.468177 
L 447.164397 318.648833 
L 448.829871 324.837925 
L 452.439043 338.819265 
L 453.826922 343.37232 
L 454.936665 346.43342 
L 456.324867 349.524517 
L 457.712658 351.931102 
L 458.267695 352.659241 
L 459.101698 353.438706 
L 459.93575 353.798632 
L 460.490764 353.781956 
L 461.04335 353.540976 
L 461.599059 353.061186 
L 462.153971 352.330784 
L 462.709058 351.341313 
L 463.265701 350.088299 
L 464.653603 345.867211 
L 466.317777 339.090869 
L 467.706422 333.711778 
L 468.540428 330.944345 
L 469.372855 327.656042 
L 471.869723 316.443595 
L 472.703636 313.275255 
L 472.703636 313.275255 
" clip-path="url(#p339da45f87)" style="fill: none; stroke: #1f77b4; stroke-width: 1.5; stroke-linecap: square"/>
   </g>
   <g id="line2d_48">
    <path d="M 62.776364 310.750891 
L 472.703636 310.750891 
L 472.703636 310.750891 
" clip-path="url(#p339da45f87)" style="fill: none; stroke-dasharray: 9.6,2.4,1.5,2.4; stroke-dashoffset: 0; stroke: #ff7f0e; stroke-width: 1.5"/>
   </g>
   <g id="patch_9">
    <path d="M 42.28 377.877656 
L 42.28 242.16 
" style="fill: none; stroke: #000000; stroke-width: 0.8; stroke-linejoin: miter; stroke-linecap: square"/>
   </g>
   <g id="patch_10">
    <path d="M 493.2 377.877656 
L 493.2 242.16 
" style="fill: none; stroke: #000000; stroke-width: 0.8; stroke-linejoin: miter; stroke-linecap: square"/>
   </g>
   <g id="patch_11">
    <path d="M 42.28 377.877656 
L 493.2 377.877656 
" style="fill: none; stroke: #000000; stroke-width: 0.8; stroke-linejoin: miter; stroke-linecap: square"/>
   </g>
   <g id="patch_12">
    <path d="M 42.28 242.16 
L 493.2 242.16 
" style="fill: none; stroke: #000000; stroke-width: 0.8; stroke-linejoin: miter; stroke-linecap: square"/>
   </g>
   <g id="text_27">
    <!-- $Y$ (m) -->
    <g transform="translate(251.6 236.16) scale(0.12 -0.12)">
     <defs>
      <path id="DejaVuSans-Oblique-3c" d="M 403 4666 
L 1081 4666 
L 1953 2747 
L 3616 4666 
L 4325 4666 
L 2209 2222 
L 1778 0 
L 1147 0 
L 1575 2222 
L 403 4666 
z
" transform="scale(0.015625)"/>
     </defs>
     <use xlink:href="#DejaVuSans-Oblique-3c" transform="translate(0 0.125)"/>
     <use xlink:href="#DejaVuSans-3" transform="translate(61.083984 0.125)"/>
     <use xlink:href="#DejaVuSans-b" transform="translate(92.871094 0.125)"/>
     <use xlink:href="#DejaVuSans-50" transform="translate(131.884766 0.125)"/>
     <use xlink:href="#DejaVuSans-c" transform="translate(229.296875 0.125)"/>
    </g>
   </g>
   <g id="legend_2">
    <g id="patch_13">
     <path d="M 438.1 280.161563 
L 486.2 280.161563 
Q 488.2 280.161563 488.2 278.161563 
L 488.2 249.16 
Q 488.2 247.16 486.2 247.16 
L 438.1 247.16 
Q 436.1 247.16 436.1 249.16 
L 436.1 278.161563 
Q 436.1 280.161563 438.1 280.161563 
z
" style="fill: #ffffff; opacity: 0.8; stroke: #cccccc; stroke-linejoin: miter"/>
    </g>
    <g id="line2d_49">
     <path d="M 440.1 255.258438 
L 450.1 255.258438 
L 460.1 255.258438 
" style="fill: none; stroke: #1f77b4; stroke-width: 1.5; stroke-linecap: square"/>
    </g>
    <g id="text_28">
     <!-- $Y$ -->
     <g transform="translate(468.1 258.758438) scale(0.1 -0.1)">
      <use xlink:href="#DejaVuSans-Oblique-3c" transform="translate(0 0.09375)"/>
     </g>
    </g>
    <g id="line2d_50">
     <path d="M 440.1 270.259219 
L 450.1 270.259219 
L 460.1 270.259219 
" style="fill: none; stroke-dasharray: 9.6,2.4,1.5,2.4; stroke-dashoffset: 0; stroke: #ff7f0e; stroke-width: 1.5"/>
    </g>
    <g id="text_29">
     <!-- $Y_{ref}$ -->
     <g transform="translate(468.1 273.759219) scale(0.1 -0.1)">
      <use xlink:href="#DejaVuSans-Oblique-3c" transform="translate(0 0.09375)"/>
      <use xlink:href="#DejaVuSans-Oblique-55" transform="translate(61.083984 -14.906201) scale(0.7)"/>
      <use xlink:href="#DejaVuSans-Oblique-48" transform="translate(89.863281 -14.906201) scale(0.7)"/>
      <use xlink:href="#DejaVuSans-Oblique-49" transform="translate(132.929688 -14.906201) scale(0.7)"/>
     </g>
    </g>
   </g>
  </g>
  <g id="axes_3">
   <g id="patch_14">
    <path d="M 42.28 571.077656 
L 493.2 571.077656 
L 493.2 435.36 
L 42.28 435.36 
z
" style="fill: #ffffff"/>
   </g>
   <g id="matplotlib.axis_5">
    <g id="xtick_13">
     <g id="line2d_51">
      <path d="M 62.77636 571.077656 
L 62.77636 435.36 
" clip-path="url(#p199b400368)" style="fill: none; stroke: #b0b0b0; stroke-width: 0.8; stroke-linecap: square"/>
     </g>
     <g id="line2d_52">
      <g>
       <use xlink:href="#m1673a51937" x="62.77636" y="571.077656" style="stroke: #000000; stroke-width: 0.8"/>
      </g>
     </g>
     <g id="text_30">
      <!-- 0 -->
      <g transform="translate(59.59511 585.675313) scale(0.1 -0.1)">
       <use xlink:href="#DejaVuSans-13"/>
      </g>
     </g>
    </g>
    <g id="xtick_14">
     <g id="line2d_53">
      <path d="M 146.050781 571.077656 
L 146.050781 435.36 
" clip-path="url(#p199b400368)" style="fill: none; stroke: #b0b0b0; stroke-width: 0.8; stroke-linecap: square"/>
     </g>
     <g id="line2d_54">
      <g>
       <use xlink:href="#m1673a51937" x="146.050781" y="571.077656" style="stroke: #000000; stroke-width: 0.8"/>
      </g>
     </g>
     <g id="text_31">
      <!-- 10 -->
      <g transform="translate(139.688281 585.675313) scale(0.1 -0.1)">
       <use xlink:href="#DejaVuSans-14"/>
       <use xlink:href="#DejaVuSans-13" transform="translate(63.625 0)"/>
      </g>
     </g>
    </g>
    <g id="xtick_15">
     <g id="line2d_55">
      <path d="M 229.325202 571.077656 
L 229.325202 435.36 
" clip-path="url(#p199b400368)" style="fill: none; stroke: #b0b0b0; stroke-width: 0.8; stroke-linecap: square"/>
     </g>
     <g id="line2d_56">
      <g>
       <use xlink:href="#m1673a51937" x="229.325202" y="571.077656" style="stroke: #000000; stroke-width: 0.8"/>
      </g>
     </g>
     <g id="text_32">
      <!-- 20 -->
      <g transform="translate(222.962702 585.675313) scale(0.1 -0.1)">
       <use xlink:href="#DejaVuSans-15"/>
       <use xlink:href="#DejaVuSans-13" transform="translate(63.625 0)"/>
      </g>
     </g>
    </g>
    <g id="xtick_16">
     <g id="line2d_57">
      <path d="M 312.599622 571.077656 
L 312.599622 435.36 
" clip-path="url(#p199b400368)" style="fill: none; stroke: #b0b0b0; stroke-width: 0.8; stroke-linecap: square"/>
     </g>
     <g id="line2d_58">
      <g>
       <use xlink:href="#m1673a51937" x="312.599622" y="571.077656" style="stroke: #000000; stroke-width: 0.8"/>
      </g>
     </g>
     <g id="text_33">
      <!-- 30 -->
      <g transform="translate(306.237122 585.675313) scale(0.1 -0.1)">
       <use xlink:href="#DejaVuSans-16"/>
       <use xlink:href="#DejaVuSans-13" transform="translate(63.625 0)"/>
      </g>
     </g>
    </g>
    <g id="xtick_17">
     <g id="line2d_59">
      <path d="M 395.874043 571.077656 
L 395.874043 435.36 
" clip-path="url(#p199b400368)" style="fill: none; stroke: #b0b0b0; stroke-width: 0.8; stroke-linecap: square"/>
     </g>
     <g id="line2d_60">
      <g>
       <use xlink:href="#m1673a51937" x="395.874043" y="571.077656" style="stroke: #000000; stroke-width: 0.8"/>
      </g>
     </g>
     <g id="text_34">
      <!-- 40 -->
      <g transform="translate(389.511543 585.675313) scale(0.1 -0.1)">
       <use xlink:href="#DejaVuSans-17"/>
       <use xlink:href="#DejaVuSans-13" transform="translate(63.625 0)"/>
      </g>
     </g>
    </g>
    <g id="xtick_18">
     <g id="line2d_61">
      <path d="M 479.148464 571.077656 
L 479.148464 435.36 
" clip-path="url(#p199b400368)" style="fill: none; stroke: #b0b0b0; stroke-width: 0.8; stroke-linecap: square"/>
     </g>
     <g id="line2d_62">
      <g>
       <use xlink:href="#m1673a51937" x="479.148464" y="571.077656" style="stroke: #000000; stroke-width: 0.8"/>
      </g>
     </g>
     <g id="text_35">
      <!-- 50 -->
      <g transform="translate(472.785964 585.675313) scale(0.1 -0.1)">
       <use xlink:href="#DejaVuSans-18"/>
       <use xlink:href="#DejaVuSans-13" transform="translate(63.625 0)"/>
      </g>
     </g>
    </g>
    <g id="text_36">
     <!-- t (s) -->
     <g transform="translate(257.684531 599.675313) scale(0.1 -0.1)">
      <use xlink:href="#DejaVuSans-57"/>
      <use xlink:href="#DejaVuSans-3" transform="translate(39.203125 0)"/>
      <use xlink:href="#DejaVuSans-b" transform="translate(70.984375 0)"/>
      <use xlink:href="#DejaVuSans-56" transform="translate(110 0)"/>
      <use xlink:href="#DejaVuSans-c" transform="translate(162.09375 0)"/>
     </g>
    </g>
   </g>
   <g id="matplotlib.axis_6">
    <g id="ytick_10">
     <g id="line2d_63">
      <path d="M 42.28 543.475681 
L 493.2 543.475681 
" clip-path="url(#p199b400368)" style="fill: none; stroke: #b0b0b0; stroke-width: 0.8; stroke-linecap: square"/>
     </g>
     <g id="line2d_64">
      <g>
       <use xlink:href="#mc203422f7e" x="42.28" y="543.475681" style="stroke: #000000; stroke-width: 0.8"/>
      </g>
     </g>
     <g id="text_37">
      <!-- −2 -->
      <g transform="translate(20.537813 547.274509) scale(0.1 -0.1)">
       <use xlink:href="#DejaVuSans-c9c"/>
       <use xlink:href="#DejaVuSans-15" transform="translate(83.796875 0)"/>
      </g>
     </g>
    </g>
    <g id="ytick_11">
     <g id="line2d_65">
      <path d="M 42.28 503.564333 
L 493.2 503.564333 
" clip-path="url(#p199b400368)" style="fill: none; stroke: #b0b0b0; stroke-width: 0.8; stroke-linecap: square"/>
     </g>
     <g id="line2d_66">
      <g>
       <use xlink:href="#mc203422f7e" x="42.28" y="503.564333" style="stroke: #000000; stroke-width: 0.8"/>
      </g>
     </g>
     <g id="text_38">
      <!-- 0 -->
      <g transform="translate(28.9175 507.363161) scale(0.1 -0.1)">
       <use xlink:href="#DejaVuSans-13"/>
      </g>
     </g>
    </g>
    <g id="ytick_12">
     <g id="line2d_67">
      <path d="M 42.28 463.652985 
L 493.2 463.652985 
" clip-path="url(#p199b400368)" style="fill: none; stroke: #b0b0b0; stroke-width: 0.8; stroke-linecap: square"/>
     </g>
     <g id="line2d_68">
      <g>
       <use xlink:href="#mc203422f7e" x="42.28" y="463.652985" style="stroke: #000000; stroke-width: 0.8"/>
      </g>
     </g>
     <g id="text_39">
      <!-- 2 -->
      <g transform="translate(28.9175 467.451813) scale(0.1 -0.1)">
       <use xlink:href="#DejaVuSans-15"/>
      </g>
     </g>
    </g>
   </g>
   <g id="line2d_69">
    <path d="M 62.776364 503.564333 
L 111.839259 503.564333 
L 112.671556 503.753646 
L 113.506408 504.449828 
L 115.170027 506.243168 
L 116.002549 508.373389 
L 117.668484 516.914918 
L 118.501481 521.337615 
L 119.335099 522.829409 
L 121.000124 514.391571 
L 121.8324 512.986974 
L 125.163489 528.821147 
L 125.996396 530.091335 
L 128.494974 519.095631 
L 130.993338 509.014512 
L 135.433089 491.765844 
L 137.65582 481.992181 
L 138.209094 479.41814 
L 138.764593 479.444265 
L 139.332814 482.122782 
L 140.152938 484.695766 
L 140.708 483.234833 
L 141.262563 482.135443 
L 141.818654 483.822172 
L 142.374063 486.24083 
L 142.928242 487.346522 
L 143.485385 487.655859 
L 144.038744 488.43018 
L 144.593534 489.887577 
L 145.982648 493.996049 
L 147.926207 498.659855 
L 149.03519 500.643917 
L 150.146736 501.880608 
L 151.255715 502.645612 
L 152.36653 503.089619 
L 153.477115 503.326019 
L 155.419892 503.498358 
L 160.139341 503.538238 
L 160.972021 503.324212 
L 161.806109 502.603234 
L 162.915197 501.069111 
L 163.747531 499.145826 
L 164.580431 495.273512 
L 165.412683 490.473707 
L 166.245537 486.740637 
L 167.079162 486.964444 
L 167.910895 491.188268 
L 168.743717 493.362564 
L 169.576495 490.242567 
L 171.242547 481.608899 
L 172.074996 480.130866 
L 174.573179 492.649795 
L 175.406272 493.971123 
L 177.071534 485.860447 
L 177.904294 484.513046 
L 180.681285 496.974712 
L 186.232847 520.908602 
L 187.898258 528.983683 
L 188.454847 528.95755 
L 189.008616 526.109139 
L 189.563985 525.121624 
L 190.119878 526.371798 
L 190.674927 526.479301 
L 191.785042 522.943695 
L 192.895197 522.484005 
L 193.45157 521.414886 
L 195.670654 515.462718 
L 198.724807 507.301053 
L 199.835139 505.616301 
L 200.946537 504.624761 
L 202.055641 504.08696 
L 203.165977 503.819586 
L 205.386948 503.627724 
L 207.885159 503.623513 
L 208.718168 503.923667 
L 209.550761 504.732983 
L 210.66138 506.363536 
L 211.494378 508.516382 
L 212.326822 512.560091 
L 213.160268 517.352017 
L 213.992518 520.774814 
L 214.547631 519.50988 
L 215.380386 515.189169 
L 216.213153 514.133668 
L 218.713795 527.160452 
L 219.545952 528.635854 
L 222.599584 513.372867 
L 223.709974 510.657138 
L 225.375074 518.491038 
L 226.208203 519.835827 
L 228.428518 509.913355 
L 233.147724 489.533192 
L 235.368269 478.774818 
L 236.20142 477.343935 
L 237.590159 483.84815 
L 238.144101 483.230154 
L 238.699053 481.302601 
L 239.254354 482.11904 
L 239.810671 484.681748 
L 240.642435 487.489083 
L 241.75354 487.745028 
L 242.585407 489.24568 
L 244.250673 495.252254 
L 245.084096 497.621762 
L 246.193863 499.863403 
L 247.30403 501.428639 
L 248.41449 502.461347 
L 249.802796 503.165499 
L 250.912774 503.360606 
L 255.076365 503.539397 
L 255.909379 503.38669 
L 256.742454 502.711342 
L 257.853189 501.178336 
L 258.685804 499.294239 
L 259.518759 495.558668 
L 260.351052 490.734072 
L 261.185201 487.043737 
L 262.017458 487.318684 
L 262.849616 491.377409 
L 263.682486 493.140405 
L 264.515868 489.310946 
L 266.18039 480.62824 
L 267.013125 479.141947 
L 269.788907 493.116764 
L 270.900029 495.85427 
L 272.564618 488.007312 
L 273.397368 486.703862 
L 275.895904 497.494449 
L 280.893172 518.344216 
L 283.113138 528.771956 
L 283.667886 528.745823 
L 284.222748 525.956109 
L 284.778182 524.969155 
L 285.333258 526.180528 
L 285.888952 526.246188 
L 286.443584 524.247958 
L 286.998975 522.690412 
L 287.553968 522.550123 
L 288.387288 522.496596 
L 289.2193 520.70297 
L 290.607728 515.249812 
L 291.717649 512.78807 
L 293.105458 509.482925 
L 294.217064 506.998325 
L 294.771586 506.089671 
L 295.60418 505.001516 
L 296.159092 504.556901 
L 297.269686 504.164718 
L 299.490397 503.744195 
L 301.988209 503.593843 
L 303.376031 503.676207 
L 304.208958 504.1385 
L 305.042145 505.103912 
L 305.875925 506.513087 
L 306.707249 508.852663 
L 307.539887 512.642328 
L 308.372781 517.181142 
L 309.205601 520.161425 
L 310.039984 518.907068 
L 310.871025 514.989654 
L 311.703805 514.224127 
L 314.201848 527.203534 
L 315.035209 528.67467 
L 317.255836 517.636794 
L 318.365752 513.023242 
L 319.198551 513.129317 
L 320.031527 516.973074 
L 320.864238 518.26298 
L 323.361997 507.542244 
L 326.1383 496.027948 
L 328.358509 485.917938 
L 330.301945 477.112906 
L 331.134947 477.133343 
L 332.522684 484.366374 
L 333.355355 486.444116 
L 333.910245 484.292652 
L 334.465594 483.504938 
L 335.298773 485.938539 
L 336.13127 489.921674 
L 336.964034 492.43157 
L 337.518603 492.894373 
L 338.074208 493.553995 
L 338.6292 494.837148 
L 340.29461 499.293601 
L 341.405468 501.150158 
L 342.238218 502.132367 
L 342.79297 502.554893 
L 343.905295 502.969447 
L 345.568831 503.351114 
L 347.234606 503.470436 
L 350.287878 503.526536 
L 351.398288 503.291507 
L 352.508882 502.309575 
L 353.618741 499.958066 
L 354.451191 496.405755 
L 356.117045 487.140801 
L 356.949906 485.870226 
L 358.615342 493.242307 
L 359.448337 493.052799 
L 361.946441 480.011676 
L 362.779574 478.531533 
L 365.832875 493.749771 
L 366.667175 495.280985 
L 367.498954 491.918645 
L 368.331129 490.562913 
L 371.384177 504.216011 
L 373.605011 514.175555 
L 376.380832 527.59095 
L 376.936182 528.358122 
L 377.491285 526.269829 
L 378.046443 524.645372 
L 379.15685 525.582201 
L 379.712037 524.390376 
L 380.267468 522.668748 
L 380.82212 521.633685 
L 381.378306 521.007013 
L 381.932776 520.080557 
L 382.765327 518.109824 
L 386.096331 508.676114 
L 386.929174 506.90381 
L 387.484321 506.001514 
L 388.594566 504.905335 
L 389.982419 504.124585 
L 391.093008 503.847514 
L 393.591185 503.63975 
L 395.812096 503.577619 
L 396.646332 503.644637 
L 397.755422 504.121157 
L 398.587681 505.091683 
L 399.42038 506.843038 
L 400.253336 509.839591 
L 401.918588 518.250925 
L 402.75147 519.884842 
L 403.584089 517.439677 
L 404.417583 514.442209 
L 405.249947 515.442494 
L 407.748066 528.646105 
L 408.580679 530.171199 
L 411.356437 515.99101 
L 413.021847 507.950245 
L 414.964812 499.462093 
L 417.463033 486.885449 
L 419.128611 478.163631 
L 419.683895 478.279093 
L 421.350125 486.827436 
L 422.182173 488.136564 
L 423.015304 485.896268 
L 423.570057 486.059445 
L 424.957865 492.219222 
L 425.512926 493.810422 
L 428.844152 501.048959 
L 429.399275 501.713232 
L 430.787568 502.487431 
L 432.452611 503.157793 
L 433.562863 503.302773 
L 440.502466 503.643241 
L 441.335491 503.80058 
L 442.169902 504.09831 
L 443.001927 504.700182 
L 443.835279 505.977157 
L 444.388822 507.917587 
L 447.164397 520.218569 
L 449.38588 529.181041 
L 452.439043 540.407309 
L 454.936665 548.635352 
L 458.267695 559.153381 
L 459.93575 564.908672 
L 460.490764 441.528984 
L 462.709058 450.073533 
L 465.485847 461.799073 
L 466.317777 462.997783 
L 467.706422 456.760987 
L 468.540428 455.77223 
L 469.372855 459.769194 
L 470.20536 462.504213 
L 471.03741 461.493118 
L 471.869723 458.604641 
L 472.703636 456.892936 
L 472.703636 456.892936 
" clip-path="url(#p199b400368)" style="fill: none; stroke: #1f77b4; stroke-width: 1.5; stroke-linecap: square"/>
   </g>
   <g id="line2d_70">
    <path d="M 62.776364 503.564333 
L 472.703636 503.564333 
L 472.703636 503.564333 
" clip-path="url(#p199b400368)" style="fill: none; stroke-dasharray: 9.6,2.4,1.5,2.4; stroke-dashoffset: 0; stroke: #ff7f0e; stroke-width: 1.5"/>
   </g>
   <g id="patch_15">
    <path d="M 42.28 571.077656 
L 42.28 435.36 
" style="fill: none; stroke: #000000; stroke-width: 0.8; stroke-linejoin: miter; stroke-linecap: square"/>
   </g>
   <g id="patch_16">
    <path d="M 493.2 571.077656 
L 493.2 435.36 
" style="fill: none; stroke: #000000; stroke-width: 0.8; stroke-linejoin: miter; stroke-linecap: square"/>
   </g>
   <g id="patch_17">
    <path d="M 42.28 571.077656 
L 493.2 571.077656 
" style="fill: none; stroke: #000000; stroke-width: 0.8; stroke-linejoin: miter; stroke-linecap: square"/>
   </g>
   <g id="patch_18">
    <path d="M 42.28 435.36 
L 493.2 435.36 
" style="fill: none; stroke: #000000; stroke-width: 0.8; stroke-linejoin: miter; stroke-linecap: square"/>
   </g>
   <g id="text_40">
    <!-- $\Psi$ (rad) -->
    <g transform="translate(246.44 429.36) scale(0.12 -0.12)">
     <defs>
      <path id="DejaVuSans-33c" d="M 2206 0 
Q 2209 419 2206 969 
Q 1538 969 950 1625 
Q 375 2263 359 3388 
L 359 4666 
L 1025 4666 
L 1025 3388 
Q 1025 2506 1431 1994 
Q 1775 1556 2206 1513 
L 2206 4666 
L 2838 4666 
L 2838 1513 
Q 3269 1556 3613 1994 
Q 4019 2506 4019 3388 
L 4019 4666 
L 4684 4666 
L 4684 3388 
Q 4669 2263 4094 1625 
Q 3506 969 2838 969 
Q 2834 744 2838 0 
L 2206 0 
z
" transform="scale(0.015625)"/>
      <path id="DejaVuSans-55" d="M 2631 2963 
Q 2534 3019 2420 3045 
Q 2306 3072 2169 3072 
Q 1681 3072 1420 2755 
Q 1159 2438 1159 1844 
L 1159 0 
L 581 0 
L 581 3500 
L 1159 3500 
L 1159 2956 
Q 1341 3275 1631 3429 
Q 1922 3584 2338 3584 
Q 2397 3584 2469 3576 
Q 2541 3569 2628 3553 
L 2631 2963 
z
" transform="scale(0.015625)"/>
      <path id="DejaVuSans-44" d="M 2194 1759 
Q 1497 1759 1228 1600 
Q 959 1441 959 1056 
Q 959 750 1161 570 
Q 1363 391 1709 391 
Q 2188 391 2477 730 
Q 2766 1069 2766 1631 
L 2766 1759 
L 2194 1759 
z
M 3341 1997 
L 3341 0 
L 2766 0 
L 2766 531 
Q 2569 213 2275 61 
Q 1981 -91 1556 -91 
Q 1019 -91 701 211 
Q 384 513 384 1019 
Q 384 1609 779 1909 
Q 1175 2209 1959 2209 
L 2766 2209 
L 2766 2266 
Q 2766 2663 2505 2880 
Q 2244 3097 1772 3097 
Q 1472 3097 1187 3025 
Q 903 2953 641 2809 
L 641 3341 
Q 956 3463 1253 3523 
Q 1550 3584 1831 3584 
Q 2591 3584 2966 3190 
Q 3341 2797 3341 1997 
z
" transform="scale(0.015625)"/>
      <path id="DejaVuSans-47" d="M 2906 2969 
L 2906 4863 
L 3481 4863 
L 3481 0 
L 2906 0 
L 2906 525 
Q 2725 213 2448 61 
Q 2172 -91 1784 -91 
Q 1150 -91 751 415 
Q 353 922 353 1747 
Q 353 2572 751 3078 
Q 1150 3584 1784 3584 
Q 2172 3584 2448 3432 
Q 2725 3281 2906 2969 
z
M 947 1747 
Q 947 1113 1208 752 
Q 1469 391 1925 391 
Q 2381 391 2643 752 
Q 2906 1113 2906 1747 
Q 2906 2381 2643 2742 
Q 2381 3103 1925 3103 
Q 1469 3103 1208 2742 
Q 947 2381 947 1747 
z
" transform="scale(0.015625)"/>
     </defs>
     <use xlink:href="#DejaVuSans-33c" transform="translate(0 0.015625)"/>
     <use xlink:href="#DejaVuSans-3" transform="translate(78.710938 0.015625)"/>
     <use xlink:href="#DejaVuSans-b" transform="translate(110.498047 0.015625)"/>
     <use xlink:href="#DejaVuSans-55" transform="translate(149.511719 0.015625)"/>
     <use xlink:href="#DejaVuSans-44" transform="translate(190.625 0.015625)"/>
     <use xlink:href="#DejaVuSans-47" transform="translate(251.904297 0.015625)"/>
     <use xlink:href="#DejaVuSans-c" transform="translate(315.380859 0.015625)"/>
    </g>
   </g>
   <g id="legend_3">
    <g id="patch_19">
     <path d="M 49.28 473.361563 
L 99.18 473.361563 
Q 101.18 473.361563 101.18 471.361563 
L 101.18 442.36 
Q 101.18 440.36 99.18 440.36 
L 49.28 440.36 
Q 47.28 440.36 47.28 442.36 
L 47.28 471.361563 
Q 47.28 473.361563 49.28 473.361563 
z
" style="fill: #ffffff; opacity: 0.8; stroke: #cccccc; stroke-linejoin: miter"/>
    </g>
    <g id="line2d_71">
     <path d="M 51.28 448.458438 
L 61.28 448.458438 
L 71.28 448.458438 
" style="fill: none; stroke: #1f77b4; stroke-width: 1.5; stroke-linecap: square"/>
    </g>
    <g id="text_41">
     <!-- $\Psi$ -->
     <g transform="translate(79.28 451.958438) scale(0.1 -0.1)">
      <use xlink:href="#DejaVuSans-33c" transform="translate(0 0.09375)"/>
     </g>
    </g>
    <g id="line2d_72">
     <path d="M 51.28 463.459219 
L 61.28 463.459219 
L 71.28 463.459219 
" style="fill: none; stroke-dasharray: 9.6,2.4,1.5,2.4; stroke-dashoffset: 0; stroke: #ff7f0e; stroke-width: 1.5"/>
    </g>
    <g id="text_42">
     <!-- $\Psi_{ref}$ -->
     <g transform="translate(79.28 466.959219) scale(0.1 -0.1)">
      <use xlink:href="#DejaVuSans-33c" transform="translate(0 0.09375)"/>
      <use xlink:href="#DejaVuSans-Oblique-55" transform="translate(79.667969 -14.906201) scale(0.7)"/>
      <use xlink:href="#DejaVuSans-Oblique-48" transform="translate(108.447266 -14.906201) scale(0.7)"/>
      <use xlink:href="#DejaVuSans-Oblique-49" transform="translate(151.513672 -14.906201) scale(0.7)"/>
     </g>
    </g>
   </g>
  </g>
  <g id="axes_4">
   <g id="patch_20">
    <path d="M 42.28 764.277656 
L 493.2 764.277656 
L 493.2 628.56 
L 42.28 628.56 
z
" style="fill: #ffffff"/>
   </g>
   <g id="matplotlib.axis_7">
    <g id="xtick_19">
     <g id="line2d_73">
      <path d="M 62.77636 764.277656 
L 62.77636 628.56 
" clip-path="url(#p1d4d3ad04e)" style="fill: none; stroke: #b0b0b0; stroke-width: 0.8; stroke-linecap: square"/>
     </g>
     <g id="line2d_74">
      <g>
       <use xlink:href="#m1673a51937" x="62.77636" y="764.277656" style="stroke: #000000; stroke-width: 0.8"/>
      </g>
     </g>
     <g id="text_43">
      <!-- 0 -->
      <g transform="translate(59.59511 778.875313) scale(0.1 -0.1)">
       <use xlink:href="#DejaVuSans-13"/>
      </g>
     </g>
    </g>
    <g id="xtick_20">
     <g id="line2d_75">
      <path d="M 146.050781 764.277656 
L 146.050781 628.56 
" clip-path="url(#p1d4d3ad04e)" style="fill: none; stroke: #b0b0b0; stroke-width: 0.8; stroke-linecap: square"/>
     </g>
     <g id="line2d_76">
      <g>
       <use xlink:href="#m1673a51937" x="146.050781" y="764.277656" style="stroke: #000000; stroke-width: 0.8"/>
      </g>
     </g>
     <g id="text_44">
      <!-- 10 -->
      <g transform="translate(139.688281 778.875313) scale(0.1 -0.1)">
       <use xlink:href="#DejaVuSans-14"/>
       <use xlink:href="#DejaVuSans-13" transform="translate(63.625 0)"/>
      </g>
     </g>
    </g>
    <g id="xtick_21">
     <g id="line2d_77">
      <path d="M 229.325202 764.277656 
L 229.325202 628.56 
" clip-path="url(#p1d4d3ad04e)" style="fill: none; stroke: #b0b0b0; stroke-width: 0.8; stroke-linecap: square"/>
     </g>
     <g id="line2d_78">
      <g>
       <use xlink:href="#m1673a51937" x="229.325202" y="764.277656" style="stroke: #000000; stroke-width: 0.8"/>
      </g>
     </g>
     <g id="text_45">
      <!-- 20 -->
      <g transform="translate(222.962702 778.875313) scale(0.1 -0.1)">
       <use xlink:href="#DejaVuSans-15"/>
       <use xlink:href="#DejaVuSans-13" transform="translate(63.625 0)"/>
      </g>
     </g>
    </g>
    <g id="xtick_22">
     <g id="line2d_79">
      <path d="M 312.599622 764.277656 
L 312.599622 628.56 
" clip-path="url(#p1d4d3ad04e)" style="fill: none; stroke: #b0b0b0; stroke-width: 0.8; stroke-linecap: square"/>
     </g>
     <g id="line2d_80">
      <g>
       <use xlink:href="#m1673a51937" x="312.599622" y="764.277656" style="stroke: #000000; stroke-width: 0.8"/>
      </g>
     </g>
     <g id="text_46">
      <!-- 30 -->
      <g transform="translate(306.237122 778.875313) scale(0.1 -0.1)">
       <use xlink:href="#DejaVuSans-16"/>
       <use xlink:href="#DejaVuSans-13" transform="translate(63.625 0)"/>
      </g>
     </g>
    </g>
    <g id="xtick_23">
     <g id="line2d_81">
      <path d="M 395.874043 764.277656 
L 395.874043 628.56 
" clip-path="url(#p1d4d3ad04e)" style="fill: none; stroke: #b0b0b0; stroke-width: 0.8; stroke-linecap: square"/>
     </g>
     <g id="line2d_82">
      <g>
       <use xlink:href="#m1673a51937" x="395.874043" y="764.277656" style="stroke: #000000; stroke-width: 0.8"/>
      </g>
     </g>
     <g id="text_47">
      <!-- 40 -->
      <g transform="translate(389.511543 778.875313) scale(0.1 -0.1)">
       <use xlink:href="#DejaVuSans-17"/>
       <use xlink:href="#DejaVuSans-13" transform="translate(63.625 0)"/>
      </g>
     </g>
    </g>
    <g id="xtick_24">
     <g id="line2d_83">
      <path d="M 479.148464 764.277656 
L 479.148464 628.56 
" clip-path="url(#p1d4d3ad04e)" style="fill: none; stroke: #b0b0b0; stroke-width: 0.8; stroke-linecap: square"/>
     </g>
     <g id="line2d_84">
      <g>
       <use xlink:href="#m1673a51937" x="479.148464" y="764.277656" style="stroke: #000000; stroke-width: 0.8"/>
      </g>
     </g>
     <g id="text_48">
      <!-- 50 -->
      <g transform="translate(472.785964 778.875313) scale(0.1 -0.1)">
       <use xlink:href="#DejaVuSans-18"/>
       <use xlink:href="#DejaVuSans-13" transform="translate(63.625 0)"/>
      </g>
     </g>
    </g>
    <g id="text_49">
     <!-- t (s) -->
     <g transform="translate(257.684531 792.875313) scale(0.1 -0.1)">
      <use xlink:href="#DejaVuSans-57"/>
      <use xlink:href="#DejaVuSans-3" transform="translate(39.203125 0)"/>
      <use xlink:href="#DejaVuSans-b" transform="translate(70.984375 0)"/>
      <use xlink:href="#DejaVuSans-56" transform="translate(110 0)"/>
      <use xlink:href="#DejaVuSans-c" transform="translate(162.09375 0)"/>
     </g>
    </g>
   </g>
   <g id="matplotlib.axis_8">
    <g id="ytick_13">
     <g id="line2d_85">
      <path d="M 42.28 758.108672 
L 493.2 758.108672 
" clip-path="url(#p1d4d3ad04e)" style="fill: none; stroke: #b0b0b0; stroke-width: 0.8; stroke-linecap: square"/>
     </g>
     <g id="line2d_86">
      <g>
       <use xlink:href="#mc203422f7e" x="42.28" y="758.108672" style="stroke: #000000; stroke-width: 0.8"/>
      </g>
     </g>
     <g id="text_50">
      <!-- 0.0 -->
      <g transform="translate(19.376875 761.9075) scale(0.1 -0.1)">
       <use xlink:href="#DejaVuSans-13"/>
       <use xlink:href="#DejaVuSans-11" transform="translate(63.625 0)"/>
       <use xlink:href="#DejaVuSans-13" transform="translate(95.40625 0)"/>
      </g>
     </g>
    </g>
    <g id="ytick_14">
     <g id="line2d_87">
      <path d="M 42.28 733.432734 
L 493.2 733.432734 
" clip-path="url(#p1d4d3ad04e)" style="fill: none; stroke: #b0b0b0; stroke-width: 0.8; stroke-linecap: square"/>
     </g>
     <g id="line2d_88">
      <g>
       <use xlink:href="#mc203422f7e" x="42.28" y="733.432734" style="stroke: #000000; stroke-width: 0.8"/>
      </g>
     </g>
     <g id="text_51">
      <!-- 0.2 -->
      <g transform="translate(19.376875 737.231562) scale(0.1 -0.1)">
       <use xlink:href="#DejaVuSans-13"/>
       <use xlink:href="#DejaVuSans-11" transform="translate(63.625 0)"/>
       <use xlink:href="#DejaVuSans-15" transform="translate(95.40625 0)"/>
      </g>
     </g>
    </g>
    <g id="ytick_15">
     <g id="line2d_89">
      <path d="M 42.28 708.756797 
L 493.2 708.756797 
" clip-path="url(#p1d4d3ad04e)" style="fill: none; stroke: #b0b0b0; stroke-width: 0.8; stroke-linecap: square"/>
     </g>
     <g id="line2d_90">
      <g>
       <use xlink:href="#mc203422f7e" x="42.28" y="708.756797" style="stroke: #000000; stroke-width: 0.8"/>
      </g>
     </g>
     <g id="text_52">
      <!-- 0.4 -->
      <g transform="translate(19.376875 712.555625) scale(0.1 -0.1)">
       <use xlink:href="#DejaVuSans-13"/>
       <use xlink:href="#DejaVuSans-11" transform="translate(63.625 0)"/>
       <use xlink:href="#DejaVuSans-17" transform="translate(95.40625 0)"/>
      </g>
     </g>
    </g>
    <g id="ytick_16">
     <g id="line2d_91">
      <path d="M 42.28 684.080859 
L 493.2 684.080859 
" clip-path="url(#p1d4d3ad04e)" style="fill: none; stroke: #b0b0b0; stroke-width: 0.8; stroke-linecap: square"/>
     </g>
     <g id="line2d_92">
      <g>
       <use xlink:href="#mc203422f7e" x="42.28" y="684.080859" style="stroke: #000000; stroke-width: 0.8"/>
      </g>
     </g>
     <g id="text_53">
      <!-- 0.6 -->
      <g transform="translate(19.376875 687.879688) scale(0.1 -0.1)">
       <defs>
        <path id="DejaVuSans-19" d="M 2113 2584 
Q 1688 2584 1439 2293 
Q 1191 2003 1191 1497 
Q 1191 994 1439 701 
Q 1688 409 2113 409 
Q 2538 409 2786 701 
Q 3034 994 3034 1497 
Q 3034 2003 2786 2293 
Q 2538 2584 2113 2584 
z
M 3366 4563 
L 3366 3988 
Q 3128 4100 2886 4159 
Q 2644 4219 2406 4219 
Q 1781 4219 1451 3797 
Q 1122 3375 1075 2522 
Q 1259 2794 1537 2939 
Q 1816 3084 2150 3084 
Q 2853 3084 3261 2657 
Q 3669 2231 3669 1497 
Q 3669 778 3244 343 
Q 2819 -91 2113 -91 
Q 1303 -91 875 529 
Q 447 1150 447 2328 
Q 447 3434 972 4092 
Q 1497 4750 2381 4750 
Q 2619 4750 2861 4703 
Q 3103 4656 3366 4563 
z
" transform="scale(0.015625)"/>
       </defs>
       <use xlink:href="#DejaVuSans-13"/>
       <use xlink:href="#DejaVuSans-11" transform="translate(63.625 0)"/>
       <use xlink:href="#DejaVuSans-19" transform="translate(95.40625 0)"/>
      </g>
     </g>
    </g>
    <g id="ytick_17">
     <g id="line2d_93">
      <path d="M 42.28 659.404922 
L 493.2 659.404922 
" clip-path="url(#p1d4d3ad04e)" style="fill: none; stroke: #b0b0b0; stroke-width: 0.8; stroke-linecap: square"/>
     </g>
     <g id="line2d_94">
      <g>
       <use xlink:href="#mc203422f7e" x="42.28" y="659.404922" style="stroke: #000000; stroke-width: 0.8"/>
      </g>
     </g>
     <g id="text_54">
      <!-- 0.8 -->
      <g transform="translate(19.376875 663.20375) scale(0.1 -0.1)">
       <defs>
        <path id="DejaVuSans-1b" d="M 2034 2216 
Q 1584 2216 1326 1975 
Q 1069 1734 1069 1313 
Q 1069 891 1326 650 
Q 1584 409 2034 409 
Q 2484 409 2743 651 
Q 3003 894 3003 1313 
Q 3003 1734 2745 1975 
Q 2488 2216 2034 2216 
z
M 1403 2484 
Q 997 2584 770 2862 
Q 544 3141 544 3541 
Q 544 4100 942 4425 
Q 1341 4750 2034 4750 
Q 2731 4750 3128 4425 
Q 3525 4100 3525 3541 
Q 3525 3141 3298 2862 
Q 3072 2584 2669 2484 
Q 3125 2378 3379 2068 
Q 3634 1759 3634 1313 
Q 3634 634 3220 271 
Q 2806 -91 2034 -91 
Q 1263 -91 848 271 
Q 434 634 434 1313 
Q 434 1759 690 2068 
Q 947 2378 1403 2484 
z
M 1172 3481 
Q 1172 3119 1398 2916 
Q 1625 2713 2034 2713 
Q 2441 2713 2670 2916 
Q 2900 3119 2900 3481 
Q 2900 3844 2670 4047 
Q 2441 4250 2034 4250 
Q 1625 4250 1398 4047 
Q 1172 3844 1172 3481 
z
" transform="scale(0.015625)"/>
       </defs>
       <use xlink:href="#DejaVuSans-13"/>
       <use xlink:href="#DejaVuSans-11" transform="translate(63.625 0)"/>
       <use xlink:href="#DejaVuSans-1b" transform="translate(95.40625 0)"/>
      </g>
     </g>
    </g>
    <g id="ytick_18">
     <g id="line2d_95">
      <path d="M 42.28 634.728984 
L 493.2 634.728984 
" clip-path="url(#p1d4d3ad04e)" style="fill: none; stroke: #b0b0b0; stroke-width: 0.8; stroke-linecap: square"/>
     </g>
     <g id="line2d_96">
      <g>
       <use xlink:href="#mc203422f7e" x="42.28" y="634.728984" style="stroke: #000000; stroke-width: 0.8"/>
      </g>
     </g>
     <g id="text_55">
      <!-- 1.0 -->
      <g transform="translate(19.376875 638.527812) scale(0.1 -0.1)">
       <use xlink:href="#DejaVuSans-14"/>
       <use xlink:href="#DejaVuSans-11" transform="translate(63.625 0)"/>
       <use xlink:href="#DejaVuSans-13" transform="translate(95.40625 0)"/>
      </g>
     </g>
    </g>
   </g>
   <g id="line2d_97">
    <path d="M 62.776364 758.108672 
L 63.535374 757.95459 
L 64.36808 757.375596 
L 65.201139 756.479274 
L 66.866288 754.032477 
L 68.531477 751.031368 
L 71.030467 746.00972 
L 76.876616 733.377217 
L 83.523942 718.615842 
L 94.352841 694.56432 
L 111.007579 657.558 
L 114.33757 650.345231 
L 115.170027 649.333618 
L 116.002549 649.097238 
L 116.836043 649.404658 
L 117.668484 650.122712 
L 119.335099 652.240671 
L 121.000124 655.128557 
L 122.665574 658.321237 
L 124.330601 661.427878 
L 125.163489 662.335656 
L 125.996396 663.418019 
L 127.105767 666.289602 
L 127.938853 667.805828 
L 129.048787 671.174921 
L 129.881696 672.858094 
L 132.657798 681.401457 
L 133.212802 681.948416 
L 133.768018 681.914048 
L 134.324427 681.413831 
L 134.878332 680.60062 
L 135.98966 678.217073 
L 137.098844 675.257531 
L 139.332814 668.552024 
L 140.152938 666.855136 
L 144.593534 652.148597 
L 145.427687 650.401216 
L 147.092053 644.776084 
L 147.926207 643.012618 
L 149.03519 639.584296 
L 149.590507 638.335744 
L 150.146736 637.431663 
L 151.255715 636.249413 
L 152.36653 635.624553 
L 152.921223 635.350951 
L 154.311797 635.080011 
L 154.86415 635.065722 
L 155.419892 634.903679 
L 159.306123 634.749945 
L 160.139341 634.746414 
L 160.972021 634.952178 
L 162.915197 636.447787 
L 163.747531 637.643165 
L 165.412683 640.658735 
L 168.743717 647.213718 
L 171.242547 652.333302 
L 172.074996 653.237933 
L 173.740776 655.829467 
L 174.573179 657.3279 
L 175.406272 658.524795 
L 176.238296 659.35759 
L 177.904294 661.620435 
L 178.737087 663.005263 
L 179.84689 666.204587 
L 180.681285 667.860191 
L 182.3473 672.99038 
L 182.902713 674.136328 
L 183.458383 674.5587 
L 184.012477 674.415492 
L 185.124011 673.046627 
L 186.788638 669.017727 
L 187.898258 665.850968 
L 190.674927 657.158679 
L 195.117065 642.425765 
L 196.226036 639.161715 
L 196.783297 638.064299 
L 197.336372 637.342138 
L 199.835139 635.539112 
L 200.946537 635.183466 
L 202.611833 634.962921 
L 205.9432 634.73827 
L 207.052354 634.728984 
L 207.885159 634.766471 
L 208.718168 635.007849 
L 210.66138 636.579824 
L 212.326822 639.211833 
L 213.992518 642.358207 
L 214.547631 643.999592 
L 216.213153 647.410181 
L 217.045905 649.538264 
L 218.713795 652.497244 
L 219.545952 653.400736 
L 221.489521 656.112504 
L 223.709974 659.059183 
L 224.542752 660.70021 
L 225.375074 662.084909 
L 226.208203 662.898839 
L 227.319065 665.399085 
L 228.983775 670.055463 
L 230.372598 672.959077 
L 230.926824 673.449122 
L 231.482151 673.354112 
L 232.037298 672.832996 
L 233.147724 670.920028 
L 234.257655 668.138432 
L 235.368269 665.03763 
L 236.20142 663.398303 
L 236.757309 661.664033 
L 237.590159 660.01243 
L 239.810671 652.704871 
L 240.642435 650.949876 
L 241.75354 647.288652 
L 242.585407 645.420721 
L 244.250673 640.03014 
L 246.193863 636.995043 
L 247.30403 636.008356 
L 248.41449 635.442701 
L 248.969533 635.262082 
L 251.745588 634.918316 
L 255.076365 634.761799 
L 255.909379 634.883254 
L 257.853189 636.160113 
L 258.685804 637.277304 
L 260.351052 640.194312 
L 262.017458 643.282049 
L 266.18039 651.779975 
L 267.013125 652.685128 
L 270.900029 658.268914 
L 273.397368 663.285081 
L 274.507595 666.890049 
L 275.34041 668.672484 
L 277.005643 674.213897 
L 277.8386 675.688181 
L 278.393546 676.21191 
L 278.948829 676.17578 
L 280.337169 674.956433 
L 281.447179 672.550635 
L 283.113138 667.92576 
L 284.778182 662.801761 
L 287.553968 653.72061 
L 289.2193 650.190832 
L 289.774392 648.326166 
L 290.607728 646.586229 
L 292.273286 641.004286 
L 294.217064 637.389889 
L 294.771586 636.72736 
L 296.71436 635.58749 
L 297.8246 635.216483 
L 300.045726 634.872506 
L 303.376031 634.808699 
L 304.208958 635.099963 
L 305.042145 635.805056 
L 305.875925 636.797409 
L 306.707249 638.022242 
L 309.205601 642.595288 
L 311.703805 647.654838 
L 313.370698 651.301618 
L 314.201848 652.826436 
L 315.035209 653.727778 
L 315.589761 654.942867 
L 319.198551 660.944359 
L 321.696824 666.026237 
L 324.472561 674.68566 
L 325.027482 675.262481 
L 325.583119 675.222935 
L 326.1383 674.742423 
L 326.692991 673.914797 
L 327.803475 671.556085 
L 330.301945 665.454609 
L 331.134947 663.783414 
L 331.689646 662.024961 
L 333.355355 658.577898 
L 334.465594 654.831476 
L 336.964034 649.495124 
L 339.739565 640.166862 
L 340.29461 638.819855 
L 340.850074 637.773105 
L 341.405468 637.040049 
L 343.348185 635.695992 
L 343.905295 635.48367 
L 346.12393 635.058546 
L 347.789321 634.857481 
L 350.287878 634.775749 
L 351.398288 634.92102 
L 352.508882 635.505176 
L 353.618741 636.453425 
L 355.284548 639.170287 
L 357.782591 643.848 
L 360.280828 649.036493 
L 361.113889 650.847455 
L 361.946441 652.361557 
L 362.779574 653.259296 
L 364.722329 655.927941 
L 367.498954 659.383259 
L 368.331129 660.683005 
L 369.441443 663.808604 
L 370.27543 665.449078 
L 371.384177 668.735149 
L 371.939255 669.745259 
L 372.494958 670.040045 
L 373.051704 669.794656 
L 375.270742 667.287399 
L 376.936182 662.791409 
L 379.712037 654.063825 
L 381.932776 646.732956 
L 384.430831 641.493173 
L 384.985987 639.800855 
L 385.541838 638.537485 
L 386.096331 637.592621 
L 388.594566 635.628371 
L 389.150414 635.403183 
L 392.480616 634.886536 
L 394.979291 634.780124 
L 396.646332 634.799052 
L 397.755422 635.032826 
L 398.587681 635.698434 
L 399.42038 636.70425 
L 401.085795 639.421087 
L 403.584089 644.108783 
L 406.915388 650.867318 
L 407.748066 651.559345 
L 408.580679 651.840018 
L 409.135952 652.57955 
L 409.690784 653.571876 
L 411.356437 656.18703 
L 413.854565 660.878934 
L 414.409754 662.136056 
L 414.964812 662.580361 
L 415.519969 662.523855 
L 416.07533 661.955982 
L 416.630359 661.088141 
L 417.463033 660.133996 
L 419.128611 657.636439 
L 419.683895 655.975896 
L 420.516953 654.813831 
L 421.350125 653.990006 
L 423.015304 651.571917 
L 423.570057 650.05618 
L 424.957865 648.055309 
L 426.068459 645.654823 
L 427.179222 642.717645 
L 429.955487 637.496728 
L 430.787568 636.81384 
L 431.620053 636.287168 
L 432.452611 636.011395 
L 433.00832 636.288918 
L 433.562863 636.956667 
L 434.118153 637.906452 
L 434.673148 639.097398 
L 436.339426 641.802665 
L 437.171838 643.310671 
L 438.83692 648.459474 
L 443.835279 659.106616 
L 444.388822 661.046533 
L 445.221916 662.911372 
L 445.776351 664.808331 
L 446.610011 666.658791 
L 449.38588 676.020545 
L 451.050527 679.61887 
L 451.606176 681.496176 
L 452.439043 683.30859 
L 452.993638 685.181688 
L 453.826922 686.993943 
L 454.936665 690.74263 
L 456.324867 693.947909 
L 456.879843 694.550101 
L 457.712658 694.636141 
L 459.101698 693.410963 
L 459.93575 692.387863 
L 461.04335 689.62066 
L 462.709058 684.764086 
L 463.265701 683.049129 
L 464.097782 681.403449 
L 464.653603 679.66202 
L 466.317777 676.135043 
L 466.874628 674.280717 
L 471.03741 665.33638 
L 471.869723 664.10165 
L 472.703636 663.605189 
L 472.703636 663.605189 
" clip-path="url(#p1d4d3ad04e)" style="fill: none; stroke: #1f77b4; stroke-width: 1.5; stroke-linecap: square"/>
   </g>
   <g id="line2d_98">
    <path d="M 62.776364 634.728984 
L 435.507158 634.728984 
L 436.339426 758.108672 
L 472.703636 758.108672 
L 472.703636 758.108672 
" clip-path="url(#p1d4d3ad04e)" style="fill: none; stroke-dasharray: 9.6,2.4,1.5,2.4; stroke-dashoffset: 0; stroke: #ff7f0e; stroke-width: 1.5"/>
   </g>
   <g id="line2d_99">
    <path d="M 42.28 758.108672 
L 493.2 758.108672 
" clip-path="url(#p1d4d3ad04e)" style="fill: none; stroke-dasharray: 3.7,1.6; stroke-dashoffset: 0; stroke: #ff0000"/>
   </g>
   <g id="line2d_100">
    <path d="M 42.28 634.728984 
L 493.2 634.728984 
" clip-path="url(#p1d4d3ad04e)" style="fill: none; stroke-dasharray: 3.7,1.6; stroke-dashoffset: 0; stroke: #ff0000"/>
   </g>
   <g id="patch_21">
    <path d="M 42.28 764.277656 
L 42.28 628.56 
" style="fill: none; stroke: #000000; stroke-width: 0.8; stroke-linejoin: miter; stroke-linecap: square"/>
   </g>
   <g id="patch_22">
    <path d="M 493.2 764.277656 
L 493.2 628.56 
" style="fill: none; stroke: #000000; stroke-width: 0.8; stroke-linejoin: miter; stroke-linecap: square"/>
   </g>
   <g id="patch_23">
    <path d="M 42.28 764.277656 
L 493.2 764.277656 
" style="fill: none; stroke: #000000; stroke-width: 0.8; stroke-linejoin: miter; stroke-linecap: square"/>
   </g>
   <g id="patch_24">
    <path d="M 42.28 628.56 
L 493.2 628.56 
" style="fill: none; stroke: #000000; stroke-width: 0.8; stroke-linejoin: miter; stroke-linecap: square"/>
   </g>
   <g id="text_56">
    <!-- $v_x$ (m/s) -->
    <g transform="translate(243.92 622.56) scale(0.12 -0.12)">
     <defs>
      <path id="DejaVuSans-Oblique-59" d="M 459 3500 
L 1069 3500 
L 1581 525 
L 3256 3500 
L 3866 3500 
L 1875 0 
L 1100 0 
L 459 3500 
z
" transform="scale(0.015625)"/>
      <path id="DejaVuSans-Oblique-5b" d="M 3841 3500 
L 2234 1784 
L 3219 0 
L 2559 0 
L 1819 1388 
L 531 0 
L -166 0 
L 1556 1844 
L 641 3500 
L 1300 3500 
L 1972 2234 
L 3144 3500 
L 3841 3500 
z
" transform="scale(0.015625)"/>
      <path id="DejaVuSans-12" d="M 1625 4666 
L 2156 4666 
L 531 -594 
L 0 -594 
L 1625 4666 
z
" transform="scale(0.015625)"/>
     </defs>
     <use xlink:href="#DejaVuSans-Oblique-59" transform="translate(0 0.125)"/>
     <use xlink:href="#DejaVuSans-Oblique-5b" transform="translate(59.179688 -14.874951) scale(0.7)"/>
     <use xlink:href="#DejaVuSans-3" transform="translate(103.339844 0.125)"/>
     <use xlink:href="#DejaVuSans-b" transform="translate(135.126953 0.125)"/>
     <use xlink:href="#DejaVuSans-50" transform="translate(174.140625 0.125)"/>
     <use xlink:href="#DejaVuSans-12" transform="translate(271.552734 0.125)"/>
     <use xlink:href="#DejaVuSans-56" transform="translate(305.244141 0.125)"/>
     <use xlink:href="#DejaVuSans-c" transform="translate(357.34375 0.125)"/>
    </g>
   </g>
   <g id="legend_4">
    <g id="patch_25">
     <path d="M 239.94 712.919609 
L 295.54 712.919609 
Q 297.54 712.919609 297.54 710.919609 
L 297.54 681.918047 
Q 297.54 679.918047 295.54 679.918047 
L 239.94 679.918047 
Q 237.94 679.918047 237.94 681.918047 
L 237.94 710.919609 
Q 237.94 712.919609 239.94 712.919609 
z
" style="fill: #ffffff; opacity: 0.8; stroke: #cccccc; stroke-linejoin: miter"/>
    </g>
    <g id="line2d_101">
     <path d="M 241.94 688.016484 
L 251.94 688.016484 
L 261.94 688.016484 
" style="fill: none; stroke: #1f77b4; stroke-width: 1.5; stroke-linecap: square"/>
    </g>
    <g id="text_57">
     <!-- $v_x$ -->
     <g transform="translate(269.94 691.516484) scale(0.1 -0.1)">
      <use xlink:href="#DejaVuSans-Oblique-59" transform="translate(0 0.3125)"/>
      <use xlink:href="#DejaVuSans-Oblique-5b" transform="translate(59.179688 -14.687451) scale(0.7)"/>
     </g>
    </g>
    <g id="line2d_102">
     <path d="M 241.94 703.017266 
L 251.94 703.017266 
L 261.94 703.017266 
" style="fill: none; stroke-dasharray: 9.6,2.4,1.5,2.4; stroke-dashoffset: 0; stroke: #ff7f0e; stroke-width: 1.5"/>
    </g>
    <g id="text_58">
     <!-- $v_{x,ref}$ -->
     <g transform="translate(269.94 706.517266) scale(0.1 -0.1)">
      <defs>
       <path id="DejaVuSans-f" d="M 750 794 
L 1409 794 
L 1409 256 
L 897 -744 
L 494 -744 
L 750 256 
L 750 794 
z
" transform="scale(0.015625)"/>
      </defs>
      <use xlink:href="#DejaVuSans-Oblique-59" transform="translate(0 0.3125)"/>
      <use xlink:href="#DejaVuSans-Oblique-5b" transform="translate(59.179688 -14.687451) scale(0.7)"/>
      <use xlink:href="#DejaVuSans-f" transform="translate(100.605469 -14.687451) scale(0.7)"/>
      <use xlink:href="#DejaVuSans-Oblique-55" transform="translate(136.494141 -14.687451) scale(0.7)"/>
      <use xlink:href="#DejaVuSans-Oblique-48" transform="translate(165.273438 -14.687451) scale(0.7)"/>
      <use xlink:href="#DejaVuSans-Oblique-49" transform="translate(208.339844 -14.687451) scale(0.7)"/>
     </g>
    </g>
   </g>
  </g>
  <g id="text_59">
   <!-- QCar2 States -->
   <g transform="translate(212.211563 25.245188) scale(0.12 -0.12)">
    <defs>
     <path id="DejaVuSans-34" d="M 2522 4238 
Q 1834 4238 1429 3725 
Q 1025 3213 1025 2328 
Q 1025 1447 1429 934 
Q 1834 422 2522 422 
Q 3209 422 3611 934 
Q 4013 1447 4013 2328 
Q 4013 3213 3611 3725 
Q 3209 4238 2522 4238 
z
M 3406 84 
L 4238 -825 
L 3475 -825 
L 2784 -78 
Q 2681 -84 2626 -87 
Q 2572 -91 2522 -91 
Q 1538 -91 948 567 
Q 359 1225 359 2328 
Q 359 3434 948 4092 
Q 1538 4750 2522 4750 
Q 3503 4750 4090 4092 
Q 4678 3434 4678 2328 
Q 4678 1516 4351 937 
Q 4025 359 3406 84 
z
" transform="scale(0.015625)"/>
     <path id="DejaVuSans-26" d="M 4122 4306 
L 4122 3641 
Q 3803 3938 3442 4084 
Q 3081 4231 2675 4231 
Q 1875 4231 1450 3742 
Q 1025 3253 1025 2328 
Q 1025 1406 1450 917 
Q 1875 428 2675 428 
Q 3081 428 3442 575 
Q 3803 722 4122 1019 
L 4122 359 
Q 3791 134 3420 21 
Q 3050 -91 2638 -91 
Q 1578 -91 968 557 
Q 359 1206 359 2328 
Q 359 3453 968 4101 
Q 1578 4750 2638 4750 
Q 3056 4750 3426 4639 
Q 3797 4528 4122 4306 
z
" transform="scale(0.015625)"/>
     <path id="DejaVuSans-36" d="M 3425 4513 
L 3425 3897 
Q 3066 4069 2747 4153 
Q 2428 4238 2131 4238 
Q 1616 4238 1336 4038 
Q 1056 3838 1056 3469 
Q 1056 3159 1242 3001 
Q 1428 2844 1947 2747 
L 2328 2669 
Q 3034 2534 3370 2195 
Q 3706 1856 3706 1288 
Q 3706 609 3251 259 
Q 2797 -91 1919 -91 
Q 1588 -91 1214 -16 
Q 841 59 441 206 
L 441 856 
Q 825 641 1194 531 
Q 1563 422 1919 422 
Q 2459 422 2753 634 
Q 3047 847 3047 1241 
Q 3047 1584 2836 1778 
Q 2625 1972 2144 2069 
L 1759 2144 
Q 1053 2284 737 2584 
Q 422 2884 422 3419 
Q 422 4038 858 4394 
Q 1294 4750 2059 4750 
Q 2388 4750 2728 4690 
Q 3069 4631 3425 4513 
z
" transform="scale(0.015625)"/>
     <path id="DejaVuSans-48" d="M 3597 1894 
L 3597 1613 
L 953 1613 
Q 991 1019 1311 708 
Q 1631 397 2203 397 
Q 2534 397 2845 478 
Q 3156 559 3463 722 
L 3463 178 
Q 3153 47 2828 -22 
Q 2503 -91 2169 -91 
Q 1331 -91 842 396 
Q 353 884 353 1716 
Q 353 2575 817 3079 
Q 1281 3584 2069 3584 
Q 2775 3584 3186 3129 
Q 3597 2675 3597 1894 
z
M 3022 2063 
Q 3016 2534 2758 2815 
Q 2500 3097 2075 3097 
Q 1594 3097 1305 2825 
Q 1016 2553 972 2059 
L 3022 2063 
z
" transform="scale(0.015625)"/>
    </defs>
    <use xlink:href="#DejaVuSans-34"/>
    <use xlink:href="#DejaVuSans-26" transform="translate(78.71875 0)"/>
    <use xlink:href="#DejaVuSans-44" transform="translate(148.546875 0)"/>
    <use xlink:href="#DejaVuSans-55" transform="translate(209.828125 0)"/>
    <use xlink:href="#DejaVuSans-15" transform="translate(250.9375 0)"/>
    <use xlink:href="#DejaVuSans-3" transform="translate(314.5625 0)"/>
    <use xlink:href="#DejaVuSans-36" transform="translate(346.34375 0)"/>
    <use xlink:href="#DejaVuSans-57" transform="translate(409.828125 0)"/>
    <use xlink:href="#DejaVuSans-44" transform="translate(449.03125 0)"/>
    <use xlink:href="#DejaVuSans-57" transform="translate(510.3125 0)"/>
    <use xlink:href="#DejaVuSans-48" transform="translate(549.515625 0)"/>
    <use xlink:href="#DejaVuSans-56" transform="translate(611.046875 0)"/>
   </g>
  </g>
 </g>
 <defs>
  <clipPath id="pc85491ff39">
   <rect x="42.28" y="48.96" width="450.92" height="135.717656"/>
  </clipPath>
  <clipPath id="p339da45f87">
   <rect x="42.28" y="242.16" width="450.92" height="135.717656"/>
  </clipPath>
  <clipPath id="p199b400368">
   <rect x="42.28" y="435.36" width="450.92" height="135.717656"/>
  </clipPath>
  <clipPath id="p1d4d3ad04e">
   <rect x="42.28" y="628.56" width="450.92" height="135.717656"/>
  </clipPath>
 </defs>
</svg>
