<?xml version="1.0" encoding="utf-8" standalone="no"?>
<!DOCTYPE svg PUBLIC "-//W3C//DTD SVG 1.1//EN"
  "http://www.w3.org/Graphics/SVG/1.1/DTD/svg11.dtd">
<svg xmlns:xlink="http://www.w3.org/1999/xlink" width="504pt" height="403.2pt" viewBox="0 0 504 403.2" xmlns="http://www.w3.org/2000/svg" version="1.1">
 <metadata>
  <rdf:RDF xmlns:dc="http://purl.org/dc/elements/1.1/" xmlns:cc="http://creativecommons.org/ns#" xmlns:rdf="http://www.w3.org/1999/02/22-rdf-syntax-ns#">
   <cc:Work>
    <dc:type rdf:resource="http://purl.org/dc/dcmitype/StillImage"/>
    <dc:date>2026-07-10T12:54:49.590530</dc:date>
    <dc:format>image/svg+xml</dc:format>
    <dc:creator>
     <cc:Agent>
      <dc:title>Matplotlib v3.11.0, https://matplotlib.org/</dc:title>
     </cc:Agent>
    </dc:creator>
   </cc:Work>
  </rdf:RDF>
 </metadata>
 <defs>
  <style type="text/css">*{stroke-linejoin: round; stroke-linecap: butt}</style>
 </defs>
 <g id="figure_1">
  <g id="patch_1">
   <path d="M 0 403.2 
L 504 403.2 
L 504 0 
L 0 0 
z
" style="fill: #ffffff"/>
  </g>
  <g id="axes_1">
   <g id="patch_2">
    <path d="M 58.042344 183.560234 
L 493.2 183.560234 
L 493.2 33.842813 
L 58.042344 33.842813 
z
" style="fill: #ffffff"/>
   </g>
   <g id="matplotlib.axis_1">
    <g id="xtick_1">
     <g id="line2d_1">
      <path d="M 77.822234 183.560234 
L 77.822234 33.842813 
" clip-path="url(#p17f6de5ebf)" style="fill: none; stroke: #b0b0b0; stroke-width: 0.8; stroke-linecap: square"/>
     </g>
     <g id="line2d_2">
      <defs>
       <path id="m422b0f2141" d="M 0 0 
L 0 3.5 
" style="stroke: #000000; stroke-width: 0.8"/>
      </defs>
      <g>
       <use xlink:href="#m422b0f2141" x="77.822234" y="183.560234" style="stroke: #000000; stroke-width: 0.8"/>
      </g>
     </g>
     <g id="text_1">
      <!-- 0 -->
      <g transform="translate(74.640984 198.157891) scale(0.1 -0.1)">
       <defs>
        <path id="DejaVuSans-13" d="M 2034 4250 
Q 1547 4250 1301 3770 
Q 1056 3291 1056 2328 
Q 1056 1369 1301 889 
Q 1547 409 2034 409 
Q 2525 409 2770 889 
Q 3016 1369 3016 2328 
Q 3016 3291 2770 3770 
Q 2525 4250 2034 4250 
z
M 2034 4750 
Q 2819 4750 3233 4129 
Q 3647 3509 3647 2328 
Q 3647 1150 3233 529 
Q 2819 -91 2034 -91 
Q 1250 -91 836 529 
Q 422 1150 422 2328 
Q 422 3509 836 4129 
Q 1250 4750 2034 4750 
z
" transform="scale(0.015625)"/>
       </defs>
       <use xlink:href="#DejaVuSans-13"/>
      </g>
     </g>
    </g>
    <g id="xtick_2">
     <g id="line2d_3">
      <path d="M 158.185717 183.560234 
L 158.185717 33.842813 
" clip-path="url(#p17f6de5ebf)" style="fill: none; stroke: #b0b0b0; stroke-width: 0.8; stroke-linecap: square"/>
     </g>
     <g id="line2d_4">
      <g>
       <use xlink:href="#m422b0f2141" x="158.185717" y="183.560234" style="stroke: #000000; stroke-width: 0.8"/>
      </g>
     </g>
     <g id="text_2">
      <!-- 10 -->
      <g transform="translate(151.823217 198.157891) scale(0.1 -0.1)">
       <defs>
        <path id="DejaVuSans-14" d="M 794 531 
L 1825 531 
L 1825 4091 
L 703 3866 
L 703 4441 
L 1819 4666 
L 2450 4666 
L 2450 531 
L 3481 531 
L 3481 0 
L 794 0 
L 794 531 
z
" transform="scale(0.015625)"/>
       </defs>
       <use xlink:href="#DejaVuSans-14"/>
       <use xlink:href="#DejaVuSans-13" transform="translate(63.625 0)"/>
      </g>
     </g>
    </g>
    <g id="xtick_3">
     <g id="line2d_5">
      <path d="M 238.5492 183.560234 
L 238.5492 33.842813 
" clip-path="url(#p17f6de5ebf)" style="fill: none; stroke: #b0b0b0; stroke-width: 0.8; stroke-linecap: square"/>
     </g>
     <g id="line2d_6">
      <g>
       <use xlink:href="#m422b0f2141" x="238.5492" y="183.560234" style="stroke: #000000; stroke-width: 0.8"/>
      </g>
     </g>
     <g id="text_3">
      <!-- 20 -->
      <g transform="translate(232.1867 198.157891) scale(0.1 -0.1)">
       <defs>
        <path id="DejaVuSans-15" d="M 1228 531 
L 3431 531 
L 3431 0 
L 469 0 
L 469 531 
Q 828 903 1448 1529 
Q 2069 2156 2228 2338 
Q 2531 2678 2651 2914 
Q 2772 3150 2772 3378 
Q 2772 3750 2511 3984 
Q 2250 4219 1831 4219 
Q 1534 4219 1204 4116 
Q 875 4013 500 3803 
L 500 4441 
Q 881 4594 1212 4672 
Q 1544 4750 1819 4750 
Q 2544 4750 2975 4387 
Q 3406 4025 3406 3419 
Q 3406 3131 3298 2873 
Q 3191 2616 2906 2266 
Q 2828 2175 2409 1742 
Q 1991 1309 1228 531 
z
" transform="scale(0.015625)"/>
       </defs>
       <use xlink:href="#DejaVuSans-15"/>
       <use xlink:href="#DejaVuSans-13" transform="translate(63.625 0)"/>
      </g>
     </g>
    </g>
    <g id="xtick_4">
     <g id="line2d_7">
      <path d="M 318.912683 183.560234 
L 318.912683 33.842813 
" clip-path="url(#p17f6de5ebf)" style="fill: none; stroke: #b0b0b0; stroke-width: 0.8; stroke-linecap: square"/>
     </g>
     <g id="line2d_8">
      <g>
       <use xlink:href="#m422b0f2141" x="318.912683" y="183.560234" style="stroke: #000000; stroke-width: 0.8"/>
      </g>
     </g>
     <g id="text_4">
      <!-- 30 -->
      <g transform="translate(312.550183 198.157891) scale(0.1 -0.1)">
       <defs>
        <path id="DejaVuSans-16" d="M 2597 2516 
Q 3050 2419 3304 2112 
Q 3559 1806 3559 1356 
Q 3559 666 3084 287 
Q 2609 -91 1734 -91 
Q 1441 -91 1130 -33 
Q 819 25 488 141 
L 488 750 
Q 750 597 1062 519 
Q 1375 441 1716 441 
Q 2309 441 2620 675 
Q 2931 909 2931 1356 
Q 2931 1769 2642 2001 
Q 2353 2234 1838 2234 
L 1294 2234 
L 1294 2753 
L 1863 2753 
Q 2328 2753 2575 2939 
Q 2822 3125 2822 3475 
Q 2822 3834 2567 4026 
Q 2313 4219 1838 4219 
Q 1578 4219 1281 4162 
Q 984 4106 628 3988 
L 628 4550 
Q 988 4650 1302 4700 
Q 1616 4750 1894 4750 
Q 2613 4750 3031 4423 
Q 3450 4097 3450 3541 
Q 3450 3153 3228 2886 
Q 3006 2619 2597 2516 
z
" transform="scale(0.015625)"/>
       </defs>
       <use xlink:href="#DejaVuSans-16"/>
       <use xlink:href="#DejaVuSans-13" transform="translate(63.625 0)"/>
      </g>
     </g>
    </g>
    <g id="xtick_5">
     <g id="line2d_9">
      <path d="M 399.276166 183.560234 
L 399.276166 33.842813 
" clip-path="url(#p17f6de5ebf)" style="fill: none; stroke: #b0b0b0; stroke-width: 0.8; stroke-linecap: square"/>
     </g>
     <g id="line2d_10">
      <g>
       <use xlink:href="#m422b0f2141" x="399.276166" y="183.560234" style="stroke: #000000; stroke-width: 0.8"/>
      </g>
     </g>
     <g id="text_5">
      <!-- 40 -->
      <g transform="translate(392.913666 198.157891) scale(0.1 -0.1)">
       <defs>
        <path id="DejaVuSans-17" d="M 2419 4116 
L 825 1625 
L 2419 1625 
L 2419 4116 
z
M 2253 4666 
L 3047 4666 
L 3047 1625 
L 3713 1625 
L 3713 1100 
L 3047 1100 
L 3047 0 
L 2419 0 
L 2419 1100 
L 313 1100 
L 313 1709 
L 2253 4666 
z
" transform="scale(0.015625)"/>
       </defs>
       <use xlink:href="#DejaVuSans-17"/>
       <use xlink:href="#DejaVuSans-13" transform="translate(63.625 0)"/>
      </g>
     </g>
    </g>
    <g id="xtick_6">
     <g id="line2d_11">
      <path d="M 479.639649 183.560234 
L 479.639649 33.842813 
" clip-path="url(#p17f6de5ebf)" style="fill: none; stroke: #b0b0b0; stroke-width: 0.8; stroke-linecap: square"/>
     </g>
     <g id="line2d_12">
      <g>
       <use xlink:href="#m422b0f2141" x="479.639649" y="183.560234" style="stroke: #000000; stroke-width: 0.8"/>
      </g>
     </g>
     <g id="text_6">
      <!-- 50 -->
      <g transform="translate(473.277149 198.157891) scale(0.1 -0.1)">
       <defs>
        <path id="DejaVuSans-18" d="M 691 4666 
L 3169 4666 
L 3169 4134 
L 1269 4134 
L 1269 2991 
Q 1406 3038 1543 3061 
Q 1681 3084 1819 3084 
Q 2600 3084 3056 2656 
Q 3513 2228 3513 1497 
Q 3513 744 3044 326 
Q 2575 -91 1722 -91 
Q 1428 -91 1123 -41 
Q 819 9 494 109 
L 494 744 
Q 775 591 1075 516 
Q 1375 441 1709 441 
Q 2250 441 2565 725 
Q 2881 1009 2881 1497 
Q 2881 1984 2565 2268 
Q 2250 2553 1709 2553 
Q 1456 2553 1204 2497 
Q 953 2441 691 2322 
L 691 4666 
z
" transform="scale(0.015625)"/>
       </defs>
       <use xlink:href="#DejaVuSans-18"/>
       <use xlink:href="#DejaVuSans-13" transform="translate(63.625 0)"/>
      </g>
     </g>
    </g>
   </g>
   <g id="matplotlib.axis_2">
    <g id="ytick_1">
     <g id="line2d_13">
      <path d="M 58.042344 180.701424 
L 493.2 180.701424 
" clip-path="url(#p17f6de5ebf)" style="fill: none; stroke: #b0b0b0; stroke-width: 0.8; stroke-linecap: square"/>
     </g>
     <g id="line2d_14">
      <defs>
       <path id="md36bb4a3cf" d="M 0 0 
L -3.5 0 
" style="stroke: #000000; stroke-width: 0.8"/>
      </defs>
      <g>
       <use xlink:href="#md36bb4a3cf" x="58.042344" y="180.701424" style="stroke: #000000; stroke-width: 0.8"/>
      </g>
     </g>
     <g id="text_7">
      <!-- −1.5 -->
      <g transform="translate(26.759531 184.500252) scale(0.1 -0.1)">
       <defs>
        <path id="DejaVuSans-c9c" d="M 678 2272 
L 4684 2272 
L 4684 1741 
L 678 1741 
L 678 2272 
z
" transform="scale(0.015625)"/>
        <path id="DejaVuSans-11" d="M 684 794 
L 1344 794 
L 1344 0 
L 684 0 
L 684 794 
z
" transform="scale(0.015625)"/>
       </defs>
       <use xlink:href="#DejaVuSans-c9c"/>
       <use xlink:href="#DejaVuSans-14" transform="translate(83.796875 0)"/>
       <use xlink:href="#DejaVuSans-11" transform="translate(147.421875 0)"/>
       <use xlink:href="#DejaVuSans-18" transform="translate(179.203125 0)"/>
      </g>
     </g>
    </g>
    <g id="ytick_2">
     <g id="line2d_15">
      <path d="M 58.042344 157.74067 
L 493.2 157.74067 
" clip-path="url(#p17f6de5ebf)" style="fill: none; stroke: #b0b0b0; stroke-width: 0.8; stroke-linecap: square"/>
     </g>
     <g id="line2d_16">
      <g>
       <use xlink:href="#md36bb4a3cf" x="58.042344" y="157.74067" style="stroke: #000000; stroke-width: 0.8"/>
      </g>
     </g>
     <g id="text_8">
      <!-- −1.0 -->
      <g transform="translate(26.759531 161.539498) scale(0.1 -0.1)">
       <use xlink:href="#DejaVuSans-c9c"/>
       <use xlink:href="#DejaVuSans-14" transform="translate(83.796875 0)"/>
       <use xlink:href="#DejaVuSans-11" transform="translate(147.421875 0)"/>
       <use xlink:href="#DejaVuSans-13" transform="translate(179.203125 0)"/>
      </g>
     </g>
    </g>
    <g id="ytick_3">
     <g id="line2d_17">
      <path d="M 58.042344 134.779915 
L 493.2 134.779915 
" clip-path="url(#p17f6de5ebf)" style="fill: none; stroke: #b0b0b0; stroke-width: 0.8; stroke-linecap: square"/>
     </g>
     <g id="line2d_18">
      <g>
       <use xlink:href="#md36bb4a3cf" x="58.042344" y="134.779915" style="stroke: #000000; stroke-width: 0.8"/>
      </g>
     </g>
     <g id="text_9">
      <!-- −0.5 -->
      <g transform="translate(26.759531 138.578743) scale(0.1 -0.1)">
       <use xlink:href="#DejaVuSans-c9c"/>
       <use xlink:href="#DejaVuSans-13" transform="translate(83.796875 0)"/>
       <use xlink:href="#DejaVuSans-11" transform="translate(147.421875 0)"/>
       <use xlink:href="#DejaVuSans-18" transform="translate(179.203125 0)"/>
      </g>
     </g>
    </g>
    <g id="ytick_4">
     <g id="line2d_19">
      <path d="M 58.042344 111.81916 
L 493.2 111.81916 
" clip-path="url(#p17f6de5ebf)" style="fill: none; stroke: #b0b0b0; stroke-width: 0.8; stroke-linecap: square"/>
     </g>
     <g id="line2d_20">
      <g>
       <use xlink:href="#md36bb4a3cf" x="58.042344" y="111.81916" style="stroke: #000000; stroke-width: 0.8"/>
      </g>
     </g>
     <g id="text_10">
      <!-- 0.0 -->
      <g transform="translate(35.139219 115.617988) scale(0.1 -0.1)">
       <use xlink:href="#DejaVuSans-13"/>
       <use xlink:href="#DejaVuSans-11" transform="translate(63.625 0)"/>
       <use xlink:href="#DejaVuSans-13" transform="translate(95.40625 0)"/>
      </g>
     </g>
    </g>
    <g id="ytick_5">
     <g id="line2d_21">
      <path d="M 58.042344 88.858406 
L 493.2 88.858406 
" clip-path="url(#p17f6de5ebf)" style="fill: none; stroke: #b0b0b0; stroke-width: 0.8; stroke-linecap: square"/>
     </g>
     <g id="line2d_22">
      <g>
       <use xlink:href="#md36bb4a3cf" x="58.042344" y="88.858406" style="stroke: #000000; stroke-width: 0.8"/>
      </g>
     </g>
     <g id="text_11">
      <!-- 0.5 -->
      <g transform="translate(35.139219 92.657234) scale(0.1 -0.1)">
       <use xlink:href="#DejaVuSans-13"/>
       <use xlink:href="#DejaVuSans-11" transform="translate(63.625 0)"/>
       <use xlink:href="#DejaVuSans-18" transform="translate(95.40625 0)"/>
      </g>
     </g>
    </g>
    <g id="ytick_6">
     <g id="line2d_23">
      <path d="M 58.042344 65.897651 
L 493.2 65.897651 
" clip-path="url(#p17f6de5ebf)" style="fill: none; stroke: #b0b0b0; stroke-width: 0.8; stroke-linecap: square"/>
     </g>
     <g id="line2d_24">
      <g>
       <use xlink:href="#md36bb4a3cf" x="58.042344" y="65.897651" style="stroke: #000000; stroke-width: 0.8"/>
      </g>
     </g>
     <g id="text_12">
      <!-- 1.0 -->
      <g transform="translate(35.139219 69.696479) scale(0.1 -0.1)">
       <use xlink:href="#DejaVuSans-14"/>
       <use xlink:href="#DejaVuSans-11" transform="translate(63.625 0)"/>
       <use xlink:href="#DejaVuSans-13" transform="translate(95.40625 0)"/>
      </g>
     </g>
    </g>
    <g id="ytick_7">
     <g id="line2d_25">
      <path d="M 58.042344 42.936896 
L 493.2 42.936896 
" clip-path="url(#p17f6de5ebf)" style="fill: none; stroke: #b0b0b0; stroke-width: 0.8; stroke-linecap: square"/>
     </g>
     <g id="line2d_26">
      <g>
       <use xlink:href="#md36bb4a3cf" x="58.042344" y="42.936896" style="stroke: #000000; stroke-width: 0.8"/>
      </g>
     </g>
     <g id="text_13">
      <!-- 1.5 -->
      <g transform="translate(35.139219 46.735724) scale(0.1 -0.1)">
       <use xlink:href="#DejaVuSans-14"/>
       <use xlink:href="#DejaVuSans-11" transform="translate(63.625 0)"/>
       <use xlink:href="#DejaVuSans-18" transform="translate(95.40625 0)"/>
      </g>
     </g>
    </g>
    <g id="text_14">
     <!-- $v_1$ [$m/s^2$] -->
     <g transform="translate(20.357188 131.301523) rotate(-90) scale(0.1 -0.1)">
      <defs>
       <path id="DejaVuSans-Oblique-59" d="M 459 3500 
L 1069 3500 
L 1581 525 
L 3256 3500 
L 3866 3500 
L 1875 0 
L 1100 0 
L 459 3500 
z
" transform="scale(0.015625)"/>
       <path id="DejaVuSans-3" transform="scale(0.015625)"/>
       <path id="DejaVuSans-3e" d="M 550 4863 
L 1875 4863 
L 1875 4416 
L 1125 4416 
L 1125 -397 
L 1875 -397 
L 1875 -844 
L 550 -844 
L 550 4863 
z
" transform="scale(0.015625)"/>
       <path id="DejaVuSans-Oblique-50" d="M 5747 2113 
L 5338 0 
L 4763 0 
L 5166 2094 
Q 5191 2228 5203 2325 
Q 5216 2422 5216 2491 
Q 5216 2772 5059 2928 
Q 4903 3084 4622 3084 
Q 4203 3084 3875 2770 
Q 3547 2456 3450 1953 
L 3066 0 
L 2491 0 
L 2900 2094 
Q 2925 2209 2937 2307 
Q 2950 2406 2950 2484 
Q 2950 2769 2794 2926 
Q 2638 3084 2363 3084 
Q 1938 3084 1609 2770 
Q 1281 2456 1184 1953 
L 800 0 
L 225 0 
L 909 3500 
L 1484 3500 
L 1375 2956 
Q 1609 3263 1923 3423 
Q 2238 3584 2597 3584 
Q 2978 3584 3223 3384 
Q 3469 3184 3519 2828 
Q 3781 3197 4126 3390 
Q 4472 3584 4856 3584 
Q 5306 3584 5551 3325 
Q 5797 3066 5797 2591 
Q 5797 2488 5784 2364 
Q 5772 2241 5747 2113 
z
" transform="scale(0.015625)"/>
       <path id="DejaVuSans-12" d="M 1625 4666 
L 2156 4666 
L 531 -594 
L 0 -594 
L 1625 4666 
z
" transform="scale(0.015625)"/>
       <path id="DejaVuSans-Oblique-56" d="M 3200 3397 
L 3091 2853 
Q 2863 2978 2609 3040 
Q 2356 3103 2088 3103 
Q 1634 3103 1373 2948 
Q 1113 2794 1113 2528 
Q 1113 2219 1719 2053 
Q 1766 2041 1788 2034 
L 1972 1978 
Q 2547 1819 2739 1644 
Q 2931 1469 2931 1166 
Q 2931 609 2489 259 
Q 2047 -91 1331 -91 
Q 1053 -91 747 -37 
Q 441 16 72 128 
L 184 722 
Q 500 559 806 475 
Q 1113 391 1394 391 
Q 1816 391 2080 572 
Q 2344 753 2344 1031 
Q 2344 1331 1650 1516 
L 1591 1531 
L 1394 1581 
Q 956 1697 753 1886 
Q 550 2075 550 2369 
Q 550 2928 970 3256 
Q 1391 3584 2113 3584 
Q 2397 3584 2667 3537 
Q 2938 3491 3200 3397 
z
" transform="scale(0.015625)"/>
       <path id="DejaVuSans-40" d="M 1947 4863 
L 1947 -844 
L 622 -844 
L 622 -397 
L 1369 -397 
L 1369 4416 
L 622 4416 
L 622 4863 
L 1947 4863 
z
" transform="scale(0.015625)"/>
      </defs>
      <use xlink:href="#DejaVuSans-Oblique-59" transform="translate(0 0.746875)"/>
      <use xlink:href="#DejaVuSans-14" transform="translate(59.179688 -14.253076) scale(0.7)"/>
      <use xlink:href="#DejaVuSans-3" transform="translate(106.450195 0.746875)"/>
      <use xlink:href="#DejaVuSans-3e" transform="translate(138.237305 0.746875)"/>
      <use xlink:href="#DejaVuSans-Oblique-50" transform="translate(177.250977 0.746875)"/>
      <use xlink:href="#DejaVuSans-12" transform="translate(274.663086 0.746875)"/>
      <use xlink:href="#DejaVuSans-Oblique-56" transform="translate(308.354492 0.746875)"/>
      <use xlink:href="#DejaVuSans-15" transform="translate(365.103997 42.046875) scale(0.7)"/>
      <use xlink:href="#DejaVuSans-40" transform="translate(412.374505 0.746875)"/>
     </g>
    </g>
   </g>
   <g id="line2d_27">
    <path d="M 77.822237 98.042707 
L 125.170092 98.042707 
L 125.973295 98.170156 
L 126.778964 115.462405 
L 127.581072 127.297813 
L 128.384429 134.037411 
L 129.18785 144.423817 
L 130.795551 171.655094 
L 131.599429 60.584212 
L 132.403908 57.178119 
L 133.212008 71.305491 
L 134.01073 160.74281 
L 134.813913 155.843599 
L 135.617962 164.730581 
L 136.421174 152.959855 
L 137.224787 172.58046 
L 138.02856 56.62753 
L 138.832352 56.069982 
L 139.902944 67.912081 
L 141.24359 84.206236 
L 142.581838 100.67805 
L 143.654622 112.86917 
L 144.189325 118.17349 
L 144.72483 95.389332 
L 146.33231 108.27911 
L 147.403812 118.230694 
L 149.011314 135.602175 
L 150.08421 148.034197 
L 150.618143 59.914247 
L 151.154225 58.024912 
L 151.702583 109.406324 
L 152.494039 146.629492 
L 153.564876 51.563747 
L 154.101528 71.814609 
L 154.637522 98.569581 
L 155.172329 97.486456 
L 155.709997 84.004781 
L 156.244012 76.65836 
L 156.77941 77.802374 
L 157.584404 83.024645 
L 158.119965 85.518497 
L 159.190591 89.244882 
L 161.065803 98.055232 
L 161.601708 102.031479 
L 162.138494 104.777948 
L 163.208707 108.110687 
L 163.745399 109.093723 
L 164.815996 110.381525 
L 165.352456 110.729347 
L 166.157961 111.024349 
L 166.691006 111.059566 
L 167.227322 111.424903 
L 169.371305 111.662882 
L 169.905558 111.628782 
L 170.441847 111.803789 
L 170.977705 112.987457 
L 171.781797 125.607804 
L 172.58537 125.848098 
L 173.390302 126.643389 
L 174.460621 133.706543 
L 175.26386 146.859086 
L 176.067645 163.181203 
L 176.870805 141.844246 
L 177.674546 61.904605 
L 178.479031 55.611153 
L 179.28169 149.35131 
L 180.085399 164.61916 
L 180.889067 172.617585 
L 181.693035 163.474187 
L 182.496881 50.457413 
L 183.30023 48.362087 
L 184.103992 59.989686 
L 184.907781 73.421841 
L 185.711087 135.869148 
L 186.515058 155.129686 
L 187.317998 164.36282 
L 188.122109 70.338742 
L 188.92576 68.253601 
L 192.1414 114.082264 
L 192.678728 114.562524 
L 193.213457 98.859637 
L 194.820425 115.976765 
L 196.42803 135.714061 
L 198.034729 156.47978 
L 198.570375 52.585744 
L 199.107508 50.574903 
L 199.64192 121.707993 
L 200.177875 133.735406 
L 200.714336 80.45105 
L 201.249983 56.972478 
L 201.785094 92.343868 
L 202.321293 107.645227 
L 203.392641 76.462451 
L 203.929565 74.363913 
L 204.464151 78.158049 
L 205.00153 79.619098 
L 205.536841 78.839797 
L 206.071079 78.438966 
L 206.607048 79.710672 
L 207.144829 82.451893 
L 207.678571 88.400822 
L 208.48257 98.956507 
L 209.018471 103.830728 
L 209.554578 106.739268 
L 210.08999 108.542361 
L 210.625521 109.697993 
L 211.162539 110.40731 
L 211.697177 110.851017 
L 212.769622 111.246955 
L 214.376974 111.697679 
L 214.9124 111.564228 
L 215.447731 111.781947 
L 215.984539 111.797586 
L 216.519458 111.689135 
L 217.054922 114.375414 
L 217.858615 125.629755 
L 218.662505 125.981364 
L 219.465994 127.103055 
L 220.53779 135.451209 
L 221.34167 149.268781 
L 222.145015 165.962418 
L 222.949327 131.567147 
L 223.752485 51.815188 
L 224.288194 69.683201 
L 225.091839 170.415286 
L 225.895495 165.676241 
L 226.699138 176.375116 
L 227.504833 168.07238 
L 228.308726 47.048997 
L 229.111794 45.392365 
L 229.916239 56.00444 
L 230.987423 72.907794 
L 232.058683 156.283679 
L 233.130258 147.885068 
L 233.933926 133.852368 
L 234.737153 79.387154 
L 235.541159 76.510335 
L 238.219708 114.850234 
L 239.023774 96.679783 
L 240.630751 114.390306 
L 242.238102 134.655497 
L 243.845117 156.315068 
L 244.381026 54.566737 
L 245.185054 49.481268 
L 245.721511 77.356395 
L 246.525247 154.824631 
L 247.059826 122.448582 
L 247.595379 53.126203 
L 248.131269 57.428568 
L 248.66814 91.719609 
L 249.470829 108.773862 
L 250.543094 74.295366 
L 251.345882 65.836698 
L 251.881467 72.178758 
L 252.417515 79.925285 
L 252.952937 85.023088 
L 253.757227 91.032673 
L 254.293574 97.600991 
L 254.828201 102.055513 
L 255.364566 105.211702 
L 255.899561 107.37237 
L 256.435433 108.872051 
L 256.971204 109.793464 
L 257.506844 110.414053 
L 258.846381 111.125204 
L 260.18586 111.385693 
L 261.525182 111.598973 
L 262.061043 111.616021 
L 262.596902 112.003757 
L 263.400206 122.231443 
L 264.204101 125.778922 
L 265.008056 126.565841 
L 266.079964 132.806646 
L 266.883474 146.293927 
L 267.687313 162.25821 
L 268.490512 139.668555 
L 269.295503 66.005801 
L 270.098667 58.28543 
L 270.901736 161.295792 
L 271.705493 165.754387 
L 272.509742 175.644532 
L 273.312339 166.919142 
L 274.11608 47.513824 
L 274.919706 45.64387 
L 275.72338 56.799665 
L 276.526723 70.028982 
L 277.598458 158.528394 
L 278.670739 150.049365 
L 279.473319 159.401176 
L 280.277141 77.242039 
L 281.080781 75.357647 
L 282.955902 102.251687 
L 284.027194 115.895286 
L 284.562926 94.291181 
L 286.438185 112.887902 
L 288.314562 134.175875 
L 289.920681 154.008832 
L 290.456927 55.071035 
L 290.992283 53.13921 
L 291.527749 120.198401 
L 292.063768 132.535088 
L 292.59944 79.782078 
L 293.13571 56.826865 
L 293.670954 94.859355 
L 294.206931 108.766909 
L 294.742523 92.07739 
L 295.546714 63.302863 
L 296.349642 62.586902 
L 296.88533 75.411168 
L 297.689536 87.150663 
L 298.225067 86.99347 
L 298.760659 85.101972 
L 299.296874 85.489967 
L 300.099956 89.626202 
L 300.635883 96.748584 
L 301.172704 101.828588 
L 301.707843 105.144333 
L 302.511333 107.754608 
L 303.046847 108.926255 
L 304.118619 110.285971 
L 305.189927 110.878281 
L 306.261703 111.36418 
L 306.79762 111.491271 
L 308.672201 111.682547 
L 309.207973 116.618566 
L 310.011511 125.682316 
L 310.815323 126.231149 
L 311.619384 128.191903 
L 312.424019 135.059573 
L 314.029815 162.275067 
L 314.833595 125.000085 
L 315.637303 60.673211 
L 316.442519 78.061546 
L 317.24451 169.594669 
L 318.04818 165.782589 
L 318.852065 176.628783 
L 319.656804 167.823947 
L 320.458901 47.395211 
L 321.263131 45.762834 
L 322.602076 64.848275 
L 324.477252 154.260726 
L 325.280939 153.56797 
L 326.084798 84.090786 
L 326.888401 81.900985 
L 329.298848 115.245141 
L 329.834778 93.85124 
L 331.978103 116.402267 
L 333.585071 136.553652 
L 334.656379 150.791816 
L 335.192582 130.205368 
L 335.996204 51.991193 
L 337.335396 48.674724 
L 338.139315 132.720763 
L 338.942879 144.327927 
L 339.478372 87.201708 
L 340.014308 49.573791 
L 340.818363 65.494564 
L 341.621759 92.693698 
L 342.425413 96.583498 
L 342.960597 88.338801 
L 343.49678 82.414665 
L 344.032372 82.848403 
L 345.103923 90.560121 
L 346.175613 101.445818 
L 346.711592 104.634145 
L 347.515233 107.215913 
L 348.050593 108.533732 
L 348.5864 109.443303 
L 349.124036 110.000007 
L 349.926085 110.505779 
L 351.802329 111.304472 
L 352.336968 111.320569 
L 353.407903 111.621026 
L 353.945181 111.67352 
L 354.479748 112.987671 
L 355.283509 125.613441 
L 356.355104 125.947665 
L 357.426876 129.025508 
L 358.497938 143.399257 
L 359.301289 159.192856 
L 360.105516 161.551369 
L 360.908912 76.582965 
L 361.712659 49.914857 
L 362.516237 99.728752 
L 363.319878 166.283282 
L 364.123756 165.631389 
L 364.927146 176.754897 
L 365.731087 168.068775 
L 366.534536 46.959742 
L 367.338546 45.271804 
L 368.142129 55.918567 
L 369.21339 64.280207 
L 370.285116 147.302424 
L 371.090252 151.733535 
L 371.892956 86.897938 
L 372.696041 83.742696 
L 374.572377 113.233344 
L 375.107375 110.2868 
L 375.642366 99.819136 
L 377.251603 119.898301 
L 379.928662 155.604426 
L 380.464359 84.051562 
L 381.000296 49.053567 
L 381.535994 99.975352 
L 382.071746 128.164893 
L 383.143339 67.845524 
L 383.679118 77.684686 
L 384.215134 93.33892 
L 384.750397 92.091716 
L 385.287141 82.33421 
L 385.822229 76.395977 
L 386.625677 74.371105 
L 387.429377 76.939317 
L 389.305133 89.447607 
L 389.840243 96.540607 
L 390.643974 103.120871 
L 391.179714 106.154737 
L 392.25115 109.175695 
L 392.787567 109.966517 
L 394.662256 111.16582 
L 396.001359 111.457886 
L 396.537085 111.459794 
L 397.073107 111.578758 
L 397.608578 111.577618 
L 398.412691 111.703878 
L 399.216384 115.710888 
L 400.021458 125.651968 
L 401.091779 126.3035 
L 401.894946 129.186886 
L 402.698537 138.281835 
L 403.502376 154.128761 
L 404.305736 154.924083 
L 405.109417 102.383842 
L 405.913186 62.459462 
L 407.521058 167.938783 
L 408.324326 169.727773 
L 409.128068 160.755178 
L 409.931549 171.782878 
L 410.735121 42.868812 
L 411.538629 40.64815 
L 412.074492 46.96978 
L 413.414155 67.657806 
L 415.020914 97.611057 
L 415.824551 114.756431 
L 416.628161 95.31932 
L 417.699599 110.965392 
L 420.110492 150.868359 
L 420.914347 158.888192 
L 421.717848 42.34269 
L 422.253722 48.45084 
L 423.057659 66.180684 
L 423.861707 125.174158 
L 424.66467 128.420897 
L 425.468678 67.505275 
L 426.004039 59.764906 
L 426.807801 71.816251 
L 427.343335 84.732688 
L 427.878993 87.282345 
L 428.415106 87.10252 
L 428.950472 87.842505 
L 429.487042 89.920024 
L 430.291063 93.856661 
L 432.16626 104.842367 
L 432.969255 108.024294 
L 433.772639 122.407472 
L 434.576095 125.561764 
L 437.523867 125.591195 
L 443.148465 125.681118 
L 443.953708 125.99231 
L 444.756649 127.427844 
L 445.56087 133.511393 
L 446.095064 139.095624 
L 446.899036 148.892182 
L 447.434091 153.679136 
L 448.238609 159.43612 
L 448.773616 161.395791 
L 449.309501 162.281806 
L 449.845337 162.205654 
L 450.380872 161.28878 
L 451.720858 156.972409 
L 452.523903 153.238098 
L 456.274197 126.893896 
L 457.078258 141.870711 
L 458.149449 138.433835 
L 459.488787 134.42117 
L 460.293637 131.314975 
L 461.634147 124.582772 
L 462.7037 117.219325 
L 463.774898 107.905671 
L 465.65147 88.88434 
L 466.454622 156.517547 
L 467.257471 158.777143 
L 467.794856 153.837579 
L 468.597574 86.208073 
L 469.402427 86.739305 
L 471.00916 150.219929 
L 471.812125 131.194255 
L 472.615343 108.588713 
L 473.420107 100.913108 
L 473.420107 100.913108 
" clip-path="url(#p17f6de5ebf)" style="fill: none; stroke: #1f77b4; stroke-width: 1.5; stroke-linecap: square"/>
   </g>
   <g id="patch_3">
    <path d="M 58.042344 183.560234 
L 58.042344 33.842813 
" style="fill: none; stroke: #000000; stroke-width: 0.8; stroke-linejoin: miter; stroke-linecap: square"/>
   </g>
   <g id="patch_4">
    <path d="M 493.2 183.560234 
L 493.2 33.842813 
" style="fill: none; stroke: #000000; stroke-width: 0.8; stroke-linejoin: miter; stroke-linecap: square"/>
   </g>
   <g id="patch_5">
    <path d="M 58.042344 183.560234 
L 493.2 183.560234 
" style="fill: none; stroke: #000000; stroke-width: 0.8; stroke-linejoin: miter; stroke-linecap: square"/>
   </g>
   <g id="patch_6">
    <path d="M 58.042344 33.842813 
L 493.2 33.842813 
" style="fill: none; stroke: #000000; stroke-width: 0.8; stroke-linejoin: miter; stroke-linecap: square"/>
   </g>
   <g id="legend_1">
    <g id="patch_7">
     <path d="M 443.5 56.843594 
L 486.2 56.843594 
Q 488.2 56.843594 488.2 54.843594 
L 488.2 40.842813 
Q 488.2 38.842813 486.2 38.842813 
L 443.5 38.842813 
Q 441.5 38.842813 441.5 40.842813 
L 441.5 54.843594 
Q 441.5 56.843594 443.5 56.843594 
z
" style="fill: #ffffff; opacity: 0.8; stroke: #cccccc; stroke-linejoin: miter"/>
    </g>
    <g id="line2d_28">
     <path d="M 445.5 46.94125 
L 455.5 46.94125 
L 465.5 46.94125 
" style="fill: none; stroke: #1f77b4; stroke-width: 1.5; stroke-linecap: square"/>
    </g>
    <g id="text_15">
     <!-- $v_1$ -->
     <g transform="translate(473.5 50.44125) scale(0.1 -0.1)">
      <use xlink:href="#DejaVuSans-Oblique-59" transform="translate(0 0.3125)"/>
      <use xlink:href="#DejaVuSans-14" transform="translate(59.179688 -14.687451) scale(0.7)"/>
     </g>
    </g>
   </g>
  </g>
  <g id="axes_2">
   <g id="patch_8">
    <path d="M 58.042344 361.077656 
L 493.2 361.077656 
L 493.2 211.360234 
L 58.042344 211.360234 
z
" style="fill: #ffffff"/>
   </g>
   <g id="matplotlib.axis_3">
    <g id="xtick_7">
     <g id="line2d_29">
      <path d="M 77.822234 361.077656 
L 77.822234 211.360234 
" clip-path="url(#pf8cfc260b3)" style="fill: none; stroke: #b0b0b0; stroke-width: 0.8; stroke-linecap: square"/>
     </g>
     <g id="line2d_30">
      <g>
       <use xlink:href="#m422b0f2141" x="77.822234" y="361.077656" style="stroke: #000000; stroke-width: 0.8"/>
      </g>
     </g>
     <g id="text_16">
      <!-- 0 -->
      <g transform="translate(74.640984 375.675313) scale(0.1 -0.1)">
       <use xlink:href="#DejaVuSans-13"/>
      </g>
     </g>
    </g>
    <g id="xtick_8">
     <g id="line2d_31">
      <path d="M 158.185717 361.077656 
L 158.185717 211.360234 
" clip-path="url(#pf8cfc260b3)" style="fill: none; stroke: #b0b0b0; stroke-width: 0.8; stroke-linecap: square"/>
     </g>
     <g id="line2d_32">
      <g>
       <use xlink:href="#m422b0f2141" x="158.185717" y="361.077656" style="stroke: #000000; stroke-width: 0.8"/>
      </g>
     </g>
     <g id="text_17">
      <!-- 10 -->
      <g transform="translate(151.823217 375.675313) scale(0.1 -0.1)">
       <use xlink:href="#DejaVuSans-14"/>
       <use xlink:href="#DejaVuSans-13" transform="translate(63.625 0)"/>
      </g>
     </g>
    </g>
    <g id="xtick_9">
     <g id="line2d_33">
      <path d="M 238.5492 361.077656 
L 238.5492 211.360234 
" clip-path="url(#pf8cfc260b3)" style="fill: none; stroke: #b0b0b0; stroke-width: 0.8; stroke-linecap: square"/>
     </g>
     <g id="line2d_34">
      <g>
       <use xlink:href="#m422b0f2141" x="238.5492" y="361.077656" style="stroke: #000000; stroke-width: 0.8"/>
      </g>
     </g>
     <g id="text_18">
      <!-- 20 -->
      <g transform="translate(232.1867 375.675313) scale(0.1 -0.1)">
       <use xlink:href="#DejaVuSans-15"/>
       <use xlink:href="#DejaVuSans-13" transform="translate(63.625 0)"/>
      </g>
     </g>
    </g>
    <g id="xtick_10">
     <g id="line2d_35">
      <path d="M 318.912683 361.077656 
L 318.912683 211.360234 
" clip-path="url(#pf8cfc260b3)" style="fill: none; stroke: #b0b0b0; stroke-width: 0.8; stroke-linecap: square"/>
     </g>
     <g id="line2d_36">
      <g>
       <use xlink:href="#m422b0f2141" x="318.912683" y="361.077656" style="stroke: #000000; stroke-width: 0.8"/>
      </g>
     </g>
     <g id="text_19">
      <!-- 30 -->
      <g transform="translate(312.550183 375.675313) scale(0.1 -0.1)">
       <use xlink:href="#DejaVuSans-16"/>
       <use xlink:href="#DejaVuSans-13" transform="translate(63.625 0)"/>
      </g>
     </g>
    </g>
    <g id="xtick_11">
     <g id="line2d_37">
      <path d="M 399.276166 361.077656 
L 399.276166 211.360234 
" clip-path="url(#pf8cfc260b3)" style="fill: none; stroke: #b0b0b0; stroke-width: 0.8; stroke-linecap: square"/>
     </g>
     <g id="line2d_38">
      <g>
       <use xlink:href="#m422b0f2141" x="399.276166" y="361.077656" style="stroke: #000000; stroke-width: 0.8"/>
      </g>
     </g>
     <g id="text_20">
      <!-- 40 -->
      <g transform="translate(392.913666 375.675313) scale(0.1 -0.1)">
       <use xlink:href="#DejaVuSans-17"/>
       <use xlink:href="#DejaVuSans-13" transform="translate(63.625 0)"/>
      </g>
     </g>
    </g>
    <g id="xtick_12">
     <g id="line2d_39">
      <path d="M 479.639649 361.077656 
L 479.639649 211.360234 
" clip-path="url(#pf8cfc260b3)" style="fill: none; stroke: #b0b0b0; stroke-width: 0.8; stroke-linecap: square"/>
     </g>
     <g id="line2d_40">
      <g>
       <use xlink:href="#m422b0f2141" x="479.639649" y="361.077656" style="stroke: #000000; stroke-width: 0.8"/>
      </g>
     </g>
     <g id="text_21">
      <!-- 50 -->
      <g transform="translate(473.277149 375.675313) scale(0.1 -0.1)">
       <use xlink:href="#DejaVuSans-18"/>
       <use xlink:href="#DejaVuSans-13" transform="translate(63.625 0)"/>
      </g>
     </g>
    </g>
    <g id="text_22">
     <!-- Time [s] -->
     <g transform="translate(255.289922 389.676094) scale(0.1 -0.1)">
      <defs>
       <path id="DejaVuSans-37" d="M -19 4666 
L 3928 4666 
L 3928 4134 
L 2272 4134 
L 2272 0 
L 1638 0 
L 1638 4134 
L -19 4134 
L -19 4666 
z
" transform="scale(0.015625)"/>
       <path id="DejaVuSans-4c" d="M 603 3500 
L 1178 3500 
L 1178 0 
L 603 0 
L 603 3500 
z
M 603 4863 
L 1178 4863 
L 1178 4134 
L 603 4134 
L 603 4863 
z
" transform="scale(0.015625)"/>
       <path id="DejaVuSans-50" d="M 3328 2828 
Q 3544 3216 3844 3400 
Q 4144 3584 4550 3584 
Q 5097 3584 5394 3201 
Q 5691 2819 5691 2113 
L 5691 0 
L 5113 0 
L 5113 2094 
Q 5113 2597 4934 2840 
Q 4756 3084 4391 3084 
Q 3944 3084 3684 2787 
Q 3425 2491 3425 1978 
L 3425 0 
L 2847 0 
L 2847 2094 
Q 2847 2600 2669 2842 
Q 2491 3084 2119 3084 
Q 1678 3084 1418 2786 
Q 1159 2488 1159 1978 
L 1159 0 
L 581 0 
L 581 3500 
L 1159 3500 
L 1159 2956 
Q 1356 3278 1631 3431 
Q 1906 3584 2284 3584 
Q 2666 3584 2933 3390 
Q 3200 3197 3328 2828 
z
" transform="scale(0.015625)"/>
       <path id="DejaVuSans-48" d="M 3597 1894 
L 3597 1613 
L 953 1613 
Q 991 1019 1311 708 
Q 1631 397 2203 397 
Q 2534 397 2845 478 
Q 3156 559 3463 722 
L 3463 178 
Q 3153 47 2828 -22 
Q 2503 -91 2169 -91 
Q 1331 -91 842 396 
Q 353 884 353 1716 
Q 353 2575 817 3079 
Q 1281 3584 2069 3584 
Q 2775 3584 3186 3129 
Q 3597 2675 3597 1894 
z
M 3022 2063 
Q 3016 2534 2758 2815 
Q 2500 3097 2075 3097 
Q 1594 3097 1305 2825 
Q 1016 2553 972 2059 
L 3022 2063 
z
" transform="scale(0.015625)"/>
       <path id="DejaVuSans-56" d="M 2834 3397 
L 2834 2853 
Q 2591 2978 2328 3040 
Q 2066 3103 1784 3103 
Q 1356 3103 1142 2972 
Q 928 2841 928 2578 
Q 928 2378 1081 2264 
Q 1234 2150 1697 2047 
L 1894 2003 
Q 2506 1872 2764 1633 
Q 3022 1394 3022 966 
Q 3022 478 2636 193 
Q 2250 -91 1575 -91 
Q 1294 -91 989 -36 
Q 684 19 347 128 
L 347 722 
Q 666 556 975 473 
Q 1284 391 1588 391 
Q 1994 391 2212 530 
Q 2431 669 2431 922 
Q 2431 1156 2273 1281 
Q 2116 1406 1581 1522 
L 1381 1569 
Q 847 1681 609 1914 
Q 372 2147 372 2553 
Q 372 3047 722 3315 
Q 1072 3584 1716 3584 
Q 2034 3584 2315 3537 
Q 2597 3491 2834 3397 
z
" transform="scale(0.015625)"/>
      </defs>
      <use xlink:href="#DejaVuSans-37"/>
      <use xlink:href="#DejaVuSans-4c" transform="translate(58 0)"/>
      <use xlink:href="#DejaVuSans-50" transform="translate(85.78125 0)"/>
      <use xlink:href="#DejaVuSans-48" transform="translate(183.1875 0)"/>
      <use xlink:href="#DejaVuSans-3" transform="translate(244.71875 0)"/>
      <use xlink:href="#DejaVuSans-3e" transform="translate(276.5 0)"/>
      <use xlink:href="#DejaVuSans-56" transform="translate(315.515625 0)"/>
      <use xlink:href="#DejaVuSans-40" transform="translate(367.609375 0)"/>
     </g>
    </g>
   </g>
   <g id="matplotlib.axis_4">
    <g id="ytick_8">
     <g id="line2d_41">
      <path d="M 58.042344 354.366315 
L 493.2 354.366315 
" clip-path="url(#pf8cfc260b3)" style="fill: none; stroke: #b0b0b0; stroke-width: 0.8; stroke-linecap: square"/>
     </g>
     <g id="line2d_42">
      <g>
       <use xlink:href="#md36bb4a3cf" x="58.042344" y="354.366315" style="stroke: #000000; stroke-width: 0.8"/>
      </g>
     </g>
     <g id="text_23">
      <!-- −2 -->
      <g transform="translate(36.300156 358.165143) scale(0.1 -0.1)">
       <use xlink:href="#DejaVuSans-c9c"/>
       <use xlink:href="#DejaVuSans-15" transform="translate(83.796875 0)"/>
      </g>
     </g>
    </g>
    <g id="ytick_9">
     <g id="line2d_43">
      <path d="M 58.042344 321.10427 
L 493.2 321.10427 
" clip-path="url(#pf8cfc260b3)" style="fill: none; stroke: #b0b0b0; stroke-width: 0.8; stroke-linecap: square"/>
     </g>
     <g id="line2d_44">
      <g>
       <use xlink:href="#md36bb4a3cf" x="58.042344" y="321.10427" style="stroke: #000000; stroke-width: 0.8"/>
      </g>
     </g>
     <g id="text_24">
      <!-- −1 -->
      <g transform="translate(36.300156 324.903098) scale(0.1 -0.1)">
       <use xlink:href="#DejaVuSans-c9c"/>
       <use xlink:href="#DejaVuSans-14" transform="translate(83.796875 0)"/>
      </g>
     </g>
    </g>
    <g id="ytick_10">
     <g id="line2d_45">
      <path d="M 58.042344 287.842226 
L 493.2 287.842226 
" clip-path="url(#pf8cfc260b3)" style="fill: none; stroke: #b0b0b0; stroke-width: 0.8; stroke-linecap: square"/>
     </g>
     <g id="line2d_46">
      <g>
       <use xlink:href="#md36bb4a3cf" x="58.042344" y="287.842226" style="stroke: #000000; stroke-width: 0.8"/>
      </g>
     </g>
     <g id="text_25">
      <!-- 0 -->
      <g transform="translate(44.679844 291.641054) scale(0.1 -0.1)">
       <use xlink:href="#DejaVuSans-13"/>
      </g>
     </g>
    </g>
    <g id="ytick_11">
     <g id="line2d_47">
      <path d="M 58.042344 254.580181 
L 493.2 254.580181 
" clip-path="url(#pf8cfc260b3)" style="fill: none; stroke: #b0b0b0; stroke-width: 0.8; stroke-linecap: square"/>
     </g>
     <g id="line2d_48">
      <g>
       <use xlink:href="#md36bb4a3cf" x="58.042344" y="254.580181" style="stroke: #000000; stroke-width: 0.8"/>
      </g>
     </g>
     <g id="text_26">
      <!-- 1 -->
      <g transform="translate(44.679844 258.379009) scale(0.1 -0.1)">
       <use xlink:href="#DejaVuSans-14"/>
      </g>
     </g>
    </g>
    <g id="ytick_12">
     <g id="line2d_49">
      <path d="M 58.042344 221.318136 
L 493.2 221.318136 
" clip-path="url(#pf8cfc260b3)" style="fill: none; stroke: #b0b0b0; stroke-width: 0.8; stroke-linecap: square"/>
     </g>
     <g id="line2d_50">
      <g>
       <use xlink:href="#md36bb4a3cf" x="58.042344" y="221.318136" style="stroke: #000000; stroke-width: 0.8"/>
      </g>
     </g>
     <g id="text_27">
      <!-- 2 -->
      <g transform="translate(44.679844 225.116964) scale(0.1 -0.1)">
       <use xlink:href="#DejaVuSans-15"/>
      </g>
     </g>
    </g>
    <g id="text_28">
     <!-- $v_2$ [$m/s^2$] -->
     <g transform="translate(29.897813 308.818945) rotate(-90) scale(0.1 -0.1)">
      <use xlink:href="#DejaVuSans-Oblique-59" transform="translate(0 0.746875)"/>
      <use xlink:href="#DejaVuSans-15" transform="translate(59.179688 -14.253076) scale(0.7)"/>
      <use xlink:href="#DejaVuSans-3" transform="translate(106.450195 0.746875)"/>
      <use xlink:href="#DejaVuSans-3e" transform="translate(138.237305 0.746875)"/>
      <use xlink:href="#DejaVuSans-Oblique-50" transform="translate(177.250977 0.746875)"/>
      <use xlink:href="#DejaVuSans-12" transform="translate(274.663086 0.746875)"/>
      <use xlink:href="#DejaVuSans-Oblique-56" transform="translate(308.354492 0.746875)"/>
      <use xlink:href="#DejaVuSans-15" transform="translate(365.103997 42.046875) scale(0.7)"/>
      <use xlink:href="#DejaVuSans-40" transform="translate(412.374505 0.746875)"/>
     </g>
    </g>
   </g>
   <g id="line2d_51">
    <path d="M 77.822237 287.842226 
L 124.367484 287.842226 
L 125.170092 293.486557 
L 125.973295 297.620165 
L 126.778964 295.392792 
L 127.581072 301.323966 
L 128.384429 332.447501 
L 129.18785 342.125362 
L 129.992208 335.970927 
L 130.795551 326.569767 
L 131.599429 244.987852 
L 132.403908 248.315098 
L 133.212008 241.892791 
L 134.01073 327.291156 
L 134.813913 328.341404 
L 135.617962 319.819744 
L 136.421174 325.89957 
L 137.224787 300.607187 
L 138.02856 264.788105 
L 138.832352 267.619383 
L 139.902944 259.493487 
L 140.706909 255.040984 
L 141.24359 253.341862 
L 141.778044 252.422562 
L 142.581838 251.648165 
L 143.117367 252.333321 
L 143.654622 253.562756 
L 144.189325 255.245266 
L 144.72483 258.586046 
L 145.260898 258.555145 
L 146.33231 257.712091 
L 146.869269 257.262485 
L 147.403812 257.014765 
L 147.939177 257.070063 
L 148.476292 257.541004 
L 149.011314 258.603977 
L 149.546704 260.201819 
L 150.08421 262.549573 
L 150.618143 291.362695 
L 151.154225 291.932079 
L 152.494039 257.33324 
L 153.029698 282.606019 
L 153.564876 300.162127 
L 154.101528 294.947302 
L 154.637522 282.893621 
L 155.172329 283.929984 
L 155.709997 293.570829 
L 156.244012 300.215312 
L 156.77941 302.214415 
L 157.584404 302.404736 
L 158.119965 302.850222 
L 158.654754 303.756257 
L 159.190591 304.011542 
L 159.995585 301.680547 
L 160.531997 299.265508 
L 161.601708 295.962337 
L 162.673201 293.09614 
L 163.745399 290.837015 
L 164.815996 289.403068 
L 166.157961 288.335124 
L 166.691006 288.105408 
L 168.298501 288.031523 
L 170.441847 287.90051 
L 170.977705 286.999959 
L 171.781797 281.096109 
L 172.58537 272.704346 
L 173.390302 272.336806 
L 175.26386 220.532207 
L 176.067645 228.232321 
L 176.870805 275.94689 
L 177.674546 333.414715 
L 178.479031 338.438707 
L 179.28169 266.946428 
L 180.085399 240.062158 
L 180.889067 248.096748 
L 181.693035 244.299843 
L 182.496881 321.647493 
L 183.30023 317.905001 
L 184.103992 326.227092 
L 184.907781 332.175793 
L 185.711087 240.046502 
L 186.515058 249.270078 
L 187.317998 257.09759 
L 188.122109 325.19083 
L 188.92576 322.412283 
L 189.729442 326.890688 
L 190.265681 328.354414 
L 190.800451 328.903492 
L 191.605678 328.932143 
L 192.1414 327.61494 
L 192.678728 325.233267 
L 193.213457 323.607224 
L 193.749454 323.500395 
L 194.820425 323.557232 
L 195.355845 323.364608 
L 195.893105 322.673167 
L 196.42803 321.62363 
L 196.96318 319.831238 
L 197.499543 317.27128 
L 198.034729 313.855696 
L 198.570375 285.146549 
L 199.107508 284.64141 
L 199.64192 302.258095 
L 200.177875 307.633038 
L 200.714336 288.447414 
L 201.249983 280.922624 
L 201.785094 291.267752 
L 202.321293 297.863018 
L 203.392641 281.738583 
L 203.929565 278.864298 
L 204.464151 278.614344 
L 205.00153 277.078684 
L 206.607048 267.267845 
L 207.144829 266.07414 
L 207.678571 265.803642 
L 208.48257 269.196009 
L 209.554578 275.936093 
L 210.625521 280.925949 
L 211.162539 282.80697 
L 211.697177 284.266602 
L 212.232873 285.345194 
L 212.769622 286.110767 
L 213.304396 286.639494 
L 214.376974 287.248493 
L 215.447731 287.541904 
L 216.519458 287.691206 
L 217.054922 289.5859 
L 218.662505 303.267717 
L 219.465994 306.173337 
L 220.53779 337.698781 
L 221.34167 354.272319 
L 222.145015 345.961391 
L 223.752485 237.469202 
L 224.288194 244.221041 
L 225.091839 334.128528 
L 225.895495 334.725558 
L 226.699138 323.384464 
L 227.504833 328.05588 
L 228.308726 257.865564 
L 229.111794 261.701083 
L 229.916239 252.767777 
L 230.987423 244.075083 
L 232.058683 326.860989 
L 233.130258 329.544404 
L 233.933926 332.752606 
L 234.737153 247.853601 
L 235.541159 250.04953 
L 236.07662 247.924338 
L 236.61319 246.788272 
L 237.148153 246.586714 
L 237.68386 247.174675 
L 238.219708 248.521463 
L 239.023774 251.443575 
L 239.559984 251.471662 
L 240.630751 251.204873 
L 241.166492 251.318735 
L 241.702067 251.809982 
L 242.238102 252.895381 
L 242.773523 254.578213 
L 243.309235 257.059232 
L 243.845117 260.404415 
L 244.381026 291.437564 
L 245.185054 289.38527 
L 245.721511 287.507576 
L 246.525247 255.357536 
L 247.059826 271.384501 
L 247.595379 297.543409 
L 248.131269 297.821258 
L 248.66814 286.035671 
L 249.470829 276.124932 
L 250.543094 300.616708 
L 251.345882 310.830868 
L 251.881467 311.021579 
L 252.417515 308.729284 
L 252.952937 307.049321 
L 253.757227 304.048708 
L 254.828201 301.53055 
L 255.899561 297.373617 
L 256.971204 293.094015 
L 258.310981 289.364136 
L 258.846381 288.581964 
L 259.382158 288.429699 
L 260.989872 288.320804 
L 262.061043 288.125504 
L 262.596902 287.807775 
L 263.400206 281.909252 
L 264.204101 272.971617 
L 265.008056 271.624517 
L 266.079964 244.963413 
L 266.883474 219.922261 
L 267.687313 227.265927 
L 269.295503 331.869703 
L 270.098667 338.17849 
L 270.901736 254.044791 
L 271.705493 239.982374 
L 272.509742 249.75036 
L 273.312339 245.804831 
L 274.11608 319.658855 
L 274.919706 315.785129 
L 275.72338 324.683181 
L 276.526723 331.208312 
L 277.598458 249.193602 
L 278.670739 246.253932 
L 279.473319 253.872508 
L 280.277141 327.375195 
L 281.080781 324.624808 
L 281.616223 326.366843 
L 282.152199 327.225874 
L 282.955902 327.79326 
L 283.491979 326.81379 
L 284.027194 325.221209 
L 284.562926 321.530179 
L 285.902313 322.133142 
L 286.438185 322.304354 
L 286.973882 322.324023 
L 287.777995 321.33737 
L 288.314562 320.342899 
L 288.849203 318.721056 
L 289.385031 316.427691 
L 289.920681 313.350556 
L 290.456927 285.253558 
L 290.992283 284.752075 
L 291.527749 301.839461 
L 292.063768 307.363334 
L 292.59944 288.005216 
L 293.13571 280.371392 
L 293.670954 292.167889 
L 294.206931 298.483721 
L 294.742523 289.902022 
L 295.546714 274.922678 
L 296.349642 270.249905 
L 297.689536 278.953664 
L 298.225067 276.388901 
L 298.760659 271.376216 
L 299.296874 268.371318 
L 300.099956 268.747907 
L 300.635883 270.915248 
L 303.046847 284.589331 
L 303.582705 285.279115 
L 304.654136 285.778337 
L 306.79762 287.223054 
L 307.600688 287.621071 
L 308.13628 287.756333 
L 308.672201 287.772925 
L 309.207973 291.35289 
L 310.011511 299.0163 
L 310.815323 303.693518 
L 311.619384 311.784043 
L 312.424019 333.156483 
L 313.226283 350.526387 
L 314.029815 339.849836 
L 314.833595 283.76835 
L 315.637303 240.575426 
L 316.442519 248.215895 
L 317.24451 334.349609 
L 318.04818 334.319873 
L 318.852065 323.250721 
L 319.656804 327.742043 
L 320.458901 258.09516 
L 321.263131 261.897814 
L 321.798298 255.977526 
L 322.602076 248.712057 
L 323.406134 266.138419 
L 324.477252 325.905109 
L 325.280939 324.38727 
L 326.084798 246.561411 
L 326.888401 249.090057 
L 327.691883 247.137786 
L 328.227359 247.292615 
L 328.763011 248.199608 
L 329.298848 249.733762 
L 329.834778 253.501018 
L 330.370592 253.398603 
L 331.978103 252.412836 
L 332.513404 252.489028 
L 333.04952 253.026458 
L 333.585071 254.171537 
L 334.120703 256.021666 
L 334.656379 258.677351 
L 335.996204 288.403628 
L 336.800087 288.821646 
L 337.335396 295.853098 
L 338.139315 265.124914 
L 338.942879 254.293764 
L 339.478372 288.04168 
L 340.014308 304.642389 
L 340.818363 302.485364 
L 341.621759 289.047488 
L 342.425413 286.678144 
L 343.49678 305.926328 
L 344.032372 309.165132 
L 344.568543 308.182636 
L 346.175613 299.971121 
L 346.711592 297.532263 
L 347.515233 293.28268 
L 348.050593 291.362481 
L 348.5864 290.615651 
L 349.124036 290.234582 
L 349.926085 289.517132 
L 350.729421 288.626433 
L 351.265116 288.309036 
L 353.407903 288.117942 
L 353.945181 288.049102 
L 354.479748 287.033003 
L 355.283509 281.033805 
L 356.355104 269.25982 
L 357.426876 248.696938 
L 358.497938 218.165572 
L 359.301289 224.748129 
L 360.105516 253.136675 
L 360.908912 325.123817 
L 361.712659 337.284702 
L 362.516237 313.614651 
L 363.319878 238.679666 
L 364.123756 240.668173 
L 364.927146 251.79044 
L 365.731087 247.453869 
L 366.534536 317.974534 
L 367.338546 314.121901 
L 368.142129 323.095362 
L 369.21339 319.306261 
L 370.285116 260.99822 
L 371.090252 246.983145 
L 371.892956 333.28968 
L 372.696041 330.965291 
L 373.232376 331.984976 
L 373.767543 331.997883 
L 374.572377 331.173472 
L 375.107375 328.537076 
L 375.642366 327.392751 
L 377.251603 327.007715 
L 377.785569 326.410313 
L 378.589465 324.03655 
L 379.393073 320.11382 
L 379.928662 316.822293 
L 380.464359 290.804939 
L 381.000296 282.895564 
L 382.071746 305.995365 
L 383.143339 282.942471 
L 383.679118 284.9955 
L 384.215134 290.621538 
L 384.750397 289.313909 
L 385.822229 277.817266 
L 386.625677 272.446877 
L 387.429377 269.017781 
L 388.232962 268.071704 
L 388.768713 268.430383 
L 389.840243 270.003841 
L 391.179714 278.222223 
L 391.715379 280.426735 
L 392.787567 283.371242 
L 393.590489 285.497605 
L 394.126494 286.440337 
L 394.662256 286.800803 
L 397.608578 287.58352 
L 398.412691 287.715687 
L 399.216384 290.712548 
L 400.021458 297.965678 
L 401.091779 306.073982 
L 401.894946 321.38048 
L 402.698537 342.444458 
L 403.502376 349.802456 
L 404.305736 321.779504 
L 405.109417 265.431891 
L 405.913186 240.661773 
L 406.7167 274.429465 
L 407.521058 335.631752 
L 408.324326 331.987985 
L 409.128068 334.933949 
L 409.931549 325.290955 
L 410.735121 261.136728 
L 411.538629 265.096684 
L 412.609929 252.206874 
L 413.414155 245.140248 
L 414.217358 240.58118 
L 415.020914 240.127285 
L 415.824551 251.596268 
L 416.628161 241.875566 
L 417.163943 241.995501 
L 417.699599 241.922668 
L 418.235349 242.211997 
L 418.771297 242.951038 
L 419.306925 244.431481 
L 420.110492 248.822989 
L 420.914347 257.02002 
L 422.253722 312.685373 
L 423.057659 295.709381 
L 423.861707 265.732724 
L 424.66467 261.229104 
L 426.004039 332.167214 
L 426.807801 306.950066 
L 427.343335 300.016967 
L 427.878993 300.009115 
L 428.415106 302.982625 
L 428.950472 305.062819 
L 429.487042 304.971372 
L 430.291063 301.055053 
L 431.093772 294.60139 
L 431.629491 292.426722 
L 432.969255 291.973616 
L 433.772639 290.966808 
L 434.576095 289.147213 
L 435.112378 288.566149 
L 436.183416 288.373416 
L 438.327042 288.22716 
L 439.665943 288.370242 
L 440.737234 288.758705 
L 441.541202 289.3621 
L 442.344559 290.533551 
L 443.148465 293.014392 
L 443.953708 298.444445 
L 444.756649 310.849225 
L 445.56087 334.427552 
L 446.095064 330.861084 
L 446.899036 324.723803 
L 450.380872 291.987482 
L 451.720858 281.986168 
L 453.060128 274.262332 
L 453.863881 270.757047 
L 454.39909 269.06596 
L 455.203246 266.984316 
L 455.738688 266.284227 
L 456.274197 265.956965 
L 457.078258 279.277117 
L 457.613873 278.165031 
L 458.953152 274.300884 
L 460.293637 269.825888 
L 463.239214 260.698315 
L 463.774898 259.710174 
L 464.312083 259.165167 
L 465.115078 259.853731 
L 465.65147 260.660411 
L 466.454622 294.957763 
L 467.257471 293.632714 
L 467.794856 296.16507 
L 468.597574 255.727474 
L 469.402427 253.520558 
L 470.205756 279.380622 
L 471.00916 298.840617 
L 471.812125 307.821933 
L 472.615343 298.797328 
L 473.420107 294.085636 
L 473.420107 294.085636 
" clip-path="url(#pf8cfc260b3)" style="fill: none; stroke: #1f77b4; stroke-width: 1.5; stroke-linecap: square"/>
   </g>
   <g id="patch_9">
    <path d="M 58.042344 361.077656 
L 58.042344 211.360234 
" style="fill: none; stroke: #000000; stroke-width: 0.8; stroke-linejoin: miter; stroke-linecap: square"/>
   </g>
   <g id="patch_10">
    <path d="M 493.2 361.077656 
L 493.2 211.360234 
" style="fill: none; stroke: #000000; stroke-width: 0.8; stroke-linejoin: miter; stroke-linecap: square"/>
   </g>
   <g id="patch_11">
    <path d="M 58.042344 361.077656 
L 493.2 361.077656 
" style="fill: none; stroke: #000000; stroke-width: 0.8; stroke-linejoin: miter; stroke-linecap: square"/>
   </g>
   <g id="patch_12">
    <path d="M 58.042344 211.360234 
L 493.2 211.360234 
" style="fill: none; stroke: #000000; stroke-width: 0.8; stroke-linejoin: miter; stroke-linecap: square"/>
   </g>
   <g id="legend_2">
    <g id="patch_13">
     <path d="M 443.5 234.361016 
L 486.2 234.361016 
Q 488.2 234.361016 488.2 232.361016 
L 488.2 218.360234 
Q 488.2 216.360234 486.2 216.360234 
L 443.5 216.360234 
Q 441.5 216.360234 441.5 218.360234 
L 441.5 232.361016 
Q 441.5 234.361016 443.5 234.361016 
z
" style="fill: #ffffff; opacity: 0.8; stroke: #cccccc; stroke-linejoin: miter"/>
    </g>
    <g id="line2d_52">
     <path d="M 445.5 224.458672 
L 455.5 224.458672 
L 465.5 224.458672 
" style="fill: none; stroke: #1f77b4; stroke-width: 1.5; stroke-linecap: square"/>
    </g>
    <g id="text_29">
     <!-- $v_2$ -->
     <g transform="translate(473.5 227.958672) scale(0.1 -0.1)">
      <use xlink:href="#DejaVuSans-Oblique-59" transform="translate(0 0.3125)"/>
      <use xlink:href="#DejaVuSans-15" transform="translate(59.179688 -14.687451) scale(0.7)"/>
     </g>
    </g>
   </g>
  </g>
  <g id="text_30">
   <!-- OAMPC Virtual Inputs -->
   <g transform="translate(188.213437 17.182125) scale(0.12 -0.12)">
    <defs>
     <path id="DejaVuSans-32" d="M 2522 4238 
Q 1834 4238 1429 3725 
Q 1025 3213 1025 2328 
Q 1025 1447 1429 934 
Q 1834 422 2522 422 
Q 3209 422 3611 934 
Q 4013 1447 4013 2328 
Q 4013 3213 3611 3725 
Q 3209 4238 2522 4238 
z
M 2522 4750 
Q 3503 4750 4090 4092 
Q 4678 3434 4678 2328 
Q 4678 1225 4090 567 
Q 3503 -91 2522 -91 
Q 1538 -91 948 565 
Q 359 1222 359 2328 
Q 359 3434 948 4092 
Q 1538 4750 2522 4750 
z
" transform="scale(0.015625)"/>
     <path id="DejaVuSans-24" d="M 2188 4044 
L 1331 1722 
L 3047 1722 
L 2188 4044 
z
M 1831 4666 
L 2547 4666 
L 4325 0 
L 3669 0 
L 3244 1197 
L 1141 1197 
L 716 0 
L 50 0 
L 1831 4666 
z
" transform="scale(0.015625)"/>
     <path id="DejaVuSans-30" d="M 628 4666 
L 1569 4666 
L 2759 1491 
L 3956 4666 
L 4897 4666 
L 4897 0 
L 4281 0 
L 4281 4097 
L 3078 897 
L 2444 897 
L 1241 4097 
L 1241 0 
L 628 0 
L 628 4666 
z
" transform="scale(0.015625)"/>
     <path id="DejaVuSans-33" d="M 1259 4147 
L 1259 2394 
L 2053 2394 
Q 2494 2394 2734 2622 
Q 2975 2850 2975 3272 
Q 2975 3691 2734 3919 
Q 2494 4147 2053 4147 
L 1259 4147 
z
M 628 4666 
L 2053 4666 
Q 2838 4666 3239 4311 
Q 3641 3956 3641 3272 
Q 3641 2581 3239 2228 
Q 2838 1875 2053 1875 
L 1259 1875 
L 1259 0 
L 628 0 
L 628 4666 
z
" transform="scale(0.015625)"/>
     <path id="DejaVuSans-26" d="M 4122 4306 
L 4122 3641 
Q 3803 3938 3442 4084 
Q 3081 4231 2675 4231 
Q 1875 4231 1450 3742 
Q 1025 3253 1025 2328 
Q 1025 1406 1450 917 
Q 1875 428 2675 428 
Q 3081 428 3442 575 
Q 3803 722 4122 1019 
L 4122 359 
Q 3791 134 3420 21 
Q 3050 -91 2638 -91 
Q 1578 -91 968 557 
Q 359 1206 359 2328 
Q 359 3453 968 4101 
Q 1578 4750 2638 4750 
Q 3056 4750 3426 4639 
Q 3797 4528 4122 4306 
z
" transform="scale(0.015625)"/>
     <path id="DejaVuSans-39" d="M 1831 0 
L 50 4666 
L 709 4666 
L 2188 738 
L 3669 4666 
L 4325 4666 
L 2547 0 
L 1831 0 
z
" transform="scale(0.015625)"/>
     <path id="DejaVuSans-55" d="M 2631 2963 
Q 2534 3019 2420 3045 
Q 2306 3072 2169 3072 
Q 1681 3072 1420 2755 
Q 1159 2438 1159 1844 
L 1159 0 
L 581 0 
L 581 3500 
L 1159 3500 
L 1159 2956 
Q 1341 3275 1631 3429 
Q 1922 3584 2338 3584 
Q 2397 3584 2469 3576 
Q 2541 3569 2628 3553 
L 2631 2963 
z
" transform="scale(0.015625)"/>
     <path id="DejaVuSans-57" d="M 1172 4494 
L 1172 3500 
L 2356 3500 
L 2356 3053 
L 1172 3053 
L 1172 1153 
Q 1172 725 1289 603 
Q 1406 481 1766 481 
L 2356 481 
L 2356 0 
L 1766 0 
Q 1100 0 847 248 
Q 594 497 594 1153 
L 594 3053 
L 172 3053 
L 172 3500 
L 594 3500 
L 594 4494 
L 1172 4494 
z
" transform="scale(0.015625)"/>
     <path id="DejaVuSans-58" d="M 544 1381 
L 544 3500 
L 1119 3500 
L 1119 1403 
Q 1119 906 1312 657 
Q 1506 409 1894 409 
Q 2359 409 2629 706 
Q 2900 1003 2900 1516 
L 2900 3500 
L 3475 3500 
L 3475 0 
L 2900 0 
L 2900 538 
Q 2691 219 2414 64 
Q 2138 -91 1772 -91 
Q 1169 -91 856 284 
Q 544 659 544 1381 
z
M 1991 3584 
L 1991 3584 
z
" transform="scale(0.015625)"/>
     <path id="DejaVuSans-44" d="M 2194 1759 
Q 1497 1759 1228 1600 
Q 959 1441 959 1056 
Q 959 750 1161 570 
Q 1363 391 1709 391 
Q 2188 391 2477 730 
Q 2766 1069 2766 1631 
L 2766 1759 
L 2194 1759 
z
M 3341 1997 
L 3341 0 
L 2766 0 
L 2766 531 
Q 2569 213 2275 61 
Q 1981 -91 1556 -91 
Q 1019 -91 701 211 
Q 384 513 384 1019 
Q 384 1609 779 1909 
Q 1175 2209 1959 2209 
L 2766 2209 
L 2766 2266 
Q 2766 2663 2505 2880 
Q 2244 3097 1772 3097 
Q 1472 3097 1187 3025 
Q 903 2953 641 2809 
L 641 3341 
Q 956 3463 1253 3523 
Q 1550 3584 1831 3584 
Q 2591 3584 2966 3190 
Q 3341 2797 3341 1997 
z
" transform="scale(0.015625)"/>
     <path id="DejaVuSans-4f" d="M 603 4863 
L 1178 4863 
L 1178 0 
L 603 0 
L 603 4863 
z
" transform="scale(0.015625)"/>
     <path id="DejaVuSans-2c" d="M 628 4666 
L 1259 4666 
L 1259 0 
L 628 0 
L 628 4666 
z
" transform="scale(0.015625)"/>
     <path id="DejaVuSans-51" d="M 3513 2113 
L 3513 0 
L 2938 0 
L 2938 2094 
Q 2938 2591 2744 2837 
Q 2550 3084 2163 3084 
Q 1697 3084 1428 2787 
Q 1159 2491 1159 1978 
L 1159 0 
L 581 0 
L 581 3500 
L 1159 3500 
L 1159 2956 
Q 1366 3272 1645 3428 
Q 1925 3584 2291 3584 
Q 2894 3584 3203 3211 
Q 3513 2838 3513 2113 
z
" transform="scale(0.015625)"/>
     <path id="DejaVuSans-53" d="M 1159 525 
L 1159 -1331 
L 581 -1331 
L 581 3500 
L 1159 3500 
L 1159 2969 
Q 1341 3281 1617 3432 
Q 1894 3584 2278 3584 
Q 2916 3584 3314 3078 
Q 3713 2572 3713 1747 
Q 3713 922 3314 415 
Q 2916 -91 2278 -91 
Q 1894 -91 1617 61 
Q 1341 213 1159 525 
z
M 3116 1747 
Q 3116 2381 2855 2742 
Q 2594 3103 2138 3103 
Q 1681 3103 1420 2742 
Q 1159 2381 1159 1747 
Q 1159 1113 1420 752 
Q 1681 391 2138 391 
Q 2594 391 2855 752 
Q 3116 1113 3116 1747 
z
" transform="scale(0.015625)"/>
    </defs>
    <use xlink:href="#DejaVuSans-32"/>
    <use xlink:href="#DejaVuSans-24" transform="translate(76.96875 0)"/>
    <use xlink:href="#DejaVuSans-30" transform="translate(145.375 0)"/>
    <use xlink:href="#DejaVuSans-33" transform="translate(231.65625 0)"/>
    <use xlink:href="#DejaVuSans-26" transform="translate(291.953125 0)"/>
    <use xlink:href="#DejaVuSans-3" transform="translate(361.78125 0)"/>
    <use xlink:href="#DejaVuSans-39" transform="translate(393.5625 0)"/>
    <use xlink:href="#DejaVuSans-4c" transform="translate(459.765625 0)"/>
    <use xlink:href="#DejaVuSans-55" transform="translate(487.546875 0)"/>
    <use xlink:href="#DejaVuSans-57" transform="translate(528.65625 0)"/>
    <use xlink:href="#DejaVuSans-58" transform="translate(567.859375 0)"/>
    <use xlink:href="#DejaVuSans-44" transform="translate(631.234375 0)"/>
    <use xlink:href="#DejaVuSans-4f" transform="translate(692.515625 0)"/>
    <use xlink:href="#DejaVuSans-3" transform="translate(720.296875 0)"/>
    <use xlink:href="#DejaVuSans-2c" transform="translate(752.078125 0)"/>
    <use xlink:href="#DejaVuSans-51" transform="translate(781.578125 0)"/>
    <use xlink:href="#DejaVuSans-53" transform="translate(844.953125 0)"/>
    <use xlink:href="#DejaVuSans-58" transform="translate(908.4375 0)"/>
    <use xlink:href="#DejaVuSans-57" transform="translate(971.8125 0)"/>
    <use xlink:href="#DejaVuSans-56" transform="translate(1011.015625 0)"/>
   </g>
  </g>
 </g>
 <defs>
  <clipPath id="p17f6de5ebf">
   <rect x="58.042344" y="33.842813" width="435.157656" height="149.717422"/>
  </clipPath>
  <clipPath id="pf8cfc260b3">
   <rect x="58.042344" y="211.360234" width="435.157656" height="149.717422"/>
  </clipPath>
 </defs>
</svg>
