<?xml version="1.0" encoding="utf-8" standalone="no"?>
<!DOCTYPE svg PUBLIC "-//W3C//DTD SVG 1.1//EN"
  "http://www.w3.org/Graphics/SVG/1.1/DTD/svg11.dtd">
<svg xmlns:xlink="http://www.w3.org/1999/xlink" width="504pt" height="604.8pt" viewBox="0 0 504 604.8" xmlns="http://www.w3.org/2000/svg" version="1.1">
 <metadata>
  <rdf:RDF xmlns:dc="http://purl.org/dc/elements/1.1/" xmlns:cc="http://creativecommons.org/ns#" xmlns:rdf="http://www.w3.org/1999/02/22-rdf-syntax-ns#">
   <cc:Work>
    <dc:type rdf:resource="http://purl.org/dc/dcmitype/StillImage"/>
    <dc:date>2026-07-09T12:39:04.545321</dc:date>
    <dc:format>image/svg+xml</dc:format>
    <dc:creator>
     <cc:Agent>
      <dc:title>Matplotlib v3.11.0, https://matplotlib.org/</dc:title>
     </cc:Agent>
    </dc:creator>
   </cc:Work>
  </rdf:RDF>
 </metadata>
 <defs>
  <style type="text/css">*{stroke-linejoin: round; stroke-linecap: butt}</style>
 </defs>
 <g id="figure_1">
  <g id="patch_1">
   <path d="M 0 604.8 
L 504 604.8 
L 504 0 
L 0 0 
z
" style="fill: #ffffff"/>
  </g>
  <g id="axes_1">
   <g id="patch_2">
    <path d="M 42.28 180.599531 
L 491.188209 180.599531 
L 491.188209 49.202812 
L 42.28 49.202812 
z
" style="fill: #ffffff"/>
   </g>
   <g id="matplotlib.axis_1">
    <g id="xtick_1">
     <g id="line2d_1">
      <path d="M 62.68491 180.599531 
L 62.68491 49.202812 
" clip-path="url(#p7a41f9029a)" style="fill: none; stroke: #b0b0b0; stroke-width: 0.8; stroke-linecap: square"/>
     </g>
     <g id="line2d_2">
      <defs>
       <path id="mb1c800fbbd" d="M 0 0 
L 0 3.5 
" style="stroke: #000000; stroke-width: 0.8"/>
      </defs>
      <g>
       <use xlink:href="#mb1c800fbbd" x="62.68491" y="180.599531" style="stroke: #000000; stroke-width: 0.8"/>
      </g>
     </g>
     <g id="text_1">
      <!-- 0 -->
      <g transform="translate(59.50366 195.197187) scale(0.1 -0.1)">
       <defs>
        <path id="DejaVuSans-13" d="M 2034 4250 
Q 1547 4250 1301 3770 
Q 1056 3291 1056 2328 
Q 1056 1369 1301 889 
Q 1547 409 2034 409 
Q 2525 409 2770 889 
Q 3016 1369 3016 2328 
Q 3016 3291 2770 3770 
Q 2525 4250 2034 4250 
z
M 2034 4750 
Q 2819 4750 3233 4129 
Q 3647 3509 3647 2328 
Q 3647 1150 3233 529 
Q 2819 -91 2034 -91 
Q 1250 -91 836 529 
Q 422 1150 422 2328 
Q 422 3509 836 4129 
Q 1250 4750 2034 4750 
z
" transform="scale(0.015625)"/>
       </defs>
       <use xlink:href="#DejaVuSans-13"/>
      </g>
     </g>
    </g>
    <g id="xtick_2">
     <g id="line2d_3">
      <path d="M 147.358527 180.599531 
L 147.358527 49.202812 
" clip-path="url(#p7a41f9029a)" style="fill: none; stroke: #b0b0b0; stroke-width: 0.8; stroke-linecap: square"/>
     </g>
     <g id="line2d_4">
      <g>
       <use xlink:href="#mb1c800fbbd" x="147.358527" y="180.599531" style="stroke: #000000; stroke-width: 0.8"/>
      </g>
     </g>
     <g id="text_2">
      <!-- 5 -->
      <g transform="translate(144.177277 195.197187) scale(0.1 -0.1)">
       <defs>
        <path id="DejaVuSans-18" d="M 691 4666 
L 3169 4666 
L 3169 4134 
L 1269 4134 
L 1269 2991 
Q 1406 3038 1543 3061 
Q 1681 3084 1819 3084 
Q 2600 3084 3056 2656 
Q 3513 2228 3513 1497 
Q 3513 744 3044 326 
Q 2575 -91 1722 -91 
Q 1428 -91 1123 -41 
Q 819 9 494 109 
L 494 744 
Q 775 591 1075 516 
Q 1375 441 1709 441 
Q 2250 441 2565 725 
Q 2881 1009 2881 1497 
Q 2881 1984 2565 2268 
Q 2250 2553 1709 2553 
Q 1456 2553 1204 2497 
Q 953 2441 691 2322 
L 691 4666 
z
" transform="scale(0.015625)"/>
       </defs>
       <use xlink:href="#DejaVuSans-18"/>
      </g>
     </g>
    </g>
    <g id="xtick_3">
     <g id="line2d_5">
      <path d="M 232.032143 180.599531 
L 232.032143 49.202812 
" clip-path="url(#p7a41f9029a)" style="fill: none; stroke: #b0b0b0; stroke-width: 0.8; stroke-linecap: square"/>
     </g>
     <g id="line2d_6">
      <g>
       <use xlink:href="#mb1c800fbbd" x="232.032143" y="180.599531" style="stroke: #000000; stroke-width: 0.8"/>
      </g>
     </g>
     <g id="text_3">
      <!-- 10 -->
      <g transform="translate(225.669643 195.197187) scale(0.1 -0.1)">
       <defs>
        <path id="DejaVuSans-14" d="M 794 531 
L 1825 531 
L 1825 4091 
L 703 3866 
L 703 4441 
L 1819 4666 
L 2450 4666 
L 2450 531 
L 3481 531 
L 3481 0 
L 794 0 
L 794 531 
z
" transform="scale(0.015625)"/>
       </defs>
       <use xlink:href="#DejaVuSans-14"/>
       <use xlink:href="#DejaVuSans-13" transform="translate(63.625 0)"/>
      </g>
     </g>
    </g>
    <g id="xtick_4">
     <g id="line2d_7">
      <path d="M 316.705759 180.599531 
L 316.705759 49.202812 
" clip-path="url(#p7a41f9029a)" style="fill: none; stroke: #b0b0b0; stroke-width: 0.8; stroke-linecap: square"/>
     </g>
     <g id="line2d_8">
      <g>
       <use xlink:href="#mb1c800fbbd" x="316.705759" y="180.599531" style="stroke: #000000; stroke-width: 0.8"/>
      </g>
     </g>
     <g id="text_4">
      <!-- 15 -->
      <g transform="translate(310.343259 195.197187) scale(0.1 -0.1)">
       <use xlink:href="#DejaVuSans-14"/>
       <use xlink:href="#DejaVuSans-18" transform="translate(63.625 0)"/>
      </g>
     </g>
    </g>
    <g id="xtick_5">
     <g id="line2d_9">
      <path d="M 401.379376 180.599531 
L 401.379376 49.202812 
" clip-path="url(#p7a41f9029a)" style="fill: none; stroke: #b0b0b0; stroke-width: 0.8; stroke-linecap: square"/>
     </g>
     <g id="line2d_10">
      <g>
       <use xlink:href="#mb1c800fbbd" x="401.379376" y="180.599531" style="stroke: #000000; stroke-width: 0.8"/>
      </g>
     </g>
     <g id="text_5">
      <!-- 20 -->
      <g transform="translate(395.016876 195.197187) scale(0.1 -0.1)">
       <defs>
        <path id="DejaVuSans-15" d="M 1228 531 
L 3431 531 
L 3431 0 
L 469 0 
L 469 531 
Q 828 903 1448 1529 
Q 2069 2156 2228 2338 
Q 2531 2678 2651 2914 
Q 2772 3150 2772 3378 
Q 2772 3750 2511 3984 
Q 2250 4219 1831 4219 
Q 1534 4219 1204 4116 
Q 875 4013 500 3803 
L 500 4441 
Q 881 4594 1212 4672 
Q 1544 4750 1819 4750 
Q 2544 4750 2975 4387 
Q 3406 4025 3406 3419 
Q 3406 3131 3298 2873 
Q 3191 2616 2906 2266 
Q 2828 2175 2409 1742 
Q 1991 1309 1228 531 
z
" transform="scale(0.015625)"/>
       </defs>
       <use xlink:href="#DejaVuSans-15"/>
       <use xlink:href="#DejaVuSans-13" transform="translate(63.625 0)"/>
      </g>
     </g>
    </g>
    <g id="xtick_6">
     <g id="line2d_11">
      <path d="M 486.052992 180.599531 
L 486.052992 49.202812 
" clip-path="url(#p7a41f9029a)" style="fill: none; stroke: #b0b0b0; stroke-width: 0.8; stroke-linecap: square"/>
     </g>
     <g id="line2d_12">
      <g>
       <use xlink:href="#mb1c800fbbd" x="486.052992" y="180.599531" style="stroke: #000000; stroke-width: 0.8"/>
      </g>
     </g>
     <g id="text_6">
      <!-- 25 -->
      <g transform="translate(479.690492 195.197187) scale(0.1 -0.1)">
       <use xlink:href="#DejaVuSans-15"/>
       <use xlink:href="#DejaVuSans-18" transform="translate(63.625 0)"/>
      </g>
     </g>
    </g>
    <g id="text_7">
     <!-- t (s) -->
     <g transform="translate(256.678636 209.197187) scale(0.1 -0.1)">
      <defs>
       <path id="DejaVuSans-57" d="M 1172 4494 
L 1172 3500 
L 2356 3500 
L 2356 3053 
L 1172 3053 
L 1172 1153 
Q 1172 725 1289 603 
Q 1406 481 1766 481 
L 2356 481 
L 2356 0 
L 1766 0 
Q 1100 0 847 248 
Q 594 497 594 1153 
L 594 3053 
L 172 3053 
L 172 3500 
L 594 3500 
L 594 4494 
L 1172 4494 
z
" transform="scale(0.015625)"/>
       <path id="DejaVuSans-3" transform="scale(0.015625)"/>
       <path id="DejaVuSans-b" d="M 1984 4856 
Q 1566 4138 1362 3434 
Q 1159 2731 1159 2009 
Q 1159 1288 1364 580 
Q 1569 -128 1984 -844 
L 1484 -844 
Q 1016 -109 783 600 
Q 550 1309 550 2009 
Q 550 2706 781 3412 
Q 1013 4119 1484 4856 
L 1984 4856 
z
" transform="scale(0.015625)"/>
       <path id="DejaVuSans-56" d="M 2834 3397 
L 2834 2853 
Q 2591 2978 2328 3040 
Q 2066 3103 1784 3103 
Q 1356 3103 1142 2972 
Q 928 2841 928 2578 
Q 928 2378 1081 2264 
Q 1234 2150 1697 2047 
L 1894 2003 
Q 2506 1872 2764 1633 
Q 3022 1394 3022 966 
Q 3022 478 2636 193 
Q 2250 -91 1575 -91 
Q 1294 -91 989 -36 
Q 684 19 347 128 
L 347 722 
Q 666 556 975 473 
Q 1284 391 1588 391 
Q 1994 391 2212 530 
Q 2431 669 2431 922 
Q 2431 1156 2273 1281 
Q 2116 1406 1581 1522 
L 1381 1569 
Q 847 1681 609 1914 
Q 372 2147 372 2553 
Q 372 3047 722 3315 
Q 1072 3584 1716 3584 
Q 2034 3584 2315 3537 
Q 2597 3491 2834 3397 
z
" transform="scale(0.015625)"/>
       <path id="DejaVuSans-c" d="M 513 4856 
L 1013 4856 
Q 1481 4119 1714 3412 
Q 1947 2706 1947 2009 
Q 1947 1309 1714 600 
Q 1481 -109 1013 -844 
L 513 -844 
Q 928 -128 1133 580 
Q 1338 1288 1338 2009 
Q 1338 2731 1133 3434 
Q 928 4138 513 4856 
z
" transform="scale(0.015625)"/>
      </defs>
      <use xlink:href="#DejaVuSans-57"/>
      <use xlink:href="#DejaVuSans-3" transform="translate(39.203125 0)"/>
      <use xlink:href="#DejaVuSans-b" transform="translate(70.984375 0)"/>
      <use xlink:href="#DejaVuSans-56" transform="translate(110 0)"/>
      <use xlink:href="#DejaVuSans-c" transform="translate(162.09375 0)"/>
     </g>
    </g>
   </g>
   <g id="matplotlib.axis_2">
    <g id="ytick_1">
     <g id="line2d_13">
      <path d="M 42.28 176.446012 
L 491.188209 176.446012 
" clip-path="url(#p7a41f9029a)" style="fill: none; stroke: #b0b0b0; stroke-width: 0.8; stroke-linecap: square"/>
     </g>
     <g id="line2d_14">
      <defs>
       <path id="m7253d4a7fe" d="M 0 0 
L -3.5 0 
" style="stroke: #000000; stroke-width: 0.8"/>
      </defs>
      <g>
       <use xlink:href="#m7253d4a7fe" x="42.28" y="176.446012" style="stroke: #000000; stroke-width: 0.8"/>
      </g>
     </g>
     <g id="text_8">
      <!-- 0.0 -->
      <g transform="translate(19.376875 180.244841) scale(0.1 -0.1)">
       <defs>
        <path id="DejaVuSans-11" d="M 684 794 
L 1344 794 
L 1344 0 
L 684 0 
L 684 794 
z
" transform="scale(0.015625)"/>
       </defs>
       <use xlink:href="#DejaVuSans-13"/>
       <use xlink:href="#DejaVuSans-11" transform="translate(63.625 0)"/>
       <use xlink:href="#DejaVuSans-13" transform="translate(95.40625 0)"/>
      </g>
     </g>
    </g>
    <g id="ytick_2">
     <g id="line2d_15">
      <path d="M 42.28 152.191888 
L 491.188209 152.191888 
" clip-path="url(#p7a41f9029a)" style="fill: none; stroke: #b0b0b0; stroke-width: 0.8; stroke-linecap: square"/>
     </g>
     <g id="line2d_16">
      <g>
       <use xlink:href="#m7253d4a7fe" x="42.28" y="152.191888" style="stroke: #000000; stroke-width: 0.8"/>
      </g>
     </g>
     <g id="text_9">
      <!-- 0.2 -->
      <g transform="translate(19.376875 155.990716) scale(0.1 -0.1)">
       <use xlink:href="#DejaVuSans-13"/>
       <use xlink:href="#DejaVuSans-11" transform="translate(63.625 0)"/>
       <use xlink:href="#DejaVuSans-15" transform="translate(95.40625 0)"/>
      </g>
     </g>
    </g>
    <g id="ytick_3">
     <g id="line2d_17">
      <path d="M 42.28 127.937764 
L 491.188209 127.937764 
" clip-path="url(#p7a41f9029a)" style="fill: none; stroke: #b0b0b0; stroke-width: 0.8; stroke-linecap: square"/>
     </g>
     <g id="line2d_18">
      <g>
       <use xlink:href="#m7253d4a7fe" x="42.28" y="127.937764" style="stroke: #000000; stroke-width: 0.8"/>
      </g>
     </g>
     <g id="text_10">
      <!-- 0.4 -->
      <g transform="translate(19.376875 131.736592) scale(0.1 -0.1)">
       <defs>
        <path id="DejaVuSans-17" d="M 2419 4116 
L 825 1625 
L 2419 1625 
L 2419 4116 
z
M 2253 4666 
L 3047 4666 
L 3047 1625 
L 3713 1625 
L 3713 1100 
L 3047 1100 
L 3047 0 
L 2419 0 
L 2419 1100 
L 313 1100 
L 313 1709 
L 2253 4666 
z
" transform="scale(0.015625)"/>
       </defs>
       <use xlink:href="#DejaVuSans-13"/>
       <use xlink:href="#DejaVuSans-11" transform="translate(63.625 0)"/>
       <use xlink:href="#DejaVuSans-17" transform="translate(95.40625 0)"/>
      </g>
     </g>
    </g>
    <g id="ytick_4">
     <g id="line2d_19">
      <path d="M 42.28 103.683639 
L 491.188209 103.683639 
" clip-path="url(#p7a41f9029a)" style="fill: none; stroke: #b0b0b0; stroke-width: 0.8; stroke-linecap: square"/>
     </g>
     <g id="line2d_20">
      <g>
       <use xlink:href="#m7253d4a7fe" x="42.28" y="103.683639" style="stroke: #000000; stroke-width: 0.8"/>
      </g>
     </g>
     <g id="text_11">
      <!-- 0.6 -->
      <g transform="translate(19.376875 107.482467) scale(0.1 -0.1)">
       <defs>
        <path id="DejaVuSans-19" d="M 2113 2584 
Q 1688 2584 1439 2293 
Q 1191 2003 1191 1497 
Q 1191 994 1439 701 
Q 1688 409 2113 409 
Q 2538 409 2786 701 
Q 3034 994 3034 1497 
Q 3034 2003 2786 2293 
Q 2538 2584 2113 2584 
z
M 3366 4563 
L 3366 3988 
Q 3128 4100 2886 4159 
Q 2644 4219 2406 4219 
Q 1781 4219 1451 3797 
Q 1122 3375 1075 2522 
Q 1259 2794 1537 2939 
Q 1816 3084 2150 3084 
Q 2853 3084 3261 2657 
Q 3669 2231 3669 1497 
Q 3669 778 3244 343 
Q 2819 -91 2113 -91 
Q 1303 -91 875 529 
Q 447 1150 447 2328 
Q 447 3434 972 4092 
Q 1497 4750 2381 4750 
Q 2619 4750 2861 4703 
Q 3103 4656 3366 4563 
z
" transform="scale(0.015625)"/>
       </defs>
       <use xlink:href="#DejaVuSans-13"/>
       <use xlink:href="#DejaVuSans-11" transform="translate(63.625 0)"/>
       <use xlink:href="#DejaVuSans-19" transform="translate(95.40625 0)"/>
      </g>
     </g>
    </g>
    <g id="ytick_5">
     <g id="line2d_21">
      <path d="M 42.28 79.429515 
L 491.188209 79.429515 
" clip-path="url(#p7a41f9029a)" style="fill: none; stroke: #b0b0b0; stroke-width: 0.8; stroke-linecap: square"/>
     </g>
     <g id="line2d_22">
      <g>
       <use xlink:href="#m7253d4a7fe" x="42.28" y="79.429515" style="stroke: #000000; stroke-width: 0.8"/>
      </g>
     </g>
     <g id="text_12">
      <!-- 0.8 -->
      <g transform="translate(19.376875 83.228343) scale(0.1 -0.1)">
       <defs>
        <path id="DejaVuSans-1b" d="M 2034 2216 
Q 1584 2216 1326 1975 
Q 1069 1734 1069 1313 
Q 1069 891 1326 650 
Q 1584 409 2034 409 
Q 2484 409 2743 651 
Q 3003 894 3003 1313 
Q 3003 1734 2745 1975 
Q 2488 2216 2034 2216 
z
M 1403 2484 
Q 997 2584 770 2862 
Q 544 3141 544 3541 
Q 544 4100 942 4425 
Q 1341 4750 2034 4750 
Q 2731 4750 3128 4425 
Q 3525 4100 3525 3541 
Q 3525 3141 3298 2862 
Q 3072 2584 2669 2484 
Q 3125 2378 3379 2068 
Q 3634 1759 3634 1313 
Q 3634 634 3220 271 
Q 2806 -91 2034 -91 
Q 1263 -91 848 271 
Q 434 634 434 1313 
Q 434 1759 690 2068 
Q 947 2378 1403 2484 
z
M 1172 3481 
Q 1172 3119 1398 2916 
Q 1625 2713 2034 2713 
Q 2441 2713 2670 2916 
Q 2900 3119 2900 3481 
Q 2900 3844 2670 4047 
Q 2441 4250 2034 4250 
Q 1625 4250 1398 4047 
Q 1172 3844 1172 3481 
z
" transform="scale(0.015625)"/>
       </defs>
       <use xlink:href="#DejaVuSans-13"/>
       <use xlink:href="#DejaVuSans-11" transform="translate(63.625 0)"/>
       <use xlink:href="#DejaVuSans-1b" transform="translate(95.40625 0)"/>
      </g>
     </g>
    </g>
    <g id="ytick_6">
     <g id="line2d_23">
      <path d="M 42.28 55.175391 
L 491.188209 55.175391 
" clip-path="url(#p7a41f9029a)" style="fill: none; stroke: #b0b0b0; stroke-width: 0.8; stroke-linecap: square"/>
     </g>
     <g id="line2d_24">
      <g>
       <use xlink:href="#m7253d4a7fe" x="42.28" y="55.175391" style="stroke: #000000; stroke-width: 0.8"/>
      </g>
     </g>
     <g id="text_13">
      <!-- 1.0 -->
      <g transform="translate(19.376875 58.974219) scale(0.1 -0.1)">
       <use xlink:href="#DejaVuSans-14"/>
       <use xlink:href="#DejaVuSans-11" transform="translate(63.625 0)"/>
       <use xlink:href="#DejaVuSans-13" transform="translate(95.40625 0)"/>
      </g>
     </g>
    </g>
   </g>
   <g id="line2d_25">
    <path d="M 62.684919 174.626953 
L 67.159188 167.350716 
L 84.093535 140.064826 
L 85.796326 138.245767 
L 100.467663 114.597995 
L 102.15859 112.778936 
L 134.898326 60.041799 
L 136.029224 58.778155 
L 137.725047 58.027631 
L 139.419925 57.760481 
L 141.110015 57.857945 
L 151.275675 68.772301 
L 152.39841 70.59136 
L 164.255253 83.324775 
L 165.94879 81.505716 
L 179.495056 96.058191 
L 180.623575 97.87725 
L 182.317469 99.696309 
L 183.446202 97.87725 
L 185.139635 96.058191 
L 186.269149 94.239131 
L 194.171016 106.972546 
L 195.864871 108.791606 
L 200.380813 116.067843 
L 204.896591 108.791606 
L 213.364025 99.696309 
L 214.492955 97.87725 
L 217.883722 94.239131 
L 219.009265 92.420072 
L 224.089656 86.962894 
L 229.7375 77.867597 
L 231.427724 76.048538 
L 243.846348 56.038885 
L 244.975611 55.175391 
L 246.104393 55.219537 
L 247.233545 55.916206 
L 248.362737 56.995354 
L 249.491736 58.250312 
L 251.185804 59.52095 
L 253.4433 61.731352 
L 254.57208 62.55641 
L 255.700771 63.156026 
L 256.831074 63.536346 
L 257.959072 63.721747 
L 259.653605 63.737212 
L 262.475861 63.391905 
L 269.249261 61.819178 
L 271.506414 61.610316 
L 274.893951 61.604278 
L 287.876823 62.079811 
L 295.780477 61.997405 
L 296.909225 61.823118 
L 304.26057 61.990839 
L 313.287843 61.930353 
L 317.808867 61.833215 
L 319.499724 63.652274 
L 321.75547 67.290393 
L 323.449168 69.109452 
L 324.581425 70.928511 
L 344.901599 92.757223 
L 346.597541 90.938164 
L 347.72299 89.119105 
L 351.10982 92.757223 
L 353.371894 96.395342 
L 355.064049 98.214401 
L 356.190955 100.033461 
L 357.884239 101.85252 
L 364.657587 112.766876 
L 373.126174 103.671579 
L 375.385446 100.033461 
L 380.467228 94.576283 
L 388.933729 103.671579 
L 395.708206 96.395342 
L 396.833198 94.576283 
L 403.608065 87.300045 
L 406.995054 90.938164 
L 408.123409 92.757223 
L 409.81815 94.576283 
L 411.510482 92.757223 
L 412.645231 90.938164 
L 414.336552 89.119105 
L 415.462259 87.300045 
L 423.929851 78.204749 
L 428.445648 70.928511 
L 430.139242 69.109452 
L 435.784976 60.031772 
L 438.606571 57.997534 
L 439.738852 57.697882 
L 441.430603 57.774003 
L 444.251301 58.719041 
L 448.767485 61.524554 
L 449.899399 62.057526 
L 451.025514 62.459832 
L 452.154299 62.743577 
L 453.284765 62.905104 
L 456.107475 62.90314 
L 460.060321 62.456466 
L 465.140626 67.913644 
L 470.783291 77.008941 
L 470.783291 77.008941 
" clip-path="url(#p7a41f9029a)" style="fill: none; stroke: #1f77b4; stroke-width: 1.5; stroke-linecap: square"/>
   </g>
   <g id="line2d_26">
    <path d="M 42.28 176.446012 
L 491.188209 176.446012 
" clip-path="url(#p7a41f9029a)" style="fill: none; stroke-dasharray: 3.7,1.6; stroke-dashoffset: 0; stroke: #ff0000"/>
   </g>
   <g id="line2d_27">
    <path d="M 42.28 55.175391 
L 491.188209 55.175391 
" clip-path="url(#p7a41f9029a)" style="fill: none; stroke-dasharray: 3.7,1.6; stroke-dashoffset: 0; stroke: #ff0000"/>
   </g>
   <g id="patch_3">
    <path d="M 42.28 180.599531 
L 42.28 49.202812 
" style="fill: none; stroke: #000000; stroke-width: 0.8; stroke-linejoin: miter; stroke-linecap: square"/>
   </g>
   <g id="patch_4">
    <path d="M 491.188209 180.599531 
L 491.188209 49.202812 
" style="fill: none; stroke: #000000; stroke-width: 0.8; stroke-linejoin: miter; stroke-linecap: square"/>
   </g>
   <g id="patch_5">
    <path d="M 42.28 180.599531 
L 491.188209 180.599531 
" style="fill: none; stroke: #000000; stroke-width: 0.8; stroke-linejoin: miter; stroke-linecap: square"/>
   </g>
   <g id="patch_6">
    <path d="M 42.28 49.202812 
L 491.188209 49.202812 
" style="fill: none; stroke: #000000; stroke-width: 0.8; stroke-linejoin: miter; stroke-linecap: square"/>
   </g>
   <g id="text_14">
    <!-- $v_{x,cmd}$ (m/s) -->
    <g transform="translate(231.694105 43.202812) scale(0.12 -0.12)">
     <defs>
      <path id="DejaVuSans-Oblique-59" d="M 459 3500 
L 1069 3500 
L 1581 525 
L 3256 3500 
L 3866 3500 
L 1875 0 
L 1100 0 
L 459 3500 
z
" transform="scale(0.015625)"/>
      <path id="DejaVuSans-Oblique-5b" d="M 3841 3500 
L 2234 1784 
L 3219 0 
L 2559 0 
L 1819 1388 
L 531 0 
L -166 0 
L 1556 1844 
L 641 3500 
L 1300 3500 
L 1972 2234 
L 3144 3500 
L 3841 3500 
z
" transform="scale(0.015625)"/>
      <path id="DejaVuSans-f" d="M 750 794 
L 1409 794 
L 1409 256 
L 897 -744 
L 494 -744 
L 750 256 
L 750 794 
z
" transform="scale(0.015625)"/>
      <path id="DejaVuSans-Oblique-46" d="M 3431 3366 
L 3316 2797 
Q 3109 2947 2876 3022 
Q 2644 3097 2394 3097 
Q 2119 3097 1870 3000 
Q 1622 2903 1453 2725 
Q 1184 2453 1037 2087 
Q 891 1722 891 1331 
Q 891 859 1127 628 
Q 1363 397 1844 397 
Q 2081 397 2348 469 
Q 2616 541 2906 684 
L 2797 116 
Q 2547 13 2283 -39 
Q 2019 -91 1741 -91 
Q 1044 -91 669 257 
Q 294 606 294 1253 
Q 294 1797 489 2255 
Q 684 2713 1069 3078 
Q 1331 3328 1684 3456 
Q 2038 3584 2456 3584 
Q 2700 3584 2940 3529 
Q 3181 3475 3431 3366 
z
" transform="scale(0.015625)"/>
      <path id="DejaVuSans-Oblique-50" d="M 5747 2113 
L 5338 0 
L 4763 0 
L 5166 2094 
Q 5191 2228 5203 2325 
Q 5216 2422 5216 2491 
Q 5216 2772 5059 2928 
Q 4903 3084 4622 3084 
Q 4203 3084 3875 2770 
Q 3547 2456 3450 1953 
L 3066 0 
L 2491 0 
L 2900 2094 
Q 2925 2209 2937 2307 
Q 2950 2406 2950 2484 
Q 2950 2769 2794 2926 
Q 2638 3084 2363 3084 
Q 1938 3084 1609 2770 
Q 1281 2456 1184 1953 
L 800 0 
L 225 0 
L 909 3500 
L 1484 3500 
L 1375 2956 
Q 1609 3263 1923 3423 
Q 2238 3584 2597 3584 
Q 2978 3584 3223 3384 
Q 3469 3184 3519 2828 
Q 3781 3197 4126 3390 
Q 4472 3584 4856 3584 
Q 5306 3584 5551 3325 
Q 5797 3066 5797 2591 
Q 5797 2488 5784 2364 
Q 5772 2241 5747 2113 
z
" transform="scale(0.015625)"/>
      <path id="DejaVuSans-Oblique-47" d="M 2675 525 
Q 2444 222 2128 65 
Q 1813 -91 1428 -91 
Q 903 -91 598 267 
Q 294 625 294 1247 
Q 294 1766 478 2236 
Q 663 2706 1013 3078 
Q 1244 3325 1534 3454 
Q 1825 3584 2144 3584 
Q 2481 3584 2739 3421 
Q 2997 3259 3138 2956 
L 3513 4863 
L 4091 4863 
L 3144 0 
L 2566 0 
L 2675 525 
z
M 891 1350 
Q 891 897 1095 644 
Q 1300 391 1663 391 
Q 1931 391 2161 520 
Q 2391 650 2566 903 
Q 2750 1166 2856 1509 
Q 2963 1853 2963 2188 
Q 2963 2622 2758 2865 
Q 2553 3109 2194 3109 
Q 1922 3109 1687 2981 
Q 1453 2853 1288 2613 
Q 1106 2353 998 2009 
Q 891 1666 891 1350 
z
" transform="scale(0.015625)"/>
      <path id="DejaVuSans-50" d="M 3328 2828 
Q 3544 3216 3844 3400 
Q 4144 3584 4550 3584 
Q 5097 3584 5394 3201 
Q 5691 2819 5691 2113 
L 5691 0 
L 5113 0 
L 5113 2094 
Q 5113 2597 4934 2840 
Q 4756 3084 4391 3084 
Q 3944 3084 3684 2787 
Q 3425 2491 3425 1978 
L 3425 0 
L 2847 0 
L 2847 2094 
Q 2847 2600 2669 2842 
Q 2491 3084 2119 3084 
Q 1678 3084 1418 2786 
Q 1159 2488 1159 1978 
L 1159 0 
L 581 0 
L 581 3500 
L 1159 3500 
L 1159 2956 
Q 1356 3278 1631 3431 
Q 1906 3584 2284 3584 
Q 2666 3584 2933 3390 
Q 3200 3197 3328 2828 
z
" transform="scale(0.015625)"/>
      <path id="DejaVuSans-12" d="M 1625 4666 
L 2156 4666 
L 531 -594 
L 0 -594 
L 1625 4666 
z
" transform="scale(0.015625)"/>
     </defs>
     <use xlink:href="#DejaVuSans-Oblique-59" transform="translate(0 0.125)"/>
     <use xlink:href="#DejaVuSans-Oblique-5b" transform="translate(59.179688 -14.874951) scale(0.7)"/>
     <use xlink:href="#DejaVuSans-f" transform="translate(100.605469 -14.874951) scale(0.7)"/>
     <use xlink:href="#DejaVuSans-Oblique-46" transform="translate(136.494141 -14.874951) scale(0.7)"/>
     <use xlink:href="#DejaVuSans-Oblique-50" transform="translate(174.980469 -14.874951) scale(0.7)"/>
     <use xlink:href="#DejaVuSans-Oblique-47" transform="translate(243.168945 -14.874951) scale(0.7)"/>
     <use xlink:href="#DejaVuSans-3" transform="translate(290.336914 0.125)"/>
     <use xlink:href="#DejaVuSans-b" transform="translate(322.124023 0.125)"/>
     <use xlink:href="#DejaVuSans-50" transform="translate(361.137695 0.125)"/>
     <use xlink:href="#DejaVuSans-12" transform="translate(458.549805 0.125)"/>
     <use xlink:href="#DejaVuSans-56" transform="translate(492.241211 0.125)"/>
     <use xlink:href="#DejaVuSans-c" transform="translate(544.34082 0.125)"/>
    </g>
   </g>
   <g id="legend_1">
    <g id="patch_7">
     <path d="M 423.088209 175.599531 
L 484.188209 175.599531 
Q 486.188209 175.599531 486.188209 173.599531 
L 486.188209 159.59875 
Q 486.188209 157.59875 484.188209 157.59875 
L 423.088209 157.59875 
Q 421.088209 157.59875 421.088209 159.59875 
L 421.088209 173.599531 
Q 421.088209 175.599531 423.088209 175.599531 
z
" style="fill: #ffffff; opacity: 0.8; stroke: #cccccc; stroke-linejoin: miter"/>
    </g>
    <g id="line2d_28">
     <path d="M 425.088209 165.697187 
L 435.088209 165.697187 
L 445.088209 165.697187 
" style="fill: none; stroke: #1f77b4; stroke-width: 1.5; stroke-linecap: square"/>
    </g>
    <g id="text_15">
     <!-- $v_{x,cmd}$ -->
     <g transform="translate(453.088209 169.197187) scale(0.1 -0.1)">
      <use xlink:href="#DejaVuSans-Oblique-59" transform="translate(0 0.3125)"/>
      <use xlink:href="#DejaVuSans-Oblique-5b" transform="translate(59.179688 -14.687451) scale(0.7)"/>
      <use xlink:href="#DejaVuSans-f" transform="translate(100.605469 -14.687451) scale(0.7)"/>
      <use xlink:href="#DejaVuSans-Oblique-46" transform="translate(136.494141 -14.687451) scale(0.7)"/>
      <use xlink:href="#DejaVuSans-Oblique-50" transform="translate(174.980469 -14.687451) scale(0.7)"/>
      <use xlink:href="#DejaVuSans-Oblique-47" transform="translate(243.168945 -14.687451) scale(0.7)"/>
     </g>
    </g>
   </g>
  </g>
  <g id="axes_2">
   <g id="patch_8">
    <path d="M 42.28 371.638594 
L 491.188209 371.638594 
L 491.188209 240.241875 
L 42.28 240.241875 
z
" style="fill: #ffffff"/>
   </g>
   <g id="matplotlib.axis_3">
    <g id="xtick_7">
     <g id="line2d_29">
      <path d="M 62.68491 371.638594 
L 62.68491 240.241875 
" clip-path="url(#p1a5d821122)" style="fill: none; stroke: #b0b0b0; stroke-width: 0.8; stroke-linecap: square"/>
     </g>
     <g id="line2d_30">
      <g>
       <use xlink:href="#mb1c800fbbd" x="62.68491" y="371.638594" style="stroke: #000000; stroke-width: 0.8"/>
      </g>
     </g>
     <g id="text_16">
      <!-- 0 -->
      <g transform="translate(59.50366 386.23625) scale(0.1 -0.1)">
       <use xlink:href="#DejaVuSans-13"/>
      </g>
     </g>
    </g>
    <g id="xtick_8">
     <g id="line2d_31">
      <path d="M 147.358527 371.638594 
L 147.358527 240.241875 
" clip-path="url(#p1a5d821122)" style="fill: none; stroke: #b0b0b0; stroke-width: 0.8; stroke-linecap: square"/>
     </g>
     <g id="line2d_32">
      <g>
       <use xlink:href="#mb1c800fbbd" x="147.358527" y="371.638594" style="stroke: #000000; stroke-width: 0.8"/>
      </g>
     </g>
     <g id="text_17">
      <!-- 5 -->
      <g transform="translate(144.177277 386.23625) scale(0.1 -0.1)">
       <use xlink:href="#DejaVuSans-18"/>
      </g>
     </g>
    </g>
    <g id="xtick_9">
     <g id="line2d_33">
      <path d="M 232.032143 371.638594 
L 232.032143 240.241875 
" clip-path="url(#p1a5d821122)" style="fill: none; stroke: #b0b0b0; stroke-width: 0.8; stroke-linecap: square"/>
     </g>
     <g id="line2d_34">
      <g>
       <use xlink:href="#mb1c800fbbd" x="232.032143" y="371.638594" style="stroke: #000000; stroke-width: 0.8"/>
      </g>
     </g>
     <g id="text_18">
      <!-- 10 -->
      <g transform="translate(225.669643 386.23625) scale(0.1 -0.1)">
       <use xlink:href="#DejaVuSans-14"/>
       <use xlink:href="#DejaVuSans-13" transform="translate(63.625 0)"/>
      </g>
     </g>
    </g>
    <g id="xtick_10">
     <g id="line2d_35">
      <path d="M 316.705759 371.638594 
L 316.705759 240.241875 
" clip-path="url(#p1a5d821122)" style="fill: none; stroke: #b0b0b0; stroke-width: 0.8; stroke-linecap: square"/>
     </g>
     <g id="line2d_36">
      <g>
       <use xlink:href="#mb1c800fbbd" x="316.705759" y="371.638594" style="stroke: #000000; stroke-width: 0.8"/>
      </g>
     </g>
     <g id="text_19">
      <!-- 15 -->
      <g transform="translate(310.343259 386.23625) scale(0.1 -0.1)">
       <use xlink:href="#DejaVuSans-14"/>
       <use xlink:href="#DejaVuSans-18" transform="translate(63.625 0)"/>
      </g>
     </g>
    </g>
    <g id="xtick_11">
     <g id="line2d_37">
      <path d="M 401.379376 371.638594 
L 401.379376 240.241875 
" clip-path="url(#p1a5d821122)" style="fill: none; stroke: #b0b0b0; stroke-width: 0.8; stroke-linecap: square"/>
     </g>
     <g id="line2d_38">
      <g>
       <use xlink:href="#mb1c800fbbd" x="401.379376" y="371.638594" style="stroke: #000000; stroke-width: 0.8"/>
      </g>
     </g>
     <g id="text_20">
      <!-- 20 -->
      <g transform="translate(395.016876 386.23625) scale(0.1 -0.1)">
       <use xlink:href="#DejaVuSans-15"/>
       <use xlink:href="#DejaVuSans-13" transform="translate(63.625 0)"/>
      </g>
     </g>
    </g>
    <g id="xtick_12">
     <g id="line2d_39">
      <path d="M 486.052992 371.638594 
L 486.052992 240.241875 
" clip-path="url(#p1a5d821122)" style="fill: none; stroke: #b0b0b0; stroke-width: 0.8; stroke-linecap: square"/>
     </g>
     <g id="line2d_40">
      <g>
       <use xlink:href="#mb1c800fbbd" x="486.052992" y="371.638594" style="stroke: #000000; stroke-width: 0.8"/>
      </g>
     </g>
     <g id="text_21">
      <!-- 25 -->
      <g transform="translate(479.690492 386.23625) scale(0.1 -0.1)">
       <use xlink:href="#DejaVuSans-15"/>
       <use xlink:href="#DejaVuSans-18" transform="translate(63.625 0)"/>
      </g>
     </g>
    </g>
    <g id="text_22">
     <!-- t (s) -->
     <g transform="translate(256.678636 400.23625) scale(0.1 -0.1)">
      <use xlink:href="#DejaVuSans-57"/>
      <use xlink:href="#DejaVuSans-3" transform="translate(39.203125 0)"/>
      <use xlink:href="#DejaVuSans-b" transform="translate(70.984375 0)"/>
      <use xlink:href="#DejaVuSans-56" transform="translate(110 0)"/>
      <use xlink:href="#DejaVuSans-c" transform="translate(162.09375 0)"/>
     </g>
    </g>
   </g>
   <g id="matplotlib.axis_4">
    <g id="ytick_7">
     <g id="line2d_41">
      <path d="M 42.28 351.567264 
L 491.188209 351.567264 
" clip-path="url(#p1a5d821122)" style="fill: none; stroke: #b0b0b0; stroke-width: 0.8; stroke-linecap: square"/>
     </g>
     <g id="line2d_42">
      <g>
       <use xlink:href="#m7253d4a7fe" x="42.28" y="351.567264" style="stroke: #000000; stroke-width: 0.8"/>
      </g>
     </g>
     <g id="text_23">
      <!-- −0.4 -->
      <g transform="translate(10.997188 355.366092) scale(0.1 -0.1)">
       <defs>
        <path id="DejaVuSans-c9c" d="M 678 2272 
L 4684 2272 
L 4684 1741 
L 678 1741 
L 678 2272 
z
" transform="scale(0.015625)"/>
       </defs>
       <use xlink:href="#DejaVuSans-c9c"/>
       <use xlink:href="#DejaVuSans-13" transform="translate(83.796875 0)"/>
       <use xlink:href="#DejaVuSans-11" transform="translate(147.421875 0)"/>
       <use xlink:href="#DejaVuSans-17" transform="translate(179.203125 0)"/>
      </g>
     </g>
    </g>
    <g id="ytick_8">
     <g id="line2d_43">
      <path d="M 42.28 328.753749 
L 491.188209 328.753749 
" clip-path="url(#p1a5d821122)" style="fill: none; stroke: #b0b0b0; stroke-width: 0.8; stroke-linecap: square"/>
     </g>
     <g id="line2d_44">
      <g>
       <use xlink:href="#m7253d4a7fe" x="42.28" y="328.753749" style="stroke: #000000; stroke-width: 0.8"/>
      </g>
     </g>
     <g id="text_24">
      <!-- −0.2 -->
      <g transform="translate(10.997188 332.552577) scale(0.1 -0.1)">
       <use xlink:href="#DejaVuSans-c9c"/>
       <use xlink:href="#DejaVuSans-13" transform="translate(83.796875 0)"/>
       <use xlink:href="#DejaVuSans-11" transform="translate(147.421875 0)"/>
       <use xlink:href="#DejaVuSans-15" transform="translate(179.203125 0)"/>
      </g>
     </g>
    </g>
    <g id="ytick_9">
     <g id="line2d_45">
      <path d="M 42.28 305.940234 
L 491.188209 305.940234 
" clip-path="url(#p1a5d821122)" style="fill: none; stroke: #b0b0b0; stroke-width: 0.8; stroke-linecap: square"/>
     </g>
     <g id="line2d_46">
      <g>
       <use xlink:href="#m7253d4a7fe" x="42.28" y="305.940234" style="stroke: #000000; stroke-width: 0.8"/>
      </g>
     </g>
     <g id="text_25">
      <!-- 0.0 -->
      <g transform="translate(19.376875 309.739062) scale(0.1 -0.1)">
       <use xlink:href="#DejaVuSans-13"/>
       <use xlink:href="#DejaVuSans-11" transform="translate(63.625 0)"/>
       <use xlink:href="#DejaVuSans-13" transform="translate(95.40625 0)"/>
      </g>
     </g>
    </g>
    <g id="ytick_10">
     <g id="line2d_47">
      <path d="M 42.28 283.12672 
L 491.188209 283.12672 
" clip-path="url(#p1a5d821122)" style="fill: none; stroke: #b0b0b0; stroke-width: 0.8; stroke-linecap: square"/>
     </g>
     <g id="line2d_48">
      <g>
       <use xlink:href="#m7253d4a7fe" x="42.28" y="283.12672" style="stroke: #000000; stroke-width: 0.8"/>
      </g>
     </g>
     <g id="text_26">
      <!-- 0.2 -->
      <g transform="translate(19.376875 286.925548) scale(0.1 -0.1)">
       <use xlink:href="#DejaVuSans-13"/>
       <use xlink:href="#DejaVuSans-11" transform="translate(63.625 0)"/>
       <use xlink:href="#DejaVuSans-15" transform="translate(95.40625 0)"/>
      </g>
     </g>
    </g>
    <g id="ytick_11">
     <g id="line2d_49">
      <path d="M 42.28 260.313205 
L 491.188209 260.313205 
" clip-path="url(#p1a5d821122)" style="fill: none; stroke: #b0b0b0; stroke-width: 0.8; stroke-linecap: square"/>
     </g>
     <g id="line2d_50">
      <g>
       <use xlink:href="#m7253d4a7fe" x="42.28" y="260.313205" style="stroke: #000000; stroke-width: 0.8"/>
      </g>
     </g>
     <g id="text_27">
      <!-- 0.4 -->
      <g transform="translate(19.376875 264.112033) scale(0.1 -0.1)">
       <use xlink:href="#DejaVuSans-13"/>
       <use xlink:href="#DejaVuSans-11" transform="translate(63.625 0)"/>
       <use xlink:href="#DejaVuSans-17" transform="translate(95.40625 0)"/>
      </g>
     </g>
    </g>
   </g>
   <g id="line2d_51">
    <path d="M 62.684919 305.940234 
L 63.774058 365.666016 
L 69.417875 365.666016 
L 70.545844 246.214453 
L 71.675748 289.76947 
L 72.803533 365.666016 
L 73.934814 356.658554 
L 75.063634 246.214453 
L 76.191961 246.214453 
L 77.321744 365.666016 
L 78.448653 365.666016 
L 79.577788 246.214453 
L 80.709727 246.214453 
L 81.843708 364.490986 
L 82.967322 359.257693 
L 84.093535 246.214453 
L 85.796326 246.214453 
L 88.045839 364.184975 
L 90.30542 253.761077 
L 91.442451 293.675401 
L 92.567452 347.399867 
L 93.696321 324.303115 
L 94.822918 276.948333 
L 95.94851 283.561761 
L 97.077711 319.868355 
L 98.211746 325.480621 
L 99.336151 302.506002 
L 100.467663 290.806553 
L 102.15859 301.905432 
L 103.289159 312.663071 
L 104.416666 310.421819 
L 105.54568 302.993995 
L 106.67334 300.684555 
L 108.933485 306.193041 
L 110.062359 305.958466 
L 111.19242 304.345434 
L 112.318393 303.413808 
L 113.447581 303.519291 
L 114.576911 303.883704 
L 115.706445 303.894617 
L 124.738551 301.289662 
L 126.995894 300.771303 
L 128.14039 300.558352 
L 134.898326 300.063381 
L 136.029224 299.853818 
L 139.419925 298.660019 
L 141.110015 298.244342 
L 142.805506 298.118158 
L 144.496391 298.288213 
L 146.189162 308.537833 
L 147.883764 341.436215 
L 149.576538 365.666016 
L 152.39841 365.666016 
L 154.092714 359.546556 
L 155.785621 296.350706 
L 157.48027 246.214453 
L 159.172669 265.56614 
L 160.865875 365.666016 
L 165.94879 365.666016 
L 167.639668 246.214453 
L 174.414345 246.214453 
L 176.106594 313.512362 
L 177.802946 365.666016 
L 186.269149 365.666016 
L 187.397127 246.214453 
L 214.492955 246.214453 
L 216.189982 354.571736 
L 217.883722 365.666016 
L 219.009265 294.58538 
L 220.70386 246.214453 
L 222.398018 314.184376 
L 224.089656 365.666016 
L 225.218359 365.666016 
L 226.347627 267.130109 
L 227.476287 265.142446 
L 228.607322 365.666016 
L 229.7375 365.666016 
L 231.427724 246.214453 
L 232.557693 265.196111 
L 233.686225 361.302124 
L 234.814388 365.666016 
L 235.943429 316.060129 
L 237.073453 304.816682 
L 238.201159 323.174981 
L 239.330817 337.56225 
L 240.461213 340.07801 
L 242.717372 335.109591 
L 244.975611 331.353616 
L 246.104393 328.761687 
L 249.491736 319.178987 
L 251.185804 314.061339 
L 252.313994 311.712302 
L 253.4433 310.733344 
L 254.57208 310.302996 
L 257.959072 309.612671 
L 259.653605 309.300642 
L 260.781621 309.21213 
L 263.603805 309.308857 
L 268.119562 309.565039 
L 272.635975 309.586121 
L 277.152158 309.304885 
L 280.538752 309.102883 
L 282.796963 309.113711 
L 286.747655 309.426584 
L 291.263639 309.61126 
L 295.780477 309.528671 
L 298.048648 309.365428 
L 304.26057 308.737672 
L 311.032329 307.959983 
L 316.674867 307.243534 
L 317.808867 307.335994 
L 320.626331 308.189915 
L 321.75547 306.399196 
L 324.581425 246.214453 
L 326.272913 260.47099 
L 327.965623 281.219223 
L 329.661781 274.746132 
L 331.354102 246.214453 
L 333.049588 246.214453 
L 334.740076 286.871787 
L 336.434178 365.666016 
L 338.129751 365.666016 
L 339.823518 331.325755 
L 341.516538 246.214453 
L 347.72299 246.214453 
L 349.41658 365.666016 
L 378.772431 365.666016 
L 380.467228 246.214453 
L 392.320579 246.214453 
L 394.012646 365.666016 
L 401.914814 365.666016 
L 403.608065 298.220546 
L 405.301288 246.214453 
L 409.81815 246.214453 
L 411.510482 365.666016 
L 415.462259 365.666016 
L 417.156241 250.242406 
L 418.849104 246.214453 
L 420.544216 246.214453 
L 422.237055 263.700943 
L 423.929851 288.370542 
L 425.058161 291.306736 
L 426.190896 285.763684 
L 427.316342 282.356062 
L 428.445648 283.428535 
L 431.271274 292.979998 
L 432.397652 294.86031 
L 433.525477 295.740607 
L 435.784976 296.883447 
L 439.738852 299.21953 
L 444.251301 301.540653 
L 445.379971 302.025347 
L 451.025514 303.609282 
L 454.41184 304.348969 
L 457.234176 304.847602 
L 467.395567 305.882777 
L 470.783291 305.947107 
L 470.783291 305.947107 
" clip-path="url(#p1a5d821122)" style="fill: none; stroke: #1f77b4; stroke-width: 1.5; stroke-linecap: square"/>
   </g>
   <g id="line2d_52">
    <path d="M 42.28 365.666016 
L 491.188209 365.666016 
" clip-path="url(#p1a5d821122)" style="fill: none; stroke-dasharray: 3.7,1.6; stroke-dashoffset: 0; stroke: #ff0000"/>
   </g>
   <g id="line2d_53">
    <path d="M 42.28 246.214453 
L 491.188209 246.214453 
" clip-path="url(#p1a5d821122)" style="fill: none; stroke-dasharray: 3.7,1.6; stroke-dashoffset: 0; stroke: #ff0000"/>
   </g>
   <g id="patch_9">
    <path d="M 42.28 371.638594 
L 42.28 240.241875 
" style="fill: none; stroke: #000000; stroke-width: 0.8; stroke-linejoin: miter; stroke-linecap: square"/>
   </g>
   <g id="patch_10">
    <path d="M 491.188209 371.638594 
L 491.188209 240.241875 
" style="fill: none; stroke: #000000; stroke-width: 0.8; stroke-linejoin: miter; stroke-linecap: square"/>
   </g>
   <g id="patch_11">
    <path d="M 42.28 371.638594 
L 491.188209 371.638594 
" style="fill: none; stroke: #000000; stroke-width: 0.8; stroke-linejoin: miter; stroke-linecap: square"/>
   </g>
   <g id="patch_12">
    <path d="M 42.28 240.241875 
L 491.188209 240.241875 
" style="fill: none; stroke: #000000; stroke-width: 0.8; stroke-linejoin: miter; stroke-linecap: square"/>
   </g>
   <g id="text_28">
    <!-- $\delta_{cmd}$ (rad) -->
    <g transform="translate(237.274105 234.241875) scale(0.12 -0.12)">
     <defs>
      <path id="DejaVuSans-Oblique-348" d="M 3472 4053 
Q 3197 4272 2450 4272 
Q 1659 4272 1588 3906 
Q 1531 3619 2328 3469 
Q 2953 3353 3253 3003 
Q 3616 2581 3447 1716 
Q 3284 888 2763 400 
Q 2238 -91 1488 -91 
Q 741 -91 406 400 
Q 72 888 241 1747 
Q 363 2384 891 2900 
Q 1097 3100 1353 3213 
Q 913 3459 1000 3900 
Q 1166 4750 2544 4750 
Q 3234 4750 3566 4531 
L 3472 4053 
z
M 1753 3056 
Q 1525 2966 1306 2738 
Q 969 2384 847 1747 
Q 722 1113 919 756 
Q 1119 397 1584 397 
Q 2044 397 2381 759 
Q 2722 1122 2838 1716 
Q 2956 2338 2731 2638 
Q 2491 2959 2103 2994 
Q 1906 3013 1753 3056 
z
" transform="scale(0.015625)"/>
      <path id="DejaVuSans-55" d="M 2631 2963 
Q 2534 3019 2420 3045 
Q 2306 3072 2169 3072 
Q 1681 3072 1420 2755 
Q 1159 2438 1159 1844 
L 1159 0 
L 581 0 
L 581 3500 
L 1159 3500 
L 1159 2956 
Q 1341 3275 1631 3429 
Q 1922 3584 2338 3584 
Q 2397 3584 2469 3576 
Q 2541 3569 2628 3553 
L 2631 2963 
z
" transform="scale(0.015625)"/>
      <path id="DejaVuSans-44" d="M 2194 1759 
Q 1497 1759 1228 1600 
Q 959 1441 959 1056 
Q 959 750 1161 570 
Q 1363 391 1709 391 
Q 2188 391 2477 730 
Q 2766 1069 2766 1631 
L 2766 1759 
L 2194 1759 
z
M 3341 1997 
L 3341 0 
L 2766 0 
L 2766 531 
Q 2569 213 2275 61 
Q 1981 -91 1556 -91 
Q 1019 -91 701 211 
Q 384 513 384 1019 
Q 384 1609 779 1909 
Q 1175 2209 1959 2209 
L 2766 2209 
L 2766 2266 
Q 2766 2663 2505 2880 
Q 2244 3097 1772 3097 
Q 1472 3097 1187 3025 
Q 903 2953 641 2809 
L 641 3341 
Q 956 3463 1253 3523 
Q 1550 3584 1831 3584 
Q 2591 3584 2966 3190 
Q 3341 2797 3341 1997 
z
" transform="scale(0.015625)"/>
      <path id="DejaVuSans-47" d="M 2906 2969 
L 2906 4863 
L 3481 4863 
L 3481 0 
L 2906 0 
L 2906 525 
Q 2725 213 2448 61 
Q 2172 -91 1784 -91 
Q 1150 -91 751 415 
Q 353 922 353 1747 
Q 353 2572 751 3078 
Q 1150 3584 1784 3584 
Q 2172 3584 2448 3432 
Q 2725 3281 2906 2969 
z
M 947 1747 
Q 947 1113 1208 752 
Q 1469 391 1925 391 
Q 2381 391 2643 752 
Q 2906 1113 2906 1747 
Q 2906 2381 2643 2742 
Q 2381 3103 1925 3103 
Q 1469 3103 1208 2742 
Q 947 2381 947 1747 
z
" transform="scale(0.015625)"/>
     </defs>
     <use xlink:href="#DejaVuSans-Oblique-348" transform="translate(0 0.015625)"/>
     <use xlink:href="#DejaVuSans-Oblique-46" transform="translate(61.181641 -14.984326) scale(0.7)"/>
     <use xlink:href="#DejaVuSans-Oblique-50" transform="translate(99.667969 -14.984326) scale(0.7)"/>
     <use xlink:href="#DejaVuSans-Oblique-47" transform="translate(167.856445 -14.984326) scale(0.7)"/>
     <use xlink:href="#DejaVuSans-3" transform="translate(215.024414 0.015625)"/>
     <use xlink:href="#DejaVuSans-b" transform="translate(246.811523 0.015625)"/>
     <use xlink:href="#DejaVuSans-55" transform="translate(285.825195 0.015625)"/>
     <use xlink:href="#DejaVuSans-44" transform="translate(326.938477 0.015625)"/>
     <use xlink:href="#DejaVuSans-47" transform="translate(388.217773 0.015625)"/>
     <use xlink:href="#DejaVuSans-c" transform="translate(451.694336 0.015625)"/>
    </g>
   </g>
   <g id="legend_2">
    <g id="patch_13">
     <path d="M 430.588209 263.242656 
L 484.188209 263.242656 
Q 486.188209 263.242656 486.188209 261.242656 
L 486.188209 247.241875 
Q 486.188209 245.241875 484.188209 245.241875 
L 430.588209 245.241875 
Q 428.588209 245.241875 428.588209 247.241875 
L 428.588209 261.242656 
Q 428.588209 263.242656 430.588209 263.242656 
z
" style="fill: #ffffff; opacity: 0.8; stroke: #cccccc; stroke-linejoin: miter"/>
    </g>
    <g id="line2d_54">
     <path d="M 432.588209 253.340312 
L 442.588209 253.340312 
L 452.588209 253.340312 
" style="fill: none; stroke: #1f77b4; stroke-width: 1.5; stroke-linecap: square"/>
    </g>
    <g id="text_29">
     <!-- $\delta_{cmd}$ -->
     <g transform="translate(460.588209 256.840312) scale(0.1 -0.1)">
      <use xlink:href="#DejaVuSans-Oblique-348" transform="translate(0 0.78125)"/>
      <use xlink:href="#DejaVuSans-Oblique-46" transform="translate(61.181641 -14.218701) scale(0.7)"/>
      <use xlink:href="#DejaVuSans-Oblique-50" transform="translate(99.667969 -14.218701) scale(0.7)"/>
      <use xlink:href="#DejaVuSans-Oblique-47" transform="translate(167.856445 -14.218701) scale(0.7)"/>
     </g>
    </g>
   </g>
  </g>
  <g id="axes_3">
   <g id="patch_14">
    <path d="M 42.28 562.677656 
L 491.188209 562.677656 
L 491.188209 431.280937 
L 42.28 431.280937 
z
" style="fill: #ffffff"/>
   </g>
   <g id="matplotlib.axis_5">
    <g id="xtick_13">
     <g id="line2d_55">
      <path d="M 62.68491 562.677656 
L 62.68491 431.280937 
" clip-path="url(#p20fe61af8d)" style="fill: none; stroke: #b0b0b0; stroke-width: 0.8; stroke-linecap: square"/>
     </g>
     <g id="line2d_56">
      <g>
       <use xlink:href="#mb1c800fbbd" x="62.68491" y="562.677656" style="stroke: #000000; stroke-width: 0.8"/>
      </g>
     </g>
     <g id="text_30">
      <!-- 0 -->
      <g transform="translate(59.50366 577.275312) scale(0.1 -0.1)">
       <use xlink:href="#DejaVuSans-13"/>
      </g>
     </g>
    </g>
    <g id="xtick_14">
     <g id="line2d_57">
      <path d="M 147.358527 562.677656 
L 147.358527 431.280937 
" clip-path="url(#p20fe61af8d)" style="fill: none; stroke: #b0b0b0; stroke-width: 0.8; stroke-linecap: square"/>
     </g>
     <g id="line2d_58">
      <g>
       <use xlink:href="#mb1c800fbbd" x="147.358527" y="562.677656" style="stroke: #000000; stroke-width: 0.8"/>
      </g>
     </g>
     <g id="text_31">
      <!-- 5 -->
      <g transform="translate(144.177277 577.275312) scale(0.1 -0.1)">
       <use xlink:href="#DejaVuSans-18"/>
      </g>
     </g>
    </g>
    <g id="xtick_15">
     <g id="line2d_59">
      <path d="M 232.032143 562.677656 
L 232.032143 431.280937 
" clip-path="url(#p20fe61af8d)" style="fill: none; stroke: #b0b0b0; stroke-width: 0.8; stroke-linecap: square"/>
     </g>
     <g id="line2d_60">
      <g>
       <use xlink:href="#mb1c800fbbd" x="232.032143" y="562.677656" style="stroke: #000000; stroke-width: 0.8"/>
      </g>
     </g>
     <g id="text_32">
      <!-- 10 -->
      <g transform="translate(225.669643 577.275312) scale(0.1 -0.1)">
       <use xlink:href="#DejaVuSans-14"/>
       <use xlink:href="#DejaVuSans-13" transform="translate(63.625 0)"/>
      </g>
     </g>
    </g>
    <g id="xtick_16">
     <g id="line2d_61">
      <path d="M 316.705759 562.677656 
L 316.705759 431.280937 
" clip-path="url(#p20fe61af8d)" style="fill: none; stroke: #b0b0b0; stroke-width: 0.8; stroke-linecap: square"/>
     </g>
     <g id="line2d_62">
      <g>
       <use xlink:href="#mb1c800fbbd" x="316.705759" y="562.677656" style="stroke: #000000; stroke-width: 0.8"/>
      </g>
     </g>
     <g id="text_33">
      <!-- 15 -->
      <g transform="translate(310.343259 577.275312) scale(0.1 -0.1)">
       <use xlink:href="#DejaVuSans-14"/>
       <use xlink:href="#DejaVuSans-18" transform="translate(63.625 0)"/>
      </g>
     </g>
    </g>
    <g id="xtick_17">
     <g id="line2d_63">
      <path d="M 401.379376 562.677656 
L 401.379376 431.280937 
" clip-path="url(#p20fe61af8d)" style="fill: none; stroke: #b0b0b0; stroke-width: 0.8; stroke-linecap: square"/>
     </g>
     <g id="line2d_64">
      <g>
       <use xlink:href="#mb1c800fbbd" x="401.379376" y="562.677656" style="stroke: #000000; stroke-width: 0.8"/>
      </g>
     </g>
     <g id="text_34">
      <!-- 20 -->
      <g transform="translate(395.016876 577.275312) scale(0.1 -0.1)">
       <use xlink:href="#DejaVuSans-15"/>
       <use xlink:href="#DejaVuSans-13" transform="translate(63.625 0)"/>
      </g>
     </g>
    </g>
    <g id="xtick_18">
     <g id="line2d_65">
      <path d="M 486.052992 562.677656 
L 486.052992 431.280937 
" clip-path="url(#p20fe61af8d)" style="fill: none; stroke: #b0b0b0; stroke-width: 0.8; stroke-linecap: square"/>
     </g>
     <g id="line2d_66">
      <g>
       <use xlink:href="#mb1c800fbbd" x="486.052992" y="562.677656" style="stroke: #000000; stroke-width: 0.8"/>
      </g>
     </g>
     <g id="text_35">
      <!-- 25 -->
      <g transform="translate(479.690492 577.275312) scale(0.1 -0.1)">
       <use xlink:href="#DejaVuSans-15"/>
       <use xlink:href="#DejaVuSans-18" transform="translate(63.625 0)"/>
      </g>
     </g>
    </g>
    <g id="text_36">
     <!-- t (s) -->
     <g transform="translate(256.678636 591.275312) scale(0.1 -0.1)">
      <use xlink:href="#DejaVuSans-57"/>
      <use xlink:href="#DejaVuSans-3" transform="translate(39.203125 0)"/>
      <use xlink:href="#DejaVuSans-b" transform="translate(70.984375 0)"/>
      <use xlink:href="#DejaVuSans-56" transform="translate(110 0)"/>
      <use xlink:href="#DejaVuSans-c" transform="translate(162.09375 0)"/>
     </g>
    </g>
   </g>
   <g id="matplotlib.axis_6">
    <g id="ytick_12">
     <g id="line2d_67">
      <path d="M 42.28 536.796484 
L 491.188209 536.796484 
" clip-path="url(#p20fe61af8d)" style="fill: none; stroke: #b0b0b0; stroke-width: 0.8; stroke-linecap: square"/>
     </g>
     <g id="line2d_68">
      <g>
       <use xlink:href="#m7253d4a7fe" x="42.28" y="536.796484" style="stroke: #000000; stroke-width: 0.8"/>
      </g>
     </g>
     <g id="text_37">
      <!-- −0.2 -->
      <g transform="translate(10.997188 540.595312) scale(0.1 -0.1)">
       <use xlink:href="#DejaVuSans-c9c"/>
       <use xlink:href="#DejaVuSans-13" transform="translate(83.796875 0)"/>
       <use xlink:href="#DejaVuSans-11" transform="translate(147.421875 0)"/>
       <use xlink:href="#DejaVuSans-15" transform="translate(179.203125 0)"/>
      </g>
     </g>
    </g>
    <g id="ytick_13">
     <g id="line2d_69">
      <path d="M 42.28 496.979297 
L 491.188209 496.979297 
" clip-path="url(#p20fe61af8d)" style="fill: none; stroke: #b0b0b0; stroke-width: 0.8; stroke-linecap: square"/>
     </g>
     <g id="line2d_70">
      <g>
       <use xlink:href="#m7253d4a7fe" x="42.28" y="496.979297" style="stroke: #000000; stroke-width: 0.8"/>
      </g>
     </g>
     <g id="text_38">
      <!-- 0.0 -->
      <g transform="translate(19.376875 500.778125) scale(0.1 -0.1)">
       <use xlink:href="#DejaVuSans-13"/>
       <use xlink:href="#DejaVuSans-11" transform="translate(63.625 0)"/>
       <use xlink:href="#DejaVuSans-13" transform="translate(95.40625 0)"/>
      </g>
     </g>
    </g>
    <g id="ytick_14">
     <g id="line2d_71">
      <path d="M 42.28 457.162109 
L 491.188209 457.162109 
" clip-path="url(#p20fe61af8d)" style="fill: none; stroke: #b0b0b0; stroke-width: 0.8; stroke-linecap: square"/>
     </g>
     <g id="line2d_72">
      <g>
       <use xlink:href="#m7253d4a7fe" x="42.28" y="457.162109" style="stroke: #000000; stroke-width: 0.8"/>
      </g>
     </g>
     <g id="text_39">
      <!-- 0.2 -->
      <g transform="translate(19.376875 460.960937) scale(0.1 -0.1)">
       <use xlink:href="#DejaVuSans-13"/>
       <use xlink:href="#DejaVuSans-11" transform="translate(63.625 0)"/>
       <use xlink:href="#DejaVuSans-15" transform="translate(95.40625 0)"/>
      </g>
     </g>
    </g>
   </g>
   <g id="line2d_73">
    <path d="M 62.684919 437.253516 
L 133.77666 437.253516 
L 134.898326 437.765174 
L 136.029224 455.489652 
L 139.419925 488.207864 
L 141.110015 500.179353 
L 142.805506 556.705078 
L 164.255253 556.705078 
L 165.94879 437.253516 
L 167.639668 556.705078 
L 182.317469 556.705078 
L 183.446202 437.253516 
L 186.269149 437.253516 
L 187.397127 556.705078 
L 200.380813 556.705078 
L 201.509699 437.253516 
L 243.846348 437.253516 
L 244.975611 466.369574 
L 246.104393 498.428782 
L 247.233545 519.853262 
L 248.362737 532.411325 
L 249.491736 538.183732 
L 251.185804 538.698598 
L 252.313994 535.854161 
L 253.4433 530.679276 
L 254.57208 524.068715 
L 256.831074 509.466459 
L 257.959072 503.066629 
L 259.653605 497.487071 
L 260.781621 492.91103 
L 262.475861 489.709993 
L 263.603805 487.961613 
L 264.733009 486.91364 
L 265.862245 487.157394 
L 268.119562 489.1766 
L 271.506414 494.429805 
L 272.635975 495.844404 
L 274.893951 497.956945 
L 277.152158 499.154547 
L 278.2804 499.202976 
L 279.409949 499.112161 
L 280.538752 498.824021 
L 281.667585 498.738331 
L 282.796963 498.530464 
L 283.925891 498.116457 
L 290.136174 496.545015 
L 291.263639 496.76927 
L 293.522245 496.416055 
L 295.780477 496.495737 
L 296.909225 491.256871 
L 298.048648 498.370131 
L 299.177606 497.992087 
L 300.304587 497.155261 
L 301.433525 498.304131 
L 303.127879 498.008658 
L 305.384773 497.14618 
L 306.514108 496.977495 
L 307.646577 496.977475 
L 308.772505 496.683341 
L 309.90092 496.811276 
L 311.032329 496.539623 
L 312.158646 496.130697 
L 313.287843 496.582346 
L 314.419685 496.606314 
L 315.545898 495.717671 
L 316.674867 496.980901 
L 317.808867 495.422915 
L 319.499724 556.705078 
L 344.901599 556.705078 
L 346.597541 437.253516 
L 347.72299 437.253516 
L 349.41658 556.705078 
L 364.657587 556.705078 
L 366.352617 437.253516 
L 380.467228 437.253516 
L 382.161584 556.705078 
L 388.933729 556.705078 
L 390.626834 437.253516 
L 403.608065 437.253516 
L 405.301288 556.705078 
L 409.81815 556.705078 
L 411.510482 437.253516 
L 434.656598 437.253516 
L 435.784976 437.831936 
L 437.477483 454.960515 
L 438.606571 472.207241 
L 439.738852 487.140742 
L 441.430603 499.478609 
L 442.557739 509.001833 
L 444.251301 515.985492 
L 445.379971 519.996157 
L 446.512183 521.487312 
L 447.639516 520.307006 
L 448.767485 518.241058 
L 449.899399 514.478532 
L 452.154299 506.295598 
L 454.41184 498.29049 
L 456.107475 495.603611 
L 457.234176 492.77494 
L 458.929371 491.511131 
L 460.060321 491.986036 
L 461.751651 556.705078 
L 470.783291 556.705078 
L 470.783291 556.705078 
" clip-path="url(#p20fe61af8d)" style="fill: none; stroke: #1f77b4; stroke-width: 1.5; stroke-linecap: square"/>
   </g>
   <g id="line2d_74">
    <path d="M 42.28 556.705078 
L 491.188209 556.705078 
" clip-path="url(#p20fe61af8d)" style="fill: none; stroke-dasharray: 3.7,1.6; stroke-dashoffset: 0; stroke: #ff0000"/>
   </g>
   <g id="line2d_75">
    <path d="M 42.28 437.253516 
L 491.188209 437.253516 
" clip-path="url(#p20fe61af8d)" style="fill: none; stroke-dasharray: 3.7,1.6; stroke-dashoffset: 0; stroke: #ff0000"/>
   </g>
   <g id="patch_15">
    <path d="M 42.28 562.677656 
L 42.28 431.280937 
" style="fill: none; stroke: #000000; stroke-width: 0.8; stroke-linejoin: miter; stroke-linecap: square"/>
   </g>
   <g id="patch_16">
    <path d="M 491.188209 562.677656 
L 491.188209 431.280937 
" style="fill: none; stroke: #000000; stroke-width: 0.8; stroke-linejoin: miter; stroke-linecap: square"/>
   </g>
   <g id="patch_17">
    <path d="M 42.28 562.677656 
L 491.188209 562.677656 
" style="fill: none; stroke: #000000; stroke-width: 0.8; stroke-linejoin: miter; stroke-linecap: square"/>
   </g>
   <g id="patch_18">
    <path d="M 42.28 431.280937 
L 491.188209 431.280937 
" style="fill: none; stroke: #000000; stroke-width: 0.8; stroke-linejoin: miter; stroke-linecap: square"/>
   </g>
   <g id="text_40">
    <!-- $a_{x,cmd}$ $\left(\mathrm{m/s^2}\right)$ -->
    <g transform="translate(228.694105 425.280937) scale(0.12 -0.12)">
     <defs>
      <path id="DejaVuSans-Oblique-44" d="M 3438 1997 
L 3047 0 
L 2472 0 
L 2578 531 
Q 2325 219 2001 64 
Q 1678 -91 1281 -91 
Q 834 -91 548 182 
Q 263 456 263 884 
Q 263 1497 752 1853 
Q 1241 2209 2100 2209 
L 2900 2209 
L 2931 2363 
Q 2938 2388 2941 2417 
Q 2944 2447 2944 2509 
Q 2944 2788 2717 2942 
Q 2491 3097 2081 3097 
Q 1800 3097 1504 3025 
Q 1209 2953 897 2809 
L 997 3341 
Q 1322 3463 1633 3523 
Q 1944 3584 2234 3584 
Q 2853 3584 3176 3315 
Q 3500 3047 3500 2534 
Q 3500 2431 3484 2292 
Q 3469 2153 3438 1997 
z
M 2816 1759 
L 2241 1759 
Q 1534 1759 1195 1570 
Q 856 1381 856 984 
Q 856 709 1029 553 
Q 1203 397 1509 397 
Q 1978 397 2328 733 
Q 2678 1069 2791 1631 
L 2816 1759 
z
" transform="scale(0.015625)"/>
      <path id="STIXSizeOneSym-Regular-4" d="M 2445 -858 
L 2445 -1050 
Q 1728 -371 1309 630 
Q 890 1632 890 2886 
Q 890 4122 1309 5136 
Q 1728 6150 2445 6822 
L 2445 6630 
Q 1408 5363 1408 2886 
Q 1408 410 2445 -858 
z
" transform="scale(0.015625)"/>
      <path id="STIXSizeOneSym-Regular-5" d="M 550 6630 
L 550 6822 
Q 1267 6144 1686 5142 
Q 2106 4141 2106 2886 
Q 2106 1651 1686 636 
Q 1267 -378 550 -1050 
L 550 -858 
Q 1587 410 1587 2886 
Q 1587 5363 550 6630 
z
" transform="scale(0.015625)"/>
     </defs>
     <use xlink:href="#DejaVuSans-Oblique-44" transform="translate(0 0.746875)"/>
     <use xlink:href="#DejaVuSans-Oblique-5b" transform="translate(61.279297 -14.253076) scale(0.7)"/>
     <use xlink:href="#DejaVuSans-f" transform="translate(102.705078 -14.253076) scale(0.7)"/>
     <use xlink:href="#DejaVuSans-Oblique-46" transform="translate(138.59375 -14.253076) scale(0.7)"/>
     <use xlink:href="#DejaVuSans-Oblique-50" transform="translate(177.080078 -14.253076) scale(0.7)"/>
     <use xlink:href="#DejaVuSans-Oblique-47" transform="translate(245.268555 -14.253076) scale(0.7)"/>
     <use xlink:href="#DejaVuSans-3" transform="translate(292.436523 0.746875)"/>
     <use xlink:href="#STIXSizeOneSym-Regular-4" transform="translate(324.223633 5.1375) scale(0.833613)"/>
     <use xlink:href="#DejaVuSans-50" transform="translate(363.23587 0.746875)"/>
     <use xlink:href="#DejaVuSans-12" transform="translate(460.64798 0.746875)"/>
     <use xlink:href="#DejaVuSans-56" transform="translate(494.339386 0.746875)"/>
     <use xlink:href="#DejaVuSans-15" transform="translate(547.396027 42.046875) scale(0.7)"/>
     <use xlink:href="#STIXSizeOneSym-Regular-5" transform="translate(594.666534 5.1375) scale(0.833613)"/>
    </g>
   </g>
   <g id="legend_3">
    <g id="patch_19">
     <path d="M 49.28 506.880469 
L 144.68 506.880469 
Q 146.68 506.880469 146.68 504.880469 
L 146.68 489.078125 
Q 146.68 487.078125 144.68 487.078125 
L 49.28 487.078125 
Q 47.28 487.078125 47.28 489.078125 
L 47.28 504.880469 
Q 47.28 506.880469 49.28 506.880469 
z
" style="fill: #ffffff; opacity: 0.8; stroke: #cccccc; stroke-linejoin: miter"/>
    </g>
    <g id="line2d_76">
     <path d="M 51.28 496.978125 
L 61.28 496.978125 
L 71.28 496.978125 
" style="fill: none; stroke: #1f77b4; stroke-width: 1.5; stroke-linecap: square"/>
    </g>
    <g id="text_41">
     <!-- $a_{x,cmd}$ $\left(\mathrm{m/s^2}\right)$ -->
     <g transform="translate(79.28 500.478125) scale(0.1 -0.1)">
      <use xlink:href="#DejaVuSans-Oblique-44" transform="translate(0 0.746875)"/>
      <use xlink:href="#DejaVuSans-Oblique-5b" transform="translate(61.279297 -14.253076) scale(0.7)"/>
      <use xlink:href="#DejaVuSans-f" transform="translate(102.705078 -14.253076) scale(0.7)"/>
      <use xlink:href="#DejaVuSans-Oblique-46" transform="translate(138.59375 -14.253076) scale(0.7)"/>
      <use xlink:href="#DejaVuSans-Oblique-50" transform="translate(177.080078 -14.253076) scale(0.7)"/>
      <use xlink:href="#DejaVuSans-Oblique-47" transform="translate(245.268555 -14.253076) scale(0.7)"/>
      <use xlink:href="#DejaVuSans-3" transform="translate(292.436523 0.746875)"/>
      <use xlink:href="#STIXSizeOneSym-Regular-4" transform="translate(324.223633 5.1375) scale(0.833613)"/>
      <use xlink:href="#DejaVuSans-50" transform="translate(363.23587 0.746875)"/>
      <use xlink:href="#DejaVuSans-12" transform="translate(460.64798 0.746875)"/>
      <use xlink:href="#DejaVuSans-56" transform="translate(494.339386 0.746875)"/>
      <use xlink:href="#DejaVuSans-15" transform="translate(547.396027 42.046875) scale(0.7)"/>
      <use xlink:href="#STIXSizeOneSym-Regular-5" transform="translate(594.666534 5.1375) scale(0.833613)"/>
     </g>
    </g>
   </g>
  </g>
  <g id="text_42">
   <!-- QCar2 Controls -->
   <g transform="translate(206.405625 21.214125) scale(0.12 -0.12)">
    <defs>
     <path id="DejaVuSans-34" d="M 2522 4238 
Q 1834 4238 1429 3725 
Q 1025 3213 1025 2328 
Q 1025 1447 1429 934 
Q 1834 422 2522 422 
Q 3209 422 3611 934 
Q 4013 1447 4013 2328 
Q 4013 3213 3611 3725 
Q 3209 4238 2522 4238 
z
M 3406 84 
L 4238 -825 
L 3475 -825 
L 2784 -78 
Q 2681 -84 2626 -87 
Q 2572 -91 2522 -91 
Q 1538 -91 948 567 
Q 359 1225 359 2328 
Q 359 3434 948 4092 
Q 1538 4750 2522 4750 
Q 3503 4750 4090 4092 
Q 4678 3434 4678 2328 
Q 4678 1516 4351 937 
Q 4025 359 3406 84 
z
" transform="scale(0.015625)"/>
     <path id="DejaVuSans-26" d="M 4122 4306 
L 4122 3641 
Q 3803 3938 3442 4084 
Q 3081 4231 2675 4231 
Q 1875 4231 1450 3742 
Q 1025 3253 1025 2328 
Q 1025 1406 1450 917 
Q 1875 428 2675 428 
Q 3081 428 3442 575 
Q 3803 722 4122 1019 
L 4122 359 
Q 3791 134 3420 21 
Q 3050 -91 2638 -91 
Q 1578 -91 968 557 
Q 359 1206 359 2328 
Q 359 3453 968 4101 
Q 1578 4750 2638 4750 
Q 3056 4750 3426 4639 
Q 3797 4528 4122 4306 
z
" transform="scale(0.015625)"/>
     <path id="DejaVuSans-52" d="M 1959 3097 
Q 1497 3097 1228 2736 
Q 959 2375 959 1747 
Q 959 1119 1226 758 
Q 1494 397 1959 397 
Q 2419 397 2687 759 
Q 2956 1122 2956 1747 
Q 2956 2369 2687 2733 
Q 2419 3097 1959 3097 
z
M 1959 3584 
Q 2709 3584 3137 3096 
Q 3566 2609 3566 1747 
Q 3566 888 3137 398 
Q 2709 -91 1959 -91 
Q 1206 -91 779 398 
Q 353 888 353 1747 
Q 353 2609 779 3096 
Q 1206 3584 1959 3584 
z
" transform="scale(0.015625)"/>
     <path id="DejaVuSans-51" d="M 3513 2113 
L 3513 0 
L 2938 0 
L 2938 2094 
Q 2938 2591 2744 2837 
Q 2550 3084 2163 3084 
Q 1697 3084 1428 2787 
Q 1159 2491 1159 1978 
L 1159 0 
L 581 0 
L 581 3500 
L 1159 3500 
L 1159 2956 
Q 1366 3272 1645 3428 
Q 1925 3584 2291 3584 
Q 2894 3584 3203 3211 
Q 3513 2838 3513 2113 
z
" transform="scale(0.015625)"/>
     <path id="DejaVuSans-4f" d="M 603 4863 
L 1178 4863 
L 1178 0 
L 603 0 
L 603 4863 
z
" transform="scale(0.015625)"/>
    </defs>
    <use xlink:href="#DejaVuSans-34"/>
    <use xlink:href="#DejaVuSans-26" transform="translate(78.71875 0)"/>
    <use xlink:href="#DejaVuSans-44" transform="translate(148.546875 0)"/>
    <use xlink:href="#DejaVuSans-55" transform="translate(209.828125 0)"/>
    <use xlink:href="#DejaVuSans-15" transform="translate(250.9375 0)"/>
    <use xlink:href="#DejaVuSans-3" transform="translate(314.5625 0)"/>
    <use xlink:href="#DejaVuSans-26" transform="translate(346.34375 0)"/>
    <use xlink:href="#DejaVuSans-52" transform="translate(416.171875 0)"/>
    <use xlink:href="#DejaVuSans-51" transform="translate(477.359375 0)"/>
    <use xlink:href="#DejaVuSans-57" transform="translate(540.734375 0)"/>
    <use xlink:href="#DejaVuSans-55" transform="translate(579.9375 0)"/>
    <use xlink:href="#DejaVuSans-52" transform="translate(618.84375 0)"/>
    <use xlink:href="#DejaVuSans-4f" transform="translate(680.03125 0)"/>
    <use xlink:href="#DejaVuSans-56" transform="translate(707.8125 0)"/>
   </g>
  </g>
 </g>
 <defs>
  <clipPath id="p7a41f9029a">
   <rect x="42.28" y="49.202812" width="448.908209" height="131.396719"/>
  </clipPath>
  <clipPath id="p1a5d821122">
   <rect x="42.28" y="240.241875" width="448.908209" height="131.396719"/>
  </clipPath>
  <clipPath id="p20fe61af8d">
   <rect x="42.28" y="431.280937" width="448.908209" height="131.396719"/>
  </clipPath>
 </defs>
</svg>
