<?xml version="1.0" encoding="utf-8" standalone="no"?>
<!DOCTYPE svg PUBLIC "-//W3C//DTD SVG 1.1//EN"
  "http://www.w3.org/Graphics/SVG/1.1/DTD/svg11.dtd">
<svg xmlns:xlink="http://www.w3.org/1999/xlink" width="504pt" height="604.8pt" viewBox="0 0 504 604.8" xmlns="http://www.w3.org/2000/svg" version="1.1">
 <metadata>
  <rdf:RDF xmlns:dc="http://purl.org/dc/elements/1.1/" xmlns:cc="http://creativecommons.org/ns#" xmlns:rdf="http://www.w3.org/1999/02/22-rdf-syntax-ns#">
   <cc:Work>
    <dc:type rdf:resource="http://purl.org/dc/dcmitype/StillImage"/>
    <dc:date>2026-07-10T12:52:46.323312</dc:date>
    <dc:format>image/svg+xml</dc:format>
    <dc:creator>
     <cc:Agent>
      <dc:title>Matplotlib v3.11.0, https://matplotlib.org/</dc:title>
     </cc:Agent>
    </dc:creator>
   </cc:Work>
  </rdf:RDF>
 </metadata>
 <defs>
  <style type="text/css">*{stroke-linejoin: round; stroke-linecap: butt}</style>
 </defs>
 <g id="figure_1">
  <g id="patch_1">
   <path d="M 0 604.8 
L 504 604.8 
L 504 0 
L 0 0 
z
" style="fill: #ffffff"/>
  </g>
  <g id="axes_1">
   <g id="patch_2">
    <path d="M 42.28 180.599531 
L 493.2 180.599531 
L 493.2 49.202812 
L 42.28 49.202812 
z
" style="fill: #ffffff"/>
   </g>
   <g id="matplotlib.axis_1">
    <g id="xtick_1">
     <g id="line2d_1">
      <path d="M 62.77636 180.599531 
L 62.77636 49.202812 
" clip-path="url(#pe67e3ea8e0)" style="fill: none; stroke: #b0b0b0; stroke-width: 0.8; stroke-linecap: square"/>
     </g>
     <g id="line2d_2">
      <defs>
       <path id="mc256f840a3" d="M 0 0 
L 0 3.5 
" style="stroke: #000000; stroke-width: 0.8"/>
      </defs>
      <g>
       <use xlink:href="#mc256f840a3" x="62.77636" y="180.599531" style="stroke: #000000; stroke-width: 0.8"/>
      </g>
     </g>
     <g id="text_1">
      <!-- 0 -->
      <g transform="translate(59.59511 195.197187) scale(0.1 -0.1)">
       <defs>
        <path id="DejaVuSans-13" d="M 2034 4250 
Q 1547 4250 1301 3770 
Q 1056 3291 1056 2328 
Q 1056 1369 1301 889 
Q 1547 409 2034 409 
Q 2525 409 2770 889 
Q 3016 1369 3016 2328 
Q 3016 3291 2770 3770 
Q 2525 4250 2034 4250 
z
M 2034 4750 
Q 2819 4750 3233 4129 
Q 3647 3509 3647 2328 
Q 3647 1150 3233 529 
Q 2819 -91 2034 -91 
Q 1250 -91 836 529 
Q 422 1150 422 2328 
Q 422 3509 836 4129 
Q 1250 4750 2034 4750 
z
" transform="scale(0.015625)"/>
       </defs>
       <use xlink:href="#DejaVuSans-13"/>
      </g>
     </g>
    </g>
    <g id="xtick_2">
     <g id="line2d_3">
      <path d="M 154.163137 180.599531 
L 154.163137 49.202812 
" clip-path="url(#pe67e3ea8e0)" style="fill: none; stroke: #b0b0b0; stroke-width: 0.8; stroke-linecap: square"/>
     </g>
     <g id="line2d_4">
      <g>
       <use xlink:href="#mc256f840a3" x="154.163137" y="180.599531" style="stroke: #000000; stroke-width: 0.8"/>
      </g>
     </g>
     <g id="text_2">
      <!-- 10 -->
      <g transform="translate(147.800637 195.197187) scale(0.1 -0.1)">
       <defs>
        <path id="DejaVuSans-14" d="M 794 531 
L 1825 531 
L 1825 4091 
L 703 3866 
L 703 4441 
L 1819 4666 
L 2450 4666 
L 2450 531 
L 3481 531 
L 3481 0 
L 794 0 
L 794 531 
z
" transform="scale(0.015625)"/>
       </defs>
       <use xlink:href="#DejaVuSans-14"/>
       <use xlink:href="#DejaVuSans-13" transform="translate(63.625 0)"/>
      </g>
     </g>
    </g>
    <g id="xtick_3">
     <g id="line2d_5">
      <path d="M 245.549914 180.599531 
L 245.549914 49.202812 
" clip-path="url(#pe67e3ea8e0)" style="fill: none; stroke: #b0b0b0; stroke-width: 0.8; stroke-linecap: square"/>
     </g>
     <g id="line2d_6">
      <g>
       <use xlink:href="#mc256f840a3" x="245.549914" y="180.599531" style="stroke: #000000; stroke-width: 0.8"/>
      </g>
     </g>
     <g id="text_3">
      <!-- 20 -->
      <g transform="translate(239.187414 195.197187) scale(0.1 -0.1)">
       <defs>
        <path id="DejaVuSans-15" d="M 1228 531 
L 3431 531 
L 3431 0 
L 469 0 
L 469 531 
Q 828 903 1448 1529 
Q 2069 2156 2228 2338 
Q 2531 2678 2651 2914 
Q 2772 3150 2772 3378 
Q 2772 3750 2511 3984 
Q 2250 4219 1831 4219 
Q 1534 4219 1204 4116 
Q 875 4013 500 3803 
L 500 4441 
Q 881 4594 1212 4672 
Q 1544 4750 1819 4750 
Q 2544 4750 2975 4387 
Q 3406 4025 3406 3419 
Q 3406 3131 3298 2873 
Q 3191 2616 2906 2266 
Q 2828 2175 2409 1742 
Q 1991 1309 1228 531 
z
" transform="scale(0.015625)"/>
       </defs>
       <use xlink:href="#DejaVuSans-15"/>
       <use xlink:href="#DejaVuSans-13" transform="translate(63.625 0)"/>
      </g>
     </g>
    </g>
    <g id="xtick_4">
     <g id="line2d_7">
      <path d="M 336.936691 180.599531 
L 336.936691 49.202812 
" clip-path="url(#pe67e3ea8e0)" style="fill: none; stroke: #b0b0b0; stroke-width: 0.8; stroke-linecap: square"/>
     </g>
     <g id="line2d_8">
      <g>
       <use xlink:href="#mc256f840a3" x="336.936691" y="180.599531" style="stroke: #000000; stroke-width: 0.8"/>
      </g>
     </g>
     <g id="text_4">
      <!-- 30 -->
      <g transform="translate(330.574191 195.197187) scale(0.1 -0.1)">
       <defs>
        <path id="DejaVuSans-16" d="M 2597 2516 
Q 3050 2419 3304 2112 
Q 3559 1806 3559 1356 
Q 3559 666 3084 287 
Q 2609 -91 1734 -91 
Q 1441 -91 1130 -33 
Q 819 25 488 141 
L 488 750 
Q 750 597 1062 519 
Q 1375 441 1716 441 
Q 2309 441 2620 675 
Q 2931 909 2931 1356 
Q 2931 1769 2642 2001 
Q 2353 2234 1838 2234 
L 1294 2234 
L 1294 2753 
L 1863 2753 
Q 2328 2753 2575 2939 
Q 2822 3125 2822 3475 
Q 2822 3834 2567 4026 
Q 2313 4219 1838 4219 
Q 1578 4219 1281 4162 
Q 984 4106 628 3988 
L 628 4550 
Q 988 4650 1302 4700 
Q 1616 4750 1894 4750 
Q 2613 4750 3031 4423 
Q 3450 4097 3450 3541 
Q 3450 3153 3228 2886 
Q 3006 2619 2597 2516 
z
" transform="scale(0.015625)"/>
       </defs>
       <use xlink:href="#DejaVuSans-16"/>
       <use xlink:href="#DejaVuSans-13" transform="translate(63.625 0)"/>
      </g>
     </g>
    </g>
    <g id="xtick_5">
     <g id="line2d_9">
      <path d="M 428.323468 180.599531 
L 428.323468 49.202812 
" clip-path="url(#pe67e3ea8e0)" style="fill: none; stroke: #b0b0b0; stroke-width: 0.8; stroke-linecap: square"/>
     </g>
     <g id="line2d_10">
      <g>
       <use xlink:href="#mc256f840a3" x="428.323468" y="180.599531" style="stroke: #000000; stroke-width: 0.8"/>
      </g>
     </g>
     <g id="text_5">
      <!-- 40 -->
      <g transform="translate(421.960968 195.197187) scale(0.1 -0.1)">
       <defs>
        <path id="DejaVuSans-17" d="M 2419 4116 
L 825 1625 
L 2419 1625 
L 2419 4116 
z
M 2253 4666 
L 3047 4666 
L 3047 1625 
L 3713 1625 
L 3713 1100 
L 3047 1100 
L 3047 0 
L 2419 0 
L 2419 1100 
L 313 1100 
L 313 1709 
L 2253 4666 
z
" transform="scale(0.015625)"/>
       </defs>
       <use xlink:href="#DejaVuSans-17"/>
       <use xlink:href="#DejaVuSans-13" transform="translate(63.625 0)"/>
      </g>
     </g>
    </g>
    <g id="text_6">
     <!-- t (s) -->
     <g transform="translate(257.684531 209.197187) scale(0.1 -0.1)">
      <defs>
       <path id="DejaVuSans-57" d="M 1172 4494 
L 1172 3500 
L 2356 3500 
L 2356 3053 
L 1172 3053 
L 1172 1153 
Q 1172 725 1289 603 
Q 1406 481 1766 481 
L 2356 481 
L 2356 0 
L 1766 0 
Q 1100 0 847 248 
Q 594 497 594 1153 
L 594 3053 
L 172 3053 
L 172 3500 
L 594 3500 
L 594 4494 
L 1172 4494 
z
" transform="scale(0.015625)"/>
       <path id="DejaVuSans-3" transform="scale(0.015625)"/>
       <path id="DejaVuSans-b" d="M 1984 4856 
Q 1566 4138 1362 3434 
Q 1159 2731 1159 2009 
Q 1159 1288 1364 580 
Q 1569 -128 1984 -844 
L 1484 -844 
Q 1016 -109 783 600 
Q 550 1309 550 2009 
Q 550 2706 781 3412 
Q 1013 4119 1484 4856 
L 1984 4856 
z
" transform="scale(0.015625)"/>
       <path id="DejaVuSans-56" d="M 2834 3397 
L 2834 2853 
Q 2591 2978 2328 3040 
Q 2066 3103 1784 3103 
Q 1356 3103 1142 2972 
Q 928 2841 928 2578 
Q 928 2378 1081 2264 
Q 1234 2150 1697 2047 
L 1894 2003 
Q 2506 1872 2764 1633 
Q 3022 1394 3022 966 
Q 3022 478 2636 193 
Q 2250 -91 1575 -91 
Q 1294 -91 989 -36 
Q 684 19 347 128 
L 347 722 
Q 666 556 975 473 
Q 1284 391 1588 391 
Q 1994 391 2212 530 
Q 2431 669 2431 922 
Q 2431 1156 2273 1281 
Q 2116 1406 1581 1522 
L 1381 1569 
Q 847 1681 609 1914 
Q 372 2147 372 2553 
Q 372 3047 722 3315 
Q 1072 3584 1716 3584 
Q 2034 3584 2315 3537 
Q 2597 3491 2834 3397 
z
" transform="scale(0.015625)"/>
       <path id="DejaVuSans-c" d="M 513 4856 
L 1013 4856 
Q 1481 4119 1714 3412 
Q 1947 2706 1947 2009 
Q 1947 1309 1714 600 
Q 1481 -109 1013 -844 
L 513 -844 
Q 928 -128 1133 580 
Q 1338 1288 1338 2009 
Q 1338 2731 1133 3434 
Q 928 4138 513 4856 
z
" transform="scale(0.015625)"/>
      </defs>
      <use xlink:href="#DejaVuSans-57"/>
      <use xlink:href="#DejaVuSans-3" transform="translate(39.203125 0)"/>
      <use xlink:href="#DejaVuSans-b" transform="translate(70.984375 0)"/>
      <use xlink:href="#DejaVuSans-56" transform="translate(110 0)"/>
      <use xlink:href="#DejaVuSans-c" transform="translate(162.09375 0)"/>
     </g>
    </g>
   </g>
   <g id="matplotlib.axis_2">
    <g id="ytick_1">
     <g id="line2d_11">
      <path d="M 42.28 176.446012 
L 493.2 176.446012 
" clip-path="url(#pe67e3ea8e0)" style="fill: none; stroke: #b0b0b0; stroke-width: 0.8; stroke-linecap: square"/>
     </g>
     <g id="line2d_12">
      <defs>
       <path id="m86e8903346" d="M 0 0 
L -3.5 0 
" style="stroke: #000000; stroke-width: 0.8"/>
      </defs>
      <g>
       <use xlink:href="#m86e8903346" x="42.28" y="176.446012" style="stroke: #000000; stroke-width: 0.8"/>
      </g>
     </g>
     <g id="text_7">
      <!-- 0.0 -->
      <g transform="translate(19.376875 180.244841) scale(0.1 -0.1)">
       <defs>
        <path id="DejaVuSans-11" d="M 684 794 
L 1344 794 
L 1344 0 
L 684 0 
L 684 794 
z
" transform="scale(0.015625)"/>
       </defs>
       <use xlink:href="#DejaVuSans-13"/>
       <use xlink:href="#DejaVuSans-11" transform="translate(63.625 0)"/>
       <use xlink:href="#DejaVuSans-13" transform="translate(95.40625 0)"/>
      </g>
     </g>
    </g>
    <g id="ytick_2">
     <g id="line2d_13">
      <path d="M 42.28 152.191888 
L 493.2 152.191888 
" clip-path="url(#pe67e3ea8e0)" style="fill: none; stroke: #b0b0b0; stroke-width: 0.8; stroke-linecap: square"/>
     </g>
     <g id="line2d_14">
      <g>
       <use xlink:href="#m86e8903346" x="42.28" y="152.191888" style="stroke: #000000; stroke-width: 0.8"/>
      </g>
     </g>
     <g id="text_8">
      <!-- 0.2 -->
      <g transform="translate(19.376875 155.990716) scale(0.1 -0.1)">
       <use xlink:href="#DejaVuSans-13"/>
       <use xlink:href="#DejaVuSans-11" transform="translate(63.625 0)"/>
       <use xlink:href="#DejaVuSans-15" transform="translate(95.40625 0)"/>
      </g>
     </g>
    </g>
    <g id="ytick_3">
     <g id="line2d_15">
      <path d="M 42.28 127.937764 
L 493.2 127.937764 
" clip-path="url(#pe67e3ea8e0)" style="fill: none; stroke: #b0b0b0; stroke-width: 0.8; stroke-linecap: square"/>
     </g>
     <g id="line2d_16">
      <g>
       <use xlink:href="#m86e8903346" x="42.28" y="127.937764" style="stroke: #000000; stroke-width: 0.8"/>
      </g>
     </g>
     <g id="text_9">
      <!-- 0.4 -->
      <g transform="translate(19.376875 131.736592) scale(0.1 -0.1)">
       <use xlink:href="#DejaVuSans-13"/>
       <use xlink:href="#DejaVuSans-11" transform="translate(63.625 0)"/>
       <use xlink:href="#DejaVuSans-17" transform="translate(95.40625 0)"/>
      </g>
     </g>
    </g>
    <g id="ytick_4">
     <g id="line2d_17">
      <path d="M 42.28 103.683639 
L 493.2 103.683639 
" clip-path="url(#pe67e3ea8e0)" style="fill: none; stroke: #b0b0b0; stroke-width: 0.8; stroke-linecap: square"/>
     </g>
     <g id="line2d_18">
      <g>
       <use xlink:href="#m86e8903346" x="42.28" y="103.683639" style="stroke: #000000; stroke-width: 0.8"/>
      </g>
     </g>
     <g id="text_10">
      <!-- 0.6 -->
      <g transform="translate(19.376875 107.482467) scale(0.1 -0.1)">
       <defs>
        <path id="DejaVuSans-19" d="M 2113 2584 
Q 1688 2584 1439 2293 
Q 1191 2003 1191 1497 
Q 1191 994 1439 701 
Q 1688 409 2113 409 
Q 2538 409 2786 701 
Q 3034 994 3034 1497 
Q 3034 2003 2786 2293 
Q 2538 2584 2113 2584 
z
M 3366 4563 
L 3366 3988 
Q 3128 4100 2886 4159 
Q 2644 4219 2406 4219 
Q 1781 4219 1451 3797 
Q 1122 3375 1075 2522 
Q 1259 2794 1537 2939 
Q 1816 3084 2150 3084 
Q 2853 3084 3261 2657 
Q 3669 2231 3669 1497 
Q 3669 778 3244 343 
Q 2819 -91 2113 -91 
Q 1303 -91 875 529 
Q 447 1150 447 2328 
Q 447 3434 972 4092 
Q 1497 4750 2381 4750 
Q 2619 4750 2861 4703 
Q 3103 4656 3366 4563 
z
" transform="scale(0.015625)"/>
       </defs>
       <use xlink:href="#DejaVuSans-13"/>
       <use xlink:href="#DejaVuSans-11" transform="translate(63.625 0)"/>
       <use xlink:href="#DejaVuSans-19" transform="translate(95.40625 0)"/>
      </g>
     </g>
    </g>
    <g id="ytick_5">
     <g id="line2d_19">
      <path d="M 42.28 79.429515 
L 493.2 79.429515 
" clip-path="url(#pe67e3ea8e0)" style="fill: none; stroke: #b0b0b0; stroke-width: 0.8; stroke-linecap: square"/>
     </g>
     <g id="line2d_20">
      <g>
       <use xlink:href="#m86e8903346" x="42.28" y="79.429515" style="stroke: #000000; stroke-width: 0.8"/>
      </g>
     </g>
     <g id="text_11">
      <!-- 0.8 -->
      <g transform="translate(19.376875 83.228343) scale(0.1 -0.1)">
       <defs>
        <path id="DejaVuSans-1b" d="M 2034 2216 
Q 1584 2216 1326 1975 
Q 1069 1734 1069 1313 
Q 1069 891 1326 650 
Q 1584 409 2034 409 
Q 2484 409 2743 651 
Q 3003 894 3003 1313 
Q 3003 1734 2745 1975 
Q 2488 2216 2034 2216 
z
M 1403 2484 
Q 997 2584 770 2862 
Q 544 3141 544 3541 
Q 544 4100 942 4425 
Q 1341 4750 2034 4750 
Q 2731 4750 3128 4425 
Q 3525 4100 3525 3541 
Q 3525 3141 3298 2862 
Q 3072 2584 2669 2484 
Q 3125 2378 3379 2068 
Q 3634 1759 3634 1313 
Q 3634 634 3220 271 
Q 2806 -91 2034 -91 
Q 1263 -91 848 271 
Q 434 634 434 1313 
Q 434 1759 690 2068 
Q 947 2378 1403 2484 
z
M 1172 3481 
Q 1172 3119 1398 2916 
Q 1625 2713 2034 2713 
Q 2441 2713 2670 2916 
Q 2900 3119 2900 3481 
Q 2900 3844 2670 4047 
Q 2441 4250 2034 4250 
Q 1625 4250 1398 4047 
Q 1172 3844 1172 3481 
z
" transform="scale(0.015625)"/>
       </defs>
       <use xlink:href="#DejaVuSans-13"/>
       <use xlink:href="#DejaVuSans-11" transform="translate(63.625 0)"/>
       <use xlink:href="#DejaVuSans-1b" transform="translate(95.40625 0)"/>
      </g>
     </g>
    </g>
    <g id="ytick_6">
     <g id="line2d_21">
      <path d="M 42.28 55.175391 
L 493.2 55.175391 
" clip-path="url(#pe67e3ea8e0)" style="fill: none; stroke: #b0b0b0; stroke-width: 0.8; stroke-linecap: square"/>
     </g>
     <g id="line2d_22">
      <g>
       <use xlink:href="#m86e8903346" x="42.28" y="55.175391" style="stroke: #000000; stroke-width: 0.8"/>
      </g>
     </g>
     <g id="text_12">
      <!-- 1.0 -->
      <g transform="translate(19.376875 58.974219) scale(0.1 -0.1)">
       <use xlink:href="#DejaVuSans-14"/>
       <use xlink:href="#DejaVuSans-11" transform="translate(63.625 0)"/>
       <use xlink:href="#DejaVuSans-13" transform="translate(95.40625 0)"/>
      </g>
     </g>
    </g>
   </g>
   <g id="line2d_23">
    <path d="M 62.776364 174.626953 
L 64.503501 170.988834 
L 117.508081 65.483396 
L 118.421647 65.886845 
L 128.47512 85.896498 
L 129.388346 84.077438 
L 130.302182 85.896498 
L 131.520325 87.715557 
L 138.831666 102.268032 
L 162.592736 55.175391 
L 170.8177 55.249253 
L 181.78413 77.077965 
L 182.698933 75.258905 
L 186.353286 82.535143 
L 187.571668 80.716083 
L 189.094923 82.535143 
L 190.008704 80.716083 
L 194.578347 89.81138 
L 211.941805 55.249253 
L 213.769628 55.175391 
L 221.994568 55.175391 
L 222.907967 55.927715 
L 224.126608 57.746774 
L 233.265854 75.937368 
L 235.09349 72.299249 
L 237.834544 77.756427 
L 239.053205 79.575486 
L 241.794546 85.032664 
L 248.191792 72.299249 
L 249.106006 74.118308 
L 252.760997 66.842071 
L 253.675317 68.66113 
L 260.072825 55.927715 
L 260.986517 55.175391 
L 271.038916 55.175391 
L 271.953265 55.857483 
L 282.91869 77.686195 
L 283.832668 75.867135 
L 286.574264 81.324313 
L 287.793022 81.180091 
L 291.448804 86.637269 
L 295.104148 93.913506 
L 314.294977 55.71326 
L 315.209651 55.175391 
L 323.434224 55.175391 
L 324.347851 55.776933 
L 330.745785 68.510349 
L 331.963307 70.329408 
L 333.791052 73.967527 
L 335.009821 75.786586 
L 336.837135 79.424705 
L 338.665086 75.786586 
L 345.978027 90.339061 
L 347.196427 88.520001 
L 358.161423 66.691289 
L 359.380519 64.87223 
L 362.12371 59.415052 
L 364.560299 55.776933 
L 365.472529 55.175391 
L 374.91891 55.175391 
L 375.833293 55.545308 
L 377.660535 59.183427 
L 378.879256 61.002486 
L 387.103762 77.37402 
L 388.017845 75.554961 
L 390.759377 81.012139 
L 391.978024 82.679547 
L 392.892226 80.860488 
L 398.375141 91.774844 
L 416.65213 55.393657 
L 417.566041 55.175391 
L 426.70503 55.175391 
L 427.618908 55.893111 
L 438.585277 77.721822 
L 439.4997 75.902763 
L 440.413149 77.721822 
L 441.631963 79.540882 
L 447.117118 90.455238 
L 453.511382 77.721822 
L 456.253389 83.179 
L 468.135437 59.531229 
L 469.048653 57.977236 
L 472.703636 65.253473 
L 472.703636 65.253473 
" clip-path="url(#pe67e3ea8e0)" style="fill: none; stroke: #1f77b4; stroke-width: 1.5; stroke-linecap: square"/>
   </g>
   <g id="line2d_24">
    <path d="M 42.28 176.446012 
L 493.2 176.446012 
" clip-path="url(#pe67e3ea8e0)" style="fill: none; stroke-dasharray: 3.7,1.6; stroke-dashoffset: 0; stroke: #ff0000"/>
   </g>
   <g id="line2d_25">
    <path d="M 42.28 55.175391 
L 493.2 55.175391 
" clip-path="url(#pe67e3ea8e0)" style="fill: none; stroke-dasharray: 3.7,1.6; stroke-dashoffset: 0; stroke: #ff0000"/>
   </g>
   <g id="patch_3">
    <path d="M 42.28 180.599531 
L 42.28 49.202812 
" style="fill: none; stroke: #000000; stroke-width: 0.8; stroke-linejoin: miter; stroke-linecap: square"/>
   </g>
   <g id="patch_4">
    <path d="M 493.2 180.599531 
L 493.2 49.202812 
" style="fill: none; stroke: #000000; stroke-width: 0.8; stroke-linejoin: miter; stroke-linecap: square"/>
   </g>
   <g id="patch_5">
    <path d="M 42.28 180.599531 
L 493.2 180.599531 
" style="fill: none; stroke: #000000; stroke-width: 0.8; stroke-linejoin: miter; stroke-linecap: square"/>
   </g>
   <g id="patch_6">
    <path d="M 42.28 49.202812 
L 493.2 49.202812 
" style="fill: none; stroke: #000000; stroke-width: 0.8; stroke-linejoin: miter; stroke-linecap: square"/>
   </g>
   <g id="text_13">
    <!-- $v_{x,cmd}$ (m/s) -->
    <g transform="translate(232.7 43.202812) scale(0.12 -0.12)">
     <defs>
      <path id="DejaVuSans-Oblique-59" d="M 459 3500 
L 1069 3500 
L 1581 525 
L 3256 3500 
L 3866 3500 
L 1875 0 
L 1100 0 
L 459 3500 
z
" transform="scale(0.015625)"/>
      <path id="DejaVuSans-Oblique-5b" d="M 3841 3500 
L 2234 1784 
L 3219 0 
L 2559 0 
L 1819 1388 
L 531 0 
L -166 0 
L 1556 1844 
L 641 3500 
L 1300 3500 
L 1972 2234 
L 3144 3500 
L 3841 3500 
z
" transform="scale(0.015625)"/>
      <path id="DejaVuSans-f" d="M 750 794 
L 1409 794 
L 1409 256 
L 897 -744 
L 494 -744 
L 750 256 
L 750 794 
z
" transform="scale(0.015625)"/>
      <path id="DejaVuSans-Oblique-46" d="M 3431 3366 
L 3316 2797 
Q 3109 2947 2876 3022 
Q 2644 3097 2394 3097 
Q 2119 3097 1870 3000 
Q 1622 2903 1453 2725 
Q 1184 2453 1037 2087 
Q 891 1722 891 1331 
Q 891 859 1127 628 
Q 1363 397 1844 397 
Q 2081 397 2348 469 
Q 2616 541 2906 684 
L 2797 116 
Q 2547 13 2283 -39 
Q 2019 -91 1741 -91 
Q 1044 -91 669 257 
Q 294 606 294 1253 
Q 294 1797 489 2255 
Q 684 2713 1069 3078 
Q 1331 3328 1684 3456 
Q 2038 3584 2456 3584 
Q 2700 3584 2940 3529 
Q 3181 3475 3431 3366 
z
" transform="scale(0.015625)"/>
      <path id="DejaVuSans-Oblique-50" d="M 5747 2113 
L 5338 0 
L 4763 0 
L 5166 2094 
Q 5191 2228 5203 2325 
Q 5216 2422 5216 2491 
Q 5216 2772 5059 2928 
Q 4903 3084 4622 3084 
Q 4203 3084 3875 2770 
Q 3547 2456 3450 1953 
L 3066 0 
L 2491 0 
L 2900 2094 
Q 2925 2209 2937 2307 
Q 2950 2406 2950 2484 
Q 2950 2769 2794 2926 
Q 2638 3084 2363 3084 
Q 1938 3084 1609 2770 
Q 1281 2456 1184 1953 
L 800 0 
L 225 0 
L 909 3500 
L 1484 3500 
L 1375 2956 
Q 1609 3263 1923 3423 
Q 2238 3584 2597 3584 
Q 2978 3584 3223 3384 
Q 3469 3184 3519 2828 
Q 3781 3197 4126 3390 
Q 4472 3584 4856 3584 
Q 5306 3584 5551 3325 
Q 5797 3066 5797 2591 
Q 5797 2488 5784 2364 
Q 5772 2241 5747 2113 
z
" transform="scale(0.015625)"/>
      <path id="DejaVuSans-Oblique-47" d="M 2675 525 
Q 2444 222 2128 65 
Q 1813 -91 1428 -91 
Q 903 -91 598 267 
Q 294 625 294 1247 
Q 294 1766 478 2236 
Q 663 2706 1013 3078 
Q 1244 3325 1534 3454 
Q 1825 3584 2144 3584 
Q 2481 3584 2739 3421 
Q 2997 3259 3138 2956 
L 3513 4863 
L 4091 4863 
L 3144 0 
L 2566 0 
L 2675 525 
z
M 891 1350 
Q 891 897 1095 644 
Q 1300 391 1663 391 
Q 1931 391 2161 520 
Q 2391 650 2566 903 
Q 2750 1166 2856 1509 
Q 2963 1853 2963 2188 
Q 2963 2622 2758 2865 
Q 2553 3109 2194 3109 
Q 1922 3109 1687 2981 
Q 1453 2853 1288 2613 
Q 1106 2353 998 2009 
Q 891 1666 891 1350 
z
" transform="scale(0.015625)"/>
      <path id="DejaVuSans-50" d="M 3328 2828 
Q 3544 3216 3844 3400 
Q 4144 3584 4550 3584 
Q 5097 3584 5394 3201 
Q 5691 2819 5691 2113 
L 5691 0 
L 5113 0 
L 5113 2094 
Q 5113 2597 4934 2840 
Q 4756 3084 4391 3084 
Q 3944 3084 3684 2787 
Q 3425 2491 3425 1978 
L 3425 0 
L 2847 0 
L 2847 2094 
Q 2847 2600 2669 2842 
Q 2491 3084 2119 3084 
Q 1678 3084 1418 2786 
Q 1159 2488 1159 1978 
L 1159 0 
L 581 0 
L 581 3500 
L 1159 3500 
L 1159 2956 
Q 1356 3278 1631 3431 
Q 1906 3584 2284 3584 
Q 2666 3584 2933 3390 
Q 3200 3197 3328 2828 
z
" transform="scale(0.015625)"/>
      <path id="DejaVuSans-12" d="M 1625 4666 
L 2156 4666 
L 531 -594 
L 0 -594 
L 1625 4666 
z
" transform="scale(0.015625)"/>
     </defs>
     <use xlink:href="#DejaVuSans-Oblique-59" transform="translate(0 0.125)"/>
     <use xlink:href="#DejaVuSans-Oblique-5b" transform="translate(59.179688 -14.874951) scale(0.7)"/>
     <use xlink:href="#DejaVuSans-f" transform="translate(100.605469 -14.874951) scale(0.7)"/>
     <use xlink:href="#DejaVuSans-Oblique-46" transform="translate(136.494141 -14.874951) scale(0.7)"/>
     <use xlink:href="#DejaVuSans-Oblique-50" transform="translate(174.980469 -14.874951) scale(0.7)"/>
     <use xlink:href="#DejaVuSans-Oblique-47" transform="translate(243.168945 -14.874951) scale(0.7)"/>
     <use xlink:href="#DejaVuSans-3" transform="translate(290.336914 0.125)"/>
     <use xlink:href="#DejaVuSans-b" transform="translate(322.124023 0.125)"/>
     <use xlink:href="#DejaVuSans-50" transform="translate(361.137695 0.125)"/>
     <use xlink:href="#DejaVuSans-12" transform="translate(458.549805 0.125)"/>
     <use xlink:href="#DejaVuSans-56" transform="translate(492.241211 0.125)"/>
     <use xlink:href="#DejaVuSans-c" transform="translate(544.34082 0.125)"/>
    </g>
   </g>
   <g id="legend_1">
    <g id="patch_7">
     <path d="M 425.1 175.599531 
L 486.2 175.599531 
Q 488.2 175.599531 488.2 173.599531 
L 488.2 159.59875 
Q 488.2 157.59875 486.2 157.59875 
L 425.1 157.59875 
Q 423.1 157.59875 423.1 159.59875 
L 423.1 173.599531 
Q 423.1 175.599531 425.1 175.599531 
z
" style="fill: #ffffff; opacity: 0.8; stroke: #cccccc; stroke-linejoin: miter"/>
    </g>
    <g id="line2d_26">
     <path d="M 427.1 165.697187 
L 437.1 165.697187 
L 447.1 165.697187 
" style="fill: none; stroke: #1f77b4; stroke-width: 1.5; stroke-linecap: square"/>
    </g>
    <g id="text_14">
     <!-- $v_{x,cmd}$ -->
     <g transform="translate(455.1 169.197187) scale(0.1 -0.1)">
      <use xlink:href="#DejaVuSans-Oblique-59" transform="translate(0 0.3125)"/>
      <use xlink:href="#DejaVuSans-Oblique-5b" transform="translate(59.179688 -14.687451) scale(0.7)"/>
      <use xlink:href="#DejaVuSans-f" transform="translate(100.605469 -14.687451) scale(0.7)"/>
      <use xlink:href="#DejaVuSans-Oblique-46" transform="translate(136.494141 -14.687451) scale(0.7)"/>
      <use xlink:href="#DejaVuSans-Oblique-50" transform="translate(174.980469 -14.687451) scale(0.7)"/>
      <use xlink:href="#DejaVuSans-Oblique-47" transform="translate(243.168945 -14.687451) scale(0.7)"/>
     </g>
    </g>
   </g>
  </g>
  <g id="axes_2">
   <g id="patch_8">
    <path d="M 42.28 371.638594 
L 493.2 371.638594 
L 493.2 240.241875 
L 42.28 240.241875 
z
" style="fill: #ffffff"/>
   </g>
   <g id="matplotlib.axis_3">
    <g id="xtick_6">
     <g id="line2d_27">
      <path d="M 62.77636 371.638594 
L 62.77636 240.241875 
" clip-path="url(#p98149d53dd)" style="fill: none; stroke: #b0b0b0; stroke-width: 0.8; stroke-linecap: square"/>
     </g>
     <g id="line2d_28">
      <g>
       <use xlink:href="#mc256f840a3" x="62.77636" y="371.638594" style="stroke: #000000; stroke-width: 0.8"/>
      </g>
     </g>
     <g id="text_15">
      <!-- 0 -->
      <g transform="translate(59.59511 386.23625) scale(0.1 -0.1)">
       <use xlink:href="#DejaVuSans-13"/>
      </g>
     </g>
    </g>
    <g id="xtick_7">
     <g id="line2d_29">
      <path d="M 154.163137 371.638594 
L 154.163137 240.241875 
" clip-path="url(#p98149d53dd)" style="fill: none; stroke: #b0b0b0; stroke-width: 0.8; stroke-linecap: square"/>
     </g>
     <g id="line2d_30">
      <g>
       <use xlink:href="#mc256f840a3" x="154.163137" y="371.638594" style="stroke: #000000; stroke-width: 0.8"/>
      </g>
     </g>
     <g id="text_16">
      <!-- 10 -->
      <g transform="translate(147.800637 386.23625) scale(0.1 -0.1)">
       <use xlink:href="#DejaVuSans-14"/>
       <use xlink:href="#DejaVuSans-13" transform="translate(63.625 0)"/>
      </g>
     </g>
    </g>
    <g id="xtick_8">
     <g id="line2d_31">
      <path d="M 245.549914 371.638594 
L 245.549914 240.241875 
" clip-path="url(#p98149d53dd)" style="fill: none; stroke: #b0b0b0; stroke-width: 0.8; stroke-linecap: square"/>
     </g>
     <g id="line2d_32">
      <g>
       <use xlink:href="#mc256f840a3" x="245.549914" y="371.638594" style="stroke: #000000; stroke-width: 0.8"/>
      </g>
     </g>
     <g id="text_17">
      <!-- 20 -->
      <g transform="translate(239.187414 386.23625) scale(0.1 -0.1)">
       <use xlink:href="#DejaVuSans-15"/>
       <use xlink:href="#DejaVuSans-13" transform="translate(63.625 0)"/>
      </g>
     </g>
    </g>
    <g id="xtick_9">
     <g id="line2d_33">
      <path d="M 336.936691 371.638594 
L 336.936691 240.241875 
" clip-path="url(#p98149d53dd)" style="fill: none; stroke: #b0b0b0; stroke-width: 0.8; stroke-linecap: square"/>
     </g>
     <g id="line2d_34">
      <g>
       <use xlink:href="#mc256f840a3" x="336.936691" y="371.638594" style="stroke: #000000; stroke-width: 0.8"/>
      </g>
     </g>
     <g id="text_18">
      <!-- 30 -->
      <g transform="translate(330.574191 386.23625) scale(0.1 -0.1)">
       <use xlink:href="#DejaVuSans-16"/>
       <use xlink:href="#DejaVuSans-13" transform="translate(63.625 0)"/>
      </g>
     </g>
    </g>
    <g id="xtick_10">
     <g id="line2d_35">
      <path d="M 428.323468 371.638594 
L 428.323468 240.241875 
" clip-path="url(#p98149d53dd)" style="fill: none; stroke: #b0b0b0; stroke-width: 0.8; stroke-linecap: square"/>
     </g>
     <g id="line2d_36">
      <g>
       <use xlink:href="#mc256f840a3" x="428.323468" y="371.638594" style="stroke: #000000; stroke-width: 0.8"/>
      </g>
     </g>
     <g id="text_19">
      <!-- 40 -->
      <g transform="translate(421.960968 386.23625) scale(0.1 -0.1)">
       <use xlink:href="#DejaVuSans-17"/>
       <use xlink:href="#DejaVuSans-13" transform="translate(63.625 0)"/>
      </g>
     </g>
    </g>
    <g id="text_20">
     <!-- t (s) -->
     <g transform="translate(257.684531 400.23625) scale(0.1 -0.1)">
      <use xlink:href="#DejaVuSans-57"/>
      <use xlink:href="#DejaVuSans-3" transform="translate(39.203125 0)"/>
      <use xlink:href="#DejaVuSans-b" transform="translate(70.984375 0)"/>
      <use xlink:href="#DejaVuSans-56" transform="translate(110 0)"/>
      <use xlink:href="#DejaVuSans-c" transform="translate(162.09375 0)"/>
     </g>
    </g>
   </g>
   <g id="matplotlib.axis_4">
    <g id="ytick_7">
     <g id="line2d_37">
      <path d="M 42.28 351.567264 
L 493.2 351.567264 
" clip-path="url(#p98149d53dd)" style="fill: none; stroke: #b0b0b0; stroke-width: 0.8; stroke-linecap: square"/>
     </g>
     <g id="line2d_38">
      <g>
       <use xlink:href="#m86e8903346" x="42.28" y="351.567264" style="stroke: #000000; stroke-width: 0.8"/>
      </g>
     </g>
     <g id="text_21">
      <!-- −0.4 -->
      <g transform="translate(10.997188 355.366092) scale(0.1 -0.1)">
       <defs>
        <path id="DejaVuSans-c9c" d="M 678 2272 
L 4684 2272 
L 4684 1741 
L 678 1741 
L 678 2272 
z
" transform="scale(0.015625)"/>
       </defs>
       <use xlink:href="#DejaVuSans-c9c"/>
       <use xlink:href="#DejaVuSans-13" transform="translate(83.796875 0)"/>
       <use xlink:href="#DejaVuSans-11" transform="translate(147.421875 0)"/>
       <use xlink:href="#DejaVuSans-17" transform="translate(179.203125 0)"/>
      </g>
     </g>
    </g>
    <g id="ytick_8">
     <g id="line2d_39">
      <path d="M 42.28 328.753749 
L 493.2 328.753749 
" clip-path="url(#p98149d53dd)" style="fill: none; stroke: #b0b0b0; stroke-width: 0.8; stroke-linecap: square"/>
     </g>
     <g id="line2d_40">
      <g>
       <use xlink:href="#m86e8903346" x="42.28" y="328.753749" style="stroke: #000000; stroke-width: 0.8"/>
      </g>
     </g>
     <g id="text_22">
      <!-- −0.2 -->
      <g transform="translate(10.997188 332.552577) scale(0.1 -0.1)">
       <use xlink:href="#DejaVuSans-c9c"/>
       <use xlink:href="#DejaVuSans-13" transform="translate(83.796875 0)"/>
       <use xlink:href="#DejaVuSans-11" transform="translate(147.421875 0)"/>
       <use xlink:href="#DejaVuSans-15" transform="translate(179.203125 0)"/>
      </g>
     </g>
    </g>
    <g id="ytick_9">
     <g id="line2d_41">
      <path d="M 42.28 305.940234 
L 493.2 305.940234 
" clip-path="url(#p98149d53dd)" style="fill: none; stroke: #b0b0b0; stroke-width: 0.8; stroke-linecap: square"/>
     </g>
     <g id="line2d_42">
      <g>
       <use xlink:href="#m86e8903346" x="42.28" y="305.940234" style="stroke: #000000; stroke-width: 0.8"/>
      </g>
     </g>
     <g id="text_23">
      <!-- 0.0 -->
      <g transform="translate(19.376875 309.739062) scale(0.1 -0.1)">
       <use xlink:href="#DejaVuSans-13"/>
       <use xlink:href="#DejaVuSans-11" transform="translate(63.625 0)"/>
       <use xlink:href="#DejaVuSans-13" transform="translate(95.40625 0)"/>
      </g>
     </g>
    </g>
    <g id="ytick_10">
     <g id="line2d_43">
      <path d="M 42.28 283.12672 
L 493.2 283.12672 
" clip-path="url(#p98149d53dd)" style="fill: none; stroke: #b0b0b0; stroke-width: 0.8; stroke-linecap: square"/>
     </g>
     <g id="line2d_44">
      <g>
       <use xlink:href="#m86e8903346" x="42.28" y="283.12672" style="stroke: #000000; stroke-width: 0.8"/>
      </g>
     </g>
     <g id="text_24">
      <!-- 0.2 -->
      <g transform="translate(19.376875 286.925548) scale(0.1 -0.1)">
       <use xlink:href="#DejaVuSans-13"/>
       <use xlink:href="#DejaVuSans-11" transform="translate(63.625 0)"/>
       <use xlink:href="#DejaVuSans-15" transform="translate(95.40625 0)"/>
      </g>
     </g>
    </g>
    <g id="ytick_11">
     <g id="line2d_45">
      <path d="M 42.28 260.313205 
L 493.2 260.313205 
" clip-path="url(#p98149d53dd)" style="fill: none; stroke: #b0b0b0; stroke-width: 0.8; stroke-linecap: square"/>
     </g>
     <g id="line2d_46">
      <g>
       <use xlink:href="#m86e8903346" x="42.28" y="260.313205" style="stroke: #000000; stroke-width: 0.8"/>
      </g>
     </g>
     <g id="text_25">
      <!-- 0.4 -->
      <g transform="translate(19.376875 264.112033) scale(0.1 -0.1)">
       <use xlink:href="#DejaVuSans-13"/>
       <use xlink:href="#DejaVuSans-11" transform="translate(63.625 0)"/>
       <use xlink:href="#DejaVuSans-17" transform="translate(95.40625 0)"/>
      </g>
     </g>
    </g>
   </g>
   <g id="line2d_47">
    <path d="M 62.776364 305.940234 
L 74.557092 305.940577 
L 115.680174 305.940245 
L 116.594192 313.141723 
L 117.508081 317.830871 
L 118.421647 315.045896 
L 119.335677 322.422569 
L 120.250486 355.125527 
L 121.163877 365.666016 
L 122.991609 365.666016 
L 123.906416 246.734677 
L 124.819243 246.214453 
L 125.732759 246.214453 
L 126.646695 365.666016 
L 129.388346 365.666016 
L 130.302182 363.210394 
L 131.520325 246.214453 
L 145.22854 246.214453 
L 146.143007 365.666016 
L 147.057027 365.666016 
L 147.970303 332.537692 
L 148.884535 246.214453 
L 149.798711 282.768441 
L 150.712117 365.666016 
L 152.54028 365.666016 
L 153.453818 321.934841 
L 154.368182 296.940356 
L 155.281779 316.940525 
L 156.195073 346.017452 
L 157.10911 349.446855 
L 158.023548 328.424532 
L 158.937123 301.88313 
L 159.85096 292.208846 
L 160.764689 302.439303 
L 161.678406 317.788083 
L 162.592736 322.614897 
L 163.506097 314.519277 
L 164.419924 302.40638 
L 165.334312 296.58631 
L 166.24798 299.733376 
L 167.161709 307.115786 
L 168.076063 312.123622 
L 168.989398 311.640806 
L 169.903245 307.328671 
L 170.8177 304.530554 
L 171.731656 308.76165 
L 172.645513 317.558689 
L 173.559121 323.057951 
L 175.386569 363.638936 
L 176.30094 365.666016 
L 177.215655 327.120603 
L 178.128693 260.586355 
L 179.042163 251.30401 
L 179.956424 351.343471 
L 180.870291 365.666016 
L 182.698933 365.666016 
L 183.611517 246.214453 
L 186.353286 246.214453 
L 187.571668 365.666016 
L 190.008704 365.666016 
L 190.922882 246.214453 
L 200.061532 246.214453 
L 200.975892 272.985569 
L 201.888712 365.666016 
L 202.803332 365.666016 
L 203.71825 336.206169 
L 204.631013 264.451769 
L 205.544754 285.425491 
L 206.458695 365.666016 
L 207.372646 365.666016 
L 208.286047 345.263872 
L 209.19992 316.629646 
L 210.114015 311.31543 
L 211.028821 325.611123 
L 211.941805 336.697315 
L 212.855405 332.900332 
L 214.683065 303.215252 
L 215.597269 298.248808 
L 216.510658 302.991122 
L 217.424608 310.627447 
L 218.338293 314.252046 
L 219.252409 311.887705 
L 220.166535 306.428439 
L 221.080869 302.31477 
L 221.994568 301.980114 
L 222.907967 300.52861 
L 224.126608 294.543142 
L 225.040366 293.497035 
L 226.868665 250.048785 
L 227.781762 246.214453 
L 228.695638 271.618567 
L 229.610052 344.084339 
L 230.523883 365.666016 
L 231.437267 300.850498 
L 232.35158 246.214453 
L 235.09349 246.214453 
L 236.008995 365.666016 
L 247.278035 365.666016 
L 248.191792 246.214453 
L 249.106006 246.214453 
L 250.019998 255.031187 
L 250.933832 313.134412 
L 251.847468 344.089987 
L 252.760997 287.16769 
L 253.675317 246.214453 
L 254.588966 246.214453 
L 255.502495 267.156091 
L 256.41712 294.63742 
L 257.33058 307.806019 
L 258.244361 302.466858 
L 259.158551 291.188225 
L 260.072825 287.767768 
L 260.986517 295.166711 
L 261.900418 306.459303 
L 262.814417 312.678856 
L 263.727731 310.88004 
L 264.641959 304.848974 
L 265.555745 300.418297 
L 266.469301 300.620365 
L 268.296996 308.053704 
L 269.210732 309.285848 
L 270.1247 307.796935 
L 271.038916 305.332271 
L 271.953265 307.595447 
L 272.866808 314.924281 
L 273.780199 320.087968 
L 274.694808 330.823658 
L 275.607783 350.946886 
L 276.522264 365.189448 
L 277.436316 356.932134 
L 278.349562 297.22843 
L 279.265327 248.586991 
L 280.177643 271.798254 
L 281.091176 365.666016 
L 283.832668 365.666016 
L 284.746211 246.214453 
L 286.574264 246.214453 
L 287.793022 261.580969 
L 289.011766 365.666016 
L 290.230279 365.666016 
L 291.448804 246.214453 
L 301.500985 246.214453 
L 302.414832 365.666016 
L 304.242926 365.666016 
L 305.156597 261.765296 
L 306.070378 250.752013 
L 306.984406 365.666016 
L 307.897946 365.666016 
L 308.811682 362.950817 
L 309.72562 325.638113 
L 310.639995 303.903405 
L 311.553605 315.764251 
L 312.46735 336.808872 
L 313.38124 341.523189 
L 314.294977 327.692798 
L 315.209651 307.137809 
L 316.123323 295.707465 
L 317.036755 298.784728 
L 317.951333 309.262131 
L 318.864817 316.484559 
L 319.779582 315.390989 
L 321.60622 301.915182 
L 322.520069 300.116638 
L 323.434224 303.058612 
L 324.347851 303.756051 
L 326.175281 294.610001 
L 327.089389 282.575792 
L 328.003502 259.898137 
L 328.917091 246.214453 
L 329.830894 251.555938 
L 330.745785 311.825062 
L 331.963307 365.666016 
L 332.876972 365.666016 
L 333.791052 298.345706 
L 335.009821 246.214453 
L 338.665086 246.214453 
L 339.579451 365.666016 
L 351.76413 365.666016 
L 352.678093 246.214453 
L 353.592179 246.214453 
L 354.506521 306.256492 
L 355.42134 357.508247 
L 356.333343 293.262309 
L 357.247625 246.214453 
L 358.161423 246.214453 
L 359.380519 293.573858 
L 360.293848 315.87952 
L 361.207411 293.165273 
L 362.12371 264.917515 
L 363.3409 257.743842 
L 364.560299 285.671853 
L 365.472529 316.89867 
L 366.386254 326.923057 
L 367.304425 314.598053 
L 368.218357 295.931129 
L 369.131813 287.667381 
L 370.044953 293.564014 
L 371.264323 312.058028 
L 372.17721 320.687657 
L 373.091639 316.242522 
L 374.005078 305.264749 
L 374.91891 297.221839 
L 375.833293 299.349257 
L 376.747078 293.499549 
L 377.660535 291.453233 
L 378.879256 284.843604 
L 380.706969 247.506081 
L 381.620499 250.454411 
L 383.4494 365.666016 
L 384.363162 350.916485 
L 385.276254 246.214453 
L 388.017845 246.214453 
L 388.931913 365.666016 
L 390.759377 365.666016 
L 391.978024 334.420602 
L 392.892226 261.718002 
L 393.806203 260.833511 
L 394.719534 365.666016 
L 403.858376 365.666016 
L 404.772586 318.680808 
L 405.686528 246.214453 
L 406.600189 246.214453 
L 407.515346 303.482354 
L 408.427296 350.912393 
L 409.341929 294.29593 
L 410.256178 246.214453 
L 411.169131 246.214453 
L 412.083006 276.544541 
L 412.996998 303.121186 
L 413.910889 299.03728 
L 414.824734 279.569041 
L 415.73892 271.093703 
L 416.65213 280.496354 
L 417.566041 299.451471 
L 418.480143 313.318979 
L 419.393838 313.996076 
L 421.222313 297.431221 
L 422.135489 296.27766 
L 423.049969 301.526416 
L 423.963693 308.11595 
L 424.878659 311.201988 
L 425.791174 309.603906 
L 426.70503 305.688073 
L 427.618908 306.880263 
L 428.532677 313.971371 
L 429.446971 319.453006 
L 430.360488 332.115306 
L 431.274623 353.628122 
L 432.188292 365.666016 
L 433.102029 355.65157 
L 434.016364 292.674036 
L 434.929833 246.890957 
L 435.843783 275.336522 
L 436.757475 365.666016 
L 439.4997 365.666016 
L 440.413149 246.214453 
L 452.598389 246.214453 
L 453.511382 365.666016 
L 456.253389 365.666016 
L 457.167139 246.214453 
L 458.081108 246.214453 
L 458.99461 345.259475 
L 459.909045 365.666016 
L 460.823078 365.666016 
L 461.736473 358.419264 
L 462.650469 325.950869 
L 463.564906 297.544392 
L 464.478783 296.344155 
L 465.392469 315.155692 
L 466.30643 329.324427 
L 467.22042 325.171185 
L 468.135437 308.487286 
L 469.048653 295.641572 
L 469.961695 296.120477 
L 470.875607 303.790907 
L 471.789478 308.737309 
L 472.703636 309.382434 
L 472.703636 309.382434 
" clip-path="url(#p98149d53dd)" style="fill: none; stroke: #1f77b4; stroke-width: 1.5; stroke-linecap: square"/>
   </g>
   <g id="line2d_48">
    <path d="M 42.28 365.666016 
L 493.2 365.666016 
" clip-path="url(#p98149d53dd)" style="fill: none; stroke-dasharray: 3.7,1.6; stroke-dashoffset: 0; stroke: #ff0000"/>
   </g>
   <g id="line2d_49">
    <path d="M 42.28 246.214453 
L 493.2 246.214453 
" clip-path="url(#p98149d53dd)" style="fill: none; stroke-dasharray: 3.7,1.6; stroke-dashoffset: 0; stroke: #ff0000"/>
   </g>
   <g id="patch_9">
    <path d="M 42.28 371.638594 
L 42.28 240.241875 
" style="fill: none; stroke: #000000; stroke-width: 0.8; stroke-linejoin: miter; stroke-linecap: square"/>
   </g>
   <g id="patch_10">
    <path d="M 493.2 371.638594 
L 493.2 240.241875 
" style="fill: none; stroke: #000000; stroke-width: 0.8; stroke-linejoin: miter; stroke-linecap: square"/>
   </g>
   <g id="patch_11">
    <path d="M 42.28 371.638594 
L 493.2 371.638594 
" style="fill: none; stroke: #000000; stroke-width: 0.8; stroke-linejoin: miter; stroke-linecap: square"/>
   </g>
   <g id="patch_12">
    <path d="M 42.28 240.241875 
L 493.2 240.241875 
" style="fill: none; stroke: #000000; stroke-width: 0.8; stroke-linejoin: miter; stroke-linecap: square"/>
   </g>
   <g id="text_26">
    <!-- $\delta_{cmd}$ (rad) -->
    <g transform="translate(238.28 234.241875) scale(0.12 -0.12)">
     <defs>
      <path id="DejaVuSans-Oblique-348" d="M 3472 4053 
Q 3197 4272 2450 4272 
Q 1659 4272 1588 3906 
Q 1531 3619 2328 3469 
Q 2953 3353 3253 3003 
Q 3616 2581 3447 1716 
Q 3284 888 2763 400 
Q 2238 -91 1488 -91 
Q 741 -91 406 400 
Q 72 888 241 1747 
Q 363 2384 891 2900 
Q 1097 3100 1353 3213 
Q 913 3459 1000 3900 
Q 1166 4750 2544 4750 
Q 3234 4750 3566 4531 
L 3472 4053 
z
M 1753 3056 
Q 1525 2966 1306 2738 
Q 969 2384 847 1747 
Q 722 1113 919 756 
Q 1119 397 1584 397 
Q 2044 397 2381 759 
Q 2722 1122 2838 1716 
Q 2956 2338 2731 2638 
Q 2491 2959 2103 2994 
Q 1906 3013 1753 3056 
z
" transform="scale(0.015625)"/>
      <path id="DejaVuSans-55" d="M 2631 2963 
Q 2534 3019 2420 3045 
Q 2306 3072 2169 3072 
Q 1681 3072 1420 2755 
Q 1159 2438 1159 1844 
L 1159 0 
L 581 0 
L 581 3500 
L 1159 3500 
L 1159 2956 
Q 1341 3275 1631 3429 
Q 1922 3584 2338 3584 
Q 2397 3584 2469 3576 
Q 2541 3569 2628 3553 
L 2631 2963 
z
" transform="scale(0.015625)"/>
      <path id="DejaVuSans-44" d="M 2194 1759 
Q 1497 1759 1228 1600 
Q 959 1441 959 1056 
Q 959 750 1161 570 
Q 1363 391 1709 391 
Q 2188 391 2477 730 
Q 2766 1069 2766 1631 
L 2766 1759 
L 2194 1759 
z
M 3341 1997 
L 3341 0 
L 2766 0 
L 2766 531 
Q 2569 213 2275 61 
Q 1981 -91 1556 -91 
Q 1019 -91 701 211 
Q 384 513 384 1019 
Q 384 1609 779 1909 
Q 1175 2209 1959 2209 
L 2766 2209 
L 2766 2266 
Q 2766 2663 2505 2880 
Q 2244 3097 1772 3097 
Q 1472 3097 1187 3025 
Q 903 2953 641 2809 
L 641 3341 
Q 956 3463 1253 3523 
Q 1550 3584 1831 3584 
Q 2591 3584 2966 3190 
Q 3341 2797 3341 1997 
z
" transform="scale(0.015625)"/>
      <path id="DejaVuSans-47" d="M 2906 2969 
L 2906 4863 
L 3481 4863 
L 3481 0 
L 2906 0 
L 2906 525 
Q 2725 213 2448 61 
Q 2172 -91 1784 -91 
Q 1150 -91 751 415 
Q 353 922 353 1747 
Q 353 2572 751 3078 
Q 1150 3584 1784 3584 
Q 2172 3584 2448 3432 
Q 2725 3281 2906 2969 
z
M 947 1747 
Q 947 1113 1208 752 
Q 1469 391 1925 391 
Q 2381 391 2643 752 
Q 2906 1113 2906 1747 
Q 2906 2381 2643 2742 
Q 2381 3103 1925 3103 
Q 1469 3103 1208 2742 
Q 947 2381 947 1747 
z
" transform="scale(0.015625)"/>
     </defs>
     <use xlink:href="#DejaVuSans-Oblique-348" transform="translate(0 0.015625)"/>
     <use xlink:href="#DejaVuSans-Oblique-46" transform="translate(61.181641 -14.984326) scale(0.7)"/>
     <use xlink:href="#DejaVuSans-Oblique-50" transform="translate(99.667969 -14.984326) scale(0.7)"/>
     <use xlink:href="#DejaVuSans-Oblique-47" transform="translate(167.856445 -14.984326) scale(0.7)"/>
     <use xlink:href="#DejaVuSans-3" transform="translate(215.024414 0.015625)"/>
     <use xlink:href="#DejaVuSans-b" transform="translate(246.811523 0.015625)"/>
     <use xlink:href="#DejaVuSans-55" transform="translate(285.825195 0.015625)"/>
     <use xlink:href="#DejaVuSans-44" transform="translate(326.938477 0.015625)"/>
     <use xlink:href="#DejaVuSans-47" transform="translate(388.217773 0.015625)"/>
     <use xlink:href="#DejaVuSans-c" transform="translate(451.694336 0.015625)"/>
    </g>
   </g>
   <g id="legend_2">
    <g id="patch_13">
     <path d="M 49.28 263.242656 
L 102.88 263.242656 
Q 104.88 263.242656 104.88 261.242656 
L 104.88 247.241875 
Q 104.88 245.241875 102.88 245.241875 
L 49.28 245.241875 
Q 47.28 245.241875 47.28 247.241875 
L 47.28 261.242656 
Q 47.28 263.242656 49.28 263.242656 
z
" style="fill: #ffffff; opacity: 0.8; stroke: #cccccc; stroke-linejoin: miter"/>
    </g>
    <g id="line2d_50">
     <path d="M 51.28 253.340312 
L 61.28 253.340312 
L 71.28 253.340312 
" style="fill: none; stroke: #1f77b4; stroke-width: 1.5; stroke-linecap: square"/>
    </g>
    <g id="text_27">
     <!-- $\delta_{cmd}$ -->
     <g transform="translate(79.28 256.840312) scale(0.1 -0.1)">
      <use xlink:href="#DejaVuSans-Oblique-348" transform="translate(0 0.78125)"/>
      <use xlink:href="#DejaVuSans-Oblique-46" transform="translate(61.181641 -14.218701) scale(0.7)"/>
      <use xlink:href="#DejaVuSans-Oblique-50" transform="translate(99.667969 -14.218701) scale(0.7)"/>
      <use xlink:href="#DejaVuSans-Oblique-47" transform="translate(167.856445 -14.218701) scale(0.7)"/>
     </g>
    </g>
   </g>
  </g>
  <g id="axes_3">
   <g id="patch_14">
    <path d="M 42.28 562.677656 
L 493.2 562.677656 
L 493.2 431.280937 
L 42.28 431.280937 
z
" style="fill: #ffffff"/>
   </g>
   <g id="matplotlib.axis_5">
    <g id="xtick_11">
     <g id="line2d_51">
      <path d="M 62.77636 562.677656 
L 62.77636 431.280937 
" clip-path="url(#p6fee2e7350)" style="fill: none; stroke: #b0b0b0; stroke-width: 0.8; stroke-linecap: square"/>
     </g>
     <g id="line2d_52">
      <g>
       <use xlink:href="#mc256f840a3" x="62.77636" y="562.677656" style="stroke: #000000; stroke-width: 0.8"/>
      </g>
     </g>
     <g id="text_28">
      <!-- 0 -->
      <g transform="translate(59.59511 577.275312) scale(0.1 -0.1)">
       <use xlink:href="#DejaVuSans-13"/>
      </g>
     </g>
    </g>
    <g id="xtick_12">
     <g id="line2d_53">
      <path d="M 154.163137 562.677656 
L 154.163137 431.280937 
" clip-path="url(#p6fee2e7350)" style="fill: none; stroke: #b0b0b0; stroke-width: 0.8; stroke-linecap: square"/>
     </g>
     <g id="line2d_54">
      <g>
       <use xlink:href="#mc256f840a3" x="154.163137" y="562.677656" style="stroke: #000000; stroke-width: 0.8"/>
      </g>
     </g>
     <g id="text_29">
      <!-- 10 -->
      <g transform="translate(147.800637 577.275312) scale(0.1 -0.1)">
       <use xlink:href="#DejaVuSans-14"/>
       <use xlink:href="#DejaVuSans-13" transform="translate(63.625 0)"/>
      </g>
     </g>
    </g>
    <g id="xtick_13">
     <g id="line2d_55">
      <path d="M 245.549914 562.677656 
L 245.549914 431.280937 
" clip-path="url(#p6fee2e7350)" style="fill: none; stroke: #b0b0b0; stroke-width: 0.8; stroke-linecap: square"/>
     </g>
     <g id="line2d_56">
      <g>
       <use xlink:href="#mc256f840a3" x="245.549914" y="562.677656" style="stroke: #000000; stroke-width: 0.8"/>
      </g>
     </g>
     <g id="text_30">
      <!-- 20 -->
      <g transform="translate(239.187414 577.275312) scale(0.1 -0.1)">
       <use xlink:href="#DejaVuSans-15"/>
       <use xlink:href="#DejaVuSans-13" transform="translate(63.625 0)"/>
      </g>
     </g>
    </g>
    <g id="xtick_14">
     <g id="line2d_57">
      <path d="M 336.936691 562.677656 
L 336.936691 431.280937 
" clip-path="url(#p6fee2e7350)" style="fill: none; stroke: #b0b0b0; stroke-width: 0.8; stroke-linecap: square"/>
     </g>
     <g id="line2d_58">
      <g>
       <use xlink:href="#mc256f840a3" x="336.936691" y="562.677656" style="stroke: #000000; stroke-width: 0.8"/>
      </g>
     </g>
     <g id="text_31">
      <!-- 30 -->
      <g transform="translate(330.574191 577.275312) scale(0.1 -0.1)">
       <use xlink:href="#DejaVuSans-16"/>
       <use xlink:href="#DejaVuSans-13" transform="translate(63.625 0)"/>
      </g>
     </g>
    </g>
    <g id="xtick_15">
     <g id="line2d_59">
      <path d="M 428.323468 562.677656 
L 428.323468 431.280937 
" clip-path="url(#p6fee2e7350)" style="fill: none; stroke: #b0b0b0; stroke-width: 0.8; stroke-linecap: square"/>
     </g>
     <g id="line2d_60">
      <g>
       <use xlink:href="#mc256f840a3" x="428.323468" y="562.677656" style="stroke: #000000; stroke-width: 0.8"/>
      </g>
     </g>
     <g id="text_32">
      <!-- 40 -->
      <g transform="translate(421.960968 577.275312) scale(0.1 -0.1)">
       <use xlink:href="#DejaVuSans-17"/>
       <use xlink:href="#DejaVuSans-13" transform="translate(63.625 0)"/>
      </g>
     </g>
    </g>
    <g id="text_33">
     <!-- t (s) -->
     <g transform="translate(257.684531 591.275312) scale(0.1 -0.1)">
      <use xlink:href="#DejaVuSans-57"/>
      <use xlink:href="#DejaVuSans-3" transform="translate(39.203125 0)"/>
      <use xlink:href="#DejaVuSans-b" transform="translate(70.984375 0)"/>
      <use xlink:href="#DejaVuSans-56" transform="translate(110 0)"/>
      <use xlink:href="#DejaVuSans-c" transform="translate(162.09375 0)"/>
     </g>
    </g>
   </g>
   <g id="matplotlib.axis_6">
    <g id="ytick_12">
     <g id="line2d_61">
      <path d="M 42.28 536.796484 
L 493.2 536.796484 
" clip-path="url(#p6fee2e7350)" style="fill: none; stroke: #b0b0b0; stroke-width: 0.8; stroke-linecap: square"/>
     </g>
     <g id="line2d_62">
      <g>
       <use xlink:href="#m86e8903346" x="42.28" y="536.796484" style="stroke: #000000; stroke-width: 0.8"/>
      </g>
     </g>
     <g id="text_34">
      <!-- −0.2 -->
      <g transform="translate(10.997188 540.595312) scale(0.1 -0.1)">
       <use xlink:href="#DejaVuSans-c9c"/>
       <use xlink:href="#DejaVuSans-13" transform="translate(83.796875 0)"/>
       <use xlink:href="#DejaVuSans-11" transform="translate(147.421875 0)"/>
       <use xlink:href="#DejaVuSans-15" transform="translate(179.203125 0)"/>
      </g>
     </g>
    </g>
    <g id="ytick_13">
     <g id="line2d_63">
      <path d="M 42.28 496.979297 
L 493.2 496.979297 
" clip-path="url(#p6fee2e7350)" style="fill: none; stroke: #b0b0b0; stroke-width: 0.8; stroke-linecap: square"/>
     </g>
     <g id="line2d_64">
      <g>
       <use xlink:href="#m86e8903346" x="42.28" y="496.979297" style="stroke: #000000; stroke-width: 0.8"/>
      </g>
     </g>
     <g id="text_35">
      <!-- 0.0 -->
      <g transform="translate(19.376875 500.778125) scale(0.1 -0.1)">
       <use xlink:href="#DejaVuSans-13"/>
       <use xlink:href="#DejaVuSans-11" transform="translate(63.625 0)"/>
       <use xlink:href="#DejaVuSans-13" transform="translate(95.40625 0)"/>
      </g>
     </g>
    </g>
    <g id="ytick_14">
     <g id="line2d_65">
      <path d="M 42.28 457.162109 
L 493.2 457.162109 
" clip-path="url(#p6fee2e7350)" style="fill: none; stroke: #b0b0b0; stroke-width: 0.8; stroke-linecap: square"/>
     </g>
     <g id="line2d_66">
      <g>
       <use xlink:href="#m86e8903346" x="42.28" y="457.162109" style="stroke: #000000; stroke-width: 0.8"/>
      </g>
     </g>
     <g id="text_36">
      <!-- 0.2 -->
      <g transform="translate(19.376875 460.960937) scale(0.1 -0.1)">
       <use xlink:href="#DejaVuSans-13"/>
       <use xlink:href="#DejaVuSans-11" transform="translate(63.625 0)"/>
       <use xlink:href="#DejaVuSans-15" transform="translate(95.40625 0)"/>
      </g>
     </g>
    </g>
   </g>
   <g id="line2d_67">
    <path d="M 62.776364 437.253516 
L 117.508081 437.253516 
L 118.421647 510.225862 
L 119.335677 556.705078 
L 128.47512 556.705078 
L 129.388346 437.253516 
L 130.302182 556.705078 
L 138.831666 556.705078 
L 139.745958 437.253516 
L 163.506097 437.253516 
L 164.419924 448.401774 
L 165.334312 461.911538 
L 166.24798 470.11969 
L 168.076063 482.182359 
L 168.989398 485.953928 
L 169.903245 488.272482 
L 170.8177 499.404434 
L 171.731656 556.705078 
L 181.78413 556.705078 
L 182.698933 437.253516 
L 183.611517 556.705078 
L 186.353286 556.705078 
L 187.571668 437.253516 
L 189.094923 556.705078 
L 190.008704 437.253516 
L 190.922882 556.705078 
L 194.578347 556.705078 
L 195.492401 437.253516 
L 212.855405 437.253516 
L 213.769628 444.460699 
L 215.597269 467.351855 
L 217.424608 480.350261 
L 218.338293 485.875872 
L 219.252409 488.359895 
L 220.166535 489.869445 
L 221.080869 492.003371 
L 221.994568 493.321661 
L 224.126608 556.705078 
L 233.265854 556.705078 
L 234.179143 437.253516 
L 235.09349 437.253516 
L 236.008995 556.705078 
L 241.794546 556.705078 
L 242.708575 437.253516 
L 248.191792 437.253516 
L 249.106006 556.705078 
L 250.019998 437.253516 
L 252.760997 437.253516 
L 253.675317 556.705078 
L 254.588966 437.253516 
L 260.986517 437.253516 
L 261.900418 443.812065 
L 262.814417 457.708855 
L 263.727731 467.272514 
L 265.555745 480.801522 
L 266.469301 485.032498 
L 267.383239 487.668171 
L 268.296996 489.938343 
L 269.210732 491.909445 
L 270.1247 493.04794 
L 271.038916 493.90296 
L 271.953265 519.374653 
L 272.866808 556.705078 
L 282.91869 556.705078 
L 283.832668 437.253516 
L 284.746211 556.705078 
L 286.574264 556.705078 
L 287.793022 492.243987 
L 289.011766 556.705078 
L 295.104148 556.705078 
L 296.019829 437.253516 
L 315.209651 437.253516 
L 316.123323 440.672173 
L 317.036755 454.080613 
L 318.864817 475.288688 
L 319.779582 481.037726 
L 320.692527 483.630204 
L 321.60622 487.316859 
L 322.520069 490.112365 
L 323.434224 491.474547 
L 324.347851 516.729951 
L 325.261501 556.705078 
L 336.837135 556.705078 
L 337.751012 437.253516 
L 338.665086 437.253516 
L 339.579451 556.705078 
L 345.978027 556.705078 
L 347.196427 437.253516 
L 365.472529 437.253516 
L 366.386254 443.375196 
L 367.304425 451.765281 
L 369.131813 478.542466 
L 370.044953 481.301124 
L 371.264323 483.420935 
L 372.17721 490.456563 
L 373.091639 490.689428 
L 374.005078 490.596076 
L 374.91891 493.834536 
L 375.833293 509.124923 
L 376.747078 556.705078 
L 387.103762 556.705078 
L 388.017845 437.253516 
L 388.931913 556.705078 
L 390.759377 556.705078 
L 391.978024 551.725869 
L 392.892226 437.253516 
L 393.806203 556.705078 
L 398.375141 556.705078 
L 399.288839 437.253516 
L 417.566041 437.253516 
L 418.480143 442.887749 
L 419.393838 456.346189 
L 421.222313 475.777463 
L 422.135489 482.005435 
L 424.878659 490.368917 
L 425.791174 491.870806 
L 426.70503 492.74737 
L 427.618908 520.544434 
L 428.532677 556.705078 
L 438.585277 556.705078 
L 439.4997 437.253516 
L 440.413149 556.705078 
L 447.117118 556.705078 
L 448.028486 437.253516 
L 453.511382 437.253516 
L 454.425445 556.705078 
L 456.253389 556.705078 
L 457.167139 437.253516 
L 468.135437 437.253516 
L 469.048653 445.956505 
L 469.961695 556.705078 
L 472.703636 556.705078 
L 472.703636 556.705078 
" clip-path="url(#p6fee2e7350)" style="fill: none; stroke: #1f77b4; stroke-width: 1.5; stroke-linecap: square"/>
   </g>
   <g id="line2d_68">
    <path d="M 42.28 556.705078 
L 493.2 556.705078 
" clip-path="url(#p6fee2e7350)" style="fill: none; stroke-dasharray: 3.7,1.6; stroke-dashoffset: 0; stroke: #ff0000"/>
   </g>
   <g id="line2d_69">
    <path d="M 42.28 437.253516 
L 493.2 437.253516 
" clip-path="url(#p6fee2e7350)" style="fill: none; stroke-dasharray: 3.7,1.6; stroke-dashoffset: 0; stroke: #ff0000"/>
   </g>
   <g id="patch_15">
    <path d="M 42.28 562.677656 
L 42.28 431.280937 
" style="fill: none; stroke: #000000; stroke-width: 0.8; stroke-linejoin: miter; stroke-linecap: square"/>
   </g>
   <g id="patch_16">
    <path d="M 493.2 562.677656 
L 493.2 431.280937 
" style="fill: none; stroke: #000000; stroke-width: 0.8; stroke-linejoin: miter; stroke-linecap: square"/>
   </g>
   <g id="patch_17">
    <path d="M 42.28 562.677656 
L 493.2 562.677656 
" style="fill: none; stroke: #000000; stroke-width: 0.8; stroke-linejoin: miter; stroke-linecap: square"/>
   </g>
   <g id="patch_18">
    <path d="M 42.28 431.280937 
L 493.2 431.280937 
" style="fill: none; stroke: #000000; stroke-width: 0.8; stroke-linejoin: miter; stroke-linecap: square"/>
   </g>
   <g id="text_37">
    <!-- $a_{x,cmd}$ $\left(\mathrm{m/s^2}\right)$ -->
    <g transform="translate(229.7 425.280937) scale(0.12 -0.12)">
     <defs>
      <path id="DejaVuSans-Oblique-44" d="M 3438 1997 
L 3047 0 
L 2472 0 
L 2578 531 
Q 2325 219 2001 64 
Q 1678 -91 1281 -91 
Q 834 -91 548 182 
Q 263 456 263 884 
Q 263 1497 752 1853 
Q 1241 2209 2100 2209 
L 2900 2209 
L 2931 2363 
Q 2938 2388 2941 2417 
Q 2944 2447 2944 2509 
Q 2944 2788 2717 2942 
Q 2491 3097 2081 3097 
Q 1800 3097 1504 3025 
Q 1209 2953 897 2809 
L 997 3341 
Q 1322 3463 1633 3523 
Q 1944 3584 2234 3584 
Q 2853 3584 3176 3315 
Q 3500 3047 3500 2534 
Q 3500 2431 3484 2292 
Q 3469 2153 3438 1997 
z
M 2816 1759 
L 2241 1759 
Q 1534 1759 1195 1570 
Q 856 1381 856 984 
Q 856 709 1029 553 
Q 1203 397 1509 397 
Q 1978 397 2328 733 
Q 2678 1069 2791 1631 
L 2816 1759 
z
" transform="scale(0.015625)"/>
      <path id="STIXSizeOneSym-Regular-4" d="M 2445 -858 
L 2445 -1050 
Q 1728 -371 1309 630 
Q 890 1632 890 2886 
Q 890 4122 1309 5136 
Q 1728 6150 2445 6822 
L 2445 6630 
Q 1408 5363 1408 2886 
Q 1408 410 2445 -858 
z
" transform="scale(0.015625)"/>
      <path id="STIXSizeOneSym-Regular-5" d="M 550 6630 
L 550 6822 
Q 1267 6144 1686 5142 
Q 2106 4141 2106 2886 
Q 2106 1651 1686 636 
Q 1267 -378 550 -1050 
L 550 -858 
Q 1587 410 1587 2886 
Q 1587 5363 550 6630 
z
" transform="scale(0.015625)"/>
     </defs>
     <use xlink:href="#DejaVuSans-Oblique-44" transform="translate(0 0.746875)"/>
     <use xlink:href="#DejaVuSans-Oblique-5b" transform="translate(61.279297 -14.253076) scale(0.7)"/>
     <use xlink:href="#DejaVuSans-f" transform="translate(102.705078 -14.253076) scale(0.7)"/>
     <use xlink:href="#DejaVuSans-Oblique-46" transform="translate(138.59375 -14.253076) scale(0.7)"/>
     <use xlink:href="#DejaVuSans-Oblique-50" transform="translate(177.080078 -14.253076) scale(0.7)"/>
     <use xlink:href="#DejaVuSans-Oblique-47" transform="translate(245.268555 -14.253076) scale(0.7)"/>
     <use xlink:href="#DejaVuSans-3" transform="translate(292.436523 0.746875)"/>
     <use xlink:href="#STIXSizeOneSym-Regular-4" transform="translate(324.223633 5.1375) scale(0.833613)"/>
     <use xlink:href="#DejaVuSans-50" transform="translate(363.23587 0.746875)"/>
     <use xlink:href="#DejaVuSans-12" transform="translate(460.64798 0.746875)"/>
     <use xlink:href="#DejaVuSans-56" transform="translate(494.339386 0.746875)"/>
     <use xlink:href="#DejaVuSans-15" transform="translate(547.396027 42.046875) scale(0.7)"/>
     <use xlink:href="#STIXSizeOneSym-Regular-5" transform="translate(594.666534 5.1375) scale(0.833613)"/>
    </g>
   </g>
   <g id="legend_3">
    <g id="patch_19">
     <path d="M 49.28 506.880469 
L 144.68 506.880469 
Q 146.68 506.880469 146.68 504.880469 
L 146.68 489.078125 
Q 146.68 487.078125 144.68 487.078125 
L 49.28 487.078125 
Q 47.28 487.078125 47.28 489.078125 
L 47.28 504.880469 
Q 47.28 506.880469 49.28 506.880469 
z
" style="fill: #ffffff; opacity: 0.8; stroke: #cccccc; stroke-linejoin: miter"/>
    </g>
    <g id="line2d_70">
     <path d="M 51.28 496.978125 
L 61.28 496.978125 
L 71.28 496.978125 
" style="fill: none; stroke: #1f77b4; stroke-width: 1.5; stroke-linecap: square"/>
    </g>
    <g id="text_38">
     <!-- $a_{x,cmd}$ $\left(\mathrm{m/s^2}\right)$ -->
     <g transform="translate(79.28 500.478125) scale(0.1 -0.1)">
      <use xlink:href="#DejaVuSans-Oblique-44" transform="translate(0 0.746875)"/>
      <use xlink:href="#DejaVuSans-Oblique-5b" transform="translate(61.279297 -14.253076) scale(0.7)"/>
      <use xlink:href="#DejaVuSans-f" transform="translate(102.705078 -14.253076) scale(0.7)"/>
      <use xlink:href="#DejaVuSans-Oblique-46" transform="translate(138.59375 -14.253076) scale(0.7)"/>
      <use xlink:href="#DejaVuSans-Oblique-50" transform="translate(177.080078 -14.253076) scale(0.7)"/>
      <use xlink:href="#DejaVuSans-Oblique-47" transform="translate(245.268555 -14.253076) scale(0.7)"/>
      <use xlink:href="#DejaVuSans-3" transform="translate(292.436523 0.746875)"/>
      <use xlink:href="#STIXSizeOneSym-Regular-4" transform="translate(324.223633 5.1375) scale(0.833613)"/>
      <use xlink:href="#DejaVuSans-50" transform="translate(363.23587 0.746875)"/>
      <use xlink:href="#DejaVuSans-12" transform="translate(460.64798 0.746875)"/>
      <use xlink:href="#DejaVuSans-56" transform="translate(494.339386 0.746875)"/>
      <use xlink:href="#DejaVuSans-15" transform="translate(547.396027 42.046875) scale(0.7)"/>
      <use xlink:href="#STIXSizeOneSym-Regular-5" transform="translate(594.666534 5.1375) scale(0.833613)"/>
     </g>
    </g>
   </g>
  </g>
  <g id="text_39">
   <!-- QCar2 Controls -->
   <g transform="translate(206.405625 21.214125) scale(0.12 -0.12)">
    <defs>
     <path id="DejaVuSans-34" d="M 2522 4238 
Q 1834 4238 1429 3725 
Q 1025 3213 1025 2328 
Q 1025 1447 1429 934 
Q 1834 422 2522 422 
Q 3209 422 3611 934 
Q 4013 1447 4013 2328 
Q 4013 3213 3611 3725 
Q 3209 4238 2522 4238 
z
M 3406 84 
L 4238 -825 
L 3475 -825 
L 2784 -78 
Q 2681 -84 2626 -87 
Q 2572 -91 2522 -91 
Q 1538 -91 948 567 
Q 359 1225 359 2328 
Q 359 3434 948 4092 
Q 1538 4750 2522 4750 
Q 3503 4750 4090 4092 
Q 4678 3434 4678 2328 
Q 4678 1516 4351 937 
Q 4025 359 3406 84 
z
" transform="scale(0.015625)"/>
     <path id="DejaVuSans-26" d="M 4122 4306 
L 4122 3641 
Q 3803 3938 3442 4084 
Q 3081 4231 2675 4231 
Q 1875 4231 1450 3742 
Q 1025 3253 1025 2328 
Q 1025 1406 1450 917 
Q 1875 428 2675 428 
Q 3081 428 3442 575 
Q 3803 722 4122 1019 
L 4122 359 
Q 3791 134 3420 21 
Q 3050 -91 2638 -91 
Q 1578 -91 968 557 
Q 359 1206 359 2328 
Q 359 3453 968 4101 
Q 1578 4750 2638 4750 
Q 3056 4750 3426 4639 
Q 3797 4528 4122 4306 
z
" transform="scale(0.015625)"/>
     <path id="DejaVuSans-52" d="M 1959 3097 
Q 1497 3097 1228 2736 
Q 959 2375 959 1747 
Q 959 1119 1226 758 
Q 1494 397 1959 397 
Q 2419 397 2687 759 
Q 2956 1122 2956 1747 
Q 2956 2369 2687 2733 
Q 2419 3097 1959 3097 
z
M 1959 3584 
Q 2709 3584 3137 3096 
Q 3566 2609 3566 1747 
Q 3566 888 3137 398 
Q 2709 -91 1959 -91 
Q 1206 -91 779 398 
Q 353 888 353 1747 
Q 353 2609 779 3096 
Q 1206 3584 1959 3584 
z
" transform="scale(0.015625)"/>
     <path id="DejaVuSans-51" d="M 3513 2113 
L 3513 0 
L 2938 0 
L 2938 2094 
Q 2938 2591 2744 2837 
Q 2550 3084 2163 3084 
Q 1697 3084 1428 2787 
Q 1159 2491 1159 1978 
L 1159 0 
L 581 0 
L 581 3500 
L 1159 3500 
L 1159 2956 
Q 1366 3272 1645 3428 
Q 1925 3584 2291 3584 
Q 2894 3584 3203 3211 
Q 3513 2838 3513 2113 
z
" transform="scale(0.015625)"/>
     <path id="DejaVuSans-4f" d="M 603 4863 
L 1178 4863 
L 1178 0 
L 603 0 
L 603 4863 
z
" transform="scale(0.015625)"/>
    </defs>
    <use xlink:href="#DejaVuSans-34"/>
    <use xlink:href="#DejaVuSans-26" transform="translate(78.71875 0)"/>
    <use xlink:href="#DejaVuSans-44" transform="translate(148.546875 0)"/>
    <use xlink:href="#DejaVuSans-55" transform="translate(209.828125 0)"/>
    <use xlink:href="#DejaVuSans-15" transform="translate(250.9375 0)"/>
    <use xlink:href="#DejaVuSans-3" transform="translate(314.5625 0)"/>
    <use xlink:href="#DejaVuSans-26" transform="translate(346.34375 0)"/>
    <use xlink:href="#DejaVuSans-52" transform="translate(416.171875 0)"/>
    <use xlink:href="#DejaVuSans-51" transform="translate(477.359375 0)"/>
    <use xlink:href="#DejaVuSans-57" transform="translate(540.734375 0)"/>
    <use xlink:href="#DejaVuSans-55" transform="translate(579.9375 0)"/>
    <use xlink:href="#DejaVuSans-52" transform="translate(618.84375 0)"/>
    <use xlink:href="#DejaVuSans-4f" transform="translate(680.03125 0)"/>
    <use xlink:href="#DejaVuSans-56" transform="translate(707.8125 0)"/>
   </g>
  </g>
 </g>
 <defs>
  <clipPath id="pe67e3ea8e0">
   <rect x="42.28" y="49.202812" width="450.92" height="131.396719"/>
  </clipPath>
  <clipPath id="p98149d53dd">
   <rect x="42.28" y="240.241875" width="450.92" height="131.396719"/>
  </clipPath>
  <clipPath id="p6fee2e7350">
   <rect x="42.28" y="431.280937" width="450.92" height="131.396719"/>
  </clipPath>
 </defs>
</svg>
