<?xml version="1.0" encoding="utf-8" standalone="no"?>
<!DOCTYPE svg PUBLIC "-//W3C//DTD SVG 1.1//EN"
  "http://www.w3.org/Graphics/SVG/1.1/DTD/svg11.dtd">
<svg xmlns:xlink="http://www.w3.org/1999/xlink" width="504pt" height="403.2pt" viewBox="0 0 504 403.2" xmlns="http://www.w3.org/2000/svg" version="1.1">
 <metadata>
  <rdf:RDF xmlns:dc="http://purl.org/dc/elements/1.1/" xmlns:cc="http://creativecommons.org/ns#" xmlns:rdf="http://www.w3.org/1999/02/22-rdf-syntax-ns#">
   <cc:Work>
    <dc:type rdf:resource="http://purl.org/dc/dcmitype/StillImage"/>
    <dc:date>2026-07-10T12:52:46.955348</dc:date>
    <dc:format>image/svg+xml</dc:format>
    <dc:creator>
     <cc:Agent>
      <dc:title>Matplotlib v3.11.0, https://matplotlib.org/</dc:title>
     </cc:Agent>
    </dc:creator>
   </cc:Work>
  </rdf:RDF>
 </metadata>
 <defs>
  <style type="text/css">*{stroke-linejoin: round; stroke-linecap: butt}</style>
 </defs>
 <g id="figure_1">
  <g id="patch_1">
   <path d="M 0 403.2 
L 504 403.2 
L 504 0 
L 0 0 
z
" style="fill: #ffffff"/>
  </g>
  <g id="axes_1">
   <g id="patch_2">
    <path d="M 42.28 175.197656 
L 493.2 175.197656 
L 493.2 48.96 
L 42.28 48.96 
z
" style="fill: #ffffff"/>
   </g>
   <g id="matplotlib.axis_1">
    <g id="xtick_1">
     <g id="line2d_1">
      <path d="M 62.77636 175.197656 
L 62.77636 48.96 
" clip-path="url(#p6d3fbae8e0)" style="fill: none; stroke: #b0b0b0; stroke-width: 0.8; stroke-linecap: square"/>
     </g>
     <g id="line2d_2">
      <defs>
       <path id="mffd3967ad0" d="M 0 0 
L 0 3.5 
" style="stroke: #000000; stroke-width: 0.8"/>
      </defs>
      <g>
       <use xlink:href="#mffd3967ad0" x="62.77636" y="175.197656" style="stroke: #000000; stroke-width: 0.8"/>
      </g>
     </g>
     <g id="text_1">
      <!-- 0 -->
      <g transform="translate(59.59511 189.795312) scale(0.1 -0.1)">
       <defs>
        <path id="DejaVuSans-13" d="M 2034 4250 
Q 1547 4250 1301 3770 
Q 1056 3291 1056 2328 
Q 1056 1369 1301 889 
Q 1547 409 2034 409 
Q 2525 409 2770 889 
Q 3016 1369 3016 2328 
Q 3016 3291 2770 3770 
Q 2525 4250 2034 4250 
z
M 2034 4750 
Q 2819 4750 3233 4129 
Q 3647 3509 3647 2328 
Q 3647 1150 3233 529 
Q 2819 -91 2034 -91 
Q 1250 -91 836 529 
Q 422 1150 422 2328 
Q 422 3509 836 4129 
Q 1250 4750 2034 4750 
z
" transform="scale(0.015625)"/>
       </defs>
       <use xlink:href="#DejaVuSans-13"/>
      </g>
     </g>
    </g>
    <g id="xtick_2">
     <g id="line2d_3">
      <path d="M 154.163137 175.197656 
L 154.163137 48.96 
" clip-path="url(#p6d3fbae8e0)" style="fill: none; stroke: #b0b0b0; stroke-width: 0.8; stroke-linecap: square"/>
     </g>
     <g id="line2d_4">
      <g>
       <use xlink:href="#mffd3967ad0" x="154.163137" y="175.197656" style="stroke: #000000; stroke-width: 0.8"/>
      </g>
     </g>
     <g id="text_2">
      <!-- 10 -->
      <g transform="translate(147.800637 189.795312) scale(0.1 -0.1)">
       <defs>
        <path id="DejaVuSans-14" d="M 794 531 
L 1825 531 
L 1825 4091 
L 703 3866 
L 703 4441 
L 1819 4666 
L 2450 4666 
L 2450 531 
L 3481 531 
L 3481 0 
L 794 0 
L 794 531 
z
" transform="scale(0.015625)"/>
       </defs>
       <use xlink:href="#DejaVuSans-14"/>
       <use xlink:href="#DejaVuSans-13" transform="translate(63.625 0)"/>
      </g>
     </g>
    </g>
    <g id="xtick_3">
     <g id="line2d_5">
      <path d="M 245.549914 175.197656 
L 245.549914 48.96 
" clip-path="url(#p6d3fbae8e0)" style="fill: none; stroke: #b0b0b0; stroke-width: 0.8; stroke-linecap: square"/>
     </g>
     <g id="line2d_6">
      <g>
       <use xlink:href="#mffd3967ad0" x="245.549914" y="175.197656" style="stroke: #000000; stroke-width: 0.8"/>
      </g>
     </g>
     <g id="text_3">
      <!-- 20 -->
      <g transform="translate(239.187414 189.795312) scale(0.1 -0.1)">
       <defs>
        <path id="DejaVuSans-15" d="M 1228 531 
L 3431 531 
L 3431 0 
L 469 0 
L 469 531 
Q 828 903 1448 1529 
Q 2069 2156 2228 2338 
Q 2531 2678 2651 2914 
Q 2772 3150 2772 3378 
Q 2772 3750 2511 3984 
Q 2250 4219 1831 4219 
Q 1534 4219 1204 4116 
Q 875 4013 500 3803 
L 500 4441 
Q 881 4594 1212 4672 
Q 1544 4750 1819 4750 
Q 2544 4750 2975 4387 
Q 3406 4025 3406 3419 
Q 3406 3131 3298 2873 
Q 3191 2616 2906 2266 
Q 2828 2175 2409 1742 
Q 1991 1309 1228 531 
z
" transform="scale(0.015625)"/>
       </defs>
       <use xlink:href="#DejaVuSans-15"/>
       <use xlink:href="#DejaVuSans-13" transform="translate(63.625 0)"/>
      </g>
     </g>
    </g>
    <g id="xtick_4">
     <g id="line2d_7">
      <path d="M 336.936691 175.197656 
L 336.936691 48.96 
" clip-path="url(#p6d3fbae8e0)" style="fill: none; stroke: #b0b0b0; stroke-width: 0.8; stroke-linecap: square"/>
     </g>
     <g id="line2d_8">
      <g>
       <use xlink:href="#mffd3967ad0" x="336.936691" y="175.197656" style="stroke: #000000; stroke-width: 0.8"/>
      </g>
     </g>
     <g id="text_4">
      <!-- 30 -->
      <g transform="translate(330.574191 189.795312) scale(0.1 -0.1)">
       <defs>
        <path id="DejaVuSans-16" d="M 2597 2516 
Q 3050 2419 3304 2112 
Q 3559 1806 3559 1356 
Q 3559 666 3084 287 
Q 2609 -91 1734 -91 
Q 1441 -91 1130 -33 
Q 819 25 488 141 
L 488 750 
Q 750 597 1062 519 
Q 1375 441 1716 441 
Q 2309 441 2620 675 
Q 2931 909 2931 1356 
Q 2931 1769 2642 2001 
Q 2353 2234 1838 2234 
L 1294 2234 
L 1294 2753 
L 1863 2753 
Q 2328 2753 2575 2939 
Q 2822 3125 2822 3475 
Q 2822 3834 2567 4026 
Q 2313 4219 1838 4219 
Q 1578 4219 1281 4162 
Q 984 4106 628 3988 
L 628 4550 
Q 988 4650 1302 4700 
Q 1616 4750 1894 4750 
Q 2613 4750 3031 4423 
Q 3450 4097 3450 3541 
Q 3450 3153 3228 2886 
Q 3006 2619 2597 2516 
z
" transform="scale(0.015625)"/>
       </defs>
       <use xlink:href="#DejaVuSans-16"/>
       <use xlink:href="#DejaVuSans-13" transform="translate(63.625 0)"/>
      </g>
     </g>
    </g>
    <g id="xtick_5">
     <g id="line2d_9">
      <path d="M 428.323468 175.197656 
L 428.323468 48.96 
" clip-path="url(#p6d3fbae8e0)" style="fill: none; stroke: #b0b0b0; stroke-width: 0.8; stroke-linecap: square"/>
     </g>
     <g id="line2d_10">
      <g>
       <use xlink:href="#mffd3967ad0" x="428.323468" y="175.197656" style="stroke: #000000; stroke-width: 0.8"/>
      </g>
     </g>
     <g id="text_5">
      <!-- 40 -->
      <g transform="translate(421.960968 189.795312) scale(0.1 -0.1)">
       <defs>
        <path id="DejaVuSans-17" d="M 2419 4116 
L 825 1625 
L 2419 1625 
L 2419 4116 
z
M 2253 4666 
L 3047 4666 
L 3047 1625 
L 3713 1625 
L 3713 1100 
L 3047 1100 
L 3047 0 
L 2419 0 
L 2419 1100 
L 313 1100 
L 313 1709 
L 2253 4666 
z
" transform="scale(0.015625)"/>
       </defs>
       <use xlink:href="#DejaVuSans-17"/>
       <use xlink:href="#DejaVuSans-13" transform="translate(63.625 0)"/>
      </g>
     </g>
    </g>
    <g id="text_6">
     <!-- t (s) -->
     <g transform="translate(257.684531 203.795312) scale(0.1 -0.1)">
      <defs>
       <path id="DejaVuSans-57" d="M 1172 4494 
L 1172 3500 
L 2356 3500 
L 2356 3053 
L 1172 3053 
L 1172 1153 
Q 1172 725 1289 603 
Q 1406 481 1766 481 
L 2356 481 
L 2356 0 
L 1766 0 
Q 1100 0 847 248 
Q 594 497 594 1153 
L 594 3053 
L 172 3053 
L 172 3500 
L 594 3500 
L 594 4494 
L 1172 4494 
z
" transform="scale(0.015625)"/>
       <path id="DejaVuSans-3" transform="scale(0.015625)"/>
       <path id="DejaVuSans-b" d="M 1984 4856 
Q 1566 4138 1362 3434 
Q 1159 2731 1159 2009 
Q 1159 1288 1364 580 
Q 1569 -128 1984 -844 
L 1484 -844 
Q 1016 -109 783 600 
Q 550 1309 550 2009 
Q 550 2706 781 3412 
Q 1013 4119 1484 4856 
L 1984 4856 
z
" transform="scale(0.015625)"/>
       <path id="DejaVuSans-56" d="M 2834 3397 
L 2834 2853 
Q 2591 2978 2328 3040 
Q 2066 3103 1784 3103 
Q 1356 3103 1142 2972 
Q 928 2841 928 2578 
Q 928 2378 1081 2264 
Q 1234 2150 1697 2047 
L 1894 2003 
Q 2506 1872 2764 1633 
Q 3022 1394 3022 966 
Q 3022 478 2636 193 
Q 2250 -91 1575 -91 
Q 1294 -91 989 -36 
Q 684 19 347 128 
L 347 722 
Q 666 556 975 473 
Q 1284 391 1588 391 
Q 1994 391 2212 530 
Q 2431 669 2431 922 
Q 2431 1156 2273 1281 
Q 2116 1406 1581 1522 
L 1381 1569 
Q 847 1681 609 1914 
Q 372 2147 372 2553 
Q 372 3047 722 3315 
Q 1072 3584 1716 3584 
Q 2034 3584 2315 3537 
Q 2597 3491 2834 3397 
z
" transform="scale(0.015625)"/>
       <path id="DejaVuSans-c" d="M 513 4856 
L 1013 4856 
Q 1481 4119 1714 3412 
Q 1947 2706 1947 2009 
Q 1947 1309 1714 600 
Q 1481 -109 1013 -844 
L 513 -844 
Q 928 -128 1133 580 
Q 1338 1288 1338 2009 
Q 1338 2731 1133 3434 
Q 928 4138 513 4856 
z
" transform="scale(0.015625)"/>
      </defs>
      <use xlink:href="#DejaVuSans-57"/>
      <use xlink:href="#DejaVuSans-3" transform="translate(39.203125 0)"/>
      <use xlink:href="#DejaVuSans-b" transform="translate(70.984375 0)"/>
      <use xlink:href="#DejaVuSans-56" transform="translate(110 0)"/>
      <use xlink:href="#DejaVuSans-c" transform="translate(162.09375 0)"/>
     </g>
    </g>
   </g>
   <g id="matplotlib.axis_2">
    <g id="ytick_1">
     <g id="line2d_11">
      <path d="M 42.28 155.914392 
L 493.2 155.914392 
" clip-path="url(#p6d3fbae8e0)" style="fill: none; stroke: #b0b0b0; stroke-width: 0.8; stroke-linecap: square"/>
     </g>
     <g id="line2d_12">
      <defs>
       <path id="mce066c7610" d="M 0 0 
L -3.5 0 
" style="stroke: #000000; stroke-width: 0.8"/>
      </defs>
      <g>
       <use xlink:href="#mce066c7610" x="42.28" y="155.914392" style="stroke: #000000; stroke-width: 0.8"/>
      </g>
     </g>
     <g id="text_7">
      <!-- −0.4 -->
      <g transform="translate(10.997188 159.71322) scale(0.1 -0.1)">
       <defs>
        <path id="DejaVuSans-c9c" d="M 678 2272 
L 4684 2272 
L 4684 1741 
L 678 1741 
L 678 2272 
z
" transform="scale(0.015625)"/>
        <path id="DejaVuSans-11" d="M 684 794 
L 1344 794 
L 1344 0 
L 684 0 
L 684 794 
z
" transform="scale(0.015625)"/>
       </defs>
       <use xlink:href="#DejaVuSans-c9c"/>
       <use xlink:href="#DejaVuSans-13" transform="translate(83.796875 0)"/>
       <use xlink:href="#DejaVuSans-11" transform="translate(147.421875 0)"/>
       <use xlink:href="#DejaVuSans-17" transform="translate(179.203125 0)"/>
      </g>
     </g>
    </g>
    <g id="ytick_2">
     <g id="line2d_13">
      <path d="M 42.28 133.99661 
L 493.2 133.99661 
" clip-path="url(#p6d3fbae8e0)" style="fill: none; stroke: #b0b0b0; stroke-width: 0.8; stroke-linecap: square"/>
     </g>
     <g id="line2d_14">
      <g>
       <use xlink:href="#mce066c7610" x="42.28" y="133.99661" style="stroke: #000000; stroke-width: 0.8"/>
      </g>
     </g>
     <g id="text_8">
      <!-- −0.2 -->
      <g transform="translate(10.997188 137.795438) scale(0.1 -0.1)">
       <use xlink:href="#DejaVuSans-c9c"/>
       <use xlink:href="#DejaVuSans-13" transform="translate(83.796875 0)"/>
       <use xlink:href="#DejaVuSans-11" transform="translate(147.421875 0)"/>
       <use xlink:href="#DejaVuSans-15" transform="translate(179.203125 0)"/>
      </g>
     </g>
    </g>
    <g id="ytick_3">
     <g id="line2d_15">
      <path d="M 42.28 112.078828 
L 493.2 112.078828 
" clip-path="url(#p6d3fbae8e0)" style="fill: none; stroke: #b0b0b0; stroke-width: 0.8; stroke-linecap: square"/>
     </g>
     <g id="line2d_16">
      <g>
       <use xlink:href="#mce066c7610" x="42.28" y="112.078828" style="stroke: #000000; stroke-width: 0.8"/>
      </g>
     </g>
     <g id="text_9">
      <!-- 0.0 -->
      <g transform="translate(19.376875 115.877656) scale(0.1 -0.1)">
       <use xlink:href="#DejaVuSans-13"/>
       <use xlink:href="#DejaVuSans-11" transform="translate(63.625 0)"/>
       <use xlink:href="#DejaVuSans-13" transform="translate(95.40625 0)"/>
      </g>
     </g>
    </g>
    <g id="ytick_4">
     <g id="line2d_17">
      <path d="M 42.28 90.161046 
L 493.2 90.161046 
" clip-path="url(#p6d3fbae8e0)" style="fill: none; stroke: #b0b0b0; stroke-width: 0.8; stroke-linecap: square"/>
     </g>
     <g id="line2d_18">
      <g>
       <use xlink:href="#mce066c7610" x="42.28" y="90.161046" style="stroke: #000000; stroke-width: 0.8"/>
      </g>
     </g>
     <g id="text_10">
      <!-- 0.2 -->
      <g transform="translate(19.376875 93.959874) scale(0.1 -0.1)">
       <use xlink:href="#DejaVuSans-13"/>
       <use xlink:href="#DejaVuSans-11" transform="translate(63.625 0)"/>
       <use xlink:href="#DejaVuSans-15" transform="translate(95.40625 0)"/>
      </g>
     </g>
    </g>
    <g id="ytick_5">
     <g id="line2d_19">
      <path d="M 42.28 68.243264 
L 493.2 68.243264 
" clip-path="url(#p6d3fbae8e0)" style="fill: none; stroke: #b0b0b0; stroke-width: 0.8; stroke-linecap: square"/>
     </g>
     <g id="line2d_20">
      <g>
       <use xlink:href="#mce066c7610" x="42.28" y="68.243264" style="stroke: #000000; stroke-width: 0.8"/>
      </g>
     </g>
     <g id="text_11">
      <!-- 0.4 -->
      <g transform="translate(19.376875 72.042093) scale(0.1 -0.1)">
       <use xlink:href="#DejaVuSans-13"/>
       <use xlink:href="#DejaVuSans-11" transform="translate(63.625 0)"/>
       <use xlink:href="#DejaVuSans-17" transform="translate(95.40625 0)"/>
      </g>
     </g>
    </g>
   </g>
   <g id="line2d_21">
    <path d="M 62.776364 112.078828 
L 75.479126 112.079101 
L 115.680174 112.078839 
L 116.594192 118.997563 
L 117.508081 123.5026 
L 118.421647 120.826972 
L 119.335677 127.914013 
L 120.250486 159.332946 
L 121.163877 169.459581 
L 122.991609 169.459581 
L 123.906416 55.197874 
L 124.819243 54.698075 
L 125.732759 54.698075 
L 126.646695 169.459581 
L 129.388346 169.459581 
L 130.302182 167.100375 
L 131.520325 54.698075 
L 145.22854 54.698075 
L 146.143007 169.459581 
L 147.057027 169.459581 
L 147.970303 137.631983 
L 148.884535 54.698075 
L 149.798711 89.816835 
L 150.712117 169.459581 
L 152.54028 169.459581 
L 153.453818 127.445435 
L 154.368182 103.432314 
L 155.281779 122.647211 
L 156.195073 150.582484 
L 157.10911 153.877237 
L 158.023548 133.68032 
L 158.937123 108.181019 
L 159.85096 98.886579 
L 160.764689 108.715355 
L 161.678406 123.461492 
L 162.592736 128.09879 
L 163.506097 120.32103 
L 164.419924 108.683724 
L 165.334312 103.092169 
L 166.24798 106.115671 
L 167.161709 113.208224 
L 168.076063 118.019436 
L 168.989398 117.555577 
L 169.903245 113.41275 
L 170.8177 110.724496 
L 171.731656 114.789466 
L 172.645513 123.241105 
L 173.559121 128.524447 
L 175.386569 167.512091 
L 176.30094 169.459581 
L 177.215655 132.427587 
L 178.128693 68.50569 
L 179.042163 59.587799 
L 179.956424 155.699386 
L 180.870291 169.459581 
L 182.698933 169.459581 
L 183.611517 54.698075 
L 186.353286 54.698075 
L 187.571668 169.459581 
L 190.008704 169.459581 
L 190.922882 54.698075 
L 200.061532 54.698075 
L 200.975892 80.41807 
L 201.888712 169.459581 
L 202.803332 169.459581 
L 203.71825 141.156424 
L 204.631013 72.219335 
L 205.544754 92.369561 
L 206.458695 169.459581 
L 207.372646 169.459581 
L 208.286047 149.858491 
L 209.19992 122.348539 
L 210.114015 117.242976 
L 211.028821 130.977374 
L 211.941805 141.628286 
L 212.855405 137.980385 
L 214.683065 109.460837 
L 215.597269 104.689392 
L 216.510658 109.245508 
L 217.424608 116.582006 
L 218.338293 120.064291 
L 219.252409 117.792781 
L 220.166535 112.547864 
L 221.080869 108.595712 
L 221.994568 108.274195 
L 222.907967 106.879682 
L 224.126608 101.129223 
L 225.040366 100.124189 
L 226.868665 58.381859 
L 227.781762 54.698075 
L 228.695638 79.104741 
L 229.610052 148.725271 
L 230.523883 169.459581 
L 231.437267 107.188931 
L 232.35158 54.698075 
L 235.09349 54.698075 
L 236.008995 169.459581 
L 247.278035 169.459581 
L 248.191792 54.698075 
L 249.106006 54.698075 
L 250.019998 63.168636 
L 250.933832 118.990539 
L 251.847468 148.730697 
L 252.760997 94.043355 
L 253.675317 54.698075 
L 254.588966 54.698075 
L 255.502495 74.817476 
L 256.41712 101.219799 
L 257.33058 113.871356 
L 258.244361 108.741828 
L 259.158551 97.906031 
L 260.072825 94.619872 
L 260.986517 101.728309 
L 261.900418 112.577516 
L 262.814417 118.552869 
L 263.727731 116.824681 
L 264.641959 111.030414 
L 265.555745 106.7737 
L 266.469301 106.967834 
L 268.296996 114.109316 
L 269.210732 115.293082 
L 270.1247 113.862628 
L 271.038916 111.494736 
L 271.953265 113.669052 
L 272.866808 120.710132 
L 273.780199 125.671075 
L 274.694808 135.985248 
L 275.607783 155.318372 
L 276.522264 169.001725 
L 277.436316 161.06862 
L 278.349562 103.709077 
L 279.265327 56.97746 
L 280.177643 79.277373 
L 281.091176 169.459581 
L 283.832668 169.459581 
L 284.746211 54.698075 
L 286.574264 54.698075 
L 287.793022 69.461252 
L 289.011766 169.459581 
L 290.230279 169.459581 
L 291.448804 54.698075 
L 301.500985 54.698075 
L 302.414832 169.459581 
L 304.242926 169.459581 
L 305.156597 69.638342 
L 306.070378 59.057476 
L 306.984406 169.459581 
L 307.897946 169.459581 
L 308.811682 166.850989 
L 309.72562 131.003304 
L 310.639995 110.121971 
L 311.553605 121.517122 
L 312.46735 141.735463 
L 313.38124 146.26468 
L 314.294977 132.977316 
L 315.209651 113.229382 
L 316.123323 102.24783 
L 317.036755 105.20427 
L 317.951333 115.270296 
L 318.864817 122.209148 
L 319.779582 121.158516 
L 321.60622 108.211813 
L 322.520069 106.483885 
L 323.434224 109.310348 
L 324.347851 109.980403 
L 326.175281 101.193457 
L 327.089389 89.63175 
L 328.003502 67.844493 
L 328.917091 54.698075 
L 329.830894 59.829836 
L 330.745785 117.732598 
L 331.963307 169.459581 
L 332.876972 169.459581 
L 333.791052 104.782486 
L 335.009821 54.698075 
L 338.665086 54.698075 
L 339.579451 169.459581 
L 351.76413 169.459581 
L 352.678093 54.698075 
L 353.592179 54.698075 
L 354.506521 112.382669 
L 355.42134 161.622113 
L 356.333343 99.898679 
L 357.247625 54.698075 
L 358.161423 54.698075 
L 359.380519 100.197996 
L 360.293848 121.627865 
L 361.207411 99.805453 
L 362.12371 72.666795 
L 363.3409 65.774783 
L 364.560299 92.606249 
L 365.472529 122.607 
L 366.386254 132.237797 
L 367.304425 120.396713 
L 368.218357 102.462712 
L 369.131813 94.523426 
L 370.044953 100.188538 
L 371.264323 117.956418 
L 372.17721 126.247219 
L 373.091639 121.976614 
L 374.005078 111.429865 
L 374.91891 103.702745 
L 375.833293 105.746634 
L 376.747078 100.126604 
L 377.660535 98.160634 
L 378.879256 91.81052 
L 380.706969 55.938989 
L 381.620499 58.771558 
L 383.4494 169.459581 
L 384.363162 155.289165 
L 385.276254 54.698075 
L 388.017845 54.698075 
L 388.931913 169.459581 
L 390.759377 169.459581 
L 391.978024 139.440964 
L 392.892226 69.592904 
L 393.806203 68.743141 
L 394.719534 169.459581 
L 403.858376 169.459581 
L 404.772586 124.319165 
L 405.686528 54.698075 
L 406.600189 54.698075 
L 407.515346 109.717452 
L 408.427296 155.285233 
L 409.341929 100.891717 
L 410.256178 54.698075 
L 411.169131 54.698075 
L 412.083006 83.837305 
L 412.996998 109.370465 
L 413.910889 105.446907 
L 414.824734 86.743053 
L 415.73892 78.600485 
L 416.65213 87.633957 
L 417.566041 105.844835 
L 418.480143 119.16786 
L 419.393838 119.818372 
L 421.222313 103.903907 
L 422.135489 102.795638 
L 423.049969 107.83831 
L 423.963693 114.169118 
L 424.878659 117.133988 
L 425.791174 115.598652 
L 426.70503 111.836567 
L 427.618908 112.981948 
L 428.532677 119.794636 
L 429.446971 125.061045 
L 430.360488 137.226181 
L 431.274623 157.894334 
L 432.188292 169.459581 
L 433.102029 159.838335 
L 434.016364 99.333503 
L 434.929833 55.348017 
L 435.843783 82.676717 
L 436.757475 169.459581 
L 439.4997 169.459581 
L 440.413149 54.698075 
L 452.598389 54.698075 
L 453.511382 169.459581 
L 456.253389 169.459581 
L 457.167139 54.698075 
L 458.081108 54.698075 
L 458.99461 149.854268 
L 459.909045 169.459581 
L 460.823078 169.459581 
L 461.736473 162.49736 
L 462.650469 131.30378 
L 463.564906 104.012633 
L 464.478783 102.859522 
L 465.392469 120.932457 
L 466.30643 134.544881 
L 467.22042 130.554709 
L 468.135437 114.525874 
L 469.048653 102.184524 
L 469.961695 102.644626 
L 470.875607 110.013891 
L 471.789478 114.766081 
L 472.703636 115.385875 
L 472.703636 115.385875 
" clip-path="url(#p6d3fbae8e0)" style="fill: none; stroke: #1f77b4; stroke-width: 1.5; stroke-linecap: square"/>
   </g>
   <g id="line2d_22">
    <path d="M 62.776364 112.078828 
L 472.703636 112.078828 
L 472.703636 112.078828 
" clip-path="url(#p6d3fbae8e0)" style="fill: none; stroke-dasharray: 9.6,2.4,1.5,2.4; stroke-dashoffset: 0; stroke: #ff7f0e; stroke-width: 1.5"/>
   </g>
   <g id="line2d_23">
    <path d="M 42.28 169.459581 
L 493.2 169.459581 
" clip-path="url(#p6d3fbae8e0)" style="fill: none; stroke-dasharray: 3.7,1.6; stroke-dashoffset: 0; stroke: #ff0000"/>
   </g>
   <g id="line2d_24">
    <path d="M 42.28 54.698075 
L 493.2 54.698075 
" clip-path="url(#p6d3fbae8e0)" style="fill: none; stroke-dasharray: 3.7,1.6; stroke-dashoffset: 0; stroke: #ff0000"/>
   </g>
   <g id="patch_3">
    <path d="M 42.28 175.197656 
L 42.28 48.96 
" style="fill: none; stroke: #000000; stroke-width: 0.8; stroke-linejoin: miter; stroke-linecap: square"/>
   </g>
   <g id="patch_4">
    <path d="M 493.2 175.197656 
L 493.2 48.96 
" style="fill: none; stroke: #000000; stroke-width: 0.8; stroke-linejoin: miter; stroke-linecap: square"/>
   </g>
   <g id="patch_5">
    <path d="M 42.28 175.197656 
L 493.2 175.197656 
" style="fill: none; stroke: #000000; stroke-width: 0.8; stroke-linejoin: miter; stroke-linecap: square"/>
   </g>
   <g id="patch_6">
    <path d="M 42.28 48.96 
L 493.2 48.96 
" style="fill: none; stroke: #000000; stroke-width: 0.8; stroke-linejoin: miter; stroke-linecap: square"/>
   </g>
   <g id="text_12">
    <!-- $\delta$ (rad) -->
    <g transform="translate(247.52 42.96) scale(0.12 -0.12)">
     <defs>
      <path id="DejaVuSans-Oblique-348" d="M 3472 4053 
Q 3197 4272 2450 4272 
Q 1659 4272 1588 3906 
Q 1531 3619 2328 3469 
Q 2953 3353 3253 3003 
Q 3616 2581 3447 1716 
Q 3284 888 2763 400 
Q 2238 -91 1488 -91 
Q 741 -91 406 400 
Q 72 888 241 1747 
Q 363 2384 891 2900 
Q 1097 3100 1353 3213 
Q 913 3459 1000 3900 
Q 1166 4750 2544 4750 
Q 3234 4750 3566 4531 
L 3472 4053 
z
M 1753 3056 
Q 1525 2966 1306 2738 
Q 969 2384 847 1747 
Q 722 1113 919 756 
Q 1119 397 1584 397 
Q 2044 397 2381 759 
Q 2722 1122 2838 1716 
Q 2956 2338 2731 2638 
Q 2491 2959 2103 2994 
Q 1906 3013 1753 3056 
z
" transform="scale(0.015625)"/>
      <path id="DejaVuSans-55" d="M 2631 2963 
Q 2534 3019 2420 3045 
Q 2306 3072 2169 3072 
Q 1681 3072 1420 2755 
Q 1159 2438 1159 1844 
L 1159 0 
L 581 0 
L 581 3500 
L 1159 3500 
L 1159 2956 
Q 1341 3275 1631 3429 
Q 1922 3584 2338 3584 
Q 2397 3584 2469 3576 
Q 2541 3569 2628 3553 
L 2631 2963 
z
" transform="scale(0.015625)"/>
      <path id="DejaVuSans-44" d="M 2194 1759 
Q 1497 1759 1228 1600 
Q 959 1441 959 1056 
Q 959 750 1161 570 
Q 1363 391 1709 391 
Q 2188 391 2477 730 
Q 2766 1069 2766 1631 
L 2766 1759 
L 2194 1759 
z
M 3341 1997 
L 3341 0 
L 2766 0 
L 2766 531 
Q 2569 213 2275 61 
Q 1981 -91 1556 -91 
Q 1019 -91 701 211 
Q 384 513 384 1019 
Q 384 1609 779 1909 
Q 1175 2209 1959 2209 
L 2766 2209 
L 2766 2266 
Q 2766 2663 2505 2880 
Q 2244 3097 1772 3097 
Q 1472 3097 1187 3025 
Q 903 2953 641 2809 
L 641 3341 
Q 956 3463 1253 3523 
Q 1550 3584 1831 3584 
Q 2591 3584 2966 3190 
Q 3341 2797 3341 1997 
z
" transform="scale(0.015625)"/>
      <path id="DejaVuSans-47" d="M 2906 2969 
L 2906 4863 
L 3481 4863 
L 3481 0 
L 2906 0 
L 2906 525 
Q 2725 213 2448 61 
Q 2172 -91 1784 -91 
Q 1150 -91 751 415 
Q 353 922 353 1747 
Q 353 2572 751 3078 
Q 1150 3584 1784 3584 
Q 2172 3584 2448 3432 
Q 2725 3281 2906 2969 
z
M 947 1747 
Q 947 1113 1208 752 
Q 1469 391 1925 391 
Q 2381 391 2643 752 
Q 2906 1113 2906 1747 
Q 2906 2381 2643 2742 
Q 2381 3103 1925 3103 
Q 1469 3103 1208 2742 
Q 947 2381 947 1747 
z
" transform="scale(0.015625)"/>
     </defs>
     <use xlink:href="#DejaVuSans-Oblique-348" transform="translate(0 0.015625)"/>
     <use xlink:href="#DejaVuSans-3" transform="translate(61.181641 0.015625)"/>
     <use xlink:href="#DejaVuSans-b" transform="translate(92.96875 0.015625)"/>
     <use xlink:href="#DejaVuSans-55" transform="translate(131.982422 0.015625)"/>
     <use xlink:href="#DejaVuSans-44" transform="translate(173.095703 0.015625)"/>
     <use xlink:href="#DejaVuSans-47" transform="translate(234.375 0.015625)"/>
     <use xlink:href="#DejaVuSans-c" transform="translate(297.851562 0.015625)"/>
    </g>
   </g>
   <g id="legend_1">
    <g id="patch_7">
     <path d="M 49.28 86.961562 
L 102.88 86.961562 
Q 104.88 86.961562 104.88 84.961562 
L 104.88 55.96 
Q 104.88 53.96 102.88 53.96 
L 49.28 53.96 
Q 47.28 53.96 47.28 55.96 
L 47.28 84.961562 
Q 47.28 86.961562 49.28 86.961562 
z
" style="fill: #ffffff; opacity: 0.8; stroke: #cccccc; stroke-linejoin: miter"/>
    </g>
    <g id="line2d_25">
     <path d="M 51.28 62.058437 
L 61.28 62.058437 
L 71.28 62.058437 
" style="fill: none; stroke: #1f77b4; stroke-width: 1.5; stroke-linecap: square"/>
    </g>
    <g id="text_13">
     <!-- $\delta_{cmd}$ -->
     <g transform="translate(79.28 65.558437) scale(0.1 -0.1)">
      <defs>
       <path id="DejaVuSans-Oblique-46" d="M 3431 3366 
L 3316 2797 
Q 3109 2947 2876 3022 
Q 2644 3097 2394 3097 
Q 2119 3097 1870 3000 
Q 1622 2903 1453 2725 
Q 1184 2453 1037 2087 
Q 891 1722 891 1331 
Q 891 859 1127 628 
Q 1363 397 1844 397 
Q 2081 397 2348 469 
Q 2616 541 2906 684 
L 2797 116 
Q 2547 13 2283 -39 
Q 2019 -91 1741 -91 
Q 1044 -91 669 257 
Q 294 606 294 1253 
Q 294 1797 489 2255 
Q 684 2713 1069 3078 
Q 1331 3328 1684 3456 
Q 2038 3584 2456 3584 
Q 2700 3584 2940 3529 
Q 3181 3475 3431 3366 
z
" transform="scale(0.015625)"/>
       <path id="DejaVuSans-Oblique-50" d="M 5747 2113 
L 5338 0 
L 4763 0 
L 5166 2094 
Q 5191 2228 5203 2325 
Q 5216 2422 5216 2491 
Q 5216 2772 5059 2928 
Q 4903 3084 4622 3084 
Q 4203 3084 3875 2770 
Q 3547 2456 3450 1953 
L 3066 0 
L 2491 0 
L 2900 2094 
Q 2925 2209 2937 2307 
Q 2950 2406 2950 2484 
Q 2950 2769 2794 2926 
Q 2638 3084 2363 3084 
Q 1938 3084 1609 2770 
Q 1281 2456 1184 1953 
L 800 0 
L 225 0 
L 909 3500 
L 1484 3500 
L 1375 2956 
Q 1609 3263 1923 3423 
Q 2238 3584 2597 3584 
Q 2978 3584 3223 3384 
Q 3469 3184 3519 2828 
Q 3781 3197 4126 3390 
Q 4472 3584 4856 3584 
Q 5306 3584 5551 3325 
Q 5797 3066 5797 2591 
Q 5797 2488 5784 2364 
Q 5772 2241 5747 2113 
z
" transform="scale(0.015625)"/>
       <path id="DejaVuSans-Oblique-47" d="M 2675 525 
Q 2444 222 2128 65 
Q 1813 -91 1428 -91 
Q 903 -91 598 267 
Q 294 625 294 1247 
Q 294 1766 478 2236 
Q 663 2706 1013 3078 
Q 1244 3325 1534 3454 
Q 1825 3584 2144 3584 
Q 2481 3584 2739 3421 
Q 2997 3259 3138 2956 
L 3513 4863 
L 4091 4863 
L 3144 0 
L 2566 0 
L 2675 525 
z
M 891 1350 
Q 891 897 1095 644 
Q 1300 391 1663 391 
Q 1931 391 2161 520 
Q 2391 650 2566 903 
Q 2750 1166 2856 1509 
Q 2963 1853 2963 2188 
Q 2963 2622 2758 2865 
Q 2553 3109 2194 3109 
Q 1922 3109 1687 2981 
Q 1453 2853 1288 2613 
Q 1106 2353 998 2009 
Q 891 1666 891 1350 
z
" transform="scale(0.015625)"/>
      </defs>
      <use xlink:href="#DejaVuSans-Oblique-348" transform="translate(0 0.78125)"/>
      <use xlink:href="#DejaVuSans-Oblique-46" transform="translate(61.181641 -14.218701) scale(0.7)"/>
      <use xlink:href="#DejaVuSans-Oblique-50" transform="translate(99.667969 -14.218701) scale(0.7)"/>
      <use xlink:href="#DejaVuSans-Oblique-47" transform="translate(167.856445 -14.218701) scale(0.7)"/>
     </g>
    </g>
    <g id="line2d_26">
     <path d="M 51.28 77.059219 
L 61.28 77.059219 
L 71.28 77.059219 
" style="fill: none; stroke-dasharray: 9.6,2.4,1.5,2.4; stroke-dashoffset: 0; stroke: #ff7f0e; stroke-width: 1.5"/>
    </g>
    <g id="text_14">
     <!-- $\delta_{ref}$ -->
     <g transform="translate(79.28 80.559219) scale(0.1 -0.1)">
      <defs>
       <path id="DejaVuSans-Oblique-55" d="M 2853 2969 
Q 2766 3016 2653 3041 
Q 2541 3066 2413 3066 
Q 1953 3066 1609 2717 
Q 1266 2369 1153 1784 
L 800 0 
L 225 0 
L 909 3500 
L 1484 3500 
L 1375 2956 
Q 1603 3259 1920 3421 
Q 2238 3584 2597 3584 
Q 2691 3584 2781 3573 
Q 2872 3563 2963 3538 
L 2853 2969 
z
" transform="scale(0.015625)"/>
       <path id="DejaVuSans-Oblique-48" d="M 3078 2063 
Q 3088 2113 3092 2166 
Q 3097 2219 3097 2272 
Q 3097 2653 2873 2875 
Q 2650 3097 2266 3097 
Q 1838 3097 1509 2826 
Q 1181 2556 1013 2059 
L 3078 2063 
z
M 3578 1613 
L 903 1613 
Q 884 1494 878 1425 
Q 872 1356 872 1306 
Q 872 872 1139 634 
Q 1406 397 1894 397 
Q 2269 397 2603 481 
Q 2938 566 3225 728 
L 3116 159 
Q 2806 34 2476 -28 
Q 2147 -91 1806 -91 
Q 1078 -91 686 257 
Q 294 606 294 1247 
Q 294 1794 489 2264 
Q 684 2734 1063 3103 
Q 1306 3334 1642 3459 
Q 1978 3584 2356 3584 
Q 2950 3584 3301 3228 
Q 3653 2872 3653 2272 
Q 3653 2128 3634 1964 
Q 3616 1800 3578 1613 
z
" transform="scale(0.015625)"/>
       <path id="DejaVuSans-Oblique-49" d="M 3059 4863 
L 2969 4384 
L 2419 4384 
Q 2106 4384 1964 4261 
Q 1822 4138 1753 3809 
L 1691 3500 
L 2638 3500 
L 2553 3053 
L 1606 3053 
L 1013 0 
L 434 0 
L 1031 3053 
L 481 3053 
L 563 3500 
L 1113 3500 
L 1159 3744 
Q 1278 4363 1576 4613 
Q 1875 4863 2516 4863 
L 3059 4863 
z
" transform="scale(0.015625)"/>
      </defs>
      <use xlink:href="#DejaVuSans-Oblique-348" transform="translate(0 0.78125)"/>
      <use xlink:href="#DejaVuSans-Oblique-55" transform="translate(61.181641 -14.218701) scale(0.7)"/>
      <use xlink:href="#DejaVuSans-Oblique-48" transform="translate(89.960938 -14.218701) scale(0.7)"/>
      <use xlink:href="#DejaVuSans-Oblique-49" transform="translate(133.027344 -14.218701) scale(0.7)"/>
     </g>
    </g>
   </g>
  </g>
  <g id="axes_2">
   <g id="patch_8">
    <path d="M 42.28 361.077656 
L 493.2 361.077656 
L 493.2 234.84 
L 42.28 234.84 
z
" style="fill: #ffffff"/>
   </g>
   <g id="matplotlib.axis_3">
    <g id="xtick_6">
     <g id="line2d_27">
      <path d="M 62.77636 361.077656 
L 62.77636 234.84 
" clip-path="url(#peaa14fe7e4)" style="fill: none; stroke: #b0b0b0; stroke-width: 0.8; stroke-linecap: square"/>
     </g>
     <g id="line2d_28">
      <g>
       <use xlink:href="#mffd3967ad0" x="62.77636" y="361.077656" style="stroke: #000000; stroke-width: 0.8"/>
      </g>
     </g>
     <g id="text_15">
      <!-- 0 -->
      <g transform="translate(59.59511 375.675312) scale(0.1 -0.1)">
       <use xlink:href="#DejaVuSans-13"/>
      </g>
     </g>
    </g>
    <g id="xtick_7">
     <g id="line2d_29">
      <path d="M 154.163137 361.077656 
L 154.163137 234.84 
" clip-path="url(#peaa14fe7e4)" style="fill: none; stroke: #b0b0b0; stroke-width: 0.8; stroke-linecap: square"/>
     </g>
     <g id="line2d_30">
      <g>
       <use xlink:href="#mffd3967ad0" x="154.163137" y="361.077656" style="stroke: #000000; stroke-width: 0.8"/>
      </g>
     </g>
     <g id="text_16">
      <!-- 10 -->
      <g transform="translate(147.800637 375.675312) scale(0.1 -0.1)">
       <use xlink:href="#DejaVuSans-14"/>
       <use xlink:href="#DejaVuSans-13" transform="translate(63.625 0)"/>
      </g>
     </g>
    </g>
    <g id="xtick_8">
     <g id="line2d_31">
      <path d="M 245.549914 361.077656 
L 245.549914 234.84 
" clip-path="url(#peaa14fe7e4)" style="fill: none; stroke: #b0b0b0; stroke-width: 0.8; stroke-linecap: square"/>
     </g>
     <g id="line2d_32">
      <g>
       <use xlink:href="#mffd3967ad0" x="245.549914" y="361.077656" style="stroke: #000000; stroke-width: 0.8"/>
      </g>
     </g>
     <g id="text_17">
      <!-- 20 -->
      <g transform="translate(239.187414 375.675312) scale(0.1 -0.1)">
       <use xlink:href="#DejaVuSans-15"/>
       <use xlink:href="#DejaVuSans-13" transform="translate(63.625 0)"/>
      </g>
     </g>
    </g>
    <g id="xtick_9">
     <g id="line2d_33">
      <path d="M 336.936691 361.077656 
L 336.936691 234.84 
" clip-path="url(#peaa14fe7e4)" style="fill: none; stroke: #b0b0b0; stroke-width: 0.8; stroke-linecap: square"/>
     </g>
     <g id="line2d_34">
      <g>
       <use xlink:href="#mffd3967ad0" x="336.936691" y="361.077656" style="stroke: #000000; stroke-width: 0.8"/>
      </g>
     </g>
     <g id="text_18">
      <!-- 30 -->
      <g transform="translate(330.574191 375.675312) scale(0.1 -0.1)">
       <use xlink:href="#DejaVuSans-16"/>
       <use xlink:href="#DejaVuSans-13" transform="translate(63.625 0)"/>
      </g>
     </g>
    </g>
    <g id="xtick_10">
     <g id="line2d_35">
      <path d="M 428.323468 361.077656 
L 428.323468 234.84 
" clip-path="url(#peaa14fe7e4)" style="fill: none; stroke: #b0b0b0; stroke-width: 0.8; stroke-linecap: square"/>
     </g>
     <g id="line2d_36">
      <g>
       <use xlink:href="#mffd3967ad0" x="428.323468" y="361.077656" style="stroke: #000000; stroke-width: 0.8"/>
      </g>
     </g>
     <g id="text_19">
      <!-- 40 -->
      <g transform="translate(421.960968 375.675312) scale(0.1 -0.1)">
       <use xlink:href="#DejaVuSans-17"/>
       <use xlink:href="#DejaVuSans-13" transform="translate(63.625 0)"/>
      </g>
     </g>
    </g>
    <g id="text_20">
     <!-- t (s) -->
     <g transform="translate(257.684531 389.675312) scale(0.1 -0.1)">
      <use xlink:href="#DejaVuSans-57"/>
      <use xlink:href="#DejaVuSans-3" transform="translate(39.203125 0)"/>
      <use xlink:href="#DejaVuSans-b" transform="translate(70.984375 0)"/>
      <use xlink:href="#DejaVuSans-56" transform="translate(110 0)"/>
      <use xlink:href="#DejaVuSans-c" transform="translate(162.09375 0)"/>
     </g>
    </g>
   </g>
   <g id="matplotlib.axis_4">
    <g id="ytick_6">
     <g id="line2d_37">
      <path d="M 42.28 336.212663 
L 493.2 336.212663 
" clip-path="url(#peaa14fe7e4)" style="fill: none; stroke: #b0b0b0; stroke-width: 0.8; stroke-linecap: square"/>
     </g>
     <g id="line2d_38">
      <g>
       <use xlink:href="#mce066c7610" x="42.28" y="336.212663" style="stroke: #000000; stroke-width: 0.8"/>
      </g>
     </g>
     <g id="text_21">
      <!-- −0.2 -->
      <g transform="translate(10.997188 340.011491) scale(0.1 -0.1)">
       <use xlink:href="#DejaVuSans-c9c"/>
       <use xlink:href="#DejaVuSans-13" transform="translate(83.796875 0)"/>
       <use xlink:href="#DejaVuSans-11" transform="translate(147.421875 0)"/>
       <use xlink:href="#DejaVuSans-15" transform="translate(179.203125 0)"/>
      </g>
     </g>
    </g>
    <g id="ytick_7">
     <g id="line2d_39">
      <path d="M 42.28 297.958828 
L 493.2 297.958828 
" clip-path="url(#peaa14fe7e4)" style="fill: none; stroke: #b0b0b0; stroke-width: 0.8; stroke-linecap: square"/>
     </g>
     <g id="line2d_40">
      <g>
       <use xlink:href="#mce066c7610" x="42.28" y="297.958828" style="stroke: #000000; stroke-width: 0.8"/>
      </g>
     </g>
     <g id="text_22">
      <!-- 0.0 -->
      <g transform="translate(19.376875 301.757656) scale(0.1 -0.1)">
       <use xlink:href="#DejaVuSans-13"/>
       <use xlink:href="#DejaVuSans-11" transform="translate(63.625 0)"/>
       <use xlink:href="#DejaVuSans-13" transform="translate(95.40625 0)"/>
      </g>
     </g>
    </g>
    <g id="ytick_8">
     <g id="line2d_41">
      <path d="M 42.28 259.704993 
L 493.2 259.704993 
" clip-path="url(#peaa14fe7e4)" style="fill: none; stroke: #b0b0b0; stroke-width: 0.8; stroke-linecap: square"/>
     </g>
     <g id="line2d_42">
      <g>
       <use xlink:href="#mce066c7610" x="42.28" y="259.704993" style="stroke: #000000; stroke-width: 0.8"/>
      </g>
     </g>
     <g id="text_23">
      <!-- 0.2 -->
      <g transform="translate(19.376875 263.503821) scale(0.1 -0.1)">
       <use xlink:href="#DejaVuSans-13"/>
       <use xlink:href="#DejaVuSans-11" transform="translate(63.625 0)"/>
       <use xlink:href="#DejaVuSans-15" transform="translate(95.40625 0)"/>
      </g>
     </g>
    </g>
   </g>
   <g id="line2d_43">
    <path d="M 62.776364 240.578075 
L 117.508081 240.578075 
L 118.421647 310.68529 
L 119.335677 355.339581 
L 128.47512 355.339581 
L 129.388346 240.578075 
L 130.302182 355.339581 
L 138.831666 355.339581 
L 139.745958 240.578075 
L 163.506097 240.578075 
L 164.419924 251.288617 
L 165.334312 264.267943 
L 166.24798 272.153816 
L 168.076063 283.742866 
L 168.989398 287.366351 
L 169.903245 289.593872 
L 170.8177 300.288746 
L 171.731656 355.339581 
L 181.78413 355.339581 
L 182.698933 240.578075 
L 183.611517 355.339581 
L 186.353286 355.339581 
L 187.571668 240.578075 
L 189.094923 355.339581 
L 190.008704 240.578075 
L 190.922882 355.339581 
L 194.578347 355.339581 
L 195.492401 240.578075 
L 212.855405 240.578075 
L 213.769628 247.502281 
L 215.597269 269.494656 
L 217.424608 281.982702 
L 218.338293 287.291359 
L 219.252409 289.677852 
L 220.166535 291.128132 
L 221.080869 293.178273 
L 221.994568 294.444803 
L 224.126608 355.339581 
L 233.265854 355.339581 
L 234.179143 240.578075 
L 235.09349 240.578075 
L 236.008995 355.339581 
L 241.794546 355.339581 
L 242.708575 240.578075 
L 248.191792 240.578075 
L 249.106006 355.339581 
L 250.019998 240.578075 
L 252.760997 240.578075 
L 253.675317 355.339581 
L 254.588966 240.578075 
L 260.986517 240.578075 
L 261.900418 246.879115 
L 262.814417 260.230272 
L 263.727731 269.41843 
L 265.555745 282.416245 
L 266.469301 286.481099 
L 267.383239 289.013287 
L 269.210732 293.088035 
L 270.1247 294.181829 
L 271.038916 295.003278 
L 271.953265 319.47487 
L 272.866808 355.339581 
L 282.91869 355.339581 
L 283.832668 240.578075 
L 284.746211 355.339581 
L 286.574264 355.339581 
L 287.793022 293.409442 
L 289.011766 355.339581 
L 295.104148 355.339581 
L 296.019829 240.578075 
L 315.209651 240.578075 
L 316.123323 243.862505 
L 317.036755 256.744486 
L 318.864817 277.119863 
L 319.779582 282.643175 
L 320.692527 285.133864 
L 321.60622 288.675769 
L 322.520069 291.361514 
L 323.434224 292.670212 
L 324.347851 316.934008 
L 325.261501 355.339581 
L 336.837135 355.339581 
L 337.751012 240.578075 
L 338.665086 240.578075 
L 339.579451 355.339581 
L 345.978027 355.339581 
L 347.196427 240.578075 
L 365.472529 240.578075 
L 366.386254 246.459398 
L 367.304425 254.520061 
L 369.131813 280.245887 
L 370.044953 282.896231 
L 371.264323 284.932812 
L 372.17721 291.692198 
L 373.091639 291.91592 
L 374.005078 291.826234 
L 374.91891 294.937541 
L 375.833293 309.627578 
L 376.747078 355.339581 
L 387.103762 355.339581 
L 388.017845 240.578075 
L 388.931913 355.339581 
L 390.759377 355.339581 
L 391.978024 350.555871 
L 392.892226 240.578075 
L 393.806203 355.339581 
L 398.375141 355.339581 
L 399.288839 240.578075 
L 417.566041 240.578075 
L 418.480143 245.99109 
L 419.393838 258.921108 
L 421.222313 277.589448 
L 422.135489 283.572889 
L 424.878659 291.607993 
L 425.791174 293.050913 
L 426.70503 293.893061 
L 427.618908 320.598721 
L 428.532677 355.339581 
L 438.585277 355.339581 
L 439.4997 240.578075 
L 440.413149 355.339581 
L 447.117118 355.339581 
L 448.028486 240.578075 
L 453.511382 240.578075 
L 454.425445 355.339581 
L 456.253389 355.339581 
L 457.167139 240.578075 
L 468.135437 240.578075 
L 469.048653 248.939357 
L 469.961695 355.339581 
L 472.703636 355.339581 
L 472.703636 355.339581 
" clip-path="url(#peaa14fe7e4)" style="fill: none; stroke: #1f77b4; stroke-width: 1.5; stroke-linecap: square"/>
   </g>
   <g id="line2d_44">
    <path d="M 62.776364 240.578075 
L 63.589864 297.958828 
L 472.703636 297.958828 
L 472.703636 297.958828 
" clip-path="url(#peaa14fe7e4)" style="fill: none; stroke-dasharray: 9.6,2.4,1.5,2.4; stroke-dashoffset: 0; stroke: #ff7f0e; stroke-width: 1.5"/>
   </g>
   <g id="line2d_45">
    <path d="M 42.28 355.339581 
L 493.2 355.339581 
" clip-path="url(#peaa14fe7e4)" style="fill: none; stroke-dasharray: 3.7,1.6; stroke-dashoffset: 0; stroke: #ff0000"/>
   </g>
   <g id="line2d_46">
    <path d="M 42.28 240.578075 
L 493.2 240.578075 
" clip-path="url(#peaa14fe7e4)" style="fill: none; stroke-dasharray: 3.7,1.6; stroke-dashoffset: 0; stroke: #ff0000"/>
   </g>
   <g id="patch_9">
    <path d="M 42.28 361.077656 
L 42.28 234.84 
" style="fill: none; stroke: #000000; stroke-width: 0.8; stroke-linejoin: miter; stroke-linecap: square"/>
   </g>
   <g id="patch_10">
    <path d="M 493.2 361.077656 
L 493.2 234.84 
" style="fill: none; stroke: #000000; stroke-width: 0.8; stroke-linejoin: miter; stroke-linecap: square"/>
   </g>
   <g id="patch_11">
    <path d="M 42.28 361.077656 
L 493.2 361.077656 
" style="fill: none; stroke: #000000; stroke-width: 0.8; stroke-linejoin: miter; stroke-linecap: square"/>
   </g>
   <g id="patch_12">
    <path d="M 42.28 234.84 
L 493.2 234.84 
" style="fill: none; stroke: #000000; stroke-width: 0.8; stroke-linejoin: miter; stroke-linecap: square"/>
   </g>
   <g id="text_24">
    <!-- $a_x$ $\left(\mathrm{m/s^2}\right)$ -->
    <g transform="translate(240.92 228.84) scale(0.12 -0.12)">
     <defs>
      <path id="DejaVuSans-Oblique-44" d="M 3438 1997 
L 3047 0 
L 2472 0 
L 2578 531 
Q 2325 219 2001 64 
Q 1678 -91 1281 -91 
Q 834 -91 548 182 
Q 263 456 263 884 
Q 263 1497 752 1853 
Q 1241 2209 2100 2209 
L 2900 2209 
L 2931 2363 
Q 2938 2388 2941 2417 
Q 2944 2447 2944 2509 
Q 2944 2788 2717 2942 
Q 2491 3097 2081 3097 
Q 1800 3097 1504 3025 
Q 1209 2953 897 2809 
L 997 3341 
Q 1322 3463 1633 3523 
Q 1944 3584 2234 3584 
Q 2853 3584 3176 3315 
Q 3500 3047 3500 2534 
Q 3500 2431 3484 2292 
Q 3469 2153 3438 1997 
z
M 2816 1759 
L 2241 1759 
Q 1534 1759 1195 1570 
Q 856 1381 856 984 
Q 856 709 1029 553 
Q 1203 397 1509 397 
Q 1978 397 2328 733 
Q 2678 1069 2791 1631 
L 2816 1759 
z
" transform="scale(0.015625)"/>
      <path id="DejaVuSans-Oblique-5b" d="M 3841 3500 
L 2234 1784 
L 3219 0 
L 2559 0 
L 1819 1388 
L 531 0 
L -166 0 
L 1556 1844 
L 641 3500 
L 1300 3500 
L 1972 2234 
L 3144 3500 
L 3841 3500 
z
" transform="scale(0.015625)"/>
      <path id="STIXSizeOneSym-Regular-4" d="M 2445 -858 
L 2445 -1050 
Q 1728 -371 1309 630 
Q 890 1632 890 2886 
Q 890 4122 1309 5136 
Q 1728 6150 2445 6822 
L 2445 6630 
Q 1408 5363 1408 2886 
Q 1408 410 2445 -858 
z
" transform="scale(0.015625)"/>
      <path id="DejaVuSans-50" d="M 3328 2828 
Q 3544 3216 3844 3400 
Q 4144 3584 4550 3584 
Q 5097 3584 5394 3201 
Q 5691 2819 5691 2113 
L 5691 0 
L 5113 0 
L 5113 2094 
Q 5113 2597 4934 2840 
Q 4756 3084 4391 3084 
Q 3944 3084 3684 2787 
Q 3425 2491 3425 1978 
L 3425 0 
L 2847 0 
L 2847 2094 
Q 2847 2600 2669 2842 
Q 2491 3084 2119 3084 
Q 1678 3084 1418 2786 
Q 1159 2488 1159 1978 
L 1159 0 
L 581 0 
L 581 3500 
L 1159 3500 
L 1159 2956 
Q 1356 3278 1631 3431 
Q 1906 3584 2284 3584 
Q 2666 3584 2933 3390 
Q 3200 3197 3328 2828 
z
" transform="scale(0.015625)"/>
      <path id="DejaVuSans-12" d="M 1625 4666 
L 2156 4666 
L 531 -594 
L 0 -594 
L 1625 4666 
z
" transform="scale(0.015625)"/>
      <path id="STIXSizeOneSym-Regular-5" d="M 550 6630 
L 550 6822 
Q 1267 6144 1686 5142 
Q 2106 4141 2106 2886 
Q 2106 1651 1686 636 
Q 1267 -378 550 -1050 
L 550 -858 
Q 1587 410 1587 2886 
Q 1587 5363 550 6630 
z
" transform="scale(0.015625)"/>
     </defs>
     <use xlink:href="#DejaVuSans-Oblique-44" transform="translate(0 0.746875)"/>
     <use xlink:href="#DejaVuSans-Oblique-5b" transform="translate(61.279297 -14.253076) scale(0.7)"/>
     <use xlink:href="#DejaVuSans-3" transform="translate(105.439453 0.746875)"/>
     <use xlink:href="#STIXSizeOneSym-Regular-4" transform="translate(137.226562 5.1375) scale(0.833613)"/>
     <use xlink:href="#DejaVuSans-50" transform="translate(176.2388 0.746875)"/>
     <use xlink:href="#DejaVuSans-12" transform="translate(273.650909 0.746875)"/>
     <use xlink:href="#DejaVuSans-56" transform="translate(307.342316 0.746875)"/>
     <use xlink:href="#DejaVuSans-15" transform="translate(360.398956 42.046875) scale(0.7)"/>
     <use xlink:href="#STIXSizeOneSym-Regular-5" transform="translate(407.669464 5.1375) scale(0.833613)"/>
    </g>
   </g>
   <g id="legend_2">
    <g id="patch_13">
     <path d="M 49.28 356.077656 
L 110.58 356.077656 
Q 112.58 356.077656 112.58 354.077656 
L 112.58 325.076094 
Q 112.58 323.076094 110.58 323.076094 
L 49.28 323.076094 
Q 47.28 323.076094 47.28 325.076094 
L 47.28 354.077656 
Q 47.28 356.077656 49.28 356.077656 
z
" style="fill: #ffffff; opacity: 0.8; stroke: #cccccc; stroke-linejoin: miter"/>
    </g>
    <g id="line2d_47">
     <path d="M 51.28 331.174531 
L 61.28 331.174531 
L 71.28 331.174531 
" style="fill: none; stroke: #1f77b4; stroke-width: 1.5; stroke-linecap: square"/>
    </g>
    <g id="text_25">
     <!-- $a_{x,cmd}$ -->
     <g transform="translate(79.28 334.674531) scale(0.1 -0.1)">
      <defs>
       <path id="DejaVuSans-f" d="M 750 794 
L 1409 794 
L 1409 256 
L 897 -744 
L 494 -744 
L 750 256 
L 750 794 
z
" transform="scale(0.015625)"/>
      </defs>
      <use xlink:href="#DejaVuSans-Oblique-44"/>
      <use xlink:href="#DejaVuSans-Oblique-5b" transform="translate(61.279297 -14.999951) scale(0.7)"/>
      <use xlink:href="#DejaVuSans-f" transform="translate(102.705078 -14.999951) scale(0.7)"/>
      <use xlink:href="#DejaVuSans-Oblique-46" transform="translate(138.59375 -14.999951) scale(0.7)"/>
      <use xlink:href="#DejaVuSans-Oblique-50" transform="translate(177.080078 -14.999951) scale(0.7)"/>
      <use xlink:href="#DejaVuSans-Oblique-47" transform="translate(245.268555 -14.999951) scale(0.7)"/>
     </g>
    </g>
    <g id="line2d_48">
     <path d="M 51.28 346.175312 
L 61.28 346.175312 
L 71.28 346.175312 
" style="fill: none; stroke-dasharray: 9.6,2.4,1.5,2.4; stroke-dashoffset: 0; stroke: #ff7f0e; stroke-width: 1.5"/>
    </g>
    <g id="text_26">
     <!-- $a_{x,ref}$ -->
     <g transform="translate(79.28 349.675312) scale(0.1 -0.1)">
      <use xlink:href="#DejaVuSans-Oblique-44"/>
      <use xlink:href="#DejaVuSans-Oblique-5b" transform="translate(61.279297 -14.999951) scale(0.7)"/>
      <use xlink:href="#DejaVuSans-f" transform="translate(102.705078 -14.999951) scale(0.7)"/>
      <use xlink:href="#DejaVuSans-Oblique-55" transform="translate(138.59375 -14.999951) scale(0.7)"/>
      <use xlink:href="#DejaVuSans-Oblique-48" transform="translate(167.373047 -14.999951) scale(0.7)"/>
      <use xlink:href="#DejaVuSans-Oblique-49" transform="translate(210.439453 -14.999951) scale(0.7)"/>
     </g>
    </g>
   </g>
  </g>
  <g id="text_27">
   <!-- QCar2 Inputs -->
   <g transform="translate(212.5575 17.181188) scale(0.12 -0.12)">
    <defs>
     <path id="DejaVuSans-34" d="M 2522 4238 
Q 1834 4238 1429 3725 
Q 1025 3213 1025 2328 
Q 1025 1447 1429 934 
Q 1834 422 2522 422 
Q 3209 422 3611 934 
Q 4013 1447 4013 2328 
Q 4013 3213 3611 3725 
Q 3209 4238 2522 4238 
z
M 3406 84 
L 4238 -825 
L 3475 -825 
L 2784 -78 
Q 2681 -84 2626 -87 
Q 2572 -91 2522 -91 
Q 1538 -91 948 567 
Q 359 1225 359 2328 
Q 359 3434 948 4092 
Q 1538 4750 2522 4750 
Q 3503 4750 4090 4092 
Q 4678 3434 4678 2328 
Q 4678 1516 4351 937 
Q 4025 359 3406 84 
z
" transform="scale(0.015625)"/>
     <path id="DejaVuSans-26" d="M 4122 4306 
L 4122 3641 
Q 3803 3938 3442 4084 
Q 3081 4231 2675 4231 
Q 1875 4231 1450 3742 
Q 1025 3253 1025 2328 
Q 1025 1406 1450 917 
Q 1875 428 2675 428 
Q 3081 428 3442 575 
Q 3803 722 4122 1019 
L 4122 359 
Q 3791 134 3420 21 
Q 3050 -91 2638 -91 
Q 1578 -91 968 557 
Q 359 1206 359 2328 
Q 359 3453 968 4101 
Q 1578 4750 2638 4750 
Q 3056 4750 3426 4639 
Q 3797 4528 4122 4306 
z
" transform="scale(0.015625)"/>
     <path id="DejaVuSans-2c" d="M 628 4666 
L 1259 4666 
L 1259 0 
L 628 0 
L 628 4666 
z
" transform="scale(0.015625)"/>
     <path id="DejaVuSans-51" d="M 3513 2113 
L 3513 0 
L 2938 0 
L 2938 2094 
Q 2938 2591 2744 2837 
Q 2550 3084 2163 3084 
Q 1697 3084 1428 2787 
Q 1159 2491 1159 1978 
L 1159 0 
L 581 0 
L 581 3500 
L 1159 3500 
L 1159 2956 
Q 1366 3272 1645 3428 
Q 1925 3584 2291 3584 
Q 2894 3584 3203 3211 
Q 3513 2838 3513 2113 
z
" transform="scale(0.015625)"/>
     <path id="DejaVuSans-53" d="M 1159 525 
L 1159 -1331 
L 581 -1331 
L 581 3500 
L 1159 3500 
L 1159 2969 
Q 1341 3281 1617 3432 
Q 1894 3584 2278 3584 
Q 2916 3584 3314 3078 
Q 3713 2572 3713 1747 
Q 3713 922 3314 415 
Q 2916 -91 2278 -91 
Q 1894 -91 1617 61 
Q 1341 213 1159 525 
z
M 3116 1747 
Q 3116 2381 2855 2742 
Q 2594 3103 2138 3103 
Q 1681 3103 1420 2742 
Q 1159 2381 1159 1747 
Q 1159 1113 1420 752 
Q 1681 391 2138 391 
Q 2594 391 2855 752 
Q 3116 1113 3116 1747 
z
" transform="scale(0.015625)"/>
     <path id="DejaVuSans-58" d="M 544 1381 
L 544 3500 
L 1119 3500 
L 1119 1403 
Q 1119 906 1312 657 
Q 1506 409 1894 409 
Q 2359 409 2629 706 
Q 2900 1003 2900 1516 
L 2900 3500 
L 3475 3500 
L 3475 0 
L 2900 0 
L 2900 538 
Q 2691 219 2414 64 
Q 2138 -91 1772 -91 
Q 1169 -91 856 284 
Q 544 659 544 1381 
z
M 1991 3584 
L 1991 3584 
z
" transform="scale(0.015625)"/>
    </defs>
    <use xlink:href="#DejaVuSans-34"/>
    <use xlink:href="#DejaVuSans-26" transform="translate(78.71875 0)"/>
    <use xlink:href="#DejaVuSans-44" transform="translate(148.546875 0)"/>
    <use xlink:href="#DejaVuSans-55" transform="translate(209.828125 0)"/>
    <use xlink:href="#DejaVuSans-15" transform="translate(250.9375 0)"/>
    <use xlink:href="#DejaVuSans-3" transform="translate(314.5625 0)"/>
    <use xlink:href="#DejaVuSans-2c" transform="translate(346.34375 0)"/>
    <use xlink:href="#DejaVuSans-51" transform="translate(375.84375 0)"/>
    <use xlink:href="#DejaVuSans-53" transform="translate(439.21875 0)"/>
    <use xlink:href="#DejaVuSans-58" transform="translate(502.703125 0)"/>
    <use xlink:href="#DejaVuSans-57" transform="translate(566.078125 0)"/>
    <use xlink:href="#DejaVuSans-56" transform="translate(605.28125 0)"/>
   </g>
  </g>
 </g>
 <defs>
  <clipPath id="p6d3fbae8e0">
   <rect x="42.28" y="48.96" width="450.92" height="126.237656"/>
  </clipPath>
  <clipPath id="peaa14fe7e4">
   <rect x="42.28" y="234.84" width="450.92" height="126.237656"/>
  </clipPath>
 </defs>
</svg>
