<?xml version="1.0" encoding="utf-8" standalone="no"?>
<!DOCTYPE svg PUBLIC "-//W3C//DTD SVG 1.1//EN"
  "http://www.w3.org/Graphics/SVG/1.1/DTD/svg11.dtd">
<svg xmlns:xlink="http://www.w3.org/1999/xlink" width="504pt" height="403.2pt" viewBox="0 0 504 403.2" xmlns="http://www.w3.org/2000/svg" version="1.1">
 <metadata>
  <rdf:RDF xmlns:dc="http://purl.org/dc/elements/1.1/" xmlns:cc="http://creativecommons.org/ns#" xmlns:rdf="http://www.w3.org/1999/02/22-rdf-syntax-ns#">
   <cc:Work>
    <dc:type rdf:resource="http://purl.org/dc/dcmitype/StillImage"/>
    <dc:date>2026-07-09T12:39:05.017742</dc:date>
    <dc:format>image/svg+xml</dc:format>
    <dc:creator>
     <cc:Agent>
      <dc:title>Matplotlib v3.11.0, https://matplotlib.org/</dc:title>
     </cc:Agent>
    </dc:creator>
   </cc:Work>
  </rdf:RDF>
 </metadata>
 <defs>
  <style type="text/css">*{stroke-linejoin: round; stroke-linecap: butt}</style>
 </defs>
 <g id="figure_1">
  <g id="patch_1">
   <path d="M 0 403.2 
L 504 403.2 
L 504 0 
L 0 0 
z
" style="fill: #ffffff"/>
  </g>
  <g id="axes_1">
   <g id="patch_2">
    <path d="M 42.28 175.197656 
L 491.188209 175.197656 
L 491.188209 48.96 
L 42.28 48.96 
z
" style="fill: #ffffff"/>
   </g>
   <g id="matplotlib.axis_1">
    <g id="xtick_1">
     <g id="line2d_1">
      <path d="M 62.68491 175.197656 
L 62.68491 48.96 
" clip-path="url(#p2c398f2e03)" style="fill: none; stroke: #b0b0b0; stroke-width: 0.8; stroke-linecap: square"/>
     </g>
     <g id="line2d_2">
      <defs>
       <path id="mfed7d94303" d="M 0 0 
L 0 3.5 
" style="stroke: #000000; stroke-width: 0.8"/>
      </defs>
      <g>
       <use xlink:href="#mfed7d94303" x="62.68491" y="175.197656" style="stroke: #000000; stroke-width: 0.8"/>
      </g>
     </g>
     <g id="text_1">
      <!-- 0 -->
      <g transform="translate(59.50366 189.795312) scale(0.1 -0.1)">
       <defs>
        <path id="DejaVuSans-13" d="M 2034 4250 
Q 1547 4250 1301 3770 
Q 1056 3291 1056 2328 
Q 1056 1369 1301 889 
Q 1547 409 2034 409 
Q 2525 409 2770 889 
Q 3016 1369 3016 2328 
Q 3016 3291 2770 3770 
Q 2525 4250 2034 4250 
z
M 2034 4750 
Q 2819 4750 3233 4129 
Q 3647 3509 3647 2328 
Q 3647 1150 3233 529 
Q 2819 -91 2034 -91 
Q 1250 -91 836 529 
Q 422 1150 422 2328 
Q 422 3509 836 4129 
Q 1250 4750 2034 4750 
z
" transform="scale(0.015625)"/>
       </defs>
       <use xlink:href="#DejaVuSans-13"/>
      </g>
     </g>
    </g>
    <g id="xtick_2">
     <g id="line2d_3">
      <path d="M 147.358527 175.197656 
L 147.358527 48.96 
" clip-path="url(#p2c398f2e03)" style="fill: none; stroke: #b0b0b0; stroke-width: 0.8; stroke-linecap: square"/>
     </g>
     <g id="line2d_4">
      <g>
       <use xlink:href="#mfed7d94303" x="147.358527" y="175.197656" style="stroke: #000000; stroke-width: 0.8"/>
      </g>
     </g>
     <g id="text_2">
      <!-- 5 -->
      <g transform="translate(144.177277 189.795312) scale(0.1 -0.1)">
       <defs>
        <path id="DejaVuSans-18" d="M 691 4666 
L 3169 4666 
L 3169 4134 
L 1269 4134 
L 1269 2991 
Q 1406 3038 1543 3061 
Q 1681 3084 1819 3084 
Q 2600 3084 3056 2656 
Q 3513 2228 3513 1497 
Q 3513 744 3044 326 
Q 2575 -91 1722 -91 
Q 1428 -91 1123 -41 
Q 819 9 494 109 
L 494 744 
Q 775 591 1075 516 
Q 1375 441 1709 441 
Q 2250 441 2565 725 
Q 2881 1009 2881 1497 
Q 2881 1984 2565 2268 
Q 2250 2553 1709 2553 
Q 1456 2553 1204 2497 
Q 953 2441 691 2322 
L 691 4666 
z
" transform="scale(0.015625)"/>
       </defs>
       <use xlink:href="#DejaVuSans-18"/>
      </g>
     </g>
    </g>
    <g id="xtick_3">
     <g id="line2d_5">
      <path d="M 232.032143 175.197656 
L 232.032143 48.96 
" clip-path="url(#p2c398f2e03)" style="fill: none; stroke: #b0b0b0; stroke-width: 0.8; stroke-linecap: square"/>
     </g>
     <g id="line2d_6">
      <g>
       <use xlink:href="#mfed7d94303" x="232.032143" y="175.197656" style="stroke: #000000; stroke-width: 0.8"/>
      </g>
     </g>
     <g id="text_3">
      <!-- 10 -->
      <g transform="translate(225.669643 189.795312) scale(0.1 -0.1)">
       <defs>
        <path id="DejaVuSans-14" d="M 794 531 
L 1825 531 
L 1825 4091 
L 703 3866 
L 703 4441 
L 1819 4666 
L 2450 4666 
L 2450 531 
L 3481 531 
L 3481 0 
L 794 0 
L 794 531 
z
" transform="scale(0.015625)"/>
       </defs>
       <use xlink:href="#DejaVuSans-14"/>
       <use xlink:href="#DejaVuSans-13" transform="translate(63.625 0)"/>
      </g>
     </g>
    </g>
    <g id="xtick_4">
     <g id="line2d_7">
      <path d="M 316.705759 175.197656 
L 316.705759 48.96 
" clip-path="url(#p2c398f2e03)" style="fill: none; stroke: #b0b0b0; stroke-width: 0.8; stroke-linecap: square"/>
     </g>
     <g id="line2d_8">
      <g>
       <use xlink:href="#mfed7d94303" x="316.705759" y="175.197656" style="stroke: #000000; stroke-width: 0.8"/>
      </g>
     </g>
     <g id="text_4">
      <!-- 15 -->
      <g transform="translate(310.343259 189.795312) scale(0.1 -0.1)">
       <use xlink:href="#DejaVuSans-14"/>
       <use xlink:href="#DejaVuSans-18" transform="translate(63.625 0)"/>
      </g>
     </g>
    </g>
    <g id="xtick_5">
     <g id="line2d_9">
      <path d="M 401.379376 175.197656 
L 401.379376 48.96 
" clip-path="url(#p2c398f2e03)" style="fill: none; stroke: #b0b0b0; stroke-width: 0.8; stroke-linecap: square"/>
     </g>
     <g id="line2d_10">
      <g>
       <use xlink:href="#mfed7d94303" x="401.379376" y="175.197656" style="stroke: #000000; stroke-width: 0.8"/>
      </g>
     </g>
     <g id="text_5">
      <!-- 20 -->
      <g transform="translate(395.016876 189.795312) scale(0.1 -0.1)">
       <defs>
        <path id="DejaVuSans-15" d="M 1228 531 
L 3431 531 
L 3431 0 
L 469 0 
L 469 531 
Q 828 903 1448 1529 
Q 2069 2156 2228 2338 
Q 2531 2678 2651 2914 
Q 2772 3150 2772 3378 
Q 2772 3750 2511 3984 
Q 2250 4219 1831 4219 
Q 1534 4219 1204 4116 
Q 875 4013 500 3803 
L 500 4441 
Q 881 4594 1212 4672 
Q 1544 4750 1819 4750 
Q 2544 4750 2975 4387 
Q 3406 4025 3406 3419 
Q 3406 3131 3298 2873 
Q 3191 2616 2906 2266 
Q 2828 2175 2409 1742 
Q 1991 1309 1228 531 
z
" transform="scale(0.015625)"/>
       </defs>
       <use xlink:href="#DejaVuSans-15"/>
       <use xlink:href="#DejaVuSans-13" transform="translate(63.625 0)"/>
      </g>
     </g>
    </g>
    <g id="xtick_6">
     <g id="line2d_11">
      <path d="M 486.052992 175.197656 
L 486.052992 48.96 
" clip-path="url(#p2c398f2e03)" style="fill: none; stroke: #b0b0b0; stroke-width: 0.8; stroke-linecap: square"/>
     </g>
     <g id="line2d_12">
      <g>
       <use xlink:href="#mfed7d94303" x="486.052992" y="175.197656" style="stroke: #000000; stroke-width: 0.8"/>
      </g>
     </g>
     <g id="text_6">
      <!-- 25 -->
      <g transform="translate(479.690492 189.795312) scale(0.1 -0.1)">
       <use xlink:href="#DejaVuSans-15"/>
       <use xlink:href="#DejaVuSans-18" transform="translate(63.625 0)"/>
      </g>
     </g>
    </g>
    <g id="text_7">
     <!-- t (s) -->
     <g transform="translate(256.678636 203.795312) scale(0.1 -0.1)">
      <defs>
       <path id="DejaVuSans-57" d="M 1172 4494 
L 1172 3500 
L 2356 3500 
L 2356 3053 
L 1172 3053 
L 1172 1153 
Q 1172 725 1289 603 
Q 1406 481 1766 481 
L 2356 481 
L 2356 0 
L 1766 0 
Q 1100 0 847 248 
Q 594 497 594 1153 
L 594 3053 
L 172 3053 
L 172 3500 
L 594 3500 
L 594 4494 
L 1172 4494 
z
" transform="scale(0.015625)"/>
       <path id="DejaVuSans-3" transform="scale(0.015625)"/>
       <path id="DejaVuSans-b" d="M 1984 4856 
Q 1566 4138 1362 3434 
Q 1159 2731 1159 2009 
Q 1159 1288 1364 580 
Q 1569 -128 1984 -844 
L 1484 -844 
Q 1016 -109 783 600 
Q 550 1309 550 2009 
Q 550 2706 781 3412 
Q 1013 4119 1484 4856 
L 1984 4856 
z
" transform="scale(0.015625)"/>
       <path id="DejaVuSans-56" d="M 2834 3397 
L 2834 2853 
Q 2591 2978 2328 3040 
Q 2066 3103 1784 3103 
Q 1356 3103 1142 2972 
Q 928 2841 928 2578 
Q 928 2378 1081 2264 
Q 1234 2150 1697 2047 
L 1894 2003 
Q 2506 1872 2764 1633 
Q 3022 1394 3022 966 
Q 3022 478 2636 193 
Q 2250 -91 1575 -91 
Q 1294 -91 989 -36 
Q 684 19 347 128 
L 347 722 
Q 666 556 975 473 
Q 1284 391 1588 391 
Q 1994 391 2212 530 
Q 2431 669 2431 922 
Q 2431 1156 2273 1281 
Q 2116 1406 1581 1522 
L 1381 1569 
Q 847 1681 609 1914 
Q 372 2147 372 2553 
Q 372 3047 722 3315 
Q 1072 3584 1716 3584 
Q 2034 3584 2315 3537 
Q 2597 3491 2834 3397 
z
" transform="scale(0.015625)"/>
       <path id="DejaVuSans-c" d="M 513 4856 
L 1013 4856 
Q 1481 4119 1714 3412 
Q 1947 2706 1947 2009 
Q 1947 1309 1714 600 
Q 1481 -109 1013 -844 
L 513 -844 
Q 928 -128 1133 580 
Q 1338 1288 1338 2009 
Q 1338 2731 1133 3434 
Q 928 4138 513 4856 
z
" transform="scale(0.015625)"/>
      </defs>
      <use xlink:href="#DejaVuSans-57"/>
      <use xlink:href="#DejaVuSans-3" transform="translate(39.203125 0)"/>
      <use xlink:href="#DejaVuSans-b" transform="translate(70.984375 0)"/>
      <use xlink:href="#DejaVuSans-56" transform="translate(110 0)"/>
      <use xlink:href="#DejaVuSans-c" transform="translate(162.09375 0)"/>
     </g>
    </g>
   </g>
   <g id="matplotlib.axis_2">
    <g id="ytick_1">
     <g id="line2d_13">
      <path d="M 42.28 162.032805 
L 491.188209 162.032805 
" clip-path="url(#p2c398f2e03)" style="fill: none; stroke: #b0b0b0; stroke-width: 0.8; stroke-linecap: square"/>
     </g>
     <g id="line2d_14">
      <defs>
       <path id="mb880d19134" d="M 0 0 
L -3.5 0 
" style="stroke: #000000; stroke-width: 0.8"/>
      </defs>
      <g>
       <use xlink:href="#mb880d19134" x="42.28" y="162.032805" style="stroke: #000000; stroke-width: 0.8"/>
      </g>
     </g>
     <g id="text_8">
      <!-- −0.50 -->
      <g transform="translate(4.634688 165.831633) scale(0.1 -0.1)">
       <defs>
        <path id="DejaVuSans-c9c" d="M 678 2272 
L 4684 2272 
L 4684 1741 
L 678 1741 
L 678 2272 
z
" transform="scale(0.015625)"/>
        <path id="DejaVuSans-11" d="M 684 794 
L 1344 794 
L 1344 0 
L 684 0 
L 684 794 
z
" transform="scale(0.015625)"/>
       </defs>
       <use xlink:href="#DejaVuSans-c9c"/>
       <use xlink:href="#DejaVuSans-13" transform="translate(83.796875 0)"/>
       <use xlink:href="#DejaVuSans-11" transform="translate(147.421875 0)"/>
       <use xlink:href="#DejaVuSans-18" transform="translate(179.203125 0)"/>
       <use xlink:href="#DejaVuSans-13" transform="translate(242.828125 0)"/>
      </g>
     </g>
    </g>
    <g id="ytick_2">
     <g id="line2d_15">
      <path d="M 42.28 137.534051 
L 491.188209 137.534051 
" clip-path="url(#p2c398f2e03)" style="fill: none; stroke: #b0b0b0; stroke-width: 0.8; stroke-linecap: square"/>
     </g>
     <g id="line2d_16">
      <g>
       <use xlink:href="#mb880d19134" x="42.28" y="137.534051" style="stroke: #000000; stroke-width: 0.8"/>
      </g>
     </g>
     <g id="text_9">
      <!-- −0.25 -->
      <g transform="translate(4.634688 141.332879) scale(0.1 -0.1)">
       <use xlink:href="#DejaVuSans-c9c"/>
       <use xlink:href="#DejaVuSans-13" transform="translate(83.796875 0)"/>
       <use xlink:href="#DejaVuSans-11" transform="translate(147.421875 0)"/>
       <use xlink:href="#DejaVuSans-15" transform="translate(179.203125 0)"/>
       <use xlink:href="#DejaVuSans-18" transform="translate(242.828125 0)"/>
      </g>
     </g>
    </g>
    <g id="ytick_3">
     <g id="line2d_17">
      <path d="M 42.28 113.035297 
L 491.188209 113.035297 
" clip-path="url(#p2c398f2e03)" style="fill: none; stroke: #b0b0b0; stroke-width: 0.8; stroke-linecap: square"/>
     </g>
     <g id="line2d_18">
      <g>
       <use xlink:href="#mb880d19134" x="42.28" y="113.035297" style="stroke: #000000; stroke-width: 0.8"/>
      </g>
     </g>
     <g id="text_10">
      <!-- 0.00 -->
      <g transform="translate(13.014375 116.834125) scale(0.1 -0.1)">
       <use xlink:href="#DejaVuSans-13"/>
       <use xlink:href="#DejaVuSans-11" transform="translate(63.625 0)"/>
       <use xlink:href="#DejaVuSans-13" transform="translate(95.40625 0)"/>
       <use xlink:href="#DejaVuSans-13" transform="translate(159.03125 0)"/>
      </g>
     </g>
    </g>
    <g id="ytick_4">
     <g id="line2d_19">
      <path d="M 42.28 88.536543 
L 491.188209 88.536543 
" clip-path="url(#p2c398f2e03)" style="fill: none; stroke: #b0b0b0; stroke-width: 0.8; stroke-linecap: square"/>
     </g>
     <g id="line2d_20">
      <g>
       <use xlink:href="#mb880d19134" x="42.28" y="88.536543" style="stroke: #000000; stroke-width: 0.8"/>
      </g>
     </g>
     <g id="text_11">
      <!-- 0.25 -->
      <g transform="translate(13.014375 92.335371) scale(0.1 -0.1)">
       <use xlink:href="#DejaVuSans-13"/>
       <use xlink:href="#DejaVuSans-11" transform="translate(63.625 0)"/>
       <use xlink:href="#DejaVuSans-15" transform="translate(95.40625 0)"/>
       <use xlink:href="#DejaVuSans-18" transform="translate(159.03125 0)"/>
      </g>
     </g>
    </g>
    <g id="ytick_5">
     <g id="line2d_21">
      <path d="M 42.28 64.037789 
L 491.188209 64.037789 
" clip-path="url(#p2c398f2e03)" style="fill: none; stroke: #b0b0b0; stroke-width: 0.8; stroke-linecap: square"/>
     </g>
     <g id="line2d_22">
      <g>
       <use xlink:href="#mb880d19134" x="42.28" y="64.037789" style="stroke: #000000; stroke-width: 0.8"/>
      </g>
     </g>
     <g id="text_12">
      <!-- 0.50 -->
      <g transform="translate(13.014375 67.836617) scale(0.1 -0.1)">
       <use xlink:href="#DejaVuSans-13"/>
       <use xlink:href="#DejaVuSans-11" transform="translate(63.625 0)"/>
       <use xlink:href="#DejaVuSans-18" transform="translate(95.40625 0)"/>
       <use xlink:href="#DejaVuSans-13" transform="translate(159.03125 0)"/>
      </g>
     </g>
    </g>
   </g>
   <g id="line2d_23">
    <path d="M 62.684919 61.725107 
L 63.774058 113.035297 
L 64.900675 113.035297 
L 66.029786 117.401502 
L 67.159188 137.527929 
L 68.287816 148.087295 
L 69.417875 153.896794 
L 70.545844 54.698075 
L 71.675748 94.26083 
L 72.803533 160.879376 
L 73.934814 154.116416 
L 75.063634 59.929683 
L 76.191961 60.439974 
L 77.321744 163.44431 
L 78.448653 163.739251 
L 79.577788 61.349874 
L 80.709727 61.532991 
L 81.843708 163.291277 
L 82.967322 158.917183 
L 84.093535 61.904478 
L 85.796326 62.028021 
L 88.045839 163.506444 
L 90.30542 68.748818 
L 91.442451 103.086916 
L 92.567452 149.286996 
L 93.696321 129.488782 
L 94.822918 88.849799 
L 95.94851 94.574447 
L 97.077711 125.808842 
L 98.211746 130.674841 
L 99.336151 110.983503 
L 100.467663 100.980685 
L 102.15859 110.592019 
L 103.289159 119.888884 
L 104.416666 118.0226 
L 105.54568 111.705414 
L 106.67334 109.791082 
L 108.933485 114.683643 
L 110.062359 114.574955 
L 111.19242 113.292574 
L 112.318393 112.607767 
L 113.447581 112.828047 
L 114.576911 113.287189 
L 115.706445 113.462273 
L 119.095996 113.172169 
L 122.480775 113.431598 
L 124.738551 113.82648 
L 126.995894 114.594693 
L 130.38547 116.067934 
L 131.524218 116.147225 
L 132.64067 115.598888 
L 133.77666 114.135373 
L 134.898326 112.24334 
L 136.029224 113.24079 
L 137.725047 114.085903 
L 139.419925 114.539955 
L 141.110015 114.800585 
L 142.805506 114.922717 
L 144.496391 114.861807 
L 146.189162 122.99654 
L 147.883764 150.141256 
L 149.576538 169.459581 
L 152.39841 166.590106 
L 154.092714 159.783309 
L 155.785621 104.259644 
L 157.48027 60.262948 
L 159.172669 75.980357 
L 160.865875 160.950583 
L 162.560186 159.983318 
L 164.255253 159.322027 
L 165.94879 158.915498 
L 167.639668 56.087189 
L 174.414345 55.759012 
L 176.106594 113.814979 
L 177.802946 159.12226 
L 186.269149 162.455131 
L 187.397127 60.13798 
L 189.655386 60.589119 
L 199.25122 61.785103 
L 203.767627 62.051982 
L 208.285893 62.147738 
L 214.492955 62.109886 
L 216.189982 155.182834 
L 217.883722 164.702178 
L 219.009265 103.624767 
L 220.70386 62.041235 
L 222.398018 120.403643 
L 224.089656 164.609014 
L 225.218359 164.59157 
L 226.347627 79.912931 
L 227.476287 78.171552 
L 228.607322 164.500813 
L 229.7375 164.47135 
L 231.427724 61.78338 
L 232.557693 78.033425 
L 233.686225 160.548041 
L 234.814388 164.248534 
L 235.943429 121.568027 
L 237.073453 111.830016 
L 238.201159 127.51707 
L 239.330817 139.787795 
L 240.461213 141.850404 
L 242.717372 137.348833 
L 244.975611 133.844205 
L 246.104393 131.465266 
L 249.491736 122.748586 
L 251.185804 118.104313 
L 252.313994 115.921571 
L 253.4433 114.916997 
L 254.57208 114.385245 
L 257.959072 113.317329 
L 260.781621 112.595746 
L 263.603805 112.330818 
L 274.893951 111.914184 
L 278.2804 112.048026 
L 280.538752 112.391 
L 282.796963 112.958521 
L 283.925891 112.682034 
L 286.747655 112.283871 
L 290.136174 112.033557 
L 294.651524 111.969286 
L 304.26057 112.149328 
L 314.419685 112.528426 
L 316.674867 112.603956 
L 317.808867 112.840114 
L 320.626331 113.95575 
L 321.75547 112.562777 
L 324.581425 61.200306 
L 326.272913 73.634402 
L 327.965623 91.622731 
L 329.661781 86.200113 
L 331.354102 61.805324 
L 333.049588 61.898993 
L 334.740076 96.892736 
L 336.434178 164.625872 
L 338.129751 164.658445 
L 339.823518 135.195828 
L 341.516538 62.115418 
L 347.72299 62.145607 
L 349.41658 164.762454 
L 357.884239 164.680331 
L 362.399722 164.428622 
L 366.352617 164.013799 
L 371.433063 163.208466 
L 377.079547 161.121076 
L 378.772431 160.716101 
L 380.467228 57.789103 
L 383.854863 57.316295 
L 390.626834 56.034792 
L 392.320579 55.836763 
L 394.012646 158.352732 
L 396.833198 158.465036 
L 398.528071 158.734165 
L 400.220802 159.158727 
L 401.914814 159.717577 
L 403.608065 102.419406 
L 405.301288 58.434947 
L 406.995054 59.2497 
L 408.123409 59.927394 
L 409.81815 61.120509 
L 411.510482 165.111797 
L 415.462259 168.352847 
L 417.156241 70.304971 
L 418.849104 67.696915 
L 420.544216 68.568497 
L 422.237055 84.387478 
L 423.929851 106.183935 
L 425.058161 108.955298 
L 426.190896 104.303006 
L 427.316342 101.345672 
L 428.445648 102.099229 
L 431.271274 109.299587 
L 432.397652 110.268118 
L 433.525477 110.217651 
L 434.656598 109.702391 
L 435.784976 110.137358 
L 437.477483 113.543395 
L 438.606571 114.714524 
L 439.738852 115.004639 
L 441.430603 114.80572 
L 444.251301 114.179453 
L 448.767485 113.408509 
L 452.154299 113.338646 
L 463.445299 113.480629 
L 466.266649 113.455928 
L 468.528852 113.051898 
L 469.654161 112.452159 
L 470.783291 109.914078 
L 470.783291 109.914078 
" clip-path="url(#p2c398f2e03)" style="fill: none; stroke: #1f77b4; stroke-width: 1.5; stroke-linecap: square"/>
   </g>
   <g id="patch_3">
    <path d="M 42.28 175.197656 
L 42.28 48.96 
" style="fill: none; stroke: #000000; stroke-width: 0.8; stroke-linejoin: miter; stroke-linecap: square"/>
   </g>
   <g id="patch_4">
    <path d="M 491.188209 175.197656 
L 491.188209 48.96 
" style="fill: none; stroke: #000000; stroke-width: 0.8; stroke-linejoin: miter; stroke-linecap: square"/>
   </g>
   <g id="patch_5">
    <path d="M 42.28 175.197656 
L 491.188209 175.197656 
" style="fill: none; stroke: #000000; stroke-width: 0.8; stroke-linejoin: miter; stroke-linecap: square"/>
   </g>
   <g id="patch_6">
    <path d="M 42.28 48.96 
L 491.188209 48.96 
" style="fill: none; stroke: #000000; stroke-width: 0.8; stroke-linejoin: miter; stroke-linecap: square"/>
   </g>
   <g id="text_13">
    <!-- $\delta_e$ (rad) -->
    <g transform="translate(243.754105 42.96) scale(0.12 -0.12)">
     <defs>
      <path id="DejaVuSans-Oblique-348" d="M 3472 4053 
Q 3197 4272 2450 4272 
Q 1659 4272 1588 3906 
Q 1531 3619 2328 3469 
Q 2953 3353 3253 3003 
Q 3616 2581 3447 1716 
Q 3284 888 2763 400 
Q 2238 -91 1488 -91 
Q 741 -91 406 400 
Q 72 888 241 1747 
Q 363 2384 891 2900 
Q 1097 3100 1353 3213 
Q 913 3459 1000 3900 
Q 1166 4750 2544 4750 
Q 3234 4750 3566 4531 
L 3472 4053 
z
M 1753 3056 
Q 1525 2966 1306 2738 
Q 969 2384 847 1747 
Q 722 1113 919 756 
Q 1119 397 1584 397 
Q 2044 397 2381 759 
Q 2722 1122 2838 1716 
Q 2956 2338 2731 2638 
Q 2491 2959 2103 2994 
Q 1906 3013 1753 3056 
z
" transform="scale(0.015625)"/>
      <path id="DejaVuSans-Oblique-48" d="M 3078 2063 
Q 3088 2113 3092 2166 
Q 3097 2219 3097 2272 
Q 3097 2653 2873 2875 
Q 2650 3097 2266 3097 
Q 1838 3097 1509 2826 
Q 1181 2556 1013 2059 
L 3078 2063 
z
M 3578 1613 
L 903 1613 
Q 884 1494 878 1425 
Q 872 1356 872 1306 
Q 872 872 1139 634 
Q 1406 397 1894 397 
Q 2269 397 2603 481 
Q 2938 566 3225 728 
L 3116 159 
Q 2806 34 2476 -28 
Q 2147 -91 1806 -91 
Q 1078 -91 686 257 
Q 294 606 294 1247 
Q 294 1794 489 2264 
Q 684 2734 1063 3103 
Q 1306 3334 1642 3459 
Q 1978 3584 2356 3584 
Q 2950 3584 3301 3228 
Q 3653 2872 3653 2272 
Q 3653 2128 3634 1964 
Q 3616 1800 3578 1613 
z
" transform="scale(0.015625)"/>
      <path id="DejaVuSans-55" d="M 2631 2963 
Q 2534 3019 2420 3045 
Q 2306 3072 2169 3072 
Q 1681 3072 1420 2755 
Q 1159 2438 1159 1844 
L 1159 0 
L 581 0 
L 581 3500 
L 1159 3500 
L 1159 2956 
Q 1341 3275 1631 3429 
Q 1922 3584 2338 3584 
Q 2397 3584 2469 3576 
Q 2541 3569 2628 3553 
L 2631 2963 
z
" transform="scale(0.015625)"/>
      <path id="DejaVuSans-44" d="M 2194 1759 
Q 1497 1759 1228 1600 
Q 959 1441 959 1056 
Q 959 750 1161 570 
Q 1363 391 1709 391 
Q 2188 391 2477 730 
Q 2766 1069 2766 1631 
L 2766 1759 
L 2194 1759 
z
M 3341 1997 
L 3341 0 
L 2766 0 
L 2766 531 
Q 2569 213 2275 61 
Q 1981 -91 1556 -91 
Q 1019 -91 701 211 
Q 384 513 384 1019 
Q 384 1609 779 1909 
Q 1175 2209 1959 2209 
L 2766 2209 
L 2766 2266 
Q 2766 2663 2505 2880 
Q 2244 3097 1772 3097 
Q 1472 3097 1187 3025 
Q 903 2953 641 2809 
L 641 3341 
Q 956 3463 1253 3523 
Q 1550 3584 1831 3584 
Q 2591 3584 2966 3190 
Q 3341 2797 3341 1997 
z
" transform="scale(0.015625)"/>
      <path id="DejaVuSans-47" d="M 2906 2969 
L 2906 4863 
L 3481 4863 
L 3481 0 
L 2906 0 
L 2906 525 
Q 2725 213 2448 61 
Q 2172 -91 1784 -91 
Q 1150 -91 751 415 
Q 353 922 353 1747 
Q 353 2572 751 3078 
Q 1150 3584 1784 3584 
Q 2172 3584 2448 3432 
Q 2725 3281 2906 2969 
z
M 947 1747 
Q 947 1113 1208 752 
Q 1469 391 1925 391 
Q 2381 391 2643 752 
Q 2906 1113 2906 1747 
Q 2906 2381 2643 2742 
Q 2381 3103 1925 3103 
Q 1469 3103 1208 2742 
Q 947 2381 947 1747 
z
" transform="scale(0.015625)"/>
     </defs>
     <use xlink:href="#DejaVuSans-Oblique-348" transform="translate(0 0.015625)"/>
     <use xlink:href="#DejaVuSans-Oblique-48" transform="translate(61.181641 -14.984326) scale(0.7)"/>
     <use xlink:href="#DejaVuSans-3" transform="translate(106.982422 0.015625)"/>
     <use xlink:href="#DejaVuSans-b" transform="translate(138.769531 0.015625)"/>
     <use xlink:href="#DejaVuSans-55" transform="translate(177.783203 0.015625)"/>
     <use xlink:href="#DejaVuSans-44" transform="translate(218.896484 0.015625)"/>
     <use xlink:href="#DejaVuSans-47" transform="translate(280.175781 0.015625)"/>
     <use xlink:href="#DejaVuSans-c" transform="translate(343.652344 0.015625)"/>
    </g>
   </g>
   <g id="legend_1">
    <g id="patch_7">
     <path d="M 441.488209 71.960781 
L 484.188209 71.960781 
Q 486.188209 71.960781 486.188209 69.960781 
L 486.188209 55.96 
Q 486.188209 53.96 484.188209 53.96 
L 441.488209 53.96 
Q 439.488209 53.96 439.488209 55.96 
L 439.488209 69.960781 
Q 439.488209 71.960781 441.488209 71.960781 
z
" style="fill: #ffffff; opacity: 0.8; stroke: #cccccc; stroke-linejoin: miter"/>
    </g>
    <g id="line2d_24">
     <path d="M 443.488209 62.058437 
L 453.488209 62.058437 
L 463.488209 62.058437 
" style="fill: none; stroke: #1f77b4; stroke-width: 1.5; stroke-linecap: square"/>
    </g>
    <g id="text_14">
     <!-- $\delta_e$ -->
     <g transform="translate(471.488209 65.558437) scale(0.1 -0.1)">
      <use xlink:href="#DejaVuSans-Oblique-348" transform="translate(0 0.78125)"/>
      <use xlink:href="#DejaVuSans-Oblique-48" transform="translate(61.181641 -14.218701) scale(0.7)"/>
     </g>
    </g>
   </g>
  </g>
  <g id="axes_2">
   <g id="patch_8">
    <path d="M 42.28 361.077656 
L 491.188209 361.077656 
L 491.188209 234.84 
L 42.28 234.84 
z
" style="fill: #ffffff"/>
   </g>
   <g id="matplotlib.axis_3">
    <g id="xtick_7">
     <g id="line2d_25">
      <path d="M 62.68491 361.077656 
L 62.68491 234.84 
" clip-path="url(#pa86727fe6e)" style="fill: none; stroke: #b0b0b0; stroke-width: 0.8; stroke-linecap: square"/>
     </g>
     <g id="line2d_26">
      <g>
       <use xlink:href="#mfed7d94303" x="62.68491" y="361.077656" style="stroke: #000000; stroke-width: 0.8"/>
      </g>
     </g>
     <g id="text_15">
      <!-- 0 -->
      <g transform="translate(59.50366 375.675312) scale(0.1 -0.1)">
       <use xlink:href="#DejaVuSans-13"/>
      </g>
     </g>
    </g>
    <g id="xtick_8">
     <g id="line2d_27">
      <path d="M 147.358527 361.077656 
L 147.358527 234.84 
" clip-path="url(#pa86727fe6e)" style="fill: none; stroke: #b0b0b0; stroke-width: 0.8; stroke-linecap: square"/>
     </g>
     <g id="line2d_28">
      <g>
       <use xlink:href="#mfed7d94303" x="147.358527" y="361.077656" style="stroke: #000000; stroke-width: 0.8"/>
      </g>
     </g>
     <g id="text_16">
      <!-- 5 -->
      <g transform="translate(144.177277 375.675312) scale(0.1 -0.1)">
       <use xlink:href="#DejaVuSans-18"/>
      </g>
     </g>
    </g>
    <g id="xtick_9">
     <g id="line2d_29">
      <path d="M 232.032143 361.077656 
L 232.032143 234.84 
" clip-path="url(#pa86727fe6e)" style="fill: none; stroke: #b0b0b0; stroke-width: 0.8; stroke-linecap: square"/>
     </g>
     <g id="line2d_30">
      <g>
       <use xlink:href="#mfed7d94303" x="232.032143" y="361.077656" style="stroke: #000000; stroke-width: 0.8"/>
      </g>
     </g>
     <g id="text_17">
      <!-- 10 -->
      <g transform="translate(225.669643 375.675312) scale(0.1 -0.1)">
       <use xlink:href="#DejaVuSans-14"/>
       <use xlink:href="#DejaVuSans-13" transform="translate(63.625 0)"/>
      </g>
     </g>
    </g>
    <g id="xtick_10">
     <g id="line2d_31">
      <path d="M 316.705759 361.077656 
L 316.705759 234.84 
" clip-path="url(#pa86727fe6e)" style="fill: none; stroke: #b0b0b0; stroke-width: 0.8; stroke-linecap: square"/>
     </g>
     <g id="line2d_32">
      <g>
       <use xlink:href="#mfed7d94303" x="316.705759" y="361.077656" style="stroke: #000000; stroke-width: 0.8"/>
      </g>
     </g>
     <g id="text_18">
      <!-- 15 -->
      <g transform="translate(310.343259 375.675312) scale(0.1 -0.1)">
       <use xlink:href="#DejaVuSans-14"/>
       <use xlink:href="#DejaVuSans-18" transform="translate(63.625 0)"/>
      </g>
     </g>
    </g>
    <g id="xtick_11">
     <g id="line2d_33">
      <path d="M 401.379376 361.077656 
L 401.379376 234.84 
" clip-path="url(#pa86727fe6e)" style="fill: none; stroke: #b0b0b0; stroke-width: 0.8; stroke-linecap: square"/>
     </g>
     <g id="line2d_34">
      <g>
       <use xlink:href="#mfed7d94303" x="401.379376" y="361.077656" style="stroke: #000000; stroke-width: 0.8"/>
      </g>
     </g>
     <g id="text_19">
      <!-- 20 -->
      <g transform="translate(395.016876 375.675312) scale(0.1 -0.1)">
       <use xlink:href="#DejaVuSans-15"/>
       <use xlink:href="#DejaVuSans-13" transform="translate(63.625 0)"/>
      </g>
     </g>
    </g>
    <g id="xtick_12">
     <g id="line2d_35">
      <path d="M 486.052992 361.077656 
L 486.052992 234.84 
" clip-path="url(#pa86727fe6e)" style="fill: none; stroke: #b0b0b0; stroke-width: 0.8; stroke-linecap: square"/>
     </g>
     <g id="line2d_36">
      <g>
       <use xlink:href="#mfed7d94303" x="486.052992" y="361.077656" style="stroke: #000000; stroke-width: 0.8"/>
      </g>
     </g>
     <g id="text_20">
      <!-- 25 -->
      <g transform="translate(479.690492 375.675312) scale(0.1 -0.1)">
       <use xlink:href="#DejaVuSans-15"/>
       <use xlink:href="#DejaVuSans-18" transform="translate(63.625 0)"/>
      </g>
     </g>
    </g>
    <g id="text_21">
     <!-- t (s) -->
     <g transform="translate(256.678636 389.675312) scale(0.1 -0.1)">
      <use xlink:href="#DejaVuSans-57"/>
      <use xlink:href="#DejaVuSans-3" transform="translate(39.203125 0)"/>
      <use xlink:href="#DejaVuSans-b" transform="translate(70.984375 0)"/>
      <use xlink:href="#DejaVuSans-56" transform="translate(110 0)"/>
      <use xlink:href="#DejaVuSans-c" transform="translate(162.09375 0)"/>
     </g>
    </g>
   </g>
   <g id="matplotlib.axis_4">
    <g id="ytick_6">
     <g id="line2d_37">
      <path d="M 42.28 336.212663 
L 491.188209 336.212663 
" clip-path="url(#pa86727fe6e)" style="fill: none; stroke: #b0b0b0; stroke-width: 0.8; stroke-linecap: square"/>
     </g>
     <g id="line2d_38">
      <g>
       <use xlink:href="#mb880d19134" x="42.28" y="336.212663" style="stroke: #000000; stroke-width: 0.8"/>
      </g>
     </g>
     <g id="text_22">
      <!-- −0.2 -->
      <g transform="translate(10.997188 340.011491) scale(0.1 -0.1)">
       <use xlink:href="#DejaVuSans-c9c"/>
       <use xlink:href="#DejaVuSans-13" transform="translate(83.796875 0)"/>
       <use xlink:href="#DejaVuSans-11" transform="translate(147.421875 0)"/>
       <use xlink:href="#DejaVuSans-15" transform="translate(179.203125 0)"/>
      </g>
     </g>
    </g>
    <g id="ytick_7">
     <g id="line2d_39">
      <path d="M 42.28 297.958828 
L 491.188209 297.958828 
" clip-path="url(#pa86727fe6e)" style="fill: none; stroke: #b0b0b0; stroke-width: 0.8; stroke-linecap: square"/>
     </g>
     <g id="line2d_40">
      <g>
       <use xlink:href="#mb880d19134" x="42.28" y="297.958828" style="stroke: #000000; stroke-width: 0.8"/>
      </g>
     </g>
     <g id="text_23">
      <!-- 0.0 -->
      <g transform="translate(19.376875 301.757656) scale(0.1 -0.1)">
       <use xlink:href="#DejaVuSans-13"/>
       <use xlink:href="#DejaVuSans-11" transform="translate(63.625 0)"/>
       <use xlink:href="#DejaVuSans-13" transform="translate(95.40625 0)"/>
      </g>
     </g>
    </g>
    <g id="ytick_8">
     <g id="line2d_41">
      <path d="M 42.28 259.704993 
L 491.188209 259.704993 
" clip-path="url(#pa86727fe6e)" style="fill: none; stroke: #b0b0b0; stroke-width: 0.8; stroke-linecap: square"/>
     </g>
     <g id="line2d_42">
      <g>
       <use xlink:href="#mb880d19134" x="42.28" y="259.704993" style="stroke: #000000; stroke-width: 0.8"/>
      </g>
     </g>
     <g id="text_24">
      <!-- 0.2 -->
      <g transform="translate(19.376875 263.503821) scale(0.1 -0.1)">
       <use xlink:href="#DejaVuSans-13"/>
       <use xlink:href="#DejaVuSans-11" transform="translate(63.625 0)"/>
       <use xlink:href="#DejaVuSans-15" transform="translate(95.40625 0)"/>
      </g>
     </g>
    </g>
   </g>
   <g id="line2d_43">
    <path d="M 62.684919 297.958828 
L 63.774058 240.578075 
L 133.77666 240.578075 
L 134.898326 241.069644 
L 136.029224 258.098201 
L 139.419925 289.53179 
L 141.110015 301.03324 
L 142.805506 355.339581 
L 164.255253 355.339581 
L 165.94879 240.578075 
L 167.639668 355.339581 
L 182.317469 355.339581 
L 183.446202 240.578075 
L 186.269149 240.578075 
L 187.397127 355.339581 
L 200.380813 355.339581 
L 201.509699 240.578075 
L 243.846348 240.578075 
L 244.975611 268.550942 
L 246.104393 299.351402 
L 247.233545 319.934687 
L 248.362737 331.99968 
L 249.491736 337.545443 
L 251.185804 338.040094 
L 252.313994 335.307338 
L 253.4433 330.335636 
L 254.57208 323.984628 
L 256.831074 309.955704 
L 257.959072 303.807152 
L 259.653605 298.446665 
L 260.781621 294.050295 
L 262.475861 290.974941 
L 263.603805 289.295208 
L 264.733009 288.288382 
L 265.862245 288.522565 
L 268.119562 290.46249 
L 271.506414 295.509438 
L 272.635975 296.868494 
L 274.893951 298.89809 
L 277.152158 300.048671 
L 278.2804 300.095198 
L 279.409949 300.007949 
L 280.538752 299.731122 
L 281.667585 299.648797 
L 282.796963 299.449091 
L 283.925891 299.05134 
L 290.136174 297.541597 
L 291.263639 297.757047 
L 293.522245 297.417701 
L 295.780477 297.494255 
L 296.909225 292.461083 
L 298.048648 299.295054 
L 299.177606 298.931853 
L 300.304587 298.127883 
L 301.433525 299.231645 
L 303.127879 298.947773 
L 305.384773 298.119159 
L 306.514108 297.957097 
L 307.646577 297.957077 
L 308.772505 297.674493 
L 309.90092 297.797405 
L 311.032329 297.536417 
L 312.158646 297.143547 
L 313.287843 297.577463 
L 314.419685 297.60049 
L 315.545898 296.746738 
L 316.674867 297.96037 
L 317.808867 296.463555 
L 319.499724 355.339581 
L 344.901599 355.339581 
L 346.597541 240.578075 
L 347.72299 240.578075 
L 349.41658 355.339581 
L 364.657587 355.339581 
L 366.352617 240.578075 
L 380.467228 240.578075 
L 382.161584 355.339581 
L 388.933729 355.339581 
L 390.626834 240.578075 
L 403.608065 240.578075 
L 405.301288 355.339581 
L 409.81815 355.339581 
L 411.510482 240.578075 
L 434.656598 240.578075 
L 435.784976 241.133785 
L 437.477483 257.58984 
L 438.606571 274.159403 
L 439.738852 288.506567 
L 441.430603 300.360009 
L 442.557739 309.50932 
L 444.251301 316.218778 
L 445.379971 320.071972 
L 446.512183 321.504579 
L 447.639516 320.370615 
L 448.767485 318.385783 
L 449.899399 314.770987 
L 452.154299 306.909341 
L 454.41184 299.21854 
L 456.107475 296.637156 
L 457.234176 293.919548 
L 458.929371 292.70536 
L 460.060321 293.161619 
L 461.751651 355.339581 
L 469.654161 355.339581 
L 470.783291 297.958828 
L 470.783291 297.958828 
" clip-path="url(#pa86727fe6e)" style="fill: none; stroke: #1f77b4; stroke-width: 1.5; stroke-linecap: square"/>
   </g>
   <g id="patch_9">
    <path d="M 42.28 361.077656 
L 42.28 234.84 
" style="fill: none; stroke: #000000; stroke-width: 0.8; stroke-linejoin: miter; stroke-linecap: square"/>
   </g>
   <g id="patch_10">
    <path d="M 491.188209 361.077656 
L 491.188209 234.84 
" style="fill: none; stroke: #000000; stroke-width: 0.8; stroke-linejoin: miter; stroke-linecap: square"/>
   </g>
   <g id="patch_11">
    <path d="M 42.28 361.077656 
L 491.188209 361.077656 
" style="fill: none; stroke: #000000; stroke-width: 0.8; stroke-linejoin: miter; stroke-linecap: square"/>
   </g>
   <g id="patch_12">
    <path d="M 42.28 234.84 
L 491.188209 234.84 
" style="fill: none; stroke: #000000; stroke-width: 0.8; stroke-linejoin: miter; stroke-linecap: square"/>
   </g>
   <g id="text_25">
    <!-- $a_{x,e}$ $\left(\mathrm{m/s^2}\right)$ -->
    <g transform="translate(235.174105 228.84) scale(0.12 -0.12)">
     <defs>
      <path id="DejaVuSans-Oblique-44" d="M 3438 1997 
L 3047 0 
L 2472 0 
L 2578 531 
Q 2325 219 2001 64 
Q 1678 -91 1281 -91 
Q 834 -91 548 182 
Q 263 456 263 884 
Q 263 1497 752 1853 
Q 1241 2209 2100 2209 
L 2900 2209 
L 2931 2363 
Q 2938 2388 2941 2417 
Q 2944 2447 2944 2509 
Q 2944 2788 2717 2942 
Q 2491 3097 2081 3097 
Q 1800 3097 1504 3025 
Q 1209 2953 897 2809 
L 997 3341 
Q 1322 3463 1633 3523 
Q 1944 3584 2234 3584 
Q 2853 3584 3176 3315 
Q 3500 3047 3500 2534 
Q 3500 2431 3484 2292 
Q 3469 2153 3438 1997 
z
M 2816 1759 
L 2241 1759 
Q 1534 1759 1195 1570 
Q 856 1381 856 984 
Q 856 709 1029 553 
Q 1203 397 1509 397 
Q 1978 397 2328 733 
Q 2678 1069 2791 1631 
L 2816 1759 
z
" transform="scale(0.015625)"/>
      <path id="DejaVuSans-Oblique-5b" d="M 3841 3500 
L 2234 1784 
L 3219 0 
L 2559 0 
L 1819 1388 
L 531 0 
L -166 0 
L 1556 1844 
L 641 3500 
L 1300 3500 
L 1972 2234 
L 3144 3500 
L 3841 3500 
z
" transform="scale(0.015625)"/>
      <path id="DejaVuSans-f" d="M 750 794 
L 1409 794 
L 1409 256 
L 897 -744 
L 494 -744 
L 750 256 
L 750 794 
z
" transform="scale(0.015625)"/>
      <path id="STIXSizeOneSym-Regular-4" d="M 2445 -858 
L 2445 -1050 
Q 1728 -371 1309 630 
Q 890 1632 890 2886 
Q 890 4122 1309 5136 
Q 1728 6150 2445 6822 
L 2445 6630 
Q 1408 5363 1408 2886 
Q 1408 410 2445 -858 
z
" transform="scale(0.015625)"/>
      <path id="DejaVuSans-50" d="M 3328 2828 
Q 3544 3216 3844 3400 
Q 4144 3584 4550 3584 
Q 5097 3584 5394 3201 
Q 5691 2819 5691 2113 
L 5691 0 
L 5113 0 
L 5113 2094 
Q 5113 2597 4934 2840 
Q 4756 3084 4391 3084 
Q 3944 3084 3684 2787 
Q 3425 2491 3425 1978 
L 3425 0 
L 2847 0 
L 2847 2094 
Q 2847 2600 2669 2842 
Q 2491 3084 2119 3084 
Q 1678 3084 1418 2786 
Q 1159 2488 1159 1978 
L 1159 0 
L 581 0 
L 581 3500 
L 1159 3500 
L 1159 2956 
Q 1356 3278 1631 3431 
Q 1906 3584 2284 3584 
Q 2666 3584 2933 3390 
Q 3200 3197 3328 2828 
z
" transform="scale(0.015625)"/>
      <path id="DejaVuSans-12" d="M 1625 4666 
L 2156 4666 
L 531 -594 
L 0 -594 
L 1625 4666 
z
" transform="scale(0.015625)"/>
      <path id="STIXSizeOneSym-Regular-5" d="M 550 6630 
L 550 6822 
Q 1267 6144 1686 5142 
Q 2106 4141 2106 2886 
Q 2106 1651 1686 636 
Q 1267 -378 550 -1050 
L 550 -858 
Q 1587 410 1587 2886 
Q 1587 5363 550 6630 
z
" transform="scale(0.015625)"/>
     </defs>
     <use xlink:href="#DejaVuSans-Oblique-44" transform="translate(0 0.746875)"/>
     <use xlink:href="#DejaVuSans-Oblique-5b" transform="translate(61.279297 -14.253076) scale(0.7)"/>
     <use xlink:href="#DejaVuSans-f" transform="translate(102.705078 -14.253076) scale(0.7)"/>
     <use xlink:href="#DejaVuSans-Oblique-48" transform="translate(138.59375 -14.253076) scale(0.7)"/>
     <use xlink:href="#DejaVuSans-3" transform="translate(184.394531 0.746875)"/>
     <use xlink:href="#STIXSizeOneSym-Regular-4" transform="translate(216.181641 5.1375) scale(0.833613)"/>
     <use xlink:href="#DejaVuSans-50" transform="translate(255.193878 0.746875)"/>
     <use xlink:href="#DejaVuSans-12" transform="translate(352.605988 0.746875)"/>
     <use xlink:href="#DejaVuSans-56" transform="translate(386.297394 0.746875)"/>
     <use xlink:href="#DejaVuSans-15" transform="translate(439.354034 42.046875) scale(0.7)"/>
     <use xlink:href="#STIXSizeOneSym-Regular-5" transform="translate(486.624542 5.1375) scale(0.833613)"/>
    </g>
   </g>
   <g id="legend_2">
    <g id="patch_13">
     <path d="M 49.28 356.077656 
L 133.88 356.077656 
Q 135.88 356.077656 135.88 354.077656 
L 135.88 338.275312 
Q 135.88 336.275312 133.88 336.275312 
L 49.28 336.275312 
Q 47.28 336.275312 47.28 338.275312 
L 47.28 354.077656 
Q 47.28 356.077656 49.28 356.077656 
z
" style="fill: #ffffff; opacity: 0.8; stroke: #cccccc; stroke-linejoin: miter"/>
    </g>
    <g id="line2d_44">
     <path d="M 51.28 346.175312 
L 61.28 346.175312 
L 71.28 346.175312 
" style="fill: none; stroke: #1f77b4; stroke-width: 1.5; stroke-linecap: square"/>
    </g>
    <g id="text_26">
     <!-- $a_{x,e}$ $\left(\mathrm{m/s^2}\right)$ -->
     <g transform="translate(79.28 349.675312) scale(0.1 -0.1)">
      <use xlink:href="#DejaVuSans-Oblique-44" transform="translate(0 0.746875)"/>
      <use xlink:href="#DejaVuSans-Oblique-5b" transform="translate(61.279297 -14.253076) scale(0.7)"/>
      <use xlink:href="#DejaVuSans-f" transform="translate(102.705078 -14.253076) scale(0.7)"/>
      <use xlink:href="#DejaVuSans-Oblique-48" transform="translate(138.59375 -14.253076) scale(0.7)"/>
      <use xlink:href="#DejaVuSans-3" transform="translate(184.394531 0.746875)"/>
      <use xlink:href="#STIXSizeOneSym-Regular-4" transform="translate(216.181641 5.1375) scale(0.833613)"/>
      <use xlink:href="#DejaVuSans-50" transform="translate(255.193878 0.746875)"/>
      <use xlink:href="#DejaVuSans-12" transform="translate(352.605988 0.746875)"/>
      <use xlink:href="#DejaVuSans-56" transform="translate(386.297394 0.746875)"/>
      <use xlink:href="#DejaVuSans-15" transform="translate(439.354034 42.046875) scale(0.7)"/>
      <use xlink:href="#STIXSizeOneSym-Regular-5" transform="translate(486.624542 5.1375) scale(0.833613)"/>
     </g>
    </g>
   </g>
  </g>
  <g id="text_27">
   <!-- QCar2 Input Error -->
   <g transform="translate(199.15125 17.181188) scale(0.12 -0.12)">
    <defs>
     <path id="DejaVuSans-34" d="M 2522 4238 
Q 1834 4238 1429 3725 
Q 1025 3213 1025 2328 
Q 1025 1447 1429 934 
Q 1834 422 2522 422 
Q 3209 422 3611 934 
Q 4013 1447 4013 2328 
Q 4013 3213 3611 3725 
Q 3209 4238 2522 4238 
z
M 3406 84 
L 4238 -825 
L 3475 -825 
L 2784 -78 
Q 2681 -84 2626 -87 
Q 2572 -91 2522 -91 
Q 1538 -91 948 567 
Q 359 1225 359 2328 
Q 359 3434 948 4092 
Q 1538 4750 2522 4750 
Q 3503 4750 4090 4092 
Q 4678 3434 4678 2328 
Q 4678 1516 4351 937 
Q 4025 359 3406 84 
z
" transform="scale(0.015625)"/>
     <path id="DejaVuSans-26" d="M 4122 4306 
L 4122 3641 
Q 3803 3938 3442 4084 
Q 3081 4231 2675 4231 
Q 1875 4231 1450 3742 
Q 1025 3253 1025 2328 
Q 1025 1406 1450 917 
Q 1875 428 2675 428 
Q 3081 428 3442 575 
Q 3803 722 4122 1019 
L 4122 359 
Q 3791 134 3420 21 
Q 3050 -91 2638 -91 
Q 1578 -91 968 557 
Q 359 1206 359 2328 
Q 359 3453 968 4101 
Q 1578 4750 2638 4750 
Q 3056 4750 3426 4639 
Q 3797 4528 4122 4306 
z
" transform="scale(0.015625)"/>
     <path id="DejaVuSans-2c" d="M 628 4666 
L 1259 4666 
L 1259 0 
L 628 0 
L 628 4666 
z
" transform="scale(0.015625)"/>
     <path id="DejaVuSans-51" d="M 3513 2113 
L 3513 0 
L 2938 0 
L 2938 2094 
Q 2938 2591 2744 2837 
Q 2550 3084 2163 3084 
Q 1697 3084 1428 2787 
Q 1159 2491 1159 1978 
L 1159 0 
L 581 0 
L 581 3500 
L 1159 3500 
L 1159 2956 
Q 1366 3272 1645 3428 
Q 1925 3584 2291 3584 
Q 2894 3584 3203 3211 
Q 3513 2838 3513 2113 
z
" transform="scale(0.015625)"/>
     <path id="DejaVuSans-53" d="M 1159 525 
L 1159 -1331 
L 581 -1331 
L 581 3500 
L 1159 3500 
L 1159 2969 
Q 1341 3281 1617 3432 
Q 1894 3584 2278 3584 
Q 2916 3584 3314 3078 
Q 3713 2572 3713 1747 
Q 3713 922 3314 415 
Q 2916 -91 2278 -91 
Q 1894 -91 1617 61 
Q 1341 213 1159 525 
z
M 3116 1747 
Q 3116 2381 2855 2742 
Q 2594 3103 2138 3103 
Q 1681 3103 1420 2742 
Q 1159 2381 1159 1747 
Q 1159 1113 1420 752 
Q 1681 391 2138 391 
Q 2594 391 2855 752 
Q 3116 1113 3116 1747 
z
" transform="scale(0.015625)"/>
     <path id="DejaVuSans-58" d="M 544 1381 
L 544 3500 
L 1119 3500 
L 1119 1403 
Q 1119 906 1312 657 
Q 1506 409 1894 409 
Q 2359 409 2629 706 
Q 2900 1003 2900 1516 
L 2900 3500 
L 3475 3500 
L 3475 0 
L 2900 0 
L 2900 538 
Q 2691 219 2414 64 
Q 2138 -91 1772 -91 
Q 1169 -91 856 284 
Q 544 659 544 1381 
z
M 1991 3584 
L 1991 3584 
z
" transform="scale(0.015625)"/>
     <path id="DejaVuSans-28" d="M 628 4666 
L 3578 4666 
L 3578 4134 
L 1259 4134 
L 1259 2753 
L 3481 2753 
L 3481 2222 
L 1259 2222 
L 1259 531 
L 3634 531 
L 3634 0 
L 628 0 
L 628 4666 
z
" transform="scale(0.015625)"/>
     <path id="DejaVuSans-52" d="M 1959 3097 
Q 1497 3097 1228 2736 
Q 959 2375 959 1747 
Q 959 1119 1226 758 
Q 1494 397 1959 397 
Q 2419 397 2687 759 
Q 2956 1122 2956 1747 
Q 2956 2369 2687 2733 
Q 2419 3097 1959 3097 
z
M 1959 3584 
Q 2709 3584 3137 3096 
Q 3566 2609 3566 1747 
Q 3566 888 3137 398 
Q 2709 -91 1959 -91 
Q 1206 -91 779 398 
Q 353 888 353 1747 
Q 353 2609 779 3096 
Q 1206 3584 1959 3584 
z
" transform="scale(0.015625)"/>
    </defs>
    <use xlink:href="#DejaVuSans-34"/>
    <use xlink:href="#DejaVuSans-26" transform="translate(78.71875 0)"/>
    <use xlink:href="#DejaVuSans-44" transform="translate(148.546875 0)"/>
    <use xlink:href="#DejaVuSans-55" transform="translate(209.828125 0)"/>
    <use xlink:href="#DejaVuSans-15" transform="translate(250.9375 0)"/>
    <use xlink:href="#DejaVuSans-3" transform="translate(314.5625 0)"/>
    <use xlink:href="#DejaVuSans-2c" transform="translate(346.34375 0)"/>
    <use xlink:href="#DejaVuSans-51" transform="translate(375.84375 0)"/>
    <use xlink:href="#DejaVuSans-53" transform="translate(439.21875 0)"/>
    <use xlink:href="#DejaVuSans-58" transform="translate(502.703125 0)"/>
    <use xlink:href="#DejaVuSans-57" transform="translate(566.078125 0)"/>
    <use xlink:href="#DejaVuSans-3" transform="translate(605.28125 0)"/>
    <use xlink:href="#DejaVuSans-28" transform="translate(637.0625 0)"/>
    <use xlink:href="#DejaVuSans-55" transform="translate(700.25 0)"/>
    <use xlink:href="#DejaVuSans-55" transform="translate(739.609375 0)"/>
    <use xlink:href="#DejaVuSans-52" transform="translate(778.515625 0)"/>
    <use xlink:href="#DejaVuSans-55" transform="translate(839.703125 0)"/>
   </g>
  </g>
 </g>
 <defs>
  <clipPath id="p2c398f2e03">
   <rect x="42.28" y="48.96" width="448.908209" height="126.237656"/>
  </clipPath>
  <clipPath id="pa86727fe6e">
   <rect x="42.28" y="234.84" width="448.908209" height="126.237656"/>
  </clipPath>
 </defs>
</svg>
