<?xml version="1.0" encoding="utf-8" standalone="no"?>
<!DOCTYPE svg PUBLIC "-//W3C//DTD SVG 1.1//EN"
  "http://www.w3.org/Graphics/SVG/1.1/DTD/svg11.dtd">
<svg xmlns:xlink="http://www.w3.org/1999/xlink" width="504pt" height="230.4pt" viewBox="0 0 504 230.4" xmlns="http://www.w3.org/2000/svg" version="1.1">
 <metadata>
  <rdf:RDF xmlns:dc="http://purl.org/dc/elements/1.1/" xmlns:cc="http://creativecommons.org/ns#" xmlns:rdf="http://www.w3.org/1999/02/22-rdf-syntax-ns#">
   <cc:Work>
    <dc:type rdf:resource="http://purl.org/dc/dcmitype/StillImage"/>
    <dc:date>2026-07-10T12:52:47.351019</dc:date>
    <dc:format>image/svg+xml</dc:format>
    <dc:creator>
     <cc:Agent>
      <dc:title>Matplotlib v3.11.0, https://matplotlib.org/</dc:title>
     </cc:Agent>
    </dc:creator>
   </cc:Work>
  </rdf:RDF>
 </metadata>
 <defs>
  <style type="text/css">*{stroke-linejoin: round; stroke-linecap: butt}</style>
 </defs>
 <g id="figure_1">
  <g id="patch_1">
   <path d="M 0 230.4 
L 504 230.4 
L 504 0 
L 0 0 
z
" style="fill: #ffffff"/>
  </g>
  <g id="axes_1">
   <g id="patch_2">
    <path d="M 54.442344 188.277656 
L 493.2 188.277656 
L 493.2 26.16 
L 54.442344 26.16 
z
" style="fill: #ffffff"/>
   </g>
   <g id="matplotlib.axis_1">
    <g id="xtick_1">
     <g id="line2d_1">
      <path d="M 74.38587 188.277656 
L 74.38587 26.16 
" clip-path="url(#p30fb212cc3)" style="fill: none; stroke: #b0b0b0; stroke-width: 0.8; stroke-linecap: square"/>
     </g>
     <g id="line2d_2">
      <defs>
       <path id="m49947c0f80" d="M 0 0 
L 0 3.5 
" style="stroke: #000000; stroke-width: 0.8"/>
      </defs>
      <g>
       <use xlink:href="#m49947c0f80" x="74.38587" y="188.277656" style="stroke: #000000; stroke-width: 0.8"/>
      </g>
     </g>
     <g id="text_1">
      <!-- 0 -->
      <g transform="translate(71.20462 202.875313) scale(0.1 -0.1)">
       <defs>
        <path id="DejaVuSans-13" d="M 2034 4250 
Q 1547 4250 1301 3770 
Q 1056 3291 1056 2328 
Q 1056 1369 1301 889 
Q 1547 409 2034 409 
Q 2525 409 2770 889 
Q 3016 1369 3016 2328 
Q 3016 3291 2770 3770 
Q 2525 4250 2034 4250 
z
M 2034 4750 
Q 2819 4750 3233 4129 
Q 3647 3509 3647 2328 
Q 3647 1150 3233 529 
Q 2819 -91 2034 -91 
Q 1250 -91 836 529 
Q 422 1150 422 2328 
Q 422 3509 836 4129 
Q 1250 4750 2034 4750 
z
" transform="scale(0.015625)"/>
       </defs>
       <use xlink:href="#DejaVuSans-13"/>
      </g>
     </g>
    </g>
    <g id="xtick_2">
     <g id="line2d_3">
      <path d="M 163.307737 188.277656 
L 163.307737 26.16 
" clip-path="url(#p30fb212cc3)" style="fill: none; stroke: #b0b0b0; stroke-width: 0.8; stroke-linecap: square"/>
     </g>
     <g id="line2d_4">
      <g>
       <use xlink:href="#m49947c0f80" x="163.307737" y="188.277656" style="stroke: #000000; stroke-width: 0.8"/>
      </g>
     </g>
     <g id="text_2">
      <!-- 10 -->
      <g transform="translate(156.945237 202.875313) scale(0.1 -0.1)">
       <defs>
        <path id="DejaVuSans-14" d="M 794 531 
L 1825 531 
L 1825 4091 
L 703 3866 
L 703 4441 
L 1819 4666 
L 2450 4666 
L 2450 531 
L 3481 531 
L 3481 0 
L 794 0 
L 794 531 
z
" transform="scale(0.015625)"/>
       </defs>
       <use xlink:href="#DejaVuSans-14"/>
       <use xlink:href="#DejaVuSans-13" transform="translate(63.625 0)"/>
      </g>
     </g>
    </g>
    <g id="xtick_3">
     <g id="line2d_5">
      <path d="M 252.229603 188.277656 
L 252.229603 26.16 
" clip-path="url(#p30fb212cc3)" style="fill: none; stroke: #b0b0b0; stroke-width: 0.8; stroke-linecap: square"/>
     </g>
     <g id="line2d_6">
      <g>
       <use xlink:href="#m49947c0f80" x="252.229603" y="188.277656" style="stroke: #000000; stroke-width: 0.8"/>
      </g>
     </g>
     <g id="text_3">
      <!-- 20 -->
      <g transform="translate(245.867103 202.875313) scale(0.1 -0.1)">
       <defs>
        <path id="DejaVuSans-15" d="M 1228 531 
L 3431 531 
L 3431 0 
L 469 0 
L 469 531 
Q 828 903 1448 1529 
Q 2069 2156 2228 2338 
Q 2531 2678 2651 2914 
Q 2772 3150 2772 3378 
Q 2772 3750 2511 3984 
Q 2250 4219 1831 4219 
Q 1534 4219 1204 4116 
Q 875 4013 500 3803 
L 500 4441 
Q 881 4594 1212 4672 
Q 1544 4750 1819 4750 
Q 2544 4750 2975 4387 
Q 3406 4025 3406 3419 
Q 3406 3131 3298 2873 
Q 3191 2616 2906 2266 
Q 2828 2175 2409 1742 
Q 1991 1309 1228 531 
z
" transform="scale(0.015625)"/>
       </defs>
       <use xlink:href="#DejaVuSans-15"/>
       <use xlink:href="#DejaVuSans-13" transform="translate(63.625 0)"/>
      </g>
     </g>
    </g>
    <g id="xtick_4">
     <g id="line2d_7">
      <path d="M 341.15147 188.277656 
L 341.15147 26.16 
" clip-path="url(#p30fb212cc3)" style="fill: none; stroke: #b0b0b0; stroke-width: 0.8; stroke-linecap: square"/>
     </g>
     <g id="line2d_8">
      <g>
       <use xlink:href="#m49947c0f80" x="341.15147" y="188.277656" style="stroke: #000000; stroke-width: 0.8"/>
      </g>
     </g>
     <g id="text_4">
      <!-- 30 -->
      <g transform="translate(334.78897 202.875313) scale(0.1 -0.1)">
       <defs>
        <path id="DejaVuSans-16" d="M 2597 2516 
Q 3050 2419 3304 2112 
Q 3559 1806 3559 1356 
Q 3559 666 3084 287 
Q 2609 -91 1734 -91 
Q 1441 -91 1130 -33 
Q 819 25 488 141 
L 488 750 
Q 750 597 1062 519 
Q 1375 441 1716 441 
Q 2309 441 2620 675 
Q 2931 909 2931 1356 
Q 2931 1769 2642 2001 
Q 2353 2234 1838 2234 
L 1294 2234 
L 1294 2753 
L 1863 2753 
Q 2328 2753 2575 2939 
Q 2822 3125 2822 3475 
Q 2822 3834 2567 4026 
Q 2313 4219 1838 4219 
Q 1578 4219 1281 4162 
Q 984 4106 628 3988 
L 628 4550 
Q 988 4650 1302 4700 
Q 1616 4750 1894 4750 
Q 2613 4750 3031 4423 
Q 3450 4097 3450 3541 
Q 3450 3153 3228 2886 
Q 3006 2619 2597 2516 
z
" transform="scale(0.015625)"/>
       </defs>
       <use xlink:href="#DejaVuSans-16"/>
       <use xlink:href="#DejaVuSans-13" transform="translate(63.625 0)"/>
      </g>
     </g>
    </g>
    <g id="xtick_5">
     <g id="line2d_9">
      <path d="M 430.073337 188.277656 
L 430.073337 26.16 
" clip-path="url(#p30fb212cc3)" style="fill: none; stroke: #b0b0b0; stroke-width: 0.8; stroke-linecap: square"/>
     </g>
     <g id="line2d_10">
      <g>
       <use xlink:href="#m49947c0f80" x="430.073337" y="188.277656" style="stroke: #000000; stroke-width: 0.8"/>
      </g>
     </g>
     <g id="text_5">
      <!-- 40 -->
      <g transform="translate(423.710837 202.875313) scale(0.1 -0.1)">
       <defs>
        <path id="DejaVuSans-17" d="M 2419 4116 
L 825 1625 
L 2419 1625 
L 2419 4116 
z
M 2253 4666 
L 3047 4666 
L 3047 1625 
L 3713 1625 
L 3713 1100 
L 3047 1100 
L 3047 0 
L 2419 0 
L 2419 1100 
L 313 1100 
L 313 1709 
L 2253 4666 
z
" transform="scale(0.015625)"/>
       </defs>
       <use xlink:href="#DejaVuSans-17"/>
       <use xlink:href="#DejaVuSans-13" transform="translate(63.625 0)"/>
      </g>
     </g>
    </g>
    <g id="text_6">
     <!-- t (s) -->
     <g transform="translate(263.765703 216.875313) scale(0.1 -0.1)">
      <defs>
       <path id="DejaVuSans-57" d="M 1172 4494 
L 1172 3500 
L 2356 3500 
L 2356 3053 
L 1172 3053 
L 1172 1153 
Q 1172 725 1289 603 
Q 1406 481 1766 481 
L 2356 481 
L 2356 0 
L 1766 0 
Q 1100 0 847 248 
Q 594 497 594 1153 
L 594 3053 
L 172 3053 
L 172 3500 
L 594 3500 
L 594 4494 
L 1172 4494 
z
" transform="scale(0.015625)"/>
       <path id="DejaVuSans-3" transform="scale(0.015625)"/>
       <path id="DejaVuSans-b" d="M 1984 4856 
Q 1566 4138 1362 3434 
Q 1159 2731 1159 2009 
Q 1159 1288 1364 580 
Q 1569 -128 1984 -844 
L 1484 -844 
Q 1016 -109 783 600 
Q 550 1309 550 2009 
Q 550 2706 781 3412 
Q 1013 4119 1484 4856 
L 1984 4856 
z
" transform="scale(0.015625)"/>
       <path id="DejaVuSans-56" d="M 2834 3397 
L 2834 2853 
Q 2591 2978 2328 3040 
Q 2066 3103 1784 3103 
Q 1356 3103 1142 2972 
Q 928 2841 928 2578 
Q 928 2378 1081 2264 
Q 1234 2150 1697 2047 
L 1894 2003 
Q 2506 1872 2764 1633 
Q 3022 1394 3022 966 
Q 3022 478 2636 193 
Q 2250 -91 1575 -91 
Q 1294 -91 989 -36 
Q 684 19 347 128 
L 347 722 
Q 666 556 975 473 
Q 1284 391 1588 391 
Q 1994 391 2212 530 
Q 2431 669 2431 922 
Q 2431 1156 2273 1281 
Q 2116 1406 1581 1522 
L 1381 1569 
Q 847 1681 609 1914 
Q 372 2147 372 2553 
Q 372 3047 722 3315 
Q 1072 3584 1716 3584 
Q 2034 3584 2315 3537 
Q 2597 3491 2834 3397 
z
" transform="scale(0.015625)"/>
       <path id="DejaVuSans-c" d="M 513 4856 
L 1013 4856 
Q 1481 4119 1714 3412 
Q 1947 2706 1947 2009 
Q 1947 1309 1714 600 
Q 1481 -109 1013 -844 
L 513 -844 
Q 928 -128 1133 580 
Q 1338 1288 1338 2009 
Q 1338 2731 1133 3434 
Q 928 4138 513 4856 
z
" transform="scale(0.015625)"/>
      </defs>
      <use xlink:href="#DejaVuSans-57"/>
      <use xlink:href="#DejaVuSans-3" transform="translate(39.203125 0)"/>
      <use xlink:href="#DejaVuSans-b" transform="translate(70.984375 0)"/>
      <use xlink:href="#DejaVuSans-56" transform="translate(110 0)"/>
      <use xlink:href="#DejaVuSans-c" transform="translate(162.09375 0)"/>
     </g>
    </g>
   </g>
   <g id="matplotlib.axis_2">
    <g id="ytick_1">
     <g id="line2d_11">
      <path d="M 54.442344 156.115118 
L 493.2 156.115118 
" clip-path="url(#p30fb212cc3)" style="fill: none; stroke: #b0b0b0; stroke-width: 0.8; stroke-linecap: square"/>
     </g>
     <g id="line2d_12">
      <defs>
       <path id="m0c14498f56" d="M 0 0 
L -3.5 0 
" style="stroke: #000000; stroke-width: 0.8"/>
      </defs>
      <g>
       <use xlink:href="#m0c14498f56" x="54.442344" y="156.115118" style="stroke: #000000; stroke-width: 0.8"/>
      </g>
     </g>
     <g id="text_7">
      <!-- 0.02 -->
      <g transform="translate(25.176719 159.913946) scale(0.1 -0.1)">
       <defs>
        <path id="DejaVuSans-11" d="M 684 794 
L 1344 794 
L 1344 0 
L 684 0 
L 684 794 
z
" transform="scale(0.015625)"/>
       </defs>
       <use xlink:href="#DejaVuSans-13"/>
       <use xlink:href="#DejaVuSans-11" transform="translate(63.625 0)"/>
       <use xlink:href="#DejaVuSans-13" transform="translate(95.40625 0)"/>
       <use xlink:href="#DejaVuSans-15" transform="translate(159.03125 0)"/>
      </g>
     </g>
    </g>
    <g id="ytick_2">
     <g id="line2d_13">
      <path d="M 54.442344 118.994295 
L 493.2 118.994295 
" clip-path="url(#p30fb212cc3)" style="fill: none; stroke: #b0b0b0; stroke-width: 0.8; stroke-linecap: square"/>
     </g>
     <g id="line2d_14">
      <g>
       <use xlink:href="#m0c14498f56" x="54.442344" y="118.994295" style="stroke: #000000; stroke-width: 0.8"/>
      </g>
     </g>
     <g id="text_8">
      <!-- 0.04 -->
      <g transform="translate(25.176719 122.793124) scale(0.1 -0.1)">
       <use xlink:href="#DejaVuSans-13"/>
       <use xlink:href="#DejaVuSans-11" transform="translate(63.625 0)"/>
       <use xlink:href="#DejaVuSans-13" transform="translate(95.40625 0)"/>
       <use xlink:href="#DejaVuSans-17" transform="translate(159.03125 0)"/>
      </g>
     </g>
    </g>
    <g id="ytick_3">
     <g id="line2d_15">
      <path d="M 54.442344 81.873473 
L 493.2 81.873473 
" clip-path="url(#p30fb212cc3)" style="fill: none; stroke: #b0b0b0; stroke-width: 0.8; stroke-linecap: square"/>
     </g>
     <g id="line2d_16">
      <g>
       <use xlink:href="#m0c14498f56" x="54.442344" y="81.873473" style="stroke: #000000; stroke-width: 0.8"/>
      </g>
     </g>
     <g id="text_9">
      <!-- 0.06 -->
      <g transform="translate(25.176719 85.672301) scale(0.1 -0.1)">
       <defs>
        <path id="DejaVuSans-19" d="M 2113 2584 
Q 1688 2584 1439 2293 
Q 1191 2003 1191 1497 
Q 1191 994 1439 701 
Q 1688 409 2113 409 
Q 2538 409 2786 701 
Q 3034 994 3034 1497 
Q 3034 2003 2786 2293 
Q 2538 2584 2113 2584 
z
M 3366 4563 
L 3366 3988 
Q 3128 4100 2886 4159 
Q 2644 4219 2406 4219 
Q 1781 4219 1451 3797 
Q 1122 3375 1075 2522 
Q 1259 2794 1537 2939 
Q 1816 3084 2150 3084 
Q 2853 3084 3261 2657 
Q 3669 2231 3669 1497 
Q 3669 778 3244 343 
Q 2819 -91 2113 -91 
Q 1303 -91 875 529 
Q 447 1150 447 2328 
Q 447 3434 972 4092 
Q 1497 4750 2381 4750 
Q 2619 4750 2861 4703 
Q 3103 4656 3366 4563 
z
" transform="scale(0.015625)"/>
       </defs>
       <use xlink:href="#DejaVuSans-13"/>
       <use xlink:href="#DejaVuSans-11" transform="translate(63.625 0)"/>
       <use xlink:href="#DejaVuSans-13" transform="translate(95.40625 0)"/>
       <use xlink:href="#DejaVuSans-19" transform="translate(159.03125 0)"/>
      </g>
     </g>
    </g>
    <g id="ytick_4">
     <g id="line2d_17">
      <path d="M 54.442344 44.752651 
L 493.2 44.752651 
" clip-path="url(#p30fb212cc3)" style="fill: none; stroke: #b0b0b0; stroke-width: 0.8; stroke-linecap: square"/>
     </g>
     <g id="line2d_18">
      <g>
       <use xlink:href="#m0c14498f56" x="54.442344" y="44.752651" style="stroke: #000000; stroke-width: 0.8"/>
      </g>
     </g>
     <g id="text_10">
      <!-- 0.08 -->
      <g transform="translate(25.176719 48.551479) scale(0.1 -0.1)">
       <defs>
        <path id="DejaVuSans-1b" d="M 2034 2216 
Q 1584 2216 1326 1975 
Q 1069 1734 1069 1313 
Q 1069 891 1326 650 
Q 1584 409 2034 409 
Q 2484 409 2743 651 
Q 3003 894 3003 1313 
Q 3003 1734 2745 1975 
Q 2488 2216 2034 2216 
z
M 1403 2484 
Q 997 2584 770 2862 
Q 544 3141 544 3541 
Q 544 4100 942 4425 
Q 1341 4750 2034 4750 
Q 2731 4750 3128 4425 
Q 3525 4100 3525 3541 
Q 3525 3141 3298 2862 
Q 3072 2584 2669 2484 
Q 3125 2378 3379 2068 
Q 3634 1759 3634 1313 
Q 3634 634 3220 271 
Q 2806 -91 2034 -91 
Q 1263 -91 848 271 
Q 434 634 434 1313 
Q 434 1759 690 2068 
Q 947 2378 1403 2484 
z
M 1172 3481 
Q 1172 3119 1398 2916 
Q 1625 2713 2034 2713 
Q 2441 2713 2670 2916 
Q 2900 3119 2900 3481 
Q 2900 3844 2670 4047 
Q 2441 4250 2034 4250 
Q 1625 4250 1398 4047 
Q 1172 3844 1172 3481 
z
" transform="scale(0.015625)"/>
       </defs>
       <use xlink:href="#DejaVuSans-13"/>
       <use xlink:href="#DejaVuSans-11" transform="translate(63.625 0)"/>
       <use xlink:href="#DejaVuSans-13" transform="translate(95.40625 0)"/>
       <use xlink:href="#DejaVuSans-1b" transform="translate(159.03125 0)"/>
      </g>
     </g>
    </g>
    <g id="text_11">
     <!-- Time (s) -->
     <g transform="translate(18.774375 127.550078) rotate(-90) scale(0.1 -0.1)">
      <defs>
       <path id="DejaVuSans-37" d="M -19 4666 
L 3928 4666 
L 3928 4134 
L 2272 4134 
L 2272 0 
L 1638 0 
L 1638 4134 
L -19 4134 
L -19 4666 
z
" transform="scale(0.015625)"/>
       <path id="DejaVuSans-4c" d="M 603 3500 
L 1178 3500 
L 1178 0 
L 603 0 
L 603 3500 
z
M 603 4863 
L 1178 4863 
L 1178 4134 
L 603 4134 
L 603 4863 
z
" transform="scale(0.015625)"/>
       <path id="DejaVuSans-50" d="M 3328 2828 
Q 3544 3216 3844 3400 
Q 4144 3584 4550 3584 
Q 5097 3584 5394 3201 
Q 5691 2819 5691 2113 
L 5691 0 
L 5113 0 
L 5113 2094 
Q 5113 2597 4934 2840 
Q 4756 3084 4391 3084 
Q 3944 3084 3684 2787 
Q 3425 2491 3425 1978 
L 3425 0 
L 2847 0 
L 2847 2094 
Q 2847 2600 2669 2842 
Q 2491 3084 2119 3084 
Q 1678 3084 1418 2786 
Q 1159 2488 1159 1978 
L 1159 0 
L 581 0 
L 581 3500 
L 1159 3500 
L 1159 2956 
Q 1356 3278 1631 3431 
Q 1906 3584 2284 3584 
Q 2666 3584 2933 3390 
Q 3200 3197 3328 2828 
z
" transform="scale(0.015625)"/>
       <path id="DejaVuSans-48" d="M 3597 1894 
L 3597 1613 
L 953 1613 
Q 991 1019 1311 708 
Q 1631 397 2203 397 
Q 2534 397 2845 478 
Q 3156 559 3463 722 
L 3463 178 
Q 3153 47 2828 -22 
Q 2503 -91 2169 -91 
Q 1331 -91 842 396 
Q 353 884 353 1716 
Q 353 2575 817 3079 
Q 1281 3584 2069 3584 
Q 2775 3584 3186 3129 
Q 3597 2675 3597 1894 
z
M 3022 2063 
Q 3016 2534 2758 2815 
Q 2500 3097 2075 3097 
Q 1594 3097 1305 2825 
Q 1016 2553 972 2059 
L 3022 2063 
z
" transform="scale(0.015625)"/>
      </defs>
      <use xlink:href="#DejaVuSans-37"/>
      <use xlink:href="#DejaVuSans-4c" transform="translate(58 0)"/>
      <use xlink:href="#DejaVuSans-50" transform="translate(85.78125 0)"/>
      <use xlink:href="#DejaVuSans-48" transform="translate(183.1875 0)"/>
      <use xlink:href="#DejaVuSans-3" transform="translate(244.71875 0)"/>
      <use xlink:href="#DejaVuSans-b" transform="translate(276.5 0)"/>
      <use xlink:href="#DejaVuSans-56" transform="translate(315.515625 0)"/>
      <use xlink:href="#DejaVuSans-c" transform="translate(367.609375 0)"/>
     </g>
    </g>
   </g>
   <g id="line2d_19">
    <path d="M 74.385874 177.915991 
L 75.177432 178.720214 
L 76.955775 178.674741 
L 77.844763 179.216148 
L 78.734304 178.831576 
L 79.62321 180.908672 
L 80.514024 179.676261 
L 81.401701 179.773146 
L 82.291132 178.128322 
L 83.1801 174.576416 
L 84.071886 176.201937 
L 84.960475 178.604026 
L 85.848848 178.897095 
L 86.746013 177.361406 
L 87.626557 180.516862 
L 89.404695 179.042423 
L 90.294245 179.2013 
L 91.183377 178.534795 
L 92.072489 180.326246 
L 92.961697 179.497895 
L 93.850777 179.240833 
L 94.740122 179.384305 
L 95.629476 179.90177 
L 96.518457 179.852399 
L 97.407713 179.61928 
L 98.296952 180.008678 
L 99.186272 179.593296 
L 100.0755 179.52852 
L 100.96534 179.784282 
L 101.853853 180.386753 
L 102.742971 180.45654 
L 103.63214 179.979167 
L 104.521396 172.137393 
L 105.412169 173.619442 
L 106.299662 173.09975 
L 107.188892 173.38224 
L 108.078531 174.213375 
L 108.96822 170.095562 
L 109.856726 173.866666 
L 110.746565 171.96144 
L 111.635009 172.782367 
L 112.524214 175.393075 
L 113.413499 174.470808 
L 114.302971 173.071538 
L 115.192128 174.189803 
L 116.081382 173.997703 
L 117.859794 174.04132 
L 118.749033 172.056469 
L 119.638251 173.603851 
L 120.527158 173.356626 
L 121.416678 170.196716 
L 122.306718 173.951302 
L 123.195156 172.986346 
L 124.084584 172.787007 
L 124.973547 175.291735 
L 125.862748 175.564944 
L 126.752112 131.698897 
L 127.641351 148.962678 
L 128.530276 155.553665 
L 129.419652 146.77292 
L 130.309787 169.010706 
L 131.198542 164.899575 
L 132.087479 164.124492 
L 132.976976 169.173666 
L 134.755315 172.020833 
L 135.644191 171.792169 
L 136.533476 168.559688 
L 137.42271 164.258498 
L 138.312584 167.789431 
L 139.201179 170.706942 
L 140.090366 149.649599 
L 141.275653 174.668105 
L 142.165128 176.639777 
L 143.054632 176.264115 
L 143.943604 178.004896 
L 144.832935 172.896514 
L 145.722023 174.300794 
L 146.611719 177.125318 
L 147.500806 175.084044 
L 148.38979 174.899182 
L 149.279422 177.227771 
L 150.168569 176.785105 
L 151.057805 175.202645 
L 151.947471 171.719041 
L 152.835775 176.303834 
L 153.72524 175.938379 
L 154.614126 173.921419 
L 155.503928 174.326593 
L 156.393295 176.694531 
L 158.17151 175.660716 
L 159.061029 175.777832 
L 159.949799 176.450647 
L 160.839142 175.382309 
L 161.728652 171.960512 
L 162.617549 176.053268 
L 163.507251 176.722928 
L 164.396206 177.597123 
L 165.284866 177.873117 
L 166.17425 172.281236 
L 167.064023 176.047515 
L 167.952957 178.163216 
L 169.731229 178.006937 
L 170.620302 175.849475 
L 171.50997 176.14607 
L 172.398696 177.830057 
L 173.287874 176.907418 
L 174.177599 178.940897 
L 175.066624 177.782727 
L 175.955707 178.440323 
L 176.845399 177.25654 
L 177.734099 175.399571 
L 178.623298 179.102929 
L 179.513088 165.968469 
L 180.402393 166.680446 
L 181.291601 165.79066 
L 182.180566 158.642303 
L 183.06949 173.725978 
L 183.958724 169.637862 
L 184.848432 169.838129 
L 185.738475 168.155628 
L 186.626887 171.360268 
L 187.515718 169.488822 
L 188.40532 167.10715 
L 189.294538 166.835054 
L 190.183728 165.140303 
L 191.073857 170.781184 
L 191.961827 161.900398 
L 192.851381 164.540431 
L 193.740349 140.71703 
L 194.629644 128.427253 
L 195.815163 33.528984 
L 197.297332 150.522124 
L 198.186467 156.062592 
L 199.075987 176.667432 
L 199.964977 176.223839 
L 200.854223 174.963587 
L 201.743184 174.985673 
L 202.632856 177.570396 
L 203.522256 172.835635 
L 204.411247 177.275286 
L 205.300708 177.259138 
L 206.189157 177.048292 
L 207.078662 175.640856 
L 207.968147 176.239429 
L 208.857845 174.1473 
L 209.746043 177.159654 
L 210.635994 177.385535 
L 211.526235 175.865437 
L 212.414379 173.231529 
L 213.303474 172.51287 
L 214.192764 175.912209 
L 215.082063 175.743495 
L 215.970828 176.287872 
L 216.860052 162.139271 
L 217.749492 176.924494 
L 218.639624 176.448605 
L 219.527981 177.714611 
L 220.41694 177.782913 
L 221.306504 177.717024 
L 222.195304 177.5394 
L 223.08485 177.940305 
L 223.973603 177.397413 
L 225.751942 177.071678 
L 226.641402 177.37013 
L 227.530872 175.09054 
L 228.420544 177.74672 
L 229.309599 175.682988 
L 230.198361 98.232619 
L 231.384133 161.567981 
L 232.273245 164.385451 
L 233.162734 169.167913 
L 234.05223 169.18406 
L 234.940699 168.559131 
L 235.829926 168.664925 
L 236.719675 170.784524 
L 237.608859 171.68025 
L 238.497607 170.894588 
L 239.387258 165.713634 
L 240.276873 166.904656 
L 241.165528 172.972055 
L 242.055213 172.25321 
L 242.946025 154.721231 
L 243.833314 177.170234 
L 244.722334 167.215914 
L 245.908126 172.403364 
L 246.797154 172.869601 
L 247.687732 172.142775 
L 248.575526 172.008769 
L 249.464902 173.144109 
L 250.354254 172.995626 
L 251.243575 178.314298 
L 252.132478 176.771927 
L 253.021715 169.077895 
L 253.911112 174.057467 
L 254.800223 176.330932 
L 255.689779 171.28844 
L 256.579119 171.762844 
L 257.468305 170.842804 
L 258.357298 176.977391 
L 259.246187 175.155501 
L 260.135846 172.293486 
L 261.024851 169.870795 
L 261.913741 177.195476 
L 262.803696 177.900772 
L 263.692518 178.117186 
L 264.581652 179.478221 
L 265.471185 173.489519 
L 266.360798 174.674601 
L 267.249846 178.444777 
L 268.139097 174.433687 
L 269.028443 178.187716 
L 269.917123 175.988492 
L 270.806692 170.772089 
L 271.695832 178.098811 
L 272.584746 179.233038 
L 273.474033 177.447526 
L 274.363144 176.988342 
L 275.252235 178.923079 
L 277.031108 179.245102 
L 277.920795 164.432224 
L 278.809698 164.014614 
L 279.698453 162.662674 
L 280.588393 160.429485 
L 281.476743 169.891026 
L 282.366558 169.888613 
L 283.255956 171.152392 
L 284.144569 165.795671 
L 285.035635 172.290887 
L 285.923344 170.873243 
L 286.812236 165.783236 
L 287.701886 169.306559 
L 288.590458 168.759769 
L 289.479784 168.652861 
L 290.368687 164.560847 
L 291.258439 157.554478 
L 292.147432 136.918456 
L 293.333318 134.56945 
L 294.519189 116.139147 
L 295.704836 125.411186 
L 296.890495 157.603848 
L 297.779422 175.38862 
L 298.66918 175.798619 
L 299.557557 178.768285 
L 300.447247 176.68061 
L 301.338229 177.594711 
L 302.225456 177.831541 
L 303.114634 177.827458 
L 304.003709 177.122905 
L 304.892916 174.263859 
L 305.781986 174.308404 
L 306.671546 176.720144 
L 307.560744 176.828908 
L 308.449982 178.411925 
L 309.33953 176.450832 
L 310.228558 176.638849 
L 311.117692 176.133635 
L 312.007067 175.908868 
L 312.895966 177.564643 
L 313.785057 172.5344 
L 314.674343 176.536953 
L 315.564056 161.147959 
L 316.453023 177.055531 
L 317.342123 178.241541 
L 318.231363 177.511745 
L 319.120454 177.761197 
L 320.899486 177.576892 
L 321.788281 175.220834 
L 322.678191 178.639662 
L 323.567036 176.186903 
L 324.457128 178.106421 
L 325.345448 178.530341 
L 326.234496 177.852329 
L 327.123697 177.765095 
L 328.013195 177.477965 
L 328.90218 168.225972 
L 329.791187 163.831052 
L 330.680319 161.616424 
L 331.569772 158.233603 
L 332.45923 173.196079 
L 333.348177 170.159967 
L 334.237333 169.381172 
L 335.127546 165.212503 
L 336.312229 171.943993 
L 337.201251 172.823014 
L 338.090676 157.155986 
L 339.276572 169.565105 
L 340.165315 168.91512 
L 341.054599 170.195231 
L 341.943827 172.488927 
L 342.833246 166.23147 
L 343.722948 166.696408 
L 344.612321 177.095992 
L 345.501139 177.171904 
L 346.391904 175.410521 
L 347.279303 172.142404 
L 348.168664 166.908925 
L 349.058073 177.598423 
L 349.94894 171.130119 
L 351.134477 176.163332 
L 352.022098 177.280297 
L 352.911231 176.724598 
L 353.800132 177.598051 
L 354.689629 177.327812 
L 355.578979 172.416541 
L 356.46829 176.101711 
L 357.357721 174.488254 
L 358.247402 171.45604 
L 359.137546 174.83088 
L 360.02495 176.765617 
L 360.914571 175.626193 
L 361.803722 163.314516 
L 362.989936 175.816066 
L 363.878631 174.519807 
L 364.767553 176.260959 
L 365.659137 167.423605 
L 366.843497 167.176009 
L 368.030006 177.436947 
L 368.917631 172.89243 
L 369.806711 173.083788 
L 370.700117 176.537695 
L 371.589398 178.105122 
L 372.478216 177.50098 
L 373.366726 172.864218 
L 374.553207 177.473325 
L 375.441472 176.422064 
L 376.331236 179.825672 
L 377.220038 179.536129 
L 378.109222 176.595418 
L 380.776898 145.816131 
L 381.962748 150.82373 
L 382.852502 170.494054 
L 383.741163 170.113009 
L 384.630053 171.82001 
L 385.519317 166.100619 
L 386.409625 172.181938 
L 387.29874 168.763667 
L 388.187204 168.246574 
L 389.076133 164.522613 
L 389.965421 171.959398 
L 390.854848 168.278126 
L 391.744262 142.124094 
L 392.633003 162.833987 
L 393.522435 129.341539 
L 394.708212 140.82765 
L 396.487081 161.290317 
L 398.264834 173.133159 
L 399.153911 174.758865 
L 400.043819 176.040647 
L 401.821838 177.712755 
L 402.710979 176.802367 
L 403.600065 177.529935 
L 404.48952 176.793457 
L 405.378547 166.551637 
L 406.268124 171.987053 
L 407.157676 175.965292 
L 408.046966 174.68054 
L 408.935984 177.628119 
L 409.826457 170.328681 
L 410.71381 175.498498 
L 411.603773 177.117151 
L 412.493363 176.324622 
L 414.270917 177.8772 
L 415.160257 177.779758 
L 416.049498 159.981994 
L 416.938694 177.610301 
L 417.828222 178.98637 
L 418.716801 178.786846 
L 419.606062 177.054231 
L 420.495508 179.349041 
L 421.384559 178.628897 
L 423.163716 178.718358 
L 424.052261 173.932741 
L 424.942076 177.942161 
L 425.831155 179.16919 
L 426.721442 176.9631 
L 427.609344 178.031437 
L 428.498551 175.698579 
L 429.38778 161.41263 
L 430.276903 155.092068 
L 431.166536 155.28157 
L 432.055413 150.958479 
L 432.944892 170.708612 
L 433.833917 164.917022 
L 434.723009 172.559828 
L 435.612682 172.609384 
L 436.501513 172.416541 
L 437.390812 169.439637 
L 438.279859 165.054554 
L 439.169434 166.760627 
L 440.058361 172.541639 
L 440.94812 169.268324 
L 441.836931 133.316251 
L 443.022871 175.360408 
L 443.911358 171.657235 
L 444.800737 171.971277 
L 445.690021 169.723426 
L 446.57984 173.919192 
L 447.468614 175.52077 
L 448.360079 175.160327 
L 449.246865 177.624222 
L 450.136089 178.216113 
L 451.025315 178.427887 
L 451.914853 175.596497 
L 452.804576 171.711617 
L 453.693507 177.16448 
L 454.581875 176.653512 
L 455.471283 173.97079 
L 456.361174 172.468325 
L 457.249923 173.70352 
L 458.139028 177.360107 
L 459.028345 175.916478 
L 460.806978 177.850102 
L 461.696357 177.956453 
L 462.585116 177.642411 
L 463.47446 176.262073 
L 464.364232 178.394664 
L 465.25346 176.96941 
L 466.142502 179.001961 
L 467.031811 178.759562 
L 467.921148 178.095285 
L 468.811486 179.459475 
L 469.70007 178.696271 
L 470.588485 175.582947 
L 471.477747 178.675669 
L 472.366969 178.2137 
L 473.25647 175.062885 
L 473.25647 175.062885 
" clip-path="url(#p30fb212cc3)" style="fill: none; stroke: #1f77b4; stroke-width: 1.5; stroke-linecap: square"/>
   </g>
   <g id="patch_3">
    <path d="M 54.442344 188.277656 
L 54.442344 26.16 
" style="fill: none; stroke: #000000; stroke-width: 0.8; stroke-linejoin: miter; stroke-linecap: square"/>
   </g>
   <g id="patch_4">
    <path d="M 493.2 188.277656 
L 493.2 26.16 
" style="fill: none; stroke: #000000; stroke-width: 0.8; stroke-linejoin: miter; stroke-linecap: square"/>
   </g>
   <g id="patch_5">
    <path d="M 54.442344 188.277656 
L 493.2 188.277656 
" style="fill: none; stroke: #000000; stroke-width: 0.8; stroke-linejoin: miter; stroke-linecap: square"/>
   </g>
   <g id="patch_6">
    <path d="M 54.442344 26.16 
L 493.2 26.16 
" style="fill: none; stroke: #000000; stroke-width: 0.8; stroke-linejoin: miter; stroke-linecap: square"/>
   </g>
   <g id="text_12">
    <!-- Computational Time -->
    <g transform="translate(213.048672 20.16) scale(0.12 -0.12)">
     <defs>
      <path id="DejaVuSans-26" d="M 4122 4306 
L 4122 3641 
Q 3803 3938 3442 4084 
Q 3081 4231 2675 4231 
Q 1875 4231 1450 3742 
Q 1025 3253 1025 2328 
Q 1025 1406 1450 917 
Q 1875 428 2675 428 
Q 3081 428 3442 575 
Q 3803 722 4122 1019 
L 4122 359 
Q 3791 134 3420 21 
Q 3050 -91 2638 -91 
Q 1578 -91 968 557 
Q 359 1206 359 2328 
Q 359 3453 968 4101 
Q 1578 4750 2638 4750 
Q 3056 4750 3426 4639 
Q 3797 4528 4122 4306 
z
" transform="scale(0.015625)"/>
      <path id="DejaVuSans-52" d="M 1959 3097 
Q 1497 3097 1228 2736 
Q 959 2375 959 1747 
Q 959 1119 1226 758 
Q 1494 397 1959 397 
Q 2419 397 2687 759 
Q 2956 1122 2956 1747 
Q 2956 2369 2687 2733 
Q 2419 3097 1959 3097 
z
M 1959 3584 
Q 2709 3584 3137 3096 
Q 3566 2609 3566 1747 
Q 3566 888 3137 398 
Q 2709 -91 1959 -91 
Q 1206 -91 779 398 
Q 353 888 353 1747 
Q 353 2609 779 3096 
Q 1206 3584 1959 3584 
z
" transform="scale(0.015625)"/>
      <path id="DejaVuSans-53" d="M 1159 525 
L 1159 -1331 
L 581 -1331 
L 581 3500 
L 1159 3500 
L 1159 2969 
Q 1341 3281 1617 3432 
Q 1894 3584 2278 3584 
Q 2916 3584 3314 3078 
Q 3713 2572 3713 1747 
Q 3713 922 3314 415 
Q 2916 -91 2278 -91 
Q 1894 -91 1617 61 
Q 1341 213 1159 525 
z
M 3116 1747 
Q 3116 2381 2855 2742 
Q 2594 3103 2138 3103 
Q 1681 3103 1420 2742 
Q 1159 2381 1159 1747 
Q 1159 1113 1420 752 
Q 1681 391 2138 391 
Q 2594 391 2855 752 
Q 3116 1113 3116 1747 
z
" transform="scale(0.015625)"/>
      <path id="DejaVuSans-58" d="M 544 1381 
L 544 3500 
L 1119 3500 
L 1119 1403 
Q 1119 906 1312 657 
Q 1506 409 1894 409 
Q 2359 409 2629 706 
Q 2900 1003 2900 1516 
L 2900 3500 
L 3475 3500 
L 3475 0 
L 2900 0 
L 2900 538 
Q 2691 219 2414 64 
Q 2138 -91 1772 -91 
Q 1169 -91 856 284 
Q 544 659 544 1381 
z
M 1991 3584 
L 1991 3584 
z
" transform="scale(0.015625)"/>
      <path id="DejaVuSans-44" d="M 2194 1759 
Q 1497 1759 1228 1600 
Q 959 1441 959 1056 
Q 959 750 1161 570 
Q 1363 391 1709 391 
Q 2188 391 2477 730 
Q 2766 1069 2766 1631 
L 2766 1759 
L 2194 1759 
z
M 3341 1997 
L 3341 0 
L 2766 0 
L 2766 531 
Q 2569 213 2275 61 
Q 1981 -91 1556 -91 
Q 1019 -91 701 211 
Q 384 513 384 1019 
Q 384 1609 779 1909 
Q 1175 2209 1959 2209 
L 2766 2209 
L 2766 2266 
Q 2766 2663 2505 2880 
Q 2244 3097 1772 3097 
Q 1472 3097 1187 3025 
Q 903 2953 641 2809 
L 641 3341 
Q 956 3463 1253 3523 
Q 1550 3584 1831 3584 
Q 2591 3584 2966 3190 
Q 3341 2797 3341 1997 
z
" transform="scale(0.015625)"/>
      <path id="DejaVuSans-51" d="M 3513 2113 
L 3513 0 
L 2938 0 
L 2938 2094 
Q 2938 2591 2744 2837 
Q 2550 3084 2163 3084 
Q 1697 3084 1428 2787 
Q 1159 2491 1159 1978 
L 1159 0 
L 581 0 
L 581 3500 
L 1159 3500 
L 1159 2956 
Q 1366 3272 1645 3428 
Q 1925 3584 2291 3584 
Q 2894 3584 3203 3211 
Q 3513 2838 3513 2113 
z
" transform="scale(0.015625)"/>
      <path id="DejaVuSans-4f" d="M 603 4863 
L 1178 4863 
L 1178 0 
L 603 0 
L 603 4863 
z
" transform="scale(0.015625)"/>
     </defs>
     <use xlink:href="#DejaVuSans-26"/>
     <use xlink:href="#DejaVuSans-52" transform="translate(69.828125 0)"/>
     <use xlink:href="#DejaVuSans-50" transform="translate(131.015625 0)"/>
     <use xlink:href="#DejaVuSans-53" transform="translate(228.421875 0)"/>
     <use xlink:href="#DejaVuSans-58" transform="translate(291.90625 0)"/>
     <use xlink:href="#DejaVuSans-57" transform="translate(355.28125 0)"/>
     <use xlink:href="#DejaVuSans-44" transform="translate(394.484375 0)"/>
     <use xlink:href="#DejaVuSans-57" transform="translate(455.765625 0)"/>
     <use xlink:href="#DejaVuSans-4c" transform="translate(494.96875 0)"/>
     <use xlink:href="#DejaVuSans-52" transform="translate(522.75 0)"/>
     <use xlink:href="#DejaVuSans-51" transform="translate(583.9375 0)"/>
     <use xlink:href="#DejaVuSans-44" transform="translate(647.3125 0)"/>
     <use xlink:href="#DejaVuSans-4f" transform="translate(708.59375 0)"/>
     <use xlink:href="#DejaVuSans-3" transform="translate(736.375 0)"/>
     <use xlink:href="#DejaVuSans-37" transform="translate(768.15625 0)"/>
     <use xlink:href="#DejaVuSans-4c" transform="translate(826.15625 0)"/>
     <use xlink:href="#DejaVuSans-50" transform="translate(853.9375 0)"/>
     <use xlink:href="#DejaVuSans-48" transform="translate(951.34375 0)"/>
    </g>
   </g>
   <g id="legend_1">
    <g id="patch_7">
     <path d="M 431.6 49.160781 
L 486.2 49.160781 
Q 488.2 49.160781 488.2 47.160781 
L 488.2 33.16 
Q 488.2 31.16 486.2 31.16 
L 431.6 31.16 
Q 429.6 31.16 429.6 33.16 
L 429.6 47.160781 
Q 429.6 49.160781 431.6 49.160781 
z
" style="fill: #ffffff; opacity: 0.8; stroke: #cccccc; stroke-linejoin: miter"/>
    </g>
    <g id="line2d_20">
     <path d="M 433.6 39.258438 
L 443.6 39.258438 
L 453.6 39.258438 
" style="fill: none; stroke: #1f77b4; stroke-width: 1.5; stroke-linecap: square"/>
    </g>
    <g id="text_13">
     <!-- $t_{solve}$ -->
     <g transform="translate(461.6 42.758438) scale(0.1 -0.1)">
      <defs>
       <path id="DejaVuSans-Oblique-57" d="M 2706 3500 
L 2619 3053 
L 1472 3053 
L 1100 1153 
Q 1081 1047 1072 975 
Q 1063 903 1063 863 
Q 1063 663 1183 572 
Q 1303 481 1569 481 
L 2150 481 
L 2053 0 
L 1503 0 
Q 991 0 739 200 
Q 488 400 488 806 
Q 488 878 497 964 
Q 506 1050 525 1153 
L 897 3053 
L 409 3053 
L 500 3500 
L 978 3500 
L 1172 4494 
L 1747 4494 
L 1556 3500 
L 2706 3500 
z
" transform="scale(0.015625)"/>
       <path id="DejaVuSans-Oblique-56" d="M 3200 3397 
L 3091 2853 
Q 2863 2978 2609 3040 
Q 2356 3103 2088 3103 
Q 1634 3103 1373 2948 
Q 1113 2794 1113 2528 
Q 1113 2219 1719 2053 
Q 1766 2041 1788 2034 
L 1972 1978 
Q 2547 1819 2739 1644 
Q 2931 1469 2931 1166 
Q 2931 609 2489 259 
Q 2047 -91 1331 -91 
Q 1053 -91 747 -37 
Q 441 16 72 128 
L 184 722 
Q 500 559 806 475 
Q 1113 391 1394 391 
Q 1816 391 2080 572 
Q 2344 753 2344 1031 
Q 2344 1331 1650 1516 
L 1591 1531 
L 1394 1581 
Q 956 1697 753 1886 
Q 550 2075 550 2369 
Q 550 2928 970 3256 
Q 1391 3584 2113 3584 
Q 2397 3584 2667 3537 
Q 2938 3491 3200 3397 
z
" transform="scale(0.015625)"/>
       <path id="DejaVuSans-Oblique-52" d="M 1625 -91 
Q 1009 -91 651 289 
Q 294 669 294 1325 
Q 294 1706 417 2101 
Q 541 2497 738 2766 
Q 1047 3184 1428 3384 
Q 1809 3584 2291 3584 
Q 2888 3584 3255 3212 
Q 3622 2841 3622 2241 
Q 3622 1825 3500 1412 
Q 3378 1000 3181 728 
Q 2875 309 2494 109 
Q 2113 -91 1625 -91 
z
M 891 1344 
Q 891 869 1089 633 
Q 1288 397 1691 397 
Q 2269 397 2648 901 
Q 3028 1406 3028 2181 
Q 3028 2634 2825 2865 
Q 2622 3097 2228 3097 
Q 1903 3097 1650 2945 
Q 1397 2794 1197 2484 
Q 1050 2253 970 1956 
Q 891 1659 891 1344 
z
" transform="scale(0.015625)"/>
       <path id="DejaVuSans-Oblique-4f" d="M 1172 4863 
L 1747 4863 
L 800 0 
L 225 0 
L 1172 4863 
z
" transform="scale(0.015625)"/>
       <path id="DejaVuSans-Oblique-59" d="M 459 3500 
L 1069 3500 
L 1581 525 
L 3256 3500 
L 3866 3500 
L 1875 0 
L 1100 0 
L 459 3500 
z
" transform="scale(0.015625)"/>
       <path id="DejaVuSans-Oblique-48" d="M 3078 2063 
Q 3088 2113 3092 2166 
Q 3097 2219 3097 2272 
Q 3097 2653 2873 2875 
Q 2650 3097 2266 3097 
Q 1838 3097 1509 2826 
Q 1181 2556 1013 2059 
L 3078 2063 
z
M 3578 1613 
L 903 1613 
Q 884 1494 878 1425 
Q 872 1356 872 1306 
Q 872 872 1139 634 
Q 1406 397 1894 397 
Q 2269 397 2603 481 
Q 2938 566 3225 728 
L 3116 159 
Q 2806 34 2476 -28 
Q 2147 -91 1806 -91 
Q 1078 -91 686 257 
Q 294 606 294 1247 
Q 294 1794 489 2264 
Q 684 2734 1063 3103 
Q 1306 3334 1642 3459 
Q 1978 3584 2356 3584 
Q 2950 3584 3301 3228 
Q 3653 2872 3653 2272 
Q 3653 2128 3634 1964 
Q 3616 1800 3578 1613 
z
" transform="scale(0.015625)"/>
      </defs>
      <use xlink:href="#DejaVuSans-Oblique-57" transform="translate(0 0.78125)"/>
      <use xlink:href="#DejaVuSans-Oblique-56" transform="translate(39.208984 -14.218701) scale(0.7)"/>
      <use xlink:href="#DejaVuSans-Oblique-52" transform="translate(75.678711 -14.218701) scale(0.7)"/>
      <use xlink:href="#DejaVuSans-Oblique-4f" transform="translate(118.505859 -14.218701) scale(0.7)"/>
      <use xlink:href="#DejaVuSans-Oblique-59" transform="translate(137.954102 -14.218701) scale(0.7)"/>
      <use xlink:href="#DejaVuSans-Oblique-48" transform="translate(179.379883 -14.218701) scale(0.7)"/>
     </g>
    </g>
   </g>
  </g>
 </g>
 <defs>
  <clipPath id="p30fb212cc3">
   <rect x="54.442344" y="26.16" width="438.757656" height="162.117656"/>
  </clipPath>
 </defs>
</svg>
