<?xml version="1.0" encoding="utf-8" standalone="no"?>
<!DOCTYPE svg PUBLIC "-//W3C//DTD SVG 1.1//EN"
  "http://www.w3.org/Graphics/SVG/1.1/DTD/svg11.dtd">
<svg xmlns:xlink="http://www.w3.org/1999/xlink" width="504pt" height="230.4pt" viewBox="0 0 504 230.4" xmlns="http://www.w3.org/2000/svg" version="1.1">
 <metadata>
  <rdf:RDF xmlns:dc="http://purl.org/dc/elements/1.1/" xmlns:cc="http://creativecommons.org/ns#" xmlns:rdf="http://www.w3.org/1999/02/22-rdf-syntax-ns#">
   <cc:Work>
    <dc:type rdf:resource="http://purl.org/dc/dcmitype/StillImage"/>
    <dc:date>2026-07-09T12:39:05.144884</dc:date>
    <dc:format>image/svg+xml</dc:format>
    <dc:creator>
     <cc:Agent>
      <dc:title>Matplotlib v3.11.0, https://matplotlib.org/</dc:title>
     </cc:Agent>
    </dc:creator>
   </cc:Work>
  </rdf:RDF>
 </metadata>
 <defs>
  <style type="text/css">*{stroke-linejoin: round; stroke-linecap: butt}</style>
 </defs>
 <g id="figure_1">
  <g id="patch_1">
   <path d="M 0 230.4 
L 504 230.4 
L 504 0 
L 0 0 
z
" style="fill: #ffffff"/>
  </g>
  <g id="axes_1">
   <g id="patch_2">
    <path d="M 60.922344 188.277656 
L 491.188209 188.277656 
L 491.188209 26.16 
L 60.922344 26.16 
z
" style="fill: #ffffff"/>
   </g>
   <g id="matplotlib.axis_1">
    <g id="xtick_1">
     <g id="line2d_1">
      <path d="M 80.479875 188.277656 
L 80.479875 26.16 
" clip-path="url(#p07b7e004c3)" style="fill: none; stroke: #b0b0b0; stroke-width: 0.8; stroke-linecap: square"/>
     </g>
     <g id="line2d_2">
      <defs>
       <path id="m8f518f4ee4" d="M 0 0 
L 0 3.5 
" style="stroke: #000000; stroke-width: 0.8"/>
      </defs>
      <g>
       <use xlink:href="#m8f518f4ee4" x="80.479875" y="188.277656" style="stroke: #000000; stroke-width: 0.8"/>
      </g>
     </g>
     <g id="text_1">
      <!-- 0 -->
      <g transform="translate(77.298625 202.875313) scale(0.1 -0.1)">
       <defs>
        <path id="DejaVuSans-13" d="M 2034 4250 
Q 1547 4250 1301 3770 
Q 1056 3291 1056 2328 
Q 1056 1369 1301 889 
Q 1547 409 2034 409 
Q 2525 409 2770 889 
Q 3016 1369 3016 2328 
Q 3016 3291 2770 3770 
Q 2525 4250 2034 4250 
z
M 2034 4750 
Q 2819 4750 3233 4129 
Q 3647 3509 3647 2328 
Q 3647 1150 3233 529 
Q 2819 -91 2034 -91 
Q 1250 -91 836 529 
Q 422 1150 422 2328 
Q 422 3509 836 4129 
Q 1250 4750 2034 4750 
z
" transform="scale(0.015625)"/>
       </defs>
       <use xlink:href="#DejaVuSans-13"/>
      </g>
     </g>
    </g>
    <g id="xtick_2">
     <g id="line2d_3">
      <path d="M 161.63715 188.277656 
L 161.63715 26.16 
" clip-path="url(#p07b7e004c3)" style="fill: none; stroke: #b0b0b0; stroke-width: 0.8; stroke-linecap: square"/>
     </g>
     <g id="line2d_4">
      <g>
       <use xlink:href="#m8f518f4ee4" x="161.63715" y="188.277656" style="stroke: #000000; stroke-width: 0.8"/>
      </g>
     </g>
     <g id="text_2">
      <!-- 5 -->
      <g transform="translate(158.4559 202.875313) scale(0.1 -0.1)">
       <defs>
        <path id="DejaVuSans-18" d="M 691 4666 
L 3169 4666 
L 3169 4134 
L 1269 4134 
L 1269 2991 
Q 1406 3038 1543 3061 
Q 1681 3084 1819 3084 
Q 2600 3084 3056 2656 
Q 3513 2228 3513 1497 
Q 3513 744 3044 326 
Q 2575 -91 1722 -91 
Q 1428 -91 1123 -41 
Q 819 9 494 109 
L 494 744 
Q 775 591 1075 516 
Q 1375 441 1709 441 
Q 2250 441 2565 725 
Q 2881 1009 2881 1497 
Q 2881 1984 2565 2268 
Q 2250 2553 1709 2553 
Q 1456 2553 1204 2497 
Q 953 2441 691 2322 
L 691 4666 
z
" transform="scale(0.015625)"/>
       </defs>
       <use xlink:href="#DejaVuSans-18"/>
      </g>
     </g>
    </g>
    <g id="xtick_3">
     <g id="line2d_5">
      <path d="M 242.794424 188.277656 
L 242.794424 26.16 
" clip-path="url(#p07b7e004c3)" style="fill: none; stroke: #b0b0b0; stroke-width: 0.8; stroke-linecap: square"/>
     </g>
     <g id="line2d_6">
      <g>
       <use xlink:href="#m8f518f4ee4" x="242.794424" y="188.277656" style="stroke: #000000; stroke-width: 0.8"/>
      </g>
     </g>
     <g id="text_3">
      <!-- 10 -->
      <g transform="translate(236.431924 202.875313) scale(0.1 -0.1)">
       <defs>
        <path id="DejaVuSans-14" d="M 794 531 
L 1825 531 
L 1825 4091 
L 703 3866 
L 703 4441 
L 1819 4666 
L 2450 4666 
L 2450 531 
L 3481 531 
L 3481 0 
L 794 0 
L 794 531 
z
" transform="scale(0.015625)"/>
       </defs>
       <use xlink:href="#DejaVuSans-14"/>
       <use xlink:href="#DejaVuSans-13" transform="translate(63.625 0)"/>
      </g>
     </g>
    </g>
    <g id="xtick_4">
     <g id="line2d_7">
      <path d="M 323.951699 188.277656 
L 323.951699 26.16 
" clip-path="url(#p07b7e004c3)" style="fill: none; stroke: #b0b0b0; stroke-width: 0.8; stroke-linecap: square"/>
     </g>
     <g id="line2d_8">
      <g>
       <use xlink:href="#m8f518f4ee4" x="323.951699" y="188.277656" style="stroke: #000000; stroke-width: 0.8"/>
      </g>
     </g>
     <g id="text_4">
      <!-- 15 -->
      <g transform="translate(317.589199 202.875313) scale(0.1 -0.1)">
       <use xlink:href="#DejaVuSans-14"/>
       <use xlink:href="#DejaVuSans-18" transform="translate(63.625 0)"/>
      </g>
     </g>
    </g>
    <g id="xtick_5">
     <g id="line2d_9">
      <path d="M 405.108974 188.277656 
L 405.108974 26.16 
" clip-path="url(#p07b7e004c3)" style="fill: none; stroke: #b0b0b0; stroke-width: 0.8; stroke-linecap: square"/>
     </g>
     <g id="line2d_10">
      <g>
       <use xlink:href="#m8f518f4ee4" x="405.108974" y="188.277656" style="stroke: #000000; stroke-width: 0.8"/>
      </g>
     </g>
     <g id="text_5">
      <!-- 20 -->
      <g transform="translate(398.746474 202.875313) scale(0.1 -0.1)">
       <defs>
        <path id="DejaVuSans-15" d="M 1228 531 
L 3431 531 
L 3431 0 
L 469 0 
L 469 531 
Q 828 903 1448 1529 
Q 2069 2156 2228 2338 
Q 2531 2678 2651 2914 
Q 2772 3150 2772 3378 
Q 2772 3750 2511 3984 
Q 2250 4219 1831 4219 
Q 1534 4219 1204 4116 
Q 875 4013 500 3803 
L 500 4441 
Q 881 4594 1212 4672 
Q 1544 4750 1819 4750 
Q 2544 4750 2975 4387 
Q 3406 4025 3406 3419 
Q 3406 3131 3298 2873 
Q 3191 2616 2906 2266 
Q 2828 2175 2409 1742 
Q 1991 1309 1228 531 
z
" transform="scale(0.015625)"/>
       </defs>
       <use xlink:href="#DejaVuSans-15"/>
       <use xlink:href="#DejaVuSans-13" transform="translate(63.625 0)"/>
      </g>
     </g>
    </g>
    <g id="xtick_6">
     <g id="line2d_11">
      <path d="M 486.266248 188.277656 
L 486.266248 26.16 
" clip-path="url(#p07b7e004c3)" style="fill: none; stroke: #b0b0b0; stroke-width: 0.8; stroke-linecap: square"/>
     </g>
     <g id="line2d_12">
      <g>
       <use xlink:href="#m8f518f4ee4" x="486.266248" y="188.277656" style="stroke: #000000; stroke-width: 0.8"/>
      </g>
     </g>
     <g id="text_6">
      <!-- 25 -->
      <g transform="translate(479.903748 202.875313) scale(0.1 -0.1)">
       <use xlink:href="#DejaVuSans-15"/>
       <use xlink:href="#DejaVuSans-18" transform="translate(63.625 0)"/>
      </g>
     </g>
    </g>
    <g id="text_7">
     <!-- t (s) -->
     <g transform="translate(265.999808 216.875313) scale(0.1 -0.1)">
      <defs>
       <path id="DejaVuSans-57" d="M 1172 4494 
L 1172 3500 
L 2356 3500 
L 2356 3053 
L 1172 3053 
L 1172 1153 
Q 1172 725 1289 603 
Q 1406 481 1766 481 
L 2356 481 
L 2356 0 
L 1766 0 
Q 1100 0 847 248 
Q 594 497 594 1153 
L 594 3053 
L 172 3053 
L 172 3500 
L 594 3500 
L 594 4494 
L 1172 4494 
z
" transform="scale(0.015625)"/>
       <path id="DejaVuSans-3" transform="scale(0.015625)"/>
       <path id="DejaVuSans-b" d="M 1984 4856 
Q 1566 4138 1362 3434 
Q 1159 2731 1159 2009 
Q 1159 1288 1364 580 
Q 1569 -128 1984 -844 
L 1484 -844 
Q 1016 -109 783 600 
Q 550 1309 550 2009 
Q 550 2706 781 3412 
Q 1013 4119 1484 4856 
L 1984 4856 
z
" transform="scale(0.015625)"/>
       <path id="DejaVuSans-56" d="M 2834 3397 
L 2834 2853 
Q 2591 2978 2328 3040 
Q 2066 3103 1784 3103 
Q 1356 3103 1142 2972 
Q 928 2841 928 2578 
Q 928 2378 1081 2264 
Q 1234 2150 1697 2047 
L 1894 2003 
Q 2506 1872 2764 1633 
Q 3022 1394 3022 966 
Q 3022 478 2636 193 
Q 2250 -91 1575 -91 
Q 1294 -91 989 -36 
Q 684 19 347 128 
L 347 722 
Q 666 556 975 473 
Q 1284 391 1588 391 
Q 1994 391 2212 530 
Q 2431 669 2431 922 
Q 2431 1156 2273 1281 
Q 2116 1406 1581 1522 
L 1381 1569 
Q 847 1681 609 1914 
Q 372 2147 372 2553 
Q 372 3047 722 3315 
Q 1072 3584 1716 3584 
Q 2034 3584 2315 3537 
Q 2597 3491 2834 3397 
z
" transform="scale(0.015625)"/>
       <path id="DejaVuSans-c" d="M 513 4856 
L 1013 4856 
Q 1481 4119 1714 3412 
Q 1947 2706 1947 2009 
Q 1947 1309 1714 600 
Q 1481 -109 1013 -844 
L 513 -844 
Q 928 -128 1133 580 
Q 1338 1288 1338 2009 
Q 1338 2731 1133 3434 
Q 928 4138 513 4856 
z
" transform="scale(0.015625)"/>
      </defs>
      <use xlink:href="#DejaVuSans-57"/>
      <use xlink:href="#DejaVuSans-3" transform="translate(39.203125 0)"/>
      <use xlink:href="#DejaVuSans-b" transform="translate(70.984375 0)"/>
      <use xlink:href="#DejaVuSans-56" transform="translate(110 0)"/>
      <use xlink:href="#DejaVuSans-c" transform="translate(162.09375 0)"/>
     </g>
    </g>
   </g>
   <g id="matplotlib.axis_2">
    <g id="ytick_1">
     <g id="line2d_13">
      <path d="M 60.922344 182.111671 
L 491.188209 182.111671 
" clip-path="url(#p07b7e004c3)" style="fill: none; stroke: #b0b0b0; stroke-width: 0.8; stroke-linecap: square"/>
     </g>
     <g id="line2d_14">
      <defs>
       <path id="md6caf06a0f" d="M 0 0 
L -3.5 0 
" style="stroke: #000000; stroke-width: 0.8"/>
      </defs>
      <g>
       <use xlink:href="#md6caf06a0f" x="60.922344" y="182.111671" style="stroke: #000000; stroke-width: 0.8"/>
      </g>
     </g>
     <g id="text_8">
      <!-- 0.005 -->
      <g transform="translate(25.294219 185.910499) scale(0.1 -0.1)">
       <defs>
        <path id="DejaVuSans-11" d="M 684 794 
L 1344 794 
L 1344 0 
L 684 0 
L 684 794 
z
" transform="scale(0.015625)"/>
       </defs>
       <use xlink:href="#DejaVuSans-13"/>
       <use xlink:href="#DejaVuSans-11" transform="translate(63.625 0)"/>
       <use xlink:href="#DejaVuSans-13" transform="translate(95.40625 0)"/>
       <use xlink:href="#DejaVuSans-13" transform="translate(159.03125 0)"/>
       <use xlink:href="#DejaVuSans-18" transform="translate(222.65625 0)"/>
      </g>
     </g>
    </g>
    <g id="ytick_2">
     <g id="line2d_15">
      <path d="M 60.922344 155.925362 
L 491.188209 155.925362 
" clip-path="url(#p07b7e004c3)" style="fill: none; stroke: #b0b0b0; stroke-width: 0.8; stroke-linecap: square"/>
     </g>
     <g id="line2d_16">
      <g>
       <use xlink:href="#md6caf06a0f" x="60.922344" y="155.925362" style="stroke: #000000; stroke-width: 0.8"/>
      </g>
     </g>
     <g id="text_9">
      <!-- 0.010 -->
      <g transform="translate(25.294219 159.72419) scale(0.1 -0.1)">
       <use xlink:href="#DejaVuSans-13"/>
       <use xlink:href="#DejaVuSans-11" transform="translate(63.625 0)"/>
       <use xlink:href="#DejaVuSans-13" transform="translate(95.40625 0)"/>
       <use xlink:href="#DejaVuSans-14" transform="translate(159.03125 0)"/>
       <use xlink:href="#DejaVuSans-13" transform="translate(222.65625 0)"/>
      </g>
     </g>
    </g>
    <g id="ytick_3">
     <g id="line2d_17">
      <path d="M 60.922344 129.739054 
L 491.188209 129.739054 
" clip-path="url(#p07b7e004c3)" style="fill: none; stroke: #b0b0b0; stroke-width: 0.8; stroke-linecap: square"/>
     </g>
     <g id="line2d_18">
      <g>
       <use xlink:href="#md6caf06a0f" x="60.922344" y="129.739054" style="stroke: #000000; stroke-width: 0.8"/>
      </g>
     </g>
     <g id="text_10">
      <!-- 0.015 -->
      <g transform="translate(25.294219 133.537882) scale(0.1 -0.1)">
       <use xlink:href="#DejaVuSans-13"/>
       <use xlink:href="#DejaVuSans-11" transform="translate(63.625 0)"/>
       <use xlink:href="#DejaVuSans-13" transform="translate(95.40625 0)"/>
       <use xlink:href="#DejaVuSans-14" transform="translate(159.03125 0)"/>
       <use xlink:href="#DejaVuSans-18" transform="translate(222.65625 0)"/>
      </g>
     </g>
    </g>
    <g id="ytick_4">
     <g id="line2d_19">
      <path d="M 60.922344 103.552745 
L 491.188209 103.552745 
" clip-path="url(#p07b7e004c3)" style="fill: none; stroke: #b0b0b0; stroke-width: 0.8; stroke-linecap: square"/>
     </g>
     <g id="line2d_20">
      <g>
       <use xlink:href="#md6caf06a0f" x="60.922344" y="103.552745" style="stroke: #000000; stroke-width: 0.8"/>
      </g>
     </g>
     <g id="text_11">
      <!-- 0.020 -->
      <g transform="translate(25.294219 107.351573) scale(0.1 -0.1)">
       <use xlink:href="#DejaVuSans-13"/>
       <use xlink:href="#DejaVuSans-11" transform="translate(63.625 0)"/>
       <use xlink:href="#DejaVuSans-13" transform="translate(95.40625 0)"/>
       <use xlink:href="#DejaVuSans-15" transform="translate(159.03125 0)"/>
       <use xlink:href="#DejaVuSans-13" transform="translate(222.65625 0)"/>
      </g>
     </g>
    </g>
    <g id="ytick_5">
     <g id="line2d_21">
      <path d="M 60.922344 77.366436 
L 491.188209 77.366436 
" clip-path="url(#p07b7e004c3)" style="fill: none; stroke: #b0b0b0; stroke-width: 0.8; stroke-linecap: square"/>
     </g>
     <g id="line2d_22">
      <g>
       <use xlink:href="#md6caf06a0f" x="60.922344" y="77.366436" style="stroke: #000000; stroke-width: 0.8"/>
      </g>
     </g>
     <g id="text_12">
      <!-- 0.025 -->
      <g transform="translate(25.294219 81.165264) scale(0.1 -0.1)">
       <use xlink:href="#DejaVuSans-13"/>
       <use xlink:href="#DejaVuSans-11" transform="translate(63.625 0)"/>
       <use xlink:href="#DejaVuSans-13" transform="translate(95.40625 0)"/>
       <use xlink:href="#DejaVuSans-15" transform="translate(159.03125 0)"/>
       <use xlink:href="#DejaVuSans-18" transform="translate(222.65625 0)"/>
      </g>
     </g>
    </g>
    <g id="ytick_6">
     <g id="line2d_23">
      <path d="M 60.922344 51.180128 
L 491.188209 51.180128 
" clip-path="url(#p07b7e004c3)" style="fill: none; stroke: #b0b0b0; stroke-width: 0.8; stroke-linecap: square"/>
     </g>
     <g id="line2d_24">
      <g>
       <use xlink:href="#md6caf06a0f" x="60.922344" y="51.180128" style="stroke: #000000; stroke-width: 0.8"/>
      </g>
     </g>
     <g id="text_13">
      <!-- 0.030 -->
      <g transform="translate(25.294219 54.978956) scale(0.1 -0.1)">
       <defs>
        <path id="DejaVuSans-16" d="M 2597 2516 
Q 3050 2419 3304 2112 
Q 3559 1806 3559 1356 
Q 3559 666 3084 287 
Q 2609 -91 1734 -91 
Q 1441 -91 1130 -33 
Q 819 25 488 141 
L 488 750 
Q 750 597 1062 519 
Q 1375 441 1716 441 
Q 2309 441 2620 675 
Q 2931 909 2931 1356 
Q 2931 1769 2642 2001 
Q 2353 2234 1838 2234 
L 1294 2234 
L 1294 2753 
L 1863 2753 
Q 2328 2753 2575 2939 
Q 2822 3125 2822 3475 
Q 2822 3834 2567 4026 
Q 2313 4219 1838 4219 
Q 1578 4219 1281 4162 
Q 984 4106 628 3988 
L 628 4550 
Q 988 4650 1302 4700 
Q 1616 4750 1894 4750 
Q 2613 4750 3031 4423 
Q 3450 4097 3450 3541 
Q 3450 3153 3228 2886 
Q 3006 2619 2597 2516 
z
" transform="scale(0.015625)"/>
       </defs>
       <use xlink:href="#DejaVuSans-13"/>
       <use xlink:href="#DejaVuSans-11" transform="translate(63.625 0)"/>
       <use xlink:href="#DejaVuSans-13" transform="translate(95.40625 0)"/>
       <use xlink:href="#DejaVuSans-16" transform="translate(159.03125 0)"/>
       <use xlink:href="#DejaVuSans-13" transform="translate(222.65625 0)"/>
      </g>
     </g>
    </g>
    <g id="text_14">
     <!-- Solve time (s) -->
     <g transform="translate(18.891875 141.857891) rotate(-90) scale(0.1 -0.1)">
      <defs>
       <path id="DejaVuSans-36" d="M 3425 4513 
L 3425 3897 
Q 3066 4069 2747 4153 
Q 2428 4238 2131 4238 
Q 1616 4238 1336 4038 
Q 1056 3838 1056 3469 
Q 1056 3159 1242 3001 
Q 1428 2844 1947 2747 
L 2328 2669 
Q 3034 2534 3370 2195 
Q 3706 1856 3706 1288 
Q 3706 609 3251 259 
Q 2797 -91 1919 -91 
Q 1588 -91 1214 -16 
Q 841 59 441 206 
L 441 856 
Q 825 641 1194 531 
Q 1563 422 1919 422 
Q 2459 422 2753 634 
Q 3047 847 3047 1241 
Q 3047 1584 2836 1778 
Q 2625 1972 2144 2069 
L 1759 2144 
Q 1053 2284 737 2584 
Q 422 2884 422 3419 
Q 422 4038 858 4394 
Q 1294 4750 2059 4750 
Q 2388 4750 2728 4690 
Q 3069 4631 3425 4513 
z
" transform="scale(0.015625)"/>
       <path id="DejaVuSans-52" d="M 1959 3097 
Q 1497 3097 1228 2736 
Q 959 2375 959 1747 
Q 959 1119 1226 758 
Q 1494 397 1959 397 
Q 2419 397 2687 759 
Q 2956 1122 2956 1747 
Q 2956 2369 2687 2733 
Q 2419 3097 1959 3097 
z
M 1959 3584 
Q 2709 3584 3137 3096 
Q 3566 2609 3566 1747 
Q 3566 888 3137 398 
Q 2709 -91 1959 -91 
Q 1206 -91 779 398 
Q 353 888 353 1747 
Q 353 2609 779 3096 
Q 1206 3584 1959 3584 
z
" transform="scale(0.015625)"/>
       <path id="DejaVuSans-4f" d="M 603 4863 
L 1178 4863 
L 1178 0 
L 603 0 
L 603 4863 
z
" transform="scale(0.015625)"/>
       <path id="DejaVuSans-59" d="M 191 3500 
L 800 3500 
L 1894 563 
L 2988 3500 
L 3597 3500 
L 2284 0 
L 1503 0 
L 191 3500 
z
" transform="scale(0.015625)"/>
       <path id="DejaVuSans-48" d="M 3597 1894 
L 3597 1613 
L 953 1613 
Q 991 1019 1311 708 
Q 1631 397 2203 397 
Q 2534 397 2845 478 
Q 3156 559 3463 722 
L 3463 178 
Q 3153 47 2828 -22 
Q 2503 -91 2169 -91 
Q 1331 -91 842 396 
Q 353 884 353 1716 
Q 353 2575 817 3079 
Q 1281 3584 2069 3584 
Q 2775 3584 3186 3129 
Q 3597 2675 3597 1894 
z
M 3022 2063 
Q 3016 2534 2758 2815 
Q 2500 3097 2075 3097 
Q 1594 3097 1305 2825 
Q 1016 2553 972 2059 
L 3022 2063 
z
" transform="scale(0.015625)"/>
       <path id="DejaVuSans-4c" d="M 603 3500 
L 1178 3500 
L 1178 0 
L 603 0 
L 603 3500 
z
M 603 4863 
L 1178 4863 
L 1178 4134 
L 603 4134 
L 603 4863 
z
" transform="scale(0.015625)"/>
       <path id="DejaVuSans-50" d="M 3328 2828 
Q 3544 3216 3844 3400 
Q 4144 3584 4550 3584 
Q 5097 3584 5394 3201 
Q 5691 2819 5691 2113 
L 5691 0 
L 5113 0 
L 5113 2094 
Q 5113 2597 4934 2840 
Q 4756 3084 4391 3084 
Q 3944 3084 3684 2787 
Q 3425 2491 3425 1978 
L 3425 0 
L 2847 0 
L 2847 2094 
Q 2847 2600 2669 2842 
Q 2491 3084 2119 3084 
Q 1678 3084 1418 2786 
Q 1159 2488 1159 1978 
L 1159 0 
L 581 0 
L 581 3500 
L 1159 3500 
L 1159 2956 
Q 1356 3278 1631 3431 
Q 1906 3584 2284 3584 
Q 2666 3584 2933 3390 
Q 3200 3197 3328 2828 
z
" transform="scale(0.015625)"/>
      </defs>
      <use xlink:href="#DejaVuSans-36"/>
      <use xlink:href="#DejaVuSans-52" transform="translate(63.484375 0)"/>
      <use xlink:href="#DejaVuSans-4f" transform="translate(124.671875 0)"/>
      <use xlink:href="#DejaVuSans-59" transform="translate(152.453125 0)"/>
      <use xlink:href="#DejaVuSans-48" transform="translate(211.640625 0)"/>
      <use xlink:href="#DejaVuSans-3" transform="translate(273.171875 0)"/>
      <use xlink:href="#DejaVuSans-57" transform="translate(304.953125 0)"/>
      <use xlink:href="#DejaVuSans-4c" transform="translate(344.15625 0)"/>
      <use xlink:href="#DejaVuSans-50" transform="translate(371.9375 0)"/>
      <use xlink:href="#DejaVuSans-48" transform="translate(469.34375 0)"/>
      <use xlink:href="#DejaVuSans-3" transform="translate(530.875 0)"/>
      <use xlink:href="#DejaVuSans-b" transform="translate(562.65625 0)"/>
      <use xlink:href="#DejaVuSans-56" transform="translate(601.671875 0)"/>
      <use xlink:href="#DejaVuSans-c" transform="translate(653.765625 0)"/>
     </g>
    </g>
   </g>
   <g id="line2d_25">
    <path d="M 80.479883 174.397184 
L 81.523793 180.908672 
L 82.603623 170.704391 
L 83.685844 168.835736 
L 84.768344 169.974317 
L 85.850102 170.476046 
L 86.933232 171.142226 
L 88.014359 166.644466 
L 89.097339 164.834992 
L 90.178289 163.524629 
L 91.262591 163.72993 
L 92.344533 161.386255 
L 93.426002 164.777906 
L 94.508868 163.256481 
L 95.588978 164.442197 
L 96.671222 163.392126 
L 97.756154 161.327598 
L 98.843043 163.485349 
L 99.919995 163.10879 
L 100.999438 156.530266 
L 102.631516 165.154465 
L 103.70555 165.096331 
L 104.78761 166.898473 
L 105.871792 159.323298 
L 106.953355 166.297235 
L 108.043168 167.628547 
L 109.121449 168.535117 
L 110.203438 169.629181 
L 111.28325 166.146402 
L 112.362098 166.282571 
L 113.444405 161.465338 
L 114.531346 160.475495 
L 115.609056 163.580668 
L 116.693579 150.908066 
L 118.314285 164.07716 
L 119.397903 163.765543 
L 120.478587 166.900568 
L 121.560715 167.963208 
L 122.641545 168.025008 
L 123.727881 168.303107 
L 124.807831 168.25021 
L 125.889824 168.353908 
L 126.972956 173.839416 
L 128.052169 170.073301 
L 130.216895 174.431227 
L 131.299522 176.211372 
L 132.382762 170.035593 
L 133.463209 170.003646 
L 134.548311 167.433197 
L 135.629647 172.83229 
L 136.71133 172.670983 
L 137.792526 176.322402 
L 138.873677 171.812072 
L 139.95654 177.40023 
L 141.038258 168.19679 
L 142.12014 168.612105 
L 143.217107 165.634722 
L 144.286742 170.78714 
L 145.368953 170.491758 
L 146.460411 169.916707 
L 147.530499 169.084506 
L 148.619313 170.302693 
L 149.694399 169.63599 
L 150.778332 141.790517 
L 152.403731 125.038611 
L 154.028223 99.232004 
L 155.648127 109.800274 
L 157.273208 64.943651 
L 158.893873 101.21745 
L 160.516347 83.200746 
L 162.140575 138.340209 
L 163.763051 116.562103 
L 165.391626 156.420284 
L 166.467736 150.583879 
L 168.091679 144.710814 
L 169.714282 145.672899 
L 171.338556 143.428208 
L 172.960672 142.24773 
L 174.583563 146.203433 
L 176.207512 148.627762 
L 177.832186 118.536551 
L 179.455393 136.872204 
L 181.076052 110.580103 
L 182.699438 74.579166 
L 184.322453 96.350986 
L 185.945797 68.088627 
L 187.569389 75.994797 
L 189.191362 33.528984 
L 190.817267 137.099501 
L 192.439108 153.871832 
L 193.520761 133.98333 
L 195.14431 157.017855 
L 196.226169 148.763931 
L 197.849277 155.240852 
L 198.931884 157.928615 
L 200.013019 158.920028 
L 201.095929 165.677144 
L 202.177497 171.121277 
L 203.259437 162.609679 
L 205.423932 172.755826 
L 206.505601 163.89857 
L 208.129114 175.046605 
L 209.210966 175.892946 
L 210.293158 167.490807 
L 211.374833 168.405233 
L 212.457517 161.337549 
L 213.539522 166.892188 
L 214.621706 170.249797 
L 215.703683 171.348574 
L 216.785763 154.868483 
L 218.410687 157.599715 
L 220.034313 149.276135 
L 221.657562 148.812637 
L 223.28443 164.065114 
L 224.90156 168.210931 
L 225.983607 159.196032 
L 227.61016 165.370764 
L 229.233562 172.28552 
L 230.312362 161.239612 
L 231.936584 156.506698 
L 233.560387 158.686447 
L 235.181775 174.69309 
L 236.263604 172.123689 
L 237.345976 171.322388 
L 238.427765 168.639339 
L 239.51183 166.640276 
L 240.595074 163.087841 
L 242.215106 161.329169 
L 243.29815 172.205914 
L 244.379815 171.996424 
L 245.461127 174.452176 
L 246.543282 171.086188 
L 247.626378 168.753511 
L 248.707253 173.516277 
L 249.789998 174.974331 
L 250.873451 170.168096 
L 251.953575 171.10347 
L 253.035916 174.832401 
L 254.118007 174.92929 
L 255.200374 173.933687 
L 256.28228 175.684503 
L 257.36454 177.65738 
L 258.446838 169.521817 
L 259.528952 166.563288 
L 261.152669 178.225623 
L 262.234007 171.147464 
L 263.316414 175.765157 
L 264.398319 175.12045 
L 265.480137 174.077712 
L 266.563501 175.58709 
L 267.644655 173.014547 
L 269.268817 170.318929 
L 270.349989 159.028964 
L 271.97387 172.949605 
L 273.054972 173.076347 
L 274.137283 175.988788 
L 275.219624 176.064729 
L 276.301509 168.505265 
L 277.383199 170.290124 
L 278.465983 171.270015 
L 279.547879 163.303617 
L 280.6294 175.872521 
L 281.712053 173.989202 
L 282.794259 176.111864 
L 284.958177 175.541002 
L 286.040687 176.496803 
L 287.122075 174.725561 
L 288.204716 172.321134 
L 289.286642 174.434369 
L 290.368596 177.039907 
L 292.533119 171.672761 
L 294.156568 174.430703 
L 295.2377 171.318198 
L 296.319976 174.370474 
L 297.402403 177.037288 
L 298.485501 174.990042 
L 299.566144 171.710993 
L 300.648933 175.340939 
L 301.730954 175.351414 
L 302.813336 169.635466 
L 303.895406 175.686598 
L 304.977279 178.595373 
L 306.069383 170.919119 
L 307.151458 171.663857 
L 308.231637 175.739495 
L 309.313692 166.85029 
L 310.937684 174.768506 
L 313.100853 172.04932 
L 314.183288 175.296422 
L 315.268728 165.568208 
L 316.347899 176.608356 
L 317.429452 163.664464 
L 318.513876 174.386186 
L 319.593419 176.574838 
L 320.675722 173.481711 
L 321.760561 176.099818 
L 322.840005 175.676647 
L 323.92209 165.203695 
L 325.008997 136.811976 
L 326.629636 164.081874 
L 327.709456 164.605076 
L 328.791705 159.939723 
L 330.415066 160.028233 
L 331.500303 142.202165 
L 333.121546 143.968694 
L 334.743961 150.591211 
L 336.369681 146.322843 
L 337.991722 147.579262 
L 339.616798 141.748095 
L 341.237083 104.556728 
L 342.860833 92.93891 
L 344.485991 100.34597 
L 346.109419 100.670156 
L 349.355934 147.260836 
L 350.976617 147.841125 
L 352.602129 155.832663 
L 353.680841 153.261691 
L 355.304098 62.283646 
L 356.927021 169.163065 
L 358.009982 169.453209 
L 359.095156 155.738916 
L 360.717038 169.94813 
L 361.797146 151.818302 
L 363.420111 158.365926 
L 364.501913 173.226656 
L 365.587459 159.886827 
L 366.666474 176.217133 
L 367.748075 171.868111 
L 368.833037 174.637575 
L 369.912174 166.748164 
L 371.536813 158.211951 
L 373.159296 158.674401 
L 374.783105 152.990401 
L 376.406277 140.92375 
L 378.029077 172.726498 
L 379.110046 160.904427 
L 380.194525 151.103415 
L 381.818272 150.373341 
L 383.440855 146.616129 
L 385.065269 142.255062 
L 386.689262 151.177784 
L 388.312223 139.592962 
L 389.933193 136.705135 
L 391.557269 135.935782 
L 393.180172 147.257694 
L 394.802966 146.949743 
L 396.426372 155.159151 
L 398.048171 167.786189 
L 399.673317 169.9916 
L 400.751591 167.135721 
L 402.376079 83.514981 
L 403.998513 79.758294 
L 405.622177 49.864527 
L 407.245109 94.934831 
L 410.491443 159.419663 
L 411.57294 151.223872 
L 413.197301 157.596049 
L 414.819354 171.680617 
L 415.906978 163.501585 
L 417.528062 176.001881 
L 418.607021 170.990869 
L 420.230655 171.215024 
L 421.853216 165.866733 
L 423.477933 161.826185 
L 425.100471 168.646147 
L 426.722969 173.205707 
L 427.804422 174.391947 
L 428.890117 173.018737 
L 429.968825 173.479092 
L 431.051233 160.719552 
L 432.674495 173.651922 
L 433.759516 162.869971 
L 434.839117 173.183187 
L 435.920106 172.463587 
L 437.004253 171.16527 
L 438.085771 165.488602 
L 439.707992 168.273254 
L 440.790192 174.186123 
L 441.875451 168.305725 
L 443.496946 171.941432 
L 444.577274 168.84045 
L 446.200506 172.050367 
L 447.282304 173.832607 
L 448.367497 166.941942 
L 449.448014 167.746909 
L 450.529141 176.336019 
L 451.614048 170.174904 
L 452.693398 176.762855 
L 453.775307 169.363128 
L 454.858826 171.153225 
L 455.939096 169.136879 
L 457.564314 174.985853 
L 458.644225 167.812375 
L 460.269022 175.501199 
L 461.353005 164.711916 
L 462.974098 161.65964 
L 464.597412 161.913647 
L 466.222335 173.766094 
L 467.301597 170.600693 
L 468.383632 173.718435 
L 469.469854 169.097599 
L 470.548431 168.219834 
L 471.63067 172.088599 
L 471.63067 172.088599 
" clip-path="url(#p07b7e004c3)" style="fill: none; stroke: #1f77b4; stroke-width: 1.5; stroke-linecap: square"/>
   </g>
   <g id="patch_3">
    <path d="M 60.922344 188.277656 
L 60.922344 26.16 
" style="fill: none; stroke: #000000; stroke-width: 0.8; stroke-linejoin: miter; stroke-linecap: square"/>
   </g>
   <g id="patch_4">
    <path d="M 491.188209 188.277656 
L 491.188209 26.16 
" style="fill: none; stroke: #000000; stroke-width: 0.8; stroke-linejoin: miter; stroke-linecap: square"/>
   </g>
   <g id="patch_5">
    <path d="M 60.922344 188.277656 
L 491.188209 188.277656 
" style="fill: none; stroke: #000000; stroke-width: 0.8; stroke-linejoin: miter; stroke-linecap: square"/>
   </g>
   <g id="patch_6">
    <path d="M 60.922344 26.16 
L 491.188209 26.16 
" style="fill: none; stroke: #000000; stroke-width: 0.8; stroke-linejoin: miter; stroke-linecap: square"/>
   </g>
   <g id="text_15">
    <!-- Solver Time -->
    <g transform="translate(240.608402 20.16) scale(0.12 -0.12)">
     <defs>
      <path id="DejaVuSans-55" d="M 2631 2963 
Q 2534 3019 2420 3045 
Q 2306 3072 2169 3072 
Q 1681 3072 1420 2755 
Q 1159 2438 1159 1844 
L 1159 0 
L 581 0 
L 581 3500 
L 1159 3500 
L 1159 2956 
Q 1341 3275 1631 3429 
Q 1922 3584 2338 3584 
Q 2397 3584 2469 3576 
Q 2541 3569 2628 3553 
L 2631 2963 
z
" transform="scale(0.015625)"/>
      <path id="DejaVuSans-37" d="M -19 4666 
L 3928 4666 
L 3928 4134 
L 2272 4134 
L 2272 0 
L 1638 0 
L 1638 4134 
L -19 4134 
L -19 4666 
z
" transform="scale(0.015625)"/>
     </defs>
     <use xlink:href="#DejaVuSans-36"/>
     <use xlink:href="#DejaVuSans-52" transform="translate(63.484375 0)"/>
     <use xlink:href="#DejaVuSans-4f" transform="translate(124.671875 0)"/>
     <use xlink:href="#DejaVuSans-59" transform="translate(152.453125 0)"/>
     <use xlink:href="#DejaVuSans-48" transform="translate(211.640625 0)"/>
     <use xlink:href="#DejaVuSans-55" transform="translate(273.171875 0)"/>
     <use xlink:href="#DejaVuSans-3" transform="translate(314.28125 0)"/>
     <use xlink:href="#DejaVuSans-37" transform="translate(346.0625 0)"/>
     <use xlink:href="#DejaVuSans-4c" transform="translate(404.0625 0)"/>
     <use xlink:href="#DejaVuSans-50" transform="translate(431.84375 0)"/>
     <use xlink:href="#DejaVuSans-48" transform="translate(529.25 0)"/>
    </g>
   </g>
   <g id="legend_1">
    <g id="patch_7">
     <path d="M 429.588209 49.160781 
L 484.188209 49.160781 
Q 486.188209 49.160781 486.188209 47.160781 
L 486.188209 33.16 
Q 486.188209 31.16 484.188209 31.16 
L 429.588209 31.16 
Q 427.588209 31.16 427.588209 33.16 
L 427.588209 47.160781 
Q 427.588209 49.160781 429.588209 49.160781 
z
" style="fill: #ffffff; opacity: 0.8; stroke: #cccccc; stroke-linejoin: miter"/>
    </g>
    <g id="line2d_26">
     <path d="M 431.588209 39.258438 
L 441.588209 39.258438 
L 451.588209 39.258438 
" style="fill: none; stroke: #1f77b4; stroke-width: 1.5; stroke-linecap: square"/>
    </g>
    <g id="text_16">
     <!-- $t_{solve}$ -->
     <g transform="translate(459.588209 42.758438) scale(0.1 -0.1)">
      <defs>
       <path id="DejaVuSans-Oblique-57" d="M 2706 3500 
L 2619 3053 
L 1472 3053 
L 1100 1153 
Q 1081 1047 1072 975 
Q 1063 903 1063 863 
Q 1063 663 1183 572 
Q 1303 481 1569 481 
L 2150 481 
L 2053 0 
L 1503 0 
Q 991 0 739 200 
Q 488 400 488 806 
Q 488 878 497 964 
Q 506 1050 525 1153 
L 897 3053 
L 409 3053 
L 500 3500 
L 978 3500 
L 1172 4494 
L 1747 4494 
L 1556 3500 
L 2706 3500 
z
" transform="scale(0.015625)"/>
       <path id="DejaVuSans-Oblique-56" d="M 3200 3397 
L 3091 2853 
Q 2863 2978 2609 3040 
Q 2356 3103 2088 3103 
Q 1634 3103 1373 2948 
Q 1113 2794 1113 2528 
Q 1113 2219 1719 2053 
Q 1766 2041 1788 2034 
L 1972 1978 
Q 2547 1819 2739 1644 
Q 2931 1469 2931 1166 
Q 2931 609 2489 259 
Q 2047 -91 1331 -91 
Q 1053 -91 747 -37 
Q 441 16 72 128 
L 184 722 
Q 500 559 806 475 
Q 1113 391 1394 391 
Q 1816 391 2080 572 
Q 2344 753 2344 1031 
Q 2344 1331 1650 1516 
L 1591 1531 
L 1394 1581 
Q 956 1697 753 1886 
Q 550 2075 550 2369 
Q 550 2928 970 3256 
Q 1391 3584 2113 3584 
Q 2397 3584 2667 3537 
Q 2938 3491 3200 3397 
z
" transform="scale(0.015625)"/>
       <path id="DejaVuSans-Oblique-52" d="M 1625 -91 
Q 1009 -91 651 289 
Q 294 669 294 1325 
Q 294 1706 417 2101 
Q 541 2497 738 2766 
Q 1047 3184 1428 3384 
Q 1809 3584 2291 3584 
Q 2888 3584 3255 3212 
Q 3622 2841 3622 2241 
Q 3622 1825 3500 1412 
Q 3378 1000 3181 728 
Q 2875 309 2494 109 
Q 2113 -91 1625 -91 
z
M 891 1344 
Q 891 869 1089 633 
Q 1288 397 1691 397 
Q 2269 397 2648 901 
Q 3028 1406 3028 2181 
Q 3028 2634 2825 2865 
Q 2622 3097 2228 3097 
Q 1903 3097 1650 2945 
Q 1397 2794 1197 2484 
Q 1050 2253 970 1956 
Q 891 1659 891 1344 
z
" transform="scale(0.015625)"/>
       <path id="DejaVuSans-Oblique-4f" d="M 1172 4863 
L 1747 4863 
L 800 0 
L 225 0 
L 1172 4863 
z
" transform="scale(0.015625)"/>
       <path id="DejaVuSans-Oblique-59" d="M 459 3500 
L 1069 3500 
L 1581 525 
L 3256 3500 
L 3866 3500 
L 1875 0 
L 1100 0 
L 459 3500 
z
" transform="scale(0.015625)"/>
       <path id="DejaVuSans-Oblique-48" d="M 3078 2063 
Q 3088 2113 3092 2166 
Q 3097 2219 3097 2272 
Q 3097 2653 2873 2875 
Q 2650 3097 2266 3097 
Q 1838 3097 1509 2826 
Q 1181 2556 1013 2059 
L 3078 2063 
z
M 3578 1613 
L 903 1613 
Q 884 1494 878 1425 
Q 872 1356 872 1306 
Q 872 872 1139 634 
Q 1406 397 1894 397 
Q 2269 397 2603 481 
Q 2938 566 3225 728 
L 3116 159 
Q 2806 34 2476 -28 
Q 2147 -91 1806 -91 
Q 1078 -91 686 257 
Q 294 606 294 1247 
Q 294 1794 489 2264 
Q 684 2734 1063 3103 
Q 1306 3334 1642 3459 
Q 1978 3584 2356 3584 
Q 2950 3584 3301 3228 
Q 3653 2872 3653 2272 
Q 3653 2128 3634 1964 
Q 3616 1800 3578 1613 
z
" transform="scale(0.015625)"/>
      </defs>
      <use xlink:href="#DejaVuSans-Oblique-57" transform="translate(0 0.78125)"/>
      <use xlink:href="#DejaVuSans-Oblique-56" transform="translate(39.208984 -14.218701) scale(0.7)"/>
      <use xlink:href="#DejaVuSans-Oblique-52" transform="translate(75.678711 -14.218701) scale(0.7)"/>
      <use xlink:href="#DejaVuSans-Oblique-4f" transform="translate(118.505859 -14.218701) scale(0.7)"/>
      <use xlink:href="#DejaVuSans-Oblique-59" transform="translate(137.954102 -14.218701) scale(0.7)"/>
      <use xlink:href="#DejaVuSans-Oblique-48" transform="translate(179.379883 -14.218701) scale(0.7)"/>
     </g>
    </g>
   </g>
  </g>
 </g>
 <defs>
  <clipPath id="p07b7e004c3">
   <rect x="60.922344" y="26.16" width="430.265866" height="162.117656"/>
  </clipPath>
 </defs>
</svg>
