<?xml version="1.0" encoding="utf-8" standalone="no"?>
<!DOCTYPE svg PUBLIC "-//W3C//DTD SVG 1.1//EN"
  "http://www.w3.org/Graphics/SVG/1.1/DTD/svg11.dtd">
<svg xmlns:xlink="http://www.w3.org/1999/xlink" width="504pt" height="806.4pt" viewBox="0 0 504 806.4" xmlns="http://www.w3.org/2000/svg" version="1.1">
 <metadata>
  <rdf:RDF xmlns:dc="http://purl.org/dc/elements/1.1/" xmlns:cc="http://creativecommons.org/ns#" xmlns:rdf="http://www.w3.org/1999/02/22-rdf-syntax-ns#">
   <cc:Work>
    <dc:type rdf:resource="http://purl.org/dc/dcmitype/StillImage"/>
    <dc:date>2026-07-09T12:39:03.513088</dc:date>
    <dc:format>image/svg+xml</dc:format>
    <dc:creator>
     <cc:Agent>
      <dc:title>Matplotlib v3.11.0, https://matplotlib.org/</dc:title>
     </cc:Agent>
    </dc:creator>
   </cc:Work>
  </rdf:RDF>
 </metadata>
 <defs>
  <style type="text/css">*{stroke-linejoin: round; stroke-linecap: butt}</style>
 </defs>
 <g id="figure_1">
  <g id="patch_1">
   <path d="M 0 806.4 
L 504 806.4 
L 504 0 
L 0 0 
z
" style="fill: #ffffff"/>
  </g>
  <g id="axes_1">
   <g id="patch_2">
    <path d="M 42.28 184.677656 
L 491.188209 184.677656 
L 491.188209 48.96 
L 42.28 48.96 
z
" style="fill: #ffffff"/>
   </g>
   <g id="matplotlib.axis_1">
    <g id="xtick_1">
     <g id="line2d_1">
      <path d="M 62.68491 184.677656 
L 62.68491 48.96 
" clip-path="url(#p3f5451c819)" style="fill: none; stroke: #b0b0b0; stroke-width: 0.8; stroke-linecap: square"/>
     </g>
     <g id="line2d_2">
      <defs>
       <path id="m6add4e78d2" d="M 0 0 
L 0 3.5 
" style="stroke: #000000; stroke-width: 0.8"/>
      </defs>
      <g>
       <use xlink:href="#m6add4e78d2" x="62.68491" y="184.677656" style="stroke: #000000; stroke-width: 0.8"/>
      </g>
     </g>
     <g id="text_1">
      <!-- 0 -->
      <g transform="translate(59.50366 199.275313) scale(0.1 -0.1)">
       <defs>
        <path id="DejaVuSans-13" d="M 2034 4250 
Q 1547 4250 1301 3770 
Q 1056 3291 1056 2328 
Q 1056 1369 1301 889 
Q 1547 409 2034 409 
Q 2525 409 2770 889 
Q 3016 1369 3016 2328 
Q 3016 3291 2770 3770 
Q 2525 4250 2034 4250 
z
M 2034 4750 
Q 2819 4750 3233 4129 
Q 3647 3509 3647 2328 
Q 3647 1150 3233 529 
Q 2819 -91 2034 -91 
Q 1250 -91 836 529 
Q 422 1150 422 2328 
Q 422 3509 836 4129 
Q 1250 4750 2034 4750 
z
" transform="scale(0.015625)"/>
       </defs>
       <use xlink:href="#DejaVuSans-13"/>
      </g>
     </g>
    </g>
    <g id="xtick_2">
     <g id="line2d_3">
      <path d="M 147.358527 184.677656 
L 147.358527 48.96 
" clip-path="url(#p3f5451c819)" style="fill: none; stroke: #b0b0b0; stroke-width: 0.8; stroke-linecap: square"/>
     </g>
     <g id="line2d_4">
      <g>
       <use xlink:href="#m6add4e78d2" x="147.358527" y="184.677656" style="stroke: #000000; stroke-width: 0.8"/>
      </g>
     </g>
     <g id="text_2">
      <!-- 5 -->
      <g transform="translate(144.177277 199.275313) scale(0.1 -0.1)">
       <defs>
        <path id="DejaVuSans-18" d="M 691 4666 
L 3169 4666 
L 3169 4134 
L 1269 4134 
L 1269 2991 
Q 1406 3038 1543 3061 
Q 1681 3084 1819 3084 
Q 2600 3084 3056 2656 
Q 3513 2228 3513 1497 
Q 3513 744 3044 326 
Q 2575 -91 1722 -91 
Q 1428 -91 1123 -41 
Q 819 9 494 109 
L 494 744 
Q 775 591 1075 516 
Q 1375 441 1709 441 
Q 2250 441 2565 725 
Q 2881 1009 2881 1497 
Q 2881 1984 2565 2268 
Q 2250 2553 1709 2553 
Q 1456 2553 1204 2497 
Q 953 2441 691 2322 
L 691 4666 
z
" transform="scale(0.015625)"/>
       </defs>
       <use xlink:href="#DejaVuSans-18"/>
      </g>
     </g>
    </g>
    <g id="xtick_3">
     <g id="line2d_5">
      <path d="M 232.032143 184.677656 
L 232.032143 48.96 
" clip-path="url(#p3f5451c819)" style="fill: none; stroke: #b0b0b0; stroke-width: 0.8; stroke-linecap: square"/>
     </g>
     <g id="line2d_6">
      <g>
       <use xlink:href="#m6add4e78d2" x="232.032143" y="184.677656" style="stroke: #000000; stroke-width: 0.8"/>
      </g>
     </g>
     <g id="text_3">
      <!-- 10 -->
      <g transform="translate(225.669643 199.275313) scale(0.1 -0.1)">
       <defs>
        <path id="DejaVuSans-14" d="M 794 531 
L 1825 531 
L 1825 4091 
L 703 3866 
L 703 4441 
L 1819 4666 
L 2450 4666 
L 2450 531 
L 3481 531 
L 3481 0 
L 794 0 
L 794 531 
z
" transform="scale(0.015625)"/>
       </defs>
       <use xlink:href="#DejaVuSans-14"/>
       <use xlink:href="#DejaVuSans-13" transform="translate(63.625 0)"/>
      </g>
     </g>
    </g>
    <g id="xtick_4">
     <g id="line2d_7">
      <path d="M 316.705759 184.677656 
L 316.705759 48.96 
" clip-path="url(#p3f5451c819)" style="fill: none; stroke: #b0b0b0; stroke-width: 0.8; stroke-linecap: square"/>
     </g>
     <g id="line2d_8">
      <g>
       <use xlink:href="#m6add4e78d2" x="316.705759" y="184.677656" style="stroke: #000000; stroke-width: 0.8"/>
      </g>
     </g>
     <g id="text_4">
      <!-- 15 -->
      <g transform="translate(310.343259 199.275313) scale(0.1 -0.1)">
       <use xlink:href="#DejaVuSans-14"/>
       <use xlink:href="#DejaVuSans-18" transform="translate(63.625 0)"/>
      </g>
     </g>
    </g>
    <g id="xtick_5">
     <g id="line2d_9">
      <path d="M 401.379376 184.677656 
L 401.379376 48.96 
" clip-path="url(#p3f5451c819)" style="fill: none; stroke: #b0b0b0; stroke-width: 0.8; stroke-linecap: square"/>
     </g>
     <g id="line2d_10">
      <g>
       <use xlink:href="#m6add4e78d2" x="401.379376" y="184.677656" style="stroke: #000000; stroke-width: 0.8"/>
      </g>
     </g>
     <g id="text_5">
      <!-- 20 -->
      <g transform="translate(395.016876 199.275313) scale(0.1 -0.1)">
       <defs>
        <path id="DejaVuSans-15" d="M 1228 531 
L 3431 531 
L 3431 0 
L 469 0 
L 469 531 
Q 828 903 1448 1529 
Q 2069 2156 2228 2338 
Q 2531 2678 2651 2914 
Q 2772 3150 2772 3378 
Q 2772 3750 2511 3984 
Q 2250 4219 1831 4219 
Q 1534 4219 1204 4116 
Q 875 4013 500 3803 
L 500 4441 
Q 881 4594 1212 4672 
Q 1544 4750 1819 4750 
Q 2544 4750 2975 4387 
Q 3406 4025 3406 3419 
Q 3406 3131 3298 2873 
Q 3191 2616 2906 2266 
Q 2828 2175 2409 1742 
Q 1991 1309 1228 531 
z
" transform="scale(0.015625)"/>
       </defs>
       <use xlink:href="#DejaVuSans-15"/>
       <use xlink:href="#DejaVuSans-13" transform="translate(63.625 0)"/>
      </g>
     </g>
    </g>
    <g id="xtick_6">
     <g id="line2d_11">
      <path d="M 486.052992 184.677656 
L 486.052992 48.96 
" clip-path="url(#p3f5451c819)" style="fill: none; stroke: #b0b0b0; stroke-width: 0.8; stroke-linecap: square"/>
     </g>
     <g id="line2d_12">
      <g>
       <use xlink:href="#m6add4e78d2" x="486.052992" y="184.677656" style="stroke: #000000; stroke-width: 0.8"/>
      </g>
     </g>
     <g id="text_6">
      <!-- 25 -->
      <g transform="translate(479.690492 199.275313) scale(0.1 -0.1)">
       <use xlink:href="#DejaVuSans-15"/>
       <use xlink:href="#DejaVuSans-18" transform="translate(63.625 0)"/>
      </g>
     </g>
    </g>
    <g id="text_7">
     <!-- t (s) -->
     <g transform="translate(256.678636 213.275313) scale(0.1 -0.1)">
      <defs>
       <path id="DejaVuSans-57" d="M 1172 4494 
L 1172 3500 
L 2356 3500 
L 2356 3053 
L 1172 3053 
L 1172 1153 
Q 1172 725 1289 603 
Q 1406 481 1766 481 
L 2356 481 
L 2356 0 
L 1766 0 
Q 1100 0 847 248 
Q 594 497 594 1153 
L 594 3053 
L 172 3053 
L 172 3500 
L 594 3500 
L 594 4494 
L 1172 4494 
z
" transform="scale(0.015625)"/>
       <path id="DejaVuSans-3" transform="scale(0.015625)"/>
       <path id="DejaVuSans-b" d="M 1984 4856 
Q 1566 4138 1362 3434 
Q 1159 2731 1159 2009 
Q 1159 1288 1364 580 
Q 1569 -128 1984 -844 
L 1484 -844 
Q 1016 -109 783 600 
Q 550 1309 550 2009 
Q 550 2706 781 3412 
Q 1013 4119 1484 4856 
L 1984 4856 
z
" transform="scale(0.015625)"/>
       <path id="DejaVuSans-56" d="M 2834 3397 
L 2834 2853 
Q 2591 2978 2328 3040 
Q 2066 3103 1784 3103 
Q 1356 3103 1142 2972 
Q 928 2841 928 2578 
Q 928 2378 1081 2264 
Q 1234 2150 1697 2047 
L 1894 2003 
Q 2506 1872 2764 1633 
Q 3022 1394 3022 966 
Q 3022 478 2636 193 
Q 2250 -91 1575 -91 
Q 1294 -91 989 -36 
Q 684 19 347 128 
L 347 722 
Q 666 556 975 473 
Q 1284 391 1588 391 
Q 1994 391 2212 530 
Q 2431 669 2431 922 
Q 2431 1156 2273 1281 
Q 2116 1406 1581 1522 
L 1381 1569 
Q 847 1681 609 1914 
Q 372 2147 372 2553 
Q 372 3047 722 3315 
Q 1072 3584 1716 3584 
Q 2034 3584 2315 3537 
Q 2597 3491 2834 3397 
z
" transform="scale(0.015625)"/>
       <path id="DejaVuSans-c" d="M 513 4856 
L 1013 4856 
Q 1481 4119 1714 3412 
Q 1947 2706 1947 2009 
Q 1947 1309 1714 600 
Q 1481 -109 1013 -844 
L 513 -844 
Q 928 -128 1133 580 
Q 1338 1288 1338 2009 
Q 1338 2731 1133 3434 
Q 928 4138 513 4856 
z
" transform="scale(0.015625)"/>
      </defs>
      <use xlink:href="#DejaVuSans-57"/>
      <use xlink:href="#DejaVuSans-3" transform="translate(39.203125 0)"/>
      <use xlink:href="#DejaVuSans-b" transform="translate(70.984375 0)"/>
      <use xlink:href="#DejaVuSans-56" transform="translate(110 0)"/>
      <use xlink:href="#DejaVuSans-c" transform="translate(162.09375 0)"/>
     </g>
    </g>
   </g>
   <g id="matplotlib.axis_2">
    <g id="ytick_1">
     <g id="line2d_13">
      <path d="M 42.28 178.508671 
L 491.188209 178.508671 
" clip-path="url(#p3f5451c819)" style="fill: none; stroke: #b0b0b0; stroke-width: 0.8; stroke-linecap: square"/>
     </g>
     <g id="line2d_14">
      <defs>
       <path id="m043bb1b12c" d="M 0 0 
L -3.5 0 
" style="stroke: #000000; stroke-width: 0.8"/>
      </defs>
      <g>
       <use xlink:href="#m043bb1b12c" x="42.28" y="178.508671" style="stroke: #000000; stroke-width: 0.8"/>
      </g>
     </g>
     <g id="text_8">
      <!-- 0 -->
      <g transform="translate(28.9175 182.3075) scale(0.1 -0.1)">
       <use xlink:href="#DejaVuSans-13"/>
      </g>
     </g>
    </g>
    <g id="ytick_2">
     <g id="line2d_15">
      <path d="M 42.28 137.262937 
L 491.188209 137.262937 
" clip-path="url(#p3f5451c819)" style="fill: none; stroke: #b0b0b0; stroke-width: 0.8; stroke-linecap: square"/>
     </g>
     <g id="line2d_16">
      <g>
       <use xlink:href="#m043bb1b12c" x="42.28" y="137.262937" style="stroke: #000000; stroke-width: 0.8"/>
      </g>
     </g>
     <g id="text_9">
      <!-- 5 -->
      <g transform="translate(28.9175 141.061765) scale(0.1 -0.1)">
       <use xlink:href="#DejaVuSans-18"/>
      </g>
     </g>
    </g>
    <g id="ytick_3">
     <g id="line2d_17">
      <path d="M 42.28 96.017203 
L 491.188209 96.017203 
" clip-path="url(#p3f5451c819)" style="fill: none; stroke: #b0b0b0; stroke-width: 0.8; stroke-linecap: square"/>
     </g>
     <g id="line2d_18">
      <g>
       <use xlink:href="#m043bb1b12c" x="42.28" y="96.017203" style="stroke: #000000; stroke-width: 0.8"/>
      </g>
     </g>
     <g id="text_10">
      <!-- 10 -->
      <g transform="translate(22.555 99.816031) scale(0.1 -0.1)">
       <use xlink:href="#DejaVuSans-14"/>
       <use xlink:href="#DejaVuSans-13" transform="translate(63.625 0)"/>
      </g>
     </g>
    </g>
    <g id="ytick_4">
     <g id="line2d_19">
      <path d="M 42.28 54.771469 
L 491.188209 54.771469 
" clip-path="url(#p3f5451c819)" style="fill: none; stroke: #b0b0b0; stroke-width: 0.8; stroke-linecap: square"/>
     </g>
     <g id="line2d_20">
      <g>
       <use xlink:href="#m043bb1b12c" x="42.28" y="54.771469" style="stroke: #000000; stroke-width: 0.8"/>
      </g>
     </g>
     <g id="text_11">
      <!-- 15 -->
      <g transform="translate(22.555 58.570297) scale(0.1 -0.1)">
       <use xlink:href="#DejaVuSans-14"/>
       <use xlink:href="#DejaVuSans-18" transform="translate(63.625 0)"/>
      </g>
     </g>
    </g>
   </g>
   <g id="line2d_21">
    <path d="M 62.684919 178.508672 
L 68.287816 178.405576 
L 73.934814 178.096672 
L 79.577788 177.582286 
L 85.796326 176.784905 
L 91.442451 175.858577 
L 97.077711 174.725904 
L 103.289159 173.250988 
L 108.933485 171.705425 
L 114.576911 169.953103 
L 120.224184 167.99393 
L 125.867137 165.829598 
L 132.64067 162.972124 
L 139.419925 159.882738 
L 146.189162 156.81937 
L 155.785621 152.772595 
L 167.639668 148.743423 
L 171.026728 147.953918 
L 174.414345 146.904079 
L 182.317469 144.321307 
L 186.269149 143.340812 
L 191.913811 142.127197 
L 206.591919 138.451889 
L 209.979474 137.811983 
L 213.364025 137.388793 
L 216.189982 137.262017 
L 219.009265 137.267327 
L 224.089656 137.090087 
L 226.347627 137.017062 
L 234.814388 136.246828 
L 237.073453 135.859598 
L 240.461213 135.113468 
L 242.717372 134.446111 
L 246.104393 133.165965 
L 252.313994 130.41071 
L 286.747655 114.774289 
L 312.158646 103.223241 
L 324.581425 97.758831 
L 329.661781 95.650687 
L 333.049588 94.403492 
L 336.434178 93.465007 
L 339.823518 92.619745 
L 344.901599 91.107212 
L 347.72299 90.514913 
L 355.064049 89.45478 
L 359.012913 88.472538 
L 369.739563 85.658316 
L 374.253979 84.684302 
L 377.079547 84.241264 
L 380.467228 83.980623 
L 383.854863 83.869006 
L 387.240509 83.429233 
L 390.626834 82.732964 
L 394.012646 81.846227 
L 400.220802 80.116589 
L 403.608065 79.48029 
L 408.123409 78.898101 
L 411.510482 78.140611 
L 414.336552 77.450872 
L 417.156241 76.970591 
L 420.544216 76.527168 
L 423.929851 75.668682 
L 428.445648 74.129291 
L 433.525477 72.077876 
L 439.738852 69.255897 
L 454.41184 62.399524 
L 468.528852 56.062372 
L 470.783291 55.128984 
L 470.783291 55.128984 
" clip-path="url(#p3f5451c819)" style="fill: none; stroke: #1f77b4; stroke-width: 1.5; stroke-linecap: square"/>
   </g>
   <g id="line2d_22">
    <path d="M 62.684919 178.508671 
L 68.287816 178.405695 
L 73.934814 178.096851 
L 79.577788 177.582306 
L 85.796326 176.784104 
L 91.442451 175.858026 
L 97.077711 174.725937 
L 103.289159 173.251441 
L 108.933485 171.706109 
L 114.576911 169.953771 
L 120.224184 167.993929 
L 125.867137 165.826856 
L 132.64067 162.961464 
L 139.419925 159.866242 
L 146.189162 156.794952 
L 151.275675 154.693555 
L 154.092714 153.740771 
L 157.48027 152.958793 
L 160.865875 152.14463 
L 164.255253 151.189523 
L 165.94879 150.831975 
L 172.720407 149.809279 
L 176.106594 148.733587 
L 180.623575 147.108667 
L 183.446202 146.352325 
L 186.269149 145.824594 
L 190.784204 145.193948 
L 194.171016 144.481375 
L 211.676829 140.4206 
L 214.492955 139.988001 
L 226.347627 138.722364 
L 234.814388 137.184668 
L 238.201159 136.269392 
L 241.588136 135.170905 
L 244.975611 133.797214 
L 266.991005 123.852141 
L 292.393343 112.182368 
L 314.419685 102.208706 
L 324.581425 97.756528 
L 327.965623 96.419328 
L 331.354102 95.294217 
L 334.740076 94.438964 
L 339.823518 93.624199 
L 344.901599 92.454471 
L 347.72299 92.089808 
L 355.064049 91.654395 
L 357.884239 91.154371 
L 362.399722 90.101527 
L 374.253979 87.260548 
L 377.079547 86.726302 
L 380.467228 86.266997 
L 383.854863 85.921126 
L 387.240509 85.338777 
L 392.320579 84.217471 
L 405.301288 81.085966 
L 408.123409 80.45118 
L 412.645231 79.176939 
L 417.156241 77.912379 
L 420.544216 77.080748 
L 423.929851 75.971854 
L 428.445648 74.248339 
L 434.656598 71.614373 
L 441.430603 68.459536 
L 453.284765 62.914072 
L 468.528852 56.062316 
L 470.783291 55.129114 
L 470.783291 55.129114 
" clip-path="url(#p3f5451c819)" style="fill: none; stroke-dasharray: 9.6,2.4,1.5,2.4; stroke-dashoffset: 0; stroke: #ff7f0e; stroke-width: 1.5"/>
   </g>
   <g id="patch_3">
    <path d="M 42.28 184.677656 
L 42.28 48.96 
" style="fill: none; stroke: #000000; stroke-width: 0.8; stroke-linejoin: miter; stroke-linecap: square"/>
   </g>
   <g id="patch_4">
    <path d="M 491.188209 184.677656 
L 491.188209 48.96 
" style="fill: none; stroke: #000000; stroke-width: 0.8; stroke-linejoin: miter; stroke-linecap: square"/>
   </g>
   <g id="patch_5">
    <path d="M 42.28 184.677656 
L 491.188209 184.677656 
" style="fill: none; stroke: #000000; stroke-width: 0.8; stroke-linejoin: miter; stroke-linecap: square"/>
   </g>
   <g id="patch_6">
    <path d="M 42.28 48.96 
L 491.188209 48.96 
" style="fill: none; stroke: #000000; stroke-width: 0.8; stroke-linejoin: miter; stroke-linecap: square"/>
   </g>
   <g id="text_12">
    <!-- $X$ (m) -->
    <g transform="translate(250.174105 42.96) scale(0.12 -0.12)">
     <defs>
      <path id="DejaVuSans-Oblique-3b" d="M 878 4666 
L 1516 4666 
L 2316 2981 
L 3763 4666 
L 4500 4666 
L 2578 2438 
L 3738 0 
L 3103 0 
L 2163 1966 
L 459 0 
L -275 0 
L 1906 2509 
L 878 4666 
z
" transform="scale(0.015625)"/>
      <path id="DejaVuSans-50" d="M 3328 2828 
Q 3544 3216 3844 3400 
Q 4144 3584 4550 3584 
Q 5097 3584 5394 3201 
Q 5691 2819 5691 2113 
L 5691 0 
L 5113 0 
L 5113 2094 
Q 5113 2597 4934 2840 
Q 4756 3084 4391 3084 
Q 3944 3084 3684 2787 
Q 3425 2491 3425 1978 
L 3425 0 
L 2847 0 
L 2847 2094 
Q 2847 2600 2669 2842 
Q 2491 3084 2119 3084 
Q 1678 3084 1418 2786 
Q 1159 2488 1159 1978 
L 1159 0 
L 581 0 
L 581 3500 
L 1159 3500 
L 1159 2956 
Q 1356 3278 1631 3431 
Q 1906 3584 2284 3584 
Q 2666 3584 2933 3390 
Q 3200 3197 3328 2828 
z
" transform="scale(0.015625)"/>
     </defs>
     <use xlink:href="#DejaVuSans-Oblique-3b" transform="translate(0 0.125)"/>
     <use xlink:href="#DejaVuSans-3" transform="translate(68.505859 0.125)"/>
     <use xlink:href="#DejaVuSans-b" transform="translate(100.292969 0.125)"/>
     <use xlink:href="#DejaVuSans-50" transform="translate(139.306641 0.125)"/>
     <use xlink:href="#DejaVuSans-c" transform="translate(236.71875 0.125)"/>
    </g>
   </g>
   <g id="legend_1">
    <g id="patch_7">
     <path d="M 49.28 86.961563 
L 98.08 86.961563 
Q 100.08 86.961563 100.08 84.961563 
L 100.08 55.96 
Q 100.08 53.96 98.08 53.96 
L 49.28 53.96 
Q 47.28 53.96 47.28 55.96 
L 47.28 84.961563 
Q 47.28 86.961563 49.28 86.961563 
z
" style="fill: #ffffff; opacity: 0.8; stroke: #cccccc; stroke-linejoin: miter"/>
    </g>
    <g id="line2d_23">
     <path d="M 51.28 62.058438 
L 61.28 62.058438 
L 71.28 62.058438 
" style="fill: none; stroke: #1f77b4; stroke-width: 1.5; stroke-linecap: square"/>
    </g>
    <g id="text_13">
     <!-- $X$ -->
     <g transform="translate(79.28 65.558438) scale(0.1 -0.1)">
      <use xlink:href="#DejaVuSans-Oblique-3b" transform="translate(0 0.09375)"/>
     </g>
    </g>
    <g id="line2d_24">
     <path d="M 51.28 77.059219 
L 61.28 77.059219 
L 71.28 77.059219 
" style="fill: none; stroke-dasharray: 9.6,2.4,1.5,2.4; stroke-dashoffset: 0; stroke: #ff7f0e; stroke-width: 1.5"/>
    </g>
    <g id="text_14">
     <!-- $X_{ref}$ -->
     <g transform="translate(79.28 80.559219) scale(0.1 -0.1)">
      <defs>
       <path id="DejaVuSans-Oblique-55" d="M 2853 2969 
Q 2766 3016 2653 3041 
Q 2541 3066 2413 3066 
Q 1953 3066 1609 2717 
Q 1266 2369 1153 1784 
L 800 0 
L 225 0 
L 909 3500 
L 1484 3500 
L 1375 2956 
Q 1603 3259 1920 3421 
Q 2238 3584 2597 3584 
Q 2691 3584 2781 3573 
Q 2872 3563 2963 3538 
L 2853 2969 
z
" transform="scale(0.015625)"/>
       <path id="DejaVuSans-Oblique-48" d="M 3078 2063 
Q 3088 2113 3092 2166 
Q 3097 2219 3097 2272 
Q 3097 2653 2873 2875 
Q 2650 3097 2266 3097 
Q 1838 3097 1509 2826 
Q 1181 2556 1013 2059 
L 3078 2063 
z
M 3578 1613 
L 903 1613 
Q 884 1494 878 1425 
Q 872 1356 872 1306 
Q 872 872 1139 634 
Q 1406 397 1894 397 
Q 2269 397 2603 481 
Q 2938 566 3225 728 
L 3116 159 
Q 2806 34 2476 -28 
Q 2147 -91 1806 -91 
Q 1078 -91 686 257 
Q 294 606 294 1247 
Q 294 1794 489 2264 
Q 684 2734 1063 3103 
Q 1306 3334 1642 3459 
Q 1978 3584 2356 3584 
Q 2950 3584 3301 3228 
Q 3653 2872 3653 2272 
Q 3653 2128 3634 1964 
Q 3616 1800 3578 1613 
z
" transform="scale(0.015625)"/>
       <path id="DejaVuSans-Oblique-49" d="M 3059 4863 
L 2969 4384 
L 2419 4384 
Q 2106 4384 1964 4261 
Q 1822 4138 1753 3809 
L 1691 3500 
L 2638 3500 
L 2553 3053 
L 1606 3053 
L 1013 0 
L 434 0 
L 1031 3053 
L 481 3053 
L 563 3500 
L 1113 3500 
L 1159 3744 
Q 1278 4363 1576 4613 
Q 1875 4863 2516 4863 
L 3059 4863 
z
" transform="scale(0.015625)"/>
      </defs>
      <use xlink:href="#DejaVuSans-Oblique-3b" transform="translate(0 0.09375)"/>
      <use xlink:href="#DejaVuSans-Oblique-55" transform="translate(68.505859 -14.906201) scale(0.7)"/>
      <use xlink:href="#DejaVuSans-Oblique-48" transform="translate(97.285156 -14.906201) scale(0.7)"/>
      <use xlink:href="#DejaVuSans-Oblique-49" transform="translate(140.351562 -14.906201) scale(0.7)"/>
     </g>
    </g>
   </g>
  </g>
  <g id="axes_2">
   <g id="patch_8">
    <path d="M 42.28 377.877656 
L 491.188209 377.877656 
L 491.188209 242.16 
L 42.28 242.16 
z
" style="fill: #ffffff"/>
   </g>
   <g id="matplotlib.axis_3">
    <g id="xtick_7">
     <g id="line2d_25">
      <path d="M 62.68491 377.877656 
L 62.68491 242.16 
" clip-path="url(#p9969b4b8e3)" style="fill: none; stroke: #b0b0b0; stroke-width: 0.8; stroke-linecap: square"/>
     </g>
     <g id="line2d_26">
      <g>
       <use xlink:href="#m6add4e78d2" x="62.68491" y="377.877656" style="stroke: #000000; stroke-width: 0.8"/>
      </g>
     </g>
     <g id="text_15">
      <!-- 0 -->
      <g transform="translate(59.50366 392.475312) scale(0.1 -0.1)">
       <use xlink:href="#DejaVuSans-13"/>
      </g>
     </g>
    </g>
    <g id="xtick_8">
     <g id="line2d_27">
      <path d="M 147.358527 377.877656 
L 147.358527 242.16 
" clip-path="url(#p9969b4b8e3)" style="fill: none; stroke: #b0b0b0; stroke-width: 0.8; stroke-linecap: square"/>
     </g>
     <g id="line2d_28">
      <g>
       <use xlink:href="#m6add4e78d2" x="147.358527" y="377.877656" style="stroke: #000000; stroke-width: 0.8"/>
      </g>
     </g>
     <g id="text_16">
      <!-- 5 -->
      <g transform="translate(144.177277 392.475312) scale(0.1 -0.1)">
       <use xlink:href="#DejaVuSans-18"/>
      </g>
     </g>
    </g>
    <g id="xtick_9">
     <g id="line2d_29">
      <path d="M 232.032143 377.877656 
L 232.032143 242.16 
" clip-path="url(#p9969b4b8e3)" style="fill: none; stroke: #b0b0b0; stroke-width: 0.8; stroke-linecap: square"/>
     </g>
     <g id="line2d_30">
      <g>
       <use xlink:href="#m6add4e78d2" x="232.032143" y="377.877656" style="stroke: #000000; stroke-width: 0.8"/>
      </g>
     </g>
     <g id="text_17">
      <!-- 10 -->
      <g transform="translate(225.669643 392.475312) scale(0.1 -0.1)">
       <use xlink:href="#DejaVuSans-14"/>
       <use xlink:href="#DejaVuSans-13" transform="translate(63.625 0)"/>
      </g>
     </g>
    </g>
    <g id="xtick_10">
     <g id="line2d_31">
      <path d="M 316.705759 377.877656 
L 316.705759 242.16 
" clip-path="url(#p9969b4b8e3)" style="fill: none; stroke: #b0b0b0; stroke-width: 0.8; stroke-linecap: square"/>
     </g>
     <g id="line2d_32">
      <g>
       <use xlink:href="#m6add4e78d2" x="316.705759" y="377.877656" style="stroke: #000000; stroke-width: 0.8"/>
      </g>
     </g>
     <g id="text_18">
      <!-- 15 -->
      <g transform="translate(310.343259 392.475312) scale(0.1 -0.1)">
       <use xlink:href="#DejaVuSans-14"/>
       <use xlink:href="#DejaVuSans-18" transform="translate(63.625 0)"/>
      </g>
     </g>
    </g>
    <g id="xtick_11">
     <g id="line2d_33">
      <path d="M 401.379376 377.877656 
L 401.379376 242.16 
" clip-path="url(#p9969b4b8e3)" style="fill: none; stroke: #b0b0b0; stroke-width: 0.8; stroke-linecap: square"/>
     </g>
     <g id="line2d_34">
      <g>
       <use xlink:href="#m6add4e78d2" x="401.379376" y="377.877656" style="stroke: #000000; stroke-width: 0.8"/>
      </g>
     </g>
     <g id="text_19">
      <!-- 20 -->
      <g transform="translate(395.016876 392.475312) scale(0.1 -0.1)">
       <use xlink:href="#DejaVuSans-15"/>
       <use xlink:href="#DejaVuSans-13" transform="translate(63.625 0)"/>
      </g>
     </g>
    </g>
    <g id="xtick_12">
     <g id="line2d_35">
      <path d="M 486.052992 377.877656 
L 486.052992 242.16 
" clip-path="url(#p9969b4b8e3)" style="fill: none; stroke: #b0b0b0; stroke-width: 0.8; stroke-linecap: square"/>
     </g>
     <g id="line2d_36">
      <g>
       <use xlink:href="#m6add4e78d2" x="486.052992" y="377.877656" style="stroke: #000000; stroke-width: 0.8"/>
      </g>
     </g>
     <g id="text_20">
      <!-- 25 -->
      <g transform="translate(479.690492 392.475312) scale(0.1 -0.1)">
       <use xlink:href="#DejaVuSans-15"/>
       <use xlink:href="#DejaVuSans-18" transform="translate(63.625 0)"/>
      </g>
     </g>
    </g>
    <g id="text_21">
     <!-- t (s) -->
     <g transform="translate(256.678636 406.475312) scale(0.1 -0.1)">
      <use xlink:href="#DejaVuSans-57"/>
      <use xlink:href="#DejaVuSans-3" transform="translate(39.203125 0)"/>
      <use xlink:href="#DejaVuSans-b" transform="translate(70.984375 0)"/>
      <use xlink:href="#DejaVuSans-56" transform="translate(110 0)"/>
      <use xlink:href="#DejaVuSans-c" transform="translate(162.09375 0)"/>
     </g>
    </g>
   </g>
   <g id="matplotlib.axis_4">
    <g id="ytick_5">
     <g id="line2d_37">
      <path d="M 42.28 365.940416 
L 491.188209 365.940416 
" clip-path="url(#p9969b4b8e3)" style="fill: none; stroke: #b0b0b0; stroke-width: 0.8; stroke-linecap: square"/>
     </g>
     <g id="line2d_38">
      <g>
       <use xlink:href="#m043bb1b12c" x="42.28" y="365.940416" style="stroke: #000000; stroke-width: 0.8"/>
      </g>
     </g>
     <g id="text_22">
      <!-- −0.5 -->
      <g transform="translate(10.997188 369.739245) scale(0.1 -0.1)">
       <defs>
        <path id="DejaVuSans-c9c" d="M 678 2272 
L 4684 2272 
L 4684 1741 
L 678 1741 
L 678 2272 
z
" transform="scale(0.015625)"/>
        <path id="DejaVuSans-11" d="M 684 794 
L 1344 794 
L 1344 0 
L 684 0 
L 684 794 
z
" transform="scale(0.015625)"/>
       </defs>
       <use xlink:href="#DejaVuSans-c9c"/>
       <use xlink:href="#DejaVuSans-13" transform="translate(83.796875 0)"/>
       <use xlink:href="#DejaVuSans-11" transform="translate(147.421875 0)"/>
       <use xlink:href="#DejaVuSans-18" transform="translate(179.203125 0)"/>
      </g>
     </g>
    </g>
    <g id="ytick_6">
     <g id="line2d_39">
      <path d="M 42.28 341.841981 
L 491.188209 341.841981 
" clip-path="url(#p9969b4b8e3)" style="fill: none; stroke: #b0b0b0; stroke-width: 0.8; stroke-linecap: square"/>
     </g>
     <g id="line2d_40">
      <g>
       <use xlink:href="#m043bb1b12c" x="42.28" y="341.841981" style="stroke: #000000; stroke-width: 0.8"/>
      </g>
     </g>
     <g id="text_23">
      <!-- 0.0 -->
      <g transform="translate(19.376875 345.640809) scale(0.1 -0.1)">
       <use xlink:href="#DejaVuSans-13"/>
       <use xlink:href="#DejaVuSans-11" transform="translate(63.625 0)"/>
       <use xlink:href="#DejaVuSans-13" transform="translate(95.40625 0)"/>
      </g>
     </g>
    </g>
    <g id="ytick_7">
     <g id="line2d_41">
      <path d="M 42.28 317.743546 
L 491.188209 317.743546 
" clip-path="url(#p9969b4b8e3)" style="fill: none; stroke: #b0b0b0; stroke-width: 0.8; stroke-linecap: square"/>
     </g>
     <g id="line2d_42">
      <g>
       <use xlink:href="#m043bb1b12c" x="42.28" y="317.743546" style="stroke: #000000; stroke-width: 0.8"/>
      </g>
     </g>
     <g id="text_24">
      <!-- 0.5 -->
      <g transform="translate(19.376875 321.542374) scale(0.1 -0.1)">
       <use xlink:href="#DejaVuSans-13"/>
       <use xlink:href="#DejaVuSans-11" transform="translate(63.625 0)"/>
       <use xlink:href="#DejaVuSans-18" transform="translate(95.40625 0)"/>
      </g>
     </g>
    </g>
    <g id="ytick_8">
     <g id="line2d_43">
      <path d="M 42.28 293.645111 
L 491.188209 293.645111 
" clip-path="url(#p9969b4b8e3)" style="fill: none; stroke: #b0b0b0; stroke-width: 0.8; stroke-linecap: square"/>
     </g>
     <g id="line2d_44">
      <g>
       <use xlink:href="#m043bb1b12c" x="42.28" y="293.645111" style="stroke: #000000; stroke-width: 0.8"/>
      </g>
     </g>
     <g id="text_25">
      <!-- 1.0 -->
      <g transform="translate(19.376875 297.443939) scale(0.1 -0.1)">
       <use xlink:href="#DejaVuSans-14"/>
       <use xlink:href="#DejaVuSans-11" transform="translate(63.625 0)"/>
       <use xlink:href="#DejaVuSans-13" transform="translate(95.40625 0)"/>
      </g>
     </g>
    </g>
    <g id="ytick_9">
     <g id="line2d_45">
      <path d="M 42.28 269.546676 
L 491.188209 269.546676 
" clip-path="url(#p9969b4b8e3)" style="fill: none; stroke: #b0b0b0; stroke-width: 0.8; stroke-linecap: square"/>
     </g>
     <g id="line2d_46">
      <g>
       <use xlink:href="#m043bb1b12c" x="42.28" y="269.546676" style="stroke: #000000; stroke-width: 0.8"/>
      </g>
     </g>
     <g id="text_26">
      <!-- 1.5 -->
      <g transform="translate(19.376875 273.345504) scale(0.1 -0.1)">
       <use xlink:href="#DejaVuSans-14"/>
       <use xlink:href="#DejaVuSans-11" transform="translate(63.625 0)"/>
       <use xlink:href="#DejaVuSans-18" transform="translate(95.40625 0)"/>
      </g>
     </g>
    </g>
    <g id="ytick_10">
     <g id="line2d_47">
      <path d="M 42.28 245.448241 
L 491.188209 245.448241 
" clip-path="url(#p9969b4b8e3)" style="fill: none; stroke: #b0b0b0; stroke-width: 0.8; stroke-linecap: square"/>
     </g>
     <g id="line2d_48">
      <g>
       <use xlink:href="#m043bb1b12c" x="42.28" y="245.448241" style="stroke: #000000; stroke-width: 0.8"/>
      </g>
     </g>
     <g id="text_27">
      <!-- 2.0 -->
      <g transform="translate(19.376875 249.247069) scale(0.1 -0.1)">
       <use xlink:href="#DejaVuSans-15"/>
       <use xlink:href="#DejaVuSans-11" transform="translate(63.625 0)"/>
       <use xlink:href="#DejaVuSans-13" transform="translate(95.40625 0)"/>
      </g>
     </g>
    </g>
   </g>
   <g id="line2d_49">
    <path d="M 62.684919 341.841977 
L 73.934814 341.94661 
L 84.093535 342.345352 
L 86.916895 342.56871 
L 90.30542 342.722577 
L 97.077711 343.12178 
L 100.467663 343.325338 
L 107.806744 343.798157 
L 116.836619 344.190951 
L 121.352734 344.173758 
L 124.738551 343.958967 
L 128.14039 343.479491 
L 130.38547 342.96734 
L 132.64067 342.273709 
L 134.898326 341.37832 
L 137.725047 339.949 
L 139.419925 338.922078 
L 141.110015 337.759149 
L 142.805506 336.45322 
L 146.189162 333.441247 
L 149.576538 330.237123 
L 151.275675 329.300706 
L 152.39841 329.217977 
L 154.092714 329.912935 
L 155.785621 331.501958 
L 159.172669 335.790689 
L 160.865875 337.15499 
L 162.560186 338.073843 
L 164.255253 339.585383 
L 165.94879 341.736927 
L 167.639668 344.443782 
L 169.333391 347.543658 
L 171.026728 350.225526 
L 172.720407 352.322493 
L 174.414345 353.788879 
L 176.106594 354.608456 
L 179.495056 355.175176 
L 180.623575 355.651581 
L 182.317469 356.788613 
L 183.446202 357.789877 
L 185.139635 359.642866 
L 186.269149 361.136853 
L 189.655386 366.182874 
L 190.784204 367.566486 
L 191.913811 368.746707 
L 193.042481 369.722304 
L 194.171016 370.495598 
L 195.864871 371.294389 
L 196.993598 371.590346 
L 198.122678 371.708672 
L 199.25122 371.662041 
L 200.380813 371.464255 
L 201.509699 371.129863 
L 202.638771 370.656832 
L 203.767627 370.02775 
L 204.896591 369.235702 
L 206.591919 367.751072 
L 208.285893 365.915966 
L 209.979474 363.747161 
L 211.676829 361.274228 
L 214.492955 356.584932 
L 219.009265 348.233109 
L 222.398018 341.663717 
L 227.476287 331.141078 
L 233.686225 317.403515 
L 237.073453 309.615117 
L 241.588136 299.597346 
L 243.846348 295.230729 
L 246.104393 291.536961 
L 248.362737 288.597406 
L 249.491736 287.390412 
L 252.313994 284.966339 
L 254.57208 283.399876 
L 257.959072 281.375214 
L 260.781621 279.915261 
L 264.733009 278.154813 
L 268.119562 276.903422 
L 271.506414 275.911161 
L 274.893951 275.191598 
L 278.2804 274.742316 
L 281.667585 274.546538 
L 283.925891 274.549387 
L 287.876823 274.813342 
L 291.263639 275.321734 
L 294.651524 276.103543 
L 298.048648 277.162011 
L 301.433525 278.480515 
L 305.384773 280.319654 
L 308.772505 282.120465 
L 313.287843 284.792003 
L 317.808867 287.704904 
L 324.581425 292.267532 
L 326.272913 292.80861 
L 327.965623 292.463563 
L 329.661781 291.446245 
L 331.354102 290.053866 
L 333.049588 288.249211 
L 334.740076 285.827471 
L 338.129751 279.951993 
L 339.823518 277.458405 
L 341.516538 275.534818 
L 343.210696 273.84597 
L 344.901599 271.739319 
L 346.597541 269.222583 
L 347.72299 267.341817 
L 353.371894 256.912203 
L 355.064049 254.348865 
L 356.190955 252.883109 
L 357.884239 251.056949 
L 359.012913 250.103734 
L 360.145492 249.361465 
L 361.271258 248.824334 
L 362.399722 248.483774 
L 363.531693 248.328984 
L 364.657587 248.347404 
L 366.352617 248.675761 
L 368.045398 249.349302 
L 369.739563 250.391819 
L 371.433063 251.810169 
L 373.126174 253.60054 
L 375.385446 256.57759 
L 377.079547 259.197884 
L 380.467228 265.172524 
L 383.854863 271.554641 
L 385.546067 274.525055 
L 387.240509 277.212152 
L 388.933729 279.558741 
L 390.626834 281.524523 
L 392.320579 283.10713 
L 394.012646 284.305949 
L 395.708206 285.170195 
L 396.833198 285.96865 
L 398.528071 287.602145 
L 400.220802 289.741476 
L 401.914814 292.347412 
L 403.608065 295.357743 
L 408.123409 303.991763 
L 409.81815 306.694804 
L 414.336552 312.720694 
L 415.462259 314.604378 
L 417.156241 317.752555 
L 420.544216 324.450261 
L 422.237055 327.424925 
L 425.058161 331.455478 
L 427.316342 334.271908 
L 428.445648 335.551026 
L 430.139242 337.224035 
L 432.397652 339.048071 
L 434.656598 340.551198 
L 435.784976 341.198687 
L 438.606571 342.505039 
L 441.430603 343.401611 
L 444.251301 343.938385 
L 447.639516 344.219208 
L 451.025514 344.223709 
L 454.41184 344.035399 
L 460.060321 343.446656 
L 470.783291 341.959798 
L 470.783291 341.959798 
" clip-path="url(#p9969b4b8e3)" style="fill: none; stroke: #1f77b4; stroke-width: 1.5; stroke-linecap: square"/>
   </g>
   <g id="line2d_50">
    <path d="M 62.684919 341.841981 
L 72.803533 341.938488 
L 81.843708 342.237894 
L 92.567452 342.821845 
L 117.963879 344.41055 
L 122.480775 344.409399 
L 125.867137 344.198728 
L 128.14039 343.898972 
L 130.38547 343.419184 
L 132.64067 342.713802 
L 134.898326 341.780643 
L 137.725047 340.352006 
L 139.419925 339.330279 
L 141.110015 338.164807 
L 142.805506 336.849412 
L 146.189162 333.815012 
L 154.092714 326.070977 
L 155.785621 324.874255 
L 159.172669 322.962555 
L 164.255253 319.296088 
L 165.94879 318.41685 
L 167.639668 317.845825 
L 169.333391 317.512958 
L 171.026728 316.935944 
L 172.720407 316.04175 
L 174.414345 314.978574 
L 179.495056 311.395459 
L 180.623575 310.748042 
L 183.446202 309.467457 
L 186.269149 308.606026 
L 190.784204 307.597556 
L 194.171016 306.472893 
L 209.979474 300.611009 
L 213.364025 299.642843 
L 216.189982 299.117736 
L 219.009265 298.75948 
L 222.398018 298.044144 
L 225.218359 297.627678 
L 229.7375 296.547518 
L 234.814388 294.888001 
L 237.073453 293.943378 
L 240.461213 292.289495 
L 242.717372 290.97415 
L 246.104393 288.712936 
L 252.313994 284.493626 
L 255.700771 282.438945 
L 259.653605 280.300863 
L 263.603805 278.443434 
L 266.991005 277.096619 
L 270.378033 276.004559 
L 273.765071 275.191306 
L 277.152158 274.664428 
L 280.538752 274.407575 
L 283.925891 274.379651 
L 287.876823 274.625068 
L 291.263639 275.119842 
L 294.651524 275.898187 
L 298.048648 276.963696 
L 301.433525 278.296529 
L 305.384773 280.157824 
L 308.772505 281.981776 
L 313.287843 284.684916 
L 317.808867 287.62909 
L 326.272913 293.327884 
L 329.661781 295.310905 
L 333.049588 296.954845 
L 334.740076 297.559391 
L 339.823518 298.867512 
L 344.901599 300.732534 
L 347.72299 301.31033 
L 349.41658 301.452096 
L 352.239703 301.532292 
L 353.371894 301.672461 
L 356.190955 302.278567 
L 360.145492 303.573932 
L 375.385446 309.312793 
L 378.772431 310.230985 
L 380.467228 310.58251 
L 382.161584 310.812456 
L 385.546067 311.673084 
L 388.933729 312.913339 
L 392.320579 314.442513 
L 396.833198 316.911729 
L 405.301288 321.883252 
L 408.123409 323.585316 
L 411.510482 326.13901 
L 415.462259 329.252682 
L 417.156241 330.400288 
L 418.849104 331.353882 
L 422.237055 333.657128 
L 427.316342 337.340149 
L 430.139242 339.124089 
L 433.525477 340.952719 
L 435.784976 342.003737 
L 438.606571 343.113095 
L 441.430603 343.864995 
L 444.251301 344.274494 
L 447.639516 344.438343 
L 451.025514 344.364672 
L 456.107475 343.973427 
L 461.751651 343.281193 
L 470.783291 341.946511 
L 470.783291 341.946511 
" clip-path="url(#p9969b4b8e3)" style="fill: none; stroke-dasharray: 9.6,2.4,1.5,2.4; stroke-dashoffset: 0; stroke: #ff7f0e; stroke-width: 1.5"/>
   </g>
   <g id="patch_9">
    <path d="M 42.28 377.877656 
L 42.28 242.16 
" style="fill: none; stroke: #000000; stroke-width: 0.8; stroke-linejoin: miter; stroke-linecap: square"/>
   </g>
   <g id="patch_10">
    <path d="M 491.188209 377.877656 
L 491.188209 242.16 
" style="fill: none; stroke: #000000; stroke-width: 0.8; stroke-linejoin: miter; stroke-linecap: square"/>
   </g>
   <g id="patch_11">
    <path d="M 42.28 377.877656 
L 491.188209 377.877656 
" style="fill: none; stroke: #000000; stroke-width: 0.8; stroke-linejoin: miter; stroke-linecap: square"/>
   </g>
   <g id="patch_12">
    <path d="M 42.28 242.16 
L 491.188209 242.16 
" style="fill: none; stroke: #000000; stroke-width: 0.8; stroke-linejoin: miter; stroke-linecap: square"/>
   </g>
   <g id="text_28">
    <!-- $Y$ (m) -->
    <g transform="translate(250.594105 236.16) scale(0.12 -0.12)">
     <defs>
      <path id="DejaVuSans-Oblique-3c" d="M 403 4666 
L 1081 4666 
L 1953 2747 
L 3616 4666 
L 4325 4666 
L 2209 2222 
L 1778 0 
L 1147 0 
L 1575 2222 
L 403 4666 
z
" transform="scale(0.015625)"/>
     </defs>
     <use xlink:href="#DejaVuSans-Oblique-3c" transform="translate(0 0.125)"/>
     <use xlink:href="#DejaVuSans-3" transform="translate(61.083984 0.125)"/>
     <use xlink:href="#DejaVuSans-b" transform="translate(92.871094 0.125)"/>
     <use xlink:href="#DejaVuSans-50" transform="translate(131.884766 0.125)"/>
     <use xlink:href="#DejaVuSans-c" transform="translate(229.296875 0.125)"/>
    </g>
   </g>
   <g id="legend_2">
    <g id="patch_13">
     <path d="M 436.088209 280.161563 
L 484.188209 280.161563 
Q 486.188209 280.161563 486.188209 278.161563 
L 486.188209 249.16 
Q 486.188209 247.16 484.188209 247.16 
L 436.088209 247.16 
Q 434.088209 247.16 434.088209 249.16 
L 434.088209 278.161563 
Q 434.088209 280.161563 436.088209 280.161563 
z
" style="fill: #ffffff; opacity: 0.8; stroke: #cccccc; stroke-linejoin: miter"/>
    </g>
    <g id="line2d_51">
     <path d="M 438.088209 255.258438 
L 448.088209 255.258438 
L 458.088209 255.258438 
" style="fill: none; stroke: #1f77b4; stroke-width: 1.5; stroke-linecap: square"/>
    </g>
    <g id="text_29">
     <!-- $Y$ -->
     <g transform="translate(466.088209 258.758438) scale(0.1 -0.1)">
      <use xlink:href="#DejaVuSans-Oblique-3c" transform="translate(0 0.09375)"/>
     </g>
    </g>
    <g id="line2d_52">
     <path d="M 438.088209 270.259219 
L 448.088209 270.259219 
L 458.088209 270.259219 
" style="fill: none; stroke-dasharray: 9.6,2.4,1.5,2.4; stroke-dashoffset: 0; stroke: #ff7f0e; stroke-width: 1.5"/>
    </g>
    <g id="text_30">
     <!-- $Y_{ref}$ -->
     <g transform="translate(466.088209 273.759219) scale(0.1 -0.1)">
      <use xlink:href="#DejaVuSans-Oblique-3c" transform="translate(0 0.09375)"/>
      <use xlink:href="#DejaVuSans-Oblique-55" transform="translate(61.083984 -14.906201) scale(0.7)"/>
      <use xlink:href="#DejaVuSans-Oblique-48" transform="translate(89.863281 -14.906201) scale(0.7)"/>
      <use xlink:href="#DejaVuSans-Oblique-49" transform="translate(132.929688 -14.906201) scale(0.7)"/>
     </g>
    </g>
   </g>
  </g>
  <g id="axes_3">
   <g id="patch_14">
    <path d="M 42.28 571.077656 
L 491.188209 571.077656 
L 491.188209 435.36 
L 42.28 435.36 
z
" style="fill: #ffffff"/>
   </g>
   <g id="matplotlib.axis_5">
    <g id="xtick_13">
     <g id="line2d_53">
      <path d="M 62.68491 571.077656 
L 62.68491 435.36 
" clip-path="url(#pa8268b9ff8)" style="fill: none; stroke: #b0b0b0; stroke-width: 0.8; stroke-linecap: square"/>
     </g>
     <g id="line2d_54">
      <g>
       <use xlink:href="#m6add4e78d2" x="62.68491" y="571.077656" style="stroke: #000000; stroke-width: 0.8"/>
      </g>
     </g>
     <g id="text_31">
      <!-- 0 -->
      <g transform="translate(59.50366 585.675313) scale(0.1 -0.1)">
       <use xlink:href="#DejaVuSans-13"/>
      </g>
     </g>
    </g>
    <g id="xtick_14">
     <g id="line2d_55">
      <path d="M 147.358527 571.077656 
L 147.358527 435.36 
" clip-path="url(#pa8268b9ff8)" style="fill: none; stroke: #b0b0b0; stroke-width: 0.8; stroke-linecap: square"/>
     </g>
     <g id="line2d_56">
      <g>
       <use xlink:href="#m6add4e78d2" x="147.358527" y="571.077656" style="stroke: #000000; stroke-width: 0.8"/>
      </g>
     </g>
     <g id="text_32">
      <!-- 5 -->
      <g transform="translate(144.177277 585.675313) scale(0.1 -0.1)">
       <use xlink:href="#DejaVuSans-18"/>
      </g>
     </g>
    </g>
    <g id="xtick_15">
     <g id="line2d_57">
      <path d="M 232.032143 571.077656 
L 232.032143 435.36 
" clip-path="url(#pa8268b9ff8)" style="fill: none; stroke: #b0b0b0; stroke-width: 0.8; stroke-linecap: square"/>
     </g>
     <g id="line2d_58">
      <g>
       <use xlink:href="#m6add4e78d2" x="232.032143" y="571.077656" style="stroke: #000000; stroke-width: 0.8"/>
      </g>
     </g>
     <g id="text_33">
      <!-- 10 -->
      <g transform="translate(225.669643 585.675313) scale(0.1 -0.1)">
       <use xlink:href="#DejaVuSans-14"/>
       <use xlink:href="#DejaVuSans-13" transform="translate(63.625 0)"/>
      </g>
     </g>
    </g>
    <g id="xtick_16">
     <g id="line2d_59">
      <path d="M 316.705759 571.077656 
L 316.705759 435.36 
" clip-path="url(#pa8268b9ff8)" style="fill: none; stroke: #b0b0b0; stroke-width: 0.8; stroke-linecap: square"/>
     </g>
     <g id="line2d_60">
      <g>
       <use xlink:href="#m6add4e78d2" x="316.705759" y="571.077656" style="stroke: #000000; stroke-width: 0.8"/>
      </g>
     </g>
     <g id="text_34">
      <!-- 15 -->
      <g transform="translate(310.343259 585.675313) scale(0.1 -0.1)">
       <use xlink:href="#DejaVuSans-14"/>
       <use xlink:href="#DejaVuSans-18" transform="translate(63.625 0)"/>
      </g>
     </g>
    </g>
    <g id="xtick_17">
     <g id="line2d_61">
      <path d="M 401.379376 571.077656 
L 401.379376 435.36 
" clip-path="url(#pa8268b9ff8)" style="fill: none; stroke: #b0b0b0; stroke-width: 0.8; stroke-linecap: square"/>
     </g>
     <g id="line2d_62">
      <g>
       <use xlink:href="#m6add4e78d2" x="401.379376" y="571.077656" style="stroke: #000000; stroke-width: 0.8"/>
      </g>
     </g>
     <g id="text_35">
      <!-- 20 -->
      <g transform="translate(395.016876 585.675313) scale(0.1 -0.1)">
       <use xlink:href="#DejaVuSans-15"/>
       <use xlink:href="#DejaVuSans-13" transform="translate(63.625 0)"/>
      </g>
     </g>
    </g>
    <g id="xtick_18">
     <g id="line2d_63">
      <path d="M 486.052992 571.077656 
L 486.052992 435.36 
" clip-path="url(#pa8268b9ff8)" style="fill: none; stroke: #b0b0b0; stroke-width: 0.8; stroke-linecap: square"/>
     </g>
     <g id="line2d_64">
      <g>
       <use xlink:href="#m6add4e78d2" x="486.052992" y="571.077656" style="stroke: #000000; stroke-width: 0.8"/>
      </g>
     </g>
     <g id="text_36">
      <!-- 25 -->
      <g transform="translate(479.690492 585.675313) scale(0.1 -0.1)">
       <use xlink:href="#DejaVuSans-15"/>
       <use xlink:href="#DejaVuSans-18" transform="translate(63.625 0)"/>
      </g>
     </g>
    </g>
    <g id="text_37">
     <!-- t (s) -->
     <g transform="translate(256.678636 599.675313) scale(0.1 -0.1)">
      <use xlink:href="#DejaVuSans-57"/>
      <use xlink:href="#DejaVuSans-3" transform="translate(39.203125 0)"/>
      <use xlink:href="#DejaVuSans-b" transform="translate(70.984375 0)"/>
      <use xlink:href="#DejaVuSans-56" transform="translate(110 0)"/>
      <use xlink:href="#DejaVuSans-c" transform="translate(162.09375 0)"/>
     </g>
    </g>
   </g>
   <g id="matplotlib.axis_6">
    <g id="ytick_11">
     <g id="line2d_65">
      <path d="M 42.28 544.424417 
L 491.188209 544.424417 
" clip-path="url(#pa8268b9ff8)" style="fill: none; stroke: #b0b0b0; stroke-width: 0.8; stroke-linecap: square"/>
     </g>
     <g id="line2d_66">
      <g>
       <use xlink:href="#m043bb1b12c" x="42.28" y="544.424417" style="stroke: #000000; stroke-width: 0.8"/>
      </g>
     </g>
     <g id="text_38">
      <!-- −1 -->
      <g transform="translate(20.537813 548.223245) scale(0.1 -0.1)">
       <use xlink:href="#DejaVuSans-c9c"/>
       <use xlink:href="#DejaVuSans-14" transform="translate(83.796875 0)"/>
      </g>
     </g>
    </g>
    <g id="ytick_12">
     <g id="line2d_67">
      <path d="M 42.28 504.857543 
L 491.188209 504.857543 
" clip-path="url(#pa8268b9ff8)" style="fill: none; stroke: #b0b0b0; stroke-width: 0.8; stroke-linecap: square"/>
     </g>
     <g id="line2d_68">
      <g>
       <use xlink:href="#m043bb1b12c" x="42.28" y="504.857543" style="stroke: #000000; stroke-width: 0.8"/>
      </g>
     </g>
     <g id="text_39">
      <!-- 0 -->
      <g transform="translate(28.9175 508.656372) scale(0.1 -0.1)">
       <use xlink:href="#DejaVuSans-13"/>
      </g>
     </g>
    </g>
    <g id="ytick_13">
     <g id="line2d_69">
      <path d="M 42.28 465.29067 
L 491.188209 465.29067 
" clip-path="url(#pa8268b9ff8)" style="fill: none; stroke: #b0b0b0; stroke-width: 0.8; stroke-linecap: square"/>
     </g>
     <g id="line2d_70">
      <g>
       <use xlink:href="#m043bb1b12c" x="42.28" y="465.29067" style="stroke: #000000; stroke-width: 0.8"/>
      </g>
     </g>
     <g id="text_40">
      <!-- 1 -->
      <g transform="translate(28.9175 469.089498) scale(0.1 -0.1)">
       <use xlink:href="#DejaVuSans-14"/>
      </g>
     </g>
    </g>
   </g>
   <g id="line2d_71">
    <path d="M 62.684919 504.857543 
L 64.900675 504.96113 
L 67.159188 505.582647 
L 69.417875 506.618511 
L 70.545844 507.291824 
L 71.675748 507.240033 
L 72.803533 506.699481 
L 73.934814 507.091208 
L 75.063634 508.092944 
L 76.191961 507.955231 
L 77.321744 506.660403 
L 78.448653 506.712198 
L 79.577788 508.214201 
L 80.709727 508.162025 
L 81.843708 506.452373 
L 82.967322 506.485827 
L 84.093535 508.27825 
L 85.796326 508.999366 
L 86.916895 506.875844 
L 88.045839 505.733337 
L 89.176995 506.840192 
L 90.30542 508.108657 
L 91.442451 507.084188 
L 92.567452 505.676434 
L 93.696321 506.370638 
L 94.822918 507.787243 
L 95.94851 507.50402 
L 97.077711 506.192736 
L 98.211746 505.984973 
L 99.336151 506.901641 
L 100.467663 507.345608 
L 102.15859 506.702849 
L 103.289159 506.134183 
L 104.416666 506.221598 
L 105.54568 506.575272 
L 106.67334 506.62198 
L 108.933485 506.086864 
L 114.576911 505.617431 
L 119.095996 504.874165 
L 122.480775 504.013654 
L 125.867137 502.851916 
L 129.256369 501.368917 
L 133.77666 499.065438 
L 137.725047 496.811737 
L 141.110015 494.586006 
L 146.189162 490.731331 
L 147.883764 490.032799 
L 149.576538 492.196557 
L 151.275675 499.081202 
L 154.092714 514.409927 
L 155.785621 523.096423 
L 157.48027 527.946495 
L 159.172669 524.15336 
L 160.865875 516.53888 
L 162.560186 515.499189 
L 167.639668 539.776071 
L 169.333391 542.531022 
L 174.414345 519.289966 
L 176.106594 511.853767 
L 177.802946 507.265747 
L 179.495056 510.213026 
L 183.446202 526.079541 
L 187.397127 541.842451 
L 188.526956 541.894236 
L 191.913811 528.627306 
L 195.864871 514.262799 
L 199.25122 502.860431 
L 206.591919 479.320607 
L 209.979474 467.50386 
L 213.364025 455.065629 
L 216.189982 444.139388 
L 217.883722 441.528984 
L 219.009265 445.733287 
L 220.70386 449.959764 
L 222.398018 446.605879 
L 224.089656 442.061966 
L 225.218359 444.954323 
L 226.347627 450.10178 
L 227.476287 450.978504 
L 228.607322 447.40914 
L 229.7375 448.317622 
L 231.427724 456.634388 
L 232.557693 456.582593 
L 233.686225 451.738677 
L 234.814388 452.49902 
L 235.943429 458.258658 
L 237.073453 461.792043 
L 238.201159 462.252849 
L 239.330817 463.108763 
L 240.461213 465.728805 
L 243.846348 476.35384 
L 246.104393 482.613488 
L 247.233545 485.401612 
L 248.362737 487.852155 
L 249.491736 489.916889 
L 251.185804 492.529026 
L 252.313994 493.72781 
L 253.4433 494.498926 
L 255.700771 495.57845 
L 259.653605 497.081555 
L 283.925891 505.134947 
L 289.006149 506.777175 
L 303.127879 511.586183 
L 307.646577 512.816454 
L 312.158646 513.821907 
L 316.674867 514.577843 
L 321.75547 515.34463 
L 323.449168 515.60658 
L 324.581425 513.860728 
L 326.272913 507.316853 
L 327.965623 499.060338 
L 329.661781 493.364083 
L 331.354102 489.47483 
L 333.049588 483.701701 
L 334.740076 475.361216 
L 336.434178 469.010472 
L 338.129751 469.93291 
L 339.823518 477.806697 
L 341.516538 484.065493 
L 343.210696 483.736751 
L 349.41658 456.902148 
L 351.10982 454.363981 
L 355.064049 470.836557 
L 359.012913 486.273348 
L 362.399722 498.550332 
L 366.352617 511.760026 
L 369.739563 522.897584 
L 374.253979 538.749051 
L 377.079547 549.368371 
L 380.467228 562.681225 
L 382.161584 564.908672 
L 387.240509 544.550802 
L 394.012646 519.064431 
L 395.708206 516.940607 
L 400.220802 535.381658 
L 403.608065 549.937644 
L 405.301288 554.582372 
L 406.995054 551.439835 
L 411.510482 532.170002 
L 412.645231 532.2209 
L 417.156241 551.853314 
L 418.849104 554.514361 
L 420.544216 547.041901 
L 422.237055 539.064709 
L 423.929851 531.735946 
L 425.058161 528.971517 
L 427.316342 525.772715 
L 428.445648 523.626863 
L 430.139242 520.162655 
L 431.271274 518.170965 
L 432.397652 516.637172 
L 434.656598 514.242027 
L 437.477483 511.613091 
L 439.738852 509.799041 
L 442.557739 507.886109 
L 445.379971 506.385452 
L 447.639516 505.50338 
L 451.025514 504.476515 
L 454.41184 503.759852 
L 457.234176 503.324894 
L 461.751651 502.878091 
L 466.266649 502.6441 
L 470.783291 502.619168 
L 470.783291 502.619168 
" clip-path="url(#pa8268b9ff8)" style="fill: none; stroke: #1f77b4; stroke-width: 1.5; stroke-linecap: square"/>
   </g>
   <g id="line2d_72">
    <path d="M 62.684919 504.857543 
L 63.774058 505.686395 
L 64.900675 506.136097 
L 67.159188 506.629199 
L 70.545844 506.978522 
L 75.063634 507.180764 
L 82.967322 507.265351 
L 92.567452 507.144481 
L 102.15859 506.81009 
L 108.933485 506.386571 
L 114.576911 505.818404 
L 119.095996 505.110526 
L 122.480775 504.323914 
L 124.738551 503.608706 
L 126.995894 502.677579 
L 129.256369 501.48021 
L 133.77666 498.640653 
L 136.029224 497.660512 
L 137.725047 496.728012 
L 141.110015 494.360316 
L 146.189162 490.50728 
L 147.883764 489.436175 
L 149.576538 488.577335 
L 151.275675 487.979594 
L 152.39841 487.737057 
L 154.092714 487.569152 
L 157.48027 487.63514 
L 159.172669 487.780528 
L 160.865875 488.055205 
L 165.94879 489.290705 
L 171.026728 490.022128 
L 172.720407 490.502765 
L 176.106594 491.793117 
L 179.495056 493.104464 
L 180.623575 493.419983 
L 183.446202 493.944349 
L 187.397127 494.245102 
L 198.122678 494.51403 
L 206.591919 494.419888 
L 220.70386 494.252843 
L 237.073453 494.21712 
L 242.717372 494.395609 
L 247.233545 494.796615 
L 251.185804 495.377878 
L 255.700771 496.271003 
L 259.653605 497.239476 
L 264.733009 498.74172 
L 270.378033 500.703141 
L 279.409949 503.932164 
L 282.796963 504.884336 
L 285.61968 505.673108 
L 290.136174 507.210284 
L 301.433525 511.224224 
L 306.514108 512.701993 
L 311.032329 513.757472 
L 315.545898 514.559644 
L 319.499724 515.055908 
L 323.449168 515.362152 
L 327.965623 515.508649 
L 336.434178 515.477289 
L 369.739563 515.317051 
L 374.253979 515.600211 
L 387.240509 517.058876 
L 390.626834 517.856221 
L 395.708206 519.320117 
L 400.220802 520.672109 
L 403.608065 521.430281 
L 408.123409 522.035885 
L 409.81815 522.149292 
L 412.645231 522.052954 
L 415.462259 521.557287 
L 418.849104 520.698064 
L 420.544216 520.099363 
L 422.237055 519.318597 
L 425.058161 517.671513 
L 432.397652 512.956006 
L 434.656598 511.819995 
L 435.784976 511.373552 
L 437.477483 510.42652 
L 441.430603 507.706623 
L 442.557739 507.048853 
L 445.379971 505.739505 
L 447.639516 504.976935 
L 451.025514 504.151965 
L 454.41184 503.571778 
L 460.060321 502.920986 
L 466.266649 502.50553 
L 469.654161 502.468538 
L 470.783291 502.598096 
L 470.783291 502.598096 
" clip-path="url(#pa8268b9ff8)" style="fill: none; stroke-dasharray: 9.6,2.4,1.5,2.4; stroke-dashoffset: 0; stroke: #ff7f0e; stroke-width: 1.5"/>
   </g>
   <g id="patch_15">
    <path d="M 42.28 571.077656 
L 42.28 435.36 
" style="fill: none; stroke: #000000; stroke-width: 0.8; stroke-linejoin: miter; stroke-linecap: square"/>
   </g>
   <g id="patch_16">
    <path d="M 491.188209 571.077656 
L 491.188209 435.36 
" style="fill: none; stroke: #000000; stroke-width: 0.8; stroke-linejoin: miter; stroke-linecap: square"/>
   </g>
   <g id="patch_17">
    <path d="M 42.28 571.077656 
L 491.188209 571.077656 
" style="fill: none; stroke: #000000; stroke-width: 0.8; stroke-linejoin: miter; stroke-linecap: square"/>
   </g>
   <g id="patch_18">
    <path d="M 42.28 435.36 
L 491.188209 435.36 
" style="fill: none; stroke: #000000; stroke-width: 0.8; stroke-linejoin: miter; stroke-linecap: square"/>
   </g>
   <g id="text_41">
    <!-- $\Psi$ (rad) -->
    <g transform="translate(245.434105 429.36) scale(0.12 -0.12)">
     <defs>
      <path id="DejaVuSans-33c" d="M 2206 0 
Q 2209 419 2206 969 
Q 1538 969 950 1625 
Q 375 2263 359 3388 
L 359 4666 
L 1025 4666 
L 1025 3388 
Q 1025 2506 1431 1994 
Q 1775 1556 2206 1513 
L 2206 4666 
L 2838 4666 
L 2838 1513 
Q 3269 1556 3613 1994 
Q 4019 2506 4019 3388 
L 4019 4666 
L 4684 4666 
L 4684 3388 
Q 4669 2263 4094 1625 
Q 3506 969 2838 969 
Q 2834 744 2838 0 
L 2206 0 
z
" transform="scale(0.015625)"/>
      <path id="DejaVuSans-55" d="M 2631 2963 
Q 2534 3019 2420 3045 
Q 2306 3072 2169 3072 
Q 1681 3072 1420 2755 
Q 1159 2438 1159 1844 
L 1159 0 
L 581 0 
L 581 3500 
L 1159 3500 
L 1159 2956 
Q 1341 3275 1631 3429 
Q 1922 3584 2338 3584 
Q 2397 3584 2469 3576 
Q 2541 3569 2628 3553 
L 2631 2963 
z
" transform="scale(0.015625)"/>
      <path id="DejaVuSans-44" d="M 2194 1759 
Q 1497 1759 1228 1600 
Q 959 1441 959 1056 
Q 959 750 1161 570 
Q 1363 391 1709 391 
Q 2188 391 2477 730 
Q 2766 1069 2766 1631 
L 2766 1759 
L 2194 1759 
z
M 3341 1997 
L 3341 0 
L 2766 0 
L 2766 531 
Q 2569 213 2275 61 
Q 1981 -91 1556 -91 
Q 1019 -91 701 211 
Q 384 513 384 1019 
Q 384 1609 779 1909 
Q 1175 2209 1959 2209 
L 2766 2209 
L 2766 2266 
Q 2766 2663 2505 2880 
Q 2244 3097 1772 3097 
Q 1472 3097 1187 3025 
Q 903 2953 641 2809 
L 641 3341 
Q 956 3463 1253 3523 
Q 1550 3584 1831 3584 
Q 2591 3584 2966 3190 
Q 3341 2797 3341 1997 
z
" transform="scale(0.015625)"/>
      <path id="DejaVuSans-47" d="M 2906 2969 
L 2906 4863 
L 3481 4863 
L 3481 0 
L 2906 0 
L 2906 525 
Q 2725 213 2448 61 
Q 2172 -91 1784 -91 
Q 1150 -91 751 415 
Q 353 922 353 1747 
Q 353 2572 751 3078 
Q 1150 3584 1784 3584 
Q 2172 3584 2448 3432 
Q 2725 3281 2906 2969 
z
M 947 1747 
Q 947 1113 1208 752 
Q 1469 391 1925 391 
Q 2381 391 2643 752 
Q 2906 1113 2906 1747 
Q 2906 2381 2643 2742 
Q 2381 3103 1925 3103 
Q 1469 3103 1208 2742 
Q 947 2381 947 1747 
z
" transform="scale(0.015625)"/>
     </defs>
     <use xlink:href="#DejaVuSans-33c" transform="translate(0 0.015625)"/>
     <use xlink:href="#DejaVuSans-3" transform="translate(78.710938 0.015625)"/>
     <use xlink:href="#DejaVuSans-b" transform="translate(110.498047 0.015625)"/>
     <use xlink:href="#DejaVuSans-55" transform="translate(149.511719 0.015625)"/>
     <use xlink:href="#DejaVuSans-44" transform="translate(190.625 0.015625)"/>
     <use xlink:href="#DejaVuSans-47" transform="translate(251.904297 0.015625)"/>
     <use xlink:href="#DejaVuSans-c" transform="translate(315.380859 0.015625)"/>
    </g>
   </g>
   <g id="legend_3">
    <g id="patch_19">
     <path d="M 434.288209 473.361563 
L 484.188209 473.361563 
Q 486.188209 473.361563 486.188209 471.361563 
L 486.188209 442.36 
Q 486.188209 440.36 484.188209 440.36 
L 434.288209 440.36 
Q 432.288209 440.36 432.288209 442.36 
L 432.288209 471.361563 
Q 432.288209 473.361563 434.288209 473.361563 
z
" style="fill: #ffffff; opacity: 0.8; stroke: #cccccc; stroke-linejoin: miter"/>
    </g>
    <g id="line2d_73">
     <path d="M 436.288209 448.458438 
L 446.288209 448.458438 
L 456.288209 448.458438 
" style="fill: none; stroke: #1f77b4; stroke-width: 1.5; stroke-linecap: square"/>
    </g>
    <g id="text_42">
     <!-- $\Psi$ -->
     <g transform="translate(464.288209 451.958438) scale(0.1 -0.1)">
      <use xlink:href="#DejaVuSans-33c" transform="translate(0 0.09375)"/>
     </g>
    </g>
    <g id="line2d_74">
     <path d="M 436.288209 463.459219 
L 446.288209 463.459219 
L 456.288209 463.459219 
" style="fill: none; stroke-dasharray: 9.6,2.4,1.5,2.4; stroke-dashoffset: 0; stroke: #ff7f0e; stroke-width: 1.5"/>
    </g>
    <g id="text_43">
     <!-- $\Psi_{ref}$ -->
     <g transform="translate(464.288209 466.959219) scale(0.1 -0.1)">
      <use xlink:href="#DejaVuSans-33c" transform="translate(0 0.09375)"/>
      <use xlink:href="#DejaVuSans-Oblique-55" transform="translate(79.667969 -14.906201) scale(0.7)"/>
      <use xlink:href="#DejaVuSans-Oblique-48" transform="translate(108.447266 -14.906201) scale(0.7)"/>
      <use xlink:href="#DejaVuSans-Oblique-49" transform="translate(151.513672 -14.906201) scale(0.7)"/>
     </g>
    </g>
   </g>
  </g>
  <g id="axes_4">
   <g id="patch_20">
    <path d="M 42.28 764.277656 
L 491.188209 764.277656 
L 491.188209 628.56 
L 42.28 628.56 
z
" style="fill: #ffffff"/>
   </g>
   <g id="matplotlib.axis_7">
    <g id="xtick_19">
     <g id="line2d_75">
      <path d="M 62.68491 764.277656 
L 62.68491 628.56 
" clip-path="url(#pb01b4221ab)" style="fill: none; stroke: #b0b0b0; stroke-width: 0.8; stroke-linecap: square"/>
     </g>
     <g id="line2d_76">
      <g>
       <use xlink:href="#m6add4e78d2" x="62.68491" y="764.277656" style="stroke: #000000; stroke-width: 0.8"/>
      </g>
     </g>
     <g id="text_44">
      <!-- 0 -->
      <g transform="translate(59.50366 778.875313) scale(0.1 -0.1)">
       <use xlink:href="#DejaVuSans-13"/>
      </g>
     </g>
    </g>
    <g id="xtick_20">
     <g id="line2d_77">
      <path d="M 147.358527 764.277656 
L 147.358527 628.56 
" clip-path="url(#pb01b4221ab)" style="fill: none; stroke: #b0b0b0; stroke-width: 0.8; stroke-linecap: square"/>
     </g>
     <g id="line2d_78">
      <g>
       <use xlink:href="#m6add4e78d2" x="147.358527" y="764.277656" style="stroke: #000000; stroke-width: 0.8"/>
      </g>
     </g>
     <g id="text_45">
      <!-- 5 -->
      <g transform="translate(144.177277 778.875313) scale(0.1 -0.1)">
       <use xlink:href="#DejaVuSans-18"/>
      </g>
     </g>
    </g>
    <g id="xtick_21">
     <g id="line2d_79">
      <path d="M 232.032143 764.277656 
L 232.032143 628.56 
" clip-path="url(#pb01b4221ab)" style="fill: none; stroke: #b0b0b0; stroke-width: 0.8; stroke-linecap: square"/>
     </g>
     <g id="line2d_80">
      <g>
       <use xlink:href="#m6add4e78d2" x="232.032143" y="764.277656" style="stroke: #000000; stroke-width: 0.8"/>
      </g>
     </g>
     <g id="text_46">
      <!-- 10 -->
      <g transform="translate(225.669643 778.875313) scale(0.1 -0.1)">
       <use xlink:href="#DejaVuSans-14"/>
       <use xlink:href="#DejaVuSans-13" transform="translate(63.625 0)"/>
      </g>
     </g>
    </g>
    <g id="xtick_22">
     <g id="line2d_81">
      <path d="M 316.705759 764.277656 
L 316.705759 628.56 
" clip-path="url(#pb01b4221ab)" style="fill: none; stroke: #b0b0b0; stroke-width: 0.8; stroke-linecap: square"/>
     </g>
     <g id="line2d_82">
      <g>
       <use xlink:href="#m6add4e78d2" x="316.705759" y="764.277656" style="stroke: #000000; stroke-width: 0.8"/>
      </g>
     </g>
     <g id="text_47">
      <!-- 15 -->
      <g transform="translate(310.343259 778.875313) scale(0.1 -0.1)">
       <use xlink:href="#DejaVuSans-14"/>
       <use xlink:href="#DejaVuSans-18" transform="translate(63.625 0)"/>
      </g>
     </g>
    </g>
    <g id="xtick_23">
     <g id="line2d_83">
      <path d="M 401.379376 764.277656 
L 401.379376 628.56 
" clip-path="url(#pb01b4221ab)" style="fill: none; stroke: #b0b0b0; stroke-width: 0.8; stroke-linecap: square"/>
     </g>
     <g id="line2d_84">
      <g>
       <use xlink:href="#m6add4e78d2" x="401.379376" y="764.277656" style="stroke: #000000; stroke-width: 0.8"/>
      </g>
     </g>
     <g id="text_48">
      <!-- 20 -->
      <g transform="translate(395.016876 778.875313) scale(0.1 -0.1)">
       <use xlink:href="#DejaVuSans-15"/>
       <use xlink:href="#DejaVuSans-13" transform="translate(63.625 0)"/>
      </g>
     </g>
    </g>
    <g id="xtick_24">
     <g id="line2d_85">
      <path d="M 486.052992 764.277656 
L 486.052992 628.56 
" clip-path="url(#pb01b4221ab)" style="fill: none; stroke: #b0b0b0; stroke-width: 0.8; stroke-linecap: square"/>
     </g>
     <g id="line2d_86">
      <g>
       <use xlink:href="#m6add4e78d2" x="486.052992" y="764.277656" style="stroke: #000000; stroke-width: 0.8"/>
      </g>
     </g>
     <g id="text_49">
      <!-- 25 -->
      <g transform="translate(479.690492 778.875313) scale(0.1 -0.1)">
       <use xlink:href="#DejaVuSans-15"/>
       <use xlink:href="#DejaVuSans-18" transform="translate(63.625 0)"/>
      </g>
     </g>
    </g>
    <g id="text_50">
     <!-- t (s) -->
     <g transform="translate(256.678636 792.875313) scale(0.1 -0.1)">
      <use xlink:href="#DejaVuSans-57"/>
      <use xlink:href="#DejaVuSans-3" transform="translate(39.203125 0)"/>
      <use xlink:href="#DejaVuSans-b" transform="translate(70.984375 0)"/>
      <use xlink:href="#DejaVuSans-56" transform="translate(110 0)"/>
      <use xlink:href="#DejaVuSans-c" transform="translate(162.09375 0)"/>
     </g>
    </g>
   </g>
   <g id="matplotlib.axis_8">
    <g id="ytick_14">
     <g id="line2d_87">
      <path d="M 42.28 758.108672 
L 491.188209 758.108672 
" clip-path="url(#pb01b4221ab)" style="fill: none; stroke: #b0b0b0; stroke-width: 0.8; stroke-linecap: square"/>
     </g>
     <g id="line2d_88">
      <g>
       <use xlink:href="#m043bb1b12c" x="42.28" y="758.108672" style="stroke: #000000; stroke-width: 0.8"/>
      </g>
     </g>
     <g id="text_51">
      <!-- 0.0 -->
      <g transform="translate(19.376875 761.9075) scale(0.1 -0.1)">
       <use xlink:href="#DejaVuSans-13"/>
       <use xlink:href="#DejaVuSans-11" transform="translate(63.625 0)"/>
       <use xlink:href="#DejaVuSans-13" transform="translate(95.40625 0)"/>
      </g>
     </g>
    </g>
    <g id="ytick_15">
     <g id="line2d_89">
      <path d="M 42.28 732.882687 
L 491.188209 732.882687 
" clip-path="url(#pb01b4221ab)" style="fill: none; stroke: #b0b0b0; stroke-width: 0.8; stroke-linecap: square"/>
     </g>
     <g id="line2d_90">
      <g>
       <use xlink:href="#m043bb1b12c" x="42.28" y="732.882687" style="stroke: #000000; stroke-width: 0.8"/>
      </g>
     </g>
     <g id="text_52">
      <!-- 0.2 -->
      <g transform="translate(19.376875 736.681515) scale(0.1 -0.1)">
       <use xlink:href="#DejaVuSans-13"/>
       <use xlink:href="#DejaVuSans-11" transform="translate(63.625 0)"/>
       <use xlink:href="#DejaVuSans-15" transform="translate(95.40625 0)"/>
      </g>
     </g>
    </g>
    <g id="ytick_16">
     <g id="line2d_91">
      <path d="M 42.28 707.656702 
L 491.188209 707.656702 
" clip-path="url(#pb01b4221ab)" style="fill: none; stroke: #b0b0b0; stroke-width: 0.8; stroke-linecap: square"/>
     </g>
     <g id="line2d_92">
      <g>
       <use xlink:href="#m043bb1b12c" x="42.28" y="707.656702" style="stroke: #000000; stroke-width: 0.8"/>
      </g>
     </g>
     <g id="text_53">
      <!-- 0.4 -->
      <g transform="translate(19.376875 711.45553) scale(0.1 -0.1)">
       <defs>
        <path id="DejaVuSans-17" d="M 2419 4116 
L 825 1625 
L 2419 1625 
L 2419 4116 
z
M 2253 4666 
L 3047 4666 
L 3047 1625 
L 3713 1625 
L 3713 1100 
L 3047 1100 
L 3047 0 
L 2419 0 
L 2419 1100 
L 313 1100 
L 313 1709 
L 2253 4666 
z
" transform="scale(0.015625)"/>
       </defs>
       <use xlink:href="#DejaVuSans-13"/>
       <use xlink:href="#DejaVuSans-11" transform="translate(63.625 0)"/>
       <use xlink:href="#DejaVuSans-17" transform="translate(95.40625 0)"/>
      </g>
     </g>
    </g>
    <g id="ytick_17">
     <g id="line2d_93">
      <path d="M 42.28 682.430717 
L 491.188209 682.430717 
" clip-path="url(#pb01b4221ab)" style="fill: none; stroke: #b0b0b0; stroke-width: 0.8; stroke-linecap: square"/>
     </g>
     <g id="line2d_94">
      <g>
       <use xlink:href="#m043bb1b12c" x="42.28" y="682.430717" style="stroke: #000000; stroke-width: 0.8"/>
      </g>
     </g>
     <g id="text_54">
      <!-- 0.6 -->
      <g transform="translate(19.376875 686.229546) scale(0.1 -0.1)">
       <defs>
        <path id="DejaVuSans-19" d="M 2113 2584 
Q 1688 2584 1439 2293 
Q 1191 2003 1191 1497 
Q 1191 994 1439 701 
Q 1688 409 2113 409 
Q 2538 409 2786 701 
Q 3034 994 3034 1497 
Q 3034 2003 2786 2293 
Q 2538 2584 2113 2584 
z
M 3366 4563 
L 3366 3988 
Q 3128 4100 2886 4159 
Q 2644 4219 2406 4219 
Q 1781 4219 1451 3797 
Q 1122 3375 1075 2522 
Q 1259 2794 1537 2939 
Q 1816 3084 2150 3084 
Q 2853 3084 3261 2657 
Q 3669 2231 3669 1497 
Q 3669 778 3244 343 
Q 2819 -91 2113 -91 
Q 1303 -91 875 529 
Q 447 1150 447 2328 
Q 447 3434 972 4092 
Q 1497 4750 2381 4750 
Q 2619 4750 2861 4703 
Q 3103 4656 3366 4563 
z
" transform="scale(0.015625)"/>
       </defs>
       <use xlink:href="#DejaVuSans-13"/>
       <use xlink:href="#DejaVuSans-11" transform="translate(63.625 0)"/>
       <use xlink:href="#DejaVuSans-19" transform="translate(95.40625 0)"/>
      </g>
     </g>
    </g>
    <g id="ytick_18">
     <g id="line2d_95">
      <path d="M 42.28 657.204733 
L 491.188209 657.204733 
" clip-path="url(#pb01b4221ab)" style="fill: none; stroke: #b0b0b0; stroke-width: 0.8; stroke-linecap: square"/>
     </g>
     <g id="line2d_96">
      <g>
       <use xlink:href="#m043bb1b12c" x="42.28" y="657.204733" style="stroke: #000000; stroke-width: 0.8"/>
      </g>
     </g>
     <g id="text_55">
      <!-- 0.8 -->
      <g transform="translate(19.376875 661.003561) scale(0.1 -0.1)">
       <defs>
        <path id="DejaVuSans-1b" d="M 2034 2216 
Q 1584 2216 1326 1975 
Q 1069 1734 1069 1313 
Q 1069 891 1326 650 
Q 1584 409 2034 409 
Q 2484 409 2743 651 
Q 3003 894 3003 1313 
Q 3003 1734 2745 1975 
Q 2488 2216 2034 2216 
z
M 1403 2484 
Q 997 2584 770 2862 
Q 544 3141 544 3541 
Q 544 4100 942 4425 
Q 1341 4750 2034 4750 
Q 2731 4750 3128 4425 
Q 3525 4100 3525 3541 
Q 3525 3141 3298 2862 
Q 3072 2584 2669 2484 
Q 3125 2378 3379 2068 
Q 3634 1759 3634 1313 
Q 3634 634 3220 271 
Q 2806 -91 2034 -91 
Q 1263 -91 848 271 
Q 434 634 434 1313 
Q 434 1759 690 2068 
Q 947 2378 1403 2484 
z
M 1172 3481 
Q 1172 3119 1398 2916 
Q 1625 2713 2034 2713 
Q 2441 2713 2670 2916 
Q 2900 3119 2900 3481 
Q 2900 3844 2670 4047 
Q 2441 4250 2034 4250 
Q 1625 4250 1398 4047 
Q 1172 3844 1172 3481 
z
" transform="scale(0.015625)"/>
       </defs>
       <use xlink:href="#DejaVuSans-13"/>
       <use xlink:href="#DejaVuSans-11" transform="translate(63.625 0)"/>
       <use xlink:href="#DejaVuSans-1b" transform="translate(95.40625 0)"/>
      </g>
     </g>
    </g>
    <g id="ytick_19">
     <g id="line2d_97">
      <path d="M 42.28 631.978748 
L 491.188209 631.978748 
" clip-path="url(#pb01b4221ab)" style="fill: none; stroke: #b0b0b0; stroke-width: 0.8; stroke-linecap: square"/>
     </g>
     <g id="line2d_98">
      <g>
       <use xlink:href="#m043bb1b12c" x="42.28" y="631.978748" style="stroke: #000000; stroke-width: 0.8"/>
      </g>
     </g>
     <g id="text_56">
      <!-- 1.0 -->
      <g transform="translate(19.376875 635.777576) scale(0.1 -0.1)">
       <use xlink:href="#DejaVuSans-14"/>
       <use xlink:href="#DejaVuSans-11" transform="translate(63.625 0)"/>
       <use xlink:href="#DejaVuSans-13" transform="translate(95.40625 0)"/>
      </g>
     </g>
    </g>
   </g>
   <g id="line2d_99">
    <path d="M 62.684919 758.108672 
L 63.774058 757.872048 
L 64.900675 757.22211 
L 66.029786 756.262493 
L 67.159188 755.066641 
L 69.417875 752.199768 
L 71.675748 748.931295 
L 75.063634 743.636043 
L 81.843708 732.538539 
L 84.093535 728.749548 
L 85.796326 726.960725 
L 89.176995 721.259813 
L 91.442451 717.482596 
L 95.94851 709.842644 
L 100.467663 702.25709 
L 102.15859 700.462755 
L 111.19242 685.274341 
L 125.867137 660.663933 
L 126.995894 658.761456 
L 128.14039 657.176288 
L 129.256369 654.981065 
L 131.524218 651.187657 
L 132.64067 649.226133 
L 133.77666 647.576608 
L 134.898326 645.426281 
L 136.029224 643.603527 
L 139.419925 640.266456 
L 141.110015 638.890205 
L 142.805506 637.823104 
L 144.496391 637.226095 
L 146.189162 637.258213 
L 147.883764 637.759044 
L 149.576538 639.288295 
L 151.275675 639.608558 
L 152.39841 641.04647 
L 157.48027 645.809394 
L 162.560186 651.042018 
L 165.94879 654.777407 
L 167.639668 656.3318 
L 169.333391 657.265447 
L 171.026728 658.503281 
L 174.414345 661.427531 
L 176.106594 663.517909 
L 177.802946 664.51834 
L 179.495056 666.25385 
L 180.623575 668.093378 
L 182.317469 669.904811 
L 183.446202 671.788129 
L 185.139635 673.312238 
L 186.269149 673.846388 
L 188.526956 673.7487 
L 189.655386 674.195195 
L 190.784204 674.997875 
L 191.913811 676.068227 
L 193.042481 677.337788 
L 194.171016 678.782729 
L 195.864871 680.26926 
L 199.25122 685.360911 
L 201.509699 688.958579 
L 202.638771 690.318129 
L 203.767627 690.870816 
L 204.896591 690.857447 
L 206.591919 690.404711 
L 208.285893 689.609714 
L 209.979474 688.557995 
L 211.676829 687.302398 
L 213.364025 685.853406 
L 214.492955 684.220444 
L 216.189982 682.664234 
L 217.883722 680.921456 
L 219.009265 679.092855 
L 224.089656 673.705865 
L 229.7375 664.253975 
L 231.427724 662.47485 
L 237.073453 652.856677 
L 244.975611 639.562175 
L 246.104393 637.799384 
L 247.233545 636.346779 
L 248.362737 635.365944 
L 249.491736 634.844793 
L 251.185804 634.728984 
L 252.313994 634.996386 
L 253.4433 635.527835 
L 255.700771 636.989981 
L 257.959072 638.412192 
L 260.781621 639.47331 
L 263.603805 640.000576 
L 264.733009 640.115307 
L 266.991005 639.994498 
L 269.249261 639.703574 
L 273.765071 639.065433 
L 277.152158 638.821021 
L 281.667585 638.85815 
L 295.780477 639.111791 
L 296.909225 639.658432 
L 298.048648 638.906889 
L 300.304587 639.024033 
L 301.433525 638.900577 
L 315.545898 639.120819 
L 316.674867 638.985815 
L 319.499724 638.963793 
L 320.626331 639.309826 
L 321.75547 639.802305 
L 323.449168 640.673818 
L 324.581425 641.905987 
L 327.965623 644.818705 
L 331.354102 648.001584 
L 338.129751 655.093138 
L 346.597541 664.411365 
L 347.72299 665.924222 
L 349.41658 666.650637 
L 351.10982 666.97157 
L 352.239703 667.740865 
L 353.371894 668.804474 
L 355.064049 670.068411 
L 356.190955 671.521559 
L 357.884239 673.062647 
L 360.145492 676.390876 
L 364.657587 683.583269 
L 366.352617 685.403721 
L 368.045398 686.877198 
L 369.739563 687.525627 
L 371.433063 687.53844 
L 373.126174 687.100314 
L 374.253979 686.13981 
L 375.385446 684.980053 
L 377.079547 683.772239 
L 380.467228 680.85828 
L 382.161584 679.213576 
L 383.854863 677.863632 
L 385.546067 677.323349 
L 387.240509 677.390461 
L 388.933729 677.906297 
L 392.320579 679.565266 
L 394.012646 679.700743 
L 395.708206 679.286906 
L 396.833198 678.477107 
L 398.528071 677.446926 
L 401.914814 674.888473 
L 406.995054 670.323565 
L 408.123409 669.74218 
L 409.81815 669.830837 
L 412.645231 670.788627 
L 414.336552 670.761599 
L 417.156241 669.370595 
L 420.544216 666.984095 
L 422.237055 665.615761 
L 423.929851 664.025403 
L 428.445648 656.72178 
L 430.139242 654.957417 
L 435.784976 645.529209 
L 437.477483 643.716322 
L 438.606571 641.859405 
L 439.738852 640.260393 
L 442.557739 637.860223 
L 445.379971 636.642054 
L 446.512183 636.474631 
L 448.767485 636.791578 
L 453.284765 638.43794 
L 454.41184 638.85294 
L 458.929371 639.50826 
L 463.445299 639.742912 
L 465.140626 640.326495 
L 466.266649 641.33998 
L 467.395567 642.526326 
L 469.654161 645.430835 
L 470.783291 647.022523 
L 470.783291 647.022523 
" clip-path="url(#pb01b4221ab)" style="fill: none; stroke: #1f77b4; stroke-width: 1.5; stroke-linecap: square"/>
   </g>
   <g id="line2d_100">
    <path d="M 62.684919 758.108672 
L 63.774058 638.977538 
L 470.783291 638.977538 
L 470.783291 638.977538 
" clip-path="url(#pb01b4221ab)" style="fill: none; stroke-dasharray: 9.6,2.4,1.5,2.4; stroke-dashoffset: 0; stroke: #ff7f0e; stroke-width: 1.5"/>
   </g>
   <g id="line2d_101">
    <path d="M 42.28 758.108672 
L 491.188209 758.108672 
" clip-path="url(#pb01b4221ab)" style="fill: none; stroke-dasharray: 3.7,1.6; stroke-dashoffset: 0; stroke: #ff0000"/>
   </g>
   <g id="line2d_102">
    <path d="M 42.28 631.978748 
L 491.188209 631.978748 
" clip-path="url(#pb01b4221ab)" style="fill: none; stroke-dasharray: 3.7,1.6; stroke-dashoffset: 0; stroke: #ff0000"/>
   </g>
   <g id="patch_21">
    <path d="M 42.28 764.277656 
L 42.28 628.56 
" style="fill: none; stroke: #000000; stroke-width: 0.8; stroke-linejoin: miter; stroke-linecap: square"/>
   </g>
   <g id="patch_22">
    <path d="M 491.188209 764.277656 
L 491.188209 628.56 
" style="fill: none; stroke: #000000; stroke-width: 0.8; stroke-linejoin: miter; stroke-linecap: square"/>
   </g>
   <g id="patch_23">
    <path d="M 42.28 764.277656 
L 491.188209 764.277656 
" style="fill: none; stroke: #000000; stroke-width: 0.8; stroke-linejoin: miter; stroke-linecap: square"/>
   </g>
   <g id="patch_24">
    <path d="M 42.28 628.56 
L 491.188209 628.56 
" style="fill: none; stroke: #000000; stroke-width: 0.8; stroke-linejoin: miter; stroke-linecap: square"/>
   </g>
   <g id="text_57">
    <!-- $v_x$ (m/s) -->
    <g transform="translate(242.914105 622.56) scale(0.12 -0.12)">
     <defs>
      <path id="DejaVuSans-Oblique-59" d="M 459 3500 
L 1069 3500 
L 1581 525 
L 3256 3500 
L 3866 3500 
L 1875 0 
L 1100 0 
L 459 3500 
z
" transform="scale(0.015625)"/>
      <path id="DejaVuSans-Oblique-5b" d="M 3841 3500 
L 2234 1784 
L 3219 0 
L 2559 0 
L 1819 1388 
L 531 0 
L -166 0 
L 1556 1844 
L 641 3500 
L 1300 3500 
L 1972 2234 
L 3144 3500 
L 3841 3500 
z
" transform="scale(0.015625)"/>
      <path id="DejaVuSans-12" d="M 1625 4666 
L 2156 4666 
L 531 -594 
L 0 -594 
L 1625 4666 
z
" transform="scale(0.015625)"/>
     </defs>
     <use xlink:href="#DejaVuSans-Oblique-59" transform="translate(0 0.125)"/>
     <use xlink:href="#DejaVuSans-Oblique-5b" transform="translate(59.179688 -14.874951) scale(0.7)"/>
     <use xlink:href="#DejaVuSans-3" transform="translate(103.339844 0.125)"/>
     <use xlink:href="#DejaVuSans-b" transform="translate(135.126953 0.125)"/>
     <use xlink:href="#DejaVuSans-50" transform="translate(174.140625 0.125)"/>
     <use xlink:href="#DejaVuSans-12" transform="translate(271.552734 0.125)"/>
     <use xlink:href="#DejaVuSans-56" transform="translate(305.244141 0.125)"/>
     <use xlink:href="#DejaVuSans-c" transform="translate(357.34375 0.125)"/>
    </g>
   </g>
   <g id="legend_4">
    <g id="patch_25">
     <path d="M 428.588209 712.919609 
L 484.188209 712.919609 
Q 486.188209 712.919609 486.188209 710.919609 
L 486.188209 681.918047 
Q 486.188209 679.918047 484.188209 679.918047 
L 428.588209 679.918047 
Q 426.588209 679.918047 426.588209 681.918047 
L 426.588209 710.919609 
Q 426.588209 712.919609 428.588209 712.919609 
z
" style="fill: #ffffff; opacity: 0.8; stroke: #cccccc; stroke-linejoin: miter"/>
    </g>
    <g id="line2d_103">
     <path d="M 430.588209 688.016484 
L 440.588209 688.016484 
L 450.588209 688.016484 
" style="fill: none; stroke: #1f77b4; stroke-width: 1.5; stroke-linecap: square"/>
    </g>
    <g id="text_58">
     <!-- $v_x$ -->
     <g transform="translate(458.588209 691.516484) scale(0.1 -0.1)">
      <use xlink:href="#DejaVuSans-Oblique-59" transform="translate(0 0.3125)"/>
      <use xlink:href="#DejaVuSans-Oblique-5b" transform="translate(59.179688 -14.687451) scale(0.7)"/>
     </g>
    </g>
    <g id="line2d_104">
     <path d="M 430.588209 703.017266 
L 440.588209 703.017266 
L 450.588209 703.017266 
" style="fill: none; stroke-dasharray: 9.6,2.4,1.5,2.4; stroke-dashoffset: 0; stroke: #ff7f0e; stroke-width: 1.5"/>
    </g>
    <g id="text_59">
     <!-- $v_{x,ref}$ -->
     <g transform="translate(458.588209 706.517266) scale(0.1 -0.1)">
      <defs>
       <path id="DejaVuSans-f" d="M 750 794 
L 1409 794 
L 1409 256 
L 897 -744 
L 494 -744 
L 750 256 
L 750 794 
z
" transform="scale(0.015625)"/>
      </defs>
      <use xlink:href="#DejaVuSans-Oblique-59" transform="translate(0 0.3125)"/>
      <use xlink:href="#DejaVuSans-Oblique-5b" transform="translate(59.179688 -14.687451) scale(0.7)"/>
      <use xlink:href="#DejaVuSans-f" transform="translate(100.605469 -14.687451) scale(0.7)"/>
      <use xlink:href="#DejaVuSans-Oblique-55" transform="translate(136.494141 -14.687451) scale(0.7)"/>
      <use xlink:href="#DejaVuSans-Oblique-48" transform="translate(165.273438 -14.687451) scale(0.7)"/>
      <use xlink:href="#DejaVuSans-Oblique-49" transform="translate(208.339844 -14.687451) scale(0.7)"/>
     </g>
    </g>
   </g>
  </g>
  <g id="text_60">
   <!-- QCar2 States -->
   <g transform="translate(212.211563 25.245188) scale(0.12 -0.12)">
    <defs>
     <path id="DejaVuSans-34" d="M 2522 4238 
Q 1834 4238 1429 3725 
Q 1025 3213 1025 2328 
Q 1025 1447 1429 934 
Q 1834 422 2522 422 
Q 3209 422 3611 934 
Q 4013 1447 4013 2328 
Q 4013 3213 3611 3725 
Q 3209 4238 2522 4238 
z
M 3406 84 
L 4238 -825 
L 3475 -825 
L 2784 -78 
Q 2681 -84 2626 -87 
Q 2572 -91 2522 -91 
Q 1538 -91 948 567 
Q 359 1225 359 2328 
Q 359 3434 948 4092 
Q 1538 4750 2522 4750 
Q 3503 4750 4090 4092 
Q 4678 3434 4678 2328 
Q 4678 1516 4351 937 
Q 4025 359 3406 84 
z
" transform="scale(0.015625)"/>
     <path id="DejaVuSans-26" d="M 4122 4306 
L 4122 3641 
Q 3803 3938 3442 4084 
Q 3081 4231 2675 4231 
Q 1875 4231 1450 3742 
Q 1025 3253 1025 2328 
Q 1025 1406 1450 917 
Q 1875 428 2675 428 
Q 3081 428 3442 575 
Q 3803 722 4122 1019 
L 4122 359 
Q 3791 134 3420 21 
Q 3050 -91 2638 -91 
Q 1578 -91 968 557 
Q 359 1206 359 2328 
Q 359 3453 968 4101 
Q 1578 4750 2638 4750 
Q 3056 4750 3426 4639 
Q 3797 4528 4122 4306 
z
" transform="scale(0.015625)"/>
     <path id="DejaVuSans-36" d="M 3425 4513 
L 3425 3897 
Q 3066 4069 2747 4153 
Q 2428 4238 2131 4238 
Q 1616 4238 1336 4038 
Q 1056 3838 1056 3469 
Q 1056 3159 1242 3001 
Q 1428 2844 1947 2747 
L 2328 2669 
Q 3034 2534 3370 2195 
Q 3706 1856 3706 1288 
Q 3706 609 3251 259 
Q 2797 -91 1919 -91 
Q 1588 -91 1214 -16 
Q 841 59 441 206 
L 441 856 
Q 825 641 1194 531 
Q 1563 422 1919 422 
Q 2459 422 2753 634 
Q 3047 847 3047 1241 
Q 3047 1584 2836 1778 
Q 2625 1972 2144 2069 
L 1759 2144 
Q 1053 2284 737 2584 
Q 422 2884 422 3419 
Q 422 4038 858 4394 
Q 1294 4750 2059 4750 
Q 2388 4750 2728 4690 
Q 3069 4631 3425 4513 
z
" transform="scale(0.015625)"/>
     <path id="DejaVuSans-48" d="M 3597 1894 
L 3597 1613 
L 953 1613 
Q 991 1019 1311 708 
Q 1631 397 2203 397 
Q 2534 397 2845 478 
Q 3156 559 3463 722 
L 3463 178 
Q 3153 47 2828 -22 
Q 2503 -91 2169 -91 
Q 1331 -91 842 396 
Q 353 884 353 1716 
Q 353 2575 817 3079 
Q 1281 3584 2069 3584 
Q 2775 3584 3186 3129 
Q 3597 2675 3597 1894 
z
M 3022 2063 
Q 3016 2534 2758 2815 
Q 2500 3097 2075 3097 
Q 1594 3097 1305 2825 
Q 1016 2553 972 2059 
L 3022 2063 
z
" transform="scale(0.015625)"/>
    </defs>
    <use xlink:href="#DejaVuSans-34"/>
    <use xlink:href="#DejaVuSans-26" transform="translate(78.71875 0)"/>
    <use xlink:href="#DejaVuSans-44" transform="translate(148.546875 0)"/>
    <use xlink:href="#DejaVuSans-55" transform="translate(209.828125 0)"/>
    <use xlink:href="#DejaVuSans-15" transform="translate(250.9375 0)"/>
    <use xlink:href="#DejaVuSans-3" transform="translate(314.5625 0)"/>
    <use xlink:href="#DejaVuSans-36" transform="translate(346.34375 0)"/>
    <use xlink:href="#DejaVuSans-57" transform="translate(409.828125 0)"/>
    <use xlink:href="#DejaVuSans-44" transform="translate(449.03125 0)"/>
    <use xlink:href="#DejaVuSans-57" transform="translate(510.3125 0)"/>
    <use xlink:href="#DejaVuSans-48" transform="translate(549.515625 0)"/>
    <use xlink:href="#DejaVuSans-56" transform="translate(611.046875 0)"/>
   </g>
  </g>
 </g>
 <defs>
  <clipPath id="p3f5451c819">
   <rect x="42.28" y="48.96" width="448.908209" height="135.717656"/>
  </clipPath>
  <clipPath id="p9969b4b8e3">
   <rect x="42.28" y="242.16" width="448.908209" height="135.717656"/>
  </clipPath>
  <clipPath id="pa8268b9ff8">
   <rect x="42.28" y="435.36" width="448.908209" height="135.717656"/>
  </clipPath>
  <clipPath id="pb01b4221ab">
   <rect x="42.28" y="628.56" width="448.908209" height="135.717656"/>
  </clipPath>
 </defs>
</svg>
