<?xml version="1.0" encoding="utf-8" standalone="no"?>
<!DOCTYPE svg PUBLIC "-//W3C//DTD SVG 1.1//EN"
  "http://www.w3.org/Graphics/SVG/1.1/DTD/svg11.dtd">
<svg xmlns:xlink="http://www.w3.org/1999/xlink" width="504pt" height="806.4pt" viewBox="0 0 504 806.4" xmlns="http://www.w3.org/2000/svg" version="1.1">
 <metadata>
  <rdf:RDF xmlns:dc="http://purl.org/dc/elements/1.1/" xmlns:cc="http://creativecommons.org/ns#" xmlns:rdf="http://www.w3.org/1999/02/22-rdf-syntax-ns#">
   <cc:Work>
    <dc:type rdf:resource="http://purl.org/dc/dcmitype/StillImage"/>
    <dc:date>2026-07-09T12:39:03.872940</dc:date>
    <dc:format>image/svg+xml</dc:format>
    <dc:creator>
     <cc:Agent>
      <dc:title>Matplotlib v3.11.0, https://matplotlib.org/</dc:title>
     </cc:Agent>
    </dc:creator>
   </cc:Work>
  </rdf:RDF>
 </metadata>
 <defs>
  <style type="text/css">*{stroke-linejoin: round; stroke-linecap: butt}</style>
 </defs>
 <g id="figure_1">
  <g id="patch_1">
   <path d="M 0 806.4 
L 504 806.4 
L 504 0 
L 0 0 
z
" style="fill: #ffffff"/>
  </g>
  <g id="axes_1">
   <g id="patch_2">
    <path d="M 42.28 184.677656 
L 491.188209 184.677656 
L 491.188209 48.96 
L 42.28 48.96 
z
" style="fill: #ffffff"/>
   </g>
   <g id="matplotlib.axis_1">
    <g id="xtick_1">
     <g id="line2d_1">
      <path d="M 62.68491 184.677656 
L 62.68491 48.96 
" clip-path="url(#p7fdc6c59c2)" style="fill: none; stroke: #b0b0b0; stroke-width: 0.8; stroke-linecap: square"/>
     </g>
     <g id="line2d_2">
      <defs>
       <path id="m278030520a" d="M 0 0 
L 0 3.5 
" style="stroke: #000000; stroke-width: 0.8"/>
      </defs>
      <g>
       <use xlink:href="#m278030520a" x="62.68491" y="184.677656" style="stroke: #000000; stroke-width: 0.8"/>
      </g>
     </g>
     <g id="text_1">
      <!-- 0 -->
      <g transform="translate(59.50366 199.275313) scale(0.1 -0.1)">
       <defs>
        <path id="DejaVuSans-13" d="M 2034 4250 
Q 1547 4250 1301 3770 
Q 1056 3291 1056 2328 
Q 1056 1369 1301 889 
Q 1547 409 2034 409 
Q 2525 409 2770 889 
Q 3016 1369 3016 2328 
Q 3016 3291 2770 3770 
Q 2525 4250 2034 4250 
z
M 2034 4750 
Q 2819 4750 3233 4129 
Q 3647 3509 3647 2328 
Q 3647 1150 3233 529 
Q 2819 -91 2034 -91 
Q 1250 -91 836 529 
Q 422 1150 422 2328 
Q 422 3509 836 4129 
Q 1250 4750 2034 4750 
z
" transform="scale(0.015625)"/>
       </defs>
       <use xlink:href="#DejaVuSans-13"/>
      </g>
     </g>
    </g>
    <g id="xtick_2">
     <g id="line2d_3">
      <path d="M 147.358527 184.677656 
L 147.358527 48.96 
" clip-path="url(#p7fdc6c59c2)" style="fill: none; stroke: #b0b0b0; stroke-width: 0.8; stroke-linecap: square"/>
     </g>
     <g id="line2d_4">
      <g>
       <use xlink:href="#m278030520a" x="147.358527" y="184.677656" style="stroke: #000000; stroke-width: 0.8"/>
      </g>
     </g>
     <g id="text_2">
      <!-- 5 -->
      <g transform="translate(144.177277 199.275313) scale(0.1 -0.1)">
       <defs>
        <path id="DejaVuSans-18" d="M 691 4666 
L 3169 4666 
L 3169 4134 
L 1269 4134 
L 1269 2991 
Q 1406 3038 1543 3061 
Q 1681 3084 1819 3084 
Q 2600 3084 3056 2656 
Q 3513 2228 3513 1497 
Q 3513 744 3044 326 
Q 2575 -91 1722 -91 
Q 1428 -91 1123 -41 
Q 819 9 494 109 
L 494 744 
Q 775 591 1075 516 
Q 1375 441 1709 441 
Q 2250 441 2565 725 
Q 2881 1009 2881 1497 
Q 2881 1984 2565 2268 
Q 2250 2553 1709 2553 
Q 1456 2553 1204 2497 
Q 953 2441 691 2322 
L 691 4666 
z
" transform="scale(0.015625)"/>
       </defs>
       <use xlink:href="#DejaVuSans-18"/>
      </g>
     </g>
    </g>
    <g id="xtick_3">
     <g id="line2d_5">
      <path d="M 232.032143 184.677656 
L 232.032143 48.96 
" clip-path="url(#p7fdc6c59c2)" style="fill: none; stroke: #b0b0b0; stroke-width: 0.8; stroke-linecap: square"/>
     </g>
     <g id="line2d_6">
      <g>
       <use xlink:href="#m278030520a" x="232.032143" y="184.677656" style="stroke: #000000; stroke-width: 0.8"/>
      </g>
     </g>
     <g id="text_3">
      <!-- 10 -->
      <g transform="translate(225.669643 199.275313) scale(0.1 -0.1)">
       <defs>
        <path id="DejaVuSans-14" d="M 794 531 
L 1825 531 
L 1825 4091 
L 703 3866 
L 703 4441 
L 1819 4666 
L 2450 4666 
L 2450 531 
L 3481 531 
L 3481 0 
L 794 0 
L 794 531 
z
" transform="scale(0.015625)"/>
       </defs>
       <use xlink:href="#DejaVuSans-14"/>
       <use xlink:href="#DejaVuSans-13" transform="translate(63.625 0)"/>
      </g>
     </g>
    </g>
    <g id="xtick_4">
     <g id="line2d_7">
      <path d="M 316.705759 184.677656 
L 316.705759 48.96 
" clip-path="url(#p7fdc6c59c2)" style="fill: none; stroke: #b0b0b0; stroke-width: 0.8; stroke-linecap: square"/>
     </g>
     <g id="line2d_8">
      <g>
       <use xlink:href="#m278030520a" x="316.705759" y="184.677656" style="stroke: #000000; stroke-width: 0.8"/>
      </g>
     </g>
     <g id="text_4">
      <!-- 15 -->
      <g transform="translate(310.343259 199.275313) scale(0.1 -0.1)">
       <use xlink:href="#DejaVuSans-14"/>
       <use xlink:href="#DejaVuSans-18" transform="translate(63.625 0)"/>
      </g>
     </g>
    </g>
    <g id="xtick_5">
     <g id="line2d_9">
      <path d="M 401.379376 184.677656 
L 401.379376 48.96 
" clip-path="url(#p7fdc6c59c2)" style="fill: none; stroke: #b0b0b0; stroke-width: 0.8; stroke-linecap: square"/>
     </g>
     <g id="line2d_10">
      <g>
       <use xlink:href="#m278030520a" x="401.379376" y="184.677656" style="stroke: #000000; stroke-width: 0.8"/>
      </g>
     </g>
     <g id="text_5">
      <!-- 20 -->
      <g transform="translate(395.016876 199.275313) scale(0.1 -0.1)">
       <defs>
        <path id="DejaVuSans-15" d="M 1228 531 
L 3431 531 
L 3431 0 
L 469 0 
L 469 531 
Q 828 903 1448 1529 
Q 2069 2156 2228 2338 
Q 2531 2678 2651 2914 
Q 2772 3150 2772 3378 
Q 2772 3750 2511 3984 
Q 2250 4219 1831 4219 
Q 1534 4219 1204 4116 
Q 875 4013 500 3803 
L 500 4441 
Q 881 4594 1212 4672 
Q 1544 4750 1819 4750 
Q 2544 4750 2975 4387 
Q 3406 4025 3406 3419 
Q 3406 3131 3298 2873 
Q 3191 2616 2906 2266 
Q 2828 2175 2409 1742 
Q 1991 1309 1228 531 
z
" transform="scale(0.015625)"/>
       </defs>
       <use xlink:href="#DejaVuSans-15"/>
       <use xlink:href="#DejaVuSans-13" transform="translate(63.625 0)"/>
      </g>
     </g>
    </g>
    <g id="xtick_6">
     <g id="line2d_11">
      <path d="M 486.052992 184.677656 
L 486.052992 48.96 
" clip-path="url(#p7fdc6c59c2)" style="fill: none; stroke: #b0b0b0; stroke-width: 0.8; stroke-linecap: square"/>
     </g>
     <g id="line2d_12">
      <g>
       <use xlink:href="#m278030520a" x="486.052992" y="184.677656" style="stroke: #000000; stroke-width: 0.8"/>
      </g>
     </g>
     <g id="text_6">
      <!-- 25 -->
      <g transform="translate(479.690492 199.275313) scale(0.1 -0.1)">
       <use xlink:href="#DejaVuSans-15"/>
       <use xlink:href="#DejaVuSans-18" transform="translate(63.625 0)"/>
      </g>
     </g>
    </g>
    <g id="text_7">
     <!-- t (s) -->
     <g transform="translate(256.678636 213.275313) scale(0.1 -0.1)">
      <defs>
       <path id="DejaVuSans-57" d="M 1172 4494 
L 1172 3500 
L 2356 3500 
L 2356 3053 
L 1172 3053 
L 1172 1153 
Q 1172 725 1289 603 
Q 1406 481 1766 481 
L 2356 481 
L 2356 0 
L 1766 0 
Q 1100 0 847 248 
Q 594 497 594 1153 
L 594 3053 
L 172 3053 
L 172 3500 
L 594 3500 
L 594 4494 
L 1172 4494 
z
" transform="scale(0.015625)"/>
       <path id="DejaVuSans-3" transform="scale(0.015625)"/>
       <path id="DejaVuSans-b" d="M 1984 4856 
Q 1566 4138 1362 3434 
Q 1159 2731 1159 2009 
Q 1159 1288 1364 580 
Q 1569 -128 1984 -844 
L 1484 -844 
Q 1016 -109 783 600 
Q 550 1309 550 2009 
Q 550 2706 781 3412 
Q 1013 4119 1484 4856 
L 1984 4856 
z
" transform="scale(0.015625)"/>
       <path id="DejaVuSans-56" d="M 2834 3397 
L 2834 2853 
Q 2591 2978 2328 3040 
Q 2066 3103 1784 3103 
Q 1356 3103 1142 2972 
Q 928 2841 928 2578 
Q 928 2378 1081 2264 
Q 1234 2150 1697 2047 
L 1894 2003 
Q 2506 1872 2764 1633 
Q 3022 1394 3022 966 
Q 3022 478 2636 193 
Q 2250 -91 1575 -91 
Q 1294 -91 989 -36 
Q 684 19 347 128 
L 347 722 
Q 666 556 975 473 
Q 1284 391 1588 391 
Q 1994 391 2212 530 
Q 2431 669 2431 922 
Q 2431 1156 2273 1281 
Q 2116 1406 1581 1522 
L 1381 1569 
Q 847 1681 609 1914 
Q 372 2147 372 2553 
Q 372 3047 722 3315 
Q 1072 3584 1716 3584 
Q 2034 3584 2315 3537 
Q 2597 3491 2834 3397 
z
" transform="scale(0.015625)"/>
       <path id="DejaVuSans-c" d="M 513 4856 
L 1013 4856 
Q 1481 4119 1714 3412 
Q 1947 2706 1947 2009 
Q 1947 1309 1714 600 
Q 1481 -109 1013 -844 
L 513 -844 
Q 928 -128 1133 580 
Q 1338 1288 1338 2009 
Q 1338 2731 1133 3434 
Q 928 4138 513 4856 
z
" transform="scale(0.015625)"/>
      </defs>
      <use xlink:href="#DejaVuSans-57"/>
      <use xlink:href="#DejaVuSans-3" transform="translate(39.203125 0)"/>
      <use xlink:href="#DejaVuSans-b" transform="translate(70.984375 0)"/>
      <use xlink:href="#DejaVuSans-56" transform="translate(110 0)"/>
      <use xlink:href="#DejaVuSans-c" transform="translate(162.09375 0)"/>
     </g>
    </g>
   </g>
   <g id="matplotlib.axis_2">
    <g id="ytick_1">
     <g id="line2d_13">
      <path d="M 42.28 177.511026 
L 491.188209 177.511026 
" clip-path="url(#p7fdc6c59c2)" style="fill: none; stroke: #b0b0b0; stroke-width: 0.8; stroke-linecap: square"/>
     </g>
     <g id="line2d_14">
      <defs>
       <path id="m930b6ccea3" d="M 0 0 
L -3.5 0 
" style="stroke: #000000; stroke-width: 0.8"/>
      </defs>
      <g>
       <use xlink:href="#m930b6ccea3" x="42.28" y="177.511026" style="stroke: #000000; stroke-width: 0.8"/>
      </g>
     </g>
     <g id="text_8">
      <!-- 0.0 -->
      <g transform="translate(19.376875 181.309854) scale(0.1 -0.1)">
       <defs>
        <path id="DejaVuSans-11" d="M 684 794 
L 1344 794 
L 1344 0 
L 684 0 
L 684 794 
z
" transform="scale(0.015625)"/>
       </defs>
       <use xlink:href="#DejaVuSans-13"/>
       <use xlink:href="#DejaVuSans-11" transform="translate(63.625 0)"/>
       <use xlink:href="#DejaVuSans-13" transform="translate(95.40625 0)"/>
      </g>
     </g>
    </g>
    <g id="ytick_2">
     <g id="line2d_15">
      <path d="M 42.28 144.875963 
L 491.188209 144.875963 
" clip-path="url(#p7fdc6c59c2)" style="fill: none; stroke: #b0b0b0; stroke-width: 0.8; stroke-linecap: square"/>
     </g>
     <g id="line2d_16">
      <g>
       <use xlink:href="#m930b6ccea3" x="42.28" y="144.875963" style="stroke: #000000; stroke-width: 0.8"/>
      </g>
     </g>
     <g id="text_9">
      <!-- 0.1 -->
      <g transform="translate(19.376875 148.674791) scale(0.1 -0.1)">
       <use xlink:href="#DejaVuSans-13"/>
       <use xlink:href="#DejaVuSans-11" transform="translate(63.625 0)"/>
       <use xlink:href="#DejaVuSans-14" transform="translate(95.40625 0)"/>
      </g>
     </g>
    </g>
    <g id="ytick_3">
     <g id="line2d_17">
      <path d="M 42.28 112.240901 
L 491.188209 112.240901 
" clip-path="url(#p7fdc6c59c2)" style="fill: none; stroke: #b0b0b0; stroke-width: 0.8; stroke-linecap: square"/>
     </g>
     <g id="line2d_18">
      <g>
       <use xlink:href="#m930b6ccea3" x="42.28" y="112.240901" style="stroke: #000000; stroke-width: 0.8"/>
      </g>
     </g>
     <g id="text_10">
      <!-- 0.2 -->
      <g transform="translate(19.376875 116.039729) scale(0.1 -0.1)">
       <use xlink:href="#DejaVuSans-13"/>
       <use xlink:href="#DejaVuSans-11" transform="translate(63.625 0)"/>
       <use xlink:href="#DejaVuSans-15" transform="translate(95.40625 0)"/>
      </g>
     </g>
    </g>
    <g id="ytick_4">
     <g id="line2d_19">
      <path d="M 42.28 79.605838 
L 491.188209 79.605838 
" clip-path="url(#p7fdc6c59c2)" style="fill: none; stroke: #b0b0b0; stroke-width: 0.8; stroke-linecap: square"/>
     </g>
     <g id="line2d_20">
      <g>
       <use xlink:href="#m930b6ccea3" x="42.28" y="79.605838" style="stroke: #000000; stroke-width: 0.8"/>
      </g>
     </g>
     <g id="text_11">
      <!-- 0.3 -->
      <g transform="translate(19.376875 83.404666) scale(0.1 -0.1)">
       <defs>
        <path id="DejaVuSans-16" d="M 2597 2516 
Q 3050 2419 3304 2112 
Q 3559 1806 3559 1356 
Q 3559 666 3084 287 
Q 2609 -91 1734 -91 
Q 1441 -91 1130 -33 
Q 819 25 488 141 
L 488 750 
Q 750 597 1062 519 
Q 1375 441 1716 441 
Q 2309 441 2620 675 
Q 2931 909 2931 1356 
Q 2931 1769 2642 2001 
Q 2353 2234 1838 2234 
L 1294 2234 
L 1294 2753 
L 1863 2753 
Q 2328 2753 2575 2939 
Q 2822 3125 2822 3475 
Q 2822 3834 2567 4026 
Q 2313 4219 1838 4219 
Q 1578 4219 1281 4162 
Q 984 4106 628 3988 
L 628 4550 
Q 988 4650 1302 4700 
Q 1616 4750 1894 4750 
Q 2613 4750 3031 4423 
Q 3450 4097 3450 3541 
Q 3450 3153 3228 2886 
Q 3006 2619 2597 2516 
z
" transform="scale(0.015625)"/>
       </defs>
       <use xlink:href="#DejaVuSans-13"/>
       <use xlink:href="#DejaVuSans-11" transform="translate(63.625 0)"/>
       <use xlink:href="#DejaVuSans-16" transform="translate(95.40625 0)"/>
      </g>
     </g>
    </g>
   </g>
   <g id="line2d_21">
    <path d="M 62.684919 177.511041 
L 124.738551 177.580081 
L 141.110015 178.25176 
L 147.883764 178.508672 
L 149.576538 177.974579 
L 151.275675 175.488793 
L 152.39841 172.276318 
L 154.092714 165.356016 
L 155.785621 156.543742 
L 159.172669 137.530669 
L 160.865875 130.298151 
L 162.560186 124.914246 
L 164.255253 118.753543 
L 165.94879 112.156084 
L 167.639668 104.291708 
L 169.333391 95.606032 
L 171.026728 88.443928 
L 172.720407 84.300036 
L 174.414345 81.979595 
L 176.106594 82.402368 
L 177.802946 85.188567 
L 179.495056 86.94098 
L 180.623575 87.255297 
L 182.317469 86.453854 
L 183.446202 84.994847 
L 185.139635 82.117671 
L 187.397127 76.080875 
L 189.655386 69.727932 
L 191.913811 64.886693 
L 193.042481 62.826649 
L 194.171016 61.017221 
L 195.864871 58.75285 
L 196.993598 57.559813 
L 198.122678 56.615962 
L 199.25122 55.912151 
L 200.380813 55.437143 
L 201.509699 55.178049 
L 202.638771 55.128984 
L 203.767627 55.312287 
L 204.896591 55.755149 
L 206.591919 56.937807 
L 208.285893 58.781623 
L 209.979474 61.312726 
L 211.676829 64.649703 
L 214.492955 71.574517 
L 216.189982 76.618518 
L 222.398018 96.270726 
L 233.686225 136.032737 
L 235.943429 144.480983 
L 240.461213 159.523132 
L 241.588136 162.879843 
L 242.717372 165.837588 
L 243.846348 168.455316 
L 244.975611 170.660316 
L 246.104393 172.469959 
L 247.233545 173.906305 
L 248.362737 174.975453 
L 249.491736 175.758424 
L 251.185804 176.480122 
L 253.4433 176.925955 
L 256.831074 177.202752 
L 262.475861 177.299128 
L 294.651524 177.654395 
L 309.90092 177.707413 
L 324.581425 177.602107 
L 326.272913 176.543781 
L 327.965623 173.957856 
L 329.661781 170.283015 
L 331.354102 166.053652 
L 333.049588 161.255785 
L 334.740076 155.630183 
L 338.129751 143.288228 
L 339.823518 137.773072 
L 341.516538 133.144112 
L 343.210696 128.93268 
L 344.901599 124.211091 
L 347.72299 115.205452 
L 353.371894 95.592494 
L 356.190955 87.392465 
L 357.884239 83.316431 
L 359.012913 81.047647 
L 360.145492 79.098629 
L 361.271258 77.463269 
L 362.399722 76.129573 
L 363.531693 75.076829 
L 364.657587 74.265697 
L 366.352617 73.483259 
L 368.045398 73.173876 
L 369.739563 73.342119 
L 371.433063 73.744121 
L 373.126174 74.757368 
L 374.253979 75.590255 
L 375.385446 77.211138 
L 377.079547 79.198616 
L 378.772431 82.440406 
L 383.854863 96.325591 
L 385.546067 99.880589 
L 387.240509 101.966123 
L 388.933729 103.198909 
L 390.626834 103.496094 
L 392.320579 102.216009 
L 394.012646 100.315464 
L 395.708206 96.858286 
L 396.833198 95.489492 
L 398.528071 94.027055 
L 400.220802 94.201723 
L 401.914814 96.242644 
L 403.608065 100.251199 
L 408.123409 116.068515 
L 409.81815 120.209936 
L 411.510482 123.160496 
L 412.645231 124.799153 
L 414.336552 129.032453 
L 415.462259 132.909316 
L 417.156241 140.252273 
L 418.849104 148.215983 
L 420.544216 155.610447 
L 422.237055 161.403822 
L 423.929851 165.516989 
L 425.058161 167.709855 
L 426.190896 169.662816 
L 427.316342 171.379768 
L 428.445648 172.801272 
L 430.139242 174.354065 
L 431.271274 175.069501 
L 432.397652 175.648921 
L 434.656598 176.370477 
L 437.477483 176.867211 
L 441.430603 177.288509 
L 445.379971 177.469208 
L 454.41184 177.532208 
L 470.783291 177.505884 
L 470.783291 177.505884 
" clip-path="url(#p7fdc6c59c2)" style="fill: none; stroke: #1f77b4; stroke-width: 1.5; stroke-linecap: square"/>
   </g>
   <g id="patch_3">
    <path d="M 42.28 184.677656 
L 42.28 48.96 
" style="fill: none; stroke: #000000; stroke-width: 0.8; stroke-linejoin: miter; stroke-linecap: square"/>
   </g>
   <g id="patch_4">
    <path d="M 491.188209 184.677656 
L 491.188209 48.96 
" style="fill: none; stroke: #000000; stroke-width: 0.8; stroke-linejoin: miter; stroke-linecap: square"/>
   </g>
   <g id="patch_5">
    <path d="M 42.28 184.677656 
L 491.188209 184.677656 
" style="fill: none; stroke: #000000; stroke-width: 0.8; stroke-linejoin: miter; stroke-linecap: square"/>
   </g>
   <g id="patch_6">
    <path d="M 42.28 48.96 
L 491.188209 48.96 
" style="fill: none; stroke: #000000; stroke-width: 0.8; stroke-linejoin: miter; stroke-linecap: square"/>
   </g>
   <g id="text_12">
    <!-- $X_e$ (m) -->
    <g transform="translate(247.414105 42.96) scale(0.12 -0.12)">
     <defs>
      <path id="DejaVuSans-Oblique-3b" d="M 878 4666 
L 1516 4666 
L 2316 2981 
L 3763 4666 
L 4500 4666 
L 2578 2438 
L 3738 0 
L 3103 0 
L 2163 1966 
L 459 0 
L -275 0 
L 1906 2509 
L 878 4666 
z
" transform="scale(0.015625)"/>
      <path id="DejaVuSans-Oblique-48" d="M 3078 2063 
Q 3088 2113 3092 2166 
Q 3097 2219 3097 2272 
Q 3097 2653 2873 2875 
Q 2650 3097 2266 3097 
Q 1838 3097 1509 2826 
Q 1181 2556 1013 2059 
L 3078 2063 
z
M 3578 1613 
L 903 1613 
Q 884 1494 878 1425 
Q 872 1356 872 1306 
Q 872 872 1139 634 
Q 1406 397 1894 397 
Q 2269 397 2603 481 
Q 2938 566 3225 728 
L 3116 159 
Q 2806 34 2476 -28 
Q 2147 -91 1806 -91 
Q 1078 -91 686 257 
Q 294 606 294 1247 
Q 294 1794 489 2264 
Q 684 2734 1063 3103 
Q 1306 3334 1642 3459 
Q 1978 3584 2356 3584 
Q 2950 3584 3301 3228 
Q 3653 2872 3653 2272 
Q 3653 2128 3634 1964 
Q 3616 1800 3578 1613 
z
" transform="scale(0.015625)"/>
      <path id="DejaVuSans-50" d="M 3328 2828 
Q 3544 3216 3844 3400 
Q 4144 3584 4550 3584 
Q 5097 3584 5394 3201 
Q 5691 2819 5691 2113 
L 5691 0 
L 5113 0 
L 5113 2094 
Q 5113 2597 4934 2840 
Q 4756 3084 4391 3084 
Q 3944 3084 3684 2787 
Q 3425 2491 3425 1978 
L 3425 0 
L 2847 0 
L 2847 2094 
Q 2847 2600 2669 2842 
Q 2491 3084 2119 3084 
Q 1678 3084 1418 2786 
Q 1159 2488 1159 1978 
L 1159 0 
L 581 0 
L 581 3500 
L 1159 3500 
L 1159 2956 
Q 1356 3278 1631 3431 
Q 1906 3584 2284 3584 
Q 2666 3584 2933 3390 
Q 3200 3197 3328 2828 
z
" transform="scale(0.015625)"/>
     </defs>
     <use xlink:href="#DejaVuSans-Oblique-3b" transform="translate(0 0.125)"/>
     <use xlink:href="#DejaVuSans-Oblique-48" transform="translate(68.505859 -14.874951) scale(0.7)"/>
     <use xlink:href="#DejaVuSans-3" transform="translate(114.306641 0.125)"/>
     <use xlink:href="#DejaVuSans-b" transform="translate(146.09375 0.125)"/>
     <use xlink:href="#DejaVuSans-50" transform="translate(185.107422 0.125)"/>
     <use xlink:href="#DejaVuSans-c" transform="translate(282.519531 0.125)"/>
    </g>
   </g>
   <g id="legend_1">
    <g id="patch_7">
     <path d="M 440.688209 71.960781 
L 484.188209 71.960781 
Q 486.188209 71.960781 486.188209 69.960781 
L 486.188209 55.96 
Q 486.188209 53.96 484.188209 53.96 
L 440.688209 53.96 
Q 438.688209 53.96 438.688209 55.96 
L 438.688209 69.960781 
Q 438.688209 71.960781 440.688209 71.960781 
z
" style="fill: #ffffff; opacity: 0.8; stroke: #cccccc; stroke-linejoin: miter"/>
    </g>
    <g id="line2d_22">
     <path d="M 442.688209 62.058438 
L 452.688209 62.058438 
L 462.688209 62.058438 
" style="fill: none; stroke: #1f77b4; stroke-width: 1.5; stroke-linecap: square"/>
    </g>
    <g id="text_13">
     <!-- $X_e$ -->
     <g transform="translate(470.688209 65.558438) scale(0.1 -0.1)">
      <use xlink:href="#DejaVuSans-Oblique-3b" transform="translate(0 0.09375)"/>
      <use xlink:href="#DejaVuSans-Oblique-48" transform="translate(68.505859 -14.906201) scale(0.7)"/>
     </g>
    </g>
   </g>
  </g>
  <g id="axes_2">
   <g id="patch_8">
    <path d="M 42.28 377.877656 
L 491.188209 377.877656 
L 491.188209 242.16 
L 42.28 242.16 
z
" style="fill: #ffffff"/>
   </g>
   <g id="matplotlib.axis_3">
    <g id="xtick_7">
     <g id="line2d_23">
      <path d="M 62.68491 377.877656 
L 62.68491 242.16 
" clip-path="url(#p69302c7df9)" style="fill: none; stroke: #b0b0b0; stroke-width: 0.8; stroke-linecap: square"/>
     </g>
     <g id="line2d_24">
      <g>
       <use xlink:href="#m278030520a" x="62.68491" y="377.877656" style="stroke: #000000; stroke-width: 0.8"/>
      </g>
     </g>
     <g id="text_14">
      <!-- 0 -->
      <g transform="translate(59.50366 392.475312) scale(0.1 -0.1)">
       <use xlink:href="#DejaVuSans-13"/>
      </g>
     </g>
    </g>
    <g id="xtick_8">
     <g id="line2d_25">
      <path d="M 147.358527 377.877656 
L 147.358527 242.16 
" clip-path="url(#p69302c7df9)" style="fill: none; stroke: #b0b0b0; stroke-width: 0.8; stroke-linecap: square"/>
     </g>
     <g id="line2d_26">
      <g>
       <use xlink:href="#m278030520a" x="147.358527" y="377.877656" style="stroke: #000000; stroke-width: 0.8"/>
      </g>
     </g>
     <g id="text_15">
      <!-- 5 -->
      <g transform="translate(144.177277 392.475312) scale(0.1 -0.1)">
       <use xlink:href="#DejaVuSans-18"/>
      </g>
     </g>
    </g>
    <g id="xtick_9">
     <g id="line2d_27">
      <path d="M 232.032143 377.877656 
L 232.032143 242.16 
" clip-path="url(#p69302c7df9)" style="fill: none; stroke: #b0b0b0; stroke-width: 0.8; stroke-linecap: square"/>
     </g>
     <g id="line2d_28">
      <g>
       <use xlink:href="#m278030520a" x="232.032143" y="377.877656" style="stroke: #000000; stroke-width: 0.8"/>
      </g>
     </g>
     <g id="text_16">
      <!-- 10 -->
      <g transform="translate(225.669643 392.475312) scale(0.1 -0.1)">
       <use xlink:href="#DejaVuSans-14"/>
       <use xlink:href="#DejaVuSans-13" transform="translate(63.625 0)"/>
      </g>
     </g>
    </g>
    <g id="xtick_10">
     <g id="line2d_29">
      <path d="M 316.705759 377.877656 
L 316.705759 242.16 
" clip-path="url(#p69302c7df9)" style="fill: none; stroke: #b0b0b0; stroke-width: 0.8; stroke-linecap: square"/>
     </g>
     <g id="line2d_30">
      <g>
       <use xlink:href="#m278030520a" x="316.705759" y="377.877656" style="stroke: #000000; stroke-width: 0.8"/>
      </g>
     </g>
     <g id="text_17">
      <!-- 15 -->
      <g transform="translate(310.343259 392.475312) scale(0.1 -0.1)">
       <use xlink:href="#DejaVuSans-14"/>
       <use xlink:href="#DejaVuSans-18" transform="translate(63.625 0)"/>
      </g>
     </g>
    </g>
    <g id="xtick_11">
     <g id="line2d_31">
      <path d="M 401.379376 377.877656 
L 401.379376 242.16 
" clip-path="url(#p69302c7df9)" style="fill: none; stroke: #b0b0b0; stroke-width: 0.8; stroke-linecap: square"/>
     </g>
     <g id="line2d_32">
      <g>
       <use xlink:href="#m278030520a" x="401.379376" y="377.877656" style="stroke: #000000; stroke-width: 0.8"/>
      </g>
     </g>
     <g id="text_18">
      <!-- 20 -->
      <g transform="translate(395.016876 392.475312) scale(0.1 -0.1)">
       <use xlink:href="#DejaVuSans-15"/>
       <use xlink:href="#DejaVuSans-13" transform="translate(63.625 0)"/>
      </g>
     </g>
    </g>
    <g id="xtick_12">
     <g id="line2d_33">
      <path d="M 486.052992 377.877656 
L 486.052992 242.16 
" clip-path="url(#p69302c7df9)" style="fill: none; stroke: #b0b0b0; stroke-width: 0.8; stroke-linecap: square"/>
     </g>
     <g id="line2d_34">
      <g>
       <use xlink:href="#m278030520a" x="486.052992" y="377.877656" style="stroke: #000000; stroke-width: 0.8"/>
      </g>
     </g>
     <g id="text_19">
      <!-- 25 -->
      <g transform="translate(479.690492 392.475312) scale(0.1 -0.1)">
       <use xlink:href="#DejaVuSans-15"/>
       <use xlink:href="#DejaVuSans-18" transform="translate(63.625 0)"/>
      </g>
     </g>
    </g>
    <g id="text_20">
     <!-- t (s) -->
     <g transform="translate(256.678636 406.475312) scale(0.1 -0.1)">
      <use xlink:href="#DejaVuSans-57"/>
      <use xlink:href="#DejaVuSans-3" transform="translate(39.203125 0)"/>
      <use xlink:href="#DejaVuSans-b" transform="translate(70.984375 0)"/>
      <use xlink:href="#DejaVuSans-56" transform="translate(110 0)"/>
      <use xlink:href="#DejaVuSans-c" transform="translate(162.09375 0)"/>
     </g>
    </g>
   </g>
   <g id="matplotlib.axis_4">
    <g id="ytick_5">
     <g id="line2d_35">
      <path d="M 42.28 376.521976 
L 491.188209 376.521976 
" clip-path="url(#p69302c7df9)" style="fill: none; stroke: #b0b0b0; stroke-width: 0.8; stroke-linecap: square"/>
     </g>
     <g id="line2d_36">
      <g>
       <use xlink:href="#m930b6ccea3" x="42.28" y="376.521976" style="stroke: #000000; stroke-width: 0.8"/>
      </g>
     </g>
     <g id="text_21">
      <!-- −1.5 -->
      <g transform="translate(10.997188 380.320804) scale(0.1 -0.1)">
       <defs>
        <path id="DejaVuSans-c9c" d="M 678 2272 
L 4684 2272 
L 4684 1741 
L 678 1741 
L 678 2272 
z
" transform="scale(0.015625)"/>
       </defs>
       <use xlink:href="#DejaVuSans-c9c"/>
       <use xlink:href="#DejaVuSans-14" transform="translate(83.796875 0)"/>
       <use xlink:href="#DejaVuSans-11" transform="translate(147.421875 0)"/>
       <use xlink:href="#DejaVuSans-18" transform="translate(179.203125 0)"/>
      </g>
     </g>
    </g>
    <g id="ytick_6">
     <g id="line2d_37">
      <path d="M 42.28 352.682575 
L 491.188209 352.682575 
" clip-path="url(#p69302c7df9)" style="fill: none; stroke: #b0b0b0; stroke-width: 0.8; stroke-linecap: square"/>
     </g>
     <g id="line2d_38">
      <g>
       <use xlink:href="#m930b6ccea3" x="42.28" y="352.682575" style="stroke: #000000; stroke-width: 0.8"/>
      </g>
     </g>
     <g id="text_22">
      <!-- −1.0 -->
      <g transform="translate(10.997188 356.481403) scale(0.1 -0.1)">
       <use xlink:href="#DejaVuSans-c9c"/>
       <use xlink:href="#DejaVuSans-14" transform="translate(83.796875 0)"/>
       <use xlink:href="#DejaVuSans-11" transform="translate(147.421875 0)"/>
       <use xlink:href="#DejaVuSans-13" transform="translate(179.203125 0)"/>
      </g>
     </g>
    </g>
    <g id="ytick_7">
     <g id="line2d_39">
      <path d="M 42.28 328.843175 
L 491.188209 328.843175 
" clip-path="url(#p69302c7df9)" style="fill: none; stroke: #b0b0b0; stroke-width: 0.8; stroke-linecap: square"/>
     </g>
     <g id="line2d_40">
      <g>
       <use xlink:href="#m930b6ccea3" x="42.28" y="328.843175" style="stroke: #000000; stroke-width: 0.8"/>
      </g>
     </g>
     <g id="text_23">
      <!-- −0.5 -->
      <g transform="translate(10.997188 332.642003) scale(0.1 -0.1)">
       <use xlink:href="#DejaVuSans-c9c"/>
       <use xlink:href="#DejaVuSans-13" transform="translate(83.796875 0)"/>
       <use xlink:href="#DejaVuSans-11" transform="translate(147.421875 0)"/>
       <use xlink:href="#DejaVuSans-18" transform="translate(179.203125 0)"/>
      </g>
     </g>
    </g>
    <g id="ytick_8">
     <g id="line2d_41">
      <path d="M 42.28 305.003774 
L 491.188209 305.003774 
" clip-path="url(#p69302c7df9)" style="fill: none; stroke: #b0b0b0; stroke-width: 0.8; stroke-linecap: square"/>
     </g>
     <g id="line2d_42">
      <g>
       <use xlink:href="#m930b6ccea3" x="42.28" y="305.003774" style="stroke: #000000; stroke-width: 0.8"/>
      </g>
     </g>
     <g id="text_24">
      <!-- 0.0 -->
      <g transform="translate(19.376875 308.802602) scale(0.1 -0.1)">
       <use xlink:href="#DejaVuSans-13"/>
       <use xlink:href="#DejaVuSans-11" transform="translate(63.625 0)"/>
       <use xlink:href="#DejaVuSans-13" transform="translate(95.40625 0)"/>
      </g>
     </g>
    </g>
    <g id="ytick_9">
     <g id="line2d_43">
      <path d="M 42.28 281.164373 
L 491.188209 281.164373 
" clip-path="url(#p69302c7df9)" style="fill: none; stroke: #b0b0b0; stroke-width: 0.8; stroke-linecap: square"/>
     </g>
     <g id="line2d_44">
      <g>
       <use xlink:href="#m930b6ccea3" x="42.28" y="281.164373" style="stroke: #000000; stroke-width: 0.8"/>
      </g>
     </g>
     <g id="text_25">
      <!-- 0.5 -->
      <g transform="translate(19.376875 284.963201) scale(0.1 -0.1)">
       <use xlink:href="#DejaVuSans-13"/>
       <use xlink:href="#DejaVuSans-11" transform="translate(63.625 0)"/>
       <use xlink:href="#DejaVuSans-18" transform="translate(95.40625 0)"/>
      </g>
     </g>
    </g>
    <g id="ytick_10">
     <g id="line2d_45">
      <path d="M 42.28 257.324973 
L 491.188209 257.324973 
" clip-path="url(#p69302c7df9)" style="fill: none; stroke: #b0b0b0; stroke-width: 0.8; stroke-linecap: square"/>
     </g>
     <g id="line2d_46">
      <g>
       <use xlink:href="#m930b6ccea3" x="42.28" y="257.324973" style="stroke: #000000; stroke-width: 0.8"/>
      </g>
     </g>
     <g id="text_26">
      <!-- 1.0 -->
      <g transform="translate(19.376875 261.123801) scale(0.1 -0.1)">
       <use xlink:href="#DejaVuSans-14"/>
       <use xlink:href="#DejaVuSans-11" transform="translate(63.625 0)"/>
       <use xlink:href="#DejaVuSans-13" transform="translate(95.40625 0)"/>
      </g>
     </g>
    </g>
   </g>
   <g id="line2d_47">
    <path d="M 62.684919 305.00377 
L 110.062359 304.886404 
L 126.995894 304.61436 
L 132.64067 304.568411 
L 141.110015 304.602476 
L 147.883764 304.65068 
L 149.576538 304.848109 
L 151.275675 305.653976 
L 152.39841 306.660159 
L 154.092714 308.804435 
L 155.785621 311.560235 
L 159.172669 317.694018 
L 160.865875 320.240984 
L 162.560186 322.468168 
L 164.255253 325.074978 
L 165.94879 328.073182 
L 172.720407 340.894534 
L 174.414345 343.396907 
L 176.106594 345.400004 
L 180.623575 349.424644 
L 183.446202 352.806776 
L 186.269149 356.969946 
L 189.655386 362.65046 
L 191.913811 365.840346 
L 193.042481 367.178615 
L 194.171016 368.338298 
L 195.864871 369.754168 
L 196.993598 370.47501 
L 198.122678 371.022131 
L 199.25122 371.403483 
L 200.380813 371.628694 
L 201.509699 371.708672 
L 202.638771 371.650744 
L 203.767627 371.447018 
L 204.896591 371.087106 
L 206.591919 370.246925 
L 208.285893 369.038329 
L 209.979474 367.461274 
L 211.676829 365.531664 
L 214.492955 361.575317 
L 217.883722 355.898819 
L 224.089656 344.992386 
L 231.427724 331.15056 
L 232.557693 329.159883 
L 237.073453 320.507056 
L 240.461213 314.61414 
L 242.717372 311.296392 
L 243.846348 309.931514 
L 244.975611 308.76342 
L 246.104393 307.797443 
L 247.233545 307.031858 
L 248.362737 306.448969 
L 249.491736 306.022492 
L 251.185804 305.620312 
L 253.4433 305.370864 
L 257.959072 305.192907 
L 268.119562 305.202289 
L 299.177606 305.19626 
L 324.581425 305.052436 
L 326.272913 304.490082 
L 327.965623 303.122054 
L 329.661781 301.180655 
L 331.354102 298.942469 
L 333.049588 296.391717 
L 334.740076 293.397961 
L 338.129751 286.797041 
L 339.823518 283.824793 
L 341.516538 281.28677 
L 343.210696 278.951051 
L 344.901599 276.322208 
L 347.72299 271.40039 
L 353.371894 260.724645 
L 356.190955 256.139269 
L 357.884239 253.831993 
L 359.012913 252.510909 
L 360.145492 251.374037 
L 361.271258 250.422716 
L 362.399722 249.655059 
L 363.531693 249.066524 
L 364.657587 248.650869 
L 366.352617 248.328984 
L 368.045398 248.353081 
L 369.739563 248.73459 
L 371.433063 249.505106 
L 373.126174 250.66259 
L 374.253979 251.667595 
L 375.385446 252.835423 
L 377.079547 254.943034 
L 378.772431 257.376032 
L 380.467228 260.0819 
L 383.854863 265.797202 
L 385.546067 268.25505 
L 387.240509 270.348142 
L 388.933729 272.007705 
L 390.626834 273.214725 
L 392.320579 274.005216 
L 394.012646 274.314918 
L 395.708206 274.269367 
L 396.833198 274.393302 
L 398.528071 275.003018 
L 400.220802 276.090247 
L 401.914814 277.64995 
L 403.608065 279.665095 
L 406.995054 284.352983 
L 408.123409 285.620833 
L 409.81815 287.085745 
L 411.510482 287.992676 
L 412.645231 288.417219 
L 414.336552 289.488232 
L 415.462259 290.512925 
L 417.156241 292.491991 
L 418.849104 294.921814 
L 420.544216 297.09159 
L 422.237055 298.838561 
L 423.929851 300.097482 
L 427.316342 301.968513 
L 428.445648 302.498823 
L 431.271274 303.433492 
L 433.525477 303.897965 
L 435.784976 304.207377 
L 441.430603 304.54537 
L 449.899399 304.843008 
L 460.060321 304.940158 
L 470.783291 305.016918 
L 470.783291 305.016918 
" clip-path="url(#p69302c7df9)" style="fill: none; stroke: #1f77b4; stroke-width: 1.5; stroke-linecap: square"/>
   </g>
   <g id="patch_9">
    <path d="M 42.28 377.877656 
L 42.28 242.16 
" style="fill: none; stroke: #000000; stroke-width: 0.8; stroke-linejoin: miter; stroke-linecap: square"/>
   </g>
   <g id="patch_10">
    <path d="M 491.188209 377.877656 
L 491.188209 242.16 
" style="fill: none; stroke: #000000; stroke-width: 0.8; stroke-linejoin: miter; stroke-linecap: square"/>
   </g>
   <g id="patch_11">
    <path d="M 42.28 377.877656 
L 491.188209 377.877656 
" style="fill: none; stroke: #000000; stroke-width: 0.8; stroke-linejoin: miter; stroke-linecap: square"/>
   </g>
   <g id="patch_12">
    <path d="M 42.28 242.16 
L 491.188209 242.16 
" style="fill: none; stroke: #000000; stroke-width: 0.8; stroke-linejoin: miter; stroke-linecap: square"/>
   </g>
   <g id="text_27">
    <!-- $Y_e$ (m) -->
    <g transform="translate(247.834105 236.16) scale(0.12 -0.12)">
     <defs>
      <path id="DejaVuSans-Oblique-3c" d="M 403 4666 
L 1081 4666 
L 1953 2747 
L 3616 4666 
L 4325 4666 
L 2209 2222 
L 1778 0 
L 1147 0 
L 1575 2222 
L 403 4666 
z
" transform="scale(0.015625)"/>
     </defs>
     <use xlink:href="#DejaVuSans-Oblique-3c" transform="translate(0 0.125)"/>
     <use xlink:href="#DejaVuSans-Oblique-48" transform="translate(61.083984 -14.874951) scale(0.7)"/>
     <use xlink:href="#DejaVuSans-3" transform="translate(106.884766 0.125)"/>
     <use xlink:href="#DejaVuSans-b" transform="translate(138.671875 0.125)"/>
     <use xlink:href="#DejaVuSans-50" transform="translate(177.685547 0.125)"/>
     <use xlink:href="#DejaVuSans-c" transform="translate(275.097656 0.125)"/>
    </g>
   </g>
   <g id="legend_2">
    <g id="patch_13">
     <path d="M 441.488209 265.160781 
L 484.188209 265.160781 
Q 486.188209 265.160781 486.188209 263.160781 
L 486.188209 249.16 
Q 486.188209 247.16 484.188209 247.16 
L 441.488209 247.16 
Q 439.488209 247.16 439.488209 249.16 
L 439.488209 263.160781 
Q 439.488209 265.160781 441.488209 265.160781 
z
" style="fill: #ffffff; opacity: 0.8; stroke: #cccccc; stroke-linejoin: miter"/>
    </g>
    <g id="line2d_48">
     <path d="M 443.488209 255.258438 
L 453.488209 255.258438 
L 463.488209 255.258438 
" style="fill: none; stroke: #1f77b4; stroke-width: 1.5; stroke-linecap: square"/>
    </g>
    <g id="text_28">
     <!-- $Y_e$ -->
     <g transform="translate(471.488209 258.758438) scale(0.1 -0.1)">
      <use xlink:href="#DejaVuSans-Oblique-3c" transform="translate(0 0.09375)"/>
      <use xlink:href="#DejaVuSans-Oblique-48" transform="translate(61.083984 -14.906201) scale(0.7)"/>
     </g>
    </g>
   </g>
  </g>
  <g id="axes_3">
   <g id="patch_14">
    <path d="M 42.28 571.077656 
L 491.188209 571.077656 
L 491.188209 435.36 
L 42.28 435.36 
z
" style="fill: #ffffff"/>
   </g>
   <g id="matplotlib.axis_5">
    <g id="xtick_13">
     <g id="line2d_49">
      <path d="M 62.68491 571.077656 
L 62.68491 435.36 
" clip-path="url(#pdf2255776b)" style="fill: none; stroke: #b0b0b0; stroke-width: 0.8; stroke-linecap: square"/>
     </g>
     <g id="line2d_50">
      <g>
       <use xlink:href="#m278030520a" x="62.68491" y="571.077656" style="stroke: #000000; stroke-width: 0.8"/>
      </g>
     </g>
     <g id="text_29">
      <!-- 0 -->
      <g transform="translate(59.50366 585.675313) scale(0.1 -0.1)">
       <use xlink:href="#DejaVuSans-13"/>
      </g>
     </g>
    </g>
    <g id="xtick_14">
     <g id="line2d_51">
      <path d="M 147.358527 571.077656 
L 147.358527 435.36 
" clip-path="url(#pdf2255776b)" style="fill: none; stroke: #b0b0b0; stroke-width: 0.8; stroke-linecap: square"/>
     </g>
     <g id="line2d_52">
      <g>
       <use xlink:href="#m278030520a" x="147.358527" y="571.077656" style="stroke: #000000; stroke-width: 0.8"/>
      </g>
     </g>
     <g id="text_30">
      <!-- 5 -->
      <g transform="translate(144.177277 585.675313) scale(0.1 -0.1)">
       <use xlink:href="#DejaVuSans-18"/>
      </g>
     </g>
    </g>
    <g id="xtick_15">
     <g id="line2d_53">
      <path d="M 232.032143 571.077656 
L 232.032143 435.36 
" clip-path="url(#pdf2255776b)" style="fill: none; stroke: #b0b0b0; stroke-width: 0.8; stroke-linecap: square"/>
     </g>
     <g id="line2d_54">
      <g>
       <use xlink:href="#m278030520a" x="232.032143" y="571.077656" style="stroke: #000000; stroke-width: 0.8"/>
      </g>
     </g>
     <g id="text_31">
      <!-- 10 -->
      <g transform="translate(225.669643 585.675313) scale(0.1 -0.1)">
       <use xlink:href="#DejaVuSans-14"/>
       <use xlink:href="#DejaVuSans-13" transform="translate(63.625 0)"/>
      </g>
     </g>
    </g>
    <g id="xtick_16">
     <g id="line2d_55">
      <path d="M 316.705759 571.077656 
L 316.705759 435.36 
" clip-path="url(#pdf2255776b)" style="fill: none; stroke: #b0b0b0; stroke-width: 0.8; stroke-linecap: square"/>
     </g>
     <g id="line2d_56">
      <g>
       <use xlink:href="#m278030520a" x="316.705759" y="571.077656" style="stroke: #000000; stroke-width: 0.8"/>
      </g>
     </g>
     <g id="text_32">
      <!-- 15 -->
      <g transform="translate(310.343259 585.675313) scale(0.1 -0.1)">
       <use xlink:href="#DejaVuSans-14"/>
       <use xlink:href="#DejaVuSans-18" transform="translate(63.625 0)"/>
      </g>
     </g>
    </g>
    <g id="xtick_17">
     <g id="line2d_57">
      <path d="M 401.379376 571.077656 
L 401.379376 435.36 
" clip-path="url(#pdf2255776b)" style="fill: none; stroke: #b0b0b0; stroke-width: 0.8; stroke-linecap: square"/>
     </g>
     <g id="line2d_58">
      <g>
       <use xlink:href="#m278030520a" x="401.379376" y="571.077656" style="stroke: #000000; stroke-width: 0.8"/>
      </g>
     </g>
     <g id="text_33">
      <!-- 20 -->
      <g transform="translate(395.016876 585.675313) scale(0.1 -0.1)">
       <use xlink:href="#DejaVuSans-15"/>
       <use xlink:href="#DejaVuSans-13" transform="translate(63.625 0)"/>
      </g>
     </g>
    </g>
    <g id="xtick_18">
     <g id="line2d_59">
      <path d="M 486.052992 571.077656 
L 486.052992 435.36 
" clip-path="url(#pdf2255776b)" style="fill: none; stroke: #b0b0b0; stroke-width: 0.8; stroke-linecap: square"/>
     </g>
     <g id="line2d_60">
      <g>
       <use xlink:href="#m278030520a" x="486.052992" y="571.077656" style="stroke: #000000; stroke-width: 0.8"/>
      </g>
     </g>
     <g id="text_34">
      <!-- 25 -->
      <g transform="translate(479.690492 585.675313) scale(0.1 -0.1)">
       <use xlink:href="#DejaVuSans-15"/>
       <use xlink:href="#DejaVuSans-18" transform="translate(63.625 0)"/>
      </g>
     </g>
    </g>
    <g id="text_35">
     <!-- t (s) -->
     <g transform="translate(256.678636 599.675313) scale(0.1 -0.1)">
      <use xlink:href="#DejaVuSans-57"/>
      <use xlink:href="#DejaVuSans-3" transform="translate(39.203125 0)"/>
      <use xlink:href="#DejaVuSans-b" transform="translate(70.984375 0)"/>
      <use xlink:href="#DejaVuSans-56" transform="translate(110 0)"/>
      <use xlink:href="#DejaVuSans-c" transform="translate(162.09375 0)"/>
     </g>
    </g>
   </g>
   <g id="matplotlib.axis_6">
    <g id="ytick_11">
     <g id="line2d_61">
      <path d="M 42.28 550.550854 
L 491.188209 550.550854 
" clip-path="url(#pdf2255776b)" style="fill: none; stroke: #b0b0b0; stroke-width: 0.8; stroke-linecap: square"/>
     </g>
     <g id="line2d_62">
      <g>
       <use xlink:href="#m930b6ccea3" x="42.28" y="550.550854" style="stroke: #000000; stroke-width: 0.8"/>
      </g>
     </g>
     <g id="text_36">
      <!-- −1 -->
      <g transform="translate(20.537813 554.349682) scale(0.1 -0.1)">
       <use xlink:href="#DejaVuSans-c9c"/>
       <use xlink:href="#DejaVuSans-14" transform="translate(83.796875 0)"/>
      </g>
     </g>
    </g>
    <g id="ytick_12">
     <g id="line2d_63">
      <path d="M 42.28 507.635508 
L 491.188209 507.635508 
" clip-path="url(#pdf2255776b)" style="fill: none; stroke: #b0b0b0; stroke-width: 0.8; stroke-linecap: square"/>
     </g>
     <g id="line2d_64">
      <g>
       <use xlink:href="#m930b6ccea3" x="42.28" y="507.635508" style="stroke: #000000; stroke-width: 0.8"/>
      </g>
     </g>
     <g id="text_37">
      <!-- 0 -->
      <g transform="translate(28.9175 511.434336) scale(0.1 -0.1)">
       <use xlink:href="#DejaVuSans-13"/>
      </g>
     </g>
    </g>
    <g id="ytick_13">
     <g id="line2d_65">
      <path d="M 42.28 464.720162 
L 491.188209 464.720162 
" clip-path="url(#pdf2255776b)" style="fill: none; stroke: #b0b0b0; stroke-width: 0.8; stroke-linecap: square"/>
     </g>
     <g id="line2d_66">
      <g>
       <use xlink:href="#m930b6ccea3" x="42.28" y="464.720162" style="stroke: #000000; stroke-width: 0.8"/>
      </g>
     </g>
     <g id="text_38">
      <!-- 1 -->
      <g transform="translate(28.9175 468.51899) scale(0.1 -0.1)">
       <use xlink:href="#DejaVuSans-14"/>
      </g>
     </g>
    </g>
   </g>
   <g id="line2d_67">
    <path d="M 62.684919 507.635508 
L 63.774058 506.736512 
L 64.900675 506.361105 
L 66.029786 506.325324 
L 67.159188 506.500388 
L 68.287816 506.844632 
L 69.417875 507.340046 
L 70.545844 507.975323 
L 71.675748 507.844346 
L 72.803533 507.198604 
L 73.934814 507.576077 
L 75.063634 508.624883 
L 76.191961 508.445819 
L 77.321744 507.018459 
L 78.448653 507.057507 
L 79.577788 508.674589 
L 80.709727 508.610607 
L 81.843708 506.753131 
L 82.967322 506.790014 
L 84.093535 508.738215 
L 85.796326 509.53235 
L 86.916895 507.240987 
L 88.045839 506.016554 
L 89.176995 507.234729 
L 90.30542 508.631145 
L 91.442451 507.543574 
L 92.567452 506.043222 
L 93.696321 506.825742 
L 94.822918 508.394945 
L 95.94851 508.123837 
L 97.077711 506.741093 
L 98.211746 506.558848 
L 99.336151 507.600034 
L 100.467663 508.132594 
L 102.15859 507.519191 
L 103.289159 506.964105 
L 104.416666 507.125868 
L 105.54568 507.58213 
L 106.67334 507.711694 
L 108.933485 507.310437 
L 111.19242 507.454285 
L 113.447581 507.477307 
L 116.836619 507.389869 
L 122.480775 507.298991 
L 126.995894 507.323983 
L 129.256369 507.514796 
L 133.77666 508.096241 
L 137.725047 507.726318 
L 144.496391 507.949744 
L 146.189162 507.87852 
L 147.883764 508.282623 
L 149.576538 511.561018 
L 151.275675 519.676625 
L 154.092714 536.747769 
L 155.785621 546.176213 
L 157.48027 551.358339 
L 159.172669 547.086506 
L 160.865875 538.529704 
L 162.560186 536.951623 
L 167.639668 562.099113 
L 169.333391 564.908672 
L 176.106594 529.393853 
L 177.802946 523.641949 
L 179.495056 526.191936 
L 187.397127 559.260933 
L 188.526956 559.277704 
L 191.913811 544.759006 
L 195.864871 529.074556 
L 199.25122 516.688858 
L 206.591919 491.258403 
L 209.979474 478.50897 
L 213.364025 465.071887 
L 216.189982 453.247912 
L 217.883722 450.425442 
L 219.009265 454.993808 
L 220.70386 459.593986 
L 222.398018 455.970406 
L 224.089656 451.05065 
L 225.218359 454.193883 
L 226.347627 459.784949 
L 227.476287 460.744162 
L 228.607322 456.878715 
L 229.7375 457.86872 
L 231.427724 466.89592 
L 232.557693 466.84149 
L 233.686225 461.586432 
L 234.814388 462.407956 
L 235.943429 468.647621 
L 237.073453 472.466355 
L 238.201159 472.946216 
L 239.330817 473.847922 
L 240.461213 476.653677 
L 243.846348 487.98699 
L 246.104393 494.559652 
L 247.233545 497.445422 
L 248.362737 499.945952 
L 249.491736 502.009615 
L 251.185804 504.545562 
L 252.313994 505.627032 
L 253.4433 506.228623 
L 255.700771 506.884346 
L 257.959072 507.271303 
L 260.781621 507.538849 
L 265.862245 507.598295 
L 277.152158 507.447937 
L 281.667585 507.472157 
L 285.61968 507.618623 
L 294.651524 507.51959 
L 307.646577 507.447934 
L 319.499724 507.517061 
L 321.75547 507.734508 
L 323.449168 507.900621 
L 324.581425 505.947271 
L 326.272913 498.785709 
L 327.965623 489.795206 
L 329.661781 483.603722 
L 331.354102 479.387993 
L 333.049588 473.139338 
L 334.740076 464.109732 
L 336.434178 457.236289 
L 338.129751 458.251469 
L 339.823518 466.814327 
L 341.516538 473.634763 
L 343.210696 473.314691 
L 349.41658 444.281435 
L 351.10982 441.528984 
L 355.064049 459.425202 
L 359.012913 476.22401 
L 362.399722 489.574085 
L 366.352617 503.878871 
L 369.739563 515.857567 
L 374.253979 532.743391 
L 377.079547 543.944469 
L 380.467228 558.029916 
L 382.161584 560.330857 
L 387.240509 537.454025 
L 394.012646 507.907228 
L 395.708206 505.054624 
L 398.528071 516.46774 
L 401.914814 530.94553 
L 403.608065 538.555396 
L 405.301288 543.306606 
L 406.995054 539.661928 
L 409.81815 526.201547 
L 411.510482 518.512528 
L 412.645231 518.663948 
L 415.462259 532.348694 
L 417.156241 540.953153 
L 418.849104 544.313616 
L 423.929851 522.129544 
L 425.058161 519.891811 
L 426.190896 519.034606 
L 427.316342 518.025301 
L 428.445648 516.515695 
L 430.139242 513.960686 
L 431.271274 512.568451 
L 432.397652 511.628204 
L 435.784976 509.58142 
L 437.477483 508.922496 
L 438.606571 508.741783 
L 449.899399 508.057582 
L 454.41184 507.839498 
L 460.060321 507.744372 
L 470.783291 507.658364 
L 470.783291 507.658364 
" clip-path="url(#pdf2255776b)" style="fill: none; stroke: #1f77b4; stroke-width: 1.5; stroke-linecap: square"/>
   </g>
   <g id="patch_15">
    <path d="M 42.28 571.077656 
L 42.28 435.36 
" style="fill: none; stroke: #000000; stroke-width: 0.8; stroke-linejoin: miter; stroke-linecap: square"/>
   </g>
   <g id="patch_16">
    <path d="M 491.188209 571.077656 
L 491.188209 435.36 
" style="fill: none; stroke: #000000; stroke-width: 0.8; stroke-linejoin: miter; stroke-linecap: square"/>
   </g>
   <g id="patch_17">
    <path d="M 42.28 571.077656 
L 491.188209 571.077656 
" style="fill: none; stroke: #000000; stroke-width: 0.8; stroke-linejoin: miter; stroke-linecap: square"/>
   </g>
   <g id="patch_18">
    <path d="M 42.28 435.36 
L 491.188209 435.36 
" style="fill: none; stroke: #000000; stroke-width: 0.8; stroke-linejoin: miter; stroke-linecap: square"/>
   </g>
   <g id="text_39">
    <!-- $\Psi_e$ (rad) -->
    <g transform="translate(242.614105 429.36) scale(0.12 -0.12)">
     <defs>
      <path id="DejaVuSans-33c" d="M 2206 0 
Q 2209 419 2206 969 
Q 1538 969 950 1625 
Q 375 2263 359 3388 
L 359 4666 
L 1025 4666 
L 1025 3388 
Q 1025 2506 1431 1994 
Q 1775 1556 2206 1513 
L 2206 4666 
L 2838 4666 
L 2838 1513 
Q 3269 1556 3613 1994 
Q 4019 2506 4019 3388 
L 4019 4666 
L 4684 4666 
L 4684 3388 
Q 4669 2263 4094 1625 
Q 3506 969 2838 969 
Q 2834 744 2838 0 
L 2206 0 
z
" transform="scale(0.015625)"/>
      <path id="DejaVuSans-55" d="M 2631 2963 
Q 2534 3019 2420 3045 
Q 2306 3072 2169 3072 
Q 1681 3072 1420 2755 
Q 1159 2438 1159 1844 
L 1159 0 
L 581 0 
L 581 3500 
L 1159 3500 
L 1159 2956 
Q 1341 3275 1631 3429 
Q 1922 3584 2338 3584 
Q 2397 3584 2469 3576 
Q 2541 3569 2628 3553 
L 2631 2963 
z
" transform="scale(0.015625)"/>
      <path id="DejaVuSans-44" d="M 2194 1759 
Q 1497 1759 1228 1600 
Q 959 1441 959 1056 
Q 959 750 1161 570 
Q 1363 391 1709 391 
Q 2188 391 2477 730 
Q 2766 1069 2766 1631 
L 2766 1759 
L 2194 1759 
z
M 3341 1997 
L 3341 0 
L 2766 0 
L 2766 531 
Q 2569 213 2275 61 
Q 1981 -91 1556 -91 
Q 1019 -91 701 211 
Q 384 513 384 1019 
Q 384 1609 779 1909 
Q 1175 2209 1959 2209 
L 2766 2209 
L 2766 2266 
Q 2766 2663 2505 2880 
Q 2244 3097 1772 3097 
Q 1472 3097 1187 3025 
Q 903 2953 641 2809 
L 641 3341 
Q 956 3463 1253 3523 
Q 1550 3584 1831 3584 
Q 2591 3584 2966 3190 
Q 3341 2797 3341 1997 
z
" transform="scale(0.015625)"/>
      <path id="DejaVuSans-47" d="M 2906 2969 
L 2906 4863 
L 3481 4863 
L 3481 0 
L 2906 0 
L 2906 525 
Q 2725 213 2448 61 
Q 2172 -91 1784 -91 
Q 1150 -91 751 415 
Q 353 922 353 1747 
Q 353 2572 751 3078 
Q 1150 3584 1784 3584 
Q 2172 3584 2448 3432 
Q 2725 3281 2906 2969 
z
M 947 1747 
Q 947 1113 1208 752 
Q 1469 391 1925 391 
Q 2381 391 2643 752 
Q 2906 1113 2906 1747 
Q 2906 2381 2643 2742 
Q 2381 3103 1925 3103 
Q 1469 3103 1208 2742 
Q 947 2381 947 1747 
z
" transform="scale(0.015625)"/>
     </defs>
     <use xlink:href="#DejaVuSans-33c" transform="translate(0 0.015625)"/>
     <use xlink:href="#DejaVuSans-Oblique-48" transform="translate(79.667969 -14.984326) scale(0.7)"/>
     <use xlink:href="#DejaVuSans-3" transform="translate(125.46875 0.015625)"/>
     <use xlink:href="#DejaVuSans-b" transform="translate(157.255859 0.015625)"/>
     <use xlink:href="#DejaVuSans-55" transform="translate(196.269531 0.015625)"/>
     <use xlink:href="#DejaVuSans-44" transform="translate(237.382812 0.015625)"/>
     <use xlink:href="#DejaVuSans-47" transform="translate(298.662109 0.015625)"/>
     <use xlink:href="#DejaVuSans-c" transform="translate(362.138672 0.015625)"/>
    </g>
   </g>
   <g id="legend_3">
    <g id="patch_19">
     <path d="M 439.588209 458.360781 
L 484.188209 458.360781 
Q 486.188209 458.360781 486.188209 456.360781 
L 486.188209 442.36 
Q 486.188209 440.36 484.188209 440.36 
L 439.588209 440.36 
Q 437.588209 440.36 437.588209 442.36 
L 437.588209 456.360781 
Q 437.588209 458.360781 439.588209 458.360781 
z
" style="fill: #ffffff; opacity: 0.8; stroke: #cccccc; stroke-linejoin: miter"/>
    </g>
    <g id="line2d_68">
     <path d="M 441.588209 448.458438 
L 451.588209 448.458438 
L 461.588209 448.458438 
" style="fill: none; stroke: #1f77b4; stroke-width: 1.5; stroke-linecap: square"/>
    </g>
    <g id="text_40">
     <!-- $\Psi_e$ -->
     <g transform="translate(469.588209 451.958438) scale(0.1 -0.1)">
      <use xlink:href="#DejaVuSans-33c" transform="translate(0 0.09375)"/>
      <use xlink:href="#DejaVuSans-Oblique-48" transform="translate(79.667969 -14.906201) scale(0.7)"/>
     </g>
    </g>
   </g>
  </g>
  <g id="axes_4">
   <g id="patch_20">
    <path d="M 42.28 764.277656 
L 491.188209 764.277656 
L 491.188209 628.56 
L 42.28 628.56 
z
" style="fill: #ffffff"/>
   </g>
   <g id="matplotlib.axis_7">
    <g id="xtick_19">
     <g id="line2d_69">
      <path d="M 62.68491 764.277656 
L 62.68491 628.56 
" clip-path="url(#pac7a2695ab)" style="fill: none; stroke: #b0b0b0; stroke-width: 0.8; stroke-linecap: square"/>
     </g>
     <g id="line2d_70">
      <g>
       <use xlink:href="#m278030520a" x="62.68491" y="764.277656" style="stroke: #000000; stroke-width: 0.8"/>
      </g>
     </g>
     <g id="text_41">
      <!-- 0 -->
      <g transform="translate(59.50366 778.875313) scale(0.1 -0.1)">
       <use xlink:href="#DejaVuSans-13"/>
      </g>
     </g>
    </g>
    <g id="xtick_20">
     <g id="line2d_71">
      <path d="M 147.358527 764.277656 
L 147.358527 628.56 
" clip-path="url(#pac7a2695ab)" style="fill: none; stroke: #b0b0b0; stroke-width: 0.8; stroke-linecap: square"/>
     </g>
     <g id="line2d_72">
      <g>
       <use xlink:href="#m278030520a" x="147.358527" y="764.277656" style="stroke: #000000; stroke-width: 0.8"/>
      </g>
     </g>
     <g id="text_42">
      <!-- 5 -->
      <g transform="translate(144.177277 778.875313) scale(0.1 -0.1)">
       <use xlink:href="#DejaVuSans-18"/>
      </g>
     </g>
    </g>
    <g id="xtick_21">
     <g id="line2d_73">
      <path d="M 232.032143 764.277656 
L 232.032143 628.56 
" clip-path="url(#pac7a2695ab)" style="fill: none; stroke: #b0b0b0; stroke-width: 0.8; stroke-linecap: square"/>
     </g>
     <g id="line2d_74">
      <g>
       <use xlink:href="#m278030520a" x="232.032143" y="764.277656" style="stroke: #000000; stroke-width: 0.8"/>
      </g>
     </g>
     <g id="text_43">
      <!-- 10 -->
      <g transform="translate(225.669643 778.875313) scale(0.1 -0.1)">
       <use xlink:href="#DejaVuSans-14"/>
       <use xlink:href="#DejaVuSans-13" transform="translate(63.625 0)"/>
      </g>
     </g>
    </g>
    <g id="xtick_22">
     <g id="line2d_75">
      <path d="M 316.705759 764.277656 
L 316.705759 628.56 
" clip-path="url(#pac7a2695ab)" style="fill: none; stroke: #b0b0b0; stroke-width: 0.8; stroke-linecap: square"/>
     </g>
     <g id="line2d_76">
      <g>
       <use xlink:href="#m278030520a" x="316.705759" y="764.277656" style="stroke: #000000; stroke-width: 0.8"/>
      </g>
     </g>
     <g id="text_44">
      <!-- 15 -->
      <g transform="translate(310.343259 778.875313) scale(0.1 -0.1)">
       <use xlink:href="#DejaVuSans-14"/>
       <use xlink:href="#DejaVuSans-18" transform="translate(63.625 0)"/>
      </g>
     </g>
    </g>
    <g id="xtick_23">
     <g id="line2d_77">
      <path d="M 401.379376 764.277656 
L 401.379376 628.56 
" clip-path="url(#pac7a2695ab)" style="fill: none; stroke: #b0b0b0; stroke-width: 0.8; stroke-linecap: square"/>
     </g>
     <g id="line2d_78">
      <g>
       <use xlink:href="#m278030520a" x="401.379376" y="764.277656" style="stroke: #000000; stroke-width: 0.8"/>
      </g>
     </g>
     <g id="text_45">
      <!-- 20 -->
      <g transform="translate(395.016876 778.875313) scale(0.1 -0.1)">
       <use xlink:href="#DejaVuSans-15"/>
       <use xlink:href="#DejaVuSans-13" transform="translate(63.625 0)"/>
      </g>
     </g>
    </g>
    <g id="xtick_24">
     <g id="line2d_79">
      <path d="M 486.052992 764.277656 
L 486.052992 628.56 
" clip-path="url(#pac7a2695ab)" style="fill: none; stroke: #b0b0b0; stroke-width: 0.8; stroke-linecap: square"/>
     </g>
     <g id="line2d_80">
      <g>
       <use xlink:href="#m278030520a" x="486.052992" y="764.277656" style="stroke: #000000; stroke-width: 0.8"/>
      </g>
     </g>
     <g id="text_46">
      <!-- 25 -->
      <g transform="translate(479.690492 778.875313) scale(0.1 -0.1)">
       <use xlink:href="#DejaVuSans-15"/>
       <use xlink:href="#DejaVuSans-18" transform="translate(63.625 0)"/>
      </g>
     </g>
    </g>
    <g id="text_47">
     <!-- t (s) -->
     <g transform="translate(256.678636 792.875313) scale(0.1 -0.1)">
      <use xlink:href="#DejaVuSans-57"/>
      <use xlink:href="#DejaVuSans-3" transform="translate(39.203125 0)"/>
      <use xlink:href="#DejaVuSans-b" transform="translate(70.984375 0)"/>
      <use xlink:href="#DejaVuSans-56" transform="translate(110 0)"/>
      <use xlink:href="#DejaVuSans-c" transform="translate(162.09375 0)"/>
     </g>
    </g>
   </g>
   <g id="matplotlib.axis_8">
    <g id="ytick_14">
     <g id="line2d_81">
      <path d="M 42.28 740.083531 
L 491.188209 740.083531 
" clip-path="url(#pac7a2695ab)" style="fill: none; stroke: #b0b0b0; stroke-width: 0.8; stroke-linecap: square"/>
     </g>
     <g id="line2d_82">
      <g>
       <use xlink:href="#m930b6ccea3" x="42.28" y="740.083531" style="stroke: #000000; stroke-width: 0.8"/>
      </g>
     </g>
     <g id="text_48">
      <!-- −0.8 -->
      <g transform="translate(10.997188 743.882359) scale(0.1 -0.1)">
       <defs>
        <path id="DejaVuSans-1b" d="M 2034 2216 
Q 1584 2216 1326 1975 
Q 1069 1734 1069 1313 
Q 1069 891 1326 650 
Q 1584 409 2034 409 
Q 2484 409 2743 651 
Q 3003 894 3003 1313 
Q 3003 1734 2745 1975 
Q 2488 2216 2034 2216 
z
M 1403 2484 
Q 997 2584 770 2862 
Q 544 3141 544 3541 
Q 544 4100 942 4425 
Q 1341 4750 2034 4750 
Q 2731 4750 3128 4425 
Q 3525 4100 3525 3541 
Q 3525 3141 3298 2862 
Q 3072 2584 2669 2484 
Q 3125 2378 3379 2068 
Q 3634 1759 3634 1313 
Q 3634 634 3220 271 
Q 2806 -91 2034 -91 
Q 1263 -91 848 271 
Q 434 634 434 1313 
Q 434 1759 690 2068 
Q 947 2378 1403 2484 
z
M 1172 3481 
Q 1172 3119 1398 2916 
Q 1625 2713 2034 2713 
Q 2441 2713 2670 2916 
Q 2900 3119 2900 3481 
Q 2900 3844 2670 4047 
Q 2441 4250 2034 4250 
Q 1625 4250 1398 4047 
Q 1172 3844 1172 3481 
z
" transform="scale(0.015625)"/>
       </defs>
       <use xlink:href="#DejaVuSans-c9c"/>
       <use xlink:href="#DejaVuSans-13" transform="translate(83.796875 0)"/>
       <use xlink:href="#DejaVuSans-11" transform="translate(147.421875 0)"/>
       <use xlink:href="#DejaVuSans-1b" transform="translate(179.203125 0)"/>
      </g>
     </g>
    </g>
    <g id="ytick_15">
     <g id="line2d_83">
      <path d="M 42.28 714.809074 
L 491.188209 714.809074 
" clip-path="url(#pac7a2695ab)" style="fill: none; stroke: #b0b0b0; stroke-width: 0.8; stroke-linecap: square"/>
     </g>
     <g id="line2d_84">
      <g>
       <use xlink:href="#m930b6ccea3" x="42.28" y="714.809074" style="stroke: #000000; stroke-width: 0.8"/>
      </g>
     </g>
     <g id="text_49">
      <!-- −0.6 -->
      <g transform="translate(10.997188 718.607902) scale(0.1 -0.1)">
       <defs>
        <path id="DejaVuSans-19" d="M 2113 2584 
Q 1688 2584 1439 2293 
Q 1191 2003 1191 1497 
Q 1191 994 1439 701 
Q 1688 409 2113 409 
Q 2538 409 2786 701 
Q 3034 994 3034 1497 
Q 3034 2003 2786 2293 
Q 2538 2584 2113 2584 
z
M 3366 4563 
L 3366 3988 
Q 3128 4100 2886 4159 
Q 2644 4219 2406 4219 
Q 1781 4219 1451 3797 
Q 1122 3375 1075 2522 
Q 1259 2794 1537 2939 
Q 1816 3084 2150 3084 
Q 2853 3084 3261 2657 
Q 3669 2231 3669 1497 
Q 3669 778 3244 343 
Q 2819 -91 2113 -91 
Q 1303 -91 875 529 
Q 447 1150 447 2328 
Q 447 3434 972 4092 
Q 1497 4750 2381 4750 
Q 2619 4750 2861 4703 
Q 3103 4656 3366 4563 
z
" transform="scale(0.015625)"/>
       </defs>
       <use xlink:href="#DejaVuSans-c9c"/>
       <use xlink:href="#DejaVuSans-13" transform="translate(83.796875 0)"/>
       <use xlink:href="#DejaVuSans-11" transform="translate(147.421875 0)"/>
       <use xlink:href="#DejaVuSans-19" transform="translate(179.203125 0)"/>
      </g>
     </g>
    </g>
    <g id="ytick_16">
     <g id="line2d_85">
      <path d="M 42.28 689.534617 
L 491.188209 689.534617 
" clip-path="url(#pac7a2695ab)" style="fill: none; stroke: #b0b0b0; stroke-width: 0.8; stroke-linecap: square"/>
     </g>
     <g id="line2d_86">
      <g>
       <use xlink:href="#m930b6ccea3" x="42.28" y="689.534617" style="stroke: #000000; stroke-width: 0.8"/>
      </g>
     </g>
     <g id="text_50">
      <!-- −0.4 -->
      <g transform="translate(10.997188 693.333445) scale(0.1 -0.1)">
       <defs>
        <path id="DejaVuSans-17" d="M 2419 4116 
L 825 1625 
L 2419 1625 
L 2419 4116 
z
M 2253 4666 
L 3047 4666 
L 3047 1625 
L 3713 1625 
L 3713 1100 
L 3047 1100 
L 3047 0 
L 2419 0 
L 2419 1100 
L 313 1100 
L 313 1709 
L 2253 4666 
z
" transform="scale(0.015625)"/>
       </defs>
       <use xlink:href="#DejaVuSans-c9c"/>
       <use xlink:href="#DejaVuSans-13" transform="translate(83.796875 0)"/>
       <use xlink:href="#DejaVuSans-11" transform="translate(147.421875 0)"/>
       <use xlink:href="#DejaVuSans-17" transform="translate(179.203125 0)"/>
      </g>
     </g>
    </g>
    <g id="ytick_17">
     <g id="line2d_87">
      <path d="M 42.28 664.260159 
L 491.188209 664.260159 
" clip-path="url(#pac7a2695ab)" style="fill: none; stroke: #b0b0b0; stroke-width: 0.8; stroke-linecap: square"/>
     </g>
     <g id="line2d_88">
      <g>
       <use xlink:href="#m930b6ccea3" x="42.28" y="664.260159" style="stroke: #000000; stroke-width: 0.8"/>
      </g>
     </g>
     <g id="text_51">
      <!-- −0.2 -->
      <g transform="translate(10.997188 668.058987) scale(0.1 -0.1)">
       <use xlink:href="#DejaVuSans-c9c"/>
       <use xlink:href="#DejaVuSans-13" transform="translate(83.796875 0)"/>
       <use xlink:href="#DejaVuSans-11" transform="translate(147.421875 0)"/>
       <use xlink:href="#DejaVuSans-15" transform="translate(179.203125 0)"/>
      </g>
     </g>
    </g>
    <g id="ytick_18">
     <g id="line2d_89">
      <path d="M 42.28 638.985702 
L 491.188209 638.985702 
" clip-path="url(#pac7a2695ab)" style="fill: none; stroke: #b0b0b0; stroke-width: 0.8; stroke-linecap: square"/>
     </g>
     <g id="line2d_90">
      <g>
       <use xlink:href="#m930b6ccea3" x="42.28" y="638.985702" style="stroke: #000000; stroke-width: 0.8"/>
      </g>
     </g>
     <g id="text_52">
      <!-- 0.0 -->
      <g transform="translate(19.376875 642.78453) scale(0.1 -0.1)">
       <use xlink:href="#DejaVuSans-13"/>
       <use xlink:href="#DejaVuSans-11" transform="translate(63.625 0)"/>
       <use xlink:href="#DejaVuSans-13" transform="translate(95.40625 0)"/>
      </g>
     </g>
    </g>
   </g>
   <g id="line2d_91">
    <path d="M 62.684919 638.985702 
L 63.774058 758.108672 
L 64.900675 757.457485 
L 66.029786 756.496024 
L 67.159188 755.297873 
L 69.417875 752.425492 
L 71.675748 749.150738 
L 75.063634 743.845311 
L 81.843708 732.726484 
L 84.093535 728.930212 
L 85.796326 727.137951 
L 89.176995 721.426085 
L 91.442451 717.64161 
L 95.94851 709.986977 
L 100.467663 702.386847 
L 102.15859 700.589065 
L 111.19242 685.371465 
L 125.867137 660.713768 
L 126.995894 658.807635 
L 128.14039 657.219421 
L 129.256369 655.01998 
L 131.524218 651.219283 
L 132.64067 649.25399 
L 133.77666 647.601295 
L 134.898326 645.446836 
L 136.029224 643.620579 
L 139.419925 640.277096 
L 141.110015 638.898201 
L 142.805506 637.829049 
L 144.496391 637.230894 
L 146.189162 637.263073 
L 147.883764 637.764866 
L 149.576538 639.297056 
L 151.275675 639.617935 
L 152.39841 641.058609 
L 157.48027 645.830685 
L 162.560186 651.073364 
L 165.94879 654.815931 
L 167.639668 656.37331 
L 169.333391 657.308751 
L 171.026728 658.548964 
L 174.414345 661.478833 
L 176.106594 663.573228 
L 177.802946 664.575581 
L 179.495056 666.314426 
L 180.623575 668.157489 
L 182.317469 669.972403 
L 183.446202 671.85934 
L 185.139635 673.386377 
L 186.269149 673.921553 
L 188.526956 673.823678 
L 189.655386 674.271031 
L 190.784204 675.075253 
L 191.913811 676.147662 
L 193.042481 677.419663 
L 194.171016 678.867379 
L 195.864871 680.356767 
L 199.25122 685.458202 
L 201.509699 689.062783 
L 202.638771 690.424946 
L 203.767627 690.978695 
L 204.896591 690.9653 
L 206.591919 690.511694 
L 208.285893 689.715169 
L 209.979474 688.661429 
L 211.676829 687.40342 
L 213.364025 685.951643 
L 214.492955 684.315543 
L 216.189982 682.756343 
L 217.883722 681.010217 
L 219.009265 679.178102 
L 224.089656 673.780761 
L 229.7375 664.310708 
L 231.427724 662.528164 
L 237.073453 652.89151 
L 244.975611 639.571462 
L 246.104393 637.805284 
L 247.233545 636.349887 
L 248.362737 635.367168 
L 249.491736 634.845016 
L 251.185804 634.728984 
L 252.313994 634.9969 
L 253.4433 635.52937 
L 255.700771 636.994325 
L 257.959072 638.419269 
L 260.781621 639.482427 
L 263.603805 640.010705 
L 264.733009 640.125657 
L 266.991005 640.004616 
L 269.249261 639.713132 
L 273.765071 639.073766 
L 277.152158 638.828884 
L 281.667585 638.866084 
L 295.780477 639.120213 
L 296.909225 639.667904 
L 298.048648 638.914917 
L 300.304587 639.032286 
L 301.433525 638.908593 
L 315.545898 639.129258 
L 316.674867 638.993995 
L 319.499724 638.971931 
L 320.626331 639.318629 
L 321.75547 639.812054 
L 323.449168 640.685241 
L 324.581425 641.919777 
L 327.965623 644.838093 
L 331.354102 648.027088 
L 338.129751 655.132268 
L 346.597541 664.4684 
L 347.72299 665.984165 
L 349.41658 666.711976 
L 351.10982 667.033525 
L 352.239703 667.804298 
L 353.371894 668.869951 
L 355.064049 670.136317 
L 356.190955 671.592257 
L 357.884239 673.136306 
L 360.145492 676.470931 
L 364.657587 683.677144 
L 366.352617 685.501094 
L 368.045398 686.977403 
L 369.739563 687.627077 
L 371.433063 687.639915 
L 373.126174 687.200947 
L 374.253979 686.238598 
L 375.385446 685.076612 
L 377.079547 683.866477 
L 380.467228 680.946919 
L 382.161584 679.299054 
L 383.854863 677.946517 
L 385.546067 677.405196 
L 387.240509 677.472436 
L 388.933729 677.989264 
L 392.320579 679.65142 
L 394.012646 679.787158 
L 395.708206 679.372525 
L 396.833198 678.561171 
L 398.528071 677.52901 
L 401.914814 674.965641 
L 406.995054 670.391961 
L 408.123409 669.809459 
L 409.81815 669.898287 
L 412.645231 670.857916 
L 414.336552 670.830837 
L 417.156241 669.43716 
L 420.544216 667.046074 
L 422.237055 665.675111 
L 423.929851 664.081697 
L 428.445648 656.76404 
L 430.139242 654.996287 
L 435.784976 645.549962 
L 437.477483 643.733591 
L 438.606571 641.873107 
L 439.738852 640.271022 
L 442.557739 637.86624 
L 445.379971 636.64573 
L 446.512183 636.477986 
L 448.767485 636.795541 
L 453.284765 638.445067 
L 454.41184 638.860864 
L 458.929371 639.517443 
L 463.445299 639.752546 
L 465.140626 640.337251 
L 466.266649 641.352683 
L 467.395567 642.541309 
L 469.654161 645.451399 
L 470.783291 647.046145 
L 470.783291 647.046145 
" clip-path="url(#pac7a2695ab)" style="fill: none; stroke: #1f77b4; stroke-width: 1.5; stroke-linecap: square"/>
   </g>
   <g id="patch_21">
    <path d="M 42.28 764.277656 
L 42.28 628.56 
" style="fill: none; stroke: #000000; stroke-width: 0.8; stroke-linejoin: miter; stroke-linecap: square"/>
   </g>
   <g id="patch_22">
    <path d="M 491.188209 764.277656 
L 491.188209 628.56 
" style="fill: none; stroke: #000000; stroke-width: 0.8; stroke-linejoin: miter; stroke-linecap: square"/>
   </g>
   <g id="patch_23">
    <path d="M 42.28 764.277656 
L 491.188209 764.277656 
" style="fill: none; stroke: #000000; stroke-width: 0.8; stroke-linejoin: miter; stroke-linecap: square"/>
   </g>
   <g id="patch_24">
    <path d="M 42.28 628.56 
L 491.188209 628.56 
" style="fill: none; stroke: #000000; stroke-width: 0.8; stroke-linejoin: miter; stroke-linecap: square"/>
   </g>
   <g id="text_53">
    <!-- $v_{x,e}$ (m/s) -->
    <g transform="translate(238.174105 622.56) scale(0.12 -0.12)">
     <defs>
      <path id="DejaVuSans-Oblique-59" d="M 459 3500 
L 1069 3500 
L 1581 525 
L 3256 3500 
L 3866 3500 
L 1875 0 
L 1100 0 
L 459 3500 
z
" transform="scale(0.015625)"/>
      <path id="DejaVuSans-Oblique-5b" d="M 3841 3500 
L 2234 1784 
L 3219 0 
L 2559 0 
L 1819 1388 
L 531 0 
L -166 0 
L 1556 1844 
L 641 3500 
L 1300 3500 
L 1972 2234 
L 3144 3500 
L 3841 3500 
z
" transform="scale(0.015625)"/>
      <path id="DejaVuSans-f" d="M 750 794 
L 1409 794 
L 1409 256 
L 897 -744 
L 494 -744 
L 750 256 
L 750 794 
z
" transform="scale(0.015625)"/>
      <path id="DejaVuSans-12" d="M 1625 4666 
L 2156 4666 
L 531 -594 
L 0 -594 
L 1625 4666 
z
" transform="scale(0.015625)"/>
     </defs>
     <use xlink:href="#DejaVuSans-Oblique-59" transform="translate(0 0.125)"/>
     <use xlink:href="#DejaVuSans-Oblique-5b" transform="translate(59.179688 -14.874951) scale(0.7)"/>
     <use xlink:href="#DejaVuSans-f" transform="translate(100.605469 -14.874951) scale(0.7)"/>
     <use xlink:href="#DejaVuSans-Oblique-48" transform="translate(136.494141 -14.874951) scale(0.7)"/>
     <use xlink:href="#DejaVuSans-3" transform="translate(182.294922 0.125)"/>
     <use xlink:href="#DejaVuSans-b" transform="translate(214.082031 0.125)"/>
     <use xlink:href="#DejaVuSans-50" transform="translate(253.095703 0.125)"/>
     <use xlink:href="#DejaVuSans-12" transform="translate(350.507812 0.125)"/>
     <use xlink:href="#DejaVuSans-56" transform="translate(384.199219 0.125)"/>
     <use xlink:href="#DejaVuSans-c" transform="translate(436.298828 0.125)"/>
    </g>
   </g>
   <g id="legend_4">
    <g id="patch_25">
     <path d="M 433.888209 759.277656 
L 484.188209 759.277656 
Q 486.188209 759.277656 486.188209 757.277656 
L 486.188209 743.276875 
Q 486.188209 741.276875 484.188209 741.276875 
L 433.888209 741.276875 
Q 431.888209 741.276875 431.888209 743.276875 
L 431.888209 757.277656 
Q 431.888209 759.277656 433.888209 759.277656 
z
" style="fill: #ffffff; opacity: 0.8; stroke: #cccccc; stroke-linejoin: miter"/>
    </g>
    <g id="line2d_92">
     <path d="M 435.888209 749.375313 
L 445.888209 749.375313 
L 455.888209 749.375313 
" style="fill: none; stroke: #1f77b4; stroke-width: 1.5; stroke-linecap: square"/>
    </g>
    <g id="text_54">
     <!-- $v_{x,e}$ -->
     <g transform="translate(463.888209 752.875313) scale(0.1 -0.1)">
      <use xlink:href="#DejaVuSans-Oblique-59" transform="translate(0 0.3125)"/>
      <use xlink:href="#DejaVuSans-Oblique-5b" transform="translate(59.179688 -14.687451) scale(0.7)"/>
      <use xlink:href="#DejaVuSans-f" transform="translate(100.605469 -14.687451) scale(0.7)"/>
      <use xlink:href="#DejaVuSans-Oblique-48" transform="translate(136.494141 -14.687451) scale(0.7)"/>
     </g>
    </g>
   </g>
  </g>
  <g id="text_55">
   <!-- QCar2 States Error -->
   <g transform="translate(195.679688 25.245188) scale(0.12 -0.12)">
    <defs>
     <path id="DejaVuSans-34" d="M 2522 4238 
Q 1834 4238 1429 3725 
Q 1025 3213 1025 2328 
Q 1025 1447 1429 934 
Q 1834 422 2522 422 
Q 3209 422 3611 934 
Q 4013 1447 4013 2328 
Q 4013 3213 3611 3725 
Q 3209 4238 2522 4238 
z
M 3406 84 
L 4238 -825 
L 3475 -825 
L 2784 -78 
Q 2681 -84 2626 -87 
Q 2572 -91 2522 -91 
Q 1538 -91 948 567 
Q 359 1225 359 2328 
Q 359 3434 948 4092 
Q 1538 4750 2522 4750 
Q 3503 4750 4090 4092 
Q 4678 3434 4678 2328 
Q 4678 1516 4351 937 
Q 4025 359 3406 84 
z
" transform="scale(0.015625)"/>
     <path id="DejaVuSans-26" d="M 4122 4306 
L 4122 3641 
Q 3803 3938 3442 4084 
Q 3081 4231 2675 4231 
Q 1875 4231 1450 3742 
Q 1025 3253 1025 2328 
Q 1025 1406 1450 917 
Q 1875 428 2675 428 
Q 3081 428 3442 575 
Q 3803 722 4122 1019 
L 4122 359 
Q 3791 134 3420 21 
Q 3050 -91 2638 -91 
Q 1578 -91 968 557 
Q 359 1206 359 2328 
Q 359 3453 968 4101 
Q 1578 4750 2638 4750 
Q 3056 4750 3426 4639 
Q 3797 4528 4122 4306 
z
" transform="scale(0.015625)"/>
     <path id="DejaVuSans-36" d="M 3425 4513 
L 3425 3897 
Q 3066 4069 2747 4153 
Q 2428 4238 2131 4238 
Q 1616 4238 1336 4038 
Q 1056 3838 1056 3469 
Q 1056 3159 1242 3001 
Q 1428 2844 1947 2747 
L 2328 2669 
Q 3034 2534 3370 2195 
Q 3706 1856 3706 1288 
Q 3706 609 3251 259 
Q 2797 -91 1919 -91 
Q 1588 -91 1214 -16 
Q 841 59 441 206 
L 441 856 
Q 825 641 1194 531 
Q 1563 422 1919 422 
Q 2459 422 2753 634 
Q 3047 847 3047 1241 
Q 3047 1584 2836 1778 
Q 2625 1972 2144 2069 
L 1759 2144 
Q 1053 2284 737 2584 
Q 422 2884 422 3419 
Q 422 4038 858 4394 
Q 1294 4750 2059 4750 
Q 2388 4750 2728 4690 
Q 3069 4631 3425 4513 
z
" transform="scale(0.015625)"/>
     <path id="DejaVuSans-48" d="M 3597 1894 
L 3597 1613 
L 953 1613 
Q 991 1019 1311 708 
Q 1631 397 2203 397 
Q 2534 397 2845 478 
Q 3156 559 3463 722 
L 3463 178 
Q 3153 47 2828 -22 
Q 2503 -91 2169 -91 
Q 1331 -91 842 396 
Q 353 884 353 1716 
Q 353 2575 817 3079 
Q 1281 3584 2069 3584 
Q 2775 3584 3186 3129 
Q 3597 2675 3597 1894 
z
M 3022 2063 
Q 3016 2534 2758 2815 
Q 2500 3097 2075 3097 
Q 1594 3097 1305 2825 
Q 1016 2553 972 2059 
L 3022 2063 
z
" transform="scale(0.015625)"/>
     <path id="DejaVuSans-28" d="M 628 4666 
L 3578 4666 
L 3578 4134 
L 1259 4134 
L 1259 2753 
L 3481 2753 
L 3481 2222 
L 1259 2222 
L 1259 531 
L 3634 531 
L 3634 0 
L 628 0 
L 628 4666 
z
" transform="scale(0.015625)"/>
     <path id="DejaVuSans-52" d="M 1959 3097 
Q 1497 3097 1228 2736 
Q 959 2375 959 1747 
Q 959 1119 1226 758 
Q 1494 397 1959 397 
Q 2419 397 2687 759 
Q 2956 1122 2956 1747 
Q 2956 2369 2687 2733 
Q 2419 3097 1959 3097 
z
M 1959 3584 
Q 2709 3584 3137 3096 
Q 3566 2609 3566 1747 
Q 3566 888 3137 398 
Q 2709 -91 1959 -91 
Q 1206 -91 779 398 
Q 353 888 353 1747 
Q 353 2609 779 3096 
Q 1206 3584 1959 3584 
z
" transform="scale(0.015625)"/>
    </defs>
    <use xlink:href="#DejaVuSans-34"/>
    <use xlink:href="#DejaVuSans-26" transform="translate(78.71875 0)"/>
    <use xlink:href="#DejaVuSans-44" transform="translate(148.546875 0)"/>
    <use xlink:href="#DejaVuSans-55" transform="translate(209.828125 0)"/>
    <use xlink:href="#DejaVuSans-15" transform="translate(250.9375 0)"/>
    <use xlink:href="#DejaVuSans-3" transform="translate(314.5625 0)"/>
    <use xlink:href="#DejaVuSans-36" transform="translate(346.34375 0)"/>
    <use xlink:href="#DejaVuSans-57" transform="translate(409.828125 0)"/>
    <use xlink:href="#DejaVuSans-44" transform="translate(449.03125 0)"/>
    <use xlink:href="#DejaVuSans-57" transform="translate(510.3125 0)"/>
    <use xlink:href="#DejaVuSans-48" transform="translate(549.515625 0)"/>
    <use xlink:href="#DejaVuSans-56" transform="translate(611.046875 0)"/>
    <use xlink:href="#DejaVuSans-3" transform="translate(663.140625 0)"/>
    <use xlink:href="#DejaVuSans-28" transform="translate(694.921875 0)"/>
    <use xlink:href="#DejaVuSans-55" transform="translate(758.109375 0)"/>
    <use xlink:href="#DejaVuSans-55" transform="translate(797.46875 0)"/>
    <use xlink:href="#DejaVuSans-52" transform="translate(836.375 0)"/>
    <use xlink:href="#DejaVuSans-55" transform="translate(897.5625 0)"/>
   </g>
  </g>
 </g>
 <defs>
  <clipPath id="p7fdc6c59c2">
   <rect x="42.28" y="48.96" width="448.908209" height="135.717656"/>
  </clipPath>
  <clipPath id="p69302c7df9">
   <rect x="42.28" y="242.16" width="448.908209" height="135.717656"/>
  </clipPath>
  <clipPath id="pdf2255776b">
   <rect x="42.28" y="435.36" width="448.908209" height="135.717656"/>
  </clipPath>
  <clipPath id="pac7a2695ab">
   <rect x="42.28" y="628.56" width="448.908209" height="135.717656"/>
  </clipPath>
 </defs>
</svg>
