<?xml version="1.0" encoding="utf-8" standalone="no"?>
<!DOCTYPE svg PUBLIC "-//W3C//DTD SVG 1.1//EN"
  "http://www.w3.org/Graphics/SVG/1.1/DTD/svg11.dtd">
<svg xmlns:xlink="http://www.w3.org/1999/xlink" width="504pt" height="403.2pt" viewBox="0 0 504 403.2" xmlns="http://www.w3.org/2000/svg" version="1.1">
 <metadata>
  <rdf:RDF xmlns:dc="http://purl.org/dc/elements/1.1/" xmlns:cc="http://creativecommons.org/ns#" xmlns:rdf="http://www.w3.org/1999/02/22-rdf-syntax-ns#">
   <cc:Work>
    <dc:type rdf:resource="http://purl.org/dc/dcmitype/StillImage"/>
    <dc:date>2026-07-10T12:52:47.566279</dc:date>
    <dc:format>image/svg+xml</dc:format>
    <dc:creator>
     <cc:Agent>
      <dc:title>Matplotlib v3.11.0, https://matplotlib.org/</dc:title>
     </cc:Agent>
    </dc:creator>
   </cc:Work>
  </rdf:RDF>
 </metadata>
 <defs>
  <style type="text/css">*{stroke-linejoin: round; stroke-linecap: butt}</style>
 </defs>
 <g id="figure_1">
  <g id="patch_1">
   <path d="M 0 403.2 
L 504 403.2 
L 504 0 
L 0 0 
z
" style="fill: #ffffff"/>
  </g>
  <g id="axes_1">
   <g id="patch_2">
    <path d="M 58.042344 183.560234 
L 493.2 183.560234 
L 493.2 33.842813 
L 58.042344 33.842813 
z
" style="fill: #ffffff"/>
   </g>
   <g id="matplotlib.axis_1">
    <g id="xtick_1">
     <g id="line2d_1">
      <path d="M 77.822234 183.560234 
L 77.822234 33.842813 
" clip-path="url(#p4e939a4aaf)" style="fill: none; stroke: #b0b0b0; stroke-width: 0.8; stroke-linecap: square"/>
     </g>
     <g id="line2d_2">
      <defs>
       <path id="m4c269b8ca0" d="M 0 0 
L 0 3.5 
" style="stroke: #000000; stroke-width: 0.8"/>
      </defs>
      <g>
       <use xlink:href="#m4c269b8ca0" x="77.822234" y="183.560234" style="stroke: #000000; stroke-width: 0.8"/>
      </g>
     </g>
     <g id="text_1">
      <!-- 0 -->
      <g transform="translate(74.640984 198.157891) scale(0.1 -0.1)">
       <defs>
        <path id="DejaVuSans-13" d="M 2034 4250 
Q 1547 4250 1301 3770 
Q 1056 3291 1056 2328 
Q 1056 1369 1301 889 
Q 1547 409 2034 409 
Q 2525 409 2770 889 
Q 3016 1369 3016 2328 
Q 3016 3291 2770 3770 
Q 2525 4250 2034 4250 
z
M 2034 4750 
Q 2819 4750 3233 4129 
Q 3647 3509 3647 2328 
Q 3647 1150 3233 529 
Q 2819 -91 2034 -91 
Q 1250 -91 836 529 
Q 422 1150 422 2328 
Q 422 3509 836 4129 
Q 1250 4750 2034 4750 
z
" transform="scale(0.015625)"/>
       </defs>
       <use xlink:href="#DejaVuSans-13"/>
      </g>
     </g>
    </g>
    <g id="xtick_2">
     <g id="line2d_3">
      <path d="M 166.014498 183.560234 
L 166.014498 33.842813 
" clip-path="url(#p4e939a4aaf)" style="fill: none; stroke: #b0b0b0; stroke-width: 0.8; stroke-linecap: square"/>
     </g>
     <g id="line2d_4">
      <g>
       <use xlink:href="#m4c269b8ca0" x="166.014498" y="183.560234" style="stroke: #000000; stroke-width: 0.8"/>
      </g>
     </g>
     <g id="text_2">
      <!-- 10 -->
      <g transform="translate(159.651998 198.157891) scale(0.1 -0.1)">
       <defs>
        <path id="DejaVuSans-14" d="M 794 531 
L 1825 531 
L 1825 4091 
L 703 3866 
L 703 4441 
L 1819 4666 
L 2450 4666 
L 2450 531 
L 3481 531 
L 3481 0 
L 794 0 
L 794 531 
z
" transform="scale(0.015625)"/>
       </defs>
       <use xlink:href="#DejaVuSans-14"/>
       <use xlink:href="#DejaVuSans-13" transform="translate(63.625 0)"/>
      </g>
     </g>
    </g>
    <g id="xtick_3">
     <g id="line2d_5">
      <path d="M 254.206762 183.560234 
L 254.206762 33.842813 
" clip-path="url(#p4e939a4aaf)" style="fill: none; stroke: #b0b0b0; stroke-width: 0.8; stroke-linecap: square"/>
     </g>
     <g id="line2d_6">
      <g>
       <use xlink:href="#m4c269b8ca0" x="254.206762" y="183.560234" style="stroke: #000000; stroke-width: 0.8"/>
      </g>
     </g>
     <g id="text_3">
      <!-- 20 -->
      <g transform="translate(247.844262 198.157891) scale(0.1 -0.1)">
       <defs>
        <path id="DejaVuSans-15" d="M 1228 531 
L 3431 531 
L 3431 0 
L 469 0 
L 469 531 
Q 828 903 1448 1529 
Q 2069 2156 2228 2338 
Q 2531 2678 2651 2914 
Q 2772 3150 2772 3378 
Q 2772 3750 2511 3984 
Q 2250 4219 1831 4219 
Q 1534 4219 1204 4116 
Q 875 4013 500 3803 
L 500 4441 
Q 881 4594 1212 4672 
Q 1544 4750 1819 4750 
Q 2544 4750 2975 4387 
Q 3406 4025 3406 3419 
Q 3406 3131 3298 2873 
Q 3191 2616 2906 2266 
Q 2828 2175 2409 1742 
Q 1991 1309 1228 531 
z
" transform="scale(0.015625)"/>
       </defs>
       <use xlink:href="#DejaVuSans-15"/>
       <use xlink:href="#DejaVuSans-13" transform="translate(63.625 0)"/>
      </g>
     </g>
    </g>
    <g id="xtick_4">
     <g id="line2d_7">
      <path d="M 342.399026 183.560234 
L 342.399026 33.842813 
" clip-path="url(#p4e939a4aaf)" style="fill: none; stroke: #b0b0b0; stroke-width: 0.8; stroke-linecap: square"/>
     </g>
     <g id="line2d_8">
      <g>
       <use xlink:href="#m4c269b8ca0" x="342.399026" y="183.560234" style="stroke: #000000; stroke-width: 0.8"/>
      </g>
     </g>
     <g id="text_4">
      <!-- 30 -->
      <g transform="translate(336.036526 198.157891) scale(0.1 -0.1)">
       <defs>
        <path id="DejaVuSans-16" d="M 2597 2516 
Q 3050 2419 3304 2112 
Q 3559 1806 3559 1356 
Q 3559 666 3084 287 
Q 2609 -91 1734 -91 
Q 1441 -91 1130 -33 
Q 819 25 488 141 
L 488 750 
Q 750 597 1062 519 
Q 1375 441 1716 441 
Q 2309 441 2620 675 
Q 2931 909 2931 1356 
Q 2931 1769 2642 2001 
Q 2353 2234 1838 2234 
L 1294 2234 
L 1294 2753 
L 1863 2753 
Q 2328 2753 2575 2939 
Q 2822 3125 2822 3475 
Q 2822 3834 2567 4026 
Q 2313 4219 1838 4219 
Q 1578 4219 1281 4162 
Q 984 4106 628 3988 
L 628 4550 
Q 988 4650 1302 4700 
Q 1616 4750 1894 4750 
Q 2613 4750 3031 4423 
Q 3450 4097 3450 3541 
Q 3450 3153 3228 2886 
Q 3006 2619 2597 2516 
z
" transform="scale(0.015625)"/>
       </defs>
       <use xlink:href="#DejaVuSans-16"/>
       <use xlink:href="#DejaVuSans-13" transform="translate(63.625 0)"/>
      </g>
     </g>
    </g>
    <g id="xtick_5">
     <g id="line2d_9">
      <path d="M 430.59129 183.560234 
L 430.59129 33.842813 
" clip-path="url(#p4e939a4aaf)" style="fill: none; stroke: #b0b0b0; stroke-width: 0.8; stroke-linecap: square"/>
     </g>
     <g id="line2d_10">
      <g>
       <use xlink:href="#m4c269b8ca0" x="430.59129" y="183.560234" style="stroke: #000000; stroke-width: 0.8"/>
      </g>
     </g>
     <g id="text_5">
      <!-- 40 -->
      <g transform="translate(424.22879 198.157891) scale(0.1 -0.1)">
       <defs>
        <path id="DejaVuSans-17" d="M 2419 4116 
L 825 1625 
L 2419 1625 
L 2419 4116 
z
M 2253 4666 
L 3047 4666 
L 3047 1625 
L 3713 1625 
L 3713 1100 
L 3047 1100 
L 3047 0 
L 2419 0 
L 2419 1100 
L 313 1100 
L 313 1709 
L 2253 4666 
z
" transform="scale(0.015625)"/>
       </defs>
       <use xlink:href="#DejaVuSans-17"/>
       <use xlink:href="#DejaVuSans-13" transform="translate(63.625 0)"/>
      </g>
     </g>
    </g>
   </g>
   <g id="matplotlib.axis_2">
    <g id="ytick_1">
     <g id="line2d_11">
      <path d="M 58.042344 180.737406 
L 493.2 180.737406 
" clip-path="url(#p4e939a4aaf)" style="fill: none; stroke: #b0b0b0; stroke-width: 0.8; stroke-linecap: square"/>
     </g>
     <g id="line2d_12">
      <defs>
       <path id="mdb6d91d5f5" d="M 0 0 
L -3.5 0 
" style="stroke: #000000; stroke-width: 0.8"/>
      </defs>
      <g>
       <use xlink:href="#mdb6d91d5f5" x="58.042344" y="180.737406" style="stroke: #000000; stroke-width: 0.8"/>
      </g>
     </g>
     <g id="text_6">
      <!-- −1.5 -->
      <g transform="translate(26.759531 184.536234) scale(0.1 -0.1)">
       <defs>
        <path id="DejaVuSans-c9c" d="M 678 2272 
L 4684 2272 
L 4684 1741 
L 678 1741 
L 678 2272 
z
" transform="scale(0.015625)"/>
        <path id="DejaVuSans-11" d="M 684 794 
L 1344 794 
L 1344 0 
L 684 0 
L 684 794 
z
" transform="scale(0.015625)"/>
        <path id="DejaVuSans-18" d="M 691 4666 
L 3169 4666 
L 3169 4134 
L 1269 4134 
L 1269 2991 
Q 1406 3038 1543 3061 
Q 1681 3084 1819 3084 
Q 2600 3084 3056 2656 
Q 3513 2228 3513 1497 
Q 3513 744 3044 326 
Q 2575 -91 1722 -91 
Q 1428 -91 1123 -41 
Q 819 9 494 109 
L 494 744 
Q 775 591 1075 516 
Q 1375 441 1709 441 
Q 2250 441 2565 725 
Q 2881 1009 2881 1497 
Q 2881 1984 2565 2268 
Q 2250 2553 1709 2553 
Q 1456 2553 1204 2497 
Q 953 2441 691 2322 
L 691 4666 
z
" transform="scale(0.015625)"/>
       </defs>
       <use xlink:href="#DejaVuSans-c9c"/>
       <use xlink:href="#DejaVuSans-14" transform="translate(83.796875 0)"/>
       <use xlink:href="#DejaVuSans-11" transform="translate(147.421875 0)"/>
       <use xlink:href="#DejaVuSans-18" transform="translate(179.203125 0)"/>
      </g>
     </g>
    </g>
    <g id="ytick_2">
     <g id="line2d_13">
      <path d="M 58.042344 157.853758 
L 493.2 157.853758 
" clip-path="url(#p4e939a4aaf)" style="fill: none; stroke: #b0b0b0; stroke-width: 0.8; stroke-linecap: square"/>
     </g>
     <g id="line2d_14">
      <g>
       <use xlink:href="#mdb6d91d5f5" x="58.042344" y="157.853758" style="stroke: #000000; stroke-width: 0.8"/>
      </g>
     </g>
     <g id="text_7">
      <!-- −1.0 -->
      <g transform="translate(26.759531 161.652586) scale(0.1 -0.1)">
       <use xlink:href="#DejaVuSans-c9c"/>
       <use xlink:href="#DejaVuSans-14" transform="translate(83.796875 0)"/>
       <use xlink:href="#DejaVuSans-11" transform="translate(147.421875 0)"/>
       <use xlink:href="#DejaVuSans-13" transform="translate(179.203125 0)"/>
      </g>
     </g>
    </g>
    <g id="ytick_3">
     <g id="line2d_15">
      <path d="M 58.042344 134.970109 
L 493.2 134.970109 
" clip-path="url(#p4e939a4aaf)" style="fill: none; stroke: #b0b0b0; stroke-width: 0.8; stroke-linecap: square"/>
     </g>
     <g id="line2d_16">
      <g>
       <use xlink:href="#mdb6d91d5f5" x="58.042344" y="134.970109" style="stroke: #000000; stroke-width: 0.8"/>
      </g>
     </g>
     <g id="text_8">
      <!-- −0.5 -->
      <g transform="translate(26.759531 138.768937) scale(0.1 -0.1)">
       <use xlink:href="#DejaVuSans-c9c"/>
       <use xlink:href="#DejaVuSans-13" transform="translate(83.796875 0)"/>
       <use xlink:href="#DejaVuSans-11" transform="translate(147.421875 0)"/>
       <use xlink:href="#DejaVuSans-18" transform="translate(179.203125 0)"/>
      </g>
     </g>
    </g>
    <g id="ytick_4">
     <g id="line2d_17">
      <path d="M 58.042344 112.086461 
L 493.2 112.086461 
" clip-path="url(#p4e939a4aaf)" style="fill: none; stroke: #b0b0b0; stroke-width: 0.8; stroke-linecap: square"/>
     </g>
     <g id="line2d_18">
      <g>
       <use xlink:href="#mdb6d91d5f5" x="58.042344" y="112.086461" style="stroke: #000000; stroke-width: 0.8"/>
      </g>
     </g>
     <g id="text_9">
      <!-- 0.0 -->
      <g transform="translate(35.139219 115.885289) scale(0.1 -0.1)">
       <use xlink:href="#DejaVuSans-13"/>
       <use xlink:href="#DejaVuSans-11" transform="translate(63.625 0)"/>
       <use xlink:href="#DejaVuSans-13" transform="translate(95.40625 0)"/>
      </g>
     </g>
    </g>
    <g id="ytick_5">
     <g id="line2d_19">
      <path d="M 58.042344 89.202812 
L 493.2 89.202812 
" clip-path="url(#p4e939a4aaf)" style="fill: none; stroke: #b0b0b0; stroke-width: 0.8; stroke-linecap: square"/>
     </g>
     <g id="line2d_20">
      <g>
       <use xlink:href="#mdb6d91d5f5" x="58.042344" y="89.202812" style="stroke: #000000; stroke-width: 0.8"/>
      </g>
     </g>
     <g id="text_10">
      <!-- 0.5 -->
      <g transform="translate(35.139219 93.00164) scale(0.1 -0.1)">
       <use xlink:href="#DejaVuSans-13"/>
       <use xlink:href="#DejaVuSans-11" transform="translate(63.625 0)"/>
       <use xlink:href="#DejaVuSans-18" transform="translate(95.40625 0)"/>
      </g>
     </g>
    </g>
    <g id="ytick_6">
     <g id="line2d_21">
      <path d="M 58.042344 66.319164 
L 493.2 66.319164 
" clip-path="url(#p4e939a4aaf)" style="fill: none; stroke: #b0b0b0; stroke-width: 0.8; stroke-linecap: square"/>
     </g>
     <g id="line2d_22">
      <g>
       <use xlink:href="#mdb6d91d5f5" x="58.042344" y="66.319164" style="stroke: #000000; stroke-width: 0.8"/>
      </g>
     </g>
     <g id="text_11">
      <!-- 1.0 -->
      <g transform="translate(35.139219 70.117992) scale(0.1 -0.1)">
       <use xlink:href="#DejaVuSans-14"/>
       <use xlink:href="#DejaVuSans-11" transform="translate(63.625 0)"/>
       <use xlink:href="#DejaVuSans-13" transform="translate(95.40625 0)"/>
      </g>
     </g>
    </g>
    <g id="ytick_7">
     <g id="line2d_23">
      <path d="M 58.042344 43.435515 
L 493.2 43.435515 
" clip-path="url(#p4e939a4aaf)" style="fill: none; stroke: #b0b0b0; stroke-width: 0.8; stroke-linecap: square"/>
     </g>
     <g id="line2d_24">
      <g>
       <use xlink:href="#mdb6d91d5f5" x="58.042344" y="43.435515" style="stroke: #000000; stroke-width: 0.8"/>
      </g>
     </g>
     <g id="text_12">
      <!-- 1.5 -->
      <g transform="translate(35.139219 47.234344) scale(0.1 -0.1)">
       <use xlink:href="#DejaVuSans-14"/>
       <use xlink:href="#DejaVuSans-11" transform="translate(63.625 0)"/>
       <use xlink:href="#DejaVuSans-18" transform="translate(95.40625 0)"/>
      </g>
     </g>
    </g>
    <g id="text_13">
     <!-- $v_1$ [$m/s^2$] -->
     <g transform="translate(20.357188 131.301523) rotate(-90) scale(0.1 -0.1)">
      <defs>
       <path id="DejaVuSans-Oblique-59" d="M 459 3500 
L 1069 3500 
L 1581 525 
L 3256 3500 
L 3866 3500 
L 1875 0 
L 1100 0 
L 459 3500 
z
" transform="scale(0.015625)"/>
       <path id="DejaVuSans-3" transform="scale(0.015625)"/>
       <path id="DejaVuSans-3e" d="M 550 4863 
L 1875 4863 
L 1875 4416 
L 1125 4416 
L 1125 -397 
L 1875 -397 
L 1875 -844 
L 550 -844 
L 550 4863 
z
" transform="scale(0.015625)"/>
       <path id="DejaVuSans-Oblique-50" d="M 5747 2113 
L 5338 0 
L 4763 0 
L 5166 2094 
Q 5191 2228 5203 2325 
Q 5216 2422 5216 2491 
Q 5216 2772 5059 2928 
Q 4903 3084 4622 3084 
Q 4203 3084 3875 2770 
Q 3547 2456 3450 1953 
L 3066 0 
L 2491 0 
L 2900 2094 
Q 2925 2209 2937 2307 
Q 2950 2406 2950 2484 
Q 2950 2769 2794 2926 
Q 2638 3084 2363 3084 
Q 1938 3084 1609 2770 
Q 1281 2456 1184 1953 
L 800 0 
L 225 0 
L 909 3500 
L 1484 3500 
L 1375 2956 
Q 1609 3263 1923 3423 
Q 2238 3584 2597 3584 
Q 2978 3584 3223 3384 
Q 3469 3184 3519 2828 
Q 3781 3197 4126 3390 
Q 4472 3584 4856 3584 
Q 5306 3584 5551 3325 
Q 5797 3066 5797 2591 
Q 5797 2488 5784 2364 
Q 5772 2241 5747 2113 
z
" transform="scale(0.015625)"/>
       <path id="DejaVuSans-12" d="M 1625 4666 
L 2156 4666 
L 531 -594 
L 0 -594 
L 1625 4666 
z
" transform="scale(0.015625)"/>
       <path id="DejaVuSans-Oblique-56" d="M 3200 3397 
L 3091 2853 
Q 2863 2978 2609 3040 
Q 2356 3103 2088 3103 
Q 1634 3103 1373 2948 
Q 1113 2794 1113 2528 
Q 1113 2219 1719 2053 
Q 1766 2041 1788 2034 
L 1972 1978 
Q 2547 1819 2739 1644 
Q 2931 1469 2931 1166 
Q 2931 609 2489 259 
Q 2047 -91 1331 -91 
Q 1053 -91 747 -37 
Q 441 16 72 128 
L 184 722 
Q 500 559 806 475 
Q 1113 391 1394 391 
Q 1816 391 2080 572 
Q 2344 753 2344 1031 
Q 2344 1331 1650 1516 
L 1591 1531 
L 1394 1581 
Q 956 1697 753 1886 
Q 550 2075 550 2369 
Q 550 2928 970 3256 
Q 1391 3584 2113 3584 
Q 2397 3584 2667 3537 
Q 2938 3491 3200 3397 
z
" transform="scale(0.015625)"/>
       <path id="DejaVuSans-40" d="M 1947 4863 
L 1947 -844 
L 622 -844 
L 622 -397 
L 1369 -397 
L 1369 4416 
L 622 4416 
L 622 4863 
L 1947 4863 
z
" transform="scale(0.015625)"/>
      </defs>
      <use xlink:href="#DejaVuSans-Oblique-59" transform="translate(0 0.746875)"/>
      <use xlink:href="#DejaVuSans-14" transform="translate(59.179688 -14.253076) scale(0.7)"/>
      <use xlink:href="#DejaVuSans-3" transform="translate(106.450195 0.746875)"/>
      <use xlink:href="#DejaVuSans-3e" transform="translate(138.237305 0.746875)"/>
      <use xlink:href="#DejaVuSans-Oblique-50" transform="translate(177.250977 0.746875)"/>
      <use xlink:href="#DejaVuSans-12" transform="translate(274.663086 0.746875)"/>
      <use xlink:href="#DejaVuSans-Oblique-56" transform="translate(308.354492 0.746875)"/>
      <use xlink:href="#DejaVuSans-15" transform="translate(365.103997 42.046875) scale(0.7)"/>
      <use xlink:href="#DejaVuSans-40" transform="translate(412.374505 0.746875)"/>
     </g>
    </g>
   </g>
   <g id="line2d_25">
    <path d="M 77.822237 98.356272 
L 129.758811 98.356272 
L 130.640754 98.482924 
L 131.522386 115.595534 
L 132.404465 127.505864 
L 133.287296 134.209824 
L 134.168759 144.562935 
L 135.932601 171.696297 
L 136.81543 61.241248 
L 137.696348 57.64934 
L 138.577931 71.696318 
L 139.459919 160.864037 
L 140.341858 155.983218 
L 141.22443 164.868237 
L 142.105734 153.109552 
L 142.987626 171.381625 
L 144.163187 55.176598 
L 145.045364 54.935373 
L 145.927569 62.10005 
L 147.691281 80.484927 
L 150.337263 110.158175 
L 151.218953 118.943044 
L 152.101285 99.252799 
L 154.747443 121.318145 
L 157.392218 144.548686 
L 158.274719 63.395612 
L 159.156789 61.747048 
L 160.03814 87.478673 
L 160.920414 146.045269 
L 161.802635 119.77021 
L 162.684112 55.66933 
L 163.566158 53.937705 
L 164.448369 56.643112 
L 165.329973 91.814248 
L 166.212375 104.315925 
L 167.094036 94.705676 
L 167.975405 79.318796 
L 168.857492 79.782069 
L 169.739964 92.638192 
L 170.621604 98.844301 
L 171.503497 98.953316 
L 172.385286 98.674576 
L 173.267064 96.748821 
L 174.149432 96.124741 
L 175.030866 97.854023 
L 176.795173 103.503778 
L 177.676903 105.779893 
L 178.558692 107.309271 
L 180.322492 109.325171 
L 181.204395 110.08562 
L 182.086884 112.602426 
L 182.968893 125.90552 
L 183.850805 126.192037 
L 184.732476 127.007671 
L 185.614106 131.816332 
L 186.496044 144.369652 
L 187.378452 160.616853 
L 188.261192 140.857241 
L 189.142315 73.989297 
L 190.023853 64.490608 
L 190.906156 159.40011 
L 191.788078 166.338344 
L 192.669972 175.551826 
L 193.552798 166.751797 
L 194.433481 48.459647 
L 195.315737 46.651706 
L 196.197411 57.582455 
L 197.079409 70.557035 
L 198.255201 135.022166 
L 199.725209 146.742518 
L 200.607048 133.869042 
L 201.48927 78.517861 
L 202.370966 74.89385 
L 205.016955 112.479689 
L 205.899058 96.767259 
L 210.30847 152.003807 
L 211.190868 134.997326 
L 212.071779 48.783548 
L 212.954427 46.88485 
L 213.837364 78.254421 
L 214.718221 140.210116 
L 215.600021 121.343113 
L 216.482014 42.131945 
L 217.364017 40.64815 
L 219.127417 93.475315 
L 220.009559 96.775948 
L 220.892387 89.155724 
L 221.773456 84.017605 
L 222.65512 88.79903 
L 223.537386 97.786698 
L 224.418893 102.947794 
L 225.301141 105.386742 
L 226.182601 106.947622 
L 228.828511 109.816831 
L 229.710683 110.453038 
L 231.474816 111.149852 
L 233.532328 126.273973 
L 234.414145 126.914146 
L 235.296336 131.361085 
L 236.178534 142.790208 
L 237.059713 158.879915 
L 237.941643 151.816131 
L 238.824093 82.019223 
L 239.70598 54.505404 
L 240.587436 127.070424 
L 241.469788 165.813544 
L 242.352103 169.938595 
L 243.233467 160.958349 
L 244.115852 171.793586 
L 244.999355 43.542033 
L 245.879364 41.341247 
L 246.761089 50.73967 
L 247.937152 67.209362 
L 250.582666 111.601606 
L 251.464745 97.901948 
L 254.992374 148.996297 
L 255.874474 160.573528 
L 256.75629 44.712412 
L 258.52059 54.426533 
L 259.40248 109.3244 
L 260.284179 132.192112 
L 261.165775 87.123005 
L 262.048134 60.838014 
L 262.929845 47.859701 
L 263.811441 75.442781 
L 264.694094 94.598692 
L 265.575623 99.165384 
L 266.457462 97.772903 
L 267.339696 94.985391 
L 268.22201 94.688555 
L 269.103764 97.101589 
L 271.749156 105.252602 
L 272.631426 106.837901 
L 274.394891 109.114353 
L 275.276882 109.93596 
L 277.040493 110.839626 
L 277.922512 111.169256 
L 278.804771 111.371887 
L 279.687158 117.266289 
L 280.568768 125.997367 
L 281.45023 126.485183 
L 282.332868 128.728293 
L 283.213929 136.409583 
L 284.096443 151.999918 
L 284.978544 160.849739 
L 285.859866 114.50675 
L 286.74362 57.795691 
L 287.624046 90.782344 
L 288.505645 168.071417 
L 289.387995 165.962847 
L 290.269276 176.735086 
L 291.151305 167.93869 
L 292.032914 47.86937 
L 292.915366 46.256078 
L 293.797066 56.70554 
L 294.973222 76.780523 
L 296.149362 157.474038 
L 297.325281 152.279204 
L 298.501212 81.032551 
L 299.382844 78.383526 
L 302.02878 114.36675 
L 302.912452 97.436119 
L 308.202009 155.711323 
L 309.083912 53.764103 
L 309.965853 52.045536 
L 310.848103 51.031467 
L 311.729836 140.463805 
L 312.611674 148.38324 
L 313.493752 47.154454 
L 314.375358 43.774451 
L 315.257154 50.954362 
L 316.139144 87.57357 
L 317.021557 100.964998 
L 317.90323 94.673004 
L 318.785034 83.510549 
L 319.666978 83.044284 
L 320.548774 92.581859 
L 321.431476 98.271541 
L 322.313209 99.280872 
L 323.194712 102.444945 
L 324.07732 104.384721 
L 324.958872 105.888527 
L 325.841661 107.676988 
L 326.722692 108.988151 
L 327.604446 109.719088 
L 329.36855 110.798584 
L 330.250241 116.681145 
L 331.131954 126.099044 
L 332.013791 126.571209 
L 332.895945 128.627012 
L 333.778105 136.148599 
L 334.659759 151.348127 
L 335.541619 163.269365 
L 336.424528 117.115613 
L 337.599491 48.889746 
L 338.481218 57.01587 
L 339.363346 128.952836 
L 340.539512 155.539183 
L 341.420962 160.697441 
L 342.302949 171.735311 
L 343.184882 162.021677 
L 344.067003 170.904366 
L 344.949405 46.10765 
L 345.83148 44.38771 
L 346.713006 52.245212 
L 347.596463 62.721599 
L 349.358644 88.127247 
L 351.124313 114.198521 
L 352.300123 102.186004 
L 356.708157 155.346653 
L 357.590172 51.238069 
L 358.472305 49.316133 
L 359.354686 106.13366 
L 360.237526 148.923198 
L 361.999971 43.123699 
L 362.881827 43.432575 
L 364.058308 92.567122 
L 364.939711 106.247757 
L 365.821339 92.489131 
L 366.705608 73.267448 
L 367.88025 72.766525 
L 369.057023 93.846739 
L 369.937366 98.461073 
L 370.819151 98.690377 
L 371.705226 102.034237 
L 372.587211 103.257751 
L 373.468737 104.800613 
L 374.349956 107.443113 
L 375.526702 108.57465 
L 376.407678 109.002911 
L 377.290143 110.157022 
L 378.171652 110.590657 
L 379.05354 110.595633 
L 379.935959 114.444655 
L 380.817802 125.67934 
L 381.699328 126.487087 
L 382.875448 129.142962 
L 383.757901 136.732578 
L 384.639271 152.306546 
L 385.520868 164.48495 
L 386.402836 119.043401 
L 387.285838 53.064523 
L 388.167658 78.082139 
L 389.048832 168.739405 
L 389.930468 164.889491 
L 390.812459 176.056474 
L 391.694589 167.25824 
L 392.576704 48.236116 
L 393.458153 46.510195 
L 394.340288 57.207763 
L 395.516336 100.104096 
L 396.398581 127.16943 
L 397.280609 149.6437 
L 398.162014 78.975735 
L 399.043775 77.79796 
L 401.689835 115.206835 
L 402.571595 98.842451 
L 406.981398 150.784139 
L 407.863652 117.0936 
L 408.745646 51.120886 
L 409.627369 49.44019 
L 410.510536 103.398288 
L 411.390608 141.206301 
L 413.15556 44.090201 
L 414.0366 44.863684 
L 414.918529 79.164597 
L 415.800572 98.553831 
L 416.682516 96.077553 
L 417.564417 85.608706 
L 418.446647 82.368334 
L 420.209899 97.465062 
L 421.092048 99.912367 
L 421.973804 102.937495 
L 422.85598 104.903798 
L 425.502131 109.164636 
L 426.383915 109.899865 
L 428.147514 110.851578 
L 429.029426 111.109716 
L 429.911359 117.532428 
L 430.793186 126.076359 
L 431.67552 126.548276 
L 432.557104 128.92183 
L 433.439284 137.183139 
L 434.321015 152.965227 
L 435.202812 160.782248 
L 436.966723 55.152833 
L 437.848725 94.546706 
L 438.730478 167.524872 
L 439.612754 166.013752 
L 440.494387 176.754897 
L 441.376846 167.962949 
L 442.258364 47.878965 
L 443.434574 43.849297 
L 444.31577 53.355966 
L 446.07984 78.266188 
L 448.72799 118.276003 
L 449.6075 102.342366 
L 454.017658 155.336347 
L 454.898736 51.317033 
L 455.780847 56.341441 
L 456.663436 62.395231 
L 457.544893 71.452354 
L 458.426703 141.553338 
L 459.308723 137.567581 
L 460.190292 73.983072 
L 461.072763 52.970678 
L 461.954844 57.462306 
L 462.836311 70.971263 
L 463.718358 92.348104 
L 464.600829 100.08064 
L 465.482761 99.851825 
L 467.246521 93.640454 
L 468.128561 95.605471 
L 469.011593 98.264127 
L 469.892887 100.01413 
L 470.774012 125.571984 
L 471.655977 125.885304 
L 472.537903 125.581435 
L 473.420107 125.520121 
L 473.420107 125.520121 
" clip-path="url(#p4e939a4aaf)" style="fill: none; stroke: #1f77b4; stroke-width: 1.5; stroke-linecap: square"/>
   </g>
   <g id="patch_3">
    <path d="M 58.042344 183.560234 
L 58.042344 33.842813 
" style="fill: none; stroke: #000000; stroke-width: 0.8; stroke-linejoin: miter; stroke-linecap: square"/>
   </g>
   <g id="patch_4">
    <path d="M 493.2 183.560234 
L 493.2 33.842813 
" style="fill: none; stroke: #000000; stroke-width: 0.8; stroke-linejoin: miter; stroke-linecap: square"/>
   </g>
   <g id="patch_5">
    <path d="M 58.042344 183.560234 
L 493.2 183.560234 
" style="fill: none; stroke: #000000; stroke-width: 0.8; stroke-linejoin: miter; stroke-linecap: square"/>
   </g>
   <g id="patch_6">
    <path d="M 58.042344 33.842813 
L 493.2 33.842813 
" style="fill: none; stroke: #000000; stroke-width: 0.8; stroke-linejoin: miter; stroke-linecap: square"/>
   </g>
   <g id="legend_1">
    <g id="patch_7">
     <path d="M 65.042344 56.843594 
L 107.742344 56.843594 
Q 109.742344 56.843594 109.742344 54.843594 
L 109.742344 40.842813 
Q 109.742344 38.842813 107.742344 38.842813 
L 65.042344 38.842813 
Q 63.042344 38.842813 63.042344 40.842813 
L 63.042344 54.843594 
Q 63.042344 56.843594 65.042344 56.843594 
z
" style="fill: #ffffff; opacity: 0.8; stroke: #cccccc; stroke-linejoin: miter"/>
    </g>
    <g id="line2d_26">
     <path d="M 67.042344 46.94125 
L 77.042344 46.94125 
L 87.042344 46.94125 
" style="fill: none; stroke: #1f77b4; stroke-width: 1.5; stroke-linecap: square"/>
    </g>
    <g id="text_14">
     <!-- $v_1$ -->
     <g transform="translate(95.042344 50.44125) scale(0.1 -0.1)">
      <use xlink:href="#DejaVuSans-Oblique-59" transform="translate(0 0.3125)"/>
      <use xlink:href="#DejaVuSans-14" transform="translate(59.179688 -14.687451) scale(0.7)"/>
     </g>
    </g>
   </g>
  </g>
  <g id="axes_2">
   <g id="patch_8">
    <path d="M 58.042344 361.077656 
L 493.2 361.077656 
L 493.2 211.360234 
L 58.042344 211.360234 
z
" style="fill: #ffffff"/>
   </g>
   <g id="matplotlib.axis_3">
    <g id="xtick_6">
     <g id="line2d_27">
      <path d="M 77.822234 361.077656 
L 77.822234 211.360234 
" clip-path="url(#p4b3e1e2abe)" style="fill: none; stroke: #b0b0b0; stroke-width: 0.8; stroke-linecap: square"/>
     </g>
     <g id="line2d_28">
      <g>
       <use xlink:href="#m4c269b8ca0" x="77.822234" y="361.077656" style="stroke: #000000; stroke-width: 0.8"/>
      </g>
     </g>
     <g id="text_15">
      <!-- 0 -->
      <g transform="translate(74.640984 375.675313) scale(0.1 -0.1)">
       <use xlink:href="#DejaVuSans-13"/>
      </g>
     </g>
    </g>
    <g id="xtick_7">
     <g id="line2d_29">
      <path d="M 166.014498 361.077656 
L 166.014498 211.360234 
" clip-path="url(#p4b3e1e2abe)" style="fill: none; stroke: #b0b0b0; stroke-width: 0.8; stroke-linecap: square"/>
     </g>
     <g id="line2d_30">
      <g>
       <use xlink:href="#m4c269b8ca0" x="166.014498" y="361.077656" style="stroke: #000000; stroke-width: 0.8"/>
      </g>
     </g>
     <g id="text_16">
      <!-- 10 -->
      <g transform="translate(159.651998 375.675313) scale(0.1 -0.1)">
       <use xlink:href="#DejaVuSans-14"/>
       <use xlink:href="#DejaVuSans-13" transform="translate(63.625 0)"/>
      </g>
     </g>
    </g>
    <g id="xtick_8">
     <g id="line2d_31">
      <path d="M 254.206762 361.077656 
L 254.206762 211.360234 
" clip-path="url(#p4b3e1e2abe)" style="fill: none; stroke: #b0b0b0; stroke-width: 0.8; stroke-linecap: square"/>
     </g>
     <g id="line2d_32">
      <g>
       <use xlink:href="#m4c269b8ca0" x="254.206762" y="361.077656" style="stroke: #000000; stroke-width: 0.8"/>
      </g>
     </g>
     <g id="text_17">
      <!-- 20 -->
      <g transform="translate(247.844262 375.675313) scale(0.1 -0.1)">
       <use xlink:href="#DejaVuSans-15"/>
       <use xlink:href="#DejaVuSans-13" transform="translate(63.625 0)"/>
      </g>
     </g>
    </g>
    <g id="xtick_9">
     <g id="line2d_33">
      <path d="M 342.399026 361.077656 
L 342.399026 211.360234 
" clip-path="url(#p4b3e1e2abe)" style="fill: none; stroke: #b0b0b0; stroke-width: 0.8; stroke-linecap: square"/>
     </g>
     <g id="line2d_34">
      <g>
       <use xlink:href="#m4c269b8ca0" x="342.399026" y="361.077656" style="stroke: #000000; stroke-width: 0.8"/>
      </g>
     </g>
     <g id="text_18">
      <!-- 30 -->
      <g transform="translate(336.036526 375.675313) scale(0.1 -0.1)">
       <use xlink:href="#DejaVuSans-16"/>
       <use xlink:href="#DejaVuSans-13" transform="translate(63.625 0)"/>
      </g>
     </g>
    </g>
    <g id="xtick_10">
     <g id="line2d_35">
      <path d="M 430.59129 361.077656 
L 430.59129 211.360234 
" clip-path="url(#p4b3e1e2abe)" style="fill: none; stroke: #b0b0b0; stroke-width: 0.8; stroke-linecap: square"/>
     </g>
     <g id="line2d_36">
      <g>
       <use xlink:href="#m4c269b8ca0" x="430.59129" y="361.077656" style="stroke: #000000; stroke-width: 0.8"/>
      </g>
     </g>
     <g id="text_19">
      <!-- 40 -->
      <g transform="translate(424.22879 375.675313) scale(0.1 -0.1)">
       <use xlink:href="#DejaVuSans-17"/>
       <use xlink:href="#DejaVuSans-13" transform="translate(63.625 0)"/>
      </g>
     </g>
    </g>
    <g id="text_20">
     <!-- Time [s] -->
     <g transform="translate(255.289922 389.676094) scale(0.1 -0.1)">
      <defs>
       <path id="DejaVuSans-37" d="M -19 4666 
L 3928 4666 
L 3928 4134 
L 2272 4134 
L 2272 0 
L 1638 0 
L 1638 4134 
L -19 4134 
L -19 4666 
z
" transform="scale(0.015625)"/>
       <path id="DejaVuSans-4c" d="M 603 3500 
L 1178 3500 
L 1178 0 
L 603 0 
L 603 3500 
z
M 603 4863 
L 1178 4863 
L 1178 4134 
L 603 4134 
L 603 4863 
z
" transform="scale(0.015625)"/>
       <path id="DejaVuSans-50" d="M 3328 2828 
Q 3544 3216 3844 3400 
Q 4144 3584 4550 3584 
Q 5097 3584 5394 3201 
Q 5691 2819 5691 2113 
L 5691 0 
L 5113 0 
L 5113 2094 
Q 5113 2597 4934 2840 
Q 4756 3084 4391 3084 
Q 3944 3084 3684 2787 
Q 3425 2491 3425 1978 
L 3425 0 
L 2847 0 
L 2847 2094 
Q 2847 2600 2669 2842 
Q 2491 3084 2119 3084 
Q 1678 3084 1418 2786 
Q 1159 2488 1159 1978 
L 1159 0 
L 581 0 
L 581 3500 
L 1159 3500 
L 1159 2956 
Q 1356 3278 1631 3431 
Q 1906 3584 2284 3584 
Q 2666 3584 2933 3390 
Q 3200 3197 3328 2828 
z
" transform="scale(0.015625)"/>
       <path id="DejaVuSans-48" d="M 3597 1894 
L 3597 1613 
L 953 1613 
Q 991 1019 1311 708 
Q 1631 397 2203 397 
Q 2534 397 2845 478 
Q 3156 559 3463 722 
L 3463 178 
Q 3153 47 2828 -22 
Q 2503 -91 2169 -91 
Q 1331 -91 842 396 
Q 353 884 353 1716 
Q 353 2575 817 3079 
Q 1281 3584 2069 3584 
Q 2775 3584 3186 3129 
Q 3597 2675 3597 1894 
z
M 3022 2063 
Q 3016 2534 2758 2815 
Q 2500 3097 2075 3097 
Q 1594 3097 1305 2825 
Q 1016 2553 972 2059 
L 3022 2063 
z
" transform="scale(0.015625)"/>
       <path id="DejaVuSans-56" d="M 2834 3397 
L 2834 2853 
Q 2591 2978 2328 3040 
Q 2066 3103 1784 3103 
Q 1356 3103 1142 2972 
Q 928 2841 928 2578 
Q 928 2378 1081 2264 
Q 1234 2150 1697 2047 
L 1894 2003 
Q 2506 1872 2764 1633 
Q 3022 1394 3022 966 
Q 3022 478 2636 193 
Q 2250 -91 1575 -91 
Q 1294 -91 989 -36 
Q 684 19 347 128 
L 347 722 
Q 666 556 975 473 
Q 1284 391 1588 391 
Q 1994 391 2212 530 
Q 2431 669 2431 922 
Q 2431 1156 2273 1281 
Q 2116 1406 1581 1522 
L 1381 1569 
Q 847 1681 609 1914 
Q 372 2147 372 2553 
Q 372 3047 722 3315 
Q 1072 3584 1716 3584 
Q 2034 3584 2315 3537 
Q 2597 3491 2834 3397 
z
" transform="scale(0.015625)"/>
      </defs>
      <use xlink:href="#DejaVuSans-37"/>
      <use xlink:href="#DejaVuSans-4c" transform="translate(58 0)"/>
      <use xlink:href="#DejaVuSans-50" transform="translate(85.78125 0)"/>
      <use xlink:href="#DejaVuSans-48" transform="translate(183.1875 0)"/>
      <use xlink:href="#DejaVuSans-3" transform="translate(244.71875 0)"/>
      <use xlink:href="#DejaVuSans-3e" transform="translate(276.5 0)"/>
      <use xlink:href="#DejaVuSans-56" transform="translate(315.515625 0)"/>
      <use xlink:href="#DejaVuSans-40" transform="translate(367.609375 0)"/>
     </g>
    </g>
   </g>
   <g id="matplotlib.axis_4">
    <g id="ytick_8">
     <g id="line2d_37">
      <path d="M 58.042344 356.037561 
L 493.2 356.037561 
" clip-path="url(#p4b3e1e2abe)" style="fill: none; stroke: #b0b0b0; stroke-width: 0.8; stroke-linecap: square"/>
     </g>
     <g id="line2d_38">
      <g>
       <use xlink:href="#mdb6d91d5f5" x="58.042344" y="356.037561" style="stroke: #000000; stroke-width: 0.8"/>
      </g>
     </g>
     <g id="text_21">
      <!-- −2 -->
      <g transform="translate(36.300156 359.836389) scale(0.1 -0.1)">
       <use xlink:href="#DejaVuSans-c9c"/>
       <use xlink:href="#DejaVuSans-15" transform="translate(83.796875 0)"/>
      </g>
     </g>
    </g>
    <g id="ytick_9">
     <g id="line2d_39">
      <path d="M 58.042344 321.289241 
L 493.2 321.289241 
" clip-path="url(#p4b3e1e2abe)" style="fill: none; stroke: #b0b0b0; stroke-width: 0.8; stroke-linecap: square"/>
     </g>
     <g id="line2d_40">
      <g>
       <use xlink:href="#mdb6d91d5f5" x="58.042344" y="321.289241" style="stroke: #000000; stroke-width: 0.8"/>
      </g>
     </g>
     <g id="text_22">
      <!-- −1 -->
      <g transform="translate(36.300156 325.088069) scale(0.1 -0.1)">
       <use xlink:href="#DejaVuSans-c9c"/>
       <use xlink:href="#DejaVuSans-14" transform="translate(83.796875 0)"/>
      </g>
     </g>
    </g>
    <g id="ytick_10">
     <g id="line2d_41">
      <path d="M 58.042344 286.540921 
L 493.2 286.540921 
" clip-path="url(#p4b3e1e2abe)" style="fill: none; stroke: #b0b0b0; stroke-width: 0.8; stroke-linecap: square"/>
     </g>
     <g id="line2d_42">
      <g>
       <use xlink:href="#mdb6d91d5f5" x="58.042344" y="286.540921" style="stroke: #000000; stroke-width: 0.8"/>
      </g>
     </g>
     <g id="text_23">
      <!-- 0 -->
      <g transform="translate(44.679844 290.339749) scale(0.1 -0.1)">
       <use xlink:href="#DejaVuSans-13"/>
      </g>
     </g>
    </g>
    <g id="ytick_11">
     <g id="line2d_43">
      <path d="M 58.042344 251.7926 
L 493.2 251.7926 
" clip-path="url(#p4b3e1e2abe)" style="fill: none; stroke: #b0b0b0; stroke-width: 0.8; stroke-linecap: square"/>
     </g>
     <g id="line2d_44">
      <g>
       <use xlink:href="#mdb6d91d5f5" x="58.042344" y="251.7926" style="stroke: #000000; stroke-width: 0.8"/>
      </g>
     </g>
     <g id="text_24">
      <!-- 1 -->
      <g transform="translate(44.679844 255.591428) scale(0.1 -0.1)">
       <use xlink:href="#DejaVuSans-14"/>
      </g>
     </g>
    </g>
    <g id="ytick_12">
     <g id="line2d_45">
      <path d="M 58.042344 217.04428 
L 493.2 217.04428 
" clip-path="url(#p4b3e1e2abe)" style="fill: none; stroke: #b0b0b0; stroke-width: 0.8; stroke-linecap: square"/>
     </g>
     <g id="line2d_46">
      <g>
       <use xlink:href="#mdb6d91d5f5" x="58.042344" y="217.04428" style="stroke: #000000; stroke-width: 0.8"/>
      </g>
     </g>
     <g id="text_25">
      <!-- 2 -->
      <g transform="translate(44.679844 220.843108) scale(0.1 -0.1)">
       <use xlink:href="#DejaVuSans-15"/>
      </g>
     </g>
    </g>
    <g id="text_26">
     <!-- $v_2$ [$m/s^2$] -->
     <g transform="translate(29.897813 308.818945) rotate(-90) scale(0.1 -0.1)">
      <use xlink:href="#DejaVuSans-Oblique-59" transform="translate(0 0.746875)"/>
      <use xlink:href="#DejaVuSans-15" transform="translate(59.179688 -14.253076) scale(0.7)"/>
      <use xlink:href="#DejaVuSans-3" transform="translate(106.450195 0.746875)"/>
      <use xlink:href="#DejaVuSans-3e" transform="translate(138.237305 0.746875)"/>
      <use xlink:href="#DejaVuSans-Oblique-50" transform="translate(177.250977 0.746875)"/>
      <use xlink:href="#DejaVuSans-12" transform="translate(274.663086 0.746875)"/>
      <use xlink:href="#DejaVuSans-Oblique-56" transform="translate(308.354492 0.746875)"/>
      <use xlink:href="#DejaVuSans-15" transform="translate(365.103997 42.046875) scale(0.7)"/>
      <use xlink:href="#DejaVuSans-40" transform="translate(412.374505 0.746875)"/>
     </g>
    </g>
   </g>
   <g id="line2d_47">
    <path d="M 77.822237 286.540921 
L 128.876744 286.540929 
L 129.758811 292.432852 
L 130.640754 296.74404 
L 131.522386 294.433095 
L 132.404465 300.578996 
L 133.287296 333.081503 
L 134.168759 343.281542 
L 135.050402 336.833931 
L 135.932601 327.016671 
L 136.81543 241.875467 
L 137.696348 245.243705 
L 138.577931 238.546151 
L 139.459919 327.755976 
L 140.341858 328.859504 
L 141.22443 319.975851 
L 142.105734 326.296199 
L 144.163187 265.252209 
L 145.045364 268.117801 
L 145.927569 260.698298 
L 146.809248 254.843568 
L 147.691281 250.65935 
L 148.573074 248.150833 
L 149.455471 247.248642 
L 150.337263 247.759974 
L 151.218953 249.55041 
L 152.101285 251.974934 
L 152.983137 252.060363 
L 153.865077 252.322777 
L 154.747443 253.048514 
L 155.628458 254.480443 
L 156.510625 256.840111 
L 157.392218 260.279198 
L 158.274719 288.502408 
L 159.156789 286.578271 
L 160.03814 284.340617 
L 160.920414 254.840572 
L 161.802635 269.54193 
L 162.684112 296.085157 
L 163.566158 297.566121 
L 164.448369 307.669079 
L 165.329973 289.256233 
L 166.212375 275.597675 
L 167.094036 289.46977 
L 167.975405 311.732025 
L 168.857492 317.837751 
L 169.739964 303.317882 
L 170.621604 281.970645 
L 171.503497 273.345827 
L 172.385286 282.498421 
L 173.267064 297.175116 
L 174.149432 302.664105 
L 175.030866 295.206727 
L 175.912749 282.839992 
L 176.795173 276.333571 
L 177.676903 279.574479 
L 178.558692 287.807542 
L 179.441084 293.585369 
L 180.322492 293.121611 
L 181.204395 288.163613 
L 182.086884 284.880289 
L 182.968893 289.638367 
L 183.850805 300.016343 
L 184.732476 306.142177 
L 186.496044 354.269586 
L 187.378452 349.951999 
L 189.142315 244.292851 
L 190.023853 237.119593 
L 190.906156 319.170098 
L 191.788078 335.565355 
L 192.669972 325.600542 
L 193.552798 329.915769 
L 194.433481 253.735083 
L 195.315737 257.732601 
L 196.197411 248.543016 
L 197.079409 241.787185 
L 198.255201 336.767499 
L 199.725209 331.238848 
L 200.607048 334.889092 
L 201.48927 243.10146 
L 202.370966 245.217742 
L 203.252916 241.041784 
L 204.134583 239.142407 
L 205.016955 239.42851 
L 205.899058 242.220074 
L 206.780755 241.960319 
L 207.662917 242.515831 
L 208.544077 244.261386 
L 209.426284 247.441194 
L 210.30847 252.262128 
L 211.190868 267.639716 
L 212.071779 287.046961 
L 213.837364 287.1847 
L 214.718221 258.101469 
L 215.600021 268.052326 
L 216.482014 304.874966 
L 217.364017 307.215107 
L 218.24549 305.043714 
L 219.127417 289.243466 
L 220.009559 286.656638 
L 221.773456 312.87618 
L 222.65512 311.772798 
L 224.418893 283.230713 
L 225.301141 277.79625 
L 226.182601 283.056083 
L 227.064603 291.778942 
L 227.946349 296.082964 
L 228.828511 293.437865 
L 229.710683 287.114523 
L 230.593056 282.296939 
L 231.474816 281.885993 
L 232.356285 280.157119 
L 233.532328 273.322119 
L 234.414145 272.49539 
L 235.296336 248.327326 
L 236.178534 220.184112 
L 237.059713 221.142453 
L 237.941643 260.21351 
L 238.824093 323.508459 
L 239.70598 340.037793 
L 241.469788 235.6497 
L 242.352103 240.974111 
L 243.233467 237.757394 
L 244.115852 247.8071 
L 244.999355 314.104056 
L 245.879364 309.993737 
L 246.761089 320.772841 
L 247.937152 331.803514 
L 248.818886 336.907456 
L 249.702157 339.283856 
L 250.582666 339.044524 
L 251.464745 336.34741 
L 252.346799 336.179361 
L 253.228824 334.861629 
L 254.110433 332.071356 
L 254.992374 327.526915 
L 255.874474 321.059828 
L 256.75629 280.204636 
L 257.638547 263.389127 
L 258.52059 275.596891 
L 259.40248 298.320802 
L 260.284179 317.590763 
L 261.165775 283.35328 
L 262.048134 242.737745 
L 263.811441 260.690773 
L 264.694094 280.084011 
L 265.575623 290.481625 
L 266.457462 285.167162 
L 267.339696 273.968931 
L 268.22201 269.629364 
L 269.103764 276.10487 
L 269.985718 287.277003 
L 270.867768 293.936399 
L 271.749156 292.110937 
L 272.631426 285.39939 
L 273.51327 280.285958 
L 274.394891 280.420902 
L 276.158698 288.999418 
L 277.040493 290.458712 
L 277.922512 288.724227 
L 278.804771 285.828153 
L 279.687158 288.447277 
L 280.568768 297.038277 
L 281.45023 302.935262 
L 282.332868 315.059868 
L 283.213929 338.721893 
L 284.096443 353.895457 
L 284.978544 334.60886 
L 285.859866 272.689243 
L 286.74362 235.039026 
L 287.624046 253.24718 
L 288.505645 336.133306 
L 289.387995 334.959682 
L 290.269276 323.402155 
L 291.151305 328.108997 
L 292.032914 255.56981 
L 292.915366 259.539561 
L 293.797066 250.286882 
L 294.973222 260.106187 
L 296.149362 326.355386 
L 297.325281 328.238025 
L 298.501212 242.085349 
L 299.382844 244.733868 
L 300.265302 241.895033 
L 301.14639 241.065134 
L 302.02878 242.092344 
L 302.912452 245.094166 
L 303.792399 245.055712 
L 304.674282 245.594981 
L 305.556061 246.99433 
L 306.437972 249.549944 
L 307.319748 253.460849 
L 308.202009 258.879625 
L 309.083912 287.034418 
L 309.965853 284.309746 
L 310.848103 294.445313 
L 311.729836 258.876392 
L 312.611674 249.837456 
L 313.493752 302.702322 
L 314.375358 300.410647 
L 315.257154 311.147836 
L 316.139144 293.722144 
L 317.021557 280.167379 
L 317.90323 290.468214 
L 318.785034 309.777335 
L 319.666978 316.946268 
L 320.548774 306.213192 
L 321.431476 287.014128 
L 322.313209 275.384669 
L 323.194712 278.470989 
L 324.07732 289.925687 
L 324.958872 298.263596 
L 325.841661 297.283749 
L 327.604446 281.887823 
L 328.486351 279.749861 
L 329.36855 283.16095 
L 330.250241 284.025797 
L 332.013791 273.663813 
L 332.895945 259.91171 
L 333.778105 232.858052 
L 334.659759 218.165572 
L 335.541619 234.053062 
L 336.424528 298.096027 
L 337.599491 336.386846 
L 338.481218 339.274019 
L 339.363346 286.260619 
L 340.539512 232.444104 
L 341.420962 237.376189 
L 342.302949 248.004015 
L 343.184882 243.263793 
L 344.067003 252.878664 
L 344.949405 309.740325 
L 345.83148 305.940643 
L 346.713006 316.031091 
L 347.596463 324.193975 
L 348.47658 330.117372 
L 349.358644 333.680664 
L 350.240755 334.949807 
L 351.124313 334.073124 
L 352.300123 331.882192 
L 353.180461 331.270321 
L 354.062298 329.823796 
L 354.943906 327.279025 
L 355.826104 323.36914 
L 356.708157 317.919566 
L 357.590172 282.013653 
L 358.472305 284.85796 
L 359.354686 295.937525 
L 360.237526 319.052253 
L 361.117649 290.272534 
L 361.999971 273.654669 
L 362.881827 267.069818 
L 364.939711 299.451125 
L 365.821339 281.500698 
L 366.705608 256.700215 
L 367.88025 244.883887 
L 369.057023 268.022999 
L 369.937366 298.061063 
L 370.819151 308.998919 
L 371.705226 296.30532 
L 372.587211 275.899578 
L 373.468737 266.057994 
L 374.349956 272.43293 
L 375.526702 293.522205 
L 376.407678 303.692873 
L 377.290143 298.588182 
L 378.171652 285.779438 
L 379.05354 276.312225 
L 379.935959 278.682161 
L 380.817802 271.734957 
L 381.699328 269.730407 
L 382.875448 262.889744 
L 384.639271 220.311137 
L 385.520868 232.49079 
L 386.402836 296.3913 
L 387.285838 339.630952 
L 388.167658 328.464436 
L 389.048832 237.023982 
L 389.930468 237.025733 
L 390.812459 248.508238 
L 391.694589 243.998305 
L 392.576704 318.507009 
L 393.458153 314.527162 
L 394.340288 323.741844 
L 395.516336 310.288124 
L 396.398581 250.142812 
L 397.280609 261.243089 
L 398.162014 330.94255 
L 399.043775 329.298746 
L 399.925558 332.497079 
L 400.808164 333.510604 
L 401.689835 332.526939 
L 402.571595 329.950757 
L 403.45344 329.821348 
L 404.335231 329.002324 
L 405.217388 327.15755 
L 406.099121 324.001134 
L 406.981398 319.402948 
L 407.863652 299.454939 
L 408.745646 285.654233 
L 409.627369 283.334292 
L 410.510536 294.809174 
L 411.390608 316.521627 
L 412.273268 289.983983 
L 413.15556 270.057452 
L 414.0366 263.557174 
L 414.918529 274.055309 
L 415.800572 289.611084 
L 416.682516 285.25473 
L 417.564417 267.499415 
L 418.446647 257.193542 
L 419.327934 263.481966 
L 420.209899 280.8686 
L 421.092048 294.77844 
L 421.973804 295.599944 
L 423.738362 277.096636 
L 424.619617 275.547829 
L 425.502131 281.456984 
L 426.383915 289.055582 
L 427.266898 292.678428 
L 428.147514 290.837221 
L 429.029426 286.251531 
L 429.911359 287.565645 
L 430.793186 295.812859 
L 431.67552 302.115783 
L 432.557104 316.597033 
L 433.439284 342.230667 
L 434.321015 354.272319 
L 435.202812 332.513026 
L 436.085185 269.007426 
L 436.966723 233.78241 
L 437.848725 256.027087 
L 438.730478 336.392259 
L 439.612754 334.866126 
L 440.494387 323.310663 
L 441.376846 328.040747 
L 442.258364 255.637993 
L 443.434574 263.281431 
L 444.31577 253.47322 
L 445.197852 245.869627 
L 446.07984 240.654374 
L 446.962358 237.871711 
L 447.843839 237.381609 
L 448.72799 238.987214 
L 449.6075 240.979837 
L 450.489428 241.731844 
L 451.371358 243.239263 
L 452.253597 245.831395 
L 453.13602 249.76824 
L 454.017658 255.221346 
L 454.898736 291.009329 
L 455.780847 308.344127 
L 456.663436 317.225233 
L 457.544893 324.566557 
L 458.426703 243.219596 
L 459.308723 242.020439 
L 460.190292 298.75353 
L 461.954844 315.063511 
L 462.836311 318.226951 
L 464.600829 278.060781 
L 465.482761 277.217319 
L 466.364508 292.684333 
L 467.246521 305.498525 
L 468.128561 303.018615 
L 469.011593 288.638893 
L 469.892887 276.635182 
L 470.774012 276.374751 
L 471.655977 284.564872 
L 472.537903 290.053603 
L 473.420107 290.753636 
L 473.420107 290.753636 
" clip-path="url(#p4b3e1e2abe)" style="fill: none; stroke: #1f77b4; stroke-width: 1.5; stroke-linecap: square"/>
   </g>
   <g id="patch_9">
    <path d="M 58.042344 361.077656 
L 58.042344 211.360234 
" style="fill: none; stroke: #000000; stroke-width: 0.8; stroke-linejoin: miter; stroke-linecap: square"/>
   </g>
   <g id="patch_10">
    <path d="M 493.2 361.077656 
L 493.2 211.360234 
" style="fill: none; stroke: #000000; stroke-width: 0.8; stroke-linejoin: miter; stroke-linecap: square"/>
   </g>
   <g id="patch_11">
    <path d="M 58.042344 361.077656 
L 493.2 361.077656 
" style="fill: none; stroke: #000000; stroke-width: 0.8; stroke-linejoin: miter; stroke-linecap: square"/>
   </g>
   <g id="patch_12">
    <path d="M 58.042344 211.360234 
L 493.2 211.360234 
" style="fill: none; stroke: #000000; stroke-width: 0.8; stroke-linejoin: miter; stroke-linecap: square"/>
   </g>
   <g id="legend_2">
    <g id="patch_13">
     <path d="M 443.5 234.361016 
L 486.2 234.361016 
Q 488.2 234.361016 488.2 232.361016 
L 488.2 218.360234 
Q 488.2 216.360234 486.2 216.360234 
L 443.5 216.360234 
Q 441.5 216.360234 441.5 218.360234 
L 441.5 232.361016 
Q 441.5 234.361016 443.5 234.361016 
z
" style="fill: #ffffff; opacity: 0.8; stroke: #cccccc; stroke-linejoin: miter"/>
    </g>
    <g id="line2d_48">
     <path d="M 445.5 224.458672 
L 455.5 224.458672 
L 465.5 224.458672 
" style="fill: none; stroke: #1f77b4; stroke-width: 1.5; stroke-linecap: square"/>
    </g>
    <g id="text_27">
     <!-- $v_2$ -->
     <g transform="translate(473.5 227.958672) scale(0.1 -0.1)">
      <use xlink:href="#DejaVuSans-Oblique-59" transform="translate(0 0.3125)"/>
      <use xlink:href="#DejaVuSans-15" transform="translate(59.179688 -14.687451) scale(0.7)"/>
     </g>
    </g>
   </g>
  </g>
  <g id="text_28">
   <!-- OAMPC Virtual Inputs -->
   <g transform="translate(188.213437 17.182125) scale(0.12 -0.12)">
    <defs>
     <path id="DejaVuSans-32" d="M 2522 4238 
Q 1834 4238 1429 3725 
Q 1025 3213 1025 2328 
Q 1025 1447 1429 934 
Q 1834 422 2522 422 
Q 3209 422 3611 934 
Q 4013 1447 4013 2328 
Q 4013 3213 3611 3725 
Q 3209 4238 2522 4238 
z
M 2522 4750 
Q 3503 4750 4090 4092 
Q 4678 3434 4678 2328 
Q 4678 1225 4090 567 
Q 3503 -91 2522 -91 
Q 1538 -91 948 565 
Q 359 1222 359 2328 
Q 359 3434 948 4092 
Q 1538 4750 2522 4750 
z
" transform="scale(0.015625)"/>
     <path id="DejaVuSans-24" d="M 2188 4044 
L 1331 1722 
L 3047 1722 
L 2188 4044 
z
M 1831 4666 
L 2547 4666 
L 4325 0 
L 3669 0 
L 3244 1197 
L 1141 1197 
L 716 0 
L 50 0 
L 1831 4666 
z
" transform="scale(0.015625)"/>
     <path id="DejaVuSans-30" d="M 628 4666 
L 1569 4666 
L 2759 1491 
L 3956 4666 
L 4897 4666 
L 4897 0 
L 4281 0 
L 4281 4097 
L 3078 897 
L 2444 897 
L 1241 4097 
L 1241 0 
L 628 0 
L 628 4666 
z
" transform="scale(0.015625)"/>
     <path id="DejaVuSans-33" d="M 1259 4147 
L 1259 2394 
L 2053 2394 
Q 2494 2394 2734 2622 
Q 2975 2850 2975 3272 
Q 2975 3691 2734 3919 
Q 2494 4147 2053 4147 
L 1259 4147 
z
M 628 4666 
L 2053 4666 
Q 2838 4666 3239 4311 
Q 3641 3956 3641 3272 
Q 3641 2581 3239 2228 
Q 2838 1875 2053 1875 
L 1259 1875 
L 1259 0 
L 628 0 
L 628 4666 
z
" transform="scale(0.015625)"/>
     <path id="DejaVuSans-26" d="M 4122 4306 
L 4122 3641 
Q 3803 3938 3442 4084 
Q 3081 4231 2675 4231 
Q 1875 4231 1450 3742 
Q 1025 3253 1025 2328 
Q 1025 1406 1450 917 
Q 1875 428 2675 428 
Q 3081 428 3442 575 
Q 3803 722 4122 1019 
L 4122 359 
Q 3791 134 3420 21 
Q 3050 -91 2638 -91 
Q 1578 -91 968 557 
Q 359 1206 359 2328 
Q 359 3453 968 4101 
Q 1578 4750 2638 4750 
Q 3056 4750 3426 4639 
Q 3797 4528 4122 4306 
z
" transform="scale(0.015625)"/>
     <path id="DejaVuSans-39" d="M 1831 0 
L 50 4666 
L 709 4666 
L 2188 738 
L 3669 4666 
L 4325 4666 
L 2547 0 
L 1831 0 
z
" transform="scale(0.015625)"/>
     <path id="DejaVuSans-55" d="M 2631 2963 
Q 2534 3019 2420 3045 
Q 2306 3072 2169 3072 
Q 1681 3072 1420 2755 
Q 1159 2438 1159 1844 
L 1159 0 
L 581 0 
L 581 3500 
L 1159 3500 
L 1159 2956 
Q 1341 3275 1631 3429 
Q 1922 3584 2338 3584 
Q 2397 3584 2469 3576 
Q 2541 3569 2628 3553 
L 2631 2963 
z
" transform="scale(0.015625)"/>
     <path id="DejaVuSans-57" d="M 1172 4494 
L 1172 3500 
L 2356 3500 
L 2356 3053 
L 1172 3053 
L 1172 1153 
Q 1172 725 1289 603 
Q 1406 481 1766 481 
L 2356 481 
L 2356 0 
L 1766 0 
Q 1100 0 847 248 
Q 594 497 594 1153 
L 594 3053 
L 172 3053 
L 172 3500 
L 594 3500 
L 594 4494 
L 1172 4494 
z
" transform="scale(0.015625)"/>
     <path id="DejaVuSans-58" d="M 544 1381 
L 544 3500 
L 1119 3500 
L 1119 1403 
Q 1119 906 1312 657 
Q 1506 409 1894 409 
Q 2359 409 2629 706 
Q 2900 1003 2900 1516 
L 2900 3500 
L 3475 3500 
L 3475 0 
L 2900 0 
L 2900 538 
Q 2691 219 2414 64 
Q 2138 -91 1772 -91 
Q 1169 -91 856 284 
Q 544 659 544 1381 
z
M 1991 3584 
L 1991 3584 
z
" transform="scale(0.015625)"/>
     <path id="DejaVuSans-44" d="M 2194 1759 
Q 1497 1759 1228 1600 
Q 959 1441 959 1056 
Q 959 750 1161 570 
Q 1363 391 1709 391 
Q 2188 391 2477 730 
Q 2766 1069 2766 1631 
L 2766 1759 
L 2194 1759 
z
M 3341 1997 
L 3341 0 
L 2766 0 
L 2766 531 
Q 2569 213 2275 61 
Q 1981 -91 1556 -91 
Q 1019 -91 701 211 
Q 384 513 384 1019 
Q 384 1609 779 1909 
Q 1175 2209 1959 2209 
L 2766 2209 
L 2766 2266 
Q 2766 2663 2505 2880 
Q 2244 3097 1772 3097 
Q 1472 3097 1187 3025 
Q 903 2953 641 2809 
L 641 3341 
Q 956 3463 1253 3523 
Q 1550 3584 1831 3584 
Q 2591 3584 2966 3190 
Q 3341 2797 3341 1997 
z
" transform="scale(0.015625)"/>
     <path id="DejaVuSans-4f" d="M 603 4863 
L 1178 4863 
L 1178 0 
L 603 0 
L 603 4863 
z
" transform="scale(0.015625)"/>
     <path id="DejaVuSans-2c" d="M 628 4666 
L 1259 4666 
L 1259 0 
L 628 0 
L 628 4666 
z
" transform="scale(0.015625)"/>
     <path id="DejaVuSans-51" d="M 3513 2113 
L 3513 0 
L 2938 0 
L 2938 2094 
Q 2938 2591 2744 2837 
Q 2550 3084 2163 3084 
Q 1697 3084 1428 2787 
Q 1159 2491 1159 1978 
L 1159 0 
L 581 0 
L 581 3500 
L 1159 3500 
L 1159 2956 
Q 1366 3272 1645 3428 
Q 1925 3584 2291 3584 
Q 2894 3584 3203 3211 
Q 3513 2838 3513 2113 
z
" transform="scale(0.015625)"/>
     <path id="DejaVuSans-53" d="M 1159 525 
L 1159 -1331 
L 581 -1331 
L 581 3500 
L 1159 3500 
L 1159 2969 
Q 1341 3281 1617 3432 
Q 1894 3584 2278 3584 
Q 2916 3584 3314 3078 
Q 3713 2572 3713 1747 
Q 3713 922 3314 415 
Q 2916 -91 2278 -91 
Q 1894 -91 1617 61 
Q 1341 213 1159 525 
z
M 3116 1747 
Q 3116 2381 2855 2742 
Q 2594 3103 2138 3103 
Q 1681 3103 1420 2742 
Q 1159 2381 1159 1747 
Q 1159 1113 1420 752 
Q 1681 391 2138 391 
Q 2594 391 2855 752 
Q 3116 1113 3116 1747 
z
" transform="scale(0.015625)"/>
    </defs>
    <use xlink:href="#DejaVuSans-32"/>
    <use xlink:href="#DejaVuSans-24" transform="translate(76.96875 0)"/>
    <use xlink:href="#DejaVuSans-30" transform="translate(145.375 0)"/>
    <use xlink:href="#DejaVuSans-33" transform="translate(231.65625 0)"/>
    <use xlink:href="#DejaVuSans-26" transform="translate(291.953125 0)"/>
    <use xlink:href="#DejaVuSans-3" transform="translate(361.78125 0)"/>
    <use xlink:href="#DejaVuSans-39" transform="translate(393.5625 0)"/>
    <use xlink:href="#DejaVuSans-4c" transform="translate(459.765625 0)"/>
    <use xlink:href="#DejaVuSans-55" transform="translate(487.546875 0)"/>
    <use xlink:href="#DejaVuSans-57" transform="translate(528.65625 0)"/>
    <use xlink:href="#DejaVuSans-58" transform="translate(567.859375 0)"/>
    <use xlink:href="#DejaVuSans-44" transform="translate(631.234375 0)"/>
    <use xlink:href="#DejaVuSans-4f" transform="translate(692.515625 0)"/>
    <use xlink:href="#DejaVuSans-3" transform="translate(720.296875 0)"/>
    <use xlink:href="#DejaVuSans-2c" transform="translate(752.078125 0)"/>
    <use xlink:href="#DejaVuSans-51" transform="translate(781.578125 0)"/>
    <use xlink:href="#DejaVuSans-53" transform="translate(844.953125 0)"/>
    <use xlink:href="#DejaVuSans-58" transform="translate(908.4375 0)"/>
    <use xlink:href="#DejaVuSans-57" transform="translate(971.8125 0)"/>
    <use xlink:href="#DejaVuSans-56" transform="translate(1011.015625 0)"/>
   </g>
  </g>
 </g>
 <defs>
  <clipPath id="p4e939a4aaf">
   <rect x="58.042344" y="33.842813" width="435.157656" height="149.717422"/>
  </clipPath>
  <clipPath id="p4b3e1e2abe">
   <rect x="58.042344" y="211.360234" width="435.157656" height="149.717422"/>
  </clipPath>
 </defs>
</svg>
