<?xml version="1.0" encoding="utf-8" standalone="no"?>
<!DOCTYPE svg PUBLIC "-//W3C//DTD SVG 1.1//EN"
  "http://www.w3.org/Graphics/SVG/1.1/DTD/svg11.dtd">
<svg xmlns:xlink="http://www.w3.org/1999/xlink" width="504pt" height="604.8pt" viewBox="0 0 504 604.8" xmlns="http://www.w3.org/2000/svg" version="1.1">
 <metadata>
  <rdf:RDF xmlns:dc="http://purl.org/dc/elements/1.1/" xmlns:cc="http://creativecommons.org/ns#" xmlns:rdf="http://www.w3.org/1999/02/22-rdf-syntax-ns#">
   <cc:Work>
    <dc:type rdf:resource="http://purl.org/dc/dcmitype/StillImage"/>
    <dc:date>2026-07-10T12:40:38.128130</dc:date>
    <dc:format>image/svg+xml</dc:format>
    <dc:creator>
     <cc:Agent>
      <dc:title>Matplotlib v3.11.0, https://matplotlib.org/</dc:title>
     </cc:Agent>
    </dc:creator>
   </cc:Work>
  </rdf:RDF>
 </metadata>
 <defs>
  <style type="text/css">*{stroke-linejoin: round; stroke-linecap: butt}</style>
 </defs>
 <g id="figure_1">
  <g id="patch_1">
   <path d="M 0 604.8 
L 504 604.8 
L 504 0 
L 0 0 
z
" style="fill: #ffffff"/>
  </g>
  <g id="axes_1">
   <g id="patch_2">
    <path d="M 42.28 180.599531 
L 493.2 180.599531 
L 493.2 49.202812 
L 42.28 49.202812 
z
" style="fill: #ffffff"/>
   </g>
   <g id="matplotlib.axis_1">
    <g id="xtick_1">
     <g id="line2d_1">
      <path d="M 62.33559 180.599531 
L 62.33559 49.202812 
" clip-path="url(#p935ec4db86)" style="fill: none; stroke: #b0b0b0; stroke-width: 0.8; stroke-linecap: square"/>
     </g>
     <g id="line2d_2">
      <defs>
       <path id="m33837b4c57" d="M 0 0 
L 0 3.5 
" style="stroke: #000000; stroke-width: 0.8"/>
      </defs>
      <g>
       <use xlink:href="#m33837b4c57" x="62.33559" y="180.599531" style="stroke: #000000; stroke-width: 0.8"/>
      </g>
     </g>
     <g id="text_1">
      <!-- 0 -->
      <g transform="translate(59.15434 195.197187) scale(0.1 -0.1)">
       <defs>
        <path id="DejaVuSans-13" d="M 2034 4250 
Q 1547 4250 1301 3770 
Q 1056 3291 1056 2328 
Q 1056 1369 1301 889 
Q 1547 409 2034 409 
Q 2525 409 2770 889 
Q 3016 1369 3016 2328 
Q 3016 3291 2770 3770 
Q 2525 4250 2034 4250 
z
M 2034 4750 
Q 2819 4750 3233 4129 
Q 3647 3509 3647 2328 
Q 3647 1150 3233 529 
Q 2819 -91 2034 -91 
Q 1250 -91 836 529 
Q 422 1150 422 2328 
Q 422 3509 836 4129 
Q 1250 4750 2034 4750 
z
" transform="scale(0.015625)"/>
       </defs>
       <use xlink:href="#DejaVuSans-13"/>
      </g>
     </g>
    </g>
    <g id="xtick_2">
     <g id="line2d_3">
      <path d="M 130.828054 180.599531 
L 130.828054 49.202812 
" clip-path="url(#p935ec4db86)" style="fill: none; stroke: #b0b0b0; stroke-width: 0.8; stroke-linecap: square"/>
     </g>
     <g id="line2d_4">
      <g>
       <use xlink:href="#m33837b4c57" x="130.828054" y="180.599531" style="stroke: #000000; stroke-width: 0.8"/>
      </g>
     </g>
     <g id="text_2">
      <!-- 10 -->
      <g transform="translate(124.465554 195.197187) scale(0.1 -0.1)">
       <defs>
        <path id="DejaVuSans-14" d="M 794 531 
L 1825 531 
L 1825 4091 
L 703 3866 
L 703 4441 
L 1819 4666 
L 2450 4666 
L 2450 531 
L 3481 531 
L 3481 0 
L 794 0 
L 794 531 
z
" transform="scale(0.015625)"/>
       </defs>
       <use xlink:href="#DejaVuSans-14"/>
       <use xlink:href="#DejaVuSans-13" transform="translate(63.625 0)"/>
      </g>
     </g>
    </g>
    <g id="xtick_3">
     <g id="line2d_5">
      <path d="M 199.320517 180.599531 
L 199.320517 49.202812 
" clip-path="url(#p935ec4db86)" style="fill: none; stroke: #b0b0b0; stroke-width: 0.8; stroke-linecap: square"/>
     </g>
     <g id="line2d_6">
      <g>
       <use xlink:href="#m33837b4c57" x="199.320517" y="180.599531" style="stroke: #000000; stroke-width: 0.8"/>
      </g>
     </g>
     <g id="text_3">
      <!-- 20 -->
      <g transform="translate(192.958017 195.197187) scale(0.1 -0.1)">
       <defs>
        <path id="DejaVuSans-15" d="M 1228 531 
L 3431 531 
L 3431 0 
L 469 0 
L 469 531 
Q 828 903 1448 1529 
Q 2069 2156 2228 2338 
Q 2531 2678 2651 2914 
Q 2772 3150 2772 3378 
Q 2772 3750 2511 3984 
Q 2250 4219 1831 4219 
Q 1534 4219 1204 4116 
Q 875 4013 500 3803 
L 500 4441 
Q 881 4594 1212 4672 
Q 1544 4750 1819 4750 
Q 2544 4750 2975 4387 
Q 3406 4025 3406 3419 
Q 3406 3131 3298 2873 
Q 3191 2616 2906 2266 
Q 2828 2175 2409 1742 
Q 1991 1309 1228 531 
z
" transform="scale(0.015625)"/>
       </defs>
       <use xlink:href="#DejaVuSans-15"/>
       <use xlink:href="#DejaVuSans-13" transform="translate(63.625 0)"/>
      </g>
     </g>
    </g>
    <g id="xtick_4">
     <g id="line2d_7">
      <path d="M 267.812981 180.599531 
L 267.812981 49.202812 
" clip-path="url(#p935ec4db86)" style="fill: none; stroke: #b0b0b0; stroke-width: 0.8; stroke-linecap: square"/>
     </g>
     <g id="line2d_8">
      <g>
       <use xlink:href="#m33837b4c57" x="267.812981" y="180.599531" style="stroke: #000000; stroke-width: 0.8"/>
      </g>
     </g>
     <g id="text_4">
      <!-- 30 -->
      <g transform="translate(261.450481 195.197187) scale(0.1 -0.1)">
       <defs>
        <path id="DejaVuSans-16" d="M 2597 2516 
Q 3050 2419 3304 2112 
Q 3559 1806 3559 1356 
Q 3559 666 3084 287 
Q 2609 -91 1734 -91 
Q 1441 -91 1130 -33 
Q 819 25 488 141 
L 488 750 
Q 750 597 1062 519 
Q 1375 441 1716 441 
Q 2309 441 2620 675 
Q 2931 909 2931 1356 
Q 2931 1769 2642 2001 
Q 2353 2234 1838 2234 
L 1294 2234 
L 1294 2753 
L 1863 2753 
Q 2328 2753 2575 2939 
Q 2822 3125 2822 3475 
Q 2822 3834 2567 4026 
Q 2313 4219 1838 4219 
Q 1578 4219 1281 4162 
Q 984 4106 628 3988 
L 628 4550 
Q 988 4650 1302 4700 
Q 1616 4750 1894 4750 
Q 2613 4750 3031 4423 
Q 3450 4097 3450 3541 
Q 3450 3153 3228 2886 
Q 3006 2619 2597 2516 
z
" transform="scale(0.015625)"/>
       </defs>
       <use xlink:href="#DejaVuSans-16"/>
       <use xlink:href="#DejaVuSans-13" transform="translate(63.625 0)"/>
      </g>
     </g>
    </g>
    <g id="xtick_5">
     <g id="line2d_9">
      <path d="M 336.305445 180.599531 
L 336.305445 49.202812 
" clip-path="url(#p935ec4db86)" style="fill: none; stroke: #b0b0b0; stroke-width: 0.8; stroke-linecap: square"/>
     </g>
     <g id="line2d_10">
      <g>
       <use xlink:href="#m33837b4c57" x="336.305445" y="180.599531" style="stroke: #000000; stroke-width: 0.8"/>
      </g>
     </g>
     <g id="text_5">
      <!-- 40 -->
      <g transform="translate(329.942945 195.197187) scale(0.1 -0.1)">
       <defs>
        <path id="DejaVuSans-17" d="M 2419 4116 
L 825 1625 
L 2419 1625 
L 2419 4116 
z
M 2253 4666 
L 3047 4666 
L 3047 1625 
L 3713 1625 
L 3713 1100 
L 3047 1100 
L 3047 0 
L 2419 0 
L 2419 1100 
L 313 1100 
L 313 1709 
L 2253 4666 
z
" transform="scale(0.015625)"/>
       </defs>
       <use xlink:href="#DejaVuSans-17"/>
       <use xlink:href="#DejaVuSans-13" transform="translate(63.625 0)"/>
      </g>
     </g>
    </g>
    <g id="xtick_6">
     <g id="line2d_11">
      <path d="M 404.797909 180.599531 
L 404.797909 49.202812 
" clip-path="url(#p935ec4db86)" style="fill: none; stroke: #b0b0b0; stroke-width: 0.8; stroke-linecap: square"/>
     </g>
     <g id="line2d_12">
      <g>
       <use xlink:href="#m33837b4c57" x="404.797909" y="180.599531" style="stroke: #000000; stroke-width: 0.8"/>
      </g>
     </g>
     <g id="text_6">
      <!-- 50 -->
      <g transform="translate(398.435409 195.197187) scale(0.1 -0.1)">
       <defs>
        <path id="DejaVuSans-18" d="M 691 4666 
L 3169 4666 
L 3169 4134 
L 1269 4134 
L 1269 2991 
Q 1406 3038 1543 3061 
Q 1681 3084 1819 3084 
Q 2600 3084 3056 2656 
Q 3513 2228 3513 1497 
Q 3513 744 3044 326 
Q 2575 -91 1722 -91 
Q 1428 -91 1123 -41 
Q 819 9 494 109 
L 494 744 
Q 775 591 1075 516 
Q 1375 441 1709 441 
Q 2250 441 2565 725 
Q 2881 1009 2881 1497 
Q 2881 1984 2565 2268 
Q 2250 2553 1709 2553 
Q 1456 2553 1204 2497 
Q 953 2441 691 2322 
L 691 4666 
z
" transform="scale(0.015625)"/>
       </defs>
       <use xlink:href="#DejaVuSans-18"/>
       <use xlink:href="#DejaVuSans-13" transform="translate(63.625 0)"/>
      </g>
     </g>
    </g>
    <g id="xtick_7">
     <g id="line2d_13">
      <path d="M 473.290372 180.599531 
L 473.290372 49.202812 
" clip-path="url(#p935ec4db86)" style="fill: none; stroke: #b0b0b0; stroke-width: 0.8; stroke-linecap: square"/>
     </g>
     <g id="line2d_14">
      <g>
       <use xlink:href="#m33837b4c57" x="473.290372" y="180.599531" style="stroke: #000000; stroke-width: 0.8"/>
      </g>
     </g>
     <g id="text_7">
      <!-- 60 -->
      <g transform="translate(466.927872 195.197187) scale(0.1 -0.1)">
       <defs>
        <path id="DejaVuSans-19" d="M 2113 2584 
Q 1688 2584 1439 2293 
Q 1191 2003 1191 1497 
Q 1191 994 1439 701 
Q 1688 409 2113 409 
Q 2538 409 2786 701 
Q 3034 994 3034 1497 
Q 3034 2003 2786 2293 
Q 2538 2584 2113 2584 
z
M 3366 4563 
L 3366 3988 
Q 3128 4100 2886 4159 
Q 2644 4219 2406 4219 
Q 1781 4219 1451 3797 
Q 1122 3375 1075 2522 
Q 1259 2794 1537 2939 
Q 1816 3084 2150 3084 
Q 2853 3084 3261 2657 
Q 3669 2231 3669 1497 
Q 3669 778 3244 343 
Q 2819 -91 2113 -91 
Q 1303 -91 875 529 
Q 447 1150 447 2328 
Q 447 3434 972 4092 
Q 1497 4750 2381 4750 
Q 2619 4750 2861 4703 
Q 3103 4656 3366 4563 
z
" transform="scale(0.015625)"/>
       </defs>
       <use xlink:href="#DejaVuSans-19"/>
       <use xlink:href="#DejaVuSans-13" transform="translate(63.625 0)"/>
      </g>
     </g>
    </g>
    <g id="text_8">
     <!-- t (s) -->
     <g transform="translate(257.684531 209.197187) scale(0.1 -0.1)">
      <defs>
       <path id="DejaVuSans-57" d="M 1172 4494 
L 1172 3500 
L 2356 3500 
L 2356 3053 
L 1172 3053 
L 1172 1153 
Q 1172 725 1289 603 
Q 1406 481 1766 481 
L 2356 481 
L 2356 0 
L 1766 0 
Q 1100 0 847 248 
Q 594 497 594 1153 
L 594 3053 
L 172 3053 
L 172 3500 
L 594 3500 
L 594 4494 
L 1172 4494 
z
" transform="scale(0.015625)"/>
       <path id="DejaVuSans-3" transform="scale(0.015625)"/>
       <path id="DejaVuSans-b" d="M 1984 4856 
Q 1566 4138 1362 3434 
Q 1159 2731 1159 2009 
Q 1159 1288 1364 580 
Q 1569 -128 1984 -844 
L 1484 -844 
Q 1016 -109 783 600 
Q 550 1309 550 2009 
Q 550 2706 781 3412 
Q 1013 4119 1484 4856 
L 1984 4856 
z
" transform="scale(0.015625)"/>
       <path id="DejaVuSans-56" d="M 2834 3397 
L 2834 2853 
Q 2591 2978 2328 3040 
Q 2066 3103 1784 3103 
Q 1356 3103 1142 2972 
Q 928 2841 928 2578 
Q 928 2378 1081 2264 
Q 1234 2150 1697 2047 
L 1894 2003 
Q 2506 1872 2764 1633 
Q 3022 1394 3022 966 
Q 3022 478 2636 193 
Q 2250 -91 1575 -91 
Q 1294 -91 989 -36 
Q 684 19 347 128 
L 347 722 
Q 666 556 975 473 
Q 1284 391 1588 391 
Q 1994 391 2212 530 
Q 2431 669 2431 922 
Q 2431 1156 2273 1281 
Q 2116 1406 1581 1522 
L 1381 1569 
Q 847 1681 609 1914 
Q 372 2147 372 2553 
Q 372 3047 722 3315 
Q 1072 3584 1716 3584 
Q 2034 3584 2315 3537 
Q 2597 3491 2834 3397 
z
" transform="scale(0.015625)"/>
       <path id="DejaVuSans-c" d="M 513 4856 
L 1013 4856 
Q 1481 4119 1714 3412 
Q 1947 2706 1947 2009 
Q 1947 1309 1714 600 
Q 1481 -109 1013 -844 
L 513 -844 
Q 928 -128 1133 580 
Q 1338 1288 1338 2009 
Q 1338 2731 1133 3434 
Q 928 4138 513 4856 
z
" transform="scale(0.015625)"/>
      </defs>
      <use xlink:href="#DejaVuSans-57"/>
      <use xlink:href="#DejaVuSans-3" transform="translate(39.203125 0)"/>
      <use xlink:href="#DejaVuSans-b" transform="translate(70.984375 0)"/>
      <use xlink:href="#DejaVuSans-56" transform="translate(110 0)"/>
      <use xlink:href="#DejaVuSans-c" transform="translate(162.09375 0)"/>
     </g>
    </g>
   </g>
   <g id="matplotlib.axis_2">
    <g id="ytick_1">
     <g id="line2d_15">
      <path d="M 42.28 174.626953 
L 493.2 174.626953 
" clip-path="url(#p935ec4db86)" style="fill: none; stroke: #b0b0b0; stroke-width: 0.8; stroke-linecap: square"/>
     </g>
     <g id="line2d_16">
      <defs>
       <path id="m2327e5d802" d="M 0 0 
L -3.5 0 
" style="stroke: #000000; stroke-width: 0.8"/>
      </defs>
      <g>
       <use xlink:href="#m2327e5d802" x="42.28" y="174.626953" style="stroke: #000000; stroke-width: 0.8"/>
      </g>
     </g>
     <g id="text_9">
      <!-- −1.0 -->
      <g transform="translate(10.997188 178.425781) scale(0.1 -0.1)">
       <defs>
        <path id="DejaVuSans-c9c" d="M 678 2272 
L 4684 2272 
L 4684 1741 
L 678 1741 
L 678 2272 
z
" transform="scale(0.015625)"/>
        <path id="DejaVuSans-11" d="M 684 794 
L 1344 794 
L 1344 0 
L 684 0 
L 684 794 
z
" transform="scale(0.015625)"/>
       </defs>
       <use xlink:href="#DejaVuSans-c9c"/>
       <use xlink:href="#DejaVuSans-14" transform="translate(83.796875 0)"/>
       <use xlink:href="#DejaVuSans-11" transform="translate(147.421875 0)"/>
       <use xlink:href="#DejaVuSans-13" transform="translate(179.203125 0)"/>
      </g>
     </g>
    </g>
    <g id="ytick_2">
     <g id="line2d_17">
      <path d="M 42.28 144.764062 
L 493.2 144.764062 
" clip-path="url(#p935ec4db86)" style="fill: none; stroke: #b0b0b0; stroke-width: 0.8; stroke-linecap: square"/>
     </g>
     <g id="line2d_18">
      <g>
       <use xlink:href="#m2327e5d802" x="42.28" y="144.764062" style="stroke: #000000; stroke-width: 0.8"/>
      </g>
     </g>
     <g id="text_10">
      <!-- −0.5 -->
      <g transform="translate(10.997188 148.562891) scale(0.1 -0.1)">
       <use xlink:href="#DejaVuSans-c9c"/>
       <use xlink:href="#DejaVuSans-13" transform="translate(83.796875 0)"/>
       <use xlink:href="#DejaVuSans-11" transform="translate(147.421875 0)"/>
       <use xlink:href="#DejaVuSans-18" transform="translate(179.203125 0)"/>
      </g>
     </g>
    </g>
    <g id="ytick_3">
     <g id="line2d_19">
      <path d="M 42.28 114.901172 
L 493.2 114.901172 
" clip-path="url(#p935ec4db86)" style="fill: none; stroke: #b0b0b0; stroke-width: 0.8; stroke-linecap: square"/>
     </g>
     <g id="line2d_20">
      <g>
       <use xlink:href="#m2327e5d802" x="42.28" y="114.901172" style="stroke: #000000; stroke-width: 0.8"/>
      </g>
     </g>
     <g id="text_11">
      <!-- 0.0 -->
      <g transform="translate(19.376875 118.7) scale(0.1 -0.1)">
       <use xlink:href="#DejaVuSans-13"/>
       <use xlink:href="#DejaVuSans-11" transform="translate(63.625 0)"/>
       <use xlink:href="#DejaVuSans-13" transform="translate(95.40625 0)"/>
      </g>
     </g>
    </g>
    <g id="ytick_4">
     <g id="line2d_21">
      <path d="M 42.28 85.038281 
L 493.2 85.038281 
" clip-path="url(#p935ec4db86)" style="fill: none; stroke: #b0b0b0; stroke-width: 0.8; stroke-linecap: square"/>
     </g>
     <g id="line2d_22">
      <g>
       <use xlink:href="#m2327e5d802" x="42.28" y="85.038281" style="stroke: #000000; stroke-width: 0.8"/>
      </g>
     </g>
     <g id="text_12">
      <!-- 0.5 -->
      <g transform="translate(19.376875 88.837109) scale(0.1 -0.1)">
       <use xlink:href="#DejaVuSans-13"/>
       <use xlink:href="#DejaVuSans-11" transform="translate(63.625 0)"/>
       <use xlink:href="#DejaVuSans-18" transform="translate(95.40625 0)"/>
      </g>
     </g>
    </g>
    <g id="ytick_5">
     <g id="line2d_23">
      <path d="M 42.28 55.175391 
L 493.2 55.175391 
" clip-path="url(#p935ec4db86)" style="fill: none; stroke: #b0b0b0; stroke-width: 0.8; stroke-linecap: square"/>
     </g>
     <g id="line2d_24">
      <g>
       <use xlink:href="#m2327e5d802" x="42.28" y="55.175391" style="stroke: #000000; stroke-width: 0.8"/>
      </g>
     </g>
     <g id="text_13">
      <!-- 1.0 -->
      <g transform="translate(19.376875 58.974219) scale(0.1 -0.1)">
       <use xlink:href="#DejaVuSans-14"/>
       <use xlink:href="#DejaVuSans-11" transform="translate(63.625 0)"/>
       <use xlink:href="#DejaVuSans-13" transform="translate(95.40625 0)"/>
      </g>
     </g>
    </g>
   </g>
   <g id="line2d_25">
    <path d="M 62.776364 113.646936 
L 84.83108 55.951878 
L 85.312983 55.175391 
L 95.906281 55.181702 
L 99.214823 63.960974 
L 104.970523 79.011401 
L 105.447098 79.644828 
L 105.927726 79.615745 
L 106.407682 79.042623 
L 107.84756 75.374893 
L 110.242918 69.112586 
L 110.722609 68.553599 
L 111.202172 68.618913 
L 112.162241 70.312701 
L 113.598111 74.069171 
L 114.559703 75.940877 
L 115.515421 76.751222 
L 116.476868 76.4145 
L 116.956211 75.786493 
L 117.436489 75.913704 
L 118.393935 75.498124 
L 120.313462 73.202503 
L 120.792564 72.391247 
L 121.269643 71.83185 
L 121.749347 71.097497 
L 122.230207 71.481425 
L 122.708769 71.689122 
L 123.188796 72.115819 
L 123.66638 72.237403 
L 124.146816 72.4755 
L 124.627789 72.400118 
L 125.105629 72.47917 
L 126.064258 72.059141 
L 127.022377 71.034157 
L 127.981535 70.956506 
L 128.94192 70.018394 
L 130.380361 66.939227 
L 131.817372 63.47793 
L 132.29597 63.106586 
L 132.77717 63.093643 
L 133.257409 62.830133 
L 133.735836 62.82456 
L 134.21594 62.485048 
L 134.695975 62.355779 
L 135.653898 60.995214 
L 136.612981 58.586859 
L 137.092889 57.990348 
L 137.570732 57.612172 
L 138.050769 56.761413 
L 138.529169 56.145759 
L 139.010513 55.175391 
L 154.83218 55.273161 
L 155.313385 55.429784 
L 164.419148 79.224087 
L 165.380648 80.173603 
L 165.860704 79.978715 
L 167.778056 75.045743 
L 170.652735 67.520611 
L 171.135257 66.653204 
L 171.61236 66.136626 
L 172.092462 66.356593 
L 172.571969 66.801389 
L 174.011395 69.502949 
L 174.968486 70.391378 
L 175.925421 71.741456 
L 176.884881 72.049079 
L 177.846466 71.114885 
L 179.284438 67.796767 
L 179.762868 66.54475 
L 180.241866 65.83552 
L 180.720507 65.393932 
L 181.200814 64.613596 
L 181.68073 64.066243 
L 182.161091 63.177827 
L 182.639239 62.546551 
L 183.120462 61.603856 
L 183.598907 60.917586 
L 184.077359 59.987035 
L 184.557426 59.405525 
L 185.035389 59.543505 
L 185.514872 59.961013 
L 186.475599 59.80821 
L 187.91446 56.064296 
L 188.391772 55.175391 
L 201.336177 55.175391 
L 202.29636 55.715413 
L 202.777256 56.633094 
L 204.693424 61.558815 
L 210.92657 77.794549 
L 211.405659 78.459952 
L 211.88428 78.153663 
L 212.364744 77.52343 
L 213.324195 75.476032 
L 213.804008 75.34174 
L 214.284953 75.567615 
L 215.244307 75.677185 
L 216.20236 74.296838 
L 220.517918 63.05865 
L 221.474927 61.787522 
L 221.957054 61.90241 
L 222.435325 62.199142 
L 222.91355 63.122201 
L 226.26902 71.654562 
L 226.749229 72.224221 
L 227.230557 71.686634 
L 228.187529 69.424269 
L 232.982593 56.882339 
L 233.941991 55.28409 
L 234.4188 55.388365 
L 234.898541 55.789297 
L 236.816106 60.718813 
L 240.174771 69.376163 
L 241.131186 69.813637 
L 243.052199 69.365823 
L 244.008713 67.317531 
L 245.449008 63.808387 
L 245.926812 63.37161 
L 246.407002 63.229877 
L 246.887167 63.753061 
L 248.326159 67.218126 
L 248.803562 67.773617 
L 249.284479 67.060967 
L 251.199631 62.134356 
L 251.679025 60.882341 
L 252.638149 59.530138 
L 254.078792 55.822214 
L 254.55912 55.175391 
L 256.953031 55.175391 
L 257.913095 55.688672 
L 259.830901 58.875288 
L 260.312902 59.530675 
L 260.788752 59.415188 
L 261.27028 59.065079 
L 262.228239 59.114939 
L 263.666209 57.549071 
L 264.145819 57.030272 
L 264.626303 56.224415 
L 265.10472 55.802333 
L 265.582845 55.221596 
L 266.063391 55.175391 
L 266.541453 56.050501 
L 267.981208 59.553907 
L 268.942123 61.020596 
L 269.898992 61.067602 
L 270.8578 59.668773 
L 271.818517 59.22307 
L 273.256487 55.570678 
L 273.735009 55.175391 
L 276.130123 55.175391 
L 276.612091 55.73826 
L 277.093055 56.494395 
L 279.967915 63.961641 
L 280.925794 65.121129 
L 281.406338 65.454545 
L 281.88761 66.021459 
L 282.364018 67.27546 
L 283.323223 68.906991 
L 288.598704 55.380797 
L 289.077371 55.237344 
L 289.55868 55.438689 
L 290.515992 57.69587 
L 292.43378 62.430724 
L 292.914394 63.033137 
L 293.392051 62.372628 
L 296.269854 55.175391 
L 299.146569 55.175391 
L 299.624063 55.757268 
L 303.462905 65.790872 
L 303.939903 66.293863 
L 304.897405 66.089932 
L 305.378035 65.830195 
L 305.857025 65.435391 
L 306.335895 65.581555 
L 306.816146 65.201864 
L 307.296191 64.398532 
L 310.651022 55.618919 
L 311.130339 55.175391 
L 314.488427 55.175391 
L 314.968392 55.400309 
L 315.44626 56.211413 
L 325.517554 82.543847 
L 325.994466 82.747416 
L 326.473963 82.37845 
L 329.830936 73.759023 
L 330.787705 72.359218 
L 331.748293 71.978091 
L 332.229356 72.147771 
L 332.705834 72.110214 
L 333.18659 72.214107 
L 334.145793 73.254314 
L 335.10306 73.25366 
L 336.06407 71.948122 
L 337.980155 67.063796 
L 338.459453 66.407598 
L 338.938438 66.079306 
L 339.419823 65.5097 
L 339.89698 65.236052 
L 340.376645 64.709134 
L 340.857076 64.433395 
L 341.336828 63.939281 
L 341.818096 63.730598 
L 342.294881 63.222812 
L 342.775581 63.056678 
L 343.254049 63.558058 
L 343.732493 64.300366 
L 344.69179 64.992808 
L 345.651179 64.536332 
L 346.610997 62.686105 
L 349.488518 55.175391 
L 356.679191 55.175391 
L 357.159601 55.580071 
L 369.143163 86.925672 
L 369.624372 87.840835 
L 370.104271 88.02299 
L 370.582729 87.854763 
L 373.937445 82.659817 
L 374.897837 81.963605 
L 375.856522 82.054805 
L 376.335936 82.399265 
L 378.252485 85.873382 
L 379.212347 86.48495 
L 380.171164 85.990185 
L 381.12924 84.617381 
L 383.049606 82.972973 
L 384.007667 81.934436 
L 384.485814 81.336773 
L 384.965066 80.951946 
L 385.444469 80.422915 
L 385.924294 80.133517 
L 386.404535 80.33098 
L 386.884421 80.725897 
L 388.800466 81.233171 
L 389.280685 81.2406 
L 389.761796 81.40508 
L 390.718863 81.360322 
L 391.678651 82.046418 
L 392.638207 81.773493 
L 393.594898 80.062402 
L 400.786199 61.25161 
L 401.26823 60.38927 
L 401.748944 59.293493 
L 402.226804 58.511898 
L 403.186749 56.01278 
L 403.66606 55.175391 
L 443.458421 55.175391 
L 444.419579 57.480855 
L 471.268023 127.717912 
L 471.744742 128.641896 
L 472.226282 128.757486 
L 472.703636 127.841658 
L 472.703636 127.841658 
" clip-path="url(#p935ec4db86)" style="fill: none; stroke: #1f77b4; stroke-width: 1.5; stroke-linecap: square"/>
   </g>
   <g id="line2d_26">
    <path d="M 42.28 174.626953 
L 493.2 174.626953 
" clip-path="url(#p935ec4db86)" style="fill: none; stroke-dasharray: 3.7,1.6; stroke-dashoffset: 0; stroke: #ff0000"/>
   </g>
   <g id="line2d_27">
    <path d="M 42.28 55.175391 
L 493.2 55.175391 
" clip-path="url(#p935ec4db86)" style="fill: none; stroke-dasharray: 3.7,1.6; stroke-dashoffset: 0; stroke: #ff0000"/>
   </g>
   <g id="patch_3">
    <path d="M 42.28 180.599531 
L 42.28 49.202812 
" style="fill: none; stroke: #000000; stroke-width: 0.8; stroke-linejoin: miter; stroke-linecap: square"/>
   </g>
   <g id="patch_4">
    <path d="M 493.2 180.599531 
L 493.2 49.202812 
" style="fill: none; stroke: #000000; stroke-width: 0.8; stroke-linejoin: miter; stroke-linecap: square"/>
   </g>
   <g id="patch_5">
    <path d="M 42.28 180.599531 
L 493.2 180.599531 
" style="fill: none; stroke: #000000; stroke-width: 0.8; stroke-linejoin: miter; stroke-linecap: square"/>
   </g>
   <g id="patch_6">
    <path d="M 42.28 49.202812 
L 493.2 49.202812 
" style="fill: none; stroke: #000000; stroke-width: 0.8; stroke-linejoin: miter; stroke-linecap: square"/>
   </g>
   <g id="text_14">
    <!-- $v_{x,cmd}$ (m/s) -->
    <g transform="translate(232.7 43.202812) scale(0.12 -0.12)">
     <defs>
      <path id="DejaVuSans-Oblique-59" d="M 459 3500 
L 1069 3500 
L 1581 525 
L 3256 3500 
L 3866 3500 
L 1875 0 
L 1100 0 
L 459 3500 
z
" transform="scale(0.015625)"/>
      <path id="DejaVuSans-Oblique-5b" d="M 3841 3500 
L 2234 1784 
L 3219 0 
L 2559 0 
L 1819 1388 
L 531 0 
L -166 0 
L 1556 1844 
L 641 3500 
L 1300 3500 
L 1972 2234 
L 3144 3500 
L 3841 3500 
z
" transform="scale(0.015625)"/>
      <path id="DejaVuSans-f" d="M 750 794 
L 1409 794 
L 1409 256 
L 897 -744 
L 494 -744 
L 750 256 
L 750 794 
z
" transform="scale(0.015625)"/>
      <path id="DejaVuSans-Oblique-46" d="M 3431 3366 
L 3316 2797 
Q 3109 2947 2876 3022 
Q 2644 3097 2394 3097 
Q 2119 3097 1870 3000 
Q 1622 2903 1453 2725 
Q 1184 2453 1037 2087 
Q 891 1722 891 1331 
Q 891 859 1127 628 
Q 1363 397 1844 397 
Q 2081 397 2348 469 
Q 2616 541 2906 684 
L 2797 116 
Q 2547 13 2283 -39 
Q 2019 -91 1741 -91 
Q 1044 -91 669 257 
Q 294 606 294 1253 
Q 294 1797 489 2255 
Q 684 2713 1069 3078 
Q 1331 3328 1684 3456 
Q 2038 3584 2456 3584 
Q 2700 3584 2940 3529 
Q 3181 3475 3431 3366 
z
" transform="scale(0.015625)"/>
      <path id="DejaVuSans-Oblique-50" d="M 5747 2113 
L 5338 0 
L 4763 0 
L 5166 2094 
Q 5191 2228 5203 2325 
Q 5216 2422 5216 2491 
Q 5216 2772 5059 2928 
Q 4903 3084 4622 3084 
Q 4203 3084 3875 2770 
Q 3547 2456 3450 1953 
L 3066 0 
L 2491 0 
L 2900 2094 
Q 2925 2209 2937 2307 
Q 2950 2406 2950 2484 
Q 2950 2769 2794 2926 
Q 2638 3084 2363 3084 
Q 1938 3084 1609 2770 
Q 1281 2456 1184 1953 
L 800 0 
L 225 0 
L 909 3500 
L 1484 3500 
L 1375 2956 
Q 1609 3263 1923 3423 
Q 2238 3584 2597 3584 
Q 2978 3584 3223 3384 
Q 3469 3184 3519 2828 
Q 3781 3197 4126 3390 
Q 4472 3584 4856 3584 
Q 5306 3584 5551 3325 
Q 5797 3066 5797 2591 
Q 5797 2488 5784 2364 
Q 5772 2241 5747 2113 
z
" transform="scale(0.015625)"/>
      <path id="DejaVuSans-Oblique-47" d="M 2675 525 
Q 2444 222 2128 65 
Q 1813 -91 1428 -91 
Q 903 -91 598 267 
Q 294 625 294 1247 
Q 294 1766 478 2236 
Q 663 2706 1013 3078 
Q 1244 3325 1534 3454 
Q 1825 3584 2144 3584 
Q 2481 3584 2739 3421 
Q 2997 3259 3138 2956 
L 3513 4863 
L 4091 4863 
L 3144 0 
L 2566 0 
L 2675 525 
z
M 891 1350 
Q 891 897 1095 644 
Q 1300 391 1663 391 
Q 1931 391 2161 520 
Q 2391 650 2566 903 
Q 2750 1166 2856 1509 
Q 2963 1853 2963 2188 
Q 2963 2622 2758 2865 
Q 2553 3109 2194 3109 
Q 1922 3109 1687 2981 
Q 1453 2853 1288 2613 
Q 1106 2353 998 2009 
Q 891 1666 891 1350 
z
" transform="scale(0.015625)"/>
      <path id="DejaVuSans-50" d="M 3328 2828 
Q 3544 3216 3844 3400 
Q 4144 3584 4550 3584 
Q 5097 3584 5394 3201 
Q 5691 2819 5691 2113 
L 5691 0 
L 5113 0 
L 5113 2094 
Q 5113 2597 4934 2840 
Q 4756 3084 4391 3084 
Q 3944 3084 3684 2787 
Q 3425 2491 3425 1978 
L 3425 0 
L 2847 0 
L 2847 2094 
Q 2847 2600 2669 2842 
Q 2491 3084 2119 3084 
Q 1678 3084 1418 2786 
Q 1159 2488 1159 1978 
L 1159 0 
L 581 0 
L 581 3500 
L 1159 3500 
L 1159 2956 
Q 1356 3278 1631 3431 
Q 1906 3584 2284 3584 
Q 2666 3584 2933 3390 
Q 3200 3197 3328 2828 
z
" transform="scale(0.015625)"/>
      <path id="DejaVuSans-12" d="M 1625 4666 
L 2156 4666 
L 531 -594 
L 0 -594 
L 1625 4666 
z
" transform="scale(0.015625)"/>
     </defs>
     <use xlink:href="#DejaVuSans-Oblique-59" transform="translate(0 0.125)"/>
     <use xlink:href="#DejaVuSans-Oblique-5b" transform="translate(59.179688 -14.874951) scale(0.7)"/>
     <use xlink:href="#DejaVuSans-f" transform="translate(100.605469 -14.874951) scale(0.7)"/>
     <use xlink:href="#DejaVuSans-Oblique-46" transform="translate(136.494141 -14.874951) scale(0.7)"/>
     <use xlink:href="#DejaVuSans-Oblique-50" transform="translate(174.980469 -14.874951) scale(0.7)"/>
     <use xlink:href="#DejaVuSans-Oblique-47" transform="translate(243.168945 -14.874951) scale(0.7)"/>
     <use xlink:href="#DejaVuSans-3" transform="translate(290.336914 0.125)"/>
     <use xlink:href="#DejaVuSans-b" transform="translate(322.124023 0.125)"/>
     <use xlink:href="#DejaVuSans-50" transform="translate(361.137695 0.125)"/>
     <use xlink:href="#DejaVuSans-12" transform="translate(458.549805 0.125)"/>
     <use xlink:href="#DejaVuSans-56" transform="translate(492.241211 0.125)"/>
     <use xlink:href="#DejaVuSans-c" transform="translate(544.34082 0.125)"/>
    </g>
   </g>
   <g id="legend_1">
    <g id="patch_7">
     <path d="M 237.19 123.901562 
L 298.29 123.901562 
Q 300.29 123.901562 300.29 121.901562 
L 300.29 107.900781 
Q 300.29 105.900781 298.29 105.900781 
L 237.19 105.900781 
Q 235.19 105.900781 235.19 107.900781 
L 235.19 121.901562 
Q 235.19 123.901562 237.19 123.901562 
z
" style="fill: #ffffff; opacity: 0.8; stroke: #cccccc; stroke-linejoin: miter"/>
    </g>
    <g id="line2d_28">
     <path d="M 239.19 113.999219 
L 249.19 113.999219 
L 259.19 113.999219 
" style="fill: none; stroke: #1f77b4; stroke-width: 1.5; stroke-linecap: square"/>
    </g>
    <g id="text_15">
     <!-- $v_{x,cmd}$ -->
     <g transform="translate(267.19 117.499219) scale(0.1 -0.1)">
      <use xlink:href="#DejaVuSans-Oblique-59" transform="translate(0 0.3125)"/>
      <use xlink:href="#DejaVuSans-Oblique-5b" transform="translate(59.179688 -14.687451) scale(0.7)"/>
      <use xlink:href="#DejaVuSans-f" transform="translate(100.605469 -14.687451) scale(0.7)"/>
      <use xlink:href="#DejaVuSans-Oblique-46" transform="translate(136.494141 -14.687451) scale(0.7)"/>
      <use xlink:href="#DejaVuSans-Oblique-50" transform="translate(174.980469 -14.687451) scale(0.7)"/>
      <use xlink:href="#DejaVuSans-Oblique-47" transform="translate(243.168945 -14.687451) scale(0.7)"/>
     </g>
    </g>
   </g>
  </g>
  <g id="axes_2">
   <g id="patch_8">
    <path d="M 42.28 371.638594 
L 493.2 371.638594 
L 493.2 240.241875 
L 42.28 240.241875 
z
" style="fill: #ffffff"/>
   </g>
   <g id="matplotlib.axis_3">
    <g id="xtick_8">
     <g id="line2d_29">
      <path d="M 62.33559 371.638594 
L 62.33559 240.241875 
" clip-path="url(#pcdda653289)" style="fill: none; stroke: #b0b0b0; stroke-width: 0.8; stroke-linecap: square"/>
     </g>
     <g id="line2d_30">
      <g>
       <use xlink:href="#m33837b4c57" x="62.33559" y="371.638594" style="stroke: #000000; stroke-width: 0.8"/>
      </g>
     </g>
     <g id="text_16">
      <!-- 0 -->
      <g transform="translate(59.15434 386.23625) scale(0.1 -0.1)">
       <use xlink:href="#DejaVuSans-13"/>
      </g>
     </g>
    </g>
    <g id="xtick_9">
     <g id="line2d_31">
      <path d="M 130.828054 371.638594 
L 130.828054 240.241875 
" clip-path="url(#pcdda653289)" style="fill: none; stroke: #b0b0b0; stroke-width: 0.8; stroke-linecap: square"/>
     </g>
     <g id="line2d_32">
      <g>
       <use xlink:href="#m33837b4c57" x="130.828054" y="371.638594" style="stroke: #000000; stroke-width: 0.8"/>
      </g>
     </g>
     <g id="text_17">
      <!-- 10 -->
      <g transform="translate(124.465554 386.23625) scale(0.1 -0.1)">
       <use xlink:href="#DejaVuSans-14"/>
       <use xlink:href="#DejaVuSans-13" transform="translate(63.625 0)"/>
      </g>
     </g>
    </g>
    <g id="xtick_10">
     <g id="line2d_33">
      <path d="M 199.320517 371.638594 
L 199.320517 240.241875 
" clip-path="url(#pcdda653289)" style="fill: none; stroke: #b0b0b0; stroke-width: 0.8; stroke-linecap: square"/>
     </g>
     <g id="line2d_34">
      <g>
       <use xlink:href="#m33837b4c57" x="199.320517" y="371.638594" style="stroke: #000000; stroke-width: 0.8"/>
      </g>
     </g>
     <g id="text_18">
      <!-- 20 -->
      <g transform="translate(192.958017 386.23625) scale(0.1 -0.1)">
       <use xlink:href="#DejaVuSans-15"/>
       <use xlink:href="#DejaVuSans-13" transform="translate(63.625 0)"/>
      </g>
     </g>
    </g>
    <g id="xtick_11">
     <g id="line2d_35">
      <path d="M 267.812981 371.638594 
L 267.812981 240.241875 
" clip-path="url(#pcdda653289)" style="fill: none; stroke: #b0b0b0; stroke-width: 0.8; stroke-linecap: square"/>
     </g>
     <g id="line2d_36">
      <g>
       <use xlink:href="#m33837b4c57" x="267.812981" y="371.638594" style="stroke: #000000; stroke-width: 0.8"/>
      </g>
     </g>
     <g id="text_19">
      <!-- 30 -->
      <g transform="translate(261.450481 386.23625) scale(0.1 -0.1)">
       <use xlink:href="#DejaVuSans-16"/>
       <use xlink:href="#DejaVuSans-13" transform="translate(63.625 0)"/>
      </g>
     </g>
    </g>
    <g id="xtick_12">
     <g id="line2d_37">
      <path d="M 336.305445 371.638594 
L 336.305445 240.241875 
" clip-path="url(#pcdda653289)" style="fill: none; stroke: #b0b0b0; stroke-width: 0.8; stroke-linecap: square"/>
     </g>
     <g id="line2d_38">
      <g>
       <use xlink:href="#m33837b4c57" x="336.305445" y="371.638594" style="stroke: #000000; stroke-width: 0.8"/>
      </g>
     </g>
     <g id="text_20">
      <!-- 40 -->
      <g transform="translate(329.942945 386.23625) scale(0.1 -0.1)">
       <use xlink:href="#DejaVuSans-17"/>
       <use xlink:href="#DejaVuSans-13" transform="translate(63.625 0)"/>
      </g>
     </g>
    </g>
    <g id="xtick_13">
     <g id="line2d_39">
      <path d="M 404.797909 371.638594 
L 404.797909 240.241875 
" clip-path="url(#pcdda653289)" style="fill: none; stroke: #b0b0b0; stroke-width: 0.8; stroke-linecap: square"/>
     </g>
     <g id="line2d_40">
      <g>
       <use xlink:href="#m33837b4c57" x="404.797909" y="371.638594" style="stroke: #000000; stroke-width: 0.8"/>
      </g>
     </g>
     <g id="text_21">
      <!-- 50 -->
      <g transform="translate(398.435409 386.23625) scale(0.1 -0.1)">
       <use xlink:href="#DejaVuSans-18"/>
       <use xlink:href="#DejaVuSans-13" transform="translate(63.625 0)"/>
      </g>
     </g>
    </g>
    <g id="xtick_14">
     <g id="line2d_41">
      <path d="M 473.290372 371.638594 
L 473.290372 240.241875 
" clip-path="url(#pcdda653289)" style="fill: none; stroke: #b0b0b0; stroke-width: 0.8; stroke-linecap: square"/>
     </g>
     <g id="line2d_42">
      <g>
       <use xlink:href="#m33837b4c57" x="473.290372" y="371.638594" style="stroke: #000000; stroke-width: 0.8"/>
      </g>
     </g>
     <g id="text_22">
      <!-- 60 -->
      <g transform="translate(466.927872 386.23625) scale(0.1 -0.1)">
       <use xlink:href="#DejaVuSans-19"/>
       <use xlink:href="#DejaVuSans-13" transform="translate(63.625 0)"/>
      </g>
     </g>
    </g>
    <g id="text_23">
     <!-- t (s) -->
     <g transform="translate(257.684531 400.23625) scale(0.1 -0.1)">
      <use xlink:href="#DejaVuSans-57"/>
      <use xlink:href="#DejaVuSans-3" transform="translate(39.203125 0)"/>
      <use xlink:href="#DejaVuSans-b" transform="translate(70.984375 0)"/>
      <use xlink:href="#DejaVuSans-56" transform="translate(110 0)"/>
      <use xlink:href="#DejaVuSans-c" transform="translate(162.09375 0)"/>
     </g>
    </g>
   </g>
   <g id="matplotlib.axis_4">
    <g id="ytick_6">
     <g id="line2d_43">
      <path d="M 42.28 351.567635 
L 493.2 351.567635 
" clip-path="url(#pcdda653289)" style="fill: none; stroke: #b0b0b0; stroke-width: 0.8; stroke-linecap: square"/>
     </g>
     <g id="line2d_44">
      <g>
       <use xlink:href="#m2327e5d802" x="42.28" y="351.567635" style="stroke: #000000; stroke-width: 0.8"/>
      </g>
     </g>
     <g id="text_24">
      <!-- −0.4 -->
      <g transform="translate(10.997188 355.366463) scale(0.1 -0.1)">
       <use xlink:href="#DejaVuSans-c9c"/>
       <use xlink:href="#DejaVuSans-13" transform="translate(83.796875 0)"/>
       <use xlink:href="#DejaVuSans-11" transform="translate(147.421875 0)"/>
       <use xlink:href="#DejaVuSans-17" transform="translate(179.203125 0)"/>
      </g>
     </g>
    </g>
    <g id="ytick_7">
     <g id="line2d_45">
      <path d="M 42.28 328.753948 
L 493.2 328.753948 
" clip-path="url(#pcdda653289)" style="fill: none; stroke: #b0b0b0; stroke-width: 0.8; stroke-linecap: square"/>
     </g>
     <g id="line2d_46">
      <g>
       <use xlink:href="#m2327e5d802" x="42.28" y="328.753948" style="stroke: #000000; stroke-width: 0.8"/>
      </g>
     </g>
     <g id="text_25">
      <!-- −0.2 -->
      <g transform="translate(10.997188 332.552776) scale(0.1 -0.1)">
       <use xlink:href="#DejaVuSans-c9c"/>
       <use xlink:href="#DejaVuSans-13" transform="translate(83.796875 0)"/>
       <use xlink:href="#DejaVuSans-11" transform="translate(147.421875 0)"/>
       <use xlink:href="#DejaVuSans-15" transform="translate(179.203125 0)"/>
      </g>
     </g>
    </g>
    <g id="ytick_8">
     <g id="line2d_47">
      <path d="M 42.28 305.94026 
L 493.2 305.94026 
" clip-path="url(#pcdda653289)" style="fill: none; stroke: #b0b0b0; stroke-width: 0.8; stroke-linecap: square"/>
     </g>
     <g id="line2d_48">
      <g>
       <use xlink:href="#m2327e5d802" x="42.28" y="305.94026" style="stroke: #000000; stroke-width: 0.8"/>
      </g>
     </g>
     <g id="text_26">
      <!-- 0.0 -->
      <g transform="translate(19.376875 309.739088) scale(0.1 -0.1)">
       <use xlink:href="#DejaVuSans-13"/>
       <use xlink:href="#DejaVuSans-11" transform="translate(63.625 0)"/>
       <use xlink:href="#DejaVuSans-13" transform="translate(95.40625 0)"/>
      </g>
     </g>
    </g>
    <g id="ytick_9">
     <g id="line2d_49">
      <path d="M 42.28 283.126573 
L 493.2 283.126573 
" clip-path="url(#pcdda653289)" style="fill: none; stroke: #b0b0b0; stroke-width: 0.8; stroke-linecap: square"/>
     </g>
     <g id="line2d_50">
      <g>
       <use xlink:href="#m2327e5d802" x="42.28" y="283.126573" style="stroke: #000000; stroke-width: 0.8"/>
      </g>
     </g>
     <g id="text_27">
      <!-- 0.2 -->
      <g transform="translate(19.376875 286.925401) scale(0.1 -0.1)">
       <use xlink:href="#DejaVuSans-13"/>
       <use xlink:href="#DejaVuSans-11" transform="translate(63.625 0)"/>
       <use xlink:href="#DejaVuSans-15" transform="translate(95.40625 0)"/>
      </g>
     </g>
    </g>
    <g id="ytick_10">
     <g id="line2d_51">
      <path d="M 42.28 260.312885 
L 493.2 260.312885 
" clip-path="url(#pcdda653289)" style="fill: none; stroke: #b0b0b0; stroke-width: 0.8; stroke-linecap: square"/>
     </g>
     <g id="line2d_52">
      <g>
       <use xlink:href="#m2327e5d802" x="42.28" y="260.312885" style="stroke: #000000; stroke-width: 0.8"/>
      </g>
     </g>
     <g id="text_28">
      <!-- 0.4 -->
      <g transform="translate(19.376875 264.111713) scale(0.1 -0.1)">
       <use xlink:href="#DejaVuSans-13"/>
       <use xlink:href="#DejaVuSans-11" transform="translate(63.625 0)"/>
       <use xlink:href="#DejaVuSans-17" transform="translate(95.40625 0)"/>
      </g>
     </g>
    </g>
   </g>
   <g id="line2d_53">
    <path d="M 62.776364 246.556819 
L 63.256168 246.443253 
L 63.735331 275.161678 
L 64.217579 296.242313 
L 64.694077 300.873045 
L 65.173701 303.232464 
L 65.656106 303.997478 
L 66.135061 304.522368 
L 69.489602 306.21035 
L 70.449539 306.499 
L 70.928169 306.620714 
L 71.887713 306.709442 
L 72.367106 306.440288 
L 73.804044 306.84888 
L 74.285858 306.784703 
L 74.764321 306.898466 
L 75.242348 306.799094 
L 75.721713 306.956729 
L 76.2005 306.867829 
L 76.683004 307.056544 
L 77.162794 306.415845 
L 77.640084 306.88868 
L 78.600131 307.484246 
L 79.080057 307.156072 
L 79.558264 307.277783 
L 80.038102 307.112845 
L 80.518174 307.449308 
L 80.998919 307.245606 
L 81.477692 307.425102 
L 81.955775 307.107776 
L 82.436264 306.421507 
L 82.913697 306.401063 
L 83.392471 306.772815 
L 84.353077 306.585613 
L 84.83108 306.297516 
L 85.312983 306.375832 
L 86.270769 306.402775 
L 86.751012 305.983961 
L 87.707522 306.356541 
L 88.188411 306.430883 
L 88.667618 306.223636 
L 89.625484 306.218786 
L 90.105439 306.418361 
L 90.584729 306.412378 
L 91.064042 306.602822 
L 92.023334 306.484048 
L 93.166654 307.566741 
L 93.623239 307.654343 
L 94.079565 308.746503 
L 94.992706 308.813446 
L 95.449217 310.659677 
L 95.906281 311.333764 
L 96.362962 311.731191 
L 96.819288 312.920726 
L 97.296843 312.4397 
L 97.77676 314.404875 
L 98.256881 314.553488 
L 98.737087 316.561006 
L 99.214823 316.288237 
L 99.694622 317.57643 
L 100.174954 316.838072 
L 100.653256 317.566591 
L 101.132262 316.687414 
L 101.613611 314.337335 
L 102.091255 314.466017 
L 102.571349 316.839932 
L 103.04978 317.45706 
L 103.529485 318.767776 
L 104.01 318.376132 
L 104.970523 315.381607 
L 105.927726 314.98031 
L 106.407682 314.766201 
L 106.88801 315.509896 
L 107.367564 318.359719 
L 107.84756 318.963881 
L 108.324211 320.909942 
L 108.803491 320.467287 
L 109.286077 322.208452 
L 109.762879 321.995468 
L 110.242918 324.602073 
L 110.722609 325.061851 
L 111.202172 326.848579 
L 111.68082 327.241873 
L 112.162241 330.490509 
L 112.639366 329.859372 
L 113.118812 325.139463 
L 113.598111 323.020394 
L 114.080022 321.664156 
L 114.559703 323.032695 
L 115.037037 327.02992 
L 115.515421 327.781779 
L 115.995244 329.425584 
L 116.476868 328.111276 
L 116.956211 328.509108 
L 117.436489 322.332946 
L 117.913504 323.640956 
L 118.393935 324.141003 
L 118.874924 325.946091 
L 119.35378 324.797249 
L 119.833537 324.90664 
L 120.313462 322.985069 
L 120.792564 322.947802 
L 121.269643 321.381475 
L 121.749347 321.797077 
L 122.230207 317.640646 
L 122.708769 319.631185 
L 123.188796 321.084425 
L 123.66638 323.893889 
L 124.146816 324.127555 
L 124.627789 326.515102 
L 125.105629 326.544232 
L 125.584847 328.144541 
L 126.064258 326.642175 
L 126.544254 326.796377 
L 127.022377 324.365277 
L 127.50286 319.65906 
L 127.981535 318.171006 
L 128.460603 319.614623 
L 128.94192 318.723438 
L 129.422879 318.175073 
L 129.900421 315.853031 
L 130.380361 314.806312 
L 130.858819 313.018923 
L 131.338823 312.886531 
L 132.29597 311.229631 
L 132.77717 311.780586 
L 133.257409 314.053163 
L 133.735836 315.0658 
L 134.21594 317.203848 
L 134.695975 317.842753 
L 135.173784 321.370614 
L 135.653898 320.803882 
L 136.133944 320.792438 
L 136.612981 317.373497 
L 137.092889 311.87192 
L 137.570732 310.607616 
L 138.050769 312.676838 
L 138.529169 312.350463 
L 139.010513 311.333847 
L 139.487974 308.864898 
L 139.968561 307.298639 
L 140.448306 306.277716 
L 140.927689 305.887894 
L 142.3645 305.345797 
L 142.84625 305.47464 
L 143.325772 305.927831 
L 144.285991 307.895175 
L 144.766068 309.490554 
L 145.244321 308.752865 
L 145.723932 307.407316 
L 146.20281 306.396535 
L 146.680129 306.52075 
L 147.159302 307.175078 
L 147.640392 308.250842 
L 148.11959 308.178886 
L 148.597639 308.442557 
L 149.077034 308.093676 
L 149.558143 308.811124 
L 150.037525 308.773432 
L 150.516519 309.718731 
L 150.995475 309.464215 
L 151.476903 308.392912 
L 151.955442 309.02161 
L 152.434838 311.882275 
L 152.912388 312.149526 
L 153.394641 312.921243 
L 153.872801 311.788381 
L 154.352236 311.964043 
L 154.83218 310.551612 
L 155.313385 308.649279 
L 156.269512 304.109925 
L 156.749864 303.642581 
L 157.228789 304.194711 
L 157.7086 304.972874 
L 158.669342 310.422373 
L 159.145988 317.009183 
L 159.627007 322.094532 
L 160.107237 331.389225 
L 160.58419 335.231652 
L 161.065961 334.802153 
L 161.542963 336.451251 
L 162.023183 340.945566 
L 162.982642 335.378966 
L 163.459728 328.961024 
L 164.419148 320.482613 
L 165.380648 317.856895 
L 165.860704 314.015296 
L 166.339037 312.058348 
L 166.819491 313.060426 
L 167.296171 313.698926 
L 167.778056 316.233511 
L 168.255386 316.839303 
L 168.734787 319.70448 
L 169.214177 319.916875 
L 169.694194 323.268691 
L 170.175256 323.283491 
L 170.652735 323.091955 
L 171.135257 326.530063 
L 171.61236 334.877013 
L 172.092462 337.603318 
L 172.571969 342.83564 
L 173.051189 342.488527 
L 173.531866 345.974656 
L 174.011395 343.78685 
L 174.489656 343.974868 
L 174.968486 338.35296 
L 175.449353 326.919256 
L 175.925421 323.887433 
L 176.409457 331.978848 
L 177.36602 340.580044 
L 177.846466 338.836122 
L 178.325353 339.100004 
L 178.803457 335.423107 
L 179.284438 335.519705 
L 179.762868 331.232897 
L 180.241866 324.727165 
L 180.720507 323.663626 
L 181.200814 327.75011 
L 181.68073 327.585092 
L 182.161091 328.390079 
L 182.639239 325.444206 
L 183.120462 325.046606 
L 183.598907 322.805901 
L 184.077359 324.376525 
L 184.557426 322.918711 
L 185.035389 319.45579 
L 185.514872 320.733959 
L 186.475599 336.8475 
L 186.953935 348.666933 
L 187.91446 339.247914 
L 188.391772 325.936088 
L 189.353284 314.700916 
L 189.832178 310.873047 
L 190.312511 310.77463 
L 190.789117 312.516526 
L 191.271369 310.505805 
L 192.23002 304.421067 
L 192.708606 302.35692 
L 193.189367 302.104344 
L 193.668204 300.028623 
L 194.147093 299.494744 
L 194.625604 300.189612 
L 195.104449 298.055964 
L 195.584389 290.629729 
L 196.064371 289.694349 
L 196.54176 286.015066 
L 197.02488 288.111995 
L 197.504066 284.725173 
L 197.982718 287.163699 
L 198.462013 286.368922 
L 198.939877 291.987421 
L 199.419527 303.64472 
L 199.900006 306.930958 
L 200.378894 300.615583 
L 200.858355 297.407436 
L 201.336177 296.79673 
L 201.816886 299.482427 
L 202.29636 300.587634 
L 202.777256 300.882452 
L 203.255892 299.09745 
L 203.733998 299.368454 
L 204.215488 300.963185 
L 204.693424 298.886039 
L 205.1752 290.989736 
L 205.651777 287.156683 
L 206.131883 279.398504 
L 206.613167 277.024313 
L 207.093178 268.325051 
L 207.57323 264.517517 
L 208.051078 254.285033 
L 208.531431 252.569544 
L 209.008441 261.554432 
L 209.490056 260.603496 
L 209.966701 251.687506 
L 210.448181 251.978914 
L 210.92657 250.757632 
L 211.405659 257.404093 
L 211.88428 261.65244 
L 212.364744 268.595955 
L 212.846279 272.27204 
L 213.324195 277.626567 
L 213.804008 273.185099 
L 214.284953 265.191574 
L 214.76479 252.449187 
L 215.244307 252.358823 
L 215.720894 250.815936 
L 216.20236 255.3137 
L 216.680888 253.368937 
L 217.638816 265.580974 
L 218.120386 277.813141 
L 218.598164 293.518837 
L 219.077257 298.360424 
L 219.555269 295.664154 
L 220.038862 295.541751 
L 220.517918 295.894233 
L 220.99571 298.724261 
L 221.957054 302.986732 
L 222.435325 303.880843 
L 223.391796 304.98081 
L 223.871033 305.014302 
L 224.830017 303.099879 
L 225.790438 298.604442 
L 226.749229 291.333574 
L 227.230557 284.6662 
L 227.70854 280.521127 
L 228.187529 281.487133 
L 228.667887 282.042382 
L 229.145368 279.744257 
L 229.624656 284.86135 
L 230.105451 288.116902 
L 230.583357 294.529462 
L 231.544056 300.175045 
L 232.02472 301.283703 
L 232.502987 303.064309 
L 232.982593 305.611473 
L 234.4188 310.29638 
L 234.898541 312.922331 
L 235.379911 314.597074 
L 235.859134 317.449745 
L 236.337487 317.966652 
L 236.816106 321.888292 
L 237.296106 322.966689 
L 237.776339 321.207111 
L 238.253935 322.831258 
L 238.735308 328.368243 
L 239.215913 327.929837 
L 239.694673 326.503972 
L 240.653449 316.548347 
L 241.131186 324.337672 
L 241.61191 341.962893 
L 242.089948 347.747158 
L 243.052199 333.407844 
L 243.531389 329.972094 
L 244.489297 311.398271 
L 245.449008 291.742156 
L 245.926812 285.855952 
L 246.407002 277.760982 
L 246.887167 273.852742 
L 247.365687 271.080848 
L 247.843277 266.041364 
L 248.326159 254.392722 
L 248.803562 254.255945 
L 249.284479 254.865007 
L 250.722853 287.149617 
L 251.199631 288.738261 
L 251.679025 280.859357 
L 252.160091 275.480218 
L 252.638149 274.248461 
L 253.11855 271.764127 
L 254.55912 295.896705 
L 255.038117 300.157916 
L 255.517622 303.093351 
L 256.473944 306.371663 
L 257.913095 315.315705 
L 258.392468 316.214672 
L 258.872318 317.786264 
L 259.350089 316.658725 
L 259.830901 315.999486 
L 260.312902 312.787891 
L 260.788752 308.300281 
L 261.27028 302.075359 
L 261.747626 304.933911 
L 262.228239 309.566185 
L 262.707398 312.484121 
L 263.18538 311.51779 
L 264.626303 305.650913 
L 266.541453 301.87812 
L 267.024421 300.646381 
L 267.499916 298.063679 
L 267.981208 297.039408 
L 268.462393 295.205705 
L 268.942123 295.116232 
L 269.42194 293.324662 
L 269.898992 294.256405 
L 270.379753 293.436377 
L 270.8578 295.442595 
L 271.336535 299.674979 
L 271.818517 293.5714 
L 272.295512 272.243877 
L 272.775572 268.939137 
L 273.256487 273.900108 
L 273.735009 289.398602 
L 274.212341 299.291742 
L 274.69357 304.049597 
L 275.653785 306.163438 
L 276.130123 312.477441 
L 276.612091 323.126948 
L 277.093055 339.692121 
L 277.569074 361.427959 
L 278.050711 365.666016 
L 278.530698 364.327727 
L 279.008287 365.238352 
L 279.488544 361.163455 
L 279.967915 364.94528 
L 280.446407 363.364011 
L 280.925794 356.553588 
L 281.406338 357.106441 
L 281.88761 365.661952 
L 282.845637 365.660802 
L 283.323223 362.921999 
L 283.804954 365.643445 
L 284.281741 364.222437 
L 284.761005 365.358106 
L 285.240721 349.936185 
L 285.722078 311.13786 
L 286.201938 294.823788 
L 286.680147 295.500274 
L 287.160873 301.248716 
L 287.637286 300.802768 
L 288.117995 296.720998 
L 288.598704 287.576393 
L 289.077371 282.859241 
L 289.55868 275.864189 
L 290.037027 275.653889 
L 290.515992 282.561421 
L 290.993073 285.640055 
L 291.473884 285.636615 
L 291.95324 297.064058 
L 292.43378 296.735213 
L 292.914394 284.73546 
L 293.392051 269.570018 
L 293.871697 270.296485 
L 294.350355 274.475649 
L 295.310694 303.005088 
L 295.78838 306.072533 
L 296.269854 301.99357 
L 296.747517 300.632862 
L 297.227183 302.926892 
L 298.666666 313.488038 
L 299.146569 318.565635 
L 300.104744 327.01572 
L 300.582673 336.538826 
L 301.062594 363.705313 
L 301.545137 365.662595 
L 302.023785 364.185143 
L 302.501341 352.710712 
L 302.981089 352.825634 
L 303.462905 354.981052 
L 303.939903 364.248323 
L 304.41977 363.899277 
L 304.897405 353.170942 
L 305.378035 352.419768 
L 305.857025 363.759075 
L 306.335895 365.606985 
L 307.296191 365.628789 
L 307.777823 365.664015 
L 308.255593 364.907845 
L 308.733917 363.767475 
L 309.214842 345.980821 
L 309.692299 309.28328 
L 310.174214 297.073938 
L 311.130339 313.590957 
L 311.609214 314.715838 
L 312.571762 304.908658 
L 313.049221 303.540575 
L 314.007325 298.803807 
L 314.488427 289.451417 
L 314.968392 263.701778 
L 315.44626 246.214453 
L 315.927007 246.26671 
L 316.407677 251.56414 
L 316.884711 264.444408 
L 317.363736 260.056319 
L 317.843034 257.927339 
L 318.322407 250.507597 
L 318.802125 254.223079 
L 319.280862 268.004496 
L 319.76398 265.057749 
L 320.239683 246.229719 
L 323.597452 246.22315 
L 324.558161 259.034572 
L 325.0346 263.768297 
L 325.994466 284.425699 
L 326.473963 293.323504 
L 327.434069 305.231453 
L 327.912491 309.280707 
L 328.392614 311.014037 
L 328.870146 311.17856 
L 329.349933 311.220957 
L 329.830936 311.640777 
L 330.309239 310.70233 
L 330.787705 309.421392 
L 331.268897 306.953416 
L 332.229356 299.876063 
L 333.18659 288.998838 
L 334.145793 292.836848 
L 334.625578 292.295982 
L 335.10306 292.872111 
L 335.582773 292.14141 
L 336.06407 293.182262 
L 336.541634 293.088569 
L 337.020726 294.549433 
L 337.502545 294.326824 
L 337.980155 296.142414 
L 338.459453 298.467802 
L 338.938438 298.621367 
L 339.419823 296.640285 
L 339.89698 296.477715 
L 340.376645 295.92162 
L 340.857076 296.936433 
L 341.336828 296.861088 
L 341.818096 297.758044 
L 342.294881 297.341869 
L 342.775581 297.956334 
L 343.254049 299.058929 
L 343.732493 298.688843 
L 344.212046 296.43604 
L 344.69179 295.962033 
L 345.171073 294.648116 
L 345.651179 294.687312 
L 346.131078 292.804535 
L 346.610997 293.153686 
L 347.570478 281.149158 
L 348.048931 284.379828 
L 348.530048 286.507901 
L 349.008378 283.849286 
L 349.488518 289.14113 
L 349.966436 293.148328 
L 350.444726 299.041752 
L 351.405581 302.703712 
L 351.88293 303.646139 
L 353.322291 308.441396 
L 353.804432 311.29282 
L 354.283486 312.052784 
L 354.760521 315.504129 
L 355.241804 316.246199 
L 355.720113 321.075481 
L 356.199447 322.728717 
L 356.679191 329.562959 
L 357.159601 332.282505 
L 357.639058 329.910443 
L 358.117808 331.623877 
L 358.595921 344.712705 
L 359.076986 345.825015 
L 359.553996 346.559852 
L 360.513386 322.389661 
L 360.993268 317.028185 
L 361.474694 325.539467 
L 361.952055 331.050425 
L 362.433799 331.573583 
L 362.912705 335.026491 
L 363.394229 343.824688 
L 363.873831 345.632377 
L 364.353298 349.737433 
L 364.829059 347.325413 
L 365.311175 347.746216 
L 365.790578 343.569033 
L 366.268753 342.039699 
L 366.748374 337.218666 
L 367.228618 328.852212 
L 367.704818 325.558445 
L 368.184671 325.701399 
L 368.666068 323.810448 
L 369.143163 322.757918 
L 369.624372 320.478541 
L 370.104271 319.252059 
L 370.582729 317.606491 
L 372.022616 315.9764 
L 372.500811 317.045429 
L 373.45954 323.04039 
L 373.937445 328.449771 
L 374.418642 331.570122 
L 374.897837 332.809692 
L 375.377084 331.159731 
L 375.856522 331.888288 
L 376.335936 330.898259 
L 376.814756 328.805603 
L 377.296706 328.99428 
L 377.774172 332.094725 
L 378.252485 332.512776 
L 378.733896 334.227712 
L 379.212347 333.275871 
L 379.693665 333.636973 
L 380.171164 331.720229 
L 380.651723 331.166276 
L 381.12924 328.718506 
L 381.609784 324.33445 
L 382.090505 322.621751 
L 382.568095 323.286854 
L 383.049606 322.542272 
L 383.528489 322.899592 
L 384.007667 321.823713 
L 384.485814 322.039467 
L 384.965066 321.109333 
L 385.444469 321.648412 
L 385.924294 321.052197 
L 386.404535 319.936854 
L 386.884421 320.364213 
L 387.364829 323.00889 
L 387.843326 323.879382 
L 388.322097 325.186096 
L 388.800466 324.174448 
L 389.280685 324.845532 
L 389.761796 324.33459 
L 390.238472 325.707817 
L 390.718863 325.401041 
L 391.200237 323.838818 
L 391.678651 323.84432 
L 392.157972 326.070924 
L 392.638207 325.839324 
L 393.117767 326.44272 
L 393.594898 324.651451 
L 394.075071 324.550916 
L 394.554772 321.789873 
L 395.035315 320.668255 
L 395.514281 317.530311 
L 395.994879 313.204738 
L 396.4741 311.924878 
L 396.95252 313.441948 
L 397.430772 313.189446 
L 397.91213 313.811223 
L 398.390359 312.703164 
L 398.872542 313.191291 
L 399.348434 312.185561 
L 399.829518 313.357909 
L 400.309439 312.726775 
L 400.786199 311.324047 
L 401.26823 312.697332 
L 401.748944 316.795342 
L 402.226804 318.864332 
L 402.704688 321.671269 
L 403.186749 319.043294 
L 403.66606 318.308756 
L 404.143066 314.865571 
L 404.625355 314.705034 
L 405.102785 312.856636 
L 405.582331 309.742556 
L 406.063213 309.370408 
L 406.539809 311.303682 
L 407.022264 310.690654 
L 407.503044 309.533552 
L 407.980173 307.551281 
L 408.458831 306.713563 
L 408.938414 306.320745 
L 409.416299 306.222617 
L 409.897146 305.9401 
L 410.376955 305.481773 
L 411.336039 304.86609 
L 411.815018 304.998671 
L 412.293891 304.995771 
L 414.215185 306.108996 
L 416.130076 307.425799 
L 416.609452 307.053896 
L 417.08989 307.039798 
L 417.568917 306.839931 
L 418.049782 307.022142 
L 418.52907 306.830427 
L 419.006071 306.841386 
L 419.966576 306.249593 
L 420.443503 306.311372 
L 420.925838 306.657361 
L 421.885389 306.302019 
L 422.366574 306.075194 
L 423.322094 306.123734 
L 424.280398 305.966391 
L 425.240797 305.870905 
L 428.598353 305.849994 
L 429.077497 306.035223 
L 430.513858 305.830919 
L 431.952311 305.931427 
L 433.389327 305.906507 
L 436.747541 305.924142 
L 446.815374 305.929814 
L 464.073613 306.088769 
L 466.474397 306.359824 
L 468.391239 306.757935 
L 468.871613 307.116152 
L 470.3073 306.573549 
L 472.226282 305.831763 
L 472.703636 305.774665 
L 472.703636 305.774665 
" clip-path="url(#pcdda653289)" style="fill: none; stroke: #1f77b4; stroke-width: 1.5; stroke-linecap: square"/>
   </g>
   <g id="line2d_54">
    <path d="M 42.28 365.666494 
L 493.2 365.666494 
" clip-path="url(#pcdda653289)" style="fill: none; stroke-dasharray: 3.7,1.6; stroke-dashoffset: 0; stroke: #ff0000"/>
   </g>
   <g id="line2d_55">
    <path d="M 42.28 246.214026 
L 493.2 246.214026 
" clip-path="url(#pcdda653289)" style="fill: none; stroke-dasharray: 3.7,1.6; stroke-dashoffset: 0; stroke: #ff0000"/>
   </g>
   <g id="patch_9">
    <path d="M 42.28 371.638594 
L 42.28 240.241875 
" style="fill: none; stroke: #000000; stroke-width: 0.8; stroke-linejoin: miter; stroke-linecap: square"/>
   </g>
   <g id="patch_10">
    <path d="M 493.2 371.638594 
L 493.2 240.241875 
" style="fill: none; stroke: #000000; stroke-width: 0.8; stroke-linejoin: miter; stroke-linecap: square"/>
   </g>
   <g id="patch_11">
    <path d="M 42.28 371.638594 
L 493.2 371.638594 
" style="fill: none; stroke: #000000; stroke-width: 0.8; stroke-linejoin: miter; stroke-linecap: square"/>
   </g>
   <g id="patch_12">
    <path d="M 42.28 240.241875 
L 493.2 240.241875 
" style="fill: none; stroke: #000000; stroke-width: 0.8; stroke-linejoin: miter; stroke-linecap: square"/>
   </g>
   <g id="text_29">
    <!-- $\delta_{cmd}$ (rad) -->
    <g transform="translate(238.28 234.241875) scale(0.12 -0.12)">
     <defs>
      <path id="DejaVuSans-Oblique-348" d="M 3472 4053 
Q 3197 4272 2450 4272 
Q 1659 4272 1588 3906 
Q 1531 3619 2328 3469 
Q 2953 3353 3253 3003 
Q 3616 2581 3447 1716 
Q 3284 888 2763 400 
Q 2238 -91 1488 -91 
Q 741 -91 406 400 
Q 72 888 241 1747 
Q 363 2384 891 2900 
Q 1097 3100 1353 3213 
Q 913 3459 1000 3900 
Q 1166 4750 2544 4750 
Q 3234 4750 3566 4531 
L 3472 4053 
z
M 1753 3056 
Q 1525 2966 1306 2738 
Q 969 2384 847 1747 
Q 722 1113 919 756 
Q 1119 397 1584 397 
Q 2044 397 2381 759 
Q 2722 1122 2838 1716 
Q 2956 2338 2731 2638 
Q 2491 2959 2103 2994 
Q 1906 3013 1753 3056 
z
" transform="scale(0.015625)"/>
      <path id="DejaVuSans-55" d="M 2631 2963 
Q 2534 3019 2420 3045 
Q 2306 3072 2169 3072 
Q 1681 3072 1420 2755 
Q 1159 2438 1159 1844 
L 1159 0 
L 581 0 
L 581 3500 
L 1159 3500 
L 1159 2956 
Q 1341 3275 1631 3429 
Q 1922 3584 2338 3584 
Q 2397 3584 2469 3576 
Q 2541 3569 2628 3553 
L 2631 2963 
z
" transform="scale(0.015625)"/>
      <path id="DejaVuSans-44" d="M 2194 1759 
Q 1497 1759 1228 1600 
Q 959 1441 959 1056 
Q 959 750 1161 570 
Q 1363 391 1709 391 
Q 2188 391 2477 730 
Q 2766 1069 2766 1631 
L 2766 1759 
L 2194 1759 
z
M 3341 1997 
L 3341 0 
L 2766 0 
L 2766 531 
Q 2569 213 2275 61 
Q 1981 -91 1556 -91 
Q 1019 -91 701 211 
Q 384 513 384 1019 
Q 384 1609 779 1909 
Q 1175 2209 1959 2209 
L 2766 2209 
L 2766 2266 
Q 2766 2663 2505 2880 
Q 2244 3097 1772 3097 
Q 1472 3097 1187 3025 
Q 903 2953 641 2809 
L 641 3341 
Q 956 3463 1253 3523 
Q 1550 3584 1831 3584 
Q 2591 3584 2966 3190 
Q 3341 2797 3341 1997 
z
" transform="scale(0.015625)"/>
      <path id="DejaVuSans-47" d="M 2906 2969 
L 2906 4863 
L 3481 4863 
L 3481 0 
L 2906 0 
L 2906 525 
Q 2725 213 2448 61 
Q 2172 -91 1784 -91 
Q 1150 -91 751 415 
Q 353 922 353 1747 
Q 353 2572 751 3078 
Q 1150 3584 1784 3584 
Q 2172 3584 2448 3432 
Q 2725 3281 2906 2969 
z
M 947 1747 
Q 947 1113 1208 752 
Q 1469 391 1925 391 
Q 2381 391 2643 752 
Q 2906 1113 2906 1747 
Q 2906 2381 2643 2742 
Q 2381 3103 1925 3103 
Q 1469 3103 1208 2742 
Q 947 2381 947 1747 
z
" transform="scale(0.015625)"/>
     </defs>
     <use xlink:href="#DejaVuSans-Oblique-348" transform="translate(0 0.015625)"/>
     <use xlink:href="#DejaVuSans-Oblique-46" transform="translate(61.181641 -14.984326) scale(0.7)"/>
     <use xlink:href="#DejaVuSans-Oblique-50" transform="translate(99.667969 -14.984326) scale(0.7)"/>
     <use xlink:href="#DejaVuSans-Oblique-47" transform="translate(167.856445 -14.984326) scale(0.7)"/>
     <use xlink:href="#DejaVuSans-3" transform="translate(215.024414 0.015625)"/>
     <use xlink:href="#DejaVuSans-b" transform="translate(246.811523 0.015625)"/>
     <use xlink:href="#DejaVuSans-55" transform="translate(285.825195 0.015625)"/>
     <use xlink:href="#DejaVuSans-44" transform="translate(326.938477 0.015625)"/>
     <use xlink:href="#DejaVuSans-47" transform="translate(388.217773 0.015625)"/>
     <use xlink:href="#DejaVuSans-c" transform="translate(451.694336 0.015625)"/>
    </g>
   </g>
   <g id="legend_2">
    <g id="patch_13">
     <path d="M 432.6 263.242656 
L 486.2 263.242656 
Q 488.2 263.242656 488.2 261.242656 
L 488.2 247.241875 
Q 488.2 245.241875 486.2 245.241875 
L 432.6 245.241875 
Q 430.6 245.241875 430.6 247.241875 
L 430.6 261.242656 
Q 430.6 263.242656 432.6 263.242656 
z
" style="fill: #ffffff; opacity: 0.8; stroke: #cccccc; stroke-linejoin: miter"/>
    </g>
    <g id="line2d_56">
     <path d="M 434.6 253.340312 
L 444.6 253.340312 
L 454.6 253.340312 
" style="fill: none; stroke: #1f77b4; stroke-width: 1.5; stroke-linecap: square"/>
    </g>
    <g id="text_30">
     <!-- $\delta_{cmd}$ -->
     <g transform="translate(462.6 256.840312) scale(0.1 -0.1)">
      <use xlink:href="#DejaVuSans-Oblique-348" transform="translate(0 0.78125)"/>
      <use xlink:href="#DejaVuSans-Oblique-46" transform="translate(61.181641 -14.218701) scale(0.7)"/>
      <use xlink:href="#DejaVuSans-Oblique-50" transform="translate(99.667969 -14.218701) scale(0.7)"/>
      <use xlink:href="#DejaVuSans-Oblique-47" transform="translate(167.856445 -14.218701) scale(0.7)"/>
     </g>
    </g>
   </g>
  </g>
  <g id="axes_3">
   <g id="patch_14">
    <path d="M 42.28 562.677656 
L 493.2 562.677656 
L 493.2 431.280937 
L 42.28 431.280937 
z
" style="fill: #ffffff"/>
   </g>
   <g id="matplotlib.axis_5">
    <g id="xtick_15">
     <g id="line2d_57">
      <path d="M 62.33559 562.677656 
L 62.33559 431.280937 
" clip-path="url(#p9f0e65acf2)" style="fill: none; stroke: #b0b0b0; stroke-width: 0.8; stroke-linecap: square"/>
     </g>
     <g id="line2d_58">
      <g>
       <use xlink:href="#m33837b4c57" x="62.33559" y="562.677656" style="stroke: #000000; stroke-width: 0.8"/>
      </g>
     </g>
     <g id="text_31">
      <!-- 0 -->
      <g transform="translate(59.15434 577.275312) scale(0.1 -0.1)">
       <use xlink:href="#DejaVuSans-13"/>
      </g>
     </g>
    </g>
    <g id="xtick_16">
     <g id="line2d_59">
      <path d="M 130.828054 562.677656 
L 130.828054 431.280937 
" clip-path="url(#p9f0e65acf2)" style="fill: none; stroke: #b0b0b0; stroke-width: 0.8; stroke-linecap: square"/>
     </g>
     <g id="line2d_60">
      <g>
       <use xlink:href="#m33837b4c57" x="130.828054" y="562.677656" style="stroke: #000000; stroke-width: 0.8"/>
      </g>
     </g>
     <g id="text_32">
      <!-- 10 -->
      <g transform="translate(124.465554 577.275312) scale(0.1 -0.1)">
       <use xlink:href="#DejaVuSans-14"/>
       <use xlink:href="#DejaVuSans-13" transform="translate(63.625 0)"/>
      </g>
     </g>
    </g>
    <g id="xtick_17">
     <g id="line2d_61">
      <path d="M 199.320517 562.677656 
L 199.320517 431.280937 
" clip-path="url(#p9f0e65acf2)" style="fill: none; stroke: #b0b0b0; stroke-width: 0.8; stroke-linecap: square"/>
     </g>
     <g id="line2d_62">
      <g>
       <use xlink:href="#m33837b4c57" x="199.320517" y="562.677656" style="stroke: #000000; stroke-width: 0.8"/>
      </g>
     </g>
     <g id="text_33">
      <!-- 20 -->
      <g transform="translate(192.958017 577.275312) scale(0.1 -0.1)">
       <use xlink:href="#DejaVuSans-15"/>
       <use xlink:href="#DejaVuSans-13" transform="translate(63.625 0)"/>
      </g>
     </g>
    </g>
    <g id="xtick_18">
     <g id="line2d_63">
      <path d="M 267.812981 562.677656 
L 267.812981 431.280937 
" clip-path="url(#p9f0e65acf2)" style="fill: none; stroke: #b0b0b0; stroke-width: 0.8; stroke-linecap: square"/>
     </g>
     <g id="line2d_64">
      <g>
       <use xlink:href="#m33837b4c57" x="267.812981" y="562.677656" style="stroke: #000000; stroke-width: 0.8"/>
      </g>
     </g>
     <g id="text_34">
      <!-- 30 -->
      <g transform="translate(261.450481 577.275312) scale(0.1 -0.1)">
       <use xlink:href="#DejaVuSans-16"/>
       <use xlink:href="#DejaVuSans-13" transform="translate(63.625 0)"/>
      </g>
     </g>
    </g>
    <g id="xtick_19">
     <g id="line2d_65">
      <path d="M 336.305445 562.677656 
L 336.305445 431.280937 
" clip-path="url(#p9f0e65acf2)" style="fill: none; stroke: #b0b0b0; stroke-width: 0.8; stroke-linecap: square"/>
     </g>
     <g id="line2d_66">
      <g>
       <use xlink:href="#m33837b4c57" x="336.305445" y="562.677656" style="stroke: #000000; stroke-width: 0.8"/>
      </g>
     </g>
     <g id="text_35">
      <!-- 40 -->
      <g transform="translate(329.942945 577.275312) scale(0.1 -0.1)">
       <use xlink:href="#DejaVuSans-17"/>
       <use xlink:href="#DejaVuSans-13" transform="translate(63.625 0)"/>
      </g>
     </g>
    </g>
    <g id="xtick_20">
     <g id="line2d_67">
      <path d="M 404.797909 562.677656 
L 404.797909 431.280937 
" clip-path="url(#p9f0e65acf2)" style="fill: none; stroke: #b0b0b0; stroke-width: 0.8; stroke-linecap: square"/>
     </g>
     <g id="line2d_68">
      <g>
       <use xlink:href="#m33837b4c57" x="404.797909" y="562.677656" style="stroke: #000000; stroke-width: 0.8"/>
      </g>
     </g>
     <g id="text_36">
      <!-- 50 -->
      <g transform="translate(398.435409 577.275312) scale(0.1 -0.1)">
       <use xlink:href="#DejaVuSans-18"/>
       <use xlink:href="#DejaVuSans-13" transform="translate(63.625 0)"/>
      </g>
     </g>
    </g>
    <g id="xtick_21">
     <g id="line2d_69">
      <path d="M 473.290372 562.677656 
L 473.290372 431.280937 
" clip-path="url(#p9f0e65acf2)" style="fill: none; stroke: #b0b0b0; stroke-width: 0.8; stroke-linecap: square"/>
     </g>
     <g id="line2d_70">
      <g>
       <use xlink:href="#m33837b4c57" x="473.290372" y="562.677656" style="stroke: #000000; stroke-width: 0.8"/>
      </g>
     </g>
     <g id="text_37">
      <!-- 60 -->
      <g transform="translate(466.927872 577.275312) scale(0.1 -0.1)">
       <use xlink:href="#DejaVuSans-19"/>
       <use xlink:href="#DejaVuSans-13" transform="translate(63.625 0)"/>
      </g>
     </g>
    </g>
    <g id="text_38">
     <!-- t (s) -->
     <g transform="translate(257.684531 591.275312) scale(0.1 -0.1)">
      <use xlink:href="#DejaVuSans-57"/>
      <use xlink:href="#DejaVuSans-3" transform="translate(39.203125 0)"/>
      <use xlink:href="#DejaVuSans-b" transform="translate(70.984375 0)"/>
      <use xlink:href="#DejaVuSans-56" transform="translate(110 0)"/>
      <use xlink:href="#DejaVuSans-c" transform="translate(162.09375 0)"/>
     </g>
    </g>
   </g>
   <g id="matplotlib.axis_6">
    <g id="ytick_11">
     <g id="line2d_71">
      <path d="M 42.28 536.796594 
L 493.2 536.796594 
" clip-path="url(#p9f0e65acf2)" style="fill: none; stroke: #b0b0b0; stroke-width: 0.8; stroke-linecap: square"/>
     </g>
     <g id="line2d_72">
      <g>
       <use xlink:href="#m2327e5d802" x="42.28" y="536.796594" style="stroke: #000000; stroke-width: 0.8"/>
      </g>
     </g>
     <g id="text_39">
      <!-- −0.2 -->
      <g transform="translate(10.997188 540.595422) scale(0.1 -0.1)">
       <use xlink:href="#DejaVuSans-c9c"/>
       <use xlink:href="#DejaVuSans-13" transform="translate(83.796875 0)"/>
       <use xlink:href="#DejaVuSans-11" transform="translate(147.421875 0)"/>
       <use xlink:href="#DejaVuSans-15" transform="translate(179.203125 0)"/>
      </g>
     </g>
    </g>
    <g id="ytick_12">
     <g id="line2d_73">
      <path d="M 42.28 496.979352 
L 493.2 496.979352 
" clip-path="url(#p9f0e65acf2)" style="fill: none; stroke: #b0b0b0; stroke-width: 0.8; stroke-linecap: square"/>
     </g>
     <g id="line2d_74">
      <g>
       <use xlink:href="#m2327e5d802" x="42.28" y="496.979352" style="stroke: #000000; stroke-width: 0.8"/>
      </g>
     </g>
     <g id="text_40">
      <!-- 0.0 -->
      <g transform="translate(19.376875 500.77818) scale(0.1 -0.1)">
       <use xlink:href="#DejaVuSans-13"/>
       <use xlink:href="#DejaVuSans-11" transform="translate(63.625 0)"/>
       <use xlink:href="#DejaVuSans-13" transform="translate(95.40625 0)"/>
      </g>
     </g>
    </g>
    <g id="ytick_13">
     <g id="line2d_75">
      <path d="M 42.28 457.162111 
L 493.2 457.162111 
" clip-path="url(#p9f0e65acf2)" style="fill: none; stroke: #b0b0b0; stroke-width: 0.8; stroke-linecap: square"/>
     </g>
     <g id="line2d_76">
      <g>
       <use xlink:href="#m2327e5d802" x="42.28" y="457.162111" style="stroke: #000000; stroke-width: 0.8"/>
      </g>
     </g>
     <g id="text_41">
      <!-- 0.2 -->
      <g transform="translate(19.376875 460.960939) scale(0.1 -0.1)">
       <use xlink:href="#DejaVuSans-13"/>
       <use xlink:href="#DejaVuSans-11" transform="translate(63.625 0)"/>
       <use xlink:href="#DejaVuSans-15" transform="translate(95.40625 0)"/>
      </g>
     </g>
    </g>
   </g>
   <g id="line2d_77">
    <path d="M 62.776364 437.253756 
L 87.707522 437.25381 
L 88.188411 452.532794 
L 88.667618 463.774559 
L 89.146667 472.153622 
L 90.105439 483.054776 
L 90.584729 486.636405 
L 91.542748 490.85197 
L 92.023334 491.281329 
L 93.166654 494.665948 
L 94.536029 496.425523 
L 94.992706 496.63588 
L 95.449217 496.118942 
L 95.906281 497.279909 
L 96.362962 556.690063 
L 100.653256 556.704751 
L 104.970523 556.690261 
L 106.88801 441.771934 
L 107.367564 437.256167 
L 109.762879 437.263435 
L 110.242918 437.660132 
L 111.68082 533.797845 
L 112.162241 540.817574 
L 112.639366 556.473499 
L 113.118812 556.699447 
L 113.598111 556.644838 
L 114.080022 541.800524 
L 114.559703 541.287189 
L 115.037037 518.192441 
L 115.515421 514.354163 
L 115.995244 490.04408 
L 116.476868 487.880202 
L 116.956211 467.074231 
L 117.436489 503.037023 
L 117.913504 485.507455 
L 118.393935 488.66171 
L 118.874924 471.207489 
L 119.35378 476.233584 
L 119.833537 461.393272 
L 120.313462 469.767624 
L 120.792564 458.348039 
L 121.269643 470.341381 
L 121.749347 462.010137 
L 122.230207 515.261647 
L 122.708769 506.86971 
L 123.188796 517.29828 
L 123.66638 502.769085 
L 124.146816 508.317303 
L 124.627789 493.389717 
L 125.105629 500.743744 
L 125.584847 484.594905 
L 126.064258 489.362417 
L 126.544254 470.321967 
L 127.022377 474.827884 
L 127.50286 493.136097 
L 127.981535 497.124947 
L 128.460603 473.958126 
L 128.94192 475.328521 
L 129.422879 451.532027 
L 129.900421 455.476467 
L 130.380361 437.302336 
L 130.858819 444.184763 
L 131.338823 437.263901 
L 131.817372 444.665525 
L 132.29597 479.296267 
L 132.77717 496.363044 
L 133.257409 484.431205 
L 133.735836 496.713976 
L 134.21594 480.812097 
L 134.695975 490.823686 
L 135.173784 463.810056 
L 135.653898 465.359767 
L 136.133944 437.29594 
L 136.612981 441.979011 
L 137.092889 468.574038 
L 137.570732 478.970962 
L 138.050769 456.466951 
L 138.529169 467.662438 
L 139.010513 450.698835 
L 139.487974 465.472725 
L 139.968561 456.020169 
L 140.448306 468.549633 
L 140.927689 462.590457 
L 141.408769 471.002872 
L 141.886306 488.162168 
L 142.3645 498.820749 
L 142.84625 483.586958 
L 143.325772 487.848947 
L 143.804248 487.926054 
L 144.285991 490.305843 
L 144.766068 486.851208 
L 145.244321 494.533603 
L 145.723932 491.857737 
L 146.20281 496.79565 
L 146.680129 496.467215 
L 147.159302 496.695275 
L 147.640392 496.748236 
L 148.11959 493.411822 
L 148.597639 496.980741 
L 149.077034 490.313366 
L 149.558143 496.980611 
L 152.912388 496.982457 
L 153.394641 496.401013 
L 153.872801 496.983633 
L 154.352236 496.981007 
L 154.83218 501.62917 
L 155.313385 504.437581 
L 155.790528 556.702184 
L 163.940098 556.698069 
L 164.419148 554.996681 
L 164.899049 521.867238 
L 165.380648 517.306599 
L 165.860704 487.698964 
L 166.339037 441.250048 
L 166.819491 437.254842 
L 170.652735 437.26376 
L 171.61236 472.380375 
L 172.092462 507.453974 
L 172.571969 518.160164 
L 173.051189 542.142697 
L 173.531866 535.224313 
L 174.011395 542.216953 
L 174.489656 519.07405 
L 174.968486 517.190842 
L 175.449353 528.537826 
L 175.925421 529.71041 
L 176.409457 505.477561 
L 176.884881 503.129873 
L 177.36602 476.084297 
L 177.846466 473.388897 
L 178.325353 447.880625 
L 178.803457 447.790979 
L 179.284438 437.260644 
L 179.762868 437.359398 
L 180.241866 463.206434 
L 180.720507 475.95134 
L 181.200814 459.820463 
L 181.68073 470.914869 
L 182.161091 454.673745 
L 182.639239 466.918584 
L 183.120462 452.089043 
L 183.598907 464.299805 
L 184.077359 452.667298 
L 184.557426 469.288401 
L 185.035389 503.549807 
L 185.514872 516.860714 
L 185.994564 495.256963 
L 186.475599 491.425391 
L 186.953935 438.140299 
L 187.432786 437.260716 
L 189.832178 437.260529 
L 190.312511 438.571586 
L 191.271369 464.506294 
L 192.23002 478.905604 
L 192.708606 483.544653 
L 193.189367 486.866544 
L 193.668204 480.991354 
L 194.147093 493.214825 
L 195.104449 494.7514 
L 195.584389 494.439861 
L 196.54176 496.471373 
L 197.02488 496.461177 
L 197.504066 495.707692 
L 197.982718 496.327256 
L 198.462013 496.344085 
L 198.939877 495.30207 
L 199.419527 496.160282 
L 200.858355 496.874366 
L 201.336177 496.583345 
L 201.816886 508.137655 
L 202.29636 511.536426 
L 202.777256 540.6785 
L 203.255892 552.364017 
L 203.733998 556.702757 
L 210.448181 556.702351 
L 210.92657 553.411861 
L 211.405659 528.66521 
L 211.88428 482.394171 
L 212.364744 466.968187 
L 212.846279 443.00003 
L 213.324195 453.46341 
L 213.804008 490.58448 
L 214.284953 507.735316 
L 214.76479 498.113149 
L 215.244307 501.063218 
L 215.720894 468.113835 
L 216.20236 460.113948 
L 216.680888 437.257035 
L 218.598164 437.257104 
L 219.077257 437.404756 
L 219.555269 437.261953 
L 220.038862 438.872663 
L 220.517918 437.842509 
L 220.99571 463.294557 
L 221.474927 470.134167 
L 221.957054 502.450195 
L 222.435325 511.109481 
L 222.91355 540.934607 
L 223.391796 556.701906 
L 225.790438 556.699952 
L 226.26902 544.947751 
L 226.749229 524.105989 
L 227.230557 471.379943 
L 227.70854 448.89732 
L 228.187529 437.329545 
L 229.145368 437.254643 
L 232.982593 437.26314 
L 233.461906 454.555719 
L 233.941991 463.295752 
L 234.4188 501.944836 
L 234.898541 516.071385 
L 235.379911 552.611049 
L 235.859134 556.643502 
L 236.816106 556.701467 
L 239.694673 556.646861 
L 240.174771 550.948155 
L 240.653449 506.994866 
L 241.131186 507.795954 
L 241.61191 491.903214 
L 242.089948 490.187205 
L 242.569611 496.695815 
L 243.052199 487.806682 
L 243.531389 450.103117 
L 244.008713 446.317742 
L 244.489297 437.262272 
L 244.966395 442.086261 
L 245.449008 444.487175 
L 245.926812 476.180438 
L 246.407002 490.230163 
L 247.365687 556.6905 
L 247.843277 556.698609 
L 248.326159 542.552271 
L 248.803562 523.431357 
L 249.284479 463.043599 
L 249.763674 441.537608 
L 250.24312 437.257957 
L 251.679025 437.359511 
L 252.160091 461.099528 
L 252.638149 468.468463 
L 253.11855 437.267309 
L 253.599187 439.838092 
L 254.078792 437.264605 
L 254.55912 438.709246 
L 255.038117 437.266945 
L 255.517622 438.207245 
L 255.996105 437.546433 
L 256.473944 450.366419 
L 257.433966 508.469349 
L 257.913095 509.931381 
L 258.392468 535.659601 
L 258.872318 530.437002 
L 259.350089 546.599192 
L 259.830901 526.96541 
L 260.312902 528.188303 
L 260.788752 491.479974 
L 261.27028 480.307455 
L 261.747626 496.242026 
L 262.228239 500.090981 
L 262.707398 474.585623 
L 263.18538 481.223417 
L 263.666209 460.563789 
L 264.145819 472.27459 
L 264.626303 458.605145 
L 265.10472 476.880211 
L 265.582845 469.32517 
L 266.063391 492.224923 
L 266.541453 538.651339 
L 267.024421 556.381391 
L 267.499916 546.071442 
L 267.981208 555.314312 
L 268.462393 531.955017 
L 268.942123 531.846081 
L 269.42194 499.928552 
L 269.898992 496.268566 
L 270.379753 463.512229 
L 270.8578 463.835453 
L 271.336535 485.450253 
L 271.818517 487.284476 
L 272.295512 442.45029 
L 272.775572 437.306735 
L 274.212341 437.263662 
L 274.69357 442.023257 
L 275.174273 437.256818 
L 276.130123 463.73759 
L 276.612091 523.782673 
L 277.093055 532.985828 
L 277.569074 556.538371 
L 278.050711 554.123266 
L 278.530698 556.702216 
L 279.967915 556.691251 
L 280.446407 527.336666 
L 280.925794 521.83583 
L 281.406338 512.856344 
L 281.88761 523.975266 
L 282.364018 556.693762 
L 282.845637 539.315337 
L 283.323223 532.33544 
L 283.804954 437.259211 
L 288.117995 437.271974 
L 288.598704 450.100817 
L 289.077371 490.148219 
L 289.55868 506.567232 
L 290.037027 544.740911 
L 290.515992 556.702772 
L 291.95324 556.69953 
L 292.43378 543.283003 
L 292.914394 525.665722 
L 293.392051 465.526473 
L 293.871697 437.800082 
L 294.350355 437.255354 
L 297.7067 437.271687 
L 298.187017 439.453772 
L 298.666666 461.532618 
L 300.104744 556.702561 
L 303.462905 556.700693 
L 303.939903 520.931352 
L 304.41977 494.616664 
L 305.378035 484.610897 
L 305.857025 478.179129 
L 306.335895 503.939558 
L 307.296191 458.725395 
L 307.777823 437.254434 
L 313.049221 437.256616 
L 314.488427 468.890107 
L 314.968392 507.689746 
L 315.44626 535.60343 
L 315.927007 556.703573 
L 325.0346 556.700992 
L 325.517554 556.405531 
L 325.994466 506.673127 
L 326.473963 479.409493 
L 326.953622 437.641933 
L 327.434069 437.261001 
L 328.870146 437.26514 
L 329.349933 441.198813 
L 329.830936 440.526519 
L 330.309239 462.227732 
L 330.787705 465.073501 
L 331.268897 487.891834 
L 331.748293 487.91794 
L 332.229356 505.059362 
L 332.705834 495.190947 
L 333.18659 501.926636 
L 333.665271 520.198535 
L 334.145793 523.293895 
L 334.625578 498.391174 
L 335.10306 495.536383 
L 335.582773 467.223938 
L 336.06407 464.566224 
L 336.541634 438.631741 
L 337.020726 442.019978 
L 337.502545 437.258267 
L 337.980155 437.420149 
L 338.459453 465.731794 
L 338.938438 481.346347 
L 339.419823 469.855221 
L 339.89698 483.948464 
L 340.376645 471.888007 
L 340.857076 483.848913 
L 341.336828 473.450055 
L 341.818096 487.042051 
L 342.294881 472.799053 
L 342.775581 489.068213 
L 343.254049 520.854618 
L 343.732493 532.327406 
L 344.212046 511.972246 
L 344.69179 514.959913 
L 345.171073 486.76712 
L 345.651179 485.454601 
L 346.131078 455.157708 
L 346.610997 450.694815 
L 347.092346 437.255728 
L 351.405581 437.261015 
L 351.88293 439.048863 
L 352.363755 453.833279 
L 353.322291 473.638866 
L 354.283486 483.477471 
L 354.760521 485.801302 
L 355.720113 492.473801 
L 356.199447 493.49829 
L 356.679191 492.812315 
L 357.159601 516.249868 
L 357.639058 556.703035 
L 368.666068 556.70112 
L 369.143163 556.230315 
L 369.624372 540.558627 
L 370.104271 505.65337 
L 370.582729 488.968573 
L 371.063608 460.400405 
L 371.542956 453.424188 
L 372.022616 461.924067 
L 372.500811 465.982596 
L 372.979539 457.865269 
L 373.45954 468.458441 
L 373.937445 463.421753 
L 374.418642 479.088467 
L 374.897837 481.717264 
L 375.377084 498.731737 
L 375.856522 499.569808 
L 376.335936 513.382224 
L 376.814756 538.492864 
L 377.296706 546.793034 
L 377.774172 534.284076 
L 378.252485 533.781797 
L 378.733896 514.283933 
L 379.212347 508.797112 
L 379.693665 487.458852 
L 380.171164 482.939598 
L 380.651723 464.111789 
L 381.12924 464.47521 
L 381.609784 477.615811 
L 382.090505 482.647776 
L 382.568095 471.415391 
L 383.049606 477.933155 
L 383.528489 468.012634 
L 384.007667 476.491859 
L 384.485814 468.519202 
L 384.965066 478.654236 
L 385.444469 471.787324 
L 385.924294 483.198481 
L 386.404535 506.382367 
L 386.884421 515.784972 
L 387.364829 503.489093 
L 387.843326 507.404647 
L 388.322097 495.870798 
L 388.800466 505.3088 
L 389.280685 497.333135 
L 389.761796 504.811707 
L 390.238472 493.509451 
L 390.718863 498.317949 
L 391.200237 512.515083 
L 391.678651 514.114872 
L 392.157972 492.772381 
L 392.638207 488.189904 
L 393.117767 460.850733 
L 393.594898 451.627318 
L 394.075071 437.256579 
L 400.309439 437.25472 
L 400.786199 437.367253 
L 401.26823 455.915481 
L 401.748944 444.799433 
L 402.226804 459.760477 
L 402.704688 437.263448 
L 403.186749 437.689507 
L 403.66606 437.259604 
L 404.143066 437.316745 
L 405.102785 437.271114 
L 405.582331 447.946048 
L 406.063213 455.487853 
L 406.539809 456.159322 
L 407.022264 467.599751 
L 407.503044 475.163828 
L 407.980173 475.473323 
L 408.458831 485.41735 
L 408.938414 488.443896 
L 410.376955 493.738439 
L 410.85788 494.239305 
L 411.336039 493.894247 
L 411.815018 495.311405 
L 412.293891 495.959769 
L 412.776348 490.278457 
L 413.254502 496.980081 
L 413.731866 496.980065 
L 414.215185 491.673892 
L 414.690852 496.979973 
L 417.08989 496.979783 
L 417.568917 495.749817 
L 418.049782 496.979724 
L 420.925838 496.979626 
L 421.404742 496.75166 
L 421.885389 496.950706 
L 422.366574 492.20188 
L 422.842568 496.97961 
L 423.322094 496.979611 
L 423.802499 492.344014 
L 424.280398 496.979607 
L 424.761171 496.979617 
L 425.240797 495.148755 
L 425.720285 496.979619 
L 426.677296 496.979624 
L 427.159242 496.404951 
L 427.63627 496.979632 
L 428.116796 496.97964 
L 428.598353 486.983068 
L 429.077497 496.979657 
L 431.471791 496.979697 
L 431.952311 495.992166 
L 432.434251 496.979715 
L 432.912269 496.97973 
L 433.389327 496.623584 
L 433.871313 496.979754 
L 434.829029 496.979818 
L 435.309171 496.202054 
L 435.786996 496.979857 
L 436.266476 495.681004 
L 436.747541 492.805462 
L 437.226176 496.979922 
L 437.706724 496.979967 
L 438.189446 485.38558 
L 438.665162 496.980049 
L 442.500882 496.981543 
L 442.980795 496.583188 
L 443.458421 489.0878 
L 443.939213 547.039048 
L 444.419579 556.703802 
L 471.268023 556.698746 
L 471.744742 540.978652 
L 472.226282 502.483623 
L 472.703636 453.368458 
L 472.703636 453.368458 
" clip-path="url(#p9f0e65acf2)" style="fill: none; stroke: #1f77b4; stroke-width: 1.5; stroke-linecap: square"/>
   </g>
   <g id="line2d_78">
    <path d="M 42.28 556.705215 
L 493.2 556.705215 
" clip-path="url(#p9f0e65acf2)" style="fill: none; stroke-dasharray: 3.7,1.6; stroke-dashoffset: 0; stroke: #ff0000"/>
   </g>
   <g id="line2d_79">
    <path d="M 42.28 437.25349 
L 493.2 437.25349 
" clip-path="url(#p9f0e65acf2)" style="fill: none; stroke-dasharray: 3.7,1.6; stroke-dashoffset: 0; stroke: #ff0000"/>
   </g>
   <g id="patch_15">
    <path d="M 42.28 562.677656 
L 42.28 431.280937 
" style="fill: none; stroke: #000000; stroke-width: 0.8; stroke-linejoin: miter; stroke-linecap: square"/>
   </g>
   <g id="patch_16">
    <path d="M 493.2 562.677656 
L 493.2 431.280937 
" style="fill: none; stroke: #000000; stroke-width: 0.8; stroke-linejoin: miter; stroke-linecap: square"/>
   </g>
   <g id="patch_17">
    <path d="M 42.28 562.677656 
L 493.2 562.677656 
" style="fill: none; stroke: #000000; stroke-width: 0.8; stroke-linejoin: miter; stroke-linecap: square"/>
   </g>
   <g id="patch_18">
    <path d="M 42.28 431.280937 
L 493.2 431.280937 
" style="fill: none; stroke: #000000; stroke-width: 0.8; stroke-linejoin: miter; stroke-linecap: square"/>
   </g>
   <g id="text_42">
    <!-- $a_{x,cmd}$ $\left(\mathrm{m/s^2}\right)$ -->
    <g transform="translate(229.7 425.280937) scale(0.12 -0.12)">
     <defs>
      <path id="DejaVuSans-Oblique-44" d="M 3438 1997 
L 3047 0 
L 2472 0 
L 2578 531 
Q 2325 219 2001 64 
Q 1678 -91 1281 -91 
Q 834 -91 548 182 
Q 263 456 263 884 
Q 263 1497 752 1853 
Q 1241 2209 2100 2209 
L 2900 2209 
L 2931 2363 
Q 2938 2388 2941 2417 
Q 2944 2447 2944 2509 
Q 2944 2788 2717 2942 
Q 2491 3097 2081 3097 
Q 1800 3097 1504 3025 
Q 1209 2953 897 2809 
L 997 3341 
Q 1322 3463 1633 3523 
Q 1944 3584 2234 3584 
Q 2853 3584 3176 3315 
Q 3500 3047 3500 2534 
Q 3500 2431 3484 2292 
Q 3469 2153 3438 1997 
z
M 2816 1759 
L 2241 1759 
Q 1534 1759 1195 1570 
Q 856 1381 856 984 
Q 856 709 1029 553 
Q 1203 397 1509 397 
Q 1978 397 2328 733 
Q 2678 1069 2791 1631 
L 2816 1759 
z
" transform="scale(0.015625)"/>
      <path id="STIXSizeOneSym-Regular-4" d="M 2445 -858 
L 2445 -1050 
Q 1728 -371 1309 630 
Q 890 1632 890 2886 
Q 890 4122 1309 5136 
Q 1728 6150 2445 6822 
L 2445 6630 
Q 1408 5363 1408 2886 
Q 1408 410 2445 -858 
z
" transform="scale(0.015625)"/>
      <path id="STIXSizeOneSym-Regular-5" d="M 550 6630 
L 550 6822 
Q 1267 6144 1686 5142 
Q 2106 4141 2106 2886 
Q 2106 1651 1686 636 
Q 1267 -378 550 -1050 
L 550 -858 
Q 1587 410 1587 2886 
Q 1587 5363 550 6630 
z
" transform="scale(0.015625)"/>
     </defs>
     <use xlink:href="#DejaVuSans-Oblique-44" transform="translate(0 0.746875)"/>
     <use xlink:href="#DejaVuSans-Oblique-5b" transform="translate(61.279297 -14.253076) scale(0.7)"/>
     <use xlink:href="#DejaVuSans-f" transform="translate(102.705078 -14.253076) scale(0.7)"/>
     <use xlink:href="#DejaVuSans-Oblique-46" transform="translate(138.59375 -14.253076) scale(0.7)"/>
     <use xlink:href="#DejaVuSans-Oblique-50" transform="translate(177.080078 -14.253076) scale(0.7)"/>
     <use xlink:href="#DejaVuSans-Oblique-47" transform="translate(245.268555 -14.253076) scale(0.7)"/>
     <use xlink:href="#DejaVuSans-3" transform="translate(292.436523 0.746875)"/>
     <use xlink:href="#STIXSizeOneSym-Regular-4" transform="translate(324.223633 5.1375) scale(0.833613)"/>
     <use xlink:href="#DejaVuSans-50" transform="translate(363.23587 0.746875)"/>
     <use xlink:href="#DejaVuSans-12" transform="translate(460.64798 0.746875)"/>
     <use xlink:href="#DejaVuSans-56" transform="translate(494.339386 0.746875)"/>
     <use xlink:href="#DejaVuSans-15" transform="translate(547.396027 42.046875) scale(0.7)"/>
     <use xlink:href="#STIXSizeOneSym-Regular-5" transform="translate(594.666534 5.1375) scale(0.833613)"/>
    </g>
   </g>
   <g id="legend_3">
    <g id="patch_19">
     <path d="M 220.04 506.880469 
L 315.44 506.880469 
Q 317.44 506.880469 317.44 504.880469 
L 317.44 489.078125 
Q 317.44 487.078125 315.44 487.078125 
L 220.04 487.078125 
Q 218.04 487.078125 218.04 489.078125 
L 218.04 504.880469 
Q 218.04 506.880469 220.04 506.880469 
z
" style="fill: #ffffff; opacity: 0.8; stroke: #cccccc; stroke-linejoin: miter"/>
    </g>
    <g id="line2d_80">
     <path d="M 222.04 496.978125 
L 232.04 496.978125 
L 242.04 496.978125 
" style="fill: none; stroke: #1f77b4; stroke-width: 1.5; stroke-linecap: square"/>
    </g>
    <g id="text_43">
     <!-- $a_{x,cmd}$ $\left(\mathrm{m/s^2}\right)$ -->
     <g transform="translate(250.04 500.478125) scale(0.1 -0.1)">
      <use xlink:href="#DejaVuSans-Oblique-44" transform="translate(0 0.746875)"/>
      <use xlink:href="#DejaVuSans-Oblique-5b" transform="translate(61.279297 -14.253076) scale(0.7)"/>
      <use xlink:href="#DejaVuSans-f" transform="translate(102.705078 -14.253076) scale(0.7)"/>
      <use xlink:href="#DejaVuSans-Oblique-46" transform="translate(138.59375 -14.253076) scale(0.7)"/>
      <use xlink:href="#DejaVuSans-Oblique-50" transform="translate(177.080078 -14.253076) scale(0.7)"/>
      <use xlink:href="#DejaVuSans-Oblique-47" transform="translate(245.268555 -14.253076) scale(0.7)"/>
      <use xlink:href="#DejaVuSans-3" transform="translate(292.436523 0.746875)"/>
      <use xlink:href="#STIXSizeOneSym-Regular-4" transform="translate(324.223633 5.1375) scale(0.833613)"/>
      <use xlink:href="#DejaVuSans-50" transform="translate(363.23587 0.746875)"/>
      <use xlink:href="#DejaVuSans-12" transform="translate(460.64798 0.746875)"/>
      <use xlink:href="#DejaVuSans-56" transform="translate(494.339386 0.746875)"/>
      <use xlink:href="#DejaVuSans-15" transform="translate(547.396027 42.046875) scale(0.7)"/>
      <use xlink:href="#STIXSizeOneSym-Regular-5" transform="translate(594.666534 5.1375) scale(0.833613)"/>
     </g>
    </g>
   </g>
  </g>
  <g id="text_44">
   <!-- QCar2 Controls -->
   <g transform="translate(206.405625 21.214125) scale(0.12 -0.12)">
    <defs>
     <path id="DejaVuSans-34" d="M 2522 4238 
Q 1834 4238 1429 3725 
Q 1025 3213 1025 2328 
Q 1025 1447 1429 934 
Q 1834 422 2522 422 
Q 3209 422 3611 934 
Q 4013 1447 4013 2328 
Q 4013 3213 3611 3725 
Q 3209 4238 2522 4238 
z
M 3406 84 
L 4238 -825 
L 3475 -825 
L 2784 -78 
Q 2681 -84 2626 -87 
Q 2572 -91 2522 -91 
Q 1538 -91 948 567 
Q 359 1225 359 2328 
Q 359 3434 948 4092 
Q 1538 4750 2522 4750 
Q 3503 4750 4090 4092 
Q 4678 3434 4678 2328 
Q 4678 1516 4351 937 
Q 4025 359 3406 84 
z
" transform="scale(0.015625)"/>
     <path id="DejaVuSans-26" d="M 4122 4306 
L 4122 3641 
Q 3803 3938 3442 4084 
Q 3081 4231 2675 4231 
Q 1875 4231 1450 3742 
Q 1025 3253 1025 2328 
Q 1025 1406 1450 917 
Q 1875 428 2675 428 
Q 3081 428 3442 575 
Q 3803 722 4122 1019 
L 4122 359 
Q 3791 134 3420 21 
Q 3050 -91 2638 -91 
Q 1578 -91 968 557 
Q 359 1206 359 2328 
Q 359 3453 968 4101 
Q 1578 4750 2638 4750 
Q 3056 4750 3426 4639 
Q 3797 4528 4122 4306 
z
" transform="scale(0.015625)"/>
     <path id="DejaVuSans-52" d="M 1959 3097 
Q 1497 3097 1228 2736 
Q 959 2375 959 1747 
Q 959 1119 1226 758 
Q 1494 397 1959 397 
Q 2419 397 2687 759 
Q 2956 1122 2956 1747 
Q 2956 2369 2687 2733 
Q 2419 3097 1959 3097 
z
M 1959 3584 
Q 2709 3584 3137 3096 
Q 3566 2609 3566 1747 
Q 3566 888 3137 398 
Q 2709 -91 1959 -91 
Q 1206 -91 779 398 
Q 353 888 353 1747 
Q 353 2609 779 3096 
Q 1206 3584 1959 3584 
z
" transform="scale(0.015625)"/>
     <path id="DejaVuSans-51" d="M 3513 2113 
L 3513 0 
L 2938 0 
L 2938 2094 
Q 2938 2591 2744 2837 
Q 2550 3084 2163 3084 
Q 1697 3084 1428 2787 
Q 1159 2491 1159 1978 
L 1159 0 
L 581 0 
L 581 3500 
L 1159 3500 
L 1159 2956 
Q 1366 3272 1645 3428 
Q 1925 3584 2291 3584 
Q 2894 3584 3203 3211 
Q 3513 2838 3513 2113 
z
" transform="scale(0.015625)"/>
     <path id="DejaVuSans-4f" d="M 603 4863 
L 1178 4863 
L 1178 0 
L 603 0 
L 603 4863 
z
" transform="scale(0.015625)"/>
    </defs>
    <use xlink:href="#DejaVuSans-34"/>
    <use xlink:href="#DejaVuSans-26" transform="translate(78.71875 0)"/>
    <use xlink:href="#DejaVuSans-44" transform="translate(148.546875 0)"/>
    <use xlink:href="#DejaVuSans-55" transform="translate(209.828125 0)"/>
    <use xlink:href="#DejaVuSans-15" transform="translate(250.9375 0)"/>
    <use xlink:href="#DejaVuSans-3" transform="translate(314.5625 0)"/>
    <use xlink:href="#DejaVuSans-26" transform="translate(346.34375 0)"/>
    <use xlink:href="#DejaVuSans-52" transform="translate(416.171875 0)"/>
    <use xlink:href="#DejaVuSans-51" transform="translate(477.359375 0)"/>
    <use xlink:href="#DejaVuSans-57" transform="translate(540.734375 0)"/>
    <use xlink:href="#DejaVuSans-55" transform="translate(579.9375 0)"/>
    <use xlink:href="#DejaVuSans-52" transform="translate(618.84375 0)"/>
    <use xlink:href="#DejaVuSans-4f" transform="translate(680.03125 0)"/>
    <use xlink:href="#DejaVuSans-56" transform="translate(707.8125 0)"/>
   </g>
  </g>
 </g>
 <defs>
  <clipPath id="p935ec4db86">
   <rect x="42.28" y="49.202812" width="450.92" height="131.396719"/>
  </clipPath>
  <clipPath id="pcdda653289">
   <rect x="42.28" y="240.241875" width="450.92" height="131.396719"/>
  </clipPath>
  <clipPath id="p9f0e65acf2">
   <rect x="42.28" y="431.280937" width="450.92" height="131.396719"/>
  </clipPath>
 </defs>
</svg>
