<?xml version="1.0" encoding="utf-8" standalone="no"?>
<!DOCTYPE svg PUBLIC "-//W3C//DTD SVG 1.1//EN"
  "http://www.w3.org/Graphics/SVG/1.1/DTD/svg11.dtd">
<svg xmlns:xlink="http://www.w3.org/1999/xlink" width="504pt" height="403.2pt" viewBox="0 0 504 403.2" xmlns="http://www.w3.org/2000/svg" version="1.1">
 <metadata>
  <rdf:RDF xmlns:dc="http://purl.org/dc/elements/1.1/" xmlns:cc="http://creativecommons.org/ns#" xmlns:rdf="http://www.w3.org/1999/02/22-rdf-syntax-ns#">
   <cc:Work>
    <dc:type rdf:resource="http://purl.org/dc/dcmitype/StillImage"/>
    <dc:date>2026-07-09T11:57:21.682090</dc:date>
    <dc:format>image/svg+xml</dc:format>
    <dc:creator>
     <cc:Agent>
      <dc:title>Matplotlib v3.11.0, https://matplotlib.org/</dc:title>
     </cc:Agent>
    </dc:creator>
   </cc:Work>
  </rdf:RDF>
 </metadata>
 <defs>
  <style type="text/css">*{stroke-linejoin: round; stroke-linecap: butt}</style>
 </defs>
 <g id="figure_1">
  <g id="patch_1">
   <path d="M 0 403.2 
L 504 403.2 
L 504 0 
L 0 0 
z
" style="fill: #ffffff"/>
  </g>
  <g id="axes_1">
   <g id="patch_2">
    <path d="M 42.28 175.197656 
L 493.2 175.197656 
L 493.2 48.96 
L 42.28 48.96 
z
" style="fill: #ffffff"/>
   </g>
   <g id="matplotlib.axis_1">
    <g id="xtick_1">
     <g id="line2d_1">
      <path d="M 62.338832 175.197656 
L 62.338832 48.96 
" clip-path="url(#pe4bac40524)" style="fill: none; stroke: #b0b0b0; stroke-width: 0.8; stroke-linecap: square"/>
     </g>
     <g id="line2d_2">
      <defs>
       <path id="mb1df14dafe" d="M 0 0 
L 0 3.5 
" style="stroke: #000000; stroke-width: 0.8"/>
      </defs>
      <g>
       <use xlink:href="#mb1df14dafe" x="62.338832" y="175.197656" style="stroke: #000000; stroke-width: 0.8"/>
      </g>
     </g>
     <g id="text_1">
      <!-- 0 -->
      <g transform="translate(59.157582 189.795312) scale(0.1 -0.1)">
       <defs>
        <path id="DejaVuSans-13" d="M 2034 4250 
Q 1547 4250 1301 3770 
Q 1056 3291 1056 2328 
Q 1056 1369 1301 889 
Q 1547 409 2034 409 
Q 2525 409 2770 889 
Q 3016 1369 3016 2328 
Q 3016 3291 2770 3770 
Q 2525 4250 2034 4250 
z
M 2034 4750 
Q 2819 4750 3233 4129 
Q 3647 3509 3647 2328 
Q 3647 1150 3233 529 
Q 2819 -91 2034 -91 
Q 1250 -91 836 529 
Q 422 1150 422 2328 
Q 422 3509 836 4129 
Q 1250 4750 2034 4750 
z
" transform="scale(0.015625)"/>
       </defs>
       <use xlink:href="#DejaVuSans-13"/>
      </g>
     </g>
    </g>
    <g id="xtick_2">
     <g id="line2d_3">
      <path d="M 130.751089 175.197656 
L 130.751089 48.96 
" clip-path="url(#pe4bac40524)" style="fill: none; stroke: #b0b0b0; stroke-width: 0.8; stroke-linecap: square"/>
     </g>
     <g id="line2d_4">
      <g>
       <use xlink:href="#mb1df14dafe" x="130.751089" y="175.197656" style="stroke: #000000; stroke-width: 0.8"/>
      </g>
     </g>
     <g id="text_2">
      <!-- 10 -->
      <g transform="translate(124.388589 189.795312) scale(0.1 -0.1)">
       <defs>
        <path id="DejaVuSans-14" d="M 794 531 
L 1825 531 
L 1825 4091 
L 703 3866 
L 703 4441 
L 1819 4666 
L 2450 4666 
L 2450 531 
L 3481 531 
L 3481 0 
L 794 0 
L 794 531 
z
" transform="scale(0.015625)"/>
       </defs>
       <use xlink:href="#DejaVuSans-14"/>
       <use xlink:href="#DejaVuSans-13" transform="translate(63.625 0)"/>
      </g>
     </g>
    </g>
    <g id="xtick_3">
     <g id="line2d_5">
      <path d="M 199.163346 175.197656 
L 199.163346 48.96 
" clip-path="url(#pe4bac40524)" style="fill: none; stroke: #b0b0b0; stroke-width: 0.8; stroke-linecap: square"/>
     </g>
     <g id="line2d_6">
      <g>
       <use xlink:href="#mb1df14dafe" x="199.163346" y="175.197656" style="stroke: #000000; stroke-width: 0.8"/>
      </g>
     </g>
     <g id="text_3">
      <!-- 20 -->
      <g transform="translate(192.800846 189.795312) scale(0.1 -0.1)">
       <defs>
        <path id="DejaVuSans-15" d="M 1228 531 
L 3431 531 
L 3431 0 
L 469 0 
L 469 531 
Q 828 903 1448 1529 
Q 2069 2156 2228 2338 
Q 2531 2678 2651 2914 
Q 2772 3150 2772 3378 
Q 2772 3750 2511 3984 
Q 2250 4219 1831 4219 
Q 1534 4219 1204 4116 
Q 875 4013 500 3803 
L 500 4441 
Q 881 4594 1212 4672 
Q 1544 4750 1819 4750 
Q 2544 4750 2975 4387 
Q 3406 4025 3406 3419 
Q 3406 3131 3298 2873 
Q 3191 2616 2906 2266 
Q 2828 2175 2409 1742 
Q 1991 1309 1228 531 
z
" transform="scale(0.015625)"/>
       </defs>
       <use xlink:href="#DejaVuSans-15"/>
       <use xlink:href="#DejaVuSans-13" transform="translate(63.625 0)"/>
      </g>
     </g>
    </g>
    <g id="xtick_4">
     <g id="line2d_7">
      <path d="M 267.575603 175.197656 
L 267.575603 48.96 
" clip-path="url(#pe4bac40524)" style="fill: none; stroke: #b0b0b0; stroke-width: 0.8; stroke-linecap: square"/>
     </g>
     <g id="line2d_8">
      <g>
       <use xlink:href="#mb1df14dafe" x="267.575603" y="175.197656" style="stroke: #000000; stroke-width: 0.8"/>
      </g>
     </g>
     <g id="text_4">
      <!-- 30 -->
      <g transform="translate(261.213103 189.795312) scale(0.1 -0.1)">
       <defs>
        <path id="DejaVuSans-16" d="M 2597 2516 
Q 3050 2419 3304 2112 
Q 3559 1806 3559 1356 
Q 3559 666 3084 287 
Q 2609 -91 1734 -91 
Q 1441 -91 1130 -33 
Q 819 25 488 141 
L 488 750 
Q 750 597 1062 519 
Q 1375 441 1716 441 
Q 2309 441 2620 675 
Q 2931 909 2931 1356 
Q 2931 1769 2642 2001 
Q 2353 2234 1838 2234 
L 1294 2234 
L 1294 2753 
L 1863 2753 
Q 2328 2753 2575 2939 
Q 2822 3125 2822 3475 
Q 2822 3834 2567 4026 
Q 2313 4219 1838 4219 
Q 1578 4219 1281 4162 
Q 984 4106 628 3988 
L 628 4550 
Q 988 4650 1302 4700 
Q 1616 4750 1894 4750 
Q 2613 4750 3031 4423 
Q 3450 4097 3450 3541 
Q 3450 3153 3228 2886 
Q 3006 2619 2597 2516 
z
" transform="scale(0.015625)"/>
       </defs>
       <use xlink:href="#DejaVuSans-16"/>
       <use xlink:href="#DejaVuSans-13" transform="translate(63.625 0)"/>
      </g>
     </g>
    </g>
    <g id="xtick_5">
     <g id="line2d_9">
      <path d="M 335.987859 175.197656 
L 335.987859 48.96 
" clip-path="url(#pe4bac40524)" style="fill: none; stroke: #b0b0b0; stroke-width: 0.8; stroke-linecap: square"/>
     </g>
     <g id="line2d_10">
      <g>
       <use xlink:href="#mb1df14dafe" x="335.987859" y="175.197656" style="stroke: #000000; stroke-width: 0.8"/>
      </g>
     </g>
     <g id="text_5">
      <!-- 40 -->
      <g transform="translate(329.625359 189.795312) scale(0.1 -0.1)">
       <defs>
        <path id="DejaVuSans-17" d="M 2419 4116 
L 825 1625 
L 2419 1625 
L 2419 4116 
z
M 2253 4666 
L 3047 4666 
L 3047 1625 
L 3713 1625 
L 3713 1100 
L 3047 1100 
L 3047 0 
L 2419 0 
L 2419 1100 
L 313 1100 
L 313 1709 
L 2253 4666 
z
" transform="scale(0.015625)"/>
       </defs>
       <use xlink:href="#DejaVuSans-17"/>
       <use xlink:href="#DejaVuSans-13" transform="translate(63.625 0)"/>
      </g>
     </g>
    </g>
    <g id="xtick_6">
     <g id="line2d_11">
      <path d="M 404.400116 175.197656 
L 404.400116 48.96 
" clip-path="url(#pe4bac40524)" style="fill: none; stroke: #b0b0b0; stroke-width: 0.8; stroke-linecap: square"/>
     </g>
     <g id="line2d_12">
      <g>
       <use xlink:href="#mb1df14dafe" x="404.400116" y="175.197656" style="stroke: #000000; stroke-width: 0.8"/>
      </g>
     </g>
     <g id="text_6">
      <!-- 50 -->
      <g transform="translate(398.037616 189.795312) scale(0.1 -0.1)">
       <defs>
        <path id="DejaVuSans-18" d="M 691 4666 
L 3169 4666 
L 3169 4134 
L 1269 4134 
L 1269 2991 
Q 1406 3038 1543 3061 
Q 1681 3084 1819 3084 
Q 2600 3084 3056 2656 
Q 3513 2228 3513 1497 
Q 3513 744 3044 326 
Q 2575 -91 1722 -91 
Q 1428 -91 1123 -41 
Q 819 9 494 109 
L 494 744 
Q 775 591 1075 516 
Q 1375 441 1709 441 
Q 2250 441 2565 725 
Q 2881 1009 2881 1497 
Q 2881 1984 2565 2268 
Q 2250 2553 1709 2553 
Q 1456 2553 1204 2497 
Q 953 2441 691 2322 
L 691 4666 
z
" transform="scale(0.015625)"/>
       </defs>
       <use xlink:href="#DejaVuSans-18"/>
       <use xlink:href="#DejaVuSans-13" transform="translate(63.625 0)"/>
      </g>
     </g>
    </g>
    <g id="xtick_7">
     <g id="line2d_13">
      <path d="M 472.812373 175.197656 
L 472.812373 48.96 
" clip-path="url(#pe4bac40524)" style="fill: none; stroke: #b0b0b0; stroke-width: 0.8; stroke-linecap: square"/>
     </g>
     <g id="line2d_14">
      <g>
       <use xlink:href="#mb1df14dafe" x="472.812373" y="175.197656" style="stroke: #000000; stroke-width: 0.8"/>
      </g>
     </g>
     <g id="text_7">
      <!-- 60 -->
      <g transform="translate(466.449873 189.795312) scale(0.1 -0.1)">
       <defs>
        <path id="DejaVuSans-19" d="M 2113 2584 
Q 1688 2584 1439 2293 
Q 1191 2003 1191 1497 
Q 1191 994 1439 701 
Q 1688 409 2113 409 
Q 2538 409 2786 701 
Q 3034 994 3034 1497 
Q 3034 2003 2786 2293 
Q 2538 2584 2113 2584 
z
M 3366 4563 
L 3366 3988 
Q 3128 4100 2886 4159 
Q 2644 4219 2406 4219 
Q 1781 4219 1451 3797 
Q 1122 3375 1075 2522 
Q 1259 2794 1537 2939 
Q 1816 3084 2150 3084 
Q 2853 3084 3261 2657 
Q 3669 2231 3669 1497 
Q 3669 778 3244 343 
Q 2819 -91 2113 -91 
Q 1303 -91 875 529 
Q 447 1150 447 2328 
Q 447 3434 972 4092 
Q 1497 4750 2381 4750 
Q 2619 4750 2861 4703 
Q 3103 4656 3366 4563 
z
" transform="scale(0.015625)"/>
       </defs>
       <use xlink:href="#DejaVuSans-19"/>
       <use xlink:href="#DejaVuSans-13" transform="translate(63.625 0)"/>
      </g>
     </g>
    </g>
    <g id="text_8">
     <!-- t (s) -->
     <g transform="translate(257.684531 203.795312) scale(0.1 -0.1)">
      <defs>
       <path id="DejaVuSans-57" d="M 1172 4494 
L 1172 3500 
L 2356 3500 
L 2356 3053 
L 1172 3053 
L 1172 1153 
Q 1172 725 1289 603 
Q 1406 481 1766 481 
L 2356 481 
L 2356 0 
L 1766 0 
Q 1100 0 847 248 
Q 594 497 594 1153 
L 594 3053 
L 172 3053 
L 172 3500 
L 594 3500 
L 594 4494 
L 1172 4494 
z
" transform="scale(0.015625)"/>
       <path id="DejaVuSans-3" transform="scale(0.015625)"/>
       <path id="DejaVuSans-b" d="M 1984 4856 
Q 1566 4138 1362 3434 
Q 1159 2731 1159 2009 
Q 1159 1288 1364 580 
Q 1569 -128 1984 -844 
L 1484 -844 
Q 1016 -109 783 600 
Q 550 1309 550 2009 
Q 550 2706 781 3412 
Q 1013 4119 1484 4856 
L 1984 4856 
z
" transform="scale(0.015625)"/>
       <path id="DejaVuSans-56" d="M 2834 3397 
L 2834 2853 
Q 2591 2978 2328 3040 
Q 2066 3103 1784 3103 
Q 1356 3103 1142 2972 
Q 928 2841 928 2578 
Q 928 2378 1081 2264 
Q 1234 2150 1697 2047 
L 1894 2003 
Q 2506 1872 2764 1633 
Q 3022 1394 3022 966 
Q 3022 478 2636 193 
Q 2250 -91 1575 -91 
Q 1294 -91 989 -36 
Q 684 19 347 128 
L 347 722 
Q 666 556 975 473 
Q 1284 391 1588 391 
Q 1994 391 2212 530 
Q 2431 669 2431 922 
Q 2431 1156 2273 1281 
Q 2116 1406 1581 1522 
L 1381 1569 
Q 847 1681 609 1914 
Q 372 2147 372 2553 
Q 372 3047 722 3315 
Q 1072 3584 1716 3584 
Q 2034 3584 2315 3537 
Q 2597 3491 2834 3397 
z
" transform="scale(0.015625)"/>
       <path id="DejaVuSans-c" d="M 513 4856 
L 1013 4856 
Q 1481 4119 1714 3412 
Q 1947 2706 1947 2009 
Q 1947 1309 1714 600 
Q 1481 -109 1013 -844 
L 513 -844 
Q 928 -128 1133 580 
Q 1338 1288 1338 2009 
Q 1338 2731 1133 3434 
Q 928 4138 513 4856 
z
" transform="scale(0.015625)"/>
      </defs>
      <use xlink:href="#DejaVuSans-57"/>
      <use xlink:href="#DejaVuSans-3" transform="translate(39.203125 0)"/>
      <use xlink:href="#DejaVuSans-b" transform="translate(70.984375 0)"/>
      <use xlink:href="#DejaVuSans-56" transform="translate(110 0)"/>
      <use xlink:href="#DejaVuSans-c" transform="translate(162.09375 0)"/>
     </g>
    </g>
   </g>
   <g id="matplotlib.axis_2">
    <g id="ytick_1">
     <g id="line2d_15">
      <path d="M 42.28 156.664517 
L 493.2 156.664517 
" clip-path="url(#pe4bac40524)" style="fill: none; stroke: #b0b0b0; stroke-width: 0.8; stroke-linecap: square"/>
     </g>
     <g id="line2d_16">
      <defs>
       <path id="mc14df9a3ea" d="M 0 0 
L -3.5 0 
" style="stroke: #000000; stroke-width: 0.8"/>
      </defs>
      <g>
       <use xlink:href="#mc14df9a3ea" x="42.28" y="156.664517" style="stroke: #000000; stroke-width: 0.8"/>
      </g>
     </g>
     <g id="text_9">
      <!-- −0.2 -->
      <g transform="translate(10.997188 160.463346) scale(0.1 -0.1)">
       <defs>
        <path id="DejaVuSans-c9c" d="M 678 2272 
L 4684 2272 
L 4684 1741 
L 678 1741 
L 678 2272 
z
" transform="scale(0.015625)"/>
        <path id="DejaVuSans-11" d="M 684 794 
L 1344 794 
L 1344 0 
L 684 0 
L 684 794 
z
" transform="scale(0.015625)"/>
       </defs>
       <use xlink:href="#DejaVuSans-c9c"/>
       <use xlink:href="#DejaVuSans-13" transform="translate(83.796875 0)"/>
       <use xlink:href="#DejaVuSans-11" transform="translate(147.421875 0)"/>
       <use xlink:href="#DejaVuSans-15" transform="translate(179.203125 0)"/>
      </g>
     </g>
    </g>
    <g id="ytick_2">
     <g id="line2d_17">
      <path d="M 42.28 135.055868 
L 493.2 135.055868 
" clip-path="url(#pe4bac40524)" style="fill: none; stroke: #b0b0b0; stroke-width: 0.8; stroke-linecap: square"/>
     </g>
     <g id="line2d_18">
      <g>
       <use xlink:href="#mc14df9a3ea" x="42.28" y="135.055868" style="stroke: #000000; stroke-width: 0.8"/>
      </g>
     </g>
     <g id="text_10">
      <!-- −0.1 -->
      <g transform="translate(10.997188 138.854696) scale(0.1 -0.1)">
       <use xlink:href="#DejaVuSans-c9c"/>
       <use xlink:href="#DejaVuSans-13" transform="translate(83.796875 0)"/>
       <use xlink:href="#DejaVuSans-11" transform="translate(147.421875 0)"/>
       <use xlink:href="#DejaVuSans-14" transform="translate(179.203125 0)"/>
      </g>
     </g>
    </g>
    <g id="ytick_3">
     <g id="line2d_19">
      <path d="M 42.28 113.447219 
L 493.2 113.447219 
" clip-path="url(#pe4bac40524)" style="fill: none; stroke: #b0b0b0; stroke-width: 0.8; stroke-linecap: square"/>
     </g>
     <g id="line2d_20">
      <g>
       <use xlink:href="#mc14df9a3ea" x="42.28" y="113.447219" style="stroke: #000000; stroke-width: 0.8"/>
      </g>
     </g>
     <g id="text_11">
      <!-- 0.0 -->
      <g transform="translate(19.376875 117.246047) scale(0.1 -0.1)">
       <use xlink:href="#DejaVuSans-13"/>
       <use xlink:href="#DejaVuSans-11" transform="translate(63.625 0)"/>
       <use xlink:href="#DejaVuSans-13" transform="translate(95.40625 0)"/>
      </g>
     </g>
    </g>
    <g id="ytick_4">
     <g id="line2d_21">
      <path d="M 42.28 91.83857 
L 493.2 91.83857 
" clip-path="url(#pe4bac40524)" style="fill: none; stroke: #b0b0b0; stroke-width: 0.8; stroke-linecap: square"/>
     </g>
     <g id="line2d_22">
      <g>
       <use xlink:href="#mc14df9a3ea" x="42.28" y="91.83857" style="stroke: #000000; stroke-width: 0.8"/>
      </g>
     </g>
     <g id="text_12">
      <!-- 0.1 -->
      <g transform="translate(19.376875 95.637398) scale(0.1 -0.1)">
       <use xlink:href="#DejaVuSans-13"/>
       <use xlink:href="#DejaVuSans-11" transform="translate(63.625 0)"/>
       <use xlink:href="#DejaVuSans-14" transform="translate(95.40625 0)"/>
      </g>
     </g>
    </g>
    <g id="ytick_5">
     <g id="line2d_23">
      <path d="M 42.28 70.229921 
L 493.2 70.229921 
" clip-path="url(#pe4bac40524)" style="fill: none; stroke: #b0b0b0; stroke-width: 0.8; stroke-linecap: square"/>
     </g>
     <g id="line2d_24">
      <g>
       <use xlink:href="#mc14df9a3ea" x="42.28" y="70.229921" style="stroke: #000000; stroke-width: 0.8"/>
      </g>
     </g>
     <g id="text_13">
      <!-- 0.2 -->
      <g transform="translate(19.376875 74.028749) scale(0.1 -0.1)">
       <use xlink:href="#DejaVuSans-13"/>
       <use xlink:href="#DejaVuSans-11" transform="translate(63.625 0)"/>
       <use xlink:href="#DejaVuSans-15" transform="translate(95.40625 0)"/>
      </g>
     </g>
    </g>
   </g>
   <g id="line2d_25">
    <path d="M 62.776364 114.096591 
L 63.254825 113.881443 
L 63.737479 111.981027 
L 66.607466 111.698516 
L 67.088398 111.85809 
L 69.00211 113.306797 
L 70.441401 114.001906 
L 70.919911 114.194711 
L 71.397454 114.134052 
L 71.876775 114.23456 
L 72.355624 113.658185 
L 72.833046 113.865703 
L 73.311716 113.903696 
L 73.790912 114.125967 
L 74.2717 113.888084 
L 74.751105 113.918439 
L 75.228558 113.563179 
L 75.708008 113.590535 
L 76.185136 113.176717 
L 76.664631 113.132252 
L 77.143687 111.550904 
L 77.622778 111.850098 
L 78.103068 111.82684 
L 78.582217 111.556374 
L 79.057988 110.154679 
L 79.539335 109.180838 
L 80.019001 107.863507 
L 80.494511 107.121724 
L 80.976181 105.786186 
L 81.45554 105.271581 
L 81.933764 102.913479 
L 82.891843 107.483609 
L 83.367813 110.281497 
L 83.847467 110.753718 
L 84.327462 112.565934 
L 85.285802 115.007482 
L 85.765748 115.229372 
L 86.242112 115.95753 
L 86.722003 115.982193 
L 87.201637 116.963092 
L 87.677961 117.399956 
L 88.160214 117.518976 
L 89.595612 115.976756 
L 90.072819 114.917569 
L 90.553821 113.407274 
L 91.031532 111.214216 
L 91.989948 105.361532 
L 92.467336 102.993809 
L 94.383247 90.064578 
L 94.863925 89.152939 
L 95.342943 87.534422 
L 95.821211 88.94364 
L 96.29847 86.053794 
L 96.778248 90.378695 
L 97.258357 92.840039 
L 97.734577 99.351241 
L 98.214243 101.10612 
L 98.693526 106.203328 
L 99.172591 106.884898 
L 99.650829 111.271881 
L 100.131219 111.481559 
L 100.610311 114.189561 
L 101.089908 107.093052 
L 101.565775 110.986538 
L 102.045863 113.533639 
L 102.524815 117.321408 
L 103.003121 116.681963 
L 103.481322 116.867261 
L 103.962256 114.155158 
L 104.441651 113.612006 
L 104.921061 111.456381 
L 105.397059 111.867582 
L 105.87612 108.954505 
L 106.357094 111.470903 
L 106.835714 113.123496 
L 107.313804 117.121386 
L 107.791938 116.341752 
L 108.272084 117.331995 
L 108.749108 113.604746 
L 109.230165 113.213303 
L 109.707643 109.471892 
L 110.18843 109.523621 
L 110.665703 99.333736 
L 111.143981 101.878104 
L 111.625378 102.333223 
L 112.102585 105.197915 
L 112.583519 101.639517 
L 113.060073 102.350551 
L 113.537987 99.025513 
L 114.018577 101.507051 
L 114.498965 99.669046 
L 114.977771 104.730857 
L 115.455254 98.6528 
L 115.934823 102.989229 
L 116.413423 104.140145 
L 116.890901 107.597598 
L 117.370925 105.55541 
L 117.849198 106.587161 
L 118.329595 103.441483 
L 118.806532 104.348009 
L 119.284269 101.577618 
L 119.763819 103.003839 
L 120.244039 94.042356 
L 120.724444 98.114235 
L 121.203077 100.932091 
L 121.679845 105.946601 
L 122.159521 105.921033 
L 122.639717 108.343965 
L 123.117223 106.855554 
L 123.596276 108.637475 
L 124.07393 106.987897 
L 124.554182 108.677672 
L 125.033733 99.325577 
L 125.511962 102.562823 
L 125.992071 103.468035 
L 126.46754 106.847278 
L 126.94724 104.244998 
L 127.427869 104.936139 
L 127.90665 101.424519 
L 128.38468 102.37999 
L 128.86558 99.950714 
L 129.34294 102.06878 
L 130.302112 98.985974 
L 130.777741 100.560051 
L 131.258945 106.325917 
L 131.737372 108.609609 
L 132.216954 111.51082 
L 132.697148 111.367528 
L 133.17457 112.934539 
L 133.651241 112.47531 
L 134.130912 114.58677 
L 134.610138 113.461858 
L 135.088881 107.906496 
L 135.566912 106.661244 
L 136.048122 109.911015 
L 136.526142 107.134174 
L 137.005418 106.809344 
L 137.483194 102.538957 
L 137.96287 103.126378 
L 138.441784 101.573757 
L 138.920828 103.926962 
L 139.400321 104.422508 
L 139.876548 105.388942 
L 140.356039 107.034178 
L 140.836015 109.963836 
L 141.794211 112.718494 
L 142.27378 113.50784 
L 143.229751 115.597416 
L 143.709852 116.458474 
L 144.190334 115.20004 
L 144.668437 115.092924 
L 145.623631 113.063822 
L 146.102761 111.447194 
L 147.060583 113.188577 
L 147.539541 114.611961 
L 148.017739 114.191234 
L 148.498645 114.381335 
L 148.978373 113.402816 
L 149.457313 111.491321 
L 149.933603 111.64837 
L 150.413805 114.146628 
L 150.893632 113.249542 
L 151.371486 112.859075 
L 151.850926 110.062738 
L 152.330513 109.814309 
L 152.80953 107.66012 
L 153.286485 107.951693 
L 153.766108 105.86592 
L 154.244765 102.063816 
L 154.724329 102.982448 
L 155.201972 107.855761 
L 155.681491 109.045008 
L 156.160974 110.637138 
L 156.638094 111.425114 
L 157.117583 113.274177 
L 157.596927 114.234617 
L 158.076669 115.96976 
L 158.55608 116.709447 
L 159.034939 114.799396 
L 159.512748 117.223979 
L 159.992558 124.811819 
L 160.47027 124.327024 
L 160.948244 126.035026 
L 161.429028 119.042526 
L 161.905668 115.767281 
L 162.385562 106.15697 
L 162.863126 102.975199 
L 163.345146 96.826781 
L 163.823128 89.249321 
L 164.300049 88.738367 
L 164.781761 95.215149 
L 165.26053 97.464784 
L 165.738663 102.258266 
L 166.216755 102.097512 
L 166.694868 105.312715 
L 167.174977 105.462379 
L 167.653041 109.530195 
L 168.1326 109.510512 
L 168.612384 106.739221 
L 169.089143 107.148113 
L 169.569588 112.679574 
L 170.047575 112.362389 
L 170.527638 113.958192 
L 171.005494 109.695753 
L 171.485377 109.398469 
L 171.961963 104.272098 
L 172.442437 105.504102 
L 172.921491 100.585459 
L 173.400751 88.76477 
L 173.879716 88.094391 
L 174.358237 99.516017 
L 174.837944 98.783394 
L 175.316224 103.022099 
L 175.795121 100.203989 
L 176.274028 103.885319 
L 176.752 103.383258 
L 177.230185 107.175264 
L 177.709564 102.470948 
L 178.190361 90.525602 
L 178.667017 88.221161 
L 179.145939 96.975445 
L 179.624618 97.381644 
L 180.103902 101.463443 
L 180.585075 97.162156 
L 181.062952 98.867021 
L 181.539816 95.041963 
L 182.020927 98.529898 
L 182.499899 96.81939 
L 182.979357 92.883325 
L 183.455472 94.884786 
L 183.934438 106.518468 
L 184.414903 110.350293 
L 184.894136 117.506326 
L 185.37312 116.134018 
L 185.849992 122.412013 
L 186.330324 117.620199 
L 186.808668 125.451723 
L 187.288176 111.134757 
L 187.768342 73.331012 
L 188.245252 64.716671 
L 188.724491 84.652947 
L 189.684566 97.499145 
L 190.16267 91.57932 
L 190.640951 93.014722 
L 191.1207 94.920044 
L 191.598838 100.993167 
L 192.554322 106.733262 
L 193.03399 107.784296 
L 193.51277 107.271787 
L 193.99095 110.726802 
L 194.473283 111.904088 
L 194.949142 117.615346 
L 195.428626 118.218078 
L 195.909125 125.070345 
L 196.388183 125.914211 
L 196.865074 134.494563 
L 197.344234 151.023785 
L 197.824117 150.946842 
L 198.30243 134.472952 
L 198.781471 133.616865 
L 199.261165 129.010981 
L 199.738421 131.029812 
L 201.175875 108.821761 
L 201.656183 108.966972 
L 202.132384 112.127454 
L 202.611808 113.211 
L 203.089496 110.161829 
L 203.569308 111.045993 
L 204.050129 108.906273 
L 204.528503 111.110523 
L 205.005029 108.535375 
L 205.486717 110.964858 
L 205.963704 107.067932 
L 206.443466 109.698233 
L 206.9204 120.429558 
L 207.401921 115.694638 
L 207.881252 95.914484 
L 208.357741 96.112077 
L 208.838028 103.283173 
L 209.317678 120.302919 
L 209.79661 120.715482 
L 210.275532 127.270305 
L 210.753642 125.143352 
L 211.230813 131.177664 
L 211.712192 144.808054 
L 212.189607 145.648311 
L 212.668789 133.04807 
L 213.148175 128.195922 
L 213.627136 119.488365 
L 214.106584 118.411808 
L 214.584028 113.113547 
L 215.062943 125.965773 
L 215.540962 125.713891 
L 216.022531 133.776667 
L 216.498421 150.998618 
L 216.978791 156.1506 
L 217.457673 144.160747 
L 217.937096 146.62448 
L 218.414819 141.346179 
L 218.894826 146.68882 
L 219.373793 141.894284 
L 219.853753 141.642325 
L 220.332627 134.224265 
L 221.765831 125.501615 
L 222.246689 120.051861 
L 223.203212 114.421069 
L 223.684882 113.02388 
L 224.642533 109.229894 
L 225.119138 107.279801 
L 225.599369 105.893901 
L 226.555737 104.189509 
L 227.03516 102.163141 
L 227.51553 103.538697 
L 227.994303 101.123074 
L 228.471629 113.206594 
L 228.950429 120.352839 
L 229.430206 133.248749 
L 229.908441 134.734481 
L 230.386682 138.736369 
L 230.867079 141.637641 
L 231.345946 138.336061 
L 231.823662 128.320316 
L 232.781724 121.932406 
L 233.261982 122.185511 
L 234.217751 119.376073 
L 235.17624 115.178095 
L 235.653668 108.381709 
L 236.135261 105.863714 
L 236.612386 112.132511 
L 237.091275 112.458984 
L 237.570234 116.053397 
L 238.05051 111.175213 
L 238.528323 111.028199 
L 239.007774 105.821255 
L 239.487041 106.579342 
L 239.965745 103.865243 
L 240.442884 105.187178 
L 240.921791 110.257682 
L 241.401926 122.152711 
L 241.881827 123.354728 
L 242.357983 120.177978 
L 242.837949 103.968799 
L 243.31764 94.139412 
L 243.797422 78.758638 
L 244.275597 73.684253 
L 244.754415 72.023236 
L 247.628724 118.818776 
L 248.107504 120.849503 
L 248.586786 131.356058 
L 249.064631 131.089591 
L 249.544033 142.30443 
L 250.023379 161.302339 
L 250.501517 159.403514 
L 250.979364 133.526817 
L 251.459463 122.747975 
L 251.938543 107.569801 
L 252.417246 116.605446 
L 252.894747 122.785396 
L 253.373384 141.549892 
L 253.851979 145.279863 
L 254.332138 150.759836 
L 254.809091 149.381384 
L 255.288417 142.109115 
L 255.767445 129.880482 
L 256.247997 124.565052 
L 256.724988 121.793444 
L 257.204419 121.182877 
L 257.683121 119.417778 
L 259.120686 106.504222 
L 259.599656 98.098572 
L 260.078435 96.767292 
L 260.557759 101.421271 
L 261.035879 103.383781 
L 261.515312 106.659579 
L 262.472777 116.241599 
L 262.951412 114.779979 
L 263.909352 108.224393 
L 264.388081 106.317398 
L 264.868593 106.848755 
L 265.347356 108.73398 
L 265.826476 110.072875 
L 266.30314 110.795443 
L 266.782111 111.837188 
L 267.263045 111.868479 
L 267.740703 113.37441 
L 268.218726 112.721644 
L 268.697295 114.613382 
L 269.177836 119.492646 
L 269.657103 119.238706 
L 270.135597 112.168694 
L 270.615271 111.094827 
L 271.0936 105.395679 
L 271.572444 105.458126 
L 272.049859 102.73471 
L 272.52999 112.746744 
L 273.008166 125.653258 
L 273.487312 147.613053 
L 273.967547 162.337701 
L 274.445822 154.697116 
L 274.924368 133.825336 
L 275.404149 123.037884 
L 275.883053 124.137987 
L 276.839239 143.663117 
L 277.318608 159.911698 
L 277.798711 153.303208 
L 278.274967 126.496556 
L 278.754969 81.477263 
L 279.234559 86.309338 
L 279.713497 113.445595 
L 280.671619 113.446593 
L 281.147709 124.35555 
L 281.627984 157.649594 
L 282.108801 132.244586 
L 282.587509 113.445249 
L 283.066325 113.375985 
L 283.542915 87.287304 
L 284.022695 86.539565 
L 284.502301 109.017217 
L 285.459085 82.885564 
L 285.938945 60.3015 
L 286.418215 60.997481 
L 286.894933 75.535218 
L 287.374931 94.085726 
L 287.853366 106.879428 
L 288.334188 114.368826 
L 288.810318 115.003963 
L 289.288894 112.44186 
L 289.768859 120.326592 
L 290.247995 123.828089 
L 290.728782 137.231795 
L 291.207732 137.406544 
L 291.683513 141.906364 
L 292.642831 122.084276 
L 293.122718 116.719801 
L 293.599021 118.651894 
L 294.078852 118.314138 
L 294.558305 133.509359 
L 295.51509 144.791132 
L 296.951813 125.959927 
L 297.91182 118.035635 
L 298.3912 118.250163 
L 298.867455 120.845164 
L 299.346293 121.263901 
L 299.82524 125.689425 
L 300.304218 121.831798 
L 300.78459 139.580453 
L 301.263691 131.586905 
L 302.700308 69.213919 
L 303.178383 86.719824 
L 303.656369 113.441509 
L 304.135312 113.434931 
L 304.613927 132.468434 
L 305.094534 146.736672 
L 305.573127 169.459581 
L 306.051214 133.695857 
L 306.53169 112.65889 
L 307.008057 100.88727 
L 307.488042 75.435202 
L 307.967167 83.42785 
L 308.446285 108.54453 
L 308.924812 91.147842 
L 309.403434 78.581905 
L 309.882116 54.698075 
L 310.360527 60.143251 
L 310.838619 77.340296 
L 311.320764 100.63907 
L 311.796801 110.439892 
L 312.754984 112.400132 
L 313.712874 112.492269 
L 314.191104 98.484327 
L 314.671558 66.282304 
L 315.149118 67.715484 
L 316.10751 128.006105 
L 316.587663 145.723458 
L 317.065459 155.175428 
L 317.544035 148.838227 
L 318.023269 118.309729 
L 318.502228 117.072675 
L 318.98214 93.964963 
L 319.461319 83.01504 
L 319.937745 82.443688 
L 321.376845 110.920004 
L 321.856409 138.443613 
L 322.334545 138.816406 
L 322.810845 115.101073 
L 323.29036 114.718244 
L 323.769785 113.767803 
L 324.249707 124.024015 
L 324.728012 129.342624 
L 325.205876 142.023074 
L 325.68695 145.441531 
L 326.164839 151.237633 
L 326.643193 155.560416 
L 327.121113 154.20648 
L 328.560493 133.681818 
L 329.516434 122.321229 
L 330.473978 113.649621 
L 331.434058 105.590197 
L 331.910814 104.451289 
L 332.389542 105.326388 
L 333.347392 109.592854 
L 333.826595 115.753809 
L 334.305396 118.845514 
L 334.783605 122.662308 
L 335.26319 122.001436 
L 335.741207 123.706475 
L 336.220106 127.135731 
L 336.699766 127.03418 
L 337.178063 122.525868 
L 337.656875 121.812832 
L 338.136584 119.679236 
L 338.616431 121.072994 
L 339.096152 119.927048 
L 339.572703 121.168426 
L 340.052004 119.638452 
L 340.531224 120.462214 
L 341.011525 122.480105 
L 341.487655 121.898649 
L 341.967649 117.899828 
L 342.447276 117.070024 
L 342.92479 115.157052 
L 343.404894 116.207525 
L 343.884646 115.004623 
L 344.361305 116.002536 
L 344.841051 113.079138 
L 345.318849 113.367451 
L 345.798444 116.026448 
L 346.278302 114.230315 
L 346.756711 105.380717 
L 347.235552 105.609529 
L 347.715253 101.496963 
L 348.194863 117.509235 
L 348.673556 128.217666 
L 349.152219 142.831215 
L 349.629698 141.421168 
L 350.110533 140.761052 
L 350.588701 137.552488 
L 351.066946 132.693858 
L 351.546865 124.983357 
L 352.025199 122.852034 
L 352.503795 122.078329 
L 353.459967 119.781912 
L 353.94186 115.709395 
L 354.419667 114.625878 
L 354.897881 109.807554 
L 355.375762 100.471321 
L 355.856425 101.170799 
L 356.33447 109.27702 
L 357.293609 103.321669 
L 357.771973 89.633393 
L 358.248826 91.683541 
L 358.728444 85.03787 
L 359.206535 91.647795 
L 359.687062 84.900991 
L 360.164769 72.058881 
L 360.644204 76.234009 
L 361.123293 100.278975 
L 362.080042 125.764921 
L 362.560389 122.301278 
L 363.040124 123.283639 
L 363.518555 115.453331 
L 363.994903 115.495508 
L 364.474506 108.544187 
L 364.953968 93.542848 
L 365.433541 90.681413 
L 365.913069 98.454796 
L 366.3893 97.933128 
L 366.869185 101.009779 
L 367.348189 97.261333 
L 367.827292 98.69598 
L 368.306989 96.099759 
L 368.786906 98.457359 
L 369.262828 97.765279 
L 369.743434 95.970206 
L 370.223467 96.768813 
L 370.699428 101.016862 
L 371.178983 102.889714 
L 371.65849 106.075644 
L 372.138535 107.050844 
L 372.618171 109.157667 
L 373.094098 108.901351 
L 373.574241 109.755766 
L 374.05423 106.842808 
L 374.533866 99.69117 
L 375.010507 96.891534 
L 375.49004 100.15419 
L 375.969393 100.110455 
L 376.448822 103.36645 
L 376.925411 102.322641 
L 377.406047 104.778623 
L 377.885251 102.875644 
L 378.362632 104.568918 
L 378.842712 101.942675 
L 379.320772 95.60581 
L 379.799372 94.050787 
L 380.277625 97.989693 
L 380.756339 97.743447 
L 381.235591 100.361619 
L 381.716739 98.952817 
L 382.193356 100.676947 
L 382.673293 99.178806 
L 383.153222 100.970146 
L 383.630873 99.931111 
L 384.109354 97.760921 
L 384.587527 98.363351 
L 385.066795 102.922556 
L 385.54551 104.246845 
L 386.025835 107.355934 
L 386.504447 107.131241 
L 386.982822 109.014254 
L 387.461383 107.75653 
L 387.942391 108.917911 
L 388.421497 106.824367 
L 388.900565 102.538786 
L 389.376837 102.075996 
L 389.856033 105.97786 
L 390.334134 106.376689 
L 390.813621 108.659848 
L 391.291484 107.024581 
L 391.771036 107.963228 
L 392.250621 105.257063 
L 392.730541 105.666934 
L 393.210051 102.632771 
L 393.686073 96.480196 
L 394.166099 95.054648 
L 394.645784 99.988837 
L 395.122469 100.032218 
L 395.602088 103.304876 
L 396.082328 101.925575 
L 396.56129 104.39763 
L 397.041049 103.568763 
L 397.517879 106.613537 
L 397.997896 106.403804 
L 398.476615 105.043793 
L 398.955199 106.316429 
L 399.434608 111.732547 
L 399.913222 112.538813 
L 400.392157 115.616301 
L 400.872658 114.595126 
L 401.350694 115.770507 
L 401.829105 112.650157 
L 402.307191 114.205105 
L 402.788019 109.226485 
L 403.263816 98.553747 
L 403.744606 97.213036 
L 404.222607 105.67769 
L 405.181834 109.005091 
L 405.658362 105.141603 
L 406.138283 105.299632 
L 406.616824 104.696334 
L 407.097388 107.276273 
L 407.573829 107.961257 
L 408.05417 107.854788 
L 408.533262 108.621225 
L 409.01335 110.66357 
L 409.489077 111.723647 
L 410.92606 113.429878 
L 411.405537 114.512029 
L 412.842436 116.943323 
L 413.32207 116.912112 
L 414.759152 114.967758 
L 415.238633 113.748124 
L 415.716361 112.907526 
L 416.197124 111.648102 
L 417.152259 111.632823 
L 417.632866 111.241387 
L 418.110817 111.555839 
L 418.590617 112.752419 
L 419.546798 112.708895 
L 420.026546 112.378366 
L 420.506769 112.832085 
L 420.983916 112.981622 
L 421.463793 113.263894 
L 422.422454 112.997877 
L 422.899536 113.228267 
L 423.379061 113.7264 
L 424.335338 113.891392 
L 424.814547 113.974551 
L 426.253471 114.819061 
L 427.209003 115.12632 
L 427.68928 114.973607 
L 428.168697 114.334962 
L 428.646086 113.892387 
L 429.605116 113.386168 
L 430.081325 113.218195 
L 431.519519 113.461325 
L 432.478648 113.352938 
L 439.181095 113.424957 
L 448.758595 113.432486 
L 465.52257 113.648846 
L 466.956953 113.64853 
L 467.914009 113.414224 
L 468.87364 112.910741 
L 469.831913 112.179292 
L 471.265452 110.942205 
L 472.224929 110.517848 
L 472.703636 110.472632 
L 472.703636 110.472632 
" clip-path="url(#pe4bac40524)" style="fill: none; stroke: #1f77b4; stroke-width: 1.5; stroke-linecap: square"/>
   </g>
   <g id="patch_3">
    <path d="M 42.28 175.197656 
L 42.28 48.96 
" style="fill: none; stroke: #000000; stroke-width: 0.8; stroke-linejoin: miter; stroke-linecap: square"/>
   </g>
   <g id="patch_4">
    <path d="M 493.2 175.197656 
L 493.2 48.96 
" style="fill: none; stroke: #000000; stroke-width: 0.8; stroke-linejoin: miter; stroke-linecap: square"/>
   </g>
   <g id="patch_5">
    <path d="M 42.28 175.197656 
L 493.2 175.197656 
" style="fill: none; stroke: #000000; stroke-width: 0.8; stroke-linejoin: miter; stroke-linecap: square"/>
   </g>
   <g id="patch_6">
    <path d="M 42.28 48.96 
L 493.2 48.96 
" style="fill: none; stroke: #000000; stroke-width: 0.8; stroke-linejoin: miter; stroke-linecap: square"/>
   </g>
   <g id="text_14">
    <!-- $\delta_e$ (rad) -->
    <g transform="translate(244.76 42.96) scale(0.12 -0.12)">
     <defs>
      <path id="DejaVuSans-Oblique-348" d="M 3472 4053 
Q 3197 4272 2450 4272 
Q 1659 4272 1588 3906 
Q 1531 3619 2328 3469 
Q 2953 3353 3253 3003 
Q 3616 2581 3447 1716 
Q 3284 888 2763 400 
Q 2238 -91 1488 -91 
Q 741 -91 406 400 
Q 72 888 241 1747 
Q 363 2384 891 2900 
Q 1097 3100 1353 3213 
Q 913 3459 1000 3900 
Q 1166 4750 2544 4750 
Q 3234 4750 3566 4531 
L 3472 4053 
z
M 1753 3056 
Q 1525 2966 1306 2738 
Q 969 2384 847 1747 
Q 722 1113 919 756 
Q 1119 397 1584 397 
Q 2044 397 2381 759 
Q 2722 1122 2838 1716 
Q 2956 2338 2731 2638 
Q 2491 2959 2103 2994 
Q 1906 3013 1753 3056 
z
" transform="scale(0.015625)"/>
      <path id="DejaVuSans-Oblique-48" d="M 3078 2063 
Q 3088 2113 3092 2166 
Q 3097 2219 3097 2272 
Q 3097 2653 2873 2875 
Q 2650 3097 2266 3097 
Q 1838 3097 1509 2826 
Q 1181 2556 1013 2059 
L 3078 2063 
z
M 3578 1613 
L 903 1613 
Q 884 1494 878 1425 
Q 872 1356 872 1306 
Q 872 872 1139 634 
Q 1406 397 1894 397 
Q 2269 397 2603 481 
Q 2938 566 3225 728 
L 3116 159 
Q 2806 34 2476 -28 
Q 2147 -91 1806 -91 
Q 1078 -91 686 257 
Q 294 606 294 1247 
Q 294 1794 489 2264 
Q 684 2734 1063 3103 
Q 1306 3334 1642 3459 
Q 1978 3584 2356 3584 
Q 2950 3584 3301 3228 
Q 3653 2872 3653 2272 
Q 3653 2128 3634 1964 
Q 3616 1800 3578 1613 
z
" transform="scale(0.015625)"/>
      <path id="DejaVuSans-55" d="M 2631 2963 
Q 2534 3019 2420 3045 
Q 2306 3072 2169 3072 
Q 1681 3072 1420 2755 
Q 1159 2438 1159 1844 
L 1159 0 
L 581 0 
L 581 3500 
L 1159 3500 
L 1159 2956 
Q 1341 3275 1631 3429 
Q 1922 3584 2338 3584 
Q 2397 3584 2469 3576 
Q 2541 3569 2628 3553 
L 2631 2963 
z
" transform="scale(0.015625)"/>
      <path id="DejaVuSans-44" d="M 2194 1759 
Q 1497 1759 1228 1600 
Q 959 1441 959 1056 
Q 959 750 1161 570 
Q 1363 391 1709 391 
Q 2188 391 2477 730 
Q 2766 1069 2766 1631 
L 2766 1759 
L 2194 1759 
z
M 3341 1997 
L 3341 0 
L 2766 0 
L 2766 531 
Q 2569 213 2275 61 
Q 1981 -91 1556 -91 
Q 1019 -91 701 211 
Q 384 513 384 1019 
Q 384 1609 779 1909 
Q 1175 2209 1959 2209 
L 2766 2209 
L 2766 2266 
Q 2766 2663 2505 2880 
Q 2244 3097 1772 3097 
Q 1472 3097 1187 3025 
Q 903 2953 641 2809 
L 641 3341 
Q 956 3463 1253 3523 
Q 1550 3584 1831 3584 
Q 2591 3584 2966 3190 
Q 3341 2797 3341 1997 
z
" transform="scale(0.015625)"/>
      <path id="DejaVuSans-47" d="M 2906 2969 
L 2906 4863 
L 3481 4863 
L 3481 0 
L 2906 0 
L 2906 525 
Q 2725 213 2448 61 
Q 2172 -91 1784 -91 
Q 1150 -91 751 415 
Q 353 922 353 1747 
Q 353 2572 751 3078 
Q 1150 3584 1784 3584 
Q 2172 3584 2448 3432 
Q 2725 3281 2906 2969 
z
M 947 1747 
Q 947 1113 1208 752 
Q 1469 391 1925 391 
Q 2381 391 2643 752 
Q 2906 1113 2906 1747 
Q 2906 2381 2643 2742 
Q 2381 3103 1925 3103 
Q 1469 3103 1208 2742 
Q 947 2381 947 1747 
z
" transform="scale(0.015625)"/>
     </defs>
     <use xlink:href="#DejaVuSans-Oblique-348" transform="translate(0 0.015625)"/>
     <use xlink:href="#DejaVuSans-Oblique-48" transform="translate(61.181641 -14.984326) scale(0.7)"/>
     <use xlink:href="#DejaVuSans-3" transform="translate(106.982422 0.015625)"/>
     <use xlink:href="#DejaVuSans-b" transform="translate(138.769531 0.015625)"/>
     <use xlink:href="#DejaVuSans-55" transform="translate(177.783203 0.015625)"/>
     <use xlink:href="#DejaVuSans-44" transform="translate(218.896484 0.015625)"/>
     <use xlink:href="#DejaVuSans-47" transform="translate(280.175781 0.015625)"/>
     <use xlink:href="#DejaVuSans-c" transform="translate(343.652344 0.015625)"/>
    </g>
   </g>
   <g id="legend_1">
    <g id="patch_7">
     <path d="M 443.5 71.960781 
L 486.2 71.960781 
Q 488.2 71.960781 488.2 69.960781 
L 488.2 55.96 
Q 488.2 53.96 486.2 53.96 
L 443.5 53.96 
Q 441.5 53.96 441.5 55.96 
L 441.5 69.960781 
Q 441.5 71.960781 443.5 71.960781 
z
" style="fill: #ffffff; opacity: 0.8; stroke: #cccccc; stroke-linejoin: miter"/>
    </g>
    <g id="line2d_26">
     <path d="M 445.5 62.058437 
L 455.5 62.058437 
L 465.5 62.058437 
" style="fill: none; stroke: #1f77b4; stroke-width: 1.5; stroke-linecap: square"/>
    </g>
    <g id="text_15">
     <!-- $\delta_e$ -->
     <g transform="translate(473.5 65.558437) scale(0.1 -0.1)">
      <use xlink:href="#DejaVuSans-Oblique-348" transform="translate(0 0.78125)"/>
      <use xlink:href="#DejaVuSans-Oblique-48" transform="translate(61.181641 -14.218701) scale(0.7)"/>
     </g>
    </g>
   </g>
  </g>
  <g id="axes_2">
   <g id="patch_8">
    <path d="M 42.28 361.077656 
L 493.2 361.077656 
L 493.2 234.84 
L 42.28 234.84 
z
" style="fill: #ffffff"/>
   </g>
   <g id="matplotlib.axis_3">
    <g id="xtick_8">
     <g id="line2d_27">
      <path d="M 62.338832 361.077656 
L 62.338832 234.84 
" clip-path="url(#p248dbb89ac)" style="fill: none; stroke: #b0b0b0; stroke-width: 0.8; stroke-linecap: square"/>
     </g>
     <g id="line2d_28">
      <g>
       <use xlink:href="#mb1df14dafe" x="62.338832" y="361.077656" style="stroke: #000000; stroke-width: 0.8"/>
      </g>
     </g>
     <g id="text_16">
      <!-- 0 -->
      <g transform="translate(59.157582 375.675312) scale(0.1 -0.1)">
       <use xlink:href="#DejaVuSans-13"/>
      </g>
     </g>
    </g>
    <g id="xtick_9">
     <g id="line2d_29">
      <path d="M 130.751089 361.077656 
L 130.751089 234.84 
" clip-path="url(#p248dbb89ac)" style="fill: none; stroke: #b0b0b0; stroke-width: 0.8; stroke-linecap: square"/>
     </g>
     <g id="line2d_30">
      <g>
       <use xlink:href="#mb1df14dafe" x="130.751089" y="361.077656" style="stroke: #000000; stroke-width: 0.8"/>
      </g>
     </g>
     <g id="text_17">
      <!-- 10 -->
      <g transform="translate(124.388589 375.675312) scale(0.1 -0.1)">
       <use xlink:href="#DejaVuSans-14"/>
       <use xlink:href="#DejaVuSans-13" transform="translate(63.625 0)"/>
      </g>
     </g>
    </g>
    <g id="xtick_10">
     <g id="line2d_31">
      <path d="M 199.163346 361.077656 
L 199.163346 234.84 
" clip-path="url(#p248dbb89ac)" style="fill: none; stroke: #b0b0b0; stroke-width: 0.8; stroke-linecap: square"/>
     </g>
     <g id="line2d_32">
      <g>
       <use xlink:href="#mb1df14dafe" x="199.163346" y="361.077656" style="stroke: #000000; stroke-width: 0.8"/>
      </g>
     </g>
     <g id="text_18">
      <!-- 20 -->
      <g transform="translate(192.800846 375.675312) scale(0.1 -0.1)">
       <use xlink:href="#DejaVuSans-15"/>
       <use xlink:href="#DejaVuSans-13" transform="translate(63.625 0)"/>
      </g>
     </g>
    </g>
    <g id="xtick_11">
     <g id="line2d_33">
      <path d="M 267.575603 361.077656 
L 267.575603 234.84 
" clip-path="url(#p248dbb89ac)" style="fill: none; stroke: #b0b0b0; stroke-width: 0.8; stroke-linecap: square"/>
     </g>
     <g id="line2d_34">
      <g>
       <use xlink:href="#mb1df14dafe" x="267.575603" y="361.077656" style="stroke: #000000; stroke-width: 0.8"/>
      </g>
     </g>
     <g id="text_19">
      <!-- 30 -->
      <g transform="translate(261.213103 375.675312) scale(0.1 -0.1)">
       <use xlink:href="#DejaVuSans-16"/>
       <use xlink:href="#DejaVuSans-13" transform="translate(63.625 0)"/>
      </g>
     </g>
    </g>
    <g id="xtick_12">
     <g id="line2d_35">
      <path d="M 335.987859 361.077656 
L 335.987859 234.84 
" clip-path="url(#p248dbb89ac)" style="fill: none; stroke: #b0b0b0; stroke-width: 0.8; stroke-linecap: square"/>
     </g>
     <g id="line2d_36">
      <g>
       <use xlink:href="#mb1df14dafe" x="335.987859" y="361.077656" style="stroke: #000000; stroke-width: 0.8"/>
      </g>
     </g>
     <g id="text_20">
      <!-- 40 -->
      <g transform="translate(329.625359 375.675312) scale(0.1 -0.1)">
       <use xlink:href="#DejaVuSans-17"/>
       <use xlink:href="#DejaVuSans-13" transform="translate(63.625 0)"/>
      </g>
     </g>
    </g>
    <g id="xtick_13">
     <g id="line2d_37">
      <path d="M 404.400116 361.077656 
L 404.400116 234.84 
" clip-path="url(#p248dbb89ac)" style="fill: none; stroke: #b0b0b0; stroke-width: 0.8; stroke-linecap: square"/>
     </g>
     <g id="line2d_38">
      <g>
       <use xlink:href="#mb1df14dafe" x="404.400116" y="361.077656" style="stroke: #000000; stroke-width: 0.8"/>
      </g>
     </g>
     <g id="text_21">
      <!-- 50 -->
      <g transform="translate(398.037616 375.675312) scale(0.1 -0.1)">
       <use xlink:href="#DejaVuSans-18"/>
       <use xlink:href="#DejaVuSans-13" transform="translate(63.625 0)"/>
      </g>
     </g>
    </g>
    <g id="xtick_14">
     <g id="line2d_39">
      <path d="M 472.812373 361.077656 
L 472.812373 234.84 
" clip-path="url(#p248dbb89ac)" style="fill: none; stroke: #b0b0b0; stroke-width: 0.8; stroke-linecap: square"/>
     </g>
     <g id="line2d_40">
      <g>
       <use xlink:href="#mb1df14dafe" x="472.812373" y="361.077656" style="stroke: #000000; stroke-width: 0.8"/>
      </g>
     </g>
     <g id="text_22">
      <!-- 60 -->
      <g transform="translate(466.449873 375.675312) scale(0.1 -0.1)">
       <use xlink:href="#DejaVuSans-19"/>
       <use xlink:href="#DejaVuSans-13" transform="translate(63.625 0)"/>
      </g>
     </g>
    </g>
    <g id="text_23">
     <!-- t (s) -->
     <g transform="translate(257.684531 389.675312) scale(0.1 -0.1)">
      <use xlink:href="#DejaVuSans-57"/>
      <use xlink:href="#DejaVuSans-3" transform="translate(39.203125 0)"/>
      <use xlink:href="#DejaVuSans-b" transform="translate(70.984375 0)"/>
      <use xlink:href="#DejaVuSans-56" transform="translate(110 0)"/>
      <use xlink:href="#DejaVuSans-c" transform="translate(162.09375 0)"/>
     </g>
    </g>
   </g>
   <g id="matplotlib.axis_4">
    <g id="ytick_6">
     <g id="line2d_41">
      <path d="M 42.28 347.586946 
L 493.2 347.586946 
" clip-path="url(#p248dbb89ac)" style="fill: none; stroke: #b0b0b0; stroke-width: 0.8; stroke-linecap: square"/>
     </g>
     <g id="line2d_42">
      <g>
       <use xlink:href="#mc14df9a3ea" x="42.28" y="347.586946" style="stroke: #000000; stroke-width: 0.8"/>
      </g>
     </g>
     <g id="text_24">
      <!-- −0.50 -->
      <g transform="translate(4.634688 351.385774) scale(0.1 -0.1)">
       <use xlink:href="#DejaVuSans-c9c"/>
       <use xlink:href="#DejaVuSans-13" transform="translate(83.796875 0)"/>
       <use xlink:href="#DejaVuSans-11" transform="translate(147.421875 0)"/>
       <use xlink:href="#DejaVuSans-18" transform="translate(179.203125 0)"/>
       <use xlink:href="#DejaVuSans-13" transform="translate(242.828125 0)"/>
      </g>
     </g>
    </g>
    <g id="ytick_7">
     <g id="line2d_43">
      <path d="M 42.28 323.266745 
L 493.2 323.266745 
" clip-path="url(#p248dbb89ac)" style="fill: none; stroke: #b0b0b0; stroke-width: 0.8; stroke-linecap: square"/>
     </g>
     <g id="line2d_44">
      <g>
       <use xlink:href="#mc14df9a3ea" x="42.28" y="323.266745" style="stroke: #000000; stroke-width: 0.8"/>
      </g>
     </g>
     <g id="text_25">
      <!-- −0.25 -->
      <g transform="translate(4.634688 327.065573) scale(0.1 -0.1)">
       <use xlink:href="#DejaVuSans-c9c"/>
       <use xlink:href="#DejaVuSans-13" transform="translate(83.796875 0)"/>
       <use xlink:href="#DejaVuSans-11" transform="translate(147.421875 0)"/>
       <use xlink:href="#DejaVuSans-15" transform="translate(179.203125 0)"/>
       <use xlink:href="#DejaVuSans-18" transform="translate(242.828125 0)"/>
      </g>
     </g>
    </g>
    <g id="ytick_8">
     <g id="line2d_45">
      <path d="M 42.28 298.946544 
L 493.2 298.946544 
" clip-path="url(#p248dbb89ac)" style="fill: none; stroke: #b0b0b0; stroke-width: 0.8; stroke-linecap: square"/>
     </g>
     <g id="line2d_46">
      <g>
       <use xlink:href="#mc14df9a3ea" x="42.28" y="298.946544" style="stroke: #000000; stroke-width: 0.8"/>
      </g>
     </g>
     <g id="text_26">
      <!-- 0.00 -->
      <g transform="translate(13.014375 302.745372) scale(0.1 -0.1)">
       <use xlink:href="#DejaVuSans-13"/>
       <use xlink:href="#DejaVuSans-11" transform="translate(63.625 0)"/>
       <use xlink:href="#DejaVuSans-13" transform="translate(95.40625 0)"/>
       <use xlink:href="#DejaVuSans-13" transform="translate(159.03125 0)"/>
      </g>
     </g>
    </g>
    <g id="ytick_9">
     <g id="line2d_47">
      <path d="M 42.28 274.626344 
L 493.2 274.626344 
" clip-path="url(#p248dbb89ac)" style="fill: none; stroke: #b0b0b0; stroke-width: 0.8; stroke-linecap: square"/>
     </g>
     <g id="line2d_48">
      <g>
       <use xlink:href="#mc14df9a3ea" x="42.28" y="274.626344" style="stroke: #000000; stroke-width: 0.8"/>
      </g>
     </g>
     <g id="text_27">
      <!-- 0.25 -->
      <g transform="translate(13.014375 278.425172) scale(0.1 -0.1)">
       <use xlink:href="#DejaVuSans-13"/>
       <use xlink:href="#DejaVuSans-11" transform="translate(63.625 0)"/>
       <use xlink:href="#DejaVuSans-15" transform="translate(95.40625 0)"/>
       <use xlink:href="#DejaVuSans-18" transform="translate(159.03125 0)"/>
      </g>
     </g>
    </g>
    <g id="ytick_10">
     <g id="line2d_49">
      <path d="M 42.28 250.306143 
L 493.2 250.306143 
" clip-path="url(#p248dbb89ac)" style="fill: none; stroke: #b0b0b0; stroke-width: 0.8; stroke-linecap: square"/>
     </g>
     <g id="line2d_50">
      <g>
       <use xlink:href="#mc14df9a3ea" x="42.28" y="250.306143" style="stroke: #000000; stroke-width: 0.8"/>
      </g>
     </g>
     <g id="text_28">
      <!-- 0.50 -->
      <g transform="translate(13.014375 254.104971) scale(0.1 -0.1)">
       <use xlink:href="#DejaVuSans-13"/>
       <use xlink:href="#DejaVuSans-11" transform="translate(63.625 0)"/>
       <use xlink:href="#DejaVuSans-18" transform="translate(95.40625 0)"/>
       <use xlink:href="#DejaVuSans-13" transform="translate(159.03125 0)"/>
      </g>
     </g>
    </g>
   </g>
   <g id="line2d_51">
    <path d="M 62.776364 294.611641 
L 63.254825 298.946637 
L 72.355624 298.946559 
L 72.833046 297.545888 
L 73.311716 288.202239 
L 73.790912 275.806024 
L 74.2717 266.668862 
L 74.751105 254.865872 
L 75.228558 246.412177 
L 75.708008 240.578077 
L 81.933764 240.578078 
L 82.412035 249.601784 
L 83.367813 277.429409 
L 84.804456 259.326183 
L 85.285802 254.069327 
L 86.242112 247.337342 
L 87.201637 243.445752 
L 87.677961 242.558963 
L 88.636407 254.858794 
L 89.595612 263.698573 
L 91.031532 274.301654 
L 92.467336 284.137921 
L 92.948123 285.251896 
L 93.424824 291.56006 
L 94.383247 297.849391 
L 94.863925 299.087509 
L 95.342943 304.40465 
L 95.821211 307.891831 
L 96.29847 338.216189 
L 96.778248 342.662558 
L 98.214243 348.814366 
L 98.693526 350.443725 
L 99.172591 351.288157 
L 99.650829 351.85601 
L 100.131219 351.827283 
L 100.610311 351.131162 
L 101.089908 350.081574 
L 102.045863 345.719443 
L 103.003121 338.431868 
L 103.481322 332.847345 
L 103.962256 333.995538 
L 104.441651 348.114753 
L 104.921061 355.339581 
L 105.397059 340.078966 
L 105.87612 339.89601 
L 106.357094 312.647411 
L 106.835714 298.992243 
L 107.313804 295.719738 
L 107.791938 290.604604 
L 109.230165 268.249478 
L 110.18843 255.618493 
L 110.665703 283.403932 
L 111.143981 287.658702 
L 111.625378 300.789845 
L 112.102585 302.598988 
L 112.583519 309.406927 
L 113.060073 307.719212 
L 113.537987 310.760504 
L 114.018577 301.561742 
L 114.498965 300.401354 
L 114.977771 289.95814 
L 115.455254 308.250693 
L 115.934823 299.941433 
L 116.413423 301.540851 
L 116.890901 293.100721 
L 117.370925 294.863527 
L 117.849198 287.201785 
L 118.329595 290.11074 
L 118.806532 283.854667 
L 119.284269 288.484127 
L 119.763819 283.670782 
L 120.244039 307.749175 
L 120.724444 303.214415 
L 121.203077 307.391286 
L 121.679845 301.932108 
L 122.159521 305.26977 
L 122.639717 297.360351 
L 123.117223 300.254512 
L 123.596276 292.835865 
L 124.07393 296.574147 
L 124.554182 289.728523 
L 125.033733 313.219456 
L 125.511962 307.029044 
L 125.992071 310.453742 
L 126.46754 301.633217 
L 126.94724 303.141486 
L 127.427869 292.914281 
L 127.90665 294.274017 
L 128.38468 283.921869 
L 128.86558 287.207484 
L 129.34294 282.599621 
L 129.822026 284.100598 
L 130.302112 299.104738 
L 130.777741 306.081978 
L 131.258945 299.221927 
L 131.737372 305.02356 
L 132.216954 297.06518 
L 132.697148 302.372454 
L 133.17457 294.080014 
L 133.651241 299.677077 
L 134.130912 291.470815 
L 134.610138 297.802497 
L 135.088881 313.204132 
L 135.566912 318.732517 
L 136.048122 307.037749 
L 136.526142 308.860542 
L 137.005418 295.161385 
L 137.483194 297.327346 
L 137.96287 291.188617 
L 138.441784 290.697913 
L 138.920828 288.463006 
L 139.400321 289.201547 
L 139.876548 301.536977 
L 140.356039 306.031047 
L 140.836015 295.273462 
L 141.314748 297.930546 
L 141.794211 290.588362 
L 142.27378 291.49654 
L 142.75003 288.31858 
L 143.229751 289.739428 
L 143.709852 291.567442 
L 144.190334 297.864649 
L 144.668437 297.528694 
L 145.144546 307.808748 
L 145.623631 322.491571 
L 146.102761 326.838972 
L 146.582059 326.951946 
L 147.060583 327.341207 
L 147.539541 327.41745 
L 148.017739 326.267758 
L 148.978373 309.334326 
L 149.457313 297.020299 
L 149.933603 288.180836 
L 150.413805 275.982698 
L 150.893632 269.763239 
L 151.371486 269.529022 
L 151.850926 269.763322 
L 152.80953 269.763521 
L 153.286485 269.577606 
L 153.766108 269.763917 
L 154.244765 269.601716 
L 155.201972 307.265106 
L 155.681491 302.46577 
L 156.160974 298.946036 
L 159.034939 298.946359 
L 159.512748 299.186712 
L 161.905668 340.432734 
L 162.863126 352.119254 
L 163.345146 349.372893 
L 163.823128 340.000809 
L 164.300049 326.458092 
L 164.781761 300.926386 
L 165.738663 276.639492 
L 166.694868 291.428522 
L 167.174977 293.57012 
L 167.653041 293.334838 
L 168.1326 291.24749 
L 169.089143 281.878716 
L 169.569588 274.898144 
L 170.047575 271.402573 
L 170.527638 272.546519 
L 171.005494 287.33798 
L 171.485377 291.745727 
L 171.961963 306.431938 
L 172.442437 308.641739 
L 173.400751 316.955139 
L 173.879716 321.417157 
L 174.358237 327.218513 
L 174.837944 325.519514 
L 175.316224 309.606005 
L 175.795121 304.288332 
L 176.274028 288.166962 
L 176.752 285.942044 
L 177.230185 274.448524 
L 177.709564 276.249838 
L 178.190361 288.192817 
L 178.667017 293.90459 
L 179.145939 287.294273 
L 179.624618 293.120004 
L 180.103902 286.578414 
L 180.585075 293.196454 
L 181.062952 287.049389 
L 181.539816 294.991072 
L 182.020927 289.598547 
L 182.499899 298.033641 
L 182.979357 315.008278 
L 183.455472 322.674559 
L 183.934438 312.699949 
L 184.414903 315.198903 
L 184.894136 301.659889 
L 185.37312 301.423704 
L 185.849992 285.707585 
L 186.330324 285.104765 
L 186.808668 285.265272 
L 187.288176 293.903934 
L 187.768342 298.947959 
L 190.16267 298.948944 
L 190.640951 308.181964 
L 191.1207 313.165328 
L 191.598838 316.30714 
L 192.078192 309.882188 
L 193.51277 271.450504 
L 193.99095 267.141026 
L 194.473283 267.461259 
L 194.949142 268.258309 
L 195.428626 268.385715 
L 195.909125 268.873108 
L 196.388183 268.559807 
L 196.865074 269.483217 
L 197.344234 269.104044 
L 197.824117 269.466717 
L 198.30243 270.865246 
L 199.261165 289.62989 
L 199.738421 295.162953 
L 200.217459 298.726549 
L 200.696421 300.068029 
L 201.175875 300.463668 
L 201.656183 299.681794 
L 202.132384 320.09571 
L 202.611808 324.979672 
L 204.528503 310.877839 
L 205.005029 306.519315 
L 205.963704 300.189047 
L 206.443466 298.946175 
L 207.401921 298.946246 
L 207.881252 300.074705 
L 208.357741 303.281274 
L 209.317678 315.116045 
L 209.79661 323.565012 
L 210.275532 329.870174 
L 210.753642 316.867598 
L 211.230813 309.312686 
L 211.712192 306.966017 
L 212.189607 301.14025 
L 212.668789 285.950291 
L 213.148175 284.771165 
L 213.627136 276.573116 
L 214.106584 281.447854 
L 214.584028 278.469501 
L 215.062943 285.174613 
L 215.540962 280.474915 
L 216.022531 285.436301 
L 216.498421 299.278896 
L 216.978791 304.56241 
L 217.457673 295.68764 
L 217.937096 298.953241 
L 219.373793 298.948342 
L 219.853753 297.502053 
L 220.332627 292.420646 
L 220.811116 294.49424 
L 221.29011 313.423619 
L 221.765831 323.739996 
L 222.246689 319.289686 
L 222.726411 323.849601 
L 223.203212 318.601246 
L 223.684882 315.870254 
L 224.163078 311.806533 
L 224.642533 311.849125 
L 225.119138 299.84908 
L 225.599369 297.804324 
L 226.07815 302.191203 
L 226.555737 298.916306 
L 227.03516 280.978378 
L 227.51553 275.508648 
L 229.908441 295.120007 
L 230.386682 296.745082 
L 230.867079 297.229811 
L 231.345946 296.287416 
L 232.302258 290.115261 
L 233.261982 280.001015 
L 233.74091 277.370538 
L 234.217751 290.835893 
L 234.696253 290.791969 
L 235.17624 304.278662 
L 235.653668 310.029282 
L 236.612386 305.030729 
L 237.091275 304.63479 
L 237.570234 305.80591 
L 238.05051 307.870497 
L 240.442884 328.286739 
L 240.921791 321.893691 
L 241.401926 303.878988 
L 241.881827 298.680037 
L 242.357983 283.387253 
L 243.31764 277.447563 
L 243.797422 280.572159 
L 244.275597 280.482241 
L 245.234928 273.533768 
L 245.712217 282.438699 
L 246.191771 281.281049 
L 246.671146 292.60546 
L 247.147361 293.03492 
L 247.628724 303.248109 
L 248.107504 299.732379 
L 248.586786 305.40962 
L 249.064631 293.523017 
L 249.544033 298.960911 
L 250.023379 305.943113 
L 250.501517 307.790183 
L 250.979364 297.275248 
L 251.459463 302.998578 
L 251.938543 294.81536 
L 252.417246 300.196302 
L 252.894747 294.253853 
L 253.373384 298.954154 
L 254.332138 298.948496 
L 255.288417 305.888511 
L 255.767445 294.723872 
L 256.247997 295.409927 
L 256.724988 283.183021 
L 257.204419 288.409774 
L 257.683121 280.43406 
L 258.161887 288.866763 
L 258.641124 284.66931 
L 259.120686 293.66302 
L 259.599656 305.987639 
L 260.078435 310.348078 
L 260.557759 310.205207 
L 261.035879 310.994203 
L 261.515312 295.355517 
L 261.993858 293.666789 
L 262.472777 279.204089 
L 262.951412 281.350522 
L 263.430873 273.231386 
L 263.909352 278.325053 
L 264.388081 297.681772 
L 264.868593 307.416952 
L 265.347356 301.885628 
L 265.826476 309.639632 
L 266.30314 302.464136 
L 266.782111 308.59013 
L 267.263045 300.127176 
L 267.740703 304.928321 
L 268.218726 295.036551 
L 268.697295 298.548663 
L 269.177836 311.36967 
L 269.657103 313.587291 
L 270.135597 299.228506 
L 270.615271 298.539564 
L 271.0936 283.255104 
L 271.572444 284.571649 
L 272.049859 282.38237 
L 272.52999 293.79692 
L 273.008166 298.947616 
L 273.487312 298.947929 
L 273.967547 299.093702 
L 274.445822 301.66333 
L 274.924368 298.988373 
L 275.404149 290.00473 
L 275.883053 271.19746 
L 276.359579 274.131087 
L 276.839239 277.828735 
L 277.318608 292.421089 
L 277.798711 294.498665 
L 278.274967 298.944563 
L 279.234559 298.94599 
L 280.190224 347.475201 
L 280.671619 336.935072 
L 281.147709 334.053724 
L 281.627984 308.002184 
L 282.587509 291.86861 
L 283.066325 290.019696 
L 283.542915 295.468638 
L 284.022695 297.991759 
L 284.502301 298.947033 
L 286.418215 298.946874 
L 286.894933 297.995684 
L 287.374931 270.879212 
L 287.853366 251.59373 
L 288.334188 259.82706 
L 288.810318 278.476124 
L 289.288894 283.993835 
L 289.768859 298.601635 
L 290.247995 298.863789 
L 290.728782 300.341286 
L 291.207732 305.799662 
L 291.683513 308.445848 
L 292.162835 294.610369 
L 292.642831 293.667253 
L 293.122718 300.545151 
L 293.599021 299.266117 
L 294.078852 298.948038 
L 296.474909 298.950501 
L 296.951813 293.620721 
L 297.91182 273.924033 
L 298.3912 280.207651 
L 298.867455 279.847911 
L 299.346293 295.055945 
L 299.82524 298.717586 
L 300.304218 298.945109 
L 302.22235 298.945505 
L 302.700308 312.380737 
L 303.178383 330.355527 
L 303.656369 331.950384 
L 304.135312 324.477399 
L 304.613927 301.714419 
L 305.094534 295.582657 
L 305.573127 272.237919 
L 306.051214 270.45982 
L 306.53169 260.403954 
L 307.008057 258.108193 
L 307.488042 274.70474 
L 307.967167 298.947395 
L 311.796801 298.947468 
L 312.754984 256.927594 
L 313.234297 252.804971 
L 313.712874 257.458003 
L 314.191104 260.861043 
L 315.149118 293.285426 
L 315.628943 298.945815 
L 317.065459 298.946344 
L 317.544035 313.802841 
L 318.023269 345.708474 
L 318.502228 353.657842 
L 318.98214 340.113423 
L 319.461319 319.737158 
L 319.937745 306.172934 
L 320.419654 299.779657 
L 320.89853 298.946363 
L 321.376845 298.946361 
L 321.856409 301.342446 
L 322.334545 307.199369 
L 323.769785 334.525227 
L 324.728012 346.423768 
L 325.205876 343.174301 
L 325.68695 318.414129 
L 326.164839 304.985507 
L 327.121113 288.515347 
L 327.600656 281.528545 
L 328.079369 278.194044 
L 328.560493 273.866636 
L 329.516434 267.630817 
L 329.995955 272.025515 
L 330.473978 272.626271 
L 330.953029 284.371206 
L 331.434058 304.377377 
L 331.910814 314.721862 
L 332.389542 311.857452 
L 332.869824 316.16887 
L 333.347392 307.131222 
L 333.826595 307.570431 
L 334.305396 296.059588 
L 334.783605 295.926424 
L 335.26319 284.051978 
L 335.741207 286.875808 
L 336.220106 297.327599 
L 336.699766 301.588098 
L 337.178063 293.623069 
L 337.656875 298.215127 
L 338.136584 290.510693 
L 338.616431 296.250474 
L 339.096152 289.625592 
L 339.572703 296.688911 
L 340.052004 291.254925 
L 340.531224 299.277919 
L 341.011525 316.105844 
L 341.487655 323.311337 
L 341.967649 314.931275 
L 342.447276 318.292862 
L 342.92479 307.030281 
L 343.404894 308.065298 
L 343.884646 295.220301 
L 344.361305 295.832778 
L 344.841051 283.098813 
L 345.318849 284.496054 
L 345.798444 293.782693 
L 346.278302 295.532993 
L 346.756711 278.369517 
L 347.235552 281.74177 
L 347.715253 292.873449 
L 348.194863 298.947353 
L 351.066946 299.040894 
L 351.546865 300.028264 
L 352.025199 306.549792 
L 352.981916 289.450196 
L 353.459967 275.991061 
L 353.94186 266.476268 
L 354.419667 264.832348 
L 354.897881 266.184017 
L 355.375762 267.011343 
L 355.856425 268.381287 
L 356.33447 275.161672 
L 356.812933 294.660077 
L 357.293609 298.941536 
L 358.248826 298.945689 
L 358.728444 300.70804 
L 359.206535 313.100797 
L 359.687062 318.938974 
L 360.164769 320.546843 
L 360.644204 315.85883 
L 361.123293 309.442802 
L 362.080042 303.189705 
L 362.560389 302.223651 
L 363.040124 302.289011 
L 363.518555 303.200713 
L 364.474506 307.40501 
L 365.913069 316.305268 
L 367.348189 322.641743 
L 367.827292 324.077708 
L 368.306989 318.672652 
L 368.786906 302.477543 
L 369.262828 294.975993 
L 369.743434 292.708144 
L 370.223467 288.613253 
L 370.699428 278.122306 
L 371.178983 277.750642 
L 371.65849 271.589783 
L 372.138535 276.052974 
L 372.618171 274.461567 
L 373.094098 282.085615 
L 373.574241 283.189296 
L 374.05423 292.210337 
L 374.533866 307.817632 
L 375.010507 315.48152 
L 375.49004 313.607786 
L 375.969393 316.980524 
L 376.448822 311.151089 
L 376.925411 311.231569 
L 377.406047 302.864672 
L 377.885251 301.564795 
L 378.362632 292.943503 
L 378.842712 292.239952 
L 379.320772 297.232848 
L 379.799372 298.066235 
L 380.277625 291.210133 
L 380.756339 292.658729 
L 381.235591 286.874537 
L 381.716739 289.820654 
L 382.193356 285.655987 
L 382.673293 290.413209 
L 383.153222 287.63763 
L 383.630873 293.698779 
L 384.109354 306.23311 
L 384.587527 312.14418 
L 385.066795 308.158727 
L 385.54551 311.488359 
L 386.025835 305.316297 
L 386.504447 307.197324 
L 386.982822 299.882701 
L 387.461383 301.327024 
L 387.942391 294.133023 
L 388.421497 296.778108 
L 388.900565 306.158121 
L 389.376837 310.072957 
L 389.856033 304.174913 
L 390.334134 305.872192 
L 390.813621 298.172799 
L 391.291484 298.559572 
L 391.771036 289.87226 
L 392.250621 290.162107 
L 392.730541 280.57488 
L 393.210051 279.363437 
L 393.686073 286.876542 
L 394.166099 289.447897 
L 394.645784 288.012809 
L 396.56129 297.993434 
L 397.041049 298.947404 
L 398.476615 298.951725 
L 398.955199 305.606785 
L 399.434608 298.659464 
L 399.913222 302.040379 
L 400.392157 294.067549 
L 400.872658 300.344282 
L 401.350694 290.037902 
L 401.829105 299.439437 
L 402.307191 293.565647 
L 402.788019 297.117535 
L 403.263816 310.597742 
L 403.744606 315.736867 
L 404.222607 305.277746 
L 404.702171 308.196316 
L 405.181834 303.344799 
L 405.658362 307.161655 
L 406.138283 307.335298 
L 406.616824 313.030065 
L 407.097388 316.49528 
L 407.573829 317.004033 
L 408.05417 314.525043 
L 408.533262 312.812187 
L 409.96871 301.972691 
L 410.448373 297.034654 
L 410.92606 296.806129 
L 411.885875 291.582409 
L 412.36585 290.447215 
L 412.842436 289.896805 
L 413.32207 289.987902 
L 413.801843 291.126114 
L 414.27807 292.714967 
L 414.759152 296.574535 
L 415.238633 303.97818 
L 415.716361 317.910988 
L 416.197124 328.131019 
L 418.110817 328.130972 
L 418.590617 327.686158 
L 419.070125 325.130599 
L 419.546798 328.034849 
L 420.026546 320.993761 
L 422.422454 269.762436 
L 422.899536 269.762436 
L 423.379061 269.500233 
L 423.858708 269.762434 
L 424.814547 269.762434 
L 425.294174 269.634077 
L 425.773561 269.736698 
L 426.253471 269.2668 
L 426.729823 269.762439 
L 428.168697 269.76246 
L 428.646086 278.584282 
L 429.125679 285.114038 
L 431.040079 287.500324 
L 431.519519 287.722975 
L 431.99908 288.269646 
L 432.478648 288.386756 
L 432.954917 289.163903 
L 435.83052 290.469803 
L 436.309316 290.184704 
L 436.786714 290.347899 
L 437.265607 290.654196 
L 438.224586 290.636108 
L 438.70311 289.632161 
L 439.181095 290.507671 
L 440.619705 290.105663 
L 441.095968 289.570088 
L 441.577366 289.737304 
L 442.05609 289.086282 
L 442.534558 289.292617 
L 443.012753 291.307959 
L 443.491107 309.77176 
L 443.969898 317.723911 
L 450.676631 312.985919 
L 452.113081 311.892187 
L 453.54919 310.955957 
L 454.984094 310.023983 
L 458.335886 308.520376 
L 459.773396 308.155492 
L 461.209617 308.044118 
L 462.646623 308.197973 
L 463.605481 308.462853 
L 464.563729 308.868866 
L 465.52257 309.425479 
L 465.999475 309.712473 
L 467.914009 311.46238 
L 469.831913 313.841672 
L 470.786912 313.840139 
L 471.265452 312.860891 
L 472.703636 257.652387 
L 472.703636 257.652387 
" clip-path="url(#p248dbb89ac)" style="fill: none; stroke: #1f77b4; stroke-width: 1.5; stroke-linecap: square"/>
   </g>
   <g id="patch_9">
    <path d="M 42.28 361.077656 
L 42.28 234.84 
" style="fill: none; stroke: #000000; stroke-width: 0.8; stroke-linejoin: miter; stroke-linecap: square"/>
   </g>
   <g id="patch_10">
    <path d="M 493.2 361.077656 
L 493.2 234.84 
" style="fill: none; stroke: #000000; stroke-width: 0.8; stroke-linejoin: miter; stroke-linecap: square"/>
   </g>
   <g id="patch_11">
    <path d="M 42.28 361.077656 
L 493.2 361.077656 
" style="fill: none; stroke: #000000; stroke-width: 0.8; stroke-linejoin: miter; stroke-linecap: square"/>
   </g>
   <g id="patch_12">
    <path d="M 42.28 234.84 
L 493.2 234.84 
" style="fill: none; stroke: #000000; stroke-width: 0.8; stroke-linejoin: miter; stroke-linecap: square"/>
   </g>
   <g id="text_29">
    <!-- $a_{x,e}$ $\left(\mathrm{m/s^2}\right)$ -->
    <g transform="translate(236.18 228.84) scale(0.12 -0.12)">
     <defs>
      <path id="DejaVuSans-Oblique-44" d="M 3438 1997 
L 3047 0 
L 2472 0 
L 2578 531 
Q 2325 219 2001 64 
Q 1678 -91 1281 -91 
Q 834 -91 548 182 
Q 263 456 263 884 
Q 263 1497 752 1853 
Q 1241 2209 2100 2209 
L 2900 2209 
L 2931 2363 
Q 2938 2388 2941 2417 
Q 2944 2447 2944 2509 
Q 2944 2788 2717 2942 
Q 2491 3097 2081 3097 
Q 1800 3097 1504 3025 
Q 1209 2953 897 2809 
L 997 3341 
Q 1322 3463 1633 3523 
Q 1944 3584 2234 3584 
Q 2853 3584 3176 3315 
Q 3500 3047 3500 2534 
Q 3500 2431 3484 2292 
Q 3469 2153 3438 1997 
z
M 2816 1759 
L 2241 1759 
Q 1534 1759 1195 1570 
Q 856 1381 856 984 
Q 856 709 1029 553 
Q 1203 397 1509 397 
Q 1978 397 2328 733 
Q 2678 1069 2791 1631 
L 2816 1759 
z
" transform="scale(0.015625)"/>
      <path id="DejaVuSans-Oblique-5b" d="M 3841 3500 
L 2234 1784 
L 3219 0 
L 2559 0 
L 1819 1388 
L 531 0 
L -166 0 
L 1556 1844 
L 641 3500 
L 1300 3500 
L 1972 2234 
L 3144 3500 
L 3841 3500 
z
" transform="scale(0.015625)"/>
      <path id="DejaVuSans-f" d="M 750 794 
L 1409 794 
L 1409 256 
L 897 -744 
L 494 -744 
L 750 256 
L 750 794 
z
" transform="scale(0.015625)"/>
      <path id="STIXSizeOneSym-Regular-4" d="M 2445 -858 
L 2445 -1050 
Q 1728 -371 1309 630 
Q 890 1632 890 2886 
Q 890 4122 1309 5136 
Q 1728 6150 2445 6822 
L 2445 6630 
Q 1408 5363 1408 2886 
Q 1408 410 2445 -858 
z
" transform="scale(0.015625)"/>
      <path id="DejaVuSans-50" d="M 3328 2828 
Q 3544 3216 3844 3400 
Q 4144 3584 4550 3584 
Q 5097 3584 5394 3201 
Q 5691 2819 5691 2113 
L 5691 0 
L 5113 0 
L 5113 2094 
Q 5113 2597 4934 2840 
Q 4756 3084 4391 3084 
Q 3944 3084 3684 2787 
Q 3425 2491 3425 1978 
L 3425 0 
L 2847 0 
L 2847 2094 
Q 2847 2600 2669 2842 
Q 2491 3084 2119 3084 
Q 1678 3084 1418 2786 
Q 1159 2488 1159 1978 
L 1159 0 
L 581 0 
L 581 3500 
L 1159 3500 
L 1159 2956 
Q 1356 3278 1631 3431 
Q 1906 3584 2284 3584 
Q 2666 3584 2933 3390 
Q 3200 3197 3328 2828 
z
" transform="scale(0.015625)"/>
      <path id="DejaVuSans-12" d="M 1625 4666 
L 2156 4666 
L 531 -594 
L 0 -594 
L 1625 4666 
z
" transform="scale(0.015625)"/>
      <path id="STIXSizeOneSym-Regular-5" d="M 550 6630 
L 550 6822 
Q 1267 6144 1686 5142 
Q 2106 4141 2106 2886 
Q 2106 1651 1686 636 
Q 1267 -378 550 -1050 
L 550 -858 
Q 1587 410 1587 2886 
Q 1587 5363 550 6630 
z
" transform="scale(0.015625)"/>
     </defs>
     <use xlink:href="#DejaVuSans-Oblique-44" transform="translate(0 0.746875)"/>
     <use xlink:href="#DejaVuSans-Oblique-5b" transform="translate(61.279297 -14.253076) scale(0.7)"/>
     <use xlink:href="#DejaVuSans-f" transform="translate(102.705078 -14.253076) scale(0.7)"/>
     <use xlink:href="#DejaVuSans-Oblique-48" transform="translate(138.59375 -14.253076) scale(0.7)"/>
     <use xlink:href="#DejaVuSans-3" transform="translate(184.394531 0.746875)"/>
     <use xlink:href="#STIXSizeOneSym-Regular-4" transform="translate(216.181641 5.1375) scale(0.833613)"/>
     <use xlink:href="#DejaVuSans-50" transform="translate(255.193878 0.746875)"/>
     <use xlink:href="#DejaVuSans-12" transform="translate(352.605988 0.746875)"/>
     <use xlink:href="#DejaVuSans-56" transform="translate(386.297394 0.746875)"/>
     <use xlink:href="#DejaVuSans-15" transform="translate(439.354034 42.046875) scale(0.7)"/>
     <use xlink:href="#STIXSizeOneSym-Regular-5" transform="translate(486.624542 5.1375) scale(0.833613)"/>
    </g>
   </g>
   <g id="legend_2">
    <g id="patch_13">
     <path d="M 401.6 356.077656 
L 486.2 356.077656 
Q 488.2 356.077656 488.2 354.077656 
L 488.2 338.275312 
Q 488.2 336.275312 486.2 336.275312 
L 401.6 336.275312 
Q 399.6 336.275312 399.6 338.275312 
L 399.6 354.077656 
Q 399.6 356.077656 401.6 356.077656 
z
" style="fill: #ffffff; opacity: 0.8; stroke: #cccccc; stroke-linejoin: miter"/>
    </g>
    <g id="line2d_52">
     <path d="M 403.6 346.175312 
L 413.6 346.175312 
L 423.6 346.175312 
" style="fill: none; stroke: #1f77b4; stroke-width: 1.5; stroke-linecap: square"/>
    </g>
    <g id="text_30">
     <!-- $a_{x,e}$ $\left(\mathrm{m/s^2}\right)$ -->
     <g transform="translate(431.6 349.675312) scale(0.1 -0.1)">
      <use xlink:href="#DejaVuSans-Oblique-44" transform="translate(0 0.746875)"/>
      <use xlink:href="#DejaVuSans-Oblique-5b" transform="translate(61.279297 -14.253076) scale(0.7)"/>
      <use xlink:href="#DejaVuSans-f" transform="translate(102.705078 -14.253076) scale(0.7)"/>
      <use xlink:href="#DejaVuSans-Oblique-48" transform="translate(138.59375 -14.253076) scale(0.7)"/>
      <use xlink:href="#DejaVuSans-3" transform="translate(184.394531 0.746875)"/>
      <use xlink:href="#STIXSizeOneSym-Regular-4" transform="translate(216.181641 5.1375) scale(0.833613)"/>
      <use xlink:href="#DejaVuSans-50" transform="translate(255.193878 0.746875)"/>
      <use xlink:href="#DejaVuSans-12" transform="translate(352.605988 0.746875)"/>
      <use xlink:href="#DejaVuSans-56" transform="translate(386.297394 0.746875)"/>
      <use xlink:href="#DejaVuSans-15" transform="translate(439.354034 42.046875) scale(0.7)"/>
      <use xlink:href="#STIXSizeOneSym-Regular-5" transform="translate(486.624542 5.1375) scale(0.833613)"/>
     </g>
    </g>
   </g>
  </g>
  <g id="text_31">
   <!-- QCar2 Input Error -->
   <g transform="translate(199.15125 17.181188) scale(0.12 -0.12)">
    <defs>
     <path id="DejaVuSans-34" d="M 2522 4238 
Q 1834 4238 1429 3725 
Q 1025 3213 1025 2328 
Q 1025 1447 1429 934 
Q 1834 422 2522 422 
Q 3209 422 3611 934 
Q 4013 1447 4013 2328 
Q 4013 3213 3611 3725 
Q 3209 4238 2522 4238 
z
M 3406 84 
L 4238 -825 
L 3475 -825 
L 2784 -78 
Q 2681 -84 2626 -87 
Q 2572 -91 2522 -91 
Q 1538 -91 948 567 
Q 359 1225 359 2328 
Q 359 3434 948 4092 
Q 1538 4750 2522 4750 
Q 3503 4750 4090 4092 
Q 4678 3434 4678 2328 
Q 4678 1516 4351 937 
Q 4025 359 3406 84 
z
" transform="scale(0.015625)"/>
     <path id="DejaVuSans-26" d="M 4122 4306 
L 4122 3641 
Q 3803 3938 3442 4084 
Q 3081 4231 2675 4231 
Q 1875 4231 1450 3742 
Q 1025 3253 1025 2328 
Q 1025 1406 1450 917 
Q 1875 428 2675 428 
Q 3081 428 3442 575 
Q 3803 722 4122 1019 
L 4122 359 
Q 3791 134 3420 21 
Q 3050 -91 2638 -91 
Q 1578 -91 968 557 
Q 359 1206 359 2328 
Q 359 3453 968 4101 
Q 1578 4750 2638 4750 
Q 3056 4750 3426 4639 
Q 3797 4528 4122 4306 
z
" transform="scale(0.015625)"/>
     <path id="DejaVuSans-2c" d="M 628 4666 
L 1259 4666 
L 1259 0 
L 628 0 
L 628 4666 
z
" transform="scale(0.015625)"/>
     <path id="DejaVuSans-51" d="M 3513 2113 
L 3513 0 
L 2938 0 
L 2938 2094 
Q 2938 2591 2744 2837 
Q 2550 3084 2163 3084 
Q 1697 3084 1428 2787 
Q 1159 2491 1159 1978 
L 1159 0 
L 581 0 
L 581 3500 
L 1159 3500 
L 1159 2956 
Q 1366 3272 1645 3428 
Q 1925 3584 2291 3584 
Q 2894 3584 3203 3211 
Q 3513 2838 3513 2113 
z
" transform="scale(0.015625)"/>
     <path id="DejaVuSans-53" d="M 1159 525 
L 1159 -1331 
L 581 -1331 
L 581 3500 
L 1159 3500 
L 1159 2969 
Q 1341 3281 1617 3432 
Q 1894 3584 2278 3584 
Q 2916 3584 3314 3078 
Q 3713 2572 3713 1747 
Q 3713 922 3314 415 
Q 2916 -91 2278 -91 
Q 1894 -91 1617 61 
Q 1341 213 1159 525 
z
M 3116 1747 
Q 3116 2381 2855 2742 
Q 2594 3103 2138 3103 
Q 1681 3103 1420 2742 
Q 1159 2381 1159 1747 
Q 1159 1113 1420 752 
Q 1681 391 2138 391 
Q 2594 391 2855 752 
Q 3116 1113 3116 1747 
z
" transform="scale(0.015625)"/>
     <path id="DejaVuSans-58" d="M 544 1381 
L 544 3500 
L 1119 3500 
L 1119 1403 
Q 1119 906 1312 657 
Q 1506 409 1894 409 
Q 2359 409 2629 706 
Q 2900 1003 2900 1516 
L 2900 3500 
L 3475 3500 
L 3475 0 
L 2900 0 
L 2900 538 
Q 2691 219 2414 64 
Q 2138 -91 1772 -91 
Q 1169 -91 856 284 
Q 544 659 544 1381 
z
M 1991 3584 
L 1991 3584 
z
" transform="scale(0.015625)"/>
     <path id="DejaVuSans-28" d="M 628 4666 
L 3578 4666 
L 3578 4134 
L 1259 4134 
L 1259 2753 
L 3481 2753 
L 3481 2222 
L 1259 2222 
L 1259 531 
L 3634 531 
L 3634 0 
L 628 0 
L 628 4666 
z
" transform="scale(0.015625)"/>
     <path id="DejaVuSans-52" d="M 1959 3097 
Q 1497 3097 1228 2736 
Q 959 2375 959 1747 
Q 959 1119 1226 758 
Q 1494 397 1959 397 
Q 2419 397 2687 759 
Q 2956 1122 2956 1747 
Q 2956 2369 2687 2733 
Q 2419 3097 1959 3097 
z
M 1959 3584 
Q 2709 3584 3137 3096 
Q 3566 2609 3566 1747 
Q 3566 888 3137 398 
Q 2709 -91 1959 -91 
Q 1206 -91 779 398 
Q 353 888 353 1747 
Q 353 2609 779 3096 
Q 1206 3584 1959 3584 
z
" transform="scale(0.015625)"/>
    </defs>
    <use xlink:href="#DejaVuSans-34"/>
    <use xlink:href="#DejaVuSans-26" transform="translate(78.71875 0)"/>
    <use xlink:href="#DejaVuSans-44" transform="translate(148.546875 0)"/>
    <use xlink:href="#DejaVuSans-55" transform="translate(209.828125 0)"/>
    <use xlink:href="#DejaVuSans-15" transform="translate(250.9375 0)"/>
    <use xlink:href="#DejaVuSans-3" transform="translate(314.5625 0)"/>
    <use xlink:href="#DejaVuSans-2c" transform="translate(346.34375 0)"/>
    <use xlink:href="#DejaVuSans-51" transform="translate(375.84375 0)"/>
    <use xlink:href="#DejaVuSans-53" transform="translate(439.21875 0)"/>
    <use xlink:href="#DejaVuSans-58" transform="translate(502.703125 0)"/>
    <use xlink:href="#DejaVuSans-57" transform="translate(566.078125 0)"/>
    <use xlink:href="#DejaVuSans-3" transform="translate(605.28125 0)"/>
    <use xlink:href="#DejaVuSans-28" transform="translate(637.0625 0)"/>
    <use xlink:href="#DejaVuSans-55" transform="translate(700.25 0)"/>
    <use xlink:href="#DejaVuSans-55" transform="translate(739.609375 0)"/>
    <use xlink:href="#DejaVuSans-52" transform="translate(778.515625 0)"/>
    <use xlink:href="#DejaVuSans-55" transform="translate(839.703125 0)"/>
   </g>
  </g>
 </g>
 <defs>
  <clipPath id="pe4bac40524">
   <rect x="42.28" y="48.96" width="450.92" height="126.237656"/>
  </clipPath>
  <clipPath id="p248dbb89ac">
   <rect x="42.28" y="234.84" width="450.92" height="126.237656"/>
  </clipPath>
 </defs>
</svg>
