<?xml version="1.0" encoding="utf-8" standalone="no"?>
<!DOCTYPE svg PUBLIC "-//W3C//DTD SVG 1.1//EN"
  "http://www.w3.org/Graphics/SVG/1.1/DTD/svg11.dtd">
<svg xmlns:xlink="http://www.w3.org/1999/xlink" width="504pt" height="403.2pt" viewBox="0 0 504 403.2" xmlns="http://www.w3.org/2000/svg" version="1.1">
 <metadata>
  <rdf:RDF xmlns:dc="http://purl.org/dc/elements/1.1/" xmlns:cc="http://creativecommons.org/ns#" xmlns:rdf="http://www.w3.org/1999/02/22-rdf-syntax-ns#">
   <cc:Work>
    <dc:type rdf:resource="http://purl.org/dc/dcmitype/StillImage"/>
    <dc:date>2026-07-10T12:40:38.439705</dc:date>
    <dc:format>image/svg+xml</dc:format>
    <dc:creator>
     <cc:Agent>
      <dc:title>Matplotlib v3.11.0, https://matplotlib.org/</dc:title>
     </cc:Agent>
    </dc:creator>
   </cc:Work>
  </rdf:RDF>
 </metadata>
 <defs>
  <style type="text/css">*{stroke-linejoin: round; stroke-linecap: butt}</style>
 </defs>
 <g id="figure_1">
  <g id="patch_1">
   <path d="M 0 403.2 
L 504 403.2 
L 504 0 
L 0 0 
z
" style="fill: #ffffff"/>
  </g>
  <g id="axes_1">
   <g id="patch_2">
    <path d="M 42.28 175.197656 
L 493.2 175.197656 
L 493.2 48.96 
L 42.28 48.96 
z
" style="fill: #ffffff"/>
   </g>
   <g id="matplotlib.axis_1">
    <g id="xtick_1">
     <g id="line2d_1">
      <path d="M 62.33559 175.197656 
L 62.33559 48.96 
" clip-path="url(#pebf9e5a676)" style="fill: none; stroke: #b0b0b0; stroke-width: 0.8; stroke-linecap: square"/>
     </g>
     <g id="line2d_2">
      <defs>
       <path id="m5d418aafe8" d="M 0 0 
L 0 3.5 
" style="stroke: #000000; stroke-width: 0.8"/>
      </defs>
      <g>
       <use xlink:href="#m5d418aafe8" x="62.33559" y="175.197656" style="stroke: #000000; stroke-width: 0.8"/>
      </g>
     </g>
     <g id="text_1">
      <!-- 0 -->
      <g transform="translate(59.15434 189.795312) scale(0.1 -0.1)">
       <defs>
        <path id="DejaVuSans-13" d="M 2034 4250 
Q 1547 4250 1301 3770 
Q 1056 3291 1056 2328 
Q 1056 1369 1301 889 
Q 1547 409 2034 409 
Q 2525 409 2770 889 
Q 3016 1369 3016 2328 
Q 3016 3291 2770 3770 
Q 2525 4250 2034 4250 
z
M 2034 4750 
Q 2819 4750 3233 4129 
Q 3647 3509 3647 2328 
Q 3647 1150 3233 529 
Q 2819 -91 2034 -91 
Q 1250 -91 836 529 
Q 422 1150 422 2328 
Q 422 3509 836 4129 
Q 1250 4750 2034 4750 
z
" transform="scale(0.015625)"/>
       </defs>
       <use xlink:href="#DejaVuSans-13"/>
      </g>
     </g>
    </g>
    <g id="xtick_2">
     <g id="line2d_3">
      <path d="M 130.828054 175.197656 
L 130.828054 48.96 
" clip-path="url(#pebf9e5a676)" style="fill: none; stroke: #b0b0b0; stroke-width: 0.8; stroke-linecap: square"/>
     </g>
     <g id="line2d_4">
      <g>
       <use xlink:href="#m5d418aafe8" x="130.828054" y="175.197656" style="stroke: #000000; stroke-width: 0.8"/>
      </g>
     </g>
     <g id="text_2">
      <!-- 10 -->
      <g transform="translate(124.465554 189.795312) scale(0.1 -0.1)">
       <defs>
        <path id="DejaVuSans-14" d="M 794 531 
L 1825 531 
L 1825 4091 
L 703 3866 
L 703 4441 
L 1819 4666 
L 2450 4666 
L 2450 531 
L 3481 531 
L 3481 0 
L 794 0 
L 794 531 
z
" transform="scale(0.015625)"/>
       </defs>
       <use xlink:href="#DejaVuSans-14"/>
       <use xlink:href="#DejaVuSans-13" transform="translate(63.625 0)"/>
      </g>
     </g>
    </g>
    <g id="xtick_3">
     <g id="line2d_5">
      <path d="M 199.320517 175.197656 
L 199.320517 48.96 
" clip-path="url(#pebf9e5a676)" style="fill: none; stroke: #b0b0b0; stroke-width: 0.8; stroke-linecap: square"/>
     </g>
     <g id="line2d_6">
      <g>
       <use xlink:href="#m5d418aafe8" x="199.320517" y="175.197656" style="stroke: #000000; stroke-width: 0.8"/>
      </g>
     </g>
     <g id="text_3">
      <!-- 20 -->
      <g transform="translate(192.958017 189.795312) scale(0.1 -0.1)">
       <defs>
        <path id="DejaVuSans-15" d="M 1228 531 
L 3431 531 
L 3431 0 
L 469 0 
L 469 531 
Q 828 903 1448 1529 
Q 2069 2156 2228 2338 
Q 2531 2678 2651 2914 
Q 2772 3150 2772 3378 
Q 2772 3750 2511 3984 
Q 2250 4219 1831 4219 
Q 1534 4219 1204 4116 
Q 875 4013 500 3803 
L 500 4441 
Q 881 4594 1212 4672 
Q 1544 4750 1819 4750 
Q 2544 4750 2975 4387 
Q 3406 4025 3406 3419 
Q 3406 3131 3298 2873 
Q 3191 2616 2906 2266 
Q 2828 2175 2409 1742 
Q 1991 1309 1228 531 
z
" transform="scale(0.015625)"/>
       </defs>
       <use xlink:href="#DejaVuSans-15"/>
       <use xlink:href="#DejaVuSans-13" transform="translate(63.625 0)"/>
      </g>
     </g>
    </g>
    <g id="xtick_4">
     <g id="line2d_7">
      <path d="M 267.812981 175.197656 
L 267.812981 48.96 
" clip-path="url(#pebf9e5a676)" style="fill: none; stroke: #b0b0b0; stroke-width: 0.8; stroke-linecap: square"/>
     </g>
     <g id="line2d_8">
      <g>
       <use xlink:href="#m5d418aafe8" x="267.812981" y="175.197656" style="stroke: #000000; stroke-width: 0.8"/>
      </g>
     </g>
     <g id="text_4">
      <!-- 30 -->
      <g transform="translate(261.450481 189.795312) scale(0.1 -0.1)">
       <defs>
        <path id="DejaVuSans-16" d="M 2597 2516 
Q 3050 2419 3304 2112 
Q 3559 1806 3559 1356 
Q 3559 666 3084 287 
Q 2609 -91 1734 -91 
Q 1441 -91 1130 -33 
Q 819 25 488 141 
L 488 750 
Q 750 597 1062 519 
Q 1375 441 1716 441 
Q 2309 441 2620 675 
Q 2931 909 2931 1356 
Q 2931 1769 2642 2001 
Q 2353 2234 1838 2234 
L 1294 2234 
L 1294 2753 
L 1863 2753 
Q 2328 2753 2575 2939 
Q 2822 3125 2822 3475 
Q 2822 3834 2567 4026 
Q 2313 4219 1838 4219 
Q 1578 4219 1281 4162 
Q 984 4106 628 3988 
L 628 4550 
Q 988 4650 1302 4700 
Q 1616 4750 1894 4750 
Q 2613 4750 3031 4423 
Q 3450 4097 3450 3541 
Q 3450 3153 3228 2886 
Q 3006 2619 2597 2516 
z
" transform="scale(0.015625)"/>
       </defs>
       <use xlink:href="#DejaVuSans-16"/>
       <use xlink:href="#DejaVuSans-13" transform="translate(63.625 0)"/>
      </g>
     </g>
    </g>
    <g id="xtick_5">
     <g id="line2d_9">
      <path d="M 336.305445 175.197656 
L 336.305445 48.96 
" clip-path="url(#pebf9e5a676)" style="fill: none; stroke: #b0b0b0; stroke-width: 0.8; stroke-linecap: square"/>
     </g>
     <g id="line2d_10">
      <g>
       <use xlink:href="#m5d418aafe8" x="336.305445" y="175.197656" style="stroke: #000000; stroke-width: 0.8"/>
      </g>
     </g>
     <g id="text_5">
      <!-- 40 -->
      <g transform="translate(329.942945 189.795312) scale(0.1 -0.1)">
       <defs>
        <path id="DejaVuSans-17" d="M 2419 4116 
L 825 1625 
L 2419 1625 
L 2419 4116 
z
M 2253 4666 
L 3047 4666 
L 3047 1625 
L 3713 1625 
L 3713 1100 
L 3047 1100 
L 3047 0 
L 2419 0 
L 2419 1100 
L 313 1100 
L 313 1709 
L 2253 4666 
z
" transform="scale(0.015625)"/>
       </defs>
       <use xlink:href="#DejaVuSans-17"/>
       <use xlink:href="#DejaVuSans-13" transform="translate(63.625 0)"/>
      </g>
     </g>
    </g>
    <g id="xtick_6">
     <g id="line2d_11">
      <path d="M 404.797909 175.197656 
L 404.797909 48.96 
" clip-path="url(#pebf9e5a676)" style="fill: none; stroke: #b0b0b0; stroke-width: 0.8; stroke-linecap: square"/>
     </g>
     <g id="line2d_12">
      <g>
       <use xlink:href="#m5d418aafe8" x="404.797909" y="175.197656" style="stroke: #000000; stroke-width: 0.8"/>
      </g>
     </g>
     <g id="text_6">
      <!-- 50 -->
      <g transform="translate(398.435409 189.795312) scale(0.1 -0.1)">
       <defs>
        <path id="DejaVuSans-18" d="M 691 4666 
L 3169 4666 
L 3169 4134 
L 1269 4134 
L 1269 2991 
Q 1406 3038 1543 3061 
Q 1681 3084 1819 3084 
Q 2600 3084 3056 2656 
Q 3513 2228 3513 1497 
Q 3513 744 3044 326 
Q 2575 -91 1722 -91 
Q 1428 -91 1123 -41 
Q 819 9 494 109 
L 494 744 
Q 775 591 1075 516 
Q 1375 441 1709 441 
Q 2250 441 2565 725 
Q 2881 1009 2881 1497 
Q 2881 1984 2565 2268 
Q 2250 2553 1709 2553 
Q 1456 2553 1204 2497 
Q 953 2441 691 2322 
L 691 4666 
z
" transform="scale(0.015625)"/>
       </defs>
       <use xlink:href="#DejaVuSans-18"/>
       <use xlink:href="#DejaVuSans-13" transform="translate(63.625 0)"/>
      </g>
     </g>
    </g>
    <g id="xtick_7">
     <g id="line2d_13">
      <path d="M 473.290372 175.197656 
L 473.290372 48.96 
" clip-path="url(#pebf9e5a676)" style="fill: none; stroke: #b0b0b0; stroke-width: 0.8; stroke-linecap: square"/>
     </g>
     <g id="line2d_14">
      <g>
       <use xlink:href="#m5d418aafe8" x="473.290372" y="175.197656" style="stroke: #000000; stroke-width: 0.8"/>
      </g>
     </g>
     <g id="text_7">
      <!-- 60 -->
      <g transform="translate(466.927872 189.795312) scale(0.1 -0.1)">
       <defs>
        <path id="DejaVuSans-19" d="M 2113 2584 
Q 1688 2584 1439 2293 
Q 1191 2003 1191 1497 
Q 1191 994 1439 701 
Q 1688 409 2113 409 
Q 2538 409 2786 701 
Q 3034 994 3034 1497 
Q 3034 2003 2786 2293 
Q 2538 2584 2113 2584 
z
M 3366 4563 
L 3366 3988 
Q 3128 4100 2886 4159 
Q 2644 4219 2406 4219 
Q 1781 4219 1451 3797 
Q 1122 3375 1075 2522 
Q 1259 2794 1537 2939 
Q 1816 3084 2150 3084 
Q 2853 3084 3261 2657 
Q 3669 2231 3669 1497 
Q 3669 778 3244 343 
Q 2819 -91 2113 -91 
Q 1303 -91 875 529 
Q 447 1150 447 2328 
Q 447 3434 972 4092 
Q 1497 4750 2381 4750 
Q 2619 4750 2861 4703 
Q 3103 4656 3366 4563 
z
" transform="scale(0.015625)"/>
       </defs>
       <use xlink:href="#DejaVuSans-19"/>
       <use xlink:href="#DejaVuSans-13" transform="translate(63.625 0)"/>
      </g>
     </g>
    </g>
    <g id="text_8">
     <!-- t (s) -->
     <g transform="translate(257.684531 203.795312) scale(0.1 -0.1)">
      <defs>
       <path id="DejaVuSans-57" d="M 1172 4494 
L 1172 3500 
L 2356 3500 
L 2356 3053 
L 1172 3053 
L 1172 1153 
Q 1172 725 1289 603 
Q 1406 481 1766 481 
L 2356 481 
L 2356 0 
L 1766 0 
Q 1100 0 847 248 
Q 594 497 594 1153 
L 594 3053 
L 172 3053 
L 172 3500 
L 594 3500 
L 594 4494 
L 1172 4494 
z
" transform="scale(0.015625)"/>
       <path id="DejaVuSans-3" transform="scale(0.015625)"/>
       <path id="DejaVuSans-b" d="M 1984 4856 
Q 1566 4138 1362 3434 
Q 1159 2731 1159 2009 
Q 1159 1288 1364 580 
Q 1569 -128 1984 -844 
L 1484 -844 
Q 1016 -109 783 600 
Q 550 1309 550 2009 
Q 550 2706 781 3412 
Q 1013 4119 1484 4856 
L 1984 4856 
z
" transform="scale(0.015625)"/>
       <path id="DejaVuSans-56" d="M 2834 3397 
L 2834 2853 
Q 2591 2978 2328 3040 
Q 2066 3103 1784 3103 
Q 1356 3103 1142 2972 
Q 928 2841 928 2578 
Q 928 2378 1081 2264 
Q 1234 2150 1697 2047 
L 1894 2003 
Q 2506 1872 2764 1633 
Q 3022 1394 3022 966 
Q 3022 478 2636 193 
Q 2250 -91 1575 -91 
Q 1294 -91 989 -36 
Q 684 19 347 128 
L 347 722 
Q 666 556 975 473 
Q 1284 391 1588 391 
Q 1994 391 2212 530 
Q 2431 669 2431 922 
Q 2431 1156 2273 1281 
Q 2116 1406 1581 1522 
L 1381 1569 
Q 847 1681 609 1914 
Q 372 2147 372 2553 
Q 372 3047 722 3315 
Q 1072 3584 1716 3584 
Q 2034 3584 2315 3537 
Q 2597 3491 2834 3397 
z
" transform="scale(0.015625)"/>
       <path id="DejaVuSans-c" d="M 513 4856 
L 1013 4856 
Q 1481 4119 1714 3412 
Q 1947 2706 1947 2009 
Q 1947 1309 1714 600 
Q 1481 -109 1013 -844 
L 513 -844 
Q 928 -128 1133 580 
Q 1338 1288 1338 2009 
Q 1338 2731 1133 3434 
Q 928 4138 513 4856 
z
" transform="scale(0.015625)"/>
      </defs>
      <use xlink:href="#DejaVuSans-57"/>
      <use xlink:href="#DejaVuSans-3" transform="translate(39.203125 0)"/>
      <use xlink:href="#DejaVuSans-b" transform="translate(70.984375 0)"/>
      <use xlink:href="#DejaVuSans-56" transform="translate(110 0)"/>
      <use xlink:href="#DejaVuSans-c" transform="translate(162.09375 0)"/>
     </g>
    </g>
   </g>
   <g id="matplotlib.axis_2">
    <g id="ytick_1">
     <g id="line2d_15">
      <path d="M 42.28 155.914392 
L 493.2 155.914392 
" clip-path="url(#pebf9e5a676)" style="fill: none; stroke: #b0b0b0; stroke-width: 0.8; stroke-linecap: square"/>
     </g>
     <g id="line2d_16">
      <defs>
       <path id="m6928a2dce4" d="M 0 0 
L -3.5 0 
" style="stroke: #000000; stroke-width: 0.8"/>
      </defs>
      <g>
       <use xlink:href="#m6928a2dce4" x="42.28" y="155.914392" style="stroke: #000000; stroke-width: 0.8"/>
      </g>
     </g>
     <g id="text_9">
      <!-- −0.4 -->
      <g transform="translate(10.997188 159.71322) scale(0.1 -0.1)">
       <defs>
        <path id="DejaVuSans-c9c" d="M 678 2272 
L 4684 2272 
L 4684 1741 
L 678 1741 
L 678 2272 
z
" transform="scale(0.015625)"/>
        <path id="DejaVuSans-11" d="M 684 794 
L 1344 794 
L 1344 0 
L 684 0 
L 684 794 
z
" transform="scale(0.015625)"/>
       </defs>
       <use xlink:href="#DejaVuSans-c9c"/>
       <use xlink:href="#DejaVuSans-13" transform="translate(83.796875 0)"/>
       <use xlink:href="#DejaVuSans-11" transform="translate(147.421875 0)"/>
       <use xlink:href="#DejaVuSans-17" transform="translate(179.203125 0)"/>
      </g>
     </g>
    </g>
    <g id="ytick_2">
     <g id="line2d_17">
      <path d="M 42.28 133.99661 
L 493.2 133.99661 
" clip-path="url(#pebf9e5a676)" style="fill: none; stroke: #b0b0b0; stroke-width: 0.8; stroke-linecap: square"/>
     </g>
     <g id="line2d_18">
      <g>
       <use xlink:href="#m6928a2dce4" x="42.28" y="133.99661" style="stroke: #000000; stroke-width: 0.8"/>
      </g>
     </g>
     <g id="text_10">
      <!-- −0.2 -->
      <g transform="translate(10.997188 137.795438) scale(0.1 -0.1)">
       <use xlink:href="#DejaVuSans-c9c"/>
       <use xlink:href="#DejaVuSans-13" transform="translate(83.796875 0)"/>
       <use xlink:href="#DejaVuSans-11" transform="translate(147.421875 0)"/>
       <use xlink:href="#DejaVuSans-15" transform="translate(179.203125 0)"/>
      </g>
     </g>
    </g>
    <g id="ytick_3">
     <g id="line2d_19">
      <path d="M 42.28 112.078828 
L 493.2 112.078828 
" clip-path="url(#pebf9e5a676)" style="fill: none; stroke: #b0b0b0; stroke-width: 0.8; stroke-linecap: square"/>
     </g>
     <g id="line2d_20">
      <g>
       <use xlink:href="#m6928a2dce4" x="42.28" y="112.078828" style="stroke: #000000; stroke-width: 0.8"/>
      </g>
     </g>
     <g id="text_11">
      <!-- 0.0 -->
      <g transform="translate(19.376875 115.877656) scale(0.1 -0.1)">
       <use xlink:href="#DejaVuSans-13"/>
       <use xlink:href="#DejaVuSans-11" transform="translate(63.625 0)"/>
       <use xlink:href="#DejaVuSans-13" transform="translate(95.40625 0)"/>
      </g>
     </g>
    </g>
    <g id="ytick_4">
     <g id="line2d_21">
      <path d="M 42.28 90.161046 
L 493.2 90.161046 
" clip-path="url(#pebf9e5a676)" style="fill: none; stroke: #b0b0b0; stroke-width: 0.8; stroke-linecap: square"/>
     </g>
     <g id="line2d_22">
      <g>
       <use xlink:href="#m6928a2dce4" x="42.28" y="90.161046" style="stroke: #000000; stroke-width: 0.8"/>
      </g>
     </g>
     <g id="text_12">
      <!-- 0.2 -->
      <g transform="translate(19.376875 93.959874) scale(0.1 -0.1)">
       <use xlink:href="#DejaVuSans-13"/>
       <use xlink:href="#DejaVuSans-11" transform="translate(63.625 0)"/>
       <use xlink:href="#DejaVuSans-15" transform="translate(95.40625 0)"/>
      </g>
     </g>
    </g>
    <g id="ytick_5">
     <g id="line2d_23">
      <path d="M 42.28 68.243264 
L 493.2 68.243264 
" clip-path="url(#pebf9e5a676)" style="fill: none; stroke: #b0b0b0; stroke-width: 0.8; stroke-linecap: square"/>
     </g>
     <g id="line2d_24">
      <g>
       <use xlink:href="#m6928a2dce4" x="42.28" y="68.243264" style="stroke: #000000; stroke-width: 0.8"/>
      </g>
     </g>
     <g id="text_13">
      <!-- 0.4 -->
      <g transform="translate(19.376875 72.042093) scale(0.1 -0.1)">
       <use xlink:href="#DejaVuSans-13"/>
       <use xlink:href="#DejaVuSans-11" transform="translate(63.625 0)"/>
       <use xlink:href="#DejaVuSans-17" transform="translate(95.40625 0)"/>
      </g>
     </g>
    </g>
   </g>
   <g id="line2d_25">
    <path d="M 62.776364 55.027406 
L 63.256168 54.9183 
L 63.735331 82.508938 
L 64.217579 102.761724 
L 64.694077 107.210605 
L 65.173701 109.477368 
L 65.656106 110.21234 
L 66.135061 110.716617 
L 69.489602 112.338311 
L 70.449539 112.615626 
L 70.928169 112.732561 
L 71.887713 112.817803 
L 72.367106 112.55922 
L 73.804044 112.951766 
L 74.285858 112.890109 
L 74.764321 112.999404 
L 75.242348 112.903935 
L 75.721713 113.05538 
L 76.2005 112.96997 
L 76.683004 113.151275 
L 77.162794 112.535736 
L 77.640084 112.990003 
L 78.600131 113.562181 
L 79.080057 113.246894 
L 79.558264 113.363826 
L 80.038102 113.205365 
L 80.518174 113.528615 
L 80.998919 113.332912 
L 81.477692 113.50536 
L 81.955775 113.200495 
L 82.436264 112.541176 
L 82.913697 112.521535 
L 83.392471 112.878688 
L 84.353077 112.698838 
L 84.83108 112.422054 
L 85.789792 112.460902 
L 86.270769 112.52318 
L 86.751012 112.120813 
L 87.707522 112.478761 
L 88.188411 112.550184 
L 88.667618 112.351075 
L 89.625484 112.346416 
L 90.105439 112.538154 
L 90.584729 112.532405 
L 91.064042 112.715371 
L 92.023334 112.601261 
L 93.166654 113.641436 
L 93.623239 113.725598 
L 94.079565 114.774868 
L 94.992706 114.839183 
L 95.449217 116.612911 
L 95.906281 117.260526 
L 96.362962 117.642346 
L 96.819288 118.785168 
L 97.296843 118.323031 
L 97.77676 120.211033 
L 98.256881 120.353809 
L 98.737087 122.282492 
L 99.214823 122.020434 
L 99.694622 123.258039 
L 100.174954 122.548677 
L 100.653256 123.248587 
L 101.132262 122.403935 
L 101.613611 120.146145 
L 102.091255 120.269774 
L 102.571349 122.550464 
L 103.04978 123.143357 
L 103.529485 124.402601 
L 104.01 124.026336 
L 104.970523 121.149408 
L 105.927726 120.76387 
L 106.407682 120.558169 
L 106.88801 121.272659 
L 107.367564 124.010569 
L 107.84756 124.591004 
L 108.324211 126.460642 
L 108.803491 126.03537 
L 109.286077 127.708159 
L 109.762879 127.503539 
L 110.242918 130.007781 
L 110.722609 130.449503 
L 111.202172 132.166066 
L 111.68082 132.543915 
L 112.162241 135.664976 
L 112.639366 135.058623 
L 113.118812 130.524068 
L 113.598111 128.488216 
L 114.080022 127.185238 
L 114.559703 128.500034 
L 115.037037 132.340286 
L 115.515421 133.062618 
L 115.995244 134.641871 
L 116.476868 133.379176 
L 116.956211 133.761385 
L 117.436489 127.827764 
L 117.913504 129.084408 
L 118.393935 129.564818 
L 118.874924 131.299019 
L 119.35378 130.195293 
L 119.833537 130.300388 
L 120.313462 128.454278 
L 120.792564 128.418475 
L 121.269643 126.913658 
L 121.749347 127.312939 
L 122.230207 123.319733 
L 122.708769 125.232103 
L 123.188796 126.628274 
L 123.66638 129.327408 
L 124.146816 129.551898 
L 124.627789 131.845685 
L 125.105629 131.873671 
L 125.584847 133.411134 
L 126.064258 131.967768 
L 126.544254 132.115914 
L 127.022377 129.780285 
L 127.50286 125.258883 
L 127.981535 123.829266 
L 128.460603 125.216191 
L 128.94192 124.360004 
L 129.422879 123.833173 
L 129.900421 121.602319 
L 130.380361 120.596706 
L 130.858819 118.879508 
L 131.338823 118.752315 
L 132.29597 117.160483 
L 132.77717 117.689802 
L 133.257409 119.873133 
L 133.735836 120.846003 
L 134.21594 122.900089 
L 134.695975 123.513904 
L 135.173784 126.903224 
L 135.653898 126.358747 
L 136.133944 126.347753 
L 136.612981 123.063076 
L 137.092889 117.777548 
L 137.570732 116.562894 
L 138.050769 118.550857 
L 138.529169 118.237299 
L 139.010513 117.260606 
L 139.487974 114.888614 
L 139.968561 113.383863 
L 140.448306 112.403031 
L 140.927689 112.028519 
L 142.3645 111.507709 
L 142.84625 111.631493 
L 143.325772 112.066887 
L 144.285991 113.956972 
L 144.766068 115.4897 
L 145.244321 114.780981 
L 145.723932 113.488271 
L 146.20281 112.517185 
L 146.680129 112.636522 
L 147.159302 113.265154 
L 147.640392 114.298672 
L 148.11959 114.229542 
L 148.597639 114.482858 
L 149.077034 114.147678 
L 149.558143 114.836951 
L 150.037525 114.80074 
L 150.516519 115.708917 
L 150.995475 115.464395 
L 151.476903 114.435163 
L 151.955442 115.039172 
L 152.434838 117.787496 
L 152.912388 118.044253 
L 153.394641 118.785664 
L 153.872801 117.69729 
L 154.352236 117.866054 
L 154.83218 116.50909 
L 155.313385 114.681463 
L 156.269512 110.320371 
L 156.749864 109.87138 
L 157.228789 110.401828 
L 157.7086 111.149432 
L 158.669342 116.384926 
L 159.145988 122.713068 
L 159.627007 127.598713 
L 160.107237 136.528398 
L 160.58419 140.219931 
L 161.065961 139.807299 
L 161.542963 141.391636 
L 162.023183 145.709457 
L 162.982642 140.36146 
L 163.459728 134.195554 
L 164.419148 126.050095 
L 165.380648 123.52749 
L 165.860704 119.836753 
L 166.339037 117.956655 
L 166.819491 118.919381 
L 167.296171 119.532807 
L 167.778056 121.967857 
L 168.255386 122.549859 
L 168.734787 125.30252 
L 169.214177 125.506573 
L 169.694194 128.726762 
L 170.175256 128.740981 
L 170.652735 128.556967 
L 171.135257 131.860058 
L 171.61236 139.879219 
L 172.092462 142.498461 
L 172.571969 147.525306 
L 173.051189 147.191825 
L 173.531866 150.541052 
L 174.011395 148.439162 
L 174.489656 148.619797 
L 174.968486 143.218664 
L 175.449353 132.233968 
L 175.925421 129.321206 
L 176.409457 137.094867 
L 177.36602 145.358289 
L 177.846466 143.682852 
L 178.325353 143.936371 
L 178.803457 140.403868 
L 179.284438 140.496673 
L 179.762868 136.378209 
L 180.241866 130.127961 
L 180.720507 129.106188 
L 181.200814 133.032194 
L 181.68073 132.873656 
L 182.161091 133.647031 
L 182.639239 130.816844 
L 183.120462 130.434858 
L 183.598907 128.282146 
L 184.077359 129.791091 
L 184.557426 128.390526 
L 185.035389 125.063596 
L 185.514872 126.291571 
L 186.475599 141.772324 
L 186.953935 153.127602 
L 187.91446 144.078473 
L 188.391772 131.289409 
L 189.353284 120.495448 
L 189.832178 116.817902 
L 190.312511 116.72335 
L 190.789117 118.396841 
L 191.271369 116.465082 
L 192.23002 110.619294 
L 192.708606 108.636207 
L 193.189367 108.393551 
L 193.668204 106.399344 
L 194.147093 105.886431 
L 194.625604 106.554011 
L 195.104449 104.504153 
L 195.584389 97.369549 
L 196.064371 96.470903 
L 196.54176 92.936107 
L 197.02488 94.950689 
L 197.504066 91.696869 
L 197.982718 94.039632 
L 198.462013 93.276067 
L 198.939877 98.673924 
L 199.419527 109.873435 
L 199.900006 113.030621 
L 200.378894 106.963254 
L 200.858355 103.881093 
L 201.336177 103.294369 
L 201.816886 105.874597 
L 202.29636 106.936402 
L 202.777256 107.219643 
L 203.255892 105.504739 
L 203.733998 105.7651 
L 204.215488 107.297206 
L 204.693424 105.30163 
L 205.1752 97.715419 
L 205.651777 94.032892 
L 206.131883 86.579381 
L 206.613167 84.298426 
L 207.093178 75.940789 
L 207.57323 72.282778 
L 208.051078 62.452129 
L 208.531431 60.804008 
L 209.008441 69.436055 
L 209.490056 68.522463 
L 209.966701 59.956608 
L 210.448181 60.236573 
L 210.92657 59.063251 
L 211.405659 65.448702 
L 211.88428 69.530214 
L 212.364744 76.201054 
L 212.846279 79.732777 
L 213.324195 84.877029 
L 213.804008 80.60998 
L 214.284953 72.930364 
L 214.76479 60.688378 
L 215.244307 60.601563 
L 215.720894 59.119266 
L 216.20236 63.4404 
L 216.680888 61.572009 
L 217.638816 73.304473 
L 218.120386 85.056276 
L 218.598164 100.1452 
L 219.077257 104.796656 
L 219.555269 102.20627 
L 220.038862 102.088674 
L 220.517918 102.427313 
L 220.99571 105.146205 
L 221.957054 109.241286 
L 222.435325 110.100285 
L 223.391796 111.157056 
L 223.871033 111.189233 
L 224.830017 109.34999 
L 225.790438 105.031091 
L 226.749229 98.045755 
L 227.230557 91.640212 
L 227.70854 87.657918 
L 228.187529 88.585988 
L 228.667887 89.119433 
L 229.145368 86.911556 
L 229.624656 91.827698 
L 230.105451 94.955403 
L 230.583357 101.116138 
L 231.544056 106.540016 
L 232.02472 107.605137 
L 232.502987 109.315817 
L 232.982593 111.762953 
L 234.4188 116.26388 
L 234.898541 118.786709 
L 235.379911 120.395684 
L 235.859134 123.136329 
L 236.337487 123.632937 
L 236.816106 127.400572 
L 237.296106 128.43662 
L 237.776339 126.746142 
L 238.253935 128.306508 
L 238.735308 133.626052 
L 239.215913 133.204863 
L 239.694673 131.834991 
L 240.653449 122.270329 
L 241.131186 129.753764 
L 241.61191 146.686833 
L 242.089948 152.243946 
L 243.052199 138.467746 
L 243.531389 135.166919 
L 244.489297 117.3225 
L 245.449008 98.438291 
L 245.926812 92.783241 
L 246.407002 85.006165 
L 246.887167 81.251404 
L 247.365687 78.588363 
L 247.843277 73.746783 
L 248.326159 62.555589 
L 248.803562 62.424184 
L 249.284479 63.009328 
L 250.722853 94.026104 
L 251.199631 95.552361 
L 251.679025 87.982866 
L 252.160091 82.814968 
L 252.638149 81.631583 
L 253.11855 79.24481 
L 254.55912 102.429689 
L 255.038117 106.52356 
L 255.517622 109.343719 
L 256.473944 112.493289 
L 257.913095 121.086094 
L 258.392468 121.949758 
L 258.872318 123.459633 
L 259.350089 122.376373 
L 259.830901 121.743022 
L 260.312902 118.657549 
L 260.788752 114.346169 
L 261.27028 108.365704 
L 261.747626 111.111999 
L 262.228239 115.562361 
L 262.707398 118.365708 
L 263.18538 117.437325 
L 264.626303 111.800844 
L 266.541453 108.17621 
L 267.024421 106.992843 
L 267.499916 104.511564 
L 267.981208 103.527517 
L 268.462393 101.765825 
L 268.942123 101.679866 
L 269.42194 99.958651 
L 269.898992 100.853804 
L 270.379753 100.065979 
L 270.8578 101.993412 
L 271.336535 106.059587 
L 271.818517 100.1957 
L 272.295512 79.70572 
L 272.775572 76.530759 
L 273.256487 81.29691 
L 273.735009 96.18677 
L 274.212341 105.691401 
L 274.69357 110.262413 
L 275.653785 112.293242 
L 276.130123 118.359291 
L 276.612091 128.590586 
L 277.093055 144.505236 
L 277.569074 165.387495 
L 278.050711 169.459121 
L 278.530698 168.173387 
L 279.008287 169.048252 
L 279.488544 165.133379 
L 279.967915 168.76669 
L 280.446407 167.247517 
L 280.925794 160.704543 
L 281.406338 161.235686 
L 281.88761 169.455217 
L 282.845637 169.454112 
L 283.323223 166.822864 
L 283.804954 169.437437 
L 284.281741 168.072233 
L 284.761005 169.163303 
L 285.240721 154.34701 
L 285.722078 117.072316 
L 286.201938 101.398906 
L 286.680147 102.048826 
L 287.160873 107.571523 
L 287.637286 107.143088 
L 288.117995 103.221612 
L 288.598704 94.43612 
L 289.077371 89.904213 
L 289.55868 83.18386 
L 290.037027 82.981819 
L 290.515992 89.618089 
L 290.993073 92.575823 
L 291.473884 92.572518 
L 291.95324 103.551199 
L 292.43378 103.235268 
L 292.914394 91.706752 
L 293.392051 77.136865 
L 293.871697 77.834803 
L 294.350355 81.849849 
L 295.310694 109.258922 
L 295.78838 112.205907 
L 296.269854 108.287126 
L 296.747517 106.979854 
L 297.227183 109.183796 
L 299.146569 124.208397 
L 300.104744 132.326643 
L 300.582673 141.475772 
L 301.062594 167.575416 
L 301.545137 169.455835 
L 302.023785 168.036403 
L 302.501341 157.012579 
L 302.981089 157.122988 
L 303.462905 159.193761 
L 303.939903 168.097102 
L 304.41977 167.761764 
L 304.897405 157.454736 
L 305.378035 156.733061 
L 305.857025 167.627067 
L 306.335895 169.402409 
L 307.296191 169.423357 
L 307.777823 169.457199 
L 308.255593 168.730725 
L 308.733917 167.635137 
L 309.214842 150.546975 
L 309.692299 115.290566 
L 310.174214 103.560691 
L 311.130339 119.429078 
L 311.609214 120.509784 
L 312.571762 111.087737 
L 313.049221 109.77338 
L 314.007325 105.222627 
L 314.488427 96.237511 
L 314.968392 71.499073 
L 315.44626 54.698485 
L 315.927007 54.748691 
L 316.407677 59.838087 
L 316.884711 72.21254 
L 317.363736 67.996774 
L 317.843034 65.9514 
L 318.322407 58.823035 
L 318.802125 62.392609 
L 319.280862 75.632822 
L 319.76398 72.801795 
L 320.239683 54.713152 
L 323.597452 54.706841 
L 324.558161 67.015151 
L 325.0346 71.56298 
L 325.994466 91.409155 
L 326.473963 99.957539 
L 327.434069 111.397856 
L 327.912491 115.288094 
L 328.392614 116.953355 
L 328.870146 117.111417 
L 329.349933 117.152149 
L 329.830936 117.555482 
L 330.309239 116.653889 
L 330.787705 115.423254 
L 331.268897 113.052196 
L 332.229356 106.252775 
L 333.18659 95.802704 
L 334.145793 99.489994 
L 334.625578 98.970368 
L 335.10306 99.523872 
L 335.582773 98.821866 
L 336.06407 99.821843 
L 336.541634 99.73183 
L 337.020726 101.135324 
L 337.502545 100.921458 
L 337.980155 102.665748 
L 338.459453 104.899818 
L 338.938438 105.047351 
L 339.419823 103.144068 
L 339.89698 102.987882 
L 340.376645 102.453625 
L 340.857076 103.428586 
L 341.336828 103.356199 
L 341.818096 104.217932 
L 342.294881 103.818101 
L 342.775581 104.408434 
L 343.254049 105.46773 
L 343.732493 105.112178 
L 344.212046 102.947844 
L 344.69179 102.492451 
L 345.171073 101.230133 
L 345.651179 101.267789 
L 346.131078 99.45895 
L 346.610997 99.794389 
L 347.570478 88.261285 
L 348.048931 91.365086 
L 348.530048 93.409588 
L 349.008378 90.855378 
L 349.488518 95.939409 
L 349.966436 99.789242 
L 350.444726 105.451228 
L 351.405581 108.969381 
L 351.88293 109.874798 
L 353.322291 114.481743 
L 353.804432 117.22119 
L 354.283486 117.95131 
L 354.760521 121.267118 
L 355.241804 121.980047 
L 355.720113 126.61968 
L 356.199447 128.207993 
L 356.679191 134.773851 
L 357.159601 137.386599 
L 357.639058 135.107689 
L 358.117808 136.753836 
L 358.595921 149.328658 
L 359.076986 150.397288 
L 359.553996 151.103267 
L 360.513386 127.882253 
L 360.993268 122.731324 
L 361.474694 130.908364 
L 361.952055 136.202903 
L 362.433799 136.705517 
L 362.912705 140.022827 
L 363.394229 148.475514 
L 363.873831 150.212214 
L 364.353298 154.156062 
L 364.829059 151.838764 
L 365.311175 152.243042 
L 365.790578 148.229899 
L 366.268753 146.760622 
L 366.748374 142.128914 
L 367.228618 134.091015 
L 367.704818 130.926597 
L 368.184671 131.063937 
L 368.666068 129.247244 
L 369.143163 128.236047 
L 369.624372 126.046182 
L 370.104271 124.867866 
L 370.582729 123.286919 
L 372.022616 121.720844 
L 372.500811 122.747891 
L 373.45954 128.507426 
L 373.937445 133.704378 
L 374.418642 136.702192 
L 374.897837 137.893083 
L 375.377084 136.307916 
L 375.856522 137.007862 
L 376.335936 136.056712 
L 376.814756 134.046237 
L 377.296706 134.227505 
L 377.774172 137.206193 
L 378.252485 137.607827 
L 378.733896 139.255417 
L 379.212347 138.340955 
L 379.693665 138.687876 
L 380.171164 136.846404 
L 380.651723 136.314205 
L 381.12924 133.96256 
L 381.609784 129.750668 
L 382.090505 128.105228 
L 382.568095 128.744212 
L 383.049606 128.02887 
L 383.528489 128.372158 
L 384.007667 127.338529 
L 384.485814 127.54581 
L 384.965066 126.652203 
L 385.444469 127.170112 
L 385.924294 126.597311 
L 386.404535 125.525768 
L 386.884421 125.936344 
L 387.364829 128.477164 
L 387.843326 129.313471 
L 388.322097 130.56887 
L 388.800466 129.596949 
L 389.280685 130.24168 
L 389.761796 129.750803 
L 390.238472 131.070102 
L 390.718863 130.775373 
L 391.200237 129.2745 
L 391.678651 129.279786 
L 392.157972 131.41895 
L 392.638207 131.196445 
L 393.117767 131.776146 
L 393.594898 130.05522 
L 394.075071 129.958633 
L 394.554772 127.306019 
L 395.035315 126.228447 
L 395.514281 123.213732 
L 395.994879 119.058026 
L 396.4741 117.828426 
L 396.95252 119.285921 
L 397.430772 119.043335 
L 397.91213 119.640694 
L 398.390359 118.576149 
L 398.872542 119.045107 
L 399.348434 118.078873 
L 399.829518 119.205182 
L 400.309439 118.598833 
L 400.786199 117.251191 
L 401.26823 118.570546 
L 401.748944 122.507625 
L 402.226804 124.495365 
L 402.704688 127.192072 
L 403.186749 124.667299 
L 403.66606 123.961607 
L 404.143066 120.653637 
L 404.625355 120.499405 
L 405.102785 118.723594 
L 405.582331 115.731806 
L 406.063213 115.374272 
L 406.539809 117.231625 
L 407.022264 116.642672 
L 407.503044 115.53101 
L 407.980173 113.626583 
L 408.458831 112.821763 
L 408.938414 112.444371 
L 409.416299 112.350097 
L 409.897146 112.078675 
L 410.376955 111.638346 
L 411.336039 111.046842 
L 411.815018 111.174216 
L 412.293891 111.17143 
L 414.215185 112.240938 
L 416.130076 113.506029 
L 416.609452 113.148731 
L 417.08989 113.135187 
L 417.568917 112.943168 
L 418.049782 113.118223 
L 418.52907 112.934038 
L 419.006071 112.944566 
L 419.966576 112.376013 
L 420.443503 112.435366 
L 420.925838 112.767768 
L 421.885389 112.426381 
L 422.366574 112.208463 
L 423.802499 112.217992 
L 424.761171 112.018485 
L 428.598353 111.992107 
L 429.077497 112.170062 
L 430.992312 112.039568 
L 431.952311 112.070342 
L 433.389327 112.0464 
L 436.747541 112.063343 
L 446.815374 112.068792 
L 464.073613 112.221505 
L 466.474397 112.481916 
L 468.391239 112.864392 
L 468.871613 113.208542 
L 470.3073 112.687247 
L 472.226282 111.974592 
L 472.703636 111.919735 
L 472.703636 111.919735 
" clip-path="url(#pebf9e5a676)" style="fill: none; stroke: #1f77b4; stroke-width: 1.5; stroke-linecap: square"/>
   </g>
   <g id="line2d_26">
    <path d="M 62.776364 54.698075 
L 63.256168 54.698075 
L 63.735331 83.252147 
L 64.217579 103.535556 
L 64.694077 107.986887 
L 65.173701 110.325873 
L 65.656106 111.101407 
L 66.135061 111.629829 
L 67.091494 112.016879 
L 69.009962 112.249489 
L 73.804044 112.607082 
L 75.242348 112.845102 
L 77.162794 113.497114 
L 78.600131 114.521033 
L 79.080057 114.916737 
L 80.998919 117.217573 
L 81.477692 117.652392 
L 81.955775 117.689201 
L 82.436264 117.146156 
L 82.913697 116.206499 
L 83.392471 114.539889 
L 84.83108 112.451092 
L 85.312983 111.887451 
L 86.751012 110.873831 
L 87.231329 110.617238 
L 88.188411 110.435087 
L 88.667618 110.494881 
L 89.625484 111.089941 
L 90.584729 112.539367 
L 91.542748 115.049762 
L 94.536029 126.78581 
L 95.449217 129.008788 
L 95.906281 129.436057 
L 96.362962 129.551749 
L 96.819288 129.275163 
L 97.296843 128.804081 
L 100.653256 122.826922 
L 101.613611 122.004028 
L 102.091255 121.865453 
L 102.571349 121.910332 
L 103.04978 122.140412 
L 103.529485 122.763343 
L 104.01 123.154273 
L 104.970523 122.206828 
L 105.447098 121.789792 
L 105.927726 121.657539 
L 106.407682 121.75572 
L 106.88801 122.038004 
L 107.84756 123.390496 
L 108.803491 125.769304 
L 109.762879 129.309555 
L 112.162241 141.643684 
L 112.639366 142.675882 
L 113.118812 142.295638 
L 113.598111 140.187229 
L 114.080022 134.351756 
L 114.559703 134.610774 
L 115.995244 135.802357 
L 116.956211 136.298236 
L 117.436489 136.367166 
L 118.393935 136.120998 
L 119.35378 135.323722 
L 121.749347 132.209547 
L 122.708769 131.460133 
L 123.188796 131.353854 
L 123.66638 131.468851 
L 124.146816 131.774709 
L 125.584847 135.442894 
L 126.064258 135.929526 
L 126.544254 136.045632 
L 127.022377 135.73238 
L 127.981535 133.79181 
L 131.338823 122.154308 
L 132.29597 120.450838 
L 132.77717 120.157582 
L 133.257409 120.224321 
L 133.735836 120.642714 
L 134.695975 122.969539 
L 135.173784 126.092728 
L 135.653898 127.423239 
L 136.133944 128.05544 
L 136.612981 127.827607 
L 137.570732 125.68327 
L 139.968561 116.933245 
L 141.886306 111.972558 
L 142.3645 111.394588 
L 142.84625 110.996128 
L 143.325772 111.027215 
L 143.804248 111.592101 
L 144.285991 112.467267 
L 144.766068 114.313744 
L 145.244321 114.571849 
L 145.723932 114.013671 
L 146.680129 113.501496 
L 147.159302 113.453851 
L 148.11959 113.646458 
L 149.077034 114.169009 
L 150.037525 114.997764 
L 151.476903 117.076058 
L 151.955442 117.836659 
L 152.912388 119.83683 
L 153.394641 120.906328 
L 153.872801 121.459941 
L 154.352236 121.491402 
L 154.83218 120.678956 
L 156.269512 112.855599 
L 156.749864 111.727649 
L 157.228789 111.135238 
L 157.7086 111.449579 
L 158.186642 113.041628 
L 158.669342 115.214686 
L 159.627007 123.520794 
L 160.107237 129.668475 
L 161.542963 142.719706 
L 162.023183 144.797952 
L 162.502943 144.929951 
L 162.982642 143.533162 
L 163.459728 141.677634 
L 163.940098 138.724532 
L 164.899049 134.002657 
L 165.380648 132.676993 
L 166.339037 126.639827 
L 166.819491 124.156878 
L 167.296171 123.157366 
L 167.778056 122.868042 
L 168.255386 123.317109 
L 169.214177 126.135669 
L 170.175256 131.052111 
L 172.092462 146.23295 
L 172.571969 151.003837 
L 173.531866 157.103923 
L 174.011395 157.988549 
L 174.489656 156.875399 
L 174.968486 154.116814 
L 175.449353 147.785013 
L 175.925421 143.72833 
L 176.409457 144.662751 
L 177.36602 145.96685 
L 177.846466 146.296108 
L 178.325353 146.448723 
L 178.803457 146.325337 
L 179.762868 145.224456 
L 180.720507 143.127795 
L 183.120462 135.794394 
L 185.035389 131.102686 
L 185.994564 129.612622 
L 186.953935 144.726991 
L 187.432786 147.458722 
L 187.91446 147.909659 
L 188.391772 146.272086 
L 190.312511 129.841899 
L 190.789117 125.420451 
L 192.708606 113.781838 
L 193.189367 111.67001 
L 195.104449 100.349038 
L 197.02488 84.408277 
L 197.504066 80.859865 
L 197.982718 79.613106 
L 198.462013 80.800896 
L 198.939877 84.358412 
L 199.900006 100.277742 
L 200.378894 103.778878 
L 201.336177 107.617851 
L 201.816886 108.400315 
L 202.29636 108.725164 
L 202.777256 108.479714 
L 203.733998 106.448663 
L 204.693424 102.47979 
L 205.651777 96.429603 
L 207.093178 82.081091 
L 207.57323 77.235681 
L 208.051078 70.525617 
L 209.490056 56.600666 
L 209.966701 54.698075 
L 210.448181 54.698075 
L 210.92657 55.566574 
L 211.405659 58.224484 
L 213.324195 76.86045 
L 213.804008 72.257781 
L 215.244307 55.44788 
L 215.720894 54.698075 
L 216.680888 54.698075 
L 217.162227 55.056548 
L 219.077257 78.51347 
L 219.555269 85.071533 
L 221.474927 101.456713 
L 222.91355 108.180951 
L 223.391796 109.979199 
L 224.35107 111.733283 
L 224.830017 111.791891 
L 225.309994 111.014438 
L 225.790438 109.661675 
L 226.749229 103.526266 
L 227.70854 92.160441 
L 228.187529 87.270697 
L 228.667887 85.221741 
L 229.145368 84.41423 
L 229.624656 85.030746 
L 230.583357 89.287208 
L 232.02472 99.114733 
L 232.502987 101.803721 
L 232.982593 105.258584 
L 233.461906 107.754181 
L 233.941991 110.987699 
L 234.4188 113.375273 
L 234.898541 116.558174 
L 235.379911 118.971601 
L 235.859134 122.239724 
L 236.337487 124.712629 
L 236.816106 127.960081 
L 238.253935 134.374763 
L 238.735308 135.298839 
L 239.215913 134.973737 
L 239.694673 132.874754 
L 240.174771 129.899741 
L 240.653449 123.952233 
L 241.131186 130.427199 
L 241.61191 143.11036 
L 242.089948 149.48599 
L 242.569611 153.748498 
L 243.052199 153.732808 
L 243.531389 149.787762 
L 244.008713 144.437712 
L 245.926812 106.985208 
L 246.407002 94.81972 
L 246.887167 85.606534 
L 247.365687 73.872495 
L 248.326159 59.198448 
L 248.803562 56.970047 
L 249.284479 58.571211 
L 249.763674 62.903021 
L 250.722853 79.891904 
L 251.199631 86.0202 
L 252.160091 72.533474 
L 252.638149 70.708031 
L 253.11855 71.662339 
L 253.599187 74.459661 
L 255.996105 101.886705 
L 258.392468 120.883726 
L 258.872318 123.940174 
L 259.350089 125.481149 
L 259.830901 125.974476 
L 260.312902 124.719839 
L 260.788752 120.234884 
L 261.27028 114.466704 
L 261.747626 114.040323 
L 262.707398 116.483396 
L 263.18538 116.74971 
L 263.666209 116.515601 
L 264.145819 115.970464 
L 265.10472 113.775507 
L 267.981208 104.114645 
L 268.462393 102.550442 
L 269.42194 100.810034 
L 269.898992 100.619902 
L 270.379753 101.044103 
L 270.8578 101.951598 
L 271.336535 104.05807 
L 271.818517 100.25997 
L 272.295512 84.841472 
L 272.775572 79.026476 
L 273.256487 77.702098 
L 273.735009 80.27939 
L 276.612091 118.510198 
L 277.569074 135.840427 
L 278.530698 160.82413 
L 279.008287 169.459581 
L 280.925794 169.459581 
L 281.406338 163.926903 
L 281.88761 147.041792 
L 282.364018 159.925529 
L 282.845637 169.459581 
L 284.761005 169.459581 
L 285.240721 167.398644 
L 285.722078 151.151882 
L 287.160873 120.708183 
L 287.637286 111.941791 
L 288.117995 105.719733 
L 289.55868 81.783487 
L 290.515992 71.154648 
L 290.993073 71.556416 
L 291.473884 79.605387 
L 291.95324 92.420912 
L 292.43378 97.418814 
L 293.392051 82.318378 
L 293.871697 80.173927 
L 294.350355 80.610624 
L 294.831539 82.792401 
L 297.227183 104.73788 
L 297.7067 108.132422 
L 299.624063 125.629998 
L 300.582673 138.997989 
L 302.023785 168.365076 
L 302.501341 169.459581 
L 304.41977 169.459581 
L 305.857025 140.676309 
L 306.816146 169.459581 
L 309.214842 169.459581 
L 310.174214 146.044623 
L 310.651022 134.99397 
L 311.609214 122.446508 
L 314.007325 103.339027 
L 314.968392 90.143668 
L 316.407677 54.698075 
L 318.802125 54.698075 
L 319.76398 79.307853 
L 321.681679 56.329209 
L 322.159018 54.698075 
L 324.558161 54.698075 
L 325.0346 58.768857 
L 325.517554 65.291652 
L 325.994466 74.207589 
L 327.912491 99.633733 
L 329.349933 110.471149 
L 329.830936 113.163444 
L 330.309239 114.489985 
L 330.787705 115.176215 
L 331.268897 114.732915 
L 331.748293 112.615676 
L 332.229356 109.716555 
L 333.18659 98.199757 
L 333.665271 95.445518 
L 334.145793 95.067335 
L 334.625578 94.87517 
L 335.10306 94.929529 
L 336.06407 95.54412 
L 339.89698 99.827274 
L 340.376645 100.300235 
L 342.294881 101.440491 
L 343.732493 101.814035 
L 345.171073 101.932651 
L 346.610997 101.949045 
L 347.092346 98.93844 
L 348.048931 85.328043 
L 348.530048 83.373299 
L 349.008378 83.651155 
L 349.488518 85.443978 
L 351.88293 103.177426 
L 352.363755 105.720218 
L 352.845302 108.882721 
L 353.322291 111.166533 
L 355.241804 123.364749 
L 356.679191 139.043121 
L 357.159601 144.466286 
L 357.639058 151.736216 
L 358.595921 160.594427 
L 359.076986 161.129983 
L 359.553996 157.601126 
L 360.035229 151.509753 
L 360.513386 138.659654 
L 360.993268 135.380096 
L 362.912705 143.550549 
L 363.394229 146.193849 
L 364.829059 151.39292 
L 365.311175 152.333462 
L 365.790578 152.458897 
L 366.268753 151.805214 
L 366.748374 150.713689 
L 367.704818 146.472919 
L 369.143163 137.277759 
L 371.063608 127.717627 
L 371.542956 126.72026 
L 372.022616 126.248632 
L 372.500811 126.64463 
L 372.979539 128.334832 
L 373.45954 130.583501 
L 374.418642 139.467986 
L 374.897837 140.878885 
L 376.335936 143.793438 
L 376.814756 144.571775 
L 377.774172 145.220469 
L 378.252485 145.195784 
L 379.212347 144.434775 
L 380.171164 142.810678 
L 383.528489 134.484333 
L 384.965066 132.249814 
L 385.444469 131.764818 
L 385.924294 131.574723 
L 386.404535 131.562923 
L 386.884421 131.738664 
L 387.843326 132.756169 
L 388.322097 132.772404 
L 388.800466 132.486991 
L 389.280685 132.59927 
L 389.761796 132.945654 
L 391.200237 134.954202 
L 392.157972 135.802821 
L 392.638207 135.851934 
L 393.117767 135.541255 
L 393.594898 135.010899 
L 394.554772 132.861797 
L 396.95252 124.859816 
L 398.390359 121.551356 
L 398.872542 120.713315 
L 399.829518 119.956182 
L 400.309439 119.911903 
L 400.786199 120.124854 
L 401.26823 120.502101 
L 401.748944 121.330668 
L 402.704688 125.658387 
L 403.186749 126.364802 
L 403.66606 126.472767 
L 404.143066 126.06811 
L 405.102785 124.109436 
L 406.539809 120.029659 
L 407.022264 118.944449 
L 407.503044 117.577681 
L 409.897146 112.961655 
L 410.376955 112.149175 
L 411.815018 110.611952 
L 412.293891 110.242053 
L 412.776348 110.084699 
L 413.254502 110.069242 
L 413.731866 110.230304 
L 414.690852 111.313215 
L 415.650989 113.304035 
L 416.130076 113.721358 
L 417.08989 113.954773 
L 418.049782 113.787668 
L 419.48728 113.327878 
L 420.925838 112.845774 
L 425.240797 111.706092 
L 426.677296 111.241862 
L 427.63627 111.118025 
L 428.116796 111.196269 
L 429.553872 112.078575 
L 463.114725 112.169733 
L 465.995392 112.317544 
L 467.430312 112.527584 
L 468.391239 112.887685 
L 468.871613 113.344437 
L 472.703636 113.344437 
L 472.703636 113.344437 
" clip-path="url(#pebf9e5a676)" style="fill: none; stroke-dasharray: 9.6,2.4,1.5,2.4; stroke-dashoffset: 0; stroke: #ff7f0e; stroke-width: 1.5"/>
   </g>
   <g id="line2d_27">
    <path d="M 42.28 169.459581 
L 493.2 169.459581 
" clip-path="url(#pebf9e5a676)" style="fill: none; stroke-dasharray: 3.7,1.6; stroke-dashoffset: 0; stroke: #ff0000"/>
   </g>
   <g id="line2d_28">
    <path d="M 42.28 54.698075 
L 493.2 54.698075 
" clip-path="url(#pebf9e5a676)" style="fill: none; stroke-dasharray: 3.7,1.6; stroke-dashoffset: 0; stroke: #ff0000"/>
   </g>
   <g id="patch_3">
    <path d="M 42.28 175.197656 
L 42.28 48.96 
" style="fill: none; stroke: #000000; stroke-width: 0.8; stroke-linejoin: miter; stroke-linecap: square"/>
   </g>
   <g id="patch_4">
    <path d="M 493.2 175.197656 
L 493.2 48.96 
" style="fill: none; stroke: #000000; stroke-width: 0.8; stroke-linejoin: miter; stroke-linecap: square"/>
   </g>
   <g id="patch_5">
    <path d="M 42.28 175.197656 
L 493.2 175.197656 
" style="fill: none; stroke: #000000; stroke-width: 0.8; stroke-linejoin: miter; stroke-linecap: square"/>
   </g>
   <g id="patch_6">
    <path d="M 42.28 48.96 
L 493.2 48.96 
" style="fill: none; stroke: #000000; stroke-width: 0.8; stroke-linejoin: miter; stroke-linecap: square"/>
   </g>
   <g id="text_14">
    <!-- $\delta$ (rad) -->
    <g transform="translate(247.52 42.96) scale(0.12 -0.12)">
     <defs>
      <path id="DejaVuSans-Oblique-348" d="M 3472 4053 
Q 3197 4272 2450 4272 
Q 1659 4272 1588 3906 
Q 1531 3619 2328 3469 
Q 2953 3353 3253 3003 
Q 3616 2581 3447 1716 
Q 3284 888 2763 400 
Q 2238 -91 1488 -91 
Q 741 -91 406 400 
Q 72 888 241 1747 
Q 363 2384 891 2900 
Q 1097 3100 1353 3213 
Q 913 3459 1000 3900 
Q 1166 4750 2544 4750 
Q 3234 4750 3566 4531 
L 3472 4053 
z
M 1753 3056 
Q 1525 2966 1306 2738 
Q 969 2384 847 1747 
Q 722 1113 919 756 
Q 1119 397 1584 397 
Q 2044 397 2381 759 
Q 2722 1122 2838 1716 
Q 2956 2338 2731 2638 
Q 2491 2959 2103 2994 
Q 1906 3013 1753 3056 
z
" transform="scale(0.015625)"/>
      <path id="DejaVuSans-55" d="M 2631 2963 
Q 2534 3019 2420 3045 
Q 2306 3072 2169 3072 
Q 1681 3072 1420 2755 
Q 1159 2438 1159 1844 
L 1159 0 
L 581 0 
L 581 3500 
L 1159 3500 
L 1159 2956 
Q 1341 3275 1631 3429 
Q 1922 3584 2338 3584 
Q 2397 3584 2469 3576 
Q 2541 3569 2628 3553 
L 2631 2963 
z
" transform="scale(0.015625)"/>
      <path id="DejaVuSans-44" d="M 2194 1759 
Q 1497 1759 1228 1600 
Q 959 1441 959 1056 
Q 959 750 1161 570 
Q 1363 391 1709 391 
Q 2188 391 2477 730 
Q 2766 1069 2766 1631 
L 2766 1759 
L 2194 1759 
z
M 3341 1997 
L 3341 0 
L 2766 0 
L 2766 531 
Q 2569 213 2275 61 
Q 1981 -91 1556 -91 
Q 1019 -91 701 211 
Q 384 513 384 1019 
Q 384 1609 779 1909 
Q 1175 2209 1959 2209 
L 2766 2209 
L 2766 2266 
Q 2766 2663 2505 2880 
Q 2244 3097 1772 3097 
Q 1472 3097 1187 3025 
Q 903 2953 641 2809 
L 641 3341 
Q 956 3463 1253 3523 
Q 1550 3584 1831 3584 
Q 2591 3584 2966 3190 
Q 3341 2797 3341 1997 
z
" transform="scale(0.015625)"/>
      <path id="DejaVuSans-47" d="M 2906 2969 
L 2906 4863 
L 3481 4863 
L 3481 0 
L 2906 0 
L 2906 525 
Q 2725 213 2448 61 
Q 2172 -91 1784 -91 
Q 1150 -91 751 415 
Q 353 922 353 1747 
Q 353 2572 751 3078 
Q 1150 3584 1784 3584 
Q 2172 3584 2448 3432 
Q 2725 3281 2906 2969 
z
M 947 1747 
Q 947 1113 1208 752 
Q 1469 391 1925 391 
Q 2381 391 2643 752 
Q 2906 1113 2906 1747 
Q 2906 2381 2643 2742 
Q 2381 3103 1925 3103 
Q 1469 3103 1208 2742 
Q 947 2381 947 1747 
z
" transform="scale(0.015625)"/>
     </defs>
     <use xlink:href="#DejaVuSans-Oblique-348" transform="translate(0 0.015625)"/>
     <use xlink:href="#DejaVuSans-3" transform="translate(61.181641 0.015625)"/>
     <use xlink:href="#DejaVuSans-b" transform="translate(92.96875 0.015625)"/>
     <use xlink:href="#DejaVuSans-55" transform="translate(131.982422 0.015625)"/>
     <use xlink:href="#DejaVuSans-44" transform="translate(173.095703 0.015625)"/>
     <use xlink:href="#DejaVuSans-47" transform="translate(234.375 0.015625)"/>
     <use xlink:href="#DejaVuSans-c" transform="translate(297.851562 0.015625)"/>
    </g>
   </g>
   <g id="legend_1">
    <g id="patch_7">
     <path d="M 432.6 86.961562 
L 486.2 86.961562 
Q 488.2 86.961562 488.2 84.961562 
L 488.2 55.96 
Q 488.2 53.96 486.2 53.96 
L 432.6 53.96 
Q 430.6 53.96 430.6 55.96 
L 430.6 84.961562 
Q 430.6 86.961562 432.6 86.961562 
z
" style="fill: #ffffff; opacity: 0.8; stroke: #cccccc; stroke-linejoin: miter"/>
    </g>
    <g id="line2d_29">
     <path d="M 434.6 62.058437 
L 444.6 62.058437 
L 454.6 62.058437 
" style="fill: none; stroke: #1f77b4; stroke-width: 1.5; stroke-linecap: square"/>
    </g>
    <g id="text_15">
     <!-- $\delta_{cmd}$ -->
     <g transform="translate(462.6 65.558437) scale(0.1 -0.1)">
      <defs>
       <path id="DejaVuSans-Oblique-46" d="M 3431 3366 
L 3316 2797 
Q 3109 2947 2876 3022 
Q 2644 3097 2394 3097 
Q 2119 3097 1870 3000 
Q 1622 2903 1453 2725 
Q 1184 2453 1037 2087 
Q 891 1722 891 1331 
Q 891 859 1127 628 
Q 1363 397 1844 397 
Q 2081 397 2348 469 
Q 2616 541 2906 684 
L 2797 116 
Q 2547 13 2283 -39 
Q 2019 -91 1741 -91 
Q 1044 -91 669 257 
Q 294 606 294 1253 
Q 294 1797 489 2255 
Q 684 2713 1069 3078 
Q 1331 3328 1684 3456 
Q 2038 3584 2456 3584 
Q 2700 3584 2940 3529 
Q 3181 3475 3431 3366 
z
" transform="scale(0.015625)"/>
       <path id="DejaVuSans-Oblique-50" d="M 5747 2113 
L 5338 0 
L 4763 0 
L 5166 2094 
Q 5191 2228 5203 2325 
Q 5216 2422 5216 2491 
Q 5216 2772 5059 2928 
Q 4903 3084 4622 3084 
Q 4203 3084 3875 2770 
Q 3547 2456 3450 1953 
L 3066 0 
L 2491 0 
L 2900 2094 
Q 2925 2209 2937 2307 
Q 2950 2406 2950 2484 
Q 2950 2769 2794 2926 
Q 2638 3084 2363 3084 
Q 1938 3084 1609 2770 
Q 1281 2456 1184 1953 
L 800 0 
L 225 0 
L 909 3500 
L 1484 3500 
L 1375 2956 
Q 1609 3263 1923 3423 
Q 2238 3584 2597 3584 
Q 2978 3584 3223 3384 
Q 3469 3184 3519 2828 
Q 3781 3197 4126 3390 
Q 4472 3584 4856 3584 
Q 5306 3584 5551 3325 
Q 5797 3066 5797 2591 
Q 5797 2488 5784 2364 
Q 5772 2241 5747 2113 
z
" transform="scale(0.015625)"/>
       <path id="DejaVuSans-Oblique-47" d="M 2675 525 
Q 2444 222 2128 65 
Q 1813 -91 1428 -91 
Q 903 -91 598 267 
Q 294 625 294 1247 
Q 294 1766 478 2236 
Q 663 2706 1013 3078 
Q 1244 3325 1534 3454 
Q 1825 3584 2144 3584 
Q 2481 3584 2739 3421 
Q 2997 3259 3138 2956 
L 3513 4863 
L 4091 4863 
L 3144 0 
L 2566 0 
L 2675 525 
z
M 891 1350 
Q 891 897 1095 644 
Q 1300 391 1663 391 
Q 1931 391 2161 520 
Q 2391 650 2566 903 
Q 2750 1166 2856 1509 
Q 2963 1853 2963 2188 
Q 2963 2622 2758 2865 
Q 2553 3109 2194 3109 
Q 1922 3109 1687 2981 
Q 1453 2853 1288 2613 
Q 1106 2353 998 2009 
Q 891 1666 891 1350 
z
" transform="scale(0.015625)"/>
      </defs>
      <use xlink:href="#DejaVuSans-Oblique-348" transform="translate(0 0.78125)"/>
      <use xlink:href="#DejaVuSans-Oblique-46" transform="translate(61.181641 -14.218701) scale(0.7)"/>
      <use xlink:href="#DejaVuSans-Oblique-50" transform="translate(99.667969 -14.218701) scale(0.7)"/>
      <use xlink:href="#DejaVuSans-Oblique-47" transform="translate(167.856445 -14.218701) scale(0.7)"/>
     </g>
    </g>
    <g id="line2d_30">
     <path d="M 434.6 77.059219 
L 444.6 77.059219 
L 454.6 77.059219 
" style="fill: none; stroke-dasharray: 9.6,2.4,1.5,2.4; stroke-dashoffset: 0; stroke: #ff7f0e; stroke-width: 1.5"/>
    </g>
    <g id="text_16">
     <!-- $\delta_{ref}$ -->
     <g transform="translate(462.6 80.559219) scale(0.1 -0.1)">
      <defs>
       <path id="DejaVuSans-Oblique-55" d="M 2853 2969 
Q 2766 3016 2653 3041 
Q 2541 3066 2413 3066 
Q 1953 3066 1609 2717 
Q 1266 2369 1153 1784 
L 800 0 
L 225 0 
L 909 3500 
L 1484 3500 
L 1375 2956 
Q 1603 3259 1920 3421 
Q 2238 3584 2597 3584 
Q 2691 3584 2781 3573 
Q 2872 3563 2963 3538 
L 2853 2969 
z
" transform="scale(0.015625)"/>
       <path id="DejaVuSans-Oblique-48" d="M 3078 2063 
Q 3088 2113 3092 2166 
Q 3097 2219 3097 2272 
Q 3097 2653 2873 2875 
Q 2650 3097 2266 3097 
Q 1838 3097 1509 2826 
Q 1181 2556 1013 2059 
L 3078 2063 
z
M 3578 1613 
L 903 1613 
Q 884 1494 878 1425 
Q 872 1356 872 1306 
Q 872 872 1139 634 
Q 1406 397 1894 397 
Q 2269 397 2603 481 
Q 2938 566 3225 728 
L 3116 159 
Q 2806 34 2476 -28 
Q 2147 -91 1806 -91 
Q 1078 -91 686 257 
Q 294 606 294 1247 
Q 294 1794 489 2264 
Q 684 2734 1063 3103 
Q 1306 3334 1642 3459 
Q 1978 3584 2356 3584 
Q 2950 3584 3301 3228 
Q 3653 2872 3653 2272 
Q 3653 2128 3634 1964 
Q 3616 1800 3578 1613 
z
" transform="scale(0.015625)"/>
       <path id="DejaVuSans-Oblique-49" d="M 3059 4863 
L 2969 4384 
L 2419 4384 
Q 2106 4384 1964 4261 
Q 1822 4138 1753 3809 
L 1691 3500 
L 2638 3500 
L 2553 3053 
L 1606 3053 
L 1013 0 
L 434 0 
L 1031 3053 
L 481 3053 
L 563 3500 
L 1113 3500 
L 1159 3744 
Q 1278 4363 1576 4613 
Q 1875 4863 2516 4863 
L 3059 4863 
z
" transform="scale(0.015625)"/>
      </defs>
      <use xlink:href="#DejaVuSans-Oblique-348" transform="translate(0 0.78125)"/>
      <use xlink:href="#DejaVuSans-Oblique-55" transform="translate(61.181641 -14.218701) scale(0.7)"/>
      <use xlink:href="#DejaVuSans-Oblique-48" transform="translate(89.960938 -14.218701) scale(0.7)"/>
      <use xlink:href="#DejaVuSans-Oblique-49" transform="translate(133.027344 -14.218701) scale(0.7)"/>
     </g>
    </g>
   </g>
  </g>
  <g id="axes_2">
   <g id="patch_8">
    <path d="M 42.28 361.077656 
L 493.2 361.077656 
L 493.2 234.84 
L 42.28 234.84 
z
" style="fill: #ffffff"/>
   </g>
   <g id="matplotlib.axis_3">
    <g id="xtick_8">
     <g id="line2d_31">
      <path d="M 62.33559 361.077656 
L 62.33559 234.84 
" clip-path="url(#pea5013d376)" style="fill: none; stroke: #b0b0b0; stroke-width: 0.8; stroke-linecap: square"/>
     </g>
     <g id="line2d_32">
      <g>
       <use xlink:href="#m5d418aafe8" x="62.33559" y="361.077656" style="stroke: #000000; stroke-width: 0.8"/>
      </g>
     </g>
     <g id="text_17">
      <!-- 0 -->
      <g transform="translate(59.15434 375.675312) scale(0.1 -0.1)">
       <use xlink:href="#DejaVuSans-13"/>
      </g>
     </g>
    </g>
    <g id="xtick_9">
     <g id="line2d_33">
      <path d="M 130.828054 361.077656 
L 130.828054 234.84 
" clip-path="url(#pea5013d376)" style="fill: none; stroke: #b0b0b0; stroke-width: 0.8; stroke-linecap: square"/>
     </g>
     <g id="line2d_34">
      <g>
       <use xlink:href="#m5d418aafe8" x="130.828054" y="361.077656" style="stroke: #000000; stroke-width: 0.8"/>
      </g>
     </g>
     <g id="text_18">
      <!-- 10 -->
      <g transform="translate(124.465554 375.675312) scale(0.1 -0.1)">
       <use xlink:href="#DejaVuSans-14"/>
       <use xlink:href="#DejaVuSans-13" transform="translate(63.625 0)"/>
      </g>
     </g>
    </g>
    <g id="xtick_10">
     <g id="line2d_35">
      <path d="M 199.320517 361.077656 
L 199.320517 234.84 
" clip-path="url(#pea5013d376)" style="fill: none; stroke: #b0b0b0; stroke-width: 0.8; stroke-linecap: square"/>
     </g>
     <g id="line2d_36">
      <g>
       <use xlink:href="#m5d418aafe8" x="199.320517" y="361.077656" style="stroke: #000000; stroke-width: 0.8"/>
      </g>
     </g>
     <g id="text_19">
      <!-- 20 -->
      <g transform="translate(192.958017 375.675312) scale(0.1 -0.1)">
       <use xlink:href="#DejaVuSans-15"/>
       <use xlink:href="#DejaVuSans-13" transform="translate(63.625 0)"/>
      </g>
     </g>
    </g>
    <g id="xtick_11">
     <g id="line2d_37">
      <path d="M 267.812981 361.077656 
L 267.812981 234.84 
" clip-path="url(#pea5013d376)" style="fill: none; stroke: #b0b0b0; stroke-width: 0.8; stroke-linecap: square"/>
     </g>
     <g id="line2d_38">
      <g>
       <use xlink:href="#m5d418aafe8" x="267.812981" y="361.077656" style="stroke: #000000; stroke-width: 0.8"/>
      </g>
     </g>
     <g id="text_20">
      <!-- 30 -->
      <g transform="translate(261.450481 375.675312) scale(0.1 -0.1)">
       <use xlink:href="#DejaVuSans-16"/>
       <use xlink:href="#DejaVuSans-13" transform="translate(63.625 0)"/>
      </g>
     </g>
    </g>
    <g id="xtick_12">
     <g id="line2d_39">
      <path d="M 336.305445 361.077656 
L 336.305445 234.84 
" clip-path="url(#pea5013d376)" style="fill: none; stroke: #b0b0b0; stroke-width: 0.8; stroke-linecap: square"/>
     </g>
     <g id="line2d_40">
      <g>
       <use xlink:href="#m5d418aafe8" x="336.305445" y="361.077656" style="stroke: #000000; stroke-width: 0.8"/>
      </g>
     </g>
     <g id="text_21">
      <!-- 40 -->
      <g transform="translate(329.942945 375.675312) scale(0.1 -0.1)">
       <use xlink:href="#DejaVuSans-17"/>
       <use xlink:href="#DejaVuSans-13" transform="translate(63.625 0)"/>
      </g>
     </g>
    </g>
    <g id="xtick_13">
     <g id="line2d_41">
      <path d="M 404.797909 361.077656 
L 404.797909 234.84 
" clip-path="url(#pea5013d376)" style="fill: none; stroke: #b0b0b0; stroke-width: 0.8; stroke-linecap: square"/>
     </g>
     <g id="line2d_42">
      <g>
       <use xlink:href="#m5d418aafe8" x="404.797909" y="361.077656" style="stroke: #000000; stroke-width: 0.8"/>
      </g>
     </g>
     <g id="text_22">
      <!-- 50 -->
      <g transform="translate(398.435409 375.675312) scale(0.1 -0.1)">
       <use xlink:href="#DejaVuSans-18"/>
       <use xlink:href="#DejaVuSans-13" transform="translate(63.625 0)"/>
      </g>
     </g>
    </g>
    <g id="xtick_14">
     <g id="line2d_43">
      <path d="M 473.290372 361.077656 
L 473.290372 234.84 
" clip-path="url(#pea5013d376)" style="fill: none; stroke: #b0b0b0; stroke-width: 0.8; stroke-linecap: square"/>
     </g>
     <g id="line2d_44">
      <g>
       <use xlink:href="#m5d418aafe8" x="473.290372" y="361.077656" style="stroke: #000000; stroke-width: 0.8"/>
      </g>
     </g>
     <g id="text_23">
      <!-- 60 -->
      <g transform="translate(466.927872 375.675312) scale(0.1 -0.1)">
       <use xlink:href="#DejaVuSans-19"/>
       <use xlink:href="#DejaVuSans-13" transform="translate(63.625 0)"/>
      </g>
     </g>
    </g>
    <g id="text_24">
     <!-- t (s) -->
     <g transform="translate(257.684531 389.675312) scale(0.1 -0.1)">
      <use xlink:href="#DejaVuSans-57"/>
      <use xlink:href="#DejaVuSans-3" transform="translate(39.203125 0)"/>
      <use xlink:href="#DejaVuSans-b" transform="translate(70.984375 0)"/>
      <use xlink:href="#DejaVuSans-56" transform="translate(110 0)"/>
      <use xlink:href="#DejaVuSans-c" transform="translate(162.09375 0)"/>
     </g>
    </g>
   </g>
   <g id="matplotlib.axis_4">
    <g id="ytick_6">
     <g id="line2d_45">
      <path d="M 42.28 336.212663 
L 493.2 336.212663 
" clip-path="url(#pea5013d376)" style="fill: none; stroke: #b0b0b0; stroke-width: 0.8; stroke-linecap: square"/>
     </g>
     <g id="line2d_46">
      <g>
       <use xlink:href="#m6928a2dce4" x="42.28" y="336.212663" style="stroke: #000000; stroke-width: 0.8"/>
      </g>
     </g>
     <g id="text_25">
      <!-- −0.2 -->
      <g transform="translate(10.997188 340.011491) scale(0.1 -0.1)">
       <use xlink:href="#DejaVuSans-c9c"/>
       <use xlink:href="#DejaVuSans-13" transform="translate(83.796875 0)"/>
       <use xlink:href="#DejaVuSans-11" transform="translate(147.421875 0)"/>
       <use xlink:href="#DejaVuSans-15" transform="translate(179.203125 0)"/>
      </g>
     </g>
    </g>
    <g id="ytick_7">
     <g id="line2d_47">
      <path d="M 42.28 297.958828 
L 493.2 297.958828 
" clip-path="url(#pea5013d376)" style="fill: none; stroke: #b0b0b0; stroke-width: 0.8; stroke-linecap: square"/>
     </g>
     <g id="line2d_48">
      <g>
       <use xlink:href="#m6928a2dce4" x="42.28" y="297.958828" style="stroke: #000000; stroke-width: 0.8"/>
      </g>
     </g>
     <g id="text_26">
      <!-- 0.0 -->
      <g transform="translate(19.376875 301.757656) scale(0.1 -0.1)">
       <use xlink:href="#DejaVuSans-13"/>
       <use xlink:href="#DejaVuSans-11" transform="translate(63.625 0)"/>
       <use xlink:href="#DejaVuSans-13" transform="translate(95.40625 0)"/>
      </g>
     </g>
    </g>
    <g id="ytick_8">
     <g id="line2d_49">
      <path d="M 42.28 259.704993 
L 493.2 259.704993 
" clip-path="url(#pea5013d376)" style="fill: none; stroke: #b0b0b0; stroke-width: 0.8; stroke-linecap: square"/>
     </g>
     <g id="line2d_50">
      <g>
       <use xlink:href="#m6928a2dce4" x="42.28" y="259.704993" style="stroke: #000000; stroke-width: 0.8"/>
      </g>
     </g>
     <g id="text_27">
      <!-- 0.2 -->
      <g transform="translate(19.376875 263.503821) scale(0.1 -0.1)">
       <use xlink:href="#DejaVuSans-13"/>
       <use xlink:href="#DejaVuSans-11" transform="translate(63.625 0)"/>
       <use xlink:href="#DejaVuSans-15" transform="translate(95.40625 0)"/>
      </g>
     </g>
    </g>
   </g>
   <g id="line2d_51">
    <path d="M 62.776364 240.578331 
L 87.707522 240.578383 
L 88.188411 255.257444 
L 88.667618 266.057806 
L 89.146667 274.107869 
L 90.105439 284.580994 
L 90.584729 288.021992 
L 91.542748 292.072035 
L 92.023334 292.484535 
L 93.166654 295.736259 
L 94.536029 297.426745 
L 94.992706 297.628842 
L 95.449217 297.132202 
L 95.906281 298.247584 
L 96.362962 355.325024 
L 100.653256 355.339135 
L 104.970523 355.325214 
L 106.88801 244.919105 
L 107.367564 240.580647 
L 109.762879 240.58763 
L 110.242918 240.968751 
L 111.68082 333.331659 
L 112.162241 340.075761 
L 112.639366 355.116963 
L 113.118812 355.33404 
L 113.598111 355.281575 
L 114.080022 341.020117 
L 114.559703 340.526937 
L 115.037037 318.338994 
L 115.515421 314.651425 
L 115.995244 291.295866 
L 116.476868 289.216952 
L 116.956211 269.227918 
L 117.436489 303.778647 
L 117.913504 286.93737 
L 118.393935 289.967774 
L 118.874924 273.198886 
L 119.35378 278.027633 
L 119.833537 263.77002 
L 120.313462 271.815556 
L 120.792564 260.844357 
L 121.269643 272.366785 
L 121.749347 264.362663 
L 122.230207 315.523277 
L 122.708769 307.460846 
L 123.188796 317.479942 
L 123.66638 303.52123 
L 124.146816 308.851599 
L 124.627789 294.510138 
L 125.105629 301.575413 
L 125.584847 286.060651 
L 126.064258 290.640968 
L 126.544254 272.348134 
L 127.022377 276.677128 
L 127.50286 294.266477 
L 127.981535 298.098707 
L 128.460603 275.84152 
L 128.94192 277.158108 
L 129.422879 254.295972 
L 129.900421 258.085535 
L 130.380361 240.625004 
L 130.858819 247.237195 
L 131.338823 240.588077 
L 131.817372 247.699081 
L 132.29597 280.970061 
L 132.77717 297.366719 
L 133.257409 285.903379 
L 133.735836 297.703871 
L 134.21594 282.426373 
L 134.695975 292.044861 
L 135.173784 266.091909 
L 135.653898 267.580772 
L 136.133944 240.618858 
L 136.612981 245.118051 
L 137.092889 270.668836 
L 137.570732 280.65753 
L 138.050769 259.037128 
L 138.529169 269.79303 
L 139.010513 253.495495 
L 139.487974 267.689295 
L 139.968561 258.607889 
L 140.448306 270.645389 
L 140.927689 264.920198 
L 141.408769 273.002303 
L 141.886306 289.487847 
L 142.3645 299.727923 
L 142.84625 285.09228 
L 143.325772 289.186924 
L 143.804248 289.261004 
L 144.285991 291.547352 
L 144.766068 288.228361 
L 145.244321 295.60911 
L 145.723932 293.038311 
L 146.20281 297.782338 
L 146.680129 297.4668 
L 147.159302 297.685905 
L 147.640392 297.736786 
L 148.11959 294.531375 
L 148.597639 297.960162 
L 149.077034 291.554579 
L 149.558143 297.960038 
L 152.912388 297.961811 
L 153.394641 297.403197 
L 153.872801 297.962941 
L 154.352236 297.960418 
L 154.83218 302.426073 
L 155.313385 305.124213 
L 155.790528 355.33667 
L 163.940098 355.332716 
L 164.419148 353.698132 
L 164.899049 321.869502 
L 165.380648 317.487935 
L 165.860704 289.04283 
L 166.339037 244.417711 
L 166.819491 240.579374 
L 170.652735 240.587942 
L 171.61236 274.325719 
L 172.092462 308.022168 
L 172.571969 318.307984 
L 173.051189 341.348855 
L 173.531866 334.702117 
L 174.011395 341.420195 
L 174.489656 319.185987 
L 174.968486 317.376723 
L 175.449353 328.278172 
L 175.925421 329.404715 
L 176.409457 306.123358 
L 176.884881 303.867851 
L 177.36602 277.884208 
L 177.846466 275.294642 
L 178.325353 250.787941 
L 178.803457 250.701814 
L 179.284438 240.584949 
L 179.762868 240.679825 
L 180.241866 265.511988 
L 180.720507 277.756471 
L 181.200814 262.258966 
L 181.68073 272.917756 
L 182.161091 257.314332 
L 182.639239 269.078383 
L 183.120462 254.831117 
L 183.598907 266.562429 
L 184.077359 255.386667 
L 184.557426 271.355149 
L 185.035389 304.271297 
L 185.514872 317.059557 
L 185.994564 296.304067 
L 186.475599 292.622941 
L 186.953935 241.430065 
L 187.432786 240.585017 
L 189.832178 240.584838 
L 190.312511 241.844417 
L 191.271369 266.76081 
L 192.23002 280.594738 
L 192.708606 285.051636 
L 193.189367 288.243095 
L 193.668204 282.598591 
L 194.147093 294.342113 
L 195.104449 295.818356 
L 195.584389 295.519049 
L 196.54176 297.470795 
L 197.02488 297.460999 
L 197.504066 296.737099 
L 197.982718 297.332336 
L 198.462013 297.348504 
L 198.939877 296.347404 
L 199.419527 297.171918 
L 200.858355 297.857964 
L 201.336177 297.57837 
L 201.816886 308.679005 
L 202.29636 311.944325 
L 202.777256 339.942148 
L 203.255892 351.168838 
L 203.733998 355.33722 
L 210.448181 355.33683 
L 210.92657 352.175539 
L 211.405659 328.400554 
L 211.88428 283.946328 
L 212.364744 269.126038 
L 212.846279 246.09898 
L 213.324195 256.15152 
L 213.804008 291.815047 
L 214.284953 308.292464 
L 214.76479 299.048107 
L 215.244307 301.882343 
L 215.720894 270.226702 
L 216.20236 262.540928 
L 216.680888 240.581482 
L 218.598164 240.581547 
L 219.077257 240.723402 
L 219.555269 240.586206 
L 220.038862 242.133672 
L 220.517918 241.143966 
L 220.99571 265.596652 
L 221.474927 272.167707 
L 221.957054 303.214861 
L 222.435325 311.534144 
L 222.91355 340.188199 
L 223.391796 355.336402 
L 225.790438 355.334525 
L 226.26902 344.043769 
L 226.749229 324.020349 
L 227.230557 273.364568 
L 227.70854 251.764715 
L 228.187529 240.651144 
L 229.145368 240.579183 
L 232.982593 240.587346 
L 233.461906 257.20094 
L 233.941991 265.5978 
L 234.4188 302.729344 
L 234.898541 316.301221 
L 235.379911 351.40617 
L 235.859134 355.280291 
L 237.296106 355.33723 
L 239.694673 355.283519 
L 240.174771 349.808569 
L 240.653449 307.581087 
L 241.131186 308.350721 
L 241.61191 293.082002 
L 242.089948 291.433371 
L 242.569611 297.686424 
L 243.052199 289.146318 
L 243.531389 252.923167 
L 244.008713 249.286423 
L 244.489297 240.586513 
L 244.966395 245.221089 
L 245.449008 247.527733 
L 245.926812 277.976575 
L 246.407002 291.474643 
L 247.365687 355.325444 
L 247.843277 355.333235 
L 248.326159 341.742346 
L 248.803562 323.372207 
L 249.284479 265.355547 
L 249.763674 244.69398 
L 250.24312 240.582368 
L 251.679025 240.679934 
L 252.160091 263.487809 
L 252.638149 270.567406 
L 253.11855 240.591352 
L 253.599187 243.061195 
L 254.078792 240.588754 
L 254.55912 241.976671 
L 255.038117 240.591002 
L 255.517622 241.494382 
L 255.996105 240.859516 
L 256.473944 253.176131 
L 257.433966 308.997675 
L 257.913095 310.402301 
L 258.392468 335.120314 
L 258.872318 330.102778 
L 259.350089 345.630367 
L 259.830901 326.767497 
L 260.312902 327.942373 
L 260.788752 292.67538 
L 261.27028 281.941545 
L 261.747626 297.250452 
L 262.228239 300.94828 
L 262.707398 276.444378 
L 263.18538 282.821543 
L 263.666209 262.973106 
L 264.145819 274.224088 
L 264.626303 261.091367 
L 265.10472 278.648871 
L 265.582845 271.390475 
L 266.063391 293.39108 
L 266.541453 337.994582 
L 267.024421 355.028472 
L 267.499916 345.123339 
L 267.981208 354.003291 
L 268.462393 331.561189 
L 268.942123 331.45653 
L 269.42194 300.792229 
L 269.898992 297.27595 
L 270.379753 265.805776 
L 270.8578 266.11631 
L 271.336535 286.882413 
L 271.818517 288.644617 
L 272.295512 245.570825 
L 272.775572 240.62923 
L 274.212341 240.587848 
L 274.69357 245.16056 
L 275.174273 240.581273 
L 276.130123 266.022289 
L 276.612091 323.709728 
L 277.093055 332.551525 
L 277.569074 355.179288 
L 278.050711 352.859011 
L 278.530698 355.3367 
L 279.967915 355.326166 
L 280.446407 327.124175 
L 280.925794 321.839327 
L 281.406338 313.212417 
L 281.88761 323.894759 
L 282.364018 355.328578 
L 282.845637 338.632509 
L 283.323223 331.926675 
L 283.804954 240.583572 
L 288.117995 240.595833 
L 288.598704 252.920958 
L 289.077371 291.395917 
L 289.55868 307.170244 
L 290.037027 343.84505 
L 290.515992 355.337234 
L 291.95324 355.33412 
L 292.43378 342.444386 
L 292.914394 325.51884 
L 293.392051 267.740932 
L 293.871697 241.103206 
L 294.350355 240.579866 
L 297.7067 240.595558 
L 298.187017 242.691964 
L 298.666666 263.903894 
L 300.104744 355.337032 
L 303.462905 355.335237 
L 303.939903 320.970363 
L 304.41977 295.68891 
L 305.378035 286.076015 
L 305.857025 279.896787 
L 306.335895 304.645744 
L 307.296191 261.206895 
L 307.777823 240.578983 
L 313.049221 240.581079 
L 314.488427 270.972494 
L 314.968392 308.248683 
L 315.44626 335.066348 
L 315.927007 355.338004 
L 325.0346 355.335524 
L 325.517554 355.051665 
L 325.994466 307.271981 
L 326.473963 281.078842 
L 326.953622 240.951267 
L 327.434069 240.585292 
L 328.870146 240.589268 
L 329.349933 244.368487 
L 329.830936 243.722591 
L 330.309239 264.571715 
L 330.787705 267.305746 
L 331.268897 289.228127 
L 331.748293 289.253208 
L 332.229356 305.72158 
L 332.705834 296.240644 
L 333.18659 302.711859 
L 333.665271 320.26632 
L 334.145793 323.240142 
L 334.625578 299.315215 
L 335.10306 296.572517 
L 335.582773 269.371747 
L 336.06407 266.818387 
L 336.541634 241.90221 
L 337.020726 245.15741 
L 337.502545 240.582665 
L 337.980155 240.73819 
L 338.459453 267.938191 
L 338.938438 282.939646 
L 339.419823 271.899714 
L 339.89698 285.439592 
L 340.376645 273.852684 
L 340.857076 285.34395 
L 341.336828 275.353398 
L 341.818096 288.41171 
L 342.294881 274.727958 
L 342.775581 290.358317 
L 343.254049 320.896642 
L 343.732493 331.918956 
L 344.212046 312.363033 
L 344.69179 315.23339 
L 345.171073 288.147574 
L 345.651179 286.886592 
L 346.131078 257.779292 
L 346.610997 253.491633 
L 347.092346 240.580225 
L 351.405581 240.585305 
L 351.88293 242.302954 
L 352.363755 256.506866 
L 353.322291 275.534796 
L 354.283486 284.987092 
L 354.760521 287.219679 
L 355.720113 293.630186 
L 356.199447 294.614448 
L 356.679191 293.955408 
L 357.159601 316.472696 
L 357.639058 355.337487 
L 368.666068 355.335647 
L 369.143163 354.883328 
L 369.624372 339.826982 
L 370.104271 306.292265 
L 370.582729 290.262589 
L 371.063608 262.816137 
L 371.542956 256.113838 
L 372.022616 264.279973 
L 372.500811 268.179146 
L 372.979539 260.380542 
L 373.45954 270.557777 
L 373.937445 265.718853 
L 374.418642 280.77042 
L 374.897837 283.295999 
L 375.377084 299.642407 
L 375.856522 300.44757 
L 376.335936 313.717648 
L 376.814756 337.84233 
L 377.296706 345.816598 
L 377.774172 333.798799 
L 378.252485 333.316241 
L 378.733896 314.583952 
L 379.212347 309.312569 
L 379.693665 288.812146 
L 380.171164 284.470339 
L 380.651723 266.381795 
L 381.12924 266.730947 
L 381.609784 279.355588 
L 382.090505 284.189975 
L 382.568095 273.398625 
L 383.049606 279.660472 
L 383.528489 270.129475 
L 384.007667 278.275767 
L 384.485814 270.616153 
L 384.965066 280.353239 
L 385.444469 273.755953 
L 385.924294 284.719057 
L 386.404535 306.992638 
L 386.884421 316.026053 
L 387.364829 304.212967 
L 387.843326 307.974778 
L 388.322097 296.893801 
L 388.800466 305.961224 
L 389.280685 298.29872 
L 389.761796 305.483649 
L 390.238472 294.625171 
L 390.718863 299.244865 
L 391.200237 312.884555 
L 391.678651 314.42153 
L 392.157972 293.917042 
L 392.638207 289.514494 
L 393.117767 263.248784 
L 393.594898 254.387521 
L 394.075071 240.581043 
L 400.309439 240.579257 
L 400.786199 240.687372 
L 401.26823 258.507312 
L 401.748944 247.82773 
L 402.226804 262.201335 
L 402.704688 240.587643 
L 403.186749 240.996973 
L 403.66606 240.583949 
L 404.625355 240.584489 
L 405.102785 240.595008 
L 405.582331 250.850795 
L 406.063213 258.096474 
L 406.539809 258.741579 
L 407.022264 269.732804 
L 407.503044 276.999881 
L 407.980173 277.297224 
L 408.458831 286.850802 
L 408.938414 289.758513 
L 410.376955 294.845168 
L 410.85788 295.326368 
L 411.336039 294.994858 
L 411.815018 296.356372 
L 412.293891 296.979278 
L 412.776348 291.52104 
L 413.254502 297.959528 
L 413.731866 297.959513 
L 414.215185 292.861684 
L 414.690852 297.959424 
L 417.08989 297.959242 
L 417.568917 296.77757 
L 418.049782 297.959186 
L 420.925838 297.959091 
L 421.404742 297.740076 
L 421.885389 297.931307 
L 422.366574 293.368941 
L 422.842568 297.959076 
L 423.322094 297.959077 
L 423.802499 293.505495 
L 424.280398 297.959073 
L 424.761171 297.959082 
L 425.240797 296.200108 
L 425.720285 297.959084 
L 426.677296 297.95909 
L 427.159242 297.406981 
L 427.63627 297.959097 
L 428.116796 297.959104 
L 428.598353 288.355044 
L 429.077497 297.959121 
L 431.471791 297.959159 
L 431.952311 297.010403 
L 432.434251 297.959176 
L 432.912269 297.959192 
L 433.389327 297.617029 
L 433.871313 297.959214 
L 434.829029 297.959276 
L 435.309171 297.212051 
L 435.786996 297.959313 
L 436.266476 296.711459 
L 436.747541 293.948824 
L 437.226176 297.959376 
L 437.706724 297.959419 
L 438.189446 286.82028 
L 438.665162 297.959497 
L 442.500882 297.960933 
L 442.980795 297.578219 
L 443.458421 290.377134 
L 443.939213 346.052952 
L 444.419579 355.338224 
L 471.268023 355.333366 
L 471.744742 340.230515 
L 472.226282 303.246976 
L 472.703636 256.060296 
L 472.703636 256.060296 
" clip-path="url(#pea5013d376)" style="fill: none; stroke: #1f77b4; stroke-width: 1.5; stroke-linecap: square"/>
   </g>
   <g id="line2d_52">
    <path d="M 62.776364 249.101425 
L 63.256168 240.578075 
L 72.367106 240.578075 
L 72.846951 243.332012 
L 73.326861 261.703078 
L 73.804044 286.075962 
L 74.285858 304.041042 
L 74.764321 327.247555 
L 75.242348 343.868834 
L 75.721713 355.339581 
L 81.955775 355.339581 
L 82.436264 337.597573 
L 83.392471 282.88414 
L 84.83108 318.477914 
L 85.312983 328.813722 
L 86.270769 342.049911 
L 87.231329 349.701536 
L 87.707522 351.44513 
L 88.188411 352.47155 
L 88.667618 352.339935 
L 89.146667 351.068184 
L 89.625484 349.363534 
L 90.584729 343.209907 
L 92.023334 328.712926 
L 93.623239 310.432074 
L 94.536029 297.911837 
L 94.992706 292.53395 
L 95.449217 285.487957 
L 97.77676 260.361017 
L 98.737087 254.087619 
L 99.214823 252.427401 
L 99.694622 251.3109 
L 100.174954 251.367414 
L 100.653256 252.73605 
L 101.132262 254.799835 
L 102.091255 263.376404 
L 103.04978 277.70476 
L 103.529485 288.684616 
L 104.01 286.426914 
L 104.488011 258.664931 
L 104.970523 244.44231 
L 105.447098 240.578075 
L 106.88801 240.578075 
L 107.367564 246.92454 
L 107.84756 256.981659 
L 109.286077 300.935677 
L 110.722609 333.649157 
L 111.202172 340.40818 
L 111.68082 342.217891 
L 112.162241 339.856003 
L 112.639366 334.441427 
L 113.598111 310.760359 
L 114.080022 293.214822 
L 114.559703 295.926434 
L 115.037037 300.245681 
L 115.515421 302.402761 
L 115.995244 304.016314 
L 116.476868 304.407511 
L 116.956211 304.028686 
L 117.436489 303.199985 
L 118.393935 300.041778 
L 119.833537 293.831176 
L 121.269643 289.204662 
L 121.749347 287.955069 
L 122.708769 286.707511 
L 123.188796 286.517153 
L 123.66638 286.526391 
L 124.146816 286.677075 
L 125.105629 293.112184 
L 125.584847 294.720836 
L 126.064258 294.331598 
L 127.022377 289.786701 
L 128.460603 278.737017 
L 129.900421 270.783934 
L 130.380361 268.875254 
L 130.858819 267.968414 
L 131.338823 267.450981 
L 131.817372 267.565508 
L 132.29597 268.355578 
L 132.77717 269.398176 
L 133.735836 273.136378 
L 134.21594 275.877978 
L 134.695975 277.525059 
L 136.133944 262.924767 
L 137.092889 256.533998 
L 137.570732 255.466787 
L 138.050769 255.842478 
L 138.529169 257.454697 
L 139.487974 265.007484 
L 140.927689 282.762816 
L 142.3645 297.295479 
L 142.84625 301.023455 
L 143.325772 302.709581 
L 143.804248 303.233232 
L 144.285991 302.151021 
L 144.766068 298.388168 
L 145.244321 277.520027 
L 145.723932 248.538817 
L 146.20281 240.578075 
L 147.640392 240.578075 
L 148.11959 243.545896 
L 149.558143 300.677271 
L 150.037525 318.995841 
L 150.516519 343.110801 
L 150.995475 355.339581 
L 154.352236 355.339581 
L 154.83218 348.979533 
L 155.313385 326.797082 
L 155.790528 348.418821 
L 156.269512 355.339581 
L 159.145988 355.339581 
L 159.627007 354.867016 
L 162.023183 273.770015 
L 162.982642 250.785602 
L 163.459728 246.478947 
L 163.940098 247.910426 
L 164.419148 255.326972 
L 165.380648 297.754848 
L 166.819491 255.360485 
L 167.296171 251.149798 
L 167.778056 251.612251 
L 168.255386 255.716463 
L 169.214177 274.1398 
L 170.175256 298.521862 
L 170.652735 311.962427 
L 171.61236 329.112361 
L 172.092462 332.513003 
L 172.571969 332.438164 
L 173.051189 328.83966 
L 174.011395 311.155148 
L 174.489656 298.916079 
L 174.968486 291.186389 
L 175.449353 285.49389 
L 175.925421 286.316481 
L 176.409457 289.177252 
L 176.884881 290.035736 
L 177.36602 289.683117 
L 177.846466 288.468891 
L 178.803457 283.384759 
L 180.241866 273.149839 
L 181.200814 268.045481 
L 181.68073 266.624727 
L 182.161091 265.61489 
L 182.639239 265.575129 
L 183.120462 266.51968 
L 183.598907 267.98126 
L 184.557426 273.823109 
L 185.994564 288.389526 
L 186.475599 283.415374 
L 187.432786 250.494786 
L 187.91446 240.578075 
L 191.74866 240.578075 
L 192.23002 257.106371 
L 192.708606 288.982219 
L 193.189367 313.450706 
L 193.668204 345.199917 
L 194.147093 355.339581 
L 197.982718 355.339581 
L 198.462013 352.768912 
L 199.419527 315.474149 
L 199.900006 305.251529 
L 200.378894 298.172474 
L 200.858355 295.577957 
L 201.336177 294.983964 
L 201.816886 296.321428 
L 202.777256 304.14981 
L 204.693424 331.880011 
L 205.1752 340.449501 
L 206.131883 352.895843 
L 206.613167 355.339581 
L 207.57323 355.339581 
L 208.051078 353.120686 
L 208.531431 346.815999 
L 209.490056 323.546193 
L 209.966701 306.931195 
L 211.405659 272.520288 
L 211.88428 268.241521 
L 212.364744 270.41562 
L 212.846279 281.431307 
L 213.324195 296.19125 
L 213.804008 317.023391 
L 214.284953 325.261815 
L 214.76479 326.610165 
L 215.244307 321.264172 
L 216.20236 294.234169 
L 216.680888 275.098745 
L 217.638816 247.025209 
L 218.120386 240.578075 
L 219.555269 240.578075 
L 220.038862 243.428474 
L 221.957054 284.913335 
L 222.435325 297.536981 
L 223.871033 322.054539 
L 224.35107 327.350581 
L 224.830017 329.133311 
L 225.309994 328.209145 
L 225.790438 324.760836 
L 226.749229 305.742786 
L 227.230557 290.809491 
L 227.70854 286.668659 
L 230.105451 248.102173 
L 230.583357 244.907095 
L 231.063501 243.954435 
L 231.544056 245.807734 
L 232.502987 257.944369 
L 234.4188 301.783953 
L 234.898541 314.837992 
L 235.859134 333.546942 
L 236.816106 343.375917 
L 237.296106 344.15465 
L 237.776339 341.851687 
L 238.253935 337.792485 
L 240.174771 304.731789 
L 240.653449 295.516004 
L 241.61191 322.048228 
L 242.089948 321.284294 
L 243.052199 297.295506 
L 243.531389 282.851743 
L 244.008713 276.707972 
L 244.489297 276.88362 
L 244.966395 282.989177 
L 246.407002 323.31821 
L 246.887167 330.01074 
L 247.365687 329.829271 
L 247.843277 321.444114 
L 248.803562 278.782386 
L 249.284479 251.609096 
L 249.763674 240.578075 
L 250.24312 240.578075 
L 250.722853 255.753022 
L 251.199631 292.717844 
L 251.679025 294.506366 
L 252.160091 284.400844 
L 252.638149 270.609674 
L 253.11855 249.811548 
L 253.599187 240.578075 
L 255.517622 240.578075 
L 256.473944 272.516884 
L 256.953031 295.230727 
L 257.913095 329.560594 
L 258.392468 339.54805 
L 258.872318 346.773654 
L 259.350089 347.252532 
L 259.830901 341.48142 
L 260.312902 332.861735 
L 261.27028 300.445048 
L 261.747626 292.747652 
L 262.707398 290.801867 
L 263.18538 290.666288 
L 263.666209 291.192015 
L 264.145819 292.136504 
L 265.10472 296.031878 
L 266.541453 304.65759 
L 267.499916 309.124455 
L 267.981208 310.27739 
L 268.462393 310.908747 
L 268.942123 310.682185 
L 269.898992 308.201977 
L 270.379753 306.102199 
L 271.336535 302.903113 
L 271.818517 297.220011 
L 272.775572 250.706183 
L 273.256487 240.578075 
L 275.174273 240.578075 
L 275.653785 263.10046 
L 276.612091 351.494274 
L 277.093055 355.339581 
L 279.488544 355.339581 
L 280.446407 259.882313 
L 280.925794 240.578075 
L 281.406338 240.578075 
L 282.364018 355.339581 
L 283.323223 355.339581 
L 284.281741 242.461451 
L 284.761005 240.578075 
L 286.680147 240.578075 
L 287.160873 242.448421 
L 287.637286 295.763939 
L 288.117995 333.684379 
L 288.598704 355.339581 
L 290.515992 355.339581 
L 290.993073 352.591181 
L 291.473884 322.1895 
L 292.43378 293.387473 
L 292.914394 282.330564 
L 293.871697 247.50277 
L 294.350355 240.578075 
L 296.747517 240.578075 
L 297.227183 251.056457 
L 297.7067 272.433169 
L 298.666666 329.24809 
L 299.146569 355.339581 
L 302.501341 355.339581 
L 302.981089 328.923932 
L 303.939903 254.504089 
L 304.41977 240.578075 
L 304.897405 240.578075 
L 305.378035 255.194108 
L 306.335895 350.463059 
L 306.816146 355.339581 
L 307.296191 350.462051 
L 308.255593 240.578075 
L 312.089714 240.578075 
L 313.049221 337.250393 
L 313.529868 355.339581 
L 317.363736 355.339581 
L 317.843034 326.129453 
L 318.322407 263.397968 
L 318.802125 247.768293 
L 319.280862 274.398729 
L 319.76398 314.461678 
L 320.239683 341.131044 
L 320.720026 353.701235 
L 321.200778 355.339581 
L 321.681679 355.339581 
L 322.159018 350.628518 
L 322.640051 339.112863 
L 324.077042 285.385274 
L 325.0346 261.966161 
L 325.517554 257.013798 
L 325.994466 254.976557 
L 326.473963 256.388431 
L 327.434069 266.562462 
L 328.870146 289.893332 
L 329.830936 302.164144 
L 330.787705 308.988673 
L 331.268897 309.89768 
L 331.748293 309.047791 
L 332.229356 306.70397 
L 333.18659 293.678971 
L 333.665271 286.657014 
L 335.10306 275.951151 
L 335.582773 272.929711 
L 336.541634 269.398234 
L 337.020726 268.550339 
L 337.502545 268.006878 
L 337.980155 268.01377 
L 338.459453 268.530238 
L 338.938438 269.262882 
L 339.89698 271.941086 
L 342.775581 284.330451 
L 343.254049 286.736741 
L 345.171073 293.150847 
L 345.651179 293.898276 
L 346.131078 294.43623 
L 346.610997 294.457984 
L 347.092346 289.362683 
L 347.570478 274.418521 
L 348.048931 252.520135 
L 348.530048 240.578075 
L 351.88293 240.578075 
L 352.363755 242.132222 
L 354.283486 348.720603 
L 354.760521 355.339581 
L 358.595921 355.339581 
L 359.076986 351.875236 
L 359.553996 327.508991 
L 360.035229 316.030472 
L 360.513386 312.869495 
L 360.993268 322.086928 
L 361.474694 334.701818 
L 362.433799 346.996377 
L 362.912705 348.895812 
L 363.394229 348.767242 
L 363.873831 346.974689 
L 364.829059 338.708255 
L 366.268753 321.208642 
L 367.704818 308.747188 
L 368.184671 305.71803 
L 368.666068 304.207284 
L 369.143163 303.115071 
L 369.624372 302.892177 
L 370.104271 303.225159 
L 370.582729 303.829507 
L 372.500811 308.008496 
L 372.979539 308.81975 
L 373.45954 309.02709 
L 373.937445 308.43332 
L 374.418642 307.280257 
L 374.897837 308.267524 
L 375.377084 308.640303 
L 375.856522 308.474132 
L 376.335936 307.918846 
L 377.296706 305.511354 
L 380.651723 292.818813 
L 382.568095 288.027325 
L 384.007667 286.197298 
L 384.485814 285.723181 
L 385.924294 284.755709 
L 386.884421 283.843669 
L 387.843326 282.227722 
L 388.322097 286.580264 
L 389.280685 299.04535 
L 389.761796 302.050796 
L 390.238472 304.061191 
L 390.718863 304.185408 
L 391.200237 302.69128 
L 391.678651 300.464045 
L 392.638207 292.28714 
L 395.994879 251.053138 
L 396.95252 242.453231 
L 397.430772 240.578075 
L 399.348434 240.578075 
L 399.829518 241.167722 
L 400.309439 244.926362 
L 401.26823 258.293742 
L 401.748944 267.5272 
L 402.226804 260.995441 
L 402.704688 251.167381 
L 403.186749 244.496223 
L 403.66606 240.578075 
L 407.022264 240.578075 
L 407.503044 240.743181 
L 407.980173 246.54374 
L 409.416299 271.485334 
L 409.897146 278.546285 
L 410.376955 287.617821 
L 411.815018 306.342894 
L 412.293891 311.398589 
L 412.776348 314.01345 
L 413.254502 315.733675 
L 413.731866 315.573678 
L 414.215185 313.243155 
L 414.690852 309.769829 
L 415.17279 302.591151 
L 415.650989 288.066466 
L 416.130076 254.884623 
L 416.609452 240.578075 
L 419.48728 240.578075 
L 419.966576 240.766988 
L 420.443503 254.610854 
L 422.842568 355.339581 
L 428.598353 355.339581 
L 429.077497 337.928893 
L 429.553872 325.155988 
L 431.952311 319.64877 
L 432.434251 318.660491 
L 434.348664 316.044366 
L 435.786996 314.917655 
L 436.266476 314.625912 
L 437.226176 314.319287 
L 438.189446 314.256249 
L 439.142263 314.418189 
L 440.101422 314.786495 
L 440.583944 315.002903 
L 442.500882 316.425743 
L 445.379046 319.582685 
L 446.815374 321.579674 
L 447.293983 322.151983 
L 448.733358 324.317111 
L 449.213437 324.919324 
L 450.650478 327.13561 
L 451.129262 327.735824 
L 452.090118 329.115985 
L 453.046618 330.452605 
L 454.008198 331.727074 
L 454.964449 332.920783 
L 455.444677 333.559481 
L 458.320584 336.242625 
L 460.239677 337.233228 
L 461.199461 337.433251 
L 462.156267 337.411609 
L 463.114725 337.149692 
L 463.59578 336.959276 
L 465.032825 335.830591 
L 465.513023 335.398904 
L 467.430312 332.62221 
L 469.350749 328.480317 
L 469.827734 327.025335 
L 470.3073 326.052674 
L 472.703636 326.052674 
L 472.703636 326.052674 
" clip-path="url(#pea5013d376)" style="fill: none; stroke-dasharray: 9.6,2.4,1.5,2.4; stroke-dashoffset: 0; stroke: #ff7f0e; stroke-width: 1.5"/>
   </g>
   <g id="line2d_53">
    <path d="M 42.28 355.339581 
L 493.2 355.339581 
" clip-path="url(#pea5013d376)" style="fill: none; stroke-dasharray: 3.7,1.6; stroke-dashoffset: 0; stroke: #ff0000"/>
   </g>
   <g id="line2d_54">
    <path d="M 42.28 240.578075 
L 493.2 240.578075 
" clip-path="url(#pea5013d376)" style="fill: none; stroke-dasharray: 3.7,1.6; stroke-dashoffset: 0; stroke: #ff0000"/>
   </g>
   <g id="patch_9">
    <path d="M 42.28 361.077656 
L 42.28 234.84 
" style="fill: none; stroke: #000000; stroke-width: 0.8; stroke-linejoin: miter; stroke-linecap: square"/>
   </g>
   <g id="patch_10">
    <path d="M 493.2 361.077656 
L 493.2 234.84 
" style="fill: none; stroke: #000000; stroke-width: 0.8; stroke-linejoin: miter; stroke-linecap: square"/>
   </g>
   <g id="patch_11">
    <path d="M 42.28 361.077656 
L 493.2 361.077656 
" style="fill: none; stroke: #000000; stroke-width: 0.8; stroke-linejoin: miter; stroke-linecap: square"/>
   </g>
   <g id="patch_12">
    <path d="M 42.28 234.84 
L 493.2 234.84 
" style="fill: none; stroke: #000000; stroke-width: 0.8; stroke-linejoin: miter; stroke-linecap: square"/>
   </g>
   <g id="text_28">
    <!-- $a_x$ $\left(\mathrm{m/s^2}\right)$ -->
    <g transform="translate(240.92 228.84) scale(0.12 -0.12)">
     <defs>
      <path id="DejaVuSans-Oblique-44" d="M 3438 1997 
L 3047 0 
L 2472 0 
L 2578 531 
Q 2325 219 2001 64 
Q 1678 -91 1281 -91 
Q 834 -91 548 182 
Q 263 456 263 884 
Q 263 1497 752 1853 
Q 1241 2209 2100 2209 
L 2900 2209 
L 2931 2363 
Q 2938 2388 2941 2417 
Q 2944 2447 2944 2509 
Q 2944 2788 2717 2942 
Q 2491 3097 2081 3097 
Q 1800 3097 1504 3025 
Q 1209 2953 897 2809 
L 997 3341 
Q 1322 3463 1633 3523 
Q 1944 3584 2234 3584 
Q 2853 3584 3176 3315 
Q 3500 3047 3500 2534 
Q 3500 2431 3484 2292 
Q 3469 2153 3438 1997 
z
M 2816 1759 
L 2241 1759 
Q 1534 1759 1195 1570 
Q 856 1381 856 984 
Q 856 709 1029 553 
Q 1203 397 1509 397 
Q 1978 397 2328 733 
Q 2678 1069 2791 1631 
L 2816 1759 
z
" transform="scale(0.015625)"/>
      <path id="DejaVuSans-Oblique-5b" d="M 3841 3500 
L 2234 1784 
L 3219 0 
L 2559 0 
L 1819 1388 
L 531 0 
L -166 0 
L 1556 1844 
L 641 3500 
L 1300 3500 
L 1972 2234 
L 3144 3500 
L 3841 3500 
z
" transform="scale(0.015625)"/>
      <path id="STIXSizeOneSym-Regular-4" d="M 2445 -858 
L 2445 -1050 
Q 1728 -371 1309 630 
Q 890 1632 890 2886 
Q 890 4122 1309 5136 
Q 1728 6150 2445 6822 
L 2445 6630 
Q 1408 5363 1408 2886 
Q 1408 410 2445 -858 
z
" transform="scale(0.015625)"/>
      <path id="DejaVuSans-50" d="M 3328 2828 
Q 3544 3216 3844 3400 
Q 4144 3584 4550 3584 
Q 5097 3584 5394 3201 
Q 5691 2819 5691 2113 
L 5691 0 
L 5113 0 
L 5113 2094 
Q 5113 2597 4934 2840 
Q 4756 3084 4391 3084 
Q 3944 3084 3684 2787 
Q 3425 2491 3425 1978 
L 3425 0 
L 2847 0 
L 2847 2094 
Q 2847 2600 2669 2842 
Q 2491 3084 2119 3084 
Q 1678 3084 1418 2786 
Q 1159 2488 1159 1978 
L 1159 0 
L 581 0 
L 581 3500 
L 1159 3500 
L 1159 2956 
Q 1356 3278 1631 3431 
Q 1906 3584 2284 3584 
Q 2666 3584 2933 3390 
Q 3200 3197 3328 2828 
z
" transform="scale(0.015625)"/>
      <path id="DejaVuSans-12" d="M 1625 4666 
L 2156 4666 
L 531 -594 
L 0 -594 
L 1625 4666 
z
" transform="scale(0.015625)"/>
      <path id="STIXSizeOneSym-Regular-5" d="M 550 6630 
L 550 6822 
Q 1267 6144 1686 5142 
Q 2106 4141 2106 2886 
Q 2106 1651 1686 636 
Q 1267 -378 550 -1050 
L 550 -858 
Q 1587 410 1587 2886 
Q 1587 5363 550 6630 
z
" transform="scale(0.015625)"/>
     </defs>
     <use xlink:href="#DejaVuSans-Oblique-44" transform="translate(0 0.746875)"/>
     <use xlink:href="#DejaVuSans-Oblique-5b" transform="translate(61.279297 -14.253076) scale(0.7)"/>
     <use xlink:href="#DejaVuSans-3" transform="translate(105.439453 0.746875)"/>
     <use xlink:href="#STIXSizeOneSym-Regular-4" transform="translate(137.226562 5.1375) scale(0.833613)"/>
     <use xlink:href="#DejaVuSans-50" transform="translate(176.2388 0.746875)"/>
     <use xlink:href="#DejaVuSans-12" transform="translate(273.650909 0.746875)"/>
     <use xlink:href="#DejaVuSans-56" transform="translate(307.342316 0.746875)"/>
     <use xlink:href="#DejaVuSans-15" transform="translate(360.398956 42.046875) scale(0.7)"/>
     <use xlink:href="#STIXSizeOneSym-Regular-5" transform="translate(407.669464 5.1375) scale(0.833613)"/>
    </g>
   </g>
   <g id="legend_2">
    <g id="patch_13">
     <path d="M 424.9 272.841562 
L 486.2 272.841562 
Q 488.2 272.841562 488.2 270.841562 
L 488.2 241.84 
Q 488.2 239.84 486.2 239.84 
L 424.9 239.84 
Q 422.9 239.84 422.9 241.84 
L 422.9 270.841562 
Q 422.9 272.841562 424.9 272.841562 
z
" style="fill: #ffffff; opacity: 0.8; stroke: #cccccc; stroke-linejoin: miter"/>
    </g>
    <g id="line2d_55">
     <path d="M 426.9 247.938437 
L 436.9 247.938437 
L 446.9 247.938437 
" style="fill: none; stroke: #1f77b4; stroke-width: 1.5; stroke-linecap: square"/>
    </g>
    <g id="text_29">
     <!-- $a_{x,cmd}$ -->
     <g transform="translate(454.9 251.438437) scale(0.1 -0.1)">
      <defs>
       <path id="DejaVuSans-f" d="M 750 794 
L 1409 794 
L 1409 256 
L 897 -744 
L 494 -744 
L 750 256 
L 750 794 
z
" transform="scale(0.015625)"/>
      </defs>
      <use xlink:href="#DejaVuSans-Oblique-44"/>
      <use xlink:href="#DejaVuSans-Oblique-5b" transform="translate(61.279297 -14.999951) scale(0.7)"/>
      <use xlink:href="#DejaVuSans-f" transform="translate(102.705078 -14.999951) scale(0.7)"/>
      <use xlink:href="#DejaVuSans-Oblique-46" transform="translate(138.59375 -14.999951) scale(0.7)"/>
      <use xlink:href="#DejaVuSans-Oblique-50" transform="translate(177.080078 -14.999951) scale(0.7)"/>
      <use xlink:href="#DejaVuSans-Oblique-47" transform="translate(245.268555 -14.999951) scale(0.7)"/>
     </g>
    </g>
    <g id="line2d_56">
     <path d="M 426.9 262.939219 
L 436.9 262.939219 
L 446.9 262.939219 
" style="fill: none; stroke-dasharray: 9.6,2.4,1.5,2.4; stroke-dashoffset: 0; stroke: #ff7f0e; stroke-width: 1.5"/>
    </g>
    <g id="text_30">
     <!-- $a_{x,ref}$ -->
     <g transform="translate(454.9 266.439219) scale(0.1 -0.1)">
      <use xlink:href="#DejaVuSans-Oblique-44"/>
      <use xlink:href="#DejaVuSans-Oblique-5b" transform="translate(61.279297 -14.999951) scale(0.7)"/>
      <use xlink:href="#DejaVuSans-f" transform="translate(102.705078 -14.999951) scale(0.7)"/>
      <use xlink:href="#DejaVuSans-Oblique-55" transform="translate(138.59375 -14.999951) scale(0.7)"/>
      <use xlink:href="#DejaVuSans-Oblique-48" transform="translate(167.373047 -14.999951) scale(0.7)"/>
      <use xlink:href="#DejaVuSans-Oblique-49" transform="translate(210.439453 -14.999951) scale(0.7)"/>
     </g>
    </g>
   </g>
  </g>
  <g id="text_31">
   <!-- QCar2 Inputs -->
   <g transform="translate(212.5575 17.181188) scale(0.12 -0.12)">
    <defs>
     <path id="DejaVuSans-34" d="M 2522 4238 
Q 1834 4238 1429 3725 
Q 1025 3213 1025 2328 
Q 1025 1447 1429 934 
Q 1834 422 2522 422 
Q 3209 422 3611 934 
Q 4013 1447 4013 2328 
Q 4013 3213 3611 3725 
Q 3209 4238 2522 4238 
z
M 3406 84 
L 4238 -825 
L 3475 -825 
L 2784 -78 
Q 2681 -84 2626 -87 
Q 2572 -91 2522 -91 
Q 1538 -91 948 567 
Q 359 1225 359 2328 
Q 359 3434 948 4092 
Q 1538 4750 2522 4750 
Q 3503 4750 4090 4092 
Q 4678 3434 4678 2328 
Q 4678 1516 4351 937 
Q 4025 359 3406 84 
z
" transform="scale(0.015625)"/>
     <path id="DejaVuSans-26" d="M 4122 4306 
L 4122 3641 
Q 3803 3938 3442 4084 
Q 3081 4231 2675 4231 
Q 1875 4231 1450 3742 
Q 1025 3253 1025 2328 
Q 1025 1406 1450 917 
Q 1875 428 2675 428 
Q 3081 428 3442 575 
Q 3803 722 4122 1019 
L 4122 359 
Q 3791 134 3420 21 
Q 3050 -91 2638 -91 
Q 1578 -91 968 557 
Q 359 1206 359 2328 
Q 359 3453 968 4101 
Q 1578 4750 2638 4750 
Q 3056 4750 3426 4639 
Q 3797 4528 4122 4306 
z
" transform="scale(0.015625)"/>
     <path id="DejaVuSans-2c" d="M 628 4666 
L 1259 4666 
L 1259 0 
L 628 0 
L 628 4666 
z
" transform="scale(0.015625)"/>
     <path id="DejaVuSans-51" d="M 3513 2113 
L 3513 0 
L 2938 0 
L 2938 2094 
Q 2938 2591 2744 2837 
Q 2550 3084 2163 3084 
Q 1697 3084 1428 2787 
Q 1159 2491 1159 1978 
L 1159 0 
L 581 0 
L 581 3500 
L 1159 3500 
L 1159 2956 
Q 1366 3272 1645 3428 
Q 1925 3584 2291 3584 
Q 2894 3584 3203 3211 
Q 3513 2838 3513 2113 
z
" transform="scale(0.015625)"/>
     <path id="DejaVuSans-53" d="M 1159 525 
L 1159 -1331 
L 581 -1331 
L 581 3500 
L 1159 3500 
L 1159 2969 
Q 1341 3281 1617 3432 
Q 1894 3584 2278 3584 
Q 2916 3584 3314 3078 
Q 3713 2572 3713 1747 
Q 3713 922 3314 415 
Q 2916 -91 2278 -91 
Q 1894 -91 1617 61 
Q 1341 213 1159 525 
z
M 3116 1747 
Q 3116 2381 2855 2742 
Q 2594 3103 2138 3103 
Q 1681 3103 1420 2742 
Q 1159 2381 1159 1747 
Q 1159 1113 1420 752 
Q 1681 391 2138 391 
Q 2594 391 2855 752 
Q 3116 1113 3116 1747 
z
" transform="scale(0.015625)"/>
     <path id="DejaVuSans-58" d="M 544 1381 
L 544 3500 
L 1119 3500 
L 1119 1403 
Q 1119 906 1312 657 
Q 1506 409 1894 409 
Q 2359 409 2629 706 
Q 2900 1003 2900 1516 
L 2900 3500 
L 3475 3500 
L 3475 0 
L 2900 0 
L 2900 538 
Q 2691 219 2414 64 
Q 2138 -91 1772 -91 
Q 1169 -91 856 284 
Q 544 659 544 1381 
z
M 1991 3584 
L 1991 3584 
z
" transform="scale(0.015625)"/>
    </defs>
    <use xlink:href="#DejaVuSans-34"/>
    <use xlink:href="#DejaVuSans-26" transform="translate(78.71875 0)"/>
    <use xlink:href="#DejaVuSans-44" transform="translate(148.546875 0)"/>
    <use xlink:href="#DejaVuSans-55" transform="translate(209.828125 0)"/>
    <use xlink:href="#DejaVuSans-15" transform="translate(250.9375 0)"/>
    <use xlink:href="#DejaVuSans-3" transform="translate(314.5625 0)"/>
    <use xlink:href="#DejaVuSans-2c" transform="translate(346.34375 0)"/>
    <use xlink:href="#DejaVuSans-51" transform="translate(375.84375 0)"/>
    <use xlink:href="#DejaVuSans-53" transform="translate(439.21875 0)"/>
    <use xlink:href="#DejaVuSans-58" transform="translate(502.703125 0)"/>
    <use xlink:href="#DejaVuSans-57" transform="translate(566.078125 0)"/>
    <use xlink:href="#DejaVuSans-56" transform="translate(605.28125 0)"/>
   </g>
  </g>
 </g>
 <defs>
  <clipPath id="pebf9e5a676">
   <rect x="42.28" y="48.96" width="450.92" height="126.237656"/>
  </clipPath>
  <clipPath id="pea5013d376">
   <rect x="42.28" y="234.84" width="450.92" height="126.237656"/>
  </clipPath>
 </defs>
</svg>
