<?xml version="1.0" encoding="utf-8" standalone="no"?>
<!DOCTYPE svg PUBLIC "-//W3C//DTD SVG 1.1//EN"
  "http://www.w3.org/Graphics/SVG/1.1/DTD/svg11.dtd">
<svg xmlns:xlink="http://www.w3.org/1999/xlink" width="504pt" height="403.2pt" viewBox="0 0 504 403.2" xmlns="http://www.w3.org/2000/svg" version="1.1">
 <metadata>
  <rdf:RDF xmlns:dc="http://purl.org/dc/elements/1.1/" xmlns:cc="http://creativecommons.org/ns#" xmlns:rdf="http://www.w3.org/1999/02/22-rdf-syntax-ns#">
   <cc:Work>
    <dc:type rdf:resource="http://purl.org/dc/dcmitype/StillImage"/>
    <dc:date>2026-07-10T12:40:38.654765</dc:date>
    <dc:format>image/svg+xml</dc:format>
    <dc:creator>
     <cc:Agent>
      <dc:title>Matplotlib v3.11.0, https://matplotlib.org/</dc:title>
     </cc:Agent>
    </dc:creator>
   </cc:Work>
  </rdf:RDF>
 </metadata>
 <defs>
  <style type="text/css">*{stroke-linejoin: round; stroke-linecap: butt}</style>
 </defs>
 <g id="figure_1">
  <g id="patch_1">
   <path d="M 0 403.2 
L 504 403.2 
L 504 0 
L 0 0 
z
" style="fill: #ffffff"/>
  </g>
  <g id="axes_1">
   <g id="patch_2">
    <path d="M 42.28 175.197656 
L 493.2 175.197656 
L 493.2 48.96 
L 42.28 48.96 
z
" style="fill: #ffffff"/>
   </g>
   <g id="matplotlib.axis_1">
    <g id="xtick_1">
     <g id="line2d_1">
      <path d="M 62.33559 175.197656 
L 62.33559 48.96 
" clip-path="url(#p1c2e85f7a5)" style="fill: none; stroke: #b0b0b0; stroke-width: 0.8; stroke-linecap: square"/>
     </g>
     <g id="line2d_2">
      <defs>
       <path id="m04c9764666" d="M 0 0 
L 0 3.5 
" style="stroke: #000000; stroke-width: 0.8"/>
      </defs>
      <g>
       <use xlink:href="#m04c9764666" x="62.33559" y="175.197656" style="stroke: #000000; stroke-width: 0.8"/>
      </g>
     </g>
     <g id="text_1">
      <!-- 0 -->
      <g transform="translate(59.15434 189.795312) scale(0.1 -0.1)">
       <defs>
        <path id="DejaVuSans-13" d="M 2034 4250 
Q 1547 4250 1301 3770 
Q 1056 3291 1056 2328 
Q 1056 1369 1301 889 
Q 1547 409 2034 409 
Q 2525 409 2770 889 
Q 3016 1369 3016 2328 
Q 3016 3291 2770 3770 
Q 2525 4250 2034 4250 
z
M 2034 4750 
Q 2819 4750 3233 4129 
Q 3647 3509 3647 2328 
Q 3647 1150 3233 529 
Q 2819 -91 2034 -91 
Q 1250 -91 836 529 
Q 422 1150 422 2328 
Q 422 3509 836 4129 
Q 1250 4750 2034 4750 
z
" transform="scale(0.015625)"/>
       </defs>
       <use xlink:href="#DejaVuSans-13"/>
      </g>
     </g>
    </g>
    <g id="xtick_2">
     <g id="line2d_3">
      <path d="M 130.828054 175.197656 
L 130.828054 48.96 
" clip-path="url(#p1c2e85f7a5)" style="fill: none; stroke: #b0b0b0; stroke-width: 0.8; stroke-linecap: square"/>
     </g>
     <g id="line2d_4">
      <g>
       <use xlink:href="#m04c9764666" x="130.828054" y="175.197656" style="stroke: #000000; stroke-width: 0.8"/>
      </g>
     </g>
     <g id="text_2">
      <!-- 10 -->
      <g transform="translate(124.465554 189.795312) scale(0.1 -0.1)">
       <defs>
        <path id="DejaVuSans-14" d="M 794 531 
L 1825 531 
L 1825 4091 
L 703 3866 
L 703 4441 
L 1819 4666 
L 2450 4666 
L 2450 531 
L 3481 531 
L 3481 0 
L 794 0 
L 794 531 
z
" transform="scale(0.015625)"/>
       </defs>
       <use xlink:href="#DejaVuSans-14"/>
       <use xlink:href="#DejaVuSans-13" transform="translate(63.625 0)"/>
      </g>
     </g>
    </g>
    <g id="xtick_3">
     <g id="line2d_5">
      <path d="M 199.320517 175.197656 
L 199.320517 48.96 
" clip-path="url(#p1c2e85f7a5)" style="fill: none; stroke: #b0b0b0; stroke-width: 0.8; stroke-linecap: square"/>
     </g>
     <g id="line2d_6">
      <g>
       <use xlink:href="#m04c9764666" x="199.320517" y="175.197656" style="stroke: #000000; stroke-width: 0.8"/>
      </g>
     </g>
     <g id="text_3">
      <!-- 20 -->
      <g transform="translate(192.958017 189.795312) scale(0.1 -0.1)">
       <defs>
        <path id="DejaVuSans-15" d="M 1228 531 
L 3431 531 
L 3431 0 
L 469 0 
L 469 531 
Q 828 903 1448 1529 
Q 2069 2156 2228 2338 
Q 2531 2678 2651 2914 
Q 2772 3150 2772 3378 
Q 2772 3750 2511 3984 
Q 2250 4219 1831 4219 
Q 1534 4219 1204 4116 
Q 875 4013 500 3803 
L 500 4441 
Q 881 4594 1212 4672 
Q 1544 4750 1819 4750 
Q 2544 4750 2975 4387 
Q 3406 4025 3406 3419 
Q 3406 3131 3298 2873 
Q 3191 2616 2906 2266 
Q 2828 2175 2409 1742 
Q 1991 1309 1228 531 
z
" transform="scale(0.015625)"/>
       </defs>
       <use xlink:href="#DejaVuSans-15"/>
       <use xlink:href="#DejaVuSans-13" transform="translate(63.625 0)"/>
      </g>
     </g>
    </g>
    <g id="xtick_4">
     <g id="line2d_7">
      <path d="M 267.812981 175.197656 
L 267.812981 48.96 
" clip-path="url(#p1c2e85f7a5)" style="fill: none; stroke: #b0b0b0; stroke-width: 0.8; stroke-linecap: square"/>
     </g>
     <g id="line2d_8">
      <g>
       <use xlink:href="#m04c9764666" x="267.812981" y="175.197656" style="stroke: #000000; stroke-width: 0.8"/>
      </g>
     </g>
     <g id="text_4">
      <!-- 30 -->
      <g transform="translate(261.450481 189.795312) scale(0.1 -0.1)">
       <defs>
        <path id="DejaVuSans-16" d="M 2597 2516 
Q 3050 2419 3304 2112 
Q 3559 1806 3559 1356 
Q 3559 666 3084 287 
Q 2609 -91 1734 -91 
Q 1441 -91 1130 -33 
Q 819 25 488 141 
L 488 750 
Q 750 597 1062 519 
Q 1375 441 1716 441 
Q 2309 441 2620 675 
Q 2931 909 2931 1356 
Q 2931 1769 2642 2001 
Q 2353 2234 1838 2234 
L 1294 2234 
L 1294 2753 
L 1863 2753 
Q 2328 2753 2575 2939 
Q 2822 3125 2822 3475 
Q 2822 3834 2567 4026 
Q 2313 4219 1838 4219 
Q 1578 4219 1281 4162 
Q 984 4106 628 3988 
L 628 4550 
Q 988 4650 1302 4700 
Q 1616 4750 1894 4750 
Q 2613 4750 3031 4423 
Q 3450 4097 3450 3541 
Q 3450 3153 3228 2886 
Q 3006 2619 2597 2516 
z
" transform="scale(0.015625)"/>
       </defs>
       <use xlink:href="#DejaVuSans-16"/>
       <use xlink:href="#DejaVuSans-13" transform="translate(63.625 0)"/>
      </g>
     </g>
    </g>
    <g id="xtick_5">
     <g id="line2d_9">
      <path d="M 336.305445 175.197656 
L 336.305445 48.96 
" clip-path="url(#p1c2e85f7a5)" style="fill: none; stroke: #b0b0b0; stroke-width: 0.8; stroke-linecap: square"/>
     </g>
     <g id="line2d_10">
      <g>
       <use xlink:href="#m04c9764666" x="336.305445" y="175.197656" style="stroke: #000000; stroke-width: 0.8"/>
      </g>
     </g>
     <g id="text_5">
      <!-- 40 -->
      <g transform="translate(329.942945 189.795312) scale(0.1 -0.1)">
       <defs>
        <path id="DejaVuSans-17" d="M 2419 4116 
L 825 1625 
L 2419 1625 
L 2419 4116 
z
M 2253 4666 
L 3047 4666 
L 3047 1625 
L 3713 1625 
L 3713 1100 
L 3047 1100 
L 3047 0 
L 2419 0 
L 2419 1100 
L 313 1100 
L 313 1709 
L 2253 4666 
z
" transform="scale(0.015625)"/>
       </defs>
       <use xlink:href="#DejaVuSans-17"/>
       <use xlink:href="#DejaVuSans-13" transform="translate(63.625 0)"/>
      </g>
     </g>
    </g>
    <g id="xtick_6">
     <g id="line2d_11">
      <path d="M 404.797909 175.197656 
L 404.797909 48.96 
" clip-path="url(#p1c2e85f7a5)" style="fill: none; stroke: #b0b0b0; stroke-width: 0.8; stroke-linecap: square"/>
     </g>
     <g id="line2d_12">
      <g>
       <use xlink:href="#m04c9764666" x="404.797909" y="175.197656" style="stroke: #000000; stroke-width: 0.8"/>
      </g>
     </g>
     <g id="text_6">
      <!-- 50 -->
      <g transform="translate(398.435409 189.795312) scale(0.1 -0.1)">
       <defs>
        <path id="DejaVuSans-18" d="M 691 4666 
L 3169 4666 
L 3169 4134 
L 1269 4134 
L 1269 2991 
Q 1406 3038 1543 3061 
Q 1681 3084 1819 3084 
Q 2600 3084 3056 2656 
Q 3513 2228 3513 1497 
Q 3513 744 3044 326 
Q 2575 -91 1722 -91 
Q 1428 -91 1123 -41 
Q 819 9 494 109 
L 494 744 
Q 775 591 1075 516 
Q 1375 441 1709 441 
Q 2250 441 2565 725 
Q 2881 1009 2881 1497 
Q 2881 1984 2565 2268 
Q 2250 2553 1709 2553 
Q 1456 2553 1204 2497 
Q 953 2441 691 2322 
L 691 4666 
z
" transform="scale(0.015625)"/>
       </defs>
       <use xlink:href="#DejaVuSans-18"/>
       <use xlink:href="#DejaVuSans-13" transform="translate(63.625 0)"/>
      </g>
     </g>
    </g>
    <g id="xtick_7">
     <g id="line2d_13">
      <path d="M 473.290372 175.197656 
L 473.290372 48.96 
" clip-path="url(#p1c2e85f7a5)" style="fill: none; stroke: #b0b0b0; stroke-width: 0.8; stroke-linecap: square"/>
     </g>
     <g id="line2d_14">
      <g>
       <use xlink:href="#m04c9764666" x="473.290372" y="175.197656" style="stroke: #000000; stroke-width: 0.8"/>
      </g>
     </g>
     <g id="text_7">
      <!-- 60 -->
      <g transform="translate(466.927872 189.795312) scale(0.1 -0.1)">
       <defs>
        <path id="DejaVuSans-19" d="M 2113 2584 
Q 1688 2584 1439 2293 
Q 1191 2003 1191 1497 
Q 1191 994 1439 701 
Q 1688 409 2113 409 
Q 2538 409 2786 701 
Q 3034 994 3034 1497 
Q 3034 2003 2786 2293 
Q 2538 2584 2113 2584 
z
M 3366 4563 
L 3366 3988 
Q 3128 4100 2886 4159 
Q 2644 4219 2406 4219 
Q 1781 4219 1451 3797 
Q 1122 3375 1075 2522 
Q 1259 2794 1537 2939 
Q 1816 3084 2150 3084 
Q 2853 3084 3261 2657 
Q 3669 2231 3669 1497 
Q 3669 778 3244 343 
Q 2819 -91 2113 -91 
Q 1303 -91 875 529 
Q 447 1150 447 2328 
Q 447 3434 972 4092 
Q 1497 4750 2381 4750 
Q 2619 4750 2861 4703 
Q 3103 4656 3366 4563 
z
" transform="scale(0.015625)"/>
       </defs>
       <use xlink:href="#DejaVuSans-19"/>
       <use xlink:href="#DejaVuSans-13" transform="translate(63.625 0)"/>
      </g>
     </g>
    </g>
    <g id="text_8">
     <!-- t (s) -->
     <g transform="translate(257.684531 203.795312) scale(0.1 -0.1)">
      <defs>
       <path id="DejaVuSans-57" d="M 1172 4494 
L 1172 3500 
L 2356 3500 
L 2356 3053 
L 1172 3053 
L 1172 1153 
Q 1172 725 1289 603 
Q 1406 481 1766 481 
L 2356 481 
L 2356 0 
L 1766 0 
Q 1100 0 847 248 
Q 594 497 594 1153 
L 594 3053 
L 172 3053 
L 172 3500 
L 594 3500 
L 594 4494 
L 1172 4494 
z
" transform="scale(0.015625)"/>
       <path id="DejaVuSans-3" transform="scale(0.015625)"/>
       <path id="DejaVuSans-b" d="M 1984 4856 
Q 1566 4138 1362 3434 
Q 1159 2731 1159 2009 
Q 1159 1288 1364 580 
Q 1569 -128 1984 -844 
L 1484 -844 
Q 1016 -109 783 600 
Q 550 1309 550 2009 
Q 550 2706 781 3412 
Q 1013 4119 1484 4856 
L 1984 4856 
z
" transform="scale(0.015625)"/>
       <path id="DejaVuSans-56" d="M 2834 3397 
L 2834 2853 
Q 2591 2978 2328 3040 
Q 2066 3103 1784 3103 
Q 1356 3103 1142 2972 
Q 928 2841 928 2578 
Q 928 2378 1081 2264 
Q 1234 2150 1697 2047 
L 1894 2003 
Q 2506 1872 2764 1633 
Q 3022 1394 3022 966 
Q 3022 478 2636 193 
Q 2250 -91 1575 -91 
Q 1294 -91 989 -36 
Q 684 19 347 128 
L 347 722 
Q 666 556 975 473 
Q 1284 391 1588 391 
Q 1994 391 2212 530 
Q 2431 669 2431 922 
Q 2431 1156 2273 1281 
Q 2116 1406 1581 1522 
L 1381 1569 
Q 847 1681 609 1914 
Q 372 2147 372 2553 
Q 372 3047 722 3315 
Q 1072 3584 1716 3584 
Q 2034 3584 2315 3537 
Q 2597 3491 2834 3397 
z
" transform="scale(0.015625)"/>
       <path id="DejaVuSans-c" d="M 513 4856 
L 1013 4856 
Q 1481 4119 1714 3412 
Q 1947 2706 1947 2009 
Q 1947 1309 1714 600 
Q 1481 -109 1013 -844 
L 513 -844 
Q 928 -128 1133 580 
Q 1338 1288 1338 2009 
Q 1338 2731 1133 3434 
Q 928 4138 513 4856 
z
" transform="scale(0.015625)"/>
      </defs>
      <use xlink:href="#DejaVuSans-57"/>
      <use xlink:href="#DejaVuSans-3" transform="translate(39.203125 0)"/>
      <use xlink:href="#DejaVuSans-b" transform="translate(70.984375 0)"/>
      <use xlink:href="#DejaVuSans-56" transform="translate(110 0)"/>
      <use xlink:href="#DejaVuSans-c" transform="translate(162.09375 0)"/>
     </g>
    </g>
   </g>
   <g id="matplotlib.axis_2">
    <g id="ytick_1">
     <g id="line2d_15">
      <path d="M 42.28 157.30442 
L 493.2 157.30442 
" clip-path="url(#p1c2e85f7a5)" style="fill: none; stroke: #b0b0b0; stroke-width: 0.8; stroke-linecap: square"/>
     </g>
     <g id="line2d_16">
      <defs>
       <path id="m204737b0a7" d="M 0 0 
L -3.5 0 
" style="stroke: #000000; stroke-width: 0.8"/>
      </defs>
      <g>
       <use xlink:href="#m204737b0a7" x="42.28" y="157.30442" style="stroke: #000000; stroke-width: 0.8"/>
      </g>
     </g>
     <g id="text_9">
      <!-- −0.2 -->
      <g transform="translate(10.997188 161.103249) scale(0.1 -0.1)">
       <defs>
        <path id="DejaVuSans-c9c" d="M 678 2272 
L 4684 2272 
L 4684 1741 
L 678 1741 
L 678 2272 
z
" transform="scale(0.015625)"/>
        <path id="DejaVuSans-11" d="M 684 794 
L 1344 794 
L 1344 0 
L 684 0 
L 684 794 
z
" transform="scale(0.015625)"/>
       </defs>
       <use xlink:href="#DejaVuSans-c9c"/>
       <use xlink:href="#DejaVuSans-13" transform="translate(83.796875 0)"/>
       <use xlink:href="#DejaVuSans-11" transform="translate(147.421875 0)"/>
       <use xlink:href="#DejaVuSans-15" transform="translate(179.203125 0)"/>
      </g>
     </g>
    </g>
    <g id="ytick_2">
     <g id="line2d_17">
      <path d="M 42.28 122.384488 
L 493.2 122.384488 
" clip-path="url(#p1c2e85f7a5)" style="fill: none; stroke: #b0b0b0; stroke-width: 0.8; stroke-linecap: square"/>
     </g>
     <g id="line2d_18">
      <g>
       <use xlink:href="#m204737b0a7" x="42.28" y="122.384488" style="stroke: #000000; stroke-width: 0.8"/>
      </g>
     </g>
     <g id="text_10">
      <!-- 0.0 -->
      <g transform="translate(19.376875 126.183317) scale(0.1 -0.1)">
       <use xlink:href="#DejaVuSans-13"/>
       <use xlink:href="#DejaVuSans-11" transform="translate(63.625 0)"/>
       <use xlink:href="#DejaVuSans-13" transform="translate(95.40625 0)"/>
      </g>
     </g>
    </g>
    <g id="ytick_3">
     <g id="line2d_19">
      <path d="M 42.28 87.464557 
L 493.2 87.464557 
" clip-path="url(#p1c2e85f7a5)" style="fill: none; stroke: #b0b0b0; stroke-width: 0.8; stroke-linecap: square"/>
     </g>
     <g id="line2d_20">
      <g>
       <use xlink:href="#m204737b0a7" x="42.28" y="87.464557" style="stroke: #000000; stroke-width: 0.8"/>
      </g>
     </g>
     <g id="text_11">
      <!-- 0.2 -->
      <g transform="translate(19.376875 91.263385) scale(0.1 -0.1)">
       <use xlink:href="#DejaVuSans-13"/>
       <use xlink:href="#DejaVuSans-11" transform="translate(63.625 0)"/>
       <use xlink:href="#DejaVuSans-15" transform="translate(95.40625 0)"/>
      </g>
     </g>
    </g>
    <g id="ytick_4">
     <g id="line2d_21">
      <path d="M 42.28 52.544625 
L 493.2 52.544625 
" clip-path="url(#p1c2e85f7a5)" style="fill: none; stroke: #b0b0b0; stroke-width: 0.8; stroke-linecap: square"/>
     </g>
     <g id="line2d_22">
      <g>
       <use xlink:href="#m204737b0a7" x="42.28" y="52.544625" style="stroke: #000000; stroke-width: 0.8"/>
      </g>
     </g>
     <g id="text_12">
      <!-- 0.4 -->
      <g transform="translate(19.376875 56.343453) scale(0.1 -0.1)">
       <use xlink:href="#DejaVuSans-13"/>
       <use xlink:href="#DejaVuSans-11" transform="translate(63.625 0)"/>
       <use xlink:href="#DejaVuSans-17" transform="translate(95.40625 0)"/>
      </g>
     </g>
    </g>
   </g>
   <g id="line2d_23">
    <path d="M 62.776364 122.909186 
L 63.256168 122.735356 
L 63.735331 121.20039 
L 66.611773 120.972059 
L 67.091494 121.09968 
L 69.489602 122.485509 
L 69.97308 122.747137 
L 71.887713 123.018244 
L 72.367106 122.556705 
L 72.846951 122.724268 
L 73.326861 122.75562 
L 73.804044 122.933647 
L 74.285858 122.741564 
L 74.764321 122.765702 
L 75.242348 122.478223 
L 75.721713 122.50078 
L 76.2005 122.165483 
L 76.683004 122.130137 
L 77.162794 120.852798 
L 77.640084 121.093421 
L 78.118206 121.074453 
L 78.600131 120.856822 
L 79.080057 119.724055 
L 79.558264 118.937502 
L 80.038102 117.874213 
L 80.518174 117.272949 
L 80.998919 116.195354 
L 82.436264 115.047726 
L 82.913697 116.513516 
L 83.392471 119.737824 
L 84.353077 121.977816 
L 84.83108 122.338224 
L 85.312983 123.356106 
L 85.789792 123.869564 
L 86.270769 124.613674 
L 86.751012 124.37121 
L 87.231329 125.075179 
L 87.707522 125.550161 
L 88.188411 125.754312 
L 89.625484 124.386334 
L 90.105439 123.565219 
L 90.584729 122.373397 
L 91.542748 118.654018 
L 92.023334 115.439921 
L 94.992706 101.511939 
L 95.449217 102.635083 
L 96.362962 103.410144 
L 96.819288 105.671577 
L 97.296843 105.685831 
L 97.77676 110.091484 
L 98.256881 111.552106 
L 98.737087 116.365257 
L 99.214823 117.239183 
L 99.694622 120.816156 
L 100.174954 120.752926 
L 100.653256 123.056295 
L 101.132262 122.400515 
L 101.613611 119.424465 
L 102.091255 119.842214 
L 102.571349 123.404362 
L 103.04978 123.982404 
L 103.529485 124.996193 
L 104.488011 122.519688 
L 104.970523 120.699782 
L 105.447098 121.144113 
L 105.927726 120.960675 
L 106.407682 120.476522 
L 106.88801 121.165122 
L 107.367564 124.487028 
L 107.84756 124.297166 
L 108.324211 125.323155 
L 108.803491 122.808391 
L 109.286077 122.489645 
L 109.762879 119.507101 
L 110.242918 119.408371 
L 110.722609 116.696272 
L 111.202172 114.633083 
L 111.68082 111.739317 
L 112.162241 112.859069 
L 112.639366 110.248491 
L 113.118812 103.629742 
L 113.598111 103.745342 
L 114.080022 110.966622 
L 114.559703 112.648713 
L 115.037037 118.084941 
L 115.515421 118.693817 
L 115.995244 120.535574 
L 116.476868 118.106944 
L 116.956211 118.342718 
L 117.436489 108.77931 
L 117.913504 110.891765 
L 118.393935 111.939025 
L 118.874924 115.331612 
L 119.35378 114.213752 
L 119.833537 115.409585 
L 120.313462 113.325939 
L 120.792564 114.452088 
L 121.269643 112.916161 
L 121.749347 114.583097 
L 122.230207 108.84937 
L 122.708769 112.461843 
L 123.188796 114.855581 
L 123.66638 118.97269 
L 124.146816 118.843053 
L 124.627789 120.439021 
L 125.105629 118.53868 
L 125.584847 119.147441 
L 126.064258 116.07252 
L 126.544254 116.123568 
L 127.022377 112.901469 
L 127.50286 107.162887 
L 127.981535 106.511926 
L 128.460603 111.443248 
L 128.94192 112.410131 
L 129.422879 114.868844 
L 129.900421 113.799018 
L 130.380361 115.347033 
L 130.858819 114.747501 
L 131.338823 116.964351 
L 132.29597 117.142217 
L 132.77717 118.452761 
L 133.257409 121.824967 
L 133.735836 122.708372 
L 134.21594 124.24915 
L 134.695975 123.251783 
L 135.173784 123.67579 
L 135.653898 120.688515 
L 136.133944 119.663761 
L 136.612981 114.793523 
L 137.092889 107.979686 
L 137.570732 107.853688 
L 138.050769 113.929802 
L 139.010513 117.499505 
L 139.487974 116.107928 
L 140.448306 117.255966 
L 140.927689 119.148856 
L 141.886306 121.828156 
L 143.804248 124.797162 
L 144.285991 124.757922 
L 144.766068 124.25805 
L 145.723932 121.54741 
L 146.20281 120.468204 
L 146.680129 121.006392 
L 147.159302 122.083853 
L 147.640392 123.627898 
L 148.11959 123.313472 
L 148.597639 123.299437 
L 149.077034 122.350504 
L 149.558143 122.757903 
L 150.037525 122.070585 
L 150.516519 122.509602 
L 150.995475 121.222124 
L 151.476903 118.176952 
L 151.955442 117.927465 
L 152.434838 120.516774 
L 152.912388 119.528512 
L 153.394641 119.005796 
L 153.872801 116.389743 
L 154.352236 116.608497 
L 154.83218 115.740957 
L 155.313385 117.300503 
L 155.790528 117.55164 
L 156.269512 118.345303 
L 156.749864 119.427037 
L 157.228789 121.216003 
L 157.7086 121.906287 
L 158.186642 123.399345 
L 158.669342 124.248942 
L 159.145988 127.577498 
L 159.627007 128.881526 
L 160.107237 133.313882 
L 160.58419 131.775317 
L 161.065961 122.478283 
L 161.542963 120.268577 
L 162.023183 123.836719 
L 162.502943 119.480989 
L 162.982642 117.331257 
L 163.459728 110.46386 
L 163.940098 108.763349 
L 164.419148 105.710807 
L 164.899049 107.540644 
L 165.380648 107.807282 
L 165.860704 107.310689 
L 166.339037 108.550253 
L 166.819491 114.039983 
L 167.296171 116.609755 
L 167.778056 120.950293 
L 168.255386 121.162088 
L 168.734787 123.420319 
L 169.214177 121.382199 
L 169.694194 122.425358 
L 170.175256 118.70234 
L 170.652735 112.524988 
L 171.135257 112.742684 
L 171.61236 118.106938 
L 172.092462 116.434612 
L 172.571969 116.84241 
L 173.051189 111.316658 
L 173.531866 111.928367 
L 174.011395 107.170178 
L 174.489656 109.231466 
L 174.968486 105.021297 
L 175.449353 97.608192 
L 175.925421 99.430716 
L 176.409457 110.327154 
L 177.36602 121.414916 
L 177.846466 118.220987 
L 178.325353 118.381749 
L 178.803457 112.950263 
L 179.284438 113.883468 
L 179.762868 108.290438 
L 180.241866 100.077628 
L 180.720507 100.04493 
L 181.200814 108.711948 
L 181.68073 110.410999 
L 182.161091 114.332772 
L 182.639239 111.842179 
L 183.120462 113.845549 
L 183.598907 112.270018 
L 184.077359 116.955067 
L 184.557426 116.264411 
L 185.035389 112.762866 
L 185.514872 115.862274 
L 185.994564 128.190112 
L 186.475599 129.024205 
L 186.953935 135.768541 
L 187.432786 124.624307 
L 187.91446 116.280552 
L 188.391772 98.51373 
L 189.353284 93.496333 
L 189.832178 95.794844 
L 190.312511 101.483703 
L 190.789117 111.194306 
L 191.271369 112.791961 
L 191.74866 113.245415 
L 192.23002 112.720642 
L 192.708606 114.186347 
L 193.189367 117.164355 
L 193.668204 118.556255 
L 194.147093 121.377301 
L 194.625604 127.780742 
L 195.104449 129.004515 
L 195.584389 124.359179 
L 196.064371 128.466825 
L 196.54176 130.516216 
L 197.02488 139.18091 
L 197.504066 139.650262 
L 197.982718 145.369173 
L 198.462013 142.260229 
L 198.939877 145.192303 
L 199.419527 149.079441 
L 199.900006 142.702679 
L 200.378894 127.457912 
L 200.858355 119.35419 
L 201.336177 115.496214 
L 201.816886 118.360455 
L 202.29636 119.534591 
L 202.777256 120.376913 
L 203.255892 119.111595 
L 203.733998 121.29542 
L 204.215488 126.967614 
L 204.693424 126.880312 
L 205.1752 119.864464 
L 205.651777 118.565991 
L 206.131883 113.883763 
L 206.613167 116.499648 
L 207.093178 112.601613 
L 207.57323 114.493406 
L 208.051078 109.521616 
L 208.531431 114.697823 
L 209.008441 137.600655 
L 209.490056 141.378578 
L 209.966701 130.762509 
L 210.448181 131.208555 
L 210.92657 127.955477 
L 211.405659 133.894284 
L 211.88428 132.734695 
L 212.364744 136.780436 
L 212.846279 133.416097 
L 213.324195 135.156694 
L 213.804008 135.691411 
L 214.284953 132.522616 
L 214.76479 124.009192 
L 215.244307 130.595459 
L 215.720894 129.428434 
L 216.20236 136.312969 
L 216.680888 133.336203 
L 217.162227 142.734765 
L 217.638816 142.406022 
L 218.598164 165.358226 
L 219.077257 164.259487 
L 219.555269 149.683959 
L 220.517918 135.020092 
L 220.99571 134.168598 
L 221.474927 131.561458 
L 221.957054 131.014247 
L 222.435325 128.115258 
L 223.871033 122.731045 
L 224.35107 120.155834 
L 224.830017 118.493993 
L 225.309994 116.256675 
L 226.26902 113.682868 
L 226.749229 113.652807 
L 227.230557 112.970503 
L 227.70854 115.210962 
L 228.187529 124.480042 
L 228.667887 128.594383 
L 229.145368 126.363287 
L 229.624656 133.213554 
L 230.105451 134.913381 
L 230.583357 141.230621 
L 231.063501 139.820149 
L 231.544056 140.060804 
L 232.02472 135.911603 
L 233.461906 131.227079 
L 233.941991 128.598383 
L 234.4188 126.986686 
L 235.859134 123.81298 
L 236.337487 120.664297 
L 236.816106 121.493065 
L 237.296106 119.484974 
L 237.776339 112.572691 
L 238.253935 112.716399 
L 238.735308 119.719364 
L 239.215913 119.566276 
L 239.694673 120.727914 
L 240.174771 117.16409 
L 240.653449 119.70484 
L 241.131186 121.311555 
L 241.61191 128.082611 
L 242.089948 126.77853 
L 242.569611 107.76731 
L 243.052199 98.063828 
L 243.531389 99.090214 
L 244.008713 94.355505 
L 244.489297 93.993456 
L 244.966395 91.472789 
L 245.449008 94.651974 
L 245.926812 99.757578 
L 246.407002 106.749299 
L 246.887167 115.445793 
L 247.365687 129.897923 
L 247.843277 134.277204 
L 248.326159 127.733166 
L 248.803562 131.074149 
L 249.284479 129.455403 
L 249.763674 139.018869 
L 250.24312 138.210285 
L 250.722853 144.903432 
L 251.199631 137.571353 
L 251.679025 137.268112 
L 252.160091 138.76521 
L 252.638149 139.788152 
L 253.11855 134.465061 
L 253.599187 142.787884 
L 254.078792 144.155632 
L 254.55912 150.403891 
L 255.038117 146.45121 
L 255.517622 143.454698 
L 255.996105 136.778492 
L 256.953031 129.653939 
L 257.913095 127.125575 
L 259.830901 115.642835 
L 260.312902 112.725903 
L 260.788752 113.002449 
L 261.27028 112.664229 
L 262.228239 122.596433 
L 262.707398 125.383432 
L 263.18538 123.480014 
L 264.145819 117.959217 
L 264.626303 117.526727 
L 265.10472 117.849697 
L 266.063391 119.692503 
L 266.541453 121.356893 
L 267.024421 121.802783 
L 267.499916 120.885801 
L 267.981208 121.449062 
L 268.462393 121.134419 
L 268.942123 122.485482 
L 269.42194 121.028044 
L 269.898992 122.757146 
L 270.379753 120.826119 
L 270.8578 122.451108 
L 271.336535 125.573354 
L 271.818517 122.282092 
L 272.295512 114.202086 
L 272.775572 118.408253 
L 273.256487 128.11183 
L 273.735009 147.728505 
L 274.212341 153.020037 
L 274.69357 151.476795 
L 275.174273 141.017462 
L 275.653785 133.801686 
L 276.130123 131.60545 
L 276.612091 138.444802 
L 277.093055 149.31224 
L 277.569074 169.459581 
L 278.050711 154.593089 
L 278.530698 134.0935 
L 279.008287 121.729149 
L 279.488544 115.49188 
L 279.967915 121.280557 
L 280.446407 118.860176 
L 280.925794 108.435754 
L 281.406338 118.096777 
L 281.88761 158.09409 
L 282.364018 137.566569 
L 282.845637 122.375776 
L 283.323223 118.183608 
L 283.804954 122.349209 
L 284.281741 120.174133 
L 284.761005 121.912452 
L 285.240721 101.590314 
L 285.722078 68.088112 
L 286.201938 60.492614 
L 287.160873 101.454849 
L 287.637286 114.739081 
L 288.117995 118.404423 
L 288.598704 117.858545 
L 289.55868 124.615597 
L 290.037027 133.651251 
L 290.515992 151.800881 
L 290.993073 155.873107 
L 291.473884 143.04403 
L 291.95324 140.117527 
L 292.43378 131.651402 
L 292.914394 126.493539 
L 293.392051 114.129179 
L 293.871697 118.657741 
L 294.350355 124.358851 
L 295.310694 157.542438 
L 295.78838 156.136178 
L 296.269854 141.593161 
L 296.747517 133.511121 
L 297.227183 129.467829 
L 297.7067 129.709934 
L 298.187017 129.225933 
L 298.666666 127.529824 
L 299.146569 127.15409 
L 299.624063 126.025772 
L 300.104744 121.859634 
L 300.582673 126.332151 
L 301.062594 152.016461 
L 301.545137 141.725203 
L 302.501341 102.553629 
L 302.981089 102.729535 
L 303.462905 106.02874 
L 303.939903 120.213755 
L 304.41977 119.679485 
L 304.897405 118.636114 
L 305.378035 130.725061 
L 305.857025 165.323078 
L 306.816146 122.382909 
L 307.777823 122.380693 
L 308.255593 121.223257 
L 308.733917 119.477741 
L 309.214842 92.252474 
L 309.692299 56.645538 
L 310.174214 54.698075 
L 310.651022 85.167693 
L 311.130339 107.521819 
L 311.609214 119.298853 
L 312.089714 117.749151 
L 312.571762 117.03368 
L 314.007325 125.385485 
L 314.488427 121.495575 
L 314.968392 92.679476 
L 315.44626 85.432732 
L 315.927007 104.884287 
L 316.884711 150.288951 
L 317.363736 143.572292 
L 317.843034 140.313553 
L 318.322407 128.956472 
L 318.802125 134.643602 
L 319.280862 136.914399 
L 320.239683 91.888741 
L 320.720026 99.622215 
L 321.200778 111.056087 
L 321.681679 119.787611 
L 322.159018 122.385692 
L 323.597452 122.398454 
L 324.558161 142.008347 
L 325.0346 142.768391 
L 325.517554 149.366019 
L 325.994466 149.790434 
L 326.473963 153.190823 
L 326.953622 150.968857 
L 327.434069 150.708767 
L 328.392614 143.82735 
L 328.870146 137.180214 
L 329.830936 129.381989 
L 330.787705 122.778076 
L 331.268897 119.706728 
L 331.748293 117.870863 
L 332.229356 116.865913 
L 332.705834 116.990211 
L 333.18659 118.565447 
L 333.665271 125.699693 
L 334.145793 129.430773 
L 334.625578 128.909054 
L 335.10306 129.704306 
L 335.582773 128.136192 
L 336.06407 129.199859 
L 336.541634 128.173033 
L 337.020726 129.660905 
L 337.502545 128.266922 
L 337.980155 130.246642 
L 338.459453 132.764646 
L 338.938438 132.255748 
L 339.419823 128.300465 
L 339.89698 127.420044 
L 340.376645 125.81532 
L 340.857076 126.872415 
L 341.336828 126.187796 
L 341.818096 127.201676 
L 342.294881 126.172553 
L 342.775581 126.880226 
L 343.254049 128.332128 
L 343.732493 127.639169 
L 344.212046 124.07969 
L 344.69179 123.306144 
L 345.171073 121.26522 
L 345.651179 121.318429 
L 346.131078 118.431291 
L 346.610997 118.95164 
L 347.092346 113.597668 
L 347.570478 117.275843 
L 348.048931 132.002849 
L 348.530048 138.374544 
L 349.008378 133.862428 
L 349.488518 139.106058 
L 349.966436 139.45712 
L 350.444726 143.466907 
L 350.925709 139.659571 
L 351.405581 137.508975 
L 351.88293 133.054901 
L 352.363755 131.42285 
L 352.845302 129.275293 
L 353.322291 127.666359 
L 353.804432 127.136691 
L 354.283486 124.421421 
L 354.760521 123.971498 
L 355.241804 120.178348 
L 355.720113 119.856613 
L 356.199447 115.584251 
L 356.679191 115.582585 
L 357.159601 111.104962 
L 357.639058 95.891523 
L 358.117808 90.931499 
L 358.595921 104.435597 
L 359.076986 105.284902 
L 359.553996 112.031945 
L 360.035229 103.94851 
L 360.513386 105.213676 
L 360.993268 102.232164 
L 361.474694 112.149465 
L 361.952055 117.860035 
L 362.433799 114.648467 
L 362.912705 116.764038 
L 363.394229 126.019692 
L 363.873831 125.824203 
L 364.353298 128.714854 
L 364.829059 123.094817 
L 365.311175 122.240428 
L 365.790578 115.646749 
L 366.268753 114.347325 
L 366.748374 108.707021 
L 367.228618 99.359588 
L 367.704818 97.615717 
L 368.184671 102.891601 
L 368.666068 104.076516 
L 369.143163 107.979017 
L 369.624372 108.481572 
L 370.104271 111.464562 
L 370.582729 112.075164 
L 371.063608 114.434552 
L 371.542956 114.971288 
L 372.022616 115.170709 
L 372.500811 116.176111 
L 372.979539 118.645547 
L 373.45954 119.076837 
L 373.937445 120.285482 
L 374.418642 117.97796 
L 374.897837 117.627438 
L 375.377084 113.528109 
L 375.856522 112.766556 
L 376.335936 110.058152 
L 376.814756 105.614951 
L 377.296706 105.273249 
L 377.774172 109.615952 
L 378.252485 110.295176 
L 378.733896 113.426913 
L 379.212347 112.675669 
L 379.693665 114.561699 
L 380.171164 112.882065 
L 380.651723 113.973922 
L 381.12924 111.828032 
L 381.609784 107.362681 
L 382.090505 106.450968 
L 382.568095 109.703519 
L 383.049606 110.155473 
L 383.528489 112.646425 
L 384.007667 112.284938 
L 384.485814 114.050133 
L 384.965066 113.466241 
L 385.444469 115.064093 
L 385.924294 114.454359 
L 386.404535 112.765949 
L 386.884421 113.140095 
L 387.364829 116.42431 
L 387.843326 116.8995 
L 388.322097 118.873766 
L 388.800466 117.780005 
L 389.280685 118.62832 
L 389.761796 117.294376 
L 390.238472 118.319533 
L 390.718863 116.923936 
L 391.200237 113.335452 
L 391.678651 112.602066 
L 392.157972 115.4 
L 392.638207 114.967252 
L 393.117767 116.385826 
L 393.594898 114.488983 
L 394.075071 116.066159 
L 394.554772 113.53289 
L 395.035315 114.46769 
L 395.514281 111.840359 
L 395.994879 108.204028 
L 396.4741 108.44084 
L 396.95252 113.504026 
L 397.430772 114.96576 
L 397.91213 118.037077 
L 398.390359 117.644317 
L 398.872542 119.72666 
L 399.348434 118.881252 
L 399.829518 121.187978 
L 400.309439 120.292475 
L 400.786199 117.8061 
L 401.26823 119.30709 
L 401.748944 124.259645 
L 402.226804 123.670356 
L 402.704688 124.827992 
L 403.186749 119.679985 
L 403.66606 118.383648 
L 404.143066 113.758021 
L 404.625355 115.092729 
L 405.102785 113.803636 
L 405.582331 111.342678 
L 406.063213 112.577624 
L 406.539809 117.926594 
L 407.022264 118.717243 
L 407.503044 119.123683 
L 407.980173 117.612776 
L 408.938414 118.902436 
L 409.416299 120.332326 
L 410.376955 121.570623 
L 411.336039 122.474205 
L 411.815018 123.2803 
L 412.776348 124.523549 
L 413.731866 124.988456 
L 414.215185 124.812362 
L 414.690852 124.411203 
L 415.17279 123.15948 
L 415.650989 122.27652 
L 416.130076 122.041421 
L 416.609452 121.20409 
L 417.08989 121.078704 
L 417.568917 120.83589 
L 418.049782 121.317914 
L 418.52907 121.228063 
L 419.006071 121.54484 
L 419.966576 121.16376 
L 420.443503 121.468327 
L 420.925838 122.260208 
L 421.885389 122.133037 
L 422.366574 121.953137 
L 423.322094 122.410439 
L 423.802499 122.576192 
L 424.280398 122.570805 
L 425.240797 122.872182 
L 426.200771 123.312815 
L 427.159242 123.596509 
L 428.116796 123.58134 
L 429.553872 122.435813 
L 430.034157 122.262981 
L 430.513858 122.21841 
L 431.471791 122.3851 
L 436.747541 122.363981 
L 443.458421 122.366874 
L 458.320584 122.380883 
L 464.556281 122.449509 
L 466.954193 122.577841 
L 467.913482 122.473413 
L 468.871613 122.167978 
L 469.827734 121.647283 
L 472.226282 120.202019 
L 472.703636 120.11462 
L 472.703636 120.11462 
" clip-path="url(#p1c2e85f7a5)" style="fill: none; stroke: #1f77b4; stroke-width: 1.5; stroke-linecap: square"/>
   </g>
   <g id="patch_3">
    <path d="M 42.28 175.197656 
L 42.28 48.96 
" style="fill: none; stroke: #000000; stroke-width: 0.8; stroke-linejoin: miter; stroke-linecap: square"/>
   </g>
   <g id="patch_4">
    <path d="M 493.2 175.197656 
L 493.2 48.96 
" style="fill: none; stroke: #000000; stroke-width: 0.8; stroke-linejoin: miter; stroke-linecap: square"/>
   </g>
   <g id="patch_5">
    <path d="M 42.28 175.197656 
L 493.2 175.197656 
" style="fill: none; stroke: #000000; stroke-width: 0.8; stroke-linejoin: miter; stroke-linecap: square"/>
   </g>
   <g id="patch_6">
    <path d="M 42.28 48.96 
L 493.2 48.96 
" style="fill: none; stroke: #000000; stroke-width: 0.8; stroke-linejoin: miter; stroke-linecap: square"/>
   </g>
   <g id="text_13">
    <!-- $\delta_e$ (rad) -->
    <g transform="translate(244.76 42.96) scale(0.12 -0.12)">
     <defs>
      <path id="DejaVuSans-Oblique-348" d="M 3472 4053 
Q 3197 4272 2450 4272 
Q 1659 4272 1588 3906 
Q 1531 3619 2328 3469 
Q 2953 3353 3253 3003 
Q 3616 2581 3447 1716 
Q 3284 888 2763 400 
Q 2238 -91 1488 -91 
Q 741 -91 406 400 
Q 72 888 241 1747 
Q 363 2384 891 2900 
Q 1097 3100 1353 3213 
Q 913 3459 1000 3900 
Q 1166 4750 2544 4750 
Q 3234 4750 3566 4531 
L 3472 4053 
z
M 1753 3056 
Q 1525 2966 1306 2738 
Q 969 2384 847 1747 
Q 722 1113 919 756 
Q 1119 397 1584 397 
Q 2044 397 2381 759 
Q 2722 1122 2838 1716 
Q 2956 2338 2731 2638 
Q 2491 2959 2103 2994 
Q 1906 3013 1753 3056 
z
" transform="scale(0.015625)"/>
      <path id="DejaVuSans-Oblique-48" d="M 3078 2063 
Q 3088 2113 3092 2166 
Q 3097 2219 3097 2272 
Q 3097 2653 2873 2875 
Q 2650 3097 2266 3097 
Q 1838 3097 1509 2826 
Q 1181 2556 1013 2059 
L 3078 2063 
z
M 3578 1613 
L 903 1613 
Q 884 1494 878 1425 
Q 872 1356 872 1306 
Q 872 872 1139 634 
Q 1406 397 1894 397 
Q 2269 397 2603 481 
Q 2938 566 3225 728 
L 3116 159 
Q 2806 34 2476 -28 
Q 2147 -91 1806 -91 
Q 1078 -91 686 257 
Q 294 606 294 1247 
Q 294 1794 489 2264 
Q 684 2734 1063 3103 
Q 1306 3334 1642 3459 
Q 1978 3584 2356 3584 
Q 2950 3584 3301 3228 
Q 3653 2872 3653 2272 
Q 3653 2128 3634 1964 
Q 3616 1800 3578 1613 
z
" transform="scale(0.015625)"/>
      <path id="DejaVuSans-55" d="M 2631 2963 
Q 2534 3019 2420 3045 
Q 2306 3072 2169 3072 
Q 1681 3072 1420 2755 
Q 1159 2438 1159 1844 
L 1159 0 
L 581 0 
L 581 3500 
L 1159 3500 
L 1159 2956 
Q 1341 3275 1631 3429 
Q 1922 3584 2338 3584 
Q 2397 3584 2469 3576 
Q 2541 3569 2628 3553 
L 2631 2963 
z
" transform="scale(0.015625)"/>
      <path id="DejaVuSans-44" d="M 2194 1759 
Q 1497 1759 1228 1600 
Q 959 1441 959 1056 
Q 959 750 1161 570 
Q 1363 391 1709 391 
Q 2188 391 2477 730 
Q 2766 1069 2766 1631 
L 2766 1759 
L 2194 1759 
z
M 3341 1997 
L 3341 0 
L 2766 0 
L 2766 531 
Q 2569 213 2275 61 
Q 1981 -91 1556 -91 
Q 1019 -91 701 211 
Q 384 513 384 1019 
Q 384 1609 779 1909 
Q 1175 2209 1959 2209 
L 2766 2209 
L 2766 2266 
Q 2766 2663 2505 2880 
Q 2244 3097 1772 3097 
Q 1472 3097 1187 3025 
Q 903 2953 641 2809 
L 641 3341 
Q 956 3463 1253 3523 
Q 1550 3584 1831 3584 
Q 2591 3584 2966 3190 
Q 3341 2797 3341 1997 
z
" transform="scale(0.015625)"/>
      <path id="DejaVuSans-47" d="M 2906 2969 
L 2906 4863 
L 3481 4863 
L 3481 0 
L 2906 0 
L 2906 525 
Q 2725 213 2448 61 
Q 2172 -91 1784 -91 
Q 1150 -91 751 415 
Q 353 922 353 1747 
Q 353 2572 751 3078 
Q 1150 3584 1784 3584 
Q 2172 3584 2448 3432 
Q 2725 3281 2906 2969 
z
M 947 1747 
Q 947 1113 1208 752 
Q 1469 391 1925 391 
Q 2381 391 2643 752 
Q 2906 1113 2906 1747 
Q 2906 2381 2643 2742 
Q 2381 3103 1925 3103 
Q 1469 3103 1208 2742 
Q 947 2381 947 1747 
z
" transform="scale(0.015625)"/>
     </defs>
     <use xlink:href="#DejaVuSans-Oblique-348" transform="translate(0 0.015625)"/>
     <use xlink:href="#DejaVuSans-Oblique-48" transform="translate(61.181641 -14.984326) scale(0.7)"/>
     <use xlink:href="#DejaVuSans-3" transform="translate(106.982422 0.015625)"/>
     <use xlink:href="#DejaVuSans-b" transform="translate(138.769531 0.015625)"/>
     <use xlink:href="#DejaVuSans-55" transform="translate(177.783203 0.015625)"/>
     <use xlink:href="#DejaVuSans-44" transform="translate(218.896484 0.015625)"/>
     <use xlink:href="#DejaVuSans-47" transform="translate(280.175781 0.015625)"/>
     <use xlink:href="#DejaVuSans-c" transform="translate(343.652344 0.015625)"/>
    </g>
   </g>
   <g id="legend_1">
    <g id="patch_7">
     <path d="M 443.5 71.960781 
L 486.2 71.960781 
Q 488.2 71.960781 488.2 69.960781 
L 488.2 55.96 
Q 488.2 53.96 486.2 53.96 
L 443.5 53.96 
Q 441.5 53.96 441.5 55.96 
L 441.5 69.960781 
Q 441.5 71.960781 443.5 71.960781 
z
" style="fill: #ffffff; opacity: 0.8; stroke: #cccccc; stroke-linejoin: miter"/>
    </g>
    <g id="line2d_24">
     <path d="M 445.5 62.058437 
L 455.5 62.058437 
L 465.5 62.058437 
" style="fill: none; stroke: #1f77b4; stroke-width: 1.5; stroke-linecap: square"/>
    </g>
    <g id="text_14">
     <!-- $\delta_e$ -->
     <g transform="translate(473.5 65.558437) scale(0.1 -0.1)">
      <use xlink:href="#DejaVuSans-Oblique-348" transform="translate(0 0.78125)"/>
      <use xlink:href="#DejaVuSans-Oblique-48" transform="translate(61.181641 -14.218701) scale(0.7)"/>
     </g>
    </g>
   </g>
  </g>
  <g id="axes_2">
   <g id="patch_8">
    <path d="M 42.28 361.077656 
L 493.2 361.077656 
L 493.2 234.84 
L 42.28 234.84 
z
" style="fill: #ffffff"/>
   </g>
   <g id="matplotlib.axis_3">
    <g id="xtick_8">
     <g id="line2d_25">
      <path d="M 62.33559 361.077656 
L 62.33559 234.84 
" clip-path="url(#p18521a2762)" style="fill: none; stroke: #b0b0b0; stroke-width: 0.8; stroke-linecap: square"/>
     </g>
     <g id="line2d_26">
      <g>
       <use xlink:href="#m04c9764666" x="62.33559" y="361.077656" style="stroke: #000000; stroke-width: 0.8"/>
      </g>
     </g>
     <g id="text_15">
      <!-- 0 -->
      <g transform="translate(59.15434 375.675312) scale(0.1 -0.1)">
       <use xlink:href="#DejaVuSans-13"/>
      </g>
     </g>
    </g>
    <g id="xtick_9">
     <g id="line2d_27">
      <path d="M 130.828054 361.077656 
L 130.828054 234.84 
" clip-path="url(#p18521a2762)" style="fill: none; stroke: #b0b0b0; stroke-width: 0.8; stroke-linecap: square"/>
     </g>
     <g id="line2d_28">
      <g>
       <use xlink:href="#m04c9764666" x="130.828054" y="361.077656" style="stroke: #000000; stroke-width: 0.8"/>
      </g>
     </g>
     <g id="text_16">
      <!-- 10 -->
      <g transform="translate(124.465554 375.675312) scale(0.1 -0.1)">
       <use xlink:href="#DejaVuSans-14"/>
       <use xlink:href="#DejaVuSans-13" transform="translate(63.625 0)"/>
      </g>
     </g>
    </g>
    <g id="xtick_10">
     <g id="line2d_29">
      <path d="M 199.320517 361.077656 
L 199.320517 234.84 
" clip-path="url(#p18521a2762)" style="fill: none; stroke: #b0b0b0; stroke-width: 0.8; stroke-linecap: square"/>
     </g>
     <g id="line2d_30">
      <g>
       <use xlink:href="#m04c9764666" x="199.320517" y="361.077656" style="stroke: #000000; stroke-width: 0.8"/>
      </g>
     </g>
     <g id="text_17">
      <!-- 20 -->
      <g transform="translate(192.958017 375.675312) scale(0.1 -0.1)">
       <use xlink:href="#DejaVuSans-15"/>
       <use xlink:href="#DejaVuSans-13" transform="translate(63.625 0)"/>
      </g>
     </g>
    </g>
    <g id="xtick_11">
     <g id="line2d_31">
      <path d="M 267.812981 361.077656 
L 267.812981 234.84 
" clip-path="url(#p18521a2762)" style="fill: none; stroke: #b0b0b0; stroke-width: 0.8; stroke-linecap: square"/>
     </g>
     <g id="line2d_32">
      <g>
       <use xlink:href="#m04c9764666" x="267.812981" y="361.077656" style="stroke: #000000; stroke-width: 0.8"/>
      </g>
     </g>
     <g id="text_18">
      <!-- 30 -->
      <g transform="translate(261.450481 375.675312) scale(0.1 -0.1)">
       <use xlink:href="#DejaVuSans-16"/>
       <use xlink:href="#DejaVuSans-13" transform="translate(63.625 0)"/>
      </g>
     </g>
    </g>
    <g id="xtick_12">
     <g id="line2d_33">
      <path d="M 336.305445 361.077656 
L 336.305445 234.84 
" clip-path="url(#p18521a2762)" style="fill: none; stroke: #b0b0b0; stroke-width: 0.8; stroke-linecap: square"/>
     </g>
     <g id="line2d_34">
      <g>
       <use xlink:href="#m04c9764666" x="336.305445" y="361.077656" style="stroke: #000000; stroke-width: 0.8"/>
      </g>
     </g>
     <g id="text_19">
      <!-- 40 -->
      <g transform="translate(329.942945 375.675312) scale(0.1 -0.1)">
       <use xlink:href="#DejaVuSans-17"/>
       <use xlink:href="#DejaVuSans-13" transform="translate(63.625 0)"/>
      </g>
     </g>
    </g>
    <g id="xtick_13">
     <g id="line2d_35">
      <path d="M 404.797909 361.077656 
L 404.797909 234.84 
" clip-path="url(#p18521a2762)" style="fill: none; stroke: #b0b0b0; stroke-width: 0.8; stroke-linecap: square"/>
     </g>
     <g id="line2d_36">
      <g>
       <use xlink:href="#m04c9764666" x="404.797909" y="361.077656" style="stroke: #000000; stroke-width: 0.8"/>
      </g>
     </g>
     <g id="text_20">
      <!-- 50 -->
      <g transform="translate(398.435409 375.675312) scale(0.1 -0.1)">
       <use xlink:href="#DejaVuSans-18"/>
       <use xlink:href="#DejaVuSans-13" transform="translate(63.625 0)"/>
      </g>
     </g>
    </g>
    <g id="xtick_14">
     <g id="line2d_37">
      <path d="M 473.290372 361.077656 
L 473.290372 234.84 
" clip-path="url(#p18521a2762)" style="fill: none; stroke: #b0b0b0; stroke-width: 0.8; stroke-linecap: square"/>
     </g>
     <g id="line2d_38">
      <g>
       <use xlink:href="#m04c9764666" x="473.290372" y="361.077656" style="stroke: #000000; stroke-width: 0.8"/>
      </g>
     </g>
     <g id="text_21">
      <!-- 60 -->
      <g transform="translate(466.927872 375.675312) scale(0.1 -0.1)">
       <use xlink:href="#DejaVuSans-19"/>
       <use xlink:href="#DejaVuSans-13" transform="translate(63.625 0)"/>
      </g>
     </g>
    </g>
    <g id="text_22">
     <!-- t (s) -->
     <g transform="translate(257.684531 389.675312) scale(0.1 -0.1)">
      <use xlink:href="#DejaVuSans-57"/>
      <use xlink:href="#DejaVuSans-3" transform="translate(39.203125 0)"/>
      <use xlink:href="#DejaVuSans-b" transform="translate(70.984375 0)"/>
      <use xlink:href="#DejaVuSans-56" transform="translate(110 0)"/>
      <use xlink:href="#DejaVuSans-c" transform="translate(162.09375 0)"/>
     </g>
    </g>
   </g>
   <g id="matplotlib.axis_4">
    <g id="ytick_5">
     <g id="line2d_39">
      <path d="M 42.28 347.58437 
L 493.2 347.58437 
" clip-path="url(#p18521a2762)" style="fill: none; stroke: #b0b0b0; stroke-width: 0.8; stroke-linecap: square"/>
     </g>
     <g id="line2d_40">
      <g>
       <use xlink:href="#m204737b0a7" x="42.28" y="347.58437" style="stroke: #000000; stroke-width: 0.8"/>
      </g>
     </g>
     <g id="text_23">
      <!-- −0.50 -->
      <g transform="translate(4.634688 351.383198) scale(0.1 -0.1)">
       <use xlink:href="#DejaVuSans-c9c"/>
       <use xlink:href="#DejaVuSans-13" transform="translate(83.796875 0)"/>
       <use xlink:href="#DejaVuSans-11" transform="translate(147.421875 0)"/>
       <use xlink:href="#DejaVuSans-18" transform="translate(179.203125 0)"/>
       <use xlink:href="#DejaVuSans-13" transform="translate(242.828125 0)"/>
      </g>
     </g>
    </g>
    <g id="ytick_6">
     <g id="line2d_41">
      <path d="M 42.28 323.264755 
L 493.2 323.264755 
" clip-path="url(#p18521a2762)" style="fill: none; stroke: #b0b0b0; stroke-width: 0.8; stroke-linecap: square"/>
     </g>
     <g id="line2d_42">
      <g>
       <use xlink:href="#m204737b0a7" x="42.28" y="323.264755" style="stroke: #000000; stroke-width: 0.8"/>
      </g>
     </g>
     <g id="text_24">
      <!-- −0.25 -->
      <g transform="translate(4.634688 327.063583) scale(0.1 -0.1)">
       <use xlink:href="#DejaVuSans-c9c"/>
       <use xlink:href="#DejaVuSans-13" transform="translate(83.796875 0)"/>
       <use xlink:href="#DejaVuSans-11" transform="translate(147.421875 0)"/>
       <use xlink:href="#DejaVuSans-15" transform="translate(179.203125 0)"/>
       <use xlink:href="#DejaVuSans-18" transform="translate(242.828125 0)"/>
      </g>
     </g>
    </g>
    <g id="ytick_7">
     <g id="line2d_43">
      <path d="M 42.28 298.94514 
L 493.2 298.94514 
" clip-path="url(#p18521a2762)" style="fill: none; stroke: #b0b0b0; stroke-width: 0.8; stroke-linecap: square"/>
     </g>
     <g id="line2d_44">
      <g>
       <use xlink:href="#m204737b0a7" x="42.28" y="298.94514" style="stroke: #000000; stroke-width: 0.8"/>
      </g>
     </g>
     <g id="text_25">
      <!-- 0.00 -->
      <g transform="translate(13.014375 302.743968) scale(0.1 -0.1)">
       <use xlink:href="#DejaVuSans-13"/>
       <use xlink:href="#DejaVuSans-11" transform="translate(63.625 0)"/>
       <use xlink:href="#DejaVuSans-13" transform="translate(95.40625 0)"/>
       <use xlink:href="#DejaVuSans-13" transform="translate(159.03125 0)"/>
      </g>
     </g>
    </g>
    <g id="ytick_8">
     <g id="line2d_45">
      <path d="M 42.28 274.625524 
L 493.2 274.625524 
" clip-path="url(#p18521a2762)" style="fill: none; stroke: #b0b0b0; stroke-width: 0.8; stroke-linecap: square"/>
     </g>
     <g id="line2d_46">
      <g>
       <use xlink:href="#m204737b0a7" x="42.28" y="274.625524" style="stroke: #000000; stroke-width: 0.8"/>
      </g>
     </g>
     <g id="text_26">
      <!-- 0.25 -->
      <g transform="translate(13.014375 278.424352) scale(0.1 -0.1)">
       <use xlink:href="#DejaVuSans-13"/>
       <use xlink:href="#DejaVuSans-11" transform="translate(63.625 0)"/>
       <use xlink:href="#DejaVuSans-15" transform="translate(95.40625 0)"/>
       <use xlink:href="#DejaVuSans-18" transform="translate(159.03125 0)"/>
      </g>
     </g>
    </g>
    <g id="ytick_9">
     <g id="line2d_47">
      <path d="M 42.28 250.305909 
L 493.2 250.305909 
" clip-path="url(#p18521a2762)" style="fill: none; stroke: #b0b0b0; stroke-width: 0.8; stroke-linecap: square"/>
     </g>
     <g id="line2d_48">
      <g>
       <use xlink:href="#m204737b0a7" x="42.28" y="250.305909" style="stroke: #000000; stroke-width: 0.8"/>
      </g>
     </g>
     <g id="text_27">
      <!-- 0.50 -->
      <g transform="translate(13.014375 254.104737) scale(0.1 -0.1)">
       <use xlink:href="#DejaVuSans-13"/>
       <use xlink:href="#DejaVuSans-11" transform="translate(63.625 0)"/>
       <use xlink:href="#DejaVuSans-18" transform="translate(95.40625 0)"/>
       <use xlink:href="#DejaVuSans-13" transform="translate(159.03125 0)"/>
      </g>
     </g>
    </g>
   </g>
   <g id="line2d_49">
    <path d="M 62.776364 294.61034 
L 63.256168 298.945233 
L 72.367106 298.945155 
L 72.846951 297.544517 
L 73.326861 288.201093 
L 73.804044 275.805177 
L 74.285858 266.668235 
L 74.764321 254.865529 
L 75.242348 246.412036 
L 75.721713 240.578077 
L 81.955775 240.578077 
L 82.436264 249.601567 
L 83.392471 277.428522 
L 84.83108 259.325732 
L 85.312983 254.069002 
L 86.270769 247.337179 
L 87.231329 243.445683 
L 87.707522 242.558916 
L 88.667618 255.062518 
L 89.146667 259.803543 
L 93.166654 288.812345 
L 93.623239 291.767674 
L 94.536029 298.698425 
L 95.449217 304.867339 
L 95.906281 308.035531 
L 96.362962 339.556597 
L 96.819288 342.660597 
L 98.256881 348.811776 
L 98.737087 350.441092 
L 99.214823 351.285501 
L 99.694622 351.85334 
L 100.174954 351.824615 
L 100.653256 351.12851 
L 101.132262 350.078889 
L 102.091255 345.716916 
L 103.04978 338.42952 
L 103.529485 332.845122 
L 104.01 333.993207 
L 104.488011 348.112383 
L 104.970523 355.339581 
L 105.927726 327.451986 
L 106.88801 301.152964 
L 107.84756 290.603531 
L 109.286077 268.248938 
L 110.242918 255.806335 
L 111.68082 294.425651 
L 112.162241 299.056908 
L 112.639366 309.460605 
L 113.598111 321.588388 
L 114.080022 323.258652 
L 114.559703 321.628712 
L 115.037037 308.1473 
L 115.515421 305.174743 
L 115.995244 292.475589 
L 116.476868 291.219304 
L 116.956211 281.245658 
L 117.436489 299.239444 
L 117.913504 291.509956 
L 118.393935 293.821556 
L 118.874924 286.427129 
L 119.35378 289.762302 
L 119.833537 283.656199 
L 120.313462 288.549686 
L 120.792564 283.919449 
L 121.269643 290.381487 
L 121.749347 286.94617 
L 122.230207 313.311887 
L 122.708769 309.500172 
L 123.188796 314.692645 
L 123.66638 307.588622 
L 124.146816 310.222982 
L 124.627789 301.262093 
L 125.105629 303.249492 
L 125.584847 294.540617 
L 126.064258 297.068105 
L 126.544254 288.840196 
L 127.022377 292.277682 
L 127.50286 303.198782 
L 127.981535 306.72868 
L 128.460603 297.472506 
L 128.94192 299.564503 
L 129.422879 289.571099 
L 129.900421 292.486803 
L 130.380361 284.577216 
L 130.858819 288.401354 
L 131.338823 285.282813 
L 131.817372 288.841183 
L 132.29597 305.360797 
L 132.77717 313.169788 
L 133.257409 306.355539 
L 133.735836 311.440033 
L 134.21594 302.275617 
L 134.695975 306.329832 
L 135.173784 295.696639 
L 135.653898 298.618191 
L 136.133944 287.600476 
L 136.612981 291.576257 
L 137.092889 306.134041 
L 137.570732 311.757014 
L 138.050769 300.569921 
L 138.529169 305.220349 
L 139.010513 295.026269 
L 139.487974 300.309094 
L 139.968561 292.621793 
L 140.448306 296.221569 
L 140.927689 289.870481 
L 141.408769 291.490049 
L 141.886306 296.869686 
L 142.3645 300.182267 
L 142.84625 290.842631 
L 143.325772 292.06759 
L 143.804248 291.83894 
L 144.285991 293.552171 
L 144.766068 293.777917 
L 145.723932 321.57734 
L 146.20281 328.038916 
L 146.680129 327.878435 
L 147.640392 328.015749 
L 148.11959 324.876077 
L 148.597639 317.584278 
L 149.077034 306.221357 
L 150.037525 288.246475 
L 150.516519 275.981757 
L 150.995475 269.762406 
L 152.912388 269.763118 
L 153.394641 269.47901 
L 153.872801 269.763693 
L 154.352236 269.76241 
L 154.83218 275.268303 
L 155.790528 302.46352 
L 156.269512 298.944842 
L 159.145988 298.944978 
L 159.627007 299.185326 
L 162.023183 340.43069 
L 162.982642 352.120137 
L 163.459728 354.310118 
L 163.940098 353.579531 
L 164.419148 348.976176 
L 164.899049 322.809217 
L 165.380648 308.98128 
L 165.860704 301.286048 
L 166.339037 286.799033 
L 166.819491 291.427547 
L 167.296171 293.56893 
L 167.778056 293.333567 
L 168.255386 291.246225 
L 169.214177 281.87627 
L 170.175256 269.47598 
L 170.652735 262.644465 
L 171.61236 271.080952 
L 172.092462 286.489235 
L 172.571969 291.758607 
L 173.051189 305.307248 
L 173.531866 306.4592 
L 174.011395 314.337778 
L 174.489656 309.254304 
L 174.968486 312.265401 
L 175.449353 320.704992 
L 175.925421 320.859581 
L 176.409457 307.563837 
L 176.884881 305.980078 
L 177.36602 292.944278 
L 177.846466 292.244788 
L 178.325353 281.104217 
L 178.803457 282.322772 
L 179.284438 279.062193 
L 179.762868 280.569599 
L 180.241866 295.06057 
L 180.720507 302.533285 
L 181.200814 296.00215 
L 181.68073 302.14574 
L 182.161091 294.723521 
L 182.639239 300.726876 
L 183.120462 293.0004 
L 183.598907 298.22353 
L 184.077359 291.047949 
L 184.557426 297.689949 
L 185.035389 312.007513 
L 185.514872 316.381222 
L 185.994564 302.970432 
L 186.475599 303.628058 
L 186.953935 285.696236 
L 187.432786 293.905085 
L 187.91446 298.945979 
L 189.832178 298.948579 
L 190.312511 299.589194 
L 191.271369 312.261536 
L 191.74866 315.833059 
L 192.23002 310.891195 
L 193.668204 267.106446 
L 194.147093 267.92216 
L 195.104449 268.672968 
L 195.584389 268.520743 
L 196.54176 269.51339 
L 197.02488 269.508408 
L 197.504066 269.140237 
L 197.982718 269.442971 
L 198.462013 270.758622 
L 199.900006 294.937429 
L 200.378894 298.62998 
L 200.858355 300.104739 
L 201.336177 300.26464 
L 201.816886 305.230136 
L 202.29636 304.979769 
L 202.777256 317.148928 
L 203.255892 319.410656 
L 203.733998 318.545281 
L 205.1752 306.51787 
L 206.131883 300.187737 
L 206.613167 298.944882 
L 207.57323 298.944838 
L 208.051078 300.073272 
L 208.531431 303.279766 
L 209.490056 315.114605 
L 209.966701 323.564464 
L 210.92657 335.561946 
L 211.405659 327.365539 
L 211.88428 306.932519 
L 212.364744 298.289265 
L 212.846279 280.97531 
L 213.324195 278.581151 
L 213.804008 286.124313 
L 214.284953 290.31462 
L 214.76479 284.927227 
L 215.244307 289.087647 
L 215.720894 279.931121 
L 216.20236 282.82613 
L 216.680888 281.389847 
L 217.638816 295.666758 
L 218.120386 298.945859 
L 219.555269 298.949275 
L 220.038862 298.28661 
L 220.517918 292.696684 
L 220.99571 300.622439 
L 221.474927 297.450548 
L 221.957054 308.253196 
L 222.435325 306.064021 
L 222.91355 316.221015 
L 223.391796 318.865912 
L 224.35107 313.178863 
L 224.830017 312.272447 
L 225.309994 312.74126 
L 225.790438 314.494752 
L 226.26902 313.222202 
L 226.749229 308.241009 
L 227.230557 290.072747 
L 227.70854 281.193184 
L 228.187529 279.505228 
L 228.667887 283.063883 
L 229.145368 288.070872 
L 230.105451 295.118781 
L 230.583357 296.743859 
L 231.063501 297.228291 
L 231.544056 296.285823 
L 232.502987 290.1134 
L 232.982593 284.60209 
L 233.461906 288.284339 
L 233.941991 285.735497 
L 234.4188 299.425961 
L 234.898541 299.68933 
L 235.379911 313.040061 
L 236.337487 307.227972 
L 236.816106 305.027962 
L 237.296106 304.632539 
L 237.776339 305.804352 
L 238.253935 307.868857 
L 239.694673 320.807488 
L 240.174771 321.870945 
L 240.653449 305.081375 
L 241.131186 299.336736 
L 241.61191 284.213075 
L 242.089948 283.763123 
L 242.569611 292.904379 
L 243.052199 294.800507 
L 243.531389 283.723629 
L 244.008713 284.998689 
L 244.489297 280.484629 
L 244.966395 279.736496 
L 245.449008 273.910351 
L 245.926812 283.23104 
L 246.407002 282.749675 
L 246.887167 294.817083 
L 247.365687 311.912354 
L 248.326159 320.235182 
L 248.803562 321.62328 
L 249.284479 305.93651 
L 249.763674 301.038466 
L 250.24312 298.947323 
L 250.722853 291.231395 
L 251.199631 272.429824 
L 251.679025 271.569309 
L 252.160091 288.308884 
L 252.638149 298.923642 
L 253.11855 294.255798 
L 253.599187 300.208041 
L 254.078792 298.950571 
L 254.55912 299.656458 
L 255.038117 298.951714 
L 255.517622 299.411168 
L 255.996105 291.158765 
L 256.473944 289.108538 
L 256.953031 292.618552 
L 257.433966 297.743076 
L 257.913095 289.201336 
L 258.392468 296.693217 
L 258.872318 290.466423 
L 259.350089 298.120115 
L 259.830901 291.461718 
L 260.312902 296.443179 
L 260.788752 286.847371 
L 261.27028 289.534359 
L 261.747626 301.23524 
L 262.228239 303.680387 
L 262.707398 291.642999 
L 263.18538 294.955345 
L 263.666209 284.593156 
L 264.145819 289.834982 
L 264.626303 282.156928 
L 265.10472 290.104237 
L 265.582845 284.88077 
L 266.063391 294.83594 
L 266.541453 315.900152 
L 267.024421 323.464993 
L 267.499916 317.253976 
L 267.981208 321.183895 
L 268.462393 309.448859 
L 268.942123 309.510859 
L 269.42194 294.496177 
L 269.898992 293.388222 
L 270.379753 278.450599 
L 270.8578 279.395423 
L 271.336535 290.797099 
L 271.818517 294.583741 
L 272.295512 284.918283 
L 272.775572 293.820056 
L 273.256487 298.947036 
L 274.212341 298.95011 
L 274.69357 301.275766 
L 275.174273 298.946766 
L 275.653785 293.382391 
L 276.130123 275.476832 
L 276.612091 284.814071 
L 277.093055 287.355258 
L 277.569074 298.863616 
L 278.050711 297.683535 
L 278.530698 298.943674 
L 279.488544 298.943919 
L 279.967915 322.501641 
L 280.446407 333.143984 
L 280.925794 340.27417 
L 281.406338 335.88657 
L 281.88761 309.888172 
L 282.364018 298.939544 
L 282.845637 290.448014 
L 283.323223 287.037463 
L 283.804954 269.327081 
L 284.281741 297.987841 
L 284.761005 298.945446 
L 286.680147 298.945532 
L 287.160873 297.994409 
L 287.637286 270.878745 
L 288.117995 251.600812 
L 288.598704 246.855586 
L 289.077371 266.42374 
L 289.55868 274.446477 
L 290.037027 293.099084 
L 290.515992 298.943946 
L 290.993073 300.342137 
L 291.473884 315.802975 
L 291.95324 323.794935 
L 292.43378 323.895218 
L 292.914394 320.910461 
L 293.392051 301.131008 
L 293.871697 295.690356 
L 294.350355 298.94605 
L 296.747517 298.947363 
L 297.227183 293.617875 
L 297.7067 282.752704 
L 298.187017 267.629027 
L 298.666666 265.711437 
L 299.146569 266.959467 
L 300.104744 298.943843 
L 302.501341 298.944546 
L 302.981089 312.378938 
L 303.462905 330.353178 
L 303.939903 332.749525 
L 304.41977 326.97421 
L 304.897405 324.538102 
L 305.378035 314.651509 
L 305.857025 286.021496 
L 306.335895 275.642703 
L 306.816146 260.926998 
L 307.296191 253.550453 
L 308.255593 298.945447 
L 312.089714 298.945929 
L 313.049221 249.779653 
L 313.529868 245.594271 
L 314.488427 256.036499 
L 314.968392 274.994965 
L 315.44626 288.634284 
L 315.927007 298.944337 
L 317.363736 298.94488 
L 317.843034 313.801021 
L 318.322407 345.705872 
L 318.802125 353.655065 
L 319.280862 340.111038 
L 319.76398 319.735263 
L 320.239683 306.171366 
L 320.720026 299.778239 
L 321.200778 298.944965 
L 321.681679 298.944966 
L 322.159018 301.34095 
L 322.640051 307.197734 
L 324.077042 334.523041 
L 325.0346 346.43229 
L 325.517554 348.806665 
L 325.994466 325.542308 
L 326.473963 311.502548 
L 326.953622 288.604237 
L 327.434069 285.733292 
L 328.870146 273.869361 
L 329.349933 272.844936 
L 329.830936 269.222084 
L 330.309239 277.949026 
L 330.787705 277.74543 
L 331.268897 288.432718 
L 331.748293 288.877722 
L 332.229356 298.445501 
L 332.705834 296.619816 
L 333.18659 303.539217 
L 333.665271 316.038649 
L 334.145793 319.418969 
L 334.625578 309.431607 
L 335.10306 309.433054 
L 335.582773 297.135578 
L 336.06407 296.744748 
L 336.541634 284.960812 
L 337.020726 287.047623 
L 337.502545 284.997334 
L 337.980155 285.072928 
L 338.459453 298.644028 
L 338.938438 305.901067 
L 339.419823 299.583961 
L 339.89698 305.810406 
L 340.376645 298.892075 
L 340.857076 303.880978 
L 341.336828 297.577627 
L 341.818096 303.264529 
L 342.294881 295.016391 
L 342.775581 302.010879 
L 343.254049 316.318679 
L 343.732493 321.066988 
L 344.212046 310.09133 
L 344.69179 310.886671 
L 345.171073 296.400502 
L 345.651179 295.379035 
L 346.131078 280.301621 
L 346.610997 278.109876 
L 347.092346 274.134647 
L 347.570478 281.734967 
L 348.048931 292.872556 
L 348.530048 298.946274 
L 351.405581 298.948817 
L 351.88293 299.822403 
L 352.363755 306.256006 
L 352.845302 296.567163 
L 353.322291 289.82839 
L 353.804432 276.169188 
L 354.283486 266.530623 
L 354.760521 264.299728 
L 355.720113 267.560077 
L 356.199447 268.060668 
L 356.679191 267.725483 
L 357.159601 279.177653 
L 357.639058 298.944075 
L 358.595921 298.94472 
L 359.076986 300.706779 
L 359.553996 313.099295 
L 360.035229 318.937257 
L 360.513386 320.544908 
L 360.993268 315.857013 
L 361.474694 309.441143 
L 362.433799 303.188267 
L 362.912705 302.222232 
L 363.394229 302.287603 
L 363.873831 303.199288 
L 364.829059 307.403516 
L 366.268753 316.303557 
L 367.704818 322.641217 
L 368.184671 324.181207 
L 368.666068 324.948746 
L 369.143163 325.274193 
L 369.624372 317.72998 
L 370.104271 300.505053 
L 370.582729 292.045079 
L 371.063608 277.52178 
L 371.542956 273.629767 
L 372.022616 277.13672 
L 372.500811 278.688149 
L 372.979539 274.309222 
L 373.45954 279.379857 
L 373.937445 277.220795 
L 374.418642 285.462381 
L 374.897837 286.244758 
L 375.377084 294.368858 
L 375.856522 294.862874 
L 376.335936 301.894379 
L 376.814756 314.781086 
L 377.296706 319.444167 
L 377.774172 314.282814 
L 378.252485 314.822074 
L 378.733896 306.389799 
L 379.212347 304.537623 
L 379.693665 295.190026 
L 380.171164 293.750708 
L 380.651723 285.499416 
L 381.12924 286.319698 
L 381.609784 293.496396 
L 382.090505 296.443917 
L 382.568095 291.505062 
L 383.049606 295.029999 
L 383.528489 290.551002 
L 384.007667 294.916292 
L 384.485814 291.261788 
L 384.965066 296.367169 
L 385.444469 293.201703 
L 385.924294 298.926499 
L 386.404535 310.490974 
L 386.884421 315.312925 
L 387.364829 309.712907 
L 387.843326 312.039952 
L 388.322097 304.190548 
L 388.800466 305.591973 
L 389.280685 298.565408 
L 389.761796 300.69107 
L 390.238472 294.146031 
L 390.718863 296.432407 
L 391.200237 304.129384 
L 391.678651 306.04384 
L 392.157972 297.764487 
L 392.638207 297.534987 
L 393.117767 287.26141 
L 393.594898 285.285484 
L 394.075071 281.800401 
L 394.554772 284.490333 
L 395.035315 288.01018 
L 396.95252 297.992011 
L 397.430772 298.945884 
L 399.348434 298.945794 
L 399.829518 298.645712 
L 400.309439 296.734226 
L 400.786199 293.316192 
L 401.26823 299.05376 
L 401.748944 288.926096 
L 402.226804 299.558451 
L 402.704688 293.564343 
L 403.186749 297.16544 
L 403.66606 298.948127 
L 405.102785 298.953751 
L 405.582331 304.169789 
L 406.063213 307.854902 
L 406.539809 308.182998 
L 407.022264 313.773076 
L 407.503044 317.3851 
L 407.980173 314.586194 
L 408.458831 315.068519 
L 408.938414 313.043048 
L 409.416299 309.119032 
L 409.897146 306.391175 
L 411.336039 295.625514 
L 411.815018 293.866049 
L 412.293891 291.611557 
L 412.776348 287.505623 
L 413.254502 289.905305 
L 413.731866 289.986671 
L 414.215185 288.579235 
L 415.17279 296.589484 
L 415.650989 303.976657 
L 416.130076 320.852704 
L 416.609452 328.128914 
L 417.08989 328.128888 
L 417.568917 327.527896 
L 418.049782 328.12886 
L 419.966576 328.032693 
L 420.443503 320.991826 
L 422.842568 269.761727 
L 423.322094 269.761727 
L 423.802499 267.49666 
L 424.280398 269.761726 
L 424.761171 269.76173 
L 425.240797 268.867126 
L 425.720285 269.761732 
L 426.677296 269.761734 
L 427.159242 269.480934 
L 427.63627 269.761738 
L 428.116796 269.761742 
L 428.598353 264.877169 
L 429.077497 278.616731 
L 429.553872 285.112967 
L 431.471791 287.499196 
L 431.952311 287.43139 
L 432.434251 288.416564 
L 434.348664 289.747149 
L 434.829029 289.950449 
L 435.309171 289.799244 
L 435.786996 290.32022 
L 436.266476 289.833946 
L 436.747541 288.511497 
L 437.226176 290.624578 
L 437.706724 290.652958 
L 438.189446 284.991355 
L 438.665162 290.634861 
L 440.101422 290.387167 
L 441.540124 289.956516 
L 442.500882 289.554038 
L 442.980795 289.096054 
L 443.458421 285.221644 
L 443.939213 313.237542 
L 444.419579 317.722144 
L 451.129262 312.984176 
L 452.56914 311.890463 
L 454.008198 310.954262 
L 455.444677 310.02231 
L 458.802388 308.518739 
L 460.239677 308.153863 
L 461.676994 308.04249 
L 463.114725 308.196342 
L 464.073613 308.461215 
L 465.032825 308.867218 
L 465.995392 309.423816 
L 466.474397 309.710802 
L 468.391239 311.460655 
L 470.3073 313.839763 
L 471.268023 313.83714 
L 471.744742 306.155912 
L 472.226282 287.346286 
L 472.703636 263.347397 
L 472.703636 263.347397 
" clip-path="url(#p18521a2762)" style="fill: none; stroke: #1f77b4; stroke-width: 1.5; stroke-linecap: square"/>
   </g>
   <g id="patch_9">
    <path d="M 42.28 361.077656 
L 42.28 234.84 
" style="fill: none; stroke: #000000; stroke-width: 0.8; stroke-linejoin: miter; stroke-linecap: square"/>
   </g>
   <g id="patch_10">
    <path d="M 493.2 361.077656 
L 493.2 234.84 
" style="fill: none; stroke: #000000; stroke-width: 0.8; stroke-linejoin: miter; stroke-linecap: square"/>
   </g>
   <g id="patch_11">
    <path d="M 42.28 361.077656 
L 493.2 361.077656 
" style="fill: none; stroke: #000000; stroke-width: 0.8; stroke-linejoin: miter; stroke-linecap: square"/>
   </g>
   <g id="patch_12">
    <path d="M 42.28 234.84 
L 493.2 234.84 
" style="fill: none; stroke: #000000; stroke-width: 0.8; stroke-linejoin: miter; stroke-linecap: square"/>
   </g>
   <g id="text_28">
    <!-- $a_{x,e}$ $\left(\mathrm{m/s^2}\right)$ -->
    <g transform="translate(236.18 228.84) scale(0.12 -0.12)">
     <defs>
      <path id="DejaVuSans-Oblique-44" d="M 3438 1997 
L 3047 0 
L 2472 0 
L 2578 531 
Q 2325 219 2001 64 
Q 1678 -91 1281 -91 
Q 834 -91 548 182 
Q 263 456 263 884 
Q 263 1497 752 1853 
Q 1241 2209 2100 2209 
L 2900 2209 
L 2931 2363 
Q 2938 2388 2941 2417 
Q 2944 2447 2944 2509 
Q 2944 2788 2717 2942 
Q 2491 3097 2081 3097 
Q 1800 3097 1504 3025 
Q 1209 2953 897 2809 
L 997 3341 
Q 1322 3463 1633 3523 
Q 1944 3584 2234 3584 
Q 2853 3584 3176 3315 
Q 3500 3047 3500 2534 
Q 3500 2431 3484 2292 
Q 3469 2153 3438 1997 
z
M 2816 1759 
L 2241 1759 
Q 1534 1759 1195 1570 
Q 856 1381 856 984 
Q 856 709 1029 553 
Q 1203 397 1509 397 
Q 1978 397 2328 733 
Q 2678 1069 2791 1631 
L 2816 1759 
z
" transform="scale(0.015625)"/>
      <path id="DejaVuSans-Oblique-5b" d="M 3841 3500 
L 2234 1784 
L 3219 0 
L 2559 0 
L 1819 1388 
L 531 0 
L -166 0 
L 1556 1844 
L 641 3500 
L 1300 3500 
L 1972 2234 
L 3144 3500 
L 3841 3500 
z
" transform="scale(0.015625)"/>
      <path id="DejaVuSans-f" d="M 750 794 
L 1409 794 
L 1409 256 
L 897 -744 
L 494 -744 
L 750 256 
L 750 794 
z
" transform="scale(0.015625)"/>
      <path id="STIXSizeOneSym-Regular-4" d="M 2445 -858 
L 2445 -1050 
Q 1728 -371 1309 630 
Q 890 1632 890 2886 
Q 890 4122 1309 5136 
Q 1728 6150 2445 6822 
L 2445 6630 
Q 1408 5363 1408 2886 
Q 1408 410 2445 -858 
z
" transform="scale(0.015625)"/>
      <path id="DejaVuSans-50" d="M 3328 2828 
Q 3544 3216 3844 3400 
Q 4144 3584 4550 3584 
Q 5097 3584 5394 3201 
Q 5691 2819 5691 2113 
L 5691 0 
L 5113 0 
L 5113 2094 
Q 5113 2597 4934 2840 
Q 4756 3084 4391 3084 
Q 3944 3084 3684 2787 
Q 3425 2491 3425 1978 
L 3425 0 
L 2847 0 
L 2847 2094 
Q 2847 2600 2669 2842 
Q 2491 3084 2119 3084 
Q 1678 3084 1418 2786 
Q 1159 2488 1159 1978 
L 1159 0 
L 581 0 
L 581 3500 
L 1159 3500 
L 1159 2956 
Q 1356 3278 1631 3431 
Q 1906 3584 2284 3584 
Q 2666 3584 2933 3390 
Q 3200 3197 3328 2828 
z
" transform="scale(0.015625)"/>
      <path id="DejaVuSans-12" d="M 1625 4666 
L 2156 4666 
L 531 -594 
L 0 -594 
L 1625 4666 
z
" transform="scale(0.015625)"/>
      <path id="STIXSizeOneSym-Regular-5" d="M 550 6630 
L 550 6822 
Q 1267 6144 1686 5142 
Q 2106 4141 2106 2886 
Q 2106 1651 1686 636 
Q 1267 -378 550 -1050 
L 550 -858 
Q 1587 410 1587 2886 
Q 1587 5363 550 6630 
z
" transform="scale(0.015625)"/>
     </defs>
     <use xlink:href="#DejaVuSans-Oblique-44" transform="translate(0 0.746875)"/>
     <use xlink:href="#DejaVuSans-Oblique-5b" transform="translate(61.279297 -14.253076) scale(0.7)"/>
     <use xlink:href="#DejaVuSans-f" transform="translate(102.705078 -14.253076) scale(0.7)"/>
     <use xlink:href="#DejaVuSans-Oblique-48" transform="translate(138.59375 -14.253076) scale(0.7)"/>
     <use xlink:href="#DejaVuSans-3" transform="translate(184.394531 0.746875)"/>
     <use xlink:href="#STIXSizeOneSym-Regular-4" transform="translate(216.181641 5.1375) scale(0.833613)"/>
     <use xlink:href="#DejaVuSans-50" transform="translate(255.193878 0.746875)"/>
     <use xlink:href="#DejaVuSans-12" transform="translate(352.605988 0.746875)"/>
     <use xlink:href="#DejaVuSans-56" transform="translate(386.297394 0.746875)"/>
     <use xlink:href="#DejaVuSans-15" transform="translate(439.354034 42.046875) scale(0.7)"/>
     <use xlink:href="#STIXSizeOneSym-Regular-5" transform="translate(486.624542 5.1375) scale(0.833613)"/>
    </g>
   </g>
   <g id="legend_2">
    <g id="patch_13">
     <path d="M 401.6 259.642344 
L 486.2 259.642344 
Q 488.2 259.642344 488.2 257.642344 
L 488.2 241.84 
Q 488.2 239.84 486.2 239.84 
L 401.6 239.84 
Q 399.6 239.84 399.6 241.84 
L 399.6 257.642344 
Q 399.6 259.642344 401.6 259.642344 
z
" style="fill: #ffffff; opacity: 0.8; stroke: #cccccc; stroke-linejoin: miter"/>
    </g>
    <g id="line2d_50">
     <path d="M 403.6 249.74 
L 413.6 249.74 
L 423.6 249.74 
" style="fill: none; stroke: #1f77b4; stroke-width: 1.5; stroke-linecap: square"/>
    </g>
    <g id="text_29">
     <!-- $a_{x,e}$ $\left(\mathrm{m/s^2}\right)$ -->
     <g transform="translate(431.6 253.24) scale(0.1 -0.1)">
      <use xlink:href="#DejaVuSans-Oblique-44" transform="translate(0 0.746875)"/>
      <use xlink:href="#DejaVuSans-Oblique-5b" transform="translate(61.279297 -14.253076) scale(0.7)"/>
      <use xlink:href="#DejaVuSans-f" transform="translate(102.705078 -14.253076) scale(0.7)"/>
      <use xlink:href="#DejaVuSans-Oblique-48" transform="translate(138.59375 -14.253076) scale(0.7)"/>
      <use xlink:href="#DejaVuSans-3" transform="translate(184.394531 0.746875)"/>
      <use xlink:href="#STIXSizeOneSym-Regular-4" transform="translate(216.181641 5.1375) scale(0.833613)"/>
      <use xlink:href="#DejaVuSans-50" transform="translate(255.193878 0.746875)"/>
      <use xlink:href="#DejaVuSans-12" transform="translate(352.605988 0.746875)"/>
      <use xlink:href="#DejaVuSans-56" transform="translate(386.297394 0.746875)"/>
      <use xlink:href="#DejaVuSans-15" transform="translate(439.354034 42.046875) scale(0.7)"/>
      <use xlink:href="#STIXSizeOneSym-Regular-5" transform="translate(486.624542 5.1375) scale(0.833613)"/>
     </g>
    </g>
   </g>
  </g>
  <g id="text_30">
   <!-- QCar2 Input Error -->
   <g transform="translate(199.15125 17.181188) scale(0.12 -0.12)">
    <defs>
     <path id="DejaVuSans-34" d="M 2522 4238 
Q 1834 4238 1429 3725 
Q 1025 3213 1025 2328 
Q 1025 1447 1429 934 
Q 1834 422 2522 422 
Q 3209 422 3611 934 
Q 4013 1447 4013 2328 
Q 4013 3213 3611 3725 
Q 3209 4238 2522 4238 
z
M 3406 84 
L 4238 -825 
L 3475 -825 
L 2784 -78 
Q 2681 -84 2626 -87 
Q 2572 -91 2522 -91 
Q 1538 -91 948 567 
Q 359 1225 359 2328 
Q 359 3434 948 4092 
Q 1538 4750 2522 4750 
Q 3503 4750 4090 4092 
Q 4678 3434 4678 2328 
Q 4678 1516 4351 937 
Q 4025 359 3406 84 
z
" transform="scale(0.015625)"/>
     <path id="DejaVuSans-26" d="M 4122 4306 
L 4122 3641 
Q 3803 3938 3442 4084 
Q 3081 4231 2675 4231 
Q 1875 4231 1450 3742 
Q 1025 3253 1025 2328 
Q 1025 1406 1450 917 
Q 1875 428 2675 428 
Q 3081 428 3442 575 
Q 3803 722 4122 1019 
L 4122 359 
Q 3791 134 3420 21 
Q 3050 -91 2638 -91 
Q 1578 -91 968 557 
Q 359 1206 359 2328 
Q 359 3453 968 4101 
Q 1578 4750 2638 4750 
Q 3056 4750 3426 4639 
Q 3797 4528 4122 4306 
z
" transform="scale(0.015625)"/>
     <path id="DejaVuSans-2c" d="M 628 4666 
L 1259 4666 
L 1259 0 
L 628 0 
L 628 4666 
z
" transform="scale(0.015625)"/>
     <path id="DejaVuSans-51" d="M 3513 2113 
L 3513 0 
L 2938 0 
L 2938 2094 
Q 2938 2591 2744 2837 
Q 2550 3084 2163 3084 
Q 1697 3084 1428 2787 
Q 1159 2491 1159 1978 
L 1159 0 
L 581 0 
L 581 3500 
L 1159 3500 
L 1159 2956 
Q 1366 3272 1645 3428 
Q 1925 3584 2291 3584 
Q 2894 3584 3203 3211 
Q 3513 2838 3513 2113 
z
" transform="scale(0.015625)"/>
     <path id="DejaVuSans-53" d="M 1159 525 
L 1159 -1331 
L 581 -1331 
L 581 3500 
L 1159 3500 
L 1159 2969 
Q 1341 3281 1617 3432 
Q 1894 3584 2278 3584 
Q 2916 3584 3314 3078 
Q 3713 2572 3713 1747 
Q 3713 922 3314 415 
Q 2916 -91 2278 -91 
Q 1894 -91 1617 61 
Q 1341 213 1159 525 
z
M 3116 1747 
Q 3116 2381 2855 2742 
Q 2594 3103 2138 3103 
Q 1681 3103 1420 2742 
Q 1159 2381 1159 1747 
Q 1159 1113 1420 752 
Q 1681 391 2138 391 
Q 2594 391 2855 752 
Q 3116 1113 3116 1747 
z
" transform="scale(0.015625)"/>
     <path id="DejaVuSans-58" d="M 544 1381 
L 544 3500 
L 1119 3500 
L 1119 1403 
Q 1119 906 1312 657 
Q 1506 409 1894 409 
Q 2359 409 2629 706 
Q 2900 1003 2900 1516 
L 2900 3500 
L 3475 3500 
L 3475 0 
L 2900 0 
L 2900 538 
Q 2691 219 2414 64 
Q 2138 -91 1772 -91 
Q 1169 -91 856 284 
Q 544 659 544 1381 
z
M 1991 3584 
L 1991 3584 
z
" transform="scale(0.015625)"/>
     <path id="DejaVuSans-28" d="M 628 4666 
L 3578 4666 
L 3578 4134 
L 1259 4134 
L 1259 2753 
L 3481 2753 
L 3481 2222 
L 1259 2222 
L 1259 531 
L 3634 531 
L 3634 0 
L 628 0 
L 628 4666 
z
" transform="scale(0.015625)"/>
     <path id="DejaVuSans-52" d="M 1959 3097 
Q 1497 3097 1228 2736 
Q 959 2375 959 1747 
Q 959 1119 1226 758 
Q 1494 397 1959 397 
Q 2419 397 2687 759 
Q 2956 1122 2956 1747 
Q 2956 2369 2687 2733 
Q 2419 3097 1959 3097 
z
M 1959 3584 
Q 2709 3584 3137 3096 
Q 3566 2609 3566 1747 
Q 3566 888 3137 398 
Q 2709 -91 1959 -91 
Q 1206 -91 779 398 
Q 353 888 353 1747 
Q 353 2609 779 3096 
Q 1206 3584 1959 3584 
z
" transform="scale(0.015625)"/>
    </defs>
    <use xlink:href="#DejaVuSans-34"/>
    <use xlink:href="#DejaVuSans-26" transform="translate(78.71875 0)"/>
    <use xlink:href="#DejaVuSans-44" transform="translate(148.546875 0)"/>
    <use xlink:href="#DejaVuSans-55" transform="translate(209.828125 0)"/>
    <use xlink:href="#DejaVuSans-15" transform="translate(250.9375 0)"/>
    <use xlink:href="#DejaVuSans-3" transform="translate(314.5625 0)"/>
    <use xlink:href="#DejaVuSans-2c" transform="translate(346.34375 0)"/>
    <use xlink:href="#DejaVuSans-51" transform="translate(375.84375 0)"/>
    <use xlink:href="#DejaVuSans-53" transform="translate(439.21875 0)"/>
    <use xlink:href="#DejaVuSans-58" transform="translate(502.703125 0)"/>
    <use xlink:href="#DejaVuSans-57" transform="translate(566.078125 0)"/>
    <use xlink:href="#DejaVuSans-3" transform="translate(605.28125 0)"/>
    <use xlink:href="#DejaVuSans-28" transform="translate(637.0625 0)"/>
    <use xlink:href="#DejaVuSans-55" transform="translate(700.25 0)"/>
    <use xlink:href="#DejaVuSans-55" transform="translate(739.609375 0)"/>
    <use xlink:href="#DejaVuSans-52" transform="translate(778.515625 0)"/>
    <use xlink:href="#DejaVuSans-55" transform="translate(839.703125 0)"/>
   </g>
  </g>
 </g>
 <defs>
  <clipPath id="p1c2e85f7a5">
   <rect x="42.28" y="48.96" width="450.92" height="126.237656"/>
  </clipPath>
  <clipPath id="p18521a2762">
   <rect x="42.28" y="234.84" width="450.92" height="126.237656"/>
  </clipPath>
 </defs>
</svg>
