<?xml version="1.0" encoding="utf-8" standalone="no"?>
<!DOCTYPE svg PUBLIC "-//W3C//DTD SVG 1.1//EN"
  "http://www.w3.org/Graphics/SVG/1.1/DTD/svg11.dtd">
<svg xmlns:xlink="http://www.w3.org/1999/xlink" width="504pt" height="403.2pt" viewBox="0 0 504 403.2" xmlns="http://www.w3.org/2000/svg" version="1.1">
 <metadata>
  <rdf:RDF xmlns:dc="http://purl.org/dc/elements/1.1/" xmlns:cc="http://creativecommons.org/ns#" xmlns:rdf="http://www.w3.org/1999/02/22-rdf-syntax-ns#">
   <cc:Work>
    <dc:type rdf:resource="http://purl.org/dc/dcmitype/StillImage"/>
    <dc:date>2026-07-09T11:57:21.435720</dc:date>
    <dc:format>image/svg+xml</dc:format>
    <dc:creator>
     <cc:Agent>
      <dc:title>Matplotlib v3.11.0, https://matplotlib.org/</dc:title>
     </cc:Agent>
    </dc:creator>
   </cc:Work>
  </rdf:RDF>
 </metadata>
 <defs>
  <style type="text/css">*{stroke-linejoin: round; stroke-linecap: butt}</style>
 </defs>
 <g id="figure_1">
  <g id="patch_1">
   <path d="M 0 403.2 
L 504 403.2 
L 504 0 
L 0 0 
z
" style="fill: #ffffff"/>
  </g>
  <g id="axes_1">
   <g id="patch_2">
    <path d="M 42.28 175.197656 
L 493.2 175.197656 
L 493.2 48.96 
L 42.28 48.96 
z
" style="fill: #ffffff"/>
   </g>
   <g id="matplotlib.axis_1">
    <g id="xtick_1">
     <g id="line2d_1">
      <path d="M 62.338832 175.197656 
L 62.338832 48.96 
" clip-path="url(#p655a55c714)" style="fill: none; stroke: #b0b0b0; stroke-width: 0.8; stroke-linecap: square"/>
     </g>
     <g id="line2d_2">
      <defs>
       <path id="mb8375615f5" d="M 0 0 
L 0 3.5 
" style="stroke: #000000; stroke-width: 0.8"/>
      </defs>
      <g>
       <use xlink:href="#mb8375615f5" x="62.338832" y="175.197656" style="stroke: #000000; stroke-width: 0.8"/>
      </g>
     </g>
     <g id="text_1">
      <!-- 0 -->
      <g transform="translate(59.157582 189.795312) scale(0.1 -0.1)">
       <defs>
        <path id="DejaVuSans-13" d="M 2034 4250 
Q 1547 4250 1301 3770 
Q 1056 3291 1056 2328 
Q 1056 1369 1301 889 
Q 1547 409 2034 409 
Q 2525 409 2770 889 
Q 3016 1369 3016 2328 
Q 3016 3291 2770 3770 
Q 2525 4250 2034 4250 
z
M 2034 4750 
Q 2819 4750 3233 4129 
Q 3647 3509 3647 2328 
Q 3647 1150 3233 529 
Q 2819 -91 2034 -91 
Q 1250 -91 836 529 
Q 422 1150 422 2328 
Q 422 3509 836 4129 
Q 1250 4750 2034 4750 
z
" transform="scale(0.015625)"/>
       </defs>
       <use xlink:href="#DejaVuSans-13"/>
      </g>
     </g>
    </g>
    <g id="xtick_2">
     <g id="line2d_3">
      <path d="M 130.751089 175.197656 
L 130.751089 48.96 
" clip-path="url(#p655a55c714)" style="fill: none; stroke: #b0b0b0; stroke-width: 0.8; stroke-linecap: square"/>
     </g>
     <g id="line2d_4">
      <g>
       <use xlink:href="#mb8375615f5" x="130.751089" y="175.197656" style="stroke: #000000; stroke-width: 0.8"/>
      </g>
     </g>
     <g id="text_2">
      <!-- 10 -->
      <g transform="translate(124.388589 189.795312) scale(0.1 -0.1)">
       <defs>
        <path id="DejaVuSans-14" d="M 794 531 
L 1825 531 
L 1825 4091 
L 703 3866 
L 703 4441 
L 1819 4666 
L 2450 4666 
L 2450 531 
L 3481 531 
L 3481 0 
L 794 0 
L 794 531 
z
" transform="scale(0.015625)"/>
       </defs>
       <use xlink:href="#DejaVuSans-14"/>
       <use xlink:href="#DejaVuSans-13" transform="translate(63.625 0)"/>
      </g>
     </g>
    </g>
    <g id="xtick_3">
     <g id="line2d_5">
      <path d="M 199.163346 175.197656 
L 199.163346 48.96 
" clip-path="url(#p655a55c714)" style="fill: none; stroke: #b0b0b0; stroke-width: 0.8; stroke-linecap: square"/>
     </g>
     <g id="line2d_6">
      <g>
       <use xlink:href="#mb8375615f5" x="199.163346" y="175.197656" style="stroke: #000000; stroke-width: 0.8"/>
      </g>
     </g>
     <g id="text_3">
      <!-- 20 -->
      <g transform="translate(192.800846 189.795312) scale(0.1 -0.1)">
       <defs>
        <path id="DejaVuSans-15" d="M 1228 531 
L 3431 531 
L 3431 0 
L 469 0 
L 469 531 
Q 828 903 1448 1529 
Q 2069 2156 2228 2338 
Q 2531 2678 2651 2914 
Q 2772 3150 2772 3378 
Q 2772 3750 2511 3984 
Q 2250 4219 1831 4219 
Q 1534 4219 1204 4116 
Q 875 4013 500 3803 
L 500 4441 
Q 881 4594 1212 4672 
Q 1544 4750 1819 4750 
Q 2544 4750 2975 4387 
Q 3406 4025 3406 3419 
Q 3406 3131 3298 2873 
Q 3191 2616 2906 2266 
Q 2828 2175 2409 1742 
Q 1991 1309 1228 531 
z
" transform="scale(0.015625)"/>
       </defs>
       <use xlink:href="#DejaVuSans-15"/>
       <use xlink:href="#DejaVuSans-13" transform="translate(63.625 0)"/>
      </g>
     </g>
    </g>
    <g id="xtick_4">
     <g id="line2d_7">
      <path d="M 267.575603 175.197656 
L 267.575603 48.96 
" clip-path="url(#p655a55c714)" style="fill: none; stroke: #b0b0b0; stroke-width: 0.8; stroke-linecap: square"/>
     </g>
     <g id="line2d_8">
      <g>
       <use xlink:href="#mb8375615f5" x="267.575603" y="175.197656" style="stroke: #000000; stroke-width: 0.8"/>
      </g>
     </g>
     <g id="text_4">
      <!-- 30 -->
      <g transform="translate(261.213103 189.795312) scale(0.1 -0.1)">
       <defs>
        <path id="DejaVuSans-16" d="M 2597 2516 
Q 3050 2419 3304 2112 
Q 3559 1806 3559 1356 
Q 3559 666 3084 287 
Q 2609 -91 1734 -91 
Q 1441 -91 1130 -33 
Q 819 25 488 141 
L 488 750 
Q 750 597 1062 519 
Q 1375 441 1716 441 
Q 2309 441 2620 675 
Q 2931 909 2931 1356 
Q 2931 1769 2642 2001 
Q 2353 2234 1838 2234 
L 1294 2234 
L 1294 2753 
L 1863 2753 
Q 2328 2753 2575 2939 
Q 2822 3125 2822 3475 
Q 2822 3834 2567 4026 
Q 2313 4219 1838 4219 
Q 1578 4219 1281 4162 
Q 984 4106 628 3988 
L 628 4550 
Q 988 4650 1302 4700 
Q 1616 4750 1894 4750 
Q 2613 4750 3031 4423 
Q 3450 4097 3450 3541 
Q 3450 3153 3228 2886 
Q 3006 2619 2597 2516 
z
" transform="scale(0.015625)"/>
       </defs>
       <use xlink:href="#DejaVuSans-16"/>
       <use xlink:href="#DejaVuSans-13" transform="translate(63.625 0)"/>
      </g>
     </g>
    </g>
    <g id="xtick_5">
     <g id="line2d_9">
      <path d="M 335.987859 175.197656 
L 335.987859 48.96 
" clip-path="url(#p655a55c714)" style="fill: none; stroke: #b0b0b0; stroke-width: 0.8; stroke-linecap: square"/>
     </g>
     <g id="line2d_10">
      <g>
       <use xlink:href="#mb8375615f5" x="335.987859" y="175.197656" style="stroke: #000000; stroke-width: 0.8"/>
      </g>
     </g>
     <g id="text_5">
      <!-- 40 -->
      <g transform="translate(329.625359 189.795312) scale(0.1 -0.1)">
       <defs>
        <path id="DejaVuSans-17" d="M 2419 4116 
L 825 1625 
L 2419 1625 
L 2419 4116 
z
M 2253 4666 
L 3047 4666 
L 3047 1625 
L 3713 1625 
L 3713 1100 
L 3047 1100 
L 3047 0 
L 2419 0 
L 2419 1100 
L 313 1100 
L 313 1709 
L 2253 4666 
z
" transform="scale(0.015625)"/>
       </defs>
       <use xlink:href="#DejaVuSans-17"/>
       <use xlink:href="#DejaVuSans-13" transform="translate(63.625 0)"/>
      </g>
     </g>
    </g>
    <g id="xtick_6">
     <g id="line2d_11">
      <path d="M 404.400116 175.197656 
L 404.400116 48.96 
" clip-path="url(#p655a55c714)" style="fill: none; stroke: #b0b0b0; stroke-width: 0.8; stroke-linecap: square"/>
     </g>
     <g id="line2d_12">
      <g>
       <use xlink:href="#mb8375615f5" x="404.400116" y="175.197656" style="stroke: #000000; stroke-width: 0.8"/>
      </g>
     </g>
     <g id="text_6">
      <!-- 50 -->
      <g transform="translate(398.037616 189.795312) scale(0.1 -0.1)">
       <defs>
        <path id="DejaVuSans-18" d="M 691 4666 
L 3169 4666 
L 3169 4134 
L 1269 4134 
L 1269 2991 
Q 1406 3038 1543 3061 
Q 1681 3084 1819 3084 
Q 2600 3084 3056 2656 
Q 3513 2228 3513 1497 
Q 3513 744 3044 326 
Q 2575 -91 1722 -91 
Q 1428 -91 1123 -41 
Q 819 9 494 109 
L 494 744 
Q 775 591 1075 516 
Q 1375 441 1709 441 
Q 2250 441 2565 725 
Q 2881 1009 2881 1497 
Q 2881 1984 2565 2268 
Q 2250 2553 1709 2553 
Q 1456 2553 1204 2497 
Q 953 2441 691 2322 
L 691 4666 
z
" transform="scale(0.015625)"/>
       </defs>
       <use xlink:href="#DejaVuSans-18"/>
       <use xlink:href="#DejaVuSans-13" transform="translate(63.625 0)"/>
      </g>
     </g>
    </g>
    <g id="xtick_7">
     <g id="line2d_13">
      <path d="M 472.812373 175.197656 
L 472.812373 48.96 
" clip-path="url(#p655a55c714)" style="fill: none; stroke: #b0b0b0; stroke-width: 0.8; stroke-linecap: square"/>
     </g>
     <g id="line2d_14">
      <g>
       <use xlink:href="#mb8375615f5" x="472.812373" y="175.197656" style="stroke: #000000; stroke-width: 0.8"/>
      </g>
     </g>
     <g id="text_7">
      <!-- 60 -->
      <g transform="translate(466.449873 189.795312) scale(0.1 -0.1)">
       <defs>
        <path id="DejaVuSans-19" d="M 2113 2584 
Q 1688 2584 1439 2293 
Q 1191 2003 1191 1497 
Q 1191 994 1439 701 
Q 1688 409 2113 409 
Q 2538 409 2786 701 
Q 3034 994 3034 1497 
Q 3034 2003 2786 2293 
Q 2538 2584 2113 2584 
z
M 3366 4563 
L 3366 3988 
Q 3128 4100 2886 4159 
Q 2644 4219 2406 4219 
Q 1781 4219 1451 3797 
Q 1122 3375 1075 2522 
Q 1259 2794 1537 2939 
Q 1816 3084 2150 3084 
Q 2853 3084 3261 2657 
Q 3669 2231 3669 1497 
Q 3669 778 3244 343 
Q 2819 -91 2113 -91 
Q 1303 -91 875 529 
Q 447 1150 447 2328 
Q 447 3434 972 4092 
Q 1497 4750 2381 4750 
Q 2619 4750 2861 4703 
Q 3103 4656 3366 4563 
z
" transform="scale(0.015625)"/>
       </defs>
       <use xlink:href="#DejaVuSans-19"/>
       <use xlink:href="#DejaVuSans-13" transform="translate(63.625 0)"/>
      </g>
     </g>
    </g>
    <g id="text_8">
     <!-- t (s) -->
     <g transform="translate(257.684531 203.795312) scale(0.1 -0.1)">
      <defs>
       <path id="DejaVuSans-57" d="M 1172 4494 
L 1172 3500 
L 2356 3500 
L 2356 3053 
L 1172 3053 
L 1172 1153 
Q 1172 725 1289 603 
Q 1406 481 1766 481 
L 2356 481 
L 2356 0 
L 1766 0 
Q 1100 0 847 248 
Q 594 497 594 1153 
L 594 3053 
L 172 3053 
L 172 3500 
L 594 3500 
L 594 4494 
L 1172 4494 
z
" transform="scale(0.015625)"/>
       <path id="DejaVuSans-3" transform="scale(0.015625)"/>
       <path id="DejaVuSans-b" d="M 1984 4856 
Q 1566 4138 1362 3434 
Q 1159 2731 1159 2009 
Q 1159 1288 1364 580 
Q 1569 -128 1984 -844 
L 1484 -844 
Q 1016 -109 783 600 
Q 550 1309 550 2009 
Q 550 2706 781 3412 
Q 1013 4119 1484 4856 
L 1984 4856 
z
" transform="scale(0.015625)"/>
       <path id="DejaVuSans-56" d="M 2834 3397 
L 2834 2853 
Q 2591 2978 2328 3040 
Q 2066 3103 1784 3103 
Q 1356 3103 1142 2972 
Q 928 2841 928 2578 
Q 928 2378 1081 2264 
Q 1234 2150 1697 2047 
L 1894 2003 
Q 2506 1872 2764 1633 
Q 3022 1394 3022 966 
Q 3022 478 2636 193 
Q 2250 -91 1575 -91 
Q 1294 -91 989 -36 
Q 684 19 347 128 
L 347 722 
Q 666 556 975 473 
Q 1284 391 1588 391 
Q 1994 391 2212 530 
Q 2431 669 2431 922 
Q 2431 1156 2273 1281 
Q 2116 1406 1581 1522 
L 1381 1569 
Q 847 1681 609 1914 
Q 372 2147 372 2553 
Q 372 3047 722 3315 
Q 1072 3584 1716 3584 
Q 2034 3584 2315 3537 
Q 2597 3491 2834 3397 
z
" transform="scale(0.015625)"/>
       <path id="DejaVuSans-c" d="M 513 4856 
L 1013 4856 
Q 1481 4119 1714 3412 
Q 1947 2706 1947 2009 
Q 1947 1309 1714 600 
Q 1481 -109 1013 -844 
L 513 -844 
Q 928 -128 1133 580 
Q 1338 1288 1338 2009 
Q 1338 2731 1133 3434 
Q 928 4138 513 4856 
z
" transform="scale(0.015625)"/>
      </defs>
      <use xlink:href="#DejaVuSans-57"/>
      <use xlink:href="#DejaVuSans-3" transform="translate(39.203125 0)"/>
      <use xlink:href="#DejaVuSans-b" transform="translate(70.984375 0)"/>
      <use xlink:href="#DejaVuSans-56" transform="translate(110 0)"/>
      <use xlink:href="#DejaVuSans-c" transform="translate(162.09375 0)"/>
     </g>
    </g>
   </g>
   <g id="matplotlib.axis_2">
    <g id="ytick_1">
     <g id="line2d_15">
      <path d="M 42.28 155.914392 
L 493.2 155.914392 
" clip-path="url(#p655a55c714)" style="fill: none; stroke: #b0b0b0; stroke-width: 0.8; stroke-linecap: square"/>
     </g>
     <g id="line2d_16">
      <defs>
       <path id="me353390ffe" d="M 0 0 
L -3.5 0 
" style="stroke: #000000; stroke-width: 0.8"/>
      </defs>
      <g>
       <use xlink:href="#me353390ffe" x="42.28" y="155.914392" style="stroke: #000000; stroke-width: 0.8"/>
      </g>
     </g>
     <g id="text_9">
      <!-- −0.4 -->
      <g transform="translate(10.997188 159.71322) scale(0.1 -0.1)">
       <defs>
        <path id="DejaVuSans-c9c" d="M 678 2272 
L 4684 2272 
L 4684 1741 
L 678 1741 
L 678 2272 
z
" transform="scale(0.015625)"/>
        <path id="DejaVuSans-11" d="M 684 794 
L 1344 794 
L 1344 0 
L 684 0 
L 684 794 
z
" transform="scale(0.015625)"/>
       </defs>
       <use xlink:href="#DejaVuSans-c9c"/>
       <use xlink:href="#DejaVuSans-13" transform="translate(83.796875 0)"/>
       <use xlink:href="#DejaVuSans-11" transform="translate(147.421875 0)"/>
       <use xlink:href="#DejaVuSans-17" transform="translate(179.203125 0)"/>
      </g>
     </g>
    </g>
    <g id="ytick_2">
     <g id="line2d_17">
      <path d="M 42.28 133.99661 
L 493.2 133.99661 
" clip-path="url(#p655a55c714)" style="fill: none; stroke: #b0b0b0; stroke-width: 0.8; stroke-linecap: square"/>
     </g>
     <g id="line2d_18">
      <g>
       <use xlink:href="#me353390ffe" x="42.28" y="133.99661" style="stroke: #000000; stroke-width: 0.8"/>
      </g>
     </g>
     <g id="text_10">
      <!-- −0.2 -->
      <g transform="translate(10.997188 137.795438) scale(0.1 -0.1)">
       <use xlink:href="#DejaVuSans-c9c"/>
       <use xlink:href="#DejaVuSans-13" transform="translate(83.796875 0)"/>
       <use xlink:href="#DejaVuSans-11" transform="translate(147.421875 0)"/>
       <use xlink:href="#DejaVuSans-15" transform="translate(179.203125 0)"/>
      </g>
     </g>
    </g>
    <g id="ytick_3">
     <g id="line2d_19">
      <path d="M 42.28 112.078828 
L 493.2 112.078828 
" clip-path="url(#p655a55c714)" style="fill: none; stroke: #b0b0b0; stroke-width: 0.8; stroke-linecap: square"/>
     </g>
     <g id="line2d_20">
      <g>
       <use xlink:href="#me353390ffe" x="42.28" y="112.078828" style="stroke: #000000; stroke-width: 0.8"/>
      </g>
     </g>
     <g id="text_11">
      <!-- 0.0 -->
      <g transform="translate(19.376875 115.877656) scale(0.1 -0.1)">
       <use xlink:href="#DejaVuSans-13"/>
       <use xlink:href="#DejaVuSans-11" transform="translate(63.625 0)"/>
       <use xlink:href="#DejaVuSans-13" transform="translate(95.40625 0)"/>
      </g>
     </g>
    </g>
    <g id="ytick_4">
     <g id="line2d_21">
      <path d="M 42.28 90.161046 
L 493.2 90.161046 
" clip-path="url(#p655a55c714)" style="fill: none; stroke: #b0b0b0; stroke-width: 0.8; stroke-linecap: square"/>
     </g>
     <g id="line2d_22">
      <g>
       <use xlink:href="#me353390ffe" x="42.28" y="90.161046" style="stroke: #000000; stroke-width: 0.8"/>
      </g>
     </g>
     <g id="text_12">
      <!-- 0.2 -->
      <g transform="translate(19.376875 93.959874) scale(0.1 -0.1)">
       <use xlink:href="#DejaVuSans-13"/>
       <use xlink:href="#DejaVuSans-11" transform="translate(63.625 0)"/>
       <use xlink:href="#DejaVuSans-15" transform="translate(95.40625 0)"/>
      </g>
     </g>
    </g>
    <g id="ytick_5">
     <g id="line2d_23">
      <path d="M 42.28 68.243264 
L 493.2 68.243264 
" clip-path="url(#p655a55c714)" style="fill: none; stroke: #b0b0b0; stroke-width: 0.8; stroke-linecap: square"/>
     </g>
     <g id="line2d_24">
      <g>
       <use xlink:href="#me353390ffe" x="42.28" y="68.243264" style="stroke: #000000; stroke-width: 0.8"/>
      </g>
     </g>
     <g id="text_13">
      <!-- 0.4 -->
      <g transform="translate(19.376875 72.042093) scale(0.1 -0.1)">
       <use xlink:href="#DejaVuSans-13"/>
       <use xlink:href="#DejaVuSans-11" transform="translate(63.625 0)"/>
       <use xlink:href="#DejaVuSans-17" transform="translate(95.40625 0)"/>
      </g>
     </g>
    </g>
   </g>
   <g id="line2d_25">
    <path d="M 62.776364 55.027406 
L 63.254825 54.918293 
L 63.737479 82.508563 
L 64.213272 102.761764 
L 64.692362 107.210579 
L 65.171877 109.477861 
L 65.650701 110.21257 
L 66.129097 110.71724 
L 69.959965 112.534274 
L 71.876775 112.819324 
L 72.355624 112.558119 
L 73.790912 112.951311 
L 74.2717 112.889574 
L 74.751105 112.999113 
L 75.228558 112.903911 
L 75.708008 113.055071 
L 76.185136 112.970245 
L 76.664631 113.151184 
L 77.143687 112.535392 
L 77.622778 112.990368 
L 78.582217 113.562085 
L 79.057988 113.246916 
L 79.539335 113.363647 
L 80.019001 113.20448 
L 80.494511 113.52892 
L 80.976181 113.332257 
L 81.45554 113.506093 
L 81.933764 112.346983 
L 82.412035 112.905335 
L 82.891843 113.182036 
L 83.367813 112.934383 
L 83.847467 112.405968 
L 85.285802 112.678743 
L 85.765748 112.432607 
L 86.242112 112.397125 
L 86.722003 112.159451 
L 87.201637 112.400324 
L 88.160214 112.500091 
L 88.636407 112.316969 
L 89.595612 112.372803 
L 90.072819 112.542751 
L 90.553821 112.519108 
L 91.031532 112.705936 
L 91.511479 112.247887 
L 91.989948 112.859395 
L 92.467336 113.274396 
L 92.948123 113.943635 
L 93.424824 113.794732 
L 93.905664 114.490223 
L 94.383247 114.482893 
L 94.863925 115.619093 
L 95.342943 115.652959 
L 95.821211 117.008994 
L 96.29847 115.659092 
L 96.778248 117.575893 
L 97.258357 118.353088 
L 97.734577 120.778021 
L 98.214243 120.894018 
L 98.693526 122.38675 
L 99.172591 121.921827 
L 99.650829 123.139186 
L 100.131219 122.57585 
L 100.610311 123.203403 
L 101.089908 119.171341 
L 101.565775 120.756086 
L 102.045863 121.909281 
L 102.524815 123.875138 
L 103.003121 123.780922 
L 103.481322 124.497827 
L 104.441651 122.716666 
L 104.921061 121.197169 
L 105.397059 120.988675 
L 105.87612 119.379045 
L 106.835714 121.873827 
L 107.313804 124.554257 
L 107.791938 124.858467 
L 108.272084 126.58634 
L 108.749108 125.849195 
L 109.230165 127.523526 
L 109.707643 127.293456 
L 110.18843 129.885901 
L 110.665703 126.862064 
L 111.143981 131.163987 
L 111.625378 133.588947 
L 112.102585 137.460024 
L 112.583519 136.68757 
L 113.060073 136.66793 
L 114.018577 128.296264 
L 114.498965 127.623132 
L 114.977771 130.618403 
L 115.455254 127.876065 
L 115.934823 130.498556 
L 116.413423 131.343902 
L 116.890901 133.331583 
L 117.370925 132.364811 
L 117.849198 132.818811 
L 118.329595 131.046559 
L 118.806532 131.111123 
L 119.284269 129.304019 
L 119.763819 129.381852 
L 120.244039 124.298717 
L 120.724444 125.621142 
L 121.203077 126.509447 
L 121.679845 128.405586 
L 122.159521 127.998234 
L 122.639717 128.872002 
L 123.117223 128.010871 
L 123.596276 129.029575 
L 124.07393 128.498844 
L 124.554182 130.647884 
L 125.033733 127.125691 
L 125.511962 129.92284 
L 125.992071 130.868553 
L 126.46754 132.698452 
L 126.94724 131.065446 
L 127.427869 130.496427 
L 127.90665 127.694462 
L 128.38468 126.470772 
L 128.86558 123.775698 
L 129.34294 122.779819 
L 130.302112 117.679759 
L 130.777741 117.13716 
L 131.258945 118.542719 
L 131.737372 118.807918 
L 132.216954 119.468787 
L 132.697148 119.102861 
L 133.17457 119.964314 
L 133.651241 120.149808 
L 134.130912 122.307645 
L 134.610138 122.976963 
L 135.088881 123.282734 
L 135.566912 123.981711 
L 136.048122 126.262043 
L 136.526142 124.625928 
L 137.005418 123.452422 
L 137.483194 120.151113 
L 137.96287 118.623265 
L 138.441784 116.341414 
L 138.920828 115.498479 
L 139.876548 112.846466 
L 140.356039 112.369598 
L 140.836015 112.292781 
L 141.314748 112.034554 
L 141.794211 111.602983 
L 142.27378 111.425332 
L 142.75003 111.62958 
L 143.229751 112.117693 
L 143.709852 113.119268 
L 144.190334 113.356216 
L 144.668437 115.148368 
L 145.144546 114.912954 
L 146.102761 112.705638 
L 146.582059 112.938737 
L 147.060583 113.32268 
L 147.539541 114.108938 
L 148.017739 114.023787 
L 148.498645 114.382323 
L 148.978373 114.14649 
L 149.457313 113.610635 
L 149.933603 114.085473 
L 150.413805 115.985095 
L 150.893632 116.093711 
L 151.371486 116.777779 
L 151.850926 116.120209 
L 152.330513 117.117342 
L 152.80953 116.901885 
L 153.286485 118.119256 
L 153.766108 117.615062 
L 154.244765 115.718276 
L 155.201972 115.036743 
L 156.160974 111.430458 
L 156.638094 110.702132 
L 157.117583 111.047479 
L 157.596927 111.84891 
L 158.55608 116.869135 
L 159.034939 120.139393 
L 159.512748 125.436189 
L 159.992558 135.432065 
L 160.47027 139.843426 
L 160.948244 146.132371 
L 161.429028 145.557382 
L 161.905668 145.974579 
L 162.385562 141.23268 
L 162.863126 138.222246 
L 163.345146 133.248529 
L 163.823128 126.452496 
L 164.300049 123.9843 
L 164.781761 124.756208 
L 165.26053 124.571454 
L 165.738663 123.623435 
L 166.216755 120.883789 
L 167.174977 119.107831 
L 167.653041 120.881511 
L 168.1326 121.320596 
L 168.612384 121.250391 
L 169.089143 122.941058 
L 169.569588 128.311797 
L 170.047575 130.501937 
L 170.527638 135.004504 
L 171.005494 136.009248 
L 171.485377 140.510723 
L 171.961963 141.57976 
L 172.442437 146.975461 
L 172.921491 147.615759 
L 173.400751 144.586145 
L 173.879716 145.130786 
L 174.358237 149.810149 
L 174.837944 146.680011 
L 175.316224 142.497882 
L 175.795121 137.011986 
L 176.274028 139.813405 
L 176.752 140.190826 
L 177.230185 142.786009 
L 177.709564 140.729459 
L 178.190361 134.823956 
L 178.667017 133.531866 
L 179.145939 137.478698 
L 179.624618 137.076752 
L 180.103902 138.051437 
L 180.585075 134.868777 
L 181.062952 134.219485 
L 181.539816 131.054634 
L 182.020927 131.135393 
L 182.499899 129.000958 
L 182.979357 125.365353 
L 183.455472 125.216583 
L 183.934438 129.684975 
L 184.414903 130.661228 
L 184.894136 133.161274 
L 185.37312 131.74791 
L 185.849992 134.159143 
L 186.330324 139.721191 
L 186.808668 150.815111 
L 187.288176 146.285949 
L 187.768342 127.564605 
L 188.245252 121.558243 
L 188.724491 127.708961 
L 189.203052 127.634065 
L 189.684566 125.418997 
L 190.16267 118.751529 
L 190.640951 115.058049 
L 191.1207 113.089798 
L 191.598838 112.706319 
L 192.078192 111.967085 
L 193.03399 108.798042 
L 193.51277 105.670278 
L 193.99095 105.138932 
L 194.473283 102.384405 
L 194.949142 102.462917 
L 195.428626 98.549674 
L 195.909125 98.547977 
L 196.388183 94.154834 
L 196.865074 95.0825 
L 197.344234 99.916933 
L 197.824117 98.631152 
L 198.30243 91.464159 
L 198.781471 94.587508 
L 199.261165 101.011337 
L 199.738421 109.194806 
L 200.217459 108.897377 
L 200.696421 107.401126 
L 201.175875 105.272036 
L 201.656183 106.128144 
L 202.132384 108.055841 
L 202.611808 108.359915 
L 203.089496 105.892802 
L 203.569308 105.230874 
L 204.050129 102.117615 
L 204.528503 101.294728 
L 205.005029 96.806076 
L 205.486717 95.170666 
L 205.963704 88.679657 
L 206.443466 86.090785 
L 206.9204 85.622205 
L 207.401921 78.375466 
L 207.881252 61.633838 
L 208.357741 56.837038 
L 208.838028 54.730777 
L 209.317678 60.077555 
L 209.79661 58.384196 
L 210.275532 61.708495 
L 210.753642 61.498303 
L 211.230813 67.216532 
L 211.712192 78.938563 
L 212.189607 83.4962 
L 212.668789 82.749328 
L 213.148175 84.340298 
L 213.627136 75.321566 
L 214.106584 69.084891 
L 214.584028 59.499397 
L 215.062943 61.796702 
L 215.540962 60.919154 
L 216.022531 65.008216 
L 216.498421 73.742379 
L 216.978791 76.713695 
L 217.457673 76.31425 
L 217.937096 82.716252 
L 218.414819 87.321422 
L 218.894826 95.372047 
L 219.853753 103.739059 
L 220.332627 105.033614 
L 220.811116 106.739903 
L 221.29011 109.011755 
L 221.765831 109.938171 
L 222.246689 109.852884 
L 223.684882 110.757016 
L 224.163078 110.449926 
L 224.642533 109.653062 
L 225.599369 105.830987 
L 226.555737 98.831191 
L 227.03516 91.826223 
L 227.51553 87.135304 
L 227.994303 81.02047 
L 228.471629 85.099708 
L 228.950429 87.916436 
L 229.430206 95.073151 
L 229.908441 97.887439 
L 230.867079 107.006365 
L 231.345946 108.067782 
L 231.823662 106.657668 
L 232.302258 107.585484 
L 232.781724 109.561872 
L 233.74091 114.740427 
L 234.217751 116.382109 
L 234.696253 118.595646 
L 235.17624 119.84942 
L 235.653668 119.670736 
L 236.135261 120.866632 
L 236.612386 127.293323 
L 237.091275 129.755338 
L 237.570234 134.226328 
L 238.05051 133.222508 
L 238.528323 134.072026 
L 239.007774 131.106206 
L 239.487041 129.391689 
L 240.442884 119.763128 
L 240.921791 128.809616 
L 241.401926 147.525376 
L 241.881827 154.510613 
L 242.357983 157.162023 
L 243.31764 139.99575 
L 244.275597 114.976457 
L 245.234928 98.666813 
L 245.712217 93.081494 
L 246.191771 84.528881 
L 246.671146 80.192581 
L 247.147361 71.233475 
L 247.628724 69.006424 
L 248.107504 62.952538 
L 248.586786 66.052568 
L 249.064631 67.518592 
L 249.544033 77.538041 
L 250.023379 96.020492 
L 250.501517 103.198776 
L 250.979364 96.203629 
L 251.938543 69.552724 
L 252.417246 72.309735 
L 252.894747 76.398223 
L 253.373384 88.712016 
L 254.809091 109.642004 
L 255.288417 110.654795 
L 255.767445 110.220883 
L 256.247997 111.469608 
L 257.683121 121.1383 
L 258.161887 121.747961 
L 258.641124 123.0497 
L 259.120686 121.959987 
L 259.599656 118.190364 
L 260.557759 114.135888 
L 261.035879 109.363002 
L 261.515312 110.597951 
L 262.472777 117.900574 
L 262.951412 117.425623 
L 263.430873 115.619347 
L 264.388081 111.233948 
L 265.826476 109.030737 
L 266.30314 107.476333 
L 266.782111 106.541423 
L 267.263045 104.651565 
L 267.740703 104.077719 
L 268.218726 102.182464 
L 268.697295 102.2079 
L 269.177836 103.875991 
L 269.657103 103.557072 
L 270.135597 100.395695 
L 270.615271 100.758575 
L 271.0936 99.974707 
L 271.572444 96.208278 
L 272.049859 79.408591 
L 272.52999 78.671227 
L 273.008166 83.892427 
L 273.967547 111.257702 
L 274.445822 112.922396 
L 274.924368 109.896619 
L 275.404149 109.991079 
L 275.883053 117.993533 
L 276.359579 128.409284 
L 277.798711 169.456212 
L 278.274967 167.44214 
L 278.754969 153.245922 
L 279.234559 155.696523 
L 279.713497 169.458757 
L 283.066325 169.423455 
L 283.542915 156.192502 
L 284.022695 155.813284 
L 284.502301 167.212892 
L 284.981879 157.976254 
L 285.938945 113.292839 
L 286.418215 101.595998 
L 286.894933 101.480999 
L 287.374931 102.122552 
L 287.853366 102.388858 
L 288.334188 97.744261 
L 288.810318 91.44512 
L 289.288894 81.273616 
L 289.768859 79.399037 
L 290.247995 76.419337 
L 291.207732 91.75643 
L 291.683513 106.854052 
L 292.162835 106.587527 
L 292.642831 93.507982 
L 293.122718 83.978077 
L 293.599021 82.813493 
L 294.078852 83.078897 
L 294.558305 92.966976 
L 295.51509 106.917541 
L 295.995122 108.900702 
L 296.951813 111.083737 
L 297.432546 112.505785 
L 297.91182 114.939634 
L 298.3912 118.536515 
L 298.867455 124.966608 
L 299.346293 129.594251 
L 299.82524 138.864744 
L 300.304218 143.250253 
L 300.78459 162.230213 
L 301.263691 166.516073 
L 301.741308 167.035255 
L 302.700308 147.026531 
L 303.178383 155.904702 
L 303.656369 169.456685 
L 304.613927 169.4541 
L 305.094534 168.380877 
L 305.573127 169.083146 
L 306.051214 165.625595 
L 306.53169 169.059778 
L 307.008057 163.089765 
L 307.488042 150.181673 
L 307.967167 154.235168 
L 308.446285 166.973167 
L 308.924812 158.150385 
L 309.882116 116.24982 
L 310.360527 107.960703 
L 310.838619 110.44602 
L 311.320764 115.950817 
L 311.796801 117.18676 
L 312.277667 113.438485 
L 312.754984 110.894415 
L 313.712874 102.854721 
L 314.191104 89.206969 
L 314.671558 66.223841 
L 315.149118 54.698572 
L 316.10751 62.081658 
L 316.587663 71.067066 
L 317.065459 75.860661 
L 317.544035 72.64673 
L 318.023269 57.164112 
L 318.502228 56.536736 
L 318.98214 56.632519 
L 319.461319 63.874082 
L 319.937745 58.130524 
L 320.419654 57.921353 
L 320.89853 54.70531 
L 321.376845 55.047525 
L 321.856409 67.375071 
L 322.334545 67.564134 
L 322.810845 55.536832 
L 323.29036 55.342679 
L 323.769785 54.860661 
L 324.249707 60.062129 
L 324.728012 66.830259 
L 325.68695 90.433599 
L 326.643193 109.787524 
L 327.121113 114.291071 
L 327.600656 116.6851 
L 328.560493 118.086796 
L 329.040009 117.700676 
L 329.516434 117.663924 
L 330.473978 115.278864 
L 330.953029 112.985706 
L 332.869824 95.232818 
L 333.347392 93.490766 
L 333.826595 96.237129 
L 334.305396 97.612932 
L 334.783605 99.602989 
L 335.26319 99.550059 
L 335.741207 100.747133 
L 336.220106 103.040772 
L 336.699766 103.45889 
L 337.178063 101.833564 
L 337.656875 101.973649 
L 338.136584 101.545213 
L 338.616431 102.719009 
L 339.096152 102.717121 
L 339.572703 103.743107 
L 340.052004 103.440137 
L 340.531224 104.169378 
L 341.011525 105.550078 
L 341.487655 105.480553 
L 341.967649 103.698645 
L 342.447276 103.423964 
L 342.92479 102.601792 
L 343.404894 103.213932 
L 343.884646 102.673679 
L 344.361305 103.209903 
L 344.841051 101.745977 
L 345.318849 101.896456 
L 345.798444 103.24827 
L 346.278302 102.346195 
L 347.715253 79.267435 
L 348.673556 91.142031 
L 349.152219 100.346159 
L 350.588701 108.683436 
L 351.066946 109.237363 
L 351.546865 109.028013 
L 352.025199 110.489898 
L 352.503795 113.260014 
L 352.981916 114.978886 
L 353.459967 117.45109 
L 353.94186 117.820082 
L 354.419667 120.868779 
L 354.897881 121.518882 
L 355.375762 121.625556 
L 355.856425 126.250195 
L 356.33447 136.928192 
L 356.812933 140.927197 
L 357.293609 146.601013 
L 357.771973 144.41831 
L 358.248826 149.556913 
L 358.728444 146.722097 
L 359.206535 146.545483 
L 359.687062 137.032448 
L 360.164769 117.669435 
L 360.644204 116.507305 
L 361.123293 130.654146 
L 362.080042 147.808053 
L 362.560389 148.040911 
L 363.040124 151.182418 
L 363.518555 149.070654 
L 363.994903 151.221552 
L 364.474506 148.906333 
L 364.953968 142.238901 
L 365.433541 140.91315 
L 365.913069 144.201762 
L 366.3893 142.845671 
L 366.869185 142.235097 
L 367.348189 138.264198 
L 367.827292 135.817672 
L 368.306989 131.940577 
L 368.786906 129.675607 
L 369.262828 126.819319 
L 369.743434 122.858328 
L 370.223467 121.299148 
L 370.699428 121.413534 
L 371.178983 121.36599 
L 372.138535 123.400689 
L 373.094098 128.27805 
L 373.574241 133.149705 
L 374.05423 136.118539 
L 374.533866 133.902463 
L 375.010507 133.47043 
L 375.49004 136.303037 
L 375.969393 137.029659 
L 376.448822 139.459282 
L 376.925411 139.325651 
L 377.406047 140.824165 
L 377.885251 139.834378 
L 378.362632 140.375055 
L 378.842712 138.60021 
L 379.320772 134.54959 
L 379.799372 132.973719 
L 380.277625 133.753835 
L 380.756339 132.624192 
L 381.235591 132.542827 
L 381.716739 130.755153 
L 382.193356 130.227044 
L 382.673293 128.468244 
L 383.153222 128.156548 
L 383.630873 126.82286 
L 384.109354 124.821584 
L 384.587527 124.599985 
L 385.066795 126.427204 
L 385.54551 126.908725 
L 386.025835 128.47371 
L 386.504447 128.535497 
L 386.982822 129.969927 
L 387.461383 129.870119 
L 387.942391 130.475351 
L 388.421497 129.128192 
L 388.900565 127.067026 
L 389.376837 127.178704 
L 389.856033 129.833397 
L 390.334134 130.616893 
L 390.813621 132.526273 
L 391.291484 132.162543 
L 391.771036 133.021599 
L 392.250621 131.698272 
L 392.730541 131.59546 
L 393.210051 129.526319 
L 393.686073 125.319508 
L 394.166099 123.533949 
L 394.645784 124.372031 
L 395.122469 123.028383 
L 395.602088 122.814788 
L 396.082328 120.737036 
L 396.56129 120.270289 
L 397.041049 118.689872 
L 397.517879 118.90366 
L 397.997896 117.979267 
L 398.476615 116.451492 
L 398.955199 116.661306 
L 399.434608 119.086581 
L 399.913222 119.451202 
L 400.392157 121.22491 
L 400.872658 121.084265 
L 401.350694 122.50893 
L 401.829105 123.284047 
L 402.307191 126.042751 
L 402.788019 124.224245 
L 403.263816 118.919498 
L 403.744606 117.834895 
L 404.222607 121.135797 
L 404.702171 120.95754 
L 405.181834 120.40945 
L 405.658362 117.317412 
L 406.616824 114.506411 
L 407.097388 114.448067 
L 407.573829 113.839366 
L 408.05417 112.606553 
L 408.533262 112.182392 
L 409.01335 112.226417 
L 409.489077 112.08754 
L 409.96871 111.579231 
L 410.92606 110.981736 
L 411.405537 111.151974 
L 411.885875 111.162171 
L 412.36585 111.415811 
L 412.842436 111.842301 
L 413.801843 112.127632 
L 414.27807 112.446984 
L 414.759152 113.217977 
L 415.238633 113.45664 
L 415.716361 113.447651 
L 416.197124 112.97719 
L 416.67586 113.062033 
L 417.152259 112.994982 
L 417.632866 112.668973 
L 418.110817 112.700659 
L 418.590617 113.119209 
L 419.546798 112.76777 
L 420.026546 112.46833 
L 420.983916 112.49396 
L 421.463793 112.491232 
L 422.422454 112.114069 
L 423.858708 112.190823 
L 424.814547 111.97353 
L 427.209003 111.969586 
L 428.168697 111.952314 
L 428.646086 112.135372 
L 429.125679 112.16506 
L 430.081325 111.961871 
L 431.99908 112.044796 
L 434.871397 112.047243 
L 444.448611 112.068859 
L 463.605481 112.221972 
L 465.999475 112.479288 
L 467.914009 112.870952 
L 468.395535 113.218292 
L 469.831913 112.701404 
L 471.265452 112.074011 
L 472.224929 111.858798 
L 472.703636 111.835866 
L 472.703636 111.835866 
" clip-path="url(#p655a55c714)" style="fill: none; stroke: #1f77b4; stroke-width: 1.5; stroke-linecap: square"/>
   </g>
   <g id="line2d_26">
    <path d="M 62.776364 54.698075 
L 63.254825 54.698075 
L 63.737479 83.252147 
L 64.213272 103.535556 
L 64.692362 107.986887 
L 65.171877 110.325873 
L 65.650701 111.101407 
L 66.129097 111.629829 
L 67.088398 112.016879 
L 69.00211 112.249489 
L 73.790912 112.607082 
L 75.228558 112.845102 
L 77.143687 113.497114 
L 78.582217 114.521033 
L 79.057988 114.916737 
L 80.976181 117.217573 
L 81.45554 117.652392 
L 81.933764 117.689201 
L 82.412035 117.146156 
L 82.891843 116.206499 
L 83.367813 114.539889 
L 84.327462 112.954089 
L 85.765748 111.528783 
L 86.242112 111.124013 
L 87.677961 110.491801 
L 88.160214 110.435087 
L 88.636407 110.494881 
L 89.595612 111.089941 
L 90.553821 112.539367 
L 91.511479 115.049762 
L 94.383247 126.34147 
L 94.863925 127.94001 
L 95.821211 129.436057 
L 96.29847 129.551749 
L 96.778248 129.275163 
L 97.258357 128.804081 
L 100.610311 122.826922 
L 101.565775 122.004028 
L 102.045863 121.865453 
L 102.524815 121.910332 
L 103.003121 122.140412 
L 103.481322 122.763343 
L 103.962256 123.154273 
L 104.921061 122.206828 
L 105.397059 121.789792 
L 105.87612 121.657539 
L 106.357094 121.75572 
L 106.835714 122.038004 
L 107.791938 123.390496 
L 108.749108 125.769304 
L 109.707643 129.309555 
L 112.102585 141.643684 
L 112.583519 142.675882 
L 113.060073 142.295638 
L 113.537987 140.187229 
L 114.018577 134.351756 
L 114.498965 134.610774 
L 115.934823 135.802357 
L 116.890901 136.298236 
L 117.370925 136.367166 
L 118.329595 136.120998 
L 119.284269 135.323722 
L 121.679845 132.209547 
L 122.639717 131.460133 
L 123.117223 131.353854 
L 123.596276 131.468851 
L 124.07393 131.774709 
L 125.511962 135.442894 
L 125.992071 135.929526 
L 126.46754 136.045632 
L 126.94724 135.73238 
L 127.90665 133.79181 
L 131.258945 122.154308 
L 132.216954 120.450838 
L 132.697148 120.157582 
L 133.17457 120.224321 
L 133.651241 120.642714 
L 134.610138 122.969539 
L 135.088881 126.092728 
L 135.566912 127.423239 
L 136.048122 128.05544 
L 136.526142 127.827607 
L 137.483194 125.68327 
L 138.920828 120.326706 
L 139.400321 118.828148 
L 139.876548 116.933245 
L 141.794211 111.972558 
L 142.27378 111.394588 
L 142.75003 110.996128 
L 143.229751 111.027215 
L 143.709852 111.592101 
L 144.190334 112.467267 
L 144.668437 114.313744 
L 145.144546 114.571849 
L 145.623631 114.013671 
L 146.582059 113.501496 
L 147.060583 113.453851 
L 148.017739 113.646458 
L 148.978373 114.169009 
L 149.933603 114.997764 
L 150.893632 116.193963 
L 152.80953 119.83683 
L 153.286485 120.906328 
L 153.766108 121.459941 
L 154.244765 121.491402 
L 154.724329 120.678956 
L 156.160974 112.855599 
L 156.638094 111.727649 
L 157.117583 111.135238 
L 157.596927 111.449579 
L 158.076669 113.041628 
L 158.55608 115.214686 
L 159.512748 123.520794 
L 159.992558 129.668475 
L 161.429028 142.719706 
L 161.905668 144.797952 
L 162.385562 144.929951 
L 162.863126 143.533162 
L 163.345146 141.677634 
L 163.823128 138.724532 
L 164.781761 134.002657 
L 165.26053 132.676993 
L 166.216755 126.639827 
L 166.694868 124.156878 
L 167.174977 123.157366 
L 167.653041 122.868042 
L 168.1326 123.317109 
L 169.089143 126.135669 
L 170.047575 131.052111 
L 171.961963 146.23295 
L 172.442437 151.003837 
L 173.400751 157.103923 
L 173.879716 157.988549 
L 174.358237 156.875399 
L 174.837944 154.116814 
L 175.316224 147.785013 
L 175.795121 143.72833 
L 176.274028 144.662751 
L 177.230185 145.96685 
L 177.709564 146.296108 
L 178.190361 146.448723 
L 178.667017 146.325337 
L 179.624618 145.224456 
L 180.585075 143.127795 
L 182.020927 138.700757 
L 182.499899 137.433811 
L 182.979357 135.794394 
L 184.894136 131.102686 
L 185.849992 129.612622 
L 186.808668 144.726991 
L 187.288176 147.458722 
L 187.768342 147.909659 
L 188.245252 146.272086 
L 190.16267 129.841899 
L 190.640951 125.420451 
L 192.554322 113.781838 
L 193.03399 111.67001 
L 194.949142 100.349038 
L 196.865074 84.408277 
L 197.344234 80.859865 
L 197.824117 79.613106 
L 198.30243 80.800896 
L 198.781471 84.358412 
L 199.738421 100.277742 
L 200.217459 103.778878 
L 201.175875 107.617851 
L 201.656183 108.400315 
L 202.132384 108.725164 
L 202.611808 108.479714 
L 203.569308 106.448663 
L 204.528503 102.47979 
L 205.486717 96.429603 
L 206.9204 82.081091 
L 207.401921 77.235681 
L 207.881252 70.525617 
L 209.317678 56.600666 
L 209.79661 54.698075 
L 210.275532 54.698075 
L 210.753642 55.566574 
L 211.230813 58.224484 
L 213.148175 76.86045 
L 213.627136 72.257781 
L 215.062943 55.44788 
L 215.540962 54.698075 
L 216.498421 54.698075 
L 216.978791 55.056548 
L 218.894826 78.51347 
L 219.373793 85.071533 
L 220.811116 97.749812 
L 221.29011 101.456713 
L 222.726411 108.180951 
L 223.203212 109.979199 
L 224.163078 111.733283 
L 224.642533 111.791891 
L 225.119138 111.014438 
L 225.599369 109.661675 
L 226.555737 103.526266 
L 227.51553 92.160441 
L 227.994303 87.270697 
L 228.471629 85.221741 
L 228.950429 84.41423 
L 229.430206 85.030746 
L 230.386682 89.287208 
L 231.823662 99.114733 
L 232.302258 101.803721 
L 232.781724 105.258584 
L 233.261982 107.754181 
L 233.74091 110.987699 
L 234.217751 113.375273 
L 234.696253 116.558174 
L 235.17624 118.971601 
L 235.653668 122.239724 
L 236.135261 124.712629 
L 236.612386 127.960081 
L 238.05051 134.374763 
L 238.528323 135.298839 
L 239.007774 134.973737 
L 239.487041 132.874754 
L 239.965745 129.899741 
L 240.442884 123.952233 
L 240.921791 130.427199 
L 241.401926 143.11036 
L 241.881827 149.48599 
L 242.357983 153.748498 
L 242.837949 153.732808 
L 243.31764 149.787762 
L 243.797422 144.437712 
L 245.712217 106.985208 
L 246.191771 94.81972 
L 246.671146 85.606534 
L 247.147361 73.872495 
L 248.107504 59.198448 
L 248.586786 56.970047 
L 249.064631 58.571211 
L 249.544033 62.903021 
L 250.501517 79.891904 
L 250.979364 86.0202 
L 251.938543 72.533474 
L 252.417246 70.708031 
L 252.894747 71.662339 
L 253.373384 74.459661 
L 255.767445 101.886705 
L 258.161887 120.883726 
L 258.641124 123.940174 
L 259.120686 125.481149 
L 259.599656 125.974476 
L 260.078435 124.719839 
L 260.557759 120.234884 
L 261.035879 114.466704 
L 261.515312 114.040323 
L 262.472777 116.483396 
L 262.951412 116.74971 
L 263.430873 116.515601 
L 263.909352 115.970464 
L 264.868593 113.775507 
L 267.740703 104.114645 
L 268.218726 102.550442 
L 269.177836 100.810034 
L 269.657103 100.619902 
L 270.135597 101.044103 
L 270.615271 101.951598 
L 271.0936 104.05807 
L 271.572444 100.25997 
L 272.049859 84.841472 
L 272.52999 79.026476 
L 273.008166 77.702098 
L 273.487312 80.27939 
L 275.404149 105.127144 
L 277.318608 135.840427 
L 278.274967 160.82413 
L 278.754969 169.459581 
L 280.671619 169.459581 
L 281.147709 163.926903 
L 281.627984 147.041792 
L 282.108801 159.925529 
L 282.587509 169.459581 
L 284.502301 169.459581 
L 284.981879 167.398644 
L 285.459085 151.151882 
L 286.894933 120.708183 
L 287.374931 111.941791 
L 287.853366 105.719733 
L 289.288894 81.783487 
L 290.247995 71.154648 
L 290.728782 71.556416 
L 291.207732 79.605387 
L 291.683513 92.420912 
L 292.162835 97.418814 
L 293.122718 82.318378 
L 293.599021 80.173927 
L 294.078852 80.610624 
L 294.558305 82.792401 
L 296.951813 104.73788 
L 297.432546 108.132422 
L 299.346293 125.629998 
L 300.304218 138.997989 
L 301.741308 168.365076 
L 302.22235 169.459581 
L 304.135312 169.459581 
L 305.573127 140.676309 
L 306.53169 169.459581 
L 308.924812 169.459581 
L 309.882116 146.044623 
L 310.360527 134.99397 
L 311.320764 122.446508 
L 313.712874 103.339027 
L 314.671558 90.143668 
L 316.10751 54.698075 
L 318.502228 54.698075 
L 319.461319 79.307853 
L 321.376845 56.329209 
L 321.856409 54.698075 
L 324.249707 54.698075 
L 324.728012 58.768857 
L 325.205876 65.291652 
L 325.68695 74.207589 
L 327.600656 99.633733 
L 329.040009 110.471149 
L 329.516434 113.163444 
L 329.995955 114.489985 
L 330.473978 115.176215 
L 330.953029 114.732915 
L 331.434058 112.615676 
L 331.910814 109.716555 
L 332.869824 98.199757 
L 333.347392 95.445518 
L 333.826595 95.067335 
L 334.305396 94.87517 
L 334.783605 94.929529 
L 335.741207 95.54412 
L 339.572703 99.827274 
L 340.052004 100.300235 
L 341.967649 101.440491 
L 343.404894 101.814035 
L 344.841051 101.932651 
L 346.278302 101.949045 
L 346.756711 98.93844 
L 347.715253 85.328043 
L 348.194863 83.373299 
L 348.673556 83.651155 
L 349.152219 85.443978 
L 351.546865 103.177426 
L 352.025199 105.720218 
L 352.503795 108.882721 
L 352.981916 111.166533 
L 354.897881 123.364749 
L 356.33447 139.043121 
L 356.812933 144.466286 
L 357.293609 151.736216 
L 358.248826 160.594427 
L 358.728444 161.129983 
L 359.206535 157.601126 
L 359.687062 151.509753 
L 360.164769 138.659654 
L 360.644204 135.380096 
L 362.560389 143.550549 
L 363.040124 146.193849 
L 364.474506 151.39292 
L 364.953968 152.333462 
L 365.433541 152.458897 
L 365.913069 151.805214 
L 366.3893 150.713689 
L 367.348189 146.472919 
L 368.786906 137.277759 
L 370.699428 127.717627 
L 371.178983 126.72026 
L 371.65849 126.248632 
L 372.138535 126.64463 
L 372.618171 128.334832 
L 373.094098 130.583501 
L 374.05423 139.467986 
L 374.533866 140.878885 
L 375.969393 143.793438 
L 376.448822 144.571775 
L 376.925411 144.967514 
L 377.406047 145.220469 
L 377.885251 145.195784 
L 378.842712 144.434775 
L 379.799372 142.810678 
L 383.153222 134.484333 
L 384.587527 132.249814 
L 385.066795 131.764818 
L 385.54551 131.574723 
L 386.025835 131.562923 
L 386.504447 131.738664 
L 387.461383 132.756169 
L 387.942391 132.772404 
L 388.421497 132.486991 
L 388.900565 132.59927 
L 389.376837 132.945654 
L 390.813621 134.954202 
L 391.771036 135.802821 
L 392.250621 135.851934 
L 392.730541 135.541255 
L 393.210051 135.010899 
L 394.166099 132.861797 
L 396.56129 124.859816 
L 397.997896 121.551356 
L 398.476615 120.713315 
L 399.434608 119.956182 
L 399.913222 119.911903 
L 400.392157 120.124854 
L 400.872658 120.502101 
L 401.350694 121.330668 
L 402.307191 125.658387 
L 402.788019 126.364802 
L 403.263816 126.472767 
L 403.744606 126.06811 
L 404.702171 124.109436 
L 406.138283 120.029659 
L 406.616824 118.944449 
L 407.097388 117.577681 
L 409.489077 112.961655 
L 409.96871 112.149175 
L 411.405537 110.611952 
L 411.885875 110.242053 
L 412.36585 110.084699 
L 412.842436 110.069242 
L 413.32207 110.230304 
L 414.27807 111.313215 
L 415.238633 113.304035 
L 415.716361 113.721358 
L 416.67586 113.954773 
L 417.632866 113.787668 
L 419.070125 113.327878 
L 420.506769 112.845774 
L 424.814547 111.706092 
L 426.253471 111.241862 
L 427.209003 111.118025 
L 427.68928 111.196269 
L 429.125679 112.078575 
L 462.646623 112.169733 
L 465.52257 112.317544 
L 466.956953 112.527584 
L 467.914009 112.887685 
L 468.395535 113.344437 
L 472.703636 113.344437 
L 472.703636 113.344437 
" clip-path="url(#p655a55c714)" style="fill: none; stroke-dasharray: 9.6,2.4,1.5,2.4; stroke-dashoffset: 0; stroke: #ff7f0e; stroke-width: 1.5"/>
   </g>
   <g id="line2d_27">
    <path d="M 42.28 169.459581 
L 493.2 169.459581 
" clip-path="url(#p655a55c714)" style="fill: none; stroke-dasharray: 3.7,1.6; stroke-dashoffset: 0; stroke: #ff0000"/>
   </g>
   <g id="line2d_28">
    <path d="M 42.28 54.698075 
L 493.2 54.698075 
" clip-path="url(#p655a55c714)" style="fill: none; stroke-dasharray: 3.7,1.6; stroke-dashoffset: 0; stroke: #ff0000"/>
   </g>
   <g id="patch_3">
    <path d="M 42.28 175.197656 
L 42.28 48.96 
" style="fill: none; stroke: #000000; stroke-width: 0.8; stroke-linejoin: miter; stroke-linecap: square"/>
   </g>
   <g id="patch_4">
    <path d="M 493.2 175.197656 
L 493.2 48.96 
" style="fill: none; stroke: #000000; stroke-width: 0.8; stroke-linejoin: miter; stroke-linecap: square"/>
   </g>
   <g id="patch_5">
    <path d="M 42.28 175.197656 
L 493.2 175.197656 
" style="fill: none; stroke: #000000; stroke-width: 0.8; stroke-linejoin: miter; stroke-linecap: square"/>
   </g>
   <g id="patch_6">
    <path d="M 42.28 48.96 
L 493.2 48.96 
" style="fill: none; stroke: #000000; stroke-width: 0.8; stroke-linejoin: miter; stroke-linecap: square"/>
   </g>
   <g id="text_14">
    <!-- $\delta$ (rad) -->
    <g transform="translate(247.52 42.96) scale(0.12 -0.12)">
     <defs>
      <path id="DejaVuSans-Oblique-348" d="M 3472 4053 
Q 3197 4272 2450 4272 
Q 1659 4272 1588 3906 
Q 1531 3619 2328 3469 
Q 2953 3353 3253 3003 
Q 3616 2581 3447 1716 
Q 3284 888 2763 400 
Q 2238 -91 1488 -91 
Q 741 -91 406 400 
Q 72 888 241 1747 
Q 363 2384 891 2900 
Q 1097 3100 1353 3213 
Q 913 3459 1000 3900 
Q 1166 4750 2544 4750 
Q 3234 4750 3566 4531 
L 3472 4053 
z
M 1753 3056 
Q 1525 2966 1306 2738 
Q 969 2384 847 1747 
Q 722 1113 919 756 
Q 1119 397 1584 397 
Q 2044 397 2381 759 
Q 2722 1122 2838 1716 
Q 2956 2338 2731 2638 
Q 2491 2959 2103 2994 
Q 1906 3013 1753 3056 
z
" transform="scale(0.015625)"/>
      <path id="DejaVuSans-55" d="M 2631 2963 
Q 2534 3019 2420 3045 
Q 2306 3072 2169 3072 
Q 1681 3072 1420 2755 
Q 1159 2438 1159 1844 
L 1159 0 
L 581 0 
L 581 3500 
L 1159 3500 
L 1159 2956 
Q 1341 3275 1631 3429 
Q 1922 3584 2338 3584 
Q 2397 3584 2469 3576 
Q 2541 3569 2628 3553 
L 2631 2963 
z
" transform="scale(0.015625)"/>
      <path id="DejaVuSans-44" d="M 2194 1759 
Q 1497 1759 1228 1600 
Q 959 1441 959 1056 
Q 959 750 1161 570 
Q 1363 391 1709 391 
Q 2188 391 2477 730 
Q 2766 1069 2766 1631 
L 2766 1759 
L 2194 1759 
z
M 3341 1997 
L 3341 0 
L 2766 0 
L 2766 531 
Q 2569 213 2275 61 
Q 1981 -91 1556 -91 
Q 1019 -91 701 211 
Q 384 513 384 1019 
Q 384 1609 779 1909 
Q 1175 2209 1959 2209 
L 2766 2209 
L 2766 2266 
Q 2766 2663 2505 2880 
Q 2244 3097 1772 3097 
Q 1472 3097 1187 3025 
Q 903 2953 641 2809 
L 641 3341 
Q 956 3463 1253 3523 
Q 1550 3584 1831 3584 
Q 2591 3584 2966 3190 
Q 3341 2797 3341 1997 
z
" transform="scale(0.015625)"/>
      <path id="DejaVuSans-47" d="M 2906 2969 
L 2906 4863 
L 3481 4863 
L 3481 0 
L 2906 0 
L 2906 525 
Q 2725 213 2448 61 
Q 2172 -91 1784 -91 
Q 1150 -91 751 415 
Q 353 922 353 1747 
Q 353 2572 751 3078 
Q 1150 3584 1784 3584 
Q 2172 3584 2448 3432 
Q 2725 3281 2906 2969 
z
M 947 1747 
Q 947 1113 1208 752 
Q 1469 391 1925 391 
Q 2381 391 2643 752 
Q 2906 1113 2906 1747 
Q 2906 2381 2643 2742 
Q 2381 3103 1925 3103 
Q 1469 3103 1208 2742 
Q 947 2381 947 1747 
z
" transform="scale(0.015625)"/>
     </defs>
     <use xlink:href="#DejaVuSans-Oblique-348" transform="translate(0 0.015625)"/>
     <use xlink:href="#DejaVuSans-3" transform="translate(61.181641 0.015625)"/>
     <use xlink:href="#DejaVuSans-b" transform="translate(92.96875 0.015625)"/>
     <use xlink:href="#DejaVuSans-55" transform="translate(131.982422 0.015625)"/>
     <use xlink:href="#DejaVuSans-44" transform="translate(173.095703 0.015625)"/>
     <use xlink:href="#DejaVuSans-47" transform="translate(234.375 0.015625)"/>
     <use xlink:href="#DejaVuSans-c" transform="translate(297.851562 0.015625)"/>
    </g>
   </g>
   <g id="legend_1">
    <g id="patch_7">
     <path d="M 432.6 86.961562 
L 486.2 86.961562 
Q 488.2 86.961562 488.2 84.961562 
L 488.2 55.96 
Q 488.2 53.96 486.2 53.96 
L 432.6 53.96 
Q 430.6 53.96 430.6 55.96 
L 430.6 84.961562 
Q 430.6 86.961562 432.6 86.961562 
z
" style="fill: #ffffff; opacity: 0.8; stroke: #cccccc; stroke-linejoin: miter"/>
    </g>
    <g id="line2d_29">
     <path d="M 434.6 62.058437 
L 444.6 62.058437 
L 454.6 62.058437 
" style="fill: none; stroke: #1f77b4; stroke-width: 1.5; stroke-linecap: square"/>
    </g>
    <g id="text_15">
     <!-- $\delta_{cmd}$ -->
     <g transform="translate(462.6 65.558437) scale(0.1 -0.1)">
      <defs>
       <path id="DejaVuSans-Oblique-46" d="M 3431 3366 
L 3316 2797 
Q 3109 2947 2876 3022 
Q 2644 3097 2394 3097 
Q 2119 3097 1870 3000 
Q 1622 2903 1453 2725 
Q 1184 2453 1037 2087 
Q 891 1722 891 1331 
Q 891 859 1127 628 
Q 1363 397 1844 397 
Q 2081 397 2348 469 
Q 2616 541 2906 684 
L 2797 116 
Q 2547 13 2283 -39 
Q 2019 -91 1741 -91 
Q 1044 -91 669 257 
Q 294 606 294 1253 
Q 294 1797 489 2255 
Q 684 2713 1069 3078 
Q 1331 3328 1684 3456 
Q 2038 3584 2456 3584 
Q 2700 3584 2940 3529 
Q 3181 3475 3431 3366 
z
" transform="scale(0.015625)"/>
       <path id="DejaVuSans-Oblique-50" d="M 5747 2113 
L 5338 0 
L 4763 0 
L 5166 2094 
Q 5191 2228 5203 2325 
Q 5216 2422 5216 2491 
Q 5216 2772 5059 2928 
Q 4903 3084 4622 3084 
Q 4203 3084 3875 2770 
Q 3547 2456 3450 1953 
L 3066 0 
L 2491 0 
L 2900 2094 
Q 2925 2209 2937 2307 
Q 2950 2406 2950 2484 
Q 2950 2769 2794 2926 
Q 2638 3084 2363 3084 
Q 1938 3084 1609 2770 
Q 1281 2456 1184 1953 
L 800 0 
L 225 0 
L 909 3500 
L 1484 3500 
L 1375 2956 
Q 1609 3263 1923 3423 
Q 2238 3584 2597 3584 
Q 2978 3584 3223 3384 
Q 3469 3184 3519 2828 
Q 3781 3197 4126 3390 
Q 4472 3584 4856 3584 
Q 5306 3584 5551 3325 
Q 5797 3066 5797 2591 
Q 5797 2488 5784 2364 
Q 5772 2241 5747 2113 
z
" transform="scale(0.015625)"/>
       <path id="DejaVuSans-Oblique-47" d="M 2675 525 
Q 2444 222 2128 65 
Q 1813 -91 1428 -91 
Q 903 -91 598 267 
Q 294 625 294 1247 
Q 294 1766 478 2236 
Q 663 2706 1013 3078 
Q 1244 3325 1534 3454 
Q 1825 3584 2144 3584 
Q 2481 3584 2739 3421 
Q 2997 3259 3138 2956 
L 3513 4863 
L 4091 4863 
L 3144 0 
L 2566 0 
L 2675 525 
z
M 891 1350 
Q 891 897 1095 644 
Q 1300 391 1663 391 
Q 1931 391 2161 520 
Q 2391 650 2566 903 
Q 2750 1166 2856 1509 
Q 2963 1853 2963 2188 
Q 2963 2622 2758 2865 
Q 2553 3109 2194 3109 
Q 1922 3109 1687 2981 
Q 1453 2853 1288 2613 
Q 1106 2353 998 2009 
Q 891 1666 891 1350 
z
" transform="scale(0.015625)"/>
      </defs>
      <use xlink:href="#DejaVuSans-Oblique-348" transform="translate(0 0.78125)"/>
      <use xlink:href="#DejaVuSans-Oblique-46" transform="translate(61.181641 -14.218701) scale(0.7)"/>
      <use xlink:href="#DejaVuSans-Oblique-50" transform="translate(99.667969 -14.218701) scale(0.7)"/>
      <use xlink:href="#DejaVuSans-Oblique-47" transform="translate(167.856445 -14.218701) scale(0.7)"/>
     </g>
    </g>
    <g id="line2d_30">
     <path d="M 434.6 77.059219 
L 444.6 77.059219 
L 454.6 77.059219 
" style="fill: none; stroke-dasharray: 9.6,2.4,1.5,2.4; stroke-dashoffset: 0; stroke: #ff7f0e; stroke-width: 1.5"/>
    </g>
    <g id="text_16">
     <!-- $\delta_{ref}$ -->
     <g transform="translate(462.6 80.559219) scale(0.1 -0.1)">
      <defs>
       <path id="DejaVuSans-Oblique-55" d="M 2853 2969 
Q 2766 3016 2653 3041 
Q 2541 3066 2413 3066 
Q 1953 3066 1609 2717 
Q 1266 2369 1153 1784 
L 800 0 
L 225 0 
L 909 3500 
L 1484 3500 
L 1375 2956 
Q 1603 3259 1920 3421 
Q 2238 3584 2597 3584 
Q 2691 3584 2781 3573 
Q 2872 3563 2963 3538 
L 2853 2969 
z
" transform="scale(0.015625)"/>
       <path id="DejaVuSans-Oblique-48" d="M 3078 2063 
Q 3088 2113 3092 2166 
Q 3097 2219 3097 2272 
Q 3097 2653 2873 2875 
Q 2650 3097 2266 3097 
Q 1838 3097 1509 2826 
Q 1181 2556 1013 2059 
L 3078 2063 
z
M 3578 1613 
L 903 1613 
Q 884 1494 878 1425 
Q 872 1356 872 1306 
Q 872 872 1139 634 
Q 1406 397 1894 397 
Q 2269 397 2603 481 
Q 2938 566 3225 728 
L 3116 159 
Q 2806 34 2476 -28 
Q 2147 -91 1806 -91 
Q 1078 -91 686 257 
Q 294 606 294 1247 
Q 294 1794 489 2264 
Q 684 2734 1063 3103 
Q 1306 3334 1642 3459 
Q 1978 3584 2356 3584 
Q 2950 3584 3301 3228 
Q 3653 2872 3653 2272 
Q 3653 2128 3634 1964 
Q 3616 1800 3578 1613 
z
" transform="scale(0.015625)"/>
       <path id="DejaVuSans-Oblique-49" d="M 3059 4863 
L 2969 4384 
L 2419 4384 
Q 2106 4384 1964 4261 
Q 1822 4138 1753 3809 
L 1691 3500 
L 2638 3500 
L 2553 3053 
L 1606 3053 
L 1013 0 
L 434 0 
L 1031 3053 
L 481 3053 
L 563 3500 
L 1113 3500 
L 1159 3744 
Q 1278 4363 1576 4613 
Q 1875 4863 2516 4863 
L 3059 4863 
z
" transform="scale(0.015625)"/>
      </defs>
      <use xlink:href="#DejaVuSans-Oblique-348" transform="translate(0 0.78125)"/>
      <use xlink:href="#DejaVuSans-Oblique-55" transform="translate(61.181641 -14.218701) scale(0.7)"/>
      <use xlink:href="#DejaVuSans-Oblique-48" transform="translate(89.960938 -14.218701) scale(0.7)"/>
      <use xlink:href="#DejaVuSans-Oblique-49" transform="translate(133.027344 -14.218701) scale(0.7)"/>
     </g>
    </g>
   </g>
  </g>
  <g id="axes_2">
   <g id="patch_8">
    <path d="M 42.28 361.077656 
L 493.2 361.077656 
L 493.2 234.84 
L 42.28 234.84 
z
" style="fill: #ffffff"/>
   </g>
   <g id="matplotlib.axis_3">
    <g id="xtick_8">
     <g id="line2d_31">
      <path d="M 62.338832 361.077656 
L 62.338832 234.84 
" clip-path="url(#pc5952b9f2e)" style="fill: none; stroke: #b0b0b0; stroke-width: 0.8; stroke-linecap: square"/>
     </g>
     <g id="line2d_32">
      <g>
       <use xlink:href="#mb8375615f5" x="62.338832" y="361.077656" style="stroke: #000000; stroke-width: 0.8"/>
      </g>
     </g>
     <g id="text_17">
      <!-- 0 -->
      <g transform="translate(59.157582 375.675312) scale(0.1 -0.1)">
       <use xlink:href="#DejaVuSans-13"/>
      </g>
     </g>
    </g>
    <g id="xtick_9">
     <g id="line2d_33">
      <path d="M 130.751089 361.077656 
L 130.751089 234.84 
" clip-path="url(#pc5952b9f2e)" style="fill: none; stroke: #b0b0b0; stroke-width: 0.8; stroke-linecap: square"/>
     </g>
     <g id="line2d_34">
      <g>
       <use xlink:href="#mb8375615f5" x="130.751089" y="361.077656" style="stroke: #000000; stroke-width: 0.8"/>
      </g>
     </g>
     <g id="text_18">
      <!-- 10 -->
      <g transform="translate(124.388589 375.675312) scale(0.1 -0.1)">
       <use xlink:href="#DejaVuSans-14"/>
       <use xlink:href="#DejaVuSans-13" transform="translate(63.625 0)"/>
      </g>
     </g>
    </g>
    <g id="xtick_10">
     <g id="line2d_35">
      <path d="M 199.163346 361.077656 
L 199.163346 234.84 
" clip-path="url(#pc5952b9f2e)" style="fill: none; stroke: #b0b0b0; stroke-width: 0.8; stroke-linecap: square"/>
     </g>
     <g id="line2d_36">
      <g>
       <use xlink:href="#mb8375615f5" x="199.163346" y="361.077656" style="stroke: #000000; stroke-width: 0.8"/>
      </g>
     </g>
     <g id="text_19">
      <!-- 20 -->
      <g transform="translate(192.800846 375.675312) scale(0.1 -0.1)">
       <use xlink:href="#DejaVuSans-15"/>
       <use xlink:href="#DejaVuSans-13" transform="translate(63.625 0)"/>
      </g>
     </g>
    </g>
    <g id="xtick_11">
     <g id="line2d_37">
      <path d="M 267.575603 361.077656 
L 267.575603 234.84 
" clip-path="url(#pc5952b9f2e)" style="fill: none; stroke: #b0b0b0; stroke-width: 0.8; stroke-linecap: square"/>
     </g>
     <g id="line2d_38">
      <g>
       <use xlink:href="#mb8375615f5" x="267.575603" y="361.077656" style="stroke: #000000; stroke-width: 0.8"/>
      </g>
     </g>
     <g id="text_20">
      <!-- 30 -->
      <g transform="translate(261.213103 375.675312) scale(0.1 -0.1)">
       <use xlink:href="#DejaVuSans-16"/>
       <use xlink:href="#DejaVuSans-13" transform="translate(63.625 0)"/>
      </g>
     </g>
    </g>
    <g id="xtick_12">
     <g id="line2d_39">
      <path d="M 335.987859 361.077656 
L 335.987859 234.84 
" clip-path="url(#pc5952b9f2e)" style="fill: none; stroke: #b0b0b0; stroke-width: 0.8; stroke-linecap: square"/>
     </g>
     <g id="line2d_40">
      <g>
       <use xlink:href="#mb8375615f5" x="335.987859" y="361.077656" style="stroke: #000000; stroke-width: 0.8"/>
      </g>
     </g>
     <g id="text_21">
      <!-- 40 -->
      <g transform="translate(329.625359 375.675312) scale(0.1 -0.1)">
       <use xlink:href="#DejaVuSans-17"/>
       <use xlink:href="#DejaVuSans-13" transform="translate(63.625 0)"/>
      </g>
     </g>
    </g>
    <g id="xtick_13">
     <g id="line2d_41">
      <path d="M 404.400116 361.077656 
L 404.400116 234.84 
" clip-path="url(#pc5952b9f2e)" style="fill: none; stroke: #b0b0b0; stroke-width: 0.8; stroke-linecap: square"/>
     </g>
     <g id="line2d_42">
      <g>
       <use xlink:href="#mb8375615f5" x="404.400116" y="361.077656" style="stroke: #000000; stroke-width: 0.8"/>
      </g>
     </g>
     <g id="text_22">
      <!-- 50 -->
      <g transform="translate(398.037616 375.675312) scale(0.1 -0.1)">
       <use xlink:href="#DejaVuSans-18"/>
       <use xlink:href="#DejaVuSans-13" transform="translate(63.625 0)"/>
      </g>
     </g>
    </g>
    <g id="xtick_14">
     <g id="line2d_43">
      <path d="M 472.812373 361.077656 
L 472.812373 234.84 
" clip-path="url(#pc5952b9f2e)" style="fill: none; stroke: #b0b0b0; stroke-width: 0.8; stroke-linecap: square"/>
     </g>
     <g id="line2d_44">
      <g>
       <use xlink:href="#mb8375615f5" x="472.812373" y="361.077656" style="stroke: #000000; stroke-width: 0.8"/>
      </g>
     </g>
     <g id="text_23">
      <!-- 60 -->
      <g transform="translate(466.449873 375.675312) scale(0.1 -0.1)">
       <use xlink:href="#DejaVuSans-19"/>
       <use xlink:href="#DejaVuSans-13" transform="translate(63.625 0)"/>
      </g>
     </g>
    </g>
    <g id="text_24">
     <!-- t (s) -->
     <g transform="translate(257.684531 389.675312) scale(0.1 -0.1)">
      <use xlink:href="#DejaVuSans-57"/>
      <use xlink:href="#DejaVuSans-3" transform="translate(39.203125 0)"/>
      <use xlink:href="#DejaVuSans-b" transform="translate(70.984375 0)"/>
      <use xlink:href="#DejaVuSans-56" transform="translate(110 0)"/>
      <use xlink:href="#DejaVuSans-c" transform="translate(162.09375 0)"/>
     </g>
    </g>
   </g>
   <g id="matplotlib.axis_4">
    <g id="ytick_6">
     <g id="line2d_45">
      <path d="M 42.28 336.212663 
L 493.2 336.212663 
" clip-path="url(#pc5952b9f2e)" style="fill: none; stroke: #b0b0b0; stroke-width: 0.8; stroke-linecap: square"/>
     </g>
     <g id="line2d_46">
      <g>
       <use xlink:href="#me353390ffe" x="42.28" y="336.212663" style="stroke: #000000; stroke-width: 0.8"/>
      </g>
     </g>
     <g id="text_25">
      <!-- −0.2 -->
      <g transform="translate(10.997188 340.011491) scale(0.1 -0.1)">
       <use xlink:href="#DejaVuSans-c9c"/>
       <use xlink:href="#DejaVuSans-13" transform="translate(83.796875 0)"/>
       <use xlink:href="#DejaVuSans-11" transform="translate(147.421875 0)"/>
       <use xlink:href="#DejaVuSans-15" transform="translate(179.203125 0)"/>
      </g>
     </g>
    </g>
    <g id="ytick_7">
     <g id="line2d_47">
      <path d="M 42.28 297.958828 
L 493.2 297.958828 
" clip-path="url(#pc5952b9f2e)" style="fill: none; stroke: #b0b0b0; stroke-width: 0.8; stroke-linecap: square"/>
     </g>
     <g id="line2d_48">
      <g>
       <use xlink:href="#me353390ffe" x="42.28" y="297.958828" style="stroke: #000000; stroke-width: 0.8"/>
      </g>
     </g>
     <g id="text_26">
      <!-- 0.0 -->
      <g transform="translate(19.376875 301.757656) scale(0.1 -0.1)">
       <use xlink:href="#DejaVuSans-13"/>
       <use xlink:href="#DejaVuSans-11" transform="translate(63.625 0)"/>
       <use xlink:href="#DejaVuSans-13" transform="translate(95.40625 0)"/>
      </g>
     </g>
    </g>
    <g id="ytick_8">
     <g id="line2d_49">
      <path d="M 42.28 259.704993 
L 493.2 259.704993 
" clip-path="url(#pc5952b9f2e)" style="fill: none; stroke: #b0b0b0; stroke-width: 0.8; stroke-linecap: square"/>
     </g>
     <g id="line2d_50">
      <g>
       <use xlink:href="#me353390ffe" x="42.28" y="259.704993" style="stroke: #000000; stroke-width: 0.8"/>
      </g>
     </g>
     <g id="text_27">
      <!-- 0.2 -->
      <g transform="translate(19.376875 263.503821) scale(0.1 -0.1)">
       <use xlink:href="#DejaVuSans-13"/>
       <use xlink:href="#DejaVuSans-11" transform="translate(63.625 0)"/>
       <use xlink:href="#DejaVuSans-15" transform="translate(95.40625 0)"/>
      </g>
     </g>
    </g>
   </g>
   <g id="line2d_51">
    <path d="M 62.776364 240.578331 
L 87.677961 240.578382 
L 88.160214 255.331559 
L 88.636407 265.656566 
L 89.595612 280.060545 
L 90.553821 287.610398 
L 91.511479 292.28592 
L 92.467336 294.887974 
L 92.948123 290.443995 
L 93.424824 297.665746 
L 93.905664 297.172863 
L 94.383247 297.55374 
L 94.863925 292.811109 
L 95.342943 297.961061 
L 95.821211 297.961855 
L 96.29847 352.684891 
L 96.778248 355.33689 
L 104.921061 355.319784 
L 105.397059 321.450808 
L 105.87612 321.091089 
L 106.357094 267.516108 
L 106.835714 240.667926 
L 107.791938 240.580108 
L 110.18843 240.598702 
L 110.665703 303.089966 
L 111.143981 318.214528 
L 111.625378 345.842107 
L 112.102585 347.037275 
L 112.583519 355.008165 
L 113.060073 339.894345 
L 113.537987 333.98844 
L 114.018577 298.356706 
L 114.498965 298.786816 
L 114.977771 282.573081 
L 115.455254 320.696163 
L 115.934823 305.97242 
L 116.413423 309.508322 
L 116.890901 292.534888 
L 117.370925 295.172139 
L 117.849198 278.464425 
L 118.329595 282.669214 
L 118.806532 268.138857 
L 119.284269 275.512214 
L 119.763819 263.796654 
L 120.244039 309.562466 
L 120.724444 298.779207 
L 121.203077 305.808335 
L 121.679845 293.825152 
L 122.159521 299.707783 
L 122.639717 283.588808 
L 123.117223 289.088821 
L 123.596276 274.511845 
L 124.07393 282.012573 
L 124.554182 271.830475 
L 125.033733 321.174946 
L 125.511962 310.612287 
L 125.992071 316.956536 
L 126.46754 297.498916 
L 126.94724 298.034609 
L 127.427869 274.042588 
L 127.90665 273.607774 
L 128.38468 249.19617 
L 128.86558 252.859497 
L 129.34294 240.586644 
L 129.822026 241.594495 
L 130.302112 269.186287 
L 130.777741 281.997786 
L 131.258945 267.992427 
L 131.737372 279.513866 
L 132.216954 264.656523 
L 132.697148 276.134047 
L 133.17457 261.764677 
L 133.651241 274.572719 
L 134.130912 261.179532 
L 134.610138 275.275685 
L 135.088881 300.511753 
L 135.566912 307.125918 
L 136.048122 278.833332 
L 136.526142 279.099228 
L 137.005418 249.091786 
L 137.483194 252.283192 
L 137.96287 240.589187 
L 138.441784 241.236605 
L 138.920828 240.588523 
L 139.400321 245.847305 
L 139.876548 276.134063 
L 140.356039 289.929714 
L 140.836015 275.540964 
L 141.314748 285.662911 
L 141.794211 277.135124 
L 142.27378 282.647613 
L 142.75003 280.127226 
L 143.709852 288.724771 
L 144.190334 300.023847 
L 144.668437 295.600455 
L 145.144546 294.944498 
L 145.623631 294.831999 
L 146.102761 295.418922 
L 146.582059 295.641048 
L 147.060583 296.406394 
L 147.539541 296.5563 
L 148.017739 297.263647 
L 148.498645 297.760104 
L 148.978373 297.672055 
L 149.457313 296.889974 
L 149.933603 297.828786 
L 150.413805 297.96031 
L 150.893632 297.960668 
L 151.371486 297.50016 
L 151.850926 297.960831 
L 152.80953 297.961222 
L 153.286485 297.595684 
L 153.766108 297.962001 
L 154.244765 297.643088 
L 154.724329 332.9902 
L 155.681491 355.338166 
L 162.863126 355.331414 
L 163.345146 345.624985 
L 164.300049 309.418951 
L 164.781761 278.840564 
L 165.26053 277.922201 
L 165.738663 240.580999 
L 169.569588 240.582833 
L 170.047575 244.366134 
L 170.527638 260.055875 
L 171.005494 297.798406 
L 171.485377 314.954434 
L 171.961963 347.23045 
L 172.921491 355.313672 
L 173.879716 355.335864 
L 174.358237 354.503164 
L 174.837944 343.432976 
L 175.316224 306.452047 
L 175.795121 296.819266 
L 176.274028 267.982918 
L 176.752 264.466867 
L 177.230185 241.516202 
L 177.709564 243.843639 
L 178.190361 264.723313 
L 178.667017 273.471492 
L 179.145939 256.768676 
L 179.624618 265.35398 
L 180.103902 248.832173 
L 180.585075 259.39588 
L 181.062952 244.653825 
L 181.539816 258.847654 
L 182.020927 247.235274 
L 182.499899 263.780219 
L 182.979357 298.099543 
L 183.455472 314.634224 
L 183.934438 297.955476 
L 184.414903 305.777772 
L 184.894136 283.92288 
L 185.37312 287.647165 
L 185.849992 262.359674 
L 186.330324 256.200285 
L 186.808668 240.580589 
L 190.16267 240.582793 
L 190.640951 258.736346 
L 191.1207 268.534413 
L 191.598838 274.711705 
L 192.078192 278.607546 
L 192.554322 285.387394 
L 193.51277 291.138429 
L 193.99095 292.80499 
L 194.473283 293.434617 
L 194.949142 295.00174 
L 195.428626 295.252242 
L 195.909125 296.210532 
L 196.388183 295.594534 
L 196.865074 297.410102 
L 197.344234 296.664588 
L 197.824117 297.377659 
L 198.30243 297.556715 
L 198.781471 297.453609 
L 199.261165 297.156159 
L 199.738421 297.812401 
L 200.217459 297.739929 
L 200.696421 297.78297 
L 201.175875 297.966864 
L 201.656183 297.767044 
L 202.132384 341.661567 
L 202.611808 355.334985 
L 210.275532 355.320529 
L 210.753642 315.415052 
L 211.230813 292.901735 
L 212.189607 274.728787 
L 212.668789 255.878653 
L 213.148175 268.320251 
L 213.627136 273.033754 
L 214.106584 290.85667 
L 214.584028 286.349115 
L 215.062943 294.186414 
L 215.540962 271.294024 
L 216.022531 267.67093 
L 216.498421 275.7522 
L 216.978791 272.683862 
L 217.457673 240.617698 
L 219.853753 240.58838 
L 220.332627 240.598766 
L 220.811116 253.544819 
L 221.29011 303.570555 
L 221.765831 333.661114 
L 222.246689 337.534758 
L 222.726411 355.183605 
L 223.203212 354.812323 
L 223.684882 355.329181 
L 224.163078 352.635317 
L 224.642533 354.50179 
L 225.119138 329.983671 
L 225.599369 322.515053 
L 226.07815 322.351673 
L 226.555737 305.683333 
L 227.03516 255.481284 
L 227.51553 240.586111 
L 232.781724 240.580995 
L 233.261982 240.912381 
L 233.74091 249.148854 
L 234.217751 285.837151 
L 234.696253 298.80483 
L 235.17624 334.176468 
L 235.653668 355.337326 
L 239.487041 355.323687 
L 239.965745 355.192832 
L 240.442884 353.203387 
L 240.921791 352.698419 
L 241.401926 331.746178 
L 241.881827 320.7603 
L 242.357983 278.971799 
L 243.31764 240.581403 
L 244.754415 240.581055 
L 245.234928 246.785734 
L 245.712217 276.416689 
L 246.191771 288.585101 
L 246.671146 317.543184 
L 247.147361 318.206099 
L 247.628724 329.901659 
L 248.107504 301.426878 
L 248.586786 291.489797 
L 249.064631 240.945597 
L 249.544033 240.606323 
L 250.023379 254.334416 
L 250.979364 289.431816 
L 251.459463 302.473294 
L 251.938543 276.278295 
L 252.417246 273.066892 
L 252.894747 240.584987 
L 254.332138 240.581912 
L 255.288417 254.22706 
L 255.767445 247.866676 
L 256.247997 265.563345 
L 256.724988 264.23719 
L 257.204419 290.644247 
L 257.683121 293.162172 
L 258.161887 319.729633 
L 258.641124 318.702392 
L 259.599656 355.325307 
L 260.078435 355.278922 
L 261.035879 324.132618 
L 261.515312 285.687134 
L 261.993858 281.257005 
L 262.472777 251.985132 
L 262.951412 256.069774 
L 263.430873 240.632016 
L 263.909352 251.591447 
L 264.388081 291.613656 
L 264.868593 312.686016 
L 265.347356 304.822572 
L 265.826476 322.49487 
L 266.30314 311.573721 
L 266.782111 325.778258 
L 267.263045 311.445762 
L 267.740703 322.038492 
L 268.218726 303.221094 
L 268.697295 309.899889 
L 269.177836 333.965588 
L 269.657103 336.98796 
L 270.135597 306.65658 
L 270.615271 303.754829 
L 271.0936 272.051303 
L 271.572444 268.956733 
L 272.049859 240.582727 
L 273.487312 240.580798 
L 273.967547 240.86741 
L 274.445822 245.919698 
L 274.924368 240.660317 
L 275.404149 245.519464 
L 275.883053 257.606725 
L 276.359579 302.703229 
L 276.839239 313.818686 
L 277.318608 342.509521 
L 277.798711 346.59436 
L 278.274967 355.335685 
L 280.190224 355.297193 
L 280.671619 315.269424 
L 281.147709 309.604246 
L 281.627984 320.183333 
L 282.108801 355.327879 
L 282.587509 341.423262 
L 283.066325 337.788009 
L 284.022695 240.584194 
L 287.853366 240.581388 
L 288.810318 315.091553 
L 289.288894 325.940231 
L 289.768859 354.661436 
L 290.247995 355.17687 
L 290.728782 355.333459 
L 291.207732 335.663794 
L 291.683513 325.151491 
L 292.162835 284.861879 
L 292.642831 271.950657 
L 293.122718 266.58618 
L 293.599021 248.131099 
L 294.078852 240.581013 
L 296.951813 240.58506 
L 297.432546 240.906993 
L 297.91182 255.067645 
L 298.3912 292.404512 
L 299.346293 347.690058 
L 299.82524 354.889413 
L 300.304218 355.33676 
L 303.178383 355.335607 
L 304.613927 246.020148 
L 305.094534 248.580182 
L 305.573127 252.793983 
L 306.051214 294.453732 
L 306.53169 279.558859 
L 307.008057 270.167505 
L 307.488042 240.588216 
L 311.796801 240.579891 
L 312.277667 241.418933 
L 312.754984 254.634606 
L 313.712874 273.766661 
L 314.191104 280.457566 
L 315.149118 344.208942 
L 315.628943 355.338147 
L 324.728012 355.313762 
L 325.205876 343.972441 
L 325.68695 293.252855 
L 326.164839 268.26197 
L 327.121113 246.053107 
L 327.600656 240.583586 
L 329.516434 240.592558 
L 329.995955 252.923403 
L 330.473978 257.238925 
L 330.953029 281.240299 
L 331.434058 319.725653 
L 331.910814 337.720697 
L 332.389542 326.197554 
L 332.869824 327.540739 
L 333.347392 302.749362 
L 333.826595 299.940344 
L 334.305396 273.02049 
L 334.783605 270.013125 
L 335.26319 243.64468 
L 335.741207 247.41186 
L 336.220106 266.215136 
L 336.699766 273.744045 
L 337.178063 257.540099 
L 337.656875 266.57569 
L 338.136584 251.944044 
L 338.616431 263.961989 
L 339.096152 252.317221 
L 339.572703 267.502229 
L 340.052004 258.834099 
L 340.531224 276.290623 
L 341.011525 311.780056 
L 341.487655 327.823885 
L 341.967649 313.88114 
L 342.447276 322.368317 
L 342.92479 302.630624 
L 343.404894 306.351804 
L 343.884646 283.120989 
L 344.361305 285.63177 
L 344.841051 261.991744 
L 345.318849 265.486366 
L 345.798444 284.283296 
L 346.278302 287.746412 
L 346.756711 248.905049 
L 347.235552 240.59126 
L 350.588701 240.583127 
L 351.066946 240.763582 
L 351.546865 242.704905 
L 352.025199 257.081388 
L 352.503795 267.73618 
L 352.981916 274.788877 
L 353.94186 284.878993 
L 354.897881 290.92336 
L 355.375762 292.550013 
L 355.856425 295.243535 
L 356.33447 308.574827 
L 356.812933 346.91172 
L 357.293609 355.329734 
L 364.953968 355.338973 
L 367.348189 355.335631 
L 367.827292 355.129803 
L 368.306989 342.991879 
L 368.786906 310.057563 
L 369.262828 295.085456 
L 369.743434 290.959494 
L 370.223467 283.51265 
L 370.699428 263.995117 
L 371.178983 264.214554 
L 371.65849 253.372103 
L 372.138535 262.996179 
L 372.618171 260.678481 
L 373.094098 275.875884 
L 373.574241 277.452121 
L 374.05423 294.035827 
L 374.533866 325.709461 
L 375.010507 341.150635 
L 375.49004 337.300411 
L 375.969393 343.376452 
L 376.448822 330.701682 
L 376.925411 329.665622 
L 377.406047 311.345471 
L 377.885251 307.246856 
L 378.362632 288.143331 
L 378.842712 285.13041 
L 379.320772 292.826068 
L 379.799372 292.95282 
L 380.277625 277.607827 
L 380.756339 279.192303 
L 381.235591 266.33348 
L 381.716739 271.164967 
L 382.193356 261.896024 
L 382.673293 270.580569 
L 383.153222 264.398969 
L 383.630873 275.879375 
L 384.109354 300.049701 
L 384.587527 311.370655 
L 385.066795 303.161298 
L 385.54551 309.414866 
L 386.025835 296.815111 
L 386.504447 300.065984 
L 386.982822 284.881983 
L 387.461383 286.908115 
L 387.942391 277.116133 
L 388.421497 288.62872 
L 388.900565 313.224432 
L 389.376837 323.927052 
L 389.856033 314.340977 
L 390.334134 317.802308 
L 390.813621 301.169976 
L 391.291484 299.703197 
L 391.771036 278.396989 
L 392.250621 275.015572 
L 392.730541 250.099817 
L 393.210051 242.74174 
L 393.686073 250.559573 
L 394.166099 250.325664 
L 394.645784 240.582054 
L 398.476615 240.588262 
L 398.955199 253.673144 
L 399.434608 240.603277 
L 399.913222 251.009321 
L 400.392157 242.162162 
L 400.872658 261.041912 
L 401.350694 250.011425 
L 401.829105 261.964544 
L 402.307191 240.5877 
L 402.788019 240.900105 
L 403.263816 263.486141 
L 403.744606 273.590459 
L 404.222607 253.026202 
L 404.702171 258.764564 
L 405.181834 249.225728 
L 405.658362 256.730259 
L 406.138283 257.071669 
L 406.616824 268.268466 
L 407.573829 282.047568 
L 408.533262 289.301175 
L 409.01335 291.545075 
L 409.96871 293.567697 
L 410.448373 290.201573 
L 410.92606 297.313524 
L 411.405537 296.760412 
L 411.885875 296.919555 
L 412.36585 297.302448 
L 412.842436 297.940481 
L 413.32207 297.959595 
L 413.801843 297.866973 
L 414.27807 297.517579 
L 414.759152 297.927412 
L 415.238633 297.959443 
L 415.716361 292.171667 
L 416.197124 297.959288 
L 418.110817 297.959195 
L 418.590617 297.084623 
L 419.070125 292.059996 
L 419.546798 297.959115 
L 422.899536 297.959089 
L 423.379061 297.443557 
L 423.858708 297.959085 
L 424.814547 297.959085 
L 425.294174 297.706716 
L 425.773561 297.908483 
L 426.253471 296.984591 
L 426.729823 297.959095 
L 429.605116 297.959141 
L 430.081325 297.685799 
L 430.560837 297.959155 
L 431.040079 297.959158 
L 431.519519 297.581488 
L 431.99908 297.66805 
L 432.478648 297.229423 
L 432.954917 297.959222 
L 433.434482 297.891177 
L 433.913937 297.959249 
L 434.391281 297.668444 
L 434.871397 297.88975 
L 435.83052 297.959322 
L 436.309316 297.23634 
L 436.786714 297.413015 
L 437.265607 297.959483 
L 438.224586 297.959579 
L 438.70311 296.104663 
L 439.181095 297.959714 
L 440.140081 297.959918 
L 440.619705 297.960014 
L 441.095968 297.198167 
L 441.577366 297.960973 
L 442.05609 297.038935 
L 442.534558 297.962397 
L 443.012753 302.341664 
L 443.491107 339.235248 
L 443.969898 355.338047 
L 470.786912 355.335795 
L 471.265452 353.410441 
L 472.703636 244.861942 
L 472.703636 244.861942 
" clip-path="url(#pc5952b9f2e)" style="fill: none; stroke: #1f77b4; stroke-width: 1.5; stroke-linecap: square"/>
   </g>
   <g id="line2d_52">
    <path d="M 62.776364 249.101425 
L 63.254825 240.578075 
L 72.355624 240.578075 
L 72.833046 243.332012 
L 73.311716 261.703078 
L 73.790912 286.075962 
L 74.2717 304.041042 
L 74.751105 327.247555 
L 75.228558 343.868834 
L 75.708008 355.339581 
L 81.933764 355.339581 
L 82.412035 337.597573 
L 83.367813 282.88414 
L 84.804456 318.477914 
L 85.285802 328.813722 
L 86.242112 342.049911 
L 87.201637 349.701536 
L 87.677961 351.44513 
L 88.160214 352.47155 
L 88.636407 352.339935 
L 89.116231 351.068184 
L 89.595612 349.363534 
L 90.553821 343.209907 
L 92.467336 324.004028 
L 93.905664 305.098949 
L 94.383247 299.710913 
L 94.863925 292.53395 
L 95.342943 287.229576 
L 95.821211 280.374032 
L 96.29847 275.474666 
L 96.778248 269.384413 
L 98.214243 257.291171 
L 98.693526 254.087619 
L 99.172591 252.427401 
L 99.650829 251.3109 
L 100.131219 251.367414 
L 100.610311 252.73605 
L 101.089908 254.799835 
L 102.045863 263.376404 
L 103.003121 277.70476 
L 103.481322 288.684616 
L 103.962256 286.426914 
L 104.441651 258.664931 
L 104.921061 244.44231 
L 105.397059 240.578075 
L 106.835714 240.578075 
L 107.313804 246.92454 
L 107.791938 256.981659 
L 109.230165 300.935677 
L 110.665703 333.649157 
L 111.143981 340.40818 
L 111.625378 342.217891 
L 112.102585 339.856003 
L 112.583519 334.441427 
L 113.537987 310.760359 
L 114.018577 293.214822 
L 114.498965 295.926434 
L 114.977771 300.245681 
L 115.455254 302.402761 
L 115.934823 304.016314 
L 116.413423 304.407511 
L 116.890901 304.028686 
L 117.370925 303.199985 
L 118.329595 300.041778 
L 119.763819 293.831176 
L 121.203077 289.204662 
L 121.679845 287.955069 
L 122.639717 286.707511 
L 123.117223 286.517153 
L 123.596276 286.526391 
L 124.07393 286.677075 
L 125.033733 293.112184 
L 125.511962 294.720836 
L 125.992071 294.331598 
L 126.94724 289.786701 
L 128.38468 278.737017 
L 129.822026 270.783934 
L 130.302112 268.875254 
L 130.777741 267.968414 
L 131.258945 267.450981 
L 131.737372 267.565508 
L 132.216954 268.355578 
L 132.697148 269.398176 
L 133.651241 273.136378 
L 134.130912 275.877978 
L 134.610138 277.525059 
L 136.048122 262.924767 
L 137.005418 256.533998 
L 137.483194 255.466787 
L 137.96287 255.842478 
L 138.441784 257.454697 
L 139.400321 265.007484 
L 140.836015 282.762816 
L 142.27378 297.295479 
L 142.75003 301.023455 
L 143.229751 302.709581 
L 143.709852 303.233232 
L 144.190334 302.151021 
L 144.668437 298.388168 
L 145.144546 277.520027 
L 145.623631 248.538817 
L 146.102761 240.578075 
L 147.539541 240.578075 
L 148.017739 243.545896 
L 149.457313 300.677271 
L 149.933603 318.995841 
L 150.413805 343.110801 
L 150.893632 355.339581 
L 154.244765 355.339581 
L 154.724329 348.979533 
L 155.201972 326.797082 
L 155.681491 348.418821 
L 156.160974 355.339581 
L 159.034939 355.339581 
L 159.512748 354.867016 
L 161.905668 273.770015 
L 162.863126 250.785602 
L 163.345146 246.478947 
L 163.823128 247.910426 
L 164.300049 255.326972 
L 165.26053 297.754848 
L 166.694868 255.360485 
L 167.174977 251.149798 
L 167.653041 251.612251 
L 168.1326 255.716463 
L 169.089143 274.1398 
L 170.047575 298.521862 
L 170.527638 311.962427 
L 171.485377 329.112361 
L 171.961963 332.513003 
L 172.442437 332.438164 
L 172.921491 328.83966 
L 173.879716 311.155148 
L 174.358237 298.916079 
L 174.837944 291.186389 
L 175.316224 285.49389 
L 175.795121 286.316481 
L 176.274028 289.177252 
L 176.752 290.035736 
L 177.230185 289.683117 
L 177.709564 288.468891 
L 178.667017 283.384759 
L 179.624618 276.809863 
L 180.103902 273.149839 
L 181.062952 268.045481 
L 181.539816 266.624727 
L 182.020927 265.61489 
L 182.499899 265.575129 
L 182.979357 266.51968 
L 183.455472 267.98126 
L 184.414903 273.823109 
L 185.849992 288.389526 
L 186.330324 283.415374 
L 187.288176 250.494786 
L 187.768342 240.578075 
L 191.598838 240.578075 
L 192.078192 257.106371 
L 192.554322 288.982219 
L 193.03399 313.450706 
L 193.51277 345.199917 
L 193.99095 355.339581 
L 197.824117 355.339581 
L 198.30243 352.768912 
L 199.261165 315.474149 
L 199.738421 305.251529 
L 200.217459 298.172474 
L 200.696421 295.577957 
L 201.175875 294.983964 
L 201.656183 296.321428 
L 202.611808 304.14981 
L 204.528503 331.880011 
L 205.005029 340.449501 
L 205.963704 352.895843 
L 206.443466 355.339581 
L 207.401921 355.339581 
L 207.881252 353.120686 
L 208.357741 346.815999 
L 209.317678 323.546193 
L 209.79661 306.931195 
L 211.230813 272.520288 
L 211.712192 268.241521 
L 212.189607 270.41562 
L 212.668789 281.431307 
L 213.148175 296.19125 
L 213.627136 317.023391 
L 214.106584 325.261815 
L 214.584028 326.610165 
L 215.062943 321.264172 
L 216.022531 294.234169 
L 216.498421 275.098745 
L 217.457673 247.025209 
L 217.937096 240.578075 
L 219.373793 240.578075 
L 219.853753 243.428474 
L 221.765831 284.913335 
L 222.246689 297.536981 
L 223.684882 322.054539 
L 224.163078 327.350581 
L 224.642533 329.133311 
L 225.119138 328.209145 
L 225.599369 324.760836 
L 226.555737 305.742786 
L 227.03516 290.809491 
L 227.51553 286.668659 
L 229.908441 248.102173 
L 230.386682 244.907095 
L 230.867079 243.954435 
L 231.345946 245.807734 
L 232.302258 257.944369 
L 234.217751 301.783953 
L 234.696253 314.837992 
L 235.653668 333.546942 
L 236.612386 343.375917 
L 237.091275 344.15465 
L 237.570234 341.851687 
L 238.05051 337.792485 
L 239.965745 304.731789 
L 240.442884 295.516004 
L 241.401926 322.048228 
L 241.881827 321.284294 
L 242.837949 297.295506 
L 243.31764 282.851743 
L 243.797422 276.707972 
L 244.275597 276.88362 
L 244.754415 282.989177 
L 246.191771 323.31821 
L 246.671146 330.01074 
L 247.147361 329.829271 
L 247.628724 321.444114 
L 248.586786 278.782386 
L 249.064631 251.609096 
L 249.544033 240.578075 
L 250.023379 240.578075 
L 250.501517 255.753022 
L 250.979364 292.717844 
L 251.459463 294.506366 
L 251.938543 284.400844 
L 252.417246 270.609674 
L 252.894747 249.811548 
L 253.373384 240.578075 
L 255.288417 240.578075 
L 256.247997 272.516884 
L 256.724988 295.230727 
L 257.683121 329.560594 
L 258.161887 339.54805 
L 258.641124 346.773654 
L 259.120686 347.252532 
L 259.599656 341.48142 
L 260.078435 332.861735 
L 261.035879 300.445048 
L 261.515312 292.747652 
L 262.472777 290.801867 
L 262.951412 290.666288 
L 263.430873 291.192015 
L 263.909352 292.136504 
L 264.868593 296.031878 
L 266.30314 304.65759 
L 267.263045 309.124455 
L 267.740703 310.27739 
L 268.218726 310.908747 
L 268.697295 310.682185 
L 269.657103 308.201977 
L 270.135597 306.102199 
L 271.0936 302.903113 
L 271.572444 297.220011 
L 272.52999 250.706183 
L 273.008166 240.578075 
L 274.924368 240.578075 
L 275.404149 263.10046 
L 276.359579 351.494274 
L 276.839239 355.339581 
L 279.234559 355.339581 
L 280.190224 259.882313 
L 280.671619 240.578075 
L 281.147709 240.578075 
L 282.108801 355.339581 
L 283.066325 355.339581 
L 284.022695 242.461451 
L 284.502301 240.578075 
L 286.418215 240.578075 
L 286.894933 242.448421 
L 287.374931 295.763939 
L 287.853366 333.684379 
L 288.334188 355.339581 
L 290.247995 355.339581 
L 290.728782 352.591181 
L 291.207732 322.1895 
L 292.162835 293.387473 
L 292.642831 282.330564 
L 293.599021 247.50277 
L 294.078852 240.578075 
L 296.474909 240.578075 
L 296.951813 251.056457 
L 297.432546 272.433169 
L 298.3912 329.24809 
L 298.867455 355.339581 
L 302.22235 355.339581 
L 302.700308 328.923932 
L 303.656369 254.504089 
L 304.135312 240.578075 
L 304.613927 240.578075 
L 305.094534 255.194108 
L 306.051214 350.463059 
L 306.53169 355.339581 
L 307.008057 350.462051 
L 307.488042 288.251371 
L 307.967167 240.578075 
L 311.796801 240.578075 
L 312.754984 337.250393 
L 313.234297 355.339581 
L 317.065459 355.339581 
L 317.544035 326.129453 
L 318.023269 263.397968 
L 318.502228 247.768293 
L 318.98214 274.398729 
L 319.461319 314.461678 
L 319.937745 341.131044 
L 320.419654 353.701235 
L 320.89853 355.339581 
L 321.376845 355.339581 
L 321.856409 350.628518 
L 322.334545 339.112863 
L 323.769785 285.385274 
L 324.728012 261.966161 
L 325.205876 257.013798 
L 325.68695 254.976557 
L 326.164839 256.388431 
L 327.121113 266.562462 
L 328.560493 289.893332 
L 329.516434 302.164144 
L 330.473978 308.988673 
L 330.953029 309.89768 
L 331.434058 309.047791 
L 331.910814 306.70397 
L 332.869824 293.678971 
L 333.347392 286.657014 
L 334.783605 275.951151 
L 335.26319 272.929711 
L 336.220106 269.398234 
L 336.699766 268.550339 
L 337.178063 268.006878 
L 337.656875 268.01377 
L 338.136584 268.530238 
L 338.616431 269.262882 
L 339.572703 271.941086 
L 342.447276 284.330451 
L 342.92479 286.736741 
L 344.841051 293.150847 
L 345.318849 293.898276 
L 345.798444 294.43623 
L 346.278302 294.457984 
L 346.756711 289.362683 
L 347.235552 274.418521 
L 347.715253 252.520135 
L 348.194863 240.578075 
L 351.546865 240.578075 
L 352.025199 242.132222 
L 353.94186 348.720603 
L 354.419667 355.339581 
L 358.248826 355.339581 
L 358.728444 351.875236 
L 359.206535 327.508991 
L 359.687062 316.030472 
L 360.164769 312.869495 
L 360.644204 322.086928 
L 361.123293 334.701818 
L 362.080042 346.996377 
L 362.560389 348.895812 
L 363.040124 348.767242 
L 363.518555 346.974689 
L 364.474506 338.708255 
L 365.913069 321.208642 
L 367.348189 308.747188 
L 367.827292 305.71803 
L 368.306989 304.207284 
L 368.786906 303.115071 
L 369.262828 302.892177 
L 369.743434 303.225159 
L 370.223467 303.829507 
L 371.65849 307.159747 
L 372.618171 308.81975 
L 373.094098 309.02709 
L 373.574241 308.43332 
L 374.05423 307.280257 
L 374.533866 308.267524 
L 375.010507 308.640303 
L 375.49004 308.474132 
L 375.969393 307.918846 
L 376.925411 305.511354 
L 380.277625 292.818813 
L 382.193356 288.027325 
L 383.630873 286.197298 
L 384.109354 285.723181 
L 385.54551 284.755709 
L 386.504447 283.843669 
L 387.461383 282.227722 
L 387.942391 286.580264 
L 388.900565 299.04535 
L 389.376837 302.050796 
L 389.856033 304.061191 
L 390.334134 304.185408 
L 390.813621 302.69128 
L 391.291484 300.464045 
L 392.250621 292.28714 
L 395.602088 251.053138 
L 396.56129 242.453231 
L 397.041049 240.578075 
L 398.955199 240.578075 
L 399.434608 241.167722 
L 399.913222 244.926362 
L 400.872658 258.293742 
L 401.350694 267.5272 
L 401.829105 260.995441 
L 402.307191 251.167381 
L 402.788019 244.496223 
L 403.263816 240.578075 
L 406.616824 240.578075 
L 407.097388 240.743181 
L 407.573829 246.54374 
L 409.01335 271.485334 
L 409.489077 278.546285 
L 409.96871 287.617821 
L 411.405537 306.342894 
L 411.885875 311.398589 
L 412.36585 314.01345 
L 412.842436 315.733675 
L 413.32207 315.573678 
L 413.801843 313.243155 
L 414.27807 309.769829 
L 414.759152 302.591151 
L 415.238633 288.066466 
L 415.716361 254.884623 
L 416.197124 240.578075 
L 419.070125 240.578075 
L 419.546798 240.766988 
L 420.026546 254.610854 
L 422.422454 355.339581 
L 428.168697 355.339581 
L 428.646086 337.928893 
L 429.125679 325.155988 
L 431.519519 319.64877 
L 431.99908 318.660491 
L 433.913937 316.044366 
L 435.351017 314.917655 
L 436.309316 314.463481 
L 437.265607 314.263529 
L 438.224586 314.299189 
L 439.181095 314.55185 
L 440.619705 315.342559 
L 441.095968 315.633737 
L 443.012753 317.360309 
L 446.843201 322.151983 
L 448.279485 324.317111 
L 448.758595 324.919324 
L 450.195938 327.13561 
L 450.676631 327.735824 
L 451.633711 329.115985 
L 452.590197 330.452605 
L 453.54919 331.727074 
L 454.506924 332.920783 
L 454.984094 333.559481 
L 457.859248 336.242625 
L 459.773396 337.233228 
L 460.730813 337.433251 
L 461.689977 337.411609 
L 462.646623 337.149692 
L 463.125602 336.959276 
L 464.085283 336.321825 
L 465.52257 334.736188 
L 465.999475 334.171902 
L 467.914009 330.731218 
L 469.831913 326.052674 
L 472.703636 326.052674 
L 472.703636 326.052674 
" clip-path="url(#pc5952b9f2e)" style="fill: none; stroke-dasharray: 9.6,2.4,1.5,2.4; stroke-dashoffset: 0; stroke: #ff7f0e; stroke-width: 1.5"/>
   </g>
   <g id="line2d_53">
    <path d="M 42.28 355.339581 
L 493.2 355.339581 
" clip-path="url(#pc5952b9f2e)" style="fill: none; stroke-dasharray: 3.7,1.6; stroke-dashoffset: 0; stroke: #ff0000"/>
   </g>
   <g id="line2d_54">
    <path d="M 42.28 240.578075 
L 493.2 240.578075 
" clip-path="url(#pc5952b9f2e)" style="fill: none; stroke-dasharray: 3.7,1.6; stroke-dashoffset: 0; stroke: #ff0000"/>
   </g>
   <g id="patch_9">
    <path d="M 42.28 361.077656 
L 42.28 234.84 
" style="fill: none; stroke: #000000; stroke-width: 0.8; stroke-linejoin: miter; stroke-linecap: square"/>
   </g>
   <g id="patch_10">
    <path d="M 493.2 361.077656 
L 493.2 234.84 
" style="fill: none; stroke: #000000; stroke-width: 0.8; stroke-linejoin: miter; stroke-linecap: square"/>
   </g>
   <g id="patch_11">
    <path d="M 42.28 361.077656 
L 493.2 361.077656 
" style="fill: none; stroke: #000000; stroke-width: 0.8; stroke-linejoin: miter; stroke-linecap: square"/>
   </g>
   <g id="patch_12">
    <path d="M 42.28 234.84 
L 493.2 234.84 
" style="fill: none; stroke: #000000; stroke-width: 0.8; stroke-linejoin: miter; stroke-linecap: square"/>
   </g>
   <g id="text_28">
    <!-- $a_x$ $\left(\mathrm{m/s^2}\right)$ -->
    <g transform="translate(240.92 228.84) scale(0.12 -0.12)">
     <defs>
      <path id="DejaVuSans-Oblique-44" d="M 3438 1997 
L 3047 0 
L 2472 0 
L 2578 531 
Q 2325 219 2001 64 
Q 1678 -91 1281 -91 
Q 834 -91 548 182 
Q 263 456 263 884 
Q 263 1497 752 1853 
Q 1241 2209 2100 2209 
L 2900 2209 
L 2931 2363 
Q 2938 2388 2941 2417 
Q 2944 2447 2944 2509 
Q 2944 2788 2717 2942 
Q 2491 3097 2081 3097 
Q 1800 3097 1504 3025 
Q 1209 2953 897 2809 
L 997 3341 
Q 1322 3463 1633 3523 
Q 1944 3584 2234 3584 
Q 2853 3584 3176 3315 
Q 3500 3047 3500 2534 
Q 3500 2431 3484 2292 
Q 3469 2153 3438 1997 
z
M 2816 1759 
L 2241 1759 
Q 1534 1759 1195 1570 
Q 856 1381 856 984 
Q 856 709 1029 553 
Q 1203 397 1509 397 
Q 1978 397 2328 733 
Q 2678 1069 2791 1631 
L 2816 1759 
z
" transform="scale(0.015625)"/>
      <path id="DejaVuSans-Oblique-5b" d="M 3841 3500 
L 2234 1784 
L 3219 0 
L 2559 0 
L 1819 1388 
L 531 0 
L -166 0 
L 1556 1844 
L 641 3500 
L 1300 3500 
L 1972 2234 
L 3144 3500 
L 3841 3500 
z
" transform="scale(0.015625)"/>
      <path id="STIXSizeOneSym-Regular-4" d="M 2445 -858 
L 2445 -1050 
Q 1728 -371 1309 630 
Q 890 1632 890 2886 
Q 890 4122 1309 5136 
Q 1728 6150 2445 6822 
L 2445 6630 
Q 1408 5363 1408 2886 
Q 1408 410 2445 -858 
z
" transform="scale(0.015625)"/>
      <path id="DejaVuSans-50" d="M 3328 2828 
Q 3544 3216 3844 3400 
Q 4144 3584 4550 3584 
Q 5097 3584 5394 3201 
Q 5691 2819 5691 2113 
L 5691 0 
L 5113 0 
L 5113 2094 
Q 5113 2597 4934 2840 
Q 4756 3084 4391 3084 
Q 3944 3084 3684 2787 
Q 3425 2491 3425 1978 
L 3425 0 
L 2847 0 
L 2847 2094 
Q 2847 2600 2669 2842 
Q 2491 3084 2119 3084 
Q 1678 3084 1418 2786 
Q 1159 2488 1159 1978 
L 1159 0 
L 581 0 
L 581 3500 
L 1159 3500 
L 1159 2956 
Q 1356 3278 1631 3431 
Q 1906 3584 2284 3584 
Q 2666 3584 2933 3390 
Q 3200 3197 3328 2828 
z
" transform="scale(0.015625)"/>
      <path id="DejaVuSans-12" d="M 1625 4666 
L 2156 4666 
L 531 -594 
L 0 -594 
L 1625 4666 
z
" transform="scale(0.015625)"/>
      <path id="STIXSizeOneSym-Regular-5" d="M 550 6630 
L 550 6822 
Q 1267 6144 1686 5142 
Q 2106 4141 2106 2886 
Q 2106 1651 1686 636 
Q 1267 -378 550 -1050 
L 550 -858 
Q 1587 410 1587 2886 
Q 1587 5363 550 6630 
z
" transform="scale(0.015625)"/>
     </defs>
     <use xlink:href="#DejaVuSans-Oblique-44" transform="translate(0 0.746875)"/>
     <use xlink:href="#DejaVuSans-Oblique-5b" transform="translate(61.279297 -14.253076) scale(0.7)"/>
     <use xlink:href="#DejaVuSans-3" transform="translate(105.439453 0.746875)"/>
     <use xlink:href="#STIXSizeOneSym-Regular-4" transform="translate(137.226562 5.1375) scale(0.833613)"/>
     <use xlink:href="#DejaVuSans-50" transform="translate(176.2388 0.746875)"/>
     <use xlink:href="#DejaVuSans-12" transform="translate(273.650909 0.746875)"/>
     <use xlink:href="#DejaVuSans-56" transform="translate(307.342316 0.746875)"/>
     <use xlink:href="#DejaVuSans-15" transform="translate(360.398956 42.046875) scale(0.7)"/>
     <use xlink:href="#STIXSizeOneSym-Regular-5" transform="translate(407.669464 5.1375) scale(0.833613)"/>
    </g>
   </g>
   <g id="legend_2">
    <g id="patch_13">
     <path d="M 424.9 272.841562 
L 486.2 272.841562 
Q 488.2 272.841562 488.2 270.841562 
L 488.2 241.84 
Q 488.2 239.84 486.2 239.84 
L 424.9 239.84 
Q 422.9 239.84 422.9 241.84 
L 422.9 270.841562 
Q 422.9 272.841562 424.9 272.841562 
z
" style="fill: #ffffff; opacity: 0.8; stroke: #cccccc; stroke-linejoin: miter"/>
    </g>
    <g id="line2d_55">
     <path d="M 426.9 247.938437 
L 436.9 247.938437 
L 446.9 247.938437 
" style="fill: none; stroke: #1f77b4; stroke-width: 1.5; stroke-linecap: square"/>
    </g>
    <g id="text_29">
     <!-- $a_{x,cmd}$ -->
     <g transform="translate(454.9 251.438437) scale(0.1 -0.1)">
      <defs>
       <path id="DejaVuSans-f" d="M 750 794 
L 1409 794 
L 1409 256 
L 897 -744 
L 494 -744 
L 750 256 
L 750 794 
z
" transform="scale(0.015625)"/>
      </defs>
      <use xlink:href="#DejaVuSans-Oblique-44"/>
      <use xlink:href="#DejaVuSans-Oblique-5b" transform="translate(61.279297 -14.999951) scale(0.7)"/>
      <use xlink:href="#DejaVuSans-f" transform="translate(102.705078 -14.999951) scale(0.7)"/>
      <use xlink:href="#DejaVuSans-Oblique-46" transform="translate(138.59375 -14.999951) scale(0.7)"/>
      <use xlink:href="#DejaVuSans-Oblique-50" transform="translate(177.080078 -14.999951) scale(0.7)"/>
      <use xlink:href="#DejaVuSans-Oblique-47" transform="translate(245.268555 -14.999951) scale(0.7)"/>
     </g>
    </g>
    <g id="line2d_56">
     <path d="M 426.9 262.939219 
L 436.9 262.939219 
L 446.9 262.939219 
" style="fill: none; stroke-dasharray: 9.6,2.4,1.5,2.4; stroke-dashoffset: 0; stroke: #ff7f0e; stroke-width: 1.5"/>
    </g>
    <g id="text_30">
     <!-- $a_{x,ref}$ -->
     <g transform="translate(454.9 266.439219) scale(0.1 -0.1)">
      <use xlink:href="#DejaVuSans-Oblique-44"/>
      <use xlink:href="#DejaVuSans-Oblique-5b" transform="translate(61.279297 -14.999951) scale(0.7)"/>
      <use xlink:href="#DejaVuSans-f" transform="translate(102.705078 -14.999951) scale(0.7)"/>
      <use xlink:href="#DejaVuSans-Oblique-55" transform="translate(138.59375 -14.999951) scale(0.7)"/>
      <use xlink:href="#DejaVuSans-Oblique-48" transform="translate(167.373047 -14.999951) scale(0.7)"/>
      <use xlink:href="#DejaVuSans-Oblique-49" transform="translate(210.439453 -14.999951) scale(0.7)"/>
     </g>
    </g>
   </g>
  </g>
  <g id="text_31">
   <!-- QCar2 Inputs -->
   <g transform="translate(212.5575 17.181188) scale(0.12 -0.12)">
    <defs>
     <path id="DejaVuSans-34" d="M 2522 4238 
Q 1834 4238 1429 3725 
Q 1025 3213 1025 2328 
Q 1025 1447 1429 934 
Q 1834 422 2522 422 
Q 3209 422 3611 934 
Q 4013 1447 4013 2328 
Q 4013 3213 3611 3725 
Q 3209 4238 2522 4238 
z
M 3406 84 
L 4238 -825 
L 3475 -825 
L 2784 -78 
Q 2681 -84 2626 -87 
Q 2572 -91 2522 -91 
Q 1538 -91 948 567 
Q 359 1225 359 2328 
Q 359 3434 948 4092 
Q 1538 4750 2522 4750 
Q 3503 4750 4090 4092 
Q 4678 3434 4678 2328 
Q 4678 1516 4351 937 
Q 4025 359 3406 84 
z
" transform="scale(0.015625)"/>
     <path id="DejaVuSans-26" d="M 4122 4306 
L 4122 3641 
Q 3803 3938 3442 4084 
Q 3081 4231 2675 4231 
Q 1875 4231 1450 3742 
Q 1025 3253 1025 2328 
Q 1025 1406 1450 917 
Q 1875 428 2675 428 
Q 3081 428 3442 575 
Q 3803 722 4122 1019 
L 4122 359 
Q 3791 134 3420 21 
Q 3050 -91 2638 -91 
Q 1578 -91 968 557 
Q 359 1206 359 2328 
Q 359 3453 968 4101 
Q 1578 4750 2638 4750 
Q 3056 4750 3426 4639 
Q 3797 4528 4122 4306 
z
" transform="scale(0.015625)"/>
     <path id="DejaVuSans-2c" d="M 628 4666 
L 1259 4666 
L 1259 0 
L 628 0 
L 628 4666 
z
" transform="scale(0.015625)"/>
     <path id="DejaVuSans-51" d="M 3513 2113 
L 3513 0 
L 2938 0 
L 2938 2094 
Q 2938 2591 2744 2837 
Q 2550 3084 2163 3084 
Q 1697 3084 1428 2787 
Q 1159 2491 1159 1978 
L 1159 0 
L 581 0 
L 581 3500 
L 1159 3500 
L 1159 2956 
Q 1366 3272 1645 3428 
Q 1925 3584 2291 3584 
Q 2894 3584 3203 3211 
Q 3513 2838 3513 2113 
z
" transform="scale(0.015625)"/>
     <path id="DejaVuSans-53" d="M 1159 525 
L 1159 -1331 
L 581 -1331 
L 581 3500 
L 1159 3500 
L 1159 2969 
Q 1341 3281 1617 3432 
Q 1894 3584 2278 3584 
Q 2916 3584 3314 3078 
Q 3713 2572 3713 1747 
Q 3713 922 3314 415 
Q 2916 -91 2278 -91 
Q 1894 -91 1617 61 
Q 1341 213 1159 525 
z
M 3116 1747 
Q 3116 2381 2855 2742 
Q 2594 3103 2138 3103 
Q 1681 3103 1420 2742 
Q 1159 2381 1159 1747 
Q 1159 1113 1420 752 
Q 1681 391 2138 391 
Q 2594 391 2855 752 
Q 3116 1113 3116 1747 
z
" transform="scale(0.015625)"/>
     <path id="DejaVuSans-58" d="M 544 1381 
L 544 3500 
L 1119 3500 
L 1119 1403 
Q 1119 906 1312 657 
Q 1506 409 1894 409 
Q 2359 409 2629 706 
Q 2900 1003 2900 1516 
L 2900 3500 
L 3475 3500 
L 3475 0 
L 2900 0 
L 2900 538 
Q 2691 219 2414 64 
Q 2138 -91 1772 -91 
Q 1169 -91 856 284 
Q 544 659 544 1381 
z
M 1991 3584 
L 1991 3584 
z
" transform="scale(0.015625)"/>
    </defs>
    <use xlink:href="#DejaVuSans-34"/>
    <use xlink:href="#DejaVuSans-26" transform="translate(78.71875 0)"/>
    <use xlink:href="#DejaVuSans-44" transform="translate(148.546875 0)"/>
    <use xlink:href="#DejaVuSans-55" transform="translate(209.828125 0)"/>
    <use xlink:href="#DejaVuSans-15" transform="translate(250.9375 0)"/>
    <use xlink:href="#DejaVuSans-3" transform="translate(314.5625 0)"/>
    <use xlink:href="#DejaVuSans-2c" transform="translate(346.34375 0)"/>
    <use xlink:href="#DejaVuSans-51" transform="translate(375.84375 0)"/>
    <use xlink:href="#DejaVuSans-53" transform="translate(439.21875 0)"/>
    <use xlink:href="#DejaVuSans-58" transform="translate(502.703125 0)"/>
    <use xlink:href="#DejaVuSans-57" transform="translate(566.078125 0)"/>
    <use xlink:href="#DejaVuSans-56" transform="translate(605.28125 0)"/>
   </g>
  </g>
 </g>
 <defs>
  <clipPath id="p655a55c714">
   <rect x="42.28" y="48.96" width="450.92" height="126.237656"/>
  </clipPath>
  <clipPath id="pc5952b9f2e">
   <rect x="42.28" y="234.84" width="450.92" height="126.237656"/>
  </clipPath>
 </defs>
</svg>
