<?xml version="1.0" encoding="utf-8" standalone="no"?>
<!DOCTYPE svg PUBLIC "-//W3C//DTD SVG 1.1//EN"
  "http://www.w3.org/Graphics/SVG/1.1/DTD/svg11.dtd">
<svg xmlns:xlink="http://www.w3.org/1999/xlink" width="504pt" height="230.4pt" viewBox="0 0 504 230.4" xmlns="http://www.w3.org/2000/svg" version="1.1">
 <metadata>
  <rdf:RDF xmlns:dc="http://purl.org/dc/elements/1.1/" xmlns:cc="http://creativecommons.org/ns#" xmlns:rdf="http://www.w3.org/1999/02/22-rdf-syntax-ns#">
   <cc:Work>
    <dc:type rdf:resource="http://purl.org/dc/dcmitype/StillImage"/>
    <dc:date>2026-07-10T12:40:38.781182</dc:date>
    <dc:format>image/svg+xml</dc:format>
    <dc:creator>
     <cc:Agent>
      <dc:title>Matplotlib v3.11.0, https://matplotlib.org/</dc:title>
     </cc:Agent>
    </dc:creator>
   </cc:Work>
  </rdf:RDF>
 </metadata>
 <defs>
  <style type="text/css">*{stroke-linejoin: round; stroke-linecap: butt}</style>
 </defs>
 <g id="figure_1">
  <g id="patch_1">
   <path d="M 0 230.4 
L 504 230.4 
L 504 0 
L 0 0 
z
" style="fill: #ffffff"/>
  </g>
  <g id="axes_1">
   <g id="patch_2">
    <path d="M 54.442344 188.277656 
L 493.2 188.277656 
L 493.2 26.16 
L 54.442344 26.16 
z
" style="fill: #ffffff"/>
   </g>
   <g id="matplotlib.axis_1">
    <g id="xtick_1">
     <g id="line2d_1">
      <path d="M 73.956989 188.277656 
L 73.956989 26.16 
" clip-path="url(#pfa0d1649b8)" style="fill: none; stroke: #b0b0b0; stroke-width: 0.8; stroke-linecap: square"/>
     </g>
     <g id="line2d_2">
      <defs>
       <path id="m01dce58291" d="M 0 0 
L 0 3.5 
" style="stroke: #000000; stroke-width: 0.8"/>
      </defs>
      <g>
       <use xlink:href="#m01dce58291" x="73.956989" y="188.277656" style="stroke: #000000; stroke-width: 0.8"/>
      </g>
     </g>
     <g id="text_1">
      <!-- 0 -->
      <g transform="translate(70.775739 202.875313) scale(0.1 -0.1)">
       <defs>
        <path id="DejaVuSans-13" d="M 2034 4250 
Q 1547 4250 1301 3770 
Q 1056 3291 1056 2328 
Q 1056 1369 1301 889 
Q 1547 409 2034 409 
Q 2525 409 2770 889 
Q 3016 1369 3016 2328 
Q 3016 3291 2770 3770 
Q 2525 4250 2034 4250 
z
M 2034 4750 
Q 2819 4750 3233 4129 
Q 3647 3509 3647 2328 
Q 3647 1150 3233 529 
Q 2819 -91 2034 -91 
Q 1250 -91 836 529 
Q 422 1150 422 2328 
Q 422 3509 836 4129 
Q 1250 4750 2034 4750 
z
" transform="scale(0.015625)"/>
       </defs>
       <use xlink:href="#DejaVuSans-13"/>
      </g>
     </g>
    </g>
    <g id="xtick_2">
     <g id="line2d_3">
      <path d="M 140.602054 188.277656 
L 140.602054 26.16 
" clip-path="url(#pfa0d1649b8)" style="fill: none; stroke: #b0b0b0; stroke-width: 0.8; stroke-linecap: square"/>
     </g>
     <g id="line2d_4">
      <g>
       <use xlink:href="#m01dce58291" x="140.602054" y="188.277656" style="stroke: #000000; stroke-width: 0.8"/>
      </g>
     </g>
     <g id="text_2">
      <!-- 10 -->
      <g transform="translate(134.239554 202.875313) scale(0.1 -0.1)">
       <defs>
        <path id="DejaVuSans-14" d="M 794 531 
L 1825 531 
L 1825 4091 
L 703 3866 
L 703 4441 
L 1819 4666 
L 2450 4666 
L 2450 531 
L 3481 531 
L 3481 0 
L 794 0 
L 794 531 
z
" transform="scale(0.015625)"/>
       </defs>
       <use xlink:href="#DejaVuSans-14"/>
       <use xlink:href="#DejaVuSans-13" transform="translate(63.625 0)"/>
      </g>
     </g>
    </g>
    <g id="xtick_3">
     <g id="line2d_5">
      <path d="M 207.247119 188.277656 
L 207.247119 26.16 
" clip-path="url(#pfa0d1649b8)" style="fill: none; stroke: #b0b0b0; stroke-width: 0.8; stroke-linecap: square"/>
     </g>
     <g id="line2d_6">
      <g>
       <use xlink:href="#m01dce58291" x="207.247119" y="188.277656" style="stroke: #000000; stroke-width: 0.8"/>
      </g>
     </g>
     <g id="text_3">
      <!-- 20 -->
      <g transform="translate(200.884619 202.875313) scale(0.1 -0.1)">
       <defs>
        <path id="DejaVuSans-15" d="M 1228 531 
L 3431 531 
L 3431 0 
L 469 0 
L 469 531 
Q 828 903 1448 1529 
Q 2069 2156 2228 2338 
Q 2531 2678 2651 2914 
Q 2772 3150 2772 3378 
Q 2772 3750 2511 3984 
Q 2250 4219 1831 4219 
Q 1534 4219 1204 4116 
Q 875 4013 500 3803 
L 500 4441 
Q 881 4594 1212 4672 
Q 1544 4750 1819 4750 
Q 2544 4750 2975 4387 
Q 3406 4025 3406 3419 
Q 3406 3131 3298 2873 
Q 3191 2616 2906 2266 
Q 2828 2175 2409 1742 
Q 1991 1309 1228 531 
z
" transform="scale(0.015625)"/>
       </defs>
       <use xlink:href="#DejaVuSans-15"/>
       <use xlink:href="#DejaVuSans-13" transform="translate(63.625 0)"/>
      </g>
     </g>
    </g>
    <g id="xtick_4">
     <g id="line2d_7">
      <path d="M 273.892185 188.277656 
L 273.892185 26.16 
" clip-path="url(#pfa0d1649b8)" style="fill: none; stroke: #b0b0b0; stroke-width: 0.8; stroke-linecap: square"/>
     </g>
     <g id="line2d_8">
      <g>
       <use xlink:href="#m01dce58291" x="273.892185" y="188.277656" style="stroke: #000000; stroke-width: 0.8"/>
      </g>
     </g>
     <g id="text_4">
      <!-- 30 -->
      <g transform="translate(267.529685 202.875313) scale(0.1 -0.1)">
       <defs>
        <path id="DejaVuSans-16" d="M 2597 2516 
Q 3050 2419 3304 2112 
Q 3559 1806 3559 1356 
Q 3559 666 3084 287 
Q 2609 -91 1734 -91 
Q 1441 -91 1130 -33 
Q 819 25 488 141 
L 488 750 
Q 750 597 1062 519 
Q 1375 441 1716 441 
Q 2309 441 2620 675 
Q 2931 909 2931 1356 
Q 2931 1769 2642 2001 
Q 2353 2234 1838 2234 
L 1294 2234 
L 1294 2753 
L 1863 2753 
Q 2328 2753 2575 2939 
Q 2822 3125 2822 3475 
Q 2822 3834 2567 4026 
Q 2313 4219 1838 4219 
Q 1578 4219 1281 4162 
Q 984 4106 628 3988 
L 628 4550 
Q 988 4650 1302 4700 
Q 1616 4750 1894 4750 
Q 2613 4750 3031 4423 
Q 3450 4097 3450 3541 
Q 3450 3153 3228 2886 
Q 3006 2619 2597 2516 
z
" transform="scale(0.015625)"/>
       </defs>
       <use xlink:href="#DejaVuSans-16"/>
       <use xlink:href="#DejaVuSans-13" transform="translate(63.625 0)"/>
      </g>
     </g>
    </g>
    <g id="xtick_5">
     <g id="line2d_9">
      <path d="M 340.53725 188.277656 
L 340.53725 26.16 
" clip-path="url(#pfa0d1649b8)" style="fill: none; stroke: #b0b0b0; stroke-width: 0.8; stroke-linecap: square"/>
     </g>
     <g id="line2d_10">
      <g>
       <use xlink:href="#m01dce58291" x="340.53725" y="188.277656" style="stroke: #000000; stroke-width: 0.8"/>
      </g>
     </g>
     <g id="text_5">
      <!-- 40 -->
      <g transform="translate(334.17475 202.875313) scale(0.1 -0.1)">
       <defs>
        <path id="DejaVuSans-17" d="M 2419 4116 
L 825 1625 
L 2419 1625 
L 2419 4116 
z
M 2253 4666 
L 3047 4666 
L 3047 1625 
L 3713 1625 
L 3713 1100 
L 3047 1100 
L 3047 0 
L 2419 0 
L 2419 1100 
L 313 1100 
L 313 1709 
L 2253 4666 
z
" transform="scale(0.015625)"/>
       </defs>
       <use xlink:href="#DejaVuSans-17"/>
       <use xlink:href="#DejaVuSans-13" transform="translate(63.625 0)"/>
      </g>
     </g>
    </g>
    <g id="xtick_6">
     <g id="line2d_11">
      <path d="M 407.182315 188.277656 
L 407.182315 26.16 
" clip-path="url(#pfa0d1649b8)" style="fill: none; stroke: #b0b0b0; stroke-width: 0.8; stroke-linecap: square"/>
     </g>
     <g id="line2d_12">
      <g>
       <use xlink:href="#m01dce58291" x="407.182315" y="188.277656" style="stroke: #000000; stroke-width: 0.8"/>
      </g>
     </g>
     <g id="text_6">
      <!-- 50 -->
      <g transform="translate(400.819815 202.875313) scale(0.1 -0.1)">
       <defs>
        <path id="DejaVuSans-18" d="M 691 4666 
L 3169 4666 
L 3169 4134 
L 1269 4134 
L 1269 2991 
Q 1406 3038 1543 3061 
Q 1681 3084 1819 3084 
Q 2600 3084 3056 2656 
Q 3513 2228 3513 1497 
Q 3513 744 3044 326 
Q 2575 -91 1722 -91 
Q 1428 -91 1123 -41 
Q 819 9 494 109 
L 494 744 
Q 775 591 1075 516 
Q 1375 441 1709 441 
Q 2250 441 2565 725 
Q 2881 1009 2881 1497 
Q 2881 1984 2565 2268 
Q 2250 2553 1709 2553 
Q 1456 2553 1204 2497 
Q 953 2441 691 2322 
L 691 4666 
z
" transform="scale(0.015625)"/>
       </defs>
       <use xlink:href="#DejaVuSans-18"/>
       <use xlink:href="#DejaVuSans-13" transform="translate(63.625 0)"/>
      </g>
     </g>
    </g>
    <g id="xtick_7">
     <g id="line2d_13">
      <path d="M 473.82738 188.277656 
L 473.82738 26.16 
" clip-path="url(#pfa0d1649b8)" style="fill: none; stroke: #b0b0b0; stroke-width: 0.8; stroke-linecap: square"/>
     </g>
     <g id="line2d_14">
      <g>
       <use xlink:href="#m01dce58291" x="473.82738" y="188.277656" style="stroke: #000000; stroke-width: 0.8"/>
      </g>
     </g>
     <g id="text_7">
      <!-- 60 -->
      <g transform="translate(467.46488 202.875313) scale(0.1 -0.1)">
       <defs>
        <path id="DejaVuSans-19" d="M 2113 2584 
Q 1688 2584 1439 2293 
Q 1191 2003 1191 1497 
Q 1191 994 1439 701 
Q 1688 409 2113 409 
Q 2538 409 2786 701 
Q 3034 994 3034 1497 
Q 3034 2003 2786 2293 
Q 2538 2584 2113 2584 
z
M 3366 4563 
L 3366 3988 
Q 3128 4100 2886 4159 
Q 2644 4219 2406 4219 
Q 1781 4219 1451 3797 
Q 1122 3375 1075 2522 
Q 1259 2794 1537 2939 
Q 1816 3084 2150 3084 
Q 2853 3084 3261 2657 
Q 3669 2231 3669 1497 
Q 3669 778 3244 343 
Q 2819 -91 2113 -91 
Q 1303 -91 875 529 
Q 447 1150 447 2328 
Q 447 3434 972 4092 
Q 1497 4750 2381 4750 
Q 2619 4750 2861 4703 
Q 3103 4656 3366 4563 
z
" transform="scale(0.015625)"/>
       </defs>
       <use xlink:href="#DejaVuSans-19"/>
       <use xlink:href="#DejaVuSans-13" transform="translate(63.625 0)"/>
      </g>
     </g>
    </g>
    <g id="text_8">
     <!-- t (s) -->
     <g transform="translate(263.765703 216.875313) scale(0.1 -0.1)">
      <defs>
       <path id="DejaVuSans-57" d="M 1172 4494 
L 1172 3500 
L 2356 3500 
L 2356 3053 
L 1172 3053 
L 1172 1153 
Q 1172 725 1289 603 
Q 1406 481 1766 481 
L 2356 481 
L 2356 0 
L 1766 0 
Q 1100 0 847 248 
Q 594 497 594 1153 
L 594 3053 
L 172 3053 
L 172 3500 
L 594 3500 
L 594 4494 
L 1172 4494 
z
" transform="scale(0.015625)"/>
       <path id="DejaVuSans-3" transform="scale(0.015625)"/>
       <path id="DejaVuSans-b" d="M 1984 4856 
Q 1566 4138 1362 3434 
Q 1159 2731 1159 2009 
Q 1159 1288 1364 580 
Q 1569 -128 1984 -844 
L 1484 -844 
Q 1016 -109 783 600 
Q 550 1309 550 2009 
Q 550 2706 781 3412 
Q 1013 4119 1484 4856 
L 1984 4856 
z
" transform="scale(0.015625)"/>
       <path id="DejaVuSans-56" d="M 2834 3397 
L 2834 2853 
Q 2591 2978 2328 3040 
Q 2066 3103 1784 3103 
Q 1356 3103 1142 2972 
Q 928 2841 928 2578 
Q 928 2378 1081 2264 
Q 1234 2150 1697 2047 
L 1894 2003 
Q 2506 1872 2764 1633 
Q 3022 1394 3022 966 
Q 3022 478 2636 193 
Q 2250 -91 1575 -91 
Q 1294 -91 989 -36 
Q 684 19 347 128 
L 347 722 
Q 666 556 975 473 
Q 1284 391 1588 391 
Q 1994 391 2212 530 
Q 2431 669 2431 922 
Q 2431 1156 2273 1281 
Q 2116 1406 1581 1522 
L 1381 1569 
Q 847 1681 609 1914 
Q 372 2147 372 2553 
Q 372 3047 722 3315 
Q 1072 3584 1716 3584 
Q 2034 3584 2315 3537 
Q 2597 3491 2834 3397 
z
" transform="scale(0.015625)"/>
       <path id="DejaVuSans-c" d="M 513 4856 
L 1013 4856 
Q 1481 4119 1714 3412 
Q 1947 2706 1947 2009 
Q 1947 1309 1714 600 
Q 1481 -109 1013 -844 
L 513 -844 
Q 928 -128 1133 580 
Q 1338 1288 1338 2009 
Q 1338 2731 1133 3434 
Q 928 4138 513 4856 
z
" transform="scale(0.015625)"/>
      </defs>
      <use xlink:href="#DejaVuSans-57"/>
      <use xlink:href="#DejaVuSans-3" transform="translate(39.203125 0)"/>
      <use xlink:href="#DejaVuSans-b" transform="translate(70.984375 0)"/>
      <use xlink:href="#DejaVuSans-56" transform="translate(110 0)"/>
      <use xlink:href="#DejaVuSans-c" transform="translate(162.09375 0)"/>
     </g>
    </g>
   </g>
   <g id="matplotlib.axis_2">
    <g id="ytick_1">
     <g id="line2d_15">
      <path d="M 54.442344 167.612464 
L 493.2 167.612464 
" clip-path="url(#pfa0d1649b8)" style="fill: none; stroke: #b0b0b0; stroke-width: 0.8; stroke-linecap: square"/>
     </g>
     <g id="line2d_16">
      <defs>
       <path id="md229035599" d="M 0 0 
L -3.5 0 
" style="stroke: #000000; stroke-width: 0.8"/>
      </defs>
      <g>
       <use xlink:href="#md229035599" x="54.442344" y="167.612464" style="stroke: #000000; stroke-width: 0.8"/>
      </g>
     </g>
     <g id="text_9">
      <!-- 0.01 -->
      <g transform="translate(25.176719 171.411292) scale(0.1 -0.1)">
       <defs>
        <path id="DejaVuSans-11" d="M 684 794 
L 1344 794 
L 1344 0 
L 684 0 
L 684 794 
z
" transform="scale(0.015625)"/>
       </defs>
       <use xlink:href="#DejaVuSans-13"/>
       <use xlink:href="#DejaVuSans-11" transform="translate(63.625 0)"/>
       <use xlink:href="#DejaVuSans-13" transform="translate(95.40625 0)"/>
       <use xlink:href="#DejaVuSans-14" transform="translate(159.03125 0)"/>
      </g>
     </g>
    </g>
    <g id="ytick_2">
     <g id="line2d_17">
      <path d="M 54.442344 137.189145 
L 493.2 137.189145 
" clip-path="url(#pfa0d1649b8)" style="fill: none; stroke: #b0b0b0; stroke-width: 0.8; stroke-linecap: square"/>
     </g>
     <g id="line2d_18">
      <g>
       <use xlink:href="#md229035599" x="54.442344" y="137.189145" style="stroke: #000000; stroke-width: 0.8"/>
      </g>
     </g>
     <g id="text_10">
      <!-- 0.02 -->
      <g transform="translate(25.176719 140.987973) scale(0.1 -0.1)">
       <use xlink:href="#DejaVuSans-13"/>
       <use xlink:href="#DejaVuSans-11" transform="translate(63.625 0)"/>
       <use xlink:href="#DejaVuSans-13" transform="translate(95.40625 0)"/>
       <use xlink:href="#DejaVuSans-15" transform="translate(159.03125 0)"/>
      </g>
     </g>
    </g>
    <g id="ytick_3">
     <g id="line2d_19">
      <path d="M 54.442344 106.765825 
L 493.2 106.765825 
" clip-path="url(#pfa0d1649b8)" style="fill: none; stroke: #b0b0b0; stroke-width: 0.8; stroke-linecap: square"/>
     </g>
     <g id="line2d_20">
      <g>
       <use xlink:href="#md229035599" x="54.442344" y="106.765825" style="stroke: #000000; stroke-width: 0.8"/>
      </g>
     </g>
     <g id="text_11">
      <!-- 0.03 -->
      <g transform="translate(25.176719 110.564653) scale(0.1 -0.1)">
       <use xlink:href="#DejaVuSans-13"/>
       <use xlink:href="#DejaVuSans-11" transform="translate(63.625 0)"/>
       <use xlink:href="#DejaVuSans-13" transform="translate(95.40625 0)"/>
       <use xlink:href="#DejaVuSans-16" transform="translate(159.03125 0)"/>
      </g>
     </g>
    </g>
    <g id="ytick_4">
     <g id="line2d_21">
      <path d="M 54.442344 76.342505 
L 493.2 76.342505 
" clip-path="url(#pfa0d1649b8)" style="fill: none; stroke: #b0b0b0; stroke-width: 0.8; stroke-linecap: square"/>
     </g>
     <g id="line2d_22">
      <g>
       <use xlink:href="#md229035599" x="54.442344" y="76.342505" style="stroke: #000000; stroke-width: 0.8"/>
      </g>
     </g>
     <g id="text_12">
      <!-- 0.04 -->
      <g transform="translate(25.176719 80.141333) scale(0.1 -0.1)">
       <use xlink:href="#DejaVuSans-13"/>
       <use xlink:href="#DejaVuSans-11" transform="translate(63.625 0)"/>
       <use xlink:href="#DejaVuSans-13" transform="translate(95.40625 0)"/>
       <use xlink:href="#DejaVuSans-17" transform="translate(159.03125 0)"/>
      </g>
     </g>
    </g>
    <g id="ytick_5">
     <g id="line2d_23">
      <path d="M 54.442344 45.919186 
L 493.2 45.919186 
" clip-path="url(#pfa0d1649b8)" style="fill: none; stroke: #b0b0b0; stroke-width: 0.8; stroke-linecap: square"/>
     </g>
     <g id="line2d_24">
      <g>
       <use xlink:href="#md229035599" x="54.442344" y="45.919186" style="stroke: #000000; stroke-width: 0.8"/>
      </g>
     </g>
     <g id="text_13">
      <!-- 0.05 -->
      <g transform="translate(25.176719 49.718014) scale(0.1 -0.1)">
       <use xlink:href="#DejaVuSans-13"/>
       <use xlink:href="#DejaVuSans-11" transform="translate(63.625 0)"/>
       <use xlink:href="#DejaVuSans-13" transform="translate(95.40625 0)"/>
       <use xlink:href="#DejaVuSans-18" transform="translate(159.03125 0)"/>
      </g>
     </g>
    </g>
    <g id="text_14">
     <!-- Time (s) -->
     <g transform="translate(18.774375 127.550078) rotate(-90) scale(0.1 -0.1)">
      <defs>
       <path id="DejaVuSans-37" d="M -19 4666 
L 3928 4666 
L 3928 4134 
L 2272 4134 
L 2272 0 
L 1638 0 
L 1638 4134 
L -19 4134 
L -19 4666 
z
" transform="scale(0.015625)"/>
       <path id="DejaVuSans-4c" d="M 603 3500 
L 1178 3500 
L 1178 0 
L 603 0 
L 603 3500 
z
M 603 4863 
L 1178 4863 
L 1178 4134 
L 603 4134 
L 603 4863 
z
" transform="scale(0.015625)"/>
       <path id="DejaVuSans-50" d="M 3328 2828 
Q 3544 3216 3844 3400 
Q 4144 3584 4550 3584 
Q 5097 3584 5394 3201 
Q 5691 2819 5691 2113 
L 5691 0 
L 5113 0 
L 5113 2094 
Q 5113 2597 4934 2840 
Q 4756 3084 4391 3084 
Q 3944 3084 3684 2787 
Q 3425 2491 3425 1978 
L 3425 0 
L 2847 0 
L 2847 2094 
Q 2847 2600 2669 2842 
Q 2491 3084 2119 3084 
Q 1678 3084 1418 2786 
Q 1159 2488 1159 1978 
L 1159 0 
L 581 0 
L 581 3500 
L 1159 3500 
L 1159 2956 
Q 1356 3278 1631 3431 
Q 1906 3584 2284 3584 
Q 2666 3584 2933 3390 
Q 3200 3197 3328 2828 
z
" transform="scale(0.015625)"/>
       <path id="DejaVuSans-48" d="M 3597 1894 
L 3597 1613 
L 953 1613 
Q 991 1019 1311 708 
Q 1631 397 2203 397 
Q 2534 397 2845 478 
Q 3156 559 3463 722 
L 3463 178 
Q 3153 47 2828 -22 
Q 2503 -91 2169 -91 
Q 1331 -91 842 396 
Q 353 884 353 1716 
Q 353 2575 817 3079 
Q 1281 3584 2069 3584 
Q 2775 3584 3186 3129 
Q 3597 2675 3597 1894 
z
M 3022 2063 
Q 3016 2534 2758 2815 
Q 2500 3097 2075 3097 
Q 1594 3097 1305 2825 
Q 1016 2553 972 2059 
L 3022 2063 
z
" transform="scale(0.015625)"/>
      </defs>
      <use xlink:href="#DejaVuSans-37"/>
      <use xlink:href="#DejaVuSans-4c" transform="translate(58 0)"/>
      <use xlink:href="#DejaVuSans-50" transform="translate(85.78125 0)"/>
      <use xlink:href="#DejaVuSans-48" transform="translate(183.1875 0)"/>
      <use xlink:href="#DejaVuSans-3" transform="translate(244.71875 0)"/>
      <use xlink:href="#DejaVuSans-b" transform="translate(276.5 0)"/>
      <use xlink:href="#DejaVuSans-56" transform="translate(315.515625 0)"/>
      <use xlink:href="#DejaVuSans-c" transform="translate(367.609375 0)"/>
     </g>
    </g>
   </g>
   <g id="line2d_25">
    <path d="M 74.385874 145.286615 
L 74.852737 161.28411 
L 75.318975 170.852548 
L 75.788216 167.278416 
L 76.251862 168.250137 
L 76.71855 171.452191 
L 77.187943 169.129371 
L 77.65398 173.421493 
L 78.117833 166.96536 
L 78.584615 168.441804 
L 79.051271 167.90392 
L 79.520015 164.502897 
L 79.987181 163.823848 
L 80.451338 148.945324 
L 80.91804 118.845708 
L 81.388479 138.385085 
L 81.852086 150.398037 
L 82.317806 168.087372 
L 82.784473 155.533494 
L 83.251469 161.387549 
L 83.717931 172.273317 
L 84.184834 170.694955 
L 84.6518 169.985483 
L 85.116112 154.664908 
L 85.584931 161.006953 
L 86.515621 166.162489 
L 86.982058 167.36634 
L 87.447931 162.495566 
L 87.91742 151.195737 
L 88.384269 157.784211 
L 88.848685 167.589038 
L 89.313911 146.620069 
L 89.782838 166.94376 
L 90.249819 160.779995 
L 90.715128 165.275649 
L 91.182024 167.011604 
L 91.649147 160.020021 
L 92.116925 163.534522 
L 92.582784 159.750774 
L 93.047972 145.53274 
L 93.515502 159.224146 
L 94.445917 169.740271 
L 94.913836 156.577014 
L 95.380614 168.411685 
L 95.845724 162.768768 
L 96.314629 163.603888 
L 96.778577 161.915089 
L 97.246581 161.181583 
L 97.713871 162.933053 
L 98.181233 145.213295 
L 98.644582 160.800074 
L 99.1125 155.730028 
L 99.578781 159.358618 
L 100.04491 157.515269 
L 100.510812 158.58982 
L 100.977821 148.980311 
L 101.444183 161.279242 
L 101.910568 159.878856 
L 102.376363 164.368426 
L 102.843986 33.528984 
L 103.512138 142.272273 
L 103.956468 155.438877 
L 104.400738 163.826586 
L 104.844756 158.828035 
L 105.733267 166.449381 
L 106.177466 163.434126 
L 106.622202 165.839393 
L 107.066565 170.069147 
L 107.510582 164.515979 
L 107.975257 170.781053 
L 108.442229 167.425969 
L 108.9094 170.999188 
L 109.376654 168.675151 
L 109.841504 172.034798 
L 110.308362 172.702286 
L 110.775739 170.868064 
L 111.241139 176.836815 
L 111.707225 173.615898 
L 112.175592 171.620128 
L 112.640352 167.019209 
L 113.107497 172.243502 
L 113.573024 169.604279 
L 114.03979 120.718264 
L 114.507345 128.133339 
L 114.972462 158.711818 
L 115.44196 175.58094 
L 115.905681 173.733636 
L 116.373345 172.625619 
L 116.840356 165.577448 
L 117.307728 168.643206 
L 117.774348 170.081012 
L 118.241396 169.525787 
L 118.705191 169.984571 
L 119.171544 164.770318 
L 119.641114 166.645003 
L 120.105055 163.268318 
L 121.038899 178.059528 
L 121.505528 163.930026 
L 121.971265 175.548691 
L 122.439701 173.155897 
L 122.903957 164.139338 
L 123.370471 167.238562 
L 123.836842 177.560586 
L 124.305755 168.737823 
L 124.772498 175.23594 
L 125.236957 163.337684 
L 125.702438 163.814721 
L 126.169319 164.942209 
L 126.637953 167.781314 
L 127.104367 173.211572 
L 127.571691 164.211137 
L 128.03584 175.345464 
L 128.503311 179.549054 
L 128.971327 176.56696 
L 129.437268 172.028713 
L 129.904085 176.60651 
L 130.371065 177.057992 
L 130.837244 176.611378 
L 131.301455 174.933228 
L 131.768221 175.423043 
L 132.236111 162.940659 
L 132.701765 167.302755 
L 133.168845 161.686306 
L 133.633547 174.793889 
L 134.101024 166.039274 
L 134.569025 168.544939 
L 135.033976 169.951713 
L 135.500269 171.89911 
L 135.966749 163.410091 
L 136.433798 175.710239 
L 136.899025 175.122461 
L 137.832312 177.48757 
L 138.298459 176.801524 
L 138.766793 175.023281 
L 139.23478 174.005621 
L 139.699441 172.608886 
L 140.166436 166.897516 
L 140.63199 174.241401 
L 141.099047 168.986686 
L 141.564688 171.580882 
L 142.030378 171.261437 
L 142.498598 171.218845 
L 142.965884 172.121504 
L 143.431407 154.765305 
L 143.898561 159.913539 
L 144.365649 168.728696 
L 144.83057 168.610958 
L 145.297734 144.070595 
L 145.764833 160.73223 
L 146.230948 167.962028 
L 146.697913 162.59718 
L 147.162867 166.153362 
L 147.629956 166.434777 
L 148.095452 165.572885 
L 148.563814 167.635586 
L 149.028396 167.945904 
L 149.49602 164.451786 
L 149.962826 167.997928 
L 150.429279 168.148827 
L 150.897383 166.247066 
L 151.36204 159.986555 
L 151.827336 162.889548 
L 152.296092 162.33919 
L 152.76268 164.556138 
L 153.22825 167.990626 
L 153.696999 169.426911 
L 154.164128 160.418566 
L 154.629481 170.703473 
L 155.096156 140.761451 
L 155.562118 170.917045 
L 156.026562 170.442441 
L 156.492811 168.164952 
L 156.960925 170.7844 
L 157.427198 154.764392 
L 157.892353 164.975675 
L 158.358817 138.536289 
L 158.826949 163.079694 
L 159.293402 167.608509 
L 159.759476 155.492422 
L 160.225514 158.356778 
L 160.693957 168.130878 
L 161.159589 168.289992 
L 161.626054 156.404209 
L 162.090723 169.388578 
L 162.559969 161.398197 
L 163.025232 164.169457 
L 163.491735 162.504389 
L 163.958734 164.769709 
L 164.42696 153.037565 
L 164.891233 171.412033 
L 165.357297 171.314678 
L 165.824694 170.851027 
L 166.75757 176.737331 
L 167.222718 174.473227 
L 167.692399 171.151609 
L 168.156189 171.913105 
L 168.624234 173.286109 
L 169.09151 165.227276 
L 169.555599 174.863863 
L 170.024376 160.726754 
L 170.488512 173.00226 
L 170.955779 173.734853 
L 171.422599 167.547358 
L 171.88936 164.49955 
L 172.353577 168.904543 
L 172.820991 170.876886 
L 173.28712 169.285138 
L 173.754076 164.945556 
L 174.222686 172.459203 
L 174.689794 172.187219 
L 175.155225 170.214875 
L 175.622719 172.938371 
L 176.086543 171.524903 
L 176.555431 164.446309 
L 177.019885 173.390765 
L 177.486355 170.092573 
L 177.952816 174.59492 
L 178.419886 163.718279 
L 179.352573 173.712644 
L 179.82208 175.599803 
L 180.286315 174.50578 
L 180.753466 175.312302 
L 181.22004 177.239619 
L 181.686335 175.154709 
L 182.154047 175.199432 
L 182.620642 172.594891 
L 183.086003 177.049474 
L 183.551918 131.458 
L 184.019814 160.136846 
L 184.483042 175.952713 
L 184.954022 154.878175 
L 185.416624 172.594891 
L 185.884785 175.106641 
L 186.352272 176.070756 
L 186.818242 173.835858 
L 187.283451 147.976037 
L 187.751458 168.216976 
L 188.216985 170.493248 
L 188.683063 146.997927 
L 189.148794 170.859241 
L 189.616146 173.965766 
L 190.083117 174.700793 
L 190.550522 174.679193 
L 191.015773 170.909744 
L 191.484016 169.237678 
L 191.949557 139.679293 
L 192.415103 174.393518 
L 192.882222 168.619172 
L 193.347293 167.683655 
L 193.813844 166.133587 
L 194.280597 156.419725 
L 194.748658 166.311563 
L 195.214092 167.029553 
L 195.680027 171.47075 
L 196.148709 172.715368 
L 196.613147 167.999753 
L 197.080346 167.653232 
L 197.548725 171.875988 
L 198.014702 171.542244 
L 198.48208 169.094688 
L 198.94583 169.582374 
L 199.415075 171.149784 
L 199.879493 167.646843 
L 200.347869 169.642004 
L 201.28134 169.302784 
L 201.747261 159.488829 
L 202.213234 168.462492 
L 202.678838 168.392822 
L 203.611763 165.348361 
L 204.078798 168.063034 
L 204.543311 172.515791 
L 205.013401 168.402558 
L 205.479661 161.389983 
L 205.945404 169.537956 
L 206.411771 167.331353 
L 206.876745 167.531842 
L 207.343459 165.738083 
L 207.810978 163.097644 
L 208.276949 167.073059 
L 208.743478 169.825457 
L 209.208412 168.68732 
L 209.676155 167.99519 
L 210.142697 169.143061 
L 210.610622 169.599411 
L 211.076348 171.241966 
L 211.541559 174.082287 
L 212.010061 169.639266 
L 212.475106 173.652102 
L 212.943887 171.675803 
L 213.40761 172.832193 
L 213.874767 168.504476 
L 214.343069 171.757642 
L 214.810133 172.25202 
L 215.742197 167.500202 
L 216.209594 165.850954 
L 216.673738 171.690406 
L 217.142362 166.336814 
L 217.606151 171.75034 
L 218.074644 171.709573 
L 218.54013 172.116028 
L 219.006297 171.44489 
L 219.472009 170.578434 
L 220.40806 170.880537 
L 220.873085 167.744501 
L 221.339957 168.289079 
L 221.80793 169.59576 
L 222.274824 169.013458 
L 222.741408 161.701822 
L 223.20514 142.995131 
L 223.67362 171.216411 
L 224.139241 174.845 
L 224.607598 171.840697 
L 225.071331 174.087764 
L 225.539912 173.214006 
L 226.004803 170.100483 
L 226.470974 173.964245 
L 226.936094 171.376437 
L 227.406643 172.786254 
L 227.872778 172.489627 
L 228.337682 179.069886 
L 228.803973 178.060441 
L 229.273097 179.490945 
L 230.203794 176.287674 
L 230.66914 170.01043 
L 231.135451 171.81575 
L 231.60254 172.942021 
L 232.068569 172.439428 
L 232.5356 174.800582 
L 233.003086 162.193767 
L 233.468759 173.830382 
L 233.936016 141.024004 
L 234.404361 128.729332 
L 234.869452 171.614043 
L 235.335522 170.633196 
L 235.802924 174.07742 
L 236.267526 172.646915 
L 236.733886 169.162228 
L 237.201713 142.445686 
L 237.666728 174.769854 
L 238.133922 170.569002 
L 238.601515 173.565395 
L 239.069215 170.388896 
L 239.534581 172.795381 
L 240.001252 173.44066 
L 240.467637 176.983759 
L 240.934772 164.281111 
L 241.398721 169.41748 
L 241.865523 168.690362 
L 242.333909 172.647828 
L 242.800206 166.932807 
L 243.265657 172.834627 
L 243.731366 162.011227 
L 244.19842 121.838754 
L 244.665699 172.604323 
L 245.130414 173.176889 
L 245.598802 168.362399 
L 246.066445 170.879929 
L 246.532291 175.08717 
L 246.99944 172.949627 
L 247.465207 174.911931 
L 247.930059 174.929273 
L 248.397816 177.40208 
L 248.86296 176.703256 
L 249.329686 174.442804 
L 250.265523 171.738171 
L 250.729972 170.581476 
L 251.197594 160.390881 
L 251.661823 170.694955 
L 252.131419 168.58814 
L 252.596336 172.131848 
L 253.063574 172.532828 
L 253.530788 170.877495 
L 253.996401 167.539448 
L 254.930966 170.584823 
L 255.395492 173.994668 
L 255.863438 170.569307 
L 256.329708 168.174687 
L 256.796222 168.623735 
L 257.263016 169.950192 
L 257.726934 172.391055 
L 258.193398 171.66485 
L 258.661489 168.375481 
L 259.126652 168.899979 
L 259.594096 166.83667 
L 260.061769 164.205052 
L 260.528438 164.237605 
L 260.995811 164.062671 
L 261.461887 169.283617 
L 261.92846 166.953799 
L 262.394037 168.453973 
L 262.858987 167.042331 
L 263.325152 165.200503 
L 263.793115 171.897893 
L 264.259321 174.788413 
L 264.725764 174.387738 
L 265.192672 160.447468 
L 265.657556 172.85136 
L 266.125399 172.071002 
L 266.594399 166.849143 
L 267.057415 166.833323 
L 267.525955 169.550125 
L 267.990426 170.761278 
L 268.458076 173.942036 
L 268.924311 174.93414 
L 269.389401 171.381914 
L 269.85726 172.018369 
L 270.323934 170.79596 
L 270.791459 168.670892 
L 271.256971 171.387694 
L 271.722201 170.172587 
L 272.189785 170.502375 
L 272.654952 173.411757 
L 273.124893 171.209109 
L 273.587563 176.326616 
L 274.055873 172.116028 
L 274.99087 172.433952 
L 275.457746 171.535856 
L 275.921931 172.280923 
L 276.389724 169.401051 
L 276.854878 172.238939 
L 277.3207 164.360516 
L 277.789682 167.503853 
L 278.253811 167.812345 
L 278.720923 168.578709 
L 279.188866 168.977559 
L 279.654481 163.497102 
L 280.118939 164.81717 
L 280.587189 167.211181 
L 281.054926 162.285037 
L 281.521504 169.682771 
L 281.984994 166.452423 
L 282.453963 168.730217 
L 282.921954 150.240445 
L 283.385134 172.704719 
L 283.85378 171.299771 
L 284.32082 175.174789 
L 284.785528 172.05366 
L 285.252831 128.07371 
L 285.719272 169.13576 
L 286.184858 172.840712 
L 286.651315 171.423594 
L 287.118897 171.283646 
L 287.587188 164.123822 
L 288.050747 168.322849 
L 288.519375 171.44276 
L 288.98408 171.953872 
L 289.452818 168.227015 
L 289.916744 172.633529 
L 290.383081 172.677034 
L 290.849858 173.742155 
L 291.318232 171.294599 
L 291.78515 144.566495 
L 292.25046 175.140715 
L 292.718219 173.674919 
L 293.181782 174.79328 
L 293.649525 151.622272 
L 294.117269 176.275809 
L 294.583025 175.096297 
L 295.051352 172.428171 
L 295.516797 171.516385 
L 295.982843 167.786181 
L 296.447057 168.915495 
L 296.914899 169.176527 
L 297.381326 167.407107 
L 297.848904 168.721698 
L 298.316555 169.599107 
L 298.781329 167.817517 
L 299.248037 170.075232 
L 299.713784 168.552545 
L 300.18199 171.364877 
L 301.113023 167.747544 
L 301.58151 169.82211 
L 302.04629 168.121142 
L 302.513018 164.246732 
L 302.979602 169.152493 
L 303.446963 168.87777 
L 303.913675 138.598961 
L 304.380634 169.621012 
L 304.845249 169.180482 
L 305.312965 167.1263 
L 305.778003 169.155839 
L 306.244979 170.094703 
L 306.714507 168.071856 
L 307.180245 169.680946 
L 307.64492 157.469938 
L 308.580548 171.419638 
L 309.044681 171.617998 
L 309.511605 169.401964 
L 309.976357 169.846144 
L 310.444023 167.752107 
L 310.910093 161.054413 
L 311.376047 164.855199 
L 311.843345 166.000028 
L 312.310442 166.429301 
L 312.779084 157.690811 
L 313.243967 168.43359 
L 313.709389 171.124532 
L 314.177342 170.907918 
L 314.641922 168.141222 
L 315.110838 162.363529 
L 315.574785 168.735389 
L 316.041174 168.896024 
L 316.507133 160.746834 
L 316.974672 169.728102 
L 317.443719 170.825471 
L 317.908299 166.929157 
L 318.375983 171.365181 
L 318.840561 168.281473 
L 319.308687 166.422912 
L 319.775707 157.319038 
L 320.240685 171.937139 
L 320.708465 170.168023 
L 321.176171 160.598368 
L 321.640337 169.430258 
L 322.106442 168.120534 
L 322.572813 168.332889 
L 323.039256 161.333395 
L 323.506035 166.882305 
L 323.971859 170.141251 
L 324.441946 171.18477 
L 324.904818 159.55789 
L 325.372205 170.781053 
L 325.83999 164.834511 
L 326.307921 169.930721 
L 326.772385 172.062483 
L 327.240443 171.86321 
L 327.706522 172.574508 
L 328.17202 170.670312 
L 328.638675 173.468649 
L 329.106817 159.05408 
L 329.570406 173.567525 
L 330.040333 173.818517 
L 330.504382 180.205589 
L 330.970945 176.808825 
L 331.437667 172.103555 
L 331.905155 163.928809 
L 332.370673 172.308608 
L 332.837846 171.058818 
L 333.302498 170.668487 
L 333.769344 174.375872 
L 334.237374 173.335395 
L 334.702775 179.472995 
L 335.168336 179.812824 
L 336.103014 174.816098 
L 336.571102 177.9138 
L 337.034729 177.141961 
L 337.502518 176.633283 
L 337.968288 175.852316 
L 338.435849 177.790586 
L 338.902693 175.920464 
L 339.367296 176.197925 
L 340.302385 177.546287 
L 340.767068 163.442036 
L 341.233238 156.35614 
L 341.702062 111.258437 
L 342.166789 154.574551 
L 342.63316 173.681308 
L 343.567626 176.743719 
L 344.031913 167.384898 
L 344.498641 172.628965 
L 344.966113 137.882796 
L 345.432925 177.1304 
L 345.901212 175.627184 
L 346.365138 146.742067 
L 346.832871 176.868455 
L 347.298434 171.378567 
L 347.763973 174.955132 
L 348.697396 173.559311 
L 349.163752 169.155231 
L 349.630908 172.813635 
L 350.097863 171.372787 
L 350.564838 169.306739 
L 351.033203 173.224958 
L 351.49844 169.269014 
L 351.963987 171.468924 
L 352.432128 171.94292 
L 352.897556 169.541303 
L 353.364745 172.151319 
L 353.829773 170.467389 
L 354.295163 170.114782 
L 354.763172 169.205733 
L 355.230101 170.049068 
L 355.694574 172.479283 
L 356.162431 168.370613 
L 356.630989 156.468098 
L 357.095112 168.668458 
L 357.56425 170.02047 
L 358.030382 168.079462 
L 358.49455 169.248935 
L 358.962852 169.245588 
L 359.42826 166.065743 
L 359.894665 170.429968 
L 360.36147 156.685625 
L 360.828922 167.784356 
L 361.295446 166.467635 
L 361.761283 167.973589 
L 362.2265 168.913974 
L 362.69459 174.660939 
L 363.158734 172.156491 
L 363.626988 174.435806 
L 364.092248 168.844305 
L 364.559186 174.173862 
L 365.027627 175.254498 
L 365.492113 173.668226 
L 365.960863 172.75005 
L 366.426852 171.363355 
L 366.895388 175.001984 
L 367.828589 169.897864 
L 368.291517 174.958479 
L 368.760629 174.490873 
L 369.227101 137.16511 
L 369.692379 169.200562 
L 370.159063 169.032016 
L 370.626355 174.407513 
L 371.08971 162.042259 
L 371.55662 158.190971 
L 372.025033 167.527887 
L 372.957489 170.98854 
L 373.424444 171.405948 
L 373.889997 174.330542 
L 374.357906 176.253904 
L 374.824325 175.581244 
L 375.291047 176.91196 
L 375.756344 180.908672 
L 376.222159 164.921522 
L 376.689214 176.843812 
L 377.154229 172.980659 
L 377.622447 178.850839 
L 378.088716 179.866977 
L 378.555038 178.160229 
L 379.021544 179.862414 
L 379.488028 151.29948 
L 379.953932 168.433894 
L 380.422883 173.835554 
L 380.887471 171.995552 
L 381.821309 179.139556 
L 382.286854 179.880972 
L 382.755191 178.156883 
L 383.219811 179.601686 
L 383.687407 175.914076 
L 384.152045 176.210094 
L 384.619628 164.106481 
L 385.087382 173.577869 
L 385.55209 179.521368 
L 386.020614 176.822212 
L 386.48658 180.318459 
L 386.952834 175.747356 
L 387.418084 174.711442 
L 387.884409 170.587561 
L 388.350882 171.2803 
L 388.817766 176.748891 
L 389.285053 176.315663 
L 389.751995 175.400226 
L 390.219445 179.176064 
L 390.685036 178.30474 
L 391.150894 175.198215 
L 391.61636 167.89175 
L 392.083626 170.201489 
L 392.551761 176.692608 
L 393.01558 176.220743 
L 393.483014 176.37864 
L 393.951404 169.039622 
L 394.416914 164.274418 
L 394.883307 175.390794 
L 395.817214 169.795337 
L 396.281475 159.497956 
L 396.748697 169.755483 
L 397.21546 165.399472 
L 397.683041 146.770969 
L 398.149088 172.453423 
L 398.616723 165.065424 
L 399.548535 169.661171 
L 400.013887 154.222857 
L 400.482262 161.839639 
L 400.947592 147.061816 
L 401.416769 143.672658 
L 401.879826 167.937385 
L 402.347933 172.095645 
L 402.81491 155.050067 
L 403.278811 149.809346 
L 403.74784 163.428649 
L 404.215588 166.890215 
L 404.680559 161.941557 
L 405.145553 164.104047 
L 405.614612 150.737561 
L 406.080995 165.659591 
L 406.545135 167.240083 
L 407.014416 123.492262 
L 407.478968 153.591573 
L 407.94558 153.357922 
L 408.413491 165.393387 
L 408.877232 173.382247 
L 409.346675 175.216773 
L 409.814487 171.982774 
L 410.278746 150.209108 
L 410.744495 171.026569 
L 411.211142 158.742545 
L 411.676137 170.706516 
L 412.144015 158.928432 
L 412.610882 172.461637 
L 413.078835 170.952032 
L 413.544097 159.559107 
L 414.010157 162.332193 
L 414.476114 160.534783 
L 414.945558 153.941441 
L 415.410815 169.401051 
L 415.875303 169.283617 
L 416.345586 140.990234 
L 416.808423 170.154028 
L 417.277362 168.568669 
L 417.742664 169.636528 
L 418.208828 155.265768 
L 418.675274 166.123547 
L 419.142754 168.259873 
L 419.608861 171.594268 
L 420.076755 166.21938 
L 420.543116 165.801364 
L 421.007251 167.048416 
L 421.47548 167.979369 
L 421.941849 154.851099 
L 422.405912 163.96197 
L 422.875237 165.851258 
L 423.341224 163.961057 
L 423.808907 164.086401 
L 424.277114 131.401717 
L 424.740269 157.249065 
L 425.206861 150.60522 
L 425.674309 115.467503 
L 426.139317 161.38694 
L 426.607123 162.429547 
L 427.073812 151.605539 
L 427.540367 162.294468 
L 428.007894 161.951597 
L 428.471565 163.557948 
L 428.940512 165.997594 
L 429.404674 160.420391 
L 429.872239 159.37535 
L 430.340808 157.986526 
L 430.807028 162.549111 
L 431.270554 161.20866 
L 431.737884 157.380493 
L 432.204647 162.900805 
L 432.670195 162.339799 
L 433.604301 156.998376 
L 434.073242 162.251571 
L 434.538367 160.926331 
L 435.002558 168.144264 
L 435.471543 164.77914 
L 435.936019 164.66627 
L 436.403427 164.285674 
L 436.870619 166.829672 
L 437.335556 163.955581 
L 437.802104 162.457233 
L 438.270193 142.586241 
L 438.735918 166.684857 
L 439.203505 164.358082 
L 439.673206 147.625864 
L 440.136091 160.294743 
L 441.069219 163.418001 
L 441.533612 163.109204 
L 442.00312 161.278025 
L 442.470016 160.158447 
L 442.933509 158.703908 
L 443.401272 165.345927 
L 443.868353 165.277779 
L 444.335322 164.044113 
L 444.800066 119.710339 
L 445.267889 170.12178 
L 445.735298 172.205169 
L 446.20016 173.277286 
L 446.668887 171.031133 
L 447.136289 172.669428 
L 447.598995 173.217961 
L 448.066474 172.831889 
L 448.532173 175.557818 
L 448.998591 163.198345 
L 449.46484 162.819879 
L 449.932725 174.787804 
L 450.399855 171.883898 
L 450.863541 177.042781 
L 451.334838 175.211601 
L 451.798136 176.002607 
L 452.264006 176.062845 
L 452.730786 175.663692 
L 453.198946 165.679671 
L 453.665048 176.560267 
L 454.129647 174.957566 
L 454.597322 176.729725 
L 455.06529 175.68803 
L 455.531278 177.063164 
L 455.995749 173.959986 
L 456.463024 175.695332 
L 456.93221 165.304247 
L 457.398206 173.749761 
L 457.864944 177.085373 
L 458.332052 175.342117 
L 458.795061 160.645524 
L 459.261362 172.598542 
L 459.73017 172.168356 
L 460.195269 172.722061 
L 460.661012 161.170022 
L 461.128692 173.426969 
L 462.062588 172.761003 
L 462.527242 171.757033 
L 462.993587 167.98515 
L 463.926194 171.728739 
L 464.394273 166.061483 
L 464.859218 172.374018 
L 465.328868 171.325935 
L 465.792558 175.892171 
L 466.259804 173.328702 
L 466.729163 173.057022 
L 467.195247 169.687639 
L 467.662102 167.739025 
L 468.125379 171.32776 
L 468.595517 172.661214 
L 469.060388 170.141555 
L 469.527805 173.980065 
L 470.458138 173.007431 
L 470.924769 173.995885 
L 471.392032 173.185712 
L 471.859579 172.764653 
L 472.323439 178.50523 
L 472.791991 177.624779 
L 473.25647 175.240503 
L 473.25647 175.240503 
" clip-path="url(#pfa0d1649b8)" style="fill: none; stroke: #1f77b4; stroke-width: 1.5; stroke-linecap: square"/>
   </g>
   <g id="patch_3">
    <path d="M 54.442344 188.277656 
L 54.442344 26.16 
" style="fill: none; stroke: #000000; stroke-width: 0.8; stroke-linejoin: miter; stroke-linecap: square"/>
   </g>
   <g id="patch_4">
    <path d="M 493.2 188.277656 
L 493.2 26.16 
" style="fill: none; stroke: #000000; stroke-width: 0.8; stroke-linejoin: miter; stroke-linecap: square"/>
   </g>
   <g id="patch_5">
    <path d="M 54.442344 188.277656 
L 493.2 188.277656 
" style="fill: none; stroke: #000000; stroke-width: 0.8; stroke-linejoin: miter; stroke-linecap: square"/>
   </g>
   <g id="patch_6">
    <path d="M 54.442344 26.16 
L 493.2 26.16 
" style="fill: none; stroke: #000000; stroke-width: 0.8; stroke-linejoin: miter; stroke-linecap: square"/>
   </g>
   <g id="text_15">
    <!-- Computational Time -->
    <g transform="translate(213.048672 20.16) scale(0.12 -0.12)">
     <defs>
      <path id="DejaVuSans-26" d="M 4122 4306 
L 4122 3641 
Q 3803 3938 3442 4084 
Q 3081 4231 2675 4231 
Q 1875 4231 1450 3742 
Q 1025 3253 1025 2328 
Q 1025 1406 1450 917 
Q 1875 428 2675 428 
Q 3081 428 3442 575 
Q 3803 722 4122 1019 
L 4122 359 
Q 3791 134 3420 21 
Q 3050 -91 2638 -91 
Q 1578 -91 968 557 
Q 359 1206 359 2328 
Q 359 3453 968 4101 
Q 1578 4750 2638 4750 
Q 3056 4750 3426 4639 
Q 3797 4528 4122 4306 
z
" transform="scale(0.015625)"/>
      <path id="DejaVuSans-52" d="M 1959 3097 
Q 1497 3097 1228 2736 
Q 959 2375 959 1747 
Q 959 1119 1226 758 
Q 1494 397 1959 397 
Q 2419 397 2687 759 
Q 2956 1122 2956 1747 
Q 2956 2369 2687 2733 
Q 2419 3097 1959 3097 
z
M 1959 3584 
Q 2709 3584 3137 3096 
Q 3566 2609 3566 1747 
Q 3566 888 3137 398 
Q 2709 -91 1959 -91 
Q 1206 -91 779 398 
Q 353 888 353 1747 
Q 353 2609 779 3096 
Q 1206 3584 1959 3584 
z
" transform="scale(0.015625)"/>
      <path id="DejaVuSans-53" d="M 1159 525 
L 1159 -1331 
L 581 -1331 
L 581 3500 
L 1159 3500 
L 1159 2969 
Q 1341 3281 1617 3432 
Q 1894 3584 2278 3584 
Q 2916 3584 3314 3078 
Q 3713 2572 3713 1747 
Q 3713 922 3314 415 
Q 2916 -91 2278 -91 
Q 1894 -91 1617 61 
Q 1341 213 1159 525 
z
M 3116 1747 
Q 3116 2381 2855 2742 
Q 2594 3103 2138 3103 
Q 1681 3103 1420 2742 
Q 1159 2381 1159 1747 
Q 1159 1113 1420 752 
Q 1681 391 2138 391 
Q 2594 391 2855 752 
Q 3116 1113 3116 1747 
z
" transform="scale(0.015625)"/>
      <path id="DejaVuSans-58" d="M 544 1381 
L 544 3500 
L 1119 3500 
L 1119 1403 
Q 1119 906 1312 657 
Q 1506 409 1894 409 
Q 2359 409 2629 706 
Q 2900 1003 2900 1516 
L 2900 3500 
L 3475 3500 
L 3475 0 
L 2900 0 
L 2900 538 
Q 2691 219 2414 64 
Q 2138 -91 1772 -91 
Q 1169 -91 856 284 
Q 544 659 544 1381 
z
M 1991 3584 
L 1991 3584 
z
" transform="scale(0.015625)"/>
      <path id="DejaVuSans-44" d="M 2194 1759 
Q 1497 1759 1228 1600 
Q 959 1441 959 1056 
Q 959 750 1161 570 
Q 1363 391 1709 391 
Q 2188 391 2477 730 
Q 2766 1069 2766 1631 
L 2766 1759 
L 2194 1759 
z
M 3341 1997 
L 3341 0 
L 2766 0 
L 2766 531 
Q 2569 213 2275 61 
Q 1981 -91 1556 -91 
Q 1019 -91 701 211 
Q 384 513 384 1019 
Q 384 1609 779 1909 
Q 1175 2209 1959 2209 
L 2766 2209 
L 2766 2266 
Q 2766 2663 2505 2880 
Q 2244 3097 1772 3097 
Q 1472 3097 1187 3025 
Q 903 2953 641 2809 
L 641 3341 
Q 956 3463 1253 3523 
Q 1550 3584 1831 3584 
Q 2591 3584 2966 3190 
Q 3341 2797 3341 1997 
z
" transform="scale(0.015625)"/>
      <path id="DejaVuSans-51" d="M 3513 2113 
L 3513 0 
L 2938 0 
L 2938 2094 
Q 2938 2591 2744 2837 
Q 2550 3084 2163 3084 
Q 1697 3084 1428 2787 
Q 1159 2491 1159 1978 
L 1159 0 
L 581 0 
L 581 3500 
L 1159 3500 
L 1159 2956 
Q 1366 3272 1645 3428 
Q 1925 3584 2291 3584 
Q 2894 3584 3203 3211 
Q 3513 2838 3513 2113 
z
" transform="scale(0.015625)"/>
      <path id="DejaVuSans-4f" d="M 603 4863 
L 1178 4863 
L 1178 0 
L 603 0 
L 603 4863 
z
" transform="scale(0.015625)"/>
     </defs>
     <use xlink:href="#DejaVuSans-26"/>
     <use xlink:href="#DejaVuSans-52" transform="translate(69.828125 0)"/>
     <use xlink:href="#DejaVuSans-50" transform="translate(131.015625 0)"/>
     <use xlink:href="#DejaVuSans-53" transform="translate(228.421875 0)"/>
     <use xlink:href="#DejaVuSans-58" transform="translate(291.90625 0)"/>
     <use xlink:href="#DejaVuSans-57" transform="translate(355.28125 0)"/>
     <use xlink:href="#DejaVuSans-44" transform="translate(394.484375 0)"/>
     <use xlink:href="#DejaVuSans-57" transform="translate(455.765625 0)"/>
     <use xlink:href="#DejaVuSans-4c" transform="translate(494.96875 0)"/>
     <use xlink:href="#DejaVuSans-52" transform="translate(522.75 0)"/>
     <use xlink:href="#DejaVuSans-51" transform="translate(583.9375 0)"/>
     <use xlink:href="#DejaVuSans-44" transform="translate(647.3125 0)"/>
     <use xlink:href="#DejaVuSans-4f" transform="translate(708.59375 0)"/>
     <use xlink:href="#DejaVuSans-3" transform="translate(736.375 0)"/>
     <use xlink:href="#DejaVuSans-37" transform="translate(768.15625 0)"/>
     <use xlink:href="#DejaVuSans-4c" transform="translate(826.15625 0)"/>
     <use xlink:href="#DejaVuSans-50" transform="translate(853.9375 0)"/>
     <use xlink:href="#DejaVuSans-48" transform="translate(951.34375 0)"/>
    </g>
   </g>
   <g id="legend_1">
    <g id="patch_7">
     <path d="M 431.6 49.160781 
L 486.2 49.160781 
Q 488.2 49.160781 488.2 47.160781 
L 488.2 33.16 
Q 488.2 31.16 486.2 31.16 
L 431.6 31.16 
Q 429.6 31.16 429.6 33.16 
L 429.6 47.160781 
Q 429.6 49.160781 431.6 49.160781 
z
" style="fill: #ffffff; opacity: 0.8; stroke: #cccccc; stroke-linejoin: miter"/>
    </g>
    <g id="line2d_26">
     <path d="M 433.6 39.258438 
L 443.6 39.258438 
L 453.6 39.258438 
" style="fill: none; stroke: #1f77b4; stroke-width: 1.5; stroke-linecap: square"/>
    </g>
    <g id="text_16">
     <!-- $t_{solve}$ -->
     <g transform="translate(461.6 42.758438) scale(0.1 -0.1)">
      <defs>
       <path id="DejaVuSans-Oblique-57" d="M 2706 3500 
L 2619 3053 
L 1472 3053 
L 1100 1153 
Q 1081 1047 1072 975 
Q 1063 903 1063 863 
Q 1063 663 1183 572 
Q 1303 481 1569 481 
L 2150 481 
L 2053 0 
L 1503 0 
Q 991 0 739 200 
Q 488 400 488 806 
Q 488 878 497 964 
Q 506 1050 525 1153 
L 897 3053 
L 409 3053 
L 500 3500 
L 978 3500 
L 1172 4494 
L 1747 4494 
L 1556 3500 
L 2706 3500 
z
" transform="scale(0.015625)"/>
       <path id="DejaVuSans-Oblique-56" d="M 3200 3397 
L 3091 2853 
Q 2863 2978 2609 3040 
Q 2356 3103 2088 3103 
Q 1634 3103 1373 2948 
Q 1113 2794 1113 2528 
Q 1113 2219 1719 2053 
Q 1766 2041 1788 2034 
L 1972 1978 
Q 2547 1819 2739 1644 
Q 2931 1469 2931 1166 
Q 2931 609 2489 259 
Q 2047 -91 1331 -91 
Q 1053 -91 747 -37 
Q 441 16 72 128 
L 184 722 
Q 500 559 806 475 
Q 1113 391 1394 391 
Q 1816 391 2080 572 
Q 2344 753 2344 1031 
Q 2344 1331 1650 1516 
L 1591 1531 
L 1394 1581 
Q 956 1697 753 1886 
Q 550 2075 550 2369 
Q 550 2928 970 3256 
Q 1391 3584 2113 3584 
Q 2397 3584 2667 3537 
Q 2938 3491 3200 3397 
z
" transform="scale(0.015625)"/>
       <path id="DejaVuSans-Oblique-52" d="M 1625 -91 
Q 1009 -91 651 289 
Q 294 669 294 1325 
Q 294 1706 417 2101 
Q 541 2497 738 2766 
Q 1047 3184 1428 3384 
Q 1809 3584 2291 3584 
Q 2888 3584 3255 3212 
Q 3622 2841 3622 2241 
Q 3622 1825 3500 1412 
Q 3378 1000 3181 728 
Q 2875 309 2494 109 
Q 2113 -91 1625 -91 
z
M 891 1344 
Q 891 869 1089 633 
Q 1288 397 1691 397 
Q 2269 397 2648 901 
Q 3028 1406 3028 2181 
Q 3028 2634 2825 2865 
Q 2622 3097 2228 3097 
Q 1903 3097 1650 2945 
Q 1397 2794 1197 2484 
Q 1050 2253 970 1956 
Q 891 1659 891 1344 
z
" transform="scale(0.015625)"/>
       <path id="DejaVuSans-Oblique-4f" d="M 1172 4863 
L 1747 4863 
L 800 0 
L 225 0 
L 1172 4863 
z
" transform="scale(0.015625)"/>
       <path id="DejaVuSans-Oblique-59" d="M 459 3500 
L 1069 3500 
L 1581 525 
L 3256 3500 
L 3866 3500 
L 1875 0 
L 1100 0 
L 459 3500 
z
" transform="scale(0.015625)"/>
       <path id="DejaVuSans-Oblique-48" d="M 3078 2063 
Q 3088 2113 3092 2166 
Q 3097 2219 3097 2272 
Q 3097 2653 2873 2875 
Q 2650 3097 2266 3097 
Q 1838 3097 1509 2826 
Q 1181 2556 1013 2059 
L 3078 2063 
z
M 3578 1613 
L 903 1613 
Q 884 1494 878 1425 
Q 872 1356 872 1306 
Q 872 872 1139 634 
Q 1406 397 1894 397 
Q 2269 397 2603 481 
Q 2938 566 3225 728 
L 3116 159 
Q 2806 34 2476 -28 
Q 2147 -91 1806 -91 
Q 1078 -91 686 257 
Q 294 606 294 1247 
Q 294 1794 489 2264 
Q 684 2734 1063 3103 
Q 1306 3334 1642 3459 
Q 1978 3584 2356 3584 
Q 2950 3584 3301 3228 
Q 3653 2872 3653 2272 
Q 3653 2128 3634 1964 
Q 3616 1800 3578 1613 
z
" transform="scale(0.015625)"/>
      </defs>
      <use xlink:href="#DejaVuSans-Oblique-57" transform="translate(0 0.78125)"/>
      <use xlink:href="#DejaVuSans-Oblique-56" transform="translate(39.208984 -14.218701) scale(0.7)"/>
      <use xlink:href="#DejaVuSans-Oblique-52" transform="translate(75.678711 -14.218701) scale(0.7)"/>
      <use xlink:href="#DejaVuSans-Oblique-4f" transform="translate(118.505859 -14.218701) scale(0.7)"/>
      <use xlink:href="#DejaVuSans-Oblique-59" transform="translate(137.954102 -14.218701) scale(0.7)"/>
      <use xlink:href="#DejaVuSans-Oblique-48" transform="translate(179.379883 -14.218701) scale(0.7)"/>
     </g>
    </g>
   </g>
  </g>
 </g>
 <defs>
  <clipPath id="pfa0d1649b8">
   <rect x="54.442344" y="26.16" width="438.757656" height="162.117656"/>
  </clipPath>
 </defs>
</svg>
