<?xml version="1.0" encoding="utf-8" standalone="no"?>
<!DOCTYPE svg PUBLIC "-//W3C//DTD SVG 1.1//EN"
  "http://www.w3.org/Graphics/SVG/1.1/DTD/svg11.dtd">
<svg xmlns:xlink="http://www.w3.org/1999/xlink" width="504pt" height="230.4pt" viewBox="0 0 504 230.4" xmlns="http://www.w3.org/2000/svg" version="1.1">
 <metadata>
  <rdf:RDF xmlns:dc="http://purl.org/dc/elements/1.1/" xmlns:cc="http://creativecommons.org/ns#" xmlns:rdf="http://www.w3.org/1999/02/22-rdf-syntax-ns#">
   <cc:Work>
    <dc:type rdf:resource="http://purl.org/dc/dcmitype/StillImage"/>
    <dc:date>2026-07-09T11:57:21.826513</dc:date>
    <dc:format>image/svg+xml</dc:format>
    <dc:creator>
     <cc:Agent>
      <dc:title>Matplotlib v3.11.0, https://matplotlib.org/</dc:title>
     </cc:Agent>
    </dc:creator>
   </cc:Work>
  </rdf:RDF>
 </metadata>
 <defs>
  <style type="text/css">*{stroke-linejoin: round; stroke-linecap: butt}</style>
 </defs>
 <g id="figure_1">
  <g id="patch_1">
   <path d="M 0 230.4 
L 504 230.4 
L 504 0 
L 0 0 
z
" style="fill: #ffffff"/>
  </g>
  <g id="axes_1">
   <g id="patch_2">
    <path d="M 60.922344 188.277656 
L 493.2 188.277656 
L 493.2 26.16 
L 60.922344 26.16 
z
" style="fill: #ffffff"/>
   </g>
   <g id="matplotlib.axis_1">
    <g id="xtick_1">
     <g id="line2d_1">
      <path d="M 80.151886 188.277656 
L 80.151886 26.16 
" clip-path="url(#p7cec8c319d)" style="fill: none; stroke: #b0b0b0; stroke-width: 0.8; stroke-linecap: square"/>
     </g>
     <g id="line2d_2">
      <defs>
       <path id="m91720a66d8" d="M 0 0 
L 0 3.5 
" style="stroke: #000000; stroke-width: 0.8"/>
      </defs>
      <g>
       <use xlink:href="#m91720a66d8" x="80.151886" y="188.277656" style="stroke: #000000; stroke-width: 0.8"/>
      </g>
     </g>
     <g id="text_1">
      <!-- 0 -->
      <g transform="translate(76.970636 202.875313) scale(0.1 -0.1)">
       <defs>
        <path id="DejaVuSans-13" d="M 2034 4250 
Q 1547 4250 1301 3770 
Q 1056 3291 1056 2328 
Q 1056 1369 1301 889 
Q 1547 409 2034 409 
Q 2525 409 2770 889 
Q 3016 1369 3016 2328 
Q 3016 3291 2770 3770 
Q 2525 4250 2034 4250 
z
M 2034 4750 
Q 2819 4750 3233 4129 
Q 3647 3509 3647 2328 
Q 3647 1150 3233 529 
Q 2819 -91 2034 -91 
Q 1250 -91 836 529 
Q 422 1150 422 2328 
Q 422 3509 836 4129 
Q 1250 4750 2034 4750 
z
" transform="scale(0.015625)"/>
       </defs>
       <use xlink:href="#DejaVuSans-13"/>
      </g>
     </g>
    </g>
    <g id="xtick_2">
     <g id="line2d_3">
      <path d="M 145.735781 188.277656 
L 145.735781 26.16 
" clip-path="url(#p7cec8c319d)" style="fill: none; stroke: #b0b0b0; stroke-width: 0.8; stroke-linecap: square"/>
     </g>
     <g id="line2d_4">
      <g>
       <use xlink:href="#m91720a66d8" x="145.735781" y="188.277656" style="stroke: #000000; stroke-width: 0.8"/>
      </g>
     </g>
     <g id="text_2">
      <!-- 10 -->
      <g transform="translate(139.373281 202.875313) scale(0.1 -0.1)">
       <defs>
        <path id="DejaVuSans-14" d="M 794 531 
L 1825 531 
L 1825 4091 
L 703 3866 
L 703 4441 
L 1819 4666 
L 2450 4666 
L 2450 531 
L 3481 531 
L 3481 0 
L 794 0 
L 794 531 
z
" transform="scale(0.015625)"/>
       </defs>
       <use xlink:href="#DejaVuSans-14"/>
       <use xlink:href="#DejaVuSans-13" transform="translate(63.625 0)"/>
      </g>
     </g>
    </g>
    <g id="xtick_3">
     <g id="line2d_5">
      <path d="M 211.319676 188.277656 
L 211.319676 26.16 
" clip-path="url(#p7cec8c319d)" style="fill: none; stroke: #b0b0b0; stroke-width: 0.8; stroke-linecap: square"/>
     </g>
     <g id="line2d_6">
      <g>
       <use xlink:href="#m91720a66d8" x="211.319676" y="188.277656" style="stroke: #000000; stroke-width: 0.8"/>
      </g>
     </g>
     <g id="text_3">
      <!-- 20 -->
      <g transform="translate(204.957176 202.875313) scale(0.1 -0.1)">
       <defs>
        <path id="DejaVuSans-15" d="M 1228 531 
L 3431 531 
L 3431 0 
L 469 0 
L 469 531 
Q 828 903 1448 1529 
Q 2069 2156 2228 2338 
Q 2531 2678 2651 2914 
Q 2772 3150 2772 3378 
Q 2772 3750 2511 3984 
Q 2250 4219 1831 4219 
Q 1534 4219 1204 4116 
Q 875 4013 500 3803 
L 500 4441 
Q 881 4594 1212 4672 
Q 1544 4750 1819 4750 
Q 2544 4750 2975 4387 
Q 3406 4025 3406 3419 
Q 3406 3131 3298 2873 
Q 3191 2616 2906 2266 
Q 2828 2175 2409 1742 
Q 1991 1309 1228 531 
z
" transform="scale(0.015625)"/>
       </defs>
       <use xlink:href="#DejaVuSans-15"/>
       <use xlink:href="#DejaVuSans-13" transform="translate(63.625 0)"/>
      </g>
     </g>
    </g>
    <g id="xtick_4">
     <g id="line2d_7">
      <path d="M 276.903571 188.277656 
L 276.903571 26.16 
" clip-path="url(#p7cec8c319d)" style="fill: none; stroke: #b0b0b0; stroke-width: 0.8; stroke-linecap: square"/>
     </g>
     <g id="line2d_8">
      <g>
       <use xlink:href="#m91720a66d8" x="276.903571" y="188.277656" style="stroke: #000000; stroke-width: 0.8"/>
      </g>
     </g>
     <g id="text_4">
      <!-- 30 -->
      <g transform="translate(270.541071 202.875313) scale(0.1 -0.1)">
       <defs>
        <path id="DejaVuSans-16" d="M 2597 2516 
Q 3050 2419 3304 2112 
Q 3559 1806 3559 1356 
Q 3559 666 3084 287 
Q 2609 -91 1734 -91 
Q 1441 -91 1130 -33 
Q 819 25 488 141 
L 488 750 
Q 750 597 1062 519 
Q 1375 441 1716 441 
Q 2309 441 2620 675 
Q 2931 909 2931 1356 
Q 2931 1769 2642 2001 
Q 2353 2234 1838 2234 
L 1294 2234 
L 1294 2753 
L 1863 2753 
Q 2328 2753 2575 2939 
Q 2822 3125 2822 3475 
Q 2822 3834 2567 4026 
Q 2313 4219 1838 4219 
Q 1578 4219 1281 4162 
Q 984 4106 628 3988 
L 628 4550 
Q 988 4650 1302 4700 
Q 1616 4750 1894 4750 
Q 2613 4750 3031 4423 
Q 3450 4097 3450 3541 
Q 3450 3153 3228 2886 
Q 3006 2619 2597 2516 
z
" transform="scale(0.015625)"/>
       </defs>
       <use xlink:href="#DejaVuSans-16"/>
       <use xlink:href="#DejaVuSans-13" transform="translate(63.625 0)"/>
      </g>
     </g>
    </g>
    <g id="xtick_5">
     <g id="line2d_9">
      <path d="M 342.487466 188.277656 
L 342.487466 26.16 
" clip-path="url(#p7cec8c319d)" style="fill: none; stroke: #b0b0b0; stroke-width: 0.8; stroke-linecap: square"/>
     </g>
     <g id="line2d_10">
      <g>
       <use xlink:href="#m91720a66d8" x="342.487466" y="188.277656" style="stroke: #000000; stroke-width: 0.8"/>
      </g>
     </g>
     <g id="text_5">
      <!-- 40 -->
      <g transform="translate(336.124966 202.875313) scale(0.1 -0.1)">
       <defs>
        <path id="DejaVuSans-17" d="M 2419 4116 
L 825 1625 
L 2419 1625 
L 2419 4116 
z
M 2253 4666 
L 3047 4666 
L 3047 1625 
L 3713 1625 
L 3713 1100 
L 3047 1100 
L 3047 0 
L 2419 0 
L 2419 1100 
L 313 1100 
L 313 1709 
L 2253 4666 
z
" transform="scale(0.015625)"/>
       </defs>
       <use xlink:href="#DejaVuSans-17"/>
       <use xlink:href="#DejaVuSans-13" transform="translate(63.625 0)"/>
      </g>
     </g>
    </g>
    <g id="xtick_6">
     <g id="line2d_11">
      <path d="M 408.071361 188.277656 
L 408.071361 26.16 
" clip-path="url(#p7cec8c319d)" style="fill: none; stroke: #b0b0b0; stroke-width: 0.8; stroke-linecap: square"/>
     </g>
     <g id="line2d_12">
      <g>
       <use xlink:href="#m91720a66d8" x="408.071361" y="188.277656" style="stroke: #000000; stroke-width: 0.8"/>
      </g>
     </g>
     <g id="text_6">
      <!-- 50 -->
      <g transform="translate(401.708861 202.875313) scale(0.1 -0.1)">
       <defs>
        <path id="DejaVuSans-18" d="M 691 4666 
L 3169 4666 
L 3169 4134 
L 1269 4134 
L 1269 2991 
Q 1406 3038 1543 3061 
Q 1681 3084 1819 3084 
Q 2600 3084 3056 2656 
Q 3513 2228 3513 1497 
Q 3513 744 3044 326 
Q 2575 -91 1722 -91 
Q 1428 -91 1123 -41 
Q 819 9 494 109 
L 494 744 
Q 775 591 1075 516 
Q 1375 441 1709 441 
Q 2250 441 2565 725 
Q 2881 1009 2881 1497 
Q 2881 1984 2565 2268 
Q 2250 2553 1709 2553 
Q 1456 2553 1204 2497 
Q 953 2441 691 2322 
L 691 4666 
z
" transform="scale(0.015625)"/>
       </defs>
       <use xlink:href="#DejaVuSans-18"/>
       <use xlink:href="#DejaVuSans-13" transform="translate(63.625 0)"/>
      </g>
     </g>
    </g>
    <g id="xtick_7">
     <g id="line2d_13">
      <path d="M 473.655257 188.277656 
L 473.655257 26.16 
" clip-path="url(#p7cec8c319d)" style="fill: none; stroke: #b0b0b0; stroke-width: 0.8; stroke-linecap: square"/>
     </g>
     <g id="line2d_14">
      <g>
       <use xlink:href="#m91720a66d8" x="473.655257" y="188.277656" style="stroke: #000000; stroke-width: 0.8"/>
      </g>
     </g>
     <g id="text_7">
      <!-- 60 -->
      <g transform="translate(467.292757 202.875313) scale(0.1 -0.1)">
       <defs>
        <path id="DejaVuSans-19" d="M 2113 2584 
Q 1688 2584 1439 2293 
Q 1191 2003 1191 1497 
Q 1191 994 1439 701 
Q 1688 409 2113 409 
Q 2538 409 2786 701 
Q 3034 994 3034 1497 
Q 3034 2003 2786 2293 
Q 2538 2584 2113 2584 
z
M 3366 4563 
L 3366 3988 
Q 3128 4100 2886 4159 
Q 2644 4219 2406 4219 
Q 1781 4219 1451 3797 
Q 1122 3375 1075 2522 
Q 1259 2794 1537 2939 
Q 1816 3084 2150 3084 
Q 2853 3084 3261 2657 
Q 3669 2231 3669 1497 
Q 3669 778 3244 343 
Q 2819 -91 2113 -91 
Q 1303 -91 875 529 
Q 447 1150 447 2328 
Q 447 3434 972 4092 
Q 1497 4750 2381 4750 
Q 2619 4750 2861 4703 
Q 3103 4656 3366 4563 
z
" transform="scale(0.015625)"/>
       </defs>
       <use xlink:href="#DejaVuSans-19"/>
       <use xlink:href="#DejaVuSans-13" transform="translate(63.625 0)"/>
      </g>
     </g>
    </g>
    <g id="text_8">
     <!-- t (s) -->
     <g transform="translate(267.005703 216.875313) scale(0.1 -0.1)">
      <defs>
       <path id="DejaVuSans-57" d="M 1172 4494 
L 1172 3500 
L 2356 3500 
L 2356 3053 
L 1172 3053 
L 1172 1153 
Q 1172 725 1289 603 
Q 1406 481 1766 481 
L 2356 481 
L 2356 0 
L 1766 0 
Q 1100 0 847 248 
Q 594 497 594 1153 
L 594 3053 
L 172 3053 
L 172 3500 
L 594 3500 
L 594 4494 
L 1172 4494 
z
" transform="scale(0.015625)"/>
       <path id="DejaVuSans-3" transform="scale(0.015625)"/>
       <path id="DejaVuSans-b" d="M 1984 4856 
Q 1566 4138 1362 3434 
Q 1159 2731 1159 2009 
Q 1159 1288 1364 580 
Q 1569 -128 1984 -844 
L 1484 -844 
Q 1016 -109 783 600 
Q 550 1309 550 2009 
Q 550 2706 781 3412 
Q 1013 4119 1484 4856 
L 1984 4856 
z
" transform="scale(0.015625)"/>
       <path id="DejaVuSans-56" d="M 2834 3397 
L 2834 2853 
Q 2591 2978 2328 3040 
Q 2066 3103 1784 3103 
Q 1356 3103 1142 2972 
Q 928 2841 928 2578 
Q 928 2378 1081 2264 
Q 1234 2150 1697 2047 
L 1894 2003 
Q 2506 1872 2764 1633 
Q 3022 1394 3022 966 
Q 3022 478 2636 193 
Q 2250 -91 1575 -91 
Q 1294 -91 989 -36 
Q 684 19 347 128 
L 347 722 
Q 666 556 975 473 
Q 1284 391 1588 391 
Q 1994 391 2212 530 
Q 2431 669 2431 922 
Q 2431 1156 2273 1281 
Q 2116 1406 1581 1522 
L 1381 1569 
Q 847 1681 609 1914 
Q 372 2147 372 2553 
Q 372 3047 722 3315 
Q 1072 3584 1716 3584 
Q 2034 3584 2315 3537 
Q 2597 3491 2834 3397 
z
" transform="scale(0.015625)"/>
       <path id="DejaVuSans-c" d="M 513 4856 
L 1013 4856 
Q 1481 4119 1714 3412 
Q 1947 2706 1947 2009 
Q 1947 1309 1714 600 
Q 1481 -109 1013 -844 
L 513 -844 
Q 928 -128 1133 580 
Q 1338 1288 1338 2009 
Q 1338 2731 1133 3434 
Q 928 4138 513 4856 
z
" transform="scale(0.015625)"/>
      </defs>
      <use xlink:href="#DejaVuSans-57"/>
      <use xlink:href="#DejaVuSans-3" transform="translate(39.203125 0)"/>
      <use xlink:href="#DejaVuSans-b" transform="translate(70.984375 0)"/>
      <use xlink:href="#DejaVuSans-56" transform="translate(110 0)"/>
      <use xlink:href="#DejaVuSans-c" transform="translate(162.09375 0)"/>
     </g>
    </g>
   </g>
   <g id="matplotlib.axis_2">
    <g id="ytick_1">
     <g id="line2d_15">
      <path d="M 60.922344 187.164141 
L 493.2 187.164141 
" clip-path="url(#p7cec8c319d)" style="fill: none; stroke: #b0b0b0; stroke-width: 0.8; stroke-linecap: square"/>
     </g>
     <g id="line2d_16">
      <defs>
       <path id="m80ab683ecf" d="M 0 0 
L -3.5 0 
" style="stroke: #000000; stroke-width: 0.8"/>
      </defs>
      <g>
       <use xlink:href="#m80ab683ecf" x="60.922344" y="187.164141" style="stroke: #000000; stroke-width: 0.8"/>
      </g>
     </g>
     <g id="text_9">
      <!-- 0.005 -->
      <g transform="translate(25.294219 190.962969) scale(0.1 -0.1)">
       <defs>
        <path id="DejaVuSans-11" d="M 684 794 
L 1344 794 
L 1344 0 
L 684 0 
L 684 794 
z
" transform="scale(0.015625)"/>
       </defs>
       <use xlink:href="#DejaVuSans-13"/>
       <use xlink:href="#DejaVuSans-11" transform="translate(63.625 0)"/>
       <use xlink:href="#DejaVuSans-13" transform="translate(95.40625 0)"/>
       <use xlink:href="#DejaVuSans-13" transform="translate(159.03125 0)"/>
       <use xlink:href="#DejaVuSans-18" transform="translate(222.65625 0)"/>
      </g>
     </g>
    </g>
    <g id="ytick_2">
     <g id="line2d_17">
      <path d="M 60.922344 157.118661 
L 493.2 157.118661 
" clip-path="url(#p7cec8c319d)" style="fill: none; stroke: #b0b0b0; stroke-width: 0.8; stroke-linecap: square"/>
     </g>
     <g id="line2d_18">
      <g>
       <use xlink:href="#m80ab683ecf" x="60.922344" y="157.118661" style="stroke: #000000; stroke-width: 0.8"/>
      </g>
     </g>
     <g id="text_10">
      <!-- 0.010 -->
      <g transform="translate(25.294219 160.917489) scale(0.1 -0.1)">
       <use xlink:href="#DejaVuSans-13"/>
       <use xlink:href="#DejaVuSans-11" transform="translate(63.625 0)"/>
       <use xlink:href="#DejaVuSans-13" transform="translate(95.40625 0)"/>
       <use xlink:href="#DejaVuSans-14" transform="translate(159.03125 0)"/>
       <use xlink:href="#DejaVuSans-13" transform="translate(222.65625 0)"/>
      </g>
     </g>
    </g>
    <g id="ytick_3">
     <g id="line2d_19">
      <path d="M 60.922344 127.073182 
L 493.2 127.073182 
" clip-path="url(#p7cec8c319d)" style="fill: none; stroke: #b0b0b0; stroke-width: 0.8; stroke-linecap: square"/>
     </g>
     <g id="line2d_20">
      <g>
       <use xlink:href="#m80ab683ecf" x="60.922344" y="127.073182" style="stroke: #000000; stroke-width: 0.8"/>
      </g>
     </g>
     <g id="text_11">
      <!-- 0.015 -->
      <g transform="translate(25.294219 130.87201) scale(0.1 -0.1)">
       <use xlink:href="#DejaVuSans-13"/>
       <use xlink:href="#DejaVuSans-11" transform="translate(63.625 0)"/>
       <use xlink:href="#DejaVuSans-13" transform="translate(95.40625 0)"/>
       <use xlink:href="#DejaVuSans-14" transform="translate(159.03125 0)"/>
       <use xlink:href="#DejaVuSans-18" transform="translate(222.65625 0)"/>
      </g>
     </g>
    </g>
    <g id="ytick_4">
     <g id="line2d_21">
      <path d="M 60.922344 97.027702 
L 493.2 97.027702 
" clip-path="url(#p7cec8c319d)" style="fill: none; stroke: #b0b0b0; stroke-width: 0.8; stroke-linecap: square"/>
     </g>
     <g id="line2d_22">
      <g>
       <use xlink:href="#m80ab683ecf" x="60.922344" y="97.027702" style="stroke: #000000; stroke-width: 0.8"/>
      </g>
     </g>
     <g id="text_12">
      <!-- 0.020 -->
      <g transform="translate(25.294219 100.82653) scale(0.1 -0.1)">
       <use xlink:href="#DejaVuSans-13"/>
       <use xlink:href="#DejaVuSans-11" transform="translate(63.625 0)"/>
       <use xlink:href="#DejaVuSans-13" transform="translate(95.40625 0)"/>
       <use xlink:href="#DejaVuSans-15" transform="translate(159.03125 0)"/>
       <use xlink:href="#DejaVuSans-13" transform="translate(222.65625 0)"/>
      </g>
     </g>
    </g>
    <g id="ytick_5">
     <g id="line2d_23">
      <path d="M 60.922344 66.982222 
L 493.2 66.982222 
" clip-path="url(#p7cec8c319d)" style="fill: none; stroke: #b0b0b0; stroke-width: 0.8; stroke-linecap: square"/>
     </g>
     <g id="line2d_24">
      <g>
       <use xlink:href="#m80ab683ecf" x="60.922344" y="66.982222" style="stroke: #000000; stroke-width: 0.8"/>
      </g>
     </g>
     <g id="text_13">
      <!-- 0.025 -->
      <g transform="translate(25.294219 70.78105) scale(0.1 -0.1)">
       <use xlink:href="#DejaVuSans-13"/>
       <use xlink:href="#DejaVuSans-11" transform="translate(63.625 0)"/>
       <use xlink:href="#DejaVuSans-13" transform="translate(95.40625 0)"/>
       <use xlink:href="#DejaVuSans-15" transform="translate(159.03125 0)"/>
       <use xlink:href="#DejaVuSans-18" transform="translate(222.65625 0)"/>
      </g>
     </g>
    </g>
    <g id="ytick_6">
     <g id="line2d_25">
      <path d="M 60.922344 36.936743 
L 493.2 36.936743 
" clip-path="url(#p7cec8c319d)" style="fill: none; stroke: #b0b0b0; stroke-width: 0.8; stroke-linecap: square"/>
     </g>
     <g id="line2d_26">
      <g>
       <use xlink:href="#m80ab683ecf" x="60.922344" y="36.936743" style="stroke: #000000; stroke-width: 0.8"/>
      </g>
     </g>
     <g id="text_14">
      <!-- 0.030 -->
      <g transform="translate(25.294219 40.735571) scale(0.1 -0.1)">
       <use xlink:href="#DejaVuSans-13"/>
       <use xlink:href="#DejaVuSans-11" transform="translate(63.625 0)"/>
       <use xlink:href="#DejaVuSans-13" transform="translate(95.40625 0)"/>
       <use xlink:href="#DejaVuSans-16" transform="translate(159.03125 0)"/>
       <use xlink:href="#DejaVuSans-13" transform="translate(222.65625 0)"/>
      </g>
     </g>
    </g>
    <g id="text_15">
     <!-- Solve time (s) -->
     <g transform="translate(18.891875 141.857891) rotate(-90) scale(0.1 -0.1)">
      <defs>
       <path id="DejaVuSans-36" d="M 3425 4513 
L 3425 3897 
Q 3066 4069 2747 4153 
Q 2428 4238 2131 4238 
Q 1616 4238 1336 4038 
Q 1056 3838 1056 3469 
Q 1056 3159 1242 3001 
Q 1428 2844 1947 2747 
L 2328 2669 
Q 3034 2534 3370 2195 
Q 3706 1856 3706 1288 
Q 3706 609 3251 259 
Q 2797 -91 1919 -91 
Q 1588 -91 1214 -16 
Q 841 59 441 206 
L 441 856 
Q 825 641 1194 531 
Q 1563 422 1919 422 
Q 2459 422 2753 634 
Q 3047 847 3047 1241 
Q 3047 1584 2836 1778 
Q 2625 1972 2144 2069 
L 1759 2144 
Q 1053 2284 737 2584 
Q 422 2884 422 3419 
Q 422 4038 858 4394 
Q 1294 4750 2059 4750 
Q 2388 4750 2728 4690 
Q 3069 4631 3425 4513 
z
" transform="scale(0.015625)"/>
       <path id="DejaVuSans-52" d="M 1959 3097 
Q 1497 3097 1228 2736 
Q 959 2375 959 1747 
Q 959 1119 1226 758 
Q 1494 397 1959 397 
Q 2419 397 2687 759 
Q 2956 1122 2956 1747 
Q 2956 2369 2687 2733 
Q 2419 3097 1959 3097 
z
M 1959 3584 
Q 2709 3584 3137 3096 
Q 3566 2609 3566 1747 
Q 3566 888 3137 398 
Q 2709 -91 1959 -91 
Q 1206 -91 779 398 
Q 353 888 353 1747 
Q 353 2609 779 3096 
Q 1206 3584 1959 3584 
z
" transform="scale(0.015625)"/>
       <path id="DejaVuSans-4f" d="M 603 4863 
L 1178 4863 
L 1178 0 
L 603 0 
L 603 4863 
z
" transform="scale(0.015625)"/>
       <path id="DejaVuSans-59" d="M 191 3500 
L 800 3500 
L 1894 563 
L 2988 3500 
L 3597 3500 
L 2284 0 
L 1503 0 
L 191 3500 
z
" transform="scale(0.015625)"/>
       <path id="DejaVuSans-48" d="M 3597 1894 
L 3597 1613 
L 953 1613 
Q 991 1019 1311 708 
Q 1631 397 2203 397 
Q 2534 397 2845 478 
Q 3156 559 3463 722 
L 3463 178 
Q 3153 47 2828 -22 
Q 2503 -91 2169 -91 
Q 1331 -91 842 396 
Q 353 884 353 1716 
Q 353 2575 817 3079 
Q 1281 3584 2069 3584 
Q 2775 3584 3186 3129 
Q 3597 2675 3597 1894 
z
M 3022 2063 
Q 3016 2534 2758 2815 
Q 2500 3097 2075 3097 
Q 1594 3097 1305 2825 
Q 1016 2553 972 2059 
L 3022 2063 
z
" transform="scale(0.015625)"/>
       <path id="DejaVuSans-4c" d="M 603 3500 
L 1178 3500 
L 1178 0 
L 603 0 
L 603 3500 
z
M 603 4863 
L 1178 4863 
L 1178 4134 
L 603 4134 
L 603 4863 
z
" transform="scale(0.015625)"/>
       <path id="DejaVuSans-50" d="M 3328 2828 
Q 3544 3216 3844 3400 
Q 4144 3584 4550 3584 
Q 5097 3584 5394 3201 
Q 5691 2819 5691 2113 
L 5691 0 
L 5113 0 
L 5113 2094 
Q 5113 2597 4934 2840 
Q 4756 3084 4391 3084 
Q 3944 3084 3684 2787 
Q 3425 2491 3425 1978 
L 3425 0 
L 2847 0 
L 2847 2094 
Q 2847 2600 2669 2842 
Q 2491 3084 2119 3084 
Q 1678 3084 1418 2786 
Q 1159 2488 1159 1978 
L 1159 0 
L 581 0 
L 581 3500 
L 1159 3500 
L 1159 2956 
Q 1356 3278 1631 3431 
Q 1906 3584 2284 3584 
Q 2666 3584 2933 3390 
Q 3200 3197 3328 2828 
z
" transform="scale(0.015625)"/>
      </defs>
      <use xlink:href="#DejaVuSans-36"/>
      <use xlink:href="#DejaVuSans-52" transform="translate(63.484375 0)"/>
      <use xlink:href="#DejaVuSans-4f" transform="translate(124.671875 0)"/>
      <use xlink:href="#DejaVuSans-59" transform="translate(152.453125 0)"/>
      <use xlink:href="#DejaVuSans-48" transform="translate(211.640625 0)"/>
      <use xlink:href="#DejaVuSans-3" transform="translate(273.171875 0)"/>
      <use xlink:href="#DejaVuSans-57" transform="translate(304.953125 0)"/>
      <use xlink:href="#DejaVuSans-4c" transform="translate(344.15625 0)"/>
      <use xlink:href="#DejaVuSans-50" transform="translate(371.9375 0)"/>
      <use xlink:href="#DejaVuSans-48" transform="translate(469.34375 0)"/>
      <use xlink:href="#DejaVuSans-3" transform="translate(530.875 0)"/>
      <use xlink:href="#DejaVuSans-b" transform="translate(562.65625 0)"/>
      <use xlink:href="#DejaVuSans-56" transform="translate(601.671875 0)"/>
      <use xlink:href="#DejaVuSans-c" transform="translate(653.765625 0)"/>
     </g>
    </g>
   </g>
   <g id="line2d_27">
    <path d="M 80.571328 142.711253 
L 81.030009 161.487274 
L 81.492708 171.663077 
L 81.948831 173.299955 
L 82.408113 163.712442 
L 82.867804 169.308713 
L 83.326832 172.464691 
L 83.78545 168.091871 
L 84.244042 171.158914 
L 84.705091 171.164923 
L 85.16363 155.722748 
L 85.621089 173.413527 
L 86.998753 169.180719 
L 87.457939 168.922929 
L 87.919471 170.702222 
L 88.378198 168.947566 
L 88.835997 149.395771 
L 89.295502 172.110755 
L 89.754554 159.320394 
L 90.212238 139.162281 
L 90.671119 170.154193 
L 91.130503 154.373105 
L 91.591414 164.99959 
L 92.050999 163.073675 
L 92.508713 167.958469 
L 92.96834 162.071358 
L 93.425743 150.561536 
L 93.885414 156.955815 
L 94.344664 158.301852 
L 94.803948 155.341771 
L 95.264382 156.687208 
L 95.723722 165.080713 
L 96.179823 163.63853 
L 96.64127 149.930581 
L 97.101105 160.915809 
L 97.556956 163.933577 
L 98.018712 169.826096 
L 98.478253 172.519373 
L 98.936706 171.162519 
L 99.395204 163.900527 
L 99.855175 151.398603 
L 100.311467 161.873659 
L 100.77129 148.587548 
L 101.231442 159.039769 
L 101.688715 147.120727 
L 102.15016 146.368389 
L 102.610264 135.103737 
L 103.066934 141.545488 
L 103.526985 145.525312 
L 103.98679 127.881405 
L 104.443421 120.038934 
L 104.905736 149.661974 
L 105.362242 138.440588 
L 105.822229 149.243741 
L 106.28179 144.617338 
L 106.739269 120.719164 
L 108.11845 150.595187 
L 108.577138 134.162112 
L 109.03479 145.712796 
L 109.495699 129.670313 
L 109.952692 147.118324 
L 110.413652 132.454327 
L 110.871491 130.874536 
L 111.332297 118.875573 
L 111.79151 143.616824 
L 112.250005 149.277993 
L 112.707533 66.297786 
L 113.167476 153.233781 
L 113.627736 165.915377 
L 114.084268 165.354127 
L 114.544103 130.641383 
L 115.003571 160.220556 
L 115.462829 165.185872 
L 115.921296 151.739919 
L 116.381825 146.42908 
L 116.84111 158.789791 
L 117.300879 165.662995 
L 117.757073 162.543072 
L 118.217312 157.03874 
L 118.676462 168.155568 
L 119.134994 163.229311 
L 119.593425 159.911088 
L 120.054476 160.935038 
L 120.514052 141.83092 
L 120.973641 159.704976 
L 121.42996 169.699305 
L 121.889215 173.000101 
L 122.350304 158.803011 
L 122.809137 158.096341 
L 123.267461 165.70626 
L 123.725828 147.243914 
L 124.643426 167.064917 
L 125.104594 163.820606 
L 125.562332 138.602834 
L 126.023242 149.151201 
L 126.480783 171.791071 
L 126.939288 175.928934 
L 127.400782 167.467526 
L 127.85826 164.42452 
L 128.31931 166.045173 
L 128.776163 170.210678 
L 129.234319 169.513623 
L 129.69504 172.292229 
L 130.155566 178.178139 
L 130.614578 179.132984 
L 131.07232 174.103371 
L 131.532062 174.940438 
L 131.990875 163.424005 
L 132.448613 168.013753 
L 132.908791 141.359206 
L 133.367291 172.86069 
L 133.827828 177.737672 
L 134.285047 175.364079 
L 134.743032 177.130753 
L 135.202757 173.57457 
L 135.663123 171.67149 
L 136.123667 174.64479 
L 136.582511 148.007069 
L 137.039568 179.039843 
L 137.499413 175.804546 
L 137.959757 166.581785 
L 138.417521 179.425627 
L 138.876769 177.759906 
L 139.334675 177.285788 
L 139.795072 158.902161 
L 140.254797 172.26639 
L 141.173515 169.648828 
L 141.629326 171.437135 
L 142.089194 172.720077 
L 142.549952 169.768409 
L 143.00894 171.296522 
L 143.467206 143.557934 
L 143.928224 163.640934 
L 144.385848 159.348637 
L 144.845128 159.155144 
L 145.305366 166.461603 
L 145.761331 163.417996 
L 146.222641 168.81777 
L 146.681287 170.579637 
L 147.141043 159.863015 
L 147.601384 166.034958 
L 148.059068 164.08741 
L 148.975872 152.61905 
L 149.435286 154.99084 
L 149.894236 150.90105 
L 150.352504 150.634847 
L 150.813819 153.208542 
L 151.731538 147.945175 
L 152.189561 153.838296 
L 152.649406 149.753913 
L 153.10852 125.232595 
L 153.567759 141.154296 
L 154.027429 148.666267 
L 154.483967 152.454401 
L 154.943634 153.314903 
L 155.403766 141.338775 
L 155.862707 144.388992 
L 156.322348 141.075577 
L 156.78209 148.788852 
L 157.23865 135.116957 
L 157.698538 145.804134 
L 158.619408 154.185021 
L 159.077745 153.221162 
L 159.53417 147.073256 
L 159.993449 155.386239 
L 160.45277 156.011786 
L 160.912252 145.816153 
L 161.370993 150.406501 
L 161.830149 152.834176 
L 162.288578 149.58025 
L 162.749601 152.015136 
L 163.209495 138.250701 
L 163.668635 149.83744 
L 164.125234 133.341269 
L 164.585583 148.106219 
L 165.045572 121.415618 
L 165.503671 133.996261 
L 165.963289 152.584197 
L 166.423049 127.69993 
L 166.882262 150.327181 
L 167.339498 155.696308 
L 167.799292 153.408645 
L 168.25816 152.09686 
L 168.717897 152.072823 
L 169.175793 165.021223 
L 169.635487 156.534577 
L 170.095147 162.354988 
L 170.552542 156.294814 
L 171.012207 153.75537 
L 171.471734 155.582736 
L 171.931642 168.38151 
L 172.391232 159.937528 
L 172.850295 163.973838 
L 173.308349 165.089727 
L 173.768322 153.988523 
L 174.226284 162.523242 
L 174.684498 160.188708 
L 175.145405 164.803093 
L 175.602339 151.300054 
L 176.062393 166.335413 
L 176.520213 162.440917 
L 176.982305 150.52488 
L 177.897729 163.531568 
L 178.359525 160.125012 
L 178.818501 159.31138 
L 179.276867 152.807736 
L 179.735193 157.798891 
L 180.19354 157.328379 
L 180.653799 155.161499 
L 181.112099 161.090073 
L 181.571832 158.599903 
L 182.488828 164.747809 
L 182.94941 150.930494 
L 183.407636 165.038049 
L 183.867851 163.951604 
L 184.325952 166.722999 
L 184.785995 158.810823 
L 185.242877 164.511652 
L 185.703487 152.95616 
L 186.162736 151.616132 
L 186.622182 162.099601 
L 187.081345 154.465645 
L 187.999957 172.534396 
L 188.458463 166.132305 
L 188.917561 171.969541 
L 189.376669 168.380308 
L 189.834881 168.62608 
L 190.293296 157.6066 
L 190.752856 121.569451 
L 191.213775 165.523584 
L 191.670725 156.099519 
L 192.129847 163.246136 
L 192.588736 161.182613 
L 193.048205 157.198582 
L 193.509485 166.042169 
L 193.967605 156.574838 
L 194.424754 162.523843 
L 194.885974 164.228023 
L 195.345144 162.750386 
L 195.80478 160.605139 
L 196.261212 160.780003 
L 196.720376 154.148966 
L 197.180977 152.721806 
L 197.640397 158.064493 
L 198.099578 152.908689 
L 198.556735 149.320057 
L 199.017209 151.878129 
L 199.475776 147.770311 
L 199.93546 153.4447 
L 200.395775 124.034382 
L 200.852968 128.517167 
L 201.312394 150.972558 
L 201.77117 133.972826 
L 202.232777 153.05471 
L 202.691114 146.426076 
L 203.149621 159.196006 
L 204.067907 152.253697 
L 204.527443 142.644552 
L 204.983889 152.175579 
L 205.443726 150.493633 
L 205.902711 159.8528 
L 206.361122 153.527025 
L 206.823514 138.907495 
L 207.2797 147.916933 
L 207.739361 152.363063 
L 208.199994 129.402908 
L 208.659246 153.976505 
L 209.116422 155.987749 
L 209.575771 153.337137 
L 210.035815 150.02252 
L 210.494353 154.733651 
L 210.953589 154.051018 
L 211.413451 150.307952 
L 211.870976 152.719402 
L 212.330209 147.247519 
L 212.789369 148.448738 
L 213.249001 144.968269 
L 213.709452 156.019598 
L 214.165965 148.99857 
L 214.625569 118.283677 
L 215.083508 160.796829 
L 215.543483 155.522044 
L 216.004425 163.788758 
L 216.463021 105.995677 
L 216.919847 164.976756 
L 217.38162 158.344517 
L 217.838888 160.195318 
L 218.298814 159.171368 
L 218.756031 160.395421 
L 219.217644 150.374052 
L 219.677159 108.114484 
L 220.133948 142.460673 
L 220.594379 151.975476 
L 221.054198 148.071967 
L 221.51333 104.952498 
L 221.972452 157.262279 
L 222.430796 158.896152 
L 222.888239 159.817947 
L 223.349717 159.118488 
L 223.807394 146.195928 
L 224.266765 150.224426 
L 224.726331 127.707141 
L 225.185491 156.315245 
L 225.645117 154.95779 
L 226.102822 148.757004 
L 226.561937 108.086241 
L 227.020194 150.971957 
L 227.481854 163.24193 
L 227.938069 159.016334 
L 228.398579 156.321254 
L 228.857663 161.383317 
L 229.317264 157.098831 
L 229.775237 151.123987 
L 230.235399 155.85615 
L 230.694565 163.500321 
L 231.154682 148.014881 
L 231.613757 156.058056 
L 232.072465 174.417046 
L 232.531655 166.596207 
L 232.987708 163.4204 
L 233.448686 168.56659 
L 233.908576 166.372068 
L 234.365665 154.989038 
L 234.82742 150.636049 
L 235.285847 162.543072 
L 235.74548 157.709355 
L 236.20238 162.681882 
L 236.662757 157.143899 
L 237.121744 164.587367 
L 238.039188 154.453627 
L 238.499699 153.287863 
L 238.958677 153.119608 
L 239.416269 161.78172 
L 239.875274 160.162268 
L 240.335216 160.917011 
L 240.79368 160.726523 
L 241.252149 163.305626 
L 241.712685 165.256179 
L 242.171754 165.343912 
L 242.629719 164.012897 
L 243.548173 157.568142 
L 244.008576 166.286138 
L 244.467703 165.645568 
L 244.92483 163.225705 
L 245.38355 169.416877 
L 245.843692 162.327946 
L 246.301382 162.877779 
L 246.763065 153.34555 
L 247.220464 164.745406 
L 247.679555 146.042696 
L 248.138712 164.857776 
L 248.599132 153.804044 
L 249.05719 163.381942 
L 249.51682 157.504445 
L 249.976273 162.981736 
L 250.435185 157.874004 
L 250.892598 154.736055 
L 251.351706 153.347353 
L 251.81199 170.779139 
L 252.272051 166.380481 
L 252.728521 157.726782 
L 253.188645 158.861299 
L 253.648504 157.723777 
L 254.10845 157.550715 
L 254.566855 162.910829 
L 255.025878 159.184588 
L 255.486525 137.997117 
L 255.944081 155.358597 
L 256.40381 151.082525 
L 256.863365 151.733309 
L 257.319893 159.068613 
L 257.781355 157.092221 
L 258.24034 156.935384 
L 258.699807 161.573204 
L 259.157897 157.053162 
L 259.617479 149.349501 
L 260.077008 148.772027 
L 260.535378 122.794104 
L 260.993469 143.030937 
L 261.45372 138.563174 
L 261.912993 148.192149 
L 262.371905 146.127424 
L 262.829665 33.528984 
L 263.288513 137.504972 
L 263.747322 149.56703 
L 264.20763 140.823796 
L 265.124373 153.515607 
L 265.583597 154.258932 
L 266.044282 154.050417 
L 266.501552 150.289324 
L 266.961162 156.140981 
L 267.420074 151.533807 
L 267.879046 149.738891 
L 268.33847 113.395277 
L 268.798205 158.832455 
L 269.257373 158.145015 
L 269.716358 166.408723 
L 270.175866 161.820779 
L 270.634218 162.57492 
L 271.093831 158.1354 
L 271.552592 142.217906 
L 272.011711 152.597417 
L 272.470558 152.651499 
L 272.930197 142.90775 
L 273.388894 154.323831 
L 273.847831 148.336968 
L 274.308477 169.361593 
L 274.767447 172.702651 
L 275.226758 159.45019 
L 276.142885 171.742397 
L 276.603935 168.05822 
L 277.061846 160.253606 
L 277.520106 159.072218 
L 277.978889 144.3938 
L 278.439564 156.586255 
L 278.899016 156.247943 
L 279.357728 152.283142 
L 279.817571 147.157984 
L 280.276124 145.925518 
L 280.735171 143.706359 
L 281.192849 139.758383 
L 281.653129 154.320225 
L 282.111536 159.33782 
L 282.570873 154.642914 
L 283.031254 147.579822 
L 283.489756 154.818379 
L 283.948517 154.340055 
L 284.408463 151.226142 
L 284.867568 151.036855 
L 285.324392 125.838312 
L 285.784222 152.313187 
L 286.243772 151.623944 
L 286.704026 166.687546 
L 287.160593 137.070514 
L 287.62075 155.455944 
L 288.080512 146.206744 
L 288.539649 123.56387 
L 288.996668 164.79408 
L 289.45816 164.30554 
L 289.914567 157.322971 
L 290.374986 158.923793 
L 290.835925 155.90242 
L 291.294842 159.736223 
L 291.753862 155.064151 
L 292.210748 156.829624 
L 292.670692 157.294728 
L 293.130471 166.199607 
L 293.590222 121.675211 
L 294.047698 157.480409 
L 294.50772 159.625055 
L 294.967175 157.723777 
L 295.424184 142.566434 
L 295.884337 165.38898 
L 296.342993 164.950917 
L 296.803936 163.93538 
L 297.260381 156.21309 
L 297.719171 166.339619 
L 298.179294 162.07256 
L 298.638621 148.779238 
L 299.099531 150.975562 
L 299.55868 154.656134 
L 300.014791 145.176184 
L 300.474296 150.169743 
L 300.934448 159.592606 
L 301.394495 147.293188 
L 301.851106 91.446454 
L 302.311099 152.857611 
L 302.77073 154.819581 
L 303.229128 152.450796 
L 303.687959 101.001517 
L 304.148145 149.816408 
L 304.608096 154.921736 
L 305.065284 152.527712 
L 305.526142 116.724917 
L 305.985601 143.384872 
L 306.445163 147.987239 
L 306.901727 158.074708 
L 307.360769 156.920962 
L 307.819915 144.428652 
L 308.27909 139.847919 
L 308.739603 114.320678 
L 309.198896 152.405727 
L 309.656767 156.506935 
L 310.117922 157.107845 
L 310.576119 113.758227 
L 311.034429 158.781378 
L 311.492654 149.147596 
L 311.951796 168.369492 
L 312.87136 161.148361 
L 313.330167 134.131466 
L 313.788489 153.707297 
L 314.2491 153.923024 
L 314.705773 158.137804 
L 315.165914 156.499123 
L 315.625231 152.813745 
L 316.084541 158.052475 
L 316.543284 157.714763 
L 317.46101 135.648762 
L 317.919642 144.626352 
L 318.377969 150.572953 
L 318.84018 144.211123 
L 319.296537 151.801212 
L 319.757523 123.944245 
L 320.215105 157.036938 
L 320.674603 150.238246 
L 321.133394 152.248289 
L 321.591852 137.038065 
L 322.052443 147.332248 
L 322.510259 137.567467 
L 322.970247 156.498522 
L 323.429028 159.502469 
L 323.88933 148.326753 
L 324.347373 152.392507 
L 324.806163 146.96389 
L 325.265585 143.112661 
L 325.724741 157.500239 
L 326.184813 147.584029 
L 326.644181 151.31087 
L 328.021974 158.41242 
L 328.480514 153.20013 
L 328.940251 158.537409 
L 329.398619 148.751596 
L 329.855228 155.20897 
L 330.314919 157.206995 
L 330.774522 143.843366 
L 331.234603 165.014613 
L 331.693134 161.84181 
L 332.151242 167.817255 
L 332.612426 164.417309 
L 333.070558 170.184238 
L 333.529136 169.93426 
L 334.447014 159.001311 
L 334.905936 159.018737 
L 335.367169 161.2403 
L 335.82686 109.414852 
L 336.283589 162.668662 
L 336.743285 157.275499 
L 337.201545 170.757506 
L 337.660791 117.027175 
L 338.121932 167.358762 
L 338.578978 169.041308 
L 339.037913 171.258064 
L 339.498339 170.776735 
L 339.956163 147.51853 
L 340.415555 170.851248 
L 340.874561 164.849964 
L 341.333 166.666514 
L 341.792756 142.139788 
L 342.251011 163.575435 
L 342.710111 172.771154 
L 343.169941 171.267078 
L 343.628463 166.412329 
L 344.08748 169.935462 
L 344.547357 164.348805 
L 345.007365 172.298239 
L 345.467254 173.444173 
L 345.924102 154.886282 
L 346.383588 174.594314 
L 346.842995 151.965261 
L 347.303439 169.519031 
L 347.759884 134.650051 
L 348.220034 176.308709 
L 348.679831 173.046972 
L 349.137604 163.670378 
L 349.597859 166.150933 
L 350.057777 161.115311 
L 350.51473 165.008003 
L 350.974641 158.888941 
L 351.432685 158.997705 
L 351.892453 158.534404 
L 352.811102 112.76252 
L 353.270147 155.592952 
L 353.730016 159.348637 
L 354.189797 160.83709 
L 354.6487 123.36617 
L 355.107573 154.049215 
L 355.565312 159.719398 
L 356.026268 151.929807 
L 356.484667 157.735795 
L 356.94314 159.450791 
L 357.861776 143.814523 
L 358.320585 162.796656 
L 358.778939 161.450018 
L 359.237227 151.536211 
L 359.699196 108.312784 
L 360.157249 153.007238 
L 360.615692 156.919159 
L 361.073816 140.728251 
L 361.534607 147.59124 
L 361.992889 159.426755 
L 362.451571 162.240815 
L 362.912374 160.832283 
L 363.370961 168.977612 
L 363.8281 167.876746 
L 364.287889 160.396022 
L 364.746215 159.31138 
L 365.206875 168.100284 
L 365.664833 157.804299 
L 366.124446 167.221153 
L 366.583728 158.020627 
L 367.041844 162.196948 
L 367.500922 163.98826 
L 367.961411 164.244247 
L 368.421312 162.273264 
L 368.879963 163.310434 
L 369.336618 160.820264 
L 369.796392 155.423495 
L 370.256032 157.181156 
L 370.715778 165.377563 
L 371.175481 163.285796 
L 371.632023 135.128976 
L 372.092068 165.828245 
L 372.551269 165.636555 
L 373.010564 164.287513 
L 373.930505 177.74308 
L 374.386751 175.356267 
L 374.847488 180.908672 
L 375.763958 172.044655 
L 376.223687 177.411979 
L 376.683369 152.36787 
L 377.143568 178.565725 
L 377.603375 170.582642 
L 378.059625 173.868415 
L 378.519917 166.662307 
L 378.980063 179.037439 
L 379.439869 171.190161 
L 379.896804 170.538174 
L 380.356512 172.996495 
L 380.816047 149.836238 
L 381.275655 176.674062 
L 381.732541 149.414399 
L 382.193306 177.442024 
L 382.652698 177.261151 
L 383.110343 178.577143 
L 383.570575 139.694086 
L 384.028871 178.348196 
L 384.487684 174.436275 
L 384.946165 178.548299 
L 385.405087 176.541261 
L 385.864525 170.880092 
L 386.782693 174.01023 
L 387.242789 177.080277 
L 388.160779 178.729173 
L 388.619479 175.680758 
L 389.077882 174.283644 
L 389.537336 178.651656 
L 389.99626 165.377563 
L 390.456727 175.194022 
L 390.915551 180.675519 
L 391.374149 175.615259 
L 391.832925 173.524695 
L 392.294046 178.393865 
L 392.753345 153.198327 
L 393.212607 168.933145 
L 393.669188 168.632089 
L 394.128573 169.086377 
L 394.586908 173.261496 
L 395.046572 162.83872 
L 395.504678 164.750814 
L 395.964404 143.388478 
L 396.424161 163.970833 
L 396.88424 153.678454 
L 397.343926 157.169138 
L 397.800268 135.895736 
L 398.260448 156.591663 
L 398.720301 161.217466 
L 399.177279 135.194475 
L 399.637069 156.651755 
L 400.097455 166.237464 
L 400.556615 153.169483 
L 401.016539 159.785498 
L 401.473656 152.03076 
L 401.933828 141.895818 
L 402.392755 158.934009 
L 402.851553 146.809456 
L 403.311142 155.460752 
L 403.769969 139.891184 
L 404.229103 146.055916 
L 404.689738 144.578279 
L 405.148012 143.807312 
L 405.606643 143.813321 
L 406.064964 144.120987 
L 406.525913 141.794866 
L 406.982039 102.297078 
L 407.442952 148.622401 
L 407.901191 148.845939 
L 408.360928 153.621367 
L 408.820761 150.965948 
L 409.277588 157.914266 
L 410.196425 168.118912 
L 410.657121 162.383831 
L 411.113864 160.689867 
L 411.574346 166.548134 
L 412.033632 164.747209 
L 412.49387 153.031274 
L 412.94993 146.438695 
L 413.409734 160.628574 
L 413.869566 156.786959 
L 414.327504 164.661278 
L 414.787158 158.276013 
L 415.247637 157.944311 
L 415.707769 158.198496 
L 416.164652 151.732108 
L 416.624456 164.195573 
L 417.084394 162.214375 
L 417.540932 155.334561 
L 418.002125 164.040539 
L 418.461783 152.558358 
L 418.919759 155.564108 
L 419.380647 142.415605 
L 419.83959 149.911352 
L 420.296293 153.090163 
L 420.757031 141.607382 
L 421.215222 149.480499 
L 421.675186 150.484019 
L 422.13487 155.234209 
L 422.591836 120.851364 
L 423.051749 144.876931 
L 423.512119 135.538195 
L 423.969538 131.410547 
L 424.429576 128.890933 
L 424.888859 123.592713 
L 425.348603 134.364619 
L 425.805962 137.847491 
L 426.265662 130.726111 
L 426.725479 137.77418 
L 427.182403 87.040584 
L 427.6418 123.623961 
L 428.101599 140.718036 
L 428.561166 142.195071 
L 429.021235 135.719069 
L 429.477893 138.351053 
L 429.937263 135.143998 
L 430.397684 108.815746 
L 430.85728 134.949304 
L 431.314932 139.150863 
L 431.774698 132.612366 
L 432.234313 132.15267 
L 432.690835 122.667913 
L 433.150522 128.222121 
L 433.609951 140.924148 
L 434.069569 139.334141 
L 434.529304 149.240135 
L 434.989045 147.337656 
L 435.445624 143.278511 
L 435.905363 157.050157 
L 436.364996 141.676487 
L 436.822604 138.932132 
L 437.282871 149.615704 
L 437.742662 154.261336 
L 438.202342 119.129758 
L 438.661342 153.457319 
L 439.119004 143.628241 
L 439.578098 137.772978 
L 440.038141 137.205719 
L 440.497429 130.657006 
L 440.95617 62.569743 
L 441.414393 117.977814 
L 441.87405 145.715801 
L 442.333732 135.015404 
L 442.793528 127.424714 
L 443.2501 147.370706 
L 443.711596 136.060385 
L 444.170528 152.545739 
L 444.629214 133.484887 
L 445.087639 155.884994 
L 445.546218 158.253779 
L 446.005214 167.433274 
L 446.464135 158.078915 
L 446.923452 156.451051 
L 447.383489 163.600072 
L 447.841365 163.509335 
L 448.759726 170.377731 
L 449.220328 172.865497 
L 450.13663 169.644622 
L 450.595932 164.512854 
L 451.055771 168.838201 
L 451.513743 165.253174 
L 451.973851 171.244243 
L 452.43467 152.251293 
L 452.892291 173.106462 
L 453.352182 169.589338 
L 453.811734 169.632603 
L 454.269124 173.220034 
L 455.188469 168.36829 
L 455.650057 172.665394 
L 456.106608 150.965347 
L 456.564051 163.94259 
L 457.023849 158.057883 
L 457.484024 145.483249 
L 457.940575 151.964059 
L 458.400556 165.735104 
L 458.860636 158.434052 
L 459.320337 107.808621 
L 459.77727 153.216955 
L 460.238636 137.791005 
L 460.696229 142.00278 
L 461.155349 162.691497 
L 461.61439 156.64214 
L 462.073183 162.322538 
L 462.532193 134.237226 
L 462.992693 148.422298 
L 463.451631 154.824989 
L 463.909789 133.900115 
L 464.368965 154.925341 
L 464.829004 163.350695 
L 465.28897 166.705573 
L 465.747636 168.129728 
L 466.205846 119.005369 
L 466.666835 168.955378 
L 467.124023 165.628142 
L 467.583104 160.140636 
L 468.041917 166.516286 
L 468.500326 163.38735 
L 468.959405 166.680335 
L 469.421024 169.023882 
L 469.879363 158.856492 
L 470.339098 164.591573 
L 470.798018 165.9965 
L 471.255083 168.797339 
L 471.713535 166.354642 
L 472.17229 165.67982 
L 472.632184 176.413267 
L 473.0921 172.947221 
L 473.551016 164.651063 
L 473.551016 164.651063 
" clip-path="url(#p7cec8c319d)" style="fill: none; stroke: #1f77b4; stroke-width: 1.5; stroke-linecap: square"/>
   </g>
   <g id="patch_3">
    <path d="M 60.922344 188.277656 
L 60.922344 26.16 
" style="fill: none; stroke: #000000; stroke-width: 0.8; stroke-linejoin: miter; stroke-linecap: square"/>
   </g>
   <g id="patch_4">
    <path d="M 493.2 188.277656 
L 493.2 26.16 
" style="fill: none; stroke: #000000; stroke-width: 0.8; stroke-linejoin: miter; stroke-linecap: square"/>
   </g>
   <g id="patch_5">
    <path d="M 60.922344 188.277656 
L 493.2 188.277656 
" style="fill: none; stroke: #000000; stroke-width: 0.8; stroke-linejoin: miter; stroke-linecap: square"/>
   </g>
   <g id="patch_6">
    <path d="M 60.922344 26.16 
L 493.2 26.16 
" style="fill: none; stroke: #000000; stroke-width: 0.8; stroke-linejoin: miter; stroke-linecap: square"/>
   </g>
   <g id="text_16">
    <!-- Solver Time -->
    <g transform="translate(241.614297 20.16) scale(0.12 -0.12)">
     <defs>
      <path id="DejaVuSans-55" d="M 2631 2963 
Q 2534 3019 2420 3045 
Q 2306 3072 2169 3072 
Q 1681 3072 1420 2755 
Q 1159 2438 1159 1844 
L 1159 0 
L 581 0 
L 581 3500 
L 1159 3500 
L 1159 2956 
Q 1341 3275 1631 3429 
Q 1922 3584 2338 3584 
Q 2397 3584 2469 3576 
Q 2541 3569 2628 3553 
L 2631 2963 
z
" transform="scale(0.015625)"/>
      <path id="DejaVuSans-37" d="M -19 4666 
L 3928 4666 
L 3928 4134 
L 2272 4134 
L 2272 0 
L 1638 0 
L 1638 4134 
L -19 4134 
L -19 4666 
z
" transform="scale(0.015625)"/>
     </defs>
     <use xlink:href="#DejaVuSans-36"/>
     <use xlink:href="#DejaVuSans-52" transform="translate(63.484375 0)"/>
     <use xlink:href="#DejaVuSans-4f" transform="translate(124.671875 0)"/>
     <use xlink:href="#DejaVuSans-59" transform="translate(152.453125 0)"/>
     <use xlink:href="#DejaVuSans-48" transform="translate(211.640625 0)"/>
     <use xlink:href="#DejaVuSans-55" transform="translate(273.171875 0)"/>
     <use xlink:href="#DejaVuSans-3" transform="translate(314.28125 0)"/>
     <use xlink:href="#DejaVuSans-37" transform="translate(346.0625 0)"/>
     <use xlink:href="#DejaVuSans-4c" transform="translate(404.0625 0)"/>
     <use xlink:href="#DejaVuSans-50" transform="translate(431.84375 0)"/>
     <use xlink:href="#DejaVuSans-48" transform="translate(529.25 0)"/>
    </g>
   </g>
   <g id="legend_1">
    <g id="patch_7">
     <path d="M 431.6 49.160781 
L 486.2 49.160781 
Q 488.2 49.160781 488.2 47.160781 
L 488.2 33.16 
Q 488.2 31.16 486.2 31.16 
L 431.6 31.16 
Q 429.6 31.16 429.6 33.16 
L 429.6 47.160781 
Q 429.6 49.160781 431.6 49.160781 
z
" style="fill: #ffffff; opacity: 0.8; stroke: #cccccc; stroke-linejoin: miter"/>
    </g>
    <g id="line2d_28">
     <path d="M 433.6 39.258438 
L 443.6 39.258438 
L 453.6 39.258438 
" style="fill: none; stroke: #1f77b4; stroke-width: 1.5; stroke-linecap: square"/>
    </g>
    <g id="text_17">
     <!-- $t_{solve}$ -->
     <g transform="translate(461.6 42.758438) scale(0.1 -0.1)">
      <defs>
       <path id="DejaVuSans-Oblique-57" d="M 2706 3500 
L 2619 3053 
L 1472 3053 
L 1100 1153 
Q 1081 1047 1072 975 
Q 1063 903 1063 863 
Q 1063 663 1183 572 
Q 1303 481 1569 481 
L 2150 481 
L 2053 0 
L 1503 0 
Q 991 0 739 200 
Q 488 400 488 806 
Q 488 878 497 964 
Q 506 1050 525 1153 
L 897 3053 
L 409 3053 
L 500 3500 
L 978 3500 
L 1172 4494 
L 1747 4494 
L 1556 3500 
L 2706 3500 
z
" transform="scale(0.015625)"/>
       <path id="DejaVuSans-Oblique-56" d="M 3200 3397 
L 3091 2853 
Q 2863 2978 2609 3040 
Q 2356 3103 2088 3103 
Q 1634 3103 1373 2948 
Q 1113 2794 1113 2528 
Q 1113 2219 1719 2053 
Q 1766 2041 1788 2034 
L 1972 1978 
Q 2547 1819 2739 1644 
Q 2931 1469 2931 1166 
Q 2931 609 2489 259 
Q 2047 -91 1331 -91 
Q 1053 -91 747 -37 
Q 441 16 72 128 
L 184 722 
Q 500 559 806 475 
Q 1113 391 1394 391 
Q 1816 391 2080 572 
Q 2344 753 2344 1031 
Q 2344 1331 1650 1516 
L 1591 1531 
L 1394 1581 
Q 956 1697 753 1886 
Q 550 2075 550 2369 
Q 550 2928 970 3256 
Q 1391 3584 2113 3584 
Q 2397 3584 2667 3537 
Q 2938 3491 3200 3397 
z
" transform="scale(0.015625)"/>
       <path id="DejaVuSans-Oblique-52" d="M 1625 -91 
Q 1009 -91 651 289 
Q 294 669 294 1325 
Q 294 1706 417 2101 
Q 541 2497 738 2766 
Q 1047 3184 1428 3384 
Q 1809 3584 2291 3584 
Q 2888 3584 3255 3212 
Q 3622 2841 3622 2241 
Q 3622 1825 3500 1412 
Q 3378 1000 3181 728 
Q 2875 309 2494 109 
Q 2113 -91 1625 -91 
z
M 891 1344 
Q 891 869 1089 633 
Q 1288 397 1691 397 
Q 2269 397 2648 901 
Q 3028 1406 3028 2181 
Q 3028 2634 2825 2865 
Q 2622 3097 2228 3097 
Q 1903 3097 1650 2945 
Q 1397 2794 1197 2484 
Q 1050 2253 970 1956 
Q 891 1659 891 1344 
z
" transform="scale(0.015625)"/>
       <path id="DejaVuSans-Oblique-4f" d="M 1172 4863 
L 1747 4863 
L 800 0 
L 225 0 
L 1172 4863 
z
" transform="scale(0.015625)"/>
       <path id="DejaVuSans-Oblique-59" d="M 459 3500 
L 1069 3500 
L 1581 525 
L 3256 3500 
L 3866 3500 
L 1875 0 
L 1100 0 
L 459 3500 
z
" transform="scale(0.015625)"/>
       <path id="DejaVuSans-Oblique-48" d="M 3078 2063 
Q 3088 2113 3092 2166 
Q 3097 2219 3097 2272 
Q 3097 2653 2873 2875 
Q 2650 3097 2266 3097 
Q 1838 3097 1509 2826 
Q 1181 2556 1013 2059 
L 3078 2063 
z
M 3578 1613 
L 903 1613 
Q 884 1494 878 1425 
Q 872 1356 872 1306 
Q 872 872 1139 634 
Q 1406 397 1894 397 
Q 2269 397 2603 481 
Q 2938 566 3225 728 
L 3116 159 
Q 2806 34 2476 -28 
Q 2147 -91 1806 -91 
Q 1078 -91 686 257 
Q 294 606 294 1247 
Q 294 1794 489 2264 
Q 684 2734 1063 3103 
Q 1306 3334 1642 3459 
Q 1978 3584 2356 3584 
Q 2950 3584 3301 3228 
Q 3653 2872 3653 2272 
Q 3653 2128 3634 1964 
Q 3616 1800 3578 1613 
z
" transform="scale(0.015625)"/>
      </defs>
      <use xlink:href="#DejaVuSans-Oblique-57" transform="translate(0 0.78125)"/>
      <use xlink:href="#DejaVuSans-Oblique-56" transform="translate(39.208984 -14.218701) scale(0.7)"/>
      <use xlink:href="#DejaVuSans-Oblique-52" transform="translate(75.678711 -14.218701) scale(0.7)"/>
      <use xlink:href="#DejaVuSans-Oblique-4f" transform="translate(118.505859 -14.218701) scale(0.7)"/>
      <use xlink:href="#DejaVuSans-Oblique-59" transform="translate(137.954102 -14.218701) scale(0.7)"/>
      <use xlink:href="#DejaVuSans-Oblique-48" transform="translate(179.379883 -14.218701) scale(0.7)"/>
     </g>
    </g>
   </g>
  </g>
 </g>
 <defs>
  <clipPath id="p7cec8c319d">
   <rect x="60.922344" y="26.16" width="432.277656" height="162.117656"/>
  </clipPath>
 </defs>
</svg>
