<?xml version="1.0" encoding="utf-8" standalone="no"?>
<!DOCTYPE svg PUBLIC "-//W3C//DTD SVG 1.1//EN"
  "http://www.w3.org/Graphics/SVG/1.1/DTD/svg11.dtd">
<svg xmlns:xlink="http://www.w3.org/1999/xlink" width="504pt" height="604.8pt" viewBox="0 0 504 604.8" xmlns="http://www.w3.org/2000/svg" version="1.1">
 <metadata>
  <rdf:RDF xmlns:dc="http://purl.org/dc/elements/1.1/" xmlns:cc="http://creativecommons.org/ns#" xmlns:rdf="http://www.w3.org/1999/02/22-rdf-syntax-ns#">
   <cc:Work>
    <dc:type rdf:resource="http://purl.org/dc/dcmitype/StillImage"/>
    <dc:date>2026-07-10T12:48:36.905899</dc:date>
    <dc:format>image/svg+xml</dc:format>
    <dc:creator>
     <cc:Agent>
      <dc:title>Matplotlib v3.11.0, https://matplotlib.org/</dc:title>
     </cc:Agent>
    </dc:creator>
   </cc:Work>
  </rdf:RDF>
 </metadata>
 <defs>
  <style type="text/css">*{stroke-linejoin: round; stroke-linecap: butt}</style>
 </defs>
 <g id="figure_1">
  <g id="patch_1">
   <path d="M 0 604.8 
L 504 604.8 
L 504 0 
L 0 0 
z
" style="fill: #ffffff"/>
  </g>
  <g id="axes_1">
   <g id="patch_2">
    <path d="M 42.28 180.599531 
L 493.2 180.599531 
L 493.2 49.202812 
L 42.28 49.202812 
z
" style="fill: #ffffff"/>
   </g>
   <g id="matplotlib.axis_1">
    <g id="xtick_1">
     <g id="line2d_1">
      <path d="M 62.382198 180.599531 
L 62.382198 49.202812 
" clip-path="url(#pda8ff46125)" style="fill: none; stroke: #b0b0b0; stroke-width: 0.8; stroke-linecap: square"/>
     </g>
     <g id="line2d_2">
      <defs>
       <path id="m0bcde97e81" d="M 0 0 
L 0 3.5 
" style="stroke: #000000; stroke-width: 0.8"/>
      </defs>
      <g>
       <use xlink:href="#m0bcde97e81" x="62.382198" y="180.599531" style="stroke: #000000; stroke-width: 0.8"/>
      </g>
     </g>
     <g id="text_1">
      <!-- 0 -->
      <g transform="translate(59.200948 195.197187) scale(0.1 -0.1)">
       <defs>
        <path id="DejaVuSans-13" d="M 2034 4250 
Q 1547 4250 1301 3770 
Q 1056 3291 1056 2328 
Q 1056 1369 1301 889 
Q 1547 409 2034 409 
Q 2525 409 2770 889 
Q 3016 1369 3016 2328 
Q 3016 3291 2770 3770 
Q 2525 4250 2034 4250 
z
M 2034 4750 
Q 2819 4750 3233 4129 
Q 3647 3509 3647 2328 
Q 3647 1150 3233 529 
Q 2819 -91 2034 -91 
Q 1250 -91 836 529 
Q 422 1150 422 2328 
Q 422 3509 836 4129 
Q 1250 4750 2034 4750 
z
" transform="scale(0.015625)"/>
       </defs>
       <use xlink:href="#DejaVuSans-13"/>
      </g>
     </g>
    </g>
    <g id="xtick_2">
     <g id="line2d_3">
      <path d="M 127.933304 180.599531 
L 127.933304 49.202812 
" clip-path="url(#pda8ff46125)" style="fill: none; stroke: #b0b0b0; stroke-width: 0.8; stroke-linecap: square"/>
     </g>
     <g id="line2d_4">
      <g>
       <use xlink:href="#m0bcde97e81" x="127.933304" y="180.599531" style="stroke: #000000; stroke-width: 0.8"/>
      </g>
     </g>
     <g id="text_2">
      <!-- 10 -->
      <g transform="translate(121.570804 195.197187) scale(0.1 -0.1)">
       <defs>
        <path id="DejaVuSans-14" d="M 794 531 
L 1825 531 
L 1825 4091 
L 703 3866 
L 703 4441 
L 1819 4666 
L 2450 4666 
L 2450 531 
L 3481 531 
L 3481 0 
L 794 0 
L 794 531 
z
" transform="scale(0.015625)"/>
       </defs>
       <use xlink:href="#DejaVuSans-14"/>
       <use xlink:href="#DejaVuSans-13" transform="translate(63.625 0)"/>
      </g>
     </g>
    </g>
    <g id="xtick_3">
     <g id="line2d_5">
      <path d="M 193.484411 180.599531 
L 193.484411 49.202812 
" clip-path="url(#pda8ff46125)" style="fill: none; stroke: #b0b0b0; stroke-width: 0.8; stroke-linecap: square"/>
     </g>
     <g id="line2d_6">
      <g>
       <use xlink:href="#m0bcde97e81" x="193.484411" y="180.599531" style="stroke: #000000; stroke-width: 0.8"/>
      </g>
     </g>
     <g id="text_3">
      <!-- 20 -->
      <g transform="translate(187.121911 195.197187) scale(0.1 -0.1)">
       <defs>
        <path id="DejaVuSans-15" d="M 1228 531 
L 3431 531 
L 3431 0 
L 469 0 
L 469 531 
Q 828 903 1448 1529 
Q 2069 2156 2228 2338 
Q 2531 2678 2651 2914 
Q 2772 3150 2772 3378 
Q 2772 3750 2511 3984 
Q 2250 4219 1831 4219 
Q 1534 4219 1204 4116 
Q 875 4013 500 3803 
L 500 4441 
Q 881 4594 1212 4672 
Q 1544 4750 1819 4750 
Q 2544 4750 2975 4387 
Q 3406 4025 3406 3419 
Q 3406 3131 3298 2873 
Q 3191 2616 2906 2266 
Q 2828 2175 2409 1742 
Q 1991 1309 1228 531 
z
" transform="scale(0.015625)"/>
       </defs>
       <use xlink:href="#DejaVuSans-15"/>
       <use xlink:href="#DejaVuSans-13" transform="translate(63.625 0)"/>
      </g>
     </g>
    </g>
    <g id="xtick_4">
     <g id="line2d_7">
      <path d="M 259.035517 180.599531 
L 259.035517 49.202812 
" clip-path="url(#pda8ff46125)" style="fill: none; stroke: #b0b0b0; stroke-width: 0.8; stroke-linecap: square"/>
     </g>
     <g id="line2d_8">
      <g>
       <use xlink:href="#m0bcde97e81" x="259.035517" y="180.599531" style="stroke: #000000; stroke-width: 0.8"/>
      </g>
     </g>
     <g id="text_4">
      <!-- 30 -->
      <g transform="translate(252.673017 195.197187) scale(0.1 -0.1)">
       <defs>
        <path id="DejaVuSans-16" d="M 2597 2516 
Q 3050 2419 3304 2112 
Q 3559 1806 3559 1356 
Q 3559 666 3084 287 
Q 2609 -91 1734 -91 
Q 1441 -91 1130 -33 
Q 819 25 488 141 
L 488 750 
Q 750 597 1062 519 
Q 1375 441 1716 441 
Q 2309 441 2620 675 
Q 2931 909 2931 1356 
Q 2931 1769 2642 2001 
Q 2353 2234 1838 2234 
L 1294 2234 
L 1294 2753 
L 1863 2753 
Q 2328 2753 2575 2939 
Q 2822 3125 2822 3475 
Q 2822 3834 2567 4026 
Q 2313 4219 1838 4219 
Q 1578 4219 1281 4162 
Q 984 4106 628 3988 
L 628 4550 
Q 988 4650 1302 4700 
Q 1616 4750 1894 4750 
Q 2613 4750 3031 4423 
Q 3450 4097 3450 3541 
Q 3450 3153 3228 2886 
Q 3006 2619 2597 2516 
z
" transform="scale(0.015625)"/>
       </defs>
       <use xlink:href="#DejaVuSans-16"/>
       <use xlink:href="#DejaVuSans-13" transform="translate(63.625 0)"/>
      </g>
     </g>
    </g>
    <g id="xtick_5">
     <g id="line2d_9">
      <path d="M 324.586624 180.599531 
L 324.586624 49.202812 
" clip-path="url(#pda8ff46125)" style="fill: none; stroke: #b0b0b0; stroke-width: 0.8; stroke-linecap: square"/>
     </g>
     <g id="line2d_10">
      <g>
       <use xlink:href="#m0bcde97e81" x="324.586624" y="180.599531" style="stroke: #000000; stroke-width: 0.8"/>
      </g>
     </g>
     <g id="text_5">
      <!-- 40 -->
      <g transform="translate(318.224124 195.197187) scale(0.1 -0.1)">
       <defs>
        <path id="DejaVuSans-17" d="M 2419 4116 
L 825 1625 
L 2419 1625 
L 2419 4116 
z
M 2253 4666 
L 3047 4666 
L 3047 1625 
L 3713 1625 
L 3713 1100 
L 3047 1100 
L 3047 0 
L 2419 0 
L 2419 1100 
L 313 1100 
L 313 1709 
L 2253 4666 
z
" transform="scale(0.015625)"/>
       </defs>
       <use xlink:href="#DejaVuSans-17"/>
       <use xlink:href="#DejaVuSans-13" transform="translate(63.625 0)"/>
      </g>
     </g>
    </g>
    <g id="xtick_6">
     <g id="line2d_11">
      <path d="M 390.137731 180.599531 
L 390.137731 49.202812 
" clip-path="url(#pda8ff46125)" style="fill: none; stroke: #b0b0b0; stroke-width: 0.8; stroke-linecap: square"/>
     </g>
     <g id="line2d_12">
      <g>
       <use xlink:href="#m0bcde97e81" x="390.137731" y="180.599531" style="stroke: #000000; stroke-width: 0.8"/>
      </g>
     </g>
     <g id="text_6">
      <!-- 50 -->
      <g transform="translate(383.775231 195.197187) scale(0.1 -0.1)">
       <defs>
        <path id="DejaVuSans-18" d="M 691 4666 
L 3169 4666 
L 3169 4134 
L 1269 4134 
L 1269 2991 
Q 1406 3038 1543 3061 
Q 1681 3084 1819 3084 
Q 2600 3084 3056 2656 
Q 3513 2228 3513 1497 
Q 3513 744 3044 326 
Q 2575 -91 1722 -91 
Q 1428 -91 1123 -41 
Q 819 9 494 109 
L 494 744 
Q 775 591 1075 516 
Q 1375 441 1709 441 
Q 2250 441 2565 725 
Q 2881 1009 2881 1497 
Q 2881 1984 2565 2268 
Q 2250 2553 1709 2553 
Q 1456 2553 1204 2497 
Q 953 2441 691 2322 
L 691 4666 
z
" transform="scale(0.015625)"/>
       </defs>
       <use xlink:href="#DejaVuSans-18"/>
       <use xlink:href="#DejaVuSans-13" transform="translate(63.625 0)"/>
      </g>
     </g>
    </g>
    <g id="xtick_7">
     <g id="line2d_13">
      <path d="M 455.688837 180.599531 
L 455.688837 49.202812 
" clip-path="url(#pda8ff46125)" style="fill: none; stroke: #b0b0b0; stroke-width: 0.8; stroke-linecap: square"/>
     </g>
     <g id="line2d_14">
      <g>
       <use xlink:href="#m0bcde97e81" x="455.688837" y="180.599531" style="stroke: #000000; stroke-width: 0.8"/>
      </g>
     </g>
     <g id="text_7">
      <!-- 60 -->
      <g transform="translate(449.326337 195.197187) scale(0.1 -0.1)">
       <defs>
        <path id="DejaVuSans-19" d="M 2113 2584 
Q 1688 2584 1439 2293 
Q 1191 2003 1191 1497 
Q 1191 994 1439 701 
Q 1688 409 2113 409 
Q 2538 409 2786 701 
Q 3034 994 3034 1497 
Q 3034 2003 2786 2293 
Q 2538 2584 2113 2584 
z
M 3366 4563 
L 3366 3988 
Q 3128 4100 2886 4159 
Q 2644 4219 2406 4219 
Q 1781 4219 1451 3797 
Q 1122 3375 1075 2522 
Q 1259 2794 1537 2939 
Q 1816 3084 2150 3084 
Q 2853 3084 3261 2657 
Q 3669 2231 3669 1497 
Q 3669 778 3244 343 
Q 2819 -91 2113 -91 
Q 1303 -91 875 529 
Q 447 1150 447 2328 
Q 447 3434 972 4092 
Q 1497 4750 2381 4750 
Q 2619 4750 2861 4703 
Q 3103 4656 3366 4563 
z
" transform="scale(0.015625)"/>
       </defs>
       <use xlink:href="#DejaVuSans-19"/>
       <use xlink:href="#DejaVuSans-13" transform="translate(63.625 0)"/>
      </g>
     </g>
    </g>
    <g id="text_8">
     <!-- t (s) -->
     <g transform="translate(257.684531 209.197187) scale(0.1 -0.1)">
      <defs>
       <path id="DejaVuSans-57" d="M 1172 4494 
L 1172 3500 
L 2356 3500 
L 2356 3053 
L 1172 3053 
L 1172 1153 
Q 1172 725 1289 603 
Q 1406 481 1766 481 
L 2356 481 
L 2356 0 
L 1766 0 
Q 1100 0 847 248 
Q 594 497 594 1153 
L 594 3053 
L 172 3053 
L 172 3500 
L 594 3500 
L 594 4494 
L 1172 4494 
z
" transform="scale(0.015625)"/>
       <path id="DejaVuSans-3" transform="scale(0.015625)"/>
       <path id="DejaVuSans-b" d="M 1984 4856 
Q 1566 4138 1362 3434 
Q 1159 2731 1159 2009 
Q 1159 1288 1364 580 
Q 1569 -128 1984 -844 
L 1484 -844 
Q 1016 -109 783 600 
Q 550 1309 550 2009 
Q 550 2706 781 3412 
Q 1013 4119 1484 4856 
L 1984 4856 
z
" transform="scale(0.015625)"/>
       <path id="DejaVuSans-56" d="M 2834 3397 
L 2834 2853 
Q 2591 2978 2328 3040 
Q 2066 3103 1784 3103 
Q 1356 3103 1142 2972 
Q 928 2841 928 2578 
Q 928 2378 1081 2264 
Q 1234 2150 1697 2047 
L 1894 2003 
Q 2506 1872 2764 1633 
Q 3022 1394 3022 966 
Q 3022 478 2636 193 
Q 2250 -91 1575 -91 
Q 1294 -91 989 -36 
Q 684 19 347 128 
L 347 722 
Q 666 556 975 473 
Q 1284 391 1588 391 
Q 1994 391 2212 530 
Q 2431 669 2431 922 
Q 2431 1156 2273 1281 
Q 2116 1406 1581 1522 
L 1381 1569 
Q 847 1681 609 1914 
Q 372 2147 372 2553 
Q 372 3047 722 3315 
Q 1072 3584 1716 3584 
Q 2034 3584 2315 3537 
Q 2597 3491 2834 3397 
z
" transform="scale(0.015625)"/>
       <path id="DejaVuSans-c" d="M 513 4856 
L 1013 4856 
Q 1481 4119 1714 3412 
Q 1947 2706 1947 2009 
Q 1947 1309 1714 600 
Q 1481 -109 1013 -844 
L 513 -844 
Q 928 -128 1133 580 
Q 1338 1288 1338 2009 
Q 1338 2731 1133 3434 
Q 928 4138 513 4856 
z
" transform="scale(0.015625)"/>
      </defs>
      <use xlink:href="#DejaVuSans-57"/>
      <use xlink:href="#DejaVuSans-3" transform="translate(39.203125 0)"/>
      <use xlink:href="#DejaVuSans-b" transform="translate(70.984375 0)"/>
      <use xlink:href="#DejaVuSans-56" transform="translate(110 0)"/>
      <use xlink:href="#DejaVuSans-c" transform="translate(162.09375 0)"/>
     </g>
    </g>
   </g>
   <g id="matplotlib.axis_2">
    <g id="ytick_1">
     <g id="line2d_15">
      <path d="M 42.28 174.626953 
L 493.2 174.626953 
" clip-path="url(#pda8ff46125)" style="fill: none; stroke: #b0b0b0; stroke-width: 0.8; stroke-linecap: square"/>
     </g>
     <g id="line2d_16">
      <defs>
       <path id="m9c8b5a193d" d="M 0 0 
L -3.5 0 
" style="stroke: #000000; stroke-width: 0.8"/>
      </defs>
      <g>
       <use xlink:href="#m9c8b5a193d" x="42.28" y="174.626953" style="stroke: #000000; stroke-width: 0.8"/>
      </g>
     </g>
     <g id="text_9">
      <!-- −1.0 -->
      <g transform="translate(10.997188 178.425781) scale(0.1 -0.1)">
       <defs>
        <path id="DejaVuSans-c9c" d="M 678 2272 
L 4684 2272 
L 4684 1741 
L 678 1741 
L 678 2272 
z
" transform="scale(0.015625)"/>
        <path id="DejaVuSans-11" d="M 684 794 
L 1344 794 
L 1344 0 
L 684 0 
L 684 794 
z
" transform="scale(0.015625)"/>
       </defs>
       <use xlink:href="#DejaVuSans-c9c"/>
       <use xlink:href="#DejaVuSans-14" transform="translate(83.796875 0)"/>
       <use xlink:href="#DejaVuSans-11" transform="translate(147.421875 0)"/>
       <use xlink:href="#DejaVuSans-13" transform="translate(179.203125 0)"/>
      </g>
     </g>
    </g>
    <g id="ytick_2">
     <g id="line2d_17">
      <path d="M 42.28 144.764062 
L 493.2 144.764062 
" clip-path="url(#pda8ff46125)" style="fill: none; stroke: #b0b0b0; stroke-width: 0.8; stroke-linecap: square"/>
     </g>
     <g id="line2d_18">
      <g>
       <use xlink:href="#m9c8b5a193d" x="42.28" y="144.764062" style="stroke: #000000; stroke-width: 0.8"/>
      </g>
     </g>
     <g id="text_10">
      <!-- −0.5 -->
      <g transform="translate(10.997188 148.562891) scale(0.1 -0.1)">
       <use xlink:href="#DejaVuSans-c9c"/>
       <use xlink:href="#DejaVuSans-13" transform="translate(83.796875 0)"/>
       <use xlink:href="#DejaVuSans-11" transform="translate(147.421875 0)"/>
       <use xlink:href="#DejaVuSans-18" transform="translate(179.203125 0)"/>
      </g>
     </g>
    </g>
    <g id="ytick_3">
     <g id="line2d_19">
      <path d="M 42.28 114.901172 
L 493.2 114.901172 
" clip-path="url(#pda8ff46125)" style="fill: none; stroke: #b0b0b0; stroke-width: 0.8; stroke-linecap: square"/>
     </g>
     <g id="line2d_20">
      <g>
       <use xlink:href="#m9c8b5a193d" x="42.28" y="114.901172" style="stroke: #000000; stroke-width: 0.8"/>
      </g>
     </g>
     <g id="text_11">
      <!-- 0.0 -->
      <g transform="translate(19.376875 118.7) scale(0.1 -0.1)">
       <use xlink:href="#DejaVuSans-13"/>
       <use xlink:href="#DejaVuSans-11" transform="translate(63.625 0)"/>
       <use xlink:href="#DejaVuSans-13" transform="translate(95.40625 0)"/>
      </g>
     </g>
    </g>
    <g id="ytick_4">
     <g id="line2d_21">
      <path d="M 42.28 85.038281 
L 493.2 85.038281 
" clip-path="url(#pda8ff46125)" style="fill: none; stroke: #b0b0b0; stroke-width: 0.8; stroke-linecap: square"/>
     </g>
     <g id="line2d_22">
      <g>
       <use xlink:href="#m9c8b5a193d" x="42.28" y="85.038281" style="stroke: #000000; stroke-width: 0.8"/>
      </g>
     </g>
     <g id="text_12">
      <!-- 0.5 -->
      <g transform="translate(19.376875 88.837109) scale(0.1 -0.1)">
       <use xlink:href="#DejaVuSans-13"/>
       <use xlink:href="#DejaVuSans-11" transform="translate(63.625 0)"/>
       <use xlink:href="#DejaVuSans-18" transform="translate(95.40625 0)"/>
      </g>
     </g>
    </g>
    <g id="ytick_5">
     <g id="line2d_23">
      <path d="M 42.28 55.175391 
L 493.2 55.175391 
" clip-path="url(#pda8ff46125)" style="fill: none; stroke: #b0b0b0; stroke-width: 0.8; stroke-linecap: square"/>
     </g>
     <g id="line2d_24">
      <g>
       <use xlink:href="#m9c8b5a193d" x="42.28" y="55.175391" style="stroke: #000000; stroke-width: 0.8"/>
      </g>
     </g>
     <g id="text_13">
      <!-- 1.0 -->
      <g transform="translate(19.376875 58.974219) scale(0.1 -0.1)">
       <use xlink:href="#DejaVuSans-14"/>
       <use xlink:href="#DejaVuSans-11" transform="translate(63.625 0)"/>
       <use xlink:href="#DejaVuSans-13" transform="translate(95.40625 0)"/>
      </g>
     </g>
    </g>
   </g>
   <g id="line2d_25">
    <path d="M 62.776364 114.852525 
L 63.212615 114.74837 
L 63.649248 114.524467 
L 71.516204 108.081387 
L 136.198798 55.175391 
L 165.042727 55.20745 
L 165.916683 55.637341 
L 181.648172 68.418827 
L 182.522097 68.715352 
L 183.396703 68.105171 
L 199.130136 55.204403 
L 200.876801 55.175391 
L 205.683874 55.2685 
L 206.995837 56.198407 
L 209.17996 57.922019 
L 210.053838 58.482073 
L 211.364704 58.779267 
L 213.112834 58.555555 
L 213.551605 58.550496 
L 214.861715 58.949284 
L 224.47596 66.793398 
L 224.912318 66.742913 
L 226.22325 65.726017 
L 235.839052 57.86144 
L 237.150266 57.392032 
L 238.461253 57.598295 
L 240.208128 58.992818 
L 243.705078 61.859655 
L 244.140971 61.90626 
L 252.443718 55.175391 
L 311.003118 55.253317 
L 311.878036 55.567876 
L 312.751092 56.003528 
L 313.625266 56.302683 
L 314.500164 56.164243 
L 314.936095 56.045315 
L 315.811755 55.608909 
L 316.684486 55.53923 
L 317.122964 55.768389 
L 329.794518 66.160674 
L 330.233438 66.019678 
L 343.345745 55.269037 
L 344.218932 55.175391 
L 351.648399 55.175391 
L 352.085605 55.304591 
L 379.620112 77.880935 
L 407.151255 55.30459 
L 407.588167 55.175391 
L 446.04531 55.175391 
L 449.978086 58.38429 
L 460.467477 66.984803 
L 471.829316 57.667581 
L 472.266741 57.776995 
L 472.703636 58.13535 
L 472.703636 58.13535 
" clip-path="url(#pda8ff46125)" style="fill: none; stroke: #1f77b4; stroke-width: 1.5; stroke-linecap: square"/>
   </g>
   <g id="line2d_26">
    <path d="M 42.28 174.626953 
L 493.2 174.626953 
" clip-path="url(#pda8ff46125)" style="fill: none; stroke-dasharray: 3.7,1.6; stroke-dashoffset: 0; stroke: #ff0000"/>
   </g>
   <g id="line2d_27">
    <path d="M 42.28 55.175391 
L 493.2 55.175391 
" clip-path="url(#pda8ff46125)" style="fill: none; stroke-dasharray: 3.7,1.6; stroke-dashoffset: 0; stroke: #ff0000"/>
   </g>
   <g id="patch_3">
    <path d="M 42.28 180.599531 
L 42.28 49.202812 
" style="fill: none; stroke: #000000; stroke-width: 0.8; stroke-linejoin: miter; stroke-linecap: square"/>
   </g>
   <g id="patch_4">
    <path d="M 493.2 180.599531 
L 493.2 49.202812 
" style="fill: none; stroke: #000000; stroke-width: 0.8; stroke-linejoin: miter; stroke-linecap: square"/>
   </g>
   <g id="patch_5">
    <path d="M 42.28 180.599531 
L 493.2 180.599531 
" style="fill: none; stroke: #000000; stroke-width: 0.8; stroke-linejoin: miter; stroke-linecap: square"/>
   </g>
   <g id="patch_6">
    <path d="M 42.28 49.202812 
L 493.2 49.202812 
" style="fill: none; stroke: #000000; stroke-width: 0.8; stroke-linejoin: miter; stroke-linecap: square"/>
   </g>
   <g id="text_14">
    <!-- $v_{x,cmd}$ (m/s) -->
    <g transform="translate(232.7 43.202812) scale(0.12 -0.12)">
     <defs>
      <path id="DejaVuSans-Oblique-59" d="M 459 3500 
L 1069 3500 
L 1581 525 
L 3256 3500 
L 3866 3500 
L 1875 0 
L 1100 0 
L 459 3500 
z
" transform="scale(0.015625)"/>
      <path id="DejaVuSans-Oblique-5b" d="M 3841 3500 
L 2234 1784 
L 3219 0 
L 2559 0 
L 1819 1388 
L 531 0 
L -166 0 
L 1556 1844 
L 641 3500 
L 1300 3500 
L 1972 2234 
L 3144 3500 
L 3841 3500 
z
" transform="scale(0.015625)"/>
      <path id="DejaVuSans-f" d="M 750 794 
L 1409 794 
L 1409 256 
L 897 -744 
L 494 -744 
L 750 256 
L 750 794 
z
" transform="scale(0.015625)"/>
      <path id="DejaVuSans-Oblique-46" d="M 3431 3366 
L 3316 2797 
Q 3109 2947 2876 3022 
Q 2644 3097 2394 3097 
Q 2119 3097 1870 3000 
Q 1622 2903 1453 2725 
Q 1184 2453 1037 2087 
Q 891 1722 891 1331 
Q 891 859 1127 628 
Q 1363 397 1844 397 
Q 2081 397 2348 469 
Q 2616 541 2906 684 
L 2797 116 
Q 2547 13 2283 -39 
Q 2019 -91 1741 -91 
Q 1044 -91 669 257 
Q 294 606 294 1253 
Q 294 1797 489 2255 
Q 684 2713 1069 3078 
Q 1331 3328 1684 3456 
Q 2038 3584 2456 3584 
Q 2700 3584 2940 3529 
Q 3181 3475 3431 3366 
z
" transform="scale(0.015625)"/>
      <path id="DejaVuSans-Oblique-50" d="M 5747 2113 
L 5338 0 
L 4763 0 
L 5166 2094 
Q 5191 2228 5203 2325 
Q 5216 2422 5216 2491 
Q 5216 2772 5059 2928 
Q 4903 3084 4622 3084 
Q 4203 3084 3875 2770 
Q 3547 2456 3450 1953 
L 3066 0 
L 2491 0 
L 2900 2094 
Q 2925 2209 2937 2307 
Q 2950 2406 2950 2484 
Q 2950 2769 2794 2926 
Q 2638 3084 2363 3084 
Q 1938 3084 1609 2770 
Q 1281 2456 1184 1953 
L 800 0 
L 225 0 
L 909 3500 
L 1484 3500 
L 1375 2956 
Q 1609 3263 1923 3423 
Q 2238 3584 2597 3584 
Q 2978 3584 3223 3384 
Q 3469 3184 3519 2828 
Q 3781 3197 4126 3390 
Q 4472 3584 4856 3584 
Q 5306 3584 5551 3325 
Q 5797 3066 5797 2591 
Q 5797 2488 5784 2364 
Q 5772 2241 5747 2113 
z
" transform="scale(0.015625)"/>
      <path id="DejaVuSans-Oblique-47" d="M 2675 525 
Q 2444 222 2128 65 
Q 1813 -91 1428 -91 
Q 903 -91 598 267 
Q 294 625 294 1247 
Q 294 1766 478 2236 
Q 663 2706 1013 3078 
Q 1244 3325 1534 3454 
Q 1825 3584 2144 3584 
Q 2481 3584 2739 3421 
Q 2997 3259 3138 2956 
L 3513 4863 
L 4091 4863 
L 3144 0 
L 2566 0 
L 2675 525 
z
M 891 1350 
Q 891 897 1095 644 
Q 1300 391 1663 391 
Q 1931 391 2161 520 
Q 2391 650 2566 903 
Q 2750 1166 2856 1509 
Q 2963 1853 2963 2188 
Q 2963 2622 2758 2865 
Q 2553 3109 2194 3109 
Q 1922 3109 1687 2981 
Q 1453 2853 1288 2613 
Q 1106 2353 998 2009 
Q 891 1666 891 1350 
z
" transform="scale(0.015625)"/>
      <path id="DejaVuSans-50" d="M 3328 2828 
Q 3544 3216 3844 3400 
Q 4144 3584 4550 3584 
Q 5097 3584 5394 3201 
Q 5691 2819 5691 2113 
L 5691 0 
L 5113 0 
L 5113 2094 
Q 5113 2597 4934 2840 
Q 4756 3084 4391 3084 
Q 3944 3084 3684 2787 
Q 3425 2491 3425 1978 
L 3425 0 
L 2847 0 
L 2847 2094 
Q 2847 2600 2669 2842 
Q 2491 3084 2119 3084 
Q 1678 3084 1418 2786 
Q 1159 2488 1159 1978 
L 1159 0 
L 581 0 
L 581 3500 
L 1159 3500 
L 1159 2956 
Q 1356 3278 1631 3431 
Q 1906 3584 2284 3584 
Q 2666 3584 2933 3390 
Q 3200 3197 3328 2828 
z
" transform="scale(0.015625)"/>
      <path id="DejaVuSans-12" d="M 1625 4666 
L 2156 4666 
L 531 -594 
L 0 -594 
L 1625 4666 
z
" transform="scale(0.015625)"/>
     </defs>
     <use xlink:href="#DejaVuSans-Oblique-59" transform="translate(0 0.125)"/>
     <use xlink:href="#DejaVuSans-Oblique-5b" transform="translate(59.179688 -14.874951) scale(0.7)"/>
     <use xlink:href="#DejaVuSans-f" transform="translate(100.605469 -14.874951) scale(0.7)"/>
     <use xlink:href="#DejaVuSans-Oblique-46" transform="translate(136.494141 -14.874951) scale(0.7)"/>
     <use xlink:href="#DejaVuSans-Oblique-50" transform="translate(174.980469 -14.874951) scale(0.7)"/>
     <use xlink:href="#DejaVuSans-Oblique-47" transform="translate(243.168945 -14.874951) scale(0.7)"/>
     <use xlink:href="#DejaVuSans-3" transform="translate(290.336914 0.125)"/>
     <use xlink:href="#DejaVuSans-b" transform="translate(322.124023 0.125)"/>
     <use xlink:href="#DejaVuSans-50" transform="translate(361.137695 0.125)"/>
     <use xlink:href="#DejaVuSans-12" transform="translate(458.549805 0.125)"/>
     <use xlink:href="#DejaVuSans-56" transform="translate(492.241211 0.125)"/>
     <use xlink:href="#DejaVuSans-c" transform="translate(544.34082 0.125)"/>
    </g>
   </g>
   <g id="legend_1">
    <g id="patch_7">
     <path d="M 425.1 123.901562 
L 486.2 123.901562 
Q 488.2 123.901562 488.2 121.901562 
L 488.2 107.900781 
Q 488.2 105.900781 486.2 105.900781 
L 425.1 105.900781 
Q 423.1 105.900781 423.1 107.900781 
L 423.1 121.901562 
Q 423.1 123.901562 425.1 123.901562 
z
" style="fill: #ffffff; opacity: 0.8; stroke: #cccccc; stroke-linejoin: miter"/>
    </g>
    <g id="line2d_28">
     <path d="M 427.1 113.999219 
L 437.1 113.999219 
L 447.1 113.999219 
" style="fill: none; stroke: #1f77b4; stroke-width: 1.5; stroke-linecap: square"/>
    </g>
    <g id="text_15">
     <!-- $v_{x,cmd}$ -->
     <g transform="translate(455.1 117.499219) scale(0.1 -0.1)">
      <use xlink:href="#DejaVuSans-Oblique-59" transform="translate(0 0.3125)"/>
      <use xlink:href="#DejaVuSans-Oblique-5b" transform="translate(59.179688 -14.687451) scale(0.7)"/>
      <use xlink:href="#DejaVuSans-f" transform="translate(100.605469 -14.687451) scale(0.7)"/>
      <use xlink:href="#DejaVuSans-Oblique-46" transform="translate(136.494141 -14.687451) scale(0.7)"/>
      <use xlink:href="#DejaVuSans-Oblique-50" transform="translate(174.980469 -14.687451) scale(0.7)"/>
      <use xlink:href="#DejaVuSans-Oblique-47" transform="translate(243.168945 -14.687451) scale(0.7)"/>
     </g>
    </g>
   </g>
  </g>
  <g id="axes_2">
   <g id="patch_8">
    <path d="M 42.28 371.638594 
L 493.2 371.638594 
L 493.2 240.241875 
L 42.28 240.241875 
z
" style="fill: #ffffff"/>
   </g>
   <g id="matplotlib.axis_3">
    <g id="xtick_8">
     <g id="line2d_29">
      <path d="M 62.382198 371.638594 
L 62.382198 240.241875 
" clip-path="url(#p37a91f01dc)" style="fill: none; stroke: #b0b0b0; stroke-width: 0.8; stroke-linecap: square"/>
     </g>
     <g id="line2d_30">
      <g>
       <use xlink:href="#m0bcde97e81" x="62.382198" y="371.638594" style="stroke: #000000; stroke-width: 0.8"/>
      </g>
     </g>
     <g id="text_16">
      <!-- 0 -->
      <g transform="translate(59.200948 386.23625) scale(0.1 -0.1)">
       <use xlink:href="#DejaVuSans-13"/>
      </g>
     </g>
    </g>
    <g id="xtick_9">
     <g id="line2d_31">
      <path d="M 127.933304 371.638594 
L 127.933304 240.241875 
" clip-path="url(#p37a91f01dc)" style="fill: none; stroke: #b0b0b0; stroke-width: 0.8; stroke-linecap: square"/>
     </g>
     <g id="line2d_32">
      <g>
       <use xlink:href="#m0bcde97e81" x="127.933304" y="371.638594" style="stroke: #000000; stroke-width: 0.8"/>
      </g>
     </g>
     <g id="text_17">
      <!-- 10 -->
      <g transform="translate(121.570804 386.23625) scale(0.1 -0.1)">
       <use xlink:href="#DejaVuSans-14"/>
       <use xlink:href="#DejaVuSans-13" transform="translate(63.625 0)"/>
      </g>
     </g>
    </g>
    <g id="xtick_10">
     <g id="line2d_33">
      <path d="M 193.484411 371.638594 
L 193.484411 240.241875 
" clip-path="url(#p37a91f01dc)" style="fill: none; stroke: #b0b0b0; stroke-width: 0.8; stroke-linecap: square"/>
     </g>
     <g id="line2d_34">
      <g>
       <use xlink:href="#m0bcde97e81" x="193.484411" y="371.638594" style="stroke: #000000; stroke-width: 0.8"/>
      </g>
     </g>
     <g id="text_18">
      <!-- 20 -->
      <g transform="translate(187.121911 386.23625) scale(0.1 -0.1)">
       <use xlink:href="#DejaVuSans-15"/>
       <use xlink:href="#DejaVuSans-13" transform="translate(63.625 0)"/>
      </g>
     </g>
    </g>
    <g id="xtick_11">
     <g id="line2d_35">
      <path d="M 259.035517 371.638594 
L 259.035517 240.241875 
" clip-path="url(#p37a91f01dc)" style="fill: none; stroke: #b0b0b0; stroke-width: 0.8; stroke-linecap: square"/>
     </g>
     <g id="line2d_36">
      <g>
       <use xlink:href="#m0bcde97e81" x="259.035517" y="371.638594" style="stroke: #000000; stroke-width: 0.8"/>
      </g>
     </g>
     <g id="text_19">
      <!-- 30 -->
      <g transform="translate(252.673017 386.23625) scale(0.1 -0.1)">
       <use xlink:href="#DejaVuSans-16"/>
       <use xlink:href="#DejaVuSans-13" transform="translate(63.625 0)"/>
      </g>
     </g>
    </g>
    <g id="xtick_12">
     <g id="line2d_37">
      <path d="M 324.586624 371.638594 
L 324.586624 240.241875 
" clip-path="url(#p37a91f01dc)" style="fill: none; stroke: #b0b0b0; stroke-width: 0.8; stroke-linecap: square"/>
     </g>
     <g id="line2d_38">
      <g>
       <use xlink:href="#m0bcde97e81" x="324.586624" y="371.638594" style="stroke: #000000; stroke-width: 0.8"/>
      </g>
     </g>
     <g id="text_20">
      <!-- 40 -->
      <g transform="translate(318.224124 386.23625) scale(0.1 -0.1)">
       <use xlink:href="#DejaVuSans-17"/>
       <use xlink:href="#DejaVuSans-13" transform="translate(63.625 0)"/>
      </g>
     </g>
    </g>
    <g id="xtick_13">
     <g id="line2d_39">
      <path d="M 390.137731 371.638594 
L 390.137731 240.241875 
" clip-path="url(#p37a91f01dc)" style="fill: none; stroke: #b0b0b0; stroke-width: 0.8; stroke-linecap: square"/>
     </g>
     <g id="line2d_40">
      <g>
       <use xlink:href="#m0bcde97e81" x="390.137731" y="371.638594" style="stroke: #000000; stroke-width: 0.8"/>
      </g>
     </g>
     <g id="text_21">
      <!-- 50 -->
      <g transform="translate(383.775231 386.23625) scale(0.1 -0.1)">
       <use xlink:href="#DejaVuSans-18"/>
       <use xlink:href="#DejaVuSans-13" transform="translate(63.625 0)"/>
      </g>
     </g>
    </g>
    <g id="xtick_14">
     <g id="line2d_41">
      <path d="M 455.688837 371.638594 
L 455.688837 240.241875 
" clip-path="url(#p37a91f01dc)" style="fill: none; stroke: #b0b0b0; stroke-width: 0.8; stroke-linecap: square"/>
     </g>
     <g id="line2d_42">
      <g>
       <use xlink:href="#m0bcde97e81" x="455.688837" y="371.638594" style="stroke: #000000; stroke-width: 0.8"/>
      </g>
     </g>
     <g id="text_22">
      <!-- 60 -->
      <g transform="translate(449.326337 386.23625) scale(0.1 -0.1)">
       <use xlink:href="#DejaVuSans-19"/>
       <use xlink:href="#DejaVuSans-13" transform="translate(63.625 0)"/>
      </g>
     </g>
    </g>
    <g id="text_23">
     <!-- t (s) -->
     <g transform="translate(257.684531 400.23625) scale(0.1 -0.1)">
      <use xlink:href="#DejaVuSans-57"/>
      <use xlink:href="#DejaVuSans-3" transform="translate(39.203125 0)"/>
      <use xlink:href="#DejaVuSans-b" transform="translate(70.984375 0)"/>
      <use xlink:href="#DejaVuSans-56" transform="translate(110 0)"/>
      <use xlink:href="#DejaVuSans-c" transform="translate(162.09375 0)"/>
     </g>
    </g>
   </g>
   <g id="matplotlib.axis_4">
    <g id="ytick_6">
     <g id="line2d_43">
      <path d="M 42.28 351.567264 
L 493.2 351.567264 
" clip-path="url(#p37a91f01dc)" style="fill: none; stroke: #b0b0b0; stroke-width: 0.8; stroke-linecap: square"/>
     </g>
     <g id="line2d_44">
      <g>
       <use xlink:href="#m9c8b5a193d" x="42.28" y="351.567264" style="stroke: #000000; stroke-width: 0.8"/>
      </g>
     </g>
     <g id="text_24">
      <!-- −0.4 -->
      <g transform="translate(10.997188 355.366092) scale(0.1 -0.1)">
       <use xlink:href="#DejaVuSans-c9c"/>
       <use xlink:href="#DejaVuSans-13" transform="translate(83.796875 0)"/>
       <use xlink:href="#DejaVuSans-11" transform="translate(147.421875 0)"/>
       <use xlink:href="#DejaVuSans-17" transform="translate(179.203125 0)"/>
      </g>
     </g>
    </g>
    <g id="ytick_7">
     <g id="line2d_45">
      <path d="M 42.28 328.753749 
L 493.2 328.753749 
" clip-path="url(#p37a91f01dc)" style="fill: none; stroke: #b0b0b0; stroke-width: 0.8; stroke-linecap: square"/>
     </g>
     <g id="line2d_46">
      <g>
       <use xlink:href="#m9c8b5a193d" x="42.28" y="328.753749" style="stroke: #000000; stroke-width: 0.8"/>
      </g>
     </g>
     <g id="text_25">
      <!-- −0.2 -->
      <g transform="translate(10.997188 332.552577) scale(0.1 -0.1)">
       <use xlink:href="#DejaVuSans-c9c"/>
       <use xlink:href="#DejaVuSans-13" transform="translate(83.796875 0)"/>
       <use xlink:href="#DejaVuSans-11" transform="translate(147.421875 0)"/>
       <use xlink:href="#DejaVuSans-15" transform="translate(179.203125 0)"/>
      </g>
     </g>
    </g>
    <g id="ytick_8">
     <g id="line2d_47">
      <path d="M 42.28 305.940234 
L 493.2 305.940234 
" clip-path="url(#p37a91f01dc)" style="fill: none; stroke: #b0b0b0; stroke-width: 0.8; stroke-linecap: square"/>
     </g>
     <g id="line2d_48">
      <g>
       <use xlink:href="#m9c8b5a193d" x="42.28" y="305.940234" style="stroke: #000000; stroke-width: 0.8"/>
      </g>
     </g>
     <g id="text_26">
      <!-- 0.0 -->
      <g transform="translate(19.376875 309.739062) scale(0.1 -0.1)">
       <use xlink:href="#DejaVuSans-13"/>
       <use xlink:href="#DejaVuSans-11" transform="translate(63.625 0)"/>
       <use xlink:href="#DejaVuSans-13" transform="translate(95.40625 0)"/>
      </g>
     </g>
    </g>
    <g id="ytick_9">
     <g id="line2d_49">
      <path d="M 42.28 283.12672 
L 493.2 283.12672 
" clip-path="url(#p37a91f01dc)" style="fill: none; stroke: #b0b0b0; stroke-width: 0.8; stroke-linecap: square"/>
     </g>
     <g id="line2d_50">
      <g>
       <use xlink:href="#m9c8b5a193d" x="42.28" y="283.12672" style="stroke: #000000; stroke-width: 0.8"/>
      </g>
     </g>
     <g id="text_27">
      <!-- 0.2 -->
      <g transform="translate(19.376875 286.925548) scale(0.1 -0.1)">
       <use xlink:href="#DejaVuSans-13"/>
       <use xlink:href="#DejaVuSans-11" transform="translate(63.625 0)"/>
       <use xlink:href="#DejaVuSans-15" transform="translate(95.40625 0)"/>
      </g>
     </g>
    </g>
    <g id="ytick_10">
     <g id="line2d_51">
      <path d="M 42.28 260.313205 
L 493.2 260.313205 
" clip-path="url(#p37a91f01dc)" style="fill: none; stroke: #b0b0b0; stroke-width: 0.8; stroke-linecap: square"/>
     </g>
     <g id="line2d_52">
      <g>
       <use xlink:href="#m9c8b5a193d" x="42.28" y="260.313205" style="stroke: #000000; stroke-width: 0.8"/>
      </g>
     </g>
     <g id="text_28">
      <!-- 0.4 -->
      <g transform="translate(19.376875 264.112033) scale(0.1 -0.1)">
       <use xlink:href="#DejaVuSans-13"/>
       <use xlink:href="#DejaVuSans-11" transform="translate(63.625 0)"/>
       <use xlink:href="#DejaVuSans-17" transform="translate(95.40625 0)"/>
      </g>
     </g>
    </g>
   </g>
   <g id="line2d_53">
    <path d="M 62.776364 285.999654 
L 63.212615 259.833566 
L 63.649248 246.21501 
L 66.272215 246.214479 
L 66.709185 265.162683 
L 67.146128 365.66392 
L 67.583039 365.665995 
L 68.020134 246.214762 
L 68.457249 246.214806 
L 68.894705 365.665622 
L 69.331164 365.665585 
L 69.768113 246.214681 
L 70.205657 246.214456 
L 70.642248 365.666015 
L 71.07925 365.665954 
L 71.516204 246.214536 
L 71.95434 246.214539 
L 72.390364 365.665989 
L 72.827504 365.665995 
L 73.264624 246.214503 
L 73.701361 246.214541 
L 74.138303 365.666003 
L 74.575666 365.666 
L 75.012519 246.214505 
L 75.449577 246.214555 
L 75.886563 365.666014 
L 76.323831 365.666014 
L 76.760735 246.214637 
L 77.197711 246.759299 
L 77.634575 365.666015 
L 78.071563 365.666016 
L 78.508555 268.661942 
L 78.945719 246.214508 
L 79.383372 365.666006 
L 79.820033 365.666006 
L 80.256442 246.21446 
L 80.693963 246.214469 
L 81.130504 365.666012 
L 81.567488 365.666013 
L 82.00516 249.780751 
L 82.441831 258.825586 
L 82.878747 365.666005 
L 83.315607 365.666015 
L 83.752888 246.214454 
L 84.190018 246.214457 
L 84.627436 365.66601 
L 85.063695 365.666012 
L 85.500595 247.142105 
L 85.938222 257.195601 
L 86.375041 365.666016 
L 86.811825 365.666016 
L 87.248623 246.214453 
L 87.685909 246.214488 
L 88.122842 365.666011 
L 88.559837 365.666016 
L 88.997231 246.214455 
L 89.43419 246.214507 
L 89.870764 365.666014 
L 90.30803 365.666014 
L 90.744629 246.259008 
L 91.182126 250.960244 
L 91.619035 365.66601 
L 92.055875 365.666015 
L 92.492851 246.21496 
L 92.930128 248.271606 
L 93.366966 365.666015 
L 93.804124 365.666015 
L 94.241071 256.615431 
L 94.677966 246.218194 
L 95.114859 365.666013 
L 95.552264 365.666012 
L 95.988912 246.631796 
L 96.425956 257.389131 
L 96.86286 365.666014 
L 97.29997 365.666015 
L 97.736853 246.226684 
L 98.177346 253.473802 
L 98.614414 365.666015 
L 99.051483 365.666015 
L 99.488343 262.259489 
L 99.925434 246.325272 
L 100.362324 365.666015 
L 100.799438 365.666013 
L 101.23639 254.961971 
L 101.673916 255.930668 
L 102.110426 365.666012 
L 102.547486 365.666015 
L 102.984466 250.113616 
L 103.422233 257.168901 
L 103.858379 365.666015 
L 104.295471 365.666015 
L 104.732358 262.055231 
L 105.169588 251.306517 
L 105.612339 365.666016 
L 106.045073 365.666014 
L 106.481905 262.145126 
L 106.918968 257.930623 
L 107.356472 365.666016 
L 107.792978 365.666016 
L 108.230023 252.2798 
L 108.667123 260.070235 
L 109.103952 365.666016 
L 109.541053 365.666016 
L 109.978471 268.404311 
L 110.415515 253.228542 
L 110.852004 365.666013 
L 111.289096 365.666016 
L 111.725947 262.682692 
L 112.163484 263.530843 
L 112.600135 365.666016 
L 113.037306 365.666016 
L 113.473983 256.269797 
L 113.91118 261.247168 
L 114.348094 365.666016 
L 114.785288 365.666015 
L 115.222053 272.541887 
L 115.659195 257.37235 
L 116.096046 365.666016 
L 116.533193 365.666013 
L 116.970162 261.030103 
L 117.40717 267.123811 
L 117.844128 365.666016 
L 118.281163 365.666009 
L 118.718133 265.780356 
L 119.15525 262.210963 
L 119.592488 365.666001 
L 120.029202 365.666015 
L 120.466197 270.702522 
L 120.903869 263.744674 
L 121.340616 364.122149 
L 121.777347 365.425521 
L 122.214563 271.713518 
L 122.657336 271.356337 
L 123.08838 351.5996 
L 123.525272 357.891505 
L 123.962206 298.055219 
L 124.399346 278.155176 
L 124.836566 325.004581 
L 125.273617 352.83182 
L 126.147193 292.197128 
L 127.021659 334.685254 
L 127.458797 327.827463 
L 127.895429 318.526456 
L 128.332379 314.389589 
L 128.769315 318.868174 
L 129.206889 328.981572 
L 129.643873 326.198865 
L 130.080553 320.171744 
L 130.517032 324.397047 
L 130.956469 324.608098 
L 131.391654 323.23914 
L 131.828663 327.948563 
L 132.265914 326.677514 
L 132.702719 324.528504 
L 133.14 329.080094 
L 133.577039 328.273909 
L 134.014122 326.491919 
L 134.450829 330.468629 
L 134.888212 329.221844 
L 135.324639 327.106887 
L 135.761732 330.005799 
L 136.198798 328.192301 
L 136.6358 325.656553 
L 137.072687 327.287393 
L 137.947429 322.546329 
L 138.383956 323.051955 
L 139.258024 318.29071 
L 139.695077 318.247444 
L 140.569073 314.657291 
L 141.006096 314.824927 
L 141.880096 312.643275 
L 142.317142 312.953844 
L 143.191264 311.210538 
L 143.628192 311.392619 
L 144.50225 309.937716 
L 144.939357 310.130408 
L 145.813329 309.134308 
L 146.250486 309.48638 
L 147.124238 308.909889 
L 147.561536 309.452441 
L 148.435323 309.11733 
L 148.872377 309.822017 
L 149.310476 309.757136 
L 149.746374 309.564257 
L 150.184089 310.319518 
L 150.621415 310.15941 
L 151.058034 309.776532 
L 151.49474 310.150936 
L 152.368608 309.011653 
L 152.805491 309.038984 
L 153.679688 308.210613 
L 154.116549 308.403819 
L 154.990561 308.323733 
L 155.427561 309.006266 
L 156.301573 309.78075 
L 156.738576 311.183564 
L 157.612512 312.764699 
L 158.049638 314.891896 
L 158.923583 316.914521 
L 159.360593 319.365707 
L 160.235468 321.00478 
L 160.671843 323.031798 
L 161.10856 323.458161 
L 161.545754 323.687086 
L 161.982763 324.966031 
L 162.421708 324.837801 
L 162.856701 324.520124 
L 163.293702 324.84137 
L 164.168066 323.348635 
L 164.604749 323.00414 
L 165.479052 321.457039 
L 166.353877 321.267872 
L 166.78988 321.515956 
L 168.100817 325.797129 
L 171.159883 347.937577 
L 171.597075 349.665962 
L 172.033832 350.748786 
L 172.471465 351.109365 
L 172.909001 350.3012 
L 173.345186 348.61437 
L 174.219442 341.798832 
L 174.655768 337.52673 
L 176.403922 314.286322 
L 177.715676 300.667112 
L 178.153788 298.292633 
L 178.589255 297.016468 
L 179.025972 297.030467 
L 179.464724 298.551284 
L 179.900155 301.262144 
L 180.776569 312.230456 
L 181.211084 318.938141 
L 182.08674 337.801264 
L 182.522097 345.629638 
L 182.959909 355.721816 
L 183.396703 360.030483 
L 183.833317 361.330822 
L 184.270185 361.390199 
L 184.708571 354.761915 
L 185.58113 331.536237 
L 186.455642 307.551027 
L 186.892116 299.612507 
L 187.330317 296.91307 
L 187.766546 297.054141 
L 188.20321 297.004592 
L 188.640195 298.302845 
L 189.077126 299.20678 
L 189.514157 297.751261 
L 190.388169 296.904159 
L 190.82529 294.079548 
L 191.263752 293.563284 
L 191.699208 293.504937 
L 192.136734 290.702879 
L 192.5744 290.878135 
L 193.010471 291.721179 
L 193.447309 290.061962 
L 193.885852 291.314046 
L 194.321487 292.998015 
L 194.758411 292.39425 
L 195.632402 295.490966 
L 196.069624 295.274679 
L 196.943492 297.706143 
L 197.380453 297.439618 
L 198.254484 298.818692 
L 198.692275 298.117871 
L 199.565559 298.344361 
L 200.00252 296.966849 
L 200.876801 295.927498 
L 201.313473 293.60584 
L 202.188415 291.270874 
L 202.624668 287.897271 
L 203.498524 284.119931 
L 203.935816 279.697482 
L 204.809546 274.599164 
L 205.246793 269.741006 
L 206.120657 264.950313 
L 206.557625 261.246406 
L 207.868851 256.709077 
L 208.306518 256.416885 
L 208.742516 256.49705 
L 209.17996 255.881099 
L 209.618389 256.697642 
L 210.490923 258.933032 
L 210.929312 261.299688 
L 211.801749 267.876327 
L 212.675882 277.345903 
L 214.424019 300.607231 
L 215.73491 314.432493 
L 216.608854 319.855288 
L 217.04662 322.436886 
L 217.483143 323.445872 
L 217.920027 323.79619 
L 218.356952 323.533804 
L 218.79538 322.247422 
L 219.231066 320.201892 
L 220.106866 312.286353 
L 220.542431 307.281853 
L 223.601358 252.513622 
L 224.039702 249.338708 
L 224.47596 248.634363 
L 224.912318 250.933824 
L 225.350812 257.412428 
L 225.786268 267.440471 
L 227.097952 309.957047 
L 227.534268 324.091123 
L 227.973081 331.758348 
L 228.845212 341.917678 
L 229.283855 342.421248 
L 229.719369 341.34966 
L 230.156283 340.898327 
L 231.905229 327.995557 
L 232.778376 321.810244 
L 233.21671 319.363503 
L 233.652528 317.895597 
L 234.089392 318.25462 
L 234.52814 318.821232 
L 234.963436 320.018814 
L 235.400591 323.028073 
L 236.711774 328.242496 
L 237.150266 328.25316 
L 237.585473 327.340353 
L 238.022765 325.436531 
L 238.461253 321.991141 
L 238.896506 317.527757 
L 240.208128 295.910714 
L 241.083494 275.242869 
L 241.518491 265.726523 
L 241.956007 253.512741 
L 242.394215 246.214529 
L 245.888702 246.214824 
L 246.327162 259.651886 
L 247.638286 307.373483 
L 248.511245 321.0403 
L 248.949281 322.27741 
L 249.384693 321.7978 
L 249.821847 322.121692 
L 250.695672 318.946181 
L 251.132815 318.737078 
L 252.006765 316.02248 
L 252.443718 315.413848 
L 253.321621 312.726841 
L 253.754851 312.148221 
L 254.628806 310.570301 
L 255.0663 310.310809 
L 255.93982 309.252611 
L 256.376946 308.892904 
L 257.25111 307.627275 
L 258.562017 305.131686 
L 259.437106 302.895556 
L 259.873027 302.003807 
L 260.309923 300.505866 
L 261.18397 299.118939 
L 261.620928 297.944731 
L 262.494955 297.256531 
L 263.806831 291.987779 
L 264.243719 287.994862 
L 264.681462 285.931045 
L 265.117101 284.513279 
L 265.554102 282.029065 
L 265.992674 282.733321 
L 266.428115 284.818629 
L 266.864855 287.556624 
L 267.739277 297.775743 
L 268.614402 310.553776 
L 269.050134 316.072964 
L 269.487325 324.033077 
L 270.36104 334.493491 
L 270.798137 343.107888 
L 272.548137 362.008025 
L 273.420234 365.661898 
L 276.042944 365.665988 
L 276.479755 364.400566 
L 276.916411 356.542809 
L 277.353519 346.659384 
L 278.664898 310.000373 
L 279.102294 301.914768 
L 279.975301 290.110441 
L 280.414112 287.2901 
L 280.849385 285.446047 
L 281.286413 281.798356 
L 281.724048 281.34294 
L 282.160779 281.644965 
L 282.597302 279.978077 
L 283.471488 280.858293 
L 283.908405 279.007031 
L 284.347095 279.201156 
L 284.783144 279.599738 
L 285.219906 278.257002 
L 285.658232 279.42919 
L 286.094196 281.289182 
L 286.530607 282.411501 
L 287.404556 289.568785 
L 288.715704 301.956362 
L 289.590702 310.094637 
L 290.02669 313.150403 
L 290.463797 317.622504 
L 291.338606 322.973156 
L 291.774502 328.177978 
L 292.649575 334.371817 
L 293.085635 340.737559 
L 293.959673 347.585021 
L 294.396621 353.290078 
L 294.835413 355.243027 
L 295.270737 356.275765 
L 295.708067 358.667215 
L 296.581754 357.766689 
L 297.018771 359.777312 
L 297.893113 359.839638 
L 298.329569 362.644149 
L 298.767602 361.95808 
L 299.64087 358.349246 
L 300.079619 351.854744 
L 300.9528 333.671563 
L 301.82594 313.748806 
L 302.263273 306.164297 
L 302.702326 301.692306 
L 303.573868 296.556819 
L 304.448073 294.932881 
L 304.885315 291.7715 
L 305.759963 288.558267 
L 306.196085 283.434402 
L 307.070135 278.189952 
L 307.507001 272.044498 
L 308.381155 267.145696 
L 308.818043 262.348852 
L 309.692341 259.360849 
L 310.12916 255.982819 
L 311.003118 254.22403 
L 311.440144 251.707104 
L 312.314276 250.715591 
L 312.751092 249.162886 
L 313.189515 249.578957 
L 314.062032 251.506534 
L 314.500164 254.583135 
L 315.373153 263.776798 
L 316.247265 276.580392 
L 317.122964 290.973603 
L 319.744904 326.790291 
L 321.055712 340.021281 
L 321.491427 342.733452 
L 321.928411 344.231095 
L 322.366835 344.43471 
L 322.803001 343.447157 
L 323.677731 334.869758 
L 324.113542 329.225052 
L 325.42461 298.820914 
L 326.735476 250.762333 
L 327.172567 246.214453 
L 331.979588 246.214456 
L 332.416628 260.688711 
L 333.291234 315.766429 
L 333.727771 336.26168 
L 334.165505 343.989246 
L 335.038728 349.327627 
L 335.47661 345.394218 
L 335.912743 338.683142 
L 336.78791 319.847188 
L 338.097926 292.697642 
L 338.971842 284.422735 
L 339.410139 284.682478 
L 340.291702 288.623359 
L 342.033956 304.340265 
L 343.345745 312.073495 
L 343.781985 313.526919 
L 344.218932 316.508636 
L 345.092985 319.190053 
L 345.53017 322.764201 
L 346.404985 325.274975 
L 346.841131 328.698837 
L 347.278089 329.377353 
L 347.715129 329.58466 
L 348.152253 331.666315 
L 348.589705 331.433729 
L 349.026361 331.005921 
L 349.463264 332.347562 
L 350.337546 331.613848 
L 350.774769 332.842856 
L 351.211212 332.79014 
L 351.648399 332.889062 
L 352.085605 334.292139 
L 352.522312 334.713761 
L 352.960731 335.324009 
L 353.397122 337.002905 
L 354.270575 338.880474 
L 354.707449 340.332904 
L 355.581497 341.934003 
L 356.018745 342.358764 
L 356.455524 342.52441 
L 356.892742 342.452321 
L 357.329557 341.322028 
L 358.203912 339.491798 
L 358.640677 336.779479 
L 359.515071 333.474551 
L 359.952403 329.680186 
L 360.825483 325.439094 
L 361.262731 320.834717 
L 362.136899 314.712584 
L 363.447935 296.155704 
L 364.321812 272.939372 
L 364.758769 257.391411 
L 365.195802 246.214453 
L 385.300462 246.214453 
L 385.737316 267.369707 
L 386.175358 363.986842 
L 386.611506 363.694607 
L 387.050051 287.26722 
L 387.48556 274.189704 
L 387.92296 330.139948 
L 388.35981 350.602398 
L 389.233332 287.600226 
L 389.670748 308.45588 
L 390.108977 342.91827 
L 390.544542 329.26458 
L 390.981625 297.575746 
L 391.41868 307.411305 
L 391.855586 329.510695 
L 392.292803 326.179718 
L 392.729897 312.279809 
L 393.166708 305.894429 
L 394.040629 326.974067 
L 394.915241 303.062333 
L 395.788631 320.918047 
L 396.226018 313.023432 
L 396.662795 307.366749 
L 397.099621 309.002064 
L 397.536652 313.501076 
L 397.973703 314.77275 
L 398.411145 307.773157 
L 398.848062 305.07358 
L 399.285564 312.380488 
L 399.721814 313.491516 
L 400.158922 307.083648 
L 400.595919 306.784468 
L 401.032829 310.463517 
L 401.471735 311.214926 
L 401.907118 309.80366 
L 402.344051 306.996355 
L 402.781081 307.822495 
L 403.217979 312.135312 
L 403.655224 309.993651 
L 404.092149 305.627457 
L 404.966015 311.094124 
L 405.403158 308.404899 
L 405.840541 306.880266 
L 406.277757 307.629061 
L 406.714013 308.927455 
L 407.151255 309.220181 
L 407.588167 306.465391 
L 408.025173 305.805523 
L 408.462188 309.154035 
L 408.900268 308.806953 
L 409.336212 305.32039 
L 409.773191 305.930876 
L 410.210405 308.468912 
L 410.647259 307.86039 
L 411.084205 305.705477 
L 411.521286 305.48525 
L 411.958265 307.463465 
L 412.395282 308.14046 
L 412.832903 305.79363 
L 413.269382 304.94669 
L 413.706474 307.449312 
L 414.143322 308.056815 
L 414.580741 305.717188 
L 415.017367 305.226123 
L 415.454286 307.024263 
L 415.891649 307.635339 
L 416.765995 305.273019 
L 417.639594 307.677815 
L 418.513606 305.222057 
L 419.387343 307.329586 
L 420.262386 305.716641 
L 420.698324 305.999985 
L 421.137464 306.767155 
L 421.572572 306.85246 
L 422.009456 305.997869 
L 422.446835 305.756704 
L 422.88374 306.588538 
L 423.320563 306.759437 
L 423.757532 306.110467 
L 424.194854 305.983598 
L 424.631884 306.29544 
L 425.068634 306.460857 
L 425.506351 306.399629 
L 425.943241 306.092671 
L 426.379677 306.053072 
L 426.816688 306.401633 
L 427.254382 306.381689 
L 427.690635 306.113183 
L 429.438693 306.266796 
L 430.31264 306.108274 
L 430.749712 306.236908 
L 438.178816 306.093522 
L 439.926904 306.113887 
L 444.734183 306.095754 
L 449.104422 306.328873 
L 449.978086 306.534224 
L 450.852102 306.962319 
L 451.289182 307.34163 
L 451.726746 307.918856 
L 452.16317 308.819943 
L 452.600799 310.237091 
L 453.037699 312.535866 
L 453.475069 316.315389 
L 453.911791 322.614985 
L 454.348883 333.131727 
L 455.222771 365.666016 
L 465.274057 365.666016 
L 465.711124 361.480091 
L 466.148325 309.449699 
L 466.58548 282.461793 
L 467.022408 290.893539 
L 467.459545 306.323093 
L 467.89616 311.76701 
L 468.333493 309.638376 
L 468.770252 306.662823 
L 469.207509 305.413814 
L 469.644506 305.364639 
L 470.51868 305.788023 
L 471.392566 305.898739 
L 472.703636 305.919551 
L 472.703636 305.919551 
" clip-path="url(#p37a91f01dc)" style="fill: none; stroke: #1f77b4; stroke-width: 1.5; stroke-linecap: square"/>
   </g>
   <g id="line2d_54">
    <path d="M 42.28 365.666016 
L 493.2 365.666016 
" clip-path="url(#p37a91f01dc)" style="fill: none; stroke-dasharray: 3.7,1.6; stroke-dashoffset: 0; stroke: #ff0000"/>
   </g>
   <g id="line2d_55">
    <path d="M 42.28 246.214453 
L 493.2 246.214453 
" clip-path="url(#p37a91f01dc)" style="fill: none; stroke-dasharray: 3.7,1.6; stroke-dashoffset: 0; stroke: #ff0000"/>
   </g>
   <g id="patch_9">
    <path d="M 42.28 371.638594 
L 42.28 240.241875 
" style="fill: none; stroke: #000000; stroke-width: 0.8; stroke-linejoin: miter; stroke-linecap: square"/>
   </g>
   <g id="patch_10">
    <path d="M 493.2 371.638594 
L 493.2 240.241875 
" style="fill: none; stroke: #000000; stroke-width: 0.8; stroke-linejoin: miter; stroke-linecap: square"/>
   </g>
   <g id="patch_11">
    <path d="M 42.28 371.638594 
L 493.2 371.638594 
" style="fill: none; stroke: #000000; stroke-width: 0.8; stroke-linejoin: miter; stroke-linecap: square"/>
   </g>
   <g id="patch_12">
    <path d="M 42.28 240.241875 
L 493.2 240.241875 
" style="fill: none; stroke: #000000; stroke-width: 0.8; stroke-linejoin: miter; stroke-linecap: square"/>
   </g>
   <g id="text_29">
    <!-- $\delta_{cmd}$ (rad) -->
    <g transform="translate(238.28 234.241875) scale(0.12 -0.12)">
     <defs>
      <path id="DejaVuSans-Oblique-348" d="M 3472 4053 
Q 3197 4272 2450 4272 
Q 1659 4272 1588 3906 
Q 1531 3619 2328 3469 
Q 2953 3353 3253 3003 
Q 3616 2581 3447 1716 
Q 3284 888 2763 400 
Q 2238 -91 1488 -91 
Q 741 -91 406 400 
Q 72 888 241 1747 
Q 363 2384 891 2900 
Q 1097 3100 1353 3213 
Q 913 3459 1000 3900 
Q 1166 4750 2544 4750 
Q 3234 4750 3566 4531 
L 3472 4053 
z
M 1753 3056 
Q 1525 2966 1306 2738 
Q 969 2384 847 1747 
Q 722 1113 919 756 
Q 1119 397 1584 397 
Q 2044 397 2381 759 
Q 2722 1122 2838 1716 
Q 2956 2338 2731 2638 
Q 2491 2959 2103 2994 
Q 1906 3013 1753 3056 
z
" transform="scale(0.015625)"/>
      <path id="DejaVuSans-55" d="M 2631 2963 
Q 2534 3019 2420 3045 
Q 2306 3072 2169 3072 
Q 1681 3072 1420 2755 
Q 1159 2438 1159 1844 
L 1159 0 
L 581 0 
L 581 3500 
L 1159 3500 
L 1159 2956 
Q 1341 3275 1631 3429 
Q 1922 3584 2338 3584 
Q 2397 3584 2469 3576 
Q 2541 3569 2628 3553 
L 2631 2963 
z
" transform="scale(0.015625)"/>
      <path id="DejaVuSans-44" d="M 2194 1759 
Q 1497 1759 1228 1600 
Q 959 1441 959 1056 
Q 959 750 1161 570 
Q 1363 391 1709 391 
Q 2188 391 2477 730 
Q 2766 1069 2766 1631 
L 2766 1759 
L 2194 1759 
z
M 3341 1997 
L 3341 0 
L 2766 0 
L 2766 531 
Q 2569 213 2275 61 
Q 1981 -91 1556 -91 
Q 1019 -91 701 211 
Q 384 513 384 1019 
Q 384 1609 779 1909 
Q 1175 2209 1959 2209 
L 2766 2209 
L 2766 2266 
Q 2766 2663 2505 2880 
Q 2244 3097 1772 3097 
Q 1472 3097 1187 3025 
Q 903 2953 641 2809 
L 641 3341 
Q 956 3463 1253 3523 
Q 1550 3584 1831 3584 
Q 2591 3584 2966 3190 
Q 3341 2797 3341 1997 
z
" transform="scale(0.015625)"/>
      <path id="DejaVuSans-47" d="M 2906 2969 
L 2906 4863 
L 3481 4863 
L 3481 0 
L 2906 0 
L 2906 525 
Q 2725 213 2448 61 
Q 2172 -91 1784 -91 
Q 1150 -91 751 415 
Q 353 922 353 1747 
Q 353 2572 751 3078 
Q 1150 3584 1784 3584 
Q 2172 3584 2448 3432 
Q 2725 3281 2906 2969 
z
M 947 1747 
Q 947 1113 1208 752 
Q 1469 391 1925 391 
Q 2381 391 2643 752 
Q 2906 1113 2906 1747 
Q 2906 2381 2643 2742 
Q 2381 3103 1925 3103 
Q 1469 3103 1208 2742 
Q 947 2381 947 1747 
z
" transform="scale(0.015625)"/>
     </defs>
     <use xlink:href="#DejaVuSans-Oblique-348" transform="translate(0 0.015625)"/>
     <use xlink:href="#DejaVuSans-Oblique-46" transform="translate(61.181641 -14.984326) scale(0.7)"/>
     <use xlink:href="#DejaVuSans-Oblique-50" transform="translate(99.667969 -14.984326) scale(0.7)"/>
     <use xlink:href="#DejaVuSans-Oblique-47" transform="translate(167.856445 -14.984326) scale(0.7)"/>
     <use xlink:href="#DejaVuSans-3" transform="translate(215.024414 0.015625)"/>
     <use xlink:href="#DejaVuSans-b" transform="translate(246.811523 0.015625)"/>
     <use xlink:href="#DejaVuSans-55" transform="translate(285.825195 0.015625)"/>
     <use xlink:href="#DejaVuSans-44" transform="translate(326.938477 0.015625)"/>
     <use xlink:href="#DejaVuSans-47" transform="translate(388.217773 0.015625)"/>
     <use xlink:href="#DejaVuSans-c" transform="translate(451.694336 0.015625)"/>
    </g>
   </g>
   <g id="legend_2">
    <g id="patch_13">
     <path d="M 432.6 263.242656 
L 486.2 263.242656 
Q 488.2 263.242656 488.2 261.242656 
L 488.2 247.241875 
Q 488.2 245.241875 486.2 245.241875 
L 432.6 245.241875 
Q 430.6 245.241875 430.6 247.241875 
L 430.6 261.242656 
Q 430.6 263.242656 432.6 263.242656 
z
" style="fill: #ffffff; opacity: 0.8; stroke: #cccccc; stroke-linejoin: miter"/>
    </g>
    <g id="line2d_56">
     <path d="M 434.6 253.340312 
L 444.6 253.340312 
L 454.6 253.340312 
" style="fill: none; stroke: #1f77b4; stroke-width: 1.5; stroke-linecap: square"/>
    </g>
    <g id="text_30">
     <!-- $\delta_{cmd}$ -->
     <g transform="translate(462.6 256.840312) scale(0.1 -0.1)">
      <use xlink:href="#DejaVuSans-Oblique-348" transform="translate(0 0.78125)"/>
      <use xlink:href="#DejaVuSans-Oblique-46" transform="translate(61.181641 -14.218701) scale(0.7)"/>
      <use xlink:href="#DejaVuSans-Oblique-50" transform="translate(99.667969 -14.218701) scale(0.7)"/>
      <use xlink:href="#DejaVuSans-Oblique-47" transform="translate(167.856445 -14.218701) scale(0.7)"/>
     </g>
    </g>
   </g>
  </g>
  <g id="axes_3">
   <g id="patch_14">
    <path d="M 42.28 562.677656 
L 493.2 562.677656 
L 493.2 431.280937 
L 42.28 431.280937 
z
" style="fill: #ffffff"/>
   </g>
   <g id="matplotlib.axis_5">
    <g id="xtick_15">
     <g id="line2d_57">
      <path d="M 62.382198 562.677656 
L 62.382198 431.280937 
" clip-path="url(#pd1ea2dd3d7)" style="fill: none; stroke: #b0b0b0; stroke-width: 0.8; stroke-linecap: square"/>
     </g>
     <g id="line2d_58">
      <g>
       <use xlink:href="#m0bcde97e81" x="62.382198" y="562.677656" style="stroke: #000000; stroke-width: 0.8"/>
      </g>
     </g>
     <g id="text_31">
      <!-- 0 -->
      <g transform="translate(59.200948 577.275312) scale(0.1 -0.1)">
       <use xlink:href="#DejaVuSans-13"/>
      </g>
     </g>
    </g>
    <g id="xtick_16">
     <g id="line2d_59">
      <path d="M 127.933304 562.677656 
L 127.933304 431.280937 
" clip-path="url(#pd1ea2dd3d7)" style="fill: none; stroke: #b0b0b0; stroke-width: 0.8; stroke-linecap: square"/>
     </g>
     <g id="line2d_60">
      <g>
       <use xlink:href="#m0bcde97e81" x="127.933304" y="562.677656" style="stroke: #000000; stroke-width: 0.8"/>
      </g>
     </g>
     <g id="text_32">
      <!-- 10 -->
      <g transform="translate(121.570804 577.275312) scale(0.1 -0.1)">
       <use xlink:href="#DejaVuSans-14"/>
       <use xlink:href="#DejaVuSans-13" transform="translate(63.625 0)"/>
      </g>
     </g>
    </g>
    <g id="xtick_17">
     <g id="line2d_61">
      <path d="M 193.484411 562.677656 
L 193.484411 431.280937 
" clip-path="url(#pd1ea2dd3d7)" style="fill: none; stroke: #b0b0b0; stroke-width: 0.8; stroke-linecap: square"/>
     </g>
     <g id="line2d_62">
      <g>
       <use xlink:href="#m0bcde97e81" x="193.484411" y="562.677656" style="stroke: #000000; stroke-width: 0.8"/>
      </g>
     </g>
     <g id="text_33">
      <!-- 20 -->
      <g transform="translate(187.121911 577.275312) scale(0.1 -0.1)">
       <use xlink:href="#DejaVuSans-15"/>
       <use xlink:href="#DejaVuSans-13" transform="translate(63.625 0)"/>
      </g>
     </g>
    </g>
    <g id="xtick_18">
     <g id="line2d_63">
      <path d="M 259.035517 562.677656 
L 259.035517 431.280937 
" clip-path="url(#pd1ea2dd3d7)" style="fill: none; stroke: #b0b0b0; stroke-width: 0.8; stroke-linecap: square"/>
     </g>
     <g id="line2d_64">
      <g>
       <use xlink:href="#m0bcde97e81" x="259.035517" y="562.677656" style="stroke: #000000; stroke-width: 0.8"/>
      </g>
     </g>
     <g id="text_34">
      <!-- 30 -->
      <g transform="translate(252.673017 577.275312) scale(0.1 -0.1)">
       <use xlink:href="#DejaVuSans-16"/>
       <use xlink:href="#DejaVuSans-13" transform="translate(63.625 0)"/>
      </g>
     </g>
    </g>
    <g id="xtick_19">
     <g id="line2d_65">
      <path d="M 324.586624 562.677656 
L 324.586624 431.280937 
" clip-path="url(#pd1ea2dd3d7)" style="fill: none; stroke: #b0b0b0; stroke-width: 0.8; stroke-linecap: square"/>
     </g>
     <g id="line2d_66">
      <g>
       <use xlink:href="#m0bcde97e81" x="324.586624" y="562.677656" style="stroke: #000000; stroke-width: 0.8"/>
      </g>
     </g>
     <g id="text_35">
      <!-- 40 -->
      <g transform="translate(318.224124 577.275312) scale(0.1 -0.1)">
       <use xlink:href="#DejaVuSans-17"/>
       <use xlink:href="#DejaVuSans-13" transform="translate(63.625 0)"/>
      </g>
     </g>
    </g>
    <g id="xtick_20">
     <g id="line2d_67">
      <path d="M 390.137731 562.677656 
L 390.137731 431.280937 
" clip-path="url(#pd1ea2dd3d7)" style="fill: none; stroke: #b0b0b0; stroke-width: 0.8; stroke-linecap: square"/>
     </g>
     <g id="line2d_68">
      <g>
       <use xlink:href="#m0bcde97e81" x="390.137731" y="562.677656" style="stroke: #000000; stroke-width: 0.8"/>
      </g>
     </g>
     <g id="text_36">
      <!-- 50 -->
      <g transform="translate(383.775231 577.275312) scale(0.1 -0.1)">
       <use xlink:href="#DejaVuSans-18"/>
       <use xlink:href="#DejaVuSans-13" transform="translate(63.625 0)"/>
      </g>
     </g>
    </g>
    <g id="xtick_21">
     <g id="line2d_69">
      <path d="M 455.688837 562.677656 
L 455.688837 431.280937 
" clip-path="url(#pd1ea2dd3d7)" style="fill: none; stroke: #b0b0b0; stroke-width: 0.8; stroke-linecap: square"/>
     </g>
     <g id="line2d_70">
      <g>
       <use xlink:href="#m0bcde97e81" x="455.688837" y="562.677656" style="stroke: #000000; stroke-width: 0.8"/>
      </g>
     </g>
     <g id="text_37">
      <!-- 60 -->
      <g transform="translate(449.326337 577.275312) scale(0.1 -0.1)">
       <use xlink:href="#DejaVuSans-19"/>
       <use xlink:href="#DejaVuSans-13" transform="translate(63.625 0)"/>
      </g>
     </g>
    </g>
    <g id="text_38">
     <!-- t (s) -->
     <g transform="translate(257.684531 591.275312) scale(0.1 -0.1)">
      <use xlink:href="#DejaVuSans-57"/>
      <use xlink:href="#DejaVuSans-3" transform="translate(39.203125 0)"/>
      <use xlink:href="#DejaVuSans-b" transform="translate(70.984375 0)"/>
      <use xlink:href="#DejaVuSans-56" transform="translate(110 0)"/>
      <use xlink:href="#DejaVuSans-c" transform="translate(162.09375 0)"/>
     </g>
    </g>
   </g>
   <g id="matplotlib.axis_6">
    <g id="ytick_11">
     <g id="line2d_71">
      <path d="M 42.28 536.796484 
L 493.2 536.796484 
" clip-path="url(#pd1ea2dd3d7)" style="fill: none; stroke: #b0b0b0; stroke-width: 0.8; stroke-linecap: square"/>
     </g>
     <g id="line2d_72">
      <g>
       <use xlink:href="#m9c8b5a193d" x="42.28" y="536.796484" style="stroke: #000000; stroke-width: 0.8"/>
      </g>
     </g>
     <g id="text_39">
      <!-- −0.2 -->
      <g transform="translate(10.997188 540.595313) scale(0.1 -0.1)">
       <use xlink:href="#DejaVuSans-c9c"/>
       <use xlink:href="#DejaVuSans-13" transform="translate(83.796875 0)"/>
       <use xlink:href="#DejaVuSans-11" transform="translate(147.421875 0)"/>
       <use xlink:href="#DejaVuSans-15" transform="translate(179.203125 0)"/>
      </g>
     </g>
    </g>
    <g id="ytick_12">
     <g id="line2d_73">
      <path d="M 42.28 496.979297 
L 493.2 496.979297 
" clip-path="url(#pd1ea2dd3d7)" style="fill: none; stroke: #b0b0b0; stroke-width: 0.8; stroke-linecap: square"/>
     </g>
     <g id="line2d_74">
      <g>
       <use xlink:href="#m9c8b5a193d" x="42.28" y="496.979297" style="stroke: #000000; stroke-width: 0.8"/>
      </g>
     </g>
     <g id="text_40">
      <!-- 0.0 -->
      <g transform="translate(19.376875 500.778125) scale(0.1 -0.1)">
       <use xlink:href="#DejaVuSans-13"/>
       <use xlink:href="#DejaVuSans-11" transform="translate(63.625 0)"/>
       <use xlink:href="#DejaVuSans-13" transform="translate(95.40625 0)"/>
      </g>
     </g>
    </g>
    <g id="ytick_13">
     <g id="line2d_75">
      <path d="M 42.28 457.162109 
L 493.2 457.162109 
" clip-path="url(#pd1ea2dd3d7)" style="fill: none; stroke: #b0b0b0; stroke-width: 0.8; stroke-linecap: square"/>
     </g>
     <g id="line2d_76">
      <g>
       <use xlink:href="#m9c8b5a193d" x="42.28" y="457.162109" style="stroke: #000000; stroke-width: 0.8"/>
      </g>
     </g>
     <g id="text_41">
      <!-- 0.2 -->
      <g transform="translate(19.376875 460.960937) scale(0.1 -0.1)">
       <use xlink:href="#DejaVuSans-13"/>
       <use xlink:href="#DejaVuSans-11" transform="translate(63.625 0)"/>
       <use xlink:href="#DejaVuSans-15" transform="translate(95.40625 0)"/>
      </g>
     </g>
    </g>
   </g>
   <g id="line2d_77">
    <path d="M 62.776364 488.871484 
L 63.212615 479.620065 
L 64.087428 438.470958 
L 64.523924 437.253516 
L 163.293702 437.253516 
L 163.732241 444.940505 
L 164.168066 473.905618 
L 164.604749 473.18537 
L 165.479052 532.096389 
L 165.916683 533.510672 
L 166.353877 556.705067 
L 181.211084 556.705052 
L 181.648172 536.824765 
L 182.08674 529.149139 
L 182.522097 514.230411 
L 182.959909 455.008225 
L 183.396703 437.253516 
L 204.373881 437.253538 
L 204.809546 448.22821 
L 205.246793 474.162532 
L 206.120657 543.241421 
L 206.557625 545.976019 
L 206.995837 556.705006 
L 208.742516 556.705034 
L 209.17996 545.348566 
L 209.618389 544.570216 
L 210.053838 542.730739 
L 210.490923 515.516968 
L 210.929312 513.059422 
L 211.364704 511.89384 
L 211.801749 484.951217 
L 212.240107 488.950071 
L 212.675882 497.225366 
L 213.112834 479.505166 
L 213.986794 516.252607 
L 214.424019 508.518149 
L 215.298225 556.372174 
L 215.73491 550.423141 
L 216.173591 556.705078 
L 224.47596 556.705075 
L 224.912318 488.565186 
L 225.350812 446.94807 
L 225.786268 437.253588 
L 235.400591 437.25355 
L 235.839052 440.457717 
L 236.275183 466.666188 
L 236.711774 461.798984 
L 237.585473 505.579275 
L 238.022765 497.562141 
L 238.896506 550.506753 
L 239.333588 556.420903 
L 239.772473 556.705072 
L 243.705078 556.70503 
L 244.140971 504.746789 
L 244.577694 437.253517 
L 309.692341 437.266511 
L 310.12916 455.745789 
L 311.003118 509.967107 
L 311.440144 515.717448 
L 311.878036 530.667534 
L 312.314276 539.877863 
L 312.751092 526.689501 
L 313.189515 524.944766 
L 313.625266 518.872988 
L 314.062032 489.398324 
L 314.500164 481.486907 
L 314.936095 477.157912 
L 315.373153 454.829341 
L 315.811755 466.394973 
L 316.247265 488.031224 
L 316.684486 494.314213 
L 317.122964 535.172374 
L 317.558384 556.705058 
L 329.794518 556.705073 
L 330.233438 473.479875 
L 330.668971 437.253517 
L 350.774769 437.253542 
L 351.211212 445.9212 
L 351.648399 492.294253 
L 352.085605 518.512697 
L 352.522312 556.705012 
L 379.620112 556.705045 
L 380.056438 437.253516 
L 445.608303 437.253516 
L 446.04531 452.924375 
L 446.48203 553.989672 
L 446.919234 556.705078 
L 460.467477 556.705078 
L 460.904209 437.253522 
L 471.829316 437.253517 
L 472.266741 515.21502 
L 472.703636 556.705078 
L 472.703636 556.705078 
" clip-path="url(#pd1ea2dd3d7)" style="fill: none; stroke: #1f77b4; stroke-width: 1.5; stroke-linecap: square"/>
   </g>
   <g id="line2d_78">
    <path d="M 42.28 556.705078 
L 493.2 556.705078 
" clip-path="url(#pd1ea2dd3d7)" style="fill: none; stroke-dasharray: 3.7,1.6; stroke-dashoffset: 0; stroke: #ff0000"/>
   </g>
   <g id="line2d_79">
    <path d="M 42.28 437.253516 
L 493.2 437.253516 
" clip-path="url(#pd1ea2dd3d7)" style="fill: none; stroke-dasharray: 3.7,1.6; stroke-dashoffset: 0; stroke: #ff0000"/>
   </g>
   <g id="patch_15">
    <path d="M 42.28 562.677656 
L 42.28 431.280937 
" style="fill: none; stroke: #000000; stroke-width: 0.8; stroke-linejoin: miter; stroke-linecap: square"/>
   </g>
   <g id="patch_16">
    <path d="M 493.2 562.677656 
L 493.2 431.280937 
" style="fill: none; stroke: #000000; stroke-width: 0.8; stroke-linejoin: miter; stroke-linecap: square"/>
   </g>
   <g id="patch_17">
    <path d="M 42.28 562.677656 
L 493.2 562.677656 
" style="fill: none; stroke: #000000; stroke-width: 0.8; stroke-linejoin: miter; stroke-linecap: square"/>
   </g>
   <g id="patch_18">
    <path d="M 42.28 431.280937 
L 493.2 431.280937 
" style="fill: none; stroke: #000000; stroke-width: 0.8; stroke-linejoin: miter; stroke-linecap: square"/>
   </g>
   <g id="text_42">
    <!-- $a_{x,cmd}$ $\left(\mathrm{m/s^2}\right)$ -->
    <g transform="translate(229.7 425.280937) scale(0.12 -0.12)">
     <defs>
      <path id="DejaVuSans-Oblique-44" d="M 3438 1997 
L 3047 0 
L 2472 0 
L 2578 531 
Q 2325 219 2001 64 
Q 1678 -91 1281 -91 
Q 834 -91 548 182 
Q 263 456 263 884 
Q 263 1497 752 1853 
Q 1241 2209 2100 2209 
L 2900 2209 
L 2931 2363 
Q 2938 2388 2941 2417 
Q 2944 2447 2944 2509 
Q 2944 2788 2717 2942 
Q 2491 3097 2081 3097 
Q 1800 3097 1504 3025 
Q 1209 2953 897 2809 
L 997 3341 
Q 1322 3463 1633 3523 
Q 1944 3584 2234 3584 
Q 2853 3584 3176 3315 
Q 3500 3047 3500 2534 
Q 3500 2431 3484 2292 
Q 3469 2153 3438 1997 
z
M 2816 1759 
L 2241 1759 
Q 1534 1759 1195 1570 
Q 856 1381 856 984 
Q 856 709 1029 553 
Q 1203 397 1509 397 
Q 1978 397 2328 733 
Q 2678 1069 2791 1631 
L 2816 1759 
z
" transform="scale(0.015625)"/>
      <path id="STIXSizeOneSym-Regular-4" d="M 2445 -858 
L 2445 -1050 
Q 1728 -371 1309 630 
Q 890 1632 890 2886 
Q 890 4122 1309 5136 
Q 1728 6150 2445 6822 
L 2445 6630 
Q 1408 5363 1408 2886 
Q 1408 410 2445 -858 
z
" transform="scale(0.015625)"/>
      <path id="STIXSizeOneSym-Regular-5" d="M 550 6630 
L 550 6822 
Q 1267 6144 1686 5142 
Q 2106 4141 2106 2886 
Q 2106 1651 1686 636 
Q 1267 -378 550 -1050 
L 550 -858 
Q 1587 410 1587 2886 
Q 1587 5363 550 6630 
z
" transform="scale(0.015625)"/>
     </defs>
     <use xlink:href="#DejaVuSans-Oblique-44" transform="translate(0 0.746875)"/>
     <use xlink:href="#DejaVuSans-Oblique-5b" transform="translate(61.279297 -14.253076) scale(0.7)"/>
     <use xlink:href="#DejaVuSans-f" transform="translate(102.705078 -14.253076) scale(0.7)"/>
     <use xlink:href="#DejaVuSans-Oblique-46" transform="translate(138.59375 -14.253076) scale(0.7)"/>
     <use xlink:href="#DejaVuSans-Oblique-50" transform="translate(177.080078 -14.253076) scale(0.7)"/>
     <use xlink:href="#DejaVuSans-Oblique-47" transform="translate(245.268555 -14.253076) scale(0.7)"/>
     <use xlink:href="#DejaVuSans-3" transform="translate(292.436523 0.746875)"/>
     <use xlink:href="#STIXSizeOneSym-Regular-4" transform="translate(324.223633 5.1375) scale(0.833613)"/>
     <use xlink:href="#DejaVuSans-50" transform="translate(363.23587 0.746875)"/>
     <use xlink:href="#DejaVuSans-12" transform="translate(460.64798 0.746875)"/>
     <use xlink:href="#DejaVuSans-56" transform="translate(494.339386 0.746875)"/>
     <use xlink:href="#DejaVuSans-15" transform="translate(547.396027 42.046875) scale(0.7)"/>
     <use xlink:href="#STIXSizeOneSym-Regular-5" transform="translate(594.666534 5.1375) scale(0.833613)"/>
    </g>
   </g>
   <g id="legend_3">
    <g id="patch_19">
     <path d="M 49.28 557.677656 
L 144.68 557.677656 
Q 146.68 557.677656 146.68 555.677656 
L 146.68 539.875312 
Q 146.68 537.875312 144.68 537.875312 
L 49.28 537.875312 
Q 47.28 537.875312 47.28 539.875312 
L 47.28 555.677656 
Q 47.28 557.677656 49.28 557.677656 
z
" style="fill: #ffffff; opacity: 0.8; stroke: #cccccc; stroke-linejoin: miter"/>
    </g>
    <g id="line2d_80">
     <path d="M 51.28 547.775312 
L 61.28 547.775312 
L 71.28 547.775312 
" style="fill: none; stroke: #1f77b4; stroke-width: 1.5; stroke-linecap: square"/>
    </g>
    <g id="text_43">
     <!-- $a_{x,cmd}$ $\left(\mathrm{m/s^2}\right)$ -->
     <g transform="translate(79.28 551.275312) scale(0.1 -0.1)">
      <use xlink:href="#DejaVuSans-Oblique-44" transform="translate(0 0.746875)"/>
      <use xlink:href="#DejaVuSans-Oblique-5b" transform="translate(61.279297 -14.253076) scale(0.7)"/>
      <use xlink:href="#DejaVuSans-f" transform="translate(102.705078 -14.253076) scale(0.7)"/>
      <use xlink:href="#DejaVuSans-Oblique-46" transform="translate(138.59375 -14.253076) scale(0.7)"/>
      <use xlink:href="#DejaVuSans-Oblique-50" transform="translate(177.080078 -14.253076) scale(0.7)"/>
      <use xlink:href="#DejaVuSans-Oblique-47" transform="translate(245.268555 -14.253076) scale(0.7)"/>
      <use xlink:href="#DejaVuSans-3" transform="translate(292.436523 0.746875)"/>
      <use xlink:href="#STIXSizeOneSym-Regular-4" transform="translate(324.223633 5.1375) scale(0.833613)"/>
      <use xlink:href="#DejaVuSans-50" transform="translate(363.23587 0.746875)"/>
      <use xlink:href="#DejaVuSans-12" transform="translate(460.64798 0.746875)"/>
      <use xlink:href="#DejaVuSans-56" transform="translate(494.339386 0.746875)"/>
      <use xlink:href="#DejaVuSans-15" transform="translate(547.396027 42.046875) scale(0.7)"/>
      <use xlink:href="#STIXSizeOneSym-Regular-5" transform="translate(594.666534 5.1375) scale(0.833613)"/>
     </g>
    </g>
   </g>
  </g>
  <g id="text_44">
   <!-- QCar2 Controls -->
   <g transform="translate(206.405625 21.214125) scale(0.12 -0.12)">
    <defs>
     <path id="DejaVuSans-34" d="M 2522 4238 
Q 1834 4238 1429 3725 
Q 1025 3213 1025 2328 
Q 1025 1447 1429 934 
Q 1834 422 2522 422 
Q 3209 422 3611 934 
Q 4013 1447 4013 2328 
Q 4013 3213 3611 3725 
Q 3209 4238 2522 4238 
z
M 3406 84 
L 4238 -825 
L 3475 -825 
L 2784 -78 
Q 2681 -84 2626 -87 
Q 2572 -91 2522 -91 
Q 1538 -91 948 567 
Q 359 1225 359 2328 
Q 359 3434 948 4092 
Q 1538 4750 2522 4750 
Q 3503 4750 4090 4092 
Q 4678 3434 4678 2328 
Q 4678 1516 4351 937 
Q 4025 359 3406 84 
z
" transform="scale(0.015625)"/>
     <path id="DejaVuSans-26" d="M 4122 4306 
L 4122 3641 
Q 3803 3938 3442 4084 
Q 3081 4231 2675 4231 
Q 1875 4231 1450 3742 
Q 1025 3253 1025 2328 
Q 1025 1406 1450 917 
Q 1875 428 2675 428 
Q 3081 428 3442 575 
Q 3803 722 4122 1019 
L 4122 359 
Q 3791 134 3420 21 
Q 3050 -91 2638 -91 
Q 1578 -91 968 557 
Q 359 1206 359 2328 
Q 359 3453 968 4101 
Q 1578 4750 2638 4750 
Q 3056 4750 3426 4639 
Q 3797 4528 4122 4306 
z
" transform="scale(0.015625)"/>
     <path id="DejaVuSans-52" d="M 1959 3097 
Q 1497 3097 1228 2736 
Q 959 2375 959 1747 
Q 959 1119 1226 758 
Q 1494 397 1959 397 
Q 2419 397 2687 759 
Q 2956 1122 2956 1747 
Q 2956 2369 2687 2733 
Q 2419 3097 1959 3097 
z
M 1959 3584 
Q 2709 3584 3137 3096 
Q 3566 2609 3566 1747 
Q 3566 888 3137 398 
Q 2709 -91 1959 -91 
Q 1206 -91 779 398 
Q 353 888 353 1747 
Q 353 2609 779 3096 
Q 1206 3584 1959 3584 
z
" transform="scale(0.015625)"/>
     <path id="DejaVuSans-51" d="M 3513 2113 
L 3513 0 
L 2938 0 
L 2938 2094 
Q 2938 2591 2744 2837 
Q 2550 3084 2163 3084 
Q 1697 3084 1428 2787 
Q 1159 2491 1159 1978 
L 1159 0 
L 581 0 
L 581 3500 
L 1159 3500 
L 1159 2956 
Q 1366 3272 1645 3428 
Q 1925 3584 2291 3584 
Q 2894 3584 3203 3211 
Q 3513 2838 3513 2113 
z
" transform="scale(0.015625)"/>
     <path id="DejaVuSans-4f" d="M 603 4863 
L 1178 4863 
L 1178 0 
L 603 0 
L 603 4863 
z
" transform="scale(0.015625)"/>
    </defs>
    <use xlink:href="#DejaVuSans-34"/>
    <use xlink:href="#DejaVuSans-26" transform="translate(78.71875 0)"/>
    <use xlink:href="#DejaVuSans-44" transform="translate(148.546875 0)"/>
    <use xlink:href="#DejaVuSans-55" transform="translate(209.828125 0)"/>
    <use xlink:href="#DejaVuSans-15" transform="translate(250.9375 0)"/>
    <use xlink:href="#DejaVuSans-3" transform="translate(314.5625 0)"/>
    <use xlink:href="#DejaVuSans-26" transform="translate(346.34375 0)"/>
    <use xlink:href="#DejaVuSans-52" transform="translate(416.171875 0)"/>
    <use xlink:href="#DejaVuSans-51" transform="translate(477.359375 0)"/>
    <use xlink:href="#DejaVuSans-57" transform="translate(540.734375 0)"/>
    <use xlink:href="#DejaVuSans-55" transform="translate(579.9375 0)"/>
    <use xlink:href="#DejaVuSans-52" transform="translate(618.84375 0)"/>
    <use xlink:href="#DejaVuSans-4f" transform="translate(680.03125 0)"/>
    <use xlink:href="#DejaVuSans-56" transform="translate(707.8125 0)"/>
   </g>
  </g>
 </g>
 <defs>
  <clipPath id="pda8ff46125">
   <rect x="42.28" y="49.202812" width="450.92" height="131.396719"/>
  </clipPath>
  <clipPath id="p37a91f01dc">
   <rect x="42.28" y="240.241875" width="450.92" height="131.396719"/>
  </clipPath>
  <clipPath id="pd1ea2dd3d7">
   <rect x="42.28" y="431.280937" width="450.92" height="131.396719"/>
  </clipPath>
 </defs>
</svg>
