<?xml version="1.0" encoding="utf-8" standalone="no"?>
<!DOCTYPE svg PUBLIC "-//W3C//DTD SVG 1.1//EN"
  "http://www.w3.org/Graphics/SVG/1.1/DTD/svg11.dtd">
<svg xmlns:xlink="http://www.w3.org/1999/xlink" width="504pt" height="403.2pt" viewBox="0 0 504 403.2" xmlns="http://www.w3.org/2000/svg" version="1.1">
 <metadata>
  <rdf:RDF xmlns:dc="http://purl.org/dc/elements/1.1/" xmlns:cc="http://creativecommons.org/ns#" xmlns:rdf="http://www.w3.org/1999/02/22-rdf-syntax-ns#">
   <cc:Work>
    <dc:type rdf:resource="http://purl.org/dc/dcmitype/StillImage"/>
    <dc:date>2026-07-10T12:48:37.186192</dc:date>
    <dc:format>image/svg+xml</dc:format>
    <dc:creator>
     <cc:Agent>
      <dc:title>Matplotlib v3.11.0, https://matplotlib.org/</dc:title>
     </cc:Agent>
    </dc:creator>
   </cc:Work>
  </rdf:RDF>
 </metadata>
 <defs>
  <style type="text/css">*{stroke-linejoin: round; stroke-linecap: butt}</style>
 </defs>
 <g id="figure_1">
  <g id="patch_1">
   <path d="M 0 403.2 
L 504 403.2 
L 504 0 
L 0 0 
z
" style="fill: #ffffff"/>
  </g>
  <g id="axes_1">
   <g id="patch_2">
    <path d="M 42.28 175.197656 
L 493.2 175.197656 
L 493.2 48.96 
L 42.28 48.96 
z
" style="fill: #ffffff"/>
   </g>
   <g id="matplotlib.axis_1">
    <g id="xtick_1">
     <g id="line2d_1">
      <path d="M 62.382198 175.197656 
L 62.382198 48.96 
" clip-path="url(#p9eea64ae1f)" style="fill: none; stroke: #b0b0b0; stroke-width: 0.8; stroke-linecap: square"/>
     </g>
     <g id="line2d_2">
      <defs>
       <path id="me1844a3c41" d="M 0 0 
L 0 3.5 
" style="stroke: #000000; stroke-width: 0.8"/>
      </defs>
      <g>
       <use xlink:href="#me1844a3c41" x="62.382198" y="175.197656" style="stroke: #000000; stroke-width: 0.8"/>
      </g>
     </g>
     <g id="text_1">
      <!-- 0 -->
      <g transform="translate(59.200948 189.795312) scale(0.1 -0.1)">
       <defs>
        <path id="DejaVuSans-13" d="M 2034 4250 
Q 1547 4250 1301 3770 
Q 1056 3291 1056 2328 
Q 1056 1369 1301 889 
Q 1547 409 2034 409 
Q 2525 409 2770 889 
Q 3016 1369 3016 2328 
Q 3016 3291 2770 3770 
Q 2525 4250 2034 4250 
z
M 2034 4750 
Q 2819 4750 3233 4129 
Q 3647 3509 3647 2328 
Q 3647 1150 3233 529 
Q 2819 -91 2034 -91 
Q 1250 -91 836 529 
Q 422 1150 422 2328 
Q 422 3509 836 4129 
Q 1250 4750 2034 4750 
z
" transform="scale(0.015625)"/>
       </defs>
       <use xlink:href="#DejaVuSans-13"/>
      </g>
     </g>
    </g>
    <g id="xtick_2">
     <g id="line2d_3">
      <path d="M 127.933304 175.197656 
L 127.933304 48.96 
" clip-path="url(#p9eea64ae1f)" style="fill: none; stroke: #b0b0b0; stroke-width: 0.8; stroke-linecap: square"/>
     </g>
     <g id="line2d_4">
      <g>
       <use xlink:href="#me1844a3c41" x="127.933304" y="175.197656" style="stroke: #000000; stroke-width: 0.8"/>
      </g>
     </g>
     <g id="text_2">
      <!-- 10 -->
      <g transform="translate(121.570804 189.795312) scale(0.1 -0.1)">
       <defs>
        <path id="DejaVuSans-14" d="M 794 531 
L 1825 531 
L 1825 4091 
L 703 3866 
L 703 4441 
L 1819 4666 
L 2450 4666 
L 2450 531 
L 3481 531 
L 3481 0 
L 794 0 
L 794 531 
z
" transform="scale(0.015625)"/>
       </defs>
       <use xlink:href="#DejaVuSans-14"/>
       <use xlink:href="#DejaVuSans-13" transform="translate(63.625 0)"/>
      </g>
     </g>
    </g>
    <g id="xtick_3">
     <g id="line2d_5">
      <path d="M 193.484411 175.197656 
L 193.484411 48.96 
" clip-path="url(#p9eea64ae1f)" style="fill: none; stroke: #b0b0b0; stroke-width: 0.8; stroke-linecap: square"/>
     </g>
     <g id="line2d_6">
      <g>
       <use xlink:href="#me1844a3c41" x="193.484411" y="175.197656" style="stroke: #000000; stroke-width: 0.8"/>
      </g>
     </g>
     <g id="text_3">
      <!-- 20 -->
      <g transform="translate(187.121911 189.795312) scale(0.1 -0.1)">
       <defs>
        <path id="DejaVuSans-15" d="M 1228 531 
L 3431 531 
L 3431 0 
L 469 0 
L 469 531 
Q 828 903 1448 1529 
Q 2069 2156 2228 2338 
Q 2531 2678 2651 2914 
Q 2772 3150 2772 3378 
Q 2772 3750 2511 3984 
Q 2250 4219 1831 4219 
Q 1534 4219 1204 4116 
Q 875 4013 500 3803 
L 500 4441 
Q 881 4594 1212 4672 
Q 1544 4750 1819 4750 
Q 2544 4750 2975 4387 
Q 3406 4025 3406 3419 
Q 3406 3131 3298 2873 
Q 3191 2616 2906 2266 
Q 2828 2175 2409 1742 
Q 1991 1309 1228 531 
z
" transform="scale(0.015625)"/>
       </defs>
       <use xlink:href="#DejaVuSans-15"/>
       <use xlink:href="#DejaVuSans-13" transform="translate(63.625 0)"/>
      </g>
     </g>
    </g>
    <g id="xtick_4">
     <g id="line2d_7">
      <path d="M 259.035517 175.197656 
L 259.035517 48.96 
" clip-path="url(#p9eea64ae1f)" style="fill: none; stroke: #b0b0b0; stroke-width: 0.8; stroke-linecap: square"/>
     </g>
     <g id="line2d_8">
      <g>
       <use xlink:href="#me1844a3c41" x="259.035517" y="175.197656" style="stroke: #000000; stroke-width: 0.8"/>
      </g>
     </g>
     <g id="text_4">
      <!-- 30 -->
      <g transform="translate(252.673017 189.795312) scale(0.1 -0.1)">
       <defs>
        <path id="DejaVuSans-16" d="M 2597 2516 
Q 3050 2419 3304 2112 
Q 3559 1806 3559 1356 
Q 3559 666 3084 287 
Q 2609 -91 1734 -91 
Q 1441 -91 1130 -33 
Q 819 25 488 141 
L 488 750 
Q 750 597 1062 519 
Q 1375 441 1716 441 
Q 2309 441 2620 675 
Q 2931 909 2931 1356 
Q 2931 1769 2642 2001 
Q 2353 2234 1838 2234 
L 1294 2234 
L 1294 2753 
L 1863 2753 
Q 2328 2753 2575 2939 
Q 2822 3125 2822 3475 
Q 2822 3834 2567 4026 
Q 2313 4219 1838 4219 
Q 1578 4219 1281 4162 
Q 984 4106 628 3988 
L 628 4550 
Q 988 4650 1302 4700 
Q 1616 4750 1894 4750 
Q 2613 4750 3031 4423 
Q 3450 4097 3450 3541 
Q 3450 3153 3228 2886 
Q 3006 2619 2597 2516 
z
" transform="scale(0.015625)"/>
       </defs>
       <use xlink:href="#DejaVuSans-16"/>
       <use xlink:href="#DejaVuSans-13" transform="translate(63.625 0)"/>
      </g>
     </g>
    </g>
    <g id="xtick_5">
     <g id="line2d_9">
      <path d="M 324.586624 175.197656 
L 324.586624 48.96 
" clip-path="url(#p9eea64ae1f)" style="fill: none; stroke: #b0b0b0; stroke-width: 0.8; stroke-linecap: square"/>
     </g>
     <g id="line2d_10">
      <g>
       <use xlink:href="#me1844a3c41" x="324.586624" y="175.197656" style="stroke: #000000; stroke-width: 0.8"/>
      </g>
     </g>
     <g id="text_5">
      <!-- 40 -->
      <g transform="translate(318.224124 189.795312) scale(0.1 -0.1)">
       <defs>
        <path id="DejaVuSans-17" d="M 2419 4116 
L 825 1625 
L 2419 1625 
L 2419 4116 
z
M 2253 4666 
L 3047 4666 
L 3047 1625 
L 3713 1625 
L 3713 1100 
L 3047 1100 
L 3047 0 
L 2419 0 
L 2419 1100 
L 313 1100 
L 313 1709 
L 2253 4666 
z
" transform="scale(0.015625)"/>
       </defs>
       <use xlink:href="#DejaVuSans-17"/>
       <use xlink:href="#DejaVuSans-13" transform="translate(63.625 0)"/>
      </g>
     </g>
    </g>
    <g id="xtick_6">
     <g id="line2d_11">
      <path d="M 390.137731 175.197656 
L 390.137731 48.96 
" clip-path="url(#p9eea64ae1f)" style="fill: none; stroke: #b0b0b0; stroke-width: 0.8; stroke-linecap: square"/>
     </g>
     <g id="line2d_12">
      <g>
       <use xlink:href="#me1844a3c41" x="390.137731" y="175.197656" style="stroke: #000000; stroke-width: 0.8"/>
      </g>
     </g>
     <g id="text_6">
      <!-- 50 -->
      <g transform="translate(383.775231 189.795312) scale(0.1 -0.1)">
       <defs>
        <path id="DejaVuSans-18" d="M 691 4666 
L 3169 4666 
L 3169 4134 
L 1269 4134 
L 1269 2991 
Q 1406 3038 1543 3061 
Q 1681 3084 1819 3084 
Q 2600 3084 3056 2656 
Q 3513 2228 3513 1497 
Q 3513 744 3044 326 
Q 2575 -91 1722 -91 
Q 1428 -91 1123 -41 
Q 819 9 494 109 
L 494 744 
Q 775 591 1075 516 
Q 1375 441 1709 441 
Q 2250 441 2565 725 
Q 2881 1009 2881 1497 
Q 2881 1984 2565 2268 
Q 2250 2553 1709 2553 
Q 1456 2553 1204 2497 
Q 953 2441 691 2322 
L 691 4666 
z
" transform="scale(0.015625)"/>
       </defs>
       <use xlink:href="#DejaVuSans-18"/>
       <use xlink:href="#DejaVuSans-13" transform="translate(63.625 0)"/>
      </g>
     </g>
    </g>
    <g id="xtick_7">
     <g id="line2d_13">
      <path d="M 455.688837 175.197656 
L 455.688837 48.96 
" clip-path="url(#p9eea64ae1f)" style="fill: none; stroke: #b0b0b0; stroke-width: 0.8; stroke-linecap: square"/>
     </g>
     <g id="line2d_14">
      <g>
       <use xlink:href="#me1844a3c41" x="455.688837" y="175.197656" style="stroke: #000000; stroke-width: 0.8"/>
      </g>
     </g>
     <g id="text_7">
      <!-- 60 -->
      <g transform="translate(449.326337 189.795312) scale(0.1 -0.1)">
       <defs>
        <path id="DejaVuSans-19" d="M 2113 2584 
Q 1688 2584 1439 2293 
Q 1191 2003 1191 1497 
Q 1191 994 1439 701 
Q 1688 409 2113 409 
Q 2538 409 2786 701 
Q 3034 994 3034 1497 
Q 3034 2003 2786 2293 
Q 2538 2584 2113 2584 
z
M 3366 4563 
L 3366 3988 
Q 3128 4100 2886 4159 
Q 2644 4219 2406 4219 
Q 1781 4219 1451 3797 
Q 1122 3375 1075 2522 
Q 1259 2794 1537 2939 
Q 1816 3084 2150 3084 
Q 2853 3084 3261 2657 
Q 3669 2231 3669 1497 
Q 3669 778 3244 343 
Q 2819 -91 2113 -91 
Q 1303 -91 875 529 
Q 447 1150 447 2328 
Q 447 3434 972 4092 
Q 1497 4750 2381 4750 
Q 2619 4750 2861 4703 
Q 3103 4656 3366 4563 
z
" transform="scale(0.015625)"/>
       </defs>
       <use xlink:href="#DejaVuSans-19"/>
       <use xlink:href="#DejaVuSans-13" transform="translate(63.625 0)"/>
      </g>
     </g>
    </g>
    <g id="text_8">
     <!-- t (s) -->
     <g transform="translate(257.684531 203.795312) scale(0.1 -0.1)">
      <defs>
       <path id="DejaVuSans-57" d="M 1172 4494 
L 1172 3500 
L 2356 3500 
L 2356 3053 
L 1172 3053 
L 1172 1153 
Q 1172 725 1289 603 
Q 1406 481 1766 481 
L 2356 481 
L 2356 0 
L 1766 0 
Q 1100 0 847 248 
Q 594 497 594 1153 
L 594 3053 
L 172 3053 
L 172 3500 
L 594 3500 
L 594 4494 
L 1172 4494 
z
" transform="scale(0.015625)"/>
       <path id="DejaVuSans-3" transform="scale(0.015625)"/>
       <path id="DejaVuSans-b" d="M 1984 4856 
Q 1566 4138 1362 3434 
Q 1159 2731 1159 2009 
Q 1159 1288 1364 580 
Q 1569 -128 1984 -844 
L 1484 -844 
Q 1016 -109 783 600 
Q 550 1309 550 2009 
Q 550 2706 781 3412 
Q 1013 4119 1484 4856 
L 1984 4856 
z
" transform="scale(0.015625)"/>
       <path id="DejaVuSans-56" d="M 2834 3397 
L 2834 2853 
Q 2591 2978 2328 3040 
Q 2066 3103 1784 3103 
Q 1356 3103 1142 2972 
Q 928 2841 928 2578 
Q 928 2378 1081 2264 
Q 1234 2150 1697 2047 
L 1894 2003 
Q 2506 1872 2764 1633 
Q 3022 1394 3022 966 
Q 3022 478 2636 193 
Q 2250 -91 1575 -91 
Q 1294 -91 989 -36 
Q 684 19 347 128 
L 347 722 
Q 666 556 975 473 
Q 1284 391 1588 391 
Q 1994 391 2212 530 
Q 2431 669 2431 922 
Q 2431 1156 2273 1281 
Q 2116 1406 1581 1522 
L 1381 1569 
Q 847 1681 609 1914 
Q 372 2147 372 2553 
Q 372 3047 722 3315 
Q 1072 3584 1716 3584 
Q 2034 3584 2315 3537 
Q 2597 3491 2834 3397 
z
" transform="scale(0.015625)"/>
       <path id="DejaVuSans-c" d="M 513 4856 
L 1013 4856 
Q 1481 4119 1714 3412 
Q 1947 2706 1947 2009 
Q 1947 1309 1714 600 
Q 1481 -109 1013 -844 
L 513 -844 
Q 928 -128 1133 580 
Q 1338 1288 1338 2009 
Q 1338 2731 1133 3434 
Q 928 4138 513 4856 
z
" transform="scale(0.015625)"/>
      </defs>
      <use xlink:href="#DejaVuSans-57"/>
      <use xlink:href="#DejaVuSans-3" transform="translate(39.203125 0)"/>
      <use xlink:href="#DejaVuSans-b" transform="translate(70.984375 0)"/>
      <use xlink:href="#DejaVuSans-56" transform="translate(110 0)"/>
      <use xlink:href="#DejaVuSans-c" transform="translate(162.09375 0)"/>
     </g>
    </g>
   </g>
   <g id="matplotlib.axis_2">
    <g id="ytick_1">
     <g id="line2d_15">
      <path d="M 42.28 155.914392 
L 493.2 155.914392 
" clip-path="url(#p9eea64ae1f)" style="fill: none; stroke: #b0b0b0; stroke-width: 0.8; stroke-linecap: square"/>
     </g>
     <g id="line2d_16">
      <defs>
       <path id="mf4719bd923" d="M 0 0 
L -3.5 0 
" style="stroke: #000000; stroke-width: 0.8"/>
      </defs>
      <g>
       <use xlink:href="#mf4719bd923" x="42.28" y="155.914392" style="stroke: #000000; stroke-width: 0.8"/>
      </g>
     </g>
     <g id="text_9">
      <!-- −0.4 -->
      <g transform="translate(10.997188 159.71322) scale(0.1 -0.1)">
       <defs>
        <path id="DejaVuSans-c9c" d="M 678 2272 
L 4684 2272 
L 4684 1741 
L 678 1741 
L 678 2272 
z
" transform="scale(0.015625)"/>
        <path id="DejaVuSans-11" d="M 684 794 
L 1344 794 
L 1344 0 
L 684 0 
L 684 794 
z
" transform="scale(0.015625)"/>
       </defs>
       <use xlink:href="#DejaVuSans-c9c"/>
       <use xlink:href="#DejaVuSans-13" transform="translate(83.796875 0)"/>
       <use xlink:href="#DejaVuSans-11" transform="translate(147.421875 0)"/>
       <use xlink:href="#DejaVuSans-17" transform="translate(179.203125 0)"/>
      </g>
     </g>
    </g>
    <g id="ytick_2">
     <g id="line2d_17">
      <path d="M 42.28 133.99661 
L 493.2 133.99661 
" clip-path="url(#p9eea64ae1f)" style="fill: none; stroke: #b0b0b0; stroke-width: 0.8; stroke-linecap: square"/>
     </g>
     <g id="line2d_18">
      <g>
       <use xlink:href="#mf4719bd923" x="42.28" y="133.99661" style="stroke: #000000; stroke-width: 0.8"/>
      </g>
     </g>
     <g id="text_10">
      <!-- −0.2 -->
      <g transform="translate(10.997188 137.795438) scale(0.1 -0.1)">
       <use xlink:href="#DejaVuSans-c9c"/>
       <use xlink:href="#DejaVuSans-13" transform="translate(83.796875 0)"/>
       <use xlink:href="#DejaVuSans-11" transform="translate(147.421875 0)"/>
       <use xlink:href="#DejaVuSans-15" transform="translate(179.203125 0)"/>
      </g>
     </g>
    </g>
    <g id="ytick_3">
     <g id="line2d_19">
      <path d="M 42.28 112.078828 
L 493.2 112.078828 
" clip-path="url(#p9eea64ae1f)" style="fill: none; stroke: #b0b0b0; stroke-width: 0.8; stroke-linecap: square"/>
     </g>
     <g id="line2d_20">
      <g>
       <use xlink:href="#mf4719bd923" x="42.28" y="112.078828" style="stroke: #000000; stroke-width: 0.8"/>
      </g>
     </g>
     <g id="text_11">
      <!-- 0.0 -->
      <g transform="translate(19.376875 115.877656) scale(0.1 -0.1)">
       <use xlink:href="#DejaVuSans-13"/>
       <use xlink:href="#DejaVuSans-11" transform="translate(63.625 0)"/>
       <use xlink:href="#DejaVuSans-13" transform="translate(95.40625 0)"/>
      </g>
     </g>
    </g>
    <g id="ytick_4">
     <g id="line2d_21">
      <path d="M 42.28 90.161046 
L 493.2 90.161046 
" clip-path="url(#p9eea64ae1f)" style="fill: none; stroke: #b0b0b0; stroke-width: 0.8; stroke-linecap: square"/>
     </g>
     <g id="line2d_22">
      <g>
       <use xlink:href="#mf4719bd923" x="42.28" y="90.161046" style="stroke: #000000; stroke-width: 0.8"/>
      </g>
     </g>
     <g id="text_12">
      <!-- 0.2 -->
      <g transform="translate(19.376875 93.959874) scale(0.1 -0.1)">
       <use xlink:href="#DejaVuSans-13"/>
       <use xlink:href="#DejaVuSans-11" transform="translate(63.625 0)"/>
       <use xlink:href="#DejaVuSans-15" transform="translate(95.40625 0)"/>
      </g>
     </g>
    </g>
    <g id="ytick_5">
     <g id="line2d_23">
      <path d="M 42.28 68.243264 
L 493.2 68.243264 
" clip-path="url(#p9eea64ae1f)" style="fill: none; stroke: #b0b0b0; stroke-width: 0.8; stroke-linecap: square"/>
     </g>
     <g id="line2d_24">
      <g>
       <use xlink:href="#mf4719bd923" x="42.28" y="68.243264" style="stroke: #000000; stroke-width: 0.8"/>
      </g>
     </g>
     <g id="text_13">
      <!-- 0.4 -->
      <g transform="translate(19.376875 72.042093) scale(0.1 -0.1)">
       <use xlink:href="#DejaVuSans-13"/>
       <use xlink:href="#DejaVuSans-11" transform="translate(63.625 0)"/>
       <use xlink:href="#DejaVuSans-17" transform="translate(95.40625 0)"/>
      </g>
     </g>
    </g>
   </g>
   <g id="line2d_25">
    <path d="M 62.776364 92.921179 
L 63.212615 67.782458 
L 63.649248 54.698611 
L 66.272215 54.6981 
L 66.709185 72.902336 
L 67.146128 169.457567 
L 67.583039 169.459561 
L 68.020134 54.698372 
L 68.457249 54.698415 
L 68.894705 169.459203 
L 69.331164 169.459168 
L 69.768113 54.698294 
L 70.205657 54.698078 
L 70.642248 169.45958 
L 71.07925 169.459522 
L 71.516204 54.698155 
L 71.95434 54.698158 
L 72.390364 169.459556 
L 72.827504 169.459561 
L 73.264624 54.698123 
L 73.701361 54.69816 
L 74.138303 169.459569 
L 74.575666 169.459566 
L 75.012519 54.698125 
L 75.449577 54.698174 
L 75.886563 169.459579 
L 76.323831 169.459579 
L 76.760735 54.698252 
L 77.197711 55.221529 
L 77.634575 169.459581 
L 78.071563 169.459581 
L 78.508555 76.264203 
L 78.945719 54.698128 
L 79.383372 169.459572 
L 79.820033 169.459572 
L 80.256442 54.698081 
L 80.693963 54.69809 
L 81.130504 169.459577 
L 81.567488 169.459578 
L 82.00516 58.124348 
L 82.441831 66.814054 
L 82.878747 169.459571 
L 83.315607 169.459581 
L 83.752888 54.698076 
L 84.190018 54.698079 
L 84.627436 169.459576 
L 85.063695 169.459577 
L 85.500595 55.589305 
L 85.938222 65.248067 
L 86.375041 169.459581 
L 86.811825 169.459581 
L 87.248623 54.698076 
L 87.685909 54.698109 
L 88.122842 169.459577 
L 88.559837 169.459581 
L 88.997231 54.698077 
L 89.43419 54.698128 
L 89.870764 169.459579 
L 90.30803 169.459579 
L 90.744629 54.740881 
L 91.182126 59.257531 
L 91.619035 169.459575 
L 92.055875 169.45958 
L 92.492851 54.698562 
L 92.930128 56.674458 
L 93.366966 169.459581 
L 93.804124 169.45958 
L 94.241071 64.690677 
L 94.677966 54.70167 
L 95.114859 169.459579 
L 95.552264 169.459578 
L 95.988912 55.099032 
L 96.425956 65.433999 
L 96.86286 169.45958 
L 97.29997 169.45958 
L 97.736853 54.709826 
L 98.177346 61.672399 
L 98.614414 169.45958 
L 99.051483 169.459581 
L 99.488343 70.113131 
L 99.925434 54.804543 
L 100.362324 169.459581 
L 100.799438 169.459579 
L 101.23639 63.102137 
L 101.673916 64.0328 
L 102.110426 169.459578 
L 102.547486 169.45958 
L 102.984466 58.444145 
L 103.422233 65.222416 
L 103.858379 169.45958 
L 104.295471 169.45958 
L 104.732358 69.916893 
L 105.169588 59.590208 
L 105.612339 169.459581 
L 106.045073 169.45958 
L 106.481905 70.003258 
L 106.918968 65.95423 
L 107.356472 169.459581 
L 107.792978 169.459581 
L 108.230023 60.525277 
L 108.667123 68.009834 
L 109.103952 169.459581 
L 109.541053 169.459581 
L 109.978471 76.016687 
L 110.415515 61.436768 
L 110.852004 169.459579 
L 111.289096 169.459581 
L 111.725947 70.519717 
L 112.163484 71.334567 
L 112.600135 169.459581 
L 113.037306 169.459581 
L 113.473983 64.358614 
L 113.91118 69.140557 
L 114.348094 169.459581 
L 114.785288 169.45958 
L 115.222053 79.991809 
L 115.659195 65.417877 
L 116.096046 169.459581 
L 116.533193 169.459578 
L 116.970162 68.932015 
L 117.40717 74.786463 
L 117.844128 169.459581 
L 118.281163 169.459574 
L 118.718133 73.495757 
L 119.15525 70.066511 
L 119.592488 169.459567 
L 120.029202 169.45958 
L 120.466197 78.224663 
L 120.903869 71.540003 
L 121.340616 167.976332 
L 121.777347 169.228529 
L 122.214563 79.195964 
L 122.657336 78.852807 
L 123.08838 155.945459 
L 123.525272 161.990323 
L 123.962206 104.503404 
L 124.399346 85.384701 
L 124.836566 130.394646 
L 125.273617 157.129298 
L 126.147193 98.87532 
L 127.021659 139.695225 
L 127.458797 133.106693 
L 127.895429 124.170874 
L 128.332379 120.196434 
L 128.769315 124.499174 
L 129.206889 134.215488 
L 129.643873 131.542039 
L 130.080553 125.751562 
L 130.517032 129.810966 
L 130.956469 130.013731 
L 131.391654 128.698523 
L 131.828663 133.223038 
L 132.265914 132.001894 
L 132.702719 129.937262 
L 133.14 134.310142 
L 133.577039 133.53561 
L 134.014122 131.823586 
L 134.450829 135.644159 
L 134.888212 134.446326 
L 135.324639 132.414409 
L 135.761732 135.199501 
L 136.198798 133.457207 
L 136.6358 131.02102 
L 137.072687 132.587828 
L 137.947429 128.032914 
L 138.383956 128.518687 
L 139.258024 123.944384 
L 139.695077 123.902817 
L 140.569073 120.453625 
L 141.006096 120.614679 
L 141.880096 118.518685 
L 142.317142 118.817061 
L 143.191264 117.142203 
L 143.628192 117.317134 
L 144.50225 115.919356 
L 144.939357 116.104482 
L 145.813329 115.147492 
L 146.250486 115.485741 
L 147.124238 114.931884 
L 147.561536 115.453134 
L 148.435323 115.13118 
L 148.872377 115.808199 
L 149.310476 115.745866 
L 149.746374 115.56056 
L 150.184089 116.286166 
L 150.621415 116.132345 
L 151.058034 115.7645 
L 151.49474 116.124204 
L 152.368608 115.029652 
L 152.805491 115.05591 
L 153.679688 114.260064 
L 154.116549 114.445684 
L 154.990561 114.368743 
L 155.427561 115.024477 
L 156.301573 115.768553 
L 156.738576 117.116287 
L 157.612512 118.635342 
L 158.049638 120.679019 
L 158.923583 122.622229 
L 159.360593 124.977173 
L 160.235468 126.551891 
L 160.671843 128.499322 
L 161.10856 128.908944 
L 161.545754 129.128881 
L 161.982763 130.35761 
L 162.421708 130.234415 
L 162.856701 129.929211 
L 163.293702 130.237844 
L 164.168066 128.803718 
L 164.604749 128.472749 
L 165.479052 126.986393 
L 166.353877 126.804653 
L 166.78988 127.042997 
L 168.100817 131.156076 
L 171.159883 152.427219 
L 171.597075 154.087741 
L 172.033832 155.12805 
L 172.471465 155.474472 
L 172.909001 154.698038 
L 173.345186 153.077439 
L 174.219442 146.529501 
L 174.655768 142.425135 
L 176.403922 120.097221 
L 177.715676 107.012746 
L 178.153788 104.731497 
L 178.589255 103.505438 
L 179.025972 103.518887 
L 179.464724 104.979992 
L 179.900155 107.584415 
L 180.776569 118.122075 
L 181.211084 124.566395 
L 182.08674 142.68889 
L 182.522097 150.209896 
L 182.959909 159.905823 
L 183.396703 164.045318 
L 183.833317 165.294601 
L 184.270185 165.351647 
L 184.708571 158.98361 
L 185.58113 136.669849 
L 186.455642 113.626375 
L 186.892116 105.999548 
L 187.330317 103.4061 
L 187.766546 103.541631 
L 188.20321 103.494028 
L 188.640195 104.741307 
L 189.077126 105.609751 
L 189.514157 104.21138 
L 190.388169 103.397539 
L 190.82529 100.683831 
L 191.263752 100.187837 
L 191.699208 100.131781 
L 192.136734 97.439741 
L 192.5744 97.608116 
L 193.010471 98.418059 
L 193.447309 96.823988 
L 193.885852 98.026912 
L 194.321487 99.644763 
L 194.758411 99.064703 
L 195.632402 102.039832 
L 196.069624 101.832037 
L 196.943492 104.168034 
L 197.380453 103.911973 
L 198.254484 105.236901 
L 198.692275 104.563597 
L 199.565559 104.781194 
L 200.00252 103.457767 
L 200.876801 102.459225 
L 201.313473 100.228722 
L 202.188415 97.985434 
L 202.624668 94.74429 
L 203.498524 91.115261 
L 203.935816 86.866452 
L 204.809546 81.96831 
L 205.246793 77.300899 
L 206.120657 72.698304 
L 206.557625 69.139825 
L 207.868851 64.780646 
L 208.306518 64.499927 
L 208.742516 64.576944 
L 209.17996 63.985178 
L 209.618389 64.769661 
L 210.490923 66.917282 
L 210.929312 69.191014 
L 211.801749 75.509433 
L 212.675882 84.607203 
L 214.424019 106.955216 
L 215.73491 120.237653 
L 216.608854 125.447532 
L 217.04662 127.927767 
L 217.483143 128.897137 
L 217.920027 129.233701 
L 218.356952 128.981617 
L 218.79538 127.745742 
L 219.231066 125.780526 
L 220.106866 118.175777 
L 220.542431 113.367771 
L 223.601358 60.749918 
L 224.039702 57.699662 
L 224.47596 57.022971 
L 224.912318 59.232148 
L 225.350812 65.456381 
L 225.786268 75.090691 
L 227.097952 115.937928 
L 227.534268 129.517054 
L 227.973081 136.883239 
L 228.845212 146.64368 
L 229.283855 147.127478 
L 229.719369 146.097964 
L 230.156283 145.664353 
L 231.905229 133.268187 
L 232.778376 127.325729 
L 233.21671 124.975055 
L 233.652528 123.564784 
L 234.089392 123.909711 
L 234.52814 124.454076 
L 234.963436 125.604637 
L 235.400591 128.495743 
L 236.711774 133.505431 
L 237.150266 133.515676 
L 237.585473 132.638708 
L 238.022765 130.809636 
L 238.461253 127.499524 
L 238.896506 123.211387 
L 240.208128 102.4431 
L 241.083494 82.586741 
L 241.518491 73.444038 
L 241.956007 61.709809 
L 242.394215 54.698148 
L 245.888702 54.698431 
L 246.327162 67.607911 
L 247.638286 113.455803 
L 248.511245 126.586016 
L 248.949281 127.774553 
L 249.384693 127.313774 
L 249.821847 127.624949 
L 250.695672 124.574119 
L 251.132815 124.373226 
L 252.006765 121.765212 
L 252.443718 121.180476 
L 253.321621 118.598971 
L 253.754851 118.043069 
L 254.628806 116.527103 
L 255.0663 116.2778 
L 255.93982 115.26115 
L 256.376946 114.915567 
L 257.25111 113.699631 
L 258.562017 111.302026 
L 259.437106 109.153694 
L 259.873027 108.296957 
L 260.309923 106.85783 
L 261.18397 105.525359 
L 261.620928 104.397254 
L 262.494955 103.736075 
L 263.806831 98.674192 
L 264.243719 94.838049 
L 264.681462 92.855265 
L 265.117101 91.493164 
L 265.554102 89.106489 
L 265.992674 89.783094 
L 266.428115 91.786526 
L 266.864855 94.417018 
L 267.739277 104.234901 
L 268.614402 116.511227 
L 269.050134 121.813714 
L 269.487325 129.461287 
L 270.36104 139.510991 
L 270.798137 147.787159 
L 272.548137 165.945215 
L 273.420234 169.455625 
L 276.042944 169.459555 
L 276.479755 168.243817 
L 276.916411 160.694581 
L 277.353519 151.199212 
L 278.664898 115.979553 
L 279.102294 108.211415 
L 279.975301 96.870564 
L 280.414112 94.160959 
L 280.849385 92.389309 
L 281.286413 88.884839 
L 281.724048 88.447304 
L 282.160779 88.73747 
L 282.597302 87.13603 
L 283.471488 87.981685 
L 283.908405 86.20311 
L 284.347095 86.389613 
L 284.783144 86.772546 
L 285.219906 85.48253 
L 285.658232 86.608693 
L 286.094196 88.395656 
L 286.530607 89.47391 
L 287.404556 96.350175 
L 288.715704 108.251375 
L 289.590702 116.070115 
L 290.02669 119.005902 
L 290.463797 123.302413 
L 291.338606 128.442982 
L 291.774502 133.443446 
L 292.649575 139.394094 
L 293.085635 145.509896 
L 293.959673 152.088505 
L 294.396621 157.569563 
L 294.835413 159.445833 
L 295.270737 160.438022 
L 295.708067 162.735576 
L 296.581754 161.870408 
L 297.018771 163.802087 
L 297.893113 163.861966 
L 298.329569 166.556362 
L 298.767602 165.897231 
L 299.64087 162.430091 
L 300.079619 156.190585 
L 300.9528 138.721335 
L 301.82594 119.58081 
L 302.263273 112.294094 
L 302.702326 107.997687 
L 303.573868 103.063837 
L 304.448073 101.503659 
L 304.885315 98.466404 
L 305.759963 95.379333 
L 306.196085 90.456648 
L 307.070135 85.418112 
L 307.507001 79.513948 
L 308.381155 74.80749 
L 308.818043 70.198986 
L 309.692341 67.328301 
L 310.12916 64.082904 
L 311.003118 62.393171 
L 311.440144 59.975067 
L 312.314276 59.022484 
L 312.751092 57.530743 
L 313.189515 57.930478 
L 314.062032 59.782372 
L 314.500164 62.738176 
L 315.373153 71.570866 
L 316.247265 83.871749 
L 317.122964 97.699835 
L 319.744904 132.110244 
L 321.055712 144.821742 
L 321.491427 147.427424 
L 321.928411 148.866265 
L 322.366835 149.061885 
L 322.803001 148.113107 
L 323.677731 139.872484 
L 324.113542 134.449408 
L 325.42461 105.239036 
L 326.735476 59.06739 
L 327.172567 54.698075 
L 331.979588 54.698078 
L 332.416628 68.604027 
L 333.291234 121.519215 
L 333.727771 141.209755 
L 334.165505 148.633912 
L 335.038728 153.762691 
L 335.47661 149.98372 
L 335.912743 143.536143 
L 336.78791 125.43975 
L 338.097926 99.356183 
L 338.971842 91.406175 
L 339.410139 91.655721 
L 340.291702 95.441869 
L 342.033956 110.541679 
L 343.345745 117.971277 
L 343.781985 119.367635 
L 344.218932 122.23228 
L 345.092985 124.808416 
L 345.53017 128.242231 
L 346.404985 130.654424 
L 346.841131 133.943854 
L 347.278089 134.595729 
L 347.715129 134.794897 
L 348.152253 136.794819 
L 348.589705 136.571365 
L 349.026361 136.160354 
L 349.463264 137.449318 
L 350.337546 136.744412 
L 350.774769 137.925166 
L 351.211212 137.874519 
L 351.648399 137.969557 
L 352.085605 139.317545 
L 352.522312 139.722612 
L 352.960731 140.3089 
L 353.397122 141.921877 
L 354.270575 143.725727 
L 354.707449 145.121129 
L 355.581497 146.659365 
L 356.018745 147.067448 
L 356.455524 147.22659 
L 356.892742 147.157331 
L 357.329557 146.071418 
L 358.203912 144.313048 
L 358.640677 141.707224 
L 359.515071 138.532058 
L 359.952403 134.886672 
L 360.825483 130.812099 
L 361.262731 126.388505 
L 362.136899 120.506747 
L 363.447935 102.678471 
L 364.321812 80.373687 
L 364.758769 65.43619 
L 365.195802 54.698075 
L 385.300462 54.698076 
L 385.737316 75.022705 
L 386.175358 167.846337 
L 386.611506 167.565576 
L 387.050051 94.138977 
L 387.48556 81.574927 
L 387.92296 135.328383 
L 388.35981 154.98741 
L 389.233332 94.458909 
L 389.670748 114.495701 
L 390.108977 147.604985 
L 390.544542 134.487384 
L 390.981625 104.042756 
L 391.41868 113.492139 
L 391.855586 134.723835 
L 392.292803 131.523643 
L 392.729897 118.169491 
L 393.166708 112.034822 
L 394.040629 132.286805 
L 394.915241 109.313923 
L 395.788631 126.468563 
L 396.226018 118.883916 
L 396.662795 113.449334 
L 397.099621 115.020441 
L 397.536652 119.342807 
L 397.973703 120.564551 
L 398.411145 113.839785 
L 398.848062 111.246201 
L 399.285564 118.266216 
L 399.721814 119.333622 
L 400.158922 113.177348 
L 400.595919 112.889914 
L 401.032829 116.424512 
L 401.471735 117.146419 
L 401.907118 115.790563 
L 402.344051 113.093482 
L 402.781081 113.887185 
L 403.217979 118.030667 
L 403.655224 115.973094 
L 404.092149 111.778332 
L 404.966015 117.03036 
L 405.403158 114.446722 
L 405.840541 112.981951 
L 406.277757 113.701346 
L 406.714013 114.948761 
L 407.151255 115.229993 
L 407.588167 112.583365 
L 408.025173 111.949406 
L 408.462188 115.166445 
L 408.900268 114.83299 
L 409.336212 111.483321 
L 409.773191 112.069837 
L 410.210405 114.508222 
L 410.647259 113.923592 
L 411.084205 111.853288 
L 411.521286 111.641708 
L 411.958265 113.542252 
L 412.395282 114.192666 
L 412.832903 111.93798 
L 413.269382 111.124294 
L 413.706474 113.528655 
L 414.143322 114.112305 
L 414.580741 111.864539 
L 415.017367 111.392755 
L 415.454286 113.120294 
L 415.891649 113.707377 
L 416.765995 111.437809 
L 417.639594 113.748186 
L 418.513606 111.388849 
L 419.387343 113.413629 
L 420.262386 111.864014 
L 420.698324 112.136233 
L 421.137464 112.873282 
L 421.572572 112.955237 
L 422.009456 112.134199 
L 422.446835 111.902503 
L 422.88374 112.701678 
L 423.320563 112.865866 
L 423.757532 112.242377 
L 424.194854 112.120489 
L 424.631884 112.420088 
L 425.068634 112.579009 
L 425.506351 112.520186 
L 425.943241 112.225279 
L 426.379677 112.187235 
L 426.816688 112.522111 
L 427.254382 112.50295 
L 427.690635 112.244986 
L 429.438693 112.392568 
L 430.31264 112.24027 
L 430.749712 112.363853 
L 438.178816 112.226097 
L 439.926904 112.245662 
L 444.734183 112.228241 
L 449.104422 112.452207 
L 449.978086 112.649496 
L 450.852102 113.060782 
L 451.289182 113.425201 
L 451.726746 113.979763 
L 452.16317 114.84547 
L 452.600799 116.206976 
L 453.037699 118.415493 
L 453.475069 122.046621 
L 453.911791 128.098874 
L 454.348883 138.202694 
L 455.222771 169.459581 
L 465.274057 169.459581 
L 465.711124 165.438009 
L 466.148325 115.4505 
L 466.58548 89.522227 
L 467.022408 97.622915 
L 467.459545 112.446654 
L 467.89616 117.676826 
L 468.333493 115.631768 
L 468.770252 112.773045 
L 469.207509 111.573077 
L 469.644506 111.525833 
L 470.51868 111.932593 
L 471.829316 112.050859 
L 472.703636 112.058957 
L 472.703636 112.058957 
" clip-path="url(#p9eea64ae1f)" style="fill: none; stroke: #1f77b4; stroke-width: 1.5; stroke-linecap: square"/>
   </g>
   <g id="line2d_26">
    <path d="M 62.776364 54.698075 
L 63.212615 54.698075 
L 63.649248 83.252147 
L 64.087428 100.840905 
L 64.523924 106.912829 
L 64.961002 109.933385 
L 65.398294 110.894186 
L 66.272215 111.784672 
L 67.146128 112.047072 
L 68.457249 112.220092 
L 74.575666 112.815237 
L 75.886563 113.203387 
L 76.760735 113.640165 
L 77.634575 114.17921 
L 79.383372 116.211721 
L 80.693963 117.652392 
L 81.130504 117.689201 
L 81.567488 117.355285 
L 82.878747 114.010534 
L 83.315607 113.140761 
L 84.627436 111.642847 
L 85.938222 110.733832 
L 86.811825 110.464787 
L 87.248623 110.44422 
L 87.685909 110.537812 
L 88.122842 110.746001 
L 88.997231 111.797059 
L 89.43419 112.539367 
L 90.744629 116.45352 
L 91.619035 120.295102 
L 92.055875 122.052768 
L 92.492851 124.324194 
L 93.366966 127.201568 
L 93.804124 128.54486 
L 94.241071 129.186914 
L 94.677966 129.508125 
L 95.114859 129.469875 
L 95.552264 129.140034 
L 95.988912 128.607346 
L 97.736853 124.988175 
L 99.051483 122.826922 
L 99.925434 122.080317 
L 100.362324 121.865453 
L 100.799438 121.87268 
L 101.23639 122.043227 
L 102.110426 123.238711 
L 102.547486 122.917915 
L 102.984466 122.343006 
L 103.858379 121.726774 
L 104.295471 121.666807 
L 104.732358 121.830019 
L 105.169588 122.171595 
L 106.045073 123.664828 
L 106.481905 124.616164 
L 107.792978 129.309555 
L 108.667123 134.019759 
L 109.103952 136.274951 
L 109.541053 139.225444 
L 109.978471 141.125226 
L 110.415515 142.43287 
L 110.852004 142.623169 
L 111.289096 141.090402 
L 112.163484 134.516312 
L 113.037306 135.152413 
L 113.91118 135.89632 
L 114.785288 136.332161 
L 115.659195 136.29791 
L 116.533193 135.725815 
L 116.970162 135.323722 
L 118.718133 132.856531 
L 120.029202 131.527802 
L 120.466197 131.372304 
L 120.903869 131.372013 
L 121.340616 131.650393 
L 121.777347 132.093773 
L 122.657336 134.935184 
L 123.08838 135.642401 
L 123.525272 136.016178 
L 123.962206 135.978791 
L 124.399346 135.554247 
L 124.836566 134.812847 
L 126.147193 130.620491 
L 127.021659 126.99106 
L 128.332379 122.501107 
L 129.206889 120.610089 
L 129.643873 120.223838 
L 130.080553 120.123178 
L 130.517032 120.466722 
L 130.956469 121.108048 
L 131.391654 122.101193 
L 131.828663 124.736238 
L 132.265914 126.626215 
L 132.702719 127.695031 
L 133.14 128.038811 
L 133.577039 127.64208 
L 134.014122 126.818841 
L 137.509791 114.427971 
L 138.383956 112.211585 
L 138.821008 111.56287 
L 139.258024 111.137609 
L 139.695077 110.982268 
L 140.132824 111.229231 
L 140.569073 111.838086 
L 141.443675 114.904136 
L 142.317142 113.903113 
L 143.191264 113.501496 
L 144.066409 113.518236 
L 144.50225 113.646458 
L 145.813329 114.484575 
L 147.124238 115.997076 
L 149.746374 121.125115 
L 150.184089 121.605295 
L 150.621415 121.31461 
L 151.058034 120.206017 
L 151.49474 116.917159 
L 151.932457 114.562135 
L 152.805491 111.479002 
L 153.243294 111.135238 
L 153.679688 111.449579 
L 154.116549 113.041628 
L 154.554475 115.214686 
L 154.990561 118.255866 
L 156.738576 138.524489 
L 157.177426 141.855548 
L 157.612512 144.038567 
L 158.049638 145.013016 
L 158.486278 144.423892 
L 158.923583 142.971987 
L 159.79881 137.972289 
L 160.671843 133.49684 
L 161.10856 132.377129 
L 161.982763 125.896434 
L 162.421708 124.156878 
L 162.856701 123.157366 
L 163.293702 122.868042 
L 163.732241 123.317109 
L 164.168066 124.246571 
L 165.479052 130.228125 
L 168.537817 155.836966 
L 168.97528 157.545236 
L 169.412165 157.971432 
L 169.84881 156.144533 
L 170.286458 152.817982 
L 171.159883 143.966843 
L 172.471465 145.96685 
L 172.909001 146.296108 
L 173.345186 146.443592 
L 173.781931 146.325337 
L 174.219442 145.990513 
L 174.655768 145.448785 
L 175.967603 142.392181 
L 176.841027 139.548669 
L 177.278079 138.27674 
L 177.715676 136.60406 
L 179.464724 131.931793 
L 180.776569 129.612622 
L 181.648172 144.726991 
L 182.08674 147.458722 
L 182.522097 148.108352 
L 182.959909 146.272086 
L 183.833317 139.891272 
L 184.270185 134.776445 
L 186.019192 120.696567 
L 189.077126 103.167009 
L 191.263752 84.408277 
L 191.699208 81.583921 
L 192.136734 79.613106 
L 192.5744 80.148507 
L 193.010471 82.895865 
L 193.885852 99.266766 
L 194.758411 105.175661 
L 195.197631 106.8177 
L 195.632402 107.932969 
L 196.069624 108.66043 
L 196.50756 108.687762 
L 196.943492 108.311276 
L 197.819765 106.000418 
L 198.254484 104.420569 
L 199.565559 96.429603 
L 201.313473 77.235681 
L 203.063503 57.575407 
L 203.498524 55.057796 
L 203.935816 54.698075 
L 204.373881 54.698075 
L 204.809546 56.338927 
L 206.120657 68.580851 
L 206.557625 74.186446 
L 206.995837 78.149122 
L 207.431744 72.257781 
L 207.868851 64.746517 
L 208.742516 55.44788 
L 209.17996 54.698075 
L 210.053838 54.698075 
L 210.490923 55.056548 
L 211.364704 64.119324 
L 212.240107 76.763546 
L 213.551605 92.075652 
L 214.861715 102.282664 
L 216.173591 108.678305 
L 217.04662 111.226751 
L 217.483143 111.733283 
L 217.920027 111.791891 
L 218.356952 111.014438 
L 218.79538 109.661675 
L 219.231066 107.55559 
L 220.106866 99.683758 
L 220.979699 88.254866 
L 221.41724 85.758395 
L 221.853361 84.562137 
L 222.290145 84.723456 
L 222.728815 85.910997 
L 223.164301 87.774427 
L 224.039702 93.613264 
L 224.47596 96.366254 
L 224.912318 100.019415 
L 228.408135 121.417873 
L 228.845212 124.712629 
L 230.594549 133.947027 
L 231.030328 135.008251 
L 231.467317 135.192043 
L 231.905229 134.178977 
L 232.341362 132.021762 
L 233.21671 122.110072 
L 234.089392 145.531862 
L 234.52814 151.012051 
L 234.963436 153.748498 
L 235.400591 153.142003 
L 235.839052 149.787762 
L 236.275183 144.437712 
L 238.896506 88.667178 
L 239.333588 76.686072 
L 240.208128 62.217487 
L 240.644569 57.3888 
L 241.083494 57.125541 
L 241.518491 59.746501 
L 242.829692 82.821762 
L 243.266518 83.289727 
L 243.705078 76.716517 
L 244.140971 72.533474 
L 244.577694 70.603235 
L 245.016184 71.662339 
L 245.452212 74.459661 
L 247.199741 96.118828 
L 248.949281 112.906451 
L 250.259809 122.52523 
L 250.695672 124.541502 
L 251.132815 125.992717 
L 251.571449 125.733256 
L 252.006765 123.922224 
L 252.88196 112.078828 
L 253.754851 115.774172 
L 254.193793 116.483396 
L 254.628806 116.74971 
L 255.0663 116.515601 
L 255.504992 115.970464 
L 255.93982 115.166777 
L 258.127075 107.84502 
L 259.873027 102.212564 
L 260.309923 101.142472 
L 260.748391 100.703061 
L 261.18397 100.648578 
L 261.620928 101.286766 
L 262.059322 102.378024 
L 262.494955 104.05807 
L 262.932059 95.54951 
L 263.370358 84.841472 
L 263.806831 79.026476 
L 264.243719 77.702098 
L 264.681462 80.27939 
L 265.117101 84.731586 
L 265.992674 97.683501 
L 266.428115 103.281187 
L 267.303652 116.471705 
L 267.739277 122.837774 
L 269.050134 153.001615 
L 269.487325 168.702309 
L 269.926281 169.459581 
L 271.672074 169.459581 
L 272.109252 159.822989 
L 272.548137 147.041792 
L 272.983151 159.925529 
L 273.420234 169.459581 
L 275.605491 169.459581 
L 276.479755 143.704555 
L 277.791954 116.207683 
L 278.227154 109.857863 
L 279.102294 95.096485 
L 279.538929 88.411433 
L 279.975301 79.695276 
L 280.414112 74.298564 
L 280.849385 71.154648 
L 281.286413 72.687854 
L 281.724048 79.605387 
L 282.160779 92.420912 
L 282.597302 97.418814 
L 283.036221 89.127673 
L 283.471488 83.579067 
L 283.908405 80.173927 
L 284.347095 80.198403 
L 284.783144 81.927265 
L 288.280461 113.754333 
L 288.715704 117.317022 
L 290.02669 132.656072 
L 291.774502 168.365076 
L 292.213272 169.459581 
L 293.959673 169.459581 
L 294.835413 154.261187 
L 295.270737 146.043964 
L 295.708067 150.562121 
L 296.145331 164.662446 
L 296.581754 169.459581 
L 298.329569 169.459581 
L 298.767602 168.331634 
L 300.079619 134.99397 
L 300.9528 122.446508 
L 303.13725 104.684456 
L 304.012446 92.568477 
L 304.448073 84.56424 
L 305.322937 56.442881 
L 305.759963 54.698075 
L 307.945525 54.698075 
L 308.818043 78.066885 
L 309.692341 68.986298 
L 310.56785 56.329209 
L 311.003118 54.698075 
L 313.625266 54.740672 
L 314.500164 69.765939 
L 316.247265 95.219268 
L 316.684486 100.980742 
L 317.995455 111.236495 
L 318.432926 113.163444 
L 318.869416 114.489985 
L 319.306438 115.176215 
L 319.744904 114.732915 
L 320.180989 113.32341 
L 321.055712 105.591285 
L 321.928411 95.621029 
L 322.366835 95.16952 
L 322.803001 94.929942 
L 323.240042 94.894638 
L 323.677731 95.044237 
L 324.113542 95.312737 
L 326.735476 98.384627 
L 327.61096 99.430857 
L 329.35757 100.885853 
L 330.233438 101.384604 
L 331.543798 101.790357 
L 333.291234 101.934673 
L 334.601827 101.954554 
L 335.912743 85.328043 
L 336.350012 83.164683 
L 336.78791 83.651155 
L 337.225283 85.443978 
L 338.097926 92.218675 
L 338.53546 95.413836 
L 338.971842 99.476373 
L 340.723074 110.408289 
L 341.160077 112.688532 
L 342.033956 118.409342 
L 342.471159 121.258279 
L 343.781985 134.027955 
L 344.655992 146.314013 
L 345.53017 157.813897 
L 345.967109 160.594427 
L 346.404985 161.129983 
L 346.841131 157.601126 
L 347.278089 151.509753 
L 348.152253 135.380096 
L 349.026361 138.452424 
L 349.900785 142.88299 
L 350.337546 144.884054 
L 350.774769 147.452304 
L 351.648399 150.628604 
L 352.085605 151.967809 
L 352.522312 152.432996 
L 352.960731 152.383764 
L 353.397122 151.496685 
L 353.833428 150.242968 
L 354.270575 148.542782 
L 356.455524 134.772462 
L 357.766803 128.157183 
L 358.203912 126.996309 
L 358.640677 126.265642 
L 359.077535 126.434957 
L 359.515071 127.313036 
L 360.389461 132.590776 
L 361.262731 140.183936 
L 362.573802 143.308451 
L 363.447935 144.571775 
L 363.884993 145.060873 
L 364.321812 145.220469 
L 364.758769 145.195784 
L 365.633367 144.434775 
L 366.070157 143.831519 
L 368.254752 138.463318 
L 368.691863 137.397609 
L 369.128877 136.030798 
L 370.440243 133.200514 
L 371.314089 132.104557 
L 371.750789 131.684516 
L 372.18791 131.545598 
L 372.625064 131.562923 
L 373.500989 132.218119 
L 373.938529 132.756169 
L 374.375222 132.772404 
L 374.812422 132.486991 
L 375.24938 132.528113 
L 376.123919 133.437076 
L 376.560418 134.006732 
L 376.997244 134.775863 
L 377.87116 135.651544 
L 378.308242 135.860996 
L 378.7452 135.752687 
L 379.182787 135.392782 
L 380.056438 133.591425 
L 380.493602 132.468532 
L 381.367622 129.365156 
L 381.804812 127.958508 
L 382.242275 126.134842 
L 383.552412 122.369383 
L 384.426526 120.895375 
L 384.863478 120.277708 
L 385.300462 120.008644 
L 385.737316 119.907658 
L 386.175358 120.041532 
L 386.611506 120.35451 
L 387.050051 120.866739 
L 387.92296 124.831712 
L 388.35981 125.961309 
L 388.796609 126.524585 
L 389.233332 126.37755 
L 389.670748 125.861442 
L 390.981625 122.662289 
L 391.855586 120.029659 
L 394.040629 114.62991 
L 395.788631 111.782395 
L 397.099621 110.406093 
L 397.973703 110.046741 
L 398.411145 110.105138 
L 398.848062 110.321225 
L 399.721814 111.559451 
L 400.595919 113.429965 
L 401.471735 113.889618 
L 402.344051 113.915159 
L 403.217979 113.659878 
L 408.900268 111.948905 
L 411.958265 111.114272 
L 412.395282 111.196269 
L 412.832903 111.400986 
L 413.706474 112.078659 
L 446.04531 112.169733 
L 449.104422 112.36235 
L 450.415785 112.644347 
L 451.289182 113.07585 
L 451.726746 113.344437 
L 472.703636 113.344437 
L 472.703636 113.344437 
" clip-path="url(#p9eea64ae1f)" style="fill: none; stroke-dasharray: 9.6,2.4,1.5,2.4; stroke-dashoffset: 0; stroke: #ff7f0e; stroke-width: 1.5"/>
   </g>
   <g id="line2d_27">
    <path d="M 42.28 169.459581 
L 493.2 169.459581 
" clip-path="url(#p9eea64ae1f)" style="fill: none; stroke-dasharray: 3.7,1.6; stroke-dashoffset: 0; stroke: #ff0000"/>
   </g>
   <g id="line2d_28">
    <path d="M 42.28 54.698075 
L 493.2 54.698075 
" clip-path="url(#p9eea64ae1f)" style="fill: none; stroke-dasharray: 3.7,1.6; stroke-dashoffset: 0; stroke: #ff0000"/>
   </g>
   <g id="patch_3">
    <path d="M 42.28 175.197656 
L 42.28 48.96 
" style="fill: none; stroke: #000000; stroke-width: 0.8; stroke-linejoin: miter; stroke-linecap: square"/>
   </g>
   <g id="patch_4">
    <path d="M 493.2 175.197656 
L 493.2 48.96 
" style="fill: none; stroke: #000000; stroke-width: 0.8; stroke-linejoin: miter; stroke-linecap: square"/>
   </g>
   <g id="patch_5">
    <path d="M 42.28 175.197656 
L 493.2 175.197656 
" style="fill: none; stroke: #000000; stroke-width: 0.8; stroke-linejoin: miter; stroke-linecap: square"/>
   </g>
   <g id="patch_6">
    <path d="M 42.28 48.96 
L 493.2 48.96 
" style="fill: none; stroke: #000000; stroke-width: 0.8; stroke-linejoin: miter; stroke-linecap: square"/>
   </g>
   <g id="text_14">
    <!-- $\delta$ (rad) -->
    <g transform="translate(247.52 42.96) scale(0.12 -0.12)">
     <defs>
      <path id="DejaVuSans-Oblique-348" d="M 3472 4053 
Q 3197 4272 2450 4272 
Q 1659 4272 1588 3906 
Q 1531 3619 2328 3469 
Q 2953 3353 3253 3003 
Q 3616 2581 3447 1716 
Q 3284 888 2763 400 
Q 2238 -91 1488 -91 
Q 741 -91 406 400 
Q 72 888 241 1747 
Q 363 2384 891 2900 
Q 1097 3100 1353 3213 
Q 913 3459 1000 3900 
Q 1166 4750 2544 4750 
Q 3234 4750 3566 4531 
L 3472 4053 
z
M 1753 3056 
Q 1525 2966 1306 2738 
Q 969 2384 847 1747 
Q 722 1113 919 756 
Q 1119 397 1584 397 
Q 2044 397 2381 759 
Q 2722 1122 2838 1716 
Q 2956 2338 2731 2638 
Q 2491 2959 2103 2994 
Q 1906 3013 1753 3056 
z
" transform="scale(0.015625)"/>
      <path id="DejaVuSans-55" d="M 2631 2963 
Q 2534 3019 2420 3045 
Q 2306 3072 2169 3072 
Q 1681 3072 1420 2755 
Q 1159 2438 1159 1844 
L 1159 0 
L 581 0 
L 581 3500 
L 1159 3500 
L 1159 2956 
Q 1341 3275 1631 3429 
Q 1922 3584 2338 3584 
Q 2397 3584 2469 3576 
Q 2541 3569 2628 3553 
L 2631 2963 
z
" transform="scale(0.015625)"/>
      <path id="DejaVuSans-44" d="M 2194 1759 
Q 1497 1759 1228 1600 
Q 959 1441 959 1056 
Q 959 750 1161 570 
Q 1363 391 1709 391 
Q 2188 391 2477 730 
Q 2766 1069 2766 1631 
L 2766 1759 
L 2194 1759 
z
M 3341 1997 
L 3341 0 
L 2766 0 
L 2766 531 
Q 2569 213 2275 61 
Q 1981 -91 1556 -91 
Q 1019 -91 701 211 
Q 384 513 384 1019 
Q 384 1609 779 1909 
Q 1175 2209 1959 2209 
L 2766 2209 
L 2766 2266 
Q 2766 2663 2505 2880 
Q 2244 3097 1772 3097 
Q 1472 3097 1187 3025 
Q 903 2953 641 2809 
L 641 3341 
Q 956 3463 1253 3523 
Q 1550 3584 1831 3584 
Q 2591 3584 2966 3190 
Q 3341 2797 3341 1997 
z
" transform="scale(0.015625)"/>
      <path id="DejaVuSans-47" d="M 2906 2969 
L 2906 4863 
L 3481 4863 
L 3481 0 
L 2906 0 
L 2906 525 
Q 2725 213 2448 61 
Q 2172 -91 1784 -91 
Q 1150 -91 751 415 
Q 353 922 353 1747 
Q 353 2572 751 3078 
Q 1150 3584 1784 3584 
Q 2172 3584 2448 3432 
Q 2725 3281 2906 2969 
z
M 947 1747 
Q 947 1113 1208 752 
Q 1469 391 1925 391 
Q 2381 391 2643 752 
Q 2906 1113 2906 1747 
Q 2906 2381 2643 2742 
Q 2381 3103 1925 3103 
Q 1469 3103 1208 2742 
Q 947 2381 947 1747 
z
" transform="scale(0.015625)"/>
     </defs>
     <use xlink:href="#DejaVuSans-Oblique-348" transform="translate(0 0.015625)"/>
     <use xlink:href="#DejaVuSans-3" transform="translate(61.181641 0.015625)"/>
     <use xlink:href="#DejaVuSans-b" transform="translate(92.96875 0.015625)"/>
     <use xlink:href="#DejaVuSans-55" transform="translate(131.982422 0.015625)"/>
     <use xlink:href="#DejaVuSans-44" transform="translate(173.095703 0.015625)"/>
     <use xlink:href="#DejaVuSans-47" transform="translate(234.375 0.015625)"/>
     <use xlink:href="#DejaVuSans-c" transform="translate(297.851562 0.015625)"/>
    </g>
   </g>
   <g id="legend_1">
    <g id="patch_7">
     <path d="M 432.6 86.961562 
L 486.2 86.961562 
Q 488.2 86.961562 488.2 84.961562 
L 488.2 55.96 
Q 488.2 53.96 486.2 53.96 
L 432.6 53.96 
Q 430.6 53.96 430.6 55.96 
L 430.6 84.961562 
Q 430.6 86.961562 432.6 86.961562 
z
" style="fill: #ffffff; opacity: 0.8; stroke: #cccccc; stroke-linejoin: miter"/>
    </g>
    <g id="line2d_29">
     <path d="M 434.6 62.058437 
L 444.6 62.058437 
L 454.6 62.058437 
" style="fill: none; stroke: #1f77b4; stroke-width: 1.5; stroke-linecap: square"/>
    </g>
    <g id="text_15">
     <!-- $\delta_{cmd}$ -->
     <g transform="translate(462.6 65.558437) scale(0.1 -0.1)">
      <defs>
       <path id="DejaVuSans-Oblique-46" d="M 3431 3366 
L 3316 2797 
Q 3109 2947 2876 3022 
Q 2644 3097 2394 3097 
Q 2119 3097 1870 3000 
Q 1622 2903 1453 2725 
Q 1184 2453 1037 2087 
Q 891 1722 891 1331 
Q 891 859 1127 628 
Q 1363 397 1844 397 
Q 2081 397 2348 469 
Q 2616 541 2906 684 
L 2797 116 
Q 2547 13 2283 -39 
Q 2019 -91 1741 -91 
Q 1044 -91 669 257 
Q 294 606 294 1253 
Q 294 1797 489 2255 
Q 684 2713 1069 3078 
Q 1331 3328 1684 3456 
Q 2038 3584 2456 3584 
Q 2700 3584 2940 3529 
Q 3181 3475 3431 3366 
z
" transform="scale(0.015625)"/>
       <path id="DejaVuSans-Oblique-50" d="M 5747 2113 
L 5338 0 
L 4763 0 
L 5166 2094 
Q 5191 2228 5203 2325 
Q 5216 2422 5216 2491 
Q 5216 2772 5059 2928 
Q 4903 3084 4622 3084 
Q 4203 3084 3875 2770 
Q 3547 2456 3450 1953 
L 3066 0 
L 2491 0 
L 2900 2094 
Q 2925 2209 2937 2307 
Q 2950 2406 2950 2484 
Q 2950 2769 2794 2926 
Q 2638 3084 2363 3084 
Q 1938 3084 1609 2770 
Q 1281 2456 1184 1953 
L 800 0 
L 225 0 
L 909 3500 
L 1484 3500 
L 1375 2956 
Q 1609 3263 1923 3423 
Q 2238 3584 2597 3584 
Q 2978 3584 3223 3384 
Q 3469 3184 3519 2828 
Q 3781 3197 4126 3390 
Q 4472 3584 4856 3584 
Q 5306 3584 5551 3325 
Q 5797 3066 5797 2591 
Q 5797 2488 5784 2364 
Q 5772 2241 5747 2113 
z
" transform="scale(0.015625)"/>
       <path id="DejaVuSans-Oblique-47" d="M 2675 525 
Q 2444 222 2128 65 
Q 1813 -91 1428 -91 
Q 903 -91 598 267 
Q 294 625 294 1247 
Q 294 1766 478 2236 
Q 663 2706 1013 3078 
Q 1244 3325 1534 3454 
Q 1825 3584 2144 3584 
Q 2481 3584 2739 3421 
Q 2997 3259 3138 2956 
L 3513 4863 
L 4091 4863 
L 3144 0 
L 2566 0 
L 2675 525 
z
M 891 1350 
Q 891 897 1095 644 
Q 1300 391 1663 391 
Q 1931 391 2161 520 
Q 2391 650 2566 903 
Q 2750 1166 2856 1509 
Q 2963 1853 2963 2188 
Q 2963 2622 2758 2865 
Q 2553 3109 2194 3109 
Q 1922 3109 1687 2981 
Q 1453 2853 1288 2613 
Q 1106 2353 998 2009 
Q 891 1666 891 1350 
z
" transform="scale(0.015625)"/>
      </defs>
      <use xlink:href="#DejaVuSans-Oblique-348" transform="translate(0 0.78125)"/>
      <use xlink:href="#DejaVuSans-Oblique-46" transform="translate(61.181641 -14.218701) scale(0.7)"/>
      <use xlink:href="#DejaVuSans-Oblique-50" transform="translate(99.667969 -14.218701) scale(0.7)"/>
      <use xlink:href="#DejaVuSans-Oblique-47" transform="translate(167.856445 -14.218701) scale(0.7)"/>
     </g>
    </g>
    <g id="line2d_30">
     <path d="M 434.6 77.059219 
L 444.6 77.059219 
L 454.6 77.059219 
" style="fill: none; stroke-dasharray: 9.6,2.4,1.5,2.4; stroke-dashoffset: 0; stroke: #ff7f0e; stroke-width: 1.5"/>
    </g>
    <g id="text_16">
     <!-- $\delta_{ref}$ -->
     <g transform="translate(462.6 80.559219) scale(0.1 -0.1)">
      <defs>
       <path id="DejaVuSans-Oblique-55" d="M 2853 2969 
Q 2766 3016 2653 3041 
Q 2541 3066 2413 3066 
Q 1953 3066 1609 2717 
Q 1266 2369 1153 1784 
L 800 0 
L 225 0 
L 909 3500 
L 1484 3500 
L 1375 2956 
Q 1603 3259 1920 3421 
Q 2238 3584 2597 3584 
Q 2691 3584 2781 3573 
Q 2872 3563 2963 3538 
L 2853 2969 
z
" transform="scale(0.015625)"/>
       <path id="DejaVuSans-Oblique-48" d="M 3078 2063 
Q 3088 2113 3092 2166 
Q 3097 2219 3097 2272 
Q 3097 2653 2873 2875 
Q 2650 3097 2266 3097 
Q 1838 3097 1509 2826 
Q 1181 2556 1013 2059 
L 3078 2063 
z
M 3578 1613 
L 903 1613 
Q 884 1494 878 1425 
Q 872 1356 872 1306 
Q 872 872 1139 634 
Q 1406 397 1894 397 
Q 2269 397 2603 481 
Q 2938 566 3225 728 
L 3116 159 
Q 2806 34 2476 -28 
Q 2147 -91 1806 -91 
Q 1078 -91 686 257 
Q 294 606 294 1247 
Q 294 1794 489 2264 
Q 684 2734 1063 3103 
Q 1306 3334 1642 3459 
Q 1978 3584 2356 3584 
Q 2950 3584 3301 3228 
Q 3653 2872 3653 2272 
Q 3653 2128 3634 1964 
Q 3616 1800 3578 1613 
z
" transform="scale(0.015625)"/>
       <path id="DejaVuSans-Oblique-49" d="M 3059 4863 
L 2969 4384 
L 2419 4384 
Q 2106 4384 1964 4261 
Q 1822 4138 1753 3809 
L 1691 3500 
L 2638 3500 
L 2553 3053 
L 1606 3053 
L 1013 0 
L 434 0 
L 1031 3053 
L 481 3053 
L 563 3500 
L 1113 3500 
L 1159 3744 
Q 1278 4363 1576 4613 
Q 1875 4863 2516 4863 
L 3059 4863 
z
" transform="scale(0.015625)"/>
      </defs>
      <use xlink:href="#DejaVuSans-Oblique-348" transform="translate(0 0.78125)"/>
      <use xlink:href="#DejaVuSans-Oblique-55" transform="translate(61.181641 -14.218701) scale(0.7)"/>
      <use xlink:href="#DejaVuSans-Oblique-48" transform="translate(89.960938 -14.218701) scale(0.7)"/>
      <use xlink:href="#DejaVuSans-Oblique-49" transform="translate(133.027344 -14.218701) scale(0.7)"/>
     </g>
    </g>
   </g>
  </g>
  <g id="axes_2">
   <g id="patch_8">
    <path d="M 42.28 361.077656 
L 493.2 361.077656 
L 493.2 234.84 
L 42.28 234.84 
z
" style="fill: #ffffff"/>
   </g>
   <g id="matplotlib.axis_3">
    <g id="xtick_8">
     <g id="line2d_31">
      <path d="M 62.382198 361.077656 
L 62.382198 234.84 
" clip-path="url(#p87ff36e30e)" style="fill: none; stroke: #b0b0b0; stroke-width: 0.8; stroke-linecap: square"/>
     </g>
     <g id="line2d_32">
      <g>
       <use xlink:href="#me1844a3c41" x="62.382198" y="361.077656" style="stroke: #000000; stroke-width: 0.8"/>
      </g>
     </g>
     <g id="text_17">
      <!-- 0 -->
      <g transform="translate(59.200948 375.675312) scale(0.1 -0.1)">
       <use xlink:href="#DejaVuSans-13"/>
      </g>
     </g>
    </g>
    <g id="xtick_9">
     <g id="line2d_33">
      <path d="M 127.933304 361.077656 
L 127.933304 234.84 
" clip-path="url(#p87ff36e30e)" style="fill: none; stroke: #b0b0b0; stroke-width: 0.8; stroke-linecap: square"/>
     </g>
     <g id="line2d_34">
      <g>
       <use xlink:href="#me1844a3c41" x="127.933304" y="361.077656" style="stroke: #000000; stroke-width: 0.8"/>
      </g>
     </g>
     <g id="text_18">
      <!-- 10 -->
      <g transform="translate(121.570804 375.675312) scale(0.1 -0.1)">
       <use xlink:href="#DejaVuSans-14"/>
       <use xlink:href="#DejaVuSans-13" transform="translate(63.625 0)"/>
      </g>
     </g>
    </g>
    <g id="xtick_10">
     <g id="line2d_35">
      <path d="M 193.484411 361.077656 
L 193.484411 234.84 
" clip-path="url(#p87ff36e30e)" style="fill: none; stroke: #b0b0b0; stroke-width: 0.8; stroke-linecap: square"/>
     </g>
     <g id="line2d_36">
      <g>
       <use xlink:href="#me1844a3c41" x="193.484411" y="361.077656" style="stroke: #000000; stroke-width: 0.8"/>
      </g>
     </g>
     <g id="text_19">
      <!-- 20 -->
      <g transform="translate(187.121911 375.675312) scale(0.1 -0.1)">
       <use xlink:href="#DejaVuSans-15"/>
       <use xlink:href="#DejaVuSans-13" transform="translate(63.625 0)"/>
      </g>
     </g>
    </g>
    <g id="xtick_11">
     <g id="line2d_37">
      <path d="M 259.035517 361.077656 
L 259.035517 234.84 
" clip-path="url(#p87ff36e30e)" style="fill: none; stroke: #b0b0b0; stroke-width: 0.8; stroke-linecap: square"/>
     </g>
     <g id="line2d_38">
      <g>
       <use xlink:href="#me1844a3c41" x="259.035517" y="361.077656" style="stroke: #000000; stroke-width: 0.8"/>
      </g>
     </g>
     <g id="text_20">
      <!-- 30 -->
      <g transform="translate(252.673017 375.675312) scale(0.1 -0.1)">
       <use xlink:href="#DejaVuSans-16"/>
       <use xlink:href="#DejaVuSans-13" transform="translate(63.625 0)"/>
      </g>
     </g>
    </g>
    <g id="xtick_12">
     <g id="line2d_39">
      <path d="M 324.586624 361.077656 
L 324.586624 234.84 
" clip-path="url(#p87ff36e30e)" style="fill: none; stroke: #b0b0b0; stroke-width: 0.8; stroke-linecap: square"/>
     </g>
     <g id="line2d_40">
      <g>
       <use xlink:href="#me1844a3c41" x="324.586624" y="361.077656" style="stroke: #000000; stroke-width: 0.8"/>
      </g>
     </g>
     <g id="text_21">
      <!-- 40 -->
      <g transform="translate(318.224124 375.675312) scale(0.1 -0.1)">
       <use xlink:href="#DejaVuSans-17"/>
       <use xlink:href="#DejaVuSans-13" transform="translate(63.625 0)"/>
      </g>
     </g>
    </g>
    <g id="xtick_13">
     <g id="line2d_41">
      <path d="M 390.137731 361.077656 
L 390.137731 234.84 
" clip-path="url(#p87ff36e30e)" style="fill: none; stroke: #b0b0b0; stroke-width: 0.8; stroke-linecap: square"/>
     </g>
     <g id="line2d_42">
      <g>
       <use xlink:href="#me1844a3c41" x="390.137731" y="361.077656" style="stroke: #000000; stroke-width: 0.8"/>
      </g>
     </g>
     <g id="text_22">
      <!-- 50 -->
      <g transform="translate(383.775231 375.675312) scale(0.1 -0.1)">
       <use xlink:href="#DejaVuSans-18"/>
       <use xlink:href="#DejaVuSans-13" transform="translate(63.625 0)"/>
      </g>
     </g>
    </g>
    <g id="xtick_14">
     <g id="line2d_43">
      <path d="M 455.688837 361.077656 
L 455.688837 234.84 
" clip-path="url(#p87ff36e30e)" style="fill: none; stroke: #b0b0b0; stroke-width: 0.8; stroke-linecap: square"/>
     </g>
     <g id="line2d_44">
      <g>
       <use xlink:href="#me1844a3c41" x="455.688837" y="361.077656" style="stroke: #000000; stroke-width: 0.8"/>
      </g>
     </g>
     <g id="text_23">
      <!-- 60 -->
      <g transform="translate(449.326337 375.675312) scale(0.1 -0.1)">
       <use xlink:href="#DejaVuSans-19"/>
       <use xlink:href="#DejaVuSans-13" transform="translate(63.625 0)"/>
      </g>
     </g>
    </g>
    <g id="text_24">
     <!-- t (s) -->
     <g transform="translate(257.684531 389.675312) scale(0.1 -0.1)">
      <use xlink:href="#DejaVuSans-57"/>
      <use xlink:href="#DejaVuSans-3" transform="translate(39.203125 0)"/>
      <use xlink:href="#DejaVuSans-b" transform="translate(70.984375 0)"/>
      <use xlink:href="#DejaVuSans-56" transform="translate(110 0)"/>
      <use xlink:href="#DejaVuSans-c" transform="translate(162.09375 0)"/>
     </g>
    </g>
   </g>
   <g id="matplotlib.axis_4">
    <g id="ytick_6">
     <g id="line2d_45">
      <path d="M 42.28 336.212663 
L 493.2 336.212663 
" clip-path="url(#p87ff36e30e)" style="fill: none; stroke: #b0b0b0; stroke-width: 0.8; stroke-linecap: square"/>
     </g>
     <g id="line2d_46">
      <g>
       <use xlink:href="#mf4719bd923" x="42.28" y="336.212663" style="stroke: #000000; stroke-width: 0.8"/>
      </g>
     </g>
     <g id="text_25">
      <!-- −0.2 -->
      <g transform="translate(10.997188 340.011491) scale(0.1 -0.1)">
       <use xlink:href="#DejaVuSans-c9c"/>
       <use xlink:href="#DejaVuSans-13" transform="translate(83.796875 0)"/>
       <use xlink:href="#DejaVuSans-11" transform="translate(147.421875 0)"/>
       <use xlink:href="#DejaVuSans-15" transform="translate(179.203125 0)"/>
      </g>
     </g>
    </g>
    <g id="ytick_7">
     <g id="line2d_47">
      <path d="M 42.28 297.958828 
L 493.2 297.958828 
" clip-path="url(#p87ff36e30e)" style="fill: none; stroke: #b0b0b0; stroke-width: 0.8; stroke-linecap: square"/>
     </g>
     <g id="line2d_48">
      <g>
       <use xlink:href="#mf4719bd923" x="42.28" y="297.958828" style="stroke: #000000; stroke-width: 0.8"/>
      </g>
     </g>
     <g id="text_26">
      <!-- 0.0 -->
      <g transform="translate(19.376875 301.757656) scale(0.1 -0.1)">
       <use xlink:href="#DejaVuSans-13"/>
       <use xlink:href="#DejaVuSans-11" transform="translate(63.625 0)"/>
       <use xlink:href="#DejaVuSans-13" transform="translate(95.40625 0)"/>
      </g>
     </g>
    </g>
    <g id="ytick_8">
     <g id="line2d_49">
      <path d="M 42.28 259.704993 
L 493.2 259.704993 
" clip-path="url(#p87ff36e30e)" style="fill: none; stroke: #b0b0b0; stroke-width: 0.8; stroke-linecap: square"/>
     </g>
     <g id="line2d_50">
      <g>
       <use xlink:href="#mf4719bd923" x="42.28" y="259.704993" style="stroke: #000000; stroke-width: 0.8"/>
      </g>
     </g>
     <g id="text_27">
      <!-- 0.2 -->
      <g transform="translate(19.376875 263.503821) scale(0.1 -0.1)">
       <use xlink:href="#DejaVuSans-13"/>
       <use xlink:href="#DejaVuSans-11" transform="translate(63.625 0)"/>
       <use xlink:href="#DejaVuSans-15" transform="translate(95.40625 0)"/>
      </g>
     </g>
    </g>
   </g>
   <g id="line2d_51">
    <path d="M 62.776364 290.169354 
L 63.212615 281.281176 
L 64.087428 241.747717 
L 64.523924 240.578075 
L 163.293702 240.578075 
L 163.732241 247.963249 
L 164.168066 275.791097 
L 164.604749 275.099128 
L 165.479052 331.697109 
L 165.916683 333.055862 
L 166.353877 355.33957 
L 181.211084 355.339556 
L 181.648172 336.239833 
L 182.08674 328.865578 
L 182.522097 314.532608 
L 182.959909 257.635677 
L 183.396703 240.578075 
L 204.373881 240.578097 
L 204.809546 251.121868 
L 205.246793 276.037924 
L 206.120657 342.40455 
L 206.557625 345.031779 
L 206.995837 355.339512 
L 208.742516 355.339538 
L 209.17996 344.428963 
L 209.618389 343.681173 
L 210.053838 341.91392 
L 210.490923 315.76865 
L 210.929312 313.407595 
L 211.364704 312.287778 
L 211.801749 286.40301 
L 212.240107 290.244856 
L 212.675882 298.195236 
L 213.112834 281.170789 
L 213.986794 316.475405 
L 214.424019 309.044628 
L 215.298225 355.019748 
L 215.73491 349.304293 
L 216.173591 355.339581 
L 224.47596 355.339577 
L 224.912318 289.875082 
L 225.350812 249.89199 
L 225.786268 240.578145 
L 235.400591 240.578109 
L 235.839052 243.656469 
L 236.275183 268.835911 
L 236.711774 264.159809 
L 237.585473 306.221143 
L 238.022765 298.518788 
L 238.896506 349.384622 
L 239.333588 355.066563 
L 239.772473 355.339575 
L 243.705078 355.339535 
L 244.140971 305.421343 
L 244.577694 240.578077 
L 309.692341 240.590561 
L 310.12916 258.344282 
L 311.003118 310.436695 
L 311.440144 315.961259 
L 311.878036 330.324355 
L 312.314276 339.173057 
L 312.751092 326.502513 
L 313.189515 324.826282 
L 313.625266 318.992902 
L 314.062032 290.675509 
L 314.500164 283.07472 
L 314.936095 278.915695 
L 315.373153 257.463817 
L 315.811755 268.575345 
L 316.247265 289.362085 
L 316.684486 295.398384 
L 317.122964 334.65232 
L 317.558384 355.339562 
L 329.794518 355.339576 
L 330.233438 275.38207 
L 330.668971 240.578076 
L 350.774769 240.5781 
L 351.211212 248.905439 
L 351.648399 293.457734 
L 352.085605 318.646756 
L 352.522312 355.339517 
L 379.620112 355.339549 
L 380.056438 240.578076 
L 445.608303 240.578075 
L 446.04531 255.633646 
L 446.48203 352.73079 
L 446.919234 355.339581 
L 460.467477 355.339581 
L 460.904209 240.578081 
L 471.829316 240.578076 
L 472.266741 315.478557 
L 472.703636 355.339581 
L 472.703636 355.339581 
" clip-path="url(#p87ff36e30e)" style="fill: none; stroke: #1f77b4; stroke-width: 1.5; stroke-linecap: square"/>
   </g>
   <g id="line2d_52">
    <path d="M 62.776364 249.101425 
L 63.212615 240.578075 
L 72.390364 240.578075 
L 73.264624 280.014926 
L 73.701361 298.095399 
L 74.138303 321.545101 
L 75.012519 354.480742 
L 75.449577 355.339581 
L 81.130504 355.339581 
L 81.567488 345.940905 
L 82.441831 282.396463 
L 82.878747 291.174857 
L 83.315607 305.970832 
L 84.627436 333.205781 
L 85.500595 343.468645 
L 85.938222 348.044419 
L 86.375041 350.379612 
L 86.811825 351.836709 
L 87.248623 352.510089 
L 87.685909 352.135356 
L 88.122842 351.068184 
L 88.997231 346.192669 
L 89.43419 343.209907 
L 92.055875 313.931762 
L 92.930128 301.509789 
L 93.366966 296.114598 
L 93.804124 288.985925 
L 95.988912 263.936465 
L 96.425956 259.278576 
L 97.29997 254.087619 
L 97.736853 252.026619 
L 98.177346 251.3109 
L 98.614414 251.367414 
L 99.051483 252.73605 
L 99.488343 254.799835 
L 99.925434 257.808979 
L 101.23639 275.284365 
L 101.673916 285.742297 
L 102.110426 291.95109 
L 102.984466 248.593799 
L 103.422233 240.578075 
L 105.169588 240.578075 
L 106.045073 260.653013 
L 106.481905 272.340778 
L 106.918968 288.738272 
L 108.230023 325.788385 
L 108.667123 333.649157 
L 109.103952 339.160942 
L 109.541053 342.217891 
L 109.978471 340.969637 
L 110.415515 336.587313 
L 111.289096 314.985644 
L 111.725947 301.577879 
L 112.163484 294.566491 
L 112.600135 298.303578 
L 113.473983 303.377848 
L 113.91118 304.218523 
L 114.348094 304.40178 
L 114.785288 303.798142 
L 115.222053 302.839661 
L 115.659195 301.556447 
L 116.533193 297.811833 
L 116.970162 296.082953 
L 117.40717 293.831176 
L 118.718133 289.204662 
L 119.592488 287.477281 
L 120.029202 286.814393 
L 120.466197 286.559807 
L 120.903869 286.488597 
L 121.340616 286.616999 
L 121.777347 287.231758 
L 122.657336 294.254812 
L 123.08838 294.725804 
L 123.525272 293.953225 
L 124.836566 285.902954 
L 125.273617 281.759241 
L 126.584267 272.727236 
L 127.458797 269.277659 
L 127.895429 267.968414 
L 128.332379 267.507434 
L 128.769315 267.480639 
L 129.206889 268.092002 
L 129.643873 269.009665 
L 130.080553 270.292303 
L 131.391654 276.597901 
L 131.828663 275.299656 
L 133.577039 258.678148 
L 134.014122 256.533998 
L 134.450829 255.366253 
L 134.888212 255.842478 
L 135.324639 257.454697 
L 136.6358 269.453787 
L 137.509791 281.081114 
L 138.821008 296.132661 
L 139.695077 302.26279 
L 140.132824 303.233924 
L 140.569073 303.022732 
L 141.006096 300.629947 
L 141.443675 294.763527 
L 142.317142 243.28838 
L 142.755226 240.578075 
L 144.066409 240.578075 
L 144.50225 243.545896 
L 146.250486 318.995841 
L 147.124238 354.577924 
L 147.561536 355.339581 
L 150.621415 355.339581 
L 151.058034 339.588243 
L 151.49474 334.592056 
L 151.932457 354.462463 
L 152.368608 355.339581 
L 154.990561 355.339581 
L 155.427561 354.867016 
L 156.301573 329.658618 
L 157.177426 296.491321 
L 158.486278 255.770547 
L 158.923583 248.896292 
L 159.360593 246.074813 
L 159.79881 249.735346 
L 160.235468 259.14253 
L 161.10856 302.415343 
L 161.982763 264.201892 
L 162.421708 255.360485 
L 162.856701 251.149798 
L 163.293702 251.612251 
L 163.732241 255.716463 
L 164.168066 262.367706 
L 165.916683 308.757564 
L 166.78988 325.374061 
L 167.226901 331.693446 
L 167.665048 333.15697 
L 168.100817 331.5676 
L 168.97528 317.139375 
L 169.412165 308.052042 
L 169.84881 296.110198 
L 170.286458 289.173447 
L 170.722854 285.49389 
L 171.597075 289.177252 
L 172.033832 290.035736 
L 172.471465 289.683117 
L 172.909001 288.468891 
L 173.345186 286.605163 
L 175.093014 274.031716 
L 176.403922 267.038497 
L 176.841027 265.987325 
L 177.278079 265.531463 
L 177.715676 265.903714 
L 178.153788 266.935451 
L 178.589255 268.610356 
L 179.900155 278.588023 
L 180.337109 284.281564 
L 180.776569 288.389526 
L 181.211084 283.415374 
L 182.08674 250.494786 
L 182.522097 240.578075 
L 186.019192 240.578075 
L 186.455642 242.061806 
L 187.330317 297.137781 
L 187.766546 321.544833 
L 188.20321 352.771352 
L 188.640195 355.339581 
L 192.5744 355.339581 
L 193.010471 340.641301 
L 193.447309 319.809019 
L 193.885852 307.999204 
L 194.321487 301.134382 
L 194.758411 296.21721 
L 195.197631 294.910507 
L 195.632402 295.274452 
L 196.069624 297.940804 
L 196.50756 301.326953 
L 196.943492 305.712451 
L 199.130136 340.449501 
L 200.00252 352.895843 
L 200.440932 355.339581 
L 201.313473 355.339581 
L 201.751662 354.675829 
L 202.188415 349.188924 
L 203.498524 315.360109 
L 203.935816 298.57044 
L 204.809546 277.267379 
L 205.246793 269.433739 
L 205.683874 268.417526 
L 206.120657 272.271687 
L 206.995837 302.164565 
L 207.431744 317.023391 
L 207.868851 326.592281 
L 208.306518 326.610165 
L 208.742516 321.264172 
L 210.053838 279.85425 
L 210.490923 261.642197 
L 211.364704 241.615806 
L 211.801749 240.578075 
L 212.675882 240.578075 
L 213.112834 241.367921 
L 213.986794 256.283777 
L 214.861715 278.380522 
L 215.298225 288.144288 
L 215.73491 300.526056 
L 217.04662 323.668429 
L 217.483143 327.350581 
L 217.920027 329.133311 
L 218.356952 328.209145 
L 218.79538 324.760836 
L 219.231066 318.656198 
L 220.106866 292.920664 
L 220.542431 288.220831 
L 221.853361 266.8586 
L 222.290145 257.324111 
L 223.164301 246.81501 
L 223.601358 243.941837 
L 224.039702 244.329776 
L 224.47596 246.901324 
L 225.350812 260.436898 
L 225.786268 268.78869 
L 226.66198 291.570635 
L 227.097952 301.783953 
L 227.534268 314.837992 
L 228.845212 339.049384 
L 229.283855 342.638399 
L 229.719369 344.13599 
L 230.156283 342.776062 
L 230.594549 339.349304 
L 231.030328 334.13438 
L 231.905229 317.485673 
L 233.21671 295.894402 
L 233.652528 313.001138 
L 234.089392 322.783964 
L 234.52814 319.25789 
L 234.963436 309.563784 
L 235.400591 293.253552 
L 235.839052 282.851743 
L 236.275183 276.707972 
L 236.711774 276.88362 
L 237.150266 282.989177 
L 237.585473 292.901651 
L 238.022765 308.873679 
L 238.461253 320.139943 
L 238.896506 328.327928 
L 239.333588 331.007784 
L 239.772473 325.046709 
L 240.208128 311.961874 
L 241.083494 264.471811 
L 241.518491 246.181341 
L 241.956007 240.578075 
L 242.394215 242.208284 
L 243.266518 294.326643 
L 243.705078 293.173717 
L 244.140971 284.400844 
L 245.016184 249.811548 
L 245.452212 240.578075 
L 247.199741 240.578075 
L 247.638286 251.103124 
L 248.07384 266.923654 
L 248.511245 289.593442 
L 249.821847 336.623149 
L 250.259809 344.083189 
L 250.695672 347.407911 
L 251.132815 345.243072 
L 251.571449 338.986434 
L 252.006765 329.266021 
L 252.88196 295.743177 
L 253.321621 292.747652 
L 253.754851 291.360778 
L 254.193793 290.801867 
L 254.628806 290.666288 
L 255.0663 291.192015 
L 255.504992 292.136504 
L 255.93982 293.538656 
L 258.562017 308.068376 
L 258.998951 309.954688 
L 259.437106 310.727168 
L 259.873027 310.898658 
L 260.309923 310.219637 
L 260.748391 309.130376 
L 261.18397 307.69636 
L 261.620928 305.570906 
L 262.494955 302.903113 
L 262.932059 291.865585 
L 264.243719 240.578075 
L 265.992674 240.578075 
L 266.428115 252.194295 
L 267.303652 338.383658 
L 267.739277 355.339581 
L 270.36104 355.339581 
L 270.798137 291.273562 
L 271.236811 247.219203 
L 271.672074 240.578075 
L 272.109252 247.030169 
L 272.983151 355.339581 
L 273.859136 355.339581 
L 274.294105 316.881048 
L 274.731143 242.461451 
L 275.169816 240.578075 
L 277.353519 240.578075 
L 277.791954 269.076378 
L 278.664898 355.339581 
L 280.849385 355.339581 
L 281.286413 344.364869 
L 281.724048 322.1895 
L 282.597302 293.387473 
L 283.036221 282.330564 
L 283.471488 268.532086 
L 283.908405 247.50277 
L 284.347095 240.578075 
L 286.969014 240.578075 
L 287.404556 257.868223 
L 288.280461 312.556401 
L 288.715704 337.563667 
L 289.152625 355.339581 
L 292.213272 355.339581 
L 292.649575 340.774685 
L 293.085635 293.580667 
L 293.5242 262.832301 
L 293.959673 241.690879 
L 294.396621 240.578075 
L 294.835413 247.322063 
L 295.270737 276.367811 
L 295.708067 337.900678 
L 296.145331 355.339581 
L 296.581754 355.339581 
L 297.018771 323.690891 
L 297.45714 268.311919 
L 297.893113 240.578075 
L 301.390355 240.578075 
L 301.82594 270.195894 
L 302.263273 337.250393 
L 302.702326 355.339581 
L 306.634342 355.339581 
L 307.507001 254.825671 
L 307.945525 249.399578 
L 308.381155 274.398729 
L 308.818043 322.210741 
L 309.256966 341.131044 
L 309.692341 353.701235 
L 310.12916 355.339581 
L 310.56785 355.339581 
L 311.003118 353.668757 
L 312.314276 309.686566 
L 312.751092 289.905011 
L 313.625266 267.00721 
L 314.062032 258.321617 
L 314.500164 255.382195 
L 314.936095 255.195082 
L 315.373153 258.467906 
L 315.811755 262.920756 
L 316.247265 268.531599 
L 317.122964 283.565653 
L 318.432926 302.164144 
L 319.306438 308.988673 
L 319.744904 309.89768 
L 320.180989 309.491985 
L 320.617351 306.70397 
L 321.055712 302.627275 
L 321.491427 296.367294 
L 321.928411 287.965778 
L 323.240042 276.820942 
L 324.113542 272.289033 
L 324.550547 270.182037 
L 324.988686 269.072408 
L 325.42461 268.35291 
L 325.861524 267.971078 
L 326.299787 268.090452 
L 326.735476 268.530238 
L 327.61096 270.643661 
L 328.046493 271.941086 
L 328.921801 275.63909 
L 329.35757 277.42817 
L 330.233438 281.819821 
L 330.668971 283.709303 
L 331.105667 286.149517 
L 332.416628 291.341041 
L 333.291234 293.430516 
L 333.727771 294.236437 
L 334.165505 294.481573 
L 334.601827 294.387042 
L 335.038728 284.515868 
L 336.350012 240.578075 
L 339.846153 240.578075 
L 341.160077 309.306308 
L 341.597022 340.985805 
L 342.033956 355.339581 
L 345.967109 355.339581 
L 346.404985 351.875236 
L 346.841131 327.508991 
L 347.278089 316.030472 
L 347.715129 312.305972 
L 349.026361 339.426243 
L 349.463264 345.941458 
L 349.900785 348.466098 
L 350.337546 349.184295 
L 350.774769 347.715397 
L 351.211212 345.112301 
L 351.648399 341.517797 
L 352.522312 330.843981 
L 352.960731 325.946299 
L 353.397122 319.700355 
L 354.707449 307.878436 
L 355.144848 305.71803 
L 355.581497 304.207284 
L 356.018745 303.115071 
L 356.455524 302.892177 
L 356.892742 303.084507 
L 357.766803 304.638496 
L 358.203912 305.567039 
L 358.640677 306.850624 
L 359.515071 308.473489 
L 359.952403 309.007488 
L 360.389461 308.881996 
L 360.825483 308.069555 
L 361.262731 307.754744 
L 361.699854 308.442854 
L 362.136899 308.666078 
L 362.573802 308.326797 
L 363.011184 307.662203 
L 363.447935 306.70565 
L 366.070157 296.716535 
L 366.507413 294.683644 
L 367.817723 290.418599 
L 369.128877 287.568643 
L 370.440243 285.947202 
L 372.625064 284.291187 
L 373.500989 283.041354 
L 373.938529 282.227722 
L 374.375222 286.580264 
L 375.24938 297.742358 
L 375.687584 302.050796 
L 376.123919 303.763061 
L 376.560418 304.268809 
L 376.997244 303.231091 
L 377.434148 301.303522 
L 377.87116 298.51575 
L 379.182787 284.595113 
L 380.056438 272.527265 
L 380.493602 267.248375 
L 380.930398 260.400317 
L 382.242275 245.770895 
L 382.678489 242.453231 
L 383.115486 240.578075 
L 385.300462 240.578075 
L 385.737316 243.546688 
L 387.050051 263.343963 
L 387.48556 263.590878 
L 388.796609 240.578075 
L 392.292803 240.578075 
L 392.729897 240.743181 
L 393.603588 252.922806 
L 394.477707 269.114812 
L 394.915241 276.207178 
L 395.352041 285.404397 
L 396.662795 304.826478 
L 397.536652 312.388936 
L 397.973703 315.138022 
L 398.411145 315.82432 
L 398.848062 315.225272 
L 399.285564 312.256901 
L 399.721814 308.259188 
L 400.158922 302.591151 
L 401.032829 254.884623 
L 401.471735 240.578075 
L 404.529184 240.578075 
L 404.966015 249.802198 
L 405.403158 264.741515 
L 406.277757 304.143434 
L 406.714013 322.081549 
L 407.151255 346.07964 
L 407.588167 355.339581 
L 412.832903 355.339581 
L 413.269382 348.92614 
L 413.706474 325.549424 
L 415.454286 321.043988 
L 417.202501 317.782134 
L 417.639594 317.010228 
L 418.951041 315.523393 
L 420.262386 314.625912 
L 421.137464 314.347743 
L 422.009456 314.251046 
L 422.88374 314.381986 
L 423.757532 314.661292 
L 425.506351 315.844392 
L 426.379677 316.550958 
L 427.254382 317.504371 
L 427.690635 317.951192 
L 428.56462 319.072183 
L 429.001696 319.582685 
L 429.876261 320.833274 
L 430.31264 321.391179 
L 431.186654 322.733386 
L 431.624406 323.322417 
L 432.497724 324.718263 
L 432.93498 325.322143 
L 433.808617 326.733647 
L 434.246386 327.3361 
L 435.119879 328.725282 
L 436.868077 331.189677 
L 437.742055 332.420276 
L 440.364926 335.36919 
L 442.112067 336.680292 
L 442.985938 337.137969 
L 444.297005 337.444165 
L 445.171161 337.389337 
L 446.04531 337.149692 
L 447.35619 336.321825 
L 448.667087 334.911365 
L 450.852102 331.022961 
L 451.289182 330.125642 
L 452.16317 327.768493 
L 452.600799 326.64187 
L 453.037699 326.052674 
L 472.703636 326.052674 
L 472.703636 326.052674 
" clip-path="url(#p87ff36e30e)" style="fill: none; stroke-dasharray: 9.6,2.4,1.5,2.4; stroke-dashoffset: 0; stroke: #ff7f0e; stroke-width: 1.5"/>
   </g>
   <g id="line2d_53">
    <path d="M 42.28 355.339581 
L 493.2 355.339581 
" clip-path="url(#p87ff36e30e)" style="fill: none; stroke-dasharray: 3.7,1.6; stroke-dashoffset: 0; stroke: #ff0000"/>
   </g>
   <g id="line2d_54">
    <path d="M 42.28 240.578075 
L 493.2 240.578075 
" clip-path="url(#p87ff36e30e)" style="fill: none; stroke-dasharray: 3.7,1.6; stroke-dashoffset: 0; stroke: #ff0000"/>
   </g>
   <g id="patch_9">
    <path d="M 42.28 361.077656 
L 42.28 234.84 
" style="fill: none; stroke: #000000; stroke-width: 0.8; stroke-linejoin: miter; stroke-linecap: square"/>
   </g>
   <g id="patch_10">
    <path d="M 493.2 361.077656 
L 493.2 234.84 
" style="fill: none; stroke: #000000; stroke-width: 0.8; stroke-linejoin: miter; stroke-linecap: square"/>
   </g>
   <g id="patch_11">
    <path d="M 42.28 361.077656 
L 493.2 361.077656 
" style="fill: none; stroke: #000000; stroke-width: 0.8; stroke-linejoin: miter; stroke-linecap: square"/>
   </g>
   <g id="patch_12">
    <path d="M 42.28 234.84 
L 493.2 234.84 
" style="fill: none; stroke: #000000; stroke-width: 0.8; stroke-linejoin: miter; stroke-linecap: square"/>
   </g>
   <g id="text_28">
    <!-- $a_x$ $\left(\mathrm{m/s^2}\right)$ -->
    <g transform="translate(240.92 228.84) scale(0.12 -0.12)">
     <defs>
      <path id="DejaVuSans-Oblique-44" d="M 3438 1997 
L 3047 0 
L 2472 0 
L 2578 531 
Q 2325 219 2001 64 
Q 1678 -91 1281 -91 
Q 834 -91 548 182 
Q 263 456 263 884 
Q 263 1497 752 1853 
Q 1241 2209 2100 2209 
L 2900 2209 
L 2931 2363 
Q 2938 2388 2941 2417 
Q 2944 2447 2944 2509 
Q 2944 2788 2717 2942 
Q 2491 3097 2081 3097 
Q 1800 3097 1504 3025 
Q 1209 2953 897 2809 
L 997 3341 
Q 1322 3463 1633 3523 
Q 1944 3584 2234 3584 
Q 2853 3584 3176 3315 
Q 3500 3047 3500 2534 
Q 3500 2431 3484 2292 
Q 3469 2153 3438 1997 
z
M 2816 1759 
L 2241 1759 
Q 1534 1759 1195 1570 
Q 856 1381 856 984 
Q 856 709 1029 553 
Q 1203 397 1509 397 
Q 1978 397 2328 733 
Q 2678 1069 2791 1631 
L 2816 1759 
z
" transform="scale(0.015625)"/>
      <path id="DejaVuSans-Oblique-5b" d="M 3841 3500 
L 2234 1784 
L 3219 0 
L 2559 0 
L 1819 1388 
L 531 0 
L -166 0 
L 1556 1844 
L 641 3500 
L 1300 3500 
L 1972 2234 
L 3144 3500 
L 3841 3500 
z
" transform="scale(0.015625)"/>
      <path id="STIXSizeOneSym-Regular-4" d="M 2445 -858 
L 2445 -1050 
Q 1728 -371 1309 630 
Q 890 1632 890 2886 
Q 890 4122 1309 5136 
Q 1728 6150 2445 6822 
L 2445 6630 
Q 1408 5363 1408 2886 
Q 1408 410 2445 -858 
z
" transform="scale(0.015625)"/>
      <path id="DejaVuSans-50" d="M 3328 2828 
Q 3544 3216 3844 3400 
Q 4144 3584 4550 3584 
Q 5097 3584 5394 3201 
Q 5691 2819 5691 2113 
L 5691 0 
L 5113 0 
L 5113 2094 
Q 5113 2597 4934 2840 
Q 4756 3084 4391 3084 
Q 3944 3084 3684 2787 
Q 3425 2491 3425 1978 
L 3425 0 
L 2847 0 
L 2847 2094 
Q 2847 2600 2669 2842 
Q 2491 3084 2119 3084 
Q 1678 3084 1418 2786 
Q 1159 2488 1159 1978 
L 1159 0 
L 581 0 
L 581 3500 
L 1159 3500 
L 1159 2956 
Q 1356 3278 1631 3431 
Q 1906 3584 2284 3584 
Q 2666 3584 2933 3390 
Q 3200 3197 3328 2828 
z
" transform="scale(0.015625)"/>
      <path id="DejaVuSans-12" d="M 1625 4666 
L 2156 4666 
L 531 -594 
L 0 -594 
L 1625 4666 
z
" transform="scale(0.015625)"/>
      <path id="STIXSizeOneSym-Regular-5" d="M 550 6630 
L 550 6822 
Q 1267 6144 1686 5142 
Q 2106 4141 2106 2886 
Q 2106 1651 1686 636 
Q 1267 -378 550 -1050 
L 550 -858 
Q 1587 410 1587 2886 
Q 1587 5363 550 6630 
z
" transform="scale(0.015625)"/>
     </defs>
     <use xlink:href="#DejaVuSans-Oblique-44" transform="translate(0 0.746875)"/>
     <use xlink:href="#DejaVuSans-Oblique-5b" transform="translate(61.279297 -14.253076) scale(0.7)"/>
     <use xlink:href="#DejaVuSans-3" transform="translate(105.439453 0.746875)"/>
     <use xlink:href="#STIXSizeOneSym-Regular-4" transform="translate(137.226562 5.1375) scale(0.833613)"/>
     <use xlink:href="#DejaVuSans-50" transform="translate(176.2388 0.746875)"/>
     <use xlink:href="#DejaVuSans-12" transform="translate(273.650909 0.746875)"/>
     <use xlink:href="#DejaVuSans-56" transform="translate(307.342316 0.746875)"/>
     <use xlink:href="#DejaVuSans-15" transform="translate(360.398956 42.046875) scale(0.7)"/>
     <use xlink:href="#STIXSizeOneSym-Regular-5" transform="translate(407.669464 5.1375) scale(0.833613)"/>
    </g>
   </g>
   <g id="legend_2">
    <g id="patch_13">
     <path d="M 424.9 314.459609 
L 486.2 314.459609 
Q 488.2 314.459609 488.2 312.459609 
L 488.2 283.458047 
Q 488.2 281.458047 486.2 281.458047 
L 424.9 281.458047 
Q 422.9 281.458047 422.9 283.458047 
L 422.9 312.459609 
Q 422.9 314.459609 424.9 314.459609 
z
" style="fill: #ffffff; opacity: 0.8; stroke: #cccccc; stroke-linejoin: miter"/>
    </g>
    <g id="line2d_55">
     <path d="M 426.9 289.556484 
L 436.9 289.556484 
L 446.9 289.556484 
" style="fill: none; stroke: #1f77b4; stroke-width: 1.5; stroke-linecap: square"/>
    </g>
    <g id="text_29">
     <!-- $a_{x,cmd}$ -->
     <g transform="translate(454.9 293.056484) scale(0.1 -0.1)">
      <defs>
       <path id="DejaVuSans-f" d="M 750 794 
L 1409 794 
L 1409 256 
L 897 -744 
L 494 -744 
L 750 256 
L 750 794 
z
" transform="scale(0.015625)"/>
      </defs>
      <use xlink:href="#DejaVuSans-Oblique-44"/>
      <use xlink:href="#DejaVuSans-Oblique-5b" transform="translate(61.279297 -14.999951) scale(0.7)"/>
      <use xlink:href="#DejaVuSans-f" transform="translate(102.705078 -14.999951) scale(0.7)"/>
      <use xlink:href="#DejaVuSans-Oblique-46" transform="translate(138.59375 -14.999951) scale(0.7)"/>
      <use xlink:href="#DejaVuSans-Oblique-50" transform="translate(177.080078 -14.999951) scale(0.7)"/>
      <use xlink:href="#DejaVuSans-Oblique-47" transform="translate(245.268555 -14.999951) scale(0.7)"/>
     </g>
    </g>
    <g id="line2d_56">
     <path d="M 426.9 304.557266 
L 436.9 304.557266 
L 446.9 304.557266 
" style="fill: none; stroke-dasharray: 9.6,2.4,1.5,2.4; stroke-dashoffset: 0; stroke: #ff7f0e; stroke-width: 1.5"/>
    </g>
    <g id="text_30">
     <!-- $a_{x,ref}$ -->
     <g transform="translate(454.9 308.057266) scale(0.1 -0.1)">
      <use xlink:href="#DejaVuSans-Oblique-44"/>
      <use xlink:href="#DejaVuSans-Oblique-5b" transform="translate(61.279297 -14.999951) scale(0.7)"/>
      <use xlink:href="#DejaVuSans-f" transform="translate(102.705078 -14.999951) scale(0.7)"/>
      <use xlink:href="#DejaVuSans-Oblique-55" transform="translate(138.59375 -14.999951) scale(0.7)"/>
      <use xlink:href="#DejaVuSans-Oblique-48" transform="translate(167.373047 -14.999951) scale(0.7)"/>
      <use xlink:href="#DejaVuSans-Oblique-49" transform="translate(210.439453 -14.999951) scale(0.7)"/>
     </g>
    </g>
   </g>
  </g>
  <g id="text_31">
   <!-- QCar2 Inputs -->
   <g transform="translate(212.5575 17.181188) scale(0.12 -0.12)">
    <defs>
     <path id="DejaVuSans-34" d="M 2522 4238 
Q 1834 4238 1429 3725 
Q 1025 3213 1025 2328 
Q 1025 1447 1429 934 
Q 1834 422 2522 422 
Q 3209 422 3611 934 
Q 4013 1447 4013 2328 
Q 4013 3213 3611 3725 
Q 3209 4238 2522 4238 
z
M 3406 84 
L 4238 -825 
L 3475 -825 
L 2784 -78 
Q 2681 -84 2626 -87 
Q 2572 -91 2522 -91 
Q 1538 -91 948 567 
Q 359 1225 359 2328 
Q 359 3434 948 4092 
Q 1538 4750 2522 4750 
Q 3503 4750 4090 4092 
Q 4678 3434 4678 2328 
Q 4678 1516 4351 937 
Q 4025 359 3406 84 
z
" transform="scale(0.015625)"/>
     <path id="DejaVuSans-26" d="M 4122 4306 
L 4122 3641 
Q 3803 3938 3442 4084 
Q 3081 4231 2675 4231 
Q 1875 4231 1450 3742 
Q 1025 3253 1025 2328 
Q 1025 1406 1450 917 
Q 1875 428 2675 428 
Q 3081 428 3442 575 
Q 3803 722 4122 1019 
L 4122 359 
Q 3791 134 3420 21 
Q 3050 -91 2638 -91 
Q 1578 -91 968 557 
Q 359 1206 359 2328 
Q 359 3453 968 4101 
Q 1578 4750 2638 4750 
Q 3056 4750 3426 4639 
Q 3797 4528 4122 4306 
z
" transform="scale(0.015625)"/>
     <path id="DejaVuSans-2c" d="M 628 4666 
L 1259 4666 
L 1259 0 
L 628 0 
L 628 4666 
z
" transform="scale(0.015625)"/>
     <path id="DejaVuSans-51" d="M 3513 2113 
L 3513 0 
L 2938 0 
L 2938 2094 
Q 2938 2591 2744 2837 
Q 2550 3084 2163 3084 
Q 1697 3084 1428 2787 
Q 1159 2491 1159 1978 
L 1159 0 
L 581 0 
L 581 3500 
L 1159 3500 
L 1159 2956 
Q 1366 3272 1645 3428 
Q 1925 3584 2291 3584 
Q 2894 3584 3203 3211 
Q 3513 2838 3513 2113 
z
" transform="scale(0.015625)"/>
     <path id="DejaVuSans-53" d="M 1159 525 
L 1159 -1331 
L 581 -1331 
L 581 3500 
L 1159 3500 
L 1159 2969 
Q 1341 3281 1617 3432 
Q 1894 3584 2278 3584 
Q 2916 3584 3314 3078 
Q 3713 2572 3713 1747 
Q 3713 922 3314 415 
Q 2916 -91 2278 -91 
Q 1894 -91 1617 61 
Q 1341 213 1159 525 
z
M 3116 1747 
Q 3116 2381 2855 2742 
Q 2594 3103 2138 3103 
Q 1681 3103 1420 2742 
Q 1159 2381 1159 1747 
Q 1159 1113 1420 752 
Q 1681 391 2138 391 
Q 2594 391 2855 752 
Q 3116 1113 3116 1747 
z
" transform="scale(0.015625)"/>
     <path id="DejaVuSans-58" d="M 544 1381 
L 544 3500 
L 1119 3500 
L 1119 1403 
Q 1119 906 1312 657 
Q 1506 409 1894 409 
Q 2359 409 2629 706 
Q 2900 1003 2900 1516 
L 2900 3500 
L 3475 3500 
L 3475 0 
L 2900 0 
L 2900 538 
Q 2691 219 2414 64 
Q 2138 -91 1772 -91 
Q 1169 -91 856 284 
Q 544 659 544 1381 
z
M 1991 3584 
L 1991 3584 
z
" transform="scale(0.015625)"/>
    </defs>
    <use xlink:href="#DejaVuSans-34"/>
    <use xlink:href="#DejaVuSans-26" transform="translate(78.71875 0)"/>
    <use xlink:href="#DejaVuSans-44" transform="translate(148.546875 0)"/>
    <use xlink:href="#DejaVuSans-55" transform="translate(209.828125 0)"/>
    <use xlink:href="#DejaVuSans-15" transform="translate(250.9375 0)"/>
    <use xlink:href="#DejaVuSans-3" transform="translate(314.5625 0)"/>
    <use xlink:href="#DejaVuSans-2c" transform="translate(346.34375 0)"/>
    <use xlink:href="#DejaVuSans-51" transform="translate(375.84375 0)"/>
    <use xlink:href="#DejaVuSans-53" transform="translate(439.21875 0)"/>
    <use xlink:href="#DejaVuSans-58" transform="translate(502.703125 0)"/>
    <use xlink:href="#DejaVuSans-57" transform="translate(566.078125 0)"/>
    <use xlink:href="#DejaVuSans-56" transform="translate(605.28125 0)"/>
   </g>
  </g>
 </g>
 <defs>
  <clipPath id="p9eea64ae1f">
   <rect x="42.28" y="48.96" width="450.92" height="126.237656"/>
  </clipPath>
  <clipPath id="p87ff36e30e">
   <rect x="42.28" y="234.84" width="450.92" height="126.237656"/>
  </clipPath>
 </defs>
</svg>
