<?xml version="1.0" encoding="utf-8" standalone="no"?>
<!DOCTYPE svg PUBLIC "-//W3C//DTD SVG 1.1//EN"
  "http://www.w3.org/Graphics/SVG/1.1/DTD/svg11.dtd">
<svg xmlns:xlink="http://www.w3.org/1999/xlink" width="504pt" height="403.2pt" viewBox="0 0 504 403.2" xmlns="http://www.w3.org/2000/svg" version="1.1">
 <metadata>
  <rdf:RDF xmlns:dc="http://purl.org/dc/elements/1.1/" xmlns:cc="http://creativecommons.org/ns#" xmlns:rdf="http://www.w3.org/1999/02/22-rdf-syntax-ns#">
   <cc:Work>
    <dc:type rdf:resource="http://purl.org/dc/dcmitype/StillImage"/>
    <dc:date>2026-07-09T12:35:17.950925</dc:date>
    <dc:format>image/svg+xml</dc:format>
    <dc:creator>
     <cc:Agent>
      <dc:title>Matplotlib v3.11.0, https://matplotlib.org/</dc:title>
     </cc:Agent>
    </dc:creator>
   </cc:Work>
  </rdf:RDF>
 </metadata>
 <defs>
  <style type="text/css">*{stroke-linejoin: round; stroke-linecap: butt}</style>
 </defs>
 <g id="figure_1">
  <g id="patch_1">
   <path d="M 0 403.2 
L 504 403.2 
L 504 0 
L 0 0 
z
" style="fill: #ffffff"/>
  </g>
  <g id="axes_1">
   <g id="patch_2">
    <path d="M 42.28 175.197656 
L 493.2 175.197656 
L 493.2 48.96 
L 42.28 48.96 
z
" style="fill: #ffffff"/>
   </g>
   <g id="matplotlib.axis_1">
    <g id="xtick_1">
     <g id="line2d_1">
      <path d="M 62.502098 175.197656 
L 62.502098 48.96 
" clip-path="url(#p97f8042600)" style="fill: none; stroke: #b0b0b0; stroke-width: 0.8; stroke-linecap: square"/>
     </g>
     <g id="line2d_2">
      <defs>
       <path id="md8fdad0682" d="M 0 0 
L 0 3.5 
" style="stroke: #000000; stroke-width: 0.8"/>
      </defs>
      <g>
       <use xlink:href="#md8fdad0682" x="62.502098" y="175.197656" style="stroke: #000000; stroke-width: 0.8"/>
      </g>
     </g>
     <g id="text_1">
      <!-- 0 -->
      <g transform="translate(59.320848 189.795312) scale(0.1 -0.1)">
       <defs>
        <path id="DejaVuSans-13" d="M 2034 4250 
Q 1547 4250 1301 3770 
Q 1056 3291 1056 2328 
Q 1056 1369 1301 889 
Q 1547 409 2034 409 
Q 2525 409 2770 889 
Q 3016 1369 3016 2328 
Q 3016 3291 2770 3770 
Q 2525 4250 2034 4250 
z
M 2034 4750 
Q 2819 4750 3233 4129 
Q 3647 3509 3647 2328 
Q 3647 1150 3233 529 
Q 2819 -91 2034 -91 
Q 1250 -91 836 529 
Q 422 1150 422 2328 
Q 422 3509 836 4129 
Q 1250 4750 2034 4750 
z
" transform="scale(0.015625)"/>
       </defs>
       <use xlink:href="#DejaVuSans-13"/>
      </g>
     </g>
    </g>
    <g id="xtick_2">
     <g id="line2d_3">
      <path d="M 130.35934 175.197656 
L 130.35934 48.96 
" clip-path="url(#p97f8042600)" style="fill: none; stroke: #b0b0b0; stroke-width: 0.8; stroke-linecap: square"/>
     </g>
     <g id="line2d_4">
      <g>
       <use xlink:href="#md8fdad0682" x="130.35934" y="175.197656" style="stroke: #000000; stroke-width: 0.8"/>
      </g>
     </g>
     <g id="text_2">
      <!-- 10 -->
      <g transform="translate(123.99684 189.795312) scale(0.1 -0.1)">
       <defs>
        <path id="DejaVuSans-14" d="M 794 531 
L 1825 531 
L 1825 4091 
L 703 3866 
L 703 4441 
L 1819 4666 
L 2450 4666 
L 2450 531 
L 3481 531 
L 3481 0 
L 794 0 
L 794 531 
z
" transform="scale(0.015625)"/>
       </defs>
       <use xlink:href="#DejaVuSans-14"/>
       <use xlink:href="#DejaVuSans-13" transform="translate(63.625 0)"/>
      </g>
     </g>
    </g>
    <g id="xtick_3">
     <g id="line2d_5">
      <path d="M 198.216583 175.197656 
L 198.216583 48.96 
" clip-path="url(#p97f8042600)" style="fill: none; stroke: #b0b0b0; stroke-width: 0.8; stroke-linecap: square"/>
     </g>
     <g id="line2d_6">
      <g>
       <use xlink:href="#md8fdad0682" x="198.216583" y="175.197656" style="stroke: #000000; stroke-width: 0.8"/>
      </g>
     </g>
     <g id="text_3">
      <!-- 20 -->
      <g transform="translate(191.854083 189.795312) scale(0.1 -0.1)">
       <defs>
        <path id="DejaVuSans-15" d="M 1228 531 
L 3431 531 
L 3431 0 
L 469 0 
L 469 531 
Q 828 903 1448 1529 
Q 2069 2156 2228 2338 
Q 2531 2678 2651 2914 
Q 2772 3150 2772 3378 
Q 2772 3750 2511 3984 
Q 2250 4219 1831 4219 
Q 1534 4219 1204 4116 
Q 875 4013 500 3803 
L 500 4441 
Q 881 4594 1212 4672 
Q 1544 4750 1819 4750 
Q 2544 4750 2975 4387 
Q 3406 4025 3406 3419 
Q 3406 3131 3298 2873 
Q 3191 2616 2906 2266 
Q 2828 2175 2409 1742 
Q 1991 1309 1228 531 
z
" transform="scale(0.015625)"/>
       </defs>
       <use xlink:href="#DejaVuSans-15"/>
       <use xlink:href="#DejaVuSans-13" transform="translate(63.625 0)"/>
      </g>
     </g>
    </g>
    <g id="xtick_4">
     <g id="line2d_7">
      <path d="M 266.073825 175.197656 
L 266.073825 48.96 
" clip-path="url(#p97f8042600)" style="fill: none; stroke: #b0b0b0; stroke-width: 0.8; stroke-linecap: square"/>
     </g>
     <g id="line2d_8">
      <g>
       <use xlink:href="#md8fdad0682" x="266.073825" y="175.197656" style="stroke: #000000; stroke-width: 0.8"/>
      </g>
     </g>
     <g id="text_4">
      <!-- 30 -->
      <g transform="translate(259.711325 189.795312) scale(0.1 -0.1)">
       <defs>
        <path id="DejaVuSans-16" d="M 2597 2516 
Q 3050 2419 3304 2112 
Q 3559 1806 3559 1356 
Q 3559 666 3084 287 
Q 2609 -91 1734 -91 
Q 1441 -91 1130 -33 
Q 819 25 488 141 
L 488 750 
Q 750 597 1062 519 
Q 1375 441 1716 441 
Q 2309 441 2620 675 
Q 2931 909 2931 1356 
Q 2931 1769 2642 2001 
Q 2353 2234 1838 2234 
L 1294 2234 
L 1294 2753 
L 1863 2753 
Q 2328 2753 2575 2939 
Q 2822 3125 2822 3475 
Q 2822 3834 2567 4026 
Q 2313 4219 1838 4219 
Q 1578 4219 1281 4162 
Q 984 4106 628 3988 
L 628 4550 
Q 988 4650 1302 4700 
Q 1616 4750 1894 4750 
Q 2613 4750 3031 4423 
Q 3450 4097 3450 3541 
Q 3450 3153 3228 2886 
Q 3006 2619 2597 2516 
z
" transform="scale(0.015625)"/>
       </defs>
       <use xlink:href="#DejaVuSans-16"/>
       <use xlink:href="#DejaVuSans-13" transform="translate(63.625 0)"/>
      </g>
     </g>
    </g>
    <g id="xtick_5">
     <g id="line2d_9">
      <path d="M 333.931068 175.197656 
L 333.931068 48.96 
" clip-path="url(#p97f8042600)" style="fill: none; stroke: #b0b0b0; stroke-width: 0.8; stroke-linecap: square"/>
     </g>
     <g id="line2d_10">
      <g>
       <use xlink:href="#md8fdad0682" x="333.931068" y="175.197656" style="stroke: #000000; stroke-width: 0.8"/>
      </g>
     </g>
     <g id="text_5">
      <!-- 40 -->
      <g transform="translate(327.568568 189.795312) scale(0.1 -0.1)">
       <defs>
        <path id="DejaVuSans-17" d="M 2419 4116 
L 825 1625 
L 2419 1625 
L 2419 4116 
z
M 2253 4666 
L 3047 4666 
L 3047 1625 
L 3713 1625 
L 3713 1100 
L 3047 1100 
L 3047 0 
L 2419 0 
L 2419 1100 
L 313 1100 
L 313 1709 
L 2253 4666 
z
" transform="scale(0.015625)"/>
       </defs>
       <use xlink:href="#DejaVuSans-17"/>
       <use xlink:href="#DejaVuSans-13" transform="translate(63.625 0)"/>
      </g>
     </g>
    </g>
    <g id="xtick_6">
     <g id="line2d_11">
      <path d="M 401.78831 175.197656 
L 401.78831 48.96 
" clip-path="url(#p97f8042600)" style="fill: none; stroke: #b0b0b0; stroke-width: 0.8; stroke-linecap: square"/>
     </g>
     <g id="line2d_12">
      <g>
       <use xlink:href="#md8fdad0682" x="401.78831" y="175.197656" style="stroke: #000000; stroke-width: 0.8"/>
      </g>
     </g>
     <g id="text_6">
      <!-- 50 -->
      <g transform="translate(395.42581 189.795312) scale(0.1 -0.1)">
       <defs>
        <path id="DejaVuSans-18" d="M 691 4666 
L 3169 4666 
L 3169 4134 
L 1269 4134 
L 1269 2991 
Q 1406 3038 1543 3061 
Q 1681 3084 1819 3084 
Q 2600 3084 3056 2656 
Q 3513 2228 3513 1497 
Q 3513 744 3044 326 
Q 2575 -91 1722 -91 
Q 1428 -91 1123 -41 
Q 819 9 494 109 
L 494 744 
Q 775 591 1075 516 
Q 1375 441 1709 441 
Q 2250 441 2565 725 
Q 2881 1009 2881 1497 
Q 2881 1984 2565 2268 
Q 2250 2553 1709 2553 
Q 1456 2553 1204 2497 
Q 953 2441 691 2322 
L 691 4666 
z
" transform="scale(0.015625)"/>
       </defs>
       <use xlink:href="#DejaVuSans-18"/>
       <use xlink:href="#DejaVuSans-13" transform="translate(63.625 0)"/>
      </g>
     </g>
    </g>
    <g id="xtick_7">
     <g id="line2d_13">
      <path d="M 469.645553 175.197656 
L 469.645553 48.96 
" clip-path="url(#p97f8042600)" style="fill: none; stroke: #b0b0b0; stroke-width: 0.8; stroke-linecap: square"/>
     </g>
     <g id="line2d_14">
      <g>
       <use xlink:href="#md8fdad0682" x="469.645553" y="175.197656" style="stroke: #000000; stroke-width: 0.8"/>
      </g>
     </g>
     <g id="text_7">
      <!-- 60 -->
      <g transform="translate(463.283053 189.795312) scale(0.1 -0.1)">
       <defs>
        <path id="DejaVuSans-19" d="M 2113 2584 
Q 1688 2584 1439 2293 
Q 1191 2003 1191 1497 
Q 1191 994 1439 701 
Q 1688 409 2113 409 
Q 2538 409 2786 701 
Q 3034 994 3034 1497 
Q 3034 2003 2786 2293 
Q 2538 2584 2113 2584 
z
M 3366 4563 
L 3366 3988 
Q 3128 4100 2886 4159 
Q 2644 4219 2406 4219 
Q 1781 4219 1451 3797 
Q 1122 3375 1075 2522 
Q 1259 2794 1537 2939 
Q 1816 3084 2150 3084 
Q 2853 3084 3261 2657 
Q 3669 2231 3669 1497 
Q 3669 778 3244 343 
Q 2819 -91 2113 -91 
Q 1303 -91 875 529 
Q 447 1150 447 2328 
Q 447 3434 972 4092 
Q 1497 4750 2381 4750 
Q 2619 4750 2861 4703 
Q 3103 4656 3366 4563 
z
" transform="scale(0.015625)"/>
       </defs>
       <use xlink:href="#DejaVuSans-19"/>
       <use xlink:href="#DejaVuSans-13" transform="translate(63.625 0)"/>
      </g>
     </g>
    </g>
    <g id="text_8">
     <!-- t (s) -->
     <g transform="translate(257.684531 203.795312) scale(0.1 -0.1)">
      <defs>
       <path id="DejaVuSans-57" d="M 1172 4494 
L 1172 3500 
L 2356 3500 
L 2356 3053 
L 1172 3053 
L 1172 1153 
Q 1172 725 1289 603 
Q 1406 481 1766 481 
L 2356 481 
L 2356 0 
L 1766 0 
Q 1100 0 847 248 
Q 594 497 594 1153 
L 594 3053 
L 172 3053 
L 172 3500 
L 594 3500 
L 594 4494 
L 1172 4494 
z
" transform="scale(0.015625)"/>
       <path id="DejaVuSans-3" transform="scale(0.015625)"/>
       <path id="DejaVuSans-b" d="M 1984 4856 
Q 1566 4138 1362 3434 
Q 1159 2731 1159 2009 
Q 1159 1288 1364 580 
Q 1569 -128 1984 -844 
L 1484 -844 
Q 1016 -109 783 600 
Q 550 1309 550 2009 
Q 550 2706 781 3412 
Q 1013 4119 1484 4856 
L 1984 4856 
z
" transform="scale(0.015625)"/>
       <path id="DejaVuSans-56" d="M 2834 3397 
L 2834 2853 
Q 2591 2978 2328 3040 
Q 2066 3103 1784 3103 
Q 1356 3103 1142 2972 
Q 928 2841 928 2578 
Q 928 2378 1081 2264 
Q 1234 2150 1697 2047 
L 1894 2003 
Q 2506 1872 2764 1633 
Q 3022 1394 3022 966 
Q 3022 478 2636 193 
Q 2250 -91 1575 -91 
Q 1294 -91 989 -36 
Q 684 19 347 128 
L 347 722 
Q 666 556 975 473 
Q 1284 391 1588 391 
Q 1994 391 2212 530 
Q 2431 669 2431 922 
Q 2431 1156 2273 1281 
Q 2116 1406 1581 1522 
L 1381 1569 
Q 847 1681 609 1914 
Q 372 2147 372 2553 
Q 372 3047 722 3315 
Q 1072 3584 1716 3584 
Q 2034 3584 2315 3537 
Q 2597 3491 2834 3397 
z
" transform="scale(0.015625)"/>
       <path id="DejaVuSans-c" d="M 513 4856 
L 1013 4856 
Q 1481 4119 1714 3412 
Q 1947 2706 1947 2009 
Q 1947 1309 1714 600 
Q 1481 -109 1013 -844 
L 513 -844 
Q 928 -128 1133 580 
Q 1338 1288 1338 2009 
Q 1338 2731 1133 3434 
Q 928 4138 513 4856 
z
" transform="scale(0.015625)"/>
      </defs>
      <use xlink:href="#DejaVuSans-57"/>
      <use xlink:href="#DejaVuSans-3" transform="translate(39.203125 0)"/>
      <use xlink:href="#DejaVuSans-b" transform="translate(70.984375 0)"/>
      <use xlink:href="#DejaVuSans-56" transform="translate(110 0)"/>
      <use xlink:href="#DejaVuSans-c" transform="translate(162.09375 0)"/>
     </g>
    </g>
   </g>
   <g id="matplotlib.axis_2">
    <g id="ytick_1">
     <g id="line2d_15">
      <path d="M 42.28 163.692193 
L 493.2 163.692193 
" clip-path="url(#p97f8042600)" style="fill: none; stroke: #b0b0b0; stroke-width: 0.8; stroke-linecap: square"/>
     </g>
     <g id="line2d_16">
      <defs>
       <path id="mb01a619e0e" d="M 0 0 
L -3.5 0 
" style="stroke: #000000; stroke-width: 0.8"/>
      </defs>
      <g>
       <use xlink:href="#mb01a619e0e" x="42.28" y="163.692193" style="stroke: #000000; stroke-width: 0.8"/>
      </g>
     </g>
     <g id="text_9">
      <!-- −0.50 -->
      <g transform="translate(4.634688 167.491021) scale(0.1 -0.1)">
       <defs>
        <path id="DejaVuSans-c9c" d="M 678 2272 
L 4684 2272 
L 4684 1741 
L 678 1741 
L 678 2272 
z
" transform="scale(0.015625)"/>
        <path id="DejaVuSans-11" d="M 684 794 
L 1344 794 
L 1344 0 
L 684 0 
L 684 794 
z
" transform="scale(0.015625)"/>
       </defs>
       <use xlink:href="#DejaVuSans-c9c"/>
       <use xlink:href="#DejaVuSans-13" transform="translate(83.796875 0)"/>
       <use xlink:href="#DejaVuSans-11" transform="translate(147.421875 0)"/>
       <use xlink:href="#DejaVuSans-18" transform="translate(179.203125 0)"/>
       <use xlink:href="#DejaVuSans-13" transform="translate(242.828125 0)"/>
      </g>
     </g>
    </g>
    <g id="ytick_2">
     <g id="line2d_17">
      <path d="M 42.28 138.222455 
L 493.2 138.222455 
" clip-path="url(#p97f8042600)" style="fill: none; stroke: #b0b0b0; stroke-width: 0.8; stroke-linecap: square"/>
     </g>
     <g id="line2d_18">
      <g>
       <use xlink:href="#mb01a619e0e" x="42.28" y="138.222455" style="stroke: #000000; stroke-width: 0.8"/>
      </g>
     </g>
     <g id="text_10">
      <!-- −0.25 -->
      <g transform="translate(4.634688 142.021283) scale(0.1 -0.1)">
       <use xlink:href="#DejaVuSans-c9c"/>
       <use xlink:href="#DejaVuSans-13" transform="translate(83.796875 0)"/>
       <use xlink:href="#DejaVuSans-11" transform="translate(147.421875 0)"/>
       <use xlink:href="#DejaVuSans-15" transform="translate(179.203125 0)"/>
       <use xlink:href="#DejaVuSans-18" transform="translate(242.828125 0)"/>
      </g>
     </g>
    </g>
    <g id="ytick_3">
     <g id="line2d_19">
      <path d="M 42.28 112.752717 
L 493.2 112.752717 
" clip-path="url(#p97f8042600)" style="fill: none; stroke: #b0b0b0; stroke-width: 0.8; stroke-linecap: square"/>
     </g>
     <g id="line2d_20">
      <g>
       <use xlink:href="#mb01a619e0e" x="42.28" y="112.752717" style="stroke: #000000; stroke-width: 0.8"/>
      </g>
     </g>
     <g id="text_11">
      <!-- 0.00 -->
      <g transform="translate(13.014375 116.551546) scale(0.1 -0.1)">
       <use xlink:href="#DejaVuSans-13"/>
       <use xlink:href="#DejaVuSans-11" transform="translate(63.625 0)"/>
       <use xlink:href="#DejaVuSans-13" transform="translate(95.40625 0)"/>
       <use xlink:href="#DejaVuSans-13" transform="translate(159.03125 0)"/>
      </g>
     </g>
    </g>
    <g id="ytick_4">
     <g id="line2d_21">
      <path d="M 42.28 87.28298 
L 493.2 87.28298 
" clip-path="url(#p97f8042600)" style="fill: none; stroke: #b0b0b0; stroke-width: 0.8; stroke-linecap: square"/>
     </g>
     <g id="line2d_22">
      <g>
       <use xlink:href="#mb01a619e0e" x="42.28" y="87.28298" style="stroke: #000000; stroke-width: 0.8"/>
      </g>
     </g>
     <g id="text_12">
      <!-- 0.25 -->
      <g transform="translate(13.014375 91.081808) scale(0.1 -0.1)">
       <use xlink:href="#DejaVuSans-13"/>
       <use xlink:href="#DejaVuSans-11" transform="translate(63.625 0)"/>
       <use xlink:href="#DejaVuSans-15" transform="translate(95.40625 0)"/>
       <use xlink:href="#DejaVuSans-18" transform="translate(159.03125 0)"/>
      </g>
     </g>
    </g>
    <g id="ytick_5">
     <g id="line2d_23">
      <path d="M 42.28 61.813242 
L 493.2 61.813242 
" clip-path="url(#p97f8042600)" style="fill: none; stroke: #b0b0b0; stroke-width: 0.8; stroke-linecap: square"/>
     </g>
     <g id="line2d_24">
      <g>
       <use xlink:href="#mb01a619e0e" x="42.28" y="61.813242" style="stroke: #000000; stroke-width: 0.8"/>
      </g>
     </g>
     <g id="text_13">
      <!-- 0.50 -->
      <g transform="translate(13.014375 65.61207) scale(0.1 -0.1)">
       <use xlink:href="#DejaVuSans-13"/>
       <use xlink:href="#DejaVuSans-11" transform="translate(63.625 0)"/>
       <use xlink:href="#DejaVuSans-18" transform="translate(95.40625 0)"/>
       <use xlink:href="#DejaVuSans-13" transform="translate(159.03125 0)"/>
      </g>
     </g>
    </g>
   </g>
   <g id="line2d_25">
    <path d="M 62.776364 112.752745 
L 63.250877 112.752717 
L 63.728212 86.207525 
L 64.201089 67.351126 
L 64.679005 169.459581 
L 65.152882 123.907246 
L 65.628157 60.317583 
L 66.57867 166.313399 
L 67.527366 59.391658 
L 68.003469 166.009275 
L 68.476297 161.761812 
L 68.951345 59.250245 
L 69.428687 59.226619 
L 69.902863 165.885616 
L 70.376679 165.864848 
L 70.855189 59.148675 
L 71.330264 59.125706 
L 71.802438 165.779345 
L 72.278678 84.17894 
L 72.753877 59.018282 
L 73.227547 165.666881 
L 73.700872 165.605446 
L 74.177311 58.863048 
L 74.653678 58.775527 
L 75.126732 165.384172 
L 75.605278 165.256544 
L 76.076911 58.452662 
L 76.554466 58.263488 
L 77.028753 164.778032 
L 77.503228 164.496127 
L 77.978069 133.801672 
L 78.454218 57.138511 
L 78.926652 57.719678 
L 79.402403 162.890625 
L 79.878828 162.417509 
L 80.352812 65.272318 
L 80.828864 55.198131 
L 81.305097 160.915092 
L 81.77745 126.073783 
L 82.253231 54.698075 
L 82.728855 78.471548 
L 83.202483 163.80862 
L 83.678571 162.959388 
L 84.155637 58.595215 
L 84.628851 59.063088 
L 85.101558 164.410261 
L 85.576221 166.607744 
L 86.052778 65.179776 
L 86.528953 103.349192 
L 87.004159 158.245168 
L 87.476892 132.366362 
L 87.954684 80.062582 
L 88.428352 91.905782 
L 88.903761 137.275757 
L 89.377402 137.951863 
L 89.852358 103.527561 
L 90.328185 92.397609 
L 90.804817 111.624393 
L 91.278938 124.021306 
L 91.752292 115.502299 
L 92.227474 102.958985 
L 92.703333 100.191903 
L 93.179186 103.977459 
L 93.655123 105.718385 
L 95.078316 99.308382 
L 95.554143 99.790175 
L 96.028125 99.191989 
L 96.50162 100.962198 
L 96.980484 102.136775 
L 97.453025 104.344038 
L 97.926521 105.451544 
L 98.404753 107.781804 
L 98.878644 108.903598 
L 99.351951 111.1412 
L 99.830141 112.088082 
L 100.303704 113.969884 
L 100.778656 113.181029 
L 101.253416 114.630499 
L 101.727735 115.190497 
L 102.202843 116.17559 
L 103.154069 115.757434 
L 103.629861 114.87252 
L 104.103202 114.918348 
L 104.577956 114.169832 
L 105.054924 113.665585 
L 105.527474 111.165112 
L 106.003089 110.593712 
L 106.480449 110.40857 
L 107.42941 113.042525 
L 107.904996 116.234306 
L 108.376276 116.871788 
L 108.852628 117.85626 
L 109.32881 114.268393 
L 109.803187 112.285296 
L 110.278095 101.204391 
L 110.751416 102.219765 
L 111.22881 102.815401 
L 111.701144 104.667078 
L 112.176527 101.783604 
L 112.655388 102.476752 
L 113.127037 101.670316 
L 113.602854 108.071745 
L 114.080671 106.207853 
L 114.553587 107.206406 
L 115.029289 102.556431 
L 115.504278 105.34128 
L 115.97659 106.988653 
L 116.453274 110.715306 
L 116.927881 111.51256 
L 117.402679 114.160244 
L 117.879643 113.83667 
L 118.352868 115.444545 
L 118.830186 114.158962 
L 119.302486 114.768115 
L 119.777097 107.020291 
L 120.252564 107.520548 
L 120.727771 107.528653 
L 121.202498 109.767351 
L 121.678311 108.626994 
L 122.1547 109.627454 
L 122.627029 107.915772 
L 123.102144 108.834396 
L 123.577775 107.326148 
L 124.05225 107.755923 
L 124.529057 101.190063 
L 125.004504 102.99423 
L 125.480866 104.292414 
L 125.955566 107.772755 
L 126.427461 108.068257 
L 126.904792 110.346608 
L 127.379252 109.383692 
L 127.853293 110.178394 
L 128.326896 108.324307 
L 128.802696 108.623515 
L 129.278654 104.140039 
L 130.227353 108.388635 
L 130.702384 111.736638 
L 131.178235 112.436471 
L 131.654482 113.946181 
L 132.128938 113.319832 
L 132.60538 113.951009 
L 133.077038 112.904739 
L 133.55428 112.947966 
L 134.028431 108.854009 
L 134.50166 107.693305 
L 134.978788 107.478136 
L 135.454126 109.035167 
L 135.930363 108.853734 
L 136.403501 109.660656 
L 136.879474 108.353686 
L 137.354759 108.468841 
L 137.82919 107.644003 
L 138.301175 108.433835 
L 138.777678 107.748116 
L 139.726936 110.698011 
L 140.203087 112.320572 
L 141.152171 113.881013 
L 142.102269 114.502278 
L 142.578935 114.43351 
L 143.053653 114.097106 
L 143.526664 113.085247 
L 144.004496 111.665177 
L 144.478386 111.57378 
L 144.954073 112.393056 
L 145.429657 112.633797 
L 145.902772 113.031161 
L 146.377184 112.978816 
L 146.855348 113.20234 
L 147.326404 113.047024 
L 147.804588 113.227435 
L 148.276827 112.209516 
L 148.751938 112.58683 
L 149.227961 112.723481 
L 149.703034 113.053469 
L 150.178178 112.429727 
L 150.653223 112.0774 
L 151.130352 111.028066 
L 151.604531 110.412067 
L 152.07704 109.225196 
L 152.554588 108.470241 
L 153.028279 106.133816 
L 153.504038 106.543092 
L 153.976916 107.498344 
L 154.452198 110.508092 
L 155.404508 114.892922 
L 156.353343 116.839025 
L 156.828724 116.920188 
L 157.304946 116.770601 
L 158.254349 113.360882 
L 159.680812 107.721788 
L 160.154338 106.976977 
L 160.629734 106.726634 
L 161.102806 108.58526 
L 161.579747 109.837906 
L 162.053497 113.462853 
L 162.529498 110.943417 
L 163.002643 112.646961 
L 163.477679 111.91679 
L 163.955231 110.963601 
L 164.429912 107.634599 
L 165.377419 104.970838 
L 165.853774 105.457532 
L 166.326707 106.342464 
L 166.80469 109.774913 
L 167.278214 109.627657 
L 167.753091 113.689818 
L 168.228454 114.606302 
L 168.702289 116.421947 
L 169.176335 113.473475 
L 169.652395 112.889885 
L 170.126923 108.665331 
L 170.60612 107.748857 
L 171.077157 102.99188 
L 171.5522 101.677654 
L 172.028799 90.429597 
L 172.980304 95.320044 
L 173.453647 102.966349 
L 173.927008 106.831598 
L 174.403204 116.913821 
L 174.878893 119.754051 
L 175.35151 121.392288 
L 175.827372 117.607508 
L 176.304358 116.413965 
L 176.778994 100.903479 
L 177.253526 100.716497 
L 177.73043 100.992937 
L 178.203265 105.204882 
L 178.676824 104.079655 
L 179.152915 106.031128 
L 179.628006 103.400145 
L 180.104165 105.017928 
L 180.577588 103.427651 
L 181.052651 105.583599 
L 181.526018 104.809835 
L 182.003845 103.374206 
L 182.478371 105.005448 
L 182.952848 111.409459 
L 183.43108 114.481728 
L 183.905354 120.37957 
L 184.378725 121.589635 
L 184.854916 125.45576 
L 185.32994 115.660878 
L 185.803281 109.232311 
L 186.277613 93.718697 
L 186.752177 94.250314 
L 187.226846 96.23483 
L 187.705622 102.103018 
L 188.176985 102.168584 
L 188.655314 104.47733 
L 189.128641 103.499217 
L 189.605414 105.768774 
L 190.078237 106.339527 
L 190.551825 108.36475 
L 191.029589 108.157538 
L 191.979359 110.350479 
L 192.451936 111.074527 
L 192.926341 112.267472 
L 193.40495 112.942102 
L 193.879877 115.195058 
L 194.353591 116.824591 
L 194.830601 120.394553 
L 195.302939 122.88246 
L 195.780007 131.391716 
L 196.254989 131.607471 
L 196.730195 131.168199 
L 197.205453 127.732572 
L 197.678211 126.186919 
L 198.15296 118.507293 
L 198.629498 114.139277 
L 199.105075 111.240193 
L 199.579319 110.925936 
L 200.053993 109.091439 
L 200.526838 111.527693 
L 201.001096 110.146403 
L 201.478593 109.653795 
L 201.954417 108.757222 
L 202.427722 109.480906 
L 202.90443 109.627993 
L 203.37674 110.832514 
L 203.854867 111.060981 
L 204.330358 112.599861 
L 204.801602 113.184707 
L 205.280154 114.796445 
L 205.753044 118.723996 
L 206.227248 120.019347 
L 206.702483 119.018626 
L 207.177585 119.250484 
L 207.655056 117.481687 
L 208.129851 117.26577 
L 208.602965 113.316343 
L 209.077632 112.761221 
L 209.554742 111.945943 
L 210.027687 109.483298 
L 210.97809 109.349209 
L 211.453014 104.401492 
L 211.928023 103.591994 
L 212.405394 106.158779 
L 212.877911 112.68706 
L 213.353872 116.058676 
L 213.827632 123.168598 
L 214.303382 123.249875 
L 214.778752 131.118613 
L 215.2525 143.97246 
L 215.730059 146.105282 
L 216.205585 134.007592 
L 216.676622 130.356064 
L 217.154385 124.010204 
L 217.626502 125.585932 
L 218.103095 122.44376 
L 218.579355 122.988852 
L 219.052884 119.304264 
L 219.529533 118.645152 
L 220.004635 118.217904 
L 220.480186 116.716478 
L 220.951443 113.263192 
L 221.427788 111.915114 
L 221.903954 110.017697 
L 222.377638 109.471567 
L 222.855621 108.010119 
L 223.328663 107.562536 
L 223.804231 106.429004 
L 224.279623 106.502261 
L 224.752823 108.108106 
L 225.703187 109.848935 
L 226.177012 112.978997 
L 226.653162 114.207473 
L 227.127619 117.821621 
L 227.601582 119.352333 
L 228.076384 123.269391 
L 228.554001 123.360863 
L 229.027457 124.9412 
L 229.503992 125.906983 
L 229.977018 124.356517 
L 230.453245 120.052862 
L 231.403093 116.604373 
L 231.879056 116.288348 
L 233.30354 113.268955 
L 233.777367 111.858327 
L 234.253456 109.419228 
L 234.728084 108.331604 
L 235.20491 108.326644 
L 235.677481 107.575424 
L 236.152053 107.968115 
L 236.628425 107.424788 
L 237.102359 109.165013 
L 237.576717 109.922825 
L 238.051767 114.530898 
L 238.528891 117.65322 
L 239.002985 121.90502 
L 239.478847 116.757366 
L 239.955371 109.267643 
L 240.429539 103.828934 
L 240.903447 101.279719 
L 241.3795 97.285134 
L 241.853905 95.452226 
L 242.329231 91.324352 
L 242.80482 90.905704 
L 243.276761 91.998595 
L 244.227319 104.046788 
L 244.702685 109.118893 
L 245.651615 120.533717 
L 246.129505 126.41105 
L 246.605316 127.723788 
L 247.078734 129.620494 
L 247.553013 124.471741 
L 248.02769 122.597874 
L 248.504248 122.074063 
L 248.976776 116.648573 
L 249.452866 106.142056 
L 249.929872 113.775067 
L 250.402259 118.100318 
L 250.879833 125.26014 
L 251.353883 126.986364 
L 251.827295 130.511295 
L 252.301698 128.29136 
L 252.77741 128.30364 
L 253.253217 127.429047 
L 253.729366 124.774902 
L 254.202609 119.401886 
L 255.152735 113.765956 
L 255.629233 112.198931 
L 257.053615 106.423786 
L 258.005034 103.440187 
L 258.478962 104.374415 
L 259.427212 114.435879 
L 259.905626 115.005074 
L 260.379122 113.128065 
L 261.328253 110.652486 
L 261.802497 110.116115 
L 262.277369 109.76271 
L 262.751347 109.790667 
L 263.227341 110.127447 
L 265.601492 112.832664 
L 266.078646 113.763862 
L 266.556369 113.900969 
L 267.029657 114.712541 
L 267.503595 115.967332 
L 267.979949 115.104626 
L 268.455337 110.746132 
L 268.926523 107.934879 
L 269.402925 101.862984 
L 269.8778 105.37807 
L 270.352016 118.445685 
L 270.830217 126.842364 
L 271.30441 130.416444 
L 271.778305 132.712486 
L 272.251732 133.402948 
L 272.727164 131.246315 
L 273.201602 126.665943 
L 274.152462 121.779437 
L 275.104574 117.634326 
L 276.054863 109.007237 
L 277.003761 96.495261 
L 277.477159 100.981913 
L 277.951253 110.508887 
L 278.427777 112.752704 
L 278.90341 112.752717 
L 279.379004 117.896152 
L 279.854283 133.593337 
L 280.329611 121.616015 
L 280.802298 112.752717 
L 282.703764 112.752717 
L 283.17852 114.66866 
L 283.653525 129.772406 
L 284.12834 139.911162 
L 284.602559 143.68278 
L 285.07696 96.115442 
L 285.553801 71.620654 
L 286.028813 88.880953 
L 286.502513 130.83875 
L 286.980996 138.445078 
L 287.45445 126.592118 
L 287.928742 123.49955 
L 288.402838 126.812402 
L 288.877608 133.493818 
L 289.352496 126.603026 
L 290.306212 107.093037 
L 290.779603 114.940687 
L 291.253946 124.696123 
L 291.726257 126.818381 
L 292.203384 122.433522 
L 292.677252 121.621278 
L 293.154848 118.123486 
L 293.629285 119.261472 
L 294.104218 117.778976 
L 294.576916 118.590971 
L 295.05304 117.454823 
L 295.527362 117.202861 
L 296.480987 115.085228 
L 296.954562 114.484259 
L 297.90393 111.062898 
L 299.802422 95.472528 
L 300.278452 97.100608 
L 300.754041 97.748544 
L 301.231178 100.737357 
L 301.705881 108.416259 
L 302.17769 111.128726 
L 302.653256 121.725802 
L 303.127081 129.450608 
L 303.603169 139.510987 
L 304.554961 112.752717 
L 306.926479 112.752717 
L 307.877703 134.520352 
L 308.353974 140.759502 
L 308.828415 92.700354 
L 309.304016 68.237402 
L 309.778272 89.863812 
L 310.254507 129.703963 
L 310.72932 126.441412 
L 311.201628 101.94969 
L 311.677548 97.223517 
L 312.154705 108.958721 
L 312.627614 124.054226 
L 313.579334 137.678378 
L 314.051818 140.353443 
L 314.529311 139.834862 
L 315.002633 142.4613 
L 315.478148 139.864849 
L 315.954866 130.945732 
L 316.426673 127.410496 
L 317.378202 94.867808 
L 317.853699 94.944443 
L 318.328893 99.469727 
L 318.804085 106.142086 
L 319.279014 111.236341 
L 319.754086 112.752717 
L 322.12943 112.752718 
L 322.604504 108.96833 
L 323.079745 102.904436 
L 323.554082 94.615766 
L 324.504542 81.394238 
L 324.97947 85.772724 
L 325.452256 122.828238 
L 325.928819 148.537776 
L 326.404255 154.861611 
L 327.352326 130.60516 
L 327.82707 118.82739 
L 328.307382 113.157474 
L 328.778411 111.077726 
L 329.253388 111.534942 
L 329.72923 113.145894 
L 330.677065 120.20411 
L 331.154011 119.880741 
L 331.62914 118.724266 
L 332.104666 116.125939 
L 332.578682 115.365823 
L 333.055466 113.584236 
L 333.529681 114.595967 
L 334.004258 118.641126 
L 334.479011 119.739036 
L 334.955179 117.526251 
L 335.428926 117.228909 
L 335.90236 115.728368 
L 336.377765 116.491717 
L 336.855247 115.813354 
L 337.329955 116.592631 
L 337.804128 115.869687 
L 338.277087 116.418205 
L 338.75223 117.464953 
L 339.226832 117.086383 
L 339.702027 114.840252 
L 340.179361 114.069257 
L 340.653454 112.25124 
L 341.126513 112.257648 
L 341.602076 110.907292 
L 342.07843 111.325046 
L 342.551875 110.075728 
L 343.029855 110.682259 
L 343.505112 112.100302 
L 343.97907 111.25629 
L 344.454192 109.656763 
L 344.928833 115.822736 
L 345.879088 123.487379 
L 346.354098 123.656834 
L 346.829581 125.119481 
L 347.304475 122.914156 
L 347.778876 122.734151 
L 348.254221 122.858747 
L 348.728916 121.743594 
L 349.203994 118.767209 
L 350.154566 116.556467 
L 350.626529 116.276998 
L 351.101681 116.129051 
L 351.577048 115.248557 
L 352.05242 114.666742 
L 352.526911 112.707351 
L 353.003967 108.141409 
L 353.478872 105.885468 
L 353.954574 104.826287 
L 355.378258 94.838305 
L 356.327266 93.753838 
L 357.276768 104.032173 
L 357.755023 112.585589 
L 358.227809 115.093286 
L 358.705557 115.963098 
L 359.179463 114.739548 
L 359.656329 115.037494 
L 360.130613 113.127501 
L 360.60474 113.010714 
L 361.080875 110.929696 
L 361.553295 110.847172 
L 362.029513 108.969615 
L 362.504543 104.759953 
L 362.978121 103.704219 
L 363.453202 105.500947 
L 363.927251 105.451363 
L 364.404519 107.467123 
L 364.878534 106.827534 
L 365.353397 108.10876 
L 365.827883 106.715098 
L 366.304628 107.167266 
L 366.777263 105.797155 
L 367.25443 103.087043 
L 367.729572 103.031071 
L 368.202462 106.578742 
L 368.679009 108.451271 
L 369.15248 111.710738 
L 369.629703 111.162218 
L 370.102306 111.599832 
L 370.57714 108.77423 
L 371.054115 106.680393 
L 371.529057 101.616545 
L 372.004156 98.92434 
L 372.478686 99.497549 
L 372.952642 104.089255 
L 373.429282 106.083052 
L 373.904738 110.587205 
L 374.378609 111.404031 
L 374.852561 115.190141 
L 375.328436 115.11523 
L 375.80544 117.831773 
L 376.277312 115.994084 
L 376.754801 106.977994 
L 377.229318 102.801162 
L 377.704606 104.413586 
L 378.180221 103.148345 
L 378.654115 104.812735 
L 379.129442 103.038239 
L 379.60479 104.681068 
L 380.078883 103.568665 
L 380.55195 105.696004 
L 381.028433 105.235932 
L 381.503928 104.177315 
L 381.977627 105.339774 
L 382.454167 109.85809 
L 382.930374 111.610033 
L 383.401963 115.045629 
L 383.878028 114.976931 
L 384.35425 116.245501 
L 384.831 113.447191 
L 385.304824 112.439364 
L 385.781498 108.972964 
L 386.253059 103.731083 
L 386.728816 102.985948 
L 387.20177 106.583115 
L 387.678775 107.321823 
L 388.15365 109.53159 
L 388.63055 108.335366 
L 389.101905 109.34784 
L 389.579669 107.614567 
L 390.055137 108.592489 
L 390.528548 106.669672 
L 391.003316 103.22868 
L 391.480667 103.219077 
L 391.95363 107.232683 
L 392.428168 108.286868 
L 392.902124 110.353606 
L 393.378971 109.206725 
L 393.854505 109.893288 
L 394.329773 109.058515 
L 394.8051 110.194711 
L 395.281371 110.098581 
L 395.753386 109.722353 
L 396.228953 110.402077 
L 396.701686 112.899952 
L 397.17655 113.274214 
L 397.656386 114.408198 
L 398.130646 113.468039 
L 398.603263 113.484834 
L 399.079077 110.485775 
L 399.554883 109.413129 
L 400.027646 107.800994 
L 400.502286 105.660134 
L 400.980247 105.660956 
L 401.454647 108.001103 
L 401.92928 108.686752 
L 402.40475 110.226072 
L 402.877594 109.93782 
L 403.353023 110.538274 
L 403.829604 110.064049 
L 404.30457 110.539811 
L 405.25233 110.398579 
L 405.729329 110.773263 
L 406.205401 111.705787 
L 407.152205 112.653086 
L 408.102967 113.159963 
L 410.003298 114.53371 
L 410.479667 114.519229 
L 411.426781 113.729123 
L 412.380106 112.29551 
L 413.330843 111.892474 
L 413.8035 111.954992 
L 414.752837 111.627018 
L 415.227257 111.85092 
L 415.701807 112.566387 
L 416.651539 112.416752 
L 417.127795 112.195478 
L 417.603251 112.560831 
L 418.554715 112.756725 
L 419.02765 112.537544 
L 419.502779 112.541307 
L 420.453127 113.05183 
L 421.403165 112.850747 
L 421.878777 113.021337 
L 422.354299 113.324944 
L 423.3053 113.38123 
L 423.777855 113.463849 
L 424.252698 113.716775 
L 424.726693 113.618094 
L 425.676758 112.742911 
L 428.054037 112.673338 
L 429.003753 112.742884 
L 430.42847 112.717163 
L 433.752638 112.740853 
L 442.306096 112.741894 
L 453.701757 112.869556 
L 455.130542 113.088544 
L 456.080317 113.50779 
L 456.552115 113.905263 
L 457.027694 114.622452 
L 457.502009 116.552252 
L 457.978112 119.204932 
L 458.454266 124.232355 
L 458.926878 133.883687 
L 459.879318 166.00129 
L 462.727122 165.832961 
L 464.154563 165.525085 
L 464.629203 165.344585 
L 465.104397 164.919967 
L 467.955928 164.919966 
L 468.427913 145.509907 
L 468.906956 58.232341 
L 469.378781 59.096287 
L 469.854536 164.913397 
L 470.327822 156.432317 
L 470.803537 86.810159 
L 471.278581 80.760028 
L 471.754941 118.001889 
L 472.227488 124.529305 
L 472.703636 120.665659 
L 472.703636 120.665659 
" clip-path="url(#p97f8042600)" style="fill: none; stroke: #1f77b4; stroke-width: 1.5; stroke-linecap: square"/>
   </g>
   <g id="patch_3">
    <path d="M 42.28 175.197656 
L 42.28 48.96 
" style="fill: none; stroke: #000000; stroke-width: 0.8; stroke-linejoin: miter; stroke-linecap: square"/>
   </g>
   <g id="patch_4">
    <path d="M 493.2 175.197656 
L 493.2 48.96 
" style="fill: none; stroke: #000000; stroke-width: 0.8; stroke-linejoin: miter; stroke-linecap: square"/>
   </g>
   <g id="patch_5">
    <path d="M 42.28 175.197656 
L 493.2 175.197656 
" style="fill: none; stroke: #000000; stroke-width: 0.8; stroke-linejoin: miter; stroke-linecap: square"/>
   </g>
   <g id="patch_6">
    <path d="M 42.28 48.96 
L 493.2 48.96 
" style="fill: none; stroke: #000000; stroke-width: 0.8; stroke-linejoin: miter; stroke-linecap: square"/>
   </g>
   <g id="text_14">
    <!-- $\delta_e$ (rad) -->
    <g transform="translate(244.76 42.96) scale(0.12 -0.12)">
     <defs>
      <path id="DejaVuSans-Oblique-348" d="M 3472 4053 
Q 3197 4272 2450 4272 
Q 1659 4272 1588 3906 
Q 1531 3619 2328 3469 
Q 2953 3353 3253 3003 
Q 3616 2581 3447 1716 
Q 3284 888 2763 400 
Q 2238 -91 1488 -91 
Q 741 -91 406 400 
Q 72 888 241 1747 
Q 363 2384 891 2900 
Q 1097 3100 1353 3213 
Q 913 3459 1000 3900 
Q 1166 4750 2544 4750 
Q 3234 4750 3566 4531 
L 3472 4053 
z
M 1753 3056 
Q 1525 2966 1306 2738 
Q 969 2384 847 1747 
Q 722 1113 919 756 
Q 1119 397 1584 397 
Q 2044 397 2381 759 
Q 2722 1122 2838 1716 
Q 2956 2338 2731 2638 
Q 2491 2959 2103 2994 
Q 1906 3013 1753 3056 
z
" transform="scale(0.015625)"/>
      <path id="DejaVuSans-Oblique-48" d="M 3078 2063 
Q 3088 2113 3092 2166 
Q 3097 2219 3097 2272 
Q 3097 2653 2873 2875 
Q 2650 3097 2266 3097 
Q 1838 3097 1509 2826 
Q 1181 2556 1013 2059 
L 3078 2063 
z
M 3578 1613 
L 903 1613 
Q 884 1494 878 1425 
Q 872 1356 872 1306 
Q 872 872 1139 634 
Q 1406 397 1894 397 
Q 2269 397 2603 481 
Q 2938 566 3225 728 
L 3116 159 
Q 2806 34 2476 -28 
Q 2147 -91 1806 -91 
Q 1078 -91 686 257 
Q 294 606 294 1247 
Q 294 1794 489 2264 
Q 684 2734 1063 3103 
Q 1306 3334 1642 3459 
Q 1978 3584 2356 3584 
Q 2950 3584 3301 3228 
Q 3653 2872 3653 2272 
Q 3653 2128 3634 1964 
Q 3616 1800 3578 1613 
z
" transform="scale(0.015625)"/>
      <path id="DejaVuSans-55" d="M 2631 2963 
Q 2534 3019 2420 3045 
Q 2306 3072 2169 3072 
Q 1681 3072 1420 2755 
Q 1159 2438 1159 1844 
L 1159 0 
L 581 0 
L 581 3500 
L 1159 3500 
L 1159 2956 
Q 1341 3275 1631 3429 
Q 1922 3584 2338 3584 
Q 2397 3584 2469 3576 
Q 2541 3569 2628 3553 
L 2631 2963 
z
" transform="scale(0.015625)"/>
      <path id="DejaVuSans-44" d="M 2194 1759 
Q 1497 1759 1228 1600 
Q 959 1441 959 1056 
Q 959 750 1161 570 
Q 1363 391 1709 391 
Q 2188 391 2477 730 
Q 2766 1069 2766 1631 
L 2766 1759 
L 2194 1759 
z
M 3341 1997 
L 3341 0 
L 2766 0 
L 2766 531 
Q 2569 213 2275 61 
Q 1981 -91 1556 -91 
Q 1019 -91 701 211 
Q 384 513 384 1019 
Q 384 1609 779 1909 
Q 1175 2209 1959 2209 
L 2766 2209 
L 2766 2266 
Q 2766 2663 2505 2880 
Q 2244 3097 1772 3097 
Q 1472 3097 1187 3025 
Q 903 2953 641 2809 
L 641 3341 
Q 956 3463 1253 3523 
Q 1550 3584 1831 3584 
Q 2591 3584 2966 3190 
Q 3341 2797 3341 1997 
z
" transform="scale(0.015625)"/>
      <path id="DejaVuSans-47" d="M 2906 2969 
L 2906 4863 
L 3481 4863 
L 3481 0 
L 2906 0 
L 2906 525 
Q 2725 213 2448 61 
Q 2172 -91 1784 -91 
Q 1150 -91 751 415 
Q 353 922 353 1747 
Q 353 2572 751 3078 
Q 1150 3584 1784 3584 
Q 2172 3584 2448 3432 
Q 2725 3281 2906 2969 
z
M 947 1747 
Q 947 1113 1208 752 
Q 1469 391 1925 391 
Q 2381 391 2643 752 
Q 2906 1113 2906 1747 
Q 2906 2381 2643 2742 
Q 2381 3103 1925 3103 
Q 1469 3103 1208 2742 
Q 947 2381 947 1747 
z
" transform="scale(0.015625)"/>
     </defs>
     <use xlink:href="#DejaVuSans-Oblique-348" transform="translate(0 0.015625)"/>
     <use xlink:href="#DejaVuSans-Oblique-48" transform="translate(61.181641 -14.984326) scale(0.7)"/>
     <use xlink:href="#DejaVuSans-3" transform="translate(106.982422 0.015625)"/>
     <use xlink:href="#DejaVuSans-b" transform="translate(138.769531 0.015625)"/>
     <use xlink:href="#DejaVuSans-55" transform="translate(177.783203 0.015625)"/>
     <use xlink:href="#DejaVuSans-44" transform="translate(218.896484 0.015625)"/>
     <use xlink:href="#DejaVuSans-47" transform="translate(280.175781 0.015625)"/>
     <use xlink:href="#DejaVuSans-c" transform="translate(343.652344 0.015625)"/>
    </g>
   </g>
   <g id="legend_1">
    <g id="patch_7">
     <path d="M 246.39 170.197656 
L 289.09 170.197656 
Q 291.09 170.197656 291.09 168.197656 
L 291.09 154.196875 
Q 291.09 152.196875 289.09 152.196875 
L 246.39 152.196875 
Q 244.39 152.196875 244.39 154.196875 
L 244.39 168.197656 
Q 244.39 170.197656 246.39 170.197656 
z
" style="fill: #ffffff; opacity: 0.8; stroke: #cccccc; stroke-linejoin: miter"/>
    </g>
    <g id="line2d_26">
     <path d="M 248.39 160.295312 
L 258.39 160.295312 
L 268.39 160.295312 
" style="fill: none; stroke: #1f77b4; stroke-width: 1.5; stroke-linecap: square"/>
    </g>
    <g id="text_15">
     <!-- $\delta_e$ -->
     <g transform="translate(276.39 163.795312) scale(0.1 -0.1)">
      <use xlink:href="#DejaVuSans-Oblique-348" transform="translate(0 0.78125)"/>
      <use xlink:href="#DejaVuSans-Oblique-48" transform="translate(61.181641 -14.218701) scale(0.7)"/>
     </g>
    </g>
   </g>
  </g>
  <g id="axes_2">
   <g id="patch_8">
    <path d="M 42.28 361.077656 
L 493.2 361.077656 
L 493.2 234.84 
L 42.28 234.84 
z
" style="fill: #ffffff"/>
   </g>
   <g id="matplotlib.axis_3">
    <g id="xtick_8">
     <g id="line2d_27">
      <path d="M 62.502098 361.077656 
L 62.502098 234.84 
" clip-path="url(#p823dfd0143)" style="fill: none; stroke: #b0b0b0; stroke-width: 0.8; stroke-linecap: square"/>
     </g>
     <g id="line2d_28">
      <g>
       <use xlink:href="#md8fdad0682" x="62.502098" y="361.077656" style="stroke: #000000; stroke-width: 0.8"/>
      </g>
     </g>
     <g id="text_16">
      <!-- 0 -->
      <g transform="translate(59.320848 375.675312) scale(0.1 -0.1)">
       <use xlink:href="#DejaVuSans-13"/>
      </g>
     </g>
    </g>
    <g id="xtick_9">
     <g id="line2d_29">
      <path d="M 130.35934 361.077656 
L 130.35934 234.84 
" clip-path="url(#p823dfd0143)" style="fill: none; stroke: #b0b0b0; stroke-width: 0.8; stroke-linecap: square"/>
     </g>
     <g id="line2d_30">
      <g>
       <use xlink:href="#md8fdad0682" x="130.35934" y="361.077656" style="stroke: #000000; stroke-width: 0.8"/>
      </g>
     </g>
     <g id="text_17">
      <!-- 10 -->
      <g transform="translate(123.99684 375.675312) scale(0.1 -0.1)">
       <use xlink:href="#DejaVuSans-14"/>
       <use xlink:href="#DejaVuSans-13" transform="translate(63.625 0)"/>
      </g>
     </g>
    </g>
    <g id="xtick_10">
     <g id="line2d_31">
      <path d="M 198.216583 361.077656 
L 198.216583 234.84 
" clip-path="url(#p823dfd0143)" style="fill: none; stroke: #b0b0b0; stroke-width: 0.8; stroke-linecap: square"/>
     </g>
     <g id="line2d_32">
      <g>
       <use xlink:href="#md8fdad0682" x="198.216583" y="361.077656" style="stroke: #000000; stroke-width: 0.8"/>
      </g>
     </g>
     <g id="text_18">
      <!-- 20 -->
      <g transform="translate(191.854083 375.675312) scale(0.1 -0.1)">
       <use xlink:href="#DejaVuSans-15"/>
       <use xlink:href="#DejaVuSans-13" transform="translate(63.625 0)"/>
      </g>
     </g>
    </g>
    <g id="xtick_11">
     <g id="line2d_33">
      <path d="M 266.073825 361.077656 
L 266.073825 234.84 
" clip-path="url(#p823dfd0143)" style="fill: none; stroke: #b0b0b0; stroke-width: 0.8; stroke-linecap: square"/>
     </g>
     <g id="line2d_34">
      <g>
       <use xlink:href="#md8fdad0682" x="266.073825" y="361.077656" style="stroke: #000000; stroke-width: 0.8"/>
      </g>
     </g>
     <g id="text_19">
      <!-- 30 -->
      <g transform="translate(259.711325 375.675312) scale(0.1 -0.1)">
       <use xlink:href="#DejaVuSans-16"/>
       <use xlink:href="#DejaVuSans-13" transform="translate(63.625 0)"/>
      </g>
     </g>
    </g>
    <g id="xtick_12">
     <g id="line2d_35">
      <path d="M 333.931068 361.077656 
L 333.931068 234.84 
" clip-path="url(#p823dfd0143)" style="fill: none; stroke: #b0b0b0; stroke-width: 0.8; stroke-linecap: square"/>
     </g>
     <g id="line2d_36">
      <g>
       <use xlink:href="#md8fdad0682" x="333.931068" y="361.077656" style="stroke: #000000; stroke-width: 0.8"/>
      </g>
     </g>
     <g id="text_20">
      <!-- 40 -->
      <g transform="translate(327.568568 375.675312) scale(0.1 -0.1)">
       <use xlink:href="#DejaVuSans-17"/>
       <use xlink:href="#DejaVuSans-13" transform="translate(63.625 0)"/>
      </g>
     </g>
    </g>
    <g id="xtick_13">
     <g id="line2d_37">
      <path d="M 401.78831 361.077656 
L 401.78831 234.84 
" clip-path="url(#p823dfd0143)" style="fill: none; stroke: #b0b0b0; stroke-width: 0.8; stroke-linecap: square"/>
     </g>
     <g id="line2d_38">
      <g>
       <use xlink:href="#md8fdad0682" x="401.78831" y="361.077656" style="stroke: #000000; stroke-width: 0.8"/>
      </g>
     </g>
     <g id="text_21">
      <!-- 50 -->
      <g transform="translate(395.42581 375.675312) scale(0.1 -0.1)">
       <use xlink:href="#DejaVuSans-18"/>
       <use xlink:href="#DejaVuSans-13" transform="translate(63.625 0)"/>
      </g>
     </g>
    </g>
    <g id="xtick_14">
     <g id="line2d_39">
      <path d="M 469.645553 361.077656 
L 469.645553 234.84 
" clip-path="url(#p823dfd0143)" style="fill: none; stroke: #b0b0b0; stroke-width: 0.8; stroke-linecap: square"/>
     </g>
     <g id="line2d_40">
      <g>
       <use xlink:href="#md8fdad0682" x="469.645553" y="361.077656" style="stroke: #000000; stroke-width: 0.8"/>
      </g>
     </g>
     <g id="text_22">
      <!-- 60 -->
      <g transform="translate(463.283053 375.675312) scale(0.1 -0.1)">
       <use xlink:href="#DejaVuSans-19"/>
       <use xlink:href="#DejaVuSans-13" transform="translate(63.625 0)"/>
      </g>
     </g>
    </g>
    <g id="text_23">
     <!-- t (s) -->
     <g transform="translate(257.684531 389.675312) scale(0.1 -0.1)">
      <use xlink:href="#DejaVuSans-57"/>
      <use xlink:href="#DejaVuSans-3" transform="translate(39.203125 0)"/>
      <use xlink:href="#DejaVuSans-b" transform="translate(70.984375 0)"/>
      <use xlink:href="#DejaVuSans-56" transform="translate(110 0)"/>
      <use xlink:href="#DejaVuSans-c" transform="translate(162.09375 0)"/>
     </g>
    </g>
   </g>
   <g id="matplotlib.axis_4">
    <g id="ytick_6">
     <g id="line2d_41">
      <path d="M 42.28 345.776122 
L 493.2 345.776122 
" clip-path="url(#p823dfd0143)" style="fill: none; stroke: #b0b0b0; stroke-width: 0.8; stroke-linecap: square"/>
     </g>
     <g id="line2d_42">
      <g>
       <use xlink:href="#mb01a619e0e" x="42.28" y="345.776122" style="stroke: #000000; stroke-width: 0.8"/>
      </g>
     </g>
     <g id="text_24">
      <!-- −0.50 -->
      <g transform="translate(4.634688 349.57495) scale(0.1 -0.1)">
       <use xlink:href="#DejaVuSans-c9c"/>
       <use xlink:href="#DejaVuSans-13" transform="translate(83.796875 0)"/>
       <use xlink:href="#DejaVuSans-11" transform="translate(147.421875 0)"/>
       <use xlink:href="#DejaVuSans-18" transform="translate(179.203125 0)"/>
       <use xlink:href="#DejaVuSans-13" transform="translate(242.828125 0)"/>
      </g>
     </g>
    </g>
    <g id="ytick_7">
     <g id="line2d_43">
      <path d="M 42.28 321.867475 
L 493.2 321.867475 
" clip-path="url(#p823dfd0143)" style="fill: none; stroke: #b0b0b0; stroke-width: 0.8; stroke-linecap: square"/>
     </g>
     <g id="line2d_44">
      <g>
       <use xlink:href="#mb01a619e0e" x="42.28" y="321.867475" style="stroke: #000000; stroke-width: 0.8"/>
      </g>
     </g>
     <g id="text_25">
      <!-- −0.25 -->
      <g transform="translate(4.634688 325.666303) scale(0.1 -0.1)">
       <use xlink:href="#DejaVuSans-c9c"/>
       <use xlink:href="#DejaVuSans-13" transform="translate(83.796875 0)"/>
       <use xlink:href="#DejaVuSans-11" transform="translate(147.421875 0)"/>
       <use xlink:href="#DejaVuSans-15" transform="translate(179.203125 0)"/>
       <use xlink:href="#DejaVuSans-18" transform="translate(242.828125 0)"/>
      </g>
     </g>
    </g>
    <g id="ytick_8">
     <g id="line2d_45">
      <path d="M 42.28 297.958828 
L 493.2 297.958828 
" clip-path="url(#p823dfd0143)" style="fill: none; stroke: #b0b0b0; stroke-width: 0.8; stroke-linecap: square"/>
     </g>
     <g id="line2d_46">
      <g>
       <use xlink:href="#mb01a619e0e" x="42.28" y="297.958828" style="stroke: #000000; stroke-width: 0.8"/>
      </g>
     </g>
     <g id="text_26">
      <!-- 0.00 -->
      <g transform="translate(13.014375 301.757656) scale(0.1 -0.1)">
       <use xlink:href="#DejaVuSans-13"/>
       <use xlink:href="#DejaVuSans-11" transform="translate(63.625 0)"/>
       <use xlink:href="#DejaVuSans-13" transform="translate(95.40625 0)"/>
       <use xlink:href="#DejaVuSans-13" transform="translate(159.03125 0)"/>
      </g>
     </g>
    </g>
    <g id="ytick_9">
     <g id="line2d_47">
      <path d="M 42.28 274.050181 
L 493.2 274.050181 
" clip-path="url(#p823dfd0143)" style="fill: none; stroke: #b0b0b0; stroke-width: 0.8; stroke-linecap: square"/>
     </g>
     <g id="line2d_48">
      <g>
       <use xlink:href="#mb01a619e0e" x="42.28" y="274.050181" style="stroke: #000000; stroke-width: 0.8"/>
      </g>
     </g>
     <g id="text_27">
      <!-- 0.25 -->
      <g transform="translate(13.014375 277.849009) scale(0.1 -0.1)">
       <use xlink:href="#DejaVuSans-13"/>
       <use xlink:href="#DejaVuSans-11" transform="translate(63.625 0)"/>
       <use xlink:href="#DejaVuSans-15" transform="translate(95.40625 0)"/>
       <use xlink:href="#DejaVuSans-18" transform="translate(159.03125 0)"/>
      </g>
     </g>
    </g>
    <g id="ytick_10">
     <g id="line2d_49">
      <path d="M 42.28 250.141534 
L 493.2 250.141534 
" clip-path="url(#p823dfd0143)" style="fill: none; stroke: #b0b0b0; stroke-width: 0.8; stroke-linecap: square"/>
     </g>
     <g id="line2d_50">
      <g>
       <use xlink:href="#mb01a619e0e" x="42.28" y="250.141534" style="stroke: #000000; stroke-width: 0.8"/>
      </g>
     </g>
     <g id="text_28">
      <!-- 0.50 -->
      <g transform="translate(13.014375 253.940362) scale(0.1 -0.1)">
       <use xlink:href="#DejaVuSans-13"/>
       <use xlink:href="#DejaVuSans-11" transform="translate(63.625 0)"/>
       <use xlink:href="#DejaVuSans-18" transform="translate(95.40625 0)"/>
       <use xlink:href="#DejaVuSans-13" transform="translate(159.03125 0)"/>
      </g>
     </g>
    </g>
   </g>
   <g id="line2d_51">
    <path d="M 62.776364 293.697153 
L 63.250877 297.958828 
L 72.278678 297.958828 
L 72.753877 296.58186 
L 73.227547 287.396327 
L 73.700872 275.209885 
L 74.177311 266.227345 
L 74.653678 254.624088 
L 75.126732 246.313449 
L 75.605278 240.578075 
L 81.77745 240.578075 
L 82.253231 249.449079 
L 83.202483 276.805796 
L 85.101558 253.841005 
L 86.052778 247.22291 
L 87.004159 243.397098 
L 87.476892 242.525301 
L 87.954684 242.012091 
L 88.428352 242.077898 
L 88.903761 242.713774 
L 89.377402 243.566099 
L 90.328185 246.642913 
L 92.227474 256.245852 
L 93.655123 265.698391 
L 94.128114 268.392409 
L 94.604608 271.980891 
L 95.078316 274.633078 
L 95.554143 278.06085 
L 96.028125 280.510533 
L 96.980484 343.013565 
L 97.453025 345.44811 
L 98.404753 348.584809 
L 98.878644 349.414918 
L 99.351951 349.973169 
L 99.830141 349.944912 
L 100.303704 349.260593 
L 100.778656 348.228701 
L 101.727735 343.940417 
L 102.678958 336.776239 
L 103.154069 331.286311 
L 103.629861 332.415162 
L 104.103202 346.296153 
L 104.577956 353.407463 
L 105.054924 355.339581 
L 106.480449 355.33958 
L 106.953386 352.166345 
L 107.42941 344.953194 
L 107.904996 282.077477 
L 108.376276 275.941517 
L 108.852628 267.780027 
L 110.278095 251.423287 
L 110.751416 248.043776 
L 111.22881 247.13892 
L 111.701144 248.319865 
L 112.176527 251.027153 
L 113.127037 262.867735 
L 113.602854 271.640839 
L 114.080671 296.070981 
L 114.553587 304.287228 
L 115.029289 324.427225 
L 115.504278 323.620461 
L 115.97659 323.424861 
L 116.453274 323.614274 
L 116.927881 324.028625 
L 117.879643 325.607729 
L 118.352868 326.722586 
L 118.830186 327.558648 
L 119.302486 295.812648 
L 119.777097 316.444113 
L 120.252564 282.739198 
L 120.727771 273.645679 
L 121.202498 274.270333 
L 122.1547 274.894111 
L 123.102144 274.984672 
L 123.577775 274.909329 
L 124.05225 273.270597 
L 124.529057 311.572918 
L 125.004504 308.149882 
L 125.480866 324.778921 
L 125.955566 313.059433 
L 126.427461 320.338326 
L 126.904792 299.448241 
L 127.379252 300.328099 
L 127.853293 278.879371 
L 128.802696 281.884249 
L 129.278654 314.940687 
L 129.75416 295.831745 
L 130.227353 308.051007 
L 130.702384 284.523116 
L 131.178235 296.101658 
L 131.654482 284.070077 
L 132.128938 291.275858 
L 132.60538 282.581351 
L 133.077038 295.192727 
L 133.55428 280.30904 
L 134.028431 336.866089 
L 134.50166 337.816337 
L 134.978788 341.516793 
L 135.454126 307.939779 
L 136.403501 289.980867 
L 136.879474 290.514473 
L 137.354759 290.326627 
L 137.82919 289.520517 
L 138.301175 287.647472 
L 138.777678 289.966484 
L 139.251979 282.727488 
L 139.726936 292.527152 
L 140.203087 276.866458 
L 140.676234 280.035185 
L 141.152171 271.463564 
L 142.102269 267.736138 
L 142.578935 266.893075 
L 143.053653 266.63125 
L 143.526664 267.172356 
L 144.004496 269.053782 
L 144.478386 279.487852 
L 144.954073 293.978457 
L 145.429657 297.958828 
L 146.855348 297.958828 
L 147.326404 296.474918 
L 148.276827 279.623835 
L 149.703034 246.692465 
L 150.178178 240.578076 
L 153.504038 240.578076 
L 153.976916 243.758102 
L 154.452198 254.849328 
L 154.928066 258.131875 
L 155.404508 285.451001 
L 155.876861 297.958828 
L 158.254349 297.958828 
L 158.727526 298.195111 
L 161.102806 338.743611 
L 162.053497 350.235817 
L 162.529498 352.389145 
L 163.002643 351.673406 
L 163.477679 347.965133 
L 164.429912 326.751195 
L 165.377419 341.478909 
L 165.853774 290.595181 
L 166.326707 292.672967 
L 166.80469 292.441741 
L 167.278214 290.389635 
L 168.228454 281.177966 
L 169.176335 268.986935 
L 169.652395 262.266653 
L 170.60612 253.691686 
L 171.077157 251.991367 
L 171.5522 252.028786 
L 172.028799 311.208748 
L 172.980304 320.051045 
L 173.453647 326.170578 
L 173.927008 330.035421 
L 174.403204 332.881658 
L 174.878893 332.469892 
L 175.35151 300.807045 
L 175.827372 291.783091 
L 176.304358 273.406333 
L 176.778994 294.352792 
L 177.253526 275.314469 
L 177.73043 276.555513 
L 178.676824 279.842935 
L 179.152915 281.672949 
L 180.104165 284.225126 
L 180.577588 284.935504 
L 181.052651 285.440439 
L 181.526018 302.166256 
L 182.003845 342.36559 
L 182.478371 341.637976 
L 183.43108 338.716883 
L 183.905354 310.147598 
L 184.378725 296.967401 
L 184.854916 274.053103 
L 185.32994 276.540179 
L 186.277613 293.000473 
L 186.752177 297.958828 
L 190.551825 297.958828 
L 191.029589 289.69468 
L 191.502908 273.756756 
L 191.979359 261.522513 
L 192.451936 245.647907 
L 192.926341 240.578075 
L 196.730195 240.578075 
L 197.205453 241.86341 
L 198.15296 260.510791 
L 198.629498 265.622102 
L 199.105075 269.161629 
L 199.579319 270.458889 
L 200.053993 270.755886 
L 200.526838 272.757569 
L 201.001096 272.466539 
L 201.478593 300.345498 
L 201.954417 302.408865 
L 202.427722 317.228934 
L 203.854867 305.403868 
L 204.801602 299.180697 
L 205.280154 297.958828 
L 206.227248 297.958828 
L 206.702483 299.068275 
L 207.177585 302.220619 
L 208.129851 313.855522 
L 208.602965 322.163021 
L 210.027687 339.368474 
L 210.502481 341.507858 
L 210.97809 340.420808 
L 211.453014 334.912875 
L 211.928023 327.532514 
L 212.405394 295.551437 
L 213.353872 254.942796 
L 213.827632 257.615781 
L 214.778752 271.130781 
L 215.2525 280.698493 
L 216.205585 294.735261 
L 216.676622 297.958828 
L 218.103095 297.958828 
L 218.579355 296.533629 
L 220.004635 280.694677 
L 220.480186 284.800176 
L 220.951443 278.256345 
L 221.427788 301.459983 
L 221.903954 297.65538 
L 222.377638 314.589309 
L 222.855621 308.746395 
L 223.328663 311.061683 
L 223.804231 308.887789 
L 225.228554 322.757208 
L 226.177012 303.466773 
L 226.653162 278.81089 
L 227.127619 282.343224 
L 227.601582 287.267767 
L 228.554001 294.196779 
L 229.027457 295.794318 
L 229.503992 296.270648 
L 229.977018 295.343999 
L 230.926597 289.275681 
L 232.353631 272.462548 
L 232.829714 270.785039 
L 233.30354 267.487101 
L 233.777367 294.231934 
L 234.253456 308.855148 
L 235.20491 303.940659 
L 235.677481 303.551294 
L 236.152053 304.702775 
L 236.628425 306.732376 
L 238.528891 323.262724 
L 239.002985 327.870616 
L 239.955371 314.604504 
L 240.429539 314.985956 
L 240.903447 287.493753 
L 241.3795 278.498543 
L 241.853905 276.821996 
L 242.329231 279.893881 
L 242.80482 279.806056 
L 243.276761 276.75328 
L 243.751585 269.872473 
L 244.227319 283.003877 
L 244.702685 275.360076 
L 245.177383 295.339621 
L 245.651615 292.46555 
L 246.129505 312.741991 
L 246.605316 309.415664 
L 247.078734 324.07273 
L 247.553013 313.641859 
L 248.02769 317.571906 
L 248.504248 330.447325 
L 248.976776 322.376279 
L 249.452866 271.888955 
L 249.929872 270.994684 
L 250.402259 276.047444 
L 250.879833 282.943029 
L 251.353883 293.342092 
L 251.827295 297.958828 
L 253.729366 297.958828 
L 254.677573 281.989424 
L 255.152735 270.632502 
L 256.103656 253.467569 
L 257.053615 244.86105 
L 257.527262 250.031237 
L 258.005034 293.374797 
L 258.478962 309.196683 
L 258.951693 301.952528 
L 259.427212 317.41938 
L 259.905626 294.833258 
L 260.379122 300.733084 
L 260.852524 276.116817 
L 261.328253 284.266974 
L 261.802497 272.651866 
L 262.277369 285.351157 
L 262.751347 327.598291 
L 263.227341 327.612674 
L 263.703767 322.550274 
L 264.178669 324.891369 
L 264.655475 300.099862 
L 265.128103 302.208931 
L 265.601492 275.160413 
L 266.078646 280.114743 
L 266.556369 262.793532 
L 267.029657 272.531418 
L 267.503595 312.976487 
L 267.979949 321.527594 
L 268.455337 309.636125 
L 268.926523 314.707968 
L 269.402925 276.344818 
L 269.8778 271.392835 
L 270.830217 292.894775 
L 271.30441 297.958828 
L 272.251732 297.958829 
L 272.727164 309.832188 
L 273.201602 297.961255 
L 273.676984 303.748531 
L 274.152462 279.103218 
L 274.629747 299.881476 
L 275.104574 297.958823 
L 277.477159 297.958828 
L 278.427777 345.687462 
L 278.90341 355.339581 
L 279.379004 355.339581 
L 280.329611 297.958828 
L 281.279286 297.958744 
L 281.754405 295.557596 
L 282.226723 297.01714 
L 282.703764 297.958828 
L 284.602559 297.958828 
L 285.07696 297.023655 
L 285.553801 270.365896 
L 286.028813 251.405676 
L 286.502513 240.578075 
L 288.402838 240.578075 
L 288.877608 241.952275 
L 289.352496 257.153116 
L 290.306212 271.554129 
L 290.779603 277.082584 
L 291.726257 294.496484 
L 292.203384 297.958828 
L 294.576916 297.958828 
L 295.05304 292.719637 
L 295.527362 282.031282 
L 296.480987 253.623821 
L 296.954562 240.578077 
L 297.430603 244.697236 
L 297.90393 277.67513 
L 298.379892 297.958827 
L 300.278452 297.958828 
L 300.754041 311.166652 
L 301.705881 348.376574 
L 302.17769 355.339581 
L 302.653256 355.339581 
L 303.127081 348.031565 
L 304.077954 300.397089 
L 304.554961 297.958828 
L 305.027695 290.804496 
L 305.503986 275.213222 
L 305.978617 297.958828 
L 309.778272 297.958828 
L 310.72932 249.622669 
L 311.201628 240.578075 
L 314.051818 240.578075 
L 314.529311 259.117743 
L 315.002633 297.958828 
L 315.478148 312.563892 
L 315.954866 343.929634 
L 316.426673 351.744472 
L 316.902939 338.429254 
L 317.378202 318.39778 
L 317.853699 305.063096 
L 318.328893 298.778001 
L 318.804085 297.958828 
L 319.279014 297.958828 
L 319.754086 300.31436 
L 320.228533 306.072187 
L 321.652519 332.935982 
L 322.604504 344.645538 
L 323.079745 347.121719 
L 323.554082 348.140188 
L 324.504542 287.606083 
L 324.97947 284.966639 
L 326.404255 273.3012 
L 327.82707 265.320761 
L 328.307382 263.754098 
L 328.778411 283.689617 
L 329.253388 321.104592 
L 329.72923 322.276631 
L 330.677065 328.789131 
L 331.154011 332.300108 
L 331.62914 334.136386 
L 332.104666 326.96525 
L 332.578682 317.723052 
L 333.055466 281.783149 
L 334.004258 283.548904 
L 334.479011 283.972777 
L 334.955179 284.244428 
L 335.428926 284.240983 
L 336.377765 283.616438 
L 337.329955 282.277324 
L 337.804128 281.269359 
L 338.277087 297.894362 
L 338.75223 336.607506 
L 339.226832 335.669156 
L 339.702027 334.402281 
L 340.179361 333.463393 
L 340.653454 317.390116 
L 341.126513 315.118129 
L 341.602076 277.034143 
L 342.07843 272.371921 
L 342.551875 271.672442 
L 343.505112 271.029753 
L 343.97907 275.785559 
L 344.454192 273.566535 
L 344.928833 281.038667 
L 345.404175 291.9878 
L 345.879088 297.95883 
L 349.203994 297.958828 
L 349.679483 297.181755 
L 351.577048 243.887565 
L 352.05242 240.578075 
L 353.003967 240.57808 
L 353.478872 257.573521 
L 353.954574 282.305555 
L 354.427336 297.958828 
L 355.854169 297.958828 
L 356.327266 299.691001 
L 356.80268 311.874123 
L 357.276768 317.613383 
L 357.755023 319.193871 
L 358.227809 314.585155 
L 358.705557 308.27771 
L 359.656329 302.13043 
L 360.130613 301.180713 
L 360.60474 301.244997 
L 361.080875 302.141274 
L 362.029513 306.274491 
L 363.453202 315.024297 
L 364.878534 321.255023 
L 365.353397 322.7696 
L 365.827883 323.524959 
L 366.304628 317.071261 
L 366.777263 301.789874 
L 367.25443 293.369512 
L 368.202462 265.778469 
L 368.679009 265.303379 
L 369.15248 264.667996 
L 370.102306 263.837991 
L 370.57714 263.735578 
L 371.054115 264.138455 
L 371.529057 289.643925 
L 372.004156 321.494851 
L 372.478686 321.308436 
L 372.952642 321.391481 
L 373.429282 321.669191 
L 374.378609 322.872939 
L 375.328436 324.520449 
L 375.80544 299.307136 
L 376.277312 288.055601 
L 376.754801 287.86228 
L 377.229318 283.04248 
L 377.704606 271.838553 
L 379.60479 274.234238 
L 380.078883 281.603616 
L 380.55195 282.652382 
L 381.028433 302.621721 
L 381.503928 332.75398 
L 382.930374 333.250605 
L 383.401963 320.834561 
L 383.878028 314.890056 
L 384.35425 289.052835 
L 384.831 284.215782 
L 385.304824 274.957744 
L 385.781498 271.801929 
L 386.728816 294.663993 
L 387.20177 287.042413 
L 387.678775 298.120483 
L 388.15365 289.784668 
L 388.63055 299.648321 
L 389.101905 289.429558 
L 389.579669 297.354899 
L 390.055137 283.7412 
L 390.528548 291.656104 
L 391.003316 311.691181 
L 391.480667 316.627315 
L 391.95363 287.210882 
L 393.854505 297.021251 
L 394.329773 297.958828 
L 396.228953 297.958871 
L 396.701686 297.664006 
L 397.17655 295.7847 
L 398.130646 289.100998 
L 398.603263 284.484266 
L 399.079077 287.750148 
L 399.554883 292.664176 
L 400.027646 295.999754 
L 400.502286 302.011166 
L 400.980247 319.05002 
L 401.454647 297.958838 
L 404.30457 297.876275 
L 404.778507 294.975996 
L 406.205401 282.505199 
L 406.679726 278.974723 
L 407.152205 274.438955 
L 408.579666 265.076419 
L 409.055551 262.548571 
L 409.527094 261.241141 
L 410.003298 260.381028 
L 410.479667 260.461027 
L 410.951969 261.626288 
L 411.426781 263.362951 
L 411.902193 266.95229 
L 412.380106 274.214633 
L 412.853767 290.805554 
L 413.330843 297.958828 
L 416.651539 297.864372 
L 417.127795 290.942439 
L 419.502779 240.578075 
L 425.204183 240.578075 
L 425.676758 249.283419 
L 426.154221 255.669872 
L 429.003753 258.91762 
L 430.904111 260.225683 
L 432.802131 260.93491 
L 434.229801 261.116101 
L 435.652116 261.038771 
L 437.078345 260.746414 
L 438.978216 260.034995 
L 440.403355 259.27227 
L 440.880096 280.293037 
L 441.35305 316.092505 
L 442.78045 315.211982 
L 444.20241 314.164141 
L 445.629712 313.168957 
L 447.054436 312.060813 
L 448.480178 311.070626 
L 449.904142 310.03378 
L 454.176946 307.712995 
L 455.605475 307.213544 
L 457.502009 306.911993 
L 458.926878 306.963686 
L 460.351709 307.314174 
L 461.303307 307.713323 
L 462.254728 308.260525 
L 462.727122 308.542668 
L 464.629203 310.26301 
L 466.529738 312.602282 
L 471.278581 312.602282 
L 471.754941 259.991943 
L 472.227488 255.221529 
L 472.703636 255.221529 
L 472.703636 255.221529 
" clip-path="url(#p823dfd0143)" style="fill: none; stroke: #1f77b4; stroke-width: 1.5; stroke-linecap: square"/>
   </g>
   <g id="patch_9">
    <path d="M 42.28 361.077656 
L 42.28 234.84 
" style="fill: none; stroke: #000000; stroke-width: 0.8; stroke-linejoin: miter; stroke-linecap: square"/>
   </g>
   <g id="patch_10">
    <path d="M 493.2 361.077656 
L 493.2 234.84 
" style="fill: none; stroke: #000000; stroke-width: 0.8; stroke-linejoin: miter; stroke-linecap: square"/>
   </g>
   <g id="patch_11">
    <path d="M 42.28 361.077656 
L 493.2 361.077656 
" style="fill: none; stroke: #000000; stroke-width: 0.8; stroke-linejoin: miter; stroke-linecap: square"/>
   </g>
   <g id="patch_12">
    <path d="M 42.28 234.84 
L 493.2 234.84 
" style="fill: none; stroke: #000000; stroke-width: 0.8; stroke-linejoin: miter; stroke-linecap: square"/>
   </g>
   <g id="text_29">
    <!-- $a_{x,e}$ $\left(\mathrm{m/s^2}\right)$ -->
    <g transform="translate(236.18 228.84) scale(0.12 -0.12)">
     <defs>
      <path id="DejaVuSans-Oblique-44" d="M 3438 1997 
L 3047 0 
L 2472 0 
L 2578 531 
Q 2325 219 2001 64 
Q 1678 -91 1281 -91 
Q 834 -91 548 182 
Q 263 456 263 884 
Q 263 1497 752 1853 
Q 1241 2209 2100 2209 
L 2900 2209 
L 2931 2363 
Q 2938 2388 2941 2417 
Q 2944 2447 2944 2509 
Q 2944 2788 2717 2942 
Q 2491 3097 2081 3097 
Q 1800 3097 1504 3025 
Q 1209 2953 897 2809 
L 997 3341 
Q 1322 3463 1633 3523 
Q 1944 3584 2234 3584 
Q 2853 3584 3176 3315 
Q 3500 3047 3500 2534 
Q 3500 2431 3484 2292 
Q 3469 2153 3438 1997 
z
M 2816 1759 
L 2241 1759 
Q 1534 1759 1195 1570 
Q 856 1381 856 984 
Q 856 709 1029 553 
Q 1203 397 1509 397 
Q 1978 397 2328 733 
Q 2678 1069 2791 1631 
L 2816 1759 
z
" transform="scale(0.015625)"/>
      <path id="DejaVuSans-Oblique-5b" d="M 3841 3500 
L 2234 1784 
L 3219 0 
L 2559 0 
L 1819 1388 
L 531 0 
L -166 0 
L 1556 1844 
L 641 3500 
L 1300 3500 
L 1972 2234 
L 3144 3500 
L 3841 3500 
z
" transform="scale(0.015625)"/>
      <path id="DejaVuSans-f" d="M 750 794 
L 1409 794 
L 1409 256 
L 897 -744 
L 494 -744 
L 750 256 
L 750 794 
z
" transform="scale(0.015625)"/>
      <path id="STIXSizeOneSym-Regular-4" d="M 2445 -858 
L 2445 -1050 
Q 1728 -371 1309 630 
Q 890 1632 890 2886 
Q 890 4122 1309 5136 
Q 1728 6150 2445 6822 
L 2445 6630 
Q 1408 5363 1408 2886 
Q 1408 410 2445 -858 
z
" transform="scale(0.015625)"/>
      <path id="DejaVuSans-50" d="M 3328 2828 
Q 3544 3216 3844 3400 
Q 4144 3584 4550 3584 
Q 5097 3584 5394 3201 
Q 5691 2819 5691 2113 
L 5691 0 
L 5113 0 
L 5113 2094 
Q 5113 2597 4934 2840 
Q 4756 3084 4391 3084 
Q 3944 3084 3684 2787 
Q 3425 2491 3425 1978 
L 3425 0 
L 2847 0 
L 2847 2094 
Q 2847 2600 2669 2842 
Q 2491 3084 2119 3084 
Q 1678 3084 1418 2786 
Q 1159 2488 1159 1978 
L 1159 0 
L 581 0 
L 581 3500 
L 1159 3500 
L 1159 2956 
Q 1356 3278 1631 3431 
Q 1906 3584 2284 3584 
Q 2666 3584 2933 3390 
Q 3200 3197 3328 2828 
z
" transform="scale(0.015625)"/>
      <path id="DejaVuSans-12" d="M 1625 4666 
L 2156 4666 
L 531 -594 
L 0 -594 
L 1625 4666 
z
" transform="scale(0.015625)"/>
      <path id="STIXSizeOneSym-Regular-5" d="M 550 6630 
L 550 6822 
Q 1267 6144 1686 5142 
Q 2106 4141 2106 2886 
Q 2106 1651 1686 636 
Q 1267 -378 550 -1050 
L 550 -858 
Q 1587 410 1587 2886 
Q 1587 5363 550 6630 
z
" transform="scale(0.015625)"/>
     </defs>
     <use xlink:href="#DejaVuSans-Oblique-44" transform="translate(0 0.746875)"/>
     <use xlink:href="#DejaVuSans-Oblique-5b" transform="translate(61.279297 -14.253076) scale(0.7)"/>
     <use xlink:href="#DejaVuSans-f" transform="translate(102.705078 -14.253076) scale(0.7)"/>
     <use xlink:href="#DejaVuSans-Oblique-48" transform="translate(138.59375 -14.253076) scale(0.7)"/>
     <use xlink:href="#DejaVuSans-3" transform="translate(184.394531 0.746875)"/>
     <use xlink:href="#STIXSizeOneSym-Regular-4" transform="translate(216.181641 5.1375) scale(0.833613)"/>
     <use xlink:href="#DejaVuSans-50" transform="translate(255.193878 0.746875)"/>
     <use xlink:href="#DejaVuSans-12" transform="translate(352.605988 0.746875)"/>
     <use xlink:href="#DejaVuSans-56" transform="translate(386.297394 0.746875)"/>
     <use xlink:href="#DejaVuSans-15" transform="translate(439.354034 42.046875) scale(0.7)"/>
     <use xlink:href="#STIXSizeOneSym-Regular-5" transform="translate(486.624542 5.1375) scale(0.833613)"/>
    </g>
   </g>
   <g id="legend_2">
    <g id="patch_13">
     <path d="M 401.6 356.077656 
L 486.2 356.077656 
Q 488.2 356.077656 488.2 354.077656 
L 488.2 338.275312 
Q 488.2 336.275312 486.2 336.275312 
L 401.6 336.275312 
Q 399.6 336.275312 399.6 338.275312 
L 399.6 354.077656 
Q 399.6 356.077656 401.6 356.077656 
z
" style="fill: #ffffff; opacity: 0.8; stroke: #cccccc; stroke-linejoin: miter"/>
    </g>
    <g id="line2d_52">
     <path d="M 403.6 346.175312 
L 413.6 346.175312 
L 423.6 346.175312 
" style="fill: none; stroke: #1f77b4; stroke-width: 1.5; stroke-linecap: square"/>
    </g>
    <g id="text_30">
     <!-- $a_{x,e}$ $\left(\mathrm{m/s^2}\right)$ -->
     <g transform="translate(431.6 349.675312) scale(0.1 -0.1)">
      <use xlink:href="#DejaVuSans-Oblique-44" transform="translate(0 0.746875)"/>
      <use xlink:href="#DejaVuSans-Oblique-5b" transform="translate(61.279297 -14.253076) scale(0.7)"/>
      <use xlink:href="#DejaVuSans-f" transform="translate(102.705078 -14.253076) scale(0.7)"/>
      <use xlink:href="#DejaVuSans-Oblique-48" transform="translate(138.59375 -14.253076) scale(0.7)"/>
      <use xlink:href="#DejaVuSans-3" transform="translate(184.394531 0.746875)"/>
      <use xlink:href="#STIXSizeOneSym-Regular-4" transform="translate(216.181641 5.1375) scale(0.833613)"/>
      <use xlink:href="#DejaVuSans-50" transform="translate(255.193878 0.746875)"/>
      <use xlink:href="#DejaVuSans-12" transform="translate(352.605988 0.746875)"/>
      <use xlink:href="#DejaVuSans-56" transform="translate(386.297394 0.746875)"/>
      <use xlink:href="#DejaVuSans-15" transform="translate(439.354034 42.046875) scale(0.7)"/>
      <use xlink:href="#STIXSizeOneSym-Regular-5" transform="translate(486.624542 5.1375) scale(0.833613)"/>
     </g>
    </g>
   </g>
  </g>
  <g id="text_31">
   <!-- QCar2 Input Error -->
   <g transform="translate(199.15125 17.181188) scale(0.12 -0.12)">
    <defs>
     <path id="DejaVuSans-34" d="M 2522 4238 
Q 1834 4238 1429 3725 
Q 1025 3213 1025 2328 
Q 1025 1447 1429 934 
Q 1834 422 2522 422 
Q 3209 422 3611 934 
Q 4013 1447 4013 2328 
Q 4013 3213 3611 3725 
Q 3209 4238 2522 4238 
z
M 3406 84 
L 4238 -825 
L 3475 -825 
L 2784 -78 
Q 2681 -84 2626 -87 
Q 2572 -91 2522 -91 
Q 1538 -91 948 567 
Q 359 1225 359 2328 
Q 359 3434 948 4092 
Q 1538 4750 2522 4750 
Q 3503 4750 4090 4092 
Q 4678 3434 4678 2328 
Q 4678 1516 4351 937 
Q 4025 359 3406 84 
z
" transform="scale(0.015625)"/>
     <path id="DejaVuSans-26" d="M 4122 4306 
L 4122 3641 
Q 3803 3938 3442 4084 
Q 3081 4231 2675 4231 
Q 1875 4231 1450 3742 
Q 1025 3253 1025 2328 
Q 1025 1406 1450 917 
Q 1875 428 2675 428 
Q 3081 428 3442 575 
Q 3803 722 4122 1019 
L 4122 359 
Q 3791 134 3420 21 
Q 3050 -91 2638 -91 
Q 1578 -91 968 557 
Q 359 1206 359 2328 
Q 359 3453 968 4101 
Q 1578 4750 2638 4750 
Q 3056 4750 3426 4639 
Q 3797 4528 4122 4306 
z
" transform="scale(0.015625)"/>
     <path id="DejaVuSans-2c" d="M 628 4666 
L 1259 4666 
L 1259 0 
L 628 0 
L 628 4666 
z
" transform="scale(0.015625)"/>
     <path id="DejaVuSans-51" d="M 3513 2113 
L 3513 0 
L 2938 0 
L 2938 2094 
Q 2938 2591 2744 2837 
Q 2550 3084 2163 3084 
Q 1697 3084 1428 2787 
Q 1159 2491 1159 1978 
L 1159 0 
L 581 0 
L 581 3500 
L 1159 3500 
L 1159 2956 
Q 1366 3272 1645 3428 
Q 1925 3584 2291 3584 
Q 2894 3584 3203 3211 
Q 3513 2838 3513 2113 
z
" transform="scale(0.015625)"/>
     <path id="DejaVuSans-53" d="M 1159 525 
L 1159 -1331 
L 581 -1331 
L 581 3500 
L 1159 3500 
L 1159 2969 
Q 1341 3281 1617 3432 
Q 1894 3584 2278 3584 
Q 2916 3584 3314 3078 
Q 3713 2572 3713 1747 
Q 3713 922 3314 415 
Q 2916 -91 2278 -91 
Q 1894 -91 1617 61 
Q 1341 213 1159 525 
z
M 3116 1747 
Q 3116 2381 2855 2742 
Q 2594 3103 2138 3103 
Q 1681 3103 1420 2742 
Q 1159 2381 1159 1747 
Q 1159 1113 1420 752 
Q 1681 391 2138 391 
Q 2594 391 2855 752 
Q 3116 1113 3116 1747 
z
" transform="scale(0.015625)"/>
     <path id="DejaVuSans-58" d="M 544 1381 
L 544 3500 
L 1119 3500 
L 1119 1403 
Q 1119 906 1312 657 
Q 1506 409 1894 409 
Q 2359 409 2629 706 
Q 2900 1003 2900 1516 
L 2900 3500 
L 3475 3500 
L 3475 0 
L 2900 0 
L 2900 538 
Q 2691 219 2414 64 
Q 2138 -91 1772 -91 
Q 1169 -91 856 284 
Q 544 659 544 1381 
z
M 1991 3584 
L 1991 3584 
z
" transform="scale(0.015625)"/>
     <path id="DejaVuSans-28" d="M 628 4666 
L 3578 4666 
L 3578 4134 
L 1259 4134 
L 1259 2753 
L 3481 2753 
L 3481 2222 
L 1259 2222 
L 1259 531 
L 3634 531 
L 3634 0 
L 628 0 
L 628 4666 
z
" transform="scale(0.015625)"/>
     <path id="DejaVuSans-52" d="M 1959 3097 
Q 1497 3097 1228 2736 
Q 959 2375 959 1747 
Q 959 1119 1226 758 
Q 1494 397 1959 397 
Q 2419 397 2687 759 
Q 2956 1122 2956 1747 
Q 2956 2369 2687 2733 
Q 2419 3097 1959 3097 
z
M 1959 3584 
Q 2709 3584 3137 3096 
Q 3566 2609 3566 1747 
Q 3566 888 3137 398 
Q 2709 -91 1959 -91 
Q 1206 -91 779 398 
Q 353 888 353 1747 
Q 353 2609 779 3096 
Q 1206 3584 1959 3584 
z
" transform="scale(0.015625)"/>
    </defs>
    <use xlink:href="#DejaVuSans-34"/>
    <use xlink:href="#DejaVuSans-26" transform="translate(78.71875 0)"/>
    <use xlink:href="#DejaVuSans-44" transform="translate(148.546875 0)"/>
    <use xlink:href="#DejaVuSans-55" transform="translate(209.828125 0)"/>
    <use xlink:href="#DejaVuSans-15" transform="translate(250.9375 0)"/>
    <use xlink:href="#DejaVuSans-3" transform="translate(314.5625 0)"/>
    <use xlink:href="#DejaVuSans-2c" transform="translate(346.34375 0)"/>
    <use xlink:href="#DejaVuSans-51" transform="translate(375.84375 0)"/>
    <use xlink:href="#DejaVuSans-53" transform="translate(439.21875 0)"/>
    <use xlink:href="#DejaVuSans-58" transform="translate(502.703125 0)"/>
    <use xlink:href="#DejaVuSans-57" transform="translate(566.078125 0)"/>
    <use xlink:href="#DejaVuSans-3" transform="translate(605.28125 0)"/>
    <use xlink:href="#DejaVuSans-28" transform="translate(637.0625 0)"/>
    <use xlink:href="#DejaVuSans-55" transform="translate(700.25 0)"/>
    <use xlink:href="#DejaVuSans-55" transform="translate(739.609375 0)"/>
    <use xlink:href="#DejaVuSans-52" transform="translate(778.515625 0)"/>
    <use xlink:href="#DejaVuSans-55" transform="translate(839.703125 0)"/>
   </g>
  </g>
 </g>
 <defs>
  <clipPath id="p97f8042600">
   <rect x="42.28" y="48.96" width="450.92" height="126.237656"/>
  </clipPath>
  <clipPath id="p823dfd0143">
   <rect x="42.28" y="234.84" width="450.92" height="126.237656"/>
  </clipPath>
 </defs>
</svg>
