<?xml version="1.0" encoding="utf-8" standalone="no"?>
<!DOCTYPE svg PUBLIC "-//W3C//DTD SVG 1.1//EN"
  "http://www.w3.org/Graphics/SVG/1.1/DTD/svg11.dtd">
<svg xmlns:xlink="http://www.w3.org/1999/xlink" width="504pt" height="403.2pt" viewBox="0 0 504 403.2" xmlns="http://www.w3.org/2000/svg" version="1.1">
 <metadata>
  <rdf:RDF xmlns:dc="http://purl.org/dc/elements/1.1/" xmlns:cc="http://creativecommons.org/ns#" xmlns:rdf="http://www.w3.org/1999/02/22-rdf-syntax-ns#">
   <cc:Work>
    <dc:type rdf:resource="http://purl.org/dc/dcmitype/StillImage"/>
    <dc:date>2026-07-09T12:35:17.706548</dc:date>
    <dc:format>image/svg+xml</dc:format>
    <dc:creator>
     <cc:Agent>
      <dc:title>Matplotlib v3.11.0, https://matplotlib.org/</dc:title>
     </cc:Agent>
    </dc:creator>
   </cc:Work>
  </rdf:RDF>
 </metadata>
 <defs>
  <style type="text/css">*{stroke-linejoin: round; stroke-linecap: butt}</style>
 </defs>
 <g id="figure_1">
  <g id="patch_1">
   <path d="M 0 403.2 
L 504 403.2 
L 504 0 
L 0 0 
z
" style="fill: #ffffff"/>
  </g>
  <g id="axes_1">
   <g id="patch_2">
    <path d="M 42.28 175.197656 
L 493.2 175.197656 
L 493.2 48.96 
L 42.28 48.96 
z
" style="fill: #ffffff"/>
   </g>
   <g id="matplotlib.axis_1">
    <g id="xtick_1">
     <g id="line2d_1">
      <path d="M 62.502098 175.197656 
L 62.502098 48.96 
" clip-path="url(#pdbe9b8b3b5)" style="fill: none; stroke: #b0b0b0; stroke-width: 0.8; stroke-linecap: square"/>
     </g>
     <g id="line2d_2">
      <defs>
       <path id="mb035659956" d="M 0 0 
L 0 3.5 
" style="stroke: #000000; stroke-width: 0.8"/>
      </defs>
      <g>
       <use xlink:href="#mb035659956" x="62.502098" y="175.197656" style="stroke: #000000; stroke-width: 0.8"/>
      </g>
     </g>
     <g id="text_1">
      <!-- 0 -->
      <g transform="translate(59.320848 189.795312) scale(0.1 -0.1)">
       <defs>
        <path id="DejaVuSans-13" d="M 2034 4250 
Q 1547 4250 1301 3770 
Q 1056 3291 1056 2328 
Q 1056 1369 1301 889 
Q 1547 409 2034 409 
Q 2525 409 2770 889 
Q 3016 1369 3016 2328 
Q 3016 3291 2770 3770 
Q 2525 4250 2034 4250 
z
M 2034 4750 
Q 2819 4750 3233 4129 
Q 3647 3509 3647 2328 
Q 3647 1150 3233 529 
Q 2819 -91 2034 -91 
Q 1250 -91 836 529 
Q 422 1150 422 2328 
Q 422 3509 836 4129 
Q 1250 4750 2034 4750 
z
" transform="scale(0.015625)"/>
       </defs>
       <use xlink:href="#DejaVuSans-13"/>
      </g>
     </g>
    </g>
    <g id="xtick_2">
     <g id="line2d_3">
      <path d="M 130.35934 175.197656 
L 130.35934 48.96 
" clip-path="url(#pdbe9b8b3b5)" style="fill: none; stroke: #b0b0b0; stroke-width: 0.8; stroke-linecap: square"/>
     </g>
     <g id="line2d_4">
      <g>
       <use xlink:href="#mb035659956" x="130.35934" y="175.197656" style="stroke: #000000; stroke-width: 0.8"/>
      </g>
     </g>
     <g id="text_2">
      <!-- 10 -->
      <g transform="translate(123.99684 189.795312) scale(0.1 -0.1)">
       <defs>
        <path id="DejaVuSans-14" d="M 794 531 
L 1825 531 
L 1825 4091 
L 703 3866 
L 703 4441 
L 1819 4666 
L 2450 4666 
L 2450 531 
L 3481 531 
L 3481 0 
L 794 0 
L 794 531 
z
" transform="scale(0.015625)"/>
       </defs>
       <use xlink:href="#DejaVuSans-14"/>
       <use xlink:href="#DejaVuSans-13" transform="translate(63.625 0)"/>
      </g>
     </g>
    </g>
    <g id="xtick_3">
     <g id="line2d_5">
      <path d="M 198.216583 175.197656 
L 198.216583 48.96 
" clip-path="url(#pdbe9b8b3b5)" style="fill: none; stroke: #b0b0b0; stroke-width: 0.8; stroke-linecap: square"/>
     </g>
     <g id="line2d_6">
      <g>
       <use xlink:href="#mb035659956" x="198.216583" y="175.197656" style="stroke: #000000; stroke-width: 0.8"/>
      </g>
     </g>
     <g id="text_3">
      <!-- 20 -->
      <g transform="translate(191.854083 189.795312) scale(0.1 -0.1)">
       <defs>
        <path id="DejaVuSans-15" d="M 1228 531 
L 3431 531 
L 3431 0 
L 469 0 
L 469 531 
Q 828 903 1448 1529 
Q 2069 2156 2228 2338 
Q 2531 2678 2651 2914 
Q 2772 3150 2772 3378 
Q 2772 3750 2511 3984 
Q 2250 4219 1831 4219 
Q 1534 4219 1204 4116 
Q 875 4013 500 3803 
L 500 4441 
Q 881 4594 1212 4672 
Q 1544 4750 1819 4750 
Q 2544 4750 2975 4387 
Q 3406 4025 3406 3419 
Q 3406 3131 3298 2873 
Q 3191 2616 2906 2266 
Q 2828 2175 2409 1742 
Q 1991 1309 1228 531 
z
" transform="scale(0.015625)"/>
       </defs>
       <use xlink:href="#DejaVuSans-15"/>
       <use xlink:href="#DejaVuSans-13" transform="translate(63.625 0)"/>
      </g>
     </g>
    </g>
    <g id="xtick_4">
     <g id="line2d_7">
      <path d="M 266.073825 175.197656 
L 266.073825 48.96 
" clip-path="url(#pdbe9b8b3b5)" style="fill: none; stroke: #b0b0b0; stroke-width: 0.8; stroke-linecap: square"/>
     </g>
     <g id="line2d_8">
      <g>
       <use xlink:href="#mb035659956" x="266.073825" y="175.197656" style="stroke: #000000; stroke-width: 0.8"/>
      </g>
     </g>
     <g id="text_4">
      <!-- 30 -->
      <g transform="translate(259.711325 189.795312) scale(0.1 -0.1)">
       <defs>
        <path id="DejaVuSans-16" d="M 2597 2516 
Q 3050 2419 3304 2112 
Q 3559 1806 3559 1356 
Q 3559 666 3084 287 
Q 2609 -91 1734 -91 
Q 1441 -91 1130 -33 
Q 819 25 488 141 
L 488 750 
Q 750 597 1062 519 
Q 1375 441 1716 441 
Q 2309 441 2620 675 
Q 2931 909 2931 1356 
Q 2931 1769 2642 2001 
Q 2353 2234 1838 2234 
L 1294 2234 
L 1294 2753 
L 1863 2753 
Q 2328 2753 2575 2939 
Q 2822 3125 2822 3475 
Q 2822 3834 2567 4026 
Q 2313 4219 1838 4219 
Q 1578 4219 1281 4162 
Q 984 4106 628 3988 
L 628 4550 
Q 988 4650 1302 4700 
Q 1616 4750 1894 4750 
Q 2613 4750 3031 4423 
Q 3450 4097 3450 3541 
Q 3450 3153 3228 2886 
Q 3006 2619 2597 2516 
z
" transform="scale(0.015625)"/>
       </defs>
       <use xlink:href="#DejaVuSans-16"/>
       <use xlink:href="#DejaVuSans-13" transform="translate(63.625 0)"/>
      </g>
     </g>
    </g>
    <g id="xtick_5">
     <g id="line2d_9">
      <path d="M 333.931068 175.197656 
L 333.931068 48.96 
" clip-path="url(#pdbe9b8b3b5)" style="fill: none; stroke: #b0b0b0; stroke-width: 0.8; stroke-linecap: square"/>
     </g>
     <g id="line2d_10">
      <g>
       <use xlink:href="#mb035659956" x="333.931068" y="175.197656" style="stroke: #000000; stroke-width: 0.8"/>
      </g>
     </g>
     <g id="text_5">
      <!-- 40 -->
      <g transform="translate(327.568568 189.795312) scale(0.1 -0.1)">
       <defs>
        <path id="DejaVuSans-17" d="M 2419 4116 
L 825 1625 
L 2419 1625 
L 2419 4116 
z
M 2253 4666 
L 3047 4666 
L 3047 1625 
L 3713 1625 
L 3713 1100 
L 3047 1100 
L 3047 0 
L 2419 0 
L 2419 1100 
L 313 1100 
L 313 1709 
L 2253 4666 
z
" transform="scale(0.015625)"/>
       </defs>
       <use xlink:href="#DejaVuSans-17"/>
       <use xlink:href="#DejaVuSans-13" transform="translate(63.625 0)"/>
      </g>
     </g>
    </g>
    <g id="xtick_6">
     <g id="line2d_11">
      <path d="M 401.78831 175.197656 
L 401.78831 48.96 
" clip-path="url(#pdbe9b8b3b5)" style="fill: none; stroke: #b0b0b0; stroke-width: 0.8; stroke-linecap: square"/>
     </g>
     <g id="line2d_12">
      <g>
       <use xlink:href="#mb035659956" x="401.78831" y="175.197656" style="stroke: #000000; stroke-width: 0.8"/>
      </g>
     </g>
     <g id="text_6">
      <!-- 50 -->
      <g transform="translate(395.42581 189.795312) scale(0.1 -0.1)">
       <defs>
        <path id="DejaVuSans-18" d="M 691 4666 
L 3169 4666 
L 3169 4134 
L 1269 4134 
L 1269 2991 
Q 1406 3038 1543 3061 
Q 1681 3084 1819 3084 
Q 2600 3084 3056 2656 
Q 3513 2228 3513 1497 
Q 3513 744 3044 326 
Q 2575 -91 1722 -91 
Q 1428 -91 1123 -41 
Q 819 9 494 109 
L 494 744 
Q 775 591 1075 516 
Q 1375 441 1709 441 
Q 2250 441 2565 725 
Q 2881 1009 2881 1497 
Q 2881 1984 2565 2268 
Q 2250 2553 1709 2553 
Q 1456 2553 1204 2497 
Q 953 2441 691 2322 
L 691 4666 
z
" transform="scale(0.015625)"/>
       </defs>
       <use xlink:href="#DejaVuSans-18"/>
       <use xlink:href="#DejaVuSans-13" transform="translate(63.625 0)"/>
      </g>
     </g>
    </g>
    <g id="xtick_7">
     <g id="line2d_13">
      <path d="M 469.645553 175.197656 
L 469.645553 48.96 
" clip-path="url(#pdbe9b8b3b5)" style="fill: none; stroke: #b0b0b0; stroke-width: 0.8; stroke-linecap: square"/>
     </g>
     <g id="line2d_14">
      <g>
       <use xlink:href="#mb035659956" x="469.645553" y="175.197656" style="stroke: #000000; stroke-width: 0.8"/>
      </g>
     </g>
     <g id="text_7">
      <!-- 60 -->
      <g transform="translate(463.283053 189.795312) scale(0.1 -0.1)">
       <defs>
        <path id="DejaVuSans-19" d="M 2113 2584 
Q 1688 2584 1439 2293 
Q 1191 2003 1191 1497 
Q 1191 994 1439 701 
Q 1688 409 2113 409 
Q 2538 409 2786 701 
Q 3034 994 3034 1497 
Q 3034 2003 2786 2293 
Q 2538 2584 2113 2584 
z
M 3366 4563 
L 3366 3988 
Q 3128 4100 2886 4159 
Q 2644 4219 2406 4219 
Q 1781 4219 1451 3797 
Q 1122 3375 1075 2522 
Q 1259 2794 1537 2939 
Q 1816 3084 2150 3084 
Q 2853 3084 3261 2657 
Q 3669 2231 3669 1497 
Q 3669 778 3244 343 
Q 2819 -91 2113 -91 
Q 1303 -91 875 529 
Q 447 1150 447 2328 
Q 447 3434 972 4092 
Q 1497 4750 2381 4750 
Q 2619 4750 2861 4703 
Q 3103 4656 3366 4563 
z
" transform="scale(0.015625)"/>
       </defs>
       <use xlink:href="#DejaVuSans-19"/>
       <use xlink:href="#DejaVuSans-13" transform="translate(63.625 0)"/>
      </g>
     </g>
    </g>
    <g id="text_8">
     <!-- t (s) -->
     <g transform="translate(257.684531 203.795312) scale(0.1 -0.1)">
      <defs>
       <path id="DejaVuSans-57" d="M 1172 4494 
L 1172 3500 
L 2356 3500 
L 2356 3053 
L 1172 3053 
L 1172 1153 
Q 1172 725 1289 603 
Q 1406 481 1766 481 
L 2356 481 
L 2356 0 
L 1766 0 
Q 1100 0 847 248 
Q 594 497 594 1153 
L 594 3053 
L 172 3053 
L 172 3500 
L 594 3500 
L 594 4494 
L 1172 4494 
z
" transform="scale(0.015625)"/>
       <path id="DejaVuSans-3" transform="scale(0.015625)"/>
       <path id="DejaVuSans-b" d="M 1984 4856 
Q 1566 4138 1362 3434 
Q 1159 2731 1159 2009 
Q 1159 1288 1364 580 
Q 1569 -128 1984 -844 
L 1484 -844 
Q 1016 -109 783 600 
Q 550 1309 550 2009 
Q 550 2706 781 3412 
Q 1013 4119 1484 4856 
L 1984 4856 
z
" transform="scale(0.015625)"/>
       <path id="DejaVuSans-56" d="M 2834 3397 
L 2834 2853 
Q 2591 2978 2328 3040 
Q 2066 3103 1784 3103 
Q 1356 3103 1142 2972 
Q 928 2841 928 2578 
Q 928 2378 1081 2264 
Q 1234 2150 1697 2047 
L 1894 2003 
Q 2506 1872 2764 1633 
Q 3022 1394 3022 966 
Q 3022 478 2636 193 
Q 2250 -91 1575 -91 
Q 1294 -91 989 -36 
Q 684 19 347 128 
L 347 722 
Q 666 556 975 473 
Q 1284 391 1588 391 
Q 1994 391 2212 530 
Q 2431 669 2431 922 
Q 2431 1156 2273 1281 
Q 2116 1406 1581 1522 
L 1381 1569 
Q 847 1681 609 1914 
Q 372 2147 372 2553 
Q 372 3047 722 3315 
Q 1072 3584 1716 3584 
Q 2034 3584 2315 3537 
Q 2597 3491 2834 3397 
z
" transform="scale(0.015625)"/>
       <path id="DejaVuSans-c" d="M 513 4856 
L 1013 4856 
Q 1481 4119 1714 3412 
Q 1947 2706 1947 2009 
Q 1947 1309 1714 600 
Q 1481 -109 1013 -844 
L 513 -844 
Q 928 -128 1133 580 
Q 1338 1288 1338 2009 
Q 1338 2731 1133 3434 
Q 928 4138 513 4856 
z
" transform="scale(0.015625)"/>
      </defs>
      <use xlink:href="#DejaVuSans-57"/>
      <use xlink:href="#DejaVuSans-3" transform="translate(39.203125 0)"/>
      <use xlink:href="#DejaVuSans-b" transform="translate(70.984375 0)"/>
      <use xlink:href="#DejaVuSans-56" transform="translate(110 0)"/>
      <use xlink:href="#DejaVuSans-c" transform="translate(162.09375 0)"/>
     </g>
    </g>
   </g>
   <g id="matplotlib.axis_2">
    <g id="ytick_1">
     <g id="line2d_15">
      <path d="M 42.28 155.914392 
L 493.2 155.914392 
" clip-path="url(#pdbe9b8b3b5)" style="fill: none; stroke: #b0b0b0; stroke-width: 0.8; stroke-linecap: square"/>
     </g>
     <g id="line2d_16">
      <defs>
       <path id="me4886b23b9" d="M 0 0 
L -3.5 0 
" style="stroke: #000000; stroke-width: 0.8"/>
      </defs>
      <g>
       <use xlink:href="#me4886b23b9" x="42.28" y="155.914392" style="stroke: #000000; stroke-width: 0.8"/>
      </g>
     </g>
     <g id="text_9">
      <!-- −0.4 -->
      <g transform="translate(10.997188 159.71322) scale(0.1 -0.1)">
       <defs>
        <path id="DejaVuSans-c9c" d="M 678 2272 
L 4684 2272 
L 4684 1741 
L 678 1741 
L 678 2272 
z
" transform="scale(0.015625)"/>
        <path id="DejaVuSans-11" d="M 684 794 
L 1344 794 
L 1344 0 
L 684 0 
L 684 794 
z
" transform="scale(0.015625)"/>
       </defs>
       <use xlink:href="#DejaVuSans-c9c"/>
       <use xlink:href="#DejaVuSans-13" transform="translate(83.796875 0)"/>
       <use xlink:href="#DejaVuSans-11" transform="translate(147.421875 0)"/>
       <use xlink:href="#DejaVuSans-17" transform="translate(179.203125 0)"/>
      </g>
     </g>
    </g>
    <g id="ytick_2">
     <g id="line2d_17">
      <path d="M 42.28 133.99661 
L 493.2 133.99661 
" clip-path="url(#pdbe9b8b3b5)" style="fill: none; stroke: #b0b0b0; stroke-width: 0.8; stroke-linecap: square"/>
     </g>
     <g id="line2d_18">
      <g>
       <use xlink:href="#me4886b23b9" x="42.28" y="133.99661" style="stroke: #000000; stroke-width: 0.8"/>
      </g>
     </g>
     <g id="text_10">
      <!-- −0.2 -->
      <g transform="translate(10.997188 137.795438) scale(0.1 -0.1)">
       <use xlink:href="#DejaVuSans-c9c"/>
       <use xlink:href="#DejaVuSans-13" transform="translate(83.796875 0)"/>
       <use xlink:href="#DejaVuSans-11" transform="translate(147.421875 0)"/>
       <use xlink:href="#DejaVuSans-15" transform="translate(179.203125 0)"/>
      </g>
     </g>
    </g>
    <g id="ytick_3">
     <g id="line2d_19">
      <path d="M 42.28 112.078828 
L 493.2 112.078828 
" clip-path="url(#pdbe9b8b3b5)" style="fill: none; stroke: #b0b0b0; stroke-width: 0.8; stroke-linecap: square"/>
     </g>
     <g id="line2d_20">
      <g>
       <use xlink:href="#me4886b23b9" x="42.28" y="112.078828" style="stroke: #000000; stroke-width: 0.8"/>
      </g>
     </g>
     <g id="text_11">
      <!-- 0.0 -->
      <g transform="translate(19.376875 115.877656) scale(0.1 -0.1)">
       <use xlink:href="#DejaVuSans-13"/>
       <use xlink:href="#DejaVuSans-11" transform="translate(63.625 0)"/>
       <use xlink:href="#DejaVuSans-13" transform="translate(95.40625 0)"/>
      </g>
     </g>
    </g>
    <g id="ytick_4">
     <g id="line2d_21">
      <path d="M 42.28 90.161046 
L 493.2 90.161046 
" clip-path="url(#pdbe9b8b3b5)" style="fill: none; stroke: #b0b0b0; stroke-width: 0.8; stroke-linecap: square"/>
     </g>
     <g id="line2d_22">
      <g>
       <use xlink:href="#me4886b23b9" x="42.28" y="90.161046" style="stroke: #000000; stroke-width: 0.8"/>
      </g>
     </g>
     <g id="text_12">
      <!-- 0.2 -->
      <g transform="translate(19.376875 93.959874) scale(0.1 -0.1)">
       <use xlink:href="#DejaVuSans-13"/>
       <use xlink:href="#DejaVuSans-11" transform="translate(63.625 0)"/>
       <use xlink:href="#DejaVuSans-15" transform="translate(95.40625 0)"/>
      </g>
     </g>
    </g>
    <g id="ytick_5">
     <g id="line2d_23">
      <path d="M 42.28 68.243264 
L 493.2 68.243264 
" clip-path="url(#pdbe9b8b3b5)" style="fill: none; stroke: #b0b0b0; stroke-width: 0.8; stroke-linecap: square"/>
     </g>
     <g id="line2d_24">
      <g>
       <use xlink:href="#me4886b23b9" x="42.28" y="68.243264" style="stroke: #000000; stroke-width: 0.8"/>
      </g>
     </g>
     <g id="text_13">
      <!-- 0.4 -->
      <g transform="translate(19.376875 72.042093) scale(0.1 -0.1)">
       <use xlink:href="#DejaVuSans-13"/>
       <use xlink:href="#DejaVuSans-11" transform="translate(63.625 0)"/>
       <use xlink:href="#DejaVuSans-17" transform="translate(95.40625 0)"/>
      </g>
     </g>
    </g>
   </g>
   <g id="line2d_25">
    <path d="M 62.776364 54.698105 
L 64.201089 54.698079 
L 64.679005 168.985192 
L 65.152882 122.32455 
L 65.628157 54.698106 
L 66.57867 169.459566 
L 67.527366 54.698083 
L 68.003469 169.456841 
L 68.476297 164.926972 
L 68.951345 54.698076 
L 69.428687 54.698078 
L 69.902863 169.459542 
L 70.376679 169.459574 
L 70.855189 54.698075 
L 71.330264 54.698075 
L 71.802438 169.459579 
L 72.278678 81.714954 
L 72.753877 54.698107 
L 73.227547 169.45958 
L 73.700872 169.459581 
L 74.177311 54.698075 
L 74.653678 54.698075 
L 75.126732 169.459581 
L 75.605278 169.459581 
L 76.076911 54.698076 
L 76.554466 54.698075 
L 77.028753 169.459581 
L 77.503228 169.459581 
L 77.978069 136.718531 
L 78.454218 54.698075 
L 78.926652 55.718928 
L 79.402403 169.459581 
L 79.878828 169.459581 
L 80.352812 65.66331 
L 80.828864 55.307392 
L 81.305097 169.459581 
L 81.77745 132.018373 
L 82.253231 54.698076 
L 82.728855 79.331012 
L 83.202483 169.459581 
L 83.678571 167.778178 
L 84.155637 54.698075 
L 84.628851 54.698358 
L 85.101558 167.454315 
L 85.576221 169.45943 
L 86.052778 59.950864 
L 86.528953 100.758669 
L 87.004159 159.55245 
L 87.476892 131.58976 
L 87.954684 75.271039 
L 88.428352 88.070299 
L 88.903761 137.124886 
L 89.377402 138.196098 
L 89.852358 101.873764 
L 90.328185 90.643831 
L 90.804817 112.624697 
L 91.278938 127.171131 
L 91.752292 119.917739 
L 92.227474 108.040975 
L 92.703333 107.368914 
L 93.179186 113.194922 
L 93.655123 117.292749 
L 94.128114 116.426255 
L 94.604608 115.107276 
L 95.078316 114.33294 
L 95.554143 115.49254 
L 96.028125 114.964777 
L 96.50162 116.592365 
L 96.980484 117.384748 
L 97.453025 118.88181 
L 97.926521 119.299134 
L 98.404753 120.713411 
L 98.878644 121.109516 
L 99.351951 122.508942 
L 99.830141 122.857807 
L 100.303704 124.1362 
L 100.778656 122.854602 
L 101.253416 124.023916 
L 101.727735 124.487718 
L 102.202843 125.592239 
L 102.678958 125.605913 
L 103.154069 125.99545 
L 104.103202 124.962615 
L 105.054924 122.771744 
L 105.527474 119.949786 
L 106.003089 119.433326 
L 106.480449 119.516458 
L 107.42941 123.702235 
L 107.904996 128.361231 
L 108.376276 130.200096 
L 108.852628 133.131924 
L 109.32881 130.939933 
L 109.803187 131.372972 
L 110.278095 121.597482 
L 110.751416 125.701238 
L 111.22881 128.536095 
L 111.701144 132.946143 
L 112.176527 130.876652 
L 112.655388 131.242012 
L 113.127037 128.266138 
L 113.602854 129.316539 
L 114.080671 127.570609 
L 114.553587 129.072889 
L 115.029289 124.411182 
L 115.504278 127.83004 
L 115.97659 129.863738 
L 116.453274 134.106638 
L 116.927881 135.033156 
L 117.402679 137.811956 
L 117.879643 137.286982 
L 118.352868 138.621354 
L 118.830186 136.836388 
L 119.302486 136.846162 
L 119.777097 127.973708 
L 120.252564 127.769183 
L 120.727771 127.237122 
L 121.202498 128.998256 
L 121.678311 127.377213 
L 122.1547 128.098357 
L 122.627029 126.15086 
L 123.102144 127.254001 
L 123.577775 125.93747 
L 124.05225 127.691834 
L 124.529057 121.849835 
L 125.004504 124.945908 
L 125.480866 126.828967 
L 125.955566 130.688798 
L 126.427461 130.69341 
L 126.904792 132.224649 
L 127.379252 130.167824 
L 127.853293 129.314408 
L 128.326896 125.856949 
L 128.802696 124.108739 
L 129.278654 117.726595 
L 129.75416 118.161638 
L 130.227353 118.978581 
L 130.702384 121.061335 
L 131.178235 120.921147 
L 131.654482 121.73462 
L 132.128938 120.767615 
L 132.60538 121.513297 
L 133.077038 120.806241 
L 133.55428 121.939743 
L 134.028431 118.775786 
L 134.50166 120.650432 
L 134.978788 121.74949 
L 135.454126 124.056553 
L 135.930363 123.633558 
L 136.403501 123.492779 
L 136.879474 120.95133 
L 137.354759 119.24944 
L 137.82919 116.867746 
L 138.301175 115.68098 
L 138.777678 113.44481 
L 139.251979 113.351828 
L 139.726936 113.411789 
L 140.203087 113.59454 
L 141.626429 112.908983 
L 142.578935 112.835206 
L 143.053653 113.038229 
L 143.526664 112.824962 
L 144.004496 113.143901 
L 144.478386 113.303692 
L 144.954073 113.626791 
L 145.429657 113.592036 
L 145.902772 113.801012 
L 146.377184 113.69706 
L 146.855348 114.001885 
L 147.326404 113.963037 
L 147.804588 114.419226 
L 148.276827 113.5847 
L 148.751938 114.424133 
L 149.227961 114.966316 
L 149.703034 115.9539 
L 150.178178 115.84653 
L 150.653223 116.349633 
L 151.130352 115.981491 
L 151.604531 116.441997 
L 152.07704 116.042355 
L 152.554588 116.299764 
L 153.028279 114.340137 
L 153.504038 114.811847 
L 153.976916 115.026944 
L 154.452198 115.457974 
L 154.928066 115.103447 
L 155.404508 115.15777 
L 155.876861 114.953013 
L 156.353343 115.530787 
L 156.828724 115.932434 
L 157.304946 117.363576 
L 157.777045 117.475263 
L 158.727526 122.247692 
L 159.203873 126.222957 
L 159.680812 128.914042 
L 160.154338 133.535593 
L 160.629734 136.237582 
L 161.102806 140.315111 
L 161.579747 141.794554 
L 162.053497 144.297039 
L 162.529498 139.73141 
L 163.002643 138.610773 
L 163.955231 132.078144 
L 165.377419 118.269033 
L 165.853774 116.30961 
L 166.326707 116.262 
L 166.80469 119.664884 
L 167.278214 119.955551 
L 167.753091 125.66039 
L 168.228454 128.129529 
L 168.702289 132.648019 
L 169.176335 131.827414 
L 169.652395 134.892911 
L 170.126923 133.515105 
L 170.60612 137.181518 
L 171.077157 135.733436 
L 171.5522 139.09064 
L 172.028799 130.126158 
L 172.504389 135.704346 
L 172.980304 139.236612 
L 173.453647 146.348422 
L 173.927008 147.747599 
L 174.403204 152.261019 
L 174.878893 151.259508 
L 175.35151 153.956144 
L 175.827372 150.516984 
L 176.304358 149.905172 
L 176.778994 133.550147 
L 177.253526 133.50163 
L 177.73043 133.675605 
L 178.203265 137.71337 
L 178.676824 135.895037 
L 179.152915 136.898782 
L 179.628006 133.067442 
L 180.104165 133.293736 
L 180.577588 130.35815 
L 181.052651 130.989097 
L 181.526018 128.88983 
L 182.003845 125.706139 
L 182.478371 126.297012 
L 182.952848 131.753999 
L 183.43108 134.091701 
L 183.905354 139.306721 
L 184.378725 139.890966 
L 184.854916 143.277 
L 185.32994 140.733096 
L 185.803281 140.940169 
L 186.277613 126.984252 
L 186.752177 128.007037 
L 187.226846 128.504164 
L 187.705622 130.856418 
L 188.176985 127.24222 
L 188.655314 124.605461 
L 189.128641 119.888116 
L 191.502908 110.056001 
L 191.979359 109.085976 
L 192.451936 106.996974 
L 192.926341 105.996633 
L 193.40495 103.370726 
L 193.879877 102.976209 
L 194.353591 100.510143 
L 194.830601 100.873426 
L 195.302939 98.728499 
L 195.780007 104.457831 
L 196.254989 101.141502 
L 196.730195 99.422228 
L 197.205453 96.914391 
L 197.678211 98.809282 
L 198.15296 99.308198 
L 198.629498 101.769233 
L 199.105075 102.15189 
L 199.579319 103.818057 
L 200.053993 103.679496 
L 200.526838 107.082584 
L 201.001096 105.92161 
L 201.478593 105.146273 
L 201.954417 103.261132 
L 202.427722 102.929249 
L 202.90443 101.059373 
L 203.37674 100.41427 
L 203.854867 97.477369 
L 204.330358 96.265178 
L 204.801602 92.379613 
L 205.753044 88.504262 
L 206.227248 85.052232 
L 206.702483 77.265714 
L 207.177585 72.61811 
L 207.655056 64.97235 
L 208.129851 61.455256 
L 208.602965 55.304355 
L 209.077632 54.707223 
L 210.027687 54.707643 
L 210.97809 63.504241 
L 211.453014 63.825472 
L 211.928023 67.006465 
L 212.405394 65.164829 
L 212.877911 66.496459 
L 213.353872 63.224765 
L 213.827632 66.65201 
L 214.303382 65.989632 
L 214.778752 74.453858 
L 215.2525 88.280454 
L 215.730059 90.933155 
L 216.205585 83.601186 
L 216.676622 84.825831 
L 217.154385 85.281808 
L 217.626502 92.317872 
L 218.103095 95.495971 
L 218.579355 100.450608 
L 219.052884 101.543825 
L 219.529533 104.088173 
L 220.004635 107.335493 
L 220.480186 108.088477 
L 220.951443 107.052426 
L 221.427788 107.279959 
L 221.903954 107.037199 
L 222.377638 107.442254 
L 222.855621 106.631776 
L 223.328663 106.208929 
L 223.804231 104.212161 
L 224.752823 101.681818 
L 225.228554 99.507769 
L 225.703187 94.425443 
L 226.177012 92.403845 
L 226.653162 88.835545 
L 227.127619 90.674248 
L 227.601582 91.51329 
L 228.076384 96.343296 
L 228.554001 98.502486 
L 229.503992 106.859258 
L 229.977018 107.92728 
L 230.453245 106.967335 
L 230.926597 107.887629 
L 231.403093 109.401724 
L 232.353631 113.777884 
L 232.829714 115.167182 
L 233.30354 117.113479 
L 233.777367 118.009525 
L 234.253456 118.653965 
L 234.728084 119.956936 
L 235.20491 123.199053 
L 235.677481 124.687426 
L 236.152053 127.757907 
L 236.628425 128.643629 
L 237.102359 131.439626 
L 237.576717 131.929685 
L 238.051767 134.787503 
L 238.528891 135.171102 
L 239.002985 133.797159 
L 239.478847 134.73491 
L 239.955371 139.361544 
L 240.429539 139.886876 
L 240.903447 141.407251 
L 241.3795 137.094674 
L 241.853905 131.17801 
L 242.80482 111.642021 
L 243.276761 104.856026 
L 243.751585 100.708474 
L 244.227319 97.620434 
L 244.702685 90.910897 
L 245.177383 88.489587 
L 245.651615 82.242342 
L 246.129505 80.974186 
L 246.605316 75.302495 
L 247.078734 75.114337 
L 247.553013 71.177102 
L 248.02769 73.493236 
L 248.504248 81.777388 
L 248.976776 84.082588 
L 249.452866 78.90926 
L 249.929872 79.740756 
L 250.402259 78.285768 
L 250.879833 84.161985 
L 251.353883 86.973154 
L 251.827295 93.562167 
L 252.301698 96.718477 
L 253.253217 107.204884 
L 253.729366 109.050823 
L 254.202609 109.039067 
L 254.677573 110.078496 
L 256.103656 115.29959 
L 256.577499 116.079084 
L 257.053615 117.132285 
L 257.527262 116.974436 
L 258.005034 115.957196 
L 258.478962 115.707486 
L 258.951693 116.380291 
L 259.427212 116.277244 
L 259.905626 116.463132 
L 260.379122 115.833085 
L 260.852524 115.419169 
L 264.178669 109.154697 
L 264.655475 107.704663 
L 265.128103 107.009238 
L 265.601492 105.538225 
L 266.078646 105.20231 
L 266.556369 103.78559 
L 267.029657 103.724615 
L 267.503595 104.267924 
L 267.979949 103.149798 
L 268.455337 98.885664 
L 268.926523 96.769157 
L 269.402925 92.344227 
L 269.8778 92.327227 
L 270.352016 90.96527 
L 271.30441 96.702573 
L 271.778305 101.749667 
L 272.251732 108.675739 
L 273.201602 114.527941 
L 273.676984 117.119346 
L 274.152462 122.281519 
L 274.629747 125.847792 
L 275.104574 132.854848 
L 275.577702 136.896673 
L 276.054863 145.2142 
L 276.529233 149.24478 
L 277.003761 151.971798 
L 277.477159 156.79799 
L 277.951253 167.045942 
L 278.427777 169.459567 
L 284.12834 169.45958 
L 284.602559 161.466816 
L 285.07696 102.811838 
L 285.553801 67.69695 
L 286.028813 80.04141 
L 286.502513 116.731606 
L 286.980996 118.29231 
L 287.45445 96.67022 
L 287.928742 87.470271 
L 288.402838 86.278337 
L 288.877608 93.867154 
L 289.352496 94.503854 
L 289.827729 95.755679 
L 290.306212 91.330822 
L 290.779603 91.481222 
L 291.253946 95.165632 
L 291.726257 95.304047 
L 292.203384 91.02405 
L 292.677252 92.332113 
L 293.154848 92.968963 
L 293.629285 98.022703 
L 294.104218 101.637279 
L 294.576916 106.276211 
L 296.003608 116.10384 
L 296.480987 118.609718 
L 296.954562 123.077298 
L 297.430603 125.494237 
L 297.90393 130.838371 
L 298.379892 133.06565 
L 298.854676 139.458827 
L 299.328033 142.335094 
L 299.802422 149.777163 
L 300.278452 152.622957 
L 300.754041 153.319927 
L 301.231178 156.534926 
L 301.705881 164.79495 
L 302.17769 167.712689 
L 302.653256 169.459581 
L 307.877703 169.459581 
L 308.353974 165.120242 
L 308.828415 107.187876 
L 309.304016 74.562379 
L 309.778272 94.090852 
L 310.254507 132.680292 
L 310.72932 126.150072 
L 311.201628 95.5146 
L 311.677548 86.634613 
L 312.154705 92.714327 
L 312.627614 102.300448 
L 313.579334 92.544812 
L 314.051818 84.387559 
L 314.529311 83.829733 
L 315.002633 86.654933 
L 315.478148 83.861989 
L 315.954866 74.267894 
L 316.426673 70.46512 
L 316.902939 62.864177 
L 317.378202 60.069456 
L 317.853699 54.698095 
L 324.504542 54.698075 
L 324.97947 64.598115 
L 325.452256 110.471745 
L 325.928819 141.987755 
L 326.404255 153.120354 
L 326.880142 143.870104 
L 327.82707 121.024375 
L 328.307382 115.611603 
L 328.778411 112.931164 
L 329.253388 111.305742 
L 329.72923 110.139486 
L 331.62914 101.490796 
L 332.104666 98.503669 
L 332.578682 97.740388 
L 333.055466 96.106209 
L 333.529681 97.526863 
L 334.004258 102.432631 
L 334.479011 104.083249 
L 334.955179 102.364083 
L 335.428926 102.545942 
L 335.90236 101.585467 
L 336.377765 102.873532 
L 336.855247 102.723115 
L 337.329955 103.957783 
L 337.804128 103.65309 
L 338.277087 104.554586 
L 338.75223 106.037869 
L 339.226832 105.856013 
L 339.702027 103.686006 
L 340.179361 103.00282 
L 340.653454 101.195218 
L 341.126513 101.2815 
L 341.602076 99.898755 
L 342.07843 100.378252 
L 342.551875 99.053073 
L 343.029855 99.709764 
L 343.505112 101.238418 
L 343.97907 100.339372 
L 344.454192 95.608191 
L 344.928833 94.770119 
L 345.404175 92.600042 
L 345.879088 94.920335 
L 346.354098 95.38047 
L 346.829581 98.74663 
L 347.304475 100.003897 
L 347.778876 102.95548 
L 348.254221 107.329206 
L 348.728916 109.147657 
L 349.203994 109.647081 
L 349.679483 110.899834 
L 350.626529 114.957523 
L 351.101681 117.870278 
L 351.577048 119.357532 
L 352.05242 122.329892 
L 352.526911 123.315949 
L 353.003967 123.24604 
L 353.478872 125.089271 
L 353.954574 130.516837 
L 354.427336 132.293802 
L 354.90339 136.592434 
L 355.378258 137.22543 
L 355.854169 140.774687 
L 356.327266 140.693314 
L 356.80268 143.143599 
L 357.276768 142.129258 
L 357.755023 138.479878 
L 358.227809 137.897793 
L 358.705557 140.785795 
L 359.179463 141.179903 
L 359.656329 144.018777 
L 360.130613 143.953695 
L 360.60474 146.47137 
L 361.080875 146.092265 
L 361.553295 148.133004 
L 362.029513 147.323522 
L 362.504543 143.735825 
L 362.978121 142.72563 
L 363.453202 144.004648 
L 363.927251 142.859785 
L 364.404519 142.857187 
L 364.878534 140.099332 
L 365.353397 138.303406 
L 365.827883 134.243861 
L 366.304628 131.269614 
L 366.777263 127.290519 
L 367.25443 121.324698 
L 367.729572 119.300293 
L 368.202462 121.07642 
L 368.679009 122.09329 
L 369.15248 125.127798 
L 369.629703 124.933766 
L 370.102306 127.094699 
L 370.57714 126.303931 
L 371.054115 128.489973 
L 371.529057 127.489054 
L 372.004156 126.004009 
L 372.478686 127.608408 
L 372.952642 133.725544 
L 373.429282 136.619029 
L 373.904738 142.242381 
L 374.378609 143.516762 
L 374.852561 147.842351 
L 375.328436 147.737086 
L 375.80544 150.341139 
L 376.277312 147.921441 
L 376.754801 137.386173 
L 377.229318 132.106012 
L 377.704606 132.622949 
L 378.180221 130.257199 
L 378.654115 130.638367 
L 379.129442 127.656386 
L 379.60479 128.021033 
L 380.078883 125.825432 
L 380.55195 126.893584 
L 381.028433 125.591957 
L 381.503928 123.552569 
L 381.977627 124.275877 
L 382.454167 128.651133 
L 382.930374 130.345562 
L 383.401963 134.029357 
L 383.878028 134.1312 
L 384.35425 135.975228 
L 384.831 133.503199 
L 385.304824 132.435337 
L 385.781498 128.421195 
L 386.253059 122.894899 
L 386.728816 122.439758 
L 387.20177 126.985002 
L 387.678775 128.360842 
L 388.15365 131.489308 
L 388.63055 130.668157 
L 389.101905 132.140271 
L 389.579669 130.32494 
L 390.055137 131.066191 
L 390.528548 128.467504 
L 391.003316 123.67959 
L 391.480667 122.606673 
L 391.95363 125.259713 
L 392.428168 125.028026 
L 392.902124 125.377838 
L 393.378971 122.765927 
L 393.854505 121.783991 
L 394.329773 119.72599 
L 394.8051 119.617793 
L 395.281371 118.696361 
L 395.753386 117.45362 
L 396.228953 117.749177 
L 396.701686 120.114559 
L 397.17655 120.472864 
L 397.656386 121.905617 
L 398.130646 121.271556 
L 398.603263 122.118189 
L 399.079077 121.249781 
L 399.554883 122.066066 
L 400.027646 121.038344 
L 400.502286 118.843434 
L 400.980247 118.439661 
L 401.454647 119.964933 
L 401.92928 119.735769 
L 402.40475 119.944433 
L 402.877594 118.501708 
L 403.353023 117.647631 
L 403.829604 116.052309 
L 404.778507 114.126383 
L 405.25233 112.910477 
L 405.729329 112.500655 
L 406.205401 112.511994 
L 406.679726 112.357458 
L 408.102967 111.428595 
L 409.055551 111.420427 
L 409.527094 111.631303 
L 410.003298 111.985016 
L 411.426781 112.363513 
L 411.902193 112.685928 
L 412.380106 112.812228 
L 412.853767 113.058427 
L 413.330843 112.964273 
L 413.8035 113.096678 
L 414.280639 112.941271 
L 414.752837 112.576778 
L 415.227257 112.689834 
L 415.701807 113.271148 
L 416.651539 112.780823 
L 417.127795 112.410992 
L 417.603251 112.639367 
L 418.554715 112.588518 
L 419.02765 112.247747 
L 419.502779 112.114544 
L 420.453127 112.419416 
L 421.403165 111.936049 
L 422.82931 112.107547 
L 423.3053 111.917939 
L 423.777855 111.917396 
L 424.252698 112.15504 
L 424.726693 112.127134 
L 425.204183 111.9046 
L 425.676758 111.899056 
L 426.629597 112.126474 
L 427.581015 111.956803 
L 429.479575 112.022 
L 430.904111 112.057955 
L 451.330677 112.117629 
L 454.176946 112.28152 
L 455.130542 112.471151 
L 455.605475 112.639284 
L 456.080317 112.929465 
L 456.552115 113.362156 
L 457.027694 114.138038 
L 457.502009 116.220679 
L 457.978112 119.08002 
L 458.454266 124.497124 
L 458.926878 134.886974 
L 459.879318 169.459575 
L 467.955928 169.45958 
L 468.427913 148.580613 
L 468.906956 54.698088 
L 469.378781 55.627414 
L 469.854536 169.452513 
L 470.327822 160.329605 
L 470.803537 85.438607 
L 471.278581 78.930616 
L 471.754941 118.990854 
L 472.227488 126.012249 
L 472.703636 121.856211 
L 472.703636 121.856211 
" clip-path="url(#pdbe9b8b3b5)" style="fill: none; stroke: #1f77b4; stroke-width: 1.5; stroke-linecap: square"/>
   </g>
   <g id="line2d_26">
    <path d="M 62.776364 54.698075 
L 63.250877 54.698075 
L 63.728212 83.252147 
L 64.201089 103.535556 
L 64.679005 107.986887 
L 65.152882 110.325873 
L 65.628157 111.101407 
L 66.104136 111.629829 
L 67.051958 112.016879 
L 68.951345 112.249489 
L 73.700872 112.607082 
L 75.126732 112.845102 
L 77.028753 113.497114 
L 78.454218 114.521033 
L 78.926652 114.916737 
L 80.828864 117.217573 
L 81.305097 117.652392 
L 81.77745 117.689201 
L 82.253231 117.146156 
L 82.728855 116.206499 
L 83.202483 114.539889 
L 84.155637 112.954089 
L 85.576221 111.528783 
L 86.052778 111.124013 
L 87.476892 110.491801 
L 87.954684 110.435087 
L 88.428352 110.494881 
L 89.377402 111.089941 
L 90.328185 112.539367 
L 91.278938 115.049762 
L 94.128114 126.34147 
L 94.604608 127.94001 
L 95.554143 129.436057 
L 96.028125 129.551749 
L 96.50162 129.275163 
L 96.980484 128.804081 
L 100.303704 122.826922 
L 101.253416 122.004028 
L 101.727735 121.865453 
L 102.202843 121.910332 
L 102.678958 122.140412 
L 103.154069 122.763343 
L 103.629861 123.154273 
L 104.577956 122.206828 
L 105.054924 121.789792 
L 105.527474 121.657539 
L 106.003089 121.75572 
L 106.480449 122.038004 
L 107.42941 123.390496 
L 108.376276 125.769304 
L 109.32881 129.309555 
L 111.701144 141.643684 
L 112.176527 142.675882 
L 112.655388 142.295638 
L 113.127037 140.187229 
L 113.602854 134.351756 
L 114.080671 134.610774 
L 115.504278 135.802357 
L 116.453274 136.298236 
L 116.927881 136.367166 
L 117.879643 136.120998 
L 118.830186 135.323722 
L 121.202498 132.209547 
L 122.1547 131.460133 
L 122.627029 131.353854 
L 123.102144 131.468851 
L 123.577775 131.774709 
L 125.004504 135.442894 
L 125.480866 135.929526 
L 125.955566 136.045632 
L 126.427461 135.73238 
L 127.379252 133.79181 
L 130.702384 122.154308 
L 131.654482 120.450838 
L 132.128938 120.157582 
L 132.60538 120.224321 
L 133.077038 120.642714 
L 134.028431 122.969539 
L 134.50166 126.092728 
L 134.978788 127.423239 
L 135.454126 128.05544 
L 135.930363 127.827607 
L 136.879474 125.68327 
L 139.251979 116.933245 
L 141.152171 111.972558 
L 141.626429 111.394588 
L 142.102269 110.996128 
L 142.578935 111.027215 
L 143.053653 111.592101 
L 143.526664 112.467267 
L 144.004496 114.313744 
L 144.478386 114.571849 
L 144.954073 114.013671 
L 145.902772 113.501496 
L 146.377184 113.453851 
L 147.326404 113.646458 
L 148.276827 114.169009 
L 149.227961 114.997764 
L 150.653223 117.076058 
L 151.130352 117.836659 
L 152.07704 119.83683 
L 152.554588 120.906328 
L 153.028279 121.459941 
L 153.504038 121.491402 
L 153.976916 120.678956 
L 155.404508 112.855599 
L 155.876861 111.727649 
L 156.353343 111.135238 
L 156.828724 111.449579 
L 157.304946 113.041628 
L 157.777045 115.214686 
L 158.727526 123.520794 
L 159.203873 129.668475 
L 160.629734 142.719706 
L 161.102806 144.797952 
L 161.579747 144.929951 
L 162.053497 143.533162 
L 162.529498 141.677634 
L 163.002643 138.724532 
L 163.955231 134.002657 
L 164.429912 132.676993 
L 165.377419 126.639827 
L 165.853774 124.156878 
L 166.326707 123.157366 
L 166.80469 122.868042 
L 167.278214 123.317109 
L 168.228454 126.135669 
L 169.176335 131.052111 
L 171.077157 146.23295 
L 171.5522 151.003837 
L 172.504389 157.103923 
L 172.980304 157.988549 
L 173.453647 156.875399 
L 173.927008 154.116814 
L 174.403204 147.785013 
L 174.878893 143.72833 
L 175.35151 144.662751 
L 176.304358 145.96685 
L 176.778994 146.296108 
L 177.253526 146.448723 
L 177.73043 146.325337 
L 178.676824 145.224456 
L 179.628006 143.127795 
L 182.003845 135.794394 
L 183.905354 131.102686 
L 184.854916 129.612622 
L 185.803281 144.726991 
L 186.277613 147.458722 
L 186.752177 147.909659 
L 187.226846 146.272086 
L 188.176985 138.627336 
L 188.655314 133.50711 
L 190.551825 119.022428 
L 191.029589 116.684886 
L 191.502908 113.781838 
L 191.979359 111.67001 
L 193.879877 100.349038 
L 195.780007 84.408277 
L 196.254989 80.859865 
L 196.730195 79.613106 
L 197.205453 80.800896 
L 197.678211 84.358412 
L 198.629498 100.277742 
L 199.105075 103.778878 
L 200.053993 107.617851 
L 200.526838 108.400315 
L 201.001096 108.725164 
L 201.478593 108.479714 
L 202.427722 106.448663 
L 203.37674 102.47979 
L 204.330358 96.429603 
L 206.227248 77.235681 
L 206.702483 70.525617 
L 208.129851 56.600666 
L 208.602965 54.698075 
L 209.077632 54.698075 
L 209.554742 55.566574 
L 210.027687 58.224484 
L 211.928023 76.86045 
L 212.405394 72.257781 
L 213.827632 55.44788 
L 214.303382 54.698075 
L 215.2525 54.698075 
L 215.730059 55.056548 
L 217.626502 78.51347 
L 218.103095 85.071533 
L 219.529533 97.749812 
L 220.004635 101.456713 
L 221.427788 108.180951 
L 221.903954 109.979199 
L 222.855621 111.733283 
L 223.328663 111.791891 
L 223.804231 111.014438 
L 224.279623 109.661675 
L 225.228554 103.526266 
L 226.177012 92.160441 
L 226.653162 87.270697 
L 227.127619 85.221741 
L 227.601582 84.41423 
L 228.076384 85.030746 
L 229.027457 89.287208 
L 230.453245 99.114733 
L 230.926597 101.803721 
L 231.403093 105.258584 
L 231.879056 107.754181 
L 232.353631 110.987699 
L 232.829714 113.375273 
L 233.30354 116.558174 
L 233.777367 118.971601 
L 234.253456 122.239724 
L 234.728084 124.712629 
L 235.20491 127.960081 
L 236.628425 134.374763 
L 237.102359 135.298839 
L 237.576717 134.973737 
L 238.051767 132.874754 
L 238.528891 129.899741 
L 239.002985 123.952233 
L 239.478847 130.427199 
L 239.955371 143.11036 
L 240.429539 149.48599 
L 240.903447 153.748498 
L 241.3795 153.732808 
L 241.853905 149.787762 
L 242.329231 144.437712 
L 244.227319 106.985208 
L 244.702685 94.81972 
L 245.177383 85.606534 
L 245.651615 73.872495 
L 246.605316 59.198448 
L 247.078734 56.970047 
L 247.553013 58.571211 
L 248.02769 62.903021 
L 248.976776 79.891904 
L 249.452866 86.0202 
L 250.402259 72.533474 
L 250.879833 70.708031 
L 251.353883 71.662339 
L 251.827295 74.459661 
L 254.202609 101.886705 
L 256.577499 120.883726 
L 257.053615 123.940174 
L 257.527262 125.481149 
L 258.005034 125.974476 
L 258.478962 124.719839 
L 258.951693 120.234884 
L 259.427212 114.466704 
L 259.905626 114.040323 
L 260.852524 116.483396 
L 261.328253 116.74971 
L 261.802497 116.515601 
L 262.277369 115.970464 
L 263.227341 113.775507 
L 266.556369 102.550442 
L 267.503595 100.810034 
L 267.979949 100.619902 
L 268.455337 101.044103 
L 268.926523 101.951598 
L 269.402925 104.05807 
L 269.8778 100.25997 
L 270.352016 84.841472 
L 270.830217 79.026476 
L 271.30441 77.702098 
L 271.778305 80.27939 
L 274.629747 118.510198 
L 275.577702 135.840427 
L 276.529233 160.82413 
L 277.003761 169.459581 
L 278.90341 169.459581 
L 279.379004 163.926903 
L 279.854283 147.041792 
L 280.329611 159.925529 
L 280.802298 169.459581 
L 282.703764 169.459581 
L 283.17852 167.398644 
L 283.653525 151.151882 
L 285.07696 120.708183 
L 285.553801 111.941791 
L 286.028813 105.719733 
L 287.45445 81.783487 
L 288.402838 71.154648 
L 288.877608 71.556416 
L 289.352496 79.605387 
L 289.827729 92.420912 
L 290.306212 97.418814 
L 291.253946 82.318378 
L 291.726257 80.173927 
L 292.203384 80.610624 
L 292.677252 82.792401 
L 296.003608 112.612605 
L 296.480987 116.100688 
L 297.90393 132.656072 
L 298.379892 138.997989 
L 299.802422 168.365076 
L 300.278452 169.459581 
L 302.17769 169.459581 
L 303.603169 140.676309 
L 304.554961 169.459581 
L 306.926479 169.459581 
L 307.877703 146.044623 
L 308.353974 134.99397 
L 309.304016 122.446508 
L 311.677548 103.339027 
L 312.627614 90.143668 
L 314.051818 54.698075 
L 316.426673 54.698075 
L 317.378202 79.307853 
L 319.279014 56.329209 
L 319.754086 54.698075 
L 322.12943 54.698075 
L 322.604504 58.768857 
L 323.079745 65.291652 
L 323.554082 74.207589 
L 325.452256 99.633733 
L 326.880142 110.471149 
L 327.352326 113.163444 
L 327.82707 114.489985 
L 328.307382 115.176215 
L 328.778411 114.732915 
L 329.253388 112.615676 
L 329.72923 109.716555 
L 330.677065 98.199757 
L 331.154011 95.445518 
L 331.62914 95.067335 
L 332.104666 94.87517 
L 332.578682 94.929529 
L 333.529681 95.54412 
L 337.329955 99.827274 
L 337.804128 100.300235 
L 339.702027 101.440491 
L 341.126513 101.814035 
L 342.551875 101.932651 
L 343.97907 101.949045 
L 344.454192 98.93844 
L 345.404175 85.328043 
L 345.879088 83.373299 
L 346.354098 83.651155 
L 346.829581 85.443978 
L 349.203994 103.177426 
L 349.679483 105.720218 
L 350.154566 108.882721 
L 350.626529 111.166533 
L 352.526911 123.364749 
L 353.478872 132.476218 
L 354.90339 151.736216 
L 355.854169 160.594427 
L 356.327266 161.129983 
L 356.80268 157.601126 
L 357.276768 151.509753 
L 357.755023 138.659654 
L 358.227809 135.380096 
L 360.130613 143.550549 
L 360.60474 146.193849 
L 362.029513 151.39292 
L 362.504543 152.333462 
L 362.978121 152.458897 
L 363.453202 151.805214 
L 363.927251 150.713689 
L 364.878534 146.472919 
L 366.304628 137.277759 
L 368.202462 127.717627 
L 368.679009 126.72026 
L 369.15248 126.248632 
L 369.629703 126.64463 
L 370.102306 128.334832 
L 370.57714 130.583501 
L 371.529057 139.467986 
L 372.004156 140.878885 
L 373.429282 143.793438 
L 373.904738 144.571775 
L 374.852561 145.220469 
L 375.328436 145.195784 
L 376.277312 144.434775 
L 377.229318 142.810678 
L 380.55195 134.484333 
L 381.977627 132.249814 
L 382.454167 131.764818 
L 382.930374 131.574723 
L 383.401963 131.562923 
L 383.878028 131.738664 
L 384.831 132.756169 
L 385.304824 132.772404 
L 385.781498 132.486991 
L 386.253059 132.59927 
L 386.728816 132.945654 
L 388.15365 134.954202 
L 389.101905 135.802821 
L 389.579669 135.851934 
L 390.055137 135.541255 
L 390.528548 135.010899 
L 391.480667 132.861797 
L 393.854505 124.859816 
L 395.281371 121.551356 
L 395.753386 120.713315 
L 396.701686 119.956182 
L 397.17655 119.911903 
L 397.656386 120.124854 
L 398.130646 120.502101 
L 398.603263 121.330668 
L 399.554883 125.658387 
L 400.027646 126.364802 
L 400.502286 126.472767 
L 400.980247 126.06811 
L 401.92928 124.109436 
L 403.353023 120.029659 
L 403.829604 118.944449 
L 404.30457 117.577681 
L 406.679726 112.961655 
L 407.152205 112.149175 
L 408.579666 110.611952 
L 409.055551 110.242053 
L 409.527094 110.084699 
L 410.003298 110.069242 
L 410.479667 110.230304 
L 411.426781 111.313215 
L 412.380106 113.304035 
L 412.853767 113.721358 
L 413.8035 113.954773 
L 414.752837 113.787668 
L 416.177941 113.327878 
L 417.603251 112.845774 
L 421.878777 111.706092 
L 423.3053 111.241862 
L 424.252698 111.118025 
L 424.726693 111.196269 
L 426.154221 112.078575 
L 459.401929 112.169733 
L 462.254728 112.317544 
L 463.679887 112.527584 
L 464.629203 112.887685 
L 465.104397 113.344437 
L 472.703636 113.344437 
L 472.703636 113.344437 
" clip-path="url(#pdbe9b8b3b5)" style="fill: none; stroke-dasharray: 9.6,2.4,1.5,2.4; stroke-dashoffset: 0; stroke: #ff7f0e; stroke-width: 1.5"/>
   </g>
   <g id="line2d_27">
    <path d="M 42.28 169.459581 
L 493.2 169.459581 
" clip-path="url(#pdbe9b8b3b5)" style="fill: none; stroke-dasharray: 3.7,1.6; stroke-dashoffset: 0; stroke: #ff0000"/>
   </g>
   <g id="line2d_28">
    <path d="M 42.28 54.698075 
L 493.2 54.698075 
" clip-path="url(#pdbe9b8b3b5)" style="fill: none; stroke-dasharray: 3.7,1.6; stroke-dashoffset: 0; stroke: #ff0000"/>
   </g>
   <g id="patch_3">
    <path d="M 42.28 175.197656 
L 42.28 48.96 
" style="fill: none; stroke: #000000; stroke-width: 0.8; stroke-linejoin: miter; stroke-linecap: square"/>
   </g>
   <g id="patch_4">
    <path d="M 493.2 175.197656 
L 493.2 48.96 
" style="fill: none; stroke: #000000; stroke-width: 0.8; stroke-linejoin: miter; stroke-linecap: square"/>
   </g>
   <g id="patch_5">
    <path d="M 42.28 175.197656 
L 493.2 175.197656 
" style="fill: none; stroke: #000000; stroke-width: 0.8; stroke-linejoin: miter; stroke-linecap: square"/>
   </g>
   <g id="patch_6">
    <path d="M 42.28 48.96 
L 493.2 48.96 
" style="fill: none; stroke: #000000; stroke-width: 0.8; stroke-linejoin: miter; stroke-linecap: square"/>
   </g>
   <g id="text_14">
    <!-- $\delta$ (rad) -->
    <g transform="translate(247.52 42.96) scale(0.12 -0.12)">
     <defs>
      <path id="DejaVuSans-Oblique-348" d="M 3472 4053 
Q 3197 4272 2450 4272 
Q 1659 4272 1588 3906 
Q 1531 3619 2328 3469 
Q 2953 3353 3253 3003 
Q 3616 2581 3447 1716 
Q 3284 888 2763 400 
Q 2238 -91 1488 -91 
Q 741 -91 406 400 
Q 72 888 241 1747 
Q 363 2384 891 2900 
Q 1097 3100 1353 3213 
Q 913 3459 1000 3900 
Q 1166 4750 2544 4750 
Q 3234 4750 3566 4531 
L 3472 4053 
z
M 1753 3056 
Q 1525 2966 1306 2738 
Q 969 2384 847 1747 
Q 722 1113 919 756 
Q 1119 397 1584 397 
Q 2044 397 2381 759 
Q 2722 1122 2838 1716 
Q 2956 2338 2731 2638 
Q 2491 2959 2103 2994 
Q 1906 3013 1753 3056 
z
" transform="scale(0.015625)"/>
      <path id="DejaVuSans-55" d="M 2631 2963 
Q 2534 3019 2420 3045 
Q 2306 3072 2169 3072 
Q 1681 3072 1420 2755 
Q 1159 2438 1159 1844 
L 1159 0 
L 581 0 
L 581 3500 
L 1159 3500 
L 1159 2956 
Q 1341 3275 1631 3429 
Q 1922 3584 2338 3584 
Q 2397 3584 2469 3576 
Q 2541 3569 2628 3553 
L 2631 2963 
z
" transform="scale(0.015625)"/>
      <path id="DejaVuSans-44" d="M 2194 1759 
Q 1497 1759 1228 1600 
Q 959 1441 959 1056 
Q 959 750 1161 570 
Q 1363 391 1709 391 
Q 2188 391 2477 730 
Q 2766 1069 2766 1631 
L 2766 1759 
L 2194 1759 
z
M 3341 1997 
L 3341 0 
L 2766 0 
L 2766 531 
Q 2569 213 2275 61 
Q 1981 -91 1556 -91 
Q 1019 -91 701 211 
Q 384 513 384 1019 
Q 384 1609 779 1909 
Q 1175 2209 1959 2209 
L 2766 2209 
L 2766 2266 
Q 2766 2663 2505 2880 
Q 2244 3097 1772 3097 
Q 1472 3097 1187 3025 
Q 903 2953 641 2809 
L 641 3341 
Q 956 3463 1253 3523 
Q 1550 3584 1831 3584 
Q 2591 3584 2966 3190 
Q 3341 2797 3341 1997 
z
" transform="scale(0.015625)"/>
      <path id="DejaVuSans-47" d="M 2906 2969 
L 2906 4863 
L 3481 4863 
L 3481 0 
L 2906 0 
L 2906 525 
Q 2725 213 2448 61 
Q 2172 -91 1784 -91 
Q 1150 -91 751 415 
Q 353 922 353 1747 
Q 353 2572 751 3078 
Q 1150 3584 1784 3584 
Q 2172 3584 2448 3432 
Q 2725 3281 2906 2969 
z
M 947 1747 
Q 947 1113 1208 752 
Q 1469 391 1925 391 
Q 2381 391 2643 752 
Q 2906 1113 2906 1747 
Q 2906 2381 2643 2742 
Q 2381 3103 1925 3103 
Q 1469 3103 1208 2742 
Q 947 2381 947 1747 
z
" transform="scale(0.015625)"/>
     </defs>
     <use xlink:href="#DejaVuSans-Oblique-348" transform="translate(0 0.015625)"/>
     <use xlink:href="#DejaVuSans-3" transform="translate(61.181641 0.015625)"/>
     <use xlink:href="#DejaVuSans-b" transform="translate(92.96875 0.015625)"/>
     <use xlink:href="#DejaVuSans-55" transform="translate(131.982422 0.015625)"/>
     <use xlink:href="#DejaVuSans-44" transform="translate(173.095703 0.015625)"/>
     <use xlink:href="#DejaVuSans-47" transform="translate(234.375 0.015625)"/>
     <use xlink:href="#DejaVuSans-c" transform="translate(297.851562 0.015625)"/>
    </g>
   </g>
   <g id="legend_1">
    <g id="patch_7">
     <path d="M 432.6 86.961562 
L 486.2 86.961562 
Q 488.2 86.961562 488.2 84.961562 
L 488.2 55.96 
Q 488.2 53.96 486.2 53.96 
L 432.6 53.96 
Q 430.6 53.96 430.6 55.96 
L 430.6 84.961562 
Q 430.6 86.961562 432.6 86.961562 
z
" style="fill: #ffffff; opacity: 0.8; stroke: #cccccc; stroke-linejoin: miter"/>
    </g>
    <g id="line2d_29">
     <path d="M 434.6 62.058437 
L 444.6 62.058437 
L 454.6 62.058437 
" style="fill: none; stroke: #1f77b4; stroke-width: 1.5; stroke-linecap: square"/>
    </g>
    <g id="text_15">
     <!-- $\delta_{cmd}$ -->
     <g transform="translate(462.6 65.558437) scale(0.1 -0.1)">
      <defs>
       <path id="DejaVuSans-Oblique-46" d="M 3431 3366 
L 3316 2797 
Q 3109 2947 2876 3022 
Q 2644 3097 2394 3097 
Q 2119 3097 1870 3000 
Q 1622 2903 1453 2725 
Q 1184 2453 1037 2087 
Q 891 1722 891 1331 
Q 891 859 1127 628 
Q 1363 397 1844 397 
Q 2081 397 2348 469 
Q 2616 541 2906 684 
L 2797 116 
Q 2547 13 2283 -39 
Q 2019 -91 1741 -91 
Q 1044 -91 669 257 
Q 294 606 294 1253 
Q 294 1797 489 2255 
Q 684 2713 1069 3078 
Q 1331 3328 1684 3456 
Q 2038 3584 2456 3584 
Q 2700 3584 2940 3529 
Q 3181 3475 3431 3366 
z
" transform="scale(0.015625)"/>
       <path id="DejaVuSans-Oblique-50" d="M 5747 2113 
L 5338 0 
L 4763 0 
L 5166 2094 
Q 5191 2228 5203 2325 
Q 5216 2422 5216 2491 
Q 5216 2772 5059 2928 
Q 4903 3084 4622 3084 
Q 4203 3084 3875 2770 
Q 3547 2456 3450 1953 
L 3066 0 
L 2491 0 
L 2900 2094 
Q 2925 2209 2937 2307 
Q 2950 2406 2950 2484 
Q 2950 2769 2794 2926 
Q 2638 3084 2363 3084 
Q 1938 3084 1609 2770 
Q 1281 2456 1184 1953 
L 800 0 
L 225 0 
L 909 3500 
L 1484 3500 
L 1375 2956 
Q 1609 3263 1923 3423 
Q 2238 3584 2597 3584 
Q 2978 3584 3223 3384 
Q 3469 3184 3519 2828 
Q 3781 3197 4126 3390 
Q 4472 3584 4856 3584 
Q 5306 3584 5551 3325 
Q 5797 3066 5797 2591 
Q 5797 2488 5784 2364 
Q 5772 2241 5747 2113 
z
" transform="scale(0.015625)"/>
       <path id="DejaVuSans-Oblique-47" d="M 2675 525 
Q 2444 222 2128 65 
Q 1813 -91 1428 -91 
Q 903 -91 598 267 
Q 294 625 294 1247 
Q 294 1766 478 2236 
Q 663 2706 1013 3078 
Q 1244 3325 1534 3454 
Q 1825 3584 2144 3584 
Q 2481 3584 2739 3421 
Q 2997 3259 3138 2956 
L 3513 4863 
L 4091 4863 
L 3144 0 
L 2566 0 
L 2675 525 
z
M 891 1350 
Q 891 897 1095 644 
Q 1300 391 1663 391 
Q 1931 391 2161 520 
Q 2391 650 2566 903 
Q 2750 1166 2856 1509 
Q 2963 1853 2963 2188 
Q 2963 2622 2758 2865 
Q 2553 3109 2194 3109 
Q 1922 3109 1687 2981 
Q 1453 2853 1288 2613 
Q 1106 2353 998 2009 
Q 891 1666 891 1350 
z
" transform="scale(0.015625)"/>
      </defs>
      <use xlink:href="#DejaVuSans-Oblique-348" transform="translate(0 0.78125)"/>
      <use xlink:href="#DejaVuSans-Oblique-46" transform="translate(61.181641 -14.218701) scale(0.7)"/>
      <use xlink:href="#DejaVuSans-Oblique-50" transform="translate(99.667969 -14.218701) scale(0.7)"/>
      <use xlink:href="#DejaVuSans-Oblique-47" transform="translate(167.856445 -14.218701) scale(0.7)"/>
     </g>
    </g>
    <g id="line2d_30">
     <path d="M 434.6 77.059219 
L 444.6 77.059219 
L 454.6 77.059219 
" style="fill: none; stroke-dasharray: 9.6,2.4,1.5,2.4; stroke-dashoffset: 0; stroke: #ff7f0e; stroke-width: 1.5"/>
    </g>
    <g id="text_16">
     <!-- $\delta_{ref}$ -->
     <g transform="translate(462.6 80.559219) scale(0.1 -0.1)">
      <defs>
       <path id="DejaVuSans-Oblique-55" d="M 2853 2969 
Q 2766 3016 2653 3041 
Q 2541 3066 2413 3066 
Q 1953 3066 1609 2717 
Q 1266 2369 1153 1784 
L 800 0 
L 225 0 
L 909 3500 
L 1484 3500 
L 1375 2956 
Q 1603 3259 1920 3421 
Q 2238 3584 2597 3584 
Q 2691 3584 2781 3573 
Q 2872 3563 2963 3538 
L 2853 2969 
z
" transform="scale(0.015625)"/>
       <path id="DejaVuSans-Oblique-48" d="M 3078 2063 
Q 3088 2113 3092 2166 
Q 3097 2219 3097 2272 
Q 3097 2653 2873 2875 
Q 2650 3097 2266 3097 
Q 1838 3097 1509 2826 
Q 1181 2556 1013 2059 
L 3078 2063 
z
M 3578 1613 
L 903 1613 
Q 884 1494 878 1425 
Q 872 1356 872 1306 
Q 872 872 1139 634 
Q 1406 397 1894 397 
Q 2269 397 2603 481 
Q 2938 566 3225 728 
L 3116 159 
Q 2806 34 2476 -28 
Q 2147 -91 1806 -91 
Q 1078 -91 686 257 
Q 294 606 294 1247 
Q 294 1794 489 2264 
Q 684 2734 1063 3103 
Q 1306 3334 1642 3459 
Q 1978 3584 2356 3584 
Q 2950 3584 3301 3228 
Q 3653 2872 3653 2272 
Q 3653 2128 3634 1964 
Q 3616 1800 3578 1613 
z
" transform="scale(0.015625)"/>
       <path id="DejaVuSans-Oblique-49" d="M 3059 4863 
L 2969 4384 
L 2419 4384 
Q 2106 4384 1964 4261 
Q 1822 4138 1753 3809 
L 1691 3500 
L 2638 3500 
L 2553 3053 
L 1606 3053 
L 1013 0 
L 434 0 
L 1031 3053 
L 481 3053 
L 563 3500 
L 1113 3500 
L 1159 3744 
Q 1278 4363 1576 4613 
Q 1875 4863 2516 4863 
L 3059 4863 
z
" transform="scale(0.015625)"/>
      </defs>
      <use xlink:href="#DejaVuSans-Oblique-348" transform="translate(0 0.78125)"/>
      <use xlink:href="#DejaVuSans-Oblique-55" transform="translate(61.181641 -14.218701) scale(0.7)"/>
      <use xlink:href="#DejaVuSans-Oblique-48" transform="translate(89.960938 -14.218701) scale(0.7)"/>
      <use xlink:href="#DejaVuSans-Oblique-49" transform="translate(133.027344 -14.218701) scale(0.7)"/>
     </g>
    </g>
   </g>
  </g>
  <g id="axes_2">
   <g id="patch_8">
    <path d="M 42.28 361.077656 
L 493.2 361.077656 
L 493.2 234.84 
L 42.28 234.84 
z
" style="fill: #ffffff"/>
   </g>
   <g id="matplotlib.axis_3">
    <g id="xtick_8">
     <g id="line2d_31">
      <path d="M 62.502098 361.077656 
L 62.502098 234.84 
" clip-path="url(#p3985d306cc)" style="fill: none; stroke: #b0b0b0; stroke-width: 0.8; stroke-linecap: square"/>
     </g>
     <g id="line2d_32">
      <g>
       <use xlink:href="#mb035659956" x="62.502098" y="361.077656" style="stroke: #000000; stroke-width: 0.8"/>
      </g>
     </g>
     <g id="text_17">
      <!-- 0 -->
      <g transform="translate(59.320848 375.675312) scale(0.1 -0.1)">
       <use xlink:href="#DejaVuSans-13"/>
      </g>
     </g>
    </g>
    <g id="xtick_9">
     <g id="line2d_33">
      <path d="M 130.35934 361.077656 
L 130.35934 234.84 
" clip-path="url(#p3985d306cc)" style="fill: none; stroke: #b0b0b0; stroke-width: 0.8; stroke-linecap: square"/>
     </g>
     <g id="line2d_34">
      <g>
       <use xlink:href="#mb035659956" x="130.35934" y="361.077656" style="stroke: #000000; stroke-width: 0.8"/>
      </g>
     </g>
     <g id="text_18">
      <!-- 10 -->
      <g transform="translate(123.99684 375.675312) scale(0.1 -0.1)">
       <use xlink:href="#DejaVuSans-14"/>
       <use xlink:href="#DejaVuSans-13" transform="translate(63.625 0)"/>
      </g>
     </g>
    </g>
    <g id="xtick_10">
     <g id="line2d_35">
      <path d="M 198.216583 361.077656 
L 198.216583 234.84 
" clip-path="url(#p3985d306cc)" style="fill: none; stroke: #b0b0b0; stroke-width: 0.8; stroke-linecap: square"/>
     </g>
     <g id="line2d_36">
      <g>
       <use xlink:href="#mb035659956" x="198.216583" y="361.077656" style="stroke: #000000; stroke-width: 0.8"/>
      </g>
     </g>
     <g id="text_19">
      <!-- 20 -->
      <g transform="translate(191.854083 375.675312) scale(0.1 -0.1)">
       <use xlink:href="#DejaVuSans-15"/>
       <use xlink:href="#DejaVuSans-13" transform="translate(63.625 0)"/>
      </g>
     </g>
    </g>
    <g id="xtick_11">
     <g id="line2d_37">
      <path d="M 266.073825 361.077656 
L 266.073825 234.84 
" clip-path="url(#p3985d306cc)" style="fill: none; stroke: #b0b0b0; stroke-width: 0.8; stroke-linecap: square"/>
     </g>
     <g id="line2d_38">
      <g>
       <use xlink:href="#mb035659956" x="266.073825" y="361.077656" style="stroke: #000000; stroke-width: 0.8"/>
      </g>
     </g>
     <g id="text_20">
      <!-- 30 -->
      <g transform="translate(259.711325 375.675312) scale(0.1 -0.1)">
       <use xlink:href="#DejaVuSans-16"/>
       <use xlink:href="#DejaVuSans-13" transform="translate(63.625 0)"/>
      </g>
     </g>
    </g>
    <g id="xtick_12">
     <g id="line2d_39">
      <path d="M 333.931068 361.077656 
L 333.931068 234.84 
" clip-path="url(#p3985d306cc)" style="fill: none; stroke: #b0b0b0; stroke-width: 0.8; stroke-linecap: square"/>
     </g>
     <g id="line2d_40">
      <g>
       <use xlink:href="#mb035659956" x="333.931068" y="361.077656" style="stroke: #000000; stroke-width: 0.8"/>
      </g>
     </g>
     <g id="text_21">
      <!-- 40 -->
      <g transform="translate(327.568568 375.675312) scale(0.1 -0.1)">
       <use xlink:href="#DejaVuSans-17"/>
       <use xlink:href="#DejaVuSans-13" transform="translate(63.625 0)"/>
      </g>
     </g>
    </g>
    <g id="xtick_13">
     <g id="line2d_41">
      <path d="M 401.78831 361.077656 
L 401.78831 234.84 
" clip-path="url(#p3985d306cc)" style="fill: none; stroke: #b0b0b0; stroke-width: 0.8; stroke-linecap: square"/>
     </g>
     <g id="line2d_42">
      <g>
       <use xlink:href="#mb035659956" x="401.78831" y="361.077656" style="stroke: #000000; stroke-width: 0.8"/>
      </g>
     </g>
     <g id="text_22">
      <!-- 50 -->
      <g transform="translate(395.42581 375.675312) scale(0.1 -0.1)">
       <use xlink:href="#DejaVuSans-18"/>
       <use xlink:href="#DejaVuSans-13" transform="translate(63.625 0)"/>
      </g>
     </g>
    </g>
    <g id="xtick_14">
     <g id="line2d_43">
      <path d="M 469.645553 361.077656 
L 469.645553 234.84 
" clip-path="url(#p3985d306cc)" style="fill: none; stroke: #b0b0b0; stroke-width: 0.8; stroke-linecap: square"/>
     </g>
     <g id="line2d_44">
      <g>
       <use xlink:href="#mb035659956" x="469.645553" y="361.077656" style="stroke: #000000; stroke-width: 0.8"/>
      </g>
     </g>
     <g id="text_23">
      <!-- 60 -->
      <g transform="translate(463.283053 375.675312) scale(0.1 -0.1)">
       <use xlink:href="#DejaVuSans-19"/>
       <use xlink:href="#DejaVuSans-13" transform="translate(63.625 0)"/>
      </g>
     </g>
    </g>
    <g id="text_24">
     <!-- t (s) -->
     <g transform="translate(257.684531 389.675312) scale(0.1 -0.1)">
      <use xlink:href="#DejaVuSans-57"/>
      <use xlink:href="#DejaVuSans-3" transform="translate(39.203125 0)"/>
      <use xlink:href="#DejaVuSans-b" transform="translate(70.984375 0)"/>
      <use xlink:href="#DejaVuSans-56" transform="translate(110 0)"/>
      <use xlink:href="#DejaVuSans-c" transform="translate(162.09375 0)"/>
     </g>
    </g>
   </g>
   <g id="matplotlib.axis_4">
    <g id="ytick_6">
     <g id="line2d_45">
      <path d="M 42.28 336.212663 
L 493.2 336.212663 
" clip-path="url(#p3985d306cc)" style="fill: none; stroke: #b0b0b0; stroke-width: 0.8; stroke-linecap: square"/>
     </g>
     <g id="line2d_46">
      <g>
       <use xlink:href="#me4886b23b9" x="42.28" y="336.212663" style="stroke: #000000; stroke-width: 0.8"/>
      </g>
     </g>
     <g id="text_25">
      <!-- −0.2 -->
      <g transform="translate(10.997188 340.011491) scale(0.1 -0.1)">
       <use xlink:href="#DejaVuSans-c9c"/>
       <use xlink:href="#DejaVuSans-13" transform="translate(83.796875 0)"/>
       <use xlink:href="#DejaVuSans-11" transform="translate(147.421875 0)"/>
       <use xlink:href="#DejaVuSans-15" transform="translate(179.203125 0)"/>
      </g>
     </g>
    </g>
    <g id="ytick_7">
     <g id="line2d_47">
      <path d="M 42.28 297.958828 
L 493.2 297.958828 
" clip-path="url(#p3985d306cc)" style="fill: none; stroke: #b0b0b0; stroke-width: 0.8; stroke-linecap: square"/>
     </g>
     <g id="line2d_48">
      <g>
       <use xlink:href="#me4886b23b9" x="42.28" y="297.958828" style="stroke: #000000; stroke-width: 0.8"/>
      </g>
     </g>
     <g id="text_26">
      <!-- 0.0 -->
      <g transform="translate(19.376875 301.757656) scale(0.1 -0.1)">
       <use xlink:href="#DejaVuSans-13"/>
       <use xlink:href="#DejaVuSans-11" transform="translate(63.625 0)"/>
       <use xlink:href="#DejaVuSans-13" transform="translate(95.40625 0)"/>
      </g>
     </g>
    </g>
    <g id="ytick_8">
     <g id="line2d_49">
      <path d="M 42.28 259.704993 
L 493.2 259.704993 
" clip-path="url(#p3985d306cc)" style="fill: none; stroke: #b0b0b0; stroke-width: 0.8; stroke-linecap: square"/>
     </g>
     <g id="line2d_50">
      <g>
       <use xlink:href="#me4886b23b9" x="42.28" y="259.704993" style="stroke: #000000; stroke-width: 0.8"/>
      </g>
     </g>
     <g id="text_27">
      <!-- 0.2 -->
      <g transform="translate(19.376875 263.503821) scale(0.1 -0.1)">
       <use xlink:href="#DejaVuSans-13"/>
       <use xlink:href="#DejaVuSans-11" transform="translate(63.625 0)"/>
       <use xlink:href="#DejaVuSans-15" transform="translate(95.40625 0)"/>
      </g>
     </g>
    </g>
   </g>
   <g id="line2d_51">
    <path d="M 62.776364 240.578075 
L 96.028125 240.578075 
L 96.980484 355.339581 
L 106.953386 355.339574 
L 107.42941 350.970392 
L 107.904996 240.578076 
L 113.602854 240.578844 
L 114.080671 292.15074 
L 114.553587 312.902481 
L 115.029289 355.339554 
L 118.830186 355.282592 
L 119.302486 289.538815 
L 119.777097 329.225697 
L 120.252564 259.948649 
L 120.727771 240.578362 
L 124.05225 240.578077 
L 124.529057 320.340364 
L 125.004504 315.102943 
L 125.480866 347.971784 
L 125.955566 322.41771 
L 126.427461 334.545696 
L 126.904792 288.88178 
L 127.379252 287.53323 
L 127.853293 240.578102 
L 128.802696 240.578078 
L 129.278654 304.747651 
L 129.75416 264.621087 
L 130.227353 288.152772 
L 130.702384 240.579558 
L 131.178235 263.851168 
L 131.654482 240.578076 
L 132.128938 256.032235 
L 132.60538 240.578076 
L 133.077038 267.604177 
L 133.55428 240.578401 
L 134.028431 355.33958 
L 134.50166 352.194138 
L 134.978788 355.33955 
L 135.454126 282.88667 
L 136.403501 240.578076 
L 138.301175 240.578076 
L 138.777678 249.022795 
L 139.251979 240.578189 
L 139.726936 265.137129 
L 140.203087 240.578076 
L 140.676234 251.813235 
L 141.152171 240.57808 
L 154.452198 240.578081 
L 154.928066 268.764915 
L 155.404508 330.323926 
L 155.876861 355.33958 
L 165.377419 355.339581 
L 165.853774 240.633191 
L 167.278214 240.578076 
L 171.5522 240.578081 
L 172.028799 355.3395 
L 174.878893 355.338609 
L 175.35151 294.873685 
L 175.827372 277.684261 
L 176.304358 240.578127 
L 176.778994 281.256818 
L 177.253526 240.578094 
L 181.052651 240.578111 
L 181.526018 273.989984 
L 182.003845 355.333203 
L 183.43108 355.339219 
L 183.905354 302.965563 
L 184.378725 280.79383 
L 184.854916 240.578077 
L 200.053993 240.57808 
L 200.526838 245.918909 
L 201.001096 249.094441 
L 201.478593 308.923151 
L 201.954417 319.829558 
L 202.427722 355.33958 
L 211.928023 355.338622 
L 212.877911 278.294215 
L 213.353872 240.578099 
L 220.004635 240.578076 
L 220.480186 258.596031 
L 220.951443 258.132015 
L 221.427788 313.222635 
L 221.903954 315.561229 
L 222.377638 355.315501 
L 222.855621 348.925715 
L 223.328663 355.339021 
L 223.804231 350.067067 
L 224.279623 355.339338 
L 225.228554 355.339546 
L 225.703187 321.058759 
L 226.177012 297.684548 
L 226.653162 240.578076 
L 232.353631 240.578075 
L 233.30354 253.894539 
L 233.777367 316.238908 
L 234.253456 355.33958 
L 240.429539 355.33855 
L 240.903447 288.633633 
L 241.3795 258.374936 
L 241.853905 240.578079 
L 243.751585 240.578491 
L 244.227319 278.963778 
L 244.702685 278.120706 
L 245.177383 324.772327 
L 245.651615 318.842716 
L 246.129505 351.01044 
L 246.605316 322.795476 
L 247.078734 331.010189 
L 247.553013 282.975157 
L 248.02769 279.804232 
L 248.504248 305.555069 
L 248.976776 304.587924 
L 249.452866 240.578098 
L 256.103656 240.578075 
L 256.577499 241.931018 
L 257.053615 240.578098 
L 257.527262 251.397349 
L 258.005034 332.313359 
L 258.478962 355.337444 
L 258.951693 324.449445 
L 259.427212 339.366151 
L 259.905626 286.496512 
L 260.379122 297.186336 
L 260.852524 247.117846 
L 261.328253 263.282579 
L 261.802497 240.57809 
L 262.277369 266.921162 
L 262.751347 353.379321 
L 263.227341 355.339569 
L 263.703767 348.226768 
L 264.178669 355.335679 
L 264.655475 308.939657 
L 265.128103 315.317676 
L 265.601492 263.527625 
L 266.078646 274.58922 
L 266.556369 240.578154 
L 267.029657 259.827365 
L 267.503595 339.57511 
L 267.979949 355.33951 
L 268.455337 329.456793 
L 268.926523 338.053294 
L 269.402925 259.675093 
L 269.8778 244.088025 
L 270.352016 240.578077 
L 272.251732 240.578077 
L 272.727164 264.324796 
L 273.201602 240.582928 
L 273.676984 274.679865 
L 274.152462 274.454518 
L 274.629747 355.33957 
L 281.279286 355.339414 
L 282.226723 240.578075 
L 296.954562 240.578078 
L 297.430603 248.816397 
L 297.90393 314.772185 
L 298.379892 355.339578 
L 304.554961 355.33958 
L 305.027695 336.153388 
L 305.503986 242.760158 
L 305.978617 240.578075 
L 314.051818 240.578075 
L 314.529311 277.657412 
L 315.002633 355.33958 
L 323.554082 355.339277 
L 324.504542 240.578088 
L 328.307382 240.579213 
L 328.778411 281.359258 
L 329.253388 355.339319 
L 331.62914 355.33956 
L 332.578682 315.479598 
L 333.055466 240.578354 
L 337.804128 240.578081 
L 338.277087 275.510157 
L 338.75223 355.339562 
L 340.179361 355.33958 
L 340.653454 325.599316 
L 341.126513 322.741519 
L 341.602076 248.597992 
L 342.07843 240.580104 
L 343.505112 240.578079 
L 343.97907 250.111446 
L 344.454192 240.578097 
L 353.003967 240.578085 
L 353.478872 274.568967 
L 353.954574 324.033035 
L 354.427336 355.339581 
L 365.827883 355.339547 
L 366.304628 341.339936 
L 366.777263 310.55427 
L 367.25443 294.046527 
L 368.202462 240.578086 
L 370.57714 240.58059 
L 371.054115 240.792573 
L 371.529057 290.650452 
L 372.004156 355.33957 
L 374.852561 355.336692 
L 375.328436 355.222211 
L 375.80544 302.642857 
L 376.277312 278.510159 
L 376.754801 276.002364 
L 377.229318 264.850948 
L 377.704606 240.578264 
L 379.60479 240.578145 
L 380.078883 254.648007 
L 380.55195 256.021159 
L 381.028433 295.523083 
L 381.503928 355.313485 
L 382.930374 355.339262 
L 383.401963 330.042652 
L 383.878028 317.706125 
L 384.35425 265.229368 
L 384.831 254.74163 
L 385.304824 240.578095 
L 385.781498 240.578404 
L 386.728816 295.461125 
L 387.20177 282.228361 
L 387.678775 304.508717 
L 388.15365 286.34296 
L 388.63055 303.84303 
L 389.101905 279.179903 
L 389.579669 291.079282 
L 390.055137 257.786109 
L 390.528548 268.639724 
L 391.003316 301.755779 
L 391.480667 306.338454 
L 391.95363 240.583583 
L 400.027646 240.578075 
L 400.502286 248.682751 
L 400.980247 282.760459 
L 401.454647 240.578095 
L 440.403355 240.578075 
L 440.880096 283.087244 
L 441.35305 355.339537 
L 471.278581 355.339581 
L 471.754941 250.118904 
L 472.227488 240.578075 
L 472.703636 240.578075 
L 472.703636 240.578075 
" clip-path="url(#p3985d306cc)" style="fill: none; stroke: #1f77b4; stroke-width: 1.5; stroke-linecap: square"/>
   </g>
   <g id="line2d_52">
    <path d="M 62.776364 249.101425 
L 63.250877 240.578075 
L 72.278678 240.578075 
L 72.753877 243.332012 
L 73.227547 261.703078 
L 73.700872 286.075962 
L 74.177311 304.041042 
L 74.653678 327.247555 
L 75.126732 343.868834 
L 75.605278 355.339581 
L 81.77745 355.339581 
L 82.253231 337.597573 
L 83.202483 282.88414 
L 85.101558 328.813722 
L 86.052778 342.049911 
L 87.004159 349.701536 
L 87.476892 351.44513 
L 87.954684 352.47155 
L 88.428352 352.339935 
L 88.903761 351.068184 
L 89.377402 349.363534 
L 90.328185 343.209907 
L 92.227474 324.004028 
L 93.655123 305.098949 
L 94.128114 299.710913 
L 94.604608 292.53395 
L 95.078316 287.229576 
L 95.554143 280.374032 
L 96.028125 275.474666 
L 96.50162 269.384413 
L 97.926521 257.291171 
L 98.404753 254.087619 
L 98.878644 252.427401 
L 99.351951 251.3109 
L 99.830141 251.367414 
L 100.303704 252.73605 
L 100.778656 254.799835 
L 101.727735 263.376404 
L 102.678958 277.70476 
L 103.154069 288.684616 
L 103.629861 286.426914 
L 104.103202 258.664931 
L 104.577956 244.44231 
L 105.054924 240.578075 
L 106.480449 240.578075 
L 106.953386 246.92454 
L 107.42941 256.981659 
L 108.852628 300.935677 
L 110.278095 333.649157 
L 110.751416 340.40818 
L 111.22881 342.217891 
L 111.701144 339.856003 
L 112.176527 334.441427 
L 113.127037 310.760359 
L 113.602854 293.214822 
L 114.080671 295.926434 
L 114.553587 300.245681 
L 115.029289 302.402761 
L 115.504278 304.016314 
L 115.97659 304.407511 
L 116.453274 304.028686 
L 116.927881 303.199985 
L 117.879643 300.041778 
L 119.302486 293.831176 
L 120.727771 289.204662 
L 121.202498 287.955069 
L 122.1547 286.707511 
L 122.627029 286.517153 
L 123.102144 286.526391 
L 123.577775 286.677075 
L 124.529057 293.112184 
L 125.004504 294.720836 
L 125.480866 294.331598 
L 126.427461 289.786701 
L 127.853293 278.737017 
L 129.278654 270.783934 
L 129.75416 268.875254 
L 130.227353 267.968414 
L 130.702384 267.450981 
L 131.178235 267.565508 
L 131.654482 268.355578 
L 132.128938 269.398176 
L 133.077038 273.136378 
L 133.55428 275.877978 
L 134.028431 277.525059 
L 135.454126 262.924767 
L 136.403501 256.533998 
L 136.879474 255.466787 
L 137.354759 255.842478 
L 137.82919 257.454697 
L 138.777678 265.007484 
L 140.203087 282.762816 
L 141.626429 297.295479 
L 142.102269 301.023455 
L 142.578935 302.709581 
L 143.053653 303.233232 
L 143.526664 302.151021 
L 144.004496 298.388168 
L 144.478386 277.520027 
L 144.954073 248.538817 
L 145.429657 240.578075 
L 146.855348 240.578075 
L 147.326404 243.545896 
L 148.276827 277.248061 
L 149.703034 343.110801 
L 150.178178 355.339581 
L 153.504038 355.339581 
L 153.976916 348.979533 
L 154.452198 326.797082 
L 154.928066 348.418821 
L 155.404508 355.339581 
L 158.254349 355.339581 
L 158.727526 354.867016 
L 161.102806 273.770015 
L 162.053497 250.785602 
L 162.529498 246.478947 
L 163.002643 247.910426 
L 163.477679 255.326972 
L 164.429912 297.754848 
L 165.853774 255.360485 
L 166.326707 251.149798 
L 166.80469 251.612251 
L 167.278214 255.716463 
L 168.228454 274.1398 
L 169.176335 298.521862 
L 169.652395 311.962427 
L 170.60612 329.112361 
L 171.077157 332.513003 
L 171.5522 332.438164 
L 172.028799 328.83966 
L 172.980304 311.155148 
L 173.453647 298.916079 
L 173.927008 291.186389 
L 174.403204 285.49389 
L 174.878893 286.316481 
L 175.35151 289.177252 
L 175.827372 290.035736 
L 176.304358 289.683117 
L 176.778994 288.468891 
L 177.73043 283.384759 
L 178.676824 276.809863 
L 179.152915 273.149839 
L 180.104165 268.045481 
L 180.577588 266.624727 
L 181.052651 265.61489 
L 181.526018 265.575129 
L 182.003845 266.51968 
L 182.478371 267.98126 
L 183.43108 273.823109 
L 184.854916 288.389526 
L 185.32994 283.415374 
L 186.277613 250.494786 
L 186.752177 240.578075 
L 190.551825 240.578075 
L 191.029589 257.106371 
L 191.502908 288.982219 
L 191.979359 313.450706 
L 192.451936 345.199917 
L 192.926341 355.339581 
L 196.730195 355.339581 
L 197.205453 352.768912 
L 198.15296 315.474149 
L 198.629498 305.251529 
L 199.105075 298.172474 
L 199.579319 295.577957 
L 200.053993 294.983964 
L 200.526838 296.321428 
L 201.478593 304.14981 
L 203.37674 331.880011 
L 203.854867 340.449501 
L 204.801602 352.895843 
L 205.280154 355.339581 
L 206.227248 355.339581 
L 206.702483 353.120686 
L 207.177585 346.815999 
L 208.129851 323.546193 
L 208.602965 306.931195 
L 210.027687 272.520288 
L 210.502481 268.241521 
L 210.97809 270.41562 
L 211.453014 281.431307 
L 211.928023 296.19125 
L 212.405394 317.023391 
L 212.877911 325.261815 
L 213.353872 326.610165 
L 213.827632 321.264172 
L 214.778752 294.234169 
L 215.2525 275.098745 
L 216.205585 247.025209 
L 216.676622 240.578075 
L 218.103095 240.578075 
L 218.579355 243.428474 
L 220.480186 284.913335 
L 220.951443 297.536981 
L 222.377638 322.054539 
L 222.855621 327.350581 
L 223.328663 329.133311 
L 223.804231 328.209145 
L 224.279623 324.760836 
L 225.228554 305.742786 
L 225.703187 290.809491 
L 226.177012 286.668659 
L 228.554001 248.102173 
L 229.027457 244.907095 
L 229.503992 243.954435 
L 229.977018 245.807734 
L 230.926597 257.944369 
L 232.829714 301.783953 
L 233.30354 314.837992 
L 234.253456 333.546942 
L 235.20491 343.375917 
L 235.677481 344.15465 
L 236.152053 341.851687 
L 236.628425 337.792485 
L 238.528891 304.731789 
L 239.002985 295.516004 
L 239.955371 322.048228 
L 240.429539 321.284294 
L 241.3795 297.295506 
L 241.853905 282.851743 
L 242.329231 276.707972 
L 242.80482 276.88362 
L 243.276761 282.989177 
L 244.702685 323.31821 
L 245.177383 330.01074 
L 245.651615 329.829271 
L 246.129505 321.444114 
L 247.078734 278.782386 
L 247.553013 251.609096 
L 248.02769 240.578075 
L 248.504248 240.578075 
L 248.976776 255.753022 
L 249.452866 292.717844 
L 249.929872 294.506366 
L 250.402259 284.400844 
L 250.879833 270.609674 
L 251.353883 249.811548 
L 251.827295 240.578075 
L 253.729366 240.578075 
L 254.677573 272.516884 
L 255.152735 295.230727 
L 256.103656 329.560594 
L 256.577499 339.54805 
L 257.053615 346.773654 
L 257.527262 347.252532 
L 258.005034 341.48142 
L 258.478962 332.861735 
L 259.427212 300.445048 
L 259.905626 292.747652 
L 260.852524 290.801867 
L 261.328253 290.666288 
L 261.802497 291.192015 
L 262.277369 292.136504 
L 263.227341 296.031878 
L 264.655475 304.65759 
L 265.601492 309.124455 
L 266.078646 310.27739 
L 266.556369 310.908747 
L 267.029657 310.682185 
L 267.979949 308.201977 
L 268.455337 306.102199 
L 269.402925 302.903113 
L 269.8778 297.220011 
L 270.830217 250.706183 
L 271.30441 240.578075 
L 273.201602 240.578075 
L 273.676984 263.10046 
L 274.629747 351.494274 
L 275.104574 355.339581 
L 277.477159 355.339581 
L 278.427777 259.882313 
L 278.90341 240.578075 
L 279.379004 240.578075 
L 280.329611 355.339581 
L 281.279286 355.339581 
L 282.226723 242.461451 
L 282.703764 240.578075 
L 284.602559 240.578075 
L 285.07696 242.448421 
L 285.553801 295.763939 
L 286.028813 333.684379 
L 286.502513 355.339581 
L 288.402838 355.339581 
L 288.877608 352.591181 
L 289.352496 322.1895 
L 290.306212 293.387473 
L 290.779603 282.330564 
L 291.726257 247.50277 
L 292.203384 240.578075 
L 294.576916 240.578075 
L 295.05304 251.056457 
L 295.527362 272.433169 
L 296.480987 329.24809 
L 296.954562 355.339581 
L 300.278452 355.339581 
L 300.754041 328.923932 
L 301.705881 254.504089 
L 302.17769 240.578075 
L 302.653256 240.578075 
L 303.127081 255.194108 
L 304.077954 350.463059 
L 304.554961 355.339581 
L 305.027695 350.462051 
L 305.978617 240.578075 
L 309.778272 240.578075 
L 310.72932 337.250393 
L 311.201628 355.339581 
L 315.002633 355.339581 
L 315.478148 326.129453 
L 315.954866 263.397968 
L 316.426673 247.768293 
L 316.902939 274.398729 
L 317.378202 314.461678 
L 317.853699 341.131044 
L 318.328893 353.701235 
L 318.804085 355.339581 
L 319.279014 355.339581 
L 319.754086 350.628518 
L 320.228533 339.112863 
L 321.652519 285.385274 
L 322.604504 261.966161 
L 323.079745 257.013798 
L 323.554082 254.976557 
L 324.028242 256.388431 
L 324.97947 266.562462 
L 326.404255 289.893332 
L 327.352326 302.164144 
L 328.307382 308.988673 
L 328.778411 309.89768 
L 329.253388 309.047791 
L 329.72923 306.70397 
L 330.677065 293.678971 
L 331.154011 286.657014 
L 332.578682 275.951151 
L 333.055466 272.929711 
L 334.004258 269.398234 
L 334.479011 268.550339 
L 334.955179 268.006878 
L 335.428926 268.01377 
L 335.90236 268.530238 
L 336.377765 269.262882 
L 337.329955 271.941086 
L 340.179361 284.330451 
L 340.653454 286.736741 
L 342.551875 293.150847 
L 343.505112 294.43623 
L 343.97907 294.457984 
L 344.454192 289.362683 
L 344.928833 274.418521 
L 345.404175 252.520135 
L 345.879088 240.578075 
L 349.203994 240.578075 
L 349.679483 242.132222 
L 351.577048 348.720603 
L 352.05242 355.339581 
L 355.854169 355.339581 
L 356.327266 351.875236 
L 356.80268 327.508991 
L 357.276768 316.030472 
L 357.755023 312.869495 
L 358.227809 322.086928 
L 358.705557 334.701818 
L 359.656329 346.996377 
L 360.130613 348.895812 
L 360.60474 348.767242 
L 361.080875 346.974689 
L 362.029513 338.708255 
L 363.453202 321.208642 
L 364.878534 308.747188 
L 365.353397 305.71803 
L 365.827883 304.207284 
L 366.304628 303.115071 
L 366.777263 302.892177 
L 367.25443 303.225159 
L 367.729572 303.829507 
L 369.629703 308.008496 
L 370.102306 308.81975 
L 370.57714 309.02709 
L 371.054115 308.43332 
L 371.529057 307.280257 
L 372.004156 308.267524 
L 372.478686 308.640303 
L 372.952642 308.474132 
L 373.429282 307.918846 
L 374.378609 305.511354 
L 377.704606 292.818813 
L 379.60479 288.027325 
L 381.028433 286.197298 
L 381.503928 285.723181 
L 382.930374 284.755709 
L 383.878028 283.843669 
L 384.831 282.227722 
L 385.304824 286.580264 
L 386.253059 299.04535 
L 386.728816 302.050796 
L 387.20177 304.061191 
L 387.678775 304.185408 
L 388.15365 302.69128 
L 388.63055 300.464045 
L 389.579669 292.28714 
L 392.902124 251.053138 
L 393.854505 242.453231 
L 394.329773 240.578075 
L 396.228953 240.578075 
L 396.701686 241.167722 
L 397.17655 244.926362 
L 398.130646 258.293742 
L 398.603263 267.5272 
L 399.079077 260.995441 
L 399.554883 251.167381 
L 400.027646 244.496223 
L 400.502286 240.578075 
L 403.829604 240.578075 
L 404.30457 240.743181 
L 404.778507 246.54374 
L 406.205401 271.485334 
L 406.679726 278.546285 
L 407.152205 287.617821 
L 408.579666 306.342894 
L 409.055551 311.398589 
L 409.527094 314.01345 
L 410.003298 315.733675 
L 410.479667 315.573678 
L 410.951969 313.243155 
L 411.426781 309.769829 
L 411.902193 302.591151 
L 412.380106 288.066466 
L 412.853767 254.884623 
L 413.330843 240.578075 
L 416.177941 240.578075 
L 416.651539 240.766988 
L 417.127795 254.610854 
L 419.502779 355.339581 
L 425.204183 355.339581 
L 425.676758 337.928893 
L 426.154221 325.155988 
L 428.529786 319.64877 
L 429.003753 318.660491 
L 430.904111 316.044366 
L 432.330273 314.917655 
L 432.802131 314.625912 
L 433.752638 314.319287 
L 434.702173 314.256249 
L 435.652116 314.418189 
L 436.603299 314.786495 
L 437.078345 315.002903 
L 438.978216 316.425743 
L 441.829727 319.582685 
L 443.254051 321.579674 
L 443.72851 322.151983 
L 445.153574 324.317111 
L 445.629712 324.919324 
L 447.054436 327.13561 
L 447.530658 327.735824 
L 448.00136 328.528734 
L 448.480178 329.115985 
L 449.427715 330.452605 
L 450.377935 331.727074 
L 450.852019 332.420276 
L 452.279396 334.015122 
L 453.228362 334.99148 
L 454.176946 335.831246 
L 455.130542 336.515812 
L 456.080317 337.026567 
L 457.027694 337.344901 
L 457.978112 337.452204 
L 458.926878 337.329865 
L 459.879318 336.959276 
L 461.303307 335.830591 
L 461.779832 335.398904 
L 463.679887 332.62221 
L 465.578889 328.480317 
L 466.054066 327.025335 
L 466.529738 326.052674 
L 472.703636 326.052674 
L 472.703636 326.052674 
" clip-path="url(#p3985d306cc)" style="fill: none; stroke-dasharray: 9.6,2.4,1.5,2.4; stroke-dashoffset: 0; stroke: #ff7f0e; stroke-width: 1.5"/>
   </g>
   <g id="line2d_53">
    <path d="M 42.28 355.339581 
L 493.2 355.339581 
" clip-path="url(#p3985d306cc)" style="fill: none; stroke-dasharray: 3.7,1.6; stroke-dashoffset: 0; stroke: #ff0000"/>
   </g>
   <g id="line2d_54">
    <path d="M 42.28 240.578075 
L 493.2 240.578075 
" clip-path="url(#p3985d306cc)" style="fill: none; stroke-dasharray: 3.7,1.6; stroke-dashoffset: 0; stroke: #ff0000"/>
   </g>
   <g id="patch_9">
    <path d="M 42.28 361.077656 
L 42.28 234.84 
" style="fill: none; stroke: #000000; stroke-width: 0.8; stroke-linejoin: miter; stroke-linecap: square"/>
   </g>
   <g id="patch_10">
    <path d="M 493.2 361.077656 
L 493.2 234.84 
" style="fill: none; stroke: #000000; stroke-width: 0.8; stroke-linejoin: miter; stroke-linecap: square"/>
   </g>
   <g id="patch_11">
    <path d="M 42.28 361.077656 
L 493.2 361.077656 
" style="fill: none; stroke: #000000; stroke-width: 0.8; stroke-linejoin: miter; stroke-linecap: square"/>
   </g>
   <g id="patch_12">
    <path d="M 42.28 234.84 
L 493.2 234.84 
" style="fill: none; stroke: #000000; stroke-width: 0.8; stroke-linejoin: miter; stroke-linecap: square"/>
   </g>
   <g id="text_28">
    <!-- $a_x$ $\left(\mathrm{m/s^2}\right)$ -->
    <g transform="translate(240.92 228.84) scale(0.12 -0.12)">
     <defs>
      <path id="DejaVuSans-Oblique-44" d="M 3438 1997 
L 3047 0 
L 2472 0 
L 2578 531 
Q 2325 219 2001 64 
Q 1678 -91 1281 -91 
Q 834 -91 548 182 
Q 263 456 263 884 
Q 263 1497 752 1853 
Q 1241 2209 2100 2209 
L 2900 2209 
L 2931 2363 
Q 2938 2388 2941 2417 
Q 2944 2447 2944 2509 
Q 2944 2788 2717 2942 
Q 2491 3097 2081 3097 
Q 1800 3097 1504 3025 
Q 1209 2953 897 2809 
L 997 3341 
Q 1322 3463 1633 3523 
Q 1944 3584 2234 3584 
Q 2853 3584 3176 3315 
Q 3500 3047 3500 2534 
Q 3500 2431 3484 2292 
Q 3469 2153 3438 1997 
z
M 2816 1759 
L 2241 1759 
Q 1534 1759 1195 1570 
Q 856 1381 856 984 
Q 856 709 1029 553 
Q 1203 397 1509 397 
Q 1978 397 2328 733 
Q 2678 1069 2791 1631 
L 2816 1759 
z
" transform="scale(0.015625)"/>
      <path id="DejaVuSans-Oblique-5b" d="M 3841 3500 
L 2234 1784 
L 3219 0 
L 2559 0 
L 1819 1388 
L 531 0 
L -166 0 
L 1556 1844 
L 641 3500 
L 1300 3500 
L 1972 2234 
L 3144 3500 
L 3841 3500 
z
" transform="scale(0.015625)"/>
      <path id="STIXSizeOneSym-Regular-4" d="M 2445 -858 
L 2445 -1050 
Q 1728 -371 1309 630 
Q 890 1632 890 2886 
Q 890 4122 1309 5136 
Q 1728 6150 2445 6822 
L 2445 6630 
Q 1408 5363 1408 2886 
Q 1408 410 2445 -858 
z
" transform="scale(0.015625)"/>
      <path id="DejaVuSans-50" d="M 3328 2828 
Q 3544 3216 3844 3400 
Q 4144 3584 4550 3584 
Q 5097 3584 5394 3201 
Q 5691 2819 5691 2113 
L 5691 0 
L 5113 0 
L 5113 2094 
Q 5113 2597 4934 2840 
Q 4756 3084 4391 3084 
Q 3944 3084 3684 2787 
Q 3425 2491 3425 1978 
L 3425 0 
L 2847 0 
L 2847 2094 
Q 2847 2600 2669 2842 
Q 2491 3084 2119 3084 
Q 1678 3084 1418 2786 
Q 1159 2488 1159 1978 
L 1159 0 
L 581 0 
L 581 3500 
L 1159 3500 
L 1159 2956 
Q 1356 3278 1631 3431 
Q 1906 3584 2284 3584 
Q 2666 3584 2933 3390 
Q 3200 3197 3328 2828 
z
" transform="scale(0.015625)"/>
      <path id="DejaVuSans-12" d="M 1625 4666 
L 2156 4666 
L 531 -594 
L 0 -594 
L 1625 4666 
z
" transform="scale(0.015625)"/>
      <path id="STIXSizeOneSym-Regular-5" d="M 550 6630 
L 550 6822 
Q 1267 6144 1686 5142 
Q 2106 4141 2106 2886 
Q 2106 1651 1686 636 
Q 1267 -378 550 -1050 
L 550 -858 
Q 1587 410 1587 2886 
Q 1587 5363 550 6630 
z
" transform="scale(0.015625)"/>
     </defs>
     <use xlink:href="#DejaVuSans-Oblique-44" transform="translate(0 0.746875)"/>
     <use xlink:href="#DejaVuSans-Oblique-5b" transform="translate(61.279297 -14.253076) scale(0.7)"/>
     <use xlink:href="#DejaVuSans-3" transform="translate(105.439453 0.746875)"/>
     <use xlink:href="#STIXSizeOneSym-Regular-4" transform="translate(137.226562 5.1375) scale(0.833613)"/>
     <use xlink:href="#DejaVuSans-50" transform="translate(176.2388 0.746875)"/>
     <use xlink:href="#DejaVuSans-12" transform="translate(273.650909 0.746875)"/>
     <use xlink:href="#DejaVuSans-56" transform="translate(307.342316 0.746875)"/>
     <use xlink:href="#DejaVuSans-15" transform="translate(360.398956 42.046875) scale(0.7)"/>
     <use xlink:href="#STIXSizeOneSym-Regular-5" transform="translate(407.669464 5.1375) scale(0.833613)"/>
    </g>
   </g>
   <g id="legend_2">
    <g id="patch_13">
     <path d="M 424.9 314.459609 
L 486.2 314.459609 
Q 488.2 314.459609 488.2 312.459609 
L 488.2 283.458047 
Q 488.2 281.458047 486.2 281.458047 
L 424.9 281.458047 
Q 422.9 281.458047 422.9 283.458047 
L 422.9 312.459609 
Q 422.9 314.459609 424.9 314.459609 
z
" style="fill: #ffffff; opacity: 0.8; stroke: #cccccc; stroke-linejoin: miter"/>
    </g>
    <g id="line2d_55">
     <path d="M 426.9 289.556484 
L 436.9 289.556484 
L 446.9 289.556484 
" style="fill: none; stroke: #1f77b4; stroke-width: 1.5; stroke-linecap: square"/>
    </g>
    <g id="text_29">
     <!-- $a_{x,cmd}$ -->
     <g transform="translate(454.9 293.056484) scale(0.1 -0.1)">
      <defs>
       <path id="DejaVuSans-f" d="M 750 794 
L 1409 794 
L 1409 256 
L 897 -744 
L 494 -744 
L 750 256 
L 750 794 
z
" transform="scale(0.015625)"/>
      </defs>
      <use xlink:href="#DejaVuSans-Oblique-44"/>
      <use xlink:href="#DejaVuSans-Oblique-5b" transform="translate(61.279297 -14.999951) scale(0.7)"/>
      <use xlink:href="#DejaVuSans-f" transform="translate(102.705078 -14.999951) scale(0.7)"/>
      <use xlink:href="#DejaVuSans-Oblique-46" transform="translate(138.59375 -14.999951) scale(0.7)"/>
      <use xlink:href="#DejaVuSans-Oblique-50" transform="translate(177.080078 -14.999951) scale(0.7)"/>
      <use xlink:href="#DejaVuSans-Oblique-47" transform="translate(245.268555 -14.999951) scale(0.7)"/>
     </g>
    </g>
    <g id="line2d_56">
     <path d="M 426.9 304.557266 
L 436.9 304.557266 
L 446.9 304.557266 
" style="fill: none; stroke-dasharray: 9.6,2.4,1.5,2.4; stroke-dashoffset: 0; stroke: #ff7f0e; stroke-width: 1.5"/>
    </g>
    <g id="text_30">
     <!-- $a_{x,ref}$ -->
     <g transform="translate(454.9 308.057266) scale(0.1 -0.1)">
      <use xlink:href="#DejaVuSans-Oblique-44"/>
      <use xlink:href="#DejaVuSans-Oblique-5b" transform="translate(61.279297 -14.999951) scale(0.7)"/>
      <use xlink:href="#DejaVuSans-f" transform="translate(102.705078 -14.999951) scale(0.7)"/>
      <use xlink:href="#DejaVuSans-Oblique-55" transform="translate(138.59375 -14.999951) scale(0.7)"/>
      <use xlink:href="#DejaVuSans-Oblique-48" transform="translate(167.373047 -14.999951) scale(0.7)"/>
      <use xlink:href="#DejaVuSans-Oblique-49" transform="translate(210.439453 -14.999951) scale(0.7)"/>
     </g>
    </g>
   </g>
  </g>
  <g id="text_31">
   <!-- QCar2 Inputs -->
   <g transform="translate(212.5575 17.181188) scale(0.12 -0.12)">
    <defs>
     <path id="DejaVuSans-34" d="M 2522 4238 
Q 1834 4238 1429 3725 
Q 1025 3213 1025 2328 
Q 1025 1447 1429 934 
Q 1834 422 2522 422 
Q 3209 422 3611 934 
Q 4013 1447 4013 2328 
Q 4013 3213 3611 3725 
Q 3209 4238 2522 4238 
z
M 3406 84 
L 4238 -825 
L 3475 -825 
L 2784 -78 
Q 2681 -84 2626 -87 
Q 2572 -91 2522 -91 
Q 1538 -91 948 567 
Q 359 1225 359 2328 
Q 359 3434 948 4092 
Q 1538 4750 2522 4750 
Q 3503 4750 4090 4092 
Q 4678 3434 4678 2328 
Q 4678 1516 4351 937 
Q 4025 359 3406 84 
z
" transform="scale(0.015625)"/>
     <path id="DejaVuSans-26" d="M 4122 4306 
L 4122 3641 
Q 3803 3938 3442 4084 
Q 3081 4231 2675 4231 
Q 1875 4231 1450 3742 
Q 1025 3253 1025 2328 
Q 1025 1406 1450 917 
Q 1875 428 2675 428 
Q 3081 428 3442 575 
Q 3803 722 4122 1019 
L 4122 359 
Q 3791 134 3420 21 
Q 3050 -91 2638 -91 
Q 1578 -91 968 557 
Q 359 1206 359 2328 
Q 359 3453 968 4101 
Q 1578 4750 2638 4750 
Q 3056 4750 3426 4639 
Q 3797 4528 4122 4306 
z
" transform="scale(0.015625)"/>
     <path id="DejaVuSans-2c" d="M 628 4666 
L 1259 4666 
L 1259 0 
L 628 0 
L 628 4666 
z
" transform="scale(0.015625)"/>
     <path id="DejaVuSans-51" d="M 3513 2113 
L 3513 0 
L 2938 0 
L 2938 2094 
Q 2938 2591 2744 2837 
Q 2550 3084 2163 3084 
Q 1697 3084 1428 2787 
Q 1159 2491 1159 1978 
L 1159 0 
L 581 0 
L 581 3500 
L 1159 3500 
L 1159 2956 
Q 1366 3272 1645 3428 
Q 1925 3584 2291 3584 
Q 2894 3584 3203 3211 
Q 3513 2838 3513 2113 
z
" transform="scale(0.015625)"/>
     <path id="DejaVuSans-53" d="M 1159 525 
L 1159 -1331 
L 581 -1331 
L 581 3500 
L 1159 3500 
L 1159 2969 
Q 1341 3281 1617 3432 
Q 1894 3584 2278 3584 
Q 2916 3584 3314 3078 
Q 3713 2572 3713 1747 
Q 3713 922 3314 415 
Q 2916 -91 2278 -91 
Q 1894 -91 1617 61 
Q 1341 213 1159 525 
z
M 3116 1747 
Q 3116 2381 2855 2742 
Q 2594 3103 2138 3103 
Q 1681 3103 1420 2742 
Q 1159 2381 1159 1747 
Q 1159 1113 1420 752 
Q 1681 391 2138 391 
Q 2594 391 2855 752 
Q 3116 1113 3116 1747 
z
" transform="scale(0.015625)"/>
     <path id="DejaVuSans-58" d="M 544 1381 
L 544 3500 
L 1119 3500 
L 1119 1403 
Q 1119 906 1312 657 
Q 1506 409 1894 409 
Q 2359 409 2629 706 
Q 2900 1003 2900 1516 
L 2900 3500 
L 3475 3500 
L 3475 0 
L 2900 0 
L 2900 538 
Q 2691 219 2414 64 
Q 2138 -91 1772 -91 
Q 1169 -91 856 284 
Q 544 659 544 1381 
z
M 1991 3584 
L 1991 3584 
z
" transform="scale(0.015625)"/>
    </defs>
    <use xlink:href="#DejaVuSans-34"/>
    <use xlink:href="#DejaVuSans-26" transform="translate(78.71875 0)"/>
    <use xlink:href="#DejaVuSans-44" transform="translate(148.546875 0)"/>
    <use xlink:href="#DejaVuSans-55" transform="translate(209.828125 0)"/>
    <use xlink:href="#DejaVuSans-15" transform="translate(250.9375 0)"/>
    <use xlink:href="#DejaVuSans-3" transform="translate(314.5625 0)"/>
    <use xlink:href="#DejaVuSans-2c" transform="translate(346.34375 0)"/>
    <use xlink:href="#DejaVuSans-51" transform="translate(375.84375 0)"/>
    <use xlink:href="#DejaVuSans-53" transform="translate(439.21875 0)"/>
    <use xlink:href="#DejaVuSans-58" transform="translate(502.703125 0)"/>
    <use xlink:href="#DejaVuSans-57" transform="translate(566.078125 0)"/>
    <use xlink:href="#DejaVuSans-56" transform="translate(605.28125 0)"/>
   </g>
  </g>
 </g>
 <defs>
  <clipPath id="pdbe9b8b3b5">
   <rect x="42.28" y="48.96" width="450.92" height="126.237656"/>
  </clipPath>
  <clipPath id="p3985d306cc">
   <rect x="42.28" y="234.84" width="450.92" height="126.237656"/>
  </clipPath>
 </defs>
</svg>
