<?xml version="1.0" encoding="utf-8" standalone="no"?>
<!DOCTYPE svg PUBLIC "-//W3C//DTD SVG 1.1//EN"
  "http://www.w3.org/Graphics/SVG/1.1/DTD/svg11.dtd">
<svg xmlns:xlink="http://www.w3.org/1999/xlink" width="504pt" height="403.2pt" viewBox="0 0 504 403.2" xmlns="http://www.w3.org/2000/svg" version="1.1">
 <metadata>
  <rdf:RDF xmlns:dc="http://purl.org/dc/elements/1.1/" xmlns:cc="http://creativecommons.org/ns#" xmlns:rdf="http://www.w3.org/1999/02/22-rdf-syntax-ns#">
   <cc:Work>
    <dc:type rdf:resource="http://purl.org/dc/dcmitype/StillImage"/>
    <dc:date>2026-07-10T12:48:37.398113</dc:date>
    <dc:format>image/svg+xml</dc:format>
    <dc:creator>
     <cc:Agent>
      <dc:title>Matplotlib v3.11.0, https://matplotlib.org/</dc:title>
     </cc:Agent>
    </dc:creator>
   </cc:Work>
  </rdf:RDF>
 </metadata>
 <defs>
  <style type="text/css">*{stroke-linejoin: round; stroke-linecap: butt}</style>
 </defs>
 <g id="figure_1">
  <g id="patch_1">
   <path d="M 0 403.2 
L 504 403.2 
L 504 0 
L 0 0 
z
" style="fill: #ffffff"/>
  </g>
  <g id="axes_1">
   <g id="patch_2">
    <path d="M 48.76 175.197656 
L 493.2 175.197656 
L 493.2 48.96 
L 48.76 48.96 
z
" style="fill: #ffffff"/>
   </g>
   <g id="matplotlib.axis_1">
    <g id="xtick_1">
     <g id="line2d_1">
      <path d="M 68.573317 175.197656 
L 68.573317 48.96 
" clip-path="url(#p7a8721c95e)" style="fill: none; stroke: #b0b0b0; stroke-width: 0.8; stroke-linecap: square"/>
     </g>
     <g id="line2d_2">
      <defs>
       <path id="m48b25e1bbd" d="M 0 0 
L 0 3.5 
" style="stroke: #000000; stroke-width: 0.8"/>
      </defs>
      <g>
       <use xlink:href="#m48b25e1bbd" x="68.573317" y="175.197656" style="stroke: #000000; stroke-width: 0.8"/>
      </g>
     </g>
     <g id="text_1">
      <!-- 0 -->
      <g transform="translate(65.392067 189.795312) scale(0.1 -0.1)">
       <defs>
        <path id="DejaVuSans-13" d="M 2034 4250 
Q 1547 4250 1301 3770 
Q 1056 3291 1056 2328 
Q 1056 1369 1301 889 
Q 1547 409 2034 409 
Q 2525 409 2770 889 
Q 3016 1369 3016 2328 
Q 3016 3291 2770 3770 
Q 2525 4250 2034 4250 
z
M 2034 4750 
Q 2819 4750 3233 4129 
Q 3647 3509 3647 2328 
Q 3647 1150 3233 529 
Q 2819 -91 2034 -91 
Q 1250 -91 836 529 
Q 422 1150 422 2328 
Q 422 3509 836 4129 
Q 1250 4750 2034 4750 
z
" transform="scale(0.015625)"/>
       </defs>
       <use xlink:href="#DejaVuSans-13"/>
      </g>
     </g>
    </g>
    <g id="xtick_2">
     <g id="line2d_3">
      <path d="M 133.182413 175.197656 
L 133.182413 48.96 
" clip-path="url(#p7a8721c95e)" style="fill: none; stroke: #b0b0b0; stroke-width: 0.8; stroke-linecap: square"/>
     </g>
     <g id="line2d_4">
      <g>
       <use xlink:href="#m48b25e1bbd" x="133.182413" y="175.197656" style="stroke: #000000; stroke-width: 0.8"/>
      </g>
     </g>
     <g id="text_2">
      <!-- 10 -->
      <g transform="translate(126.819913 189.795312) scale(0.1 -0.1)">
       <defs>
        <path id="DejaVuSans-14" d="M 794 531 
L 1825 531 
L 1825 4091 
L 703 3866 
L 703 4441 
L 1819 4666 
L 2450 4666 
L 2450 531 
L 3481 531 
L 3481 0 
L 794 0 
L 794 531 
z
" transform="scale(0.015625)"/>
       </defs>
       <use xlink:href="#DejaVuSans-14"/>
       <use xlink:href="#DejaVuSans-13" transform="translate(63.625 0)"/>
      </g>
     </g>
    </g>
    <g id="xtick_3">
     <g id="line2d_5">
      <path d="M 197.79151 175.197656 
L 197.79151 48.96 
" clip-path="url(#p7a8721c95e)" style="fill: none; stroke: #b0b0b0; stroke-width: 0.8; stroke-linecap: square"/>
     </g>
     <g id="line2d_6">
      <g>
       <use xlink:href="#m48b25e1bbd" x="197.79151" y="175.197656" style="stroke: #000000; stroke-width: 0.8"/>
      </g>
     </g>
     <g id="text_3">
      <!-- 20 -->
      <g transform="translate(191.42901 189.795312) scale(0.1 -0.1)">
       <defs>
        <path id="DejaVuSans-15" d="M 1228 531 
L 3431 531 
L 3431 0 
L 469 0 
L 469 531 
Q 828 903 1448 1529 
Q 2069 2156 2228 2338 
Q 2531 2678 2651 2914 
Q 2772 3150 2772 3378 
Q 2772 3750 2511 3984 
Q 2250 4219 1831 4219 
Q 1534 4219 1204 4116 
Q 875 4013 500 3803 
L 500 4441 
Q 881 4594 1212 4672 
Q 1544 4750 1819 4750 
Q 2544 4750 2975 4387 
Q 3406 4025 3406 3419 
Q 3406 3131 3298 2873 
Q 3191 2616 2906 2266 
Q 2828 2175 2409 1742 
Q 1991 1309 1228 531 
z
" transform="scale(0.015625)"/>
       </defs>
       <use xlink:href="#DejaVuSans-15"/>
       <use xlink:href="#DejaVuSans-13" transform="translate(63.625 0)"/>
      </g>
     </g>
    </g>
    <g id="xtick_4">
     <g id="line2d_7">
      <path d="M 262.400606 175.197656 
L 262.400606 48.96 
" clip-path="url(#p7a8721c95e)" style="fill: none; stroke: #b0b0b0; stroke-width: 0.8; stroke-linecap: square"/>
     </g>
     <g id="line2d_8">
      <g>
       <use xlink:href="#m48b25e1bbd" x="262.400606" y="175.197656" style="stroke: #000000; stroke-width: 0.8"/>
      </g>
     </g>
     <g id="text_4">
      <!-- 30 -->
      <g transform="translate(256.038106 189.795312) scale(0.1 -0.1)">
       <defs>
        <path id="DejaVuSans-16" d="M 2597 2516 
Q 3050 2419 3304 2112 
Q 3559 1806 3559 1356 
Q 3559 666 3084 287 
Q 2609 -91 1734 -91 
Q 1441 -91 1130 -33 
Q 819 25 488 141 
L 488 750 
Q 750 597 1062 519 
Q 1375 441 1716 441 
Q 2309 441 2620 675 
Q 2931 909 2931 1356 
Q 2931 1769 2642 2001 
Q 2353 2234 1838 2234 
L 1294 2234 
L 1294 2753 
L 1863 2753 
Q 2328 2753 2575 2939 
Q 2822 3125 2822 3475 
Q 2822 3834 2567 4026 
Q 2313 4219 1838 4219 
Q 1578 4219 1281 4162 
Q 984 4106 628 3988 
L 628 4550 
Q 988 4650 1302 4700 
Q 1616 4750 1894 4750 
Q 2613 4750 3031 4423 
Q 3450 4097 3450 3541 
Q 3450 3153 3228 2886 
Q 3006 2619 2597 2516 
z
" transform="scale(0.015625)"/>
       </defs>
       <use xlink:href="#DejaVuSans-16"/>
       <use xlink:href="#DejaVuSans-13" transform="translate(63.625 0)"/>
      </g>
     </g>
    </g>
    <g id="xtick_5">
     <g id="line2d_9">
      <path d="M 327.009703 175.197656 
L 327.009703 48.96 
" clip-path="url(#p7a8721c95e)" style="fill: none; stroke: #b0b0b0; stroke-width: 0.8; stroke-linecap: square"/>
     </g>
     <g id="line2d_10">
      <g>
       <use xlink:href="#m48b25e1bbd" x="327.009703" y="175.197656" style="stroke: #000000; stroke-width: 0.8"/>
      </g>
     </g>
     <g id="text_5">
      <!-- 40 -->
      <g transform="translate(320.647203 189.795312) scale(0.1 -0.1)">
       <defs>
        <path id="DejaVuSans-17" d="M 2419 4116 
L 825 1625 
L 2419 1625 
L 2419 4116 
z
M 2253 4666 
L 3047 4666 
L 3047 1625 
L 3713 1625 
L 3713 1100 
L 3047 1100 
L 3047 0 
L 2419 0 
L 2419 1100 
L 313 1100 
L 313 1709 
L 2253 4666 
z
" transform="scale(0.015625)"/>
       </defs>
       <use xlink:href="#DejaVuSans-17"/>
       <use xlink:href="#DejaVuSans-13" transform="translate(63.625 0)"/>
      </g>
     </g>
    </g>
    <g id="xtick_6">
     <g id="line2d_11">
      <path d="M 391.618799 175.197656 
L 391.618799 48.96 
" clip-path="url(#p7a8721c95e)" style="fill: none; stroke: #b0b0b0; stroke-width: 0.8; stroke-linecap: square"/>
     </g>
     <g id="line2d_12">
      <g>
       <use xlink:href="#m48b25e1bbd" x="391.618799" y="175.197656" style="stroke: #000000; stroke-width: 0.8"/>
      </g>
     </g>
     <g id="text_6">
      <!-- 50 -->
      <g transform="translate(385.256299 189.795312) scale(0.1 -0.1)">
       <defs>
        <path id="DejaVuSans-18" d="M 691 4666 
L 3169 4666 
L 3169 4134 
L 1269 4134 
L 1269 2991 
Q 1406 3038 1543 3061 
Q 1681 3084 1819 3084 
Q 2600 3084 3056 2656 
Q 3513 2228 3513 1497 
Q 3513 744 3044 326 
Q 2575 -91 1722 -91 
Q 1428 -91 1123 -41 
Q 819 9 494 109 
L 494 744 
Q 775 591 1075 516 
Q 1375 441 1709 441 
Q 2250 441 2565 725 
Q 2881 1009 2881 1497 
Q 2881 1984 2565 2268 
Q 2250 2553 1709 2553 
Q 1456 2553 1204 2497 
Q 953 2441 691 2322 
L 691 4666 
z
" transform="scale(0.015625)"/>
       </defs>
       <use xlink:href="#DejaVuSans-18"/>
       <use xlink:href="#DejaVuSans-13" transform="translate(63.625 0)"/>
      </g>
     </g>
    </g>
    <g id="xtick_7">
     <g id="line2d_13">
      <path d="M 456.227896 175.197656 
L 456.227896 48.96 
" clip-path="url(#p7a8721c95e)" style="fill: none; stroke: #b0b0b0; stroke-width: 0.8; stroke-linecap: square"/>
     </g>
     <g id="line2d_14">
      <g>
       <use xlink:href="#m48b25e1bbd" x="456.227896" y="175.197656" style="stroke: #000000; stroke-width: 0.8"/>
      </g>
     </g>
     <g id="text_7">
      <!-- 60 -->
      <g transform="translate(449.865396 189.795312) scale(0.1 -0.1)">
       <defs>
        <path id="DejaVuSans-19" d="M 2113 2584 
Q 1688 2584 1439 2293 
Q 1191 2003 1191 1497 
Q 1191 994 1439 701 
Q 1688 409 2113 409 
Q 2538 409 2786 701 
Q 3034 994 3034 1497 
Q 3034 2003 2786 2293 
Q 2538 2584 2113 2584 
z
M 3366 4563 
L 3366 3988 
Q 3128 4100 2886 4159 
Q 2644 4219 2406 4219 
Q 1781 4219 1451 3797 
Q 1122 3375 1075 2522 
Q 1259 2794 1537 2939 
Q 1816 3084 2150 3084 
Q 2853 3084 3261 2657 
Q 3669 2231 3669 1497 
Q 3669 778 3244 343 
Q 2819 -91 2113 -91 
Q 1303 -91 875 529 
Q 447 1150 447 2328 
Q 447 3434 972 4092 
Q 1497 4750 2381 4750 
Q 2619 4750 2861 4703 
Q 3103 4656 3366 4563 
z
" transform="scale(0.015625)"/>
       </defs>
       <use xlink:href="#DejaVuSans-19"/>
       <use xlink:href="#DejaVuSans-13" transform="translate(63.625 0)"/>
      </g>
     </g>
    </g>
    <g id="text_8">
     <!-- t (s) -->
     <g transform="translate(260.924531 203.795312) scale(0.1 -0.1)">
      <defs>
       <path id="DejaVuSans-57" d="M 1172 4494 
L 1172 3500 
L 2356 3500 
L 2356 3053 
L 1172 3053 
L 1172 1153 
Q 1172 725 1289 603 
Q 1406 481 1766 481 
L 2356 481 
L 2356 0 
L 1766 0 
Q 1100 0 847 248 
Q 594 497 594 1153 
L 594 3053 
L 172 3053 
L 172 3500 
L 594 3500 
L 594 4494 
L 1172 4494 
z
" transform="scale(0.015625)"/>
       <path id="DejaVuSans-3" transform="scale(0.015625)"/>
       <path id="DejaVuSans-b" d="M 1984 4856 
Q 1566 4138 1362 3434 
Q 1159 2731 1159 2009 
Q 1159 1288 1364 580 
Q 1569 -128 1984 -844 
L 1484 -844 
Q 1016 -109 783 600 
Q 550 1309 550 2009 
Q 550 2706 781 3412 
Q 1013 4119 1484 4856 
L 1984 4856 
z
" transform="scale(0.015625)"/>
       <path id="DejaVuSans-56" d="M 2834 3397 
L 2834 2853 
Q 2591 2978 2328 3040 
Q 2066 3103 1784 3103 
Q 1356 3103 1142 2972 
Q 928 2841 928 2578 
Q 928 2378 1081 2264 
Q 1234 2150 1697 2047 
L 1894 2003 
Q 2506 1872 2764 1633 
Q 3022 1394 3022 966 
Q 3022 478 2636 193 
Q 2250 -91 1575 -91 
Q 1294 -91 989 -36 
Q 684 19 347 128 
L 347 722 
Q 666 556 975 473 
Q 1284 391 1588 391 
Q 1994 391 2212 530 
Q 2431 669 2431 922 
Q 2431 1156 2273 1281 
Q 2116 1406 1581 1522 
L 1381 1569 
Q 847 1681 609 1914 
Q 372 2147 372 2553 
Q 372 3047 722 3315 
Q 1072 3584 1716 3584 
Q 2034 3584 2315 3537 
Q 2597 3491 2834 3397 
z
" transform="scale(0.015625)"/>
       <path id="DejaVuSans-c" d="M 513 4856 
L 1013 4856 
Q 1481 4119 1714 3412 
Q 1947 2706 1947 2009 
Q 1947 1309 1714 600 
Q 1481 -109 1013 -844 
L 513 -844 
Q 928 -128 1133 580 
Q 1338 1288 1338 2009 
Q 1338 2731 1133 3434 
Q 928 4138 513 4856 
z
" transform="scale(0.015625)"/>
      </defs>
      <use xlink:href="#DejaVuSans-57"/>
      <use xlink:href="#DejaVuSans-3" transform="translate(39.203125 0)"/>
      <use xlink:href="#DejaVuSans-b" transform="translate(70.984375 0)"/>
      <use xlink:href="#DejaVuSans-56" transform="translate(110 0)"/>
      <use xlink:href="#DejaVuSans-c" transform="translate(162.09375 0)"/>
     </g>
    </g>
   </g>
   <g id="matplotlib.axis_2">
    <g id="ytick_1">
     <g id="line2d_15">
      <path d="M 48.76 165.147316 
L 493.2 165.147316 
" clip-path="url(#p7a8721c95e)" style="fill: none; stroke: #b0b0b0; stroke-width: 0.8; stroke-linecap: square"/>
     </g>
     <g id="line2d_16">
      <defs>
       <path id="m9e002fc428" d="M 0 0 
L -3.5 0 
" style="stroke: #000000; stroke-width: 0.8"/>
      </defs>
      <g>
       <use xlink:href="#m9e002fc428" x="48.76" y="165.147316" style="stroke: #000000; stroke-width: 0.8"/>
      </g>
     </g>
     <g id="text_9">
      <!-- −0.5 -->
      <g transform="translate(17.477188 168.946144) scale(0.1 -0.1)">
       <defs>
        <path id="DejaVuSans-c9c" d="M 678 2272 
L 4684 2272 
L 4684 1741 
L 678 1741 
L 678 2272 
z
" transform="scale(0.015625)"/>
        <path id="DejaVuSans-11" d="M 684 794 
L 1344 794 
L 1344 0 
L 684 0 
L 684 794 
z
" transform="scale(0.015625)"/>
       </defs>
       <use xlink:href="#DejaVuSans-c9c"/>
       <use xlink:href="#DejaVuSans-13" transform="translate(83.796875 0)"/>
       <use xlink:href="#DejaVuSans-11" transform="translate(147.421875 0)"/>
       <use xlink:href="#DejaVuSans-18" transform="translate(179.203125 0)"/>
      </g>
     </g>
    </g>
    <g id="ytick_2">
     <g id="line2d_17">
      <path d="M 48.76 123.401885 
L 493.2 123.401885 
" clip-path="url(#p7a8721c95e)" style="fill: none; stroke: #b0b0b0; stroke-width: 0.8; stroke-linecap: square"/>
     </g>
     <g id="line2d_18">
      <g>
       <use xlink:href="#m9e002fc428" x="48.76" y="123.401885" style="stroke: #000000; stroke-width: 0.8"/>
      </g>
     </g>
     <g id="text_10">
      <!-- 0.0 -->
      <g transform="translate(25.856875 127.200713) scale(0.1 -0.1)">
       <use xlink:href="#DejaVuSans-13"/>
       <use xlink:href="#DejaVuSans-11" transform="translate(63.625 0)"/>
       <use xlink:href="#DejaVuSans-13" transform="translate(95.40625 0)"/>
      </g>
     </g>
    </g>
    <g id="ytick_3">
     <g id="line2d_19">
      <path d="M 48.76 81.656454 
L 493.2 81.656454 
" clip-path="url(#p7a8721c95e)" style="fill: none; stroke: #b0b0b0; stroke-width: 0.8; stroke-linecap: square"/>
     </g>
     <g id="line2d_20">
      <g>
       <use xlink:href="#m9e002fc428" x="48.76" y="81.656454" style="stroke: #000000; stroke-width: 0.8"/>
      </g>
     </g>
     <g id="text_11">
      <!-- 0.5 -->
      <g transform="translate(25.856875 85.455282) scale(0.1 -0.1)">
       <use xlink:href="#DejaVuSans-13"/>
       <use xlink:href="#DejaVuSans-11" transform="translate(63.625 0)"/>
       <use xlink:href="#DejaVuSans-18" transform="translate(95.40625 0)"/>
      </g>
     </g>
    </g>
   </g>
   <g id="line2d_21">
    <path d="M 68.961818 152.522349 
L 69.391801 133.370287 
L 69.822159 101.64823 
L 70.254041 88.248066 
L 70.684265 83.621814 
L 71.115062 81.320662 
L 71.54607 80.588625 
L 72.407432 79.910194 
L 72.838122 93.658442 
L 73.268787 167.140359 
L 73.699418 167.073055 
L 74.130233 79.606116 
L 74.561066 79.578705 
L 74.992235 166.98068 
L 75.422422 166.96197 
L 75.853092 79.513415 
L 76.284348 79.490478 
L 76.714665 166.904443 
L 77.145387 166.885576 
L 77.576062 79.42619 
L 78.007901 79.402495 
L 78.43766 166.807268 
L 78.868517 166.765579 
L 79.299356 79.297174 
L 79.729816 79.254527 
L 80.160479 166.618003 
L 80.591558 166.556652 
L 81.022132 79.052907 
L 81.452909 78.936058 
L 81.883616 166.260948 
L 82.3146 166.134414 
L 82.745226 78.496692 
L 83.175922 78.706976 
L 83.606508 165.517514 
L 84.037216 165.161246 
L 84.467928 93.84451 
L 84.89881 77.058832 
L 85.330174 163.969027 
L 85.760559 163.568907 
L 86.190697 75.771096 
L 86.62193 75.439834 
L 87.052199 162.843407 
L 87.482902 163.097802 
L 87.914285 79.151706 
L 88.344681 86.816937 
L 88.775318 165.646013 
L 89.205899 166.308661 
L 89.636896 79.281337 
L 90.067745 79.627401 
L 90.498877 167.449851 
L 90.928866 167.698658 
L 91.359489 81.159956 
L 91.790826 88.748326 
L 92.221368 168.268381 
L 92.651875 168.347365 
L 93.082396 80.931405 
L 93.513398 80.860127 
L 93.944051 168.133118 
L 94.374767 167.75789 
L 94.805875 79.900739 
L 95.236555 79.335246 
L 95.666856 165.777152 
L 96.097838 164.854278 
L 96.528162 76.3858 
L 96.959372 78.209908 
L 97.390003 160.858086 
L 97.820565 159.519003 
L 98.251261 70.357247 
L 98.682254 70.684389 
L 99.112815 155.596365 
L 99.543691 154.57297 
L 99.974358 74.265102 
L 100.404975 66.410211 
L 100.835589 153.868241 
L 101.266708 154.119532 
L 101.697082 67.399206 
L 102.127845 75.982011 
L 102.55847 155.839173 
L 102.989299 156.465684 
L 103.419904 69.859971 
L 103.854067 75.732603 
L 104.284854 158.361005 
L 104.715642 158.929211 
L 105.146224 83.571536 
L 105.577034 72.147498 
L 106.007645 159.661711 
L 106.438478 159.656203 
L 106.86915 78.49732 
L 107.300388 78.805433 
L 107.730626 158.615484 
L 108.161405 158.859887 
L 108.592105 74.720216 
L 109.023581 80.169725 
L 109.453459 159.767363 
L 109.88427 159.813049 
L 110.314879 83.851609 
L 110.745825 75.723941 
L 111.182214 158.870633 
L 111.60873 158.290846 
L 112.039283 81.794768 
L 112.470066 77.502785 
L 112.901282 155.2607 
L 113.331516 153.990384 
L 113.76228 69.043156 
L 114.193099 73.111891 
L 114.62365 148.683762 
L 115.05447 146.435914 
L 115.485602 73.798617 
L 115.916365 61.694598 
L 116.346582 143.847338 
L 116.777393 145.015087 
L 117.207966 72.199408 
L 117.639215 75.266555 
L 118.069591 149.794272 
L 118.500479 149.538974 
L 118.930882 69.127511 
L 119.361795 72.543671 
L 119.79243 148.789458 
L 120.223342 148.640176 
L 120.653831 80.451724 
L 121.084691 69.401575 
L 121.515264 148.863758 
L 121.946128 149.102122 
L 122.376818 72.821029 
L 122.807546 77.773031 
L 123.238225 150.310323 
L 123.66898 150.73487 
L 124.09967 78.17758 
L 124.530505 75.943044 
L 124.96146 151.989404 
L 125.391898 152.300401 
L 125.822613 82.911088 
L 126.253995 77.818567 
L 126.684466 151.076984 
L 127.114921 151.693185 
L 127.545854 82.025501 
L 127.982263 80.675244 
L 128.407113 138.869872 
L 128.837727 143.190418 
L 129.268382 99.422203 
L 129.69924 85.179964 
L 130.130177 120.035857 
L 130.560947 141.481934 
L 131.421969 99.216667 
L 132.283869 133.080617 
L 132.714725 129.203697 
L 133.145082 123.781249 
L 133.575753 121.646058 
L 134.00641 125.661391 
L 134.437696 133.767227 
L 134.8684 132.024713 
L 135.298804 127.689897 
L 135.729011 130.520845 
L 136.162134 130.186725 
L 136.591064 128.428094 
L 137.021793 129.867596 
L 137.883289 125.11014 
L 138.314285 128.17973 
L 138.745044 127.891901 
L 139.175846 127.214776 
L 139.606277 131.318134 
L 140.037374 131.469028 
L 140.46753 131.059544 
L 140.898342 134.732799 
L 141.329127 134.547106 
L 141.759848 133.784519 
L 142.190458 136.327393 
L 142.62128 135.669932 
L 143.052629 134.572248 
L 143.482882 135.825533 
L 144.34439 133.158791 
L 144.775162 133.24547 
L 146.498632 126.958309 
L 146.928781 126.526992 
L 147.359546 127.145601 
L 147.791334 126.738611 
L 148.221107 126.175576 
L 148.651756 126.342544 
L 149.513253 125.133504 
L 149.944078 125.074841 
L 150.805491 123.906931 
L 151.236366 123.773652 
L 152.097562 122.590363 
L 152.528575 122.344404 
L 154.682016 119.1625 
L 155.544482 119.453751 
L 155.974826 120.018093 
L 156.405256 122.797768 
L 156.836683 124.219771 
L 157.697171 126.126971 
L 158.128682 126.069293 
L 158.558805 125.543067 
L 158.989389 124.471572 
L 159.421021 122.755558 
L 159.85084 120.440461 
L 161.573735 107.091939 
L 162.006279 105.122936 
L 162.435112 104.04831 
L 162.865956 104.862907 
L 163.296322 106.08111 
L 163.727342 107.898319 
L 164.158072 111.779662 
L 165.020375 116.335839 
L 165.450479 119.594501 
L 165.88092 120.759631 
L 166.311831 123.273082 
L 166.74256 126.800655 
L 167.175197 128.032087 
L 168.03466 129.016606 
L 168.466897 128.16286 
L 168.896459 126.87377 
L 169.75855 123.148819 
L 170.619947 118.20323 
L 172.343187 108.808021 
L 172.772693 107.437809 
L 173.203414 106.932811 
L 173.63459 107.585264 
L 174.065197 109.453251 
L 174.926926 118.725223 
L 175.7878 129.847465 
L 176.218708 130.582361 
L 176.649189 130.8934 
L 177.080533 130.645315 
L 177.511782 129.802938 
L 177.941698 128.455915 
L 178.80339 123.812515 
L 179.233446 121.098302 
L 180.096319 114.338765 
L 181.818073 102.901823 
L 182.249381 100.857594 
L 182.681197 100.03768 
L 183.110407 99.972342 
L 183.540848 101.043841 
L 183.973295 102.868519 
L 184.402468 105.484372 
L 185.266287 114.647754 
L 185.694559 113.468471 
L 186.125365 115.793697 
L 186.55763 119.767965 
L 186.986731 125.002957 
L 187.418252 133.788816 
L 187.848768 139.101608 
L 188.709698 146.695756 
L 189.141784 144.694796 
L 190.001803 133.489457 
L 190.863748 119.900192 
L 191.29395 116.383467 
L 191.725854 116.034673 
L 192.155815 117.747091 
L 193.016908 122.657535 
L 193.44756 125.2629 
L 194.310768 129.239952 
L 194.739762 131.587457 
L 195.170602 133.192994 
L 196.031962 137.532666 
L 196.4632 136.983196 
L 196.894576 136.703576 
L 197.324381 135.227547 
L 198.187182 122.457296 
L 198.616557 121.499084 
L 199.047202 118.746221 
L 199.48011 118.581965 
L 199.908633 118.912169 
L 200.339572 118.199639 
L 200.771215 119.076394 
L 201.200881 120.245335 
L 201.631563 120.875465 
L 202.924534 125.545696 
L 203.785268 129.764587 
L 204.648061 134.846252 
L 206.800416 148.958452 
L 207.232944 150.387455 
L 207.661714 150.872446 
L 208.092722 147.909524 
L 208.524491 146.082771 
L 208.953896 142.927759 
L 209.384859 136.210391 
L 210.246165 126.538788 
L 210.676854 119.557092 
L 211.108768 115.466076 
L 212.830347 130.356908 
L 213.261504 130.477311 
L 213.693632 131.074973 
L 214.122824 131.958456 
L 214.553628 132.438045 
L 215.414852 129.465125 
L 215.845617 126.572219 
L 216.277675 125.729015 
L 217.13786 125.124688 
L 217.999261 127.3771 
L 219.722255 133.415887 
L 220.58364 135.186512 
L 221.015115 136.125638 
L 222.306617 137.09027 
L 223.168169 137.286645 
L 223.598873 137.569232 
L 224.031384 137.490123 
L 224.460689 138.318076 
L 224.891673 136.658459 
L 225.322927 133.45568 
L 225.752781 128.861361 
L 226.615654 114.667459 
L 227.907703 96.040926 
L 228.337691 93.428007 
L 228.767778 92.327901 
L 229.19997 95.041393 
L 229.629169 100.418324 
L 231.35205 133.274672 
L 231.784556 137.047956 
L 232.644154 140.110167 
L 233.076494 138.613461 
L 233.936385 133.580931 
L 234.797869 126.696491 
L 235.660197 122.707995 
L 236.090063 121.795739 
L 236.952831 125.584587 
L 237.812972 106.92894 
L 238.245415 103.168558 
L 238.674456 101.960343 
L 239.105329 104.625008 
L 239.537488 108.416176 
L 239.967352 113.519301 
L 240.397669 122.154779 
L 242.122007 145.96083 
L 242.981805 153.595133 
L 243.414383 154.723468 
L 243.843778 154.04797 
L 244.273947 149.345671 
L 244.706565 142.799629 
L 245.13531 133.837423 
L 245.998449 108.429946 
L 246.427669 101.975713 
L 246.858217 101.619192 
L 247.290475 106.627024 
L 247.720103 109.813897 
L 248.150551 111.284459 
L 248.582739 110.477575 
L 249.012502 108.346421 
L 249.442718 104.122781 
L 249.874877 110.271184 
L 250.734917 127.458352 
L 251.16716 133.271634 
L 251.596455 135.808256 
L 252.027574 136.426629 
L 252.459315 134.729223 
L 254.180609 123.426735 
L 254.61147 122.168067 
L 255.043801 121.402154 
L 255.472861 121.758554 
L 256.335479 129.307979 
L 256.768823 126.874913 
L 257.195826 125.130456 
L 257.62846 123.957652 
L 258.057222 123.232291 
L 258.920816 123.243226 
L 259.349396 123.473784 
L 259.78024 124.270445 
L 260.641842 125.300348 
L 261.072331 126.161679 
L 262.364565 127.606045 
L 263.22608 128.03731 
L 264.518184 127.117285 
L 265.81033 123.156572 
L 266.241152 128.238603 
L 266.673152 135.304353 
L 267.103353 138.370596 
L 267.533962 136.456996 
L 267.965415 132.982878 
L 268.394794 128.553228 
L 268.825515 121.19563 
L 269.257784 117.38292 
L 269.686967 114.64462 
L 270.117431 111.009344 
L 270.979288 109.229192 
L 271.841836 103.838625 
L 272.271307 99.641226 
L 272.702215 93.505915 
L 273.563374 100.585401 
L 273.99419 106.890641 
L 274.855567 113.887266 
L 275.719041 137.803553 
L 276.147803 129.236123 
L 276.578606 123.398871 
L 278.732459 123.401871 
L 279.163626 134.338795 
L 279.594159 142.097245 
L 280.024541 143.831746 
L 280.455367 144.818261 
L 281.316447 136.57621 
L 281.7479 134.397444 
L 282.17901 133.39356 
L 282.609371 134.397226 
L 283.471977 138.53415 
L 283.900995 139.579618 
L 284.331743 135.741639 
L 284.763089 130.138143 
L 285.193543 120.595636 
L 285.623793 115.567894 
L 286.056405 122.216832 
L 286.485417 126.756042 
L 286.916055 127.995248 
L 287.348441 128.11869 
L 287.778224 127.093287 
L 288.208709 123.018101 
L 289.070435 119.407734 
L 289.500574 116.326745 
L 289.932681 115.97221 
L 290.361964 116.141231 
L 290.792845 115.548161 
L 291.225281 116.171983 
L 291.65427 116.495177 
L 292.084913 115.823873 
L 292.516694 114.884161 
L 292.946417 113.002434 
L 293.809576 105.860335 
L 294.669111 96.796665 
L 295.101576 98.193773 
L 295.531609 100.496342 
L 295.961403 105.155697 
L 296.82288 110.167643 
L 297.686035 127.351834 
L 298.115103 134.368071 
L 298.546148 132.676293 
L 298.977129 121.649916 
L 299.40728 117.620035 
L 299.838017 119.091695 
L 300.699794 119.137314 
L 301.129978 121.190053 
L 301.561716 121.547223 
L 302.422435 138.236482 
L 302.854879 139.550633 
L 303.715511 135.800943 
L 304.576104 126.53545 
L 305.007152 124.063666 
L 305.439896 123.196905 
L 305.868569 124.147011 
L 306.298913 126.771804 
L 306.731188 130.741778 
L 307.160556 136.307266 
L 308.022847 154.299849 
L 308.453592 154.395106 
L 308.883447 150.644734 
L 309.744937 146.8061 
L 310.175524 142.307982 
L 310.607747 140.38619 
L 311.467726 117.407686 
L 311.900342 119.432424 
L 312.760001 125.134282 
L 313.192387 128.622508 
L 313.621401 129.264432 
L 314.052146 127.422188 
L 314.913716 126.696457 
L 315.344255 125.559967 
L 315.776377 125.864507 
L 316.205867 126.542319 
L 316.636356 120.892316 
L 317.068192 118.047748 
L 317.928635 113.440134 
L 318.360934 113.740496 
L 319.221123 115.974924 
L 320.082463 120.196011 
L 321.374654 128.422783 
L 322.667379 141.094881 
L 323.958986 159.353841 
L 324.38969 163.967035 
L 324.821814 164.460054 
L 325.251711 163.919747 
L 326.113871 157.554511 
L 326.54342 153.218355 
L 327.835647 129.883756 
L 329.127674 93.447851 
L 329.558484 89.649162 
L 331.28258 88.422357 
L 332.575368 87.833518 
L 333.866897 87.524393 
L 334.296425 87.476175 
L 334.727184 98.030809 
L 335.589222 138.322467 
L 336.019486 153.321152 
L 336.450929 158.974251 
L 336.880981 161.058027 
L 337.311603 167.27641 
L 337.743193 169.459581 
L 338.173059 167.748018 
L 338.604044 163.147849 
L 339.466736 146.635617 
L 339.896175 136.064186 
L 340.326839 128.839631 
L 341.188196 117.253564 
L 341.620195 115.302051 
L 342.049943 114.851168 
L 342.489089 113.750712 
L 343.344985 116.432585 
L 343.775651 116.811342 
L 344.206305 117.407866 
L 344.637225 117.283311 
L 345.067788 116.173652 
L 345.499243 114.568689 
L 345.929214 112.232847 
L 347.652277 100.872562 
L 348.082937 99.776474 
L 348.51452 100.183927 
L 349.375077 110.51585 
L 350.236679 124.479699 
L 351.52885 120.763677 
L 352.390568 117.200658 
L 352.821508 116.143587 
L 353.682583 113.757527 
L 354.543938 113.718415 
L 354.976056 114.202589 
L 356.267077 119.731987 
L 357.128786 125.40666 
L 358.420626 132.890125 
L 358.851562 134.611205 
L 359.2821 135.83061 
L 359.713062 136.46252 
L 360.143889 136.59473 
L 361.436206 131.949153 
L 363.158751 112.891767 
L 364.020357 106.891641 
L 365.312553 91.485261 
L 366.173871 73.998038 
L 366.60455 62.636637 
L 367.035302 54.698075 
L 367.897092 55.495123 
L 370.050293 59.584914 
L 372.204377 63.594407 
L 373.065665 64.429368 
L 373.49609 64.749378 
L 373.926929 64.855213 
L 374.357801 64.842014 
L 375.221138 64.34285 
L 375.652391 63.932934 
L 376.082807 63.920565 
L 376.513725 64.138008 
L 376.944404 64.106679 
L 377.806375 63.414181 
L 379.528507 61.727078 
L 379.959307 61.567506 
L 380.389986 61.650022 
L 380.821285 61.924217 
L 381.682382 63.29659 
L 382.113263 64.152071 
L 382.974723 66.516394 
L 383.40563 67.588056 
L 383.836806 68.977425 
L 385.128116 71.846159 
L 385.989668 72.969139 
L 386.420341 73.439713 
L 386.851045 73.6447 
L 387.281621 89.206058 
L 387.713368 159.822216 
L 388.143249 159.369873 
L 388.575492 103.039206 
L 389.004742 91.849287 
L 389.435856 131.398826 
L 389.866428 145.515565 
L 390.727397 99.084508 
L 391.158527 114.742838 
L 391.590459 140.798731 
L 392.019765 131.574627 
L 392.450566 109.2165 
L 392.881341 117.566703 
L 393.311968 134.596717 
L 393.742902 132.985408 
L 394.173715 123.852758 
L 394.604249 119.907434 
L 395.465611 136.853879 
L 396.327654 120.455888 
L 396.758176 128.578329 
L 397.188492 134.590616 
L 397.619595 129.191382 
L 398.050095 125.474168 
L 398.480643 126.917349 
L 398.911394 130.384795 
L 399.342164 131.414931 
L 399.773319 126.247144 
L 400.203958 124.106583 
L 400.635173 129.019512 
L 401.065153 129.324676 
L 401.49598 123.958433 
L 401.926697 122.990444 
L 402.357329 125.461296 
L 402.789927 125.883095 
L 403.219053 124.800491 
L 403.649708 122.775886 
L 404.080457 123.449009 
L 404.511077 126.731793 
L 404.942038 125.271166 
L 405.372684 122.185018 
L 406.233992 126.431638 
L 406.664853 124.560061 
L 407.095951 123.564904 
L 407.526884 124.198197 
L 407.95687 125.230244 
L 408.387829 125.550006 
L 408.818462 123.611901 
L 409.249188 123.207892 
L 409.679923 125.767536 
L 410.111707 125.599139 
L 410.541386 123.137308 
L 410.972086 123.71158 
L 411.403017 125.668934 
L 411.833593 125.323269 
L 412.264259 123.867703 
L 412.69506 123.77463 
L 413.125759 125.251653 
L 413.556496 125.684705 
L 413.987828 123.810997 
L 414.418035 122.920186 
L 414.848846 124.506572 
L 415.279415 124.951417 
L 415.710549 123.239126 
L 416.1409 122.879923 
L 416.57154 124.196219 
L 417.002618 124.643643 
L 417.8644 122.914875 
L 418.725444 124.675301 
L 419.586895 122.877995 
L 420.448077 124.420719 
L 421.310545 123.240208 
L 421.740218 123.44761 
L 422.173048 124.009134 
L 422.601902 124.071554 
L 423.032508 123.446016 
L 423.463602 123.26946 
L 423.894228 123.878249 
L 424.324774 124.003275 
L 424.755464 123.528194 
L 425.186501 123.435222 
L 426.047724 123.784346 
L 426.47915 123.739376 
L 426.909762 123.514572 
L 427.339926 123.48545 
L 427.770657 123.740378 
L 428.202062 123.725619 
L 428.632046 123.528917 
L 430.354983 123.640415 
L 431.216371 123.523905 
L 432.077824 123.607217 
L 432.940034 123.578419 
L 440.261769 123.496241 
L 442.41534 123.493362 
L 448.014994 123.457223 
L 451.030621 123.533532 
L 451.891466 123.66804 
L 452.322742 123.885911 
L 452.752894 124.545455 
L 453.184235 125.582725 
L 453.614856 127.265295 
L 454.045941 130.031688 
L 454.476387 134.642627 
L 454.907197 142.340273 
L 455.768528 166.15349 
L 465.67537 166.15349 
L 466.106156 163.089635 
L 466.537074 125.0064 
L 466.967947 105.252815 
L 467.398597 111.424364 
L 467.829452 122.717905 
L 468.259791 126.702538 
L 468.69084 125.1445 
L 469.121323 122.966567 
L 469.552296 122.052366 
L 469.983014 122.016372 
L 470.844624 122.326265 
L 472.136426 122.416366 
L 472.998182 122.422536 
L 472.998182 122.422536 
" clip-path="url(#p7a8721c95e)" style="fill: none; stroke: #1f77b4; stroke-width: 1.5; stroke-linecap: square"/>
   </g>
   <g id="patch_3">
    <path d="M 48.76 175.197656 
L 48.76 48.96 
" style="fill: none; stroke: #000000; stroke-width: 0.8; stroke-linejoin: miter; stroke-linecap: square"/>
   </g>
   <g id="patch_4">
    <path d="M 493.2 175.197656 
L 493.2 48.96 
" style="fill: none; stroke: #000000; stroke-width: 0.8; stroke-linejoin: miter; stroke-linecap: square"/>
   </g>
   <g id="patch_5">
    <path d="M 48.76 175.197656 
L 493.2 175.197656 
" style="fill: none; stroke: #000000; stroke-width: 0.8; stroke-linejoin: miter; stroke-linecap: square"/>
   </g>
   <g id="patch_6">
    <path d="M 48.76 48.96 
L 493.2 48.96 
" style="fill: none; stroke: #000000; stroke-width: 0.8; stroke-linejoin: miter; stroke-linecap: square"/>
   </g>
   <g id="text_12">
    <!-- $\delta_e$ (rad) -->
    <g transform="translate(248 42.96) scale(0.12 -0.12)">
     <defs>
      <path id="DejaVuSans-Oblique-348" d="M 3472 4053 
Q 3197 4272 2450 4272 
Q 1659 4272 1588 3906 
Q 1531 3619 2328 3469 
Q 2953 3353 3253 3003 
Q 3616 2581 3447 1716 
Q 3284 888 2763 400 
Q 2238 -91 1488 -91 
Q 741 -91 406 400 
Q 72 888 241 1747 
Q 363 2384 891 2900 
Q 1097 3100 1353 3213 
Q 913 3459 1000 3900 
Q 1166 4750 2544 4750 
Q 3234 4750 3566 4531 
L 3472 4053 
z
M 1753 3056 
Q 1525 2966 1306 2738 
Q 969 2384 847 1747 
Q 722 1113 919 756 
Q 1119 397 1584 397 
Q 2044 397 2381 759 
Q 2722 1122 2838 1716 
Q 2956 2338 2731 2638 
Q 2491 2959 2103 2994 
Q 1906 3013 1753 3056 
z
" transform="scale(0.015625)"/>
      <path id="DejaVuSans-Oblique-48" d="M 3078 2063 
Q 3088 2113 3092 2166 
Q 3097 2219 3097 2272 
Q 3097 2653 2873 2875 
Q 2650 3097 2266 3097 
Q 1838 3097 1509 2826 
Q 1181 2556 1013 2059 
L 3078 2063 
z
M 3578 1613 
L 903 1613 
Q 884 1494 878 1425 
Q 872 1356 872 1306 
Q 872 872 1139 634 
Q 1406 397 1894 397 
Q 2269 397 2603 481 
Q 2938 566 3225 728 
L 3116 159 
Q 2806 34 2476 -28 
Q 2147 -91 1806 -91 
Q 1078 -91 686 257 
Q 294 606 294 1247 
Q 294 1794 489 2264 
Q 684 2734 1063 3103 
Q 1306 3334 1642 3459 
Q 1978 3584 2356 3584 
Q 2950 3584 3301 3228 
Q 3653 2872 3653 2272 
Q 3653 2128 3634 1964 
Q 3616 1800 3578 1613 
z
" transform="scale(0.015625)"/>
      <path id="DejaVuSans-55" d="M 2631 2963 
Q 2534 3019 2420 3045 
Q 2306 3072 2169 3072 
Q 1681 3072 1420 2755 
Q 1159 2438 1159 1844 
L 1159 0 
L 581 0 
L 581 3500 
L 1159 3500 
L 1159 2956 
Q 1341 3275 1631 3429 
Q 1922 3584 2338 3584 
Q 2397 3584 2469 3576 
Q 2541 3569 2628 3553 
L 2631 2963 
z
" transform="scale(0.015625)"/>
      <path id="DejaVuSans-44" d="M 2194 1759 
Q 1497 1759 1228 1600 
Q 959 1441 959 1056 
Q 959 750 1161 570 
Q 1363 391 1709 391 
Q 2188 391 2477 730 
Q 2766 1069 2766 1631 
L 2766 1759 
L 2194 1759 
z
M 3341 1997 
L 3341 0 
L 2766 0 
L 2766 531 
Q 2569 213 2275 61 
Q 1981 -91 1556 -91 
Q 1019 -91 701 211 
Q 384 513 384 1019 
Q 384 1609 779 1909 
Q 1175 2209 1959 2209 
L 2766 2209 
L 2766 2266 
Q 2766 2663 2505 2880 
Q 2244 3097 1772 3097 
Q 1472 3097 1187 3025 
Q 903 2953 641 2809 
L 641 3341 
Q 956 3463 1253 3523 
Q 1550 3584 1831 3584 
Q 2591 3584 2966 3190 
Q 3341 2797 3341 1997 
z
" transform="scale(0.015625)"/>
      <path id="DejaVuSans-47" d="M 2906 2969 
L 2906 4863 
L 3481 4863 
L 3481 0 
L 2906 0 
L 2906 525 
Q 2725 213 2448 61 
Q 2172 -91 1784 -91 
Q 1150 -91 751 415 
Q 353 922 353 1747 
Q 353 2572 751 3078 
Q 1150 3584 1784 3584 
Q 2172 3584 2448 3432 
Q 2725 3281 2906 2969 
z
M 947 1747 
Q 947 1113 1208 752 
Q 1469 391 1925 391 
Q 2381 391 2643 752 
Q 2906 1113 2906 1747 
Q 2906 2381 2643 2742 
Q 2381 3103 1925 3103 
Q 1469 3103 1208 2742 
Q 947 2381 947 1747 
z
" transform="scale(0.015625)"/>
     </defs>
     <use xlink:href="#DejaVuSans-Oblique-348" transform="translate(0 0.015625)"/>
     <use xlink:href="#DejaVuSans-Oblique-48" transform="translate(61.181641 -14.984326) scale(0.7)"/>
     <use xlink:href="#DejaVuSans-3" transform="translate(106.982422 0.015625)"/>
     <use xlink:href="#DejaVuSans-b" transform="translate(138.769531 0.015625)"/>
     <use xlink:href="#DejaVuSans-55" transform="translate(177.783203 0.015625)"/>
     <use xlink:href="#DejaVuSans-44" transform="translate(218.896484 0.015625)"/>
     <use xlink:href="#DejaVuSans-47" transform="translate(280.175781 0.015625)"/>
     <use xlink:href="#DejaVuSans-c" transform="translate(343.652344 0.015625)"/>
    </g>
   </g>
   <g id="legend_1">
    <g id="patch_7">
     <path d="M 443.5 71.960781 
L 486.2 71.960781 
Q 488.2 71.960781 488.2 69.960781 
L 488.2 55.96 
Q 488.2 53.96 486.2 53.96 
L 443.5 53.96 
Q 441.5 53.96 441.5 55.96 
L 441.5 69.960781 
Q 441.5 71.960781 443.5 71.960781 
z
" style="fill: #ffffff; opacity: 0.8; stroke: #cccccc; stroke-linejoin: miter"/>
    </g>
    <g id="line2d_22">
     <path d="M 445.5 62.058437 
L 455.5 62.058437 
L 465.5 62.058437 
" style="fill: none; stroke: #1f77b4; stroke-width: 1.5; stroke-linecap: square"/>
    </g>
    <g id="text_13">
     <!-- $\delta_e$ -->
     <g transform="translate(473.5 65.558437) scale(0.1 -0.1)">
      <use xlink:href="#DejaVuSans-Oblique-348" transform="translate(0 0.78125)"/>
      <use xlink:href="#DejaVuSans-Oblique-48" transform="translate(61.181641 -14.218701) scale(0.7)"/>
     </g>
    </g>
   </g>
  </g>
  <g id="axes_2">
   <g id="patch_8">
    <path d="M 48.76 361.077656 
L 493.2 361.077656 
L 493.2 234.84 
L 48.76 234.84 
z
" style="fill: #ffffff"/>
   </g>
   <g id="matplotlib.axis_3">
    <g id="xtick_8">
     <g id="line2d_23">
      <path d="M 68.573317 361.077656 
L 68.573317 234.84 
" clip-path="url(#p969af24712)" style="fill: none; stroke: #b0b0b0; stroke-width: 0.8; stroke-linecap: square"/>
     </g>
     <g id="line2d_24">
      <g>
       <use xlink:href="#m48b25e1bbd" x="68.573317" y="361.077656" style="stroke: #000000; stroke-width: 0.8"/>
      </g>
     </g>
     <g id="text_14">
      <!-- 0 -->
      <g transform="translate(65.392067 375.675312) scale(0.1 -0.1)">
       <use xlink:href="#DejaVuSans-13"/>
      </g>
     </g>
    </g>
    <g id="xtick_9">
     <g id="line2d_25">
      <path d="M 133.182413 361.077656 
L 133.182413 234.84 
" clip-path="url(#p969af24712)" style="fill: none; stroke: #b0b0b0; stroke-width: 0.8; stroke-linecap: square"/>
     </g>
     <g id="line2d_26">
      <g>
       <use xlink:href="#m48b25e1bbd" x="133.182413" y="361.077656" style="stroke: #000000; stroke-width: 0.8"/>
      </g>
     </g>
     <g id="text_15">
      <!-- 10 -->
      <g transform="translate(126.819913 375.675312) scale(0.1 -0.1)">
       <use xlink:href="#DejaVuSans-14"/>
       <use xlink:href="#DejaVuSans-13" transform="translate(63.625 0)"/>
      </g>
     </g>
    </g>
    <g id="xtick_10">
     <g id="line2d_27">
      <path d="M 197.79151 361.077656 
L 197.79151 234.84 
" clip-path="url(#p969af24712)" style="fill: none; stroke: #b0b0b0; stroke-width: 0.8; stroke-linecap: square"/>
     </g>
     <g id="line2d_28">
      <g>
       <use xlink:href="#m48b25e1bbd" x="197.79151" y="361.077656" style="stroke: #000000; stroke-width: 0.8"/>
      </g>
     </g>
     <g id="text_16">
      <!-- 20 -->
      <g transform="translate(191.42901 375.675312) scale(0.1 -0.1)">
       <use xlink:href="#DejaVuSans-15"/>
       <use xlink:href="#DejaVuSans-13" transform="translate(63.625 0)"/>
      </g>
     </g>
    </g>
    <g id="xtick_11">
     <g id="line2d_29">
      <path d="M 262.400606 361.077656 
L 262.400606 234.84 
" clip-path="url(#p969af24712)" style="fill: none; stroke: #b0b0b0; stroke-width: 0.8; stroke-linecap: square"/>
     </g>
     <g id="line2d_30">
      <g>
       <use xlink:href="#m48b25e1bbd" x="262.400606" y="361.077656" style="stroke: #000000; stroke-width: 0.8"/>
      </g>
     </g>
     <g id="text_17">
      <!-- 30 -->
      <g transform="translate(256.038106 375.675312) scale(0.1 -0.1)">
       <use xlink:href="#DejaVuSans-16"/>
       <use xlink:href="#DejaVuSans-13" transform="translate(63.625 0)"/>
      </g>
     </g>
    </g>
    <g id="xtick_12">
     <g id="line2d_31">
      <path d="M 327.009703 361.077656 
L 327.009703 234.84 
" clip-path="url(#p969af24712)" style="fill: none; stroke: #b0b0b0; stroke-width: 0.8; stroke-linecap: square"/>
     </g>
     <g id="line2d_32">
      <g>
       <use xlink:href="#m48b25e1bbd" x="327.009703" y="361.077656" style="stroke: #000000; stroke-width: 0.8"/>
      </g>
     </g>
     <g id="text_18">
      <!-- 40 -->
      <g transform="translate(320.647203 375.675312) scale(0.1 -0.1)">
       <use xlink:href="#DejaVuSans-17"/>
       <use xlink:href="#DejaVuSans-13" transform="translate(63.625 0)"/>
      </g>
     </g>
    </g>
    <g id="xtick_13">
     <g id="line2d_33">
      <path d="M 391.618799 361.077656 
L 391.618799 234.84 
" clip-path="url(#p969af24712)" style="fill: none; stroke: #b0b0b0; stroke-width: 0.8; stroke-linecap: square"/>
     </g>
     <g id="line2d_34">
      <g>
       <use xlink:href="#m48b25e1bbd" x="391.618799" y="361.077656" style="stroke: #000000; stroke-width: 0.8"/>
      </g>
     </g>
     <g id="text_19">
      <!-- 50 -->
      <g transform="translate(385.256299 375.675312) scale(0.1 -0.1)">
       <use xlink:href="#DejaVuSans-18"/>
       <use xlink:href="#DejaVuSans-13" transform="translate(63.625 0)"/>
      </g>
     </g>
    </g>
    <g id="xtick_14">
     <g id="line2d_35">
      <path d="M 456.227896 361.077656 
L 456.227896 234.84 
" clip-path="url(#p969af24712)" style="fill: none; stroke: #b0b0b0; stroke-width: 0.8; stroke-linecap: square"/>
     </g>
     <g id="line2d_36">
      <g>
       <use xlink:href="#m48b25e1bbd" x="456.227896" y="361.077656" style="stroke: #000000; stroke-width: 0.8"/>
      </g>
     </g>
     <g id="text_20">
      <!-- 60 -->
      <g transform="translate(449.865396 375.675312) scale(0.1 -0.1)">
       <use xlink:href="#DejaVuSans-19"/>
       <use xlink:href="#DejaVuSans-13" transform="translate(63.625 0)"/>
      </g>
     </g>
    </g>
    <g id="text_21">
     <!-- t (s) -->
     <g transform="translate(260.924531 389.675312) scale(0.1 -0.1)">
      <use xlink:href="#DejaVuSans-57"/>
      <use xlink:href="#DejaVuSans-3" transform="translate(39.203125 0)"/>
      <use xlink:href="#DejaVuSans-b" transform="translate(70.984375 0)"/>
      <use xlink:href="#DejaVuSans-56" transform="translate(110 0)"/>
      <use xlink:href="#DejaVuSans-c" transform="translate(162.09375 0)"/>
     </g>
    </g>
   </g>
   <g id="matplotlib.axis_4">
    <g id="ytick_4">
     <g id="line2d_37">
      <path d="M 48.76 345.776122 
L 493.2 345.776122 
" clip-path="url(#p969af24712)" style="fill: none; stroke: #b0b0b0; stroke-width: 0.8; stroke-linecap: square"/>
     </g>
     <g id="line2d_38">
      <g>
       <use xlink:href="#m9e002fc428" x="48.76" y="345.776122" style="stroke: #000000; stroke-width: 0.8"/>
      </g>
     </g>
     <g id="text_22">
      <!-- −0.50 -->
      <g transform="translate(11.114688 349.57495) scale(0.1 -0.1)">
       <use xlink:href="#DejaVuSans-c9c"/>
       <use xlink:href="#DejaVuSans-13" transform="translate(83.796875 0)"/>
       <use xlink:href="#DejaVuSans-11" transform="translate(147.421875 0)"/>
       <use xlink:href="#DejaVuSans-18" transform="translate(179.203125 0)"/>
       <use xlink:href="#DejaVuSans-13" transform="translate(242.828125 0)"/>
      </g>
     </g>
    </g>
    <g id="ytick_5">
     <g id="line2d_39">
      <path d="M 48.76 321.867475 
L 493.2 321.867475 
" clip-path="url(#p969af24712)" style="fill: none; stroke: #b0b0b0; stroke-width: 0.8; stroke-linecap: square"/>
     </g>
     <g id="line2d_40">
      <g>
       <use xlink:href="#m9e002fc428" x="48.76" y="321.867475" style="stroke: #000000; stroke-width: 0.8"/>
      </g>
     </g>
     <g id="text_23">
      <!-- −0.25 -->
      <g transform="translate(11.114688 325.666303) scale(0.1 -0.1)">
       <use xlink:href="#DejaVuSans-c9c"/>
       <use xlink:href="#DejaVuSans-13" transform="translate(83.796875 0)"/>
       <use xlink:href="#DejaVuSans-11" transform="translate(147.421875 0)"/>
       <use xlink:href="#DejaVuSans-15" transform="translate(179.203125 0)"/>
       <use xlink:href="#DejaVuSans-18" transform="translate(242.828125 0)"/>
      </g>
     </g>
    </g>
    <g id="ytick_6">
     <g id="line2d_41">
      <path d="M 48.76 297.958828 
L 493.2 297.958828 
" clip-path="url(#p969af24712)" style="fill: none; stroke: #b0b0b0; stroke-width: 0.8; stroke-linecap: square"/>
     </g>
     <g id="line2d_42">
      <g>
       <use xlink:href="#m9e002fc428" x="48.76" y="297.958828" style="stroke: #000000; stroke-width: 0.8"/>
      </g>
     </g>
     <g id="text_24">
      <!-- 0.00 -->
      <g transform="translate(19.494375 301.757656) scale(0.1 -0.1)">
       <use xlink:href="#DejaVuSans-13"/>
       <use xlink:href="#DejaVuSans-11" transform="translate(63.625 0)"/>
       <use xlink:href="#DejaVuSans-13" transform="translate(95.40625 0)"/>
       <use xlink:href="#DejaVuSans-13" transform="translate(159.03125 0)"/>
      </g>
     </g>
    </g>
    <g id="ytick_7">
     <g id="line2d_43">
      <path d="M 48.76 274.050181 
L 493.2 274.050181 
" clip-path="url(#p969af24712)" style="fill: none; stroke: #b0b0b0; stroke-width: 0.8; stroke-linecap: square"/>
     </g>
     <g id="line2d_44">
      <g>
       <use xlink:href="#m9e002fc428" x="48.76" y="274.050181" style="stroke: #000000; stroke-width: 0.8"/>
      </g>
     </g>
     <g id="text_25">
      <!-- 0.25 -->
      <g transform="translate(19.494375 277.849009) scale(0.1 -0.1)">
       <use xlink:href="#DejaVuSans-13"/>
       <use xlink:href="#DejaVuSans-11" transform="translate(63.625 0)"/>
       <use xlink:href="#DejaVuSans-15" transform="translate(95.40625 0)"/>
       <use xlink:href="#DejaVuSans-18" transform="translate(159.03125 0)"/>
      </g>
     </g>
    </g>
    <g id="ytick_8">
     <g id="line2d_45">
      <path d="M 48.76 250.141534 
L 493.2 250.141534 
" clip-path="url(#p969af24712)" style="fill: none; stroke: #b0b0b0; stroke-width: 0.8; stroke-linecap: square"/>
     </g>
     <g id="line2d_46">
      <g>
       <use xlink:href="#m9e002fc428" x="48.76" y="250.141534" style="stroke: #000000; stroke-width: 0.8"/>
      </g>
     </g>
     <g id="text_26">
      <!-- 0.50 -->
      <g transform="translate(19.494375 253.940362) scale(0.1 -0.1)">
       <use xlink:href="#DejaVuSans-13"/>
       <use xlink:href="#DejaVuSans-11" transform="translate(63.625 0)"/>
       <use xlink:href="#DejaVuSans-18" transform="translate(95.40625 0)"/>
       <use xlink:href="#DejaVuSans-13" transform="translate(159.03125 0)"/>
      </g>
     </g>
    </g>
   </g>
   <g id="line2d_47">
    <path d="M 68.961818 318.492793 
L 69.391801 318.310379 
L 70.254041 298.543649 
L 70.684265 297.958828 
L 78.43766 297.958828 
L 79.299356 278.240403 
L 79.729816 269.200166 
L 80.160479 257.475315 
L 81.022132 241.007495 
L 81.452909 240.578075 
L 87.052199 240.578075 
L 87.482902 245.277414 
L 88.344681 277.049635 
L 88.775318 272.660437 
L 89.205899 265.26245 
L 90.498877 251.644975 
L 91.359489 246.513543 
L 91.790826 244.225656 
L 92.221368 243.05806 
L 92.651875 242.329511 
L 93.082396 241.992821 
L 93.513398 242.180188 
L 93.944051 242.713774 
L 95.236555 246.642913 
L 97.820565 261.281985 
L 98.682254 267.492971 
L 99.112815 270.190567 
L 99.543691 273.754903 
L 101.697082 286.279634 
L 102.127845 288.608578 
L 102.989299 291.204056 
L 103.419904 292.234556 
L 103.854067 292.592416 
L 104.284854 292.564159 
L 104.715642 291.879841 
L 105.146224 290.847948 
L 105.577034 289.343377 
L 106.86915 280.605683 
L 107.300388 275.376717 
L 107.730626 272.272321 
L 108.592105 293.950966 
L 109.023581 297.958828 
L 110.745825 297.958828 
L 111.60873 287.921359 
L 112.039283 282.077477 
L 112.901282 267.780027 
L 114.193099 251.423287 
L 114.62365 248.667395 
L 115.05447 247.13892 
L 115.485602 247.763047 
L 115.916365 249.95421 
L 116.777393 260.755044 
L 117.207966 267.458926 
L 117.639215 270.96462 
L 118.500479 267.716844 
L 118.930882 266.558942 
L 119.361795 266.138604 
L 119.79243 266.046976 
L 120.223342 266.348795 
L 121.084691 267.469642 
L 121.946128 269.34195 
L 122.376818 270.206389 
L 122.807546 271.332278 
L 124.09967 273.645535 
L 124.96146 274.509225 
L 125.391898 274.840669 
L 126.253995 275.003567 
L 126.684466 274.939366 
L 127.114921 274.631987 
L 127.982263 271.12046 
L 128.407113 270.884964 
L 128.837727 271.271253 
L 130.130177 275.296389 
L 130.560947 277.368245 
L 131.852762 281.884248 
L 132.714725 283.609036 
L 133.145082 284.263659 
L 133.575753 284.494149 
L 134.00641 284.507546 
L 134.437696 284.201865 
L 134.8684 283.743033 
L 135.298804 283.101714 
L 136.591064 279.948915 
L 137.021793 280.598038 
L 138.745044 288.908793 
L 139.175846 289.980867 
L 139.606277 290.56474 
L 140.037374 290.326627 
L 140.46753 289.520517 
L 141.759848 283.520972 
L 142.62128 277.707309 
L 143.913654 270.181535 
L 144.775162 267.116471 
L 145.206618 266.630904 
L 145.636598 266.7365 
L 146.067341 267.932892 
L 146.498632 270.866102 
L 147.359546 296.603676 
L 147.791334 297.958828 
L 149.083675 297.958828 
L 149.513253 296.474918 
L 151.236366 258.749946 
L 152.097562 240.958904 
L 152.528575 240.578076 
L 155.544482 240.578075 
L 155.974826 248.453744 
L 156.405256 250.951838 
L 156.836683 241.016634 
L 157.266566 240.578075 
L 159.85084 240.578075 
L 160.28156 240.814358 
L 161.143012 253.418557 
L 162.006279 270.002207 
L 163.296322 290.362593 
L 163.727342 293.79972 
L 164.158072 295.21046 
L 164.589991 293.380193 
L 165.020375 288.676602 
L 165.88092 267.040195 
L 166.74256 286.14692 
L 167.175197 290.567625 
L 167.603939 292.672981 
L 168.03466 292.441741 
L 168.466897 294.082221 
L 168.896459 304.670523 
L 169.326867 298.438492 
L 170.188605 316.315407 
L 170.619947 310.107977 
L 171.050858 316.669536 
L 171.911337 309.781896 
L 172.343187 309.050131 
L 172.772693 309.844818 
L 173.63459 317.058931 
L 174.065197 321.602598 
L 174.495567 327.57352 
L 174.926926 331.041894 
L 175.35705 332.881673 
L 176.218708 331.039993 
L 176.649189 330.610751 
L 177.080533 330.78706 
L 177.511782 331.394172 
L 177.941698 332.326036 
L 179.664409 338.61276 
L 180.956478 342.10937 
L 181.387302 342.634956 
L 181.818073 342.862885 
L 182.249381 342.676761 
L 182.681197 342.160893 
L 183.110407 341.32344 
L 184.402468 336.334605 
L 184.833142 333.487836 
L 185.266287 331.433854 
L 185.694559 333.920919 
L 186.125365 332.338697 
L 186.55763 337.144224 
L 186.986731 334.936094 
L 187.418252 306.487629 
L 187.848768 297.958828 
L 190.433571 297.958828 
L 190.863748 297.216963 
L 191.725854 269.678975 
L 192.155815 257.475449 
L 192.586203 241.86219 
L 193.016908 240.578075 
L 196.894576 240.578075 
L 197.324381 247.927215 
L 197.754941 258.343356 
L 198.187182 264.248264 
L 198.616557 267.680675 
L 199.047202 270.139261 
L 199.48011 270.792612 
L 199.908633 270.61064 
L 200.771215 267.58439 
L 201.200881 265.39164 
L 203.356102 248.023116 
L 204.21595 241.799945 
L 204.648061 240.578075 
L 205.508064 240.578075 
L 205.939955 240.909952 
L 206.370432 243.653404 
L 207.661714 260.567812 
L 208.092722 268.962647 
L 208.524491 274.80156 
L 208.953896 284.886072 
L 210.246165 333.02526 
L 210.676854 327.615915 
L 211.108768 324.546302 
L 211.538411 317.116923 
L 211.969237 312.330716 
L 212.400614 312.323503 
L 212.830347 314.996511 
L 213.261504 316.367251 
L 214.122824 328.988663 
L 214.553628 325.022055 
L 215.414852 333.294814 
L 215.845617 320.871296 
L 216.277675 322.792218 
L 216.707187 326.767409 
L 217.13786 317.860262 
L 217.999261 328.054642 
L 218.430203 318.173804 
L 219.291846 331.396558 
L 219.722255 322.347946 
L 220.154632 321.177045 
L 221.015115 313.794403 
L 221.445365 311.953325 
L 221.875971 311.061963 
L 222.306617 311.524046 
L 222.738744 313.248199 
L 223.168169 316.30052 
L 224.031384 329.168284 
L 224.460689 331.518203 
L 225.752781 342.199318 
L 226.183287 346.966563 
L 227.044881 352.221114 
L 227.475658 353.657698 
L 227.907703 353.463731 
L 228.337691 352.177955 
L 228.767778 316.159724 
L 229.19997 292.686374 
L 229.629169 283.853556 
L 230.492296 272.462548 
L 230.922004 267.355891 
L 231.35205 260.828873 
L 232.644154 248.723174 
L 233.076494 246.928666 
L 233.505749 246.179871 
L 233.936385 246.859835 
L 234.368353 248.573216 
L 234.797869 251.180676 
L 235.660197 259.505031 
L 236.952831 270.300665 
L 237.382386 261.747299 
L 237.812972 256.855885 
L 238.245415 258.618922 
L 238.674456 263.46599 
L 239.537488 278.361192 
L 239.967352 294.022798 
L 240.397669 291.596923 
L 240.829859 299.323181 
L 241.258812 304.618574 
L 241.68982 292.781382 
L 242.122007 298.970789 
L 242.551005 308.487175 
L 242.981805 309.988218 
L 243.414383 313.105261 
L 243.843778 319.647681 
L 244.706565 343.392712 
L 245.13531 352.537948 
L 245.566539 355.339581 
L 245.998449 354.524477 
L 246.858217 328.465297 
L 247.290475 329.041737 
L 248.150551 285.530574 
L 248.582739 293.342093 
L 249.012502 297.958828 
L 250.734917 297.958828 
L 251.16716 292.696304 
L 251.596455 284.786039 
L 252.027574 273.451145 
L 253.319342 249.936291 
L 253.75101 246.206271 
L 254.180609 244.54391 
L 254.61147 245.62633 
L 255.043801 248.754649 
L 255.472861 253.614855 
L 256.335479 270.376277 
L 256.768823 271.87404 
L 257.195826 272.567477 
L 257.62846 272.846932 
L 258.057222 272.914722 
L 258.488429 272.651858 
L 258.920816 272.179614 
L 259.349396 271.478538 
L 261.933911 264.213678 
L 262.364565 263.270522 
L 262.796424 262.884282 
L 263.22608 262.798538 
L 263.656697 263.138047 
L 264.518184 264.399686 
L 264.948863 265.462413 
L 265.81033 266.796309 
L 266.241152 272.315073 
L 267.533962 297.958828 
L 269.257784 297.958829 
L 269.686967 292.15072 
L 270.549923 249.056037 
L 270.979288 240.578076 
L 273.563374 240.578078 
L 273.99419 272.611087 
L 274.42656 294.638268 
L 274.855567 297.958829 
L 275.286463 294.733551 
L 276.147803 240.579646 
L 277.011201 240.578076 
L 277.439918 259.807343 
L 277.870675 297.01714 
L 278.303045 297.958829 
L 280.455367 297.958828 
L 280.887502 283.709677 
L 281.7479 240.578075 
L 283.900995 240.578077 
L 284.331743 246.065431 
L 284.763089 257.153117 
L 285.623793 271.554129 
L 286.485417 283.981823 
L 286.916055 294.496481 
L 287.348441 297.958828 
L 289.932681 297.958828 
L 290.361964 289.313756 
L 291.225281 261.969665 
L 291.65427 249.466032 
L 292.084913 240.578075 
L 295.101576 240.578077 
L 295.531609 247.860524 
L 295.961403 271.457534 
L 296.393665 286.831717 
L 296.82288 297.402428 
L 297.253549 297.958837 
L 297.686035 294.586863 
L 298.115103 280.063996 
L 298.546148 249.297527 
L 298.977129 240.578075 
L 299.40728 240.578079 
L 299.838017 256.402422 
L 300.270086 284.091911 
L 300.699794 297.958828 
L 304.146779 297.958829 
L 304.576104 283.149919 
L 305.007152 249.62267 
L 305.439896 240.578076 
L 309.315407 240.578077 
L 310.175524 290.83503 
L 310.607747 293.548077 
L 311.037116 281.048502 
L 311.467726 257.142498 
L 311.900342 247.682344 
L 312.32946 241.403491 
L 312.760001 249.461179 
L 313.621401 276.342797 
L 314.052146 286.383026 
L 314.913716 312.702074 
L 315.344255 316.257579 
L 315.776377 321.813896 
L 316.205867 323.951674 
L 316.636356 314.135774 
L 317.497858 309.819134 
L 317.928635 297.456784 
L 318.360934 300.786123 
L 318.790185 308.374071 
L 319.221123 307.154493 
L 319.653301 323.502162 
L 320.082463 330.681943 
L 320.513253 326.901059 
L 321.374654 322.701453 
L 321.805396 321.134282 
L 322.237561 320.679779 
L 322.667379 320.882626 
L 323.097471 322.276633 
L 323.529532 324.314981 
L 323.958986 327.44497 
L 324.38969 331.645729 
L 325.682472 337.218147 
L 326.54342 339.484102 
L 326.974144 340.5376 
L 327.405987 341.092414 
L 327.835647 341.452163 
L 328.266281 341.643079 
L 328.698247 341.583393 
L 329.127674 341.3635 
L 330.419852 339.658075 
L 332.142757 335.669158 
L 332.575368 294.739953 
L 333.004643 276.393215 
L 333.435063 275.17311 
L 334.727184 272.577346 
L 335.589222 271.53261 
L 336.019486 271.129647 
L 336.450929 271.007079 
L 336.880981 271.054345 
L 337.311603 275.989932 
L 338.604044 297.958829 
L 342.049943 297.958828 
L 343.344985 263.594712 
L 343.775651 247.754964 
L 344.206305 240.578076 
L 348.082937 240.578075 
L 348.51452 242.310249 
L 348.944399 254.49337 
L 349.375077 260.232631 
L 349.805837 262.09488 
L 351.098226 248.534745 
L 351.52885 245.277137 
L 351.960083 244.014818 
L 352.390568 243.65572 
L 352.821508 244.39018 
L 353.251679 249.855397 
L 353.682583 273.928797 
L 354.113506 289.449402 
L 354.543938 310.206596 
L 354.976056 312.655461 
L 355.406176 315.77844 
L 356.697673 321.689399 
L 357.128786 322.769604 
L 357.990124 324.071083 
L 358.420626 324.182529 
L 358.851562 324.086363 
L 360.143889 322.845099 
L 361.004958 321.757592 
L 361.867254 321.124874 
L 362.298031 321.187621 
L 362.727787 321.593841 
L 363.158751 321.751246 
L 363.589593 321.407191 
L 364.020357 321.29558 
L 364.450981 321.46522 
L 364.882078 321.797517 
L 365.312553 322.275794 
L 367.897092 327.270351 
L 368.328064 328.286797 
L 370.050293 330.921809 
L 371.342749 332.141623 
L 372.634667 332.819125 
L 374.357801 333.483025 
L 375.652391 334.514757 
L 376.082807 332.338487 
L 376.944404 326.757439 
L 377.376311 324.603221 
L 377.806375 323.747088 
L 378.236601 323.494214 
L 378.66715 324.013073 
L 379.097775 324.976858 
L 379.528507 326.370743 
L 380.821285 333.331062 
L 381.252325 336.72974 
L 381.682382 281.984234 
L 382.113263 284.62368 
L 382.543782 288.047707 
L 383.836806 295.362418 
L 384.266751 297.02125 
L 384.697468 297.958828 
L 386.851045 297.958828 
L 387.281621 296.474522 
L 388.575492 286.575885 
L 389.004742 286.452427 
L 390.29695 297.958829 
L 394.173715 297.876276 
L 395.03485 291.786463 
L 395.896408 283.69046 
L 396.327654 280.144277 
L 396.758176 275.545667 
L 398.050095 265.834627 
L 398.911394 262.053398 
L 399.342164 260.678855 
L 399.773319 260.335706 
L 400.203958 260.63523 
L 400.635173 262.119415 
L 401.065153 264.118272 
L 401.49598 266.95229 
L 402.357329 290.805554 
L 402.789927 297.958828 
L 405.803438 297.958828 
L 406.233992 293.346767 
L 406.664853 285.877108 
L 407.526884 266.176149 
L 407.95687 257.207091 
L 408.387829 245.208046 
L 408.818462 240.578075 
L 413.987828 240.578075 
L 414.418035 243.784796 
L 414.848846 255.473154 
L 416.57154 257.725872 
L 418.725444 259.742752 
L 420.448077 260.650498 
L 421.740218 261.016125 
L 423.032508 261.122343 
L 424.324774 260.996278 
L 425.617251 260.665061 
L 426.909762 260.155819 
L 428.202062 259.49568 
L 429.49347 258.711774 
L 430.786262 257.831229 
L 432.509285 256.586657 
L 433.370053 255.888734 
L 435.093586 254.579816 
L 435.954526 253.885225 
L 440.692472 250.752126 
L 442.846232 249.90772 
L 443.707545 249.678882 
L 444.999771 249.525783 
L 446.292226 249.601587 
L 446.722952 257.200805 
L 447.153396 305.881731 
L 447.584318 307.314174 
L 448.445684 307.713323 
L 449.307052 308.172936 
L 451.460668 310.117138 
L 451.891466 310.565797 
L 452.752894 311.744372 
L 453.184235 312.307683 
L 453.614856 312.602282 
L 460.937864 312.602282 
L 461.36832 255.221532 
L 472.136426 255.22153 
L 472.567565 292.67177 
L 472.998182 312.602282 
L 472.998182 312.602282 
" clip-path="url(#p969af24712)" style="fill: none; stroke: #1f77b4; stroke-width: 1.5; stroke-linecap: square"/>
   </g>
   <g id="patch_9">
    <path d="M 48.76 361.077656 
L 48.76 234.84 
" style="fill: none; stroke: #000000; stroke-width: 0.8; stroke-linejoin: miter; stroke-linecap: square"/>
   </g>
   <g id="patch_10">
    <path d="M 493.2 361.077656 
L 493.2 234.84 
" style="fill: none; stroke: #000000; stroke-width: 0.8; stroke-linejoin: miter; stroke-linecap: square"/>
   </g>
   <g id="patch_11">
    <path d="M 48.76 361.077656 
L 493.2 361.077656 
" style="fill: none; stroke: #000000; stroke-width: 0.8; stroke-linejoin: miter; stroke-linecap: square"/>
   </g>
   <g id="patch_12">
    <path d="M 48.76 234.84 
L 493.2 234.84 
" style="fill: none; stroke: #000000; stroke-width: 0.8; stroke-linejoin: miter; stroke-linecap: square"/>
   </g>
   <g id="text_27">
    <!-- $a_{x,e}$ $\left(\mathrm{m/s^2}\right)$ -->
    <g transform="translate(239.42 228.84) scale(0.12 -0.12)">
     <defs>
      <path id="DejaVuSans-Oblique-44" d="M 3438 1997 
L 3047 0 
L 2472 0 
L 2578 531 
Q 2325 219 2001 64 
Q 1678 -91 1281 -91 
Q 834 -91 548 182 
Q 263 456 263 884 
Q 263 1497 752 1853 
Q 1241 2209 2100 2209 
L 2900 2209 
L 2931 2363 
Q 2938 2388 2941 2417 
Q 2944 2447 2944 2509 
Q 2944 2788 2717 2942 
Q 2491 3097 2081 3097 
Q 1800 3097 1504 3025 
Q 1209 2953 897 2809 
L 997 3341 
Q 1322 3463 1633 3523 
Q 1944 3584 2234 3584 
Q 2853 3584 3176 3315 
Q 3500 3047 3500 2534 
Q 3500 2431 3484 2292 
Q 3469 2153 3438 1997 
z
M 2816 1759 
L 2241 1759 
Q 1534 1759 1195 1570 
Q 856 1381 856 984 
Q 856 709 1029 553 
Q 1203 397 1509 397 
Q 1978 397 2328 733 
Q 2678 1069 2791 1631 
L 2816 1759 
z
" transform="scale(0.015625)"/>
      <path id="DejaVuSans-Oblique-5b" d="M 3841 3500 
L 2234 1784 
L 3219 0 
L 2559 0 
L 1819 1388 
L 531 0 
L -166 0 
L 1556 1844 
L 641 3500 
L 1300 3500 
L 1972 2234 
L 3144 3500 
L 3841 3500 
z
" transform="scale(0.015625)"/>
      <path id="DejaVuSans-f" d="M 750 794 
L 1409 794 
L 1409 256 
L 897 -744 
L 494 -744 
L 750 256 
L 750 794 
z
" transform="scale(0.015625)"/>
      <path id="STIXSizeOneSym-Regular-4" d="M 2445 -858 
L 2445 -1050 
Q 1728 -371 1309 630 
Q 890 1632 890 2886 
Q 890 4122 1309 5136 
Q 1728 6150 2445 6822 
L 2445 6630 
Q 1408 5363 1408 2886 
Q 1408 410 2445 -858 
z
" transform="scale(0.015625)"/>
      <path id="DejaVuSans-50" d="M 3328 2828 
Q 3544 3216 3844 3400 
Q 4144 3584 4550 3584 
Q 5097 3584 5394 3201 
Q 5691 2819 5691 2113 
L 5691 0 
L 5113 0 
L 5113 2094 
Q 5113 2597 4934 2840 
Q 4756 3084 4391 3084 
Q 3944 3084 3684 2787 
Q 3425 2491 3425 1978 
L 3425 0 
L 2847 0 
L 2847 2094 
Q 2847 2600 2669 2842 
Q 2491 3084 2119 3084 
Q 1678 3084 1418 2786 
Q 1159 2488 1159 1978 
L 1159 0 
L 581 0 
L 581 3500 
L 1159 3500 
L 1159 2956 
Q 1356 3278 1631 3431 
Q 1906 3584 2284 3584 
Q 2666 3584 2933 3390 
Q 3200 3197 3328 2828 
z
" transform="scale(0.015625)"/>
      <path id="DejaVuSans-12" d="M 1625 4666 
L 2156 4666 
L 531 -594 
L 0 -594 
L 1625 4666 
z
" transform="scale(0.015625)"/>
      <path id="STIXSizeOneSym-Regular-5" d="M 550 6630 
L 550 6822 
Q 1267 6144 1686 5142 
Q 2106 4141 2106 2886 
Q 2106 1651 1686 636 
Q 1267 -378 550 -1050 
L 550 -858 
Q 1587 410 1587 2886 
Q 1587 5363 550 6630 
z
" transform="scale(0.015625)"/>
     </defs>
     <use xlink:href="#DejaVuSans-Oblique-44" transform="translate(0 0.746875)"/>
     <use xlink:href="#DejaVuSans-Oblique-5b" transform="translate(61.279297 -14.253076) scale(0.7)"/>
     <use xlink:href="#DejaVuSans-f" transform="translate(102.705078 -14.253076) scale(0.7)"/>
     <use xlink:href="#DejaVuSans-Oblique-48" transform="translate(138.59375 -14.253076) scale(0.7)"/>
     <use xlink:href="#DejaVuSans-3" transform="translate(184.394531 0.746875)"/>
     <use xlink:href="#STIXSizeOneSym-Regular-4" transform="translate(216.181641 5.1375) scale(0.833613)"/>
     <use xlink:href="#DejaVuSans-50" transform="translate(255.193878 0.746875)"/>
     <use xlink:href="#DejaVuSans-12" transform="translate(352.605988 0.746875)"/>
     <use xlink:href="#DejaVuSans-56" transform="translate(386.297394 0.746875)"/>
     <use xlink:href="#DejaVuSans-15" transform="translate(439.354034 42.046875) scale(0.7)"/>
     <use xlink:href="#STIXSizeOneSym-Regular-5" transform="translate(486.624542 5.1375) scale(0.833613)"/>
    </g>
   </g>
   <g id="legend_2">
    <g id="patch_13">
     <path d="M 55.76 356.077656 
L 140.36 356.077656 
Q 142.36 356.077656 142.36 354.077656 
L 142.36 338.275312 
Q 142.36 336.275312 140.36 336.275312 
L 55.76 336.275312 
Q 53.76 336.275312 53.76 338.275312 
L 53.76 354.077656 
Q 53.76 356.077656 55.76 356.077656 
z
" style="fill: #ffffff; opacity: 0.8; stroke: #cccccc; stroke-linejoin: miter"/>
    </g>
    <g id="line2d_48">
     <path d="M 57.76 346.175312 
L 67.76 346.175312 
L 77.76 346.175312 
" style="fill: none; stroke: #1f77b4; stroke-width: 1.5; stroke-linecap: square"/>
    </g>
    <g id="text_28">
     <!-- $a_{x,e}$ $\left(\mathrm{m/s^2}\right)$ -->
     <g transform="translate(85.76 349.675312) scale(0.1 -0.1)">
      <use xlink:href="#DejaVuSans-Oblique-44" transform="translate(0 0.746875)"/>
      <use xlink:href="#DejaVuSans-Oblique-5b" transform="translate(61.279297 -14.253076) scale(0.7)"/>
      <use xlink:href="#DejaVuSans-f" transform="translate(102.705078 -14.253076) scale(0.7)"/>
      <use xlink:href="#DejaVuSans-Oblique-48" transform="translate(138.59375 -14.253076) scale(0.7)"/>
      <use xlink:href="#DejaVuSans-3" transform="translate(184.394531 0.746875)"/>
      <use xlink:href="#STIXSizeOneSym-Regular-4" transform="translate(216.181641 5.1375) scale(0.833613)"/>
      <use xlink:href="#DejaVuSans-50" transform="translate(255.193878 0.746875)"/>
      <use xlink:href="#DejaVuSans-12" transform="translate(352.605988 0.746875)"/>
      <use xlink:href="#DejaVuSans-56" transform="translate(386.297394 0.746875)"/>
      <use xlink:href="#DejaVuSans-15" transform="translate(439.354034 42.046875) scale(0.7)"/>
      <use xlink:href="#STIXSizeOneSym-Regular-5" transform="translate(486.624542 5.1375) scale(0.833613)"/>
     </g>
    </g>
   </g>
  </g>
  <g id="text_29">
   <!-- QCar2 Input Error -->
   <g transform="translate(199.15125 17.181188) scale(0.12 -0.12)">
    <defs>
     <path id="DejaVuSans-34" d="M 2522 4238 
Q 1834 4238 1429 3725 
Q 1025 3213 1025 2328 
Q 1025 1447 1429 934 
Q 1834 422 2522 422 
Q 3209 422 3611 934 
Q 4013 1447 4013 2328 
Q 4013 3213 3611 3725 
Q 3209 4238 2522 4238 
z
M 3406 84 
L 4238 -825 
L 3475 -825 
L 2784 -78 
Q 2681 -84 2626 -87 
Q 2572 -91 2522 -91 
Q 1538 -91 948 567 
Q 359 1225 359 2328 
Q 359 3434 948 4092 
Q 1538 4750 2522 4750 
Q 3503 4750 4090 4092 
Q 4678 3434 4678 2328 
Q 4678 1516 4351 937 
Q 4025 359 3406 84 
z
" transform="scale(0.015625)"/>
     <path id="DejaVuSans-26" d="M 4122 4306 
L 4122 3641 
Q 3803 3938 3442 4084 
Q 3081 4231 2675 4231 
Q 1875 4231 1450 3742 
Q 1025 3253 1025 2328 
Q 1025 1406 1450 917 
Q 1875 428 2675 428 
Q 3081 428 3442 575 
Q 3803 722 4122 1019 
L 4122 359 
Q 3791 134 3420 21 
Q 3050 -91 2638 -91 
Q 1578 -91 968 557 
Q 359 1206 359 2328 
Q 359 3453 968 4101 
Q 1578 4750 2638 4750 
Q 3056 4750 3426 4639 
Q 3797 4528 4122 4306 
z
" transform="scale(0.015625)"/>
     <path id="DejaVuSans-2c" d="M 628 4666 
L 1259 4666 
L 1259 0 
L 628 0 
L 628 4666 
z
" transform="scale(0.015625)"/>
     <path id="DejaVuSans-51" d="M 3513 2113 
L 3513 0 
L 2938 0 
L 2938 2094 
Q 2938 2591 2744 2837 
Q 2550 3084 2163 3084 
Q 1697 3084 1428 2787 
Q 1159 2491 1159 1978 
L 1159 0 
L 581 0 
L 581 3500 
L 1159 3500 
L 1159 2956 
Q 1366 3272 1645 3428 
Q 1925 3584 2291 3584 
Q 2894 3584 3203 3211 
Q 3513 2838 3513 2113 
z
" transform="scale(0.015625)"/>
     <path id="DejaVuSans-53" d="M 1159 525 
L 1159 -1331 
L 581 -1331 
L 581 3500 
L 1159 3500 
L 1159 2969 
Q 1341 3281 1617 3432 
Q 1894 3584 2278 3584 
Q 2916 3584 3314 3078 
Q 3713 2572 3713 1747 
Q 3713 922 3314 415 
Q 2916 -91 2278 -91 
Q 1894 -91 1617 61 
Q 1341 213 1159 525 
z
M 3116 1747 
Q 3116 2381 2855 2742 
Q 2594 3103 2138 3103 
Q 1681 3103 1420 2742 
Q 1159 2381 1159 1747 
Q 1159 1113 1420 752 
Q 1681 391 2138 391 
Q 2594 391 2855 752 
Q 3116 1113 3116 1747 
z
" transform="scale(0.015625)"/>
     <path id="DejaVuSans-58" d="M 544 1381 
L 544 3500 
L 1119 3500 
L 1119 1403 
Q 1119 906 1312 657 
Q 1506 409 1894 409 
Q 2359 409 2629 706 
Q 2900 1003 2900 1516 
L 2900 3500 
L 3475 3500 
L 3475 0 
L 2900 0 
L 2900 538 
Q 2691 219 2414 64 
Q 2138 -91 1772 -91 
Q 1169 -91 856 284 
Q 544 659 544 1381 
z
M 1991 3584 
L 1991 3584 
z
" transform="scale(0.015625)"/>
     <path id="DejaVuSans-28" d="M 628 4666 
L 3578 4666 
L 3578 4134 
L 1259 4134 
L 1259 2753 
L 3481 2753 
L 3481 2222 
L 1259 2222 
L 1259 531 
L 3634 531 
L 3634 0 
L 628 0 
L 628 4666 
z
" transform="scale(0.015625)"/>
     <path id="DejaVuSans-52" d="M 1959 3097 
Q 1497 3097 1228 2736 
Q 959 2375 959 1747 
Q 959 1119 1226 758 
Q 1494 397 1959 397 
Q 2419 397 2687 759 
Q 2956 1122 2956 1747 
Q 2956 2369 2687 2733 
Q 2419 3097 1959 3097 
z
M 1959 3584 
Q 2709 3584 3137 3096 
Q 3566 2609 3566 1747 
Q 3566 888 3137 398 
Q 2709 -91 1959 -91 
Q 1206 -91 779 398 
Q 353 888 353 1747 
Q 353 2609 779 3096 
Q 1206 3584 1959 3584 
z
" transform="scale(0.015625)"/>
    </defs>
    <use xlink:href="#DejaVuSans-34"/>
    <use xlink:href="#DejaVuSans-26" transform="translate(78.71875 0)"/>
    <use xlink:href="#DejaVuSans-44" transform="translate(148.546875 0)"/>
    <use xlink:href="#DejaVuSans-55" transform="translate(209.828125 0)"/>
    <use xlink:href="#DejaVuSans-15" transform="translate(250.9375 0)"/>
    <use xlink:href="#DejaVuSans-3" transform="translate(314.5625 0)"/>
    <use xlink:href="#DejaVuSans-2c" transform="translate(346.34375 0)"/>
    <use xlink:href="#DejaVuSans-51" transform="translate(375.84375 0)"/>
    <use xlink:href="#DejaVuSans-53" transform="translate(439.21875 0)"/>
    <use xlink:href="#DejaVuSans-58" transform="translate(502.703125 0)"/>
    <use xlink:href="#DejaVuSans-57" transform="translate(566.078125 0)"/>
    <use xlink:href="#DejaVuSans-3" transform="translate(605.28125 0)"/>
    <use xlink:href="#DejaVuSans-28" transform="translate(637.0625 0)"/>
    <use xlink:href="#DejaVuSans-55" transform="translate(700.25 0)"/>
    <use xlink:href="#DejaVuSans-55" transform="translate(739.609375 0)"/>
    <use xlink:href="#DejaVuSans-52" transform="translate(778.515625 0)"/>
    <use xlink:href="#DejaVuSans-55" transform="translate(839.703125 0)"/>
   </g>
  </g>
 </g>
 <defs>
  <clipPath id="p7a8721c95e">
   <rect x="48.76" y="48.96" width="444.44" height="126.237656"/>
  </clipPath>
  <clipPath id="p969af24712">
   <rect x="48.76" y="234.84" width="444.44" height="126.237656"/>
  </clipPath>
 </defs>
</svg>
