<?xml version="1.0" encoding="utf-8" standalone="no"?>
<!DOCTYPE svg PUBLIC "-//W3C//DTD SVG 1.1//EN"
  "http://www.w3.org/Graphics/SVG/1.1/DTD/svg11.dtd">
<svg xmlns:xlink="http://www.w3.org/1999/xlink" width="504pt" height="230.4pt" viewBox="0 0 504 230.4" xmlns="http://www.w3.org/2000/svg" version="1.1">
 <metadata>
  <rdf:RDF xmlns:dc="http://purl.org/dc/elements/1.1/" xmlns:cc="http://creativecommons.org/ns#" xmlns:rdf="http://www.w3.org/1999/02/22-rdf-syntax-ns#">
   <cc:Work>
    <dc:type rdf:resource="http://purl.org/dc/dcmitype/StillImage"/>
    <dc:date>2026-07-10T12:48:37.525931</dc:date>
    <dc:format>image/svg+xml</dc:format>
    <dc:creator>
     <cc:Agent>
      <dc:title>Matplotlib v3.11.0, https://matplotlib.org/</dc:title>
     </cc:Agent>
    </dc:creator>
   </cc:Work>
  </rdf:RDF>
 </metadata>
 <defs>
  <style type="text/css">*{stroke-linejoin: round; stroke-linecap: butt}</style>
 </defs>
 <g id="figure_1">
  <g id="patch_1">
   <path d="M 0 230.4 
L 504 230.4 
L 504 0 
L 0 0 
z
" style="fill: #ffffff"/>
  </g>
  <g id="axes_1">
   <g id="patch_2">
    <path d="M 67.402344 188.277656 
L 493.2 188.277656 
L 493.2 26.16 
L 67.402344 26.16 
z
" style="fill: #ffffff"/>
   </g>
   <g id="matplotlib.axis_1">
    <g id="xtick_1">
     <g id="line2d_1">
      <path d="M 86.384577 188.277656 
L 86.384577 26.16 
" clip-path="url(#p21082f0a95)" style="fill: none; stroke: #b0b0b0; stroke-width: 0.8; stroke-linecap: square"/>
     </g>
     <g id="line2d_2">
      <defs>
       <path id="mc63d37798c" d="M 0 0 
L 0 3.5 
" style="stroke: #000000; stroke-width: 0.8"/>
      </defs>
      <g>
       <use xlink:href="#mc63d37798c" x="86.384577" y="188.277656" style="stroke: #000000; stroke-width: 0.8"/>
      </g>
     </g>
     <g id="text_1">
      <!-- 0 -->
      <g transform="translate(83.203327 202.875313) scale(0.1 -0.1)">
       <defs>
        <path id="DejaVuSans-13" d="M 2034 4250 
Q 1547 4250 1301 3770 
Q 1056 3291 1056 2328 
Q 1056 1369 1301 889 
Q 1547 409 2034 409 
Q 2525 409 2770 889 
Q 3016 1369 3016 2328 
Q 3016 3291 2770 3770 
Q 2525 4250 2034 4250 
z
M 2034 4750 
Q 2819 4750 3233 4129 
Q 3647 3509 3647 2328 
Q 3647 1150 3233 529 
Q 2819 -91 2034 -91 
Q 1250 -91 836 529 
Q 422 1150 422 2328 
Q 422 3509 836 4129 
Q 1250 4750 2034 4750 
z
" transform="scale(0.015625)"/>
       </defs>
       <use xlink:href="#DejaVuSans-13"/>
      </g>
     </g>
    </g>
    <g id="xtick_2">
     <g id="line2d_3">
      <path d="M 148.2836 188.277656 
L 148.2836 26.16 
" clip-path="url(#p21082f0a95)" style="fill: none; stroke: #b0b0b0; stroke-width: 0.8; stroke-linecap: square"/>
     </g>
     <g id="line2d_4">
      <g>
       <use xlink:href="#mc63d37798c" x="148.2836" y="188.277656" style="stroke: #000000; stroke-width: 0.8"/>
      </g>
     </g>
     <g id="text_2">
      <!-- 10 -->
      <g transform="translate(141.9211 202.875313) scale(0.1 -0.1)">
       <defs>
        <path id="DejaVuSans-14" d="M 794 531 
L 1825 531 
L 1825 4091 
L 703 3866 
L 703 4441 
L 1819 4666 
L 2450 4666 
L 2450 531 
L 3481 531 
L 3481 0 
L 794 0 
L 794 531 
z
" transform="scale(0.015625)"/>
       </defs>
       <use xlink:href="#DejaVuSans-14"/>
       <use xlink:href="#DejaVuSans-13" transform="translate(63.625 0)"/>
      </g>
     </g>
    </g>
    <g id="xtick_3">
     <g id="line2d_5">
      <path d="M 210.182623 188.277656 
L 210.182623 26.16 
" clip-path="url(#p21082f0a95)" style="fill: none; stroke: #b0b0b0; stroke-width: 0.8; stroke-linecap: square"/>
     </g>
     <g id="line2d_6">
      <g>
       <use xlink:href="#mc63d37798c" x="210.182623" y="188.277656" style="stroke: #000000; stroke-width: 0.8"/>
      </g>
     </g>
     <g id="text_3">
      <!-- 20 -->
      <g transform="translate(203.820123 202.875313) scale(0.1 -0.1)">
       <defs>
        <path id="DejaVuSans-15" d="M 1228 531 
L 3431 531 
L 3431 0 
L 469 0 
L 469 531 
Q 828 903 1448 1529 
Q 2069 2156 2228 2338 
Q 2531 2678 2651 2914 
Q 2772 3150 2772 3378 
Q 2772 3750 2511 3984 
Q 2250 4219 1831 4219 
Q 1534 4219 1204 4116 
Q 875 4013 500 3803 
L 500 4441 
Q 881 4594 1212 4672 
Q 1544 4750 1819 4750 
Q 2544 4750 2975 4387 
Q 3406 4025 3406 3419 
Q 3406 3131 3298 2873 
Q 3191 2616 2906 2266 
Q 2828 2175 2409 1742 
Q 1991 1309 1228 531 
z
" transform="scale(0.015625)"/>
       </defs>
       <use xlink:href="#DejaVuSans-15"/>
       <use xlink:href="#DejaVuSans-13" transform="translate(63.625 0)"/>
      </g>
     </g>
    </g>
    <g id="xtick_4">
     <g id="line2d_7">
      <path d="M 272.081647 188.277656 
L 272.081647 26.16 
" clip-path="url(#p21082f0a95)" style="fill: none; stroke: #b0b0b0; stroke-width: 0.8; stroke-linecap: square"/>
     </g>
     <g id="line2d_8">
      <g>
       <use xlink:href="#mc63d37798c" x="272.081647" y="188.277656" style="stroke: #000000; stroke-width: 0.8"/>
      </g>
     </g>
     <g id="text_4">
      <!-- 30 -->
      <g transform="translate(265.719147 202.875313) scale(0.1 -0.1)">
       <defs>
        <path id="DejaVuSans-16" d="M 2597 2516 
Q 3050 2419 3304 2112 
Q 3559 1806 3559 1356 
Q 3559 666 3084 287 
Q 2609 -91 1734 -91 
Q 1441 -91 1130 -33 
Q 819 25 488 141 
L 488 750 
Q 750 597 1062 519 
Q 1375 441 1716 441 
Q 2309 441 2620 675 
Q 2931 909 2931 1356 
Q 2931 1769 2642 2001 
Q 2353 2234 1838 2234 
L 1294 2234 
L 1294 2753 
L 1863 2753 
Q 2328 2753 2575 2939 
Q 2822 3125 2822 3475 
Q 2822 3834 2567 4026 
Q 2313 4219 1838 4219 
Q 1578 4219 1281 4162 
Q 984 4106 628 3988 
L 628 4550 
Q 988 4650 1302 4700 
Q 1616 4750 1894 4750 
Q 2613 4750 3031 4423 
Q 3450 4097 3450 3541 
Q 3450 3153 3228 2886 
Q 3006 2619 2597 2516 
z
" transform="scale(0.015625)"/>
       </defs>
       <use xlink:href="#DejaVuSans-16"/>
       <use xlink:href="#DejaVuSans-13" transform="translate(63.625 0)"/>
      </g>
     </g>
    </g>
    <g id="xtick_5">
     <g id="line2d_9">
      <path d="M 333.98067 188.277656 
L 333.98067 26.16 
" clip-path="url(#p21082f0a95)" style="fill: none; stroke: #b0b0b0; stroke-width: 0.8; stroke-linecap: square"/>
     </g>
     <g id="line2d_10">
      <g>
       <use xlink:href="#mc63d37798c" x="333.98067" y="188.277656" style="stroke: #000000; stroke-width: 0.8"/>
      </g>
     </g>
     <g id="text_5">
      <!-- 40 -->
      <g transform="translate(327.61817 202.875313) scale(0.1 -0.1)">
       <defs>
        <path id="DejaVuSans-17" d="M 2419 4116 
L 825 1625 
L 2419 1625 
L 2419 4116 
z
M 2253 4666 
L 3047 4666 
L 3047 1625 
L 3713 1625 
L 3713 1100 
L 3047 1100 
L 3047 0 
L 2419 0 
L 2419 1100 
L 313 1100 
L 313 1709 
L 2253 4666 
z
" transform="scale(0.015625)"/>
       </defs>
       <use xlink:href="#DejaVuSans-17"/>
       <use xlink:href="#DejaVuSans-13" transform="translate(63.625 0)"/>
      </g>
     </g>
    </g>
    <g id="xtick_6">
     <g id="line2d_11">
      <path d="M 395.879693 188.277656 
L 395.879693 26.16 
" clip-path="url(#p21082f0a95)" style="fill: none; stroke: #b0b0b0; stroke-width: 0.8; stroke-linecap: square"/>
     </g>
     <g id="line2d_12">
      <g>
       <use xlink:href="#mc63d37798c" x="395.879693" y="188.277656" style="stroke: #000000; stroke-width: 0.8"/>
      </g>
     </g>
     <g id="text_6">
      <!-- 50 -->
      <g transform="translate(389.517193 202.875313) scale(0.1 -0.1)">
       <defs>
        <path id="DejaVuSans-18" d="M 691 4666 
L 3169 4666 
L 3169 4134 
L 1269 4134 
L 1269 2991 
Q 1406 3038 1543 3061 
Q 1681 3084 1819 3084 
Q 2600 3084 3056 2656 
Q 3513 2228 3513 1497 
Q 3513 744 3044 326 
Q 2575 -91 1722 -91 
Q 1428 -91 1123 -41 
Q 819 9 494 109 
L 494 744 
Q 775 591 1075 516 
Q 1375 441 1709 441 
Q 2250 441 2565 725 
Q 2881 1009 2881 1497 
Q 2881 1984 2565 2268 
Q 2250 2553 1709 2553 
Q 1456 2553 1204 2497 
Q 953 2441 691 2322 
L 691 4666 
z
" transform="scale(0.015625)"/>
       </defs>
       <use xlink:href="#DejaVuSans-18"/>
       <use xlink:href="#DejaVuSans-13" transform="translate(63.625 0)"/>
      </g>
     </g>
    </g>
    <g id="xtick_7">
     <g id="line2d_13">
      <path d="M 457.778716 188.277656 
L 457.778716 26.16 
" clip-path="url(#p21082f0a95)" style="fill: none; stroke: #b0b0b0; stroke-width: 0.8; stroke-linecap: square"/>
     </g>
     <g id="line2d_14">
      <g>
       <use xlink:href="#mc63d37798c" x="457.778716" y="188.277656" style="stroke: #000000; stroke-width: 0.8"/>
      </g>
     </g>
     <g id="text_7">
      <!-- 60 -->
      <g transform="translate(451.416216 202.875313) scale(0.1 -0.1)">
       <defs>
        <path id="DejaVuSans-19" d="M 2113 2584 
Q 1688 2584 1439 2293 
Q 1191 2003 1191 1497 
Q 1191 994 1439 701 
Q 1688 409 2113 409 
Q 2538 409 2786 701 
Q 3034 994 3034 1497 
Q 3034 2003 2786 2293 
Q 2538 2584 2113 2584 
z
M 3366 4563 
L 3366 3988 
Q 3128 4100 2886 4159 
Q 2644 4219 2406 4219 
Q 1781 4219 1451 3797 
Q 1122 3375 1075 2522 
Q 1259 2794 1537 2939 
Q 1816 3084 2150 3084 
Q 2853 3084 3261 2657 
Q 3669 2231 3669 1497 
Q 3669 778 3244 343 
Q 2819 -91 2113 -91 
Q 1303 -91 875 529 
Q 447 1150 447 2328 
Q 447 3434 972 4092 
Q 1497 4750 2381 4750 
Q 2619 4750 2861 4703 
Q 3103 4656 3366 4563 
z
" transform="scale(0.015625)"/>
       </defs>
       <use xlink:href="#DejaVuSans-19"/>
       <use xlink:href="#DejaVuSans-13" transform="translate(63.625 0)"/>
      </g>
     </g>
    </g>
    <g id="text_8">
     <!-- t (s) -->
     <g transform="translate(270.245703 216.875313) scale(0.1 -0.1)">
      <defs>
       <path id="DejaVuSans-57" d="M 1172 4494 
L 1172 3500 
L 2356 3500 
L 2356 3053 
L 1172 3053 
L 1172 1153 
Q 1172 725 1289 603 
Q 1406 481 1766 481 
L 2356 481 
L 2356 0 
L 1766 0 
Q 1100 0 847 248 
Q 594 497 594 1153 
L 594 3053 
L 172 3053 
L 172 3500 
L 594 3500 
L 594 4494 
L 1172 4494 
z
" transform="scale(0.015625)"/>
       <path id="DejaVuSans-3" transform="scale(0.015625)"/>
       <path id="DejaVuSans-b" d="M 1984 4856 
Q 1566 4138 1362 3434 
Q 1159 2731 1159 2009 
Q 1159 1288 1364 580 
Q 1569 -128 1984 -844 
L 1484 -844 
Q 1016 -109 783 600 
Q 550 1309 550 2009 
Q 550 2706 781 3412 
Q 1013 4119 1484 4856 
L 1984 4856 
z
" transform="scale(0.015625)"/>
       <path id="DejaVuSans-56" d="M 2834 3397 
L 2834 2853 
Q 2591 2978 2328 3040 
Q 2066 3103 1784 3103 
Q 1356 3103 1142 2972 
Q 928 2841 928 2578 
Q 928 2378 1081 2264 
Q 1234 2150 1697 2047 
L 1894 2003 
Q 2506 1872 2764 1633 
Q 3022 1394 3022 966 
Q 3022 478 2636 193 
Q 2250 -91 1575 -91 
Q 1294 -91 989 -36 
Q 684 19 347 128 
L 347 722 
Q 666 556 975 473 
Q 1284 391 1588 391 
Q 1994 391 2212 530 
Q 2431 669 2431 922 
Q 2431 1156 2273 1281 
Q 2116 1406 1581 1522 
L 1381 1569 
Q 847 1681 609 1914 
Q 372 2147 372 2553 
Q 372 3047 722 3315 
Q 1072 3584 1716 3584 
Q 2034 3584 2315 3537 
Q 2597 3491 2834 3397 
z
" transform="scale(0.015625)"/>
       <path id="DejaVuSans-c" d="M 513 4856 
L 1013 4856 
Q 1481 4119 1714 3412 
Q 1947 2706 1947 2009 
Q 1947 1309 1714 600 
Q 1481 -109 1013 -844 
L 513 -844 
Q 928 -128 1133 580 
Q 1338 1288 1338 2009 
Q 1338 2731 1133 3434 
Q 928 4138 513 4856 
z
" transform="scale(0.015625)"/>
      </defs>
      <use xlink:href="#DejaVuSans-57"/>
      <use xlink:href="#DejaVuSans-3" transform="translate(39.203125 0)"/>
      <use xlink:href="#DejaVuSans-b" transform="translate(70.984375 0)"/>
      <use xlink:href="#DejaVuSans-56" transform="translate(110 0)"/>
      <use xlink:href="#DejaVuSans-c" transform="translate(162.09375 0)"/>
     </g>
    </g>
   </g>
   <g id="matplotlib.axis_2">
    <g id="ytick_1">
     <g id="line2d_15">
      <path d="M 67.402344 174.030849 
L 493.2 174.030849 
" clip-path="url(#p21082f0a95)" style="fill: none; stroke: #b0b0b0; stroke-width: 0.8; stroke-linecap: square"/>
     </g>
     <g id="line2d_16">
      <defs>
       <path id="m2758964fa0" d="M 0 0 
L -3.5 0 
" style="stroke: #000000; stroke-width: 0.8"/>
      </defs>
      <g>
       <use xlink:href="#m2758964fa0" x="67.402344" y="174.030849" style="stroke: #000000; stroke-width: 0.8"/>
      </g>
     </g>
     <g id="text_9">
      <!-- 0.0010 -->
      <g transform="translate(25.411719 177.829677) scale(0.1 -0.1)">
       <defs>
        <path id="DejaVuSans-11" d="M 684 794 
L 1344 794 
L 1344 0 
L 684 0 
L 684 794 
z
" transform="scale(0.015625)"/>
       </defs>
       <use xlink:href="#DejaVuSans-13"/>
       <use xlink:href="#DejaVuSans-11" transform="translate(63.625 0)"/>
       <use xlink:href="#DejaVuSans-13" transform="translate(95.40625 0)"/>
       <use xlink:href="#DejaVuSans-13" transform="translate(159.03125 0)"/>
       <use xlink:href="#DejaVuSans-14" transform="translate(222.65625 0)"/>
       <use xlink:href="#DejaVuSans-13" transform="translate(286.28125 0)"/>
      </g>
     </g>
    </g>
    <g id="ytick_2">
     <g id="line2d_17">
      <path d="M 67.402344 147.919143 
L 493.2 147.919143 
" clip-path="url(#p21082f0a95)" style="fill: none; stroke: #b0b0b0; stroke-width: 0.8; stroke-linecap: square"/>
     </g>
     <g id="line2d_18">
      <g>
       <use xlink:href="#m2758964fa0" x="67.402344" y="147.919143" style="stroke: #000000; stroke-width: 0.8"/>
      </g>
     </g>
     <g id="text_10">
      <!-- 0.0015 -->
      <g transform="translate(25.411719 151.717971) scale(0.1 -0.1)">
       <use xlink:href="#DejaVuSans-13"/>
       <use xlink:href="#DejaVuSans-11" transform="translate(63.625 0)"/>
       <use xlink:href="#DejaVuSans-13" transform="translate(95.40625 0)"/>
       <use xlink:href="#DejaVuSans-13" transform="translate(159.03125 0)"/>
       <use xlink:href="#DejaVuSans-14" transform="translate(222.65625 0)"/>
       <use xlink:href="#DejaVuSans-18" transform="translate(286.28125 0)"/>
      </g>
     </g>
    </g>
    <g id="ytick_3">
     <g id="line2d_19">
      <path d="M 67.402344 121.807438 
L 493.2 121.807438 
" clip-path="url(#p21082f0a95)" style="fill: none; stroke: #b0b0b0; stroke-width: 0.8; stroke-linecap: square"/>
     </g>
     <g id="line2d_20">
      <g>
       <use xlink:href="#m2758964fa0" x="67.402344" y="121.807438" style="stroke: #000000; stroke-width: 0.8"/>
      </g>
     </g>
     <g id="text_11">
      <!-- 0.0020 -->
      <g transform="translate(25.411719 125.606266) scale(0.1 -0.1)">
       <use xlink:href="#DejaVuSans-13"/>
       <use xlink:href="#DejaVuSans-11" transform="translate(63.625 0)"/>
       <use xlink:href="#DejaVuSans-13" transform="translate(95.40625 0)"/>
       <use xlink:href="#DejaVuSans-13" transform="translate(159.03125 0)"/>
       <use xlink:href="#DejaVuSans-15" transform="translate(222.65625 0)"/>
       <use xlink:href="#DejaVuSans-13" transform="translate(286.28125 0)"/>
      </g>
     </g>
    </g>
    <g id="ytick_4">
     <g id="line2d_21">
      <path d="M 67.402344 95.695732 
L 493.2 95.695732 
" clip-path="url(#p21082f0a95)" style="fill: none; stroke: #b0b0b0; stroke-width: 0.8; stroke-linecap: square"/>
     </g>
     <g id="line2d_22">
      <g>
       <use xlink:href="#m2758964fa0" x="67.402344" y="95.695732" style="stroke: #000000; stroke-width: 0.8"/>
      </g>
     </g>
     <g id="text_12">
      <!-- 0.0025 -->
      <g transform="translate(25.411719 99.49456) scale(0.1 -0.1)">
       <use xlink:href="#DejaVuSans-13"/>
       <use xlink:href="#DejaVuSans-11" transform="translate(63.625 0)"/>
       <use xlink:href="#DejaVuSans-13" transform="translate(95.40625 0)"/>
       <use xlink:href="#DejaVuSans-13" transform="translate(159.03125 0)"/>
       <use xlink:href="#DejaVuSans-15" transform="translate(222.65625 0)"/>
       <use xlink:href="#DejaVuSans-18" transform="translate(286.28125 0)"/>
      </g>
     </g>
    </g>
    <g id="ytick_5">
     <g id="line2d_23">
      <path d="M 67.402344 69.584027 
L 493.2 69.584027 
" clip-path="url(#p21082f0a95)" style="fill: none; stroke: #b0b0b0; stroke-width: 0.8; stroke-linecap: square"/>
     </g>
     <g id="line2d_24">
      <g>
       <use xlink:href="#m2758964fa0" x="67.402344" y="69.584027" style="stroke: #000000; stroke-width: 0.8"/>
      </g>
     </g>
     <g id="text_13">
      <!-- 0.0030 -->
      <g transform="translate(25.411719 73.382855) scale(0.1 -0.1)">
       <use xlink:href="#DejaVuSans-13"/>
       <use xlink:href="#DejaVuSans-11" transform="translate(63.625 0)"/>
       <use xlink:href="#DejaVuSans-13" transform="translate(95.40625 0)"/>
       <use xlink:href="#DejaVuSans-13" transform="translate(159.03125 0)"/>
       <use xlink:href="#DejaVuSans-16" transform="translate(222.65625 0)"/>
       <use xlink:href="#DejaVuSans-13" transform="translate(286.28125 0)"/>
      </g>
     </g>
    </g>
    <g id="ytick_6">
     <g id="line2d_25">
      <path d="M 67.402344 43.472321 
L 493.2 43.472321 
" clip-path="url(#p21082f0a95)" style="fill: none; stroke: #b0b0b0; stroke-width: 0.8; stroke-linecap: square"/>
     </g>
     <g id="line2d_26">
      <g>
       <use xlink:href="#m2758964fa0" x="67.402344" y="43.472321" style="stroke: #000000; stroke-width: 0.8"/>
      </g>
     </g>
     <g id="text_14">
      <!-- 0.0035 -->
      <g transform="translate(25.411719 47.271149) scale(0.1 -0.1)">
       <use xlink:href="#DejaVuSans-13"/>
       <use xlink:href="#DejaVuSans-11" transform="translate(63.625 0)"/>
       <use xlink:href="#DejaVuSans-13" transform="translate(95.40625 0)"/>
       <use xlink:href="#DejaVuSans-13" transform="translate(159.03125 0)"/>
       <use xlink:href="#DejaVuSans-16" transform="translate(222.65625 0)"/>
       <use xlink:href="#DejaVuSans-18" transform="translate(286.28125 0)"/>
      </g>
     </g>
    </g>
    <g id="text_15">
     <!-- Time (s) -->
     <g transform="translate(19.009375 127.550078) rotate(-90) scale(0.1 -0.1)">
      <defs>
       <path id="DejaVuSans-37" d="M -19 4666 
L 3928 4666 
L 3928 4134 
L 2272 4134 
L 2272 0 
L 1638 0 
L 1638 4134 
L -19 4134 
L -19 4666 
z
" transform="scale(0.015625)"/>
       <path id="DejaVuSans-4c" d="M 603 3500 
L 1178 3500 
L 1178 0 
L 603 0 
L 603 3500 
z
M 603 4863 
L 1178 4863 
L 1178 4134 
L 603 4134 
L 603 4863 
z
" transform="scale(0.015625)"/>
       <path id="DejaVuSans-50" d="M 3328 2828 
Q 3544 3216 3844 3400 
Q 4144 3584 4550 3584 
Q 5097 3584 5394 3201 
Q 5691 2819 5691 2113 
L 5691 0 
L 5113 0 
L 5113 2094 
Q 5113 2597 4934 2840 
Q 4756 3084 4391 3084 
Q 3944 3084 3684 2787 
Q 3425 2491 3425 1978 
L 3425 0 
L 2847 0 
L 2847 2094 
Q 2847 2600 2669 2842 
Q 2491 3084 2119 3084 
Q 1678 3084 1418 2786 
Q 1159 2488 1159 1978 
L 1159 0 
L 581 0 
L 581 3500 
L 1159 3500 
L 1159 2956 
Q 1356 3278 1631 3431 
Q 1906 3584 2284 3584 
Q 2666 3584 2933 3390 
Q 3200 3197 3328 2828 
z
" transform="scale(0.015625)"/>
       <path id="DejaVuSans-48" d="M 3597 1894 
L 3597 1613 
L 953 1613 
Q 991 1019 1311 708 
Q 1631 397 2203 397 
Q 2534 397 2845 478 
Q 3156 559 3463 722 
L 3463 178 
Q 3153 47 2828 -22 
Q 2503 -91 2169 -91 
Q 1331 -91 842 396 
Q 353 884 353 1716 
Q 353 2575 817 3079 
Q 1281 3584 2069 3584 
Q 2775 3584 3186 3129 
Q 3597 2675 3597 1894 
z
M 3022 2063 
Q 3016 2534 2758 2815 
Q 2500 3097 2075 3097 
Q 1594 3097 1305 2825 
Q 1016 2553 972 2059 
L 3022 2063 
z
" transform="scale(0.015625)"/>
      </defs>
      <use xlink:href="#DejaVuSans-37"/>
      <use xlink:href="#DejaVuSans-4c" transform="translate(58 0)"/>
      <use xlink:href="#DejaVuSans-50" transform="translate(85.78125 0)"/>
      <use xlink:href="#DejaVuSans-48" transform="translate(183.1875 0)"/>
      <use xlink:href="#DejaVuSans-3" transform="translate(244.71875 0)"/>
      <use xlink:href="#DejaVuSans-b" transform="translate(276.5 0)"/>
      <use xlink:href="#DejaVuSans-56" transform="translate(315.515625 0)"/>
      <use xlink:href="#DejaVuSans-c" transform="translate(367.609375 0)"/>
     </g>
    </g>
   </g>
   <g id="line2d_27">
    <path d="M 86.756783 102.082655 
L 87.168729 153.057927 
L 87.994803 168.86073 
L 88.40698 144.822295 
L 88.819707 160.238646 
L 89.232637 155.820546 
L 89.645444 142.508797 
L 90.057868 157.716256 
L 90.470493 161.330115 
L 90.883092 147.584913 
L 91.295661 157.105242 
L 91.708404 160.212535 
L 92.121166 149.120283 
L 92.53425 161.601677 
L 92.946392 165.048423 
L 93.358997 151.736674 
L 93.772164 154.937971 
L 94.184431 154.964081 
L 94.597086 151.475557 
L 95.423422 168.761507 
L 95.835153 147.088792 
L 96.247938 160.175978 
L 96.660705 158.786835 
L 97.07311 153.178041 
L 97.485708 143.307815 
L 97.898705 160.943662 
L 98.311218 145.302751 
L 98.723926 163.580944 
L 99.136566 159.899193 
L 99.549473 152.3738 
L 99.962036 158.489163 
L 100.374666 157.585697 
L 100.78719 130.215407 
L 101.199832 160.933217 
L 102.025286 161.309225 
L 102.438556 164.296404 
L 102.850889 147.715473 
L 103.262984 150.258751 
L 103.676129 159.705967 
L 104.088349 155.517651 
L 104.500987 138.440594 
L 104.914275 159.068842 
L 105.326618 161.836683 
L 105.739191 149.83052 
L 106.151712 156.102553 
L 106.56463 159.685079 
L 106.977407 157.157466 
L 107.390455 160.196867 
L 107.802408 160.484097 
L 108.214967 143.887497 
L 108.628212 161.074221 
L 109.040695 158.212378 
L 109.453144 141.135322 
L 109.865606 158.37427 
L 110.278529 162.092576 
L 110.691119 152.833367 
L 111.103768 157.037351 
L 111.516793 159.810414 
L 111.929408 151.386778 
L 112.341659 161.152555 
L 112.754563 161.439785 
L 113.166837 145.370641 
L 113.57996 161.575565 
L 113.992527 162.489476 
L 114.405029 167.393254 
L 114.81766 160.343094 
L 115.230574 159.591076 
L 115.643075 159.549297 
L 116.055878 160.233424 
L 116.46848 164.212848 
L 116.881034 148.786052 
L 117.293586 163.586167 
L 117.706622 162.390251 
L 118.118943 148.744273 
L 118.531637 162.040353 
L 118.9442 164.113623 
L 119.356957 160.249091 
L 120.185452 169.257628 
L 120.598169 146.571779 
L 121.010888 167.252249 
L 121.423409 166.991133 
L 121.836148 164.787305 
L 122.248697 164.139735 
L 122.661458 165.283428 
L 123.074065 160.510207 
L 123.487215 163.481719 
L 123.899406 162.369361 
L 124.312115 164.996199 
L 124.72475 164.923087 
L 125.138127 165.074535 
L 125.549974 176.803912 
L 125.962714 162.41114 
L 126.375261 163.058709 
L 126.788131 160.76088 
L 127.206215 164.766416 
L 127.61484 164.009175 
L 128.027334 165.5341 
L 128.440047 165.006644 
L 128.853176 163.084821 
L 129.265363 176.318234 
L 129.678058 165.121536 
L 130.090806 165.017088 
L 130.503298 165.633323 
L 130.916047 162.661811 
L 131.329094 166.150336 
L 131.741789 162.640923 
L 132.15396 162.134355 
L 132.5667 164.28596 
L 132.979212 178.506395 
L 133.392372 168.369831 
L 133.804696 164.280737 
L 134.21751 169.090515 
L 134.629859 167.471589 
L 135.042698 178.208721 
L 135.45527 168.56828 
L 135.868106 165.638547 
L 136.280538 166.750905 
L 136.693325 165.581101 
L 137.105838 163.748059 
L 137.518629 164.463521 
L 137.931254 170.787774 
L 138.343914 163.79506 
L 138.756528 163.241493 
L 139.169214 162.891596 
L 139.581839 165.351319 
L 139.994602 169.12707 
L 140.407481 161.392783 
L 140.819864 158.68761 
L 141.232512 169.435189 
L 141.6458 165.241648 
L 142.058214 171.884466 
L 142.470613 160.844438 
L 142.883471 165.398318 
L 143.301574 165.967554 
L 143.708604 166.145114 
L 144.121155 163.983065 
L 144.533746 169.738084 
L 144.946532 163.716725 
L 145.772094 177.012805 
L 146.18451 167.784929 
L 146.596999 164.510521 
L 147.009723 166.479344 
L 147.422746 167.466367 
L 147.835529 178.354947 
L 148.247835 166.813574 
L 148.660442 165.528877 
L 149.073034 160.933219 
L 149.48623 166.959799 
L 149.898868 165.523655 
L 150.311218 169.826865 
L 150.723379 166.881463 
L 151.138334 165.241649 
L 151.549273 170.213318 
L 151.961935 166.844908 
L 152.374825 164.510521 
L 152.787295 165.163314 
L 153.200212 162.72448 
L 153.612903 166.061557 
L 154.43801 176.929248 
L 154.851025 162.191802 
L 155.263138 169.330742 
L 155.675879 167.461144 
L 156.088594 166.406231 
L 156.501249 167.309697 
L 156.913796 134.168719 
L 157.326547 167.372364 
L 157.739803 170.030535 
L 158.152009 164.557522 
L 158.564712 162.771481 
L 158.97738 163.419052 
L 159.390083 168.657059 
L 159.803442 161.810571 
L 160.215386 162.651368 
L 161.041261 166.688238 
L 161.453367 170.782551 
L 161.866064 165.727326 
L 162.27974 170.103649 
L 162.691486 159.77908 
L 163.10407 162.823705 
L 163.517873 141.584445 
L 163.929432 165.581101 
L 164.342186 174.855978 
L 164.755297 166.756128 
L 165.167466 165.648992 
L 165.580267 169.978312 
L 165.993701 171.931469 
L 166.40534 166.902353 
L 166.818274 170.95489 
L 167.230855 166.427121 
L 167.643379 168.730172 
L 168.056083 151.083883 
L 168.469775 165.497544 
L 168.881387 158.651055 
L 169.707677 169.4613 
L 170.11997 161.669568 
L 170.532345 161.173445 
L 170.945676 165.675104 
L 171.357527 163.429497 
L 171.77007 162.656591 
L 172.183481 163.178824 
L 172.595562 156.442004 
L 173.008084 163.121378 
L 173.421612 162.41114 
L 173.833402 162.808038 
L 174.246055 151.470334 
L 174.658955 162.029909 
L 175.071373 161.72179 
L 175.484029 161.100333 
L 175.898429 165.993666 
L 176.309274 163.554832 
L 176.722047 162.928151 
L 177.13436 163.821172 
L 177.547301 155.616874 
L 177.959964 164.860419 
L 178.373766 164.322516 
L 178.786096 154.259066 
L 179.19816 159.831304 
L 179.610545 162.249246 
L 180.023382 159.403072 
L 180.436043 174.396412 
L 180.850533 163.058709 
L 181.261292 162.609589 
L 181.673945 160.134199 
L 182.088052 170.631105 
L 182.499596 167.905042 
L 182.91195 163.450386 
L 183.325526 169.294185 
L 183.737542 147.992256 
L 184.150791 171.508458 
L 184.563627 159.126287 
L 184.975339 157.852037 
L 185.388012 167.664816 
L 185.801748 162.667035 
L 186.213239 163.627944 
L 186.625892 163.251937 
L 187.038983 158.739835 
L 187.451528 160.426651 
L 187.863846 158.906948 
L 188.277111 166.213005 
L 189.101874 159.596298 
L 189.514708 164.970087 
L 189.927132 157.136575 
L 190.340383 165.126757 
L 190.753543 164.103179 
L 191.165426 165.194648 
L 191.577838 158.34816 
L 192.402991 164.113624 
L 192.815876 161.779237 
L 193.229669 165.904887 
L 193.641739 167.408921 
L 194.053749 168.056491 
L 194.466502 165.957109 
L 194.879204 155.397536 
L 195.29242 161.204779 
L 195.706124 162.787149 
L 196.117329 161.236114 
L 196.529716 169.623193 
L 196.944023 163.72717 
L 197.767804 162.541698 
L 198.593087 155.836213 
L 199.005823 164.938753 
L 199.831059 166.792683 
L 200.244479 167.398476 
L 200.656937 170.907888 
L 201.069227 173.445947 
L 201.481755 151.261442 
L 201.895717 174.495637 
L 202.307216 148.660716 
L 202.719662 174.709753 
L 203.133318 164.802972 
L 203.545452 161.126444 
L 203.957608 172.317921 
L 204.371396 159.638077 
L 204.783321 171.35701 
L 205.195657 151.982125 
L 205.608296 162.092576 
L 206.020884 166.583791 
L 206.433567 164.040511 
L 206.847884 167.393254 
L 207.258884 167.487255 
L 207.671652 169.210628 
L 208.085685 166.040668 
L 208.496881 161.768792 
L 208.910031 165.210315 
L 209.323313 164.030065 
L 209.735089 164.400852 
L 210.147589 167.555146 
L 210.561699 164.113623 
L 210.973063 166.004111 
L 211.385645 164.265072 
L 211.800394 164.583634 
L 212.210942 164.071844 
L 212.623805 165.42443 
L 213.037343 159.580631 
L 213.448987 163.309382 
L 213.861603 165.299094 
L 214.27644 163.54961 
L 214.686939 159.805192 
L 215.100339 162.150023 
L 215.92497 163.382495 
L 216.337586 166.91802 
L 217.163158 164.369518 
L 217.575501 164.108402 
L 217.989277 154.875301 
L 218.401697 158.604053 
L 218.813645 165.899665 
L 219.22803 164.93353 
L 219.638815 156.823235 
L 220.051744 165.664658 
L 220.465402 169.764196 
L 220.876796 166.912798 
L 221.289681 162.338027 
L 221.702411 168.808508 
L 222.11486 165.481876 
L 222.527483 165.69077 
L 222.94128 157.25669 
L 223.352902 162.855038 
L 223.765656 164.505298 
L 224.178939 165.429652 
L 224.590646 157.25669 
L 225.003718 165.168536 
L 225.41772 165.351318 
L 225.82891 169.529191 
L 226.241643 165.951887 
L 226.655608 163.946508 
L 227.066743 163.701058 
L 227.479438 162.980375 
L 228.30487 178.219167 
L 228.717478 178.767512 
L 229.131804 180.908672 
L 229.542746 166.78224 
L 229.955612 172.631262 
L 230.368922 170.782553 
L 230.781113 163.690613 
L 231.193469 178.260945 
L 232.018722 160.891438 
L 232.432099 163.377273 
L 232.844302 168.333274 
L 233.256846 163.852507 
L 233.669427 162.562588 
L 234.083429 168.192272 
L 234.494841 166.051112 
L 234.907479 166.33834 
L 235.321848 161.74268 
L 235.733146 163.283272 
L 236.146052 169.623193 
L 236.559216 167.445477 
L 236.971039 157.136577 
L 237.383488 165.492322 
L 237.797719 171.388343 
L 238.208942 143.098923 
L 238.621649 169.68064 
L 239.035572 163.074378 
L 239.447524 165.241648 
L 239.859571 160.264758 
L 240.273635 166.103335 
L 240.68483 169.946978 
L 241.097467 176.407015 
L 241.511753 166.85013 
L 241.923436 163.0796 
L 242.749808 169.362076 
L 243.160624 163.293715 
L 243.57335 163.330273 
L 243.987554 163.23627 
L 244.398805 163.648835 
L 244.811377 166.78224 
L 245.225225 168.082603 
L 245.636725 162.045577 
L 246.049368 163.768949 
L 246.462883 167.983378 
L 246.874717 157.580474 
L 247.287383 160.20209 
L 247.701296 167.889375 
L 248.112833 168.824175 
L 248.525358 170.296874 
L 248.939662 167.696149 
L 249.350706 160.280424 
L 249.763506 163.821171 
L 250.177538 163.251936 
L 250.589371 170.202873 
L 251.001638 163.25716 
L 251.4157 169.299407 
L 251.82666 164.782083 
L 252.239589 171.753908 
L 252.653647 160.745213 
L 253.064651 162.353694 
L 253.477381 160.844438 
L 253.891814 165.231205 
L 254.303197 158.792058 
L 254.715323 167.022466 
L 255.129794 159.88875 
L 255.540555 163.701058 
L 255.953696 157.878149 
L 256.36749 157.97215 
L 256.778705 161.805347 
L 257.191194 163.962175 
L 257.60532 165.15287 
L 258.016928 160.144645 
L 258.42932 164.938753 
L 258.843379 158.818169 
L 259.255116 160.562431 
L 259.667286 159.554519 
L 260.492626 168.771951 
L 260.905283 159.329958 
L 261.319395 166.65168 
L 261.730683 152.697586 
L 262.143719 161.392782 
L 262.55735 160.854883 
L 262.968504 165.628102 
L 263.381303 164.092733 
L 263.794864 161.361449 
L 264.206443 164.332961 
L 264.619232 165.116312 
L 265.033428 163.748059 
L 265.444491 163.779393 
L 265.857099 166.223448 
L 266.270925 163.1266 
L 266.686092 161.789681 
L 267.095185 164.735081 
L 267.509672 161.768792 
L 267.920448 163.821172 
L 268.333569 162.264913 
L 268.747819 161.706125 
L 269.158421 162.781926 
L 269.571194 163.330273 
L 270.396655 160.254314 
L 270.809087 153.75772 
L 271.223817 160.640765 
L 271.634527 161.298782 
L 272.047118 162.223134 
L 272.460862 162.479031 
L 272.872495 167.16347 
L 273.28505 165.695993 
L 273.69909 163.528721 
L 274.110401 158.823392 
L 274.523015 158.823392 
L 274.936984 164.176291 
L 275.348347 167.18436 
L 275.761098 165.591546 
L 276.174978 166.792684 
L 276.587134 165.4871 
L 276.999681 165.053645 
L 277.413036 167.732705 
L 277.824404 165.701216 
L 278.237058 170.620661 
L 278.651196 172.65215 
L 279.062377 171.440567 
L 279.474784 171.101115 
L 279.889135 169.006957 
L 280.300489 171.028003 
L 280.71285 165.403542 
L 281.538314 175.367768 
L 281.951147 176.004893 
L 282.365648 175.289434 
L 282.776185 170.333431 
L 283.188929 175.299879 
L 283.603163 175.529662 
L 284.014176 168.082603 
L 284.426997 172.563371 
L 284.841431 173.98907 
L 285.252208 168.965178 
L 286.07939 173.581728 
L 286.490124 163.54961 
L 286.902813 162.943818 
L 287.317047 160.640765 
L 287.728449 162.071688 
L 288.14153 153.721164 
L 288.554004 157.006017 
L 288.966333 156.327112 
L 289.379088 160.546764 
L 289.793096 161.930684 
L 290.20405 160.813104 
L 290.617405 162.249248 
L 291.442741 168.27583 
L 291.854801 166.594235 
L 292.269164 163.262382 
L 292.680187 163.001265 
L 293.092867 33.528984 
L 293.506119 113.483026 
L 293.918518 158.436939 
L 294.330721 161.298782 
L 295.156204 165.80044 
L 295.568778 160.35876 
L 295.983027 146.911231 
L 296.394783 162.943818 
L 296.80721 167.220916 
L 297.221116 143.626379 
L 297.632791 165.288651 
L 298.044887 166.442788 
L 298.45887 165.763883 
L 298.870146 162.473807 
L 299.282953 169.591859 
L 299.697251 167.842375 
L 300.108246 164.860419 
L 300.520824 160.484095 
L 300.934494 164.244181 
L 301.346192 164.755971 
L 301.758946 166.296561 
L 302.173146 161.836683 
L 302.585017 161.596453 
L 302.996627 165.095424 
L 303.410952 159.664189 
L 303.822946 167.153026 
L 304.234712 163.001265 
L 305.060055 166.019776 
L 305.472659 166.087669 
L 305.887004 177.921493 
L 306.298074 164.839529 
L 306.711039 167.555146 
L 307.123942 169.085291 
L 307.53605 167.283584 
L 307.948719 128.142138 
L 308.362665 160.551986 
L 308.774349 161.121221 
L 309.186488 160.551986 
L 309.600117 166.531567 
L 310.01219 162.886372 
L 310.424732 157.575252 
L 310.839037 164.520967 
L 311.250229 74.665364 
L 311.663569 165.278204 
L 312.076747 164.693304 
L 312.488064 164.79775 
L 313.315623 168.495168 
L 313.726316 165.763883 
L 314.138609 166.025 
L 314.552752 162.808038 
L 314.964109 163.915174 
L 315.37699 157.946038 
L 315.790231 159.418739 
L 316.202908 169.179294 
L 316.614732 163.429495 
L 317.028573 166.061556 
L 317.440087 164.087512 
L 317.852613 164.526189 
L 318.266705 166.803129 
L 318.678065 160.327427 
L 319.090612 167.377586 
L 319.505081 165.831772 
L 319.9162 158.828614 
L 320.742931 164.009177 
L 321.153949 161.659122 
L 321.566627 164.37474 
L 321.980122 159.507519 
L 323.218534 175.320767 
L 323.630008 164.275516 
L 324.456163 167.873708 
L 324.867806 164.735083 
L 325.280514 163.878617 
L 325.69468 168.108715 
L 326.105926 166.865796 
L 326.518788 167.889375 
L 326.932837 167.440253 
L 327.343998 162.708813 
L 327.756718 165.654214 
L 328.169816 165.988444 
L 328.581988 163.86295 
L 328.994662 164.197179 
L 329.408699 167.617814 
L 329.820488 165.565434 
L 330.232539 162.405918 
L 330.646477 163.554832 
L 331.057918 175.46177 
L 331.470556 162.860262 
L 331.884554 164.150179 
L 332.296419 162.43203 
L 332.70911 157.439472 
L 333.122415 161.617343 
L 333.533945 164.301627 
L 333.946603 159.48663 
L 334.360331 166.818796 
L 334.771969 163.14749 
L 335.18454 162.928151 
L 335.598387 155.058084 
L 336.009802 159.888748 
L 336.422541 161.356227 
L 336.836509 163.81595 
L 337.247778 158.661498 
L 337.660831 166.082445 
L 338.074318 163.481721 
L 338.48581 163.565277 
L 338.898414 161.115999 
L 339.31288 165.398319 
L 339.724148 162.630477 
L 340.136514 164.364295 
L 340.550235 165.215537 
L 340.961746 163.142267 
L 341.374436 163.962175 
L 341.788062 129.729728 
L 342.200315 166.228672 
L 342.612531 164.129291 
L 343.025878 165.659437 
L 343.437891 161.836683 
L 343.85045 166.291339 
L 344.263937 165.648992 
L 344.675771 163.998732 
L 345.088678 160.828769 
L 345.50218 163.189269 
L 345.915185 167.356697 
L 346.32661 176.448794 
L 346.739209 162.928151 
L 347.152367 165.5811 
L 347.564437 165.455765 
L 347.978315 166.124224 
L 348.390036 165.894441 
L 348.810763 163.110933 
L 349.218102 164.933532 
L 349.630757 163.732392 
L 350.043359 163.951732 
L 350.455949 166.9598 
L 350.868794 167.090357 
L 351.281296 166.756128 
L 351.694654 164.573189 
L 352.106589 166.91802 
L 352.519193 159.063618 
L 353.344549 175.540105 
L 353.757378 166.500232 
L 354.169973 169.889532 
L 354.583453 171.482346 
L 354.9953 172.255254 
L 355.407913 168.155717 
L 355.820604 170.860887 
L 356.233374 168.14527 
L 356.646455 170.657216 
L 357.058783 174.150963 
L 357.471345 169.884309 
L 357.884489 174.934314 
L 358.296917 173.65484 
L 358.709781 166.192115 
L 359.121908 171.586793 
L 359.534738 173.665284 
L 359.947586 173.571283 
L 360.359962 167.022468 
L 360.773956 171.696462 
L 361.186033 170.187206 
L 361.598031 173.388501 
L 362.010824 173.811509 
L 362.423358 168.035602 
L 362.836388 167.106024 
L 363.248709 151.402445 
L 363.661596 147.522246 
L 364.074041 164.698525 
L 364.4869 167.059023 
L 364.899379 164.050954 
L 365.72502 167.388031 
L 366.137451 164.191958 
L 366.549971 167.351476 
L 366.96313 160.89666 
L 367.376097 166.975466 
L 367.788805 163.032599 
L 368.613422 167.889377 
L 369.026191 166.286116 
L 369.438887 165.518432 
L 369.851448 164.150179 
L 370.264462 165.450543 
L 370.676881 167.654371 
L 371.089588 165.612435 
L 371.50207 166.797907 
L 371.914683 166.395786 
L 372.327367 159.721634 
L 372.740554 164.32774 
L 373.153009 165.581101 
L 373.565904 166.265227 
L 373.978058 169.419522 
L 374.390533 174.85598 
L 374.803212 172.291809 
L 375.215893 175.978781 
L 375.628651 168.4325 
L 376.041317 170.66766 
L 376.454136 171.879245 
L 376.867172 160.33787 
L 377.279622 168.74584 
L 377.691864 169.142737 
L 378.104783 171.315231 
L 378.517153 166.113781 
L 378.92992 166.735238 
L 379.342719 156.301 
L 379.761412 168.124381 
L 380.169843 142.393906 
L 380.583007 172.808821 
L 380.995369 167.304473 
L 381.408212 167.884154 
L 381.820825 166.072002 
L 382.234616 169.476967 
L 382.646641 175.258098 
L 383.47131 172.260476 
L 383.883872 172.986381 
L 384.296536 169.116626 
L 384.709267 157.778923 
L 385.121881 164.045733 
L 385.535088 167.085136 
L 385.948048 134.21572 
L 386.360065 174.140519 
L 386.772873 170.714663 
L 387.185333 163.455609 
L 387.598199 166.270451 
L 388.011031 178.135609 
L 388.424121 165.335651 
L 388.836032 164.479186 
L 389.248682 163.110933 
L 389.661266 162.317137 
L 390.073981 169.28374 
L 390.486679 164.421742 
L 390.899288 160.959329 
L 391.311926 166.693461 
L 391.724441 167.346254 
L 392.138078 160.854881 
L 392.964039 171.289121 
L 393.375285 166.756128 
L 393.788315 170.077538 
L 394.200826 159.361293 
L 394.61329 169.315074 
L 395.025682 168.657059 
L 395.438728 171.795687 
L 395.852542 166.061557 
L 396.26384 171.91058 
L 396.676571 166.714349 
L 397.089276 170.10887 
L 397.914699 164.191958 
L 398.327441 170.79822 
L 398.739916 164.249403 
L 399.152455 168.939066 
L 399.565147 164.019621 
L 399.977875 167.774484 
L 400.391032 167.252249 
L 400.803496 167.523812 
L 401.215762 166.155558 
L 401.628781 167.236582 
L 402.041223 161.669568 
L 402.453712 152.7707 
L 402.866395 169.090514 
L 403.279096 175.211097 
L 403.692166 167.884154 
L 404.104741 169.377743 
L 404.517868 165.805662 
L 404.929813 168.364609 
L 405.342568 176.563684 
L 405.755219 162.609588 
L 406.167787 159.86786 
L 406.58224 165.048421 
L 406.993366 178.934627 
L 407.405957 165.058868 
L 407.818638 165.346095 
L 408.231195 163.074376 
L 408.64408 167.570813 
L 409.056662 169.200182 
L 409.469348 162.70359 
L 409.881841 164.88653 
L 410.29463 166.380119 
L 410.707645 152.520027 
L 411.120502 164.265072 
L 411.532452 167.732705 
L 411.945334 167.440255 
L 412.357905 159.805192 
L 412.770563 167.153026 
L 413.18323 170.756441 
L 413.596903 166.656904 
L 414.008559 165.455765 
L 414.421193 163.607056 
L 414.834048 163.387718 
L 415.246564 161.941129 
L 415.659165 170.385655 
L 416.071895 164.609744 
L 416.484529 166.327897 
L 416.897198 159.032286 
L 417.310437 166.307006 
L 417.722599 163.293715 
L 418.135339 159.439628 
L 418.547848 164.818638 
L 418.960897 166.975466 
L 419.373197 156.697898 
L 419.785774 165.481877 
L 420.19877 159.789525 
L 420.612699 164.64108 
L 421.024403 163.68017 
L 421.43659 167.617813 
L 421.849331 161.18389 
L 422.261884 177.028472 
L 422.674648 163.941286 
L 423.087712 161.29356 
L 423.499706 168.25494 
L 423.912443 178.40717 
L 424.325998 162.45814 
L 424.737648 151.240551 
L 425.152322 165.424431 
L 425.563188 163.131823 
L 425.975732 163.533943 
L 426.388743 164.254627 
L 426.801307 157.799813 
L 427.213793 162.985597 
L 427.626417 159.183733 
L 428.039374 142.169345 
L 428.452056 163.471274 
L 428.864473 166.651682 
L 429.277803 160.682546 
L 429.690352 168.25494 
L 430.102473 156.253999 
L 430.515136 166.777017 
L 430.928445 164.787305 
L 431.340393 167.257473 
L 431.753872 161.888907 
L 432.165685 160.572876 
L 432.57841 163.721949 
L 432.991061 163.528721 
L 433.40425 162.228358 
L 433.816317 164.077068 
L 434.229038 151.151772 
L 434.641636 163.419052 
L 435.054999 170.161094 
L 435.46768 160.390094 
L 436.292556 164.839528 
L 436.705198 161.403228 
L 437.11752 162.96993 
L 437.5309 160.724323 
L 437.943039 159.888748 
L 438.355727 169.852977 
L 438.768308 161.434563 
L 439.180921 160.619877 
L 439.594177 163.821172 
L 440.006528 161.58601 
L 440.419179 163.86295 
L 440.831812 174.192742 
L 441.24424 161.063775 
L 441.657901 164.902196 
L 442.069738 163.523498 
L 442.4823 163.220603 
L 442.894937 149.668628 
L 443.72034 169.544858 
L 444.133023 144.973743 
L 444.545538 168.959956 
L 444.958356 161.737458 
L 445.370923 159.481407 
L 445.78354 154.20162 
L 446.195988 161.946351 
L 446.608989 158.452606 
L 447.021563 159.46574 
L 447.434385 161.236114 
L 447.847017 158.567497 
L 448.259805 158.990507 
L 448.672464 163.194491 
L 449.084853 152.676695 
L 449.497699 159.961862 
L 449.910311 158.536162 
L 450.322934 166.818795 
L 451.148172 159.836526 
L 451.561142 158.369048 
L 451.973459 162.244024 
L 452.386132 152.791588 
L 452.799444 163.810728 
L 453.211453 159.157621 
L 453.624181 162.191802 
L 454.037367 155.543761 
L 454.449476 157.481251 
L 454.862724 177.404482 
L 455.275282 158.572719 
L 455.688285 162.526031 
L 456.100675 123.93293 
L 456.513416 163.925618 
L 456.925988 161.204779 
L 457.338617 160.478873 
L 457.75127 139.855849 
L 458.164915 165.471433 
L 458.576748 163.466052 
L 458.989269 159.726858 
L 459.401897 160.222978 
L 460.228011 156.353224 
L 460.639885 172.406701 
L 461.052598 167.393254 
L 461.465441 154.488848 
L 461.877949 162.776704 
L 462.291122 157.084351 
L 462.703521 153.893501 
L 463.116401 161.434563 
L 463.528838 164.296406 
L 463.941081 154.833523 
L 464.353686 165.685549 
L 464.766531 161.74268 
L 465.179208 149.517181 
L 465.592151 162.123912 
L 466.417756 173.780177 
L 466.82991 160.008863 
L 467.242626 161.617344 
L 467.655469 154.222509 
L 468.068269 172.323145 
L 468.480854 160.619877 
L 468.893637 159.418739 
L 469.305926 164.719414 
L 469.718894 161.695679 
L 470.131319 160.682546 
L 470.544216 159.335181 
L 470.956866 156.301002 
L 471.369384 157.711032 
L 471.782336 162.212691 
L 472.194738 164.353851 
L 472.607535 154.20162 
L 473.019952 161.288337 
L 473.433007 165.82655 
L 473.845561 149.49629 
L 473.845561 149.49629 
" clip-path="url(#p21082f0a95)" style="fill: none; stroke: #1f77b4; stroke-width: 1.5; stroke-linecap: square"/>
   </g>
   <g id="patch_3">
    <path d="M 67.402344 188.277656 
L 67.402344 26.16 
" style="fill: none; stroke: #000000; stroke-width: 0.8; stroke-linejoin: miter; stroke-linecap: square"/>
   </g>
   <g id="patch_4">
    <path d="M 493.2 188.277656 
L 493.2 26.16 
" style="fill: none; stroke: #000000; stroke-width: 0.8; stroke-linejoin: miter; stroke-linecap: square"/>
   </g>
   <g id="patch_5">
    <path d="M 67.402344 188.277656 
L 493.2 188.277656 
" style="fill: none; stroke: #000000; stroke-width: 0.8; stroke-linejoin: miter; stroke-linecap: square"/>
   </g>
   <g id="patch_6">
    <path d="M 67.402344 26.16 
L 493.2 26.16 
" style="fill: none; stroke: #000000; stroke-width: 0.8; stroke-linejoin: miter; stroke-linecap: square"/>
   </g>
   <g id="text_16">
    <!-- Computational time -->
    <g transform="translate(220.656484 20.16) scale(0.12 -0.12)">
     <defs>
      <path id="DejaVuSans-26" d="M 4122 4306 
L 4122 3641 
Q 3803 3938 3442 4084 
Q 3081 4231 2675 4231 
Q 1875 4231 1450 3742 
Q 1025 3253 1025 2328 
Q 1025 1406 1450 917 
Q 1875 428 2675 428 
Q 3081 428 3442 575 
Q 3803 722 4122 1019 
L 4122 359 
Q 3791 134 3420 21 
Q 3050 -91 2638 -91 
Q 1578 -91 968 557 
Q 359 1206 359 2328 
Q 359 3453 968 4101 
Q 1578 4750 2638 4750 
Q 3056 4750 3426 4639 
Q 3797 4528 4122 4306 
z
" transform="scale(0.015625)"/>
      <path id="DejaVuSans-52" d="M 1959 3097 
Q 1497 3097 1228 2736 
Q 959 2375 959 1747 
Q 959 1119 1226 758 
Q 1494 397 1959 397 
Q 2419 397 2687 759 
Q 2956 1122 2956 1747 
Q 2956 2369 2687 2733 
Q 2419 3097 1959 3097 
z
M 1959 3584 
Q 2709 3584 3137 3096 
Q 3566 2609 3566 1747 
Q 3566 888 3137 398 
Q 2709 -91 1959 -91 
Q 1206 -91 779 398 
Q 353 888 353 1747 
Q 353 2609 779 3096 
Q 1206 3584 1959 3584 
z
" transform="scale(0.015625)"/>
      <path id="DejaVuSans-53" d="M 1159 525 
L 1159 -1331 
L 581 -1331 
L 581 3500 
L 1159 3500 
L 1159 2969 
Q 1341 3281 1617 3432 
Q 1894 3584 2278 3584 
Q 2916 3584 3314 3078 
Q 3713 2572 3713 1747 
Q 3713 922 3314 415 
Q 2916 -91 2278 -91 
Q 1894 -91 1617 61 
Q 1341 213 1159 525 
z
M 3116 1747 
Q 3116 2381 2855 2742 
Q 2594 3103 2138 3103 
Q 1681 3103 1420 2742 
Q 1159 2381 1159 1747 
Q 1159 1113 1420 752 
Q 1681 391 2138 391 
Q 2594 391 2855 752 
Q 3116 1113 3116 1747 
z
" transform="scale(0.015625)"/>
      <path id="DejaVuSans-58" d="M 544 1381 
L 544 3500 
L 1119 3500 
L 1119 1403 
Q 1119 906 1312 657 
Q 1506 409 1894 409 
Q 2359 409 2629 706 
Q 2900 1003 2900 1516 
L 2900 3500 
L 3475 3500 
L 3475 0 
L 2900 0 
L 2900 538 
Q 2691 219 2414 64 
Q 2138 -91 1772 -91 
Q 1169 -91 856 284 
Q 544 659 544 1381 
z
M 1991 3584 
L 1991 3584 
z
" transform="scale(0.015625)"/>
      <path id="DejaVuSans-44" d="M 2194 1759 
Q 1497 1759 1228 1600 
Q 959 1441 959 1056 
Q 959 750 1161 570 
Q 1363 391 1709 391 
Q 2188 391 2477 730 
Q 2766 1069 2766 1631 
L 2766 1759 
L 2194 1759 
z
M 3341 1997 
L 3341 0 
L 2766 0 
L 2766 531 
Q 2569 213 2275 61 
Q 1981 -91 1556 -91 
Q 1019 -91 701 211 
Q 384 513 384 1019 
Q 384 1609 779 1909 
Q 1175 2209 1959 2209 
L 2766 2209 
L 2766 2266 
Q 2766 2663 2505 2880 
Q 2244 3097 1772 3097 
Q 1472 3097 1187 3025 
Q 903 2953 641 2809 
L 641 3341 
Q 956 3463 1253 3523 
Q 1550 3584 1831 3584 
Q 2591 3584 2966 3190 
Q 3341 2797 3341 1997 
z
" transform="scale(0.015625)"/>
      <path id="DejaVuSans-51" d="M 3513 2113 
L 3513 0 
L 2938 0 
L 2938 2094 
Q 2938 2591 2744 2837 
Q 2550 3084 2163 3084 
Q 1697 3084 1428 2787 
Q 1159 2491 1159 1978 
L 1159 0 
L 581 0 
L 581 3500 
L 1159 3500 
L 1159 2956 
Q 1366 3272 1645 3428 
Q 1925 3584 2291 3584 
Q 2894 3584 3203 3211 
Q 3513 2838 3513 2113 
z
" transform="scale(0.015625)"/>
      <path id="DejaVuSans-4f" d="M 603 4863 
L 1178 4863 
L 1178 0 
L 603 0 
L 603 4863 
z
" transform="scale(0.015625)"/>
     </defs>
     <use xlink:href="#DejaVuSans-26"/>
     <use xlink:href="#DejaVuSans-52" transform="translate(69.828125 0)"/>
     <use xlink:href="#DejaVuSans-50" transform="translate(131.015625 0)"/>
     <use xlink:href="#DejaVuSans-53" transform="translate(228.421875 0)"/>
     <use xlink:href="#DejaVuSans-58" transform="translate(291.90625 0)"/>
     <use xlink:href="#DejaVuSans-57" transform="translate(355.28125 0)"/>
     <use xlink:href="#DejaVuSans-44" transform="translate(394.484375 0)"/>
     <use xlink:href="#DejaVuSans-57" transform="translate(455.765625 0)"/>
     <use xlink:href="#DejaVuSans-4c" transform="translate(494.96875 0)"/>
     <use xlink:href="#DejaVuSans-52" transform="translate(522.75 0)"/>
     <use xlink:href="#DejaVuSans-51" transform="translate(583.9375 0)"/>
     <use xlink:href="#DejaVuSans-44" transform="translate(647.3125 0)"/>
     <use xlink:href="#DejaVuSans-4f" transform="translate(708.59375 0)"/>
     <use xlink:href="#DejaVuSans-3" transform="translate(736.375 0)"/>
     <use xlink:href="#DejaVuSans-57" transform="translate(768.15625 0)"/>
     <use xlink:href="#DejaVuSans-4c" transform="translate(807.359375 0)"/>
     <use xlink:href="#DejaVuSans-50" transform="translate(835.140625 0)"/>
     <use xlink:href="#DejaVuSans-48" transform="translate(932.546875 0)"/>
    </g>
   </g>
   <g id="legend_1">
    <g id="patch_7">
     <path d="M 431.6 49.160781 
L 486.2 49.160781 
Q 488.2 49.160781 488.2 47.160781 
L 488.2 33.16 
Q 488.2 31.16 486.2 31.16 
L 431.6 31.16 
Q 429.6 31.16 429.6 33.16 
L 429.6 47.160781 
Q 429.6 49.160781 431.6 49.160781 
z
" style="fill: #ffffff; opacity: 0.8; stroke: #cccccc; stroke-linejoin: miter"/>
    </g>
    <g id="line2d_28">
     <path d="M 433.6 39.258438 
L 443.6 39.258438 
L 453.6 39.258438 
" style="fill: none; stroke: #1f77b4; stroke-width: 1.5; stroke-linecap: square"/>
    </g>
    <g id="text_17">
     <!-- $t_{solve}$ -->
     <g transform="translate(461.6 42.758438) scale(0.1 -0.1)">
      <defs>
       <path id="DejaVuSans-Oblique-57" d="M 2706 3500 
L 2619 3053 
L 1472 3053 
L 1100 1153 
Q 1081 1047 1072 975 
Q 1063 903 1063 863 
Q 1063 663 1183 572 
Q 1303 481 1569 481 
L 2150 481 
L 2053 0 
L 1503 0 
Q 991 0 739 200 
Q 488 400 488 806 
Q 488 878 497 964 
Q 506 1050 525 1153 
L 897 3053 
L 409 3053 
L 500 3500 
L 978 3500 
L 1172 4494 
L 1747 4494 
L 1556 3500 
L 2706 3500 
z
" transform="scale(0.015625)"/>
       <path id="DejaVuSans-Oblique-56" d="M 3200 3397 
L 3091 2853 
Q 2863 2978 2609 3040 
Q 2356 3103 2088 3103 
Q 1634 3103 1373 2948 
Q 1113 2794 1113 2528 
Q 1113 2219 1719 2053 
Q 1766 2041 1788 2034 
L 1972 1978 
Q 2547 1819 2739 1644 
Q 2931 1469 2931 1166 
Q 2931 609 2489 259 
Q 2047 -91 1331 -91 
Q 1053 -91 747 -37 
Q 441 16 72 128 
L 184 722 
Q 500 559 806 475 
Q 1113 391 1394 391 
Q 1816 391 2080 572 
Q 2344 753 2344 1031 
Q 2344 1331 1650 1516 
L 1591 1531 
L 1394 1581 
Q 956 1697 753 1886 
Q 550 2075 550 2369 
Q 550 2928 970 3256 
Q 1391 3584 2113 3584 
Q 2397 3584 2667 3537 
Q 2938 3491 3200 3397 
z
" transform="scale(0.015625)"/>
       <path id="DejaVuSans-Oblique-52" d="M 1625 -91 
Q 1009 -91 651 289 
Q 294 669 294 1325 
Q 294 1706 417 2101 
Q 541 2497 738 2766 
Q 1047 3184 1428 3384 
Q 1809 3584 2291 3584 
Q 2888 3584 3255 3212 
Q 3622 2841 3622 2241 
Q 3622 1825 3500 1412 
Q 3378 1000 3181 728 
Q 2875 309 2494 109 
Q 2113 -91 1625 -91 
z
M 891 1344 
Q 891 869 1089 633 
Q 1288 397 1691 397 
Q 2269 397 2648 901 
Q 3028 1406 3028 2181 
Q 3028 2634 2825 2865 
Q 2622 3097 2228 3097 
Q 1903 3097 1650 2945 
Q 1397 2794 1197 2484 
Q 1050 2253 970 1956 
Q 891 1659 891 1344 
z
" transform="scale(0.015625)"/>
       <path id="DejaVuSans-Oblique-4f" d="M 1172 4863 
L 1747 4863 
L 800 0 
L 225 0 
L 1172 4863 
z
" transform="scale(0.015625)"/>
       <path id="DejaVuSans-Oblique-59" d="M 459 3500 
L 1069 3500 
L 1581 525 
L 3256 3500 
L 3866 3500 
L 1875 0 
L 1100 0 
L 459 3500 
z
" transform="scale(0.015625)"/>
       <path id="DejaVuSans-Oblique-48" d="M 3078 2063 
Q 3088 2113 3092 2166 
Q 3097 2219 3097 2272 
Q 3097 2653 2873 2875 
Q 2650 3097 2266 3097 
Q 1838 3097 1509 2826 
Q 1181 2556 1013 2059 
L 3078 2063 
z
M 3578 1613 
L 903 1613 
Q 884 1494 878 1425 
Q 872 1356 872 1306 
Q 872 872 1139 634 
Q 1406 397 1894 397 
Q 2269 397 2603 481 
Q 2938 566 3225 728 
L 3116 159 
Q 2806 34 2476 -28 
Q 2147 -91 1806 -91 
Q 1078 -91 686 257 
Q 294 606 294 1247 
Q 294 1794 489 2264 
Q 684 2734 1063 3103 
Q 1306 3334 1642 3459 
Q 1978 3584 2356 3584 
Q 2950 3584 3301 3228 
Q 3653 2872 3653 2272 
Q 3653 2128 3634 1964 
Q 3616 1800 3578 1613 
z
" transform="scale(0.015625)"/>
      </defs>
      <use xlink:href="#DejaVuSans-Oblique-57" transform="translate(0 0.78125)"/>
      <use xlink:href="#DejaVuSans-Oblique-56" transform="translate(39.208984 -14.218701) scale(0.7)"/>
      <use xlink:href="#DejaVuSans-Oblique-52" transform="translate(75.678711 -14.218701) scale(0.7)"/>
      <use xlink:href="#DejaVuSans-Oblique-4f" transform="translate(118.505859 -14.218701) scale(0.7)"/>
      <use xlink:href="#DejaVuSans-Oblique-59" transform="translate(137.954102 -14.218701) scale(0.7)"/>
      <use xlink:href="#DejaVuSans-Oblique-48" transform="translate(179.379883 -14.218701) scale(0.7)"/>
     </g>
    </g>
   </g>
  </g>
 </g>
 <defs>
  <clipPath id="p21082f0a95">
   <rect x="67.402344" y="26.16" width="425.797656" height="162.117656"/>
  </clipPath>
 </defs>
</svg>
