<?xml version="1.0" encoding="utf-8" standalone="no"?>
<!DOCTYPE svg PUBLIC "-//W3C//DTD SVG 1.1//EN"
  "http://www.w3.org/Graphics/SVG/1.1/DTD/svg11.dtd">
<svg xmlns:xlink="http://www.w3.org/1999/xlink" width="504pt" height="230.4pt" viewBox="0 0 504 230.4" xmlns="http://www.w3.org/2000/svg" version="1.1">
 <metadata>
  <rdf:RDF xmlns:dc="http://purl.org/dc/elements/1.1/" xmlns:cc="http://creativecommons.org/ns#" xmlns:rdf="http://www.w3.org/1999/02/22-rdf-syntax-ns#">
   <cc:Work>
    <dc:type rdf:resource="http://purl.org/dc/dcmitype/StillImage"/>
    <dc:date>2026-07-09T12:35:18.111333</dc:date>
    <dc:format>image/svg+xml</dc:format>
    <dc:creator>
     <cc:Agent>
      <dc:title>Matplotlib v3.11.0, https://matplotlib.org/</dc:title>
     </cc:Agent>
    </dc:creator>
   </cc:Work>
  </rdf:RDF>
 </metadata>
 <defs>
  <style type="text/css">*{stroke-linejoin: round; stroke-linecap: butt}</style>
 </defs>
 <g id="figure_1">
  <g id="patch_1">
   <path d="M 0 230.4 
L 504 230.4 
L 504 0 
L 0 0 
z
" style="fill: #ffffff"/>
  </g>
  <g id="axes_1">
   <g id="patch_2">
    <path d="M 60.922344 188.277656 
L 493.2 188.277656 
L 493.2 26.16 
L 60.922344 26.16 
z
" style="fill: #ffffff"/>
   </g>
   <g id="matplotlib.axis_1">
    <g id="xtick_1">
     <g id="line2d_1">
      <path d="M 80.308401 188.277656 
L 80.308401 26.16 
" clip-path="url(#p9a1ae0339a)" style="fill: none; stroke: #b0b0b0; stroke-width: 0.8; stroke-linecap: square"/>
     </g>
     <g id="line2d_2">
      <defs>
       <path id="m555417a23e" d="M 0 0 
L 0 3.5 
" style="stroke: #000000; stroke-width: 0.8"/>
      </defs>
      <g>
       <use xlink:href="#m555417a23e" x="80.308401" y="188.277656" style="stroke: #000000; stroke-width: 0.8"/>
      </g>
     </g>
     <g id="text_1">
      <!-- 0 -->
      <g transform="translate(77.127151 202.875313) scale(0.1 -0.1)">
       <defs>
        <path id="DejaVuSans-13" d="M 2034 4250 
Q 1547 4250 1301 3770 
Q 1056 3291 1056 2328 
Q 1056 1369 1301 889 
Q 1547 409 2034 409 
Q 2525 409 2770 889 
Q 3016 1369 3016 2328 
Q 3016 3291 2770 3770 
Q 2525 4250 2034 4250 
z
M 2034 4750 
Q 2819 4750 3233 4129 
Q 3647 3509 3647 2328 
Q 3647 1150 3233 529 
Q 2819 -91 2034 -91 
Q 1250 -91 836 529 
Q 422 1150 422 2328 
Q 422 3509 836 4129 
Q 1250 4750 2034 4750 
z
" transform="scale(0.015625)"/>
       </defs>
       <use xlink:href="#DejaVuSans-13"/>
      </g>
     </g>
    </g>
    <g id="xtick_2">
     <g id="line2d_3">
      <path d="M 145.360228 188.277656 
L 145.360228 26.16 
" clip-path="url(#p9a1ae0339a)" style="fill: none; stroke: #b0b0b0; stroke-width: 0.8; stroke-linecap: square"/>
     </g>
     <g id="line2d_4">
      <g>
       <use xlink:href="#m555417a23e" x="145.360228" y="188.277656" style="stroke: #000000; stroke-width: 0.8"/>
      </g>
     </g>
     <g id="text_2">
      <!-- 10 -->
      <g transform="translate(138.997728 202.875313) scale(0.1 -0.1)">
       <defs>
        <path id="DejaVuSans-14" d="M 794 531 
L 1825 531 
L 1825 4091 
L 703 3866 
L 703 4441 
L 1819 4666 
L 2450 4666 
L 2450 531 
L 3481 531 
L 3481 0 
L 794 0 
L 794 531 
z
" transform="scale(0.015625)"/>
       </defs>
       <use xlink:href="#DejaVuSans-14"/>
       <use xlink:href="#DejaVuSans-13" transform="translate(63.625 0)"/>
      </g>
     </g>
    </g>
    <g id="xtick_3">
     <g id="line2d_5">
      <path d="M 210.412055 188.277656 
L 210.412055 26.16 
" clip-path="url(#p9a1ae0339a)" style="fill: none; stroke: #b0b0b0; stroke-width: 0.8; stroke-linecap: square"/>
     </g>
     <g id="line2d_6">
      <g>
       <use xlink:href="#m555417a23e" x="210.412055" y="188.277656" style="stroke: #000000; stroke-width: 0.8"/>
      </g>
     </g>
     <g id="text_3">
      <!-- 20 -->
      <g transform="translate(204.049555 202.875313) scale(0.1 -0.1)">
       <defs>
        <path id="DejaVuSans-15" d="M 1228 531 
L 3431 531 
L 3431 0 
L 469 0 
L 469 531 
Q 828 903 1448 1529 
Q 2069 2156 2228 2338 
Q 2531 2678 2651 2914 
Q 2772 3150 2772 3378 
Q 2772 3750 2511 3984 
Q 2250 4219 1831 4219 
Q 1534 4219 1204 4116 
Q 875 4013 500 3803 
L 500 4441 
Q 881 4594 1212 4672 
Q 1544 4750 1819 4750 
Q 2544 4750 2975 4387 
Q 3406 4025 3406 3419 
Q 3406 3131 3298 2873 
Q 3191 2616 2906 2266 
Q 2828 2175 2409 1742 
Q 1991 1309 1228 531 
z
" transform="scale(0.015625)"/>
       </defs>
       <use xlink:href="#DejaVuSans-15"/>
       <use xlink:href="#DejaVuSans-13" transform="translate(63.625 0)"/>
      </g>
     </g>
    </g>
    <g id="xtick_4">
     <g id="line2d_7">
      <path d="M 275.463882 188.277656 
L 275.463882 26.16 
" clip-path="url(#p9a1ae0339a)" style="fill: none; stroke: #b0b0b0; stroke-width: 0.8; stroke-linecap: square"/>
     </g>
     <g id="line2d_8">
      <g>
       <use xlink:href="#m555417a23e" x="275.463882" y="188.277656" style="stroke: #000000; stroke-width: 0.8"/>
      </g>
     </g>
     <g id="text_4">
      <!-- 30 -->
      <g transform="translate(269.101382 202.875313) scale(0.1 -0.1)">
       <defs>
        <path id="DejaVuSans-16" d="M 2597 2516 
Q 3050 2419 3304 2112 
Q 3559 1806 3559 1356 
Q 3559 666 3084 287 
Q 2609 -91 1734 -91 
Q 1441 -91 1130 -33 
Q 819 25 488 141 
L 488 750 
Q 750 597 1062 519 
Q 1375 441 1716 441 
Q 2309 441 2620 675 
Q 2931 909 2931 1356 
Q 2931 1769 2642 2001 
Q 2353 2234 1838 2234 
L 1294 2234 
L 1294 2753 
L 1863 2753 
Q 2328 2753 2575 2939 
Q 2822 3125 2822 3475 
Q 2822 3834 2567 4026 
Q 2313 4219 1838 4219 
Q 1578 4219 1281 4162 
Q 984 4106 628 3988 
L 628 4550 
Q 988 4650 1302 4700 
Q 1616 4750 1894 4750 
Q 2613 4750 3031 4423 
Q 3450 4097 3450 3541 
Q 3450 3153 3228 2886 
Q 3006 2619 2597 2516 
z
" transform="scale(0.015625)"/>
       </defs>
       <use xlink:href="#DejaVuSans-16"/>
       <use xlink:href="#DejaVuSans-13" transform="translate(63.625 0)"/>
      </g>
     </g>
    </g>
    <g id="xtick_5">
     <g id="line2d_9">
      <path d="M 340.515708 188.277656 
L 340.515708 26.16 
" clip-path="url(#p9a1ae0339a)" style="fill: none; stroke: #b0b0b0; stroke-width: 0.8; stroke-linecap: square"/>
     </g>
     <g id="line2d_10">
      <g>
       <use xlink:href="#m555417a23e" x="340.515708" y="188.277656" style="stroke: #000000; stroke-width: 0.8"/>
      </g>
     </g>
     <g id="text_5">
      <!-- 40 -->
      <g transform="translate(334.153208 202.875313) scale(0.1 -0.1)">
       <defs>
        <path id="DejaVuSans-17" d="M 2419 4116 
L 825 1625 
L 2419 1625 
L 2419 4116 
z
M 2253 4666 
L 3047 4666 
L 3047 1625 
L 3713 1625 
L 3713 1100 
L 3047 1100 
L 3047 0 
L 2419 0 
L 2419 1100 
L 313 1100 
L 313 1709 
L 2253 4666 
z
" transform="scale(0.015625)"/>
       </defs>
       <use xlink:href="#DejaVuSans-17"/>
       <use xlink:href="#DejaVuSans-13" transform="translate(63.625 0)"/>
      </g>
     </g>
    </g>
    <g id="xtick_6">
     <g id="line2d_11">
      <path d="M 405.567535 188.277656 
L 405.567535 26.16 
" clip-path="url(#p9a1ae0339a)" style="fill: none; stroke: #b0b0b0; stroke-width: 0.8; stroke-linecap: square"/>
     </g>
     <g id="line2d_12">
      <g>
       <use xlink:href="#m555417a23e" x="405.567535" y="188.277656" style="stroke: #000000; stroke-width: 0.8"/>
      </g>
     </g>
     <g id="text_6">
      <!-- 50 -->
      <g transform="translate(399.205035 202.875313) scale(0.1 -0.1)">
       <defs>
        <path id="DejaVuSans-18" d="M 691 4666 
L 3169 4666 
L 3169 4134 
L 1269 4134 
L 1269 2991 
Q 1406 3038 1543 3061 
Q 1681 3084 1819 3084 
Q 2600 3084 3056 2656 
Q 3513 2228 3513 1497 
Q 3513 744 3044 326 
Q 2575 -91 1722 -91 
Q 1428 -91 1123 -41 
Q 819 9 494 109 
L 494 744 
Q 775 591 1075 516 
Q 1375 441 1709 441 
Q 2250 441 2565 725 
Q 2881 1009 2881 1497 
Q 2881 1984 2565 2268 
Q 2250 2553 1709 2553 
Q 1456 2553 1204 2497 
Q 953 2441 691 2322 
L 691 4666 
z
" transform="scale(0.015625)"/>
       </defs>
       <use xlink:href="#DejaVuSans-18"/>
       <use xlink:href="#DejaVuSans-13" transform="translate(63.625 0)"/>
      </g>
     </g>
    </g>
    <g id="xtick_7">
     <g id="line2d_13">
      <path d="M 470.619362 188.277656 
L 470.619362 26.16 
" clip-path="url(#p9a1ae0339a)" style="fill: none; stroke: #b0b0b0; stroke-width: 0.8; stroke-linecap: square"/>
     </g>
     <g id="line2d_14">
      <g>
       <use xlink:href="#m555417a23e" x="470.619362" y="188.277656" style="stroke: #000000; stroke-width: 0.8"/>
      </g>
     </g>
     <g id="text_7">
      <!-- 60 -->
      <g transform="translate(464.256862 202.875313) scale(0.1 -0.1)">
       <defs>
        <path id="DejaVuSans-19" d="M 2113 2584 
Q 1688 2584 1439 2293 
Q 1191 2003 1191 1497 
Q 1191 994 1439 701 
Q 1688 409 2113 409 
Q 2538 409 2786 701 
Q 3034 994 3034 1497 
Q 3034 2003 2786 2293 
Q 2538 2584 2113 2584 
z
M 3366 4563 
L 3366 3988 
Q 3128 4100 2886 4159 
Q 2644 4219 2406 4219 
Q 1781 4219 1451 3797 
Q 1122 3375 1075 2522 
Q 1259 2794 1537 2939 
Q 1816 3084 2150 3084 
Q 2853 3084 3261 2657 
Q 3669 2231 3669 1497 
Q 3669 778 3244 343 
Q 2819 -91 2113 -91 
Q 1303 -91 875 529 
Q 447 1150 447 2328 
Q 447 3434 972 4092 
Q 1497 4750 2381 4750 
Q 2619 4750 2861 4703 
Q 3103 4656 3366 4563 
z
" transform="scale(0.015625)"/>
       </defs>
       <use xlink:href="#DejaVuSans-19"/>
       <use xlink:href="#DejaVuSans-13" transform="translate(63.625 0)"/>
      </g>
     </g>
    </g>
    <g id="text_8">
     <!-- t (s) -->
     <g transform="translate(267.005703 216.875313) scale(0.1 -0.1)">
      <defs>
       <path id="DejaVuSans-57" d="M 1172 4494 
L 1172 3500 
L 2356 3500 
L 2356 3053 
L 1172 3053 
L 1172 1153 
Q 1172 725 1289 603 
Q 1406 481 1766 481 
L 2356 481 
L 2356 0 
L 1766 0 
Q 1100 0 847 248 
Q 594 497 594 1153 
L 594 3053 
L 172 3053 
L 172 3500 
L 594 3500 
L 594 4494 
L 1172 4494 
z
" transform="scale(0.015625)"/>
       <path id="DejaVuSans-3" transform="scale(0.015625)"/>
       <path id="DejaVuSans-b" d="M 1984 4856 
Q 1566 4138 1362 3434 
Q 1159 2731 1159 2009 
Q 1159 1288 1364 580 
Q 1569 -128 1984 -844 
L 1484 -844 
Q 1016 -109 783 600 
Q 550 1309 550 2009 
Q 550 2706 781 3412 
Q 1013 4119 1484 4856 
L 1984 4856 
z
" transform="scale(0.015625)"/>
       <path id="DejaVuSans-56" d="M 2834 3397 
L 2834 2853 
Q 2591 2978 2328 3040 
Q 2066 3103 1784 3103 
Q 1356 3103 1142 2972 
Q 928 2841 928 2578 
Q 928 2378 1081 2264 
Q 1234 2150 1697 2047 
L 1894 2003 
Q 2506 1872 2764 1633 
Q 3022 1394 3022 966 
Q 3022 478 2636 193 
Q 2250 -91 1575 -91 
Q 1294 -91 989 -36 
Q 684 19 347 128 
L 347 722 
Q 666 556 975 473 
Q 1284 391 1588 391 
Q 1994 391 2212 530 
Q 2431 669 2431 922 
Q 2431 1156 2273 1281 
Q 2116 1406 1581 1522 
L 1381 1569 
Q 847 1681 609 1914 
Q 372 2147 372 2553 
Q 372 3047 722 3315 
Q 1072 3584 1716 3584 
Q 2034 3584 2315 3537 
Q 2597 3491 2834 3397 
z
" transform="scale(0.015625)"/>
       <path id="DejaVuSans-c" d="M 513 4856 
L 1013 4856 
Q 1481 4119 1714 3412 
Q 1947 2706 1947 2009 
Q 1947 1309 1714 600 
Q 1481 -109 1013 -844 
L 513 -844 
Q 928 -128 1133 580 
Q 1338 1288 1338 2009 
Q 1338 2731 1133 3434 
Q 928 4138 513 4856 
z
" transform="scale(0.015625)"/>
      </defs>
      <use xlink:href="#DejaVuSans-57"/>
      <use xlink:href="#DejaVuSans-3" transform="translate(39.203125 0)"/>
      <use xlink:href="#DejaVuSans-b" transform="translate(70.984375 0)"/>
      <use xlink:href="#DejaVuSans-56" transform="translate(110 0)"/>
      <use xlink:href="#DejaVuSans-c" transform="translate(162.09375 0)"/>
     </g>
    </g>
   </g>
   <g id="matplotlib.axis_2">
    <g id="ytick_1">
     <g id="line2d_15">
      <path d="M 60.922344 176.349567 
L 493.2 176.349567 
" clip-path="url(#p9a1ae0339a)" style="fill: none; stroke: #b0b0b0; stroke-width: 0.8; stroke-linecap: square"/>
     </g>
     <g id="line2d_16">
      <defs>
       <path id="m9356b5c1a9" d="M 0 0 
L -3.5 0 
" style="stroke: #000000; stroke-width: 0.8"/>
      </defs>
      <g>
       <use xlink:href="#m9356b5c1a9" x="60.922344" y="176.349567" style="stroke: #000000; stroke-width: 0.8"/>
      </g>
     </g>
     <g id="text_9">
      <!-- 0.001 -->
      <g transform="translate(25.294219 180.148395) scale(0.1 -0.1)">
       <defs>
        <path id="DejaVuSans-11" d="M 684 794 
L 1344 794 
L 1344 0 
L 684 0 
L 684 794 
z
" transform="scale(0.015625)"/>
       </defs>
       <use xlink:href="#DejaVuSans-13"/>
       <use xlink:href="#DejaVuSans-11" transform="translate(63.625 0)"/>
       <use xlink:href="#DejaVuSans-13" transform="translate(95.40625 0)"/>
       <use xlink:href="#DejaVuSans-13" transform="translate(159.03125 0)"/>
       <use xlink:href="#DejaVuSans-14" transform="translate(222.65625 0)"/>
      </g>
     </g>
    </g>
    <g id="ytick_2">
     <g id="line2d_17">
      <path d="M 60.922344 143.854155 
L 493.2 143.854155 
" clip-path="url(#p9a1ae0339a)" style="fill: none; stroke: #b0b0b0; stroke-width: 0.8; stroke-linecap: square"/>
     </g>
     <g id="line2d_18">
      <g>
       <use xlink:href="#m9356b5c1a9" x="60.922344" y="143.854155" style="stroke: #000000; stroke-width: 0.8"/>
      </g>
     </g>
     <g id="text_10">
      <!-- 0.002 -->
      <g transform="translate(25.294219 147.652983) scale(0.1 -0.1)">
       <use xlink:href="#DejaVuSans-13"/>
       <use xlink:href="#DejaVuSans-11" transform="translate(63.625 0)"/>
       <use xlink:href="#DejaVuSans-13" transform="translate(95.40625 0)"/>
       <use xlink:href="#DejaVuSans-13" transform="translate(159.03125 0)"/>
       <use xlink:href="#DejaVuSans-15" transform="translate(222.65625 0)"/>
      </g>
     </g>
    </g>
    <g id="ytick_3">
     <g id="line2d_19">
      <path d="M 60.922344 111.358744 
L 493.2 111.358744 
" clip-path="url(#p9a1ae0339a)" style="fill: none; stroke: #b0b0b0; stroke-width: 0.8; stroke-linecap: square"/>
     </g>
     <g id="line2d_20">
      <g>
       <use xlink:href="#m9356b5c1a9" x="60.922344" y="111.358744" style="stroke: #000000; stroke-width: 0.8"/>
      </g>
     </g>
     <g id="text_11">
      <!-- 0.003 -->
      <g transform="translate(25.294219 115.157572) scale(0.1 -0.1)">
       <use xlink:href="#DejaVuSans-13"/>
       <use xlink:href="#DejaVuSans-11" transform="translate(63.625 0)"/>
       <use xlink:href="#DejaVuSans-13" transform="translate(95.40625 0)"/>
       <use xlink:href="#DejaVuSans-13" transform="translate(159.03125 0)"/>
       <use xlink:href="#DejaVuSans-16" transform="translate(222.65625 0)"/>
      </g>
     </g>
    </g>
    <g id="ytick_4">
     <g id="line2d_21">
      <path d="M 60.922344 78.863332 
L 493.2 78.863332 
" clip-path="url(#p9a1ae0339a)" style="fill: none; stroke: #b0b0b0; stroke-width: 0.8; stroke-linecap: square"/>
     </g>
     <g id="line2d_22">
      <g>
       <use xlink:href="#m9356b5c1a9" x="60.922344" y="78.863332" style="stroke: #000000; stroke-width: 0.8"/>
      </g>
     </g>
     <g id="text_12">
      <!-- 0.004 -->
      <g transform="translate(25.294219 82.66216) scale(0.1 -0.1)">
       <use xlink:href="#DejaVuSans-13"/>
       <use xlink:href="#DejaVuSans-11" transform="translate(63.625 0)"/>
       <use xlink:href="#DejaVuSans-13" transform="translate(95.40625 0)"/>
       <use xlink:href="#DejaVuSans-13" transform="translate(159.03125 0)"/>
       <use xlink:href="#DejaVuSans-17" transform="translate(222.65625 0)"/>
      </g>
     </g>
    </g>
    <g id="ytick_5">
     <g id="line2d_23">
      <path d="M 60.922344 46.367921 
L 493.2 46.367921 
" clip-path="url(#p9a1ae0339a)" style="fill: none; stroke: #b0b0b0; stroke-width: 0.8; stroke-linecap: square"/>
     </g>
     <g id="line2d_24">
      <g>
       <use xlink:href="#m9356b5c1a9" x="60.922344" y="46.367921" style="stroke: #000000; stroke-width: 0.8"/>
      </g>
     </g>
     <g id="text_13">
      <!-- 0.005 -->
      <g transform="translate(25.294219 50.166749) scale(0.1 -0.1)">
       <use xlink:href="#DejaVuSans-13"/>
       <use xlink:href="#DejaVuSans-11" transform="translate(63.625 0)"/>
       <use xlink:href="#DejaVuSans-13" transform="translate(95.40625 0)"/>
       <use xlink:href="#DejaVuSans-13" transform="translate(159.03125 0)"/>
       <use xlink:href="#DejaVuSans-18" transform="translate(222.65625 0)"/>
      </g>
     </g>
    </g>
    <g id="text_14">
     <!-- Solve time (s) -->
     <g transform="translate(18.891875 141.857891) rotate(-90) scale(0.1 -0.1)">
      <defs>
       <path id="DejaVuSans-36" d="M 3425 4513 
L 3425 3897 
Q 3066 4069 2747 4153 
Q 2428 4238 2131 4238 
Q 1616 4238 1336 4038 
Q 1056 3838 1056 3469 
Q 1056 3159 1242 3001 
Q 1428 2844 1947 2747 
L 2328 2669 
Q 3034 2534 3370 2195 
Q 3706 1856 3706 1288 
Q 3706 609 3251 259 
Q 2797 -91 1919 -91 
Q 1588 -91 1214 -16 
Q 841 59 441 206 
L 441 856 
Q 825 641 1194 531 
Q 1563 422 1919 422 
Q 2459 422 2753 634 
Q 3047 847 3047 1241 
Q 3047 1584 2836 1778 
Q 2625 1972 2144 2069 
L 1759 2144 
Q 1053 2284 737 2584 
Q 422 2884 422 3419 
Q 422 4038 858 4394 
Q 1294 4750 2059 4750 
Q 2388 4750 2728 4690 
Q 3069 4631 3425 4513 
z
" transform="scale(0.015625)"/>
       <path id="DejaVuSans-52" d="M 1959 3097 
Q 1497 3097 1228 2736 
Q 959 2375 959 1747 
Q 959 1119 1226 758 
Q 1494 397 1959 397 
Q 2419 397 2687 759 
Q 2956 1122 2956 1747 
Q 2956 2369 2687 2733 
Q 2419 3097 1959 3097 
z
M 1959 3584 
Q 2709 3584 3137 3096 
Q 3566 2609 3566 1747 
Q 3566 888 3137 398 
Q 2709 -91 1959 -91 
Q 1206 -91 779 398 
Q 353 888 353 1747 
Q 353 2609 779 3096 
Q 1206 3584 1959 3584 
z
" transform="scale(0.015625)"/>
       <path id="DejaVuSans-4f" d="M 603 4863 
L 1178 4863 
L 1178 0 
L 603 0 
L 603 4863 
z
" transform="scale(0.015625)"/>
       <path id="DejaVuSans-59" d="M 191 3500 
L 800 3500 
L 1894 563 
L 2988 3500 
L 3597 3500 
L 2284 0 
L 1503 0 
L 191 3500 
z
" transform="scale(0.015625)"/>
       <path id="DejaVuSans-48" d="M 3597 1894 
L 3597 1613 
L 953 1613 
Q 991 1019 1311 708 
Q 1631 397 2203 397 
Q 2534 397 2845 478 
Q 3156 559 3463 722 
L 3463 178 
Q 3153 47 2828 -22 
Q 2503 -91 2169 -91 
Q 1331 -91 842 396 
Q 353 884 353 1716 
Q 353 2575 817 3079 
Q 1281 3584 2069 3584 
Q 2775 3584 3186 3129 
Q 3597 2675 3597 1894 
z
M 3022 2063 
Q 3016 2534 2758 2815 
Q 2500 3097 2075 3097 
Q 1594 3097 1305 2825 
Q 1016 2553 972 2059 
L 3022 2063 
z
" transform="scale(0.015625)"/>
       <path id="DejaVuSans-4c" d="M 603 3500 
L 1178 3500 
L 1178 0 
L 603 0 
L 603 3500 
z
M 603 4863 
L 1178 4863 
L 1178 4134 
L 603 4134 
L 603 4863 
z
" transform="scale(0.015625)"/>
       <path id="DejaVuSans-50" d="M 3328 2828 
Q 3544 3216 3844 3400 
Q 4144 3584 4550 3584 
Q 5097 3584 5394 3201 
Q 5691 2819 5691 2113 
L 5691 0 
L 5113 0 
L 5113 2094 
Q 5113 2597 4934 2840 
Q 4756 3084 4391 3084 
Q 3944 3084 3684 2787 
Q 3425 2491 3425 1978 
L 3425 0 
L 2847 0 
L 2847 2094 
Q 2847 2600 2669 2842 
Q 2491 3084 2119 3084 
Q 1678 3084 1418 2786 
Q 1159 2488 1159 1978 
L 1159 0 
L 581 0 
L 581 3500 
L 1159 3500 
L 1159 2956 
Q 1356 3278 1631 3431 
Q 1906 3584 2284 3584 
Q 2666 3584 2933 3390 
Q 3200 3197 3328 2828 
z
" transform="scale(0.015625)"/>
      </defs>
      <use xlink:href="#DejaVuSans-36"/>
      <use xlink:href="#DejaVuSans-52" transform="translate(63.484375 0)"/>
      <use xlink:href="#DejaVuSans-4f" transform="translate(124.671875 0)"/>
      <use xlink:href="#DejaVuSans-59" transform="translate(152.453125 0)"/>
      <use xlink:href="#DejaVuSans-48" transform="translate(211.640625 0)"/>
      <use xlink:href="#DejaVuSans-3" transform="translate(273.171875 0)"/>
      <use xlink:href="#DejaVuSans-57" transform="translate(304.953125 0)"/>
      <use xlink:href="#DejaVuSans-4c" transform="translate(344.15625 0)"/>
      <use xlink:href="#DejaVuSans-50" transform="translate(371.9375 0)"/>
      <use xlink:href="#DejaVuSans-48" transform="translate(469.34375 0)"/>
      <use xlink:href="#DejaVuSans-3" transform="translate(530.875 0)"/>
      <use xlink:href="#DejaVuSans-b" transform="translate(562.65625 0)"/>
      <use xlink:href="#DejaVuSans-56" transform="translate(601.671875 0)"/>
      <use xlink:href="#DejaVuSans-c" transform="translate(653.765625 0)"/>
     </g>
    </g>
   </g>
   <g id="line2d_25">
    <path d="M 80.571328 122.179716 
L 81.026224 168.625407 
L 81.483824 154.837604 
L 81.937151 162.863971 
L 82.395309 165.512347 
L 82.849594 164.930678 
L 83.30522 176.859744 
L 84.216436 159.494196 
L 84.670157 171.549994 
L 85.12591 174.871026 
L 85.58233 167.124119 
L 86.035609 166.743923 
L 86.491018 176.404809 
L 86.948625 172.323385 
L 87.403197 169.408546 
L 87.857425 170.562134 
L 88.316151 155.695483 
L 88.771586 162.45128 
L 89.224238 171.140552 
L 89.680789 166.574946 
L 90.136343 150.905659 
L 90.590429 154.366421 
L 91.044186 149.641588 
L 91.500927 153.765255 
L 91.9576 164.118294 
L 92.411096 170.220932 
L 92.869858 165.206891 
L 93.321992 153.284324 
L 93.779804 174.383595 
L 94.234483 169.067346 
L 94.689341 166.968141 
L 95.144551 154.818107 
L 95.601015 160.716024 
L 96.053917 153.411055 
L 96.509999 161.547907 
L 96.966726 158.0514 
L 97.421115 176.274828 
L 97.877486 154.665378 
L 98.786854 171.855451 
L 99.242965 163.247417 
L 99.698925 164.686963 
L 100.152972 167.05263 
L 100.609378 167.751281 
L 101.066721 120.541946 
L 101.520371 167.702537 
L 101.973534 171.176297 
L 102.428573 158.447845 
L 103.341916 174.191871 
L 104.250665 162.854222 
L 104.708703 169.0316 
L 105.162788 170.692116 
L 105.618543 167.514064 
L 106.072602 104.547706 
L 106.527922 170.198185 
L 106.984077 109.366775 
L 107.441003 175.621669 
L 107.895523 172.014678 
L 108.804844 154.106457 
L 109.261029 169.415045 
L 109.71721 168.24846 
L 110.17347 170.773353 
L 110.626906 170.66287 
L 111.0837 169.723751 
L 111.537824 160.199347 
L 111.993979 80.917042 
L 112.448365 162.600758 
L 112.902284 168.24521 
L 113.361351 169.986965 
L 113.814355 172.901804 
L 114.268276 172.417622 
L 114.726736 156.84257 
L 115.181035 156.316145 
L 115.634775 174.575317 
L 116.093194 166.246743 
L 116.547179 178.997942 
L 117.002495 156.572859 
L 117.457627 173.463974 
L 117.912336 165.167896 
L 118.367802 97.122504 
L 118.824233 174.887274 
L 119.279702 172.411122 
L 119.735823 173.337242 
L 120.189595 172.040676 
L 120.644721 164.033806 
L 121.10197 47.056824 
L 121.554983 167.452323 
L 122.010935 171.666978 
L 122.46856 166.405971 
L 122.921944 167.133868 
L 123.378287 160.59904 
L 123.834212 172.177155 
L 124.286007 168.930864 
L 124.742666 173.012287 
L 125.199161 125.656725 
L 126.1092 171.566242 
L 126.562953 173.213759 
L 127.020609 167.338589 
L 127.473416 175.40395 
L 127.929145 165.837301 
L 128.388208 150.187511 
L 128.840358 166.711428 
L 129.296504 122.455927 
L 129.754566 123.745994 
L 130.20793 177.844356 
L 130.663966 172.658088 
L 131.119317 174.565568 
L 131.572103 171.878198 
L 132.029079 158.941775 
L 132.484064 168.196468 
L 132.939233 173.990399 
L 133.396477 158.844288 
L 133.850138 135.363104 
L 134.307723 78.076944 
L 134.760496 171.689724 
L 135.215486 176.82075 
L 135.671295 167.449073 
L 136.126855 167.933256 
L 136.581956 178.435772 
L 137.038098 173.636199 
L 137.947593 110.396879 
L 138.403066 166.90315 
L 138.859033 158.720806 
L 139.313891 129.341704 
L 139.770985 168.589662 
L 140.226776 170.887088 
L 140.683444 167.588803 
L 141.138518 169.470288 
L 141.590904 173.655697 
L 142.048501 167.124119 
L 142.503345 97.479954 
L 142.957788 167.497817 
L 143.41181 105.132623 
L 143.86794 168.024242 
L 144.32422 156.475373 
L 144.780068 165.795057 
L 145.233697 168.999105 
L 145.689089 155.325035 
L 146.145267 161.23595 
L 146.601825 123.183823 
L 147.056665 166.217497 
L 147.513409 103.985535 
L 147.965568 152.536929 
L 148.42308 165.928289 
L 148.877628 173.499719 
L 149.331293 168.885371 
L 149.788695 169.428045 
L 150.24438 167.842269 
L 150.700929 176.937733 
L 151.154506 170.487394 
L 151.6108 177.854104 
L 152.066436 128.259607 
L 152.521253 105.626553 
L 152.973725 168.453181 
L 153.430528 170.191686 
L 153.885219 172.420872 
L 154.34054 170.240429 
L 154.797006 149.469362 
L 155.250592 175.143986 
L 155.706852 133.829321 
L 156.161503 170.510141 
L 156.61767 173.298247 
L 157.074629 167.423077 
L 157.529721 167.127369 
L 157.983176 170.636873 
L 158.441254 172.294139 
L 158.895551 178.188807 
L 159.351572 159.75416 
L 159.807494 168.904868 
L 160.261049 137.134104 
L 160.715848 167.007136 
L 161.174242 117.448383 
L 161.625824 164.774701 
L 162.084239 117.916318 
L 162.536954 169.187579 
L 162.992422 171.86195 
L 163.448765 166.399472 
L 163.904197 171.592238 
L 164.359697 174.646807 
L 164.815103 163.474884 
L 165.272506 173.691442 
L 165.727081 163.370899 
L 166.180055 106.328454 
L 166.637859 173.018787 
L 167.091967 162.009341 
L 167.548057 171.312778 
L 168.001385 161.720132 
L 168.457017 154.668628 
L 168.913212 167.078626 
L 169.369956 170.763606 
L 169.822781 168.914617 
L 170.279563 170.828596 
L 170.735291 165.125651 
L 171.644405 175.264219 
L 172.101976 172.300638 
L 172.55559 174.611062 
L 173.012244 172.524856 
L 173.469464 158.636318 
L 173.923414 171.731969 
L 174.379156 51.134998 
L 174.83267 171.64423 
L 175.289892 167.54331 
L 175.744056 42.481469 
L 176.200378 169.853734 
L 176.653962 165.28163 
L 177.109358 166.467712 
L 177.567167 122.374688 
L 178.022223 169.132335 
L 178.930557 173.571209 
L 179.387219 167.692789 
L 179.840599 175.446194 
L 180.298821 166.19475 
L 180.752768 175.628169 
L 181.208013 171.891197 
L 181.663722 171.845703 
L 182.117968 170.636874 
L 182.572415 173.587457 
L 183.028793 173.109774 
L 183.483703 170.744108 
L 183.943089 118.18603 
L 184.394652 155.28929 
L 184.850055 168.830129 
L 185.306951 172.492361 
L 185.762878 165.444106 
L 186.219117 173.580958 
L 186.672891 157.388494 
L 187.126682 167.296344 
L 187.583191 126.348877 
L 188.039213 169.772495 
L 188.492291 82.018637 
L 188.94848 175.033502 
L 189.405745 172.381877 
L 189.860758 167.205358 
L 190.315672 167.796774 
L 190.772859 166.191501 
L 191.226146 167.462071 
L 191.680127 161.827367 
L 192.136534 93.362784 
L 192.591984 174.100883 
L 193.048457 130.14434 
L 193.502307 126.153905 
L 193.95773 171.523997 
L 194.869598 166.678933 
L 195.324506 172.284391 
L 195.779367 166.2045 
L 196.237828 138.768623 
L 196.692494 145.293702 
L 197.146294 162.201065 
L 197.602798 164.381507 
L 198.058183 172.164157 
L 198.966677 165.918539 
L 199.421621 175.030253 
L 199.876666 168.846376 
L 200.335648 166.643186 
L 201.246077 157.040793 
L 201.699835 166.877154 
L 202.156897 52.925495 
L 202.610172 75.256342 
L 203.06418 162.834725 
L 203.522192 170.831846 
L 203.975943 174.48758 
L 204.432696 168.518173 
L 204.885735 166.594444 
L 205.340527 169.73675 
L 205.799349 137.30308 
L 206.254641 158.863786 
L 206.708771 104.502212 
L 207.166059 161.66489 
L 207.61887 154.967586 
L 208.076215 158.19438 
L 208.531559 177.415416 
L 208.987119 167.445824 
L 209.442728 154.132453 
L 209.895941 167.930005 
L 210.351063 164.881936 
L 210.807899 71.064434 
L 211.263814 76.302695 
L 211.718451 161.362683 
L 212.173501 168.901619 
L 212.626797 168.443433 
L 213.081448 173.307997 
L 213.539204 170.308669 
L 213.995356 165.128901 
L 214.906092 169.53203 
L 215.358877 167.273597 
L 215.817236 108.729865 
L 216.273069 79.457999 
L 216.72483 172.443618 
L 217.183598 61.751248 
L 217.636937 163.429391 
L 218.091536 167.962502 
L 218.547123 167.150116 
L 219.002583 95.211774 
L 219.460314 151.289105 
L 219.915479 107.456045 
L 220.369034 117.825331 
L 220.824076 165.98353 
L 221.734854 174.06189 
L 222.190018 166.006277 
L 222.645965 164.037055 
L 223.101254 178.750977 
L 223.556624 126.222145 
L 224.01426 169.057596 
L 224.467241 122.098477 
L 224.923525 149.115162 
L 225.377698 129.43919 
L 225.833779 167.54331 
L 226.289496 39.030457 
L 226.743657 168.846376 
L 227.201473 169.428044 
L 227.65734 171.660478 
L 228.108903 150.47672 
L 228.566913 165.288129 
L 229.019511 174.562319 
L 229.476401 149.797565 
L 229.932971 170.165689 
L 230.386923 56.279022 
L 230.843866 136.529689 
L 231.299325 168.264708 
L 231.755216 171.306278 
L 232.20699 172.238897 
L 232.663642 167.364585 
L 233.120121 172.108916 
L 233.574221 170.217682 
L 234.032443 109.932196 
L 234.485929 75.545551 
L 234.941835 174.455084 
L 235.397573 168.258209 
L 235.85121 167.052629 
L 236.307272 175.251222 
L 236.762283 175.111492 
L 237.672984 152.800143 
L 238.127825 172.710081 
L 238.582193 172.043924 
L 239.037365 175.309713 
L 239.495236 73.238376 
L 239.949118 169.317559 
L 240.405951 166.860906 
L 240.859422 171.767713 
L 241.31596 168.024242 
L 241.769742 173.824673 
L 242.226538 142.369115 
L 242.682824 127.911907 
L 243.137779 173.152018 
L 243.594178 171.416763 
L 244.048415 177.311431 
L 244.502653 169.064095 
L 244.959059 168.82688 
L 245.414064 170.906586 
L 245.871177 168.297203 
L 246.779162 174.932767 
L 247.23584 175.088745 
L 247.69018 168.758639 
L 248.144926 170.120196 
L 248.600337 165.405111 
L 249.057735 167.341838 
L 249.512229 162.155571 
L 249.968417 170.061704 
L 250.42524 171.111305 
L 250.879805 175.247972 
L 251.33412 168.271208 
L 251.790492 164.465995 
L 252.245283 169.359804 
L 252.700958 170.737608 
L 253.156885 177.187948 
L 253.609314 169.060846 
L 254.064508 170.555634 
L 254.520573 170.087702 
L 254.976287 176.664773 
L 255.431359 159.533191 
L 255.885985 174.630559 
L 256.344118 172.414372 
L 256.800257 170.792852 
L 257.254103 151.568566 
L 257.708773 170.493894 
L 258.163826 177.483657 
L 258.620681 176.914987 
L 259.073674 168.989356 
L 259.530081 170.4484 
L 259.987366 169.74 
L 260.440224 126.075916 
L 260.898053 169.382551 
L 261.352504 168.261459 
L 261.806345 79.620475 
L 262.261134 135.730303 
L 262.717179 178.214803 
L 263.173315 160.540549 
L 263.629778 175.033502 
L 264.083456 168.781386 
L 264.538784 177.126207 
L 265.451099 165.499349 
L 265.905908 153.30707 
L 266.360161 167.221605 
L 266.816593 167.663543 
L 267.270659 175.702908 
L 267.728677 153.651521 
L 268.183012 175.96937 
L 268.636199 175.598922 
L 269.092058 170.409405 
L 269.550694 154.129204 
L 270.004614 167.023384 
L 270.458445 167.566057 
L 270.914505 107.495039 
L 271.369143 165.158147 
L 271.824382 170.37366 
L 272.278765 173.84417 
L 272.73508 167.208607 
L 273.191809 152.098241 
L 273.647077 172.541104 
L 274.10417 124.243174 
L 274.557258 102.18204 
L 275.011076 171.163299 
L 275.468503 152.897628 
L 275.926475 168.947112 
L 276.380196 170.848093 
L 276.83454 175.745152 
L 277.291201 176.846747 
L 278.19864 167.946253 
L 278.655347 103.933543 
L 279.110589 168.001495 
L 279.565199 175.436445 
L 280.023631 174.107383 
L 280.478219 175.413699 
L 280.932521 69.719123 
L 281.386376 165.860048 
L 281.842152 171.286782 
L 282.296975 172.723079 
L 282.752703 177.298433 
L 283.208524 168.430434 
L 283.666076 171.36802 
L 284.121273 172.989541 
L 284.57484 148.946186 
L 285.032274 170.705114 
L 285.487033 171.462257 
L 285.941943 166.26949 
L 286.395769 157.326753 
L 286.850262 170.503642 
L 287.307085 157.70045 
L 287.763054 168.53442 
L 288.218985 176.284576 
L 288.674616 126.192899 
L 289.130292 165.109404 
L 289.583436 177.750118 
L 290.496181 162.483775 
L 290.948972 167.637547 
L 291.406291 170.786353 
L 291.861419 166.753672 
L 292.316785 159.874393 
L 292.771971 88.056284 
L 293.226583 172.466365 
L 293.681372 158.577826 
L 294.138498 169.200576 
L 294.593873 174.477831 
L 295.047988 167.104622 
L 295.506689 166.009527 
L 295.960569 168.631907 
L 296.415252 152.143734 
L 296.869748 154.408664 
L 297.324889 167.939755 
L 297.780145 130.547284 
L 298.23573 164.251525 
L 298.694431 166.750422 
L 299.148251 166.34098 
L 299.602983 157.580217 
L 300.055767 175.936875 
L 300.513169 169.866732 
L 300.967446 171.069062 
L 301.425296 107.043353 
L 301.880118 169.590521 
L 303.245012 171.696224 
L 303.699723 177.707875 
L 304.15628 170.406155 
L 304.613923 167.47507 
L 305.067919 169.652263 
L 305.524279 170.477645 
L 305.978037 168.076235 
L 306.434321 166.727675 
L 306.889476 170.461398 
L 307.343264 169.652263 
L 307.79804 174.458334 
L 308.25439 170.87734 
L 308.710317 169.018601 
L 309.167727 169.392299 
L 309.622805 174.770289 
L 310.075108 150.941404 
L 310.531013 164.465995 
L 310.985248 171.095059 
L 311.441654 33.528984 
L 311.896809 169.434543 
L 312.354095 63.454008 
L 312.807285 165.535093 
L 313.263885 170.084451 
L 313.718893 170.558885 
L 314.173718 177.17495 
L 314.627568 168.128228 
L 315.086523 146.333555 
L 315.996046 171.663729 
L 316.450872 75.802264 
L 316.906811 172.515108 
L 317.36146 167.917007 
L 317.818006 169.145334 
L 318.273188 170.968326 
L 318.72597 176.950732 
L 319.182214 173.320994 
L 319.639644 166.708179 
L 320.093002 119.32012 
L 320.548147 156.338891 
L 321.005374 161.677889 
L 321.458324 170.44515 
L 321.916077 69.31618 
L 322.36983 156.667096 
L 322.825686 169.532029 
L 323.282696 169.88298 
L 323.734996 173.577708 
L 324.191572 151.822031 
L 325.103025 169.398797 
L 325.558573 72.383748 
L 326.014119 165.301126 
L 326.469413 168.687149 
L 326.924845 172.960295 
L 327.379677 168.644905 
L 327.834404 169.74325 
L 328.292346 91.039363 
L 328.744791 142.505595 
L 329.201985 166.210998 
L 329.657418 163.234418 
L 330.113011 171.71897 
L 330.567738 155.373778 
L 331.022294 172.281141 
L 331.478903 168.758639 
L 331.934196 172.316886 
L 332.387435 154.837604 
L 332.844296 147.051704 
L 333.300076 152.777395 
L 333.756289 60.46118 
L 334.208951 167.592054 
L 334.664068 165.821053 
L 335.124523 167.039632 
L 335.576078 135.710805 
L 336.031418 153.505293 
L 336.487587 159.484448 
L 336.940641 157.115532 
L 337.396236 163.393646 
L 337.853464 167.215106 
L 338.308949 174.676053 
L 338.764816 173.314495 
L 339.219234 107.355309 
L 339.676306 169.327308 
L 340.130916 112.470087 
L 340.585873 172.823814 
L 341.040998 172.583348 
L 341.49748 162.854223 
L 341.951641 172.550854 
L 342.405502 175.862136 
L 342.861252 113.65292 
L 343.318994 157.619212 
L 343.774076 108.580387 
L 344.228645 168.482427 
L 344.682051 98.276091 
L 345.13755 169.278565 
L 345.592531 170.178689 
L 346.048079 134.602712 
L 346.505679 174.27636 
L 346.960172 119.534589 
L 347.413673 168.446682 
L 347.869575 163.273413 
L 348.326235 172.417621 
L 348.780106 153.466298 
L 349.238325 172.128412 
L 349.693934 111.186518 
L 350.148297 167.679791 
L 350.603776 177.015723 
L 351.058795 144.351335 
L 351.514485 167.75453 
L 351.969763 165.869796 
L 352.425135 171.348523 
L 352.880959 170.558884 
L 353.336221 168.592912 
L 353.791008 176.245581 
L 354.246701 172.21615 
L 354.70177 157.245515 
L 355.157207 170.188437 
L 355.613038 175.26097 
L 356.52093 149.615592 
L 356.976438 168.917866 
L 357.432153 164.394505 
L 357.887871 169.515781 
L 358.342745 111.38799 
L 358.800078 155.29904 
L 359.25535 166.62694 
L 359.711385 172.232397 
L 360.164602 158.642817 
L 360.620974 170.006463 
L 361.07621 167.933255 
L 361.532445 173.811676 
L 361.985982 171.839203 
L 362.89623 176.765508 
L 363.354712 152.640915 
L 363.807951 172.079669 
L 364.265948 165.278379 
L 364.720262 174.104133 
L 365.177413 135.028402 
L 365.632088 172.131662 
L 366.086614 121.887257 
L 366.543064 173.730436 
L 366.995953 114.650529 
L 367.452483 169.951221 
L 367.907873 159.962131 
L 368.361872 166.916148 
L 368.817312 169.889478 
L 369.271762 173.925409 
L 369.729299 140.835332 
L 370.183716 175.858886 
L 370.638948 62.917834 
L 371.093817 154.467157 
L 371.550852 150.671692 
L 372.003946 170.152691 
L 372.461386 169.889479 
L 372.916884 167.75778 
L 373.370223 153.063355 
L 373.827069 158.061149 
L 374.280965 136.31197 
L 374.738458 173.977402 
L 375.191523 170.02271 
L 375.646726 167.221606 
L 376.103981 49.997658 
L 376.559288 174.286108 
L 377.014745 174.988008 
L 377.469656 172.544354 
L 377.924018 173.327493 
L 378.380952 133.562858 
L 378.836751 120.909145 
L 379.291031 171.666978 
L 379.745388 139.883216 
L 380.201589 168.96011 
L 380.658872 175.985618 
L 381.111236 134.628707 
L 381.568984 178.16606 
L 382.023883 171.972435 
L 382.479521 168.583163 
L 382.935473 169.051097 
L 383.389775 172.840062 
L 383.845451 167.319091 
L 384.301146 131.174445 
L 384.755639 177.337427 
L 385.209148 173.766181 
L 385.665931 180.908672 
L 386.575883 169.830987 
L 387.032721 175.108242 
L 387.941334 168.615659 
L 388.397716 171.452508 
L 388.85425 114.319076 
L 389.31129 100.940714 
L 389.765525 166.370226 
L 390.222492 171.173047 
L 390.674557 141.858937 
L 391.130644 170.428902 
L 391.584045 175.712656 
L 392.041329 169.934972 
L 392.496571 171.93019 
L 392.953755 161.268446 
L 393.405623 171.556493 
L 393.863634 176.963729 
L 394.319446 84.962721 
L 394.773285 169.171331 
L 395.228424 173.243006 
L 395.68604 164.608974 
L 396.139449 168.794384 
L 396.594369 169.486536 
L 397.04873 179.196165 
L 397.505863 175.647665 
L 397.961737 168.846376 
L 398.417356 107.332562 
L 398.873032 170.844844 
L 399.329611 173.184513 
L 399.782113 162.100328 
L 400.238018 177.733872 
L 400.691207 171.527248 
L 401.146439 173.616702 
L 401.606437 146.51228 
L 402.061089 58.914399 
L 402.514167 169.239571 
L 402.97031 174.169124 
L 403.426444 169.45404 
L 403.879662 176.310572 
L 404.334679 171.839203 
L 404.79288 172.063422 
L 405.247667 173.285249 
L 405.702677 177.1717 
L 406.15849 160.605539 
L 406.611785 171.764464 
L 407.067558 169.418295 
L 407.524436 172.703581 
L 407.979766 167.699288 
L 408.434109 177.730622 
L 408.888342 179.124675 
L 409.345621 172.92455 
L 409.80201 171.608486 
L 410.256725 173.847419 
L 411.164906 176.638776 
L 411.621125 170.058456 
L 412.078117 168.674151 
L 412.534328 170.298921 
L 412.986375 175.455943 
L 413.442891 167.702537 
L 413.899566 170.064954 
L 414.807523 178.741229 
L 415.26328 165.645578 
L 415.721435 176.61278 
L 416.175514 173.600455 
L 416.632866 88.501471 
L 417.085982 178.773724 
L 417.543394 63.928442 
L 417.996071 173.009039 
L 418.450876 172.99929 
L 418.905808 175.836139 
L 419.362257 174.250362 
L 419.816275 169.834236 
L 420.728641 178.556005 
L 421.184601 172.908303 
L 421.640768 170.311919 
L 422.09415 165.84055 
L 422.549637 165.723567 
L 423.006014 168.085983 
L 423.460694 171.449258 
L 423.915785 172.336383 
L 424.371455 169.584022 
L 424.827404 174.913269 
L 425.283267 168.157474 
L 426.19495 176.827248 
L 426.647969 173.993649 
L 427.10318 175.150487 
L 427.557579 169.957719 
L 428.015328 174.172374 
L 428.468365 171.972435 
L 428.926088 175.602172 
L 429.381811 174.520075 
L 429.834731 161.417925 
L 430.293895 176.372314 
L 430.74736 169.908976 
L 431.203441 171.1568 
L 431.657813 171.559743 
L 432.113963 170.282673 
L 432.569539 166.97464 
L 433.023627 171.800209 
L 433.479604 168.258208 
L 433.933494 171.761215 
L 434.391872 176.960481 
L 434.846805 160.1766 
L 435.755559 168.173721 
L 436.210365 169.502784 
L 436.6678 172.069921 
L 437.120643 165.307625 
L 437.576828 171.472005 
L 438.031313 167.855266 
L 438.488085 171.806708 
L 438.943171 170.935832 
L 439.398578 175.361706 
L 439.853178 172.209651 
L 440.308019 177.707875 
L 440.764204 162.753486 
L 441.219902 168.74889 
L 441.675204 167.767529 
L 442.12994 169.018601 
L 442.586122 167.33209 
L 443.043153 163.699103 
L 443.496554 169.112838 
L 443.953523 168.449933 
L 444.410198 168.232213 
L 444.86494 174.325102 
L 445.318962 163.169427 
L 445.773805 177.447912 
L 446.228113 163.754345 
L 446.687048 101.291665 
L 447.139953 165.791808 
L 447.596406 158.204129 
L 448.053285 167.839018 
L 448.962228 166.084266 
L 449.418762 54.150572 
L 449.870003 170.438651 
L 450.329025 169.486536 
L 450.783056 166.272739 
L 451.237388 170.916333 
L 451.694118 168.209466 
L 452.148323 174.887273 
L 452.602808 174.403092 
L 453.061676 146.856731 
L 453.514485 167.237853 
L 453.971173 167.536811 
L 454.425288 176.385312 
L 454.880906 170.30867 
L 455.334729 168.771637 
L 455.790272 177.278935 
L 456.248365 173.675194 
L 456.704444 174.669554 
L 457.159742 170.900086 
L 457.614952 79.737458 
L 458.067245 174.05864 
L 458.523162 170.428902 
L 458.977868 176.014864 
L 459.434287 167.094873 
L 459.890755 169.275315 
L 460.343829 169.047848 
L 460.79924 171.777463 
L 461.256892 169.678259 
L 461.709753 175.881632 
L 462.167554 167.900759 
L 462.622009 172.00818 
L 463.078833 168.267958 
L 463.534095 168.082734 
L 463.986959 174.962013 
L 464.442342 166.857657 
L 464.900334 167.263849 
L 465.355386 168.498675 
L 465.810403 169.057596 
L 466.265951 172.268142 
L 466.720826 172.671086 
L 467.176358 164.719459 
L 467.632364 127.788423 
L 468.086619 165.804806 
L 468.54253 168.732642 
L 468.999592 169.512532 
L 469.452063 167.384083 
L 469.911302 60.802383 
L 470.363619 164.326264 
L 470.819705 170.129945 
L 471.273424 165.970532 
L 471.729471 149.066419 
L 472.184876 168.401189 
L 472.641542 163.92657 
L 473.094553 168.765138 
L 473.551016 166.636688 
L 473.551016 166.636688 
" clip-path="url(#p9a1ae0339a)" style="fill: none; stroke: #1f77b4; stroke-width: 1.5; stroke-linecap: square"/>
   </g>
   <g id="patch_3">
    <path d="M 60.922344 188.277656 
L 60.922344 26.16 
" style="fill: none; stroke: #000000; stroke-width: 0.8; stroke-linejoin: miter; stroke-linecap: square"/>
   </g>
   <g id="patch_4">
    <path d="M 493.2 188.277656 
L 493.2 26.16 
" style="fill: none; stroke: #000000; stroke-width: 0.8; stroke-linejoin: miter; stroke-linecap: square"/>
   </g>
   <g id="patch_5">
    <path d="M 60.922344 188.277656 
L 493.2 188.277656 
" style="fill: none; stroke: #000000; stroke-width: 0.8; stroke-linejoin: miter; stroke-linecap: square"/>
   </g>
   <g id="patch_6">
    <path d="M 60.922344 26.16 
L 493.2 26.16 
" style="fill: none; stroke: #000000; stroke-width: 0.8; stroke-linejoin: miter; stroke-linecap: square"/>
   </g>
   <g id="text_15">
    <!-- Solver Time -->
    <g transform="translate(241.614297 20.16) scale(0.12 -0.12)">
     <defs>
      <path id="DejaVuSans-55" d="M 2631 2963 
Q 2534 3019 2420 3045 
Q 2306 3072 2169 3072 
Q 1681 3072 1420 2755 
Q 1159 2438 1159 1844 
L 1159 0 
L 581 0 
L 581 3500 
L 1159 3500 
L 1159 2956 
Q 1341 3275 1631 3429 
Q 1922 3584 2338 3584 
Q 2397 3584 2469 3576 
Q 2541 3569 2628 3553 
L 2631 2963 
z
" transform="scale(0.015625)"/>
      <path id="DejaVuSans-37" d="M -19 4666 
L 3928 4666 
L 3928 4134 
L 2272 4134 
L 2272 0 
L 1638 0 
L 1638 4134 
L -19 4134 
L -19 4666 
z
" transform="scale(0.015625)"/>
     </defs>
     <use xlink:href="#DejaVuSans-36"/>
     <use xlink:href="#DejaVuSans-52" transform="translate(63.484375 0)"/>
     <use xlink:href="#DejaVuSans-4f" transform="translate(124.671875 0)"/>
     <use xlink:href="#DejaVuSans-59" transform="translate(152.453125 0)"/>
     <use xlink:href="#DejaVuSans-48" transform="translate(211.640625 0)"/>
     <use xlink:href="#DejaVuSans-55" transform="translate(273.171875 0)"/>
     <use xlink:href="#DejaVuSans-3" transform="translate(314.28125 0)"/>
     <use xlink:href="#DejaVuSans-37" transform="translate(346.0625 0)"/>
     <use xlink:href="#DejaVuSans-4c" transform="translate(404.0625 0)"/>
     <use xlink:href="#DejaVuSans-50" transform="translate(431.84375 0)"/>
     <use xlink:href="#DejaVuSans-48" transform="translate(529.25 0)"/>
    </g>
   </g>
   <g id="legend_1">
    <g id="patch_7">
     <path d="M 431.6 49.160781 
L 486.2 49.160781 
Q 488.2 49.160781 488.2 47.160781 
L 488.2 33.16 
Q 488.2 31.16 486.2 31.16 
L 431.6 31.16 
Q 429.6 31.16 429.6 33.16 
L 429.6 47.160781 
Q 429.6 49.160781 431.6 49.160781 
z
" style="fill: #ffffff; opacity: 0.8; stroke: #cccccc; stroke-linejoin: miter"/>
    </g>
    <g id="line2d_26">
     <path d="M 433.6 39.258438 
L 443.6 39.258438 
L 453.6 39.258438 
" style="fill: none; stroke: #1f77b4; stroke-width: 1.5; stroke-linecap: square"/>
    </g>
    <g id="text_16">
     <!-- $t_{solve}$ -->
     <g transform="translate(461.6 42.758438) scale(0.1 -0.1)">
      <defs>
       <path id="DejaVuSans-Oblique-57" d="M 2706 3500 
L 2619 3053 
L 1472 3053 
L 1100 1153 
Q 1081 1047 1072 975 
Q 1063 903 1063 863 
Q 1063 663 1183 572 
Q 1303 481 1569 481 
L 2150 481 
L 2053 0 
L 1503 0 
Q 991 0 739 200 
Q 488 400 488 806 
Q 488 878 497 964 
Q 506 1050 525 1153 
L 897 3053 
L 409 3053 
L 500 3500 
L 978 3500 
L 1172 4494 
L 1747 4494 
L 1556 3500 
L 2706 3500 
z
" transform="scale(0.015625)"/>
       <path id="DejaVuSans-Oblique-56" d="M 3200 3397 
L 3091 2853 
Q 2863 2978 2609 3040 
Q 2356 3103 2088 3103 
Q 1634 3103 1373 2948 
Q 1113 2794 1113 2528 
Q 1113 2219 1719 2053 
Q 1766 2041 1788 2034 
L 1972 1978 
Q 2547 1819 2739 1644 
Q 2931 1469 2931 1166 
Q 2931 609 2489 259 
Q 2047 -91 1331 -91 
Q 1053 -91 747 -37 
Q 441 16 72 128 
L 184 722 
Q 500 559 806 475 
Q 1113 391 1394 391 
Q 1816 391 2080 572 
Q 2344 753 2344 1031 
Q 2344 1331 1650 1516 
L 1591 1531 
L 1394 1581 
Q 956 1697 753 1886 
Q 550 2075 550 2369 
Q 550 2928 970 3256 
Q 1391 3584 2113 3584 
Q 2397 3584 2667 3537 
Q 2938 3491 3200 3397 
z
" transform="scale(0.015625)"/>
       <path id="DejaVuSans-Oblique-52" d="M 1625 -91 
Q 1009 -91 651 289 
Q 294 669 294 1325 
Q 294 1706 417 2101 
Q 541 2497 738 2766 
Q 1047 3184 1428 3384 
Q 1809 3584 2291 3584 
Q 2888 3584 3255 3212 
Q 3622 2841 3622 2241 
Q 3622 1825 3500 1412 
Q 3378 1000 3181 728 
Q 2875 309 2494 109 
Q 2113 -91 1625 -91 
z
M 891 1344 
Q 891 869 1089 633 
Q 1288 397 1691 397 
Q 2269 397 2648 901 
Q 3028 1406 3028 2181 
Q 3028 2634 2825 2865 
Q 2622 3097 2228 3097 
Q 1903 3097 1650 2945 
Q 1397 2794 1197 2484 
Q 1050 2253 970 1956 
Q 891 1659 891 1344 
z
" transform="scale(0.015625)"/>
       <path id="DejaVuSans-Oblique-4f" d="M 1172 4863 
L 1747 4863 
L 800 0 
L 225 0 
L 1172 4863 
z
" transform="scale(0.015625)"/>
       <path id="DejaVuSans-Oblique-59" d="M 459 3500 
L 1069 3500 
L 1581 525 
L 3256 3500 
L 3866 3500 
L 1875 0 
L 1100 0 
L 459 3500 
z
" transform="scale(0.015625)"/>
       <path id="DejaVuSans-Oblique-48" d="M 3078 2063 
Q 3088 2113 3092 2166 
Q 3097 2219 3097 2272 
Q 3097 2653 2873 2875 
Q 2650 3097 2266 3097 
Q 1838 3097 1509 2826 
Q 1181 2556 1013 2059 
L 3078 2063 
z
M 3578 1613 
L 903 1613 
Q 884 1494 878 1425 
Q 872 1356 872 1306 
Q 872 872 1139 634 
Q 1406 397 1894 397 
Q 2269 397 2603 481 
Q 2938 566 3225 728 
L 3116 159 
Q 2806 34 2476 -28 
Q 2147 -91 1806 -91 
Q 1078 -91 686 257 
Q 294 606 294 1247 
Q 294 1794 489 2264 
Q 684 2734 1063 3103 
Q 1306 3334 1642 3459 
Q 1978 3584 2356 3584 
Q 2950 3584 3301 3228 
Q 3653 2872 3653 2272 
Q 3653 2128 3634 1964 
Q 3616 1800 3578 1613 
z
" transform="scale(0.015625)"/>
      </defs>
      <use xlink:href="#DejaVuSans-Oblique-57" transform="translate(0 0.78125)"/>
      <use xlink:href="#DejaVuSans-Oblique-56" transform="translate(39.208984 -14.218701) scale(0.7)"/>
      <use xlink:href="#DejaVuSans-Oblique-52" transform="translate(75.678711 -14.218701) scale(0.7)"/>
      <use xlink:href="#DejaVuSans-Oblique-4f" transform="translate(118.505859 -14.218701) scale(0.7)"/>
      <use xlink:href="#DejaVuSans-Oblique-59" transform="translate(137.954102 -14.218701) scale(0.7)"/>
      <use xlink:href="#DejaVuSans-Oblique-48" transform="translate(179.379883 -14.218701) scale(0.7)"/>
     </g>
    </g>
   </g>
  </g>
 </g>
 <defs>
  <clipPath id="p9a1ae0339a">
   <rect x="60.922344" y="26.16" width="432.277656" height="162.117656"/>
  </clipPath>
 </defs>
</svg>
