<?xml version="1.0" encoding="utf-8" standalone="no"?>
<!DOCTYPE svg PUBLIC "-//W3C//DTD SVG 1.1//EN"
  "http://www.w3.org/Graphics/SVG/1.1/DTD/svg11.dtd">
<svg xmlns:xlink="http://www.w3.org/1999/xlink" width="504pt" height="403.2pt" viewBox="0 0 504 403.2" xmlns="http://www.w3.org/2000/svg" version="1.1">
 <metadata>
  <rdf:RDF xmlns:dc="http://purl.org/dc/elements/1.1/" xmlns:cc="http://creativecommons.org/ns#" xmlns:rdf="http://www.w3.org/1999/02/22-rdf-syntax-ns#">
   <cc:Work>
    <dc:type rdf:resource="http://purl.org/dc/dcmitype/StillImage"/>
    <dc:date>2026-07-10T12:48:37.677057</dc:date>
    <dc:format>image/svg+xml</dc:format>
    <dc:creator>
     <cc:Agent>
      <dc:title>Matplotlib v3.11.0, https://matplotlib.org/</dc:title>
     </cc:Agent>
    </dc:creator>
   </cc:Work>
  </rdf:RDF>
 </metadata>
 <defs>
  <style type="text/css">*{stroke-linejoin: round; stroke-linecap: butt}</style>
 </defs>
 <g id="figure_1">
  <g id="patch_1">
   <path d="M 0 403.2 
L 504 403.2 
L 504 0 
L 0 0 
z
" style="fill: #ffffff"/>
  </g>
  <g id="axes_1">
   <g id="patch_2">
    <path d="M 48.682344 183.560234 
L 493.2 183.560234 
L 493.2 33.842813 
L 48.682344 33.842813 
z
" style="fill: #ffffff"/>
   </g>
   <g id="matplotlib.axis_1">
    <g id="xtick_1">
     <g id="line2d_1">
      <path d="M 68.499122 183.560234 
L 68.499122 33.842813 
" clip-path="url(#pdc7fcbd1f7)" style="fill: none; stroke: #b0b0b0; stroke-width: 0.8; stroke-linecap: square"/>
     </g>
     <g id="line2d_2">
      <defs>
       <path id="mf494082f68" d="M 0 0 
L 0 3.5 
" style="stroke: #000000; stroke-width: 0.8"/>
      </defs>
      <g>
       <use xlink:href="#mf494082f68" x="68.499122" y="183.560234" style="stroke: #000000; stroke-width: 0.8"/>
      </g>
     </g>
     <g id="text_1">
      <!-- 0 -->
      <g transform="translate(65.317872 198.157891) scale(0.1 -0.1)">
       <defs>
        <path id="DejaVuSans-13" d="M 2034 4250 
Q 1547 4250 1301 3770 
Q 1056 3291 1056 2328 
Q 1056 1369 1301 889 
Q 1547 409 2034 409 
Q 2525 409 2770 889 
Q 3016 1369 3016 2328 
Q 3016 3291 2770 3770 
Q 2525 4250 2034 4250 
z
M 2034 4750 
Q 2819 4750 3233 4129 
Q 3647 3509 3647 2328 
Q 3647 1150 3233 529 
Q 2819 -91 2034 -91 
Q 1250 -91 836 529 
Q 422 1150 422 2328 
Q 422 3509 836 4129 
Q 1250 4750 2034 4750 
z
" transform="scale(0.015625)"/>
       </defs>
       <use xlink:href="#DejaVuSans-13"/>
      </g>
     </g>
    </g>
    <g id="xtick_2">
     <g id="line2d_3">
      <path d="M 133.119508 183.560234 
L 133.119508 33.842813 
" clip-path="url(#pdc7fcbd1f7)" style="fill: none; stroke: #b0b0b0; stroke-width: 0.8; stroke-linecap: square"/>
     </g>
     <g id="line2d_4">
      <g>
       <use xlink:href="#mf494082f68" x="133.119508" y="183.560234" style="stroke: #000000; stroke-width: 0.8"/>
      </g>
     </g>
     <g id="text_2">
      <!-- 10 -->
      <g transform="translate(126.757008 198.157891) scale(0.1 -0.1)">
       <defs>
        <path id="DejaVuSans-14" d="M 794 531 
L 1825 531 
L 1825 4091 
L 703 3866 
L 703 4441 
L 1819 4666 
L 2450 4666 
L 2450 531 
L 3481 531 
L 3481 0 
L 794 0 
L 794 531 
z
" transform="scale(0.015625)"/>
       </defs>
       <use xlink:href="#DejaVuSans-14"/>
       <use xlink:href="#DejaVuSans-13" transform="translate(63.625 0)"/>
      </g>
     </g>
    </g>
    <g id="xtick_3">
     <g id="line2d_5">
      <path d="M 197.739893 183.560234 
L 197.739893 33.842813 
" clip-path="url(#pdc7fcbd1f7)" style="fill: none; stroke: #b0b0b0; stroke-width: 0.8; stroke-linecap: square"/>
     </g>
     <g id="line2d_6">
      <g>
       <use xlink:href="#mf494082f68" x="197.739893" y="183.560234" style="stroke: #000000; stroke-width: 0.8"/>
      </g>
     </g>
     <g id="text_3">
      <!-- 20 -->
      <g transform="translate(191.377393 198.157891) scale(0.1 -0.1)">
       <defs>
        <path id="DejaVuSans-15" d="M 1228 531 
L 3431 531 
L 3431 0 
L 469 0 
L 469 531 
Q 828 903 1448 1529 
Q 2069 2156 2228 2338 
Q 2531 2678 2651 2914 
Q 2772 3150 2772 3378 
Q 2772 3750 2511 3984 
Q 2250 4219 1831 4219 
Q 1534 4219 1204 4116 
Q 875 4013 500 3803 
L 500 4441 
Q 881 4594 1212 4672 
Q 1544 4750 1819 4750 
Q 2544 4750 2975 4387 
Q 3406 4025 3406 3419 
Q 3406 3131 3298 2873 
Q 3191 2616 2906 2266 
Q 2828 2175 2409 1742 
Q 1991 1309 1228 531 
z
" transform="scale(0.015625)"/>
       </defs>
       <use xlink:href="#DejaVuSans-15"/>
       <use xlink:href="#DejaVuSans-13" transform="translate(63.625 0)"/>
      </g>
     </g>
    </g>
    <g id="xtick_4">
     <g id="line2d_7">
      <path d="M 262.360279 183.560234 
L 262.360279 33.842813 
" clip-path="url(#pdc7fcbd1f7)" style="fill: none; stroke: #b0b0b0; stroke-width: 0.8; stroke-linecap: square"/>
     </g>
     <g id="line2d_8">
      <g>
       <use xlink:href="#mf494082f68" x="262.360279" y="183.560234" style="stroke: #000000; stroke-width: 0.8"/>
      </g>
     </g>
     <g id="text_4">
      <!-- 30 -->
      <g transform="translate(255.997779 198.157891) scale(0.1 -0.1)">
       <defs>
        <path id="DejaVuSans-16" d="M 2597 2516 
Q 3050 2419 3304 2112 
Q 3559 1806 3559 1356 
Q 3559 666 3084 287 
Q 2609 -91 1734 -91 
Q 1441 -91 1130 -33 
Q 819 25 488 141 
L 488 750 
Q 750 597 1062 519 
Q 1375 441 1716 441 
Q 2309 441 2620 675 
Q 2931 909 2931 1356 
Q 2931 1769 2642 2001 
Q 2353 2234 1838 2234 
L 1294 2234 
L 1294 2753 
L 1863 2753 
Q 2328 2753 2575 2939 
Q 2822 3125 2822 3475 
Q 2822 3834 2567 4026 
Q 2313 4219 1838 4219 
Q 1578 4219 1281 4162 
Q 984 4106 628 3988 
L 628 4550 
Q 988 4650 1302 4700 
Q 1616 4750 1894 4750 
Q 2613 4750 3031 4423 
Q 3450 4097 3450 3541 
Q 3450 3153 3228 2886 
Q 3006 2619 2597 2516 
z
" transform="scale(0.015625)"/>
       </defs>
       <use xlink:href="#DejaVuSans-16"/>
       <use xlink:href="#DejaVuSans-13" transform="translate(63.625 0)"/>
      </g>
     </g>
    </g>
    <g id="xtick_5">
     <g id="line2d_9">
      <path d="M 326.980665 183.560234 
L 326.980665 33.842813 
" clip-path="url(#pdc7fcbd1f7)" style="fill: none; stroke: #b0b0b0; stroke-width: 0.8; stroke-linecap: square"/>
     </g>
     <g id="line2d_10">
      <g>
       <use xlink:href="#mf494082f68" x="326.980665" y="183.560234" style="stroke: #000000; stroke-width: 0.8"/>
      </g>
     </g>
     <g id="text_5">
      <!-- 40 -->
      <g transform="translate(320.618165 198.157891) scale(0.1 -0.1)">
       <defs>
        <path id="DejaVuSans-17" d="M 2419 4116 
L 825 1625 
L 2419 1625 
L 2419 4116 
z
M 2253 4666 
L 3047 4666 
L 3047 1625 
L 3713 1625 
L 3713 1100 
L 3047 1100 
L 3047 0 
L 2419 0 
L 2419 1100 
L 313 1100 
L 313 1709 
L 2253 4666 
z
" transform="scale(0.015625)"/>
       </defs>
       <use xlink:href="#DejaVuSans-17"/>
       <use xlink:href="#DejaVuSans-13" transform="translate(63.625 0)"/>
      </g>
     </g>
    </g>
    <g id="xtick_6">
     <g id="line2d_11">
      <path d="M 391.60105 183.560234 
L 391.60105 33.842813 
" clip-path="url(#pdc7fcbd1f7)" style="fill: none; stroke: #b0b0b0; stroke-width: 0.8; stroke-linecap: square"/>
     </g>
     <g id="line2d_12">
      <g>
       <use xlink:href="#mf494082f68" x="391.60105" y="183.560234" style="stroke: #000000; stroke-width: 0.8"/>
      </g>
     </g>
     <g id="text_6">
      <!-- 50 -->
      <g transform="translate(385.23855 198.157891) scale(0.1 -0.1)">
       <defs>
        <path id="DejaVuSans-18" d="M 691 4666 
L 3169 4666 
L 3169 4134 
L 1269 4134 
L 1269 2991 
Q 1406 3038 1543 3061 
Q 1681 3084 1819 3084 
Q 2600 3084 3056 2656 
Q 3513 2228 3513 1497 
Q 3513 744 3044 326 
Q 2575 -91 1722 -91 
Q 1428 -91 1123 -41 
Q 819 9 494 109 
L 494 744 
Q 775 591 1075 516 
Q 1375 441 1709 441 
Q 2250 441 2565 725 
Q 2881 1009 2881 1497 
Q 2881 1984 2565 2268 
Q 2250 2553 1709 2553 
Q 1456 2553 1204 2497 
Q 953 2441 691 2322 
L 691 4666 
z
" transform="scale(0.015625)"/>
       </defs>
       <use xlink:href="#DejaVuSans-18"/>
       <use xlink:href="#DejaVuSans-13" transform="translate(63.625 0)"/>
      </g>
     </g>
    </g>
    <g id="xtick_7">
     <g id="line2d_13">
      <path d="M 456.221436 183.560234 
L 456.221436 33.842813 
" clip-path="url(#pdc7fcbd1f7)" style="fill: none; stroke: #b0b0b0; stroke-width: 0.8; stroke-linecap: square"/>
     </g>
     <g id="line2d_14">
      <g>
       <use xlink:href="#mf494082f68" x="456.221436" y="183.560234" style="stroke: #000000; stroke-width: 0.8"/>
      </g>
     </g>
     <g id="text_7">
      <!-- 60 -->
      <g transform="translate(449.858936 198.157891) scale(0.1 -0.1)">
       <defs>
        <path id="DejaVuSans-19" d="M 2113 2584 
Q 1688 2584 1439 2293 
Q 1191 2003 1191 1497 
Q 1191 994 1439 701 
Q 1688 409 2113 409 
Q 2538 409 2786 701 
Q 3034 994 3034 1497 
Q 3034 2003 2786 2293 
Q 2538 2584 2113 2584 
z
M 3366 4563 
L 3366 3988 
Q 3128 4100 2886 4159 
Q 2644 4219 2406 4219 
Q 1781 4219 1451 3797 
Q 1122 3375 1075 2522 
Q 1259 2794 1537 2939 
Q 1816 3084 2150 3084 
Q 2853 3084 3261 2657 
Q 3669 2231 3669 1497 
Q 3669 778 3244 343 
Q 2819 -91 2113 -91 
Q 1303 -91 875 529 
Q 447 1150 447 2328 
Q 447 3434 972 4092 
Q 1497 4750 2381 4750 
Q 2619 4750 2861 4703 
Q 3103 4656 3366 4563 
z
" transform="scale(0.015625)"/>
       </defs>
       <use xlink:href="#DejaVuSans-19"/>
       <use xlink:href="#DejaVuSans-13" transform="translate(63.625 0)"/>
      </g>
     </g>
    </g>
   </g>
   <g id="matplotlib.axis_2">
    <g id="ytick_1">
     <g id="line2d_15">
      <path d="M 48.682344 176.693645 
L 493.2 176.693645 
" clip-path="url(#pdc7fcbd1f7)" style="fill: none; stroke: #b0b0b0; stroke-width: 0.8; stroke-linecap: square"/>
     </g>
     <g id="line2d_16">
      <defs>
       <path id="m68b5a4bb15" d="M 0 0 
L -3.5 0 
" style="stroke: #000000; stroke-width: 0.8"/>
      </defs>
      <g>
       <use xlink:href="#m68b5a4bb15" x="48.682344" y="176.693645" style="stroke: #000000; stroke-width: 0.8"/>
      </g>
     </g>
     <g id="text_8">
      <!-- −2 -->
      <g transform="translate(26.940156 180.492473) scale(0.1 -0.1)">
       <defs>
        <path id="DejaVuSans-c9c" d="M 678 2272 
L 4684 2272 
L 4684 1741 
L 678 1741 
L 678 2272 
z
" transform="scale(0.015625)"/>
       </defs>
       <use xlink:href="#DejaVuSans-c9c"/>
       <use xlink:href="#DejaVuSans-15" transform="translate(83.796875 0)"/>
      </g>
     </g>
    </g>
    <g id="ytick_2">
     <g id="line2d_17">
      <path d="M 48.682344 142.693272 
L 493.2 142.693272 
" clip-path="url(#pdc7fcbd1f7)" style="fill: none; stroke: #b0b0b0; stroke-width: 0.8; stroke-linecap: square"/>
     </g>
     <g id="line2d_18">
      <g>
       <use xlink:href="#m68b5a4bb15" x="48.682344" y="142.693272" style="stroke: #000000; stroke-width: 0.8"/>
      </g>
     </g>
     <g id="text_9">
      <!-- −1 -->
      <g transform="translate(26.940156 146.4921) scale(0.1 -0.1)">
       <use xlink:href="#DejaVuSans-c9c"/>
       <use xlink:href="#DejaVuSans-14" transform="translate(83.796875 0)"/>
      </g>
     </g>
    </g>
    <g id="ytick_3">
     <g id="line2d_19">
      <path d="M 48.682344 108.692899 
L 493.2 108.692899 
" clip-path="url(#pdc7fcbd1f7)" style="fill: none; stroke: #b0b0b0; stroke-width: 0.8; stroke-linecap: square"/>
     </g>
     <g id="line2d_20">
      <g>
       <use xlink:href="#m68b5a4bb15" x="48.682344" y="108.692899" style="stroke: #000000; stroke-width: 0.8"/>
      </g>
     </g>
     <g id="text_10">
      <!-- 0 -->
      <g transform="translate(35.319844 112.491727) scale(0.1 -0.1)">
       <use xlink:href="#DejaVuSans-13"/>
      </g>
     </g>
    </g>
    <g id="ytick_4">
     <g id="line2d_21">
      <path d="M 48.682344 74.692526 
L 493.2 74.692526 
" clip-path="url(#pdc7fcbd1f7)" style="fill: none; stroke: #b0b0b0; stroke-width: 0.8; stroke-linecap: square"/>
     </g>
     <g id="line2d_22">
      <g>
       <use xlink:href="#m68b5a4bb15" x="48.682344" y="74.692526" style="stroke: #000000; stroke-width: 0.8"/>
      </g>
     </g>
     <g id="text_11">
      <!-- 1 -->
      <g transform="translate(35.319844 78.491354) scale(0.1 -0.1)">
       <use xlink:href="#DejaVuSans-14"/>
      </g>
     </g>
    </g>
    <g id="ytick_5">
     <g id="line2d_23">
      <path d="M 48.682344 40.692153 
L 493.2 40.692153 
" clip-path="url(#pdc7fcbd1f7)" style="fill: none; stroke: #b0b0b0; stroke-width: 0.8; stroke-linecap: square"/>
     </g>
     <g id="line2d_24">
      <g>
       <use xlink:href="#m68b5a4bb15" x="48.682344" y="40.692153" style="stroke: #000000; stroke-width: 0.8"/>
      </g>
     </g>
     <g id="text_12">
      <!-- 2 -->
      <g transform="translate(35.319844 44.490981) scale(0.1 -0.1)">
       <use xlink:href="#DejaVuSans-15"/>
      </g>
     </g>
    </g>
    <g id="text_13">
     <!-- $v_1$ [$m/s^2$] -->
     <g transform="translate(20.537813 131.301523) rotate(-90) scale(0.1 -0.1)">
      <defs>
       <path id="DejaVuSans-Oblique-59" d="M 459 3500 
L 1069 3500 
L 1581 525 
L 3256 3500 
L 3866 3500 
L 1875 0 
L 1100 0 
L 459 3500 
z
" transform="scale(0.015625)"/>
       <path id="DejaVuSans-3" transform="scale(0.015625)"/>
       <path id="DejaVuSans-3e" d="M 550 4863 
L 1875 4863 
L 1875 4416 
L 1125 4416 
L 1125 -397 
L 1875 -397 
L 1875 -844 
L 550 -844 
L 550 4863 
z
" transform="scale(0.015625)"/>
       <path id="DejaVuSans-Oblique-50" d="M 5747 2113 
L 5338 0 
L 4763 0 
L 5166 2094 
Q 5191 2228 5203 2325 
Q 5216 2422 5216 2491 
Q 5216 2772 5059 2928 
Q 4903 3084 4622 3084 
Q 4203 3084 3875 2770 
Q 3547 2456 3450 1953 
L 3066 0 
L 2491 0 
L 2900 2094 
Q 2925 2209 2937 2307 
Q 2950 2406 2950 2484 
Q 2950 2769 2794 2926 
Q 2638 3084 2363 3084 
Q 1938 3084 1609 2770 
Q 1281 2456 1184 1953 
L 800 0 
L 225 0 
L 909 3500 
L 1484 3500 
L 1375 2956 
Q 1609 3263 1923 3423 
Q 2238 3584 2597 3584 
Q 2978 3584 3223 3384 
Q 3469 3184 3519 2828 
Q 3781 3197 4126 3390 
Q 4472 3584 4856 3584 
Q 5306 3584 5551 3325 
Q 5797 3066 5797 2591 
Q 5797 2488 5784 2364 
Q 5772 2241 5747 2113 
z
" transform="scale(0.015625)"/>
       <path id="DejaVuSans-12" d="M 1625 4666 
L 2156 4666 
L 531 -594 
L 0 -594 
L 1625 4666 
z
" transform="scale(0.015625)"/>
       <path id="DejaVuSans-Oblique-56" d="M 3200 3397 
L 3091 2853 
Q 2863 2978 2609 3040 
Q 2356 3103 2088 3103 
Q 1634 3103 1373 2948 
Q 1113 2794 1113 2528 
Q 1113 2219 1719 2053 
Q 1766 2041 1788 2034 
L 1972 1978 
Q 2547 1819 2739 1644 
Q 2931 1469 2931 1166 
Q 2931 609 2489 259 
Q 2047 -91 1331 -91 
Q 1053 -91 747 -37 
Q 441 16 72 128 
L 184 722 
Q 500 559 806 475 
Q 1113 391 1394 391 
Q 1816 391 2080 572 
Q 2344 753 2344 1031 
Q 2344 1331 1650 1516 
L 1591 1531 
L 1394 1581 
Q 956 1697 753 1886 
Q 550 2075 550 2369 
Q 550 2928 970 3256 
Q 1391 3584 2113 3584 
Q 2397 3584 2667 3537 
Q 2938 3491 3200 3397 
z
" transform="scale(0.015625)"/>
       <path id="DejaVuSans-40" d="M 1947 4863 
L 1947 -844 
L 622 -844 
L 622 -397 
L 1369 -397 
L 1369 4416 
L 622 4416 
L 622 4863 
L 1947 4863 
z
" transform="scale(0.015625)"/>
      </defs>
      <use xlink:href="#DejaVuSans-Oblique-59" transform="translate(0 0.746875)"/>
      <use xlink:href="#DejaVuSans-14" transform="translate(59.179688 -14.253076) scale(0.7)"/>
      <use xlink:href="#DejaVuSans-3" transform="translate(106.450195 0.746875)"/>
      <use xlink:href="#DejaVuSans-3e" transform="translate(138.237305 0.746875)"/>
      <use xlink:href="#DejaVuSans-Oblique-50" transform="translate(177.250977 0.746875)"/>
      <use xlink:href="#DejaVuSans-12" transform="translate(274.663086 0.746875)"/>
      <use xlink:href="#DejaVuSans-Oblique-56" transform="translate(308.354492 0.746875)"/>
      <use xlink:href="#DejaVuSans-15" transform="translate(365.103997 42.046875) scale(0.7)"/>
      <use xlink:href="#DejaVuSans-40" transform="translate(412.374505 0.746875)"/>
     </g>
    </g>
   </g>
   <g id="line2d_25">
    <path d="M 68.887692 110.077606 
L 69.317749 111.657635 
L 70.180141 118.685141 
L 70.61044 118.892931 
L 86.55089 118.923907 
L 87.412012 119.014128 
L 88.273941 118.93293 
L 89.13531 118.995152 
L 91.289276 119.054869 
L 92.581888 118.994386 
L 93.012484 119.175109 
L 93.443561 119.182879 
L 93.87429 119.026579 
L 94.305081 119.027612 
L 94.736265 119.238688 
L 95.16702 119.247538 
L 95.597395 119.065877 
L 96.028453 119.067409 
L 96.458852 119.310666 
L 96.890138 119.280005 
L 97.320844 119.085159 
L 97.751481 119.058744 
L 98.182253 119.448151 
L 98.613321 119.436647 
L 99.043957 119.09099 
L 99.474908 119.076772 
L 100.336342 119.667669 
L 100.767032 118.960979 
L 101.198226 118.955977 
L 101.628675 119.849485 
L 102.059513 119.664394 
L 102.490214 118.883484 
L 102.921118 118.763891 
L 103.351798 120.220656 
L 103.786037 120.066165 
L 104.216899 118.702183 
L 104.647763 118.603303 
L 105.07842 120.056657 
L 105.509305 120.805503 
L 105.939991 118.202671 
L 106.3709 118.174473 
L 106.801647 120.80164 
L 107.232961 120.895884 
L 107.663274 117.753927 
L 108.094128 117.5608 
L 108.524903 121.772828 
L 108.956455 121.437603 
L 109.386408 117.190167 
L 109.817294 116.939163 
L 110.247978 121.62801 
L 110.679 122.763239 
L 111.115465 116.129122 
L 111.542055 115.950226 
L 111.972684 122.426728 
L 112.403541 123.146177 
L 112.834833 114.81719 
L 113.265143 114.438398 
L 113.695982 124.814166 
L 114.126876 123.998362 
L 114.557502 113.556974 
L 114.988398 113.06102 
L 115.419605 123.628216 
L 115.850443 126.600579 
L 116.280735 111.316199 
L 116.711621 110.904163 
L 117.142269 125.956392 
L 117.573594 126.182863 
L 118.004046 108.892069 
L 118.435009 108.113165 
L 118.865486 129.304553 
L 119.296475 128.455418 
L 119.727186 106.341807 
L 120.158173 105.55235 
L 120.588736 126.539113 
L 121.019672 131.780754 
L 121.45032 102.422523 
L 121.88126 101.681964 
L 122.312025 132.255967 
L 122.742828 130.486965 
L 123.173582 98.750995 
L 123.604412 97.498503 
L 124.035177 132.674768 
L 124.466088 134.875551 
L 124.897118 94.039779 
L 125.327632 92.905604 
L 125.758421 132.501989 
L 126.189879 136.727096 
L 126.620426 89.441966 
L 127.050956 87.474908 
L 127.481964 134.02541 
L 127.91845 134.813799 
L 128.343374 91.301065 
L 128.774063 86.481561 
L 129.204793 119.683206 
L 129.635727 132.326867 
L 130.066738 103.069509 
L 130.497584 84.169975 
L 131.358756 123.457577 
L 132.220807 92.289463 
L 132.651738 96.480117 
L 133.08217 102.66471 
L 133.512917 105.330656 
L 133.943648 101.119745 
L 134.37501 91.713297 
L 134.80579 93.23782 
L 135.236269 97.750657 
L 135.666551 93.026138 
L 136.099749 92.049582 
L 136.528755 92.564878 
L 136.959559 87.114997 
L 137.390601 87.594809 
L 137.821205 89.017271 
L 138.252277 83.6685 
L 138.683111 83.88489 
L 139.113988 85.176405 
L 139.544494 80.644479 
L 139.975667 81.624683 
L 140.405898 83.548951 
L 140.836784 80.638042 
L 141.267645 82.472215 
L 141.698442 84.972231 
L 142.129126 83.811713 
L 142.991448 88.490869 
L 143.421777 88.492263 
L 144.283435 92.418317 
L 144.714282 92.702837 
L 145.575869 95.078986 
L 146.006687 95.125943 
L 146.868277 96.336322 
L 147.299118 96.284021 
L 148.160829 97.088588 
L 148.591553 97.069919 
L 149.453201 97.622351 
L 149.884102 97.586485 
L 150.745665 97.908971 
L 151.176615 97.830205 
L 152.037961 98.003731 
L 152.46905 97.893646 
L 153.33043 98.002177 
L 153.761279 97.883417 
L 162.377318 98.793602 
L 163.238679 99.4414 
L 163.669774 99.908919 
L 164.963032 102.446864 
L 165.823728 105.078524 
L 166.254714 106.316627 
L 166.685518 108.1046 
L 167.977844 112.029712 
L 168.410157 113.926155 
L 168.839794 118.384643 
L 169.270277 118.966719 
L 170.132166 126.093039 
L 170.563583 126.533201 
L 170.99457 129.047145 
L 171.424382 129.309485 
L 172.716706 133.407301 
L 174.871315 149.307431 
L 175.732339 153.534164 
L 176.163322 153.26316 
L 176.593878 151.472527 
L 177.025298 148.23959 
L 177.886614 137.207659 
L 179.178587 117.501328 
L 179.609625 111.684115 
L 180.471796 104.359607 
L 180.90192 101.57024 
L 181.33282 99.93332 
L 182.195049 97.626293 
L 182.626941 97.039393 
L 183.056225 96.689983 
L 183.486742 96.653217 
L 183.919264 97.04916 
L 184.348513 97.841815 
L 185.640829 103.007124 
L 186.07171 108.764233 
L 186.933227 113.642686 
L 187.364823 122.626709 
L 187.795414 122.183992 
L 189.088656 107.678516 
L 189.518248 106.423604 
L 189.948826 108.167382 
L 191.241198 119.701905 
L 191.673178 121.008208 
L 192.533677 121.090159 
L 192.964457 120.565998 
L 193.395185 120.225956 
L 193.826011 120.907491 
L 194.687613 121.3183 
L 195.118528 122.46454 
L 195.550764 122.606981 
L 195.980038 122.511625 
L 196.411352 123.357891 
L 196.842804 123.03873 
L 197.272683 122.463161 
L 197.703318 122.576152 
L 198.565085 121.114814 
L 198.995805 120.846745 
L 199.857387 119.761684 
L 202.013693 118.468755 
L 202.873814 118.044291 
L 203.734699 117.626255 
L 205.027324 116.256473 
L 206.320315 113.21144 
L 207.611822 106.633689 
L 208.47475 98.377415 
L 208.90423 92.241594 
L 210.196725 63.486954 
L 210.627489 56.727207 
L 211.059479 52.54902 
L 211.920098 48.255853 
L 212.351551 49.511549 
L 213.212591 54.952629 
L 214.937105 78.021875 
L 215.366315 85.342741 
L 215.797155 88.105743 
L 216.658876 100.864174 
L 217.089624 101.564343 
L 217.951175 111.352446 
L 218.382193 110.595932 
L 219.243986 118.762753 
L 219.674471 117.686738 
L 220.106924 118.907203 
L 220.536006 119.286241 
L 221.397882 120.63165 
L 222.259284 122.015775 
L 222.691487 122.341806 
L 223.120987 122.287744 
L 223.551766 121.478036 
L 223.984352 120.294288 
L 224.413733 118.627841 
L 225.276121 113.659619 
L 226.136632 109.840945 
L 226.569074 110.111542 
L 226.998376 112.230458 
L 227.429228 116.12313 
L 228.291412 128.31831 
L 228.721574 122.517631 
L 229.153842 118.943064 
L 229.583116 117.220126 
L 230.013894 112.374839 
L 230.876176 99.330145 
L 231.306297 91.254136 
L 231.738879 86.81037 
L 232.598628 82.267374 
L 233.031043 83.402615 
L 234.323127 90.785573 
L 235.183503 95.552898 
L 235.615198 97.283113 
L 236.045138 98.50356 
L 236.475947 99.298053 
L 238.200867 101.260106 
L 238.629983 102.07301 
L 239.060931 103.546294 
L 239.493166 105.510205 
L 239.923105 111.34505 
L 240.353497 112.776035 
L 241.214791 121.716804 
L 241.645874 120.618972 
L 242.078136 122.641098 
L 242.507209 123.678118 
L 243.370739 114.165874 
L 243.800208 108.501747 
L 244.230453 100.354849 
L 245.091966 90.802163 
L 245.523271 87.203128 
L 245.955256 90.37847 
L 247.247508 120.973219 
L 247.677211 121.758214 
L 248.107734 120.00944 
L 249.400127 146.498859 
L 249.832362 141.022787 
L 251.55424 97.244933 
L 251.985435 91.316124 
L 252.417251 89.795871 
L 252.846481 89.930308 
L 253.277428 89.285316 
L 254.138846 91.761595 
L 254.569782 91.717867 
L 255.431323 93.813279 
L 255.862072 94.174182 
L 256.727511 96.243265 
L 257.154589 96.626742 
L 258.016135 97.791667 
L 258.447418 97.932734 
L 259.308535 98.677662 
L 259.739455 98.909045 
L 260.601207 99.815165 
L 261.893502 101.668998 
L 262.756166 103.437486 
L 263.185897 104.199781 
L 263.61659 105.4911 
L 264.478227 106.96706 
L 264.908981 108.200887 
L 265.770599 109.427996 
L 267.063848 115.594818 
L 267.494532 120.163944 
L 268.78631 129.774109 
L 269.218655 130.341775 
L 269.647913 129.195498 
L 270.078453 127.130075 
L 270.940459 116.682999 
L 271.803158 102.425488 
L 272.232704 95.984118 
L 272.663687 86.474444 
L 273.524998 73.495555 
L 273.955888 62.961558 
L 274.388334 57.369901 
L 274.817416 53.650625 
L 275.248387 48.836792 
L 275.681041 51.426386 
L 276.109878 57.55721 
L 276.540756 65.719703 
L 277.402219 89.930972 
L 279.126227 142.193447 
L 279.556836 152.353569 
L 279.987293 152.818608 
L 280.418194 147.643972 
L 282.142139 102.523403 
L 283.002751 88.748394 
L 283.435332 85.224844 
L 283.864425 82.878328 
L 284.295248 78.516431 
L 284.726669 78.039662 
L 285.157199 78.51491 
L 285.587523 77.070128 
L 286.449298 79.263556 
L 286.880011 78.427915 
L 287.312473 79.761939 
L 287.742331 81.451112 
L 288.172891 81.983636 
L 290.326523 94.520631 
L 290.757479 96.176218 
L 291.189991 97.372775 
L 291.619055 98.092204 
L 292.049772 98.58236 
L 292.911427 99.210683 
L 293.774737 100.690396 
L 294.204716 101.882212 
L 295.066962 106.738128 
L 295.497071 110.182852 
L 296.788568 129.449887 
L 297.651874 148.337883 
L 298.943193 168.810557 
L 299.373419 171.412285 
L 299.804231 176.381293 
L 300.236376 176.754897 
L 300.666159 175.582388 
L 301.096418 176.36896 
L 301.528231 170.539914 
L 302.3891 153.046537 
L 303.25089 130.855118 
L 303.682403 123.988111 
L 304.113746 120.171297 
L 304.543146 118.893131 
L 304.974269 118.876866 
L 305.407089 119.117835 
L 305.835837 119.21027 
L 306.266256 119.17514 
L 307.128049 118.556846 
L 307.990492 117.130905 
L 308.421312 116.012883 
L 309.283277 111.434831 
L 309.712882 108.275853 
L 311.005287 91.44854 
L 311.868663 75.451349 
L 312.297857 68.417435 
L 312.728473 57.486048 
L 313.160935 50.039096 
L 314.020844 40.64815 
L 314.452519 40.932477 
L 314.882565 43.820163 
L 315.313179 45.659205 
L 316.605505 66.297334 
L 317.467158 85.730959 
L 317.89801 90.978542 
L 318.759711 108.025736 
L 319.190724 111.214481 
L 319.622977 118.397281 
L 320.052215 121.038909 
L 320.914339 117.076279 
L 321.775449 113.645348 
L 322.207689 113.118924 
L 322.637582 113.484441 
L 323.067749 114.688626 
L 323.499886 117.2209 
L 324.360194 124.65316 
L 325.222366 131.749012 
L 325.653202 132.823834 
L 326.084676 132.618713 
L 326.5143 130.517971 
L 327.806753 111.436043 
L 328.669504 91.979096 
L 329.099006 84.501491 
L 329.529891 88.244194 
L 331.683871 130.131141 
L 332.114615 137.066264 
L 332.547302 130.662775 
L 332.976652 132.000385 
L 334.26866 149.952908 
L 334.699495 141.184642 
L 335.561683 99.258367 
L 335.992022 81.872301 
L 336.423541 74.335053 
L 337.284365 68.627353 
L 337.716031 72.42221 
L 338.577031 85.323899 
L 339.869389 105.244058 
L 340.731449 112.724634 
L 341.161635 116.776789 
L 341.59371 117.928631 
L 342.462756 117.415253 
L 343.318801 111.785713 
L 345.041905 100.146181 
L 345.903482 96.586923 
L 346.334225 93.427024 
L 347.195868 90.455247 
L 347.626846 86.90683 
L 348.057581 85.63341 
L 348.489239 84.803018 
L 348.919193 82.105056 
L 349.349947 82.180399 
L 349.780782 82.905404 
L 350.211699 82.428183 
L 351.935405 88.730281 
L 352.79698 92.605004 
L 353.227226 96.372444 
L 353.658205 106.712497 
L 354.089204 113.758853 
L 354.519711 122.967396 
L 355.812211 131.947481 
L 357.535459 144.060393 
L 357.966499 146.233094 
L 358.397077 147.771295 
L 358.828088 148.641189 
L 359.689738 147.033138 
L 360.120641 145.494231 
L 360.551204 141.779946 
L 361.413183 136.1013 
L 361.844306 130.991002 
L 362.70499 124.592506 
L 363.136029 119.346257 
L 363.997786 112.610009 
L 365.290208 96.814131 
L 366.151676 78.031598 
L 367.013257 53.241774 
L 367.44461 54.529916 
L 367.875198 56.888743 
L 368.306245 60.252976 
L 369.167129 69.476563 
L 370.45968 87.521865 
L 372.613601 119.529561 
L 373.475174 130.214849 
L 374.337036 138.667471 
L 375.200524 144.498864 
L 375.631852 146.449331 
L 376.062344 147.663007 
L 376.493337 148.207723 
L 376.924091 148.113488 
L 377.356073 147.437791 
L 377.786213 146.185755 
L 378.647138 142.151947 
L 379.508645 136.525918 
L 380.801649 126.177661 
L 381.232765 122.46396 
L 381.662896 135.282831 
L 382.955464 127.39099 
L 384.247718 117.499393 
L 385.540092 105.562029 
L 386.832463 92.654051 
L 387.263114 98.927952 
L 387.694937 142.919507 
L 388.124892 142.986594 
L 388.557211 107.781111 
L 388.986537 102.679885 
L 389.417726 126.114829 
L 389.848373 136.299427 
L 390.709492 109.003514 
L 391.140698 117.381318 
L 391.572705 132.490298 
L 392.002086 126.226476 
L 392.432963 113.750349 
L 392.863812 117.607733 
L 393.294515 126.316005 
L 393.725524 124.92427 
L 394.156412 119.704834 
L 394.587021 117.588942 
L 395.448534 124.954304 
L 396.310728 117.154184 
L 397.171716 122.621167 
L 397.602894 120.214796 
L 398.033469 118.668716 
L 398.464092 119.134052 
L 398.894919 120.349512 
L 399.325765 120.672922 
L 399.756995 118.896854 
L 400.187709 118.279505 
L 400.618999 120.0405 
L 401.049055 120.308265 
L 401.479956 118.816539 
L 401.910749 118.77215 
L 402.341456 119.586499 
L 402.77413 119.750718 
L 403.203331 119.44103 
L 403.634061 118.877883 
L 404.064885 119.048722 
L 404.49558 119.88879 
L 404.926617 119.462498 
L 405.357338 118.684502 
L 406.218797 119.626884 
L 406.649733 119.166281 
L 407.080906 118.929489 
L 408.37301 119.268801 
L 408.803719 118.889544 
L 409.234519 118.809696 
L 409.665329 119.238326 
L 410.097189 119.186914 
L 410.526943 118.771347 
L 410.957718 118.84429 
L 411.388725 119.128052 
L 411.819376 119.055721 
L 412.250118 118.83034 
L 412.680993 118.811524 
L 413.111768 119.006693 
L 413.54258 119.071511 
L 413.973987 118.847784 
L 414.404269 118.776132 
L 414.835155 118.997969 
L 415.2658 119.051418 
L 415.697009 118.848346 
L 416.127435 118.811872 
L 416.989304 119.005041 
L 417.851236 118.824584 
L 418.712431 119.000259 
L 419.574033 118.829224 
L 420.435365 118.968826 
L 421.727732 118.883037 
L 422.589567 118.933406 
L 423.451417 118.872074 
L 424.312739 118.925927 
L 425.605442 118.901312 
L 431.20554 118.894198 
L 441.544989 118.894404 
L 446.28403 118.894623 
L 446.714832 116.218489 
L 447.145351 98.959421 
L 447.576347 98.495653 
L 453.177243 98.424672 
L 453.607939 98.327342 
L 454.0391 98.089561 
L 454.46962 97.490061 
L 454.900507 95.930116 
L 455.331218 91.766394 
L 456.624613 69.294306 
L 457.48521 58.415673 
L 457.915979 54.893263 
L 458.346786 52.740729 
L 458.778413 51.865439 
L 459.208394 52.282376 
L 459.639252 53.973893 
L 460.070245 56.697251 
L 460.932227 65.099456 
L 461.362758 59.584879 
L 462.224359 67.348264 
L 463.085471 77.809514 
L 463.947287 91.005191 
L 465.240287 114.594672 
L 465.670561 122.911895 
L 466.101422 128.60988 
L 466.532416 103.199037 
L 466.963364 86.809288 
L 467.394088 92.165169 
L 467.825019 101.415618 
L 468.255434 104.509186 
L 468.686558 103.352798 
L 469.117115 101.648828 
L 469.548164 100.905692 
L 469.978957 100.8713 
L 470.840718 101.122497 
L 472.132745 101.19508 
L 472.56396 110.960075 
L 472.994652 116.157503 
L 472.994652 116.157503 
" clip-path="url(#pdc7fcbd1f7)" style="fill: none; stroke: #1f77b4; stroke-width: 1.5; stroke-linecap: square"/>
   </g>
   <g id="patch_3">
    <path d="M 48.682344 183.560234 
L 48.682344 33.842813 
" style="fill: none; stroke: #000000; stroke-width: 0.8; stroke-linejoin: miter; stroke-linecap: square"/>
   </g>
   <g id="patch_4">
    <path d="M 493.2 183.560234 
L 493.2 33.842813 
" style="fill: none; stroke: #000000; stroke-width: 0.8; stroke-linejoin: miter; stroke-linecap: square"/>
   </g>
   <g id="patch_5">
    <path d="M 48.682344 183.560234 
L 493.2 183.560234 
" style="fill: none; stroke: #000000; stroke-width: 0.8; stroke-linejoin: miter; stroke-linecap: square"/>
   </g>
   <g id="patch_6">
    <path d="M 48.682344 33.842813 
L 493.2 33.842813 
" style="fill: none; stroke: #000000; stroke-width: 0.8; stroke-linejoin: miter; stroke-linecap: square"/>
   </g>
   <g id="legend_1">
    <g id="patch_7">
     <path d="M 55.682344 56.843594 
L 98.382344 56.843594 
Q 100.382344 56.843594 100.382344 54.843594 
L 100.382344 40.842813 
Q 100.382344 38.842813 98.382344 38.842813 
L 55.682344 38.842813 
Q 53.682344 38.842813 53.682344 40.842813 
L 53.682344 54.843594 
Q 53.682344 56.843594 55.682344 56.843594 
z
" style="fill: #ffffff; opacity: 0.8; stroke: #cccccc; stroke-linejoin: miter"/>
    </g>
    <g id="line2d_26">
     <path d="M 57.682344 46.94125 
L 67.682344 46.94125 
L 77.682344 46.94125 
" style="fill: none; stroke: #1f77b4; stroke-width: 1.5; stroke-linecap: square"/>
    </g>
    <g id="text_14">
     <!-- $v_1$ -->
     <g transform="translate(85.682344 50.44125) scale(0.1 -0.1)">
      <use xlink:href="#DejaVuSans-Oblique-59" transform="translate(0 0.3125)"/>
      <use xlink:href="#DejaVuSans-14" transform="translate(59.179688 -14.687451) scale(0.7)"/>
     </g>
    </g>
   </g>
  </g>
  <g id="axes_2">
   <g id="patch_8">
    <path d="M 48.682344 361.077656 
L 493.2 361.077656 
L 493.2 211.360234 
L 48.682344 211.360234 
z
" style="fill: #ffffff"/>
   </g>
   <g id="matplotlib.axis_3">
    <g id="xtick_8">
     <g id="line2d_27">
      <path d="M 68.499122 361.077656 
L 68.499122 211.360234 
" clip-path="url(#p9963fa549d)" style="fill: none; stroke: #b0b0b0; stroke-width: 0.8; stroke-linecap: square"/>
     </g>
     <g id="line2d_28">
      <g>
       <use xlink:href="#mf494082f68" x="68.499122" y="361.077656" style="stroke: #000000; stroke-width: 0.8"/>
      </g>
     </g>
     <g id="text_15">
      <!-- 0 -->
      <g transform="translate(65.317872 375.675313) scale(0.1 -0.1)">
       <use xlink:href="#DejaVuSans-13"/>
      </g>
     </g>
    </g>
    <g id="xtick_9">
     <g id="line2d_29">
      <path d="M 133.119508 361.077656 
L 133.119508 211.360234 
" clip-path="url(#p9963fa549d)" style="fill: none; stroke: #b0b0b0; stroke-width: 0.8; stroke-linecap: square"/>
     </g>
     <g id="line2d_30">
      <g>
       <use xlink:href="#mf494082f68" x="133.119508" y="361.077656" style="stroke: #000000; stroke-width: 0.8"/>
      </g>
     </g>
     <g id="text_16">
      <!-- 10 -->
      <g transform="translate(126.757008 375.675313) scale(0.1 -0.1)">
       <use xlink:href="#DejaVuSans-14"/>
       <use xlink:href="#DejaVuSans-13" transform="translate(63.625 0)"/>
      </g>
     </g>
    </g>
    <g id="xtick_10">
     <g id="line2d_31">
      <path d="M 197.739893 361.077656 
L 197.739893 211.360234 
" clip-path="url(#p9963fa549d)" style="fill: none; stroke: #b0b0b0; stroke-width: 0.8; stroke-linecap: square"/>
     </g>
     <g id="line2d_32">
      <g>
       <use xlink:href="#mf494082f68" x="197.739893" y="361.077656" style="stroke: #000000; stroke-width: 0.8"/>
      </g>
     </g>
     <g id="text_17">
      <!-- 20 -->
      <g transform="translate(191.377393 375.675313) scale(0.1 -0.1)">
       <use xlink:href="#DejaVuSans-15"/>
       <use xlink:href="#DejaVuSans-13" transform="translate(63.625 0)"/>
      </g>
     </g>
    </g>
    <g id="xtick_11">
     <g id="line2d_33">
      <path d="M 262.360279 361.077656 
L 262.360279 211.360234 
" clip-path="url(#p9963fa549d)" style="fill: none; stroke: #b0b0b0; stroke-width: 0.8; stroke-linecap: square"/>
     </g>
     <g id="line2d_34">
      <g>
       <use xlink:href="#mf494082f68" x="262.360279" y="361.077656" style="stroke: #000000; stroke-width: 0.8"/>
      </g>
     </g>
     <g id="text_18">
      <!-- 30 -->
      <g transform="translate(255.997779 375.675313) scale(0.1 -0.1)">
       <use xlink:href="#DejaVuSans-16"/>
       <use xlink:href="#DejaVuSans-13" transform="translate(63.625 0)"/>
      </g>
     </g>
    </g>
    <g id="xtick_12">
     <g id="line2d_35">
      <path d="M 326.980665 361.077656 
L 326.980665 211.360234 
" clip-path="url(#p9963fa549d)" style="fill: none; stroke: #b0b0b0; stroke-width: 0.8; stroke-linecap: square"/>
     </g>
     <g id="line2d_36">
      <g>
       <use xlink:href="#mf494082f68" x="326.980665" y="361.077656" style="stroke: #000000; stroke-width: 0.8"/>
      </g>
     </g>
     <g id="text_19">
      <!-- 40 -->
      <g transform="translate(320.618165 375.675313) scale(0.1 -0.1)">
       <use xlink:href="#DejaVuSans-17"/>
       <use xlink:href="#DejaVuSans-13" transform="translate(63.625 0)"/>
      </g>
     </g>
    </g>
    <g id="xtick_13">
     <g id="line2d_37">
      <path d="M 391.60105 361.077656 
L 391.60105 211.360234 
" clip-path="url(#p9963fa549d)" style="fill: none; stroke: #b0b0b0; stroke-width: 0.8; stroke-linecap: square"/>
     </g>
     <g id="line2d_38">
      <g>
       <use xlink:href="#mf494082f68" x="391.60105" y="361.077656" style="stroke: #000000; stroke-width: 0.8"/>
      </g>
     </g>
     <g id="text_20">
      <!-- 50 -->
      <g transform="translate(385.23855 375.675313) scale(0.1 -0.1)">
       <use xlink:href="#DejaVuSans-18"/>
       <use xlink:href="#DejaVuSans-13" transform="translate(63.625 0)"/>
      </g>
     </g>
    </g>
    <g id="xtick_14">
     <g id="line2d_39">
      <path d="M 456.221436 361.077656 
L 456.221436 211.360234 
" clip-path="url(#p9963fa549d)" style="fill: none; stroke: #b0b0b0; stroke-width: 0.8; stroke-linecap: square"/>
     </g>
     <g id="line2d_40">
      <g>
       <use xlink:href="#mf494082f68" x="456.221436" y="361.077656" style="stroke: #000000; stroke-width: 0.8"/>
      </g>
     </g>
     <g id="text_21">
      <!-- 60 -->
      <g transform="translate(449.858936 375.675313) scale(0.1 -0.1)">
       <use xlink:href="#DejaVuSans-19"/>
       <use xlink:href="#DejaVuSans-13" transform="translate(63.625 0)"/>
      </g>
     </g>
    </g>
    <g id="text_22">
     <!-- Time [s] -->
     <g transform="translate(250.609922 389.676094) scale(0.1 -0.1)">
      <defs>
       <path id="DejaVuSans-37" d="M -19 4666 
L 3928 4666 
L 3928 4134 
L 2272 4134 
L 2272 0 
L 1638 0 
L 1638 4134 
L -19 4134 
L -19 4666 
z
" transform="scale(0.015625)"/>
       <path id="DejaVuSans-4c" d="M 603 3500 
L 1178 3500 
L 1178 0 
L 603 0 
L 603 3500 
z
M 603 4863 
L 1178 4863 
L 1178 4134 
L 603 4134 
L 603 4863 
z
" transform="scale(0.015625)"/>
       <path id="DejaVuSans-50" d="M 3328 2828 
Q 3544 3216 3844 3400 
Q 4144 3584 4550 3584 
Q 5097 3584 5394 3201 
Q 5691 2819 5691 2113 
L 5691 0 
L 5113 0 
L 5113 2094 
Q 5113 2597 4934 2840 
Q 4756 3084 4391 3084 
Q 3944 3084 3684 2787 
Q 3425 2491 3425 1978 
L 3425 0 
L 2847 0 
L 2847 2094 
Q 2847 2600 2669 2842 
Q 2491 3084 2119 3084 
Q 1678 3084 1418 2786 
Q 1159 2488 1159 1978 
L 1159 0 
L 581 0 
L 581 3500 
L 1159 3500 
L 1159 2956 
Q 1356 3278 1631 3431 
Q 1906 3584 2284 3584 
Q 2666 3584 2933 3390 
Q 3200 3197 3328 2828 
z
" transform="scale(0.015625)"/>
       <path id="DejaVuSans-48" d="M 3597 1894 
L 3597 1613 
L 953 1613 
Q 991 1019 1311 708 
Q 1631 397 2203 397 
Q 2534 397 2845 478 
Q 3156 559 3463 722 
L 3463 178 
Q 3153 47 2828 -22 
Q 2503 -91 2169 -91 
Q 1331 -91 842 396 
Q 353 884 353 1716 
Q 353 2575 817 3079 
Q 1281 3584 2069 3584 
Q 2775 3584 3186 3129 
Q 3597 2675 3597 1894 
z
M 3022 2063 
Q 3016 2534 2758 2815 
Q 2500 3097 2075 3097 
Q 1594 3097 1305 2825 
Q 1016 2553 972 2059 
L 3022 2063 
z
" transform="scale(0.015625)"/>
       <path id="DejaVuSans-56" d="M 2834 3397 
L 2834 2853 
Q 2591 2978 2328 3040 
Q 2066 3103 1784 3103 
Q 1356 3103 1142 2972 
Q 928 2841 928 2578 
Q 928 2378 1081 2264 
Q 1234 2150 1697 2047 
L 1894 2003 
Q 2506 1872 2764 1633 
Q 3022 1394 3022 966 
Q 3022 478 2636 193 
Q 2250 -91 1575 -91 
Q 1294 -91 989 -36 
Q 684 19 347 128 
L 347 722 
Q 666 556 975 473 
Q 1284 391 1588 391 
Q 1994 391 2212 530 
Q 2431 669 2431 922 
Q 2431 1156 2273 1281 
Q 2116 1406 1581 1522 
L 1381 1569 
Q 847 1681 609 1914 
Q 372 2147 372 2553 
Q 372 3047 722 3315 
Q 1072 3584 1716 3584 
Q 2034 3584 2315 3537 
Q 2597 3491 2834 3397 
z
" transform="scale(0.015625)"/>
      </defs>
      <use xlink:href="#DejaVuSans-37"/>
      <use xlink:href="#DejaVuSans-4c" transform="translate(58 0)"/>
      <use xlink:href="#DejaVuSans-50" transform="translate(85.78125 0)"/>
      <use xlink:href="#DejaVuSans-48" transform="translate(183.1875 0)"/>
      <use xlink:href="#DejaVuSans-3" transform="translate(244.71875 0)"/>
      <use xlink:href="#DejaVuSans-3e" transform="translate(276.5 0)"/>
      <use xlink:href="#DejaVuSans-56" transform="translate(315.515625 0)"/>
      <use xlink:href="#DejaVuSans-40" transform="translate(367.609375 0)"/>
     </g>
    </g>
   </g>
   <g id="matplotlib.axis_4">
    <g id="ytick_6">
     <g id="line2d_41">
      <path d="M 48.682344 345.980788 
L 493.2 345.980788 
" clip-path="url(#p9963fa549d)" style="fill: none; stroke: #b0b0b0; stroke-width: 0.8; stroke-linecap: square"/>
     </g>
     <g id="line2d_42">
      <g>
       <use xlink:href="#m68b5a4bb15" x="48.682344" y="345.980788" style="stroke: #000000; stroke-width: 0.8"/>
      </g>
     </g>
     <g id="text_23">
      <!-- −2 -->
      <g transform="translate(26.940156 349.779616) scale(0.1 -0.1)">
       <use xlink:href="#DejaVuSans-c9c"/>
       <use xlink:href="#DejaVuSans-15" transform="translate(83.796875 0)"/>
      </g>
     </g>
    </g>
    <g id="ytick_7">
     <g id="line2d_43">
      <path d="M 48.682344 313.420475 
L 493.2 313.420475 
" clip-path="url(#p9963fa549d)" style="fill: none; stroke: #b0b0b0; stroke-width: 0.8; stroke-linecap: square"/>
     </g>
     <g id="line2d_44">
      <g>
       <use xlink:href="#m68b5a4bb15" x="48.682344" y="313.420475" style="stroke: #000000; stroke-width: 0.8"/>
      </g>
     </g>
     <g id="text_24">
      <!-- −1 -->
      <g transform="translate(26.940156 317.219304) scale(0.1 -0.1)">
       <use xlink:href="#DejaVuSans-c9c"/>
       <use xlink:href="#DejaVuSans-14" transform="translate(83.796875 0)"/>
      </g>
     </g>
    </g>
    <g id="ytick_8">
     <g id="line2d_45">
      <path d="M 48.682344 280.860163 
L 493.2 280.860163 
" clip-path="url(#p9963fa549d)" style="fill: none; stroke: #b0b0b0; stroke-width: 0.8; stroke-linecap: square"/>
     </g>
     <g id="line2d_46">
      <g>
       <use xlink:href="#m68b5a4bb15" x="48.682344" y="280.860163" style="stroke: #000000; stroke-width: 0.8"/>
      </g>
     </g>
     <g id="text_25">
      <!-- 0 -->
      <g transform="translate(35.319844 284.658991) scale(0.1 -0.1)">
       <use xlink:href="#DejaVuSans-13"/>
      </g>
     </g>
    </g>
    <g id="ytick_9">
     <g id="line2d_47">
      <path d="M 48.682344 248.29985 
L 493.2 248.29985 
" clip-path="url(#p9963fa549d)" style="fill: none; stroke: #b0b0b0; stroke-width: 0.8; stroke-linecap: square"/>
     </g>
     <g id="line2d_48">
      <g>
       <use xlink:href="#m68b5a4bb15" x="48.682344" y="248.29985" style="stroke: #000000; stroke-width: 0.8"/>
      </g>
     </g>
     <g id="text_26">
      <!-- 1 -->
      <g transform="translate(35.319844 252.098678) scale(0.1 -0.1)">
       <use xlink:href="#DejaVuSans-14"/>
      </g>
     </g>
    </g>
    <g id="ytick_10">
     <g id="line2d_49">
      <path d="M 48.682344 215.739538 
L 493.2 215.739538 
" clip-path="url(#p9963fa549d)" style="fill: none; stroke: #b0b0b0; stroke-width: 0.8; stroke-linecap: square"/>
     </g>
     <g id="line2d_50">
      <g>
       <use xlink:href="#m68b5a4bb15" x="48.682344" y="215.739538" style="stroke: #000000; stroke-width: 0.8"/>
      </g>
     </g>
     <g id="text_27">
      <!-- 2 -->
      <g transform="translate(35.319844 219.538366) scale(0.1 -0.1)">
       <use xlink:href="#DejaVuSans-15"/>
      </g>
     </g>
    </g>
    <g id="text_28">
     <!-- $v_2$ [$m/s^2$] -->
     <g transform="translate(20.537813 308.818945) rotate(-90) scale(0.1 -0.1)">
      <use xlink:href="#DejaVuSans-Oblique-59" transform="translate(0 0.746875)"/>
      <use xlink:href="#DejaVuSans-15" transform="translate(59.179688 -14.253076) scale(0.7)"/>
      <use xlink:href="#DejaVuSans-3" transform="translate(106.450195 0.746875)"/>
      <use xlink:href="#DejaVuSans-3e" transform="translate(138.237305 0.746875)"/>
      <use xlink:href="#DejaVuSans-Oblique-50" transform="translate(177.250977 0.746875)"/>
      <use xlink:href="#DejaVuSans-12" transform="translate(274.663086 0.746875)"/>
      <use xlink:href="#DejaVuSans-Oblique-56" transform="translate(308.354492 0.746875)"/>
      <use xlink:href="#DejaVuSans-15" transform="translate(365.103997 42.046875) scale(0.7)"/>
      <use xlink:href="#DejaVuSans-40" transform="translate(412.374505 0.746875)"/>
     </g>
    </g>
   </g>
   <g id="line2d_51">
    <path d="M 68.887692 280.880405 
L 72.764673 281.175998 
L 73.62612 280.98553 
L 74.057009 281.242038 
L 74.487918 281.283062 
L 74.919163 280.903101 
L 75.349424 280.851163 
L 75.78017 281.397522 
L 76.211501 281.460106 
L 76.641893 280.704781 
L 77.072691 280.631716 
L 77.503441 281.63884 
L 77.935355 281.722602 
L 78.365189 280.421186 
L 78.796122 280.326607 
L 79.227036 281.965029 
L 79.657571 282.07009 
L 80.08831 280.052297 
L 80.519463 279.936781 
L 80.950113 282.376166 
L 81.380965 282.502411 
L 81.811747 279.599187 
L 82.242807 279.462762 
L 82.673508 282.872053 
L 83.104279 282.996518 
L 83.53494 279.061822 
L 83.965723 278.901598 
L 84.396511 282.406093 
L 84.827468 283.549618 
L 85.258907 278.303659 
L 85.689368 278.122212 
L 86.119581 283.978915 
L 86.55089 284.167912 
L 86.981233 277.598835 
L 87.412012 277.398709 
L 87.84347 284.442994 
L 88.273941 283.916741 
L 88.704654 276.731623 
L 89.13531 276.462613 
L 89.566383 285.436638 
L 89.997306 285.666156 
L 90.428514 275.810401 
L 90.858578 275.567906 
L 91.289276 286.243279 
L 91.720689 285.3289 
L 92.151306 274.79802 
L 92.581888 274.480914 
L 93.012484 287.242858 
L 93.443561 287.514303 
L 93.87429 273.704691 
L 94.305081 273.423254 
L 94.736265 288.323833 
L 95.16702 288.619786 
L 95.597395 272.577958 
L 96.028453 272.270973 
L 96.458852 289.48133 
L 96.890138 288.926274 
L 97.320844 271.338965 
L 97.751481 270.987504 
L 98.182253 290.685969 
L 98.613321 290.5788 
L 99.043957 270.011477 
L 99.474908 269.648009 
L 99.905651 289.649582 
L 100.336342 292.277976 
L 100.767032 268.488753 
L 101.198226 268.12057 
L 101.628675 293.157759 
L 102.059513 290.746229 
L 102.490214 266.950878 
L 102.921118 266.486679 
L 103.351798 294.538525 
L 103.786037 292.877979 
L 104.216899 265.2622 
L 104.647763 264.809227 
L 105.07842 291.164606 
L 105.509305 296.311963 
L 105.939991 263.374633 
L 106.3709 262.946023 
L 106.801647 294.392332 
L 107.232961 294.374221 
L 107.663274 261.475751 
L 108.094128 260.958908 
L 108.524903 297.302148 
L 108.956455 295.036745 
L 109.386408 259.481925 
L 109.817294 258.948752 
L 110.247978 293.965576 
L 110.679 298.415641 
L 111.115465 257.310351 
L 111.542055 256.793544 
L 111.972684 294.795533 
L 112.403541 296.728307 
L 112.834833 255.083427 
L 113.265143 254.518449 
L 113.695982 299.863635 
L 114.126876 296.706511 
L 114.557502 252.870481 
L 114.988398 252.286892 
L 115.419605 293.478336 
L 115.850443 300.743874 
L 116.280735 250.681073 
L 116.711621 249.973218 
L 117.142269 296.629338 
L 117.573594 296.307428 
L 118.004046 248.3171 
L 118.435009 247.783301 
L 118.865486 300.132669 
L 119.296475 297.850366 
L 119.727186 246.154356 
L 120.158173 245.651886 
L 120.588736 292.208227 
L 121.019672 300.077503 
L 121.45032 244.28029 
L 121.88126 243.80455 
L 122.312025 298.017974 
L 122.742828 294.708946 
L 123.173582 242.556056 
L 123.604412 242.240549 
L 124.035177 294.995665 
L 124.466088 296.79296 
L 124.897118 241.31111 
L 125.327632 241.047789 
L 125.758421 291.690337 
L 126.189879 295.027488 
L 126.620426 241.744525 
L 127.050956 240.709108 
L 127.481964 289.97064 
L 127.91845 289.687506 
L 128.343374 249.78233 
L 128.774063 245.825332 
L 129.204793 276.71309 
L 129.635727 284.851282 
L 130.066738 264.365661 
L 130.497584 249.898232 
L 130.928132 266.024774 
L 131.358756 277.549391 
L 132.220807 260.808881 
L 133.08217 267.805891 
L 133.512917 269.239942 
L 133.943648 268.064614 
L 134.37501 265.589275 
L 134.80579 266.939593 
L 135.236269 268.82404 
L 135.666551 268.719391 
L 136.099749 269.347793 
L 137.821205 273.054514 
L 138.252277 274.864242 
L 139.113988 277.252157 
L 139.544494 280.118791 
L 139.975667 281.441769 
L 140.405898 282.314748 
L 140.836784 285.6161 
L 141.267645 286.405531 
L 141.698442 286.518122 
L 142.129126 289.25862 
L 142.560024 289.0775 
L 142.991448 288.223787 
L 143.421777 289.751197 
L 143.852624 288.644633 
L 144.283435 287.139783 
L 144.714282 287.734976 
L 145.575869 285.207115 
L 146.006687 285.749892 
L 146.868277 284.147612 
L 147.299118 284.723754 
L 148.160829 283.34738 
L 148.591553 283.728555 
L 149.453201 282.505862 
L 149.884102 282.852956 
L 150.745665 282.025446 
L 151.176615 282.51083 
L 152.037961 282.088424 
L 152.46905 282.768154 
L 153.33043 282.609421 
L 153.761279 283.479891 
L 154.193158 283.514056 
L 154.622867 283.416851 
L 155.054367 284.362451 
L 155.485484 284.306348 
L 155.915904 284.009742 
L 156.346409 284.545885 
L 157.207869 283.517037 
L 157.638549 283.648456 
L 158.500334 282.901791 
L 158.930993 283.188065 
L 159.792595 283.236276 
L 160.22339 284.06386 
L 161.084992 285.094566 
L 161.515791 286.759871 
L 162.377318 288.804788 
L 162.808238 291.353224 
L 163.669774 294.054559 
L 164.10058 297.031238 
L 164.963032 299.373051 
L 165.393212 301.834255 
L 165.823728 302.494952 
L 166.254714 302.879444 
L 166.685518 304.307049 
L 167.118231 304.1791 
L 167.547048 303.778621 
L 167.977844 303.968473 
L 168.410157 302.379834 
L 168.839794 298.387616 
L 169.270277 297.676382 
L 170.132166 288.329274 
L 170.563583 287.327584 
L 170.99457 283.409369 
L 171.424382 282.648231 
L 171.855198 282.513271 
L 172.716706 281.806291 
L 173.147501 281.867626 
L 173.578753 281.185211 
L 174.009435 280.033388 
L 174.439881 278.528405 
L 174.871315 275.837706 
L 175.732339 267.944441 
L 177.025298 253.531199 
L 177.456622 249.983169 
L 177.886614 247.776987 
L 178.317157 247.587794 
L 178.748456 248.781999 
L 179.178587 251.364735 
L 181.763666 278.577486 
L 182.195049 282.1477 
L 182.626941 283.846696 
L 183.056225 284.553115 
L 183.486742 284.221415 
L 183.919264 282.780121 
L 184.348513 280.563864 
L 185.640829 268.376752 
L 186.504051 257.255217 
L 187.795414 241.696662 
L 188.22583 239.44649 
L 188.656495 238.649969 
L 189.088656 243.836895 
L 190.810922 274.118126 
L 191.241198 278.55316 
L 191.673178 280.246044 
L 192.103214 280.45541 
L 192.533677 280.817673 
L 192.964457 280.326186 
L 193.395185 280.034205 
L 193.826011 281.282641 
L 194.687613 282.508557 
L 195.118528 284.943555 
L 195.550764 285.807807 
L 195.980038 286.380904 
L 196.411352 289.206148 
L 196.842804 289.732351 
L 197.272683 289.715252 
L 197.703318 291.847818 
L 198.135634 291.436209 
L 198.565085 290.586008 
L 198.995805 291.74827 
L 199.857387 289.913877 
L 200.288401 290.585268 
L 201.149861 289.006863 
L 201.580618 289.627197 
L 202.442239 288.86153 
L 202.873814 289.87688 
L 203.734699 290.216567 
L 204.165456 291.973508 
L 205.027324 293.614589 
L 205.457796 296.369305 
L 206.320315 299.316732 
L 206.750374 303.094215 
L 207.611822 307.101835 
L 208.042906 311.430789 
L 208.47475 313.380143 
L 208.90423 313.771068 
L 209.335268 313.682309 
L 211.059479 291.127225 
L 212.351551 269.172721 
L 212.781358 261.507988 
L 214.074061 245.23988 
L 214.50494 244.705672 
L 214.937105 243.058081 
L 215.366315 243.029752 
L 216.658876 252.837711 
L 217.522166 263.933661 
L 219.674471 289.342998 
L 220.106924 292.110196 
L 220.967557 296.15986 
L 221.397882 296.52449 
L 221.828563 296.139163 
L 222.259284 295.132029 
L 222.691487 293.164894 
L 223.120987 290.595245 
L 224.413733 278.357294 
L 225.276121 266.416829 
L 225.70605 260.657028 
L 226.136632 252.381522 
L 227.429228 234.684022 
L 227.861349 233.338015 
L 228.721574 237.537195 
L 229.153842 242.547539 
L 229.583116 250.655714 
L 230.446394 269.287208 
L 231.738879 288.245874 
L 232.167757 292.482608 
L 232.598628 297.898761 
L 233.031043 300.6047 
L 233.891084 304.120187 
L 234.323127 303.561165 
L 234.752718 302.233385 
L 235.183503 301.324731 
L 236.475947 295.313958 
L 236.908058 293.71363 
L 237.337688 292.853877 
L 238.200867 294.527701 
L 238.629983 296.003068 
L 239.060931 299.191707 
L 239.493166 300.992939 
L 239.923105 301.069988 
L 240.353497 303.436552 
L 240.785763 301.666132 
L 241.214791 298.609706 
L 241.645874 297.065266 
L 242.507209 284.008206 
L 243.370739 272.259924 
L 243.800208 266.788643 
L 245.091966 242.155188 
L 245.955256 219.246468 
L 246.384551 218.165572 
L 246.815175 218.311758 
L 247.677211 221.976975 
L 248.107734 221.50472 
L 248.539997 224.254406 
L 249.400127 233.112689 
L 250.261752 260.195087 
L 250.692551 268.151448 
L 251.12487 271.931732 
L 251.985435 275.845341 
L 252.417251 276.859876 
L 252.846481 277.538795 
L 253.277428 278.571011 
L 253.709172 278.781708 
L 254.138846 278.810071 
L 254.569782 279.43291 
L 255.002188 279.35045 
L 255.431323 279.110114 
L 255.862072 279.25266 
L 256.727511 278.241656 
L 257.154589 278.121623 
L 258.016135 277.370148 
L 258.447418 277.338456 
L 260.172195 276.174869 
L 261.031772 275.088103 
L 261.893502 273.720468 
L 262.756166 271.831161 
L 263.185897 271.063428 
L 263.61659 269.792035 
L 264.908981 267.6571 
L 265.770599 267.137551 
L 266.201496 265.7743 
L 267.063848 263.711577 
L 267.494532 261.400294 
L 267.92606 260.688289 
L 268.355514 260.701837 
L 268.78631 260.50339 
L 269.218655 262.184006 
L 270.511019 268.474022 
L 270.940459 269.939691 
L 271.370949 270.993301 
L 272.232704 272.227149 
L 272.663687 273.551783 
L 273.096411 275.408061 
L 273.524998 278.394321 
L 274.388334 290.616664 
L 274.817416 299.034948 
L 275.681041 321.800836 
L 276.540756 341.934016 
L 276.973426 348.070574 
L 277.402219 352.097807 
L 277.833051 354.272319 
L 278.265497 354.038155 
L 278.694986 351.524965 
L 279.126227 347.06276 
L 279.556836 339.137776 
L 280.418194 311.281617 
L 280.850405 300.801791 
L 281.279425 294.5893 
L 281.710954 291.282591 
L 282.142139 289.831504 
L 282.572575 288.881794 
L 283.864425 284.375341 
L 284.726669 279.561375 
L 285.157199 277.616772 
L 285.587523 274.582337 
L 286.449298 270.835924 
L 286.880011 267.280154 
L 287.742331 263.568714 
L 288.172891 260.244621 
L 288.604994 259.502768 
L 289.034768 259.734735 
L 289.464982 259.447502 
L 289.897165 261.864955 
L 290.757479 268.756702 
L 293.342327 294.778415 
L 294.204716 301.252318 
L 294.634422 307.365349 
L 295.497071 314.472462 
L 295.92694 321.303927 
L 296.359277 324.249831 
L 296.788568 325.955124 
L 297.219312 328.925552 
L 297.651874 326.31436 
L 298.512137 315.621702 
L 299.804231 288.437393 
L 301.958422 239.828808 
L 302.3891 233.935254 
L 302.82162 235.859862 
L 303.25089 242.64032 
L 304.113746 262.497609 
L 304.974269 280.257098 
L 305.407089 285.104537 
L 306.266256 291.046732 
L 307.128049 293.360792 
L 307.559083 297.201066 
L 308.421312 301.460145 
L 308.851242 307.556286 
L 309.712882 313.743953 
L 310.143545 320.443726 
L 310.575843 322.622869 
L 311.005287 323.570261 
L 311.435972 326.24196 
L 311.868663 324.331981 
L 312.297857 320.843471 
L 312.728473 314.831917 
L 315.313179 248.730772 
L 315.745376 240.15828 
L 316.174941 233.936268 
L 316.605505 231.404653 
L 317.037417 230.114102 
L 317.467158 231.42557 
L 318.330385 241.361158 
L 319.190724 257.228699 
L 320.48308 282.160941 
L 322.207689 304.861806 
L 323.499886 317.302076 
L 323.929415 319.037111 
L 324.360194 318.96626 
L 324.792393 316.964934 
L 325.222366 313.273812 
L 326.5143 293.171454 
L 327.377018 276.806695 
L 327.806753 269.453883 
L 328.669504 247.640496 
L 329.099006 233.194181 
L 329.529891 226.962938 
L 329.96206 225.456781 
L 330.391409 225.20057 
L 330.822622 226.075947 
L 331.254289 228.204788 
L 332.114615 235.568331 
L 332.547302 234.043738 
L 332.976652 234.520226 
L 333.839057 242.955232 
L 334.26866 248.280745 
L 335.131306 268.705551 
L 335.561683 272.317481 
L 336.423541 277.247065 
L 336.853668 280.921992 
L 337.284365 285.589675 
L 337.716031 288.187358 
L 338.145971 288.601296 
L 338.577031 286.618528 
L 339.439875 276.70578 
L 339.869389 269.934202 
L 340.300127 265.476093 
L 341.161635 259.872875 
L 341.59371 260.30838 
L 342.462756 263.362277 
L 343.318801 268.072811 
L 344.180272 271.369795 
L 345.473436 274.871549 
L 345.903482 275.755868 
L 346.334225 277.534557 
L 347.195868 280.032198 
L 347.626846 282.901848 
L 348.489239 286.72761 
L 348.919193 290.616817 
L 349.780782 294.626774 
L 350.211699 298.252137 
L 351.073396 301.107447 
L 351.504096 304.095925 
L 352.365964 306.219688 
L 352.79698 308.846538 
L 353.658205 311.273937 
L 354.089204 312.817879 
L 354.951905 311.424831 
L 355.3821 311.691053 
L 355.812211 310.663488 
L 356.673822 308.041711 
L 357.535459 302.856742 
L 358.397077 295.619269 
L 360.551204 275.384645 
L 361.413183 270.363257 
L 361.844306 268.850812 
L 362.275159 267.82709 
L 362.70499 267.299629 
L 363.566946 268.162004 
L 363.997786 269.016542 
L 365.290208 275.059012 
L 366.151676 281.071373 
L 366.58243 282.995753 
L 367.013257 280.715989 
L 368.736519 253.909608 
L 369.597951 244.228863 
L 370.45968 238.03021 
L 370.890489 236.306452 
L 371.321458 235.466522 
L 371.752653 235.529889 
L 372.183236 236.388856 
L 372.613601 238.046996 
L 373.475174 243.395916 
L 374.337036 250.914232 
L 375.631852 264.655147 
L 377.786213 288.159079 
L 379.077839 299.469419 
L 379.939521 305.052176 
L 380.801649 308.882625 
L 381.232765 310.118728 
L 381.662896 299.50875 
L 383.386446 308.199093 
L 384.247718 311.44011 
L 384.67851 312.585867 
L 385.109233 313.351329 
L 385.540092 313.678647 
L 385.970935 313.533661 
L 386.401684 312.877699 
L 386.832463 311.698751 
L 387.263114 301.50689 
L 387.694937 270.295863 
L 388.124892 269.419286 
L 388.557211 294.892344 
L 388.986537 300.328204 
L 389.417726 279.078171 
L 389.848373 270.666617 
L 390.709492 295.419249 
L 391.140698 286.190892 
L 391.572705 270.349595 
L 392.002086 275.971179 
L 392.432963 290.821369 
L 392.863812 285.697363 
L 393.294515 273.988571 
L 393.725524 275.191304 
L 394.156412 282.25795 
L 394.587021 285.639164 
L 395.448534 272.39723 
L 396.310728 286.692004 
L 397.171716 274.455023 
L 397.602894 279.49308 
L 398.033469 283.167637 
L 398.464092 281.862501 
L 398.894919 278.438317 
L 399.325765 277.245829 
L 399.756995 282.309818 
L 400.187709 284.270777 
L 400.618999 278.458327 
L 401.049055 277.407931 
L 401.479956 282.39993 
L 401.910749 282.526718 
L 402.341456 279.36917 
L 402.77413 278.593629 
L 403.203331 279.630518 
L 403.634061 281.958065 
L 404.064885 281.13442 
L 404.49558 277.119294 
L 404.926617 278.920732 
L 405.357338 282.847865 
L 406.218797 277.470218 
L 406.649733 279.940948 
L 407.080906 281.323904 
L 407.511914 280.50714 
L 407.941975 279.117187 
L 408.37301 278.706904 
L 408.803719 281.472231 
L 409.234519 282.114429 
L 409.665329 278.510887 
L 410.097189 278.818219 
L 410.526943 282.510104 
L 410.957718 281.813805 
L 411.388725 279.0398 
L 411.819376 279.666176 
L 412.250118 281.972025 
L 412.680993 282.191357 
L 413.111768 280.017995 
L 413.54258 279.253674 
L 413.973987 281.793271 
L 414.404269 282.701227 
L 414.835155 279.94844 
L 415.2658 279.268023 
L 415.697009 281.806266 
L 416.127435 282.323176 
L 416.558151 280.344749 
L 416.989304 279.663805 
L 417.851236 282.211132 
L 418.712431 279.553135 
L 419.574033 282.211448 
L 420.435365 279.881544 
L 421.297984 281.617106 
L 421.727732 281.29709 
L 422.160637 280.448431 
L 422.589567 280.3411 
L 423.020248 281.264323 
L 423.451417 281.518071 
L 423.882119 280.596931 
L 424.312739 280.400655 
L 424.743504 281.099825 
L 425.174617 281.226499 
L 425.605442 280.877349 
L 426.035991 280.688086 
L 426.467492 280.74352 
L 426.898179 281.070201 
L 427.328419 281.105436 
L 427.759225 280.714807 
L 428.190705 280.728884 
L 428.620764 281.013839 
L 430.344002 280.813195 
L 431.20554 280.972481 
L 431.636407 280.824057 
L 437.667901 280.889951 
L 438.529469 280.85554 
L 440.252519 280.871286 
L 441.975816 280.833337 
L 445.853094 280.789537 
L 446.714832 280.745355 
L 447.145351 280.548596 
L 449.730509 280.38025 
L 450.591769 280.195289 
L 451.453375 279.803867 
L 451.884249 279.456497 
L 452.3156 278.928697 
L 452.745827 278.111464 
L 453.177243 276.820965 
L 453.607939 274.751535 
L 454.0391 271.368529 
L 454.46962 265.739779 
L 454.900507 256.254653 
L 455.761987 225.672851 
L 456.192783 230.134245 
L 457.054552 242.808147 
L 458.778413 274.57341 
L 460.070245 297.738168 
L 460.932227 310.430209 
L 461.362758 299.090873 
L 462.654726 316.206482 
L 463.516466 325.179335 
L 463.947287 328.537484 
L 464.378384 331.006758 
L 464.809144 332.461801 
L 465.240287 332.779938 
L 465.670561 331.918933 
L 466.101422 326.242704 
L 466.532416 289.566344 
L 466.963364 274.66034 
L 467.394088 278.997701 
L 467.825019 287.712331 
L 468.255434 291.069749 
L 468.686558 289.779053 
L 469.117115 287.953398 
L 469.548164 287.186522 
L 469.978957 287.151469 
L 470.840718 287.408177 
L 472.132745 287.48288 
L 472.56396 278.815282 
L 472.994652 274.203153 
L 472.994652 274.203153 
" clip-path="url(#p9963fa549d)" style="fill: none; stroke: #1f77b4; stroke-width: 1.5; stroke-linecap: square"/>
   </g>
   <g id="patch_9">
    <path d="M 48.682344 361.077656 
L 48.682344 211.360234 
" style="fill: none; stroke: #000000; stroke-width: 0.8; stroke-linejoin: miter; stroke-linecap: square"/>
   </g>
   <g id="patch_10">
    <path d="M 493.2 361.077656 
L 493.2 211.360234 
" style="fill: none; stroke: #000000; stroke-width: 0.8; stroke-linejoin: miter; stroke-linecap: square"/>
   </g>
   <g id="patch_11">
    <path d="M 48.682344 361.077656 
L 493.2 361.077656 
" style="fill: none; stroke: #000000; stroke-width: 0.8; stroke-linejoin: miter; stroke-linecap: square"/>
   </g>
   <g id="patch_12">
    <path d="M 48.682344 211.360234 
L 493.2 211.360234 
" style="fill: none; stroke: #000000; stroke-width: 0.8; stroke-linejoin: miter; stroke-linecap: square"/>
   </g>
   <g id="legend_2">
    <g id="patch_13">
     <path d="M 55.682344 234.361016 
L 98.382344 234.361016 
Q 100.382344 234.361016 100.382344 232.361016 
L 100.382344 218.360234 
Q 100.382344 216.360234 98.382344 216.360234 
L 55.682344 216.360234 
Q 53.682344 216.360234 53.682344 218.360234 
L 53.682344 232.361016 
Q 53.682344 234.361016 55.682344 234.361016 
z
" style="fill: #ffffff; opacity: 0.8; stroke: #cccccc; stroke-linejoin: miter"/>
    </g>
    <g id="line2d_52">
     <path d="M 57.682344 224.458672 
L 67.682344 224.458672 
L 77.682344 224.458672 
" style="fill: none; stroke: #1f77b4; stroke-width: 1.5; stroke-linecap: square"/>
    </g>
    <g id="text_29">
     <!-- $v_2$ -->
     <g transform="translate(85.682344 227.958672) scale(0.1 -0.1)">
      <use xlink:href="#DejaVuSans-Oblique-59" transform="translate(0 0.3125)"/>
      <use xlink:href="#DejaVuSans-15" transform="translate(59.179688 -14.687451) scale(0.7)"/>
     </g>
    </g>
   </g>
  </g>
  <g id="text_30">
   <!-- OAMPC Virtual Inputs -->
   <g transform="translate(188.213437 17.182125) scale(0.12 -0.12)">
    <defs>
     <path id="DejaVuSans-32" d="M 2522 4238 
Q 1834 4238 1429 3725 
Q 1025 3213 1025 2328 
Q 1025 1447 1429 934 
Q 1834 422 2522 422 
Q 3209 422 3611 934 
Q 4013 1447 4013 2328 
Q 4013 3213 3611 3725 
Q 3209 4238 2522 4238 
z
M 2522 4750 
Q 3503 4750 4090 4092 
Q 4678 3434 4678 2328 
Q 4678 1225 4090 567 
Q 3503 -91 2522 -91 
Q 1538 -91 948 565 
Q 359 1222 359 2328 
Q 359 3434 948 4092 
Q 1538 4750 2522 4750 
z
" transform="scale(0.015625)"/>
     <path id="DejaVuSans-24" d="M 2188 4044 
L 1331 1722 
L 3047 1722 
L 2188 4044 
z
M 1831 4666 
L 2547 4666 
L 4325 0 
L 3669 0 
L 3244 1197 
L 1141 1197 
L 716 0 
L 50 0 
L 1831 4666 
z
" transform="scale(0.015625)"/>
     <path id="DejaVuSans-30" d="M 628 4666 
L 1569 4666 
L 2759 1491 
L 3956 4666 
L 4897 4666 
L 4897 0 
L 4281 0 
L 4281 4097 
L 3078 897 
L 2444 897 
L 1241 4097 
L 1241 0 
L 628 0 
L 628 4666 
z
" transform="scale(0.015625)"/>
     <path id="DejaVuSans-33" d="M 1259 4147 
L 1259 2394 
L 2053 2394 
Q 2494 2394 2734 2622 
Q 2975 2850 2975 3272 
Q 2975 3691 2734 3919 
Q 2494 4147 2053 4147 
L 1259 4147 
z
M 628 4666 
L 2053 4666 
Q 2838 4666 3239 4311 
Q 3641 3956 3641 3272 
Q 3641 2581 3239 2228 
Q 2838 1875 2053 1875 
L 1259 1875 
L 1259 0 
L 628 0 
L 628 4666 
z
" transform="scale(0.015625)"/>
     <path id="DejaVuSans-26" d="M 4122 4306 
L 4122 3641 
Q 3803 3938 3442 4084 
Q 3081 4231 2675 4231 
Q 1875 4231 1450 3742 
Q 1025 3253 1025 2328 
Q 1025 1406 1450 917 
Q 1875 428 2675 428 
Q 3081 428 3442 575 
Q 3803 722 4122 1019 
L 4122 359 
Q 3791 134 3420 21 
Q 3050 -91 2638 -91 
Q 1578 -91 968 557 
Q 359 1206 359 2328 
Q 359 3453 968 4101 
Q 1578 4750 2638 4750 
Q 3056 4750 3426 4639 
Q 3797 4528 4122 4306 
z
" transform="scale(0.015625)"/>
     <path id="DejaVuSans-39" d="M 1831 0 
L 50 4666 
L 709 4666 
L 2188 738 
L 3669 4666 
L 4325 4666 
L 2547 0 
L 1831 0 
z
" transform="scale(0.015625)"/>
     <path id="DejaVuSans-55" d="M 2631 2963 
Q 2534 3019 2420 3045 
Q 2306 3072 2169 3072 
Q 1681 3072 1420 2755 
Q 1159 2438 1159 1844 
L 1159 0 
L 581 0 
L 581 3500 
L 1159 3500 
L 1159 2956 
Q 1341 3275 1631 3429 
Q 1922 3584 2338 3584 
Q 2397 3584 2469 3576 
Q 2541 3569 2628 3553 
L 2631 2963 
z
" transform="scale(0.015625)"/>
     <path id="DejaVuSans-57" d="M 1172 4494 
L 1172 3500 
L 2356 3500 
L 2356 3053 
L 1172 3053 
L 1172 1153 
Q 1172 725 1289 603 
Q 1406 481 1766 481 
L 2356 481 
L 2356 0 
L 1766 0 
Q 1100 0 847 248 
Q 594 497 594 1153 
L 594 3053 
L 172 3053 
L 172 3500 
L 594 3500 
L 594 4494 
L 1172 4494 
z
" transform="scale(0.015625)"/>
     <path id="DejaVuSans-58" d="M 544 1381 
L 544 3500 
L 1119 3500 
L 1119 1403 
Q 1119 906 1312 657 
Q 1506 409 1894 409 
Q 2359 409 2629 706 
Q 2900 1003 2900 1516 
L 2900 3500 
L 3475 3500 
L 3475 0 
L 2900 0 
L 2900 538 
Q 2691 219 2414 64 
Q 2138 -91 1772 -91 
Q 1169 -91 856 284 
Q 544 659 544 1381 
z
M 1991 3584 
L 1991 3584 
z
" transform="scale(0.015625)"/>
     <path id="DejaVuSans-44" d="M 2194 1759 
Q 1497 1759 1228 1600 
Q 959 1441 959 1056 
Q 959 750 1161 570 
Q 1363 391 1709 391 
Q 2188 391 2477 730 
Q 2766 1069 2766 1631 
L 2766 1759 
L 2194 1759 
z
M 3341 1997 
L 3341 0 
L 2766 0 
L 2766 531 
Q 2569 213 2275 61 
Q 1981 -91 1556 -91 
Q 1019 -91 701 211 
Q 384 513 384 1019 
Q 384 1609 779 1909 
Q 1175 2209 1959 2209 
L 2766 2209 
L 2766 2266 
Q 2766 2663 2505 2880 
Q 2244 3097 1772 3097 
Q 1472 3097 1187 3025 
Q 903 2953 641 2809 
L 641 3341 
Q 956 3463 1253 3523 
Q 1550 3584 1831 3584 
Q 2591 3584 2966 3190 
Q 3341 2797 3341 1997 
z
" transform="scale(0.015625)"/>
     <path id="DejaVuSans-4f" d="M 603 4863 
L 1178 4863 
L 1178 0 
L 603 0 
L 603 4863 
z
" transform="scale(0.015625)"/>
     <path id="DejaVuSans-2c" d="M 628 4666 
L 1259 4666 
L 1259 0 
L 628 0 
L 628 4666 
z
" transform="scale(0.015625)"/>
     <path id="DejaVuSans-51" d="M 3513 2113 
L 3513 0 
L 2938 0 
L 2938 2094 
Q 2938 2591 2744 2837 
Q 2550 3084 2163 3084 
Q 1697 3084 1428 2787 
Q 1159 2491 1159 1978 
L 1159 0 
L 581 0 
L 581 3500 
L 1159 3500 
L 1159 2956 
Q 1366 3272 1645 3428 
Q 1925 3584 2291 3584 
Q 2894 3584 3203 3211 
Q 3513 2838 3513 2113 
z
" transform="scale(0.015625)"/>
     <path id="DejaVuSans-53" d="M 1159 525 
L 1159 -1331 
L 581 -1331 
L 581 3500 
L 1159 3500 
L 1159 2969 
Q 1341 3281 1617 3432 
Q 1894 3584 2278 3584 
Q 2916 3584 3314 3078 
Q 3713 2572 3713 1747 
Q 3713 922 3314 415 
Q 2916 -91 2278 -91 
Q 1894 -91 1617 61 
Q 1341 213 1159 525 
z
M 3116 1747 
Q 3116 2381 2855 2742 
Q 2594 3103 2138 3103 
Q 1681 3103 1420 2742 
Q 1159 2381 1159 1747 
Q 1159 1113 1420 752 
Q 1681 391 2138 391 
Q 2594 391 2855 752 
Q 3116 1113 3116 1747 
z
" transform="scale(0.015625)"/>
    </defs>
    <use xlink:href="#DejaVuSans-32"/>
    <use xlink:href="#DejaVuSans-24" transform="translate(76.96875 0)"/>
    <use xlink:href="#DejaVuSans-30" transform="translate(145.375 0)"/>
    <use xlink:href="#DejaVuSans-33" transform="translate(231.65625 0)"/>
    <use xlink:href="#DejaVuSans-26" transform="translate(291.953125 0)"/>
    <use xlink:href="#DejaVuSans-3" transform="translate(361.78125 0)"/>
    <use xlink:href="#DejaVuSans-39" transform="translate(393.5625 0)"/>
    <use xlink:href="#DejaVuSans-4c" transform="translate(459.765625 0)"/>
    <use xlink:href="#DejaVuSans-55" transform="translate(487.546875 0)"/>
    <use xlink:href="#DejaVuSans-57" transform="translate(528.65625 0)"/>
    <use xlink:href="#DejaVuSans-58" transform="translate(567.859375 0)"/>
    <use xlink:href="#DejaVuSans-44" transform="translate(631.234375 0)"/>
    <use xlink:href="#DejaVuSans-4f" transform="translate(692.515625 0)"/>
    <use xlink:href="#DejaVuSans-3" transform="translate(720.296875 0)"/>
    <use xlink:href="#DejaVuSans-2c" transform="translate(752.078125 0)"/>
    <use xlink:href="#DejaVuSans-51" transform="translate(781.578125 0)"/>
    <use xlink:href="#DejaVuSans-53" transform="translate(844.953125 0)"/>
    <use xlink:href="#DejaVuSans-58" transform="translate(908.4375 0)"/>
    <use xlink:href="#DejaVuSans-57" transform="translate(971.8125 0)"/>
    <use xlink:href="#DejaVuSans-56" transform="translate(1011.015625 0)"/>
   </g>
  </g>
 </g>
 <defs>
  <clipPath id="pdc7fcbd1f7">
   <rect x="48.682344" y="33.842813" width="444.517656" height="149.717422"/>
  </clipPath>
  <clipPath id="p9963fa549d">
   <rect x="48.682344" y="211.360234" width="444.517656" height="149.717422"/>
  </clipPath>
 </defs>
</svg>
