<?xml version="1.0" encoding="utf-8" standalone="no"?>
<!DOCTYPE svg PUBLIC "-//W3C//DTD SVG 1.1//EN"
  "http://www.w3.org/Graphics/SVG/1.1/DTD/svg11.dtd">
<svg xmlns:xlink="http://www.w3.org/1999/xlink" width="504pt" height="403.2pt" viewBox="0 0 504 403.2" xmlns="http://www.w3.org/2000/svg" version="1.1">
 <metadata>
  <rdf:RDF xmlns:dc="http://purl.org/dc/elements/1.1/" xmlns:cc="http://creativecommons.org/ns#" xmlns:rdf="http://www.w3.org/1999/02/22-rdf-syntax-ns#">
   <cc:Work>
    <dc:type rdf:resource="http://purl.org/dc/dcmitype/StillImage"/>
    <dc:date>2026-07-09T12:35:18.259514</dc:date>
    <dc:format>image/svg+xml</dc:format>
    <dc:creator>
     <cc:Agent>
      <dc:title>Matplotlib v3.11.0, https://matplotlib.org/</dc:title>
     </cc:Agent>
    </dc:creator>
   </cc:Work>
  </rdf:RDF>
 </metadata>
 <defs>
  <style type="text/css">*{stroke-linejoin: round; stroke-linecap: butt}</style>
 </defs>
 <g id="figure_1">
  <g id="patch_1">
   <path d="M 0 403.2 
L 504 403.2 
L 504 0 
L 0 0 
z
" style="fill: #ffffff"/>
  </g>
  <g id="axes_1">
   <g id="patch_2">
    <path d="M 48.682344 183.56279 
L 493.2 183.56279 
L 493.2 33.847924 
L 48.682344 33.847924 
z
" style="fill: #ffffff"/>
   </g>
   <g id="matplotlib.axis_1">
    <g id="xtick_1">
     <g id="line2d_1">
      <path d="M 68.61732 183.56279 
L 68.61732 33.847924 
" clip-path="url(#p2ff57d9c47)" style="fill: none; stroke: #b0b0b0; stroke-width: 0.8; stroke-linecap: square"/>
     </g>
     <g id="line2d_2">
      <defs>
       <path id="m85d1686e22" d="M 0 0 
L 0 3.5 
" style="stroke: #000000; stroke-width: 0.8"/>
      </defs>
      <g>
       <use xlink:href="#m85d1686e22" x="68.61732" y="183.56279" style="stroke: #000000; stroke-width: 0.8"/>
      </g>
     </g>
     <g id="text_1">
      <!-- 0 -->
      <g transform="translate(65.43607 198.160446) scale(0.1 -0.1)">
       <defs>
        <path id="DejaVuSans-13" d="M 2034 4250 
Q 1547 4250 1301 3770 
Q 1056 3291 1056 2328 
Q 1056 1369 1301 889 
Q 1547 409 2034 409 
Q 2525 409 2770 889 
Q 3016 1369 3016 2328 
Q 3016 3291 2770 3770 
Q 2525 4250 2034 4250 
z
M 2034 4750 
Q 2819 4750 3233 4129 
Q 3647 3509 3647 2328 
Q 3647 1150 3233 529 
Q 2819 -91 2034 -91 
Q 1250 -91 836 529 
Q 422 1150 422 2328 
Q 422 3509 836 4129 
Q 1250 4750 2034 4750 
z
" transform="scale(0.015625)"/>
       </defs>
       <use xlink:href="#DejaVuSans-13"/>
      </g>
     </g>
    </g>
    <g id="xtick_2">
     <g id="line2d_3">
      <path d="M 135.511098 183.56279 
L 135.511098 33.847924 
" clip-path="url(#p2ff57d9c47)" style="fill: none; stroke: #b0b0b0; stroke-width: 0.8; stroke-linecap: square"/>
     </g>
     <g id="line2d_4">
      <g>
       <use xlink:href="#m85d1686e22" x="135.511098" y="183.56279" style="stroke: #000000; stroke-width: 0.8"/>
      </g>
     </g>
     <g id="text_2">
      <!-- 10 -->
      <g transform="translate(129.148598 198.160446) scale(0.1 -0.1)">
       <defs>
        <path id="DejaVuSans-14" d="M 794 531 
L 1825 531 
L 1825 4091 
L 703 3866 
L 703 4441 
L 1819 4666 
L 2450 4666 
L 2450 531 
L 3481 531 
L 3481 0 
L 794 0 
L 794 531 
z
" transform="scale(0.015625)"/>
       </defs>
       <use xlink:href="#DejaVuSans-14"/>
       <use xlink:href="#DejaVuSans-13" transform="translate(63.625 0)"/>
      </g>
     </g>
    </g>
    <g id="xtick_3">
     <g id="line2d_5">
      <path d="M 202.404876 183.56279 
L 202.404876 33.847924 
" clip-path="url(#p2ff57d9c47)" style="fill: none; stroke: #b0b0b0; stroke-width: 0.8; stroke-linecap: square"/>
     </g>
     <g id="line2d_6">
      <g>
       <use xlink:href="#m85d1686e22" x="202.404876" y="183.56279" style="stroke: #000000; stroke-width: 0.8"/>
      </g>
     </g>
     <g id="text_3">
      <!-- 20 -->
      <g transform="translate(196.042376 198.160446) scale(0.1 -0.1)">
       <defs>
        <path id="DejaVuSans-15" d="M 1228 531 
L 3431 531 
L 3431 0 
L 469 0 
L 469 531 
Q 828 903 1448 1529 
Q 2069 2156 2228 2338 
Q 2531 2678 2651 2914 
Q 2772 3150 2772 3378 
Q 2772 3750 2511 3984 
Q 2250 4219 1831 4219 
Q 1534 4219 1204 4116 
Q 875 4013 500 3803 
L 500 4441 
Q 881 4594 1212 4672 
Q 1544 4750 1819 4750 
Q 2544 4750 2975 4387 
Q 3406 4025 3406 3419 
Q 3406 3131 3298 2873 
Q 3191 2616 2906 2266 
Q 2828 2175 2409 1742 
Q 1991 1309 1228 531 
z
" transform="scale(0.015625)"/>
       </defs>
       <use xlink:href="#DejaVuSans-15"/>
       <use xlink:href="#DejaVuSans-13" transform="translate(63.625 0)"/>
      </g>
     </g>
    </g>
    <g id="xtick_4">
     <g id="line2d_7">
      <path d="M 269.298654 183.56279 
L 269.298654 33.847924 
" clip-path="url(#p2ff57d9c47)" style="fill: none; stroke: #b0b0b0; stroke-width: 0.8; stroke-linecap: square"/>
     </g>
     <g id="line2d_8">
      <g>
       <use xlink:href="#m85d1686e22" x="269.298654" y="183.56279" style="stroke: #000000; stroke-width: 0.8"/>
      </g>
     </g>
     <g id="text_4">
      <!-- 30 -->
      <g transform="translate(262.936154 198.160446) scale(0.1 -0.1)">
       <defs>
        <path id="DejaVuSans-16" d="M 2597 2516 
Q 3050 2419 3304 2112 
Q 3559 1806 3559 1356 
Q 3559 666 3084 287 
Q 2609 -91 1734 -91 
Q 1441 -91 1130 -33 
Q 819 25 488 141 
L 488 750 
Q 750 597 1062 519 
Q 1375 441 1716 441 
Q 2309 441 2620 675 
Q 2931 909 2931 1356 
Q 2931 1769 2642 2001 
Q 2353 2234 1838 2234 
L 1294 2234 
L 1294 2753 
L 1863 2753 
Q 2328 2753 2575 2939 
Q 2822 3125 2822 3475 
Q 2822 3834 2567 4026 
Q 2313 4219 1838 4219 
Q 1578 4219 1281 4162 
Q 984 4106 628 3988 
L 628 4550 
Q 988 4650 1302 4700 
Q 1616 4750 1894 4750 
Q 2613 4750 3031 4423 
Q 3450 4097 3450 3541 
Q 3450 3153 3228 2886 
Q 3006 2619 2597 2516 
z
" transform="scale(0.015625)"/>
       </defs>
       <use xlink:href="#DejaVuSans-16"/>
       <use xlink:href="#DejaVuSans-13" transform="translate(63.625 0)"/>
      </g>
     </g>
    </g>
    <g id="xtick_5">
     <g id="line2d_9">
      <path d="M 336.192432 183.56279 
L 336.192432 33.847924 
" clip-path="url(#p2ff57d9c47)" style="fill: none; stroke: #b0b0b0; stroke-width: 0.8; stroke-linecap: square"/>
     </g>
     <g id="line2d_10">
      <g>
       <use xlink:href="#m85d1686e22" x="336.192432" y="183.56279" style="stroke: #000000; stroke-width: 0.8"/>
      </g>
     </g>
     <g id="text_5">
      <!-- 40 -->
      <g transform="translate(329.829932 198.160446) scale(0.1 -0.1)">
       <defs>
        <path id="DejaVuSans-17" d="M 2419 4116 
L 825 1625 
L 2419 1625 
L 2419 4116 
z
M 2253 4666 
L 3047 4666 
L 3047 1625 
L 3713 1625 
L 3713 1100 
L 3047 1100 
L 3047 0 
L 2419 0 
L 2419 1100 
L 313 1100 
L 313 1709 
L 2253 4666 
z
" transform="scale(0.015625)"/>
       </defs>
       <use xlink:href="#DejaVuSans-17"/>
       <use xlink:href="#DejaVuSans-13" transform="translate(63.625 0)"/>
      </g>
     </g>
    </g>
    <g id="xtick_6">
     <g id="line2d_11">
      <path d="M 403.08621 183.56279 
L 403.08621 33.847924 
" clip-path="url(#p2ff57d9c47)" style="fill: none; stroke: #b0b0b0; stroke-width: 0.8; stroke-linecap: square"/>
     </g>
     <g id="line2d_12">
      <g>
       <use xlink:href="#m85d1686e22" x="403.08621" y="183.56279" style="stroke: #000000; stroke-width: 0.8"/>
      </g>
     </g>
     <g id="text_6">
      <!-- 50 -->
      <g transform="translate(396.72371 198.160446) scale(0.1 -0.1)">
       <defs>
        <path id="DejaVuSans-18" d="M 691 4666 
L 3169 4666 
L 3169 4134 
L 1269 4134 
L 1269 2991 
Q 1406 3038 1543 3061 
Q 1681 3084 1819 3084 
Q 2600 3084 3056 2656 
Q 3513 2228 3513 1497 
Q 3513 744 3044 326 
Q 2575 -91 1722 -91 
Q 1428 -91 1123 -41 
Q 819 9 494 109 
L 494 744 
Q 775 591 1075 516 
Q 1375 441 1709 441 
Q 2250 441 2565 725 
Q 2881 1009 2881 1497 
Q 2881 1984 2565 2268 
Q 2250 2553 1709 2553 
Q 1456 2553 1204 2497 
Q 953 2441 691 2322 
L 691 4666 
z
" transform="scale(0.015625)"/>
       </defs>
       <use xlink:href="#DejaVuSans-18"/>
       <use xlink:href="#DejaVuSans-13" transform="translate(63.625 0)"/>
      </g>
     </g>
    </g>
    <g id="xtick_7">
     <g id="line2d_13">
      <path d="M 469.979988 183.56279 
L 469.979988 33.847924 
" clip-path="url(#p2ff57d9c47)" style="fill: none; stroke: #b0b0b0; stroke-width: 0.8; stroke-linecap: square"/>
     </g>
     <g id="line2d_14">
      <g>
       <use xlink:href="#m85d1686e22" x="469.979988" y="183.56279" style="stroke: #000000; stroke-width: 0.8"/>
      </g>
     </g>
     <g id="text_7">
      <!-- 60 -->
      <g transform="translate(463.617488 198.160446) scale(0.1 -0.1)">
       <defs>
        <path id="DejaVuSans-19" d="M 2113 2584 
Q 1688 2584 1439 2293 
Q 1191 2003 1191 1497 
Q 1191 994 1439 701 
Q 1688 409 2113 409 
Q 2538 409 2786 701 
Q 3034 994 3034 1497 
Q 3034 2003 2786 2293 
Q 2538 2584 2113 2584 
z
M 3366 4563 
L 3366 3988 
Q 3128 4100 2886 4159 
Q 2644 4219 2406 4219 
Q 1781 4219 1451 3797 
Q 1122 3375 1075 2522 
Q 1259 2794 1537 2939 
Q 1816 3084 2150 3084 
Q 2853 3084 3261 2657 
Q 3669 2231 3669 1497 
Q 3669 778 3244 343 
Q 2819 -91 2113 -91 
Q 1303 -91 875 529 
Q 447 1150 447 2328 
Q 447 3434 972 4092 
Q 1497 4750 2381 4750 
Q 2619 4750 2861 4703 
Q 3103 4656 3366 4563 
z
" transform="scale(0.015625)"/>
       </defs>
       <use xlink:href="#DejaVuSans-19"/>
       <use xlink:href="#DejaVuSans-13" transform="translate(63.625 0)"/>
      </g>
     </g>
    </g>
   </g>
   <g id="matplotlib.axis_2">
    <g id="ytick_1">
     <g id="line2d_15">
      <path d="M 48.682344 149.604012 
L 493.2 149.604012 
" clip-path="url(#p2ff57d9c47)" style="fill: none; stroke: #b0b0b0; stroke-width: 0.8; stroke-linecap: square"/>
     </g>
     <g id="line2d_16">
      <defs>
       <path id="mc219162736" d="M 0 0 
L -3.5 0 
" style="stroke: #000000; stroke-width: 0.8"/>
      </defs>
      <g>
       <use xlink:href="#mc219162736" x="48.682344" y="149.604012" style="stroke: #000000; stroke-width: 0.8"/>
      </g>
     </g>
     <g id="text_8">
      <!-- −1 -->
      <g transform="translate(26.940156 153.40284) scale(0.1 -0.1)">
       <defs>
        <path id="DejaVuSans-c9c" d="M 678 2272 
L 4684 2272 
L 4684 1741 
L 678 1741 
L 678 2272 
z
" transform="scale(0.015625)"/>
       </defs>
       <use xlink:href="#DejaVuSans-c9c"/>
       <use xlink:href="#DejaVuSans-14" transform="translate(83.796875 0)"/>
      </g>
     </g>
    </g>
    <g id="ytick_2">
     <g id="line2d_17">
      <path d="M 48.682344 112.36024 
L 493.2 112.36024 
" clip-path="url(#p2ff57d9c47)" style="fill: none; stroke: #b0b0b0; stroke-width: 0.8; stroke-linecap: square"/>
     </g>
     <g id="line2d_18">
      <g>
       <use xlink:href="#mc219162736" x="48.682344" y="112.36024" style="stroke: #000000; stroke-width: 0.8"/>
      </g>
     </g>
     <g id="text_9">
      <!-- 0 -->
      <g transform="translate(35.319844 116.159068) scale(0.1 -0.1)">
       <use xlink:href="#DejaVuSans-13"/>
      </g>
     </g>
    </g>
    <g id="ytick_3">
     <g id="line2d_19">
      <path d="M 48.682344 75.116468 
L 493.2 75.116468 
" clip-path="url(#p2ff57d9c47)" style="fill: none; stroke: #b0b0b0; stroke-width: 0.8; stroke-linecap: square"/>
     </g>
     <g id="line2d_20">
      <g>
       <use xlink:href="#mc219162736" x="48.682344" y="75.116468" style="stroke: #000000; stroke-width: 0.8"/>
      </g>
     </g>
     <g id="text_10">
      <!-- 1 -->
      <g transform="translate(35.319844 78.915296) scale(0.1 -0.1)">
       <use xlink:href="#DejaVuSans-14"/>
      </g>
     </g>
    </g>
    <g id="ytick_4">
     <g id="line2d_21">
      <path d="M 48.682344 37.872696 
L 493.2 37.872696 
" clip-path="url(#p2ff57d9c47)" style="fill: none; stroke: #b0b0b0; stroke-width: 0.8; stroke-linecap: square"/>
     </g>
     <g id="line2d_22">
      <g>
       <use xlink:href="#mc219162736" x="48.682344" y="37.872696" style="stroke: #000000; stroke-width: 0.8"/>
      </g>
     </g>
     <g id="text_11">
      <!-- 2 -->
      <g transform="translate(35.319844 41.671524) scale(0.1 -0.1)">
       <use xlink:href="#DejaVuSans-15"/>
      </g>
     </g>
    </g>
    <g id="text_12">
     <!-- $v_1$ [$m/s^2$] -->
     <g transform="translate(20.537813 131.305357) rotate(-90) scale(0.1 -0.1)">
      <defs>
       <path id="DejaVuSans-Oblique-59" d="M 459 3500 
L 1069 3500 
L 1581 525 
L 3256 3500 
L 3866 3500 
L 1875 0 
L 1100 0 
L 459 3500 
z
" transform="scale(0.015625)"/>
       <path id="DejaVuSans-3" transform="scale(0.015625)"/>
       <path id="DejaVuSans-3e" d="M 550 4863 
L 1875 4863 
L 1875 4416 
L 1125 4416 
L 1125 -397 
L 1875 -397 
L 1875 -844 
L 550 -844 
L 550 4863 
z
" transform="scale(0.015625)"/>
       <path id="DejaVuSans-Oblique-50" d="M 5747 2113 
L 5338 0 
L 4763 0 
L 5166 2094 
Q 5191 2228 5203 2325 
Q 5216 2422 5216 2491 
Q 5216 2772 5059 2928 
Q 4903 3084 4622 3084 
Q 4203 3084 3875 2770 
Q 3547 2456 3450 1953 
L 3066 0 
L 2491 0 
L 2900 2094 
Q 2925 2209 2937 2307 
Q 2950 2406 2950 2484 
Q 2950 2769 2794 2926 
Q 2638 3084 2363 3084 
Q 1938 3084 1609 2770 
Q 1281 2456 1184 1953 
L 800 0 
L 225 0 
L 909 3500 
L 1484 3500 
L 1375 2956 
Q 1609 3263 1923 3423 
Q 2238 3584 2597 3584 
Q 2978 3584 3223 3384 
Q 3469 3184 3519 2828 
Q 3781 3197 4126 3390 
Q 4472 3584 4856 3584 
Q 5306 3584 5551 3325 
Q 5797 3066 5797 2591 
Q 5797 2488 5784 2364 
Q 5772 2241 5747 2113 
z
" transform="scale(0.015625)"/>
       <path id="DejaVuSans-12" d="M 1625 4666 
L 2156 4666 
L 531 -594 
L 0 -594 
L 1625 4666 
z
" transform="scale(0.015625)"/>
       <path id="DejaVuSans-Oblique-56" d="M 3200 3397 
L 3091 2853 
Q 2863 2978 2609 3040 
Q 2356 3103 2088 3103 
Q 1634 3103 1373 2948 
Q 1113 2794 1113 2528 
Q 1113 2219 1719 2053 
Q 1766 2041 1788 2034 
L 1972 1978 
Q 2547 1819 2739 1644 
Q 2931 1469 2931 1166 
Q 2931 609 2489 259 
Q 2047 -91 1331 -91 
Q 1053 -91 747 -37 
Q 441 16 72 128 
L 184 722 
Q 500 559 806 475 
Q 1113 391 1394 391 
Q 1816 391 2080 572 
Q 2344 753 2344 1031 
Q 2344 1331 1650 1516 
L 1591 1531 
L 1394 1581 
Q 956 1697 753 1886 
Q 550 2075 550 2369 
Q 550 2928 970 3256 
Q 1391 3584 2113 3584 
Q 2397 3584 2667 3537 
Q 2938 3491 3200 3397 
z
" transform="scale(0.015625)"/>
       <path id="DejaVuSans-40" d="M 1947 4863 
L 1947 -844 
L 622 -844 
L 622 -397 
L 1369 -397 
L 1369 4416 
L 622 4416 
L 622 4863 
L 1947 4863 
z
" transform="scale(0.015625)"/>
      </defs>
      <use xlink:href="#DejaVuSans-Oblique-59" transform="translate(0 0.746875)"/>
      <use xlink:href="#DejaVuSans-14" transform="translate(59.179688 -14.253076) scale(0.7)"/>
      <use xlink:href="#DejaVuSans-3" transform="translate(106.450195 0.746875)"/>
      <use xlink:href="#DejaVuSans-3e" transform="translate(138.237305 0.746875)"/>
      <use xlink:href="#DejaVuSans-Oblique-50" transform="translate(177.250977 0.746875)"/>
      <use xlink:href="#DejaVuSans-12" transform="translate(274.663086 0.746875)"/>
      <use xlink:href="#DejaVuSans-Oblique-56" transform="translate(308.354492 0.746875)"/>
      <use xlink:href="#DejaVuSans-15" transform="translate(365.103997 42.046875) scale(0.7)"/>
      <use xlink:href="#DejaVuSans-40" transform="translate(412.374505 0.746875)"/>
     </g>
    </g>
   </g>
   <g id="line2d_23">
    <path d="M 68.887692 123.53349 
L 75.445562 123.568002 
L 75.913006 123.746526 
L 76.380095 123.775564 
L 76.851811 123.651157 
L 77.320141 123.655028 
L 77.78561 123.984309 
L 78.255088 123.463796 
L 78.723541 123.563112 
L 79.190485 124.253586 
L 79.65709 124.307498 
L 80.126764 123.992892 
L 80.596367 124.009332 
L 81.062705 124.734269 
L 81.534456 124.809288 
L 81.999393 124.352056 
L 82.470167 124.378485 
L 82.93772 126.757139 
L 83.405458 126.961686 
L 83.873558 123.656817 
L 84.342946 125.886963 
L 84.808672 124.797437 
L 85.277668 126.691703 
L 85.747328 126.773662 
L 86.214582 125.133956 
L 86.683876 126.172526 
L 87.153347 126.55899 
L 87.618993 123.372396 
L 88.088019 129.143716 
L 88.556889 125.226057 
L 89.023793 127.141752 
L 89.493121 125.133514 
L 89.963414 131.82741 
L 90.429909 132.001056 
L 90.895904 126.294064 
L 91.363827 126.679086 
L 91.833618 132.027735 
L 92.303032 124.301682 
L 92.771491 126.028179 
L 93.237512 123.151905 
L 93.70852 129.170947 
L 94.644122 123.588234 
L 95.111037 123.536223 
L 95.57925 124.539992 
L 96.048322 126.359021 
L 96.518186 123.478534 
L 96.985575 123.072587 
L 97.452209 123.03806 
L 97.920644 123.930599 
L 98.389746 124.033539 
L 98.858843 123.39376 
L 99.328023 123.03506 
L 100.731008 123.163941 
L 101.200079 122.960734 
L 101.667331 122.966585 
L 102.606168 100.28211 
L 103.072 99.895007 
L 103.538773 99.699604 
L 104.010215 99.242976 
L 104.477377 99.01494 
L 104.943965 98.489395 
L 105.415364 98.258361 
L 105.882204 97.729812 
L 106.350412 97.977915 
L 106.818431 97.51967 
L 107.286015 97.356336 
L 107.754378 96.986847 
L 108.692099 96.979544 
L 109.627755 97.734216 
L 110.565964 99.075463 
L 111.031805 100.390896 
L 111.500667 100.798193 
L 111.971249 100.978211 
L 112.437471 100.469463 
L 112.906736 100.752796 
L 113.37557 116.000562 
L 113.840158 115.421409 
L 114.309747 114.272289 
L 114.779168 114.480968 
L 115.24681 113.711218 
L 115.714975 116.172232 
L 117.117818 109.782535 
L 117.586452 109.662462 
L 118.058513 108.318761 
L 118.523466 108.726252 
L 118.992528 107.065266 
L 119.929761 99.777618 
L 120.398709 100.189592 
L 120.866953 97.781766 
L 121.33256 96.523808 
L 121.802476 93.818181 
L 122.270344 93.885851 
L 122.738401 92.815062 
L 123.208592 94.398714 
L 123.675098 94.81215 
L 124.14564 97.41717 
L 124.611233 97.621017 
L 125.079106 104.525201 
L 125.547822 102.714406 
L 126.016281 102.255978 
L 126.484268 101.16839 
L 126.953325 101.648434 
L 127.42295 100.829914 
L 127.888573 101.346466 
L 128.356943 100.144587 
L 128.825821 100.286205 
L 129.293558 98.691447 
L 129.763595 108.69174 
L 130.232292 106.279157 
L 130.70189 108.450006 
L 131.16985 103.704583 
L 131.635046 105.506817 
L 132.105599 99.867295 
L 132.573322 101.297976 
L 133.040632 95.854869 
L 133.507511 97.617589 
L 133.976555 98.308411 
L 134.445756 110.649143 
L 134.91451 104.425189 
L 135.380985 107.533408 
L 135.849271 99.180206 
L 136.318366 102.756709 
L 136.787851 98.604908 
L 137.25557 101.414081 
L 137.725247 98.434796 
L 138.190208 103.123412 
L 138.660675 97.966344 
L 139.128093 119.182242 
L 139.594604 117.961479 
L 140.064957 118.263367 
L 140.533546 104.746375 
L 141.469442 97.869093 
L 141.938656 98.88846 
L 142.874888 100.238645 
L 143.340172 100.547791 
L 143.809909 102.732006 
L 144.277475 101.138353 
L 144.745689 105.769059 
L 145.215079 101.047416 
L 145.681509 103.239463 
L 146.150688 101.14135 
L 147.087296 101.211803 
L 148.491467 101.212321 
L 149.898609 101.002966 
L 151.301514 100.985229 
L 152.708651 100.839082 
L 153.174185 101.015373 
L 154.580142 100.620997 
L 159.261876 101.133237 
L 159.730988 106.665178 
L 160.200665 118.691193 
L 160.666311 123.593884 
L 162.074119 123.817808 
L 162.539516 123.933019 
L 163.476501 124.596677 
L 164.416251 126.063253 
L 165.351701 128.641815 
L 165.818056 130.528385 
L 166.755248 133.437079 
L 167.224491 132.833657 
L 167.690918 132.535396 
L 168.159209 131.161503 
L 168.629981 129.35085 
L 170.031976 122.711622 
L 170.501568 106.014128 
L 170.967786 105.996885 
L 171.438982 107.200094 
L 171.905783 107.500975 
L 172.373918 109.778081 
L 172.842531 111.146719 
L 173.309638 113.685213 
L 173.776953 114.304699 
L 174.246254 116.9144 
L 174.714045 117.560421 
L 175.186438 121.059631 
L 175.650787 121.984227 
L 176.119085 126.090322 
L 176.588917 128.627253 
L 177.057754 133.10119 
L 177.526912 135.913944 
L 177.993534 141.411605 
L 178.460175 141.576793 
L 178.92961 143.828118 
L 179.398544 140.994563 
L 179.864451 142.65077 
L 180.333557 139.562971 
L 180.80377 140.562951 
L 181.271666 126.522896 
L 181.739461 130.271231 
L 182.209594 130.599423 
L 182.675715 133.246876 
L 183.142551 132.541781 
L 183.611882 133.370971 
L 184.080227 131.613531 
L 184.549626 131.93436 
L 185.016327 130.540161 
L 185.484645 131.038941 
L 185.95129 124.507321 
L 186.422333 108.590741 
L 186.890122 108.310549 
L 187.357862 109.919449 
L 187.829304 109.710897 
L 188.296844 119.662614 
L 188.763493 122.272105 
L 189.232924 128.758417 
L 190.167823 124.309065 
L 190.635421 122.218867 
L 192.043154 118.49345 
L 192.979362 118.096277 
L 193.445968 119.271638 
L 193.915973 119.767248 
L 194.382082 120.671048 
L 194.848945 121.21268 
L 195.319926 122.56493 
L 195.786525 123.52542 
L 196.256211 124.100328 
L 196.722078 125.309756 
L 197.189747 125.862052 
L 197.661561 127.235874 
L 198.129745 127.318856 
L 198.596733 128.313638 
L 199.066969 127.855922 
L 199.532602 128.357512 
L 200.002896 125.669571 
L 200.471133 126.394296 
L 201.408103 126.473398 
L 201.874149 125.409463 
L 202.811929 123.904813 
L 203.748264 123.106756 
L 204.216198 122.776206 
L 205.149853 120.790299 
L 205.620571 108.9533 
L 206.089639 106.282296 
L 206.556224 99.15668 
L 207.026163 98.40892 
L 207.491768 97.934365 
L 207.963105 96.69194 
L 208.431845 95.852198 
L 208.896399 93.81562 
L 209.368156 92.376091 
L 209.834332 90.468352 
L 210.301803 88.06276 
L 210.77029 82.887813 
L 211.238646 79.286496 
L 211.709338 72.906253 
L 212.177391 69.521963 
L 212.643788 63.983677 
L 213.111715 63.684266 
L 213.582052 64.904209 
L 214.048282 66.972836 
L 214.985191 80.494667 
L 215.453372 83.955274 
L 215.921635 89.057895 
L 216.392229 88.598985 
L 216.858037 89.330873 
L 217.32724 85.945321 
L 217.794273 88.181212 
L 218.263268 87.952341 
L 218.731889 91.543984 
L 219.19891 96.425744 
L 219.669688 97.059743 
L 220.138463 94.301367 
L 220.602813 94.537246 
L 221.073792 94.604 
L 221.539205 96.778687 
L 222.009031 97.684366 
L 222.478529 98.994118 
L 222.945336 99.236588 
L 223.415217 99.816426 
L 223.883572 100.574951 
L 224.352371 104.05678 
L 224.816938 103.676126 
L 225.28652 114.027134 
L 225.755925 114.43189 
L 226.222883 122.075894 
L 226.694079 120.768921 
L 227.160405 121.996548 
L 227.629221 120.717243 
L 228.097862 121.689496 
L 228.564344 121.874957 
L 229.03332 121.907201 
L 229.501214 115.158048 
L 229.968312 111.0527 
L 230.437702 100.519416 
L 231.372655 102.219307 
L 232.311552 103.020838 
L 232.778285 102.938982 
L 233.248054 102.544876 
L 233.714364 102.486645 
L 234.18383 102.845698 
L 234.65046 102.753149 
L 235.120191 102.451571 
L 236.057233 101.147275 
L 236.526556 101.908903 
L 236.993654 102.387576 
L 237.460754 113.71006 
L 237.930084 121.025259 
L 238.397972 120.819063 
L 238.868028 120.189143 
L 239.801723 120.327757 
L 240.738536 121.71997 
L 242.144814 125.119702 
L 242.612177 126.58002 
L 243.081282 127.560044 
L 243.55104 129.289029 
L 244.018476 130.188313 
L 244.485655 119.202659 
L 244.954949 113.339567 
L 245.422618 109.114303 
L 246.825272 100.078251 
L 247.293354 98.261953 
L 247.762333 103.282244 
L 248.23095 100.472399 
L 248.698908 108.05328 
L 249.166407 105.730574 
L 249.637512 112.883747 
L 250.106567 108.393015 
L 250.573263 112.741228 
L 251.040807 106.060788 
L 251.508745 108.796376 
L 251.978536 117.45805 
L 252.444355 118.880661 
L 252.913686 109.843974 
L 253.383919 111.860731 
L 253.8496 115.00565 
L 254.320393 115.271694 
L 254.787711 116.33927 
L 255.254402 114.555834 
L 255.722069 114.175935 
L 256.191027 112.017892 
L 256.660078 108.74057 
L 257.129466 107.636726 
L 257.59599 107.883377 
L 258.064211 107.134286 
L 259.002358 104.115734 
L 259.470046 102.217523 
L 259.937161 101.520062 
L 260.406516 100.214786 
L 260.873439 101.643749 
L 261.344427 113.044407 
L 261.811626 116.411278 
L 262.277645 111.819688 
L 262.746412 114.069541 
L 263.218034 106.874814 
L 263.684806 108.982589 
L 264.151488 102.410132 
L 264.620461 105.451484 
L 265.087972 102.854706 
L 265.556102 107.349972 
L 266.02335 120.676072 
L 266.492586 121.573159 
L 266.962247 121.435626 
L 267.430406 123.031 
L 267.900442 117.561909 
L 268.366359 118.979715 
L 268.833027 112.96905 
L 269.303406 114.844627 
L 269.774346 111.621729 
L 270.240914 114.542215 
L 270.708123 124.588882 
L 271.177714 127.596712 
L 271.646353 128.489694 
L 272.110848 131.49548 
L 272.580486 127.23833 
L 273.048619 126.57622 
L 273.516101 128.801253 
L 273.987513 126.63567 
L 274.454973 125.395433 
L 274.922139 120.733817 
L 275.388845 113.582687 
L 275.857526 111.056471 
L 276.325228 106.783856 
L 276.79386 105.011053 
L 277.262587 98.428029 
L 277.733095 97.951949 
L 278.20118 89.633429 
L 278.667591 85.936789 
L 279.137977 77.578941 
L 279.605612 76.102817 
L 280.073403 79.598225 
L 280.540079 80.31773 
L 281.007441 77.670783 
L 281.477199 84.948466 
L 282.883452 113.851719 
L 283.818006 128.68887 
L 284.288222 134.446351 
L 284.756595 130.44786 
L 285.222207 125.475354 
L 286.62875 140.185897 
L 287.096824 145.339221 
L 287.564309 144.109017 
L 288.031975 102.510516 
L 288.502045 73.303277 
L 288.970313 82.821875 
L 289.437287 111.327731 
L 289.908976 112.337731 
L 290.375708 94.133336 
L 290.843266 85.020763 
L 291.31063 83.038663 
L 291.778659 89.448428 
L 292.246805 89.568537 
L 292.715291 90.332243 
L 293.18698 86.225553 
L 293.653649 86.599969 
L 294.121257 90.475273 
L 294.586862 91.063852 
L 295.057215 88.688692 
L 295.995169 91.989278 
L 296.46287 95.39603 
L 297.397046 99.55152 
L 298.333997 101.749526 
L 299.274083 103.565229 
L 299.740934 105.256798 
L 300.210216 108.156884 
L 300.676822 123.348524 
L 301.146026 132.906263 
L 301.614069 137.746985 
L 302.080705 141.293316 
L 302.548359 148.853809 
L 303.956828 162.347077 
L 304.424792 172.487753 
L 304.889902 175.839046 
L 305.358716 176.757569 
L 305.825813 174.111942 
L 306.763185 165.361127 
L 307.233419 159.617877 
L 307.699441 155.398596 
L 308.168969 157.746127 
L 310.043216 143.392472 
L 310.508984 138.796827 
L 310.978492 132.337734 
L 311.446197 123.245343 
L 311.915045 123.307773 
L 312.382568 122.513768 
L 312.852041 126.452913 
L 313.320112 125.514362 
L 313.785714 121.654476 
L 314.254877 120.411227 
L 314.725259 119.645311 
L 315.191454 120.531725 
L 316.12966 115.29266 
L 316.595436 109.809146 
L 317.06615 100.182885 
L 317.532751 84.99289 
L 318.001515 80.966575 
L 318.471464 70.449926 
L 318.936572 64.464376 
L 319.406076 53.698585 
L 319.874591 48.560829 
L 320.343337 40.653145 
L 320.811783 42.093764 
L 321.280228 44.482409 
L 321.748414 48.851549 
L 324.558359 92.159286 
L 325.49518 105.119294 
L 325.962783 110.708846 
L 326.43021 103.430068 
L 326.899748 99.590711 
L 327.367933 102.952496 
L 327.834006 101.479355 
L 328.303803 97.880046 
L 328.772488 96.959215 
L 329.241619 99.221405 
L 329.707098 100.850459 
L 330.175101 101.370736 
L 330.648594 101.364079 
L 331.112935 109.185747 
L 331.581168 123.443301 
L 333.923188 123.143689 
L 334.859248 115.728649 
L 335.329262 101.43051 
L 336.264583 101.853598 
L 336.732595 101.916643 
L 338.135735 102.762762 
L 338.60439 102.851983 
L 339.075093 103.178369 
L 339.54306 103.223103 
L 340.010502 103.610516 
L 340.476745 110.174558 
L 340.945141 124.74268 
L 341.413005 124.882411 
L 341.881453 125.677591 
L 342.35201 125.972331 
L 342.819371 121.343677 
L 343.285714 120.906133 
L 343.754525 108.611433 
L 344.224115 107.350746 
L 344.690838 108.372104 
L 345.162031 108.639759 
L 345.630541 108.73725 
L 346.566145 113.491467 
L 347.034047 115.15042 
L 347.50264 118.219469 
L 347.97081 118.174906 
L 348.439075 119.498747 
L 348.907807 117.932109 
L 349.375959 117.909529 
L 349.843623 115.761391 
L 350.31222 111.868227 
L 350.780174 110.172523 
L 351.248507 109.773922 
L 351.717245 108.451508 
L 352.650844 103.82861 
L 353.11925 100.40127 
L 353.587868 98.596425 
L 354.05649 95.048335 
L 354.524244 93.898547 
L 354.994527 93.856125 
L 355.462689 95.777135 
L 355.931637 96.235743 
L 356.397686 99.423334 
L 356.866981 96.936784 
L 357.335107 98.764444 
L 357.804261 98.6415 
L 358.27064 102.039701 
L 358.739304 103.905392 
L 359.206661 108.039835 
L 359.678125 114.101469 
L 360.144198 116.755281 
L 360.615163 118.305031 
L 362.487381 126.40095 
L 363.422468 129.857661 
L 363.891925 130.881254 
L 364.36021 131.279695 
L 364.827064 131.308576 
L 365.2954 131.78812 
L 365.762718 131.311319 
L 366.233209 131.022728 
L 367.168615 128.633469 
L 367.636364 126.86287 
L 368.10634 123.577595 
L 368.572264 118.076682 
L 369.511052 110.719133 
L 369.977227 107.662973 
L 370.447008 108.004072 
L 370.913757 108.925163 
L 371.384204 109.202603 
L 371.850097 110.188814 
L 372.318189 110.445264 
L 372.788391 111.725763 
L 373.724944 122.639898 
L 374.192736 123.245226 
L 374.659963 125.561689 
L 375.129835 126.389921 
L 375.598541 128.135713 
L 376.065683 127.984092 
L 376.532906 128.729848 
L 377.002024 127.581161 
L 377.937427 123.355105 
L 378.408137 119.818275 
L 378.875916 118.187884 
L 379.344456 118.607976 
L 379.813318 118.282245 
L 380.280484 118.867587 
L 380.749062 118.481815 
L 381.21766 119.146152 
L 381.685022 118.529724 
L 382.151373 119.360992 
L 382.62109 117.682698 
L 383.089834 114.12379 
L 383.556807 114.279986 
L 384.026581 115.856627 
L 384.496027 116.129337 
L 384.96092 118.688251 
L 385.430225 119.02649 
L 385.899686 123.267872 
L 386.369667 123.160661 
L 386.836764 124.229139 
L 387.30667 123.190827 
L 387.771535 118.719522 
L 388.240537 116.032692 
L 388.706775 119.110854 
L 389.177008 117.120264 
L 389.64514 120.327865 
L 390.115269 117.875708 
L 390.579932 121.427423 
L 391.050912 119.190283 
L 391.51963 123.923314 
L 391.986319 121.65458 
L 392.454345 115.272607 
L 392.924919 114.198816 
L 393.391166 125.134433 
L 393.858967 125.166611 
L 394.326194 125.407884 
L 394.79627 124.812992 
L 395.265053 124.69164 
L 395.733573 124.22897 
L 396.202151 124.370013 
L 397.136973 123.988179 
L 397.605787 124.193357 
L 398.071808 125.057066 
L 398.53993 125.288779 
L 399.012953 125.848705 
L 399.480479 125.705721 
L 399.946385 126.040778 
L 400.415444 125.78101 
L 400.884494 126.004758 
L 401.350545 125.6533 
L 401.818445 123.393748 
L 402.28962 116.727957 
L 402.757285 125.047579 
L 403.693898 124.7481 
L 404.160028 124.36121 
L 405.566743 123.740321 
L 406.971273 123.544746 
L 441.152984 123.533377 
L 441.622955 115.256026 
L 442.089194 101.18712 
L 459.413502 101.135151 
L 461.288866 100.854735 
L 462.694101 101.022113 
L 465.034863 101.331671 
L 466.908413 101.26018 
L 468.314354 101.153497 
L 469.717004 101.174783 
L 470.65257 101.086879 
L 471.121531 101.166094 
L 471.58983 101.130987 
L 472.059426 121.653437 
L 472.525264 123.460064 
L 472.994652 123.492278 
L 472.994652 123.492278 
" clip-path="url(#p2ff57d9c47)" style="fill: none; stroke: #1f77b4; stroke-width: 1.5; stroke-linecap: square"/>
   </g>
   <g id="patch_3">
    <path d="M 48.682344 183.56279 
L 48.682344 33.847924 
" style="fill: none; stroke: #000000; stroke-width: 0.8; stroke-linejoin: miter; stroke-linecap: square"/>
   </g>
   <g id="patch_4">
    <path d="M 493.2 183.56279 
L 493.2 33.847924 
" style="fill: none; stroke: #000000; stroke-width: 0.8; stroke-linejoin: miter; stroke-linecap: square"/>
   </g>
   <g id="patch_5">
    <path d="M 48.682344 183.56279 
L 493.2 183.56279 
" style="fill: none; stroke: #000000; stroke-width: 0.8; stroke-linejoin: miter; stroke-linecap: square"/>
   </g>
   <g id="patch_6">
    <path d="M 48.682344 33.847924 
L 493.2 33.847924 
" style="fill: none; stroke: #000000; stroke-width: 0.8; stroke-linejoin: miter; stroke-linecap: square"/>
   </g>
   <g id="legend_1">
    <g id="patch_7">
     <path d="M 443.5 56.848705 
L 486.2 56.848705 
Q 488.2 56.848705 488.2 54.848705 
L 488.2 40.847924 
Q 488.2 38.847924 486.2 38.847924 
L 443.5 38.847924 
Q 441.5 38.847924 441.5 40.847924 
L 441.5 54.848705 
Q 441.5 56.848705 443.5 56.848705 
z
" style="fill: #ffffff; opacity: 0.8; stroke: #cccccc; stroke-linejoin: miter"/>
    </g>
    <g id="line2d_24">
     <path d="M 445.5 46.946362 
L 455.5 46.946362 
L 465.5 46.946362 
" style="fill: none; stroke: #1f77b4; stroke-width: 1.5; stroke-linecap: square"/>
    </g>
    <g id="text_13">
     <!-- $v_1$ -->
     <g transform="translate(473.5 50.446362) scale(0.1 -0.1)">
      <use xlink:href="#DejaVuSans-Oblique-59" transform="translate(0 0.3125)"/>
      <use xlink:href="#DejaVuSans-14" transform="translate(59.179688 -14.687451) scale(0.7)"/>
     </g>
    </g>
   </g>
  </g>
  <g id="axes_2">
   <g id="patch_8">
    <path d="M 48.682344 361.077656 
L 493.2 361.077656 
L 493.2 211.36279 
L 48.682344 211.36279 
z
" style="fill: #ffffff"/>
   </g>
   <g id="matplotlib.axis_3">
    <g id="xtick_8">
     <g id="line2d_25">
      <path d="M 68.61732 361.077656 
L 68.61732 211.36279 
" clip-path="url(#p5222f55e9b)" style="fill: none; stroke: #b0b0b0; stroke-width: 0.8; stroke-linecap: square"/>
     </g>
     <g id="line2d_26">
      <g>
       <use xlink:href="#m85d1686e22" x="68.61732" y="361.077656" style="stroke: #000000; stroke-width: 0.8"/>
      </g>
     </g>
     <g id="text_14">
      <!-- 0 -->
      <g transform="translate(65.43607 375.675313) scale(0.1 -0.1)">
       <use xlink:href="#DejaVuSans-13"/>
      </g>
     </g>
    </g>
    <g id="xtick_9">
     <g id="line2d_27">
      <path d="M 135.511098 361.077656 
L 135.511098 211.36279 
" clip-path="url(#p5222f55e9b)" style="fill: none; stroke: #b0b0b0; stroke-width: 0.8; stroke-linecap: square"/>
     </g>
     <g id="line2d_28">
      <g>
       <use xlink:href="#m85d1686e22" x="135.511098" y="361.077656" style="stroke: #000000; stroke-width: 0.8"/>
      </g>
     </g>
     <g id="text_15">
      <!-- 10 -->
      <g transform="translate(129.148598 375.675313) scale(0.1 -0.1)">
       <use xlink:href="#DejaVuSans-14"/>
       <use xlink:href="#DejaVuSans-13" transform="translate(63.625 0)"/>
      </g>
     </g>
    </g>
    <g id="xtick_10">
     <g id="line2d_29">
      <path d="M 202.404876 361.077656 
L 202.404876 211.36279 
" clip-path="url(#p5222f55e9b)" style="fill: none; stroke: #b0b0b0; stroke-width: 0.8; stroke-linecap: square"/>
     </g>
     <g id="line2d_30">
      <g>
       <use xlink:href="#m85d1686e22" x="202.404876" y="361.077656" style="stroke: #000000; stroke-width: 0.8"/>
      </g>
     </g>
     <g id="text_16">
      <!-- 20 -->
      <g transform="translate(196.042376 375.675313) scale(0.1 -0.1)">
       <use xlink:href="#DejaVuSans-15"/>
       <use xlink:href="#DejaVuSans-13" transform="translate(63.625 0)"/>
      </g>
     </g>
    </g>
    <g id="xtick_11">
     <g id="line2d_31">
      <path d="M 269.298654 361.077656 
L 269.298654 211.36279 
" clip-path="url(#p5222f55e9b)" style="fill: none; stroke: #b0b0b0; stroke-width: 0.8; stroke-linecap: square"/>
     </g>
     <g id="line2d_32">
      <g>
       <use xlink:href="#m85d1686e22" x="269.298654" y="361.077656" style="stroke: #000000; stroke-width: 0.8"/>
      </g>
     </g>
     <g id="text_17">
      <!-- 30 -->
      <g transform="translate(262.936154 375.675313) scale(0.1 -0.1)">
       <use xlink:href="#DejaVuSans-16"/>
       <use xlink:href="#DejaVuSans-13" transform="translate(63.625 0)"/>
      </g>
     </g>
    </g>
    <g id="xtick_12">
     <g id="line2d_33">
      <path d="M 336.192432 361.077656 
L 336.192432 211.36279 
" clip-path="url(#p5222f55e9b)" style="fill: none; stroke: #b0b0b0; stroke-width: 0.8; stroke-linecap: square"/>
     </g>
     <g id="line2d_34">
      <g>
       <use xlink:href="#m85d1686e22" x="336.192432" y="361.077656" style="stroke: #000000; stroke-width: 0.8"/>
      </g>
     </g>
     <g id="text_18">
      <!-- 40 -->
      <g transform="translate(329.829932 375.675313) scale(0.1 -0.1)">
       <use xlink:href="#DejaVuSans-17"/>
       <use xlink:href="#DejaVuSans-13" transform="translate(63.625 0)"/>
      </g>
     </g>
    </g>
    <g id="xtick_13">
     <g id="line2d_35">
      <path d="M 403.08621 361.077656 
L 403.08621 211.36279 
" clip-path="url(#p5222f55e9b)" style="fill: none; stroke: #b0b0b0; stroke-width: 0.8; stroke-linecap: square"/>
     </g>
     <g id="line2d_36">
      <g>
       <use xlink:href="#m85d1686e22" x="403.08621" y="361.077656" style="stroke: #000000; stroke-width: 0.8"/>
      </g>
     </g>
     <g id="text_19">
      <!-- 50 -->
      <g transform="translate(396.72371 375.675313) scale(0.1 -0.1)">
       <use xlink:href="#DejaVuSans-18"/>
       <use xlink:href="#DejaVuSans-13" transform="translate(63.625 0)"/>
      </g>
     </g>
    </g>
    <g id="xtick_14">
     <g id="line2d_37">
      <path d="M 469.979988 361.077656 
L 469.979988 211.36279 
" clip-path="url(#p5222f55e9b)" style="fill: none; stroke: #b0b0b0; stroke-width: 0.8; stroke-linecap: square"/>
     </g>
     <g id="line2d_38">
      <g>
       <use xlink:href="#m85d1686e22" x="469.979988" y="361.077656" style="stroke: #000000; stroke-width: 0.8"/>
      </g>
     </g>
     <g id="text_20">
      <!-- 60 -->
      <g transform="translate(463.617488 375.675313) scale(0.1 -0.1)">
       <use xlink:href="#DejaVuSans-19"/>
       <use xlink:href="#DejaVuSans-13" transform="translate(63.625 0)"/>
      </g>
     </g>
    </g>
    <g id="text_21">
     <!-- Time [s] -->
     <g transform="translate(250.609922 389.676094) scale(0.1 -0.1)">
      <defs>
       <path id="DejaVuSans-37" d="M -19 4666 
L 3928 4666 
L 3928 4134 
L 2272 4134 
L 2272 0 
L 1638 0 
L 1638 4134 
L -19 4134 
L -19 4666 
z
" transform="scale(0.015625)"/>
       <path id="DejaVuSans-4c" d="M 603 3500 
L 1178 3500 
L 1178 0 
L 603 0 
L 603 3500 
z
M 603 4863 
L 1178 4863 
L 1178 4134 
L 603 4134 
L 603 4863 
z
" transform="scale(0.015625)"/>
       <path id="DejaVuSans-50" d="M 3328 2828 
Q 3544 3216 3844 3400 
Q 4144 3584 4550 3584 
Q 5097 3584 5394 3201 
Q 5691 2819 5691 2113 
L 5691 0 
L 5113 0 
L 5113 2094 
Q 5113 2597 4934 2840 
Q 4756 3084 4391 3084 
Q 3944 3084 3684 2787 
Q 3425 2491 3425 1978 
L 3425 0 
L 2847 0 
L 2847 2094 
Q 2847 2600 2669 2842 
Q 2491 3084 2119 3084 
Q 1678 3084 1418 2786 
Q 1159 2488 1159 1978 
L 1159 0 
L 581 0 
L 581 3500 
L 1159 3500 
L 1159 2956 
Q 1356 3278 1631 3431 
Q 1906 3584 2284 3584 
Q 2666 3584 2933 3390 
Q 3200 3197 3328 2828 
z
" transform="scale(0.015625)"/>
       <path id="DejaVuSans-48" d="M 3597 1894 
L 3597 1613 
L 953 1613 
Q 991 1019 1311 708 
Q 1631 397 2203 397 
Q 2534 397 2845 478 
Q 3156 559 3463 722 
L 3463 178 
Q 3153 47 2828 -22 
Q 2503 -91 2169 -91 
Q 1331 -91 842 396 
Q 353 884 353 1716 
Q 353 2575 817 3079 
Q 1281 3584 2069 3584 
Q 2775 3584 3186 3129 
Q 3597 2675 3597 1894 
z
M 3022 2063 
Q 3016 2534 2758 2815 
Q 2500 3097 2075 3097 
Q 1594 3097 1305 2825 
Q 1016 2553 972 2059 
L 3022 2063 
z
" transform="scale(0.015625)"/>
       <path id="DejaVuSans-56" d="M 2834 3397 
L 2834 2853 
Q 2591 2978 2328 3040 
Q 2066 3103 1784 3103 
Q 1356 3103 1142 2972 
Q 928 2841 928 2578 
Q 928 2378 1081 2264 
Q 1234 2150 1697 2047 
L 1894 2003 
Q 2506 1872 2764 1633 
Q 3022 1394 3022 966 
Q 3022 478 2636 193 
Q 2250 -91 1575 -91 
Q 1294 -91 989 -36 
Q 684 19 347 128 
L 347 722 
Q 666 556 975 473 
Q 1284 391 1588 391 
Q 1994 391 2212 530 
Q 2431 669 2431 922 
Q 2431 1156 2273 1281 
Q 2116 1406 1581 1522 
L 1381 1569 
Q 847 1681 609 1914 
Q 372 2147 372 2553 
Q 372 3047 722 3315 
Q 1072 3584 1716 3584 
Q 2034 3584 2315 3537 
Q 2597 3491 2834 3397 
z
" transform="scale(0.015625)"/>
      </defs>
      <use xlink:href="#DejaVuSans-37"/>
      <use xlink:href="#DejaVuSans-4c" transform="translate(58 0)"/>
      <use xlink:href="#DejaVuSans-50" transform="translate(85.78125 0)"/>
      <use xlink:href="#DejaVuSans-48" transform="translate(183.1875 0)"/>
      <use xlink:href="#DejaVuSans-3" transform="translate(244.71875 0)"/>
      <use xlink:href="#DejaVuSans-3e" transform="translate(276.5 0)"/>
      <use xlink:href="#DejaVuSans-56" transform="translate(315.515625 0)"/>
      <use xlink:href="#DejaVuSans-40" transform="translate(367.609375 0)"/>
     </g>
    </g>
   </g>
   <g id="matplotlib.axis_4">
    <g id="ytick_5">
     <g id="line2d_39">
      <path d="M 48.682344 326.540522 
L 493.2 326.540522 
" clip-path="url(#p5222f55e9b)" style="fill: none; stroke: #b0b0b0; stroke-width: 0.8; stroke-linecap: square"/>
     </g>
     <g id="line2d_40">
      <g>
       <use xlink:href="#mc219162736" x="48.682344" y="326.540522" style="stroke: #000000; stroke-width: 0.8"/>
      </g>
     </g>
     <g id="text_22">
      <!-- −1 -->
      <g transform="translate(26.940156 330.33935) scale(0.1 -0.1)">
       <use xlink:href="#DejaVuSans-c9c"/>
       <use xlink:href="#DejaVuSans-14" transform="translate(83.796875 0)"/>
      </g>
     </g>
    </g>
    <g id="ytick_6">
     <g id="line2d_41">
      <path d="M 48.682344 289.653739 
L 493.2 289.653739 
" clip-path="url(#p5222f55e9b)" style="fill: none; stroke: #b0b0b0; stroke-width: 0.8; stroke-linecap: square"/>
     </g>
     <g id="line2d_42">
      <g>
       <use xlink:href="#mc219162736" x="48.682344" y="289.653739" style="stroke: #000000; stroke-width: 0.8"/>
      </g>
     </g>
     <g id="text_23">
      <!-- 0 -->
      <g transform="translate(35.319844 293.452567) scale(0.1 -0.1)">
       <use xlink:href="#DejaVuSans-13"/>
      </g>
     </g>
    </g>
    <g id="ytick_7">
     <g id="line2d_43">
      <path d="M 48.682344 252.766955 
L 493.2 252.766955 
" clip-path="url(#p5222f55e9b)" style="fill: none; stroke: #b0b0b0; stroke-width: 0.8; stroke-linecap: square"/>
     </g>
     <g id="line2d_44">
      <g>
       <use xlink:href="#mc219162736" x="48.682344" y="252.766955" style="stroke: #000000; stroke-width: 0.8"/>
      </g>
     </g>
     <g id="text_24">
      <!-- 1 -->
      <g transform="translate(35.319844 256.565783) scale(0.1 -0.1)">
       <use xlink:href="#DejaVuSans-14"/>
      </g>
     </g>
    </g>
    <g id="ytick_8">
     <g id="line2d_45">
      <path d="M 48.682344 215.880172 
L 493.2 215.880172 
" clip-path="url(#p5222f55e9b)" style="fill: none; stroke: #b0b0b0; stroke-width: 0.8; stroke-linecap: square"/>
     </g>
     <g id="line2d_46">
      <g>
       <use xlink:href="#mc219162736" x="48.682344" y="215.880172" style="stroke: #000000; stroke-width: 0.8"/>
      </g>
     </g>
     <g id="text_25">
      <!-- 2 -->
      <g transform="translate(35.319844 219.679) scale(0.1 -0.1)">
       <use xlink:href="#DejaVuSans-15"/>
      </g>
     </g>
    </g>
    <g id="text_26">
     <!-- $v_2$ [$m/s^2$] -->
     <g transform="translate(20.537813 308.820223) rotate(-90) scale(0.1 -0.1)">
      <use xlink:href="#DejaVuSans-Oblique-59" transform="translate(0 0.746875)"/>
      <use xlink:href="#DejaVuSans-15" transform="translate(59.179688 -14.253076) scale(0.7)"/>
      <use xlink:href="#DejaVuSans-3" transform="translate(106.450195 0.746875)"/>
      <use xlink:href="#DejaVuSans-3e" transform="translate(138.237305 0.746875)"/>
      <use xlink:href="#DejaVuSans-Oblique-50" transform="translate(177.250977 0.746875)"/>
      <use xlink:href="#DejaVuSans-12" transform="translate(274.663086 0.746875)"/>
      <use xlink:href="#DejaVuSans-Oblique-56" transform="translate(308.354492 0.746875)"/>
      <use xlink:href="#DejaVuSans-15" transform="translate(365.103997 42.046875) scale(0.7)"/>
      <use xlink:href="#DejaVuSans-40" transform="translate(412.374505 0.746875)"/>
     </g>
    </g>
   </g>
   <g id="line2d_47">
    <path d="M 68.887692 289.718898 
L 69.826026 289.808035 
L 70.292188 289.936188 
L 70.763319 289.785305 
L 71.230467 289.895597 
L 71.698994 290.25757 
L 72.168215 289.992422 
L 72.636011 289.155018 
L 73.102579 290.040998 
L 73.571238 291.525678 
L 74.040581 287.794757 
L 74.506695 287.464116 
L 74.974998 292.967848 
L 75.445562 293.72631 
L 75.913006 285.194537 
L 76.380095 284.314855 
L 76.851811 296.226362 
L 77.320141 297.262034 
L 77.78561 281.385976 
L 78.255088 294.766851 
L 78.723541 300.929737 
L 79.190485 277.706142 
L 79.65709 276.346899 
L 80.126764 304.709458 
L 80.596367 306.294391 
L 81.062705 271.856616 
L 81.534456 270.154527 
L 81.999393 311.222046 
L 82.470167 313.099928 
L 82.93772 265.497246 
L 83.405458 263.520394 
L 83.873558 277.986728 
L 84.342946 320.607174 
L 84.808672 322.508398 
L 85.277668 254.464783 
L 85.747328 252.228019 
L 86.214582 321.110439 
L 86.683876 331.838488 
L 87.153347 244.44046 
L 87.618993 274.030246 
L 88.088019 339.515969 
L 88.556889 317.80848 
L 89.023793 233.496343 
L 89.493121 232.191281 
L 89.963414 350.227794 
L 90.429909 353.621838 
L 90.895904 224.027786 
L 91.363827 218.168011 
L 91.833618 354.272435 
L 92.303032 302.72542 
L 92.771491 227.681145 
L 93.237512 264.819393 
L 93.70852 336.453356 
L 94.175462 319.660541 
L 94.644122 256.935333 
L 95.111037 255.479696 
L 95.57925 302.023794 
L 96.048322 316.44993 
L 96.518186 288.347593 
L 96.985575 269.576841 
L 97.452209 278.88838 
L 97.920644 294.016985 
L 98.389746 294.829394 
L 98.858843 287.379166 
L 99.328023 282.085423 
L 99.794297 283.112118 
L 100.264026 284.681171 
L 100.731008 285.570388 
L 101.200079 283.989435 
L 101.667331 284.517405 
L 102.134103 283.958448 
L 102.606168 284.395974 
L 103.072 282.684797 
L 103.538773 282.509457 
L 104.010215 281.224269 
L 104.477377 281.331624 
L 104.943965 280.368904 
L 105.415364 280.76163 
L 105.882204 280.240277 
L 106.350412 282.703982 
L 106.818431 282.442129 
L 107.286015 282.924167 
L 107.754378 282.964171 
L 109.161135 285.941484 
L 109.627755 287.149948 
L 111.031805 292.178534 
L 111.500667 292.856261 
L 111.971249 293.1838 
L 112.437471 292.638554 
L 112.906736 291.7662 
L 113.37557 276.812264 
L 113.840158 276.414748 
L 114.309747 275.530122 
L 114.779168 276.154867 
L 115.24681 275.831591 
L 115.714975 278.413171 
L 117.117818 274.367456 
L 117.586452 274.790106 
L 118.058513 274.515995 
L 118.523466 275.249826 
L 118.992528 274.902876 
L 119.463559 284.474033 
L 119.929761 287.973708 
L 120.398709 297.451011 
L 120.866953 297.123479 
L 121.33256 297.21982 
L 121.802476 297.192393 
L 122.738401 298.62305 
L 123.675098 300.520648 
L 124.14564 301.278567 
L 124.611233 289.273157 
L 125.079106 296.951931 
L 125.547822 284.025283 
L 126.016281 280.540193 
L 126.484268 281.038387 
L 126.953325 281.175193 
L 127.42295 281.694219 
L 127.888573 281.794437 
L 128.356943 282.517436 
L 128.825821 282.751831 
L 129.293558 283.784196 
L 129.763595 296.493073 
L 130.232292 296.921349 
L 130.70189 303.305528 
L 131.16985 300.883689 
L 131.635046 303.096297 
L 132.105599 296.976374 
L 132.573322 296.231942 
L 133.040632 289.604936 
L 133.507511 288.531979 
L 133.976555 288.291892 
L 134.445756 293.63047 
L 134.91451 289.079453 
L 135.380985 292.596871 
L 135.849271 288.429166 
L 136.318366 291.413698 
L 136.787851 289.72345 
L 137.25557 291.26017 
L 137.725247 290.665703 
L 138.190208 293.441349 
L 138.660675 292.26332 
L 139.128093 300.620083 
L 140.064957 303.268446 
L 140.533546 299.603201 
L 141.003022 297.71744 
L 141.469442 296.568444 
L 141.938656 294.656222 
L 142.407194 293.48672 
L 142.874888 291.505371 
L 143.340172 290.666956 
L 143.809909 288.937763 
L 144.277475 288.584729 
L 144.745689 289.800905 
L 145.215079 289.036818 
L 145.681509 289.290515 
L 146.150688 288.680225 
L 146.618212 288.390309 
L 147.557194 288.368829 
L 148.025172 288.655728 
L 148.491467 288.432479 
L 148.962515 288.870892 
L 149.429676 289.107578 
L 149.898609 289.561568 
L 150.36744 289.56795 
L 150.833838 289.882722 
L 151.301514 289.814972 
L 151.772888 290.252364 
L 152.237257 290.276975 
L 152.708651 290.928443 
L 153.174185 289.965291 
L 153.64255 291.119585 
L 154.111815 291.890146 
L 154.580142 293.261126 
L 155.04854 293.244986 
L 155.51684 294.035292 
L 155.987195 293.696112 
L 156.454641 294.440718 
L 156.920441 294.034578 
L 157.391208 294.543067 
L 157.858174 292.189592 
L 158.327178 292.917486 
L 158.793342 293.284035 
L 159.261876 293.945153 
L 159.730988 293.601445 
L 160.200665 293.642832 
L 160.666311 293.228623 
L 161.136027 293.8377 
L 161.604659 294.161692 
L 162.074119 295.691442 
L 162.539516 295.400349 
L 163.010042 298.078517 
L 163.476501 299.935183 
L 163.946085 303.500086 
L 164.416251 305.258001 
L 164.883055 308.620307 
L 165.351701 309.461308 
L 165.818056 311.399631 
L 166.288225 310.382606 
L 166.755248 309.802676 
L 167.224491 303.142992 
L 167.690918 300.160235 
L 169.097922 289.359001 
L 169.565258 286.425906 
L 170.031976 284.31313 
L 170.501568 298.996489 
L 170.967786 298.968914 
L 171.438982 300.097275 
L 171.905783 300.289977 
L 172.373918 302.255318 
L 172.842531 303.249886 
L 173.309638 304.996402 
L 173.776953 304.957321 
L 174.246254 306.183835 
L 174.714045 305.871591 
L 175.186438 307.062115 
L 175.650787 306.559294 
L 176.119085 307.253881 
L 176.588917 282.998853 
L 177.057754 283.296719 
L 177.526912 282.883616 
L 177.993534 282.292126 
L 178.92961 278.104195 
L 179.398544 275.785483 
L 179.864451 284.823681 
L 180.333557 286.469589 
L 180.80377 291.372884 
L 181.271666 286.208226 
L 181.739461 292.096505 
L 182.209594 291.11227 
L 182.675715 288.381028 
L 183.142551 287.733729 
L 183.611882 285.680983 
L 184.080227 285.955936 
L 184.549626 284.223452 
L 185.016327 284.538866 
L 185.484645 282.487037 
L 185.95129 279.146445 
L 186.422333 273.06333 
L 186.890122 272.375357 
L 187.357862 267.409688 
L 187.829304 265.494808 
L 188.296844 264.069007 
L 188.763493 264.619841 
L 189.232924 262.432335 
L 189.701203 263.870525 
L 190.167823 262.367949 
L 190.635421 274.412996 
L 191.103246 272.455149 
L 191.571176 271.088181 
L 192.043154 267.700583 
L 192.507824 270.549625 
L 192.979362 272.520093 
L 193.445968 277.000983 
L 193.915973 278.817671 
L 194.382082 281.091297 
L 194.848945 282.347584 
L 195.319926 285.127042 
L 195.786525 287.031861 
L 196.256211 288.204853 
L 196.722078 290.742623 
L 197.189747 292.095276 
L 197.661561 295.448435 
L 198.129745 296.290409 
L 198.596733 299.684507 
L 199.066969 299.809312 
L 199.532602 303.04524 
L 200.002896 296.597779 
L 200.471133 301.307041 
L 200.939593 303.932436 
L 201.408103 307.715469 
L 201.874149 305.791365 
L 202.342157 305.668704 
L 202.811929 302.808776 
L 203.280753 302.718995 
L 203.748264 300.908839 
L 204.216198 301.381041 
L 204.682329 297.208644 
L 205.149853 298.833335 
L 205.620571 298.3571 
L 206.089639 300.392687 
L 206.556224 299.375177 
L 207.026163 301.282603 
L 207.491768 301.422578 
L 207.963105 304.01816 
L 208.431845 304.420196 
L 208.896399 307.610052 
L 209.368156 308.155039 
L 209.834332 307.327489 
L 210.301803 308.41048 
L 210.77029 312.734233 
L 211.238646 312.941108 
L 211.709338 314.673706 
L 212.643788 309.294881 
L 214.985191 278.090614 
L 215.453372 275.471463 
L 215.921635 273.862025 
L 216.858037 285.400141 
L 217.32724 289.952943 
L 217.794273 289.043382 
L 218.263268 286.815367 
L 218.731889 287.380447 
L 219.19891 289.481588 
L 219.669688 289.205216 
L 220.138463 285.078747 
L 220.602813 284.119874 
L 221.073792 282.606948 
L 221.539205 284.638151 
L 222.009031 285.082458 
L 222.478529 286.971917 
L 222.945336 286.883959 
L 223.415217 287.884071 
L 223.883572 289.561608 
L 224.352371 288.749709 
L 224.816938 287.659515 
L 225.28652 284.676264 
L 225.755925 284.206607 
L 226.222883 282.614354 
L 226.694079 282.255273 
L 227.160405 281.712066 
L 227.629221 280.245632 
L 228.097862 279.200676 
L 228.564344 278.639819 
L 229.03332 277.293996 
L 229.501214 274.419325 
L 229.968312 273.803943 
L 230.437702 271.878922 
L 230.905422 273.033837 
L 231.372655 273.170584 
L 231.840716 276.271286 
L 232.311552 277.343625 
L 233.248054 282.761982 
L 233.714364 283.315029 
L 234.18383 282.194656 
L 234.65046 282.724313 
L 235.120191 283.886141 
L 236.526556 290.0568 
L 236.993654 292.822114 
L 237.460754 297.554304 
L 237.930084 300.363816 
L 238.397972 301.821771 
L 238.868028 305.526252 
L 239.33389 306.898986 
L 239.801723 309.948927 
L 240.271332 310.149225 
L 240.738536 312.333757 
L 241.206159 311.638954 
L 241.674464 313.330723 
L 242.144814 312.107164 
L 242.612177 308.578858 
L 243.081282 307.77941 
L 243.55104 310.112026 
L 244.018476 308.475352 
L 244.485655 312.111775 
L 244.954949 310.048077 
L 245.422618 307.159149 
L 246.360032 295.363057 
L 246.825272 291.284619 
L 247.293354 288.253397 
L 248.698908 269.475115 
L 249.166407 264.127194 
L 250.106567 256.683117 
L 250.573263 256.368508 
L 251.040807 254.020691 
L 251.508745 256.243727 
L 251.978536 264.449247 
L 252.444355 266.996181 
L 252.913686 259.611811 
L 253.383919 260.117407 
L 253.8496 258.694084 
L 254.320393 262.981168 
L 254.787711 264.831163 
L 255.254402 269.481446 
L 255.722069 271.358452 
L 256.660078 278.030885 
L 257.129466 279.105737 
L 257.59599 278.952081 
L 258.064211 279.596673 
L 259.002358 282.010041 
L 259.470046 283.514861 
L 260.406516 285.249282 
L 260.873439 286.899963 
L 261.344427 297.92648 
L 261.811626 300.98432 
L 262.277645 297.154711 
L 262.746412 299.092746 
L 263.218034 291.892195 
L 263.684806 292.810713 
L 264.151488 285.730649 
L 264.620461 287.146149 
L 265.087972 283.520824 
L 265.556102 286.204653 
L 266.02335 296.485196 
L 266.492586 296.073216 
L 266.962247 294.198259 
L 267.430406 294.529774 
L 267.900442 287.267448 
L 268.366359 287.658391 
L 268.833027 279.581699 
L 269.303406 280.918276 
L 269.774346 275.112638 
L 270.240914 277.775184 
L 270.708123 289.95279 
L 271.177714 291.737679 
L 271.646353 285.101696 
L 272.110848 285.603597 
L 272.580486 271.13168 
L 273.048619 269.288196 
L 273.516101 268.775469 
L 273.987513 271.256922 
L 274.454973 272.951093 
L 275.388845 277.897135 
L 275.857526 283.293087 
L 276.325228 279.582118 
L 276.79386 286.769046 
L 277.262587 288.427367 
L 277.733095 305.046079 
L 278.667591 311.146137 
L 280.540079 334.547837 
L 281.007441 346.909123 
L 281.477199 351.357608 
L 281.946079 352.051975 
L 282.41492 351.257935 
L 282.883452 348.752056 
L 283.352031 345.428377 
L 284.756595 333.487966 
L 285.222207 334.274326 
L 286.62875 325.671309 
L 287.096824 322.058603 
L 287.564309 315.057064 
L 288.031975 298.420182 
L 288.502045 292.233536 
L 288.970313 292.406733 
L 289.437287 301.382201 
L 289.908976 302.064257 
L 290.375708 293.115699 
L 290.843266 288.314265 
L 291.31063 285.533585 
L 291.778659 287.484676 
L 292.246805 285.930533 
L 292.715291 285.167056 
L 293.18698 279.816149 
L 293.653649 278.127244 
L 294.121257 279.281874 
L 294.586862 277.997495 
L 295.057215 271.939264 
L 295.524355 271.996727 
L 295.995169 271.493282 
L 296.46287 276.373942 
L 296.93106 280.030087 
L 297.866411 289.464382 
L 299.274083 300.586854 
L 299.740934 306.43311 
L 300.676822 312.141792 
L 301.146026 311.568766 
L 301.614069 318.043019 
L 302.080705 319.074323 
L 302.548359 324.460227 
L 303.01763 322.830132 
L 303.486467 315.250323 
L 303.956828 311.589984 
L 304.424792 310.370845 
L 305.358716 294.741986 
L 306.295142 277.557974 
L 307.233419 264.842386 
L 307.699441 263.582343 
L 308.168969 272.831581 
L 309.104565 264.406152 
L 310.508984 249.560221 
L 310.978492 248.980737 
L 311.446197 294.236176 
L 311.915045 321.996522 
L 312.382568 305.977094 
L 312.852041 272.856802 
L 313.320112 278.195451 
L 313.785714 307.26087 
L 314.254877 317.506354 
L 314.725259 312.390265 
L 315.191454 303.022411 
L 316.12966 315.755186 
L 316.595436 326.158709 
L 317.06615 323.77532 
L 317.532751 311.059794 
L 318.001515 311.846108 
L 318.471464 318.998417 
L 318.936572 317.970514 
L 319.406076 318.1604 
L 320.343337 305.088559 
L 322.216741 262.443393 
L 323.152055 251.51267 
L 323.622964 248.334198 
L 324.08822 246.15424 
L 324.558359 245.156022 
L 325.026688 245.325589 
L 325.49518 246.411194 
L 325.962783 248.162415 
L 326.43021 253.021231 
L 326.899748 254.520312 
L 327.367933 261.368414 
L 327.834006 286.993117 
L 328.303803 303.706495 
L 328.772488 311.369936 
L 329.241619 307.237714 
L 330.175101 295.652017 
L 331.112935 290.498321 
L 331.581168 288.143049 
L 332.050254 287.25485 
L 332.516136 285.629516 
L 332.984631 284.431242 
L 333.454806 282.362228 
L 333.923188 281.549743 
L 334.391963 280.071202 
L 334.859248 280.195925 
L 335.329262 279.173569 
L 335.796745 280.025375 
L 336.264583 282.575999 
L 336.732595 283.281849 
L 337.202002 281.849633 
L 337.669023 281.55893 
L 338.135735 280.438261 
L 338.60439 280.841012 
L 339.075093 280.172595 
L 339.54306 280.639041 
L 340.010502 279.826384 
L 340.476745 282.114256 
L 340.945141 288.113936 
L 341.413005 288.034018 
L 341.881453 286.271213 
L 342.35201 285.954022 
L 342.819371 282.588793 
L 343.285714 282.79597 
L 343.754525 275.748572 
L 344.224115 275.43543 
L 344.690838 274.265355 
L 345.162031 274.509759 
L 345.630541 275.305981 
L 346.097768 275.328047 
L 346.566145 270.219339 
L 347.034047 269.240792 
L 347.50264 267.18824 
L 347.97081 268.730641 
L 348.439075 268.923064 
L 348.907807 271.339246 
L 349.375959 272.213535 
L 349.843623 274.259044 
L 350.31222 277.108329 
L 350.780174 278.187531 
L 351.248507 278.450548 
L 351.717245 279.177118 
L 352.650844 281.593495 
L 353.11925 283.426611 
L 353.587868 284.521874 
L 354.05649 286.761525 
L 354.994527 288.768919 
L 355.462689 296.114639 
L 355.931637 308.721392 
L 356.397686 315.524296 
L 356.866981 320.110784 
L 357.335107 321.270684 
L 357.804261 325.230121 
L 358.27064 325.150186 
L 358.739304 327.556292 
L 359.206661 325.765448 
L 359.678125 320.619104 
L 360.144198 318.68881 
L 360.615163 320.220917 
L 361.082341 318.89049 
L 361.552436 319.635517 
L 362.019985 317.517423 
L 362.487381 317.339026 
L 362.956756 314.603011 
L 363.422468 313.589766 
L 363.891925 310.340533 
L 364.36021 304.608479 
L 364.827064 301.700292 
L 365.2954 300.306411 
L 365.762718 297.697185 
L 366.233209 295.771498 
L 367.168615 290.832694 
L 367.636364 288.379107 
L 368.10634 288.581533 
L 368.572264 291.405463 
L 369.042656 292.175433 
L 369.511052 295.311929 
L 369.977227 300.053601 
L 370.447008 300.271637 
L 370.913757 300.892954 
L 371.384204 301.003857 
L 371.850097 301.568302 
L 372.318189 301.598424 
L 372.788391 302.182513 
L 373.25659 293.869353 
L 373.724944 282.454394 
L 374.192736 282.569663 
L 374.659963 283.414073 
L 375.129835 283.43216 
L 375.598541 283.648819 
L 376.065683 283.029045 
L 376.532906 282.615318 
L 377.002024 281.695007 
L 377.472255 290.98387 
L 377.937427 294.7565 
L 378.408137 294.242016 
L 378.875916 296.071446 
L 379.344456 300.563382 
L 381.21766 299.876726 
L 381.685022 297.090423 
L 382.151373 296.535056 
L 382.62109 288.958787 
L 383.089834 277.754346 
L 383.556807 277.591255 
L 384.026581 276.99395 
L 384.496027 276.721407 
L 384.96092 280.754587 
L 385.430225 282.880302 
L 385.899686 291.767962 
L 386.836764 295.939855 
L 387.30667 296.247133 
L 388.240537 287.792555 
L 388.706775 288.68374 
L 389.177008 284.635219 
L 389.64514 286.366972 
L 390.115269 283.657897 
L 390.579932 286.531744 
L 391.050912 285.055571 
L 391.51963 289.049476 
L 391.986319 287.983442 
L 392.454345 285.041398 
L 392.924919 284.733272 
L 393.391166 291.261272 
L 393.858967 290.978643 
L 394.326194 290.345969 
L 394.79627 290.938407 
L 395.265053 290.872882 
L 395.733573 291.436713 
L 396.202151 291.015985 
L 396.671659 291.115264 
L 397.136973 291.366464 
L 397.605787 290.827321 
L 398.071808 288.861426 
L 398.53993 288.09038 
L 399.012953 286.406608 
L 399.480479 286.232657 
L 399.946385 284.713263 
L 400.415444 284.711695 
L 400.884494 283.144283 
L 401.350545 283.361408 
L 401.818445 284.413001 
L 402.28962 283.012795 
L 402.757285 282.335824 
L 403.225179 282.121633 
L 403.693898 281.418418 
L 404.160028 282.814612 
L 404.628706 283.560153 
L 405.098521 285.340825 
L 405.566743 286.248744 
L 406.501047 288.944597 
L 406.971273 289.426788 
L 407.440585 289.39003 
L 407.908175 289.576154 
L 409.311209 290.780084 
L 410.250268 290.829922 
L 410.715116 290.576453 
L 411.184558 290.139846 
L 412.58783 289.650849 
L 413.056492 289.221464 
L 413.527619 289.041042 
L 413.994555 288.696432 
L 414.464857 288.799235 
L 414.930804 288.585633 
L 415.401167 288.761773 
L 415.866662 289.188141 
L 416.334345 289.017336 
L 416.802158 288.237128 
L 417.738405 288.812269 
L 418.207899 289.268384 
L 418.676605 288.951737 
L 419.614559 288.984143 
L 420.080778 289.412219 
L 420.549162 289.572388 
L 421.486016 289.16623 
L 422.422565 289.782715 
L 422.891425 289.706338 
L 423.360195 289.509739 
L 423.828462 289.563037 
L 424.297693 289.809721 
L 424.763539 289.812632 
L 425.23164 289.509549 
L 425.698905 289.547568 
L 426.169615 289.836888 
L 426.63548 289.846263 
L 427.574791 289.557972 
L 428.5127 289.779903 
L 430.384303 289.702886 
L 431.319725 289.684869 
L 433.194526 289.690628 
L 440.683884 289.670574 
L 454.731011 289.594102 
L 457.072456 289.413355 
L 457.541283 289.304186 
L 458.478206 288.695524 
L 458.947599 288.142568 
L 459.413502 287.188145 
L 459.881808 285.590571 
L 460.352419 284.7728 
L 461.756189 287.926526 
L 462.694101 289.577704 
L 463.628065 290.658618 
L 464.566962 291.293816 
L 465.50331 291.484969 
L 466.439495 291.230229 
L 466.908413 290.934838 
L 468.314354 289.221635 
L 468.779637 289.011011 
L 469.251879 291.298552 
L 469.717004 291.912512 
L 470.186004 287.100951 
L 470.65257 287.067416 
L 471.121531 291.423267 
L 471.58983 292.260637 
L 472.059426 288.725302 
L 472.525264 287.666312 
L 472.994652 288.182234 
L 472.994652 288.182234 
" clip-path="url(#p5222f55e9b)" style="fill: none; stroke: #1f77b4; stroke-width: 1.5; stroke-linecap: square"/>
   </g>
   <g id="patch_9">
    <path d="M 48.682344 361.077656 
L 48.682344 211.36279 
" style="fill: none; stroke: #000000; stroke-width: 0.8; stroke-linejoin: miter; stroke-linecap: square"/>
   </g>
   <g id="patch_10">
    <path d="M 493.2 361.077656 
L 493.2 211.36279 
" style="fill: none; stroke: #000000; stroke-width: 0.8; stroke-linejoin: miter; stroke-linecap: square"/>
   </g>
   <g id="patch_11">
    <path d="M 48.682344 361.077656 
L 493.2 361.077656 
" style="fill: none; stroke: #000000; stroke-width: 0.8; stroke-linejoin: miter; stroke-linecap: square"/>
   </g>
   <g id="patch_12">
    <path d="M 48.682344 211.36279 
L 493.2 211.36279 
" style="fill: none; stroke: #000000; stroke-width: 0.8; stroke-linejoin: miter; stroke-linecap: square"/>
   </g>
   <g id="legend_2">
    <g id="patch_13">
     <path d="M 443.5 234.363571 
L 486.2 234.363571 
Q 488.2 234.363571 488.2 232.363571 
L 488.2 218.36279 
Q 488.2 216.36279 486.2 216.36279 
L 443.5 216.36279 
Q 441.5 216.36279 441.5 218.36279 
L 441.5 232.363571 
Q 441.5 234.363571 443.5 234.363571 
z
" style="fill: #ffffff; opacity: 0.8; stroke: #cccccc; stroke-linejoin: miter"/>
    </g>
    <g id="line2d_48">
     <path d="M 445.5 224.461228 
L 455.5 224.461228 
L 465.5 224.461228 
" style="fill: none; stroke: #1f77b4; stroke-width: 1.5; stroke-linecap: square"/>
    </g>
    <g id="text_27">
     <!-- $v_2$ -->
     <g transform="translate(473.5 227.961228) scale(0.1 -0.1)">
      <use xlink:href="#DejaVuSans-Oblique-59" transform="translate(0 0.3125)"/>
      <use xlink:href="#DejaVuSans-15" transform="translate(59.179688 -14.687451) scale(0.7)"/>
     </g>
    </g>
   </g>
  </g>
  <g id="text_28">
   <!-- OAMPC Virtual Inputs -->
   <g transform="translate(188.213437 17.182125) scale(0.12 -0.12)">
    <defs>
     <path id="DejaVuSans-32" d="M 2522 4238 
Q 1834 4238 1429 3725 
Q 1025 3213 1025 2328 
Q 1025 1447 1429 934 
Q 1834 422 2522 422 
Q 3209 422 3611 934 
Q 4013 1447 4013 2328 
Q 4013 3213 3611 3725 
Q 3209 4238 2522 4238 
z
M 2522 4750 
Q 3503 4750 4090 4092 
Q 4678 3434 4678 2328 
Q 4678 1225 4090 567 
Q 3503 -91 2522 -91 
Q 1538 -91 948 565 
Q 359 1222 359 2328 
Q 359 3434 948 4092 
Q 1538 4750 2522 4750 
z
" transform="scale(0.015625)"/>
     <path id="DejaVuSans-24" d="M 2188 4044 
L 1331 1722 
L 3047 1722 
L 2188 4044 
z
M 1831 4666 
L 2547 4666 
L 4325 0 
L 3669 0 
L 3244 1197 
L 1141 1197 
L 716 0 
L 50 0 
L 1831 4666 
z
" transform="scale(0.015625)"/>
     <path id="DejaVuSans-30" d="M 628 4666 
L 1569 4666 
L 2759 1491 
L 3956 4666 
L 4897 4666 
L 4897 0 
L 4281 0 
L 4281 4097 
L 3078 897 
L 2444 897 
L 1241 4097 
L 1241 0 
L 628 0 
L 628 4666 
z
" transform="scale(0.015625)"/>
     <path id="DejaVuSans-33" d="M 1259 4147 
L 1259 2394 
L 2053 2394 
Q 2494 2394 2734 2622 
Q 2975 2850 2975 3272 
Q 2975 3691 2734 3919 
Q 2494 4147 2053 4147 
L 1259 4147 
z
M 628 4666 
L 2053 4666 
Q 2838 4666 3239 4311 
Q 3641 3956 3641 3272 
Q 3641 2581 3239 2228 
Q 2838 1875 2053 1875 
L 1259 1875 
L 1259 0 
L 628 0 
L 628 4666 
z
" transform="scale(0.015625)"/>
     <path id="DejaVuSans-26" d="M 4122 4306 
L 4122 3641 
Q 3803 3938 3442 4084 
Q 3081 4231 2675 4231 
Q 1875 4231 1450 3742 
Q 1025 3253 1025 2328 
Q 1025 1406 1450 917 
Q 1875 428 2675 428 
Q 3081 428 3442 575 
Q 3803 722 4122 1019 
L 4122 359 
Q 3791 134 3420 21 
Q 3050 -91 2638 -91 
Q 1578 -91 968 557 
Q 359 1206 359 2328 
Q 359 3453 968 4101 
Q 1578 4750 2638 4750 
Q 3056 4750 3426 4639 
Q 3797 4528 4122 4306 
z
" transform="scale(0.015625)"/>
     <path id="DejaVuSans-39" d="M 1831 0 
L 50 4666 
L 709 4666 
L 2188 738 
L 3669 4666 
L 4325 4666 
L 2547 0 
L 1831 0 
z
" transform="scale(0.015625)"/>
     <path id="DejaVuSans-55" d="M 2631 2963 
Q 2534 3019 2420 3045 
Q 2306 3072 2169 3072 
Q 1681 3072 1420 2755 
Q 1159 2438 1159 1844 
L 1159 0 
L 581 0 
L 581 3500 
L 1159 3500 
L 1159 2956 
Q 1341 3275 1631 3429 
Q 1922 3584 2338 3584 
Q 2397 3584 2469 3576 
Q 2541 3569 2628 3553 
L 2631 2963 
z
" transform="scale(0.015625)"/>
     <path id="DejaVuSans-57" d="M 1172 4494 
L 1172 3500 
L 2356 3500 
L 2356 3053 
L 1172 3053 
L 1172 1153 
Q 1172 725 1289 603 
Q 1406 481 1766 481 
L 2356 481 
L 2356 0 
L 1766 0 
Q 1100 0 847 248 
Q 594 497 594 1153 
L 594 3053 
L 172 3053 
L 172 3500 
L 594 3500 
L 594 4494 
L 1172 4494 
z
" transform="scale(0.015625)"/>
     <path id="DejaVuSans-58" d="M 544 1381 
L 544 3500 
L 1119 3500 
L 1119 1403 
Q 1119 906 1312 657 
Q 1506 409 1894 409 
Q 2359 409 2629 706 
Q 2900 1003 2900 1516 
L 2900 3500 
L 3475 3500 
L 3475 0 
L 2900 0 
L 2900 538 
Q 2691 219 2414 64 
Q 2138 -91 1772 -91 
Q 1169 -91 856 284 
Q 544 659 544 1381 
z
M 1991 3584 
L 1991 3584 
z
" transform="scale(0.015625)"/>
     <path id="DejaVuSans-44" d="M 2194 1759 
Q 1497 1759 1228 1600 
Q 959 1441 959 1056 
Q 959 750 1161 570 
Q 1363 391 1709 391 
Q 2188 391 2477 730 
Q 2766 1069 2766 1631 
L 2766 1759 
L 2194 1759 
z
M 3341 1997 
L 3341 0 
L 2766 0 
L 2766 531 
Q 2569 213 2275 61 
Q 1981 -91 1556 -91 
Q 1019 -91 701 211 
Q 384 513 384 1019 
Q 384 1609 779 1909 
Q 1175 2209 1959 2209 
L 2766 2209 
L 2766 2266 
Q 2766 2663 2505 2880 
Q 2244 3097 1772 3097 
Q 1472 3097 1187 3025 
Q 903 2953 641 2809 
L 641 3341 
Q 956 3463 1253 3523 
Q 1550 3584 1831 3584 
Q 2591 3584 2966 3190 
Q 3341 2797 3341 1997 
z
" transform="scale(0.015625)"/>
     <path id="DejaVuSans-4f" d="M 603 4863 
L 1178 4863 
L 1178 0 
L 603 0 
L 603 4863 
z
" transform="scale(0.015625)"/>
     <path id="DejaVuSans-2c" d="M 628 4666 
L 1259 4666 
L 1259 0 
L 628 0 
L 628 4666 
z
" transform="scale(0.015625)"/>
     <path id="DejaVuSans-51" d="M 3513 2113 
L 3513 0 
L 2938 0 
L 2938 2094 
Q 2938 2591 2744 2837 
Q 2550 3084 2163 3084 
Q 1697 3084 1428 2787 
Q 1159 2491 1159 1978 
L 1159 0 
L 581 0 
L 581 3500 
L 1159 3500 
L 1159 2956 
Q 1366 3272 1645 3428 
Q 1925 3584 2291 3584 
Q 2894 3584 3203 3211 
Q 3513 2838 3513 2113 
z
" transform="scale(0.015625)"/>
     <path id="DejaVuSans-53" d="M 1159 525 
L 1159 -1331 
L 581 -1331 
L 581 3500 
L 1159 3500 
L 1159 2969 
Q 1341 3281 1617 3432 
Q 1894 3584 2278 3584 
Q 2916 3584 3314 3078 
Q 3713 2572 3713 1747 
Q 3713 922 3314 415 
Q 2916 -91 2278 -91 
Q 1894 -91 1617 61 
Q 1341 213 1159 525 
z
M 3116 1747 
Q 3116 2381 2855 2742 
Q 2594 3103 2138 3103 
Q 1681 3103 1420 2742 
Q 1159 2381 1159 1747 
Q 1159 1113 1420 752 
Q 1681 391 2138 391 
Q 2594 391 2855 752 
Q 3116 1113 3116 1747 
z
" transform="scale(0.015625)"/>
    </defs>
    <use xlink:href="#DejaVuSans-32"/>
    <use xlink:href="#DejaVuSans-24" transform="translate(76.96875 0)"/>
    <use xlink:href="#DejaVuSans-30" transform="translate(145.375 0)"/>
    <use xlink:href="#DejaVuSans-33" transform="translate(231.65625 0)"/>
    <use xlink:href="#DejaVuSans-26" transform="translate(291.953125 0)"/>
    <use xlink:href="#DejaVuSans-3" transform="translate(361.78125 0)"/>
    <use xlink:href="#DejaVuSans-39" transform="translate(393.5625 0)"/>
    <use xlink:href="#DejaVuSans-4c" transform="translate(459.765625 0)"/>
    <use xlink:href="#DejaVuSans-55" transform="translate(487.546875 0)"/>
    <use xlink:href="#DejaVuSans-57" transform="translate(528.65625 0)"/>
    <use xlink:href="#DejaVuSans-58" transform="translate(567.859375 0)"/>
    <use xlink:href="#DejaVuSans-44" transform="translate(631.234375 0)"/>
    <use xlink:href="#DejaVuSans-4f" transform="translate(692.515625 0)"/>
    <use xlink:href="#DejaVuSans-3" transform="translate(720.296875 0)"/>
    <use xlink:href="#DejaVuSans-2c" transform="translate(752.078125 0)"/>
    <use xlink:href="#DejaVuSans-51" transform="translate(781.578125 0)"/>
    <use xlink:href="#DejaVuSans-53" transform="translate(844.953125 0)"/>
    <use xlink:href="#DejaVuSans-58" transform="translate(908.4375 0)"/>
    <use xlink:href="#DejaVuSans-57" transform="translate(971.8125 0)"/>
    <use xlink:href="#DejaVuSans-56" transform="translate(1011.015625 0)"/>
   </g>
  </g>
 </g>
 <defs>
  <clipPath id="p2ff57d9c47">
   <rect x="48.682344" y="33.847924" width="444.517656" height="149.714866"/>
  </clipPath>
  <clipPath id="p5222f55e9b">
   <rect x="48.682344" y="211.36279" width="444.517656" height="149.714866"/>
  </clipPath>
 </defs>
</svg>
